<?xml version="1.0" encoding="UTF-8" standalone="no"?>
<!DOCTYPE svg PUBLIC "-//W3C//DTD SVG 1.1//EN"
 "http://www.w3.org/Graphics/SVG/1.1/DTD/svg11.dtd">
<!-- Generated by graphviz version 2.38.0 (20140413.2041)
 -->
<!-- Title: src/Components/Display/Animator.hpp Pages: 1 -->
<!--zoomable 117 -->
<svg id="main" version="1.1" xmlns="http://www.w3.org/2000/svg" xmlns:xlink="http://www.w3.org/1999/xlink" xml:space="preserve" onload="init(evt)">
<style type="text/css"><![CDATA[
.edge:hover path { stroke: red; }
.edge:hover polygon { stroke: red; fill: red; }
]]></style>
<script type="text/javascript"><![CDATA[
var edges = document.getElementsByTagName('g');
if (edges && edges.length) {
  for (var i=0;i<edges.length;i++) {
    if (edges[i].id.substr(0,4)=='edge') {
      edges[i].setAttribute('class','edge');
    }
  }
}
]]></script>
        <defs>
                <circle id="rim" cx="0" cy="0" r="7"/>
                <circle id="rim2" cx="0" cy="0" r="3.5"/>
                <g id="zoomPlus">
                        <use xlink:href="#rim" fill="#404040">
                                <set attributeName="fill" to="#808080" begin="zoomplus.mouseover" end="zoomplus.mouseout"/>
                        </use>
                        <path d="M-4,0h8M0,-4v8" fill="none" stroke="white" stroke-width="1.5" pointer-events="none"/>
                </g>
                <g id="zoomMin">
                        <use xlink:href="#rim" fill="#404040">
                                <set attributeName="fill" to="#808080" begin="zoomminus.mouseover" end="zoomminus.mouseout"/>
                        </use>
                        <path d="M-4,0h8" fill="none" stroke="white" stroke-width="1.5" pointer-events="none"/>
                </g>
                <g id="dirArrow">
                        <path fill="none" stroke="white" stroke-width="1.5" d="M0,-3.0v7 M-2.5,-0.5L0,-3.0L2.5,-0.5"/>
                </g>
               <g id="resetDef">
                       <use xlink:href="#rim2" fill="#404040">
                               <set attributeName="fill" to="#808080" begin="reset.mouseover" end="reset.mouseout"/>
                       </use>
               </g>
        </defs>

<script type="text/javascript">
var viewWidth = 2912;
var viewHeight = 117;
var sectionId = 'dynsection-1';
</script>
<script xlink:href="svgpan.js"/>
<svg id="graph" class="graph">
<g id="viewport">
<title>src/Components/Display/Animator.hpp</title>
<!-- Node1 -->
<g id="node1" class="node"><title>Node1</title>
<polygon fill="#bfbfbf" stroke="black" points="1394,-78.5 1394,-108.5 1527,-108.5 1527,-78.5 1394,-78.5"/>
<text text-anchor="start" x="1402" y="-96.5" font-family="Helvetica,sans-Serif" font-size="10.00">src/Components/Display</text>
<text text-anchor="middle" x="1460.5" y="-85.5" font-family="Helvetica,sans-Serif" font-size="10.00">/Animator.hpp</text>
</g>
<!-- Node2 -->
<g id="node2" class="node"><title>Node2</title>
<g id="a_node2"><a xlink:href="Animator_8cpp.html" target="_top" xlink:title="src/Components/Display\l/Animator.cpp">
<polygon fill="none" stroke="black" points="0,-6 0,-36 133,-36 133,-6 0,-6"/>
<text text-anchor="start" x="8" y="-24" font-family="Helvetica,sans-Serif" font-size="10.00">src/Components/Display</text>
<text text-anchor="middle" x="66.5" y="-13" font-family="Helvetica,sans-Serif" font-size="10.00">/Animator.cpp</text>
</a>
</g>
</g>
<!-- Node1&#45;&gt;Node2 -->
<g id="edge1" class="edge"><title>Node1&#45;&gt;Node2</title>
<path fill="none" stroke="midnightblue" d="M1383.71,-91.8001C1139.63,-89.2228 383.468,-78.4301 141.5,-42 132.039,-40.5755 122.057,-38.4028 112.57,-36.0065"/>
<polygon fill="midnightblue" stroke="midnightblue" points="1383.87,-95.3018 1393.91,-91.9061 1383.94,-88.3022 1383.87,-95.3018"/>
</g>
<!-- Node3 -->
<g id="node3" class="node"><title>Node3</title>
<g id="a_node3"><a xlink:href="BulletEntity_8cpp.html" target="_top" xlink:title="src/Entities/EntityConstructor\l/BulletEntity/BulletEntity.cpp">
<polygon fill="none" stroke="black" points="151,-6 151,-36 306,-36 306,-6 151,-6"/>
<text text-anchor="start" x="159" y="-24" font-family="Helvetica,sans-Serif" font-size="10.00">src/Entities/EntityConstructor</text>
<text text-anchor="middle" x="228.5" y="-13" font-family="Helvetica,sans-Serif" font-size="10.00">/BulletEntity/BulletEntity.cpp</text>
</a>
</g>
</g>
<!-- Node1&#45;&gt;Node3 -->
<g id="edge2" class="edge"><title>Node1&#45;&gt;Node3</title>
<path fill="none" stroke="midnightblue" d="M1383.38,-90.9571C1161.11,-86.2154 521.832,-70.4288 314.5,-42 303.869,-40.5423 292.622,-38.3865 281.89,-36.0232"/>
<polygon fill="midnightblue" stroke="midnightblue" points="1383.58,-94.4619 1393.65,-91.1745 1383.72,-87.4634 1383.58,-94.4619"/>
</g>
<!-- Node4 -->
<g id="node4" class="node"><title>Node4</title>
<g id="a_node4"><a xlink:href="EnemyBulletEntity_8cpp.html" target="_top" xlink:title="src/Entities/EntityConstructor\l/EnemyBulletEntity/EnemyBulletEntity.cpp">
<polygon fill="none" stroke="black" points="324,-6 324,-36 539,-36 539,-6 324,-6"/>
<text text-anchor="start" x="332" y="-24" font-family="Helvetica,sans-Serif" font-size="10.00">src/Entities/EntityConstructor</text>
<text text-anchor="middle" x="431.5" y="-13" font-family="Helvetica,sans-Serif" font-size="10.00">/EnemyBulletEntity/EnemyBulletEntity.cpp</text>
</a>
</g>
</g>
<!-- Node1&#45;&gt;Node4 -->
<g id="edge3" class="edge"><title>Node1&#45;&gt;Node4</title>
<path fill="none" stroke="midnightblue" d="M1383.79,-91.2451C1226.48,-88.0144 856.196,-77.0305 547.5,-42 533.794,-40.4446 519.251,-38.319 505.265,-36.032"/>
<polygon fill="midnightblue" stroke="midnightblue" points="1383.77,-94.7454 1393.84,-91.4469 1383.91,-87.7468 1383.77,-94.7454"/>
</g>
<!-- Node5 -->
<g id="node5" class="node"><title>Node5</title>
<g id="a_node5"><a xlink:href="EnemyEntity_8cpp.html" target="_top" xlink:title="src/Entities/EntityConstructor\l/EnemyEntity/EnemyEntity.cpp">
<polygon fill="none" stroke="black" points="557,-6 557,-36 718,-36 718,-6 557,-6"/>
<text text-anchor="start" x="565" y="-24" font-family="Helvetica,sans-Serif" font-size="10.00">src/Entities/EntityConstructor</text>
<text text-anchor="middle" x="637.5" y="-13" font-family="Helvetica,sans-Serif" font-size="10.00">/EnemyEntity/EnemyEntity.cpp</text>
</a>
</g>
</g>
<!-- Node1&#45;&gt;Node5 -->
<g id="edge4" class="edge"><title>Node1&#45;&gt;Node5</title>
<path fill="none" stroke="midnightblue" d="M1383.68,-91.06C1249.63,-87.6918 964.554,-76.7302 726.5,-42 715.844,-40.4454 704.569,-38.3055 693.757,-36.001"/>
<polygon fill="midnightblue" stroke="midnightblue" points="1383.76,-94.563 1393.84,-91.3081 1383.93,-87.5651 1383.76,-94.563"/>
</g>
<!-- Node6 -->
<g id="node6" class="node"><title>Node6</title>
<g id="a_node6"><a xlink:href="EnemyType01Entity_8cpp.html" target="_top" xlink:title="src/Entities/EntityConstructor\l/EnemyType01Entity/EnemyType01Entity.cpp">
<polygon fill="none" stroke="black" points="736,-6 736,-36 963,-36 963,-6 736,-6"/>
<text text-anchor="start" x="744" y="-24" font-family="Helvetica,sans-Serif" font-size="10.00">src/Entities/EntityConstructor</text>
<text text-anchor="middle" x="849.5" y="-13" font-family="Helvetica,sans-Serif" font-size="10.00">/EnemyType01Entity/EnemyType01Entity.cpp</text>
</a>
</g>
</g>
<!-- Node1&#45;&gt;Node6 -->
<g id="edge5" class="edge"><title>Node1&#45;&gt;Node6</title>
<path fill="none" stroke="midnightblue" d="M1383.67,-85.992C1287.22,-77.4943 1116.79,-61.3935 971.5,-42 958.31,-40.2393 944.353,-38.1584 930.774,-36.0156"/>
<polygon fill="midnightblue" stroke="midnightblue" points="1383.65,-89.5032 1393.91,-86.8904 1384.26,-82.53 1383.65,-89.5032"/>
</g>
<!-- Node7 -->
<g id="node7" class="node"><title>Node7</title>
<g id="a_node7"><a xlink:href="EnemyType02Entity_8cpp.html" target="_top" xlink:title="src/Entities/EntityConstructor\l/EnemyType02Entity/EnemyType02Entity.cpp">
<polygon fill="none" stroke="black" points="981,-6 981,-36 1208,-36 1208,-6 981,-6"/>
<text text-anchor="start" x="989" y="-24" font-family="Helvetica,sans-Serif" font-size="10.00">src/Entities/EntityConstructor</text>
<text text-anchor="middle" x="1094.5" y="-13" font-family="Helvetica,sans-Serif" font-size="10.00">/EnemyType02Entity/EnemyType02Entity.cpp</text>
</a>
</g>
</g>
<!-- Node1&#45;&gt;Node7 -->
<g id="edge6" class="edge"><title>Node1&#45;&gt;Node7</title>
<path fill="none" stroke="midnightblue" d="M1383.8,-77.7258C1320.06,-65.4477 1229.98,-48.0964 1167.33,-36.0296"/>
<polygon fill="midnightblue" stroke="midnightblue" points="1383.31,-81.1965 1393.8,-79.6512 1384.64,-74.3228 1383.31,-81.1965"/>
</g>
<!-- Node8 -->
<g id="node8" class="node"><title>Node8</title>
<g id="a_node8"><a xlink:href="EnemyType03Entity_8cpp.html" target="_top" xlink:title="src/Entities/EntityConstructor\l/EnemyType03Entity/EnemyType03Entity.cpp">
<polygon fill="none" stroke="black" points="1226,-6 1226,-36 1453,-36 1453,-6 1226,-6"/>
<text text-anchor="start" x="1234" y="-24" font-family="Helvetica,sans-Serif" font-size="10.00">src/Entities/EntityConstructor</text>
<text text-anchor="middle" x="1339.5" y="-13" font-family="Helvetica,sans-Serif" font-size="10.00">/EnemyType03Entity/EnemyType03Entity.cpp</text>
</a>
</g>
</g>
<!-- Node1&#45;&gt;Node8 -->
<g id="edge7" class="edge"><title>Node1&#45;&gt;Node8</title>
<path fill="none" stroke="midnightblue" d="M1427.45,-73.2407C1407.28,-61.4894 1381.94,-46.7295 1363.65,-36.0729"/>
<polygon fill="midnightblue" stroke="midnightblue" points="1425.9,-76.3925 1436.3,-78.4027 1429.43,-70.3443 1425.9,-76.3925"/>
</g>
<!-- Node9 -->
<g id="node9" class="node"><title>Node9</title>
<g id="a_node9"><a xlink:href="GameBackgroundEntity_8cpp.html" target="_top" xlink:title="src/Entities/EntityConstructor\l/GameBackgroundEntity/GameBackground\lEntity.cpp">
<polygon fill="none" stroke="black" points="1471.5,-0.5 1471.5,-41.5 1693.5,-41.5 1693.5,-0.5 1471.5,-0.5"/>
<text text-anchor="start" x="1479.5" y="-29.5" font-family="Helvetica,sans-Serif" font-size="10.00">src/Entities/EntityConstructor</text>
<text text-anchor="start" x="1479.5" y="-18.5" font-family="Helvetica,sans-Serif" font-size="10.00">/GameBackgroundEntity/GameBackground</text>
<text text-anchor="middle" x="1582.5" y="-7.5" font-family="Helvetica,sans-Serif" font-size="10.00">Entity.cpp</text>
</a>
</g>
</g>
<!-- Node1&#45;&gt;Node9 -->
<g id="edge8" class="edge"><title>Node1&#45;&gt;Node9</title>
<path fill="none" stroke="midnightblue" d="M1493.9,-73.2013C1510.85,-63.406 1531.4,-51.5283 1548.44,-41.6799"/>
<polygon fill="midnightblue" stroke="midnightblue" points="1491.8,-70.3689 1484.9,-78.4027 1495.3,-76.4297 1491.8,-70.3689"/>
</g>
<!-- Node10 -->
<g id="node10" class="node"><title>Node10</title>
<g id="a_node10"><a xlink:href="PlanetRingEntity_8cpp.html" target="_top" xlink:title="src/Entities/EntityConstructor\l/PlanetRingEntity/PlanetRingEntity.cpp">
<polygon fill="none" stroke="black" points="1711.5,-6 1711.5,-36 1907.5,-36 1907.5,-6 1711.5,-6"/>
<text text-anchor="start" x="1719.5" y="-24" font-family="Helvetica,sans-Serif" font-size="10.00">src/Entities/EntityConstructor</text>
<text text-anchor="middle" x="1809.5" y="-13" font-family="Helvetica,sans-Serif" font-size="10.00">/PlanetRingEntity/PlanetRingEntity.cpp</text>
</a>
</g>
</g>
<!-- Node1&#45;&gt;Node10 -->
<g id="edge9" class="edge"><title>Node1&#45;&gt;Node10</title>
<path fill="none" stroke="midnightblue" d="M1537.27,-76.992C1597.84,-64.7562 1681.6,-47.8363 1740.16,-36.0068"/>
<polygon fill="midnightblue" stroke="midnightblue" points="1536.49,-73.5795 1527.38,-78.9903 1537.87,-80.4409 1536.49,-73.5795"/>
</g>
<!-- Node11 -->
<g id="node11" class="node"><title>Node11</title>
<g id="a_node11"><a xlink:href="PlayerEntity_8cpp.html" target="_top" xlink:title="src/Entities/EntityConstructor\l/PlayerEntity/PlayerEntity.cpp">
<polygon fill="none" stroke="black" points="1926,-6 1926,-36 2081,-36 2081,-6 1926,-6"/>
<text text-anchor="start" x="1934" y="-24" font-family="Helvetica,sans-Serif" font-size="10.00">src/Entities/EntityConstructor</text>
<text text-anchor="middle" x="2003.5" y="-13" font-family="Helvetica,sans-Serif" font-size="10.00">/PlayerEntity/PlayerEntity.cpp</text>
</a>
</g>
</g>
<!-- Node1&#45;&gt;Node11 -->
<g id="edge10" class="edge"><title>Node1&#45;&gt;Node11</title>
<path fill="none" stroke="midnightblue" d="M1537.52,-86.7059C1628.48,-79.2317 1784.18,-64.4593 1916.5,-42 1926.28,-40.3402 1936.61,-38.2603 1946.6,-36.0741"/>
<polygon fill="midnightblue" stroke="midnightblue" points="1536.98,-83.2382 1527.29,-87.5376 1537.54,-90.2152 1536.98,-83.2382"/>
</g>
<!-- Node12 -->
<g id="node12" class="node"><title>Node12</title>
<g id="a_node12"><a xlink:href="PlayerTwoEntity_8cpp.html" target="_top" xlink:title="src/Entities/EntityConstructor\l/PlayerTwoEntity/PlayerTwoEntity.cpp">
<polygon fill="none" stroke="black" points="2099,-6 2099,-36 2286,-36 2286,-6 2099,-6"/>
<text text-anchor="start" x="2107" y="-24" font-family="Helvetica,sans-Serif" font-size="10.00">src/Entities/EntityConstructor</text>
<text text-anchor="middle" x="2192.5" y="-13" font-family="Helvetica,sans-Serif" font-size="10.00">/PlayerTwoEntity/PlayerTwoEntity.cpp</text>
</a>
</g>
</g>
<!-- Node1&#45;&gt;Node12 -->
<g id="edge11" class="edge"><title>Node1&#45;&gt;Node12</title>
<path fill="none" stroke="midnightblue" d="M1537.55,-89.1491C1656.59,-83.3362 1892.19,-69.2997 2090.5,-42 2102.3,-40.3757 2114.79,-38.2596 2126.84,-36.0132"/>
<polygon fill="midnightblue" stroke="midnightblue" points="1537.26,-85.6588 1527.44,-89.6365 1537.6,-92.6507 1537.26,-85.6588"/>
</g>
<!-- Node13 -->
<g id="node13" class="node"><title>Node13</title>
<g id="a_node13"><a xlink:href="StarsEntity_8cpp.html" target="_top" xlink:title="src/Entities/EntityConstructor\l/StarsEntity/StarsEntity.cpp">
<polygon fill="none" stroke="black" points="2304,-6 2304,-36 2459,-36 2459,-6 2304,-6"/>
<text text-anchor="start" x="2312" y="-24" font-family="Helvetica,sans-Serif" font-size="10.00">src/Entities/EntityConstructor</text>
<text text-anchor="middle" x="2381.5" y="-13" font-family="Helvetica,sans-Serif" font-size="10.00">/StarsEntity/StarsEntity.cpp</text>
</a>
</g>
</g>
<!-- Node1&#45;&gt;Node13 -->
<g id="edge12" class="edge"><title>Node1&#45;&gt;Node13</title>
<path fill="none" stroke="midnightblue" d="M1537.5,-92.1546C1685.25,-90.5403 2018.49,-82.2957 2295.5,-42 2305.82,-40.4995 2316.72,-38.385 2327.17,-36.0886"/>
<polygon fill="midnightblue" stroke="midnightblue" points="1537.15,-88.6579 1527.18,-92.2597 1537.22,-95.6575 1537.15,-88.6579"/>
</g>
<!-- Node14 -->
<g id="node14" class="node"><title>Node14</title>
<g id="a_node14"><a xlink:href="TestBackground_8cpp.html" target="_top" xlink:title="src/Entities/EntityConstructor\l/TestBackground/TestBackground.cpp">
<polygon fill="none" stroke="black" points="2477.5,-6 2477.5,-36 2671.5,-36 2671.5,-6 2477.5,-6"/>
<text text-anchor="start" x="2485.5" y="-24" font-family="Helvetica,sans-Serif" font-size="10.00">src/Entities/EntityConstructor</text>
<text text-anchor="middle" x="2574.5" y="-13" font-family="Helvetica,sans-Serif" font-size="10.00">/TestBackground/TestBackground.cpp</text>
</a>
</g>
</g>
<!-- Node1&#45;&gt;Node14 -->
<g id="edge13" class="edge"><title>Node1&#45;&gt;Node14</title>
<path fill="none" stroke="midnightblue" d="M1537.14,-92.2194C1705.99,-90.8227 2122.57,-83.1053 2468.5,-42 2481.24,-40.4863 2494.75,-38.3507 2507.71,-36.0344"/>
<polygon fill="midnightblue" stroke="midnightblue" points="1537.08,-88.7197 1527.11,-92.2974 1537.13,-95.7195 1537.08,-88.7197"/>
</g>
<!-- Node15 -->
<g id="node15" class="node"><title>Node15</title>
<g id="a_node15"><a xlink:href="AnimationSystem_8cpp.html" target="_top" xlink:title="src/Systems/SystemConstructor\l/AnimationSystem/AnimationSystem.cpp">
<polygon fill="none" stroke="black" points="2689.5,-6 2689.5,-36 2903.5,-36 2903.5,-6 2689.5,-6"/>
<text text-anchor="start" x="2697.5" y="-24" font-family="Helvetica,sans-Serif" font-size="10.00">src/Systems/SystemConstructor</text>
<text text-anchor="middle" x="2796.5" y="-13" font-family="Helvetica,sans-Serif" font-size="10.00">/AnimationSystem/AnimationSystem.cpp</text>
</a>
</g>
</g>
<!-- Node1&#45;&gt;Node15 -->
<g id="edge14" class="edge"><title>Node1&#45;&gt;Node15</title>
<path fill="none" stroke="midnightblue" d="M1537.21,-92.7621C1729.97,-92.6754 2250.01,-87.8264 2680.5,-42 2694.52,-40.5074 2709.41,-38.3664 2723.68,-36.0351"/>
<polygon fill="midnightblue" stroke="midnightblue" points="1537.18,-89.262 1527.18,-92.7624 1537.18,-96.262 1537.18,-89.262"/>
</g>
</g>
</svg>
        <g id="navigator" transform="translate(0 0)" fill="#404254">
                <rect fill="#f2f5e9" fill-opacity="0.5" stroke="#606060" stroke-width=".5" x="0" y="0" width="60" height="60"/>
                <use id="zoomplus" xlink:href="#zoomPlus" x="17" y="9" onmousedown="handleZoom(evt,'in')"/>
                <use id="zoomminus" xlink:href="#zoomMin" x="42" y="9" onmousedown="handleZoom(evt,'out')"/>
                <use id="reset" xlink:href="#resetDef" x="30" y="36" onmousedown="handleReset()"/>
                <g id="arrowUp" xlink:href="#dirArrow" transform="translate(30 24)" onmousedown="handlePan(0,-1)">
                  <use xlink:href="#rim" fill="#404040">
                        <set attributeName="fill" to="#808080" begin="arrowUp.mouseover" end="arrowUp.mouseout"/>
                  </use>
                  <path fill="none" stroke="white" stroke-width="1.5" d="M0,-3.0v7 M-2.5,-0.5L0,-3.0L2.5,-0.5"/>
                </g>
                <g id="arrowRight" xlink:href="#dirArrow" transform="rotate(90) translate(36 -43)" onmousedown="handlePan(1,0)">
                  <use xlink:href="#rim" fill="#404040">
                        <set attributeName="fill" to="#808080" begin="arrowRight.mouseover" end="arrowRight.mouseout"/>
                  </use>
                  <path fill="none" stroke="white" stroke-width="1.5" d="M0,-3.0v7 M-2.5,-0.5L0,-3.0L2.5,-0.5"/>
                </g>
                <g id="arrowDown" xlink:href="#dirArrow" transform="rotate(180) translate(-30 -48)" onmousedown="handlePan(0,1)">
                  <use xlink:href="#rim" fill="#404040">
                        <set attributeName="fill" to="#808080" begin="arrowDown.mouseover" end="arrowDown.mouseout"/>
                  </use>
                  <path fill="none" stroke="white" stroke-width="1.5" d="M0,-3.0v7 M-2.5,-0.5L0,-3.0L2.5,-0.5"/>
                </g>
                <g id="arrowLeft" xlink:href="#dirArrow" transform="rotate(270) translate(-36 17)" onmousedown="handlePan(-1,0)">
                  <use xlink:href="#rim" fill="#404040">
                        <set attributeName="fill" to="#808080" begin="arrowLeft.mouseover" end="arrowLeft.mouseout"/>
                  </use>
                  <path fill="none" stroke="white" stroke-width="1.5" d="M0,-3.0v7 M-2.5,-0.5L0,-3.0L2.5,-0.5"/>
                </g>
        </g>
        <svg viewBox="0 0 15 15" width="100%" height="30px" preserveAspectRatio="xMaxYMin meet">
         <g id="arrow_out" transform="scale(0.3 0.3)">
          <a xlink:href="Animator_8hpp__dep__incl_org.svg" target="_base">
           <rect id="button" ry="5" rx="5" y="6" x="6" height="38" width="38"
                fill="#f2f5e9" fill-opacity="0.5" stroke="#606060" stroke-width="1.0"/>
           <path id="arrow"
             d="M 11.500037,31.436501 C 11.940474,20.09759 22.043105,11.32322 32.158766,21.979434 L 37.068811,17.246167 C 37.068811,17.246167 37.088388,32 37.088388,32 L 22.160133,31.978069 C 22.160133,31.978069 26.997745,27.140456 26.997745,27.140456 C 18.528582,18.264221 13.291696,25.230495 11.500037,31.436501 z"
             style="fill:#404040;"/>
          </a>
         </g>
        </svg>
</svg>
