<?xml version="1.0" encoding="UTF-8" standalone="no"?>
<!DOCTYPE svg PUBLIC "-//W3C//DTD SVG 1.1//EN"
 "http://www.w3.org/Graphics/SVG/1.1/DTD/svg11.dtd">
<!-- Generated by graphviz version 2.38.0 (20140413.2041)
 -->
<!-- Title: src/Components/Display/Animator.cpp Pages: 1 -->
<svg width="313pt" height="319pt"
 viewBox="0.00 0.00 313.09 319.00" xmlns="http://www.w3.org/2000/svg" xmlns:xlink="http://www.w3.org/1999/xlink">
<g id="graph0" class="graph" transform="scale(1 1) rotate(0) translate(4 315)">
<title>src/Components/Display/Animator.cpp</title>
<!-- Node1 -->
<g id="node1" class="node"><title>Node1</title>
<polygon fill="#bfbfbf" stroke="black" points="44.5881,-280.5 44.5881,-310.5 177.588,-310.5 177.588,-280.5 44.5881,-280.5"/>
<text text-anchor="start" x="52.5881" y="-298.5" font-family="Helvetica,sans-Serif" font-size="10.00">src/Components/Display</text>
<text text-anchor="middle" x="111.088" y="-287.5" font-family="Helvetica,sans-Serif" font-size="10.00">/Animator.cpp</text>
</g>
<!-- Node2 -->
<g id="node2" class="node"><title>Node2</title>
<g id="a_node2"><a xlink:href="Animator_8hpp.html" target="_top" xlink:title="Animator.hpp">
<polygon fill="none" stroke="black" points="70.5881,-224.5 70.5881,-243.5 151.588,-243.5 151.588,-224.5 70.5881,-224.5"/>
<text text-anchor="middle" x="111.088" y="-231.5" font-family="Helvetica,sans-Serif" font-size="10.00">Animator.hpp</text>
</a>
</g>
</g>
<!-- Node1&#45;&gt;Node2 -->
<g id="edge1" class="edge"><title>Node1&#45;&gt;Node2</title>
<path fill="none" stroke="midnightblue" d="M111.088,-280.399C111.088,-272.466 111.088,-262.458 111.088,-253.858"/>
<polygon fill="midnightblue" stroke="midnightblue" points="114.588,-253.658 111.088,-243.658 107.588,-253.658 114.588,-253.658"/>
</g>
<!-- Node3 -->
<g id="node3" class="node"><title>Node3</title>
<polygon fill="none" stroke="#bfbfbf" points="74.5881,-0.5 74.5881,-19.5 137.588,-19.5 137.588,-0.5 74.5881,-0.5"/>
<text text-anchor="middle" x="106.088" y="-7.5" font-family="Helvetica,sans-Serif" font-size="10.00">typeindex</text>
</g>
<!-- Node2&#45;&gt;Node3 -->
<g id="edge2" class="edge"><title>Node2&#45;&gt;Node3</title>
<path fill="none" stroke="midnightblue" d="M95.6826,-224.261C70.8614,-209.177 22.9018,-175.63 4.08806,-132 -15.5358,-86.491 43.1356,-45.0405 79.5095,-24.5234"/>
<polygon fill="midnightblue" stroke="midnightblue" points="81.5508,-27.3969 88.6548,-19.5366 78.1996,-21.2511 81.5508,-27.3969"/>
</g>
<!-- Node4 -->
<g id="node4" class="node"><title>Node4</title>
<g id="a_node4"><a xlink:href="IDisplay_8hpp.html" target="_top" xlink:title="IDisplay.hpp">
<polygon fill="none" stroke="black" points="13.5881,-112.5 13.5881,-131.5 86.5881,-131.5 86.5881,-112.5 13.5881,-112.5"/>
<text text-anchor="middle" x="50.0881" y="-119.5" font-family="Helvetica,sans-Serif" font-size="10.00">IDisplay.hpp</text>
</a>
</g>
</g>
<!-- Node2&#45;&gt;Node4 -->
<g id="edge3" class="edge"><title>Node2&#45;&gt;Node4</title>
<path fill="none" stroke="midnightblue" d="M106.301,-224.368C96.3238,-206.376 73.1296,-164.55 59.8629,-140.627"/>
<polygon fill="midnightblue" stroke="midnightblue" points="62.763,-138.639 54.8524,-131.591 56.6413,-142.034 62.763,-138.639"/>
</g>
<!-- Node6 -->
<g id="node6" class="node"><title>Node6</title>
<g id="a_node6"><a xlink:href="Timer_8hpp.html" target="_top" xlink:title="Timer.hpp">
<polygon fill="none" stroke="black" points="120.088,-168.5 120.088,-187.5 184.088,-187.5 184.088,-168.5 120.088,-168.5"/>
<text text-anchor="middle" x="152.088" y="-175.5" font-family="Helvetica,sans-Serif" font-size="10.00">Timer.hpp</text>
</a>
</g>
</g>
<!-- Node2&#45;&gt;Node6 -->
<g id="edge7" class="edge"><title>Node2&#45;&gt;Node6</title>
<path fill="none" stroke="midnightblue" d="M117.858,-224.083C123.65,-216.455 132.147,-205.264 139.226,-195.941"/>
<polygon fill="midnightblue" stroke="midnightblue" points="142.184,-197.832 145.444,-187.751 136.609,-193.599 142.184,-197.832"/>
</g>
<!-- Node9 -->
<g id="node9" class="node"><title>Node9</title>
<g id="a_node9"><a xlink:href="Rect_8hpp.html" target="_top" xlink:title="Rect.hpp">
<polygon fill="none" stroke="black" points="202.088,-168.5 202.088,-187.5 260.088,-187.5 260.088,-168.5 202.088,-168.5"/>
<text text-anchor="middle" x="231.088" y="-175.5" font-family="Helvetica,sans-Serif" font-size="10.00">Rect.hpp</text>
</a>
</g>
</g>
<!-- Node2&#45;&gt;Node9 -->
<g id="edge13" class="edge"><title>Node2&#45;&gt;Node9</title>
<path fill="none" stroke="midnightblue" d="M130.102,-224.444C149.676,-215.636 180.396,-201.812 202.817,-191.722"/>
<polygon fill="midnightblue" stroke="midnightblue" points="204.48,-194.812 212.163,-187.516 201.607,-188.428 204.48,-194.812"/>
</g>
<!-- Node4&#45;&gt;Node3 -->
<g id="edge4" class="edge"><title>Node4&#45;&gt;Node3</title>
<path fill="none" stroke="midnightblue" d="M47.6403,-112.48C44.4149,-99.5395 40.1304,-74.4845 49.0881,-56 55.485,-42.7996 67.8403,-32.3032 79.4171,-24.7794"/>
<polygon fill="midnightblue" stroke="midnightblue" points="81.2434,-27.7653 88.0065,-19.6099 77.6338,-21.7678 81.2434,-27.7653"/>
</g>
<!-- Node5 -->
<g id="node5" class="node"><title>Node5</title>
<g id="a_node5"><a xlink:href="IComponent_8hpp.html" target="_top" xlink:title="IComponent.hpp">
<polygon fill="none" stroke="black" points="58.0881,-56.5 58.0881,-75.5 154.088,-75.5 154.088,-56.5 58.0881,-56.5"/>
<text text-anchor="middle" x="106.088" y="-63.5" font-family="Helvetica,sans-Serif" font-size="10.00">IComponent.hpp</text>
</a>
</g>
</g>
<!-- Node4&#45;&gt;Node5 -->
<g id="edge5" class="edge"><title>Node4&#45;&gt;Node5</title>
<path fill="none" stroke="midnightblue" d="M59.0854,-112.324C67.2825,-104.42 79.5936,-92.5482 89.5601,-82.9377"/>
<polygon fill="midnightblue" stroke="midnightblue" points="92.158,-85.2947 96.927,-75.8339 87.299,-80.2558 92.158,-85.2947"/>
</g>
<!-- Node5&#45;&gt;Node3 -->
<g id="edge6" class="edge"><title>Node5&#45;&gt;Node3</title>
<path fill="none" stroke="midnightblue" d="M106.088,-56.083C106.088,-49.0059 106.088,-38.8611 106.088,-29.9865"/>
<polygon fill="midnightblue" stroke="midnightblue" points="109.588,-29.751 106.088,-19.7511 102.588,-29.7511 109.588,-29.751"/>
</g>
<!-- Node6&#45;&gt;Node3 -->
<g id="edge9" class="edge"><title>Node6&#45;&gt;Node3</title>
<path fill="none" stroke="midnightblue" d="M169.59,-168.465C182.875,-160.917 200.164,-148.533 208.088,-132 211.93,-123.984 210.192,-120.636 208.088,-112 201.455,-84.7679 198.154,-76.5441 179.088,-56 166.792,-42.7513 149.741,-31.948 135.21,-24.2504"/>
<polygon fill="midnightblue" stroke="midnightblue" points="136.604,-21.0333 126.1,-19.646 133.446,-27.2807 136.604,-21.0333"/>
</g>
<!-- Node7 -->
<g id="node7" class="node"><title>Node7</title>
<polygon fill="none" stroke="#bfbfbf" points="255.088,-112.5 255.088,-131.5 305.088,-131.5 305.088,-112.5 255.088,-112.5"/>
<text text-anchor="middle" x="280.088" y="-119.5" font-family="Helvetica,sans-Serif" font-size="10.00">chrono</text>
</g>
<!-- Node6&#45;&gt;Node7 -->
<g id="edge8" class="edge"><title>Node6&#45;&gt;Node7</title>
<path fill="none" stroke="midnightblue" d="M172.37,-168.444C193.435,-159.557 226.605,-145.563 250.574,-135.451"/>
<polygon fill="midnightblue" stroke="midnightblue" points="252.048,-138.628 259.901,-131.516 249.327,-132.179 252.048,-138.628"/>
</g>
<!-- Node8 -->
<g id="node8" class="node"><title>Node8</title>
<g id="a_node8"><a xlink:href="IGameLogic_8hpp.html" target="_top" xlink:title="IGameLogic.hpp">
<polygon fill="none" stroke="black" points="105.088,-112.5 105.088,-131.5 199.088,-131.5 199.088,-112.5 105.088,-112.5"/>
<text text-anchor="middle" x="152.088" y="-119.5" font-family="Helvetica,sans-Serif" font-size="10.00">IGameLogic.hpp</text>
</a>
</g>
</g>
<!-- Node6&#45;&gt;Node8 -->
<g id="edge10" class="edge"><title>Node6&#45;&gt;Node8</title>
<path fill="none" stroke="midnightblue" d="M152.088,-168.083C152.088,-161.006 152.088,-150.861 152.088,-141.986"/>
<polygon fill="midnightblue" stroke="midnightblue" points="155.588,-141.751 152.088,-131.751 148.588,-141.751 155.588,-141.751"/>
</g>
<!-- Node8&#45;&gt;Node3 -->
<g id="edge11" class="edge"><title>Node8&#45;&gt;Node3</title>
<path fill="none" stroke="midnightblue" d="M156.796,-112.117C162.984,-99.1426 172.072,-74.5391 163.088,-56 156.691,-42.7996 144.336,-32.3032 132.759,-24.7794"/>
<polygon fill="midnightblue" stroke="midnightblue" points="134.542,-21.7678 124.17,-19.6099 130.933,-27.7653 134.542,-21.7678"/>
</g>
<!-- Node8&#45;&gt;Node5 -->
<g id="edge12" class="edge"><title>Node8&#45;&gt;Node5</title>
<path fill="none" stroke="midnightblue" d="M144.492,-112.083C137.861,-104.298 128.067,-92.8015 120.03,-83.3665"/>
<polygon fill="midnightblue" stroke="midnightblue" points="122.692,-81.0939 113.543,-75.7511 117.363,-85.6332 122.692,-81.0939"/>
</g>
</g>
</svg>
