<?xml version="1.0" encoding="UTF-8" standalone="no"?>
<!DOCTYPE svg PUBLIC "-//W3C//DTD SVG 1.1//EN"
 "http://www.w3.org/Graphics/SVG/1.1/DTD/svg11.dtd">
<!-- Generated by graphviz version 2.38.0 (20140413.2041)
 -->
<!-- Title: src/Systems/SystemConstructor/AnimationSystem/AnimationSystem.hpp Pages: 1 -->
<svg width="392pt" height="106pt"
 viewBox="0.00 0.00 392.00 106.00" xmlns="http://www.w3.org/2000/svg" xmlns:xlink="http://www.w3.org/1999/xlink">
<g id="graph0" class="graph" transform="scale(1 1) rotate(0) translate(4 102)">
<title>src/Systems/SystemConstructor/AnimationSystem/AnimationSystem.hpp</title>
<!-- Node1 -->
<g id="node1" class="node"><title>Node1</title>
<polygon fill="#bfbfbf" stroke="black" points="68.5,-67.5 68.5,-97.5 283.5,-97.5 283.5,-67.5 68.5,-67.5"/>
<text text-anchor="start" x="76.5" y="-85.5" font-family="Helvetica,sans-Serif" font-size="10.00">src/Systems/SystemConstructor</text>
<text text-anchor="middle" x="176" y="-74.5" font-family="Helvetica,sans-Serif" font-size="10.00">/AnimationSystem/AnimationSystem.hpp</text>
</g>
<!-- Node2 -->
<g id="node2" class="node"><title>Node2</title>
<g id="a_node2"><a xlink:href="GameScene_8cpp.html" target="_top" xlink:title="src/Scenes/GameScene.cpp">
<polygon fill="none" stroke="black" points="0,-6 0,-25 152,-25 152,-6 0,-6"/>
<text text-anchor="middle" x="76" y="-13" font-family="Helvetica,sans-Serif" font-size="10.00">src/Scenes/GameScene.cpp</text>
</a>
</g>
</g>
<!-- Node1&#45;&gt;Node2 -->
<g id="edge1" class="edge"><title>Node1&#45;&gt;Node2</title>
<path fill="none" stroke="midnightblue" d="M145.705,-61.808C126.787,-49.5117 103.39,-34.3034 89.0877,-25.007"/>
<polygon fill="midnightblue" stroke="midnightblue" points="144.01,-64.8806 154.301,-67.396 147.825,-59.0115 144.01,-64.8806"/>
</g>
<!-- Node3 -->
<g id="node3" class="node"><title>Node3</title>
<g id="a_node3"><a xlink:href="AnimationSystem_8cpp.html" target="_top" xlink:title="src/Systems/SystemConstructor\l/AnimationSystem/AnimationSystem.cpp">
<polygon fill="none" stroke="black" points="170,-0.5 170,-30.5 384,-30.5 384,-0.5 170,-0.5"/>
<text text-anchor="start" x="178" y="-18.5" font-family="Helvetica,sans-Serif" font-size="10.00">src/Systems/SystemConstructor</text>
<text text-anchor="middle" x="277" y="-7.5" font-family="Helvetica,sans-Serif" font-size="10.00">/AnimationSystem/AnimationSystem.cpp</text>
</a>
</g>
</g>
<!-- Node1&#45;&gt;Node3 -->
<g id="edge2" class="edge"><title>Node1&#45;&gt;Node3</title>
<path fill="none" stroke="midnightblue" d="M206.714,-61.7337C222.343,-51.6755 240.975,-39.6847 255.127,-30.5765"/>
<polygon fill="midnightblue" stroke="midnightblue" points="204.43,-59.041 197.915,-67.396 208.219,-64.9273 204.43,-59.041"/>
</g>
</g>
</svg>
