<?xml version="1.0" encoding="UTF-8" standalone="no"?>
<!DOCTYPE svg PUBLIC "-//W3C//DTD SVG 1.1//EN"
 "http://www.w3.org/Graphics/SVG/1.1/DTD/svg11.dtd">
<!-- Generated by graphviz version 2.38.0 (20140413.2041)
 -->
<!-- Title: src/Systems/ASystem.hpp Pages: 1 -->
<!--zoomable 184 -->
<svg id="main" version="1.1" xmlns="http://www.w3.org/2000/svg" xmlns:xlink="http://www.w3.org/1999/xlink" xml:space="preserve" onload="init(evt)">
<style type="text/css"><![CDATA[
.edge:hover path { stroke: red; }
.edge:hover polygon { stroke: red; fill: red; }
]]></style>
<script type="text/javascript"><![CDATA[
var edges = document.getElementsByTagName('g');
if (edges && edges.length) {
  for (var i=0;i<edges.length;i++) {
    if (edges[i].id.substr(0,4)=='edge') {
      edges[i].setAttribute('class','edge');
    }
  }
}
]]></script>
        <defs>
                <circle id="rim" cx="0" cy="0" r="7"/>
                <circle id="rim2" cx="0" cy="0" r="3.5"/>
                <g id="zoomPlus">
                        <use xlink:href="#rim" fill="#404040">
                                <set attributeName="fill" to="#808080" begin="zoomplus.mouseover" end="zoomplus.mouseout"/>
                        </use>
                        <path d="M-4,0h8M0,-4v8" fill="none" stroke="white" stroke-width="1.5" pointer-events="none"/>
                </g>
                <g id="zoomMin">
                        <use xlink:href="#rim" fill="#404040">
                                <set attributeName="fill" to="#808080" begin="zoomminus.mouseover" end="zoomminus.mouseout"/>
                        </use>
                        <path d="M-4,0h8" fill="none" stroke="white" stroke-width="1.5" pointer-events="none"/>
                </g>
                <g id="dirArrow">
                        <path fill="none" stroke="white" stroke-width="1.5" d="M0,-3.0v7 M-2.5,-0.5L0,-3.0L2.5,-0.5"/>
                </g>
               <g id="resetDef">
                       <use xlink:href="#rim2" fill="#404040">
                               <set attributeName="fill" to="#808080" begin="reset.mouseover" end="reset.mouseout"/>
                       </use>
               </g>
        </defs>

<script type="text/javascript">
var viewWidth = 3270;
var viewHeight = 184;
var sectionId = 'dynsection-1';
</script>
<script xlink:href="svgpan.js"/>
<svg id="graph" class="graph">
<g id="viewport">
<title>src/Systems/ASystem.hpp</title>
<!-- Node1 -->
<g id="node1" class="node"><title>Node1</title>
<polygon fill="#bfbfbf" stroke="black" points="1475.5,-156.5 1475.5,-175.5 1618.5,-175.5 1618.5,-156.5 1475.5,-156.5"/>
<text text-anchor="middle" x="1547" y="-163.5" font-family="Helvetica,sans-Serif" font-size="10.00">src/Systems/ASystem.hpp</text>
</g>
<!-- Node2 -->
<g id="node2" class="node"><title>Node2</title>
<g id="a_node2"><a xlink:href="ASystem_8cpp.html" target="_top" xlink:title="src/Systems/ASystem.cpp">
<polygon fill="none" stroke="black" points="321.5,-89.5 321.5,-108.5 464.5,-108.5 464.5,-89.5 321.5,-89.5"/>
<text text-anchor="middle" x="393" y="-96.5" font-family="Helvetica,sans-Serif" font-size="10.00">src/Systems/ASystem.cpp</text>
</a>
</g>
</g>
<!-- Node1&#45;&gt;Node2 -->
<g id="edge1" class="edge"><title>Node1&#45;&gt;Node2</title>
<path fill="none" stroke="midnightblue" d="M1465.31,-163.724C1248.89,-160.001 664.252,-147.62 473,-120 455.572,-117.483 436.423,-112.768 421.23,-108.548"/>
<polygon fill="midnightblue" stroke="midnightblue" points="1465.27,-167.224 1475.33,-163.895 1465.39,-160.225 1465.27,-167.224"/>
</g>
<!-- Node3 -->
<g id="node3" class="node"><title>Node3</title>
<g id="a_node3"><a xlink:href="AnimationSystem_8hpp.html" target="_top" xlink:title="src/Systems/SystemConstructor\l/AnimationSystem/AnimationSystem.hpp">
<polygon fill="none" stroke="black" points="1948.5,-84 1948.5,-114 2163.5,-114 2163.5,-84 1948.5,-84"/>
<text text-anchor="start" x="1956.5" y="-102" font-family="Helvetica,sans-Serif" font-size="10.00">src/Systems/SystemConstructor</text>
<text text-anchor="middle" x="2056" y="-91" font-family="Helvetica,sans-Serif" font-size="10.00">/AnimationSystem/AnimationSystem.hpp</text>
</a>
</g>
</g>
<!-- Node1&#45;&gt;Node3 -->
<g id="edge2" class="edge"><title>Node1&#45;&gt;Node3</title>
<path fill="none" stroke="midnightblue" d="M1623.8,-155.193C1710.11,-144.17 1850.88,-126.194 1948.2,-113.766"/>
<polygon fill="midnightblue" stroke="midnightblue" points="1623.28,-151.73 1613.8,-156.469 1624.17,-158.674 1623.28,-151.73"/>
</g>
<!-- Node6 -->
<g id="node6" class="node"><title>Node6</title>
<g id="a_node6"><a xlink:href="ButtonColorSystem_8hpp.html" target="_top" xlink:title="src/Systems/SystemConstructor\l/ButtonColorSystem/ButtonColorSystem.hpp">
<polygon fill="none" stroke="black" points="751.5,-84 751.5,-114 982.5,-114 982.5,-84 751.5,-84"/>
<text text-anchor="start" x="759.5" y="-102" font-family="Helvetica,sans-Serif" font-size="10.00">src/Systems/SystemConstructor</text>
<text text-anchor="middle" x="867" y="-91" font-family="Helvetica,sans-Serif" font-size="10.00">/ButtonColorSystem/ButtonColorSystem.hpp</text>
</a>
</g>
</g>
<!-- Node1&#45;&gt;Node6 -->
<g id="edge5" class="edge"><title>Node1&#45;&gt;Node6</title>
<path fill="none" stroke="midnightblue" d="M1465.21,-160.364C1356.77,-153.761 1159.59,-140.171 992,-120 978.035,-118.319 963.24,-116.229 948.903,-114.039"/>
<polygon fill="midnightblue" stroke="midnightblue" points="1465.23,-163.871 1475.42,-160.981 1465.65,-156.884 1465.23,-163.871"/>
</g>
<!-- Node11 -->
<g id="node11" class="node"><title>Node11</title>
<g id="a_node11"><a xlink:href="ChooseRoomSystem_8hpp.html" target="_top" xlink:title="src/Systems/SystemConstructor\l/ChooseRoomSystem/ChooseRoomSystem.hpp">
<polygon fill="none" stroke="black" points="482.5,-84 482.5,-114 725.5,-114 725.5,-84 482.5,-84"/>
<text text-anchor="start" x="490.5" y="-102" font-family="Helvetica,sans-Serif" font-size="10.00">src/Systems/SystemConstructor</text>
<text text-anchor="middle" x="604" y="-91" font-family="Helvetica,sans-Serif" font-size="10.00">/ChooseRoomSystem/ChooseRoomSystem.hpp</text>
</a>
</g>
</g>
<!-- Node1&#45;&gt;Node11 -->
<g id="edge10" class="edge"><title>Node1&#45;&gt;Node11</title>
<path fill="none" stroke="midnightblue" d="M1465.3,-162.811C1319.66,-158.378 1005.7,-146.427 742,-120 725.981,-118.395 708.973,-116.274 692.57,-114.014"/>
<polygon fill="midnightblue" stroke="midnightblue" points="1465.39,-166.315 1475.49,-163.117 1465.6,-159.318 1465.39,-166.315"/>
</g>
<!-- Node13 -->
<g id="node13" class="node"><title>Node13</title>
<g id="a_node13"><a xlink:href="DefeatSystem_8hpp.html" target="_top" xlink:title="src/Systems/SystemConstructor\l/DefeatSystem/DefeatSystem.hpp">
<polygon fill="none" stroke="black" points="1001,-84 1001,-114 1183,-114 1183,-84 1001,-84"/>
<text text-anchor="start" x="1009" y="-102" font-family="Helvetica,sans-Serif" font-size="10.00">src/Systems/SystemConstructor</text>
<text text-anchor="middle" x="1092" y="-91" font-family="Helvetica,sans-Serif" font-size="10.00">/DefeatSystem/DefeatSystem.hpp</text>
</a>
</g>
</g>
<!-- Node1&#45;&gt;Node13 -->
<g id="edge13" class="edge"><title>Node1&#45;&gt;Node13</title>
<path fill="none" stroke="midnightblue" d="M1466.3,-155.255C1397.32,-146.703 1295.49,-133.546 1207,-120 1195.08,-118.176 1182.49,-116.119 1170.18,-114.036"/>
<polygon fill="midnightblue" stroke="midnightblue" points="1465.87,-158.73 1476.23,-156.483 1466.73,-151.782 1465.87,-158.73"/>
</g>
<!-- Node15 -->
<g id="node15" class="node"><title>Node15</title>
<g id="a_node15"><a xlink:href="DisplaySystem_8hpp.html" target="_top" xlink:title="src/Systems/SystemConstructor\l/DisplaySystem/DisplaySystem.hpp">
<polygon fill="none" stroke="black" points="1216,-84 1216,-114 1402,-114 1402,-84 1216,-84"/>
<text text-anchor="start" x="1224" y="-102" font-family="Helvetica,sans-Serif" font-size="10.00">src/Systems/SystemConstructor</text>
<text text-anchor="middle" x="1309" y="-91" font-family="Helvetica,sans-Serif" font-size="10.00">/DisplaySystem/DisplaySystem.hpp</text>
</a>
</g>
</g>
<!-- Node1&#45;&gt;Node15 -->
<g id="edge16" class="edge"><title>Node1&#45;&gt;Node15</title>
<path fill="none" stroke="midnightblue" d="M1505.62,-153.698C1465.27,-142.679 1403.81,-125.894 1360.36,-114.028"/>
<polygon fill="midnightblue" stroke="midnightblue" points="1504.83,-157.11 1515.4,-156.369 1506.67,-150.357 1504.83,-157.11"/>
</g>
<!-- Node20 -->
<g id="node20" class="node"><title>Node20</title>
<g id="a_node20"><a xlink:href="EnemiesMovementSystem_8hpp.html" target="_top" xlink:title="src/Systems/SystemConstructor\l/EnemiesMovementSystem/EnemiesMovement\lSystem.hpp">
<polygon fill="none" stroke="black" points="2182,-78.5 2182,-119.5 2426,-119.5 2426,-78.5 2182,-78.5"/>
<text text-anchor="start" x="2190" y="-107.5" font-family="Helvetica,sans-Serif" font-size="10.00">src/Systems/SystemConstructor</text>
<text text-anchor="start" x="2190" y="-96.5" font-family="Helvetica,sans-Serif" font-size="10.00">/EnemiesMovementSystem/EnemiesMovement</text>
<text text-anchor="middle" x="2304" y="-85.5" font-family="Helvetica,sans-Serif" font-size="10.00">System.hpp</text>
</a>
</g>
</g>
<!-- Node1&#45;&gt;Node20 -->
<g id="edge28" class="edge"><title>Node1&#45;&gt;Node20</title>
<path fill="none" stroke="midnightblue" d="M1629.05,-161.149C1748.69,-155.069 1977.91,-141.657 2172,-120 2175.22,-119.64 2178.49,-119.26 2181.79,-118.862"/>
<polygon fill="midnightblue" stroke="midnightblue" points="1628.69,-157.663 1618.87,-161.662 1629.04,-164.655 1628.69,-157.663"/>
</g>
<!-- Node22 -->
<g id="node22" class="node"><title>Node22</title>
<g id="a_node22"><a xlink:href="MenuSystem_8hpp.html" target="_top" xlink:title="src/Systems/SystemConstructor\l/MenuSystem/MenuSystem.hpp">
<polygon fill="none" stroke="black" points="1661,-84 1661,-114 1833,-114 1833,-84 1661,-84"/>
<text text-anchor="start" x="1669" y="-102" font-family="Helvetica,sans-Serif" font-size="10.00">src/Systems/SystemConstructor</text>
<text text-anchor="middle" x="1747" y="-91" font-family="Helvetica,sans-Serif" font-size="10.00">/MenuSystem/MenuSystem.hpp</text>
</a>
</g>
</g>
<!-- Node1&#45;&gt;Node22 -->
<g id="edge31" class="edge"><title>Node1&#45;&gt;Node22</title>
<path fill="none" stroke="midnightblue" d="M1583.08,-153.275C1616.99,-142.253 1667.79,-125.744 1703.84,-114.028"/>
<polygon fill="midnightblue" stroke="midnightblue" points="1581.99,-149.949 1573.56,-156.369 1584.15,-156.606 1581.99,-149.949"/>
</g>
<!-- Node23 -->
<g id="node23" class="node"><title>Node23</title>
<g id="a_node23"><a xlink:href="MovementSystem_8hpp.html" target="_top" xlink:title="src/Systems/SystemConstructor\l/MovementSystem/MovementSystem.hpp">
<polygon fill="none" stroke="black" points="2444.5,-84 2444.5,-114 2663.5,-114 2663.5,-84 2444.5,-84"/>
<text text-anchor="start" x="2452.5" y="-102" font-family="Helvetica,sans-Serif" font-size="10.00">src/Systems/SystemConstructor</text>
<text text-anchor="middle" x="2554" y="-91" font-family="Helvetica,sans-Serif" font-size="10.00">/MovementSystem/MovementSystem.hpp</text>
</a>
</g>
</g>
<!-- Node1&#45;&gt;Node23 -->
<g id="edge34" class="edge"><title>Node1&#45;&gt;Node23</title>
<path fill="none" stroke="midnightblue" d="M1628.62,-164.021C1785.37,-161.444 2139.19,-152.244 2435,-120 2449.16,-118.456 2464.2,-116.322 2478.64,-114.019"/>
<polygon fill="midnightblue" stroke="midnightblue" points="1628.53,-160.522 1618.59,-164.182 1628.64,-167.522 1628.53,-160.522"/>
</g>
<!-- Node25 -->
<g id="node25" class="node"><title>Node25</title>
<g id="a_node25"><a xlink:href="ParallaxSystem_8hpp.html" target="_top" xlink:title="src/Systems/SystemConstructor\l/ParallaxSystem/ParallaxSystem.hpp">
<polygon fill="none" stroke="black" points="1451.5,-84 1451.5,-114 1642.5,-114 1642.5,-84 1451.5,-84"/>
<text text-anchor="start" x="1459.5" y="-102" font-family="Helvetica,sans-Serif" font-size="10.00">src/Systems/SystemConstructor</text>
<text text-anchor="middle" x="1547" y="-91" font-family="Helvetica,sans-Serif" font-size="10.00">/ParallaxSystem/ParallaxSystem.hpp</text>
</a>
</g>
</g>
<!-- Node1&#45;&gt;Node25 -->
<g id="edge38" class="edge"><title>Node1&#45;&gt;Node25</title>
<path fill="none" stroke="midnightblue" d="M1547,-145.911C1547,-135.722 1547,-123.401 1547,-114.089"/>
<polygon fill="midnightblue" stroke="midnightblue" points="1543.5,-146.234 1547,-156.234 1550.5,-146.234 1543.5,-146.234"/>
</g>
<!-- Node27 -->
<g id="node27" class="node"><title>Node27</title>
<g id="a_node27"><a xlink:href="PlayerMovementSystem_8hpp.html" target="_top" xlink:title="src/Systems/SystemConstructor\l/PlayerMovementSystem/PlayerMovement\lSystem.hpp">
<polygon fill="none" stroke="black" points="2682,-78.5 2682,-119.5 2902,-119.5 2902,-78.5 2682,-78.5"/>
<text text-anchor="start" x="2690" y="-107.5" font-family="Helvetica,sans-Serif" font-size="10.00">src/Systems/SystemConstructor</text>
<text text-anchor="start" x="2690" y="-96.5" font-family="Helvetica,sans-Serif" font-size="10.00">/PlayerMovementSystem/PlayerMovement</text>
<text text-anchor="middle" x="2792" y="-85.5" font-family="Helvetica,sans-Serif" font-size="10.00">System.hpp</text>
</a>
</g>
</g>
<!-- Node1&#45;&gt;Node27 -->
<g id="edge44" class="edge"><title>Node1&#45;&gt;Node27</title>
<path fill="none" stroke="midnightblue" d="M1628.86,-165.228C1814.79,-164.982 2282.94,-160.044 2672,-120 2675.26,-119.665 2678.56,-119.297 2681.89,-118.901"/>
<polygon fill="midnightblue" stroke="midnightblue" points="1628.62,-161.728 1618.62,-165.238 1628.63,-168.728 1628.62,-161.728"/>
</g>
<!-- Node4 -->
<g id="node4" class="node"><title>Node4</title>
<g id="a_node4"><a xlink:href="GameScene_8cpp.html" target="_top" xlink:title="src/Scenes/GameScene.cpp">
<polygon fill="none" stroke="black" points="2274,-11.5 2274,-30.5 2426,-30.5 2426,-11.5 2274,-11.5"/>
<text text-anchor="middle" x="2350" y="-18.5" font-family="Helvetica,sans-Serif" font-size="10.00">src/Scenes/GameScene.cpp</text>
</a>
</g>
</g>
<!-- Node3&#45;&gt;Node4 -->
<g id="edge3" class="edge"><title>Node3&#45;&gt;Node4</title>
<path fill="none" stroke="midnightblue" d="M2120.13,-81.4217C2180.83,-65.7312 2269.52,-42.8038 2317.04,-30.5206"/>
<polygon fill="midnightblue" stroke="midnightblue" points="2119.07,-78.0804 2110.27,-83.9719 2120.82,-84.8576 2119.07,-78.0804"/>
</g>
<!-- Node5 -->
<g id="node5" class="node"><title>Node5</title>
<g id="a_node5"><a xlink:href="AnimationSystem_8cpp.html" target="_top" xlink:title="src/Systems/SystemConstructor\l/AnimationSystem/AnimationSystem.cpp">
<polygon fill="none" stroke="black" points="2042,-6 2042,-36 2256,-36 2256,-6 2042,-6"/>
<text text-anchor="start" x="2050" y="-24" font-family="Helvetica,sans-Serif" font-size="10.00">src/Systems/SystemConstructor</text>
<text text-anchor="middle" x="2149" y="-13" font-family="Helvetica,sans-Serif" font-size="10.00">/AnimationSystem/AnimationSystem.cpp</text>
</a>
</g>
</g>
<!-- Node3&#45;&gt;Node5 -->
<g id="edge4" class="edge"><title>Node3&#45;&gt;Node5</title>
<path fill="none" stroke="midnightblue" d="M2081.39,-77.2533C2097.32,-64.2337 2117.45,-47.7835 2131.59,-36.2309"/>
<polygon fill="midnightblue" stroke="midnightblue" points="2079.02,-74.6669 2073.49,-83.705 2083.45,-80.0873 2079.02,-74.6669"/>
</g>
<!-- Node7 -->
<g id="node7" class="node"><title>Node7</title>
<g id="a_node7"><a xlink:href="ChooseRoomScene_8cpp.html" target="_top" xlink:title="src/Scenes/ChooseRoomScene.cpp">
<polygon fill="none" stroke="black" points="507.5,-11.5 507.5,-30.5 692.5,-30.5 692.5,-11.5 507.5,-11.5"/>
<text text-anchor="middle" x="600" y="-18.5" font-family="Helvetica,sans-Serif" font-size="10.00">src/Scenes/ChooseRoomScene.cpp</text>
</a>
</g>
</g>
<!-- Node6&#45;&gt;Node7 -->
<g id="edge6" class="edge"><title>Node6&#45;&gt;Node7</title>
<path fill="none" stroke="midnightblue" d="M808.075,-81.2273C752.971,-65.5423 672.909,-42.7532 629.934,-30.5206"/>
<polygon fill="midnightblue" stroke="midnightblue" points="807.141,-84.6004 817.717,-83.9719 809.057,-77.8678 807.141,-84.6004"/>
</g>
<!-- Node8 -->
<g id="node8" class="node"><title>Node8</title>
<g id="a_node8"><a xlink:href="DefeatScene_8cpp.html" target="_top" xlink:title="src/Scenes/DefeatScene.cpp">
<polygon fill="none" stroke="black" points="909.5,-11.5 909.5,-30.5 1064.5,-30.5 1064.5,-11.5 909.5,-11.5"/>
<text text-anchor="middle" x="987" y="-18.5" font-family="Helvetica,sans-Serif" font-size="10.00">src/Scenes/DefeatScene.cpp</text>
</a>
</g>
</g>
<!-- Node6&#45;&gt;Node8 -->
<g id="edge7" class="edge"><title>Node6&#45;&gt;Node8</title>
<path fill="none" stroke="midnightblue" d="M897.856,-78.458C922.267,-62.9979 955.178,-42.1538 973.411,-30.6061"/>
<polygon fill="midnightblue" stroke="midnightblue" points="895.865,-75.5757 889.29,-83.8831 899.611,-81.4894 895.865,-75.5757"/>
</g>
<!-- Node9 -->
<g id="node9" class="node"><title>Node9</title>
<g id="a_node9"><a xlink:href="MenuScene_8cpp.html" target="_top" xlink:title="src/Scenes/MenuScene.cpp">
<polygon fill="none" stroke="black" points="1476.5,-11.5 1476.5,-30.5 1625.5,-30.5 1625.5,-11.5 1476.5,-11.5"/>
<text text-anchor="middle" x="1551" y="-18.5" font-family="Helvetica,sans-Serif" font-size="10.00">src/Scenes/MenuScene.cpp</text>
</a>
</g>
</g>
<!-- Node6&#45;&gt;Node9 -->
<g id="edge8" class="edge"><title>Node6&#45;&gt;Node9</title>
<path fill="none" stroke="midnightblue" d="M958.776,-82.4245C969.95,-80.7919 981.221,-79.2685 992,-78 1202.27,-53.2541 1257.81,-74.6208 1467,-42 1484.77,-39.2283 1504.34,-34.6605 1520.12,-30.5895"/>
<polygon fill="midnightblue" stroke="midnightblue" points="957.933,-79.0116 948.56,-83.9505 958.967,-85.9348 957.933,-79.0116"/>
</g>
<!-- Node10 -->
<g id="node10" class="node"><title>Node10</title>
<g id="a_node10"><a xlink:href="ButtonColorSystem_8cpp.html" target="_top" xlink:title="src/Systems/SystemConstructor\l/ButtonColorSystem/ButtonColorSystem.cpp">
<polygon fill="none" stroke="black" points="260,-6 260,-36 490,-36 490,-6 260,-6"/>
<text text-anchor="start" x="268" y="-24" font-family="Helvetica,sans-Serif" font-size="10.00">src/Systems/SystemConstructor</text>
<text text-anchor="middle" x="375" y="-13" font-family="Helvetica,sans-Serif" font-size="10.00">/ButtonColorSystem/ButtonColorSystem.cpp</text>
</a>
</g>
</g>
<!-- Node6&#45;&gt;Node10 -->
<g id="edge9" class="edge"><title>Node6&#45;&gt;Node10</title>
<path fill="none" stroke="midnightblue" d="M763.92,-82.4811C673.099,-68.785 547.743,-49.8185 498,-42 485.925,-40.102 473.188,-38.0677 460.671,-36.0495"/>
<polygon fill="midnightblue" stroke="midnightblue" points="763.572,-85.9682 773.982,-83.9983 764.616,-79.0464 763.572,-85.9682"/>
</g>
<!-- Node11&#45;&gt;Node7 -->
<g id="edge11" class="edge"><title>Node11&#45;&gt;Node7</title>
<path fill="none" stroke="midnightblue" d="M602.719,-73.6654C601.942,-58.8956 600.997,-40.9482 600.451,-30.5635"/>
<polygon fill="midnightblue" stroke="midnightblue" points="599.227,-73.9028 603.248,-83.705 606.217,-73.5348 599.227,-73.9028"/>
</g>
<!-- Node12 -->
<g id="node12" class="node"><title>Node12</title>
<g id="a_node12"><a xlink:href="ChooseRoomSystem_8cpp.html" target="_top" xlink:title="src/Systems/SystemConstructor\l/ChooseRoomSystem/ChooseRoomSystem.cpp">
<polygon fill="none" stroke="black" points="0,-6 0,-36 242,-36 242,-6 0,-6"/>
<text text-anchor="start" x="8" y="-24" font-family="Helvetica,sans-Serif" font-size="10.00">src/Systems/SystemConstructor</text>
<text text-anchor="middle" x="121" y="-13" font-family="Helvetica,sans-Serif" font-size="10.00">/ChooseRoomSystem/ChooseRoomSystem.cpp</text>
</a>
</g>
</g>
<!-- Node11&#45;&gt;Node12 -->
<g id="edge12" class="edge"><title>Node11&#45;&gt;Node12</title>
<path fill="none" stroke="midnightblue" d="M504.74,-82.3814C418.101,-68.7488 293.514,-49.145 210.041,-36.0106"/>
<polygon fill="midnightblue" stroke="midnightblue" points="504.425,-85.8749 514.847,-83.9719 505.513,-78.9599 504.425,-85.8749"/>
</g>
<!-- Node13&#45;&gt;Node8 -->
<g id="edge14" class="edge"><title>Node13&#45;&gt;Node8</title>
<path fill="none" stroke="midnightblue" d="M1063.9,-77.6627C1042.64,-62.2706 1014.5,-41.906 998.831,-30.5635"/>
<polygon fill="midnightblue" stroke="midnightblue" points="1062.1,-80.6768 1072.25,-83.705 1066.2,-75.0063 1062.1,-80.6768"/>
</g>
<!-- Node14 -->
<g id="node14" class="node"><title>Node14</title>
<g id="a_node14"><a xlink:href="DefeatSystem_8cpp.html" target="_top" xlink:title="src/Systems/SystemConstructor\l/DefeatSystem/DefeatSystem.cpp">
<polygon fill="none" stroke="black" points="710.5,-6 710.5,-36 891.5,-36 891.5,-6 710.5,-6"/>
<text text-anchor="start" x="718.5" y="-24" font-family="Helvetica,sans-Serif" font-size="10.00">src/Systems/SystemConstructor</text>
<text text-anchor="middle" x="801" y="-13" font-family="Helvetica,sans-Serif" font-size="10.00">/DefeatSystem/DefeatSystem.cpp</text>
</a>
</g>
</g>
<!-- Node13&#45;&gt;Node14 -->
<g id="edge15" class="edge"><title>Node13&#45;&gt;Node14</title>
<path fill="none" stroke="midnightblue" d="M1028.52,-81.421C976.608,-67.8634 904.011,-48.9031 854.892,-36.0749"/>
<polygon fill="midnightblue" stroke="midnightblue" points="1027.73,-84.8313 1038.29,-83.9719 1029.5,-78.0584 1027.73,-84.8313"/>
</g>
<!-- Node15&#45;&gt;Node4 -->
<g id="edge20" class="edge"><title>Node15&#45;&gt;Node4</title>
<path fill="none" stroke="midnightblue" d="M1403.55,-82.5296C1416.44,-80.7866 1429.53,-79.207 1442,-78 1806.42,-42.7286 1902.32,-92.1487 2265,-42 2283.47,-39.4459 2303.81,-34.7292 2319.97,-30.5175"/>
<polygon fill="midnightblue" stroke="midnightblue" points="1402.69,-79.1157 1393.26,-83.9585 1403.65,-86.0491 1402.69,-79.1157"/>
</g>
<!-- Node15&#45;&gt;Node7 -->
<g id="edge18" class="edge"><title>Node15&#45;&gt;Node7</title>
<path fill="none" stroke="midnightblue" d="M1223.28,-82.3758C1212.77,-80.7465 1202.15,-79.2372 1192,-78 974.798,-51.5353 917.837,-71.3063 701,-42 679.743,-39.127 656.222,-34.5529 637.23,-30.5038"/>
<polygon fill="midnightblue" stroke="midnightblue" points="1222.89,-85.8573 1233.32,-83.9699 1223.99,-78.944 1222.89,-85.8573"/>
</g>
<!-- Node15&#45;&gt;Node8 -->
<g id="edge19" class="edge"><title>Node15&#45;&gt;Node8</title>
<path fill="none" stroke="midnightblue" d="M1239.58,-81.6155C1173.08,-65.9205 1075.36,-42.8545 1023.1,-30.5206"/>
<polygon fill="midnightblue" stroke="midnightblue" points="1239.03,-85.0811 1249.56,-83.9719 1240.64,-78.2682 1239.03,-85.0811"/>
</g>
<!-- Node15&#45;&gt;Node9 -->
<g id="edge21" class="edge"><title>Node15&#45;&gt;Node9</title>
<path fill="none" stroke="midnightblue" d="M1363.34,-80.9342C1413.25,-65.2596 1485.16,-42.6772 1523.87,-30.5206"/>
<polygon fill="midnightblue" stroke="midnightblue" points="1362.16,-77.6364 1353.67,-83.9719 1364.26,-84.3148 1362.16,-77.6364"/>
</g>
<!-- Node15&#45;&gt;Node10 -->
<g id="edge22" class="edge"><title>Node15&#45;&gt;Node10</title>
<path fill="none" stroke="midnightblue" d="M1224.85,-82.3989C1213.83,-80.7133 1202.66,-79.1838 1192,-78 885.027,-43.9204 805.109,-74.8341 498,-42 483.479,-40.4476 468.065,-38.3233 453.237,-36.0368"/>
<polygon fill="midnightblue" stroke="midnightblue" points="1224.49,-85.8853 1234.91,-83.9853 1225.58,-78.9707 1224.49,-85.8853"/>
</g>
<!-- Node15&#45;&gt;Node12 -->
<g id="edge23" class="edge"><title>Node15&#45;&gt;Node12</title>
<path fill="none" stroke="midnightblue" d="M1225.94,-82.4235C1214.57,-80.6948 1203.02,-79.1474 1192,-78 775.723,-34.6468 667.623,-81.8854 251,-42 235.316,-40.4985 218.642,-38.3534 202.652,-36.0208"/>
<polygon fill="midnightblue" stroke="midnightblue" points="1225.45,-85.8891 1235.87,-83.9839 1226.53,-78.9739 1225.45,-85.8891"/>
</g>
<!-- Node15&#45;&gt;Node14 -->
<g id="edge24" class="edge"><title>Node15&#45;&gt;Node14</title>
<path fill="none" stroke="midnightblue" d="M1220.21,-82.3758C1210.7,-80.8352 1201.15,-79.346 1192,-78 1062.63,-58.9785 1029.07,-62.962 900,-42 889.269,-40.2572 877.929,-38.1855 866.905,-36.0464"/>
<polygon fill="midnightblue" stroke="midnightblue" points="1219.66,-85.8324 1230.1,-83.9961 1220.79,-78.9246 1219.66,-85.8324"/>
</g>
<!-- Node16 -->
<g id="node16" class="node"><title>Node16</title>
<g id="a_node16"><a xlink:href="Rtype_8cpp.html" target="_top" xlink:title="src/Rtype.cpp">
<polygon fill="none" stroke="black" points="2706.5,-11.5 2706.5,-30.5 2787.5,-30.5 2787.5,-11.5 2706.5,-11.5"/>
<text text-anchor="middle" x="2747" y="-18.5" font-family="Helvetica,sans-Serif" font-size="10.00">src/Rtype.cpp</text>
</a>
</g>
</g>
<!-- Node15&#45;&gt;Node16 -->
<g id="edge17" class="edge"><title>Node15&#45;&gt;Node16</title>
<path fill="none" stroke="midnightblue" d="M1402,-82.5585C1415.39,-80.7598 1429.03,-79.1573 1442,-78 1719.9,-53.2105 2423.82,-98.6845 2697,-42 2708.35,-39.6447 2720.44,-34.8787 2729.88,-30.59"/>
<polygon fill="midnightblue" stroke="midnightblue" points="1401.25,-79.1293 1391.82,-83.9682 1402.21,-86.0631 1401.25,-79.1293"/>
</g>
<!-- Node17 -->
<g id="node17" class="node"><title>Node17</title>
<g id="a_node17"><a xlink:href="DisplaySystem_8cpp.html" target="_top" xlink:title="src/Systems/SystemConstructor\l/DisplaySystem/DisplaySystem.cpp">
<polygon fill="none" stroke="black" points="1082.5,-6 1082.5,-36 1267.5,-36 1267.5,-6 1082.5,-6"/>
<text text-anchor="start" x="1090.5" y="-24" font-family="Helvetica,sans-Serif" font-size="10.00">src/Systems/SystemConstructor</text>
<text text-anchor="middle" x="1175" y="-13" font-family="Helvetica,sans-Serif" font-size="10.00">/DisplaySystem/DisplaySystem.cpp</text>
</a>
</g>
</g>
<!-- Node15&#45;&gt;Node17 -->
<g id="edge25" class="edge"><title>Node15&#45;&gt;Node17</title>
<path fill="none" stroke="midnightblue" d="M1275.19,-78.8214C1251.71,-65.5075 1220.97,-48.0698 1199.76,-36.0413"/>
<polygon fill="midnightblue" stroke="midnightblue" points="1273.68,-81.9941 1284.11,-83.8831 1277.14,-75.9052 1273.68,-81.9941"/>
</g>
<!-- Node18 -->
<g id="node18" class="node"><title>Node18</title>
<g id="a_node18"><a xlink:href="MenuSystem_8cpp.html" target="_top" xlink:title="src/Systems/SystemConstructor\l/MenuSystem/MenuSystem.cpp">
<polygon fill="none" stroke="black" points="1852,-6 1852,-36 2024,-36 2024,-6 1852,-6"/>
<text text-anchor="start" x="1860" y="-24" font-family="Helvetica,sans-Serif" font-size="10.00">src/Systems/SystemConstructor</text>
<text text-anchor="middle" x="1938" y="-13" font-family="Helvetica,sans-Serif" font-size="10.00">/MenuSystem/MenuSystem.cpp</text>
</a>
</g>
</g>
<!-- Node15&#45;&gt;Node18 -->
<g id="edge26" class="edge"><title>Node15&#45;&gt;Node18</title>
<path fill="none" stroke="midnightblue" d="M1407.44,-82.524C1419.08,-80.8943 1430.79,-79.3445 1442,-78 1619.67,-56.686 1666.03,-68.4777 1843,-42 1853.92,-40.3664 1865.47,-38.2595 1876.61,-36.0284"/>
<polygon fill="midnightblue" stroke="midnightblue" points="1406.66,-79.0998 1397.25,-83.9736 1407.65,-86.03 1406.66,-79.0998"/>
</g>
<!-- Node19 -->
<g id="node19" class="node"><title>Node19</title>
<g id="a_node19"><a xlink:href="testSystem_8cpp.html" target="_top" xlink:title="src/Systems/SystemConstructor\l/testSystem/testSystem.cpp">
<polygon fill="none" stroke="black" points="1286,-6 1286,-36 1458,-36 1458,-6 1286,-6"/>
<text text-anchor="start" x="1294" y="-24" font-family="Helvetica,sans-Serif" font-size="10.00">src/Systems/SystemConstructor</text>
<text text-anchor="middle" x="1372" y="-13" font-family="Helvetica,sans-Serif" font-size="10.00">/testSystem/testSystem.cpp</text>
</a>
</g>
</g>
<!-- Node15&#45;&gt;Node19 -->
<g id="edge27" class="edge"><title>Node15&#45;&gt;Node19</title>
<path fill="none" stroke="midnightblue" d="M1327.4,-75.8065C1337.99,-63.0329 1350.98,-47.3596 1360.2,-36.2309"/>
<polygon fill="midnightblue" stroke="midnightblue" points="1324.54,-73.7725 1320.85,-83.705 1329.93,-78.2398 1324.54,-73.7725"/>
</g>
<!-- Node20&#45;&gt;Node4 -->
<g id="edge29" class="edge"><title>Node20&#45;&gt;Node4</title>
<path fill="none" stroke="midnightblue" d="M2321.16,-69.6466C2329.57,-55.7497 2339.1,-40.0096 2344.82,-30.552"/>
<polygon fill="midnightblue" stroke="midnightblue" points="2318.03,-68.0608 2315.85,-78.4281 2324.02,-71.6854 2318.03,-68.0608"/>
</g>
<!-- Node21 -->
<g id="node21" class="node"><title>Node21</title>
<g id="a_node21"><a xlink:href="EnemiesMovementSystem_8cpp.html" target="_top" xlink:title="src/Systems/SystemConstructor\l/EnemiesMovementSystem/EnemiesMovement\lSystem.cpp">
<polygon fill="none" stroke="black" points="2444,-0.5 2444,-41.5 2688,-41.5 2688,-0.5 2444,-0.5"/>
<text text-anchor="start" x="2452" y="-29.5" font-family="Helvetica,sans-Serif" font-size="10.00">src/Systems/SystemConstructor</text>
<text text-anchor="start" x="2452" y="-18.5" font-family="Helvetica,sans-Serif" font-size="10.00">/EnemiesMovementSystem/EnemiesMovement</text>
<text text-anchor="middle" x="2566" y="-7.5" font-family="Helvetica,sans-Serif" font-size="10.00">System.cpp</text>
</a>
</g>
</g>
<!-- Node20&#45;&gt;Node21 -->
<g id="edge30" class="edge"><title>Node20&#45;&gt;Node21</title>
<path fill="none" stroke="midnightblue" d="M2381.29,-75.5805C2418.58,-64.7644 2462.88,-51.9115 2498.76,-41.5056"/>
<polygon fill="midnightblue" stroke="midnightblue" points="2380.1,-72.2807 2371.47,-78.4281 2382.05,-79.0036 2380.1,-72.2807"/>
</g>
<!-- Node22&#45;&gt;Node9 -->
<g id="edge32" class="edge"><title>Node22&#45;&gt;Node9</title>
<path fill="none" stroke="midnightblue" d="M1701.26,-80.2628C1661.01,-64.6579 1604.15,-42.6096 1573.19,-30.6061"/>
<polygon fill="midnightblue" stroke="midnightblue" points="1700,-83.531 1710.59,-83.8831 1702.53,-77.0045 1700,-83.531"/>
</g>
<!-- Node22&#45;&gt;Node18 -->
<g id="edge33" class="edge"><title>Node22&#45;&gt;Node18</title>
<path fill="none" stroke="midnightblue" d="M1792.12,-80.0464C1825.93,-66.5929 1871.55,-48.4424 1902.71,-36.0413"/>
<polygon fill="midnightblue" stroke="midnightblue" points="1790.48,-76.9339 1782.48,-83.8831 1793.06,-83.4379 1790.48,-76.9339"/>
</g>
<!-- Node23&#45;&gt;Node4 -->
<g id="edge36" class="edge"><title>Node23&#45;&gt;Node4</title>
<path fill="none" stroke="midnightblue" d="M2506.65,-80.3614C2464.75,-64.751 2405.39,-42.635 2373.1,-30.6061"/>
<polygon fill="midnightblue" stroke="midnightblue" points="2505.51,-83.6717 2516.11,-83.8831 2507.96,-77.1122 2505.51,-83.6717"/>
</g>
<!-- Node23&#45;&gt;Node16 -->
<g id="edge35" class="edge"><title>Node23&#45;&gt;Node16</title>
<path fill="none" stroke="midnightblue" d="M2599.73,-80.1903C2627.81,-69.2274 2664.51,-54.8588 2697,-42 2706.39,-38.284 2716.75,-34.1438 2725.6,-30.5987"/>
<polygon fill="midnightblue" stroke="midnightblue" points="2598.22,-77.0225 2590.17,-83.918 2600.76,-83.5437 2598.22,-77.0225"/>
</g>
<!-- Node24 -->
<g id="node24" class="node"><title>Node24</title>
<g id="a_node24"><a xlink:href="MovementSystem_8cpp.html" target="_top" xlink:title="src/Systems/SystemConstructor\l/MovementSystem/MovementSystem.cpp">
<polygon fill="none" stroke="black" points="2806,-6 2806,-36 3024,-36 3024,-6 2806,-6"/>
<text text-anchor="start" x="2814" y="-24" font-family="Helvetica,sans-Serif" font-size="10.00">src/Systems/SystemConstructor</text>
<text text-anchor="middle" x="2915" y="-13" font-family="Helvetica,sans-Serif" font-size="10.00">/MovementSystem/MovementSystem.cpp</text>
</a>
</g>
</g>
<!-- Node23&#45;&gt;Node24 -->
<g id="edge37" class="edge"><title>Node23&#45;&gt;Node24</title>
<path fill="none" stroke="midnightblue" d="M2630.77,-81.8386C2695.4,-68.2325 2786.88,-48.9717 2848.45,-36.0106"/>
<polygon fill="midnightblue" stroke="midnightblue" points="2629.7,-78.4868 2620.63,-83.9719 2631.14,-85.3366 2629.7,-78.4868"/>
</g>
<!-- Node25&#45;&gt;Node4 -->
<g id="edge41" class="edge"><title>Node25&#45;&gt;Node4</title>
<path fill="none" stroke="midnightblue" d="M1623.39,-82.2553C1633,-80.6289 1642.71,-79.1531 1652,-78 1922.84,-44.3968 1994.95,-81.4003 2265,-42 2283.3,-39.3299 2303.46,-34.6625 2319.56,-30.5079"/>
<polygon fill="midnightblue" stroke="midnightblue" points="1622.7,-78.8243 1613.45,-83.9975 1623.9,-85.7192 1622.7,-78.8243"/>
</g>
<!-- Node25&#45;&gt;Node7 -->
<g id="edge39" class="edge"><title>Node25&#45;&gt;Node7</title>
<path fill="none" stroke="midnightblue" d="M1450.11,-82.5976C1436.99,-80.85 1423.68,-79.251 1411,-78 1096.57,-46.9795 1014.57,-80.789 701,-42 679.357,-39.3228 655.404,-34.655 636.259,-30.502"/>
<polygon fill="midnightblue" stroke="midnightblue" points="1449.71,-86.0757 1460.09,-83.9597 1450.65,-79.1399 1449.71,-86.0757"/>
</g>
<!-- Node25&#45;&gt;Node8 -->
<g id="edge40" class="edge"><title>Node25&#45;&gt;Node8</title>
<path fill="none" stroke="midnightblue" d="M1445.17,-82.5733C1433.65,-80.963 1422.08,-79.404 1411,-78 1261.13,-59.0062 1221.96,-67.157 1073,-42 1055.16,-38.9879 1035.5,-34.5033 1019.48,-30.5436"/>
<polygon fill="midnightblue" stroke="midnightblue" points="1444.87,-86.0656 1455.26,-83.9991 1445.85,-79.1344 1444.87,-86.0656"/>
</g>
<!-- Node25&#45;&gt;Node9 -->
<g id="edge42" class="edge"><title>Node25&#45;&gt;Node9</title>
<path fill="none" stroke="midnightblue" d="M1548.28,-73.6654C1549.06,-58.8956 1550,-40.9482 1550.55,-30.5635"/>
<polygon fill="midnightblue" stroke="midnightblue" points="1544.78,-73.5348 1547.75,-83.705 1551.77,-73.9028 1544.78,-73.5348"/>
</g>
<!-- Node26 -->
<g id="node26" class="node"><title>Node26</title>
<g id="a_node26"><a xlink:href="ParallaxSystem_8cpp.html" target="_top" xlink:title="src/Systems/SystemConstructor\l/ParallaxSystem/ParallaxSystem.cpp">
<polygon fill="none" stroke="black" points="1644,-6 1644,-36 1834,-36 1834,-6 1644,-6"/>
<text text-anchor="start" x="1652" y="-24" font-family="Helvetica,sans-Serif" font-size="10.00">src/Systems/SystemConstructor</text>
<text text-anchor="middle" x="1739" y="-13" font-family="Helvetica,sans-Serif" font-size="10.00">/ParallaxSystem/ParallaxSystem.cpp</text>
</a>
</g>
</g>
<!-- Node25&#45;&gt;Node26 -->
<g id="edge43" class="edge"><title>Node25&#45;&gt;Node26</title>
<path fill="none" stroke="midnightblue" d="M1592.36,-80.0464C1626.34,-66.5929 1672.2,-48.4424 1703.53,-36.0413"/>
<polygon fill="midnightblue" stroke="midnightblue" points="1590.67,-76.9482 1582.66,-83.8831 1593.25,-83.4569 1590.67,-76.9482"/>
</g>
<!-- Node27&#45;&gt;Node4 -->
<g id="edge46" class="edge"><title>Node27&#45;&gt;Node4</title>
<path fill="none" stroke="midnightblue" d="M2671.94,-78.0119C2565.13,-61.2809 2536.54,-61.6251 2435,-42 2417.88,-38.6917 2398.99,-34.3198 2383.37,-30.5074"/>
<polygon fill="midnightblue" stroke="midnightblue" points="2671.4,-81.4707 2681.83,-79.5745 2672.5,-74.5565 2671.4,-81.4707"/>
</g>
<!-- Node27&#45;&gt;Node16 -->
<g id="edge45" class="edge"><title>Node27&#45;&gt;Node16</title>
<path fill="none" stroke="midnightblue" d="M2775.21,-69.6466C2766.98,-55.7497 2757.66,-40.0096 2752.06,-30.552"/>
<polygon fill="midnightblue" stroke="midnightblue" points="2772.3,-71.6066 2780.41,-78.4281 2778.33,-68.0401 2772.3,-71.6066"/>
</g>
<!-- Node28 -->
<g id="node28" class="node"><title>Node28</title>
<g id="a_node28"><a xlink:href="PlayerMovementSystem_8cpp.html" target="_top" xlink:title="src/Systems/SystemConstructor\l/PlayerMovementSystem/PlayerMovement\lSystem.cpp">
<polygon fill="none" stroke="black" points="3042,-0.5 3042,-41.5 3262,-41.5 3262,-0.5 3042,-0.5"/>
<text text-anchor="start" x="3050" y="-29.5" font-family="Helvetica,sans-Serif" font-size="10.00">src/Systems/SystemConstructor</text>
<text text-anchor="start" x="3050" y="-18.5" font-family="Helvetica,sans-Serif" font-size="10.00">/PlayerMovementSystem/PlayerMovement</text>
<text text-anchor="middle" x="3152" y="-7.5" font-family="Helvetica,sans-Serif" font-size="10.00">System.cpp</text>
</a>
</g>
</g>
<!-- Node27&#45;&gt;Node28 -->
<g id="edge47" class="edge"><title>Node27&#45;&gt;Node28</title>
<path fill="none" stroke="midnightblue" d="M2894.62,-76.3365C2946.58,-65.3673 3009.16,-52.155 3059.61,-41.5056"/>
<polygon fill="midnightblue" stroke="midnightblue" points="2893.77,-72.9379 2884.71,-78.4281 2895.22,-79.787 2893.77,-72.9379"/>
</g>
</g>
</svg>
        <g id="navigator" transform="translate(0 0)" fill="#404254">
                <rect fill="#f2f5e9" fill-opacity="0.5" stroke="#606060" stroke-width=".5" x="0" y="0" width="60" height="60"/>
                <use id="zoomplus" xlink:href="#zoomPlus" x="17" y="9" onmousedown="handleZoom(evt,'in')"/>
                <use id="zoomminus" xlink:href="#zoomMin" x="42" y="9" onmousedown="handleZoom(evt,'out')"/>
                <use id="reset" xlink:href="#resetDef" x="30" y="36" onmousedown="handleReset()"/>
                <g id="arrowUp" xlink:href="#dirArrow" transform="translate(30 24)" onmousedown="handlePan(0,-1)">
                  <use xlink:href="#rim" fill="#404040">
                        <set attributeName="fill" to="#808080" begin="arrowUp.mouseover" end="arrowUp.mouseout"/>
                  </use>
                  <path fill="none" stroke="white" stroke-width="1.5" d="M0,-3.0v7 M-2.5,-0.5L0,-3.0L2.5,-0.5"/>
                </g>
                <g id="arrowRight" xlink:href="#dirArrow" transform="rotate(90) translate(36 -43)" onmousedown="handlePan(1,0)">
                  <use xlink:href="#rim" fill="#404040">
                        <set attributeName="fill" to="#808080" begin="arrowRight.mouseover" end="arrowRight.mouseout"/>
                  </use>
                  <path fill="none" stroke="white" stroke-width="1.5" d="M0,-3.0v7 M-2.5,-0.5L0,-3.0L2.5,-0.5"/>
                </g>
                <g id="arrowDown" xlink:href="#dirArrow" transform="rotate(180) translate(-30 -48)" onmousedown="handlePan(0,1)">
                  <use xlink:href="#rim" fill="#404040">
                        <set attributeName="fill" to="#808080" begin="arrowDown.mouseover" end="arrowDown.mouseout"/>
                  </use>
                  <path fill="none" stroke="white" stroke-width="1.5" d="M0,-3.0v7 M-2.5,-0.5L0,-3.0L2.5,-0.5"/>
                </g>
                <g id="arrowLeft" xlink:href="#dirArrow" transform="rotate(270) translate(-36 17)" onmousedown="handlePan(-1,0)">
                  <use xlink:href="#rim" fill="#404040">
                        <set attributeName="fill" to="#808080" begin="arrowLeft.mouseover" end="arrowLeft.mouseout"/>
                  </use>
                  <path fill="none" stroke="white" stroke-width="1.5" d="M0,-3.0v7 M-2.5,-0.5L0,-3.0L2.5,-0.5"/>
                </g>
        </g>
        <svg viewBox="0 0 15 15" width="100%" height="30px" preserveAspectRatio="xMaxYMin meet">
         <g id="arrow_out" transform="scale(0.3 0.3)">
          <a xlink:href="ASystem_8hpp__dep__incl_org.svg" target="_base">
           <rect id="button" ry="5" rx="5" y="6" x="6" height="38" width="38"
                fill="#f2f5e9" fill-opacity="0.5" stroke="#606060" stroke-width="1.0"/>
           <path id="arrow"
             d="M 11.500037,31.436501 C 11.940474,20.09759 22.043105,11.32322 32.158766,21.979434 L 37.068811,17.246167 C 37.068811,17.246167 37.088388,32 37.088388,32 L 22.160133,31.978069 C 22.160133,31.978069 26.997745,27.140456 26.997745,27.140456 C 18.528582,18.264221 13.291696,25.230495 11.500037,31.436501 z"
             style="fill:#404040;"/>
          </a>
         </g>
        </svg>
</svg>
