<?xml version="1.0" encoding="UTF-8" standalone="no"?>
<!DOCTYPE svg PUBLIC "-//W3C//DTD SVG 1.1//EN"
 "http://www.w3.org/Graphics/SVG/1.1/DTD/svg11.dtd">
<!-- Generated by graphviz version 2.38.0 (20140413.2041)
 -->
<!-- Title: src/Network/AUDPNetwork.hpp Pages: 1 -->
<svg width="377pt" height="140pt"
 viewBox="0.00 0.00 376.50 140.00" xmlns="http://www.w3.org/2000/svg" xmlns:xlink="http://www.w3.org/1999/xlink">
<g id="graph0" class="graph" transform="scale(1 1) rotate(0) translate(4 136)">
<title>src/Network/AUDPNetwork.hpp</title>
<!-- Node1 -->
<g id="node1" class="node"><title>Node1</title>
<polygon fill="#bfbfbf" stroke="black" points="52.5,-112.5 52.5,-131.5 216.5,-131.5 216.5,-112.5 52.5,-112.5"/>
<text text-anchor="middle" x="134.5" y="-119.5" font-family="Helvetica,sans-Serif" font-size="10.00">src/Network/AUDPNetwork.hpp</text>
</g>
<!-- Node2 -->
<g id="node2" class="node"><title>Node2</title>
<polygon fill="none" stroke="#bfbfbf" points="0,-56.5 0,-75.5 87,-75.5 87,-56.5 0,-56.5"/>
<text text-anchor="middle" x="43.5" y="-63.5" font-family="Helvetica,sans-Serif" font-size="10.00">boost/asio.hpp</text>
</g>
<!-- Node1&#45;&gt;Node2 -->
<g id="edge1" class="edge"><title>Node1&#45;&gt;Node2</title>
<path fill="none" stroke="midnightblue" d="M119.879,-112.324C105.551,-103.822 83.4875,-90.7288 66.7513,-80.7975"/>
<polygon fill="midnightblue" stroke="midnightblue" points="68.4704,-77.7478 58.0844,-75.6545 64.8982,-83.7677 68.4704,-77.7478"/>
</g>
<!-- Node3 -->
<g id="node3" class="node"><title>Node3</title>
<polygon fill="none" stroke="#bfbfbf" points="105,-56.5 105,-75.5 164,-75.5 164,-56.5 105,-56.5"/>
<text text-anchor="middle" x="134.5" y="-63.5" font-family="Helvetica,sans-Serif" font-size="10.00">iostream</text>
</g>
<!-- Node1&#45;&gt;Node3 -->
<g id="edge2" class="edge"><title>Node1&#45;&gt;Node3</title>
<path fill="none" stroke="midnightblue" d="M134.5,-112.083C134.5,-105.006 134.5,-94.8611 134.5,-85.9865"/>
<polygon fill="midnightblue" stroke="midnightblue" points="138,-85.751 134.5,-75.7511 131,-85.7511 138,-85.751"/>
</g>
<!-- Node4 -->
<g id="node4" class="node"><title>Node4</title>
<g id="a_node4"><a xlink:href="PacketManager_8hpp.html" target="_top" xlink:title="PacketManager.hpp">
<polygon fill="none" stroke="black" points="182.5,-56.5 182.5,-75.5 292.5,-75.5 292.5,-56.5 182.5,-56.5"/>
<text text-anchor="middle" x="237.5" y="-63.5" font-family="Helvetica,sans-Serif" font-size="10.00">PacketManager.hpp</text>
</a>
</g>
</g>
<!-- Node1&#45;&gt;Node4 -->
<g id="edge3" class="edge"><title>Node1&#45;&gt;Node4</title>
<path fill="none" stroke="midnightblue" d="M151.049,-112.324C167.492,-103.703 192.935,-90.3643 211.968,-80.3855"/>
<polygon fill="midnightblue" stroke="midnightblue" points="213.761,-83.3977 220.992,-75.6545 210.511,-77.198 213.761,-83.3977"/>
</g>
<!-- Node5 -->
<g id="node5" class="node"><title>Node5</title>
<polygon fill="none" stroke="#bfbfbf" points="160.5,-0.5 160.5,-19.5 204.5,-19.5 204.5,-0.5 160.5,-0.5"/>
<text text-anchor="middle" x="182.5" y="-7.5" font-family="Helvetica,sans-Serif" font-size="10.00">string</text>
</g>
<!-- Node4&#45;&gt;Node5 -->
<g id="edge4" class="edge"><title>Node4&#45;&gt;Node5</title>
<path fill="none" stroke="midnightblue" d="M228.418,-56.083C220.329,-48.1409 208.305,-36.3354 198.59,-26.7973"/>
<polygon fill="midnightblue" stroke="midnightblue" points="201.001,-24.2595 191.413,-19.7511 196.097,-29.2545 201.001,-24.2595"/>
</g>
<!-- Node6 -->
<g id="node6" class="node"><title>Node6</title>
<polygon fill="none" stroke="#bfbfbf" points="222.5,-0.5 222.5,-19.5 252.5,-19.5 252.5,-0.5 222.5,-0.5"/>
<text text-anchor="middle" x="237.5" y="-7.5" font-family="Helvetica,sans-Serif" font-size="10.00">list</text>
</g>
<!-- Node4&#45;&gt;Node6 -->
<g id="edge5" class="edge"><title>Node4&#45;&gt;Node6</title>
<path fill="none" stroke="midnightblue" d="M237.5,-56.083C237.5,-49.0059 237.5,-38.8611 237.5,-29.9865"/>
<polygon fill="midnightblue" stroke="midnightblue" points="241,-29.751 237.5,-19.7511 234,-29.7511 241,-29.751"/>
</g>
<!-- Node7 -->
<g id="node7" class="node"><title>Node7</title>
<g id="a_node7"><a xlink:href="Input_8hpp.html" target="_top" xlink:title="Render/Input.hpp">
<polygon fill="none" stroke="black" points="270.5,-0.5 270.5,-19.5 368.5,-19.5 368.5,-0.5 270.5,-0.5"/>
<text text-anchor="middle" x="319.5" y="-7.5" font-family="Helvetica,sans-Serif" font-size="10.00">Render/Input.hpp</text>
</a>
</g>
</g>
<!-- Node4&#45;&gt;Node7 -->
<g id="edge6" class="edge"><title>Node4&#45;&gt;Node7</title>
<path fill="none" stroke="midnightblue" d="M250.675,-56.324C263.347,-47.979 282.733,-35.2122 297.706,-25.3524"/>
<polygon fill="midnightblue" stroke="midnightblue" points="299.931,-28.0776 306.358,-19.6545 296.081,-22.2313 299.931,-28.0776"/>
</g>
</g>
</svg>
