<?xml version="1.0" encoding="UTF-8" standalone="no"?>
<!DOCTYPE svg PUBLIC "-//W3C//DTD SVG 1.1//EN"
 "http://www.w3.org/Graphics/SVG/1.1/DTD/svg11.dtd">
<!-- Generated by graphviz version 2.38.0 (20140413.2041)
 -->
<!-- Title: src/Network/AUDPNetwork.hpp Pages: 1 -->
<svg width="548pt" height="162pt"
 viewBox="0.00 0.00 548.00 162.00" xmlns="http://www.w3.org/2000/svg" xmlns:xlink="http://www.w3.org/1999/xlink">
<g id="graph0" class="graph" transform="scale(1 1) rotate(0) translate(4 158)">
<title>src/Network/AUDPNetwork.hpp</title>
<!-- Node1 -->
<g id="node1" class="node"><title>Node1</title>
<polygon fill="#bfbfbf" stroke="black" points="150.5,-134.5 150.5,-153.5 314.5,-153.5 314.5,-134.5 150.5,-134.5"/>
<text text-anchor="middle" x="232.5" y="-141.5" font-family="Helvetica,sans-Serif" font-size="10.00">src/Network/AUDPNetwork.hpp</text>
</g>
<!-- Node2 -->
<g id="node2" class="node"><title>Node2</title>
<g id="a_node2"><a xlink:href="AUDPNetwork_8cpp.html" target="_top" xlink:title="src/Network/AUDPNetwork.cpp">
<polygon fill="none" stroke="black" points="0,-73 0,-92 163,-92 163,-73 0,-73"/>
<text text-anchor="middle" x="81.5" y="-80" font-family="Helvetica,sans-Serif" font-size="10.00">src/Network/AUDPNetwork.cpp</text>
</a>
</g>
</g>
<!-- Node1&#45;&gt;Node2 -->
<g id="edge1" class="edge"><title>Node1&#45;&gt;Node2</title>
<path fill="none" stroke="midnightblue" d="M201.494,-130.782C172.15,-119.22 128.866,-102.164 103.094,-92.0091"/>
<polygon fill="midnightblue" stroke="midnightblue" points="200.278,-134.065 210.865,-134.475 202.845,-127.553 200.278,-134.065"/>
</g>
<!-- Node3 -->
<g id="node3" class="node"><title>Node3</title>
<g id="a_node3"><a xlink:href="UDPClient_8hpp.html" target="_top" xlink:title="src/Network/Client\l/UDPClient.hpp">
<polygon fill="none" stroke="black" points="181,-67.5 181,-97.5 284,-97.5 284,-67.5 181,-67.5"/>
<text text-anchor="start" x="189" y="-85.5" font-family="Helvetica,sans-Serif" font-size="10.00">src/Network/Client</text>
<text text-anchor="middle" x="232.5" y="-74.5" font-family="Helvetica,sans-Serif" font-size="10.00">/UDPClient.hpp</text>
</a>
</g>
</g>
<!-- Node1&#45;&gt;Node3 -->
<g id="edge2" class="edge"><title>Node1&#45;&gt;Node3</title>
<path fill="none" stroke="midnightblue" d="M232.5,-124.235C232.5,-115.586 232.5,-105.497 232.5,-97.523"/>
<polygon fill="midnightblue" stroke="midnightblue" points="229,-124.475 232.5,-134.475 236,-124.475 229,-124.475"/>
</g>
<!-- Node6 -->
<g id="node6" class="node"><title>Node6</title>
<g id="a_node6"><a xlink:href="UDPServer_8hpp.html" target="_top" xlink:title="src/Network/Server\l/UDPServer.hpp">
<polygon fill="none" stroke="black" points="305,-67.5 305,-97.5 412,-97.5 412,-67.5 305,-67.5"/>
<text text-anchor="start" x="313" y="-85.5" font-family="Helvetica,sans-Serif" font-size="10.00">src/Network/Server</text>
<text text-anchor="middle" x="358.5" y="-74.5" font-family="Helvetica,sans-Serif" font-size="10.00">/UDPServer.hpp</text>
</a>
</g>
</g>
<!-- Node1&#45;&gt;Node6 -->
<g id="edge5" class="edge"><title>Node1&#45;&gt;Node6</title>
<path fill="none" stroke="midnightblue" d="M259.605,-130.2C279.968,-120.585 307.839,-107.423 328.804,-97.523"/>
<polygon fill="midnightblue" stroke="midnightblue" points="258.101,-127.04 250.553,-134.475 261.09,-133.37 258.101,-127.04"/>
</g>
<!-- Node4 -->
<g id="node4" class="node"><title>Node4</title>
<g id="a_node4"><a xlink:href="main__client_8cpp.html" target="_top" xlink:title="src/main_client.cpp">
<polygon fill="none" stroke="black" points="54,-6 54,-25 163,-25 163,-6 54,-6"/>
<text text-anchor="middle" x="108.5" y="-13" font-family="Helvetica,sans-Serif" font-size="10.00">src/main_client.cpp</text>
</a>
</g>
</g>
<!-- Node3&#45;&gt;Node4 -->
<g id="edge3" class="edge"><title>Node3&#45;&gt;Node4</title>
<path fill="none" stroke="midnightblue" d="M196.517,-62.638C172.795,-50.2028 142.865,-34.5137 124.729,-25.007"/>
<polygon fill="midnightblue" stroke="midnightblue" points="195.112,-65.8531 205.594,-67.396 198.362,-59.6533 195.112,-65.8531"/>
</g>
<!-- Node5 -->
<g id="node5" class="node"><title>Node5</title>
<g id="a_node5"><a xlink:href="UDPClient_8cpp.html" target="_top" xlink:title="src/Network/Client\l/UDPClient.cpp">
<polygon fill="none" stroke="black" points="181,-0.5 181,-30.5 284,-30.5 284,-0.5 181,-0.5"/>
<text text-anchor="start" x="189" y="-18.5" font-family="Helvetica,sans-Serif" font-size="10.00">src/Network/Client</text>
<text text-anchor="middle" x="232.5" y="-7.5" font-family="Helvetica,sans-Serif" font-size="10.00">/UDPClient.cpp</text>
</a>
</g>
</g>
<!-- Node3&#45;&gt;Node5 -->
<g id="edge4" class="edge"><title>Node3&#45;&gt;Node5</title>
<path fill="none" stroke="midnightblue" d="M232.5,-57.1081C232.5,-48.1539 232.5,-38.3227 232.5,-30.5765"/>
<polygon fill="midnightblue" stroke="midnightblue" points="229,-57.3959 232.5,-67.396 236,-57.396 229,-57.3959"/>
</g>
<!-- Node7 -->
<g id="node7" class="node"><title>Node7</title>
<g id="a_node7"><a xlink:href="main__server_8cpp.html" target="_top" xlink:title="src/main_server.cpp">
<polygon fill="none" stroke="black" points="302,-6 302,-25 415,-25 415,-6 302,-6"/>
<text text-anchor="middle" x="358.5" y="-13" font-family="Helvetica,sans-Serif" font-size="10.00">src/main_server.cpp</text>
</a>
</g>
</g>
<!-- Node6&#45;&gt;Node7 -->
<g id="edge6" class="edge"><title>Node6&#45;&gt;Node7</title>
<path fill="none" stroke="midnightblue" d="M358.5,-57.2495C358.5,-46.017 358.5,-33.3767 358.5,-25.1945"/>
<polygon fill="midnightblue" stroke="midnightblue" points="355,-57.3959 358.5,-67.396 362,-57.396 355,-57.3959"/>
</g>
<!-- Node8 -->
<g id="node8" class="node"><title>Node8</title>
<g id="a_node8"><a xlink:href="UDPServer_8cpp.html" target="_top" xlink:title="src/Network/Server\l/UDPServer.cpp">
<polygon fill="none" stroke="black" points="433,-0.5 433,-30.5 540,-30.5 540,-0.5 433,-0.5"/>
<text text-anchor="start" x="441" y="-18.5" font-family="Helvetica,sans-Serif" font-size="10.00">src/Network/Server</text>
<text text-anchor="middle" x="486.5" y="-7.5" font-family="Helvetica,sans-Serif" font-size="10.00">/UDPServer.cpp</text>
</a>
</g>
</g>
<!-- Node6&#45;&gt;Node8 -->
<g id="edge7" class="edge"><title>Node6&#45;&gt;Node8</title>
<path fill="none" stroke="midnightblue" d="M395.22,-62.8533C415.458,-52.5761 440.174,-40.0252 458.78,-30.5765"/>
<polygon fill="midnightblue" stroke="midnightblue" points="393.606,-59.7475 386.274,-67.396 396.775,-65.9888 393.606,-59.7475"/>
</g>
</g>
</svg>
