<?xml version="1.0" encoding="UTF-8" standalone="no"?>
<!DOCTYPE svg PUBLIC "-//W3C//DTD SVG 1.1//EN"
 "http://www.w3.org/Graphics/SVG/1.1/DTD/svg11.dtd">
<!-- Generated by graphviz version 2.38.0 (20140413.2041)
 -->
<!-- Title: src/Entities/EntityConstructor/BackgroundMenuEntity/BackgroundMenuEntity.cpp Pages: 1 -->
<svg width="787pt" height="330pt"
 viewBox="0.00 0.00 786.52 330.00" xmlns="http://www.w3.org/2000/svg" xmlns:xlink="http://www.w3.org/1999/xlink">
<g id="graph0" class="graph" transform="scale(1 1) rotate(0) translate(4 326)">
<title>src/Entities/EntityConstructor/BackgroundMenuEntity/BackgroundMenuEntity.cpp</title>
<!-- Node1 -->
<g id="node1" class="node"><title>Node1</title>
<polygon fill="#bfbfbf" stroke="black" points="449,-280.5 449,-321.5 665,-321.5 665,-280.5 449,-280.5"/>
<text text-anchor="start" x="457" y="-309.5" font-family="Helvetica,sans-Serif" font-size="10.00">src/Entities/EntityConstructor</text>
<text text-anchor="start" x="457" y="-298.5" font-family="Helvetica,sans-Serif" font-size="10.00">/BackgroundMenuEntity/BackgroundMenu</text>
<text text-anchor="middle" x="557" y="-287.5" font-family="Helvetica,sans-Serif" font-size="10.00">Entity.cpp</text>
</g>
<!-- Node2 -->
<g id="node2" class="node"><title>Node2</title>
<g id="a_node2"><a xlink:href="BackgroundMenuEntity_8hpp.html" target="_top" xlink:title="BackgroundMenuEntity.hpp">
<polygon fill="none" stroke="black" points="239,-224.5 239,-243.5 385,-243.5 385,-224.5 239,-224.5"/>
<text text-anchor="middle" x="312" y="-231.5" font-family="Helvetica,sans-Serif" font-size="10.00">BackgroundMenuEntity.hpp</text>
</a>
</g>
</g>
<!-- Node1&#45;&gt;Node2 -->
<g id="edge1" class="edge"><title>Node1&#45;&gt;Node2</title>
<path fill="none" stroke="midnightblue" d="M483.492,-280.498C441.286,-269.3 389.79,-255.638 354.307,-246.224"/>
<polygon fill="midnightblue" stroke="midnightblue" points="354.854,-242.749 344.291,-243.567 353.059,-249.514 354.854,-242.749"/>
</g>
<!-- Node15 -->
<g id="node15" class="node"><title>Node15</title>
<g id="a_node15"><a xlink:href="Position_8hpp.html" target="_top" xlink:title="Position.hpp">
<polygon fill="none" stroke="black" points="519.5,-224.5 519.5,-243.5 594.5,-243.5 594.5,-224.5 519.5,-224.5"/>
<text text-anchor="middle" x="557" y="-231.5" font-family="Helvetica,sans-Serif" font-size="10.00">Position.hpp</text>
</a>
</g>
</g>
<!-- Node1&#45;&gt;Node15 -->
<g id="edge20" class="edge"><title>Node1&#45;&gt;Node15</title>
<path fill="none" stroke="midnightblue" d="M557,-280.498C557,-272.065 557,-262.235 557,-253.874"/>
<polygon fill="midnightblue" stroke="midnightblue" points="560.5,-253.652 557,-243.652 553.5,-253.653 560.5,-253.652"/>
</g>
<!-- Node18 -->
<g id="node18" class="node"><title>Node18</title>
<g id="a_node18"><a xlink:href="Sprite_8hpp.html" target="_top" xlink:title="Sprite.hpp">
<polygon fill="none" stroke="black" points="689,-168.5 689,-187.5 755,-187.5 755,-168.5 689,-168.5"/>
<text text-anchor="middle" x="722" y="-175.5" font-family="Helvetica,sans-Serif" font-size="10.00">Sprite.hpp</text>
</a>
</g>
</g>
<!-- Node1&#45;&gt;Node18 -->
<g id="edge24" class="edge"><title>Node1&#45;&gt;Node18</title>
<path fill="none" stroke="midnightblue" d="M633.933,-280.47C655.42,-272.059 677.404,-260.288 694,-244 706.858,-231.38 714.172,-211.894 718.075,-197.546"/>
<polygon fill="midnightblue" stroke="midnightblue" points="721.49,-198.316 720.43,-187.775 714.685,-196.676 721.49,-198.316"/>
</g>
<!-- Node21 -->
<g id="node21" class="node"><title>Node21</title>
<g id="a_node21"><a xlink:href="Velocity_8hpp.html" target="_top" xlink:title="Velocity.hpp">
<polygon fill="none" stroke="black" points="612.5,-224.5 612.5,-243.5 685.5,-243.5 685.5,-224.5 612.5,-224.5"/>
<text text-anchor="middle" x="649" y="-231.5" font-family="Helvetica,sans-Serif" font-size="10.00">Velocity.hpp</text>
</a>
</g>
</g>
<!-- Node1&#45;&gt;Node21 -->
<g id="edge31" class="edge"><title>Node1&#45;&gt;Node21</title>
<path fill="none" stroke="midnightblue" d="M584.603,-280.498C598.708,-270.532 615.577,-258.614 628.51,-249.476"/>
<polygon fill="midnightblue" stroke="midnightblue" points="630.606,-252.281 636.753,-243.652 626.567,-246.564 630.606,-252.281"/>
</g>
<!-- Node23 -->
<g id="node23" class="node"><title>Node23</title>
<g id="a_node23"><a xlink:href="Rotation_8hpp.html" target="_top" xlink:title="Rotation.hpp">
<polygon fill="none" stroke="black" points="424.5,-224.5 424.5,-243.5 501.5,-243.5 501.5,-224.5 424.5,-224.5"/>
<text text-anchor="middle" x="463" y="-231.5" font-family="Helvetica,sans-Serif" font-size="10.00">Rotation.hpp</text>
</a>
</g>
</g>
<!-- Node1&#45;&gt;Node23 -->
<g id="edge34" class="edge"><title>Node1&#45;&gt;Node23</title>
<path fill="none" stroke="midnightblue" d="M528.797,-280.498C514.385,-270.532 497.15,-258.614 483.935,-249.476"/>
<polygon fill="midnightblue" stroke="midnightblue" points="485.729,-246.461 475.513,-243.652 481.747,-252.219 485.729,-246.461"/>
</g>
<!-- Node3 -->
<g id="node3" class="node"><title>Node3</title>
<g id="a_node3"><a xlink:href="IEntityConstructor_8hpp.html" target="_top" xlink:title="IEntityConstructor.hpp">
<polygon fill="none" stroke="black" points="210,-168.5 210,-187.5 332,-187.5 332,-168.5 210,-168.5"/>
<text text-anchor="middle" x="271" y="-175.5" font-family="Helvetica,sans-Serif" font-size="10.00">IEntityConstructor.hpp</text>
</a>
</g>
</g>
<!-- Node2&#45;&gt;Node3 -->
<g id="edge2" class="edge"><title>Node2&#45;&gt;Node3</title>
<path fill="none" stroke="midnightblue" d="M305.23,-224.083C299.438,-216.455 290.942,-205.264 283.862,-195.941"/>
<polygon fill="midnightblue" stroke="midnightblue" points="286.479,-193.599 277.644,-187.751 280.904,-197.832 286.479,-193.599"/>
</g>
<!-- Node4 -->
<g id="node4" class="node"><title>Node4</title>
<polygon fill="none" stroke="#bfbfbf" points="193.5,-56.5 193.5,-75.5 250.5,-75.5 250.5,-56.5 193.5,-56.5"/>
<text text-anchor="middle" x="222" y="-63.5" font-family="Helvetica,sans-Serif" font-size="10.00">memory</text>
</g>
<!-- Node3&#45;&gt;Node4 -->
<g id="edge3" class="edge"><title>Node3&#45;&gt;Node4</title>
<path fill="none" stroke="midnightblue" d="M267.155,-168.368C259.176,-150.456 240.675,-108.923 229.995,-84.9482"/>
<polygon fill="midnightblue" stroke="midnightblue" points="233.093,-83.3019 225.827,-75.5914 226.699,-86.1503 233.093,-83.3019"/>
</g>
<!-- Node5 -->
<g id="node5" class="node"><title>Node5</title>
<polygon fill="none" stroke="#bfbfbf" points="433,-0.5 433,-19.5 477,-19.5 477,-0.5 433,-0.5"/>
<text text-anchor="middle" x="455" y="-7.5" font-family="Helvetica,sans-Serif" font-size="10.00">string</text>
</g>
<!-- Node3&#45;&gt;Node5 -->
<g id="edge4" class="edge"><title>Node3&#45;&gt;Node5</title>
<path fill="none" stroke="midnightblue" d="M332.002,-175.796C367.095,-171.758 409.208,-160.624 435,-132 460.452,-103.753 460.127,-56.0373 457.603,-29.7582"/>
<polygon fill="midnightblue" stroke="midnightblue" points="461.056,-29.1561 456.414,-19.6325 454.104,-29.9725 461.056,-29.1561"/>
</g>
<!-- Node6 -->
<g id="node6" class="node"><title>Node6</title>
<g id="a_node6"><a xlink:href="Entity_8hpp.html" target="_top" xlink:title="Entity.hpp">
<polygon fill="none" stroke="black" points="268.5,-56.5 268.5,-75.5 331.5,-75.5 331.5,-56.5 268.5,-56.5"/>
<text text-anchor="middle" x="300" y="-63.5" font-family="Helvetica,sans-Serif" font-size="10.00">Entity.hpp</text>
</a>
</g>
</g>
<!-- Node3&#45;&gt;Node6 -->
<g id="edge5" class="edge"><title>Node3&#45;&gt;Node6</title>
<path fill="none" stroke="midnightblue" d="M271.421,-168.429C272.21,-155.843 274.374,-131.72 280,-112 282.639,-102.751 286.821,-92.9406 290.68,-84.8485"/>
<polygon fill="midnightblue" stroke="midnightblue" points="293.917,-86.199 295.255,-75.6889 287.655,-83.0709 293.917,-86.199"/>
</g>
<!-- Node7 -->
<g id="node7" class="node"><title>Node7</title>
<g id="a_node7"><a xlink:href="IEntityManager_8hpp.html" target="_top" xlink:title="IEntityManager.hpp">
<polygon fill="none" stroke="black" points="87,-112.5 87,-131.5 195,-131.5 195,-112.5 87,-112.5"/>
<text text-anchor="middle" x="141" y="-119.5" font-family="Helvetica,sans-Serif" font-size="10.00">IEntityManager.hpp</text>
</a>
</g>
</g>
<!-- Node3&#45;&gt;Node7 -->
<g id="edge6" class="edge"><title>Node3&#45;&gt;Node7</title>
<path fill="none" stroke="midnightblue" d="M250.401,-168.444C229.007,-159.557 195.319,-145.563 170.976,-135.451"/>
<polygon fill="midnightblue" stroke="midnightblue" points="172.08,-132.12 161.503,-131.516 169.395,-138.585 172.08,-132.12"/>
</g>
<!-- Node12 -->
<g id="node12" class="node"><title>Node12</title>
<g id="a_node12"><a xlink:href="IComponentManager_8hpp.html" target="_top" xlink:title="IComponentManager.hpp">
<polygon fill="none" stroke="black" points="289.5,-112.5 289.5,-131.5 426.5,-131.5 426.5,-112.5 289.5,-112.5"/>
<text text-anchor="middle" x="358" y="-119.5" font-family="Helvetica,sans-Serif" font-size="10.00">IComponentManager.hpp</text>
</a>
</g>
</g>
<!-- Node3&#45;&gt;Node12 -->
<g id="edge14" class="edge"><title>Node3&#45;&gt;Node12</title>
<path fill="none" stroke="midnightblue" d="M284.978,-168.324C298.55,-159.9 319.38,-146.971 335.325,-137.074"/>
<polygon fill="midnightblue" stroke="midnightblue" points="337.406,-139.902 344.057,-131.655 333.714,-133.954 337.406,-139.902"/>
</g>
<!-- Node7&#45;&gt;Node4 -->
<g id="edge7" class="edge"><title>Node7&#45;&gt;Node4</title>
<path fill="none" stroke="midnightblue" d="M154.014,-112.324C166.532,-103.979 185.682,-91.2122 200.471,-81.3524"/>
<polygon fill="midnightblue" stroke="midnightblue" points="202.639,-84.1137 209.018,-75.6545 198.756,-78.2894 202.639,-84.1137"/>
</g>
<!-- Node7&#45;&gt;Node6 -->
<g id="edge9" class="edge"><title>Node7&#45;&gt;Node6</title>
<path fill="none" stroke="midnightblue" d="M166.194,-112.444C192.943,-103.359 235.403,-88.9388 265.305,-78.7831"/>
<polygon fill="midnightblue" stroke="midnightblue" points="266.581,-82.0464 274.924,-75.5164 264.329,-75.4182 266.581,-82.0464"/>
</g>
<!-- Node8 -->
<g id="node8" class="node"><title>Node8</title>
<polygon fill="none" stroke="#bfbfbf" points="128.5,-56.5 128.5,-75.5 175.5,-75.5 175.5,-56.5 128.5,-56.5"/>
<text text-anchor="middle" x="152" y="-63.5" font-family="Helvetica,sans-Serif" font-size="10.00">vector</text>
</g>
<!-- Node7&#45;&gt;Node8 -->
<g id="edge8" class="edge"><title>Node7&#45;&gt;Node8</title>
<path fill="none" stroke="midnightblue" d="M142.816,-112.083C144.274,-104.927 146.371,-94.6353 148.193,-85.6911"/>
<polygon fill="midnightblue" stroke="midnightblue" points="151.651,-86.2485 150.217,-75.7511 144.792,-84.8512 151.651,-86.2485"/>
</g>
<!-- Node9 -->
<g id="node9" class="node"><title>Node9</title>
<g id="a_node9"><a xlink:href="PacketManager_8hpp.html" target="_top" xlink:title="PacketManager.hpp">
<polygon fill="none" stroke="black" points="0,-56.5 0,-75.5 110,-75.5 110,-56.5 0,-56.5"/>
<text text-anchor="middle" x="55" y="-63.5" font-family="Helvetica,sans-Serif" font-size="10.00">PacketManager.hpp</text>
</a>
</g>
</g>
<!-- Node7&#45;&gt;Node9 -->
<g id="edge10" class="edge"><title>Node7&#45;&gt;Node9</title>
<path fill="none" stroke="midnightblue" d="M127.183,-112.324C113.767,-103.9 93.1759,-90.9709 77.4144,-81.0741"/>
<polygon fill="midnightblue" stroke="midnightblue" points="79.1132,-78.0081 68.7831,-75.6545 75.3908,-83.9364 79.1132,-78.0081"/>
</g>
<!-- Node9&#45;&gt;Node5 -->
<g id="edge11" class="edge"><title>Node9&#45;&gt;Node5</title>
<path fill="none" stroke="midnightblue" d="M110.155,-57.2204C113.147,-56.8058 116.11,-56.3968 119,-56 230.66,-40.6719 363.285,-23.095 423.026,-15.2111"/>
<polygon fill="midnightblue" stroke="midnightblue" points="423.522,-18.6761 432.978,-13.8984 422.606,-11.7362 423.522,-18.6761"/>
</g>
<!-- Node10 -->
<g id="node10" class="node"><title>Node10</title>
<polygon fill="none" stroke="#bfbfbf" points="234,-0.5 234,-19.5 264,-19.5 264,-0.5 234,-0.5"/>
<text text-anchor="middle" x="249" y="-7.5" font-family="Helvetica,sans-Serif" font-size="10.00">list</text>
</g>
<!-- Node9&#45;&gt;Node10 -->
<g id="edge12" class="edge"><title>Node9&#45;&gt;Node10</title>
<path fill="none" stroke="midnightblue" d="M85.7399,-56.4435C123.889,-45.8247 188.23,-27.9153 223.678,-18.0485"/>
<polygon fill="midnightblue" stroke="midnightblue" points="224.995,-21.315 233.69,-15.2616 223.117,-14.5714 224.995,-21.315"/>
</g>
<!-- Node11 -->
<g id="node11" class="node"><title>Node11</title>
<g id="a_node11"><a xlink:href="Input_8hpp.html" target="_top" xlink:title="Render/Input.hpp">
<polygon fill="none" stroke="black" points="6,-0.5 6,-19.5 104,-19.5 104,-0.5 6,-0.5"/>
<text text-anchor="middle" x="55" y="-7.5" font-family="Helvetica,sans-Serif" font-size="10.00">Render/Input.hpp</text>
</a>
</g>
</g>
<!-- Node9&#45;&gt;Node11 -->
<g id="edge13" class="edge"><title>Node9&#45;&gt;Node11</title>
<path fill="none" stroke="midnightblue" d="M55,-56.083C55,-49.0059 55,-38.8611 55,-29.9865"/>
<polygon fill="midnightblue" stroke="midnightblue" points="58.5001,-29.751 55,-19.7511 51.5001,-29.7511 58.5001,-29.751"/>
</g>
<!-- Node12&#45;&gt;Node4 -->
<g id="edge16" class="edge"><title>Node12&#45;&gt;Node4</title>
<path fill="none" stroke="midnightblue" d="M336.45,-112.444C313.969,-103.517 278.512,-89.4387 253.02,-79.3168"/>
<polygon fill="midnightblue" stroke="midnightblue" points="254.035,-75.9539 243.449,-75.5164 251.451,-82.4598 254.035,-75.9539"/>
</g>
<!-- Node12&#45;&gt;Node6 -->
<g id="edge19" class="edge"><title>Node12&#45;&gt;Node6</title>
<path fill="none" stroke="midnightblue" d="M348.681,-112.324C340.107,-104.341 327.188,-92.3128 316.812,-82.6529"/>
<polygon fill="midnightblue" stroke="midnightblue" points="319.192,-80.0865 309.488,-75.8339 314.422,-85.2098 319.192,-80.0865"/>
</g>
<!-- Node12&#45;&gt;Node10 -->
<g id="edge15" class="edge"><title>Node12&#45;&gt;Node10</title>
<path fill="none" stroke="midnightblue" d="M357.787,-112.408C357.021,-98.9194 353.729,-72.605 340,-56 323.091,-35.5485 294.595,-23.5878 273.989,-17.2047"/>
<polygon fill="midnightblue" stroke="midnightblue" points="274.893,-13.8228 264.315,-14.4331 272.964,-20.552 274.893,-13.8228"/>
</g>
<!-- Node13 -->
<g id="node13" class="node"><title>Node13</title>
<g id="a_node13"><a xlink:href="IComponent_8hpp.html" target="_top" xlink:title="IComponent.hpp">
<polygon fill="none" stroke="black" points="615,-56.5 615,-75.5 711,-75.5 711,-56.5 615,-56.5"/>
<text text-anchor="middle" x="663" y="-63.5" font-family="Helvetica,sans-Serif" font-size="10.00">IComponent.hpp</text>
</a>
</g>
</g>
<!-- Node12&#45;&gt;Node13 -->
<g id="edge17" class="edge"><title>Node12&#45;&gt;Node13</title>
<path fill="none" stroke="midnightblue" d="M406.328,-112.444C460.204,-102.905 547.307,-87.4834 604.864,-77.293"/>
<polygon fill="midnightblue" stroke="midnightblue" points="605.661,-80.7063 614.898,-75.5164 604.441,-73.8135 605.661,-80.7063"/>
</g>
<!-- Node14 -->
<g id="node14" class="node"><title>Node14</title>
<polygon fill="none" stroke="#bfbfbf" points="707.5,-0.5 707.5,-19.5 770.5,-19.5 770.5,-0.5 707.5,-0.5"/>
<text text-anchor="middle" x="739" y="-7.5" font-family="Helvetica,sans-Serif" font-size="10.00">typeindex</text>
</g>
<!-- Node13&#45;&gt;Node14 -->
<g id="edge18" class="edge"><title>Node13&#45;&gt;Node14</title>
<path fill="none" stroke="midnightblue" d="M675.211,-56.324C686.776,-48.1066 704.375,-35.6017 718.161,-25.8069"/>
<polygon fill="midnightblue" stroke="midnightblue" points="720.443,-28.4791 726.567,-19.8339 716.388,-22.7729 720.443,-28.4791"/>
</g>
<!-- Node16 -->
<g id="node16" class="node"><title>Node16</title>
<polygon fill="none" stroke="#bfbfbf" points="541,-168.5 541,-187.5 583,-187.5 583,-168.5 541,-168.5"/>
<text text-anchor="middle" x="562" y="-175.5" font-family="Helvetica,sans-Serif" font-size="10.00">utility</text>
</g>
<!-- Node15&#45;&gt;Node16 -->
<g id="edge21" class="edge"><title>Node15&#45;&gt;Node16</title>
<path fill="none" stroke="midnightblue" d="M557.826,-224.083C558.481,-217.006 559.42,-206.861 560.242,-197.986"/>
<polygon fill="midnightblue" stroke="midnightblue" points="563.753,-198.031 561.19,-187.751 556.783,-197.386 563.753,-198.031"/>
</g>
<!-- Node17 -->
<g id="node17" class="node"><title>Node17</title>
<g id="a_node17"><a xlink:href="IPhysics_8hpp.html" target="_top" xlink:title="IPhysics.hpp">
<polygon fill="none" stroke="black" points="483.5,-112.5 483.5,-131.5 558.5,-131.5 558.5,-112.5 483.5,-112.5"/>
<text text-anchor="middle" x="521" y="-119.5" font-family="Helvetica,sans-Serif" font-size="10.00">IPhysics.hpp</text>
</a>
</g>
</g>
<!-- Node15&#45;&gt;Node17 -->
<g id="edge22" class="edge"><title>Node15&#45;&gt;Node17</title>
<path fill="none" stroke="midnightblue" d="M551.087,-224.454C545.316,-215.698 536.733,-201.493 532,-188 526.726,-172.964 523.935,-155.059 522.486,-141.852"/>
<polygon fill="midnightblue" stroke="midnightblue" points="525.947,-141.275 521.53,-131.645 518.978,-141.928 525.947,-141.275"/>
</g>
<!-- Node17&#45;&gt;Node13 -->
<g id="edge23" class="edge"><title>Node17&#45;&gt;Node13</title>
<path fill="none" stroke="midnightblue" d="M543.5,-112.444C567.077,-103.478 604.322,-89.314 630.964,-79.1827"/>
<polygon fill="midnightblue" stroke="midnightblue" points="632.502,-82.3424 640.605,-75.5164 630.014,-75.7995 632.502,-82.3424"/>
</g>
<!-- Node18&#45;&gt;Node5 -->
<g id="edge25" class="edge"><title>Node18&#45;&gt;Node5</title>
<path fill="none" stroke="midnightblue" d="M692.76,-168.41C668.608,-160.678 633.886,-148.071 606,-132 552.19,-100.99 497.349,-51.664 471.03,-26.6491"/>
<polygon fill="midnightblue" stroke="midnightblue" points="473.446,-24.1173 463.81,-19.7136 468.597,-29.1654 473.446,-24.1173"/>
</g>
<!-- Node18&#45;&gt;Node14 -->
<g id="edge26" class="edge"><title>Node18&#45;&gt;Node14</title>
<path fill="none" stroke="midnightblue" d="M737.734,-168.236C749.889,-160.481 765.812,-147.929 773,-132 789.006,-96.5321 766.214,-51.7632 750.911,-27.8619"/>
<polygon fill="midnightblue" stroke="midnightblue" points="753.794,-25.8774 745.32,-19.5174 747.978,-29.7734 753.794,-25.8774"/>
</g>
<!-- Node19 -->
<g id="node19" class="node"><title>Node19</title>
<g id="a_node19"><a xlink:href="Rect_8hpp.html" target="_top" xlink:title="Rect.hpp">
<polygon fill="none" stroke="black" points="615,-112.5 615,-131.5 673,-131.5 673,-112.5 615,-112.5"/>
<text text-anchor="middle" x="644" y="-119.5" font-family="Helvetica,sans-Serif" font-size="10.00">Rect.hpp</text>
</a>
</g>
</g>
<!-- Node18&#45;&gt;Node19 -->
<g id="edge27" class="edge"><title>Node18&#45;&gt;Node19</title>
<path fill="none" stroke="midnightblue" d="M709.468,-168.324C697.414,-159.979 678.973,-147.212 664.731,-137.352"/>
<polygon fill="midnightblue" stroke="midnightblue" points="666.715,-134.469 656.501,-131.655 662.731,-140.224 666.715,-134.469"/>
</g>
<!-- Node20 -->
<g id="node20" class="node"><title>Node20</title>
<g id="a_node20"><a xlink:href="IDisplay_8hpp.html" target="_top" xlink:title="IDisplay.hpp">
<polygon fill="none" stroke="black" points="691.5,-112.5 691.5,-131.5 764.5,-131.5 764.5,-112.5 691.5,-112.5"/>
<text text-anchor="middle" x="728" y="-119.5" font-family="Helvetica,sans-Serif" font-size="10.00">IDisplay.hpp</text>
</a>
</g>
</g>
<!-- Node18&#45;&gt;Node20 -->
<g id="edge28" class="edge"><title>Node18&#45;&gt;Node20</title>
<path fill="none" stroke="midnightblue" d="M722.991,-168.083C723.786,-160.927 724.929,-150.635 725.923,-141.691"/>
<polygon fill="midnightblue" stroke="midnightblue" points="729.402,-142.076 727.028,-131.751 722.445,-141.303 729.402,-142.076"/>
</g>
<!-- Node20&#45;&gt;Node13 -->
<g id="edge30" class="edge"><title>Node20&#45;&gt;Node13</title>
<path fill="none" stroke="midnightblue" d="M717.557,-112.324C707.854,-104.263 693.185,-92.0765 681.5,-82.3695"/>
<polygon fill="midnightblue" stroke="midnightblue" points="683.562,-79.532 673.633,-75.8339 679.089,-84.9163 683.562,-79.532"/>
</g>
<!-- Node20&#45;&gt;Node14 -->
<g id="edge29" class="edge"><title>Node20&#45;&gt;Node14</title>
<path fill="none" stroke="midnightblue" d="M728.863,-112.368C730.638,-94.617 734.733,-53.6664 737.14,-29.5974"/>
<polygon fill="midnightblue" stroke="midnightblue" points="740.628,-29.8901 738.141,-19.5914 733.663,-29.1935 740.628,-29.8901"/>
</g>
<!-- Node22 -->
<g id="node22" class="node"><title>Node22</title>
<g id="a_node22"><a xlink:href="Motion_8hpp.html" target="_top" xlink:title="Motion.hpp">
<polygon fill="none" stroke="black" points="601,-168.5 601,-187.5 671,-187.5 671,-168.5 601,-168.5"/>
<text text-anchor="middle" x="636" y="-175.5" font-family="Helvetica,sans-Serif" font-size="10.00">Motion.hpp</text>
</a>
</g>
</g>
<!-- Node21&#45;&gt;Node22 -->
<g id="edge32" class="edge"><title>Node21&#45;&gt;Node22</title>
<path fill="none" stroke="midnightblue" d="M646.853,-224.083C645.131,-216.927 642.653,-206.635 640.5,-197.691"/>
<polygon fill="midnightblue" stroke="midnightblue" points="643.85,-196.654 638.107,-187.751 637.045,-198.293 643.85,-196.654"/>
</g>
<!-- Node22&#45;&gt;Node17 -->
<g id="edge33" class="edge"><title>Node22&#45;&gt;Node17</title>
<path fill="none" stroke="midnightblue" d="M617.778,-168.444C599.104,-159.675 569.844,-145.935 548.383,-135.858"/>
<polygon fill="midnightblue" stroke="midnightblue" points="549.676,-132.599 539.137,-131.516 546.701,-138.935 549.676,-132.599"/>
</g>
<!-- Node23&#45;&gt;Node17 -->
<g id="edge35" class="edge"><title>Node23&#45;&gt;Node17</title>
<path fill="none" stroke="midnightblue" d="M467.551,-224.368C477.038,-206.376 499.092,-164.55 511.706,-140.627"/>
<polygon fill="midnightblue" stroke="midnightblue" points="514.902,-142.07 516.47,-131.591 508.71,-138.805 514.902,-142.07"/>
</g>
</g>
</svg>
