<?xml version="1.0" encoding="UTF-8" standalone="no"?>
<!DOCTYPE svg PUBLIC "-//W3C//DTD SVG 1.1//EN"
 "http://www.w3.org/Graphics/SVG/1.1/DTD/svg11.dtd">
<!-- Generated by graphviz version 2.38.0 (20140413.2041)
 -->
<!-- Title: src/Entities/EntityConstructor/BackgroundWithoutTitleEntity/BackgroundWithoutTitleEntity.hpp Pages: 1 -->
<svg width="368pt" height="128pt"
 viewBox="0.00 0.00 368.00 128.00" xmlns="http://www.w3.org/2000/svg" xmlns:xlink="http://www.w3.org/1999/xlink">
<g id="graph0" class="graph" transform="scale(1 1) rotate(0) translate(4 124)">
<title>src/Entities/EntityConstructor/BackgroundWithoutTitleEntity/BackgroundWithoutTitleEntity.hpp</title>
<!-- Node1 -->
<g id="node1" class="node"><title>Node1</title>
<polygon fill="#bfbfbf" stroke="black" points="93.5,-78.5 93.5,-119.5 272.5,-119.5 272.5,-78.5 93.5,-78.5"/>
<text text-anchor="start" x="101.5" y="-107.5" font-family="Helvetica,sans-Serif" font-size="10.00">src/Entities/EntityConstructor</text>
<text text-anchor="start" x="101.5" y="-96.5" font-family="Helvetica,sans-Serif" font-size="10.00">/BackgroundWithoutTitleEntity</text>
<text text-anchor="middle" x="183" y="-85.5" font-family="Helvetica,sans-Serif" font-size="10.00">/BackgroundWithoutTitleEntity.hpp</text>
</g>
<!-- Node2 -->
<g id="node2" class="node"><title>Node2</title>
<g id="a_node2"><a xlink:href="BackgroundWithoutTitleEntity_8cpp.html" target="_top" xlink:title="src/Entities/EntityConstructor\l/BackgroundWithoutTitleEntity\l/BackgroundWithoutTitleEntity.cpp">
<polygon fill="none" stroke="black" points="0,-0.5 0,-41.5 178,-41.5 178,-0.5 0,-0.5"/>
<text text-anchor="start" x="8" y="-29.5" font-family="Helvetica,sans-Serif" font-size="10.00">src/Entities/EntityConstructor</text>
<text text-anchor="start" x="8" y="-18.5" font-family="Helvetica,sans-Serif" font-size="10.00">/BackgroundWithoutTitleEntity</text>
<text text-anchor="middle" x="89" y="-7.5" font-family="Helvetica,sans-Serif" font-size="10.00">/BackgroundWithoutTitleEntity.cpp</text>
</a>
</g>
</g>
<!-- Node1&#45;&gt;Node2 -->
<g id="edge1" class="edge"><title>Node1&#45;&gt;Node2</title>
<path fill="none" stroke="midnightblue" d="M150.922,-72.0648C138.545,-62.0574 124.627,-50.8045 113.125,-41.5056"/>
<polygon fill="midnightblue" stroke="midnightblue" points="148.816,-74.8626 158.793,-78.4281 153.217,-69.4191 148.816,-74.8626"/>
</g>
<!-- Node3 -->
<g id="node3" class="node"><title>Node3</title>
<g id="a_node3"><a xlink:href="SceneManager_8cpp.html" target="_top" xlink:title="src/Scenes/SceneManager.cpp">
<polygon fill="none" stroke="black" points="196,-11.5 196,-30.5 360,-30.5 360,-11.5 196,-11.5"/>
<text text-anchor="middle" x="278" y="-18.5" font-family="Helvetica,sans-Serif" font-size="10.00">src/Scenes/SceneManager.cpp</text>
</a>
</g>
</g>
<!-- Node1&#45;&gt;Node3 -->
<g id="edge2" class="edge"><title>Node1&#45;&gt;Node3</title>
<path fill="none" stroke="midnightblue" d="M215.488,-72.0093C233.539,-57.5691 254.813,-40.55 267.31,-30.552"/>
<polygon fill="midnightblue" stroke="midnightblue" points="213.087,-69.4481 207.465,-78.4281 217.46,-74.9142 213.087,-69.4481"/>
</g>
</g>
</svg>
