<?xml version="1.0" encoding="UTF-8" standalone="no"?>
<!DOCTYPE svg PUBLIC "-//W3C//DTD SVG 1.1//EN"
 "http://www.w3.org/Graphics/SVG/1.1/DTD/svg11.dtd">
<!-- Generated by graphviz version 2.38.0 (20140413.2041)
 -->
<!-- Title: src/Entities/EntityConstructor/BackEntity/BackEntity.cpp Pages: 1 -->
<svg width="955pt" height="319pt"
 viewBox="0.00 0.00 955.44 319.00" xmlns="http://www.w3.org/2000/svg" xmlns:xlink="http://www.w3.org/1999/xlink">
<g id="graph0" class="graph" transform="scale(1 1) rotate(0) translate(4 315)">
<title>src/Entities/EntityConstructor/BackEntity/BackEntity.cpp</title>
<!-- Node1 -->
<g id="node1" class="node"><title>Node1</title>
<polygon fill="#bfbfbf" stroke="black" points="573.5,-280.5 573.5,-310.5 728.5,-310.5 728.5,-280.5 573.5,-280.5"/>
<text text-anchor="start" x="581.5" y="-298.5" font-family="Helvetica,sans-Serif" font-size="10.00">src/Entities/EntityConstructor</text>
<text text-anchor="middle" x="651" y="-287.5" font-family="Helvetica,sans-Serif" font-size="10.00">/BackEntity/BackEntity.cpp</text>
</g>
<!-- Node2 -->
<g id="node2" class="node"><title>Node2</title>
<g id="a_node2"><a xlink:href="Button_8hpp.html" target="_top" xlink:title="Display/Button.hpp">
<polygon fill="none" stroke="black" points="780.5,-224.5 780.5,-243.5 887.5,-243.5 887.5,-224.5 780.5,-224.5"/>
<text text-anchor="middle" x="834" y="-231.5" font-family="Helvetica,sans-Serif" font-size="10.00">Display/Button.hpp</text>
</a>
</g>
</g>
<!-- Node1&#45;&gt;Node2 -->
<g id="edge1" class="edge"><title>Node1&#45;&gt;Node2</title>
<path fill="none" stroke="midnightblue" d="M694.368,-280.399C725.99,-270.118 768.333,-256.351 798.071,-246.682"/>
<polygon fill="midnightblue" stroke="midnightblue" points="799.211,-249.992 807.639,-243.571 797.047,-243.335 799.211,-249.992"/>
</g>
<!-- Node9 -->
<g id="node9" class="node"><title>Node9</title>
<g id="a_node9"><a xlink:href="BackEntity_8hpp.html" target="_top" xlink:title="BackEntity.hpp">
<polygon fill="none" stroke="black" points="398,-224.5 398,-243.5 484,-243.5 484,-224.5 398,-224.5"/>
<text text-anchor="middle" x="441" y="-231.5" font-family="Helvetica,sans-Serif" font-size="10.00">BackEntity.hpp</text>
</a>
</g>
</g>
<!-- Node1&#45;&gt;Node9 -->
<g id="edge11" class="edge"><title>Node1&#45;&gt;Node9</title>
<path fill="none" stroke="midnightblue" d="M601.499,-280.475C564.637,-270.03 514.968,-255.958 480.695,-246.247"/>
<polygon fill="midnightblue" stroke="midnightblue" points="481.598,-242.865 471.022,-243.506 479.69,-249.6 481.598,-242.865"/>
</g>
<!-- Node19 -->
<g id="node19" class="node"><title>Node19</title>
<g id="a_node19"><a xlink:href="Position_8hpp.html" target="_top" xlink:title="Position.hpp">
<polygon fill="none" stroke="black" points="655.5,-224.5 655.5,-243.5 730.5,-243.5 730.5,-224.5 655.5,-224.5"/>
<text text-anchor="middle" x="693" y="-231.5" font-family="Helvetica,sans-Serif" font-size="10.00">Position.hpp</text>
</a>
</g>
</g>
<!-- Node1&#45;&gt;Node19 -->
<g id="edge29" class="edge"><title>Node1&#45;&gt;Node19</title>
<path fill="none" stroke="midnightblue" d="M660.953,-280.399C666.994,-271.842 674.738,-260.871 681.101,-251.857"/>
<polygon fill="midnightblue" stroke="midnightblue" points="683.981,-253.846 686.889,-243.658 678.262,-249.809 683.981,-253.846"/>
</g>
<!-- Node22 -->
<g id="node22" class="node"><title>Node22</title>
<g id="a_node22"><a xlink:href="Text_8hpp.html" target="_top" xlink:title="Text.hpp">
<polygon fill="none" stroke="black" points="582,-224.5 582,-243.5 638,-243.5 638,-224.5 582,-224.5"/>
<text text-anchor="middle" x="610" y="-231.5" font-family="Helvetica,sans-Serif" font-size="10.00">Text.hpp</text>
</a>
</g>
</g>
<!-- Node1&#45;&gt;Node22 -->
<g id="edge33" class="edge"><title>Node1&#45;&gt;Node22</title>
<path fill="none" stroke="midnightblue" d="M641.284,-280.399C635.449,-271.932 627.984,-261.099 621.81,-252.139"/>
<polygon fill="midnightblue" stroke="midnightblue" points="624.522,-249.906 615.966,-243.658 618.758,-253.878 624.522,-249.906"/>
</g>
<!-- Node3 -->
<g id="node3" class="node"><title>Node3</title>
<polygon fill="none" stroke="#bfbfbf" points="835.5,-0.5 835.5,-19.5 898.5,-19.5 898.5,-0.5 835.5,-0.5"/>
<text text-anchor="middle" x="867" y="-7.5" font-family="Helvetica,sans-Serif" font-size="10.00">typeindex</text>
</g>
<!-- Node2&#45;&gt;Node3 -->
<g id="edge2" class="edge"><title>Node2&#45;&gt;Node3</title>
<path fill="none" stroke="midnightblue" d="M874.012,-224.343C893.801,-217.843 915.97,-206.723 928,-188 959.77,-138.552 948.851,-107.206 920,-56 913.056,-43.6762 901.364,-33.2056 890.725,-25.4739"/>
<polygon fill="midnightblue" stroke="midnightblue" points="892.399,-22.3794 882.164,-19.6429 888.459,-28.165 892.399,-22.3794"/>
</g>
<!-- Node4 -->
<g id="node4" class="node"><title>Node4</title>
<g id="a_node4"><a xlink:href="IUserInterface_8hpp.html" target="_top" xlink:title="IUserInterface.hpp">
<polygon fill="none" stroke="black" points="815,-168.5 815,-187.5 919,-187.5 919,-168.5 815,-168.5"/>
<text text-anchor="middle" x="867" y="-175.5" font-family="Helvetica,sans-Serif" font-size="10.00">IUserInterface.hpp</text>
</a>
</g>
</g>
<!-- Node2&#45;&gt;Node4 -->
<g id="edge3" class="edge"><title>Node2&#45;&gt;Node4</title>
<path fill="none" stroke="midnightblue" d="M839.449,-224.083C844.014,-216.613 850.668,-205.724 856.293,-196.52"/>
<polygon fill="midnightblue" stroke="midnightblue" points="859.424,-198.109 861.652,-187.751 853.451,-194.459 859.424,-198.109"/>
</g>
<!-- Node7 -->
<g id="node7" class="node"><title>Node7</title>
<g id="a_node7"><a xlink:href="SystemResponse_8hpp.html" target="_top" xlink:title="SystemResponse.hpp">
<polygon fill="none" stroke="black" points="600,-112.5 600,-131.5 720,-131.5 720,-112.5 600,-112.5"/>
<text text-anchor="middle" x="660" y="-119.5" font-family="Helvetica,sans-Serif" font-size="10.00">SystemResponse.hpp</text>
</a>
</g>
</g>
<!-- Node2&#45;&gt;Node7 -->
<g id="edge9" class="edge"><title>Node2&#45;&gt;Node7</title>
<path fill="none" stroke="midnightblue" d="M827.124,-224.352C815.961,-210.788 792.65,-184.372 768,-168 746.43,-153.674 719.563,-142.457 698.021,-134.805"/>
<polygon fill="midnightblue" stroke="midnightblue" points="699.132,-131.486 688.537,-131.542 696.854,-138.105 699.132,-131.486"/>
</g>
<!-- Node4&#45;&gt;Node3 -->
<g id="edge4" class="edge"><title>Node4&#45;&gt;Node3</title>
<path fill="none" stroke="midnightblue" d="M880.064,-168.436C890.914,-160.471 905.573,-147.515 912,-132 927.287,-95.0946 899.476,-50.927 881.168,-27.4978"/>
<polygon fill="midnightblue" stroke="midnightblue" points="883.756,-25.1336 874.726,-19.5921 878.33,-29.5554 883.756,-25.1336"/>
</g>
<!-- Node5 -->
<g id="node5" class="node"><title>Node5</title>
<g id="a_node5"><a xlink:href="IDisplay_8hpp.html" target="_top" xlink:title="IDisplay.hpp">
<polygon fill="none" stroke="black" points="830.5,-112.5 830.5,-131.5 903.5,-131.5 903.5,-112.5 830.5,-112.5"/>
<text text-anchor="middle" x="867" y="-119.5" font-family="Helvetica,sans-Serif" font-size="10.00">IDisplay.hpp</text>
</a>
</g>
</g>
<!-- Node4&#45;&gt;Node5 -->
<g id="edge5" class="edge"><title>Node4&#45;&gt;Node5</title>
<path fill="none" stroke="midnightblue" d="M867,-168.083C867,-161.006 867,-150.861 867,-141.986"/>
<polygon fill="midnightblue" stroke="midnightblue" points="870.5,-141.751 867,-131.751 863.5,-141.751 870.5,-141.751"/>
</g>
<!-- Node5&#45;&gt;Node3 -->
<g id="edge6" class="edge"><title>Node5&#45;&gt;Node3</title>
<path fill="none" stroke="midnightblue" d="M867,-112.368C867,-94.617 867,-53.6664 867,-29.5974"/>
<polygon fill="midnightblue" stroke="midnightblue" points="870.5,-29.5914 867,-19.5914 863.5,-29.5915 870.5,-29.5914"/>
</g>
<!-- Node6 -->
<g id="node6" class="node"><title>Node6</title>
<g id="a_node6"><a xlink:href="IComponent_8hpp.html" target="_top" xlink:title="IComponent.hpp">
<polygon fill="none" stroke="black" points="735,-56.5 735,-75.5 831,-75.5 831,-56.5 735,-56.5"/>
<text text-anchor="middle" x="783" y="-63.5" font-family="Helvetica,sans-Serif" font-size="10.00">IComponent.hpp</text>
</a>
</g>
</g>
<!-- Node5&#45;&gt;Node6 -->
<g id="edge7" class="edge"><title>Node5&#45;&gt;Node6</title>
<path fill="none" stroke="midnightblue" d="M853.504,-112.324C840.4,-103.9 820.288,-90.9709 804.893,-81.0741"/>
<polygon fill="midnightblue" stroke="midnightblue" points="806.767,-78.118 796.463,-75.6545 802.982,-84.0063 806.767,-78.118"/>
</g>
<!-- Node6&#45;&gt;Node3 -->
<g id="edge8" class="edge"><title>Node6&#45;&gt;Node3</title>
<path fill="none" stroke="midnightblue" d="M796.496,-56.324C809.6,-47.9002 829.712,-34.9709 845.107,-25.0741"/>
<polygon fill="midnightblue" stroke="midnightblue" points="847.018,-28.0063 853.537,-19.6545 843.233,-22.118 847.018,-28.0063"/>
</g>
<!-- Node8 -->
<g id="node8" class="node"><title>Node8</title>
<polygon fill="none" stroke="#bfbfbf" points="452,-0.5 452,-19.5 496,-19.5 496,-0.5 452,-0.5"/>
<text text-anchor="middle" x="474" y="-7.5" font-family="Helvetica,sans-Serif" font-size="10.00">string</text>
</g>
<!-- Node7&#45;&gt;Node8 -->
<g id="edge10" class="edge"><title>Node7&#45;&gt;Node8</title>
<path fill="none" stroke="midnightblue" d="M645.405,-112.368C613.351,-93.4121 536.565,-48.0006 497.575,-24.9424"/>
<polygon fill="midnightblue" stroke="midnightblue" points="498.916,-21.6693 488.527,-19.5914 495.353,-27.6945 498.916,-21.6693"/>
</g>
<!-- Node10 -->
<g id="node10" class="node"><title>Node10</title>
<g id="a_node10"><a xlink:href="IEntityConstructor_8hpp.html" target="_top" xlink:title="IEntityConstructor.hpp">
<polygon fill="none" stroke="black" points="249,-168.5 249,-187.5 371,-187.5 371,-168.5 249,-168.5"/>
<text text-anchor="middle" x="310" y="-175.5" font-family="Helvetica,sans-Serif" font-size="10.00">IEntityConstructor.hpp</text>
</a>
</g>
</g>
<!-- Node9&#45;&gt;Node10 -->
<g id="edge12" class="edge"><title>Node9&#45;&gt;Node10</title>
<path fill="none" stroke="midnightblue" d="M420.243,-224.444C398.684,-215.557 364.737,-201.563 340.206,-191.451"/>
<polygon fill="midnightblue" stroke="midnightblue" points="341.239,-188.092 330.66,-187.516 338.572,-194.563 341.239,-188.092"/>
</g>
<!-- Node10&#45;&gt;Node8 -->
<g id="edge14" class="edge"><title>Node10&#45;&gt;Node8</title>
<path fill="none" stroke="midnightblue" d="M365.21,-168.439C389.466,-162.087 416.564,-151.07 435,-132 462.395,-103.664 470.548,-55.9833 472.973,-29.7337"/>
<polygon fill="midnightblue" stroke="midnightblue" points="476.474,-29.8503 473.718,-19.6203 469.493,-29.3364 476.474,-29.8503"/>
</g>
<!-- Node11 -->
<g id="node11" class="node"><title>Node11</title>
<polygon fill="none" stroke="#bfbfbf" points="193.5,-56.5 193.5,-75.5 250.5,-75.5 250.5,-56.5 193.5,-56.5"/>
<text text-anchor="middle" x="222" y="-63.5" font-family="Helvetica,sans-Serif" font-size="10.00">memory</text>
</g>
<!-- Node10&#45;&gt;Node11 -->
<g id="edge13" class="edge"><title>Node10&#45;&gt;Node11</title>
<path fill="none" stroke="midnightblue" d="M303.095,-168.368C288.508,-150.135 254.341,-107.426 235.34,-83.6752"/>
<polygon fill="midnightblue" stroke="midnightblue" points="237.853,-81.2137 228.873,-75.5914 232.387,-85.5866 237.853,-81.2137"/>
</g>
<!-- Node12 -->
<g id="node12" class="node"><title>Node12</title>
<g id="a_node12"><a xlink:href="Entity_8hpp.html" target="_top" xlink:title="Entity.hpp">
<polygon fill="none" stroke="black" points="268.5,-56.5 268.5,-75.5 331.5,-75.5 331.5,-56.5 268.5,-56.5"/>
<text text-anchor="middle" x="300" y="-63.5" font-family="Helvetica,sans-Serif" font-size="10.00">Entity.hpp</text>
</a>
</g>
</g>
<!-- Node10&#45;&gt;Node12 -->
<g id="edge15" class="edge"><title>Node10&#45;&gt;Node12</title>
<path fill="none" stroke="midnightblue" d="M301.786,-168.182C294.456,-159.663 284.245,-146.019 280,-132 275.147,-115.971 281.812,-97.7498 288.721,-84.6863"/>
<polygon fill="midnightblue" stroke="midnightblue" points="291.872,-86.2294 293.865,-75.8237 285.818,-82.7153 291.872,-86.2294"/>
</g>
<!-- Node13 -->
<g id="node13" class="node"><title>Node13</title>
<g id="a_node13"><a xlink:href="IEntityManager_8hpp.html" target="_top" xlink:title="IEntityManager.hpp">
<polygon fill="none" stroke="black" points="87,-112.5 87,-131.5 195,-131.5 195,-112.5 87,-112.5"/>
<text text-anchor="middle" x="141" y="-119.5" font-family="Helvetica,sans-Serif" font-size="10.00">IEntityManager.hpp</text>
</a>
</g>
</g>
<!-- Node10&#45;&gt;Node13 -->
<g id="edge16" class="edge"><title>Node10&#45;&gt;Node13</title>
<path fill="none" stroke="midnightblue" d="M283.221,-168.444C254.667,-159.32 209.267,-144.813 177.463,-134.651"/>
<polygon fill="midnightblue" stroke="midnightblue" points="178.244,-131.226 167.653,-131.516 176.114,-137.894 178.244,-131.226"/>
</g>
<!-- Node18 -->
<g id="node18" class="node"><title>Node18</title>
<g id="a_node18"><a xlink:href="IComponentManager_8hpp.html" target="_top" xlink:title="IComponentManager.hpp">
<polygon fill="none" stroke="black" points="289.5,-112.5 289.5,-131.5 426.5,-131.5 426.5,-112.5 289.5,-112.5"/>
<text text-anchor="middle" x="358" y="-119.5" font-family="Helvetica,sans-Serif" font-size="10.00">IComponentManager.hpp</text>
</a>
</g>
</g>
<!-- Node10&#45;&gt;Node18 -->
<g id="edge24" class="edge"><title>Node10&#45;&gt;Node18</title>
<path fill="none" stroke="midnightblue" d="M317.926,-168.083C324.846,-160.298 335.065,-148.801 343.452,-139.367"/>
<polygon fill="midnightblue" stroke="midnightblue" points="346.194,-141.55 350.221,-131.751 340.962,-136.9 346.194,-141.55"/>
</g>
<!-- Node13&#45;&gt;Node11 -->
<g id="edge17" class="edge"><title>Node13&#45;&gt;Node11</title>
<path fill="none" stroke="midnightblue" d="M154.014,-112.324C166.532,-103.979 185.682,-91.2122 200.471,-81.3524"/>
<polygon fill="midnightblue" stroke="midnightblue" points="202.639,-84.1137 209.018,-75.6545 198.756,-78.2894 202.639,-84.1137"/>
</g>
<!-- Node13&#45;&gt;Node12 -->
<g id="edge19" class="edge"><title>Node13&#45;&gt;Node12</title>
<path fill="none" stroke="midnightblue" d="M166.194,-112.444C192.943,-103.359 235.403,-88.9388 265.305,-78.7831"/>
<polygon fill="midnightblue" stroke="midnightblue" points="266.581,-82.0464 274.924,-75.5164 264.329,-75.4182 266.581,-82.0464"/>
</g>
<!-- Node14 -->
<g id="node14" class="node"><title>Node14</title>
<polygon fill="none" stroke="#bfbfbf" points="128.5,-56.5 128.5,-75.5 175.5,-75.5 175.5,-56.5 128.5,-56.5"/>
<text text-anchor="middle" x="152" y="-63.5" font-family="Helvetica,sans-Serif" font-size="10.00">vector</text>
</g>
<!-- Node13&#45;&gt;Node14 -->
<g id="edge18" class="edge"><title>Node13&#45;&gt;Node14</title>
<path fill="none" stroke="midnightblue" d="M142.816,-112.083C144.274,-104.927 146.371,-94.6353 148.193,-85.6911"/>
<polygon fill="midnightblue" stroke="midnightblue" points="151.651,-86.2485 150.217,-75.7511 144.792,-84.8512 151.651,-86.2485"/>
</g>
<!-- Node15 -->
<g id="node15" class="node"><title>Node15</title>
<g id="a_node15"><a xlink:href="PacketManager_8hpp.html" target="_top" xlink:title="PacketManager.hpp">
<polygon fill="none" stroke="black" points="0,-56.5 0,-75.5 110,-75.5 110,-56.5 0,-56.5"/>
<text text-anchor="middle" x="55" y="-63.5" font-family="Helvetica,sans-Serif" font-size="10.00">PacketManager.hpp</text>
</a>
</g>
</g>
<!-- Node13&#45;&gt;Node15 -->
<g id="edge20" class="edge"><title>Node13&#45;&gt;Node15</title>
<path fill="none" stroke="midnightblue" d="M127.183,-112.324C113.767,-103.9 93.1759,-90.9709 77.4144,-81.0741"/>
<polygon fill="midnightblue" stroke="midnightblue" points="79.1132,-78.0081 68.7831,-75.6545 75.3908,-83.9364 79.1132,-78.0081"/>
</g>
<!-- Node15&#45;&gt;Node8 -->
<g id="edge21" class="edge"><title>Node15&#45;&gt;Node8</title>
<path fill="none" stroke="midnightblue" d="M110.151,-57.1957C113.144,-56.7874 116.108,-56.3866 119,-56 238.039,-40.0861 379.73,-22.5459 441.982,-14.9104"/>
<polygon fill="midnightblue" stroke="midnightblue" points="442.468,-18.377 451.968,-13.6868 441.617,-11.429 442.468,-18.377"/>
</g>
<!-- Node16 -->
<g id="node16" class="node"><title>Node16</title>
<polygon fill="none" stroke="#bfbfbf" points="234,-0.5 234,-19.5 264,-19.5 264,-0.5 234,-0.5"/>
<text text-anchor="middle" x="249" y="-7.5" font-family="Helvetica,sans-Serif" font-size="10.00">list</text>
</g>
<!-- Node15&#45;&gt;Node16 -->
<g id="edge22" class="edge"><title>Node15&#45;&gt;Node16</title>
<path fill="none" stroke="midnightblue" d="M85.7399,-56.4435C123.889,-45.8247 188.23,-27.9153 223.678,-18.0485"/>
<polygon fill="midnightblue" stroke="midnightblue" points="224.995,-21.315 233.69,-15.2616 223.117,-14.5714 224.995,-21.315"/>
</g>
<!-- Node17 -->
<g id="node17" class="node"><title>Node17</title>
<g id="a_node17"><a xlink:href="Input_8hpp.html" target="_top" xlink:title="Render/Input.hpp">
<polygon fill="none" stroke="black" points="6,-0.5 6,-19.5 104,-19.5 104,-0.5 6,-0.5"/>
<text text-anchor="middle" x="55" y="-7.5" font-family="Helvetica,sans-Serif" font-size="10.00">Render/Input.hpp</text>
</a>
</g>
</g>
<!-- Node15&#45;&gt;Node17 -->
<g id="edge23" class="edge"><title>Node15&#45;&gt;Node17</title>
<path fill="none" stroke="midnightblue" d="M55,-56.083C55,-49.0059 55,-38.8611 55,-29.9865"/>
<polygon fill="midnightblue" stroke="midnightblue" points="58.5001,-29.751 55,-19.7511 51.5001,-29.7511 58.5001,-29.751"/>
</g>
<!-- Node18&#45;&gt;Node6 -->
<g id="edge27" class="edge"><title>Node18&#45;&gt;Node6</title>
<path fill="none" stroke="midnightblue" d="M425.343,-112.444C507.887,-101.955 646.408,-84.3553 724.628,-74.4166"/>
<polygon fill="midnightblue" stroke="midnightblue" points="725.31,-77.8582 734.789,-73.1256 724.428,-70.9141 725.31,-77.8582"/>
</g>
<!-- Node18&#45;&gt;Node11 -->
<g id="edge26" class="edge"><title>Node18&#45;&gt;Node11</title>
<path fill="none" stroke="midnightblue" d="M336.45,-112.444C313.969,-103.517 278.512,-89.4387 253.02,-79.3168"/>
<polygon fill="midnightblue" stroke="midnightblue" points="254.035,-75.9539 243.449,-75.5164 251.451,-82.4598 254.035,-75.9539"/>
</g>
<!-- Node18&#45;&gt;Node12 -->
<g id="edge28" class="edge"><title>Node18&#45;&gt;Node12</title>
<path fill="none" stroke="midnightblue" d="M348.681,-112.324C340.107,-104.341 327.188,-92.3128 316.812,-82.6529"/>
<polygon fill="midnightblue" stroke="midnightblue" points="319.192,-80.0865 309.488,-75.8339 314.422,-85.2098 319.192,-80.0865"/>
</g>
<!-- Node18&#45;&gt;Node16 -->
<g id="edge25" class="edge"><title>Node18&#45;&gt;Node16</title>
<path fill="none" stroke="midnightblue" d="M357.787,-112.408C357.021,-98.9194 353.729,-72.605 340,-56 323.091,-35.5485 294.595,-23.5878 273.989,-17.2047"/>
<polygon fill="midnightblue" stroke="midnightblue" points="274.893,-13.8228 264.315,-14.4331 272.964,-20.552 274.893,-13.8228"/>
</g>
<!-- Node20 -->
<g id="node20" class="node"><title>Node20</title>
<polygon fill="none" stroke="#bfbfbf" points="717,-168.5 717,-187.5 759,-187.5 759,-168.5 717,-168.5"/>
<text text-anchor="middle" x="738" y="-175.5" font-family="Helvetica,sans-Serif" font-size="10.00">utility</text>
</g>
<!-- Node19&#45;&gt;Node20 -->
<g id="edge30" class="edge"><title>Node19&#45;&gt;Node20</title>
<path fill="none" stroke="midnightblue" d="M700.431,-224.083C706.853,-216.377 716.306,-205.033 724.122,-195.653"/>
<polygon fill="midnightblue" stroke="midnightblue" points="726.994,-197.674 730.707,-187.751 721.617,-193.193 726.994,-197.674"/>
</g>
<!-- Node21 -->
<g id="node21" class="node"><title>Node21</title>
<g id="a_node21"><a xlink:href="IPhysics_8hpp.html" target="_top" xlink:title="IPhysics.hpp">
<polygon fill="none" stroke="black" points="737.5,-112.5 737.5,-131.5 812.5,-131.5 812.5,-112.5 737.5,-112.5"/>
<text text-anchor="middle" x="775" y="-119.5" font-family="Helvetica,sans-Serif" font-size="10.00">IPhysics.hpp</text>
</a>
</g>
</g>
<!-- Node19&#45;&gt;Node21 -->
<g id="edge31" class="edge"><title>Node19&#45;&gt;Node21</title>
<path fill="none" stroke="midnightblue" d="M693.039,-224.198C693.507,-210.889 696.045,-185.36 708,-168 717.363,-154.404 732.298,-143.792 745.694,-136.296"/>
<polygon fill="midnightblue" stroke="midnightblue" points="747.404,-139.351 754.634,-131.606 744.153,-133.152 747.404,-139.351"/>
</g>
<!-- Node21&#45;&gt;Node6 -->
<g id="edge32" class="edge"><title>Node21&#45;&gt;Node6</title>
<path fill="none" stroke="midnightblue" d="M776.321,-112.083C777.381,-104.927 778.906,-94.6353 780.231,-85.6911"/>
<polygon fill="midnightblue" stroke="midnightblue" points="783.7,-86.1561 781.704,-75.7511 776.776,-85.1302 783.7,-86.1561"/>
</g>
<!-- Node22&#45;&gt;Node3 -->
<g id="edge34" class="edge"><title>Node22&#45;&gt;Node3</title>
<path fill="none" stroke="midnightblue" d="M607.954,-224.336C601.879,-198.202 584.741,-121.372 591,-112 642.94,-34.2232 761.995,-16.0445 825.429,-11.9922"/>
<polygon fill="midnightblue" stroke="midnightblue" points="825.692,-15.4831 835.485,-11.4389 825.307,-8.49367 825.692,-15.4831"/>
</g>
<!-- Node22&#45;&gt;Node4 -->
<g id="edge37" class="edge"><title>Node22&#45;&gt;Node4</title>
<path fill="none" stroke="midnightblue" d="M638.27,-225.807C640.88,-225.181 643.487,-224.57 646,-224 702.329,-211.231 767.119,-198.236 811.918,-189.516"/>
<polygon fill="midnightblue" stroke="midnightblue" points="812.859,-192.898 822.009,-187.558 811.525,-186.027 812.859,-192.898"/>
</g>
<!-- Node22&#45;&gt;Node8 -->
<g id="edge35" class="edge"><title>Node22&#45;&gt;Node8</title>
<path fill="none" stroke="midnightblue" d="M581.646,-227.272C559.38,-221.279 529.334,-209.616 512,-188 492.452,-163.623 480.345,-70.3316 475.914,-29.8863"/>
<polygon fill="midnightblue" stroke="midnightblue" points="479.377,-29.3528 474.847,-19.7755 472.416,-30.0876 479.377,-29.3528"/>
</g>
<!-- Node23 -->
<g id="node23" class="node"><title>Node23</title>
<g id="a_node23"><a xlink:href="Color_8hpp.html" target="_top" xlink:title="Color.hpp">
<polygon fill="none" stroke="black" points="521,-168.5 521,-187.5 583,-187.5 583,-168.5 521,-168.5"/>
<text text-anchor="middle" x="552" y="-175.5" font-family="Helvetica,sans-Serif" font-size="10.00">Color.hpp</text>
</a>
</g>
</g>
<!-- Node22&#45;&gt;Node23 -->
<g id="edge36" class="edge"><title>Node22&#45;&gt;Node23</title>
<path fill="none" stroke="midnightblue" d="M600.681,-224.324C592.107,-216.341 579.188,-204.313 568.812,-194.653"/>
<polygon fill="midnightblue" stroke="midnightblue" points="571.192,-192.086 561.488,-187.834 566.422,-197.21 571.192,-192.086"/>
</g>
</g>
</svg>
