<?xml version="1.0" encoding="UTF-8" standalone="no"?>
<!DOCTYPE svg PUBLIC "-//W3C//DTD SVG 1.1//EN"
 "http://www.w3.org/Graphics/SVG/1.1/DTD/svg11.dtd">
<!-- Generated by graphviz version 2.38.0 (20140413.2041)
 -->
<!-- Title: src/Entities/EntityConstructor/BackgroundWithoutTitleEntity/BackgroundWithoutTitleEntity.cpp Pages: 1 -->
<svg width="786pt" height="330pt"
 viewBox="0.00 0.00 786.43 330.00" xmlns="http://www.w3.org/2000/svg" xmlns:xlink="http://www.w3.org/1999/xlink">
<g id="graph0" class="graph" transform="scale(1 1) rotate(0) translate(4 326)">
<title>src/Entities/EntityConstructor/BackgroundWithoutTitleEntity/BackgroundWithoutTitleEntity.cpp</title>
<!-- Node1 -->
<g id="node1" class="node"><title>Node1</title>
<polygon fill="#bfbfbf" stroke="black" points="470,-280.5 470,-321.5 648,-321.5 648,-280.5 470,-280.5"/>
<text text-anchor="start" x="478" y="-309.5" font-family="Helvetica,sans-Serif" font-size="10.00">src/Entities/EntityConstructor</text>
<text text-anchor="start" x="478" y="-298.5" font-family="Helvetica,sans-Serif" font-size="10.00">/BackgroundWithoutTitleEntity</text>
<text text-anchor="middle" x="559" y="-287.5" font-family="Helvetica,sans-Serif" font-size="10.00">/BackgroundWithoutTitleEntity.cpp</text>
</g>
<!-- Node2 -->
<g id="node2" class="node"><title>Node2</title>
<g id="a_node2"><a xlink:href="BackgroundWithoutTitleEntity_8hpp.html" target="_top" xlink:title="BackgroundWithoutTitleEntity.hpp">
<polygon fill="none" stroke="black" points="215,-224.5 215,-243.5 391,-243.5 391,-224.5 215,-224.5"/>
<text text-anchor="middle" x="303" y="-231.5" font-family="Helvetica,sans-Serif" font-size="10.00">BackgroundWithoutTitleEntity.hpp</text>
</a>
</g>
</g>
<!-- Node1&#45;&gt;Node2 -->
<g id="edge1" class="edge"><title>Node1&#45;&gt;Node2</title>
<path fill="none" stroke="midnightblue" d="M482.192,-280.498C437.901,-269.252 383.82,-255.521 346.73,-246.103"/>
<polygon fill="midnightblue" stroke="midnightblue" points="347.295,-242.636 336.741,-243.567 345.572,-249.42 347.295,-242.636"/>
</g>
<!-- Node15 -->
<g id="node15" class="node"><title>Node15</title>
<g id="a_node15"><a xlink:href="Position_8hpp.html" target="_top" xlink:title="Position.hpp">
<polygon fill="none" stroke="black" points="521.5,-224.5 521.5,-243.5 596.5,-243.5 596.5,-224.5 521.5,-224.5"/>
<text text-anchor="middle" x="559" y="-231.5" font-family="Helvetica,sans-Serif" font-size="10.00">Position.hpp</text>
</a>
</g>
</g>
<!-- Node1&#45;&gt;Node15 -->
<g id="edge20" class="edge"><title>Node1&#45;&gt;Node15</title>
<path fill="none" stroke="midnightblue" d="M559,-280.498C559,-272.065 559,-262.235 559,-253.874"/>
<polygon fill="midnightblue" stroke="midnightblue" points="562.5,-253.652 559,-243.652 555.5,-253.653 562.5,-253.652"/>
</g>
<!-- Node18 -->
<g id="node18" class="node"><title>Node18</title>
<g id="a_node18"><a xlink:href="Sprite_8hpp.html" target="_top" xlink:title="Sprite.hpp">
<polygon fill="none" stroke="black" points="690,-168.5 690,-187.5 756,-187.5 756,-168.5 690,-168.5"/>
<text text-anchor="middle" x="723" y="-175.5" font-family="Helvetica,sans-Serif" font-size="10.00">Sprite.hpp</text>
</a>
</g>
</g>
<!-- Node1&#45;&gt;Node18 -->
<g id="edge24" class="edge"><title>Node1&#45;&gt;Node18</title>
<path fill="none" stroke="midnightblue" d="M636.423,-280.466C657.801,-272.068 679.602,-260.306 696,-244 708.705,-231.367 715.714,-211.882 719.383,-197.538"/>
<polygon fill="midnightblue" stroke="midnightblue" points="722.801,-198.295 721.578,-187.771 715.971,-196.76 722.801,-198.295"/>
</g>
<!-- Node21 -->
<g id="node21" class="node"><title>Node21</title>
<g id="a_node21"><a xlink:href="Velocity_8hpp.html" target="_top" xlink:title="Velocity.hpp">
<polygon fill="none" stroke="black" points="614.5,-224.5 614.5,-243.5 687.5,-243.5 687.5,-224.5 614.5,-224.5"/>
<text text-anchor="middle" x="651" y="-231.5" font-family="Helvetica,sans-Serif" font-size="10.00">Velocity.hpp</text>
</a>
</g>
</g>
<!-- Node1&#45;&gt;Node21 -->
<g id="edge31" class="edge"><title>Node1&#45;&gt;Node21</title>
<path fill="none" stroke="midnightblue" d="M586.603,-280.498C600.708,-270.532 617.577,-258.614 630.51,-249.476"/>
<polygon fill="midnightblue" stroke="midnightblue" points="632.606,-252.281 638.753,-243.652 628.567,-246.564 632.606,-252.281"/>
</g>
<!-- Node23 -->
<g id="node23" class="node"><title>Node23</title>
<g id="a_node23"><a xlink:href="Rotation_8hpp.html" target="_top" xlink:title="Rotation.hpp">
<polygon fill="none" stroke="black" points="426.5,-224.5 426.5,-243.5 503.5,-243.5 503.5,-224.5 426.5,-224.5"/>
<text text-anchor="middle" x="465" y="-231.5" font-family="Helvetica,sans-Serif" font-size="10.00">Rotation.hpp</text>
</a>
</g>
</g>
<!-- Node1&#45;&gt;Node23 -->
<g id="edge34" class="edge"><title>Node1&#45;&gt;Node23</title>
<path fill="none" stroke="midnightblue" d="M530.797,-280.498C516.385,-270.532 499.15,-258.614 485.935,-249.476"/>
<polygon fill="midnightblue" stroke="midnightblue" points="487.729,-246.461 477.513,-243.652 483.747,-252.219 487.729,-246.461"/>
</g>
<!-- Node3 -->
<g id="node3" class="node"><title>Node3</title>
<g id="a_node3"><a xlink:href="IEntityConstructor_8hpp.html" target="_top" xlink:title="IEntityConstructor.hpp">
<polygon fill="none" stroke="black" points="208,-168.5 208,-187.5 330,-187.5 330,-168.5 208,-168.5"/>
<text text-anchor="middle" x="269" y="-175.5" font-family="Helvetica,sans-Serif" font-size="10.00">IEntityConstructor.hpp</text>
</a>
</g>
</g>
<!-- Node2&#45;&gt;Node3 -->
<g id="edge2" class="edge"><title>Node2&#45;&gt;Node3</title>
<path fill="none" stroke="midnightblue" d="M297.386,-224.083C292.633,-216.534 285.682,-205.495 279.848,-196.23"/>
<polygon fill="midnightblue" stroke="midnightblue" points="282.8,-194.349 274.51,-187.751 276.876,-198.078 282.8,-194.349"/>
</g>
<!-- Node4 -->
<g id="node4" class="node"><title>Node4</title>
<polygon fill="none" stroke="#bfbfbf" points="193.5,-56.5 193.5,-75.5 250.5,-75.5 250.5,-56.5 193.5,-56.5"/>
<text text-anchor="middle" x="222" y="-63.5" font-family="Helvetica,sans-Serif" font-size="10.00">memory</text>
</g>
<!-- Node3&#45;&gt;Node4 -->
<g id="edge3" class="edge"><title>Node3&#45;&gt;Node4</title>
<path fill="none" stroke="midnightblue" d="M265.312,-168.368C257.659,-150.456 239.913,-108.923 229.669,-84.9482"/>
<polygon fill="midnightblue" stroke="midnightblue" points="232.819,-83.412 225.671,-75.5914 226.382,-86.1624 232.819,-83.412"/>
</g>
<!-- Node5 -->
<g id="node5" class="node"><title>Node5</title>
<polygon fill="none" stroke="#bfbfbf" points="433,-0.5 433,-19.5 477,-19.5 477,-0.5 433,-0.5"/>
<text text-anchor="middle" x="455" y="-7.5" font-family="Helvetica,sans-Serif" font-size="10.00">string</text>
</g>
<!-- Node3&#45;&gt;Node5 -->
<g id="edge4" class="edge"><title>Node3&#45;&gt;Node5</title>
<path fill="none" stroke="midnightblue" d="M324.794,-168.483C367.017,-160.871 420.184,-148.392 435,-132 460.495,-103.793 460.154,-56.061 457.615,-29.7689"/>
<polygon fill="midnightblue" stroke="midnightblue" points="461.067,-29.1591 456.42,-19.6379 454.115,-29.979 461.067,-29.1591"/>
</g>
<!-- Node6 -->
<g id="node6" class="node"><title>Node6</title>
<g id="a_node6"><a xlink:href="Entity_8hpp.html" target="_top" xlink:title="Entity.hpp">
<polygon fill="none" stroke="black" points="268.5,-56.5 268.5,-75.5 331.5,-75.5 331.5,-56.5 268.5,-56.5"/>
<text text-anchor="middle" x="300" y="-63.5" font-family="Helvetica,sans-Serif" font-size="10.00">Entity.hpp</text>
</a>
</g>
</g>
<!-- Node3&#45;&gt;Node6 -->
<g id="edge5" class="edge"><title>Node3&#45;&gt;Node6</title>
<path fill="none" stroke="midnightblue" d="M269.76,-168.43C271.03,-155.846 274.051,-131.724 280,-112 282.777,-102.792 286.976,-92.9863 290.81,-84.8868"/>
<polygon fill="midnightblue" stroke="midnightblue" points="294.051,-86.2296 295.338,-75.7133 287.774,-83.1314 294.051,-86.2296"/>
</g>
<!-- Node7 -->
<g id="node7" class="node"><title>Node7</title>
<g id="a_node7"><a xlink:href="IEntityManager_8hpp.html" target="_top" xlink:title="IEntityManager.hpp">
<polygon fill="none" stroke="black" points="87,-112.5 87,-131.5 195,-131.5 195,-112.5 87,-112.5"/>
<text text-anchor="middle" x="141" y="-119.5" font-family="Helvetica,sans-Serif" font-size="10.00">IEntityManager.hpp</text>
</a>
</g>
</g>
<!-- Node3&#45;&gt;Node7 -->
<g id="edge6" class="edge"><title>Node3&#45;&gt;Node7</title>
<path fill="none" stroke="midnightblue" d="M248.718,-168.444C227.653,-159.557 194.483,-145.563 170.514,-135.451"/>
<polygon fill="midnightblue" stroke="midnightblue" points="171.761,-132.179 161.187,-131.516 169.04,-138.628 171.761,-132.179"/>
</g>
<!-- Node12 -->
<g id="node12" class="node"><title>Node12</title>
<g id="a_node12"><a xlink:href="IComponentManager_8hpp.html" target="_top" xlink:title="IComponentManager.hpp">
<polygon fill="none" stroke="black" points="289.5,-112.5 289.5,-131.5 426.5,-131.5 426.5,-112.5 289.5,-112.5"/>
<text text-anchor="middle" x="358" y="-119.5" font-family="Helvetica,sans-Serif" font-size="10.00">IComponentManager.hpp</text>
</a>
</g>
</g>
<!-- Node3&#45;&gt;Node12 -->
<g id="edge14" class="edge"><title>Node3&#45;&gt;Node12</title>
<path fill="none" stroke="midnightblue" d="M283.299,-168.324C297.183,-159.9 318.492,-146.971 334.804,-137.074"/>
<polygon fill="midnightblue" stroke="midnightblue" points="337.002,-139.834 343.736,-131.655 333.371,-133.85 337.002,-139.834"/>
</g>
<!-- Node7&#45;&gt;Node4 -->
<g id="edge7" class="edge"><title>Node7&#45;&gt;Node4</title>
<path fill="none" stroke="midnightblue" d="M154.014,-112.324C166.532,-103.979 185.682,-91.2122 200.471,-81.3524"/>
<polygon fill="midnightblue" stroke="midnightblue" points="202.639,-84.1137 209.018,-75.6545 198.756,-78.2894 202.639,-84.1137"/>
</g>
<!-- Node7&#45;&gt;Node6 -->
<g id="edge9" class="edge"><title>Node7&#45;&gt;Node6</title>
<path fill="none" stroke="midnightblue" d="M166.194,-112.444C192.943,-103.359 235.403,-88.9388 265.305,-78.7831"/>
<polygon fill="midnightblue" stroke="midnightblue" points="266.581,-82.0464 274.924,-75.5164 264.329,-75.4182 266.581,-82.0464"/>
</g>
<!-- Node8 -->
<g id="node8" class="node"><title>Node8</title>
<polygon fill="none" stroke="#bfbfbf" points="128.5,-56.5 128.5,-75.5 175.5,-75.5 175.5,-56.5 128.5,-56.5"/>
<text text-anchor="middle" x="152" y="-63.5" font-family="Helvetica,sans-Serif" font-size="10.00">vector</text>
</g>
<!-- Node7&#45;&gt;Node8 -->
<g id="edge8" class="edge"><title>Node7&#45;&gt;Node8</title>
<path fill="none" stroke="midnightblue" d="M142.816,-112.083C144.274,-104.927 146.371,-94.6353 148.193,-85.6911"/>
<polygon fill="midnightblue" stroke="midnightblue" points="151.651,-86.2485 150.217,-75.7511 144.792,-84.8512 151.651,-86.2485"/>
</g>
<!-- Node9 -->
<g id="node9" class="node"><title>Node9</title>
<g id="a_node9"><a xlink:href="PacketManager_8hpp.html" target="_top" xlink:title="PacketManager.hpp">
<polygon fill="none" stroke="black" points="0,-56.5 0,-75.5 110,-75.5 110,-56.5 0,-56.5"/>
<text text-anchor="middle" x="55" y="-63.5" font-family="Helvetica,sans-Serif" font-size="10.00">PacketManager.hpp</text>
</a>
</g>
</g>
<!-- Node7&#45;&gt;Node9 -->
<g id="edge10" class="edge"><title>Node7&#45;&gt;Node9</title>
<path fill="none" stroke="midnightblue" d="M127.183,-112.324C113.767,-103.9 93.1759,-90.9709 77.4144,-81.0741"/>
<polygon fill="midnightblue" stroke="midnightblue" points="79.1132,-78.0081 68.7831,-75.6545 75.3908,-83.9364 79.1132,-78.0081"/>
</g>
<!-- Node9&#45;&gt;Node5 -->
<g id="edge11" class="edge"><title>Node9&#45;&gt;Node5</title>
<path fill="none" stroke="midnightblue" d="M110.155,-57.2204C113.147,-56.8058 116.11,-56.3968 119,-56 230.66,-40.6719 363.285,-23.095 423.026,-15.2111"/>
<polygon fill="midnightblue" stroke="midnightblue" points="423.522,-18.6761 432.978,-13.8984 422.606,-11.7362 423.522,-18.6761"/>
</g>
<!-- Node10 -->
<g id="node10" class="node"><title>Node10</title>
<polygon fill="none" stroke="#bfbfbf" points="234,-0.5 234,-19.5 264,-19.5 264,-0.5 234,-0.5"/>
<text text-anchor="middle" x="249" y="-7.5" font-family="Helvetica,sans-Serif" font-size="10.00">list</text>
</g>
<!-- Node9&#45;&gt;Node10 -->
<g id="edge12" class="edge"><title>Node9&#45;&gt;Node10</title>
<path fill="none" stroke="midnightblue" d="M85.7399,-56.4435C123.889,-45.8247 188.23,-27.9153 223.678,-18.0485"/>
<polygon fill="midnightblue" stroke="midnightblue" points="224.995,-21.315 233.69,-15.2616 223.117,-14.5714 224.995,-21.315"/>
</g>
<!-- Node11 -->
<g id="node11" class="node"><title>Node11</title>
<g id="a_node11"><a xlink:href="Input_8hpp.html" target="_top" xlink:title="Render/Input.hpp">
<polygon fill="none" stroke="black" points="6,-0.5 6,-19.5 104,-19.5 104,-0.5 6,-0.5"/>
<text text-anchor="middle" x="55" y="-7.5" font-family="Helvetica,sans-Serif" font-size="10.00">Render/Input.hpp</text>
</a>
</g>
</g>
<!-- Node9&#45;&gt;Node11 -->
<g id="edge13" class="edge"><title>Node9&#45;&gt;Node11</title>
<path fill="none" stroke="midnightblue" d="M55,-56.083C55,-49.0059 55,-38.8611 55,-29.9865"/>
<polygon fill="midnightblue" stroke="midnightblue" points="58.5001,-29.751 55,-19.7511 51.5001,-29.7511 58.5001,-29.751"/>
</g>
<!-- Node12&#45;&gt;Node4 -->
<g id="edge16" class="edge"><title>Node12&#45;&gt;Node4</title>
<path fill="none" stroke="midnightblue" d="M336.45,-112.444C313.969,-103.517 278.512,-89.4387 253.02,-79.3168"/>
<polygon fill="midnightblue" stroke="midnightblue" points="254.035,-75.9539 243.449,-75.5164 251.451,-82.4598 254.035,-75.9539"/>
</g>
<!-- Node12&#45;&gt;Node6 -->
<g id="edge19" class="edge"><title>Node12&#45;&gt;Node6</title>
<path fill="none" stroke="midnightblue" d="M348.681,-112.324C340.107,-104.341 327.188,-92.3128 316.812,-82.6529"/>
<polygon fill="midnightblue" stroke="midnightblue" points="319.192,-80.0865 309.488,-75.8339 314.422,-85.2098 319.192,-80.0865"/>
</g>
<!-- Node12&#45;&gt;Node10 -->
<g id="edge15" class="edge"><title>Node12&#45;&gt;Node10</title>
<path fill="none" stroke="midnightblue" d="M357.787,-112.408C357.021,-98.9194 353.729,-72.605 340,-56 323.091,-35.5485 294.595,-23.5878 273.989,-17.2047"/>
<polygon fill="midnightblue" stroke="midnightblue" points="274.893,-13.8228 264.315,-14.4331 272.964,-20.552 274.893,-13.8228"/>
</g>
<!-- Node13 -->
<g id="node13" class="node"><title>Node13</title>
<g id="a_node13"><a xlink:href="IComponent_8hpp.html" target="_top" xlink:title="IComponent.hpp">
<polygon fill="none" stroke="black" points="615,-56.5 615,-75.5 711,-75.5 711,-56.5 615,-56.5"/>
<text text-anchor="middle" x="663" y="-63.5" font-family="Helvetica,sans-Serif" font-size="10.00">IComponent.hpp</text>
</a>
</g>
</g>
<!-- Node12&#45;&gt;Node13 -->
<g id="edge17" class="edge"><title>Node12&#45;&gt;Node13</title>
<path fill="none" stroke="midnightblue" d="M406.328,-112.444C460.204,-102.905 547.307,-87.4834 604.864,-77.293"/>
<polygon fill="midnightblue" stroke="midnightblue" points="605.661,-80.7063 614.898,-75.5164 604.441,-73.8135 605.661,-80.7063"/>
</g>
<!-- Node14 -->
<g id="node14" class="node"><title>Node14</title>
<polygon fill="none" stroke="#bfbfbf" points="707.5,-0.5 707.5,-19.5 770.5,-19.5 770.5,-0.5 707.5,-0.5"/>
<text text-anchor="middle" x="739" y="-7.5" font-family="Helvetica,sans-Serif" font-size="10.00">typeindex</text>
</g>
<!-- Node13&#45;&gt;Node14 -->
<g id="edge18" class="edge"><title>Node13&#45;&gt;Node14</title>
<path fill="none" stroke="midnightblue" d="M675.211,-56.324C686.776,-48.1066 704.375,-35.6017 718.161,-25.8069"/>
<polygon fill="midnightblue" stroke="midnightblue" points="720.443,-28.4791 726.567,-19.8339 716.388,-22.7729 720.443,-28.4791"/>
</g>
<!-- Node16 -->
<g id="node16" class="node"><title>Node16</title>
<polygon fill="none" stroke="#bfbfbf" points="542,-168.5 542,-187.5 584,-187.5 584,-168.5 542,-168.5"/>
<text text-anchor="middle" x="563" y="-175.5" font-family="Helvetica,sans-Serif" font-size="10.00">utility</text>
</g>
<!-- Node15&#45;&gt;Node16 -->
<g id="edge21" class="edge"><title>Node15&#45;&gt;Node16</title>
<path fill="none" stroke="midnightblue" d="M559.661,-224.083C560.185,-217.006 560.936,-206.861 561.594,-197.986"/>
<polygon fill="midnightblue" stroke="midnightblue" points="565.103,-197.982 562.352,-187.751 558.123,-197.465 565.103,-197.982"/>
</g>
<!-- Node17 -->
<g id="node17" class="node"><title>Node17</title>
<g id="a_node17"><a xlink:href="IPhysics_8hpp.html" target="_top" xlink:title="IPhysics.hpp">
<polygon fill="none" stroke="black" points="483.5,-112.5 483.5,-131.5 558.5,-131.5 558.5,-112.5 483.5,-112.5"/>
<text text-anchor="middle" x="521" y="-119.5" font-family="Helvetica,sans-Serif" font-size="10.00">IPhysics.hpp</text>
</a>
</g>
</g>
<!-- Node15&#45;&gt;Node17 -->
<g id="edge22" class="edge"><title>Node15&#45;&gt;Node17</title>
<path fill="none" stroke="midnightblue" d="M552.88,-224.476C546.902,-215.737 537.994,-201.545 533,-188 527.473,-173.01 524.409,-155.101 522.763,-141.88"/>
<polygon fill="midnightblue" stroke="midnightblue" points="526.213,-141.225 521.656,-131.661 519.253,-141.979 526.213,-141.225"/>
</g>
<!-- Node17&#45;&gt;Node13 -->
<g id="edge23" class="edge"><title>Node17&#45;&gt;Node13</title>
<path fill="none" stroke="midnightblue" d="M543.5,-112.444C567.077,-103.478 604.322,-89.314 630.964,-79.1827"/>
<polygon fill="midnightblue" stroke="midnightblue" points="632.502,-82.3424 640.605,-75.5164 630.014,-75.7995 632.502,-82.3424"/>
</g>
<!-- Node18&#45;&gt;Node5 -->
<g id="edge25" class="edge"><title>Node18&#45;&gt;Node5</title>
<path fill="none" stroke="midnightblue" d="M693.504,-168.452C669.141,-160.745 634.119,-148.151 606,-132 552.145,-101.067 497.324,-51.7071 471.019,-26.6671"/>
<polygon fill="midnightblue" stroke="midnightblue" points="473.437,-24.1359 463.804,-19.7242 468.583,-29.18 473.437,-24.1359"/>
</g>
<!-- Node18&#45;&gt;Node14 -->
<g id="edge26" class="edge"><title>Node18&#45;&gt;Node14</title>
<path fill="none" stroke="midnightblue" d="M737.952,-168.474C749.932,-160.702 765.873,-148.002 773,-132 788.831,-96.4538 766.108,-51.7157 750.862,-27.8403"/>
<polygon fill="midnightblue" stroke="midnightblue" points="753.759,-25.8762 745.294,-19.5055 747.939,-29.7649 753.759,-25.8762"/>
</g>
<!-- Node19 -->
<g id="node19" class="node"><title>Node19</title>
<g id="a_node19"><a xlink:href="Rect_8hpp.html" target="_top" xlink:title="Rect.hpp">
<polygon fill="none" stroke="black" points="615,-112.5 615,-131.5 673,-131.5 673,-112.5 615,-112.5"/>
<text text-anchor="middle" x="644" y="-119.5" font-family="Helvetica,sans-Serif" font-size="10.00">Rect.hpp</text>
</a>
</g>
</g>
<!-- Node18&#45;&gt;Node19 -->
<g id="edge27" class="edge"><title>Node18&#45;&gt;Node19</title>
<path fill="none" stroke="midnightblue" d="M710.307,-168.324C698.099,-159.979 679.422,-147.212 664.997,-137.352"/>
<polygon fill="midnightblue" stroke="midnightblue" points="666.892,-134.408 656.661,-131.655 662.942,-140.187 666.892,-134.408"/>
</g>
<!-- Node20 -->
<g id="node20" class="node"><title>Node20</title>
<g id="a_node20"><a xlink:href="IDisplay_8hpp.html" target="_top" xlink:title="IDisplay.hpp">
<polygon fill="none" stroke="black" points="691.5,-112.5 691.5,-131.5 764.5,-131.5 764.5,-112.5 691.5,-112.5"/>
<text text-anchor="middle" x="728" y="-119.5" font-family="Helvetica,sans-Serif" font-size="10.00">IDisplay.hpp</text>
</a>
</g>
</g>
<!-- Node18&#45;&gt;Node20 -->
<g id="edge28" class="edge"><title>Node18&#45;&gt;Node20</title>
<path fill="none" stroke="midnightblue" d="M723.826,-168.083C724.481,-161.006 725.42,-150.861 726.242,-141.986"/>
<polygon fill="midnightblue" stroke="midnightblue" points="729.753,-142.031 727.19,-131.751 722.783,-141.386 729.753,-142.031"/>
</g>
<!-- Node20&#45;&gt;Node13 -->
<g id="edge30" class="edge"><title>Node20&#45;&gt;Node13</title>
<path fill="none" stroke="midnightblue" d="M717.557,-112.324C707.854,-104.263 693.185,-92.0765 681.5,-82.3695"/>
<polygon fill="midnightblue" stroke="midnightblue" points="683.562,-79.532 673.633,-75.8339 679.089,-84.9163 683.562,-79.532"/>
</g>
<!-- Node20&#45;&gt;Node14 -->
<g id="edge29" class="edge"><title>Node20&#45;&gt;Node14</title>
<path fill="none" stroke="midnightblue" d="M728.863,-112.368C730.638,-94.617 734.733,-53.6664 737.14,-29.5974"/>
<polygon fill="midnightblue" stroke="midnightblue" points="740.628,-29.8901 738.141,-19.5914 733.663,-29.1935 740.628,-29.8901"/>
</g>
<!-- Node22 -->
<g id="node22" class="node"><title>Node22</title>
<g id="a_node22"><a xlink:href="Motion_8hpp.html" target="_top" xlink:title="Motion.hpp">
<polygon fill="none" stroke="black" points="602,-168.5 602,-187.5 672,-187.5 672,-168.5 602,-168.5"/>
<text text-anchor="middle" x="637" y="-175.5" font-family="Helvetica,sans-Serif" font-size="10.00">Motion.hpp</text>
</a>
</g>
</g>
<!-- Node21&#45;&gt;Node22 -->
<g id="edge32" class="edge"><title>Node21&#45;&gt;Node22</title>
<path fill="none" stroke="midnightblue" d="M648.688,-224.083C646.833,-216.927 644.165,-206.635 641.846,-197.691"/>
<polygon fill="midnightblue" stroke="midnightblue" points="645.166,-196.553 639.269,-187.751 638.391,-198.309 645.166,-196.553"/>
</g>
<!-- Node22&#45;&gt;Node17 -->
<g id="edge33" class="edge"><title>Node22&#45;&gt;Node17</title>
<path fill="none" stroke="midnightblue" d="M618.619,-168.444C599.784,-159.675 570.269,-145.935 548.621,-135.858"/>
<polygon fill="midnightblue" stroke="midnightblue" points="549.838,-132.564 539.295,-131.516 546.883,-138.91 549.838,-132.564"/>
</g>
<!-- Node23&#45;&gt;Node17 -->
<g id="edge35" class="edge"><title>Node23&#45;&gt;Node17</title>
<path fill="none" stroke="midnightblue" d="M469.394,-224.368C478.554,-206.376 499.847,-164.55 512.026,-140.627"/>
<polygon fill="midnightblue" stroke="midnightblue" points="515.208,-142.091 516.626,-131.591 508.97,-138.915 515.208,-142.091"/>
</g>
</g>
</svg>
