<?xml version="1.0" encoding="UTF-8" standalone="no"?>
<!DOCTYPE svg PUBLIC "-//W3C//DTD SVG 1.1//EN"
 "http://www.w3.org/Graphics/SVG/1.1/DTD/svg11.dtd">
<!-- Generated by graphviz version 2.38.0 (20140413.2041)
 -->
<!-- Title: src/Entities/EntityConstructor/BulletEntity/BulletEntity.cpp Pages: 1 -->
<svg width="1267pt" height="319pt"
 viewBox="0.00 0.00 1266.50 319.00" xmlns="http://www.w3.org/2000/svg" xmlns:xlink="http://www.w3.org/1999/xlink">
<g id="graph0" class="graph" transform="scale(1 1) rotate(0) translate(4 315)">
<title>src/Entities/EntityConstructor/BulletEntity/BulletEntity.cpp</title>
<!-- Node1 -->
<g id="node1" class="node"><title>Node1</title>
<polygon fill="#bfbfbf" stroke="black" points="428.5,-280.5 428.5,-310.5 583.5,-310.5 583.5,-280.5 428.5,-280.5"/>
<text text-anchor="start" x="436.5" y="-298.5" font-family="Helvetica,sans-Serif" font-size="10.00">src/Entities/EntityConstructor</text>
<text text-anchor="middle" x="506" y="-287.5" font-family="Helvetica,sans-Serif" font-size="10.00">/BulletEntity/BulletEntity.cpp</text>
</g>
<!-- Node2 -->
<g id="node2" class="node"><title>Node2</title>
<g id="a_node2"><a xlink:href="Animator_8hpp.html" target="_top" xlink:title="Display/Animator.hpp">
<polygon fill="none" stroke="black" points="143.5,-224.5 143.5,-243.5 262.5,-243.5 262.5,-224.5 143.5,-224.5"/>
<text text-anchor="middle" x="203" y="-231.5" font-family="Helvetica,sans-Serif" font-size="10.00">Display/Animator.hpp</text>
</a>
</g>
</g>
<!-- Node1&#45;&gt;Node2 -->
<g id="edge1" class="edge"><title>Node1&#45;&gt;Node2</title>
<path fill="none" stroke="midnightblue" d="M434.577,-280.475C379.906,-269.739 305.712,-255.17 256.188,-245.445"/>
<polygon fill="midnightblue" stroke="midnightblue" points="256.805,-241.999 246.318,-243.506 255.456,-248.868 256.805,-241.999"/>
</g>
<!-- Node9 -->
<g id="node9" class="node"><title>Node9</title>
<g id="a_node9"><a xlink:href="Rect_8hpp.html" target="_top" xlink:title="Rect.hpp">
<polygon fill="none" stroke="black" points="312,-168.5 312,-187.5 370,-187.5 370,-168.5 312,-168.5"/>
<text text-anchor="middle" x="341" y="-175.5" font-family="Helvetica,sans-Serif" font-size="10.00">Rect.hpp</text>
</a>
</g>
</g>
<!-- Node1&#45;&gt;Node9 -->
<g id="edge53" class="edge"><title>Node1&#45;&gt;Node9</title>
<path fill="none" stroke="midnightblue" d="M428.403,-284.33C380.244,-276.246 324.799,-263.095 310,-244 298.348,-228.965 311.495,-208.843 324.079,-194.991"/>
<polygon fill="midnightblue" stroke="midnightblue" points="326.764,-197.251 331.233,-187.645 321.749,-192.368 326.764,-197.251"/>
</g>
<!-- Node10 -->
<g id="node10" class="node"><title>Node10</title>
<g id="a_node10"><a xlink:href="BulletEntity_8hpp.html" target="_top" xlink:title="BulletEntity.hpp">
<polygon fill="none" stroke="black" points="907,-224.5 907,-243.5 997,-243.5 997,-224.5 907,-224.5"/>
<text text-anchor="middle" x="952" y="-231.5" font-family="Helvetica,sans-Serif" font-size="10.00">BulletEntity.hpp</text>
</a>
</g>
</g>
<!-- Node1&#45;&gt;Node10 -->
<g id="edge14" class="edge"><title>Node1&#45;&gt;Node10</title>
<path fill="none" stroke="midnightblue" d="M583.687,-284.136C673.137,-272.203 817.836,-252.899 896.601,-242.391"/>
<polygon fill="midnightblue" stroke="midnightblue" points="897.351,-245.822 906.8,-241.03 896.425,-238.883 897.351,-245.822"/>
</g>
<!-- Node21 -->
<g id="node21" class="node"><title>Node21</title>
<g id="a_node21"><a xlink:href="Rotation_8hpp.html" target="_top" xlink:title="Physics/Rotation.hpp">
<polygon fill="none" stroke="black" points="448.5,-224.5 448.5,-243.5 563.5,-243.5 563.5,-224.5 448.5,-224.5"/>
<text text-anchor="middle" x="506" y="-231.5" font-family="Helvetica,sans-Serif" font-size="10.00">Physics/Rotation.hpp</text>
</a>
</g>
</g>
<!-- Node1&#45;&gt;Node21 -->
<g id="edge32" class="edge"><title>Node1&#45;&gt;Node21</title>
<path fill="none" stroke="midnightblue" d="M506,-280.399C506,-272.466 506,-262.458 506,-253.858"/>
<polygon fill="midnightblue" stroke="midnightblue" points="509.5,-253.658 506,-243.658 502.5,-253.658 509.5,-253.658"/>
</g>
<!-- Node23 -->
<g id="node23" class="node"><title>Node23</title>
<g id="a_node23"><a xlink:href="Position_8hpp.html" target="_top" xlink:title="Physics/Position.hpp">
<polygon fill="none" stroke="black" points="704.5,-224.5 704.5,-243.5 817.5,-243.5 817.5,-224.5 704.5,-224.5"/>
<text text-anchor="middle" x="761" y="-231.5" font-family="Helvetica,sans-Serif" font-size="10.00">Physics/Position.hpp</text>
</a>
</g>
</g>
<!-- Node1&#45;&gt;Node23 -->
<g id="edge35" class="edge"><title>Node1&#45;&gt;Node23</title>
<path fill="none" stroke="midnightblue" d="M566.109,-280.475C611.542,-269.874 672.997,-255.534 714.662,-245.812"/>
<polygon fill="midnightblue" stroke="midnightblue" points="715.601,-249.187 724.544,-243.506 714.01,-242.37 715.601,-249.187"/>
</g>
<!-- Node25 -->
<g id="node25" class="node"><title>Node25</title>
<g id="a_node25"><a xlink:href="Velocity_8hpp.html" target="_top" xlink:title="Physics/Velocity.hpp">
<polygon fill="none" stroke="black" points="319.5,-224.5 319.5,-243.5 430.5,-243.5 430.5,-224.5 319.5,-224.5"/>
<text text-anchor="middle" x="375" y="-231.5" font-family="Helvetica,sans-Serif" font-size="10.00">Physics/Velocity.hpp</text>
</a>
</g>
</g>
<!-- Node1&#45;&gt;Node25 -->
<g id="edge38" class="edge"><title>Node1&#45;&gt;Node25</title>
<path fill="none" stroke="midnightblue" d="M474.955,-280.399C453.27,-270.55 424.541,-257.501 403.449,-247.922"/>
<polygon fill="midnightblue" stroke="midnightblue" points="404.614,-244.607 394.062,-243.658 401.719,-250.98 404.614,-244.607"/>
</g>
<!-- Node27 -->
<g id="node27" class="node"><title>Node27</title>
<g id="a_node27"><a xlink:href="Collision_8hpp.html" target="_top" xlink:title="Physics/Collision.hpp">
<polygon fill="none" stroke="black" points="768.5,-168.5 768.5,-187.5 883.5,-187.5 883.5,-168.5 768.5,-168.5"/>
<text text-anchor="middle" x="826" y="-175.5" font-family="Helvetica,sans-Serif" font-size="10.00">Physics/Collision.hpp</text>
</a>
</g>
</g>
<!-- Node1&#45;&gt;Node27 -->
<g id="edge41" class="edge"><title>Node1&#45;&gt;Node27</title>
<path fill="none" stroke="midnightblue" d="M583.696,-293.392C668.229,-290.346 795.444,-279.756 826,-244 836.749,-231.421 835.185,-211.928 831.887,-197.568"/>
<polygon fill="midnightblue" stroke="midnightblue" points="835.224,-196.503 829.201,-187.787 828.474,-198.357 835.224,-196.503"/>
</g>
<!-- Node29 -->
<g id="node29" class="node"><title>Node29</title>
<g id="a_node29"><a xlink:href="Sprite_8hpp.html" target="_top" xlink:title="Display/Sprite.hpp">
<polygon fill="none" stroke="black" points="582,-224.5 582,-243.5 686,-243.5 686,-224.5 582,-224.5"/>
<text text-anchor="middle" x="634" y="-231.5" font-family="Helvetica,sans-Serif" font-size="10.00">Display/Sprite.hpp</text>
</a>
</g>
</g>
<!-- Node1&#45;&gt;Node29 -->
<g id="edge45" class="edge"><title>Node1&#45;&gt;Node29</title>
<path fill="none" stroke="midnightblue" d="M536.334,-280.399C557.523,-270.55 585.594,-257.501 606.202,-247.922"/>
<polygon fill="midnightblue" stroke="midnightblue" points="607.782,-251.047 615.375,-243.658 604.831,-244.699 607.782,-251.047"/>
</g>
<!-- Node30 -->
<g id="node30" class="node"><title>Node30</title>
<g id="a_node30"><a xlink:href="Damage_8hpp.html" target="_top" xlink:title="GameLogic/Damage.hpp">
<polygon fill="none" stroke="black" points="0,-168.5 0,-187.5 136,-187.5 136,-168.5 0,-168.5"/>
<text text-anchor="middle" x="68" y="-175.5" font-family="Helvetica,sans-Serif" font-size="10.00">GameLogic/Damage.hpp</text>
</a>
</g>
</g>
<!-- Node1&#45;&gt;Node30 -->
<g id="edge50" class="edge"><title>Node1&#45;&gt;Node30</title>
<path fill="none" stroke="midnightblue" d="M428.38,-289.735C334.946,-283.006 184.315,-268.7 134,-244 111.312,-232.862 91.6071,-210.903 79.7728,-195.606"/>
<polygon fill="midnightblue" stroke="midnightblue" points="82.5248,-193.442 73.7515,-187.502 76.9058,-197.616 82.5248,-193.442"/>
</g>
<!-- Node3 -->
<g id="node3" class="node"><title>Node3</title>
<polygon fill="none" stroke="#bfbfbf" points="245.5,-0.5 245.5,-19.5 308.5,-19.5 308.5,-0.5 245.5,-0.5"/>
<text text-anchor="middle" x="277" y="-7.5" font-family="Helvetica,sans-Serif" font-size="10.00">typeindex</text>
</g>
<!-- Node2&#45;&gt;Node3 -->
<g id="edge2" class="edge"><title>Node2&#45;&gt;Node3</title>
<path fill="none" stroke="midnightblue" d="M197.363,-224.303C190.047,-211.96 178.697,-188.571 183,-168 194.125,-114.818 201.37,-100.877 232,-56 239.439,-45.1006 249.732,-34.5763 258.596,-26.4496"/>
<polygon fill="midnightblue" stroke="midnightblue" points="261.038,-28.9631 266.213,-19.7183 256.402,-23.718 261.038,-28.9631"/>
</g>
<!-- Node4 -->
<g id="node4" class="node"><title>Node4</title>
<g id="a_node4"><a xlink:href="IDisplay_8hpp.html" target="_top" xlink:title="IDisplay.hpp">
<polygon fill="none" stroke="black" points="410.5,-112.5 410.5,-131.5 483.5,-131.5 483.5,-112.5 410.5,-112.5"/>
<text text-anchor="middle" x="447" y="-119.5" font-family="Helvetica,sans-Serif" font-size="10.00">IDisplay.hpp</text>
</a>
</g>
</g>
<!-- Node2&#45;&gt;Node4 -->
<g id="edge3" class="edge"><title>Node2&#45;&gt;Node4</title>
<path fill="none" stroke="midnightblue" d="M214.1,-224.315C231.947,-210.7 268.523,-184.215 303,-168 334.379,-153.242 371.814,-141.713 400.65,-134.02"/>
<polygon fill="midnightblue" stroke="midnightblue" points="401.674,-137.371 410.467,-131.46 399.908,-130.597 401.674,-137.371"/>
</g>
<!-- Node6 -->
<g id="node6" class="node"><title>Node6</title>
<g id="a_node6"><a xlink:href="Timer_8hpp.html" target="_top" xlink:title="Timer.hpp">
<polygon fill="none" stroke="black" points="192,-168.5 192,-187.5 256,-187.5 256,-168.5 192,-168.5"/>
<text text-anchor="middle" x="224" y="-175.5" font-family="Helvetica,sans-Serif" font-size="10.00">Timer.hpp</text>
</a>
</g>
</g>
<!-- Node2&#45;&gt;Node6 -->
<g id="edge7" class="edge"><title>Node2&#45;&gt;Node6</title>
<path fill="none" stroke="midnightblue" d="M206.468,-224.083C209.312,-216.77 213.429,-206.181 216.96,-197.103"/>
<polygon fill="midnightblue" stroke="midnightblue" points="220.234,-198.34 220.597,-187.751 213.71,-195.803 220.234,-198.34"/>
</g>
<!-- Node2&#45;&gt;Node9 -->
<g id="edge13" class="edge"><title>Node2&#45;&gt;Node9</title>
<path fill="none" stroke="midnightblue" d="M224.867,-224.444C247.779,-215.478 283.975,-201.314 309.866,-191.183"/>
<polygon fill="midnightblue" stroke="midnightblue" points="311.199,-194.42 319.236,-187.516 308.648,-187.901 311.199,-194.42"/>
</g>
<!-- Node4&#45;&gt;Node3 -->
<g id="edge4" class="edge"><title>Node4&#45;&gt;Node3</title>
<path fill="none" stroke="midnightblue" d="M433.66,-112.368C404.488,-93.4924 334.777,-48.385 299.002,-25.2367"/>
<polygon fill="midnightblue" stroke="midnightblue" points="300.575,-22.0855 290.278,-19.5914 296.772,-27.9625 300.575,-22.0855"/>
</g>
<!-- Node5 -->
<g id="node5" class="node"><title>Node5</title>
<g id="a_node5"><a xlink:href="IComponent_8hpp.html" target="_top" xlink:title="IComponent.hpp">
<polygon fill="none" stroke="black" points="399,-56.5 399,-75.5 495,-75.5 495,-56.5 399,-56.5"/>
<text text-anchor="middle" x="447" y="-63.5" font-family="Helvetica,sans-Serif" font-size="10.00">IComponent.hpp</text>
</a>
</g>
</g>
<!-- Node4&#45;&gt;Node5 -->
<g id="edge5" class="edge"><title>Node4&#45;&gt;Node5</title>
<path fill="none" stroke="midnightblue" d="M447,-112.083C447,-105.006 447,-94.8611 447,-85.9865"/>
<polygon fill="midnightblue" stroke="midnightblue" points="450.5,-85.751 447,-75.7511 443.5,-85.7511 450.5,-85.751"/>
</g>
<!-- Node5&#45;&gt;Node3 -->
<g id="edge6" class="edge"><title>Node5&#45;&gt;Node3</title>
<path fill="none" stroke="midnightblue" d="M420.063,-56.4435C391.34,-47.3196 345.671,-32.8133 313.679,-22.6509"/>
<polygon fill="midnightblue" stroke="midnightblue" points="314.401,-19.2081 303.811,-19.5164 312.282,-25.8797 314.401,-19.2081"/>
</g>
<!-- Node6&#45;&gt;Node3 -->
<g id="edge9" class="edge"><title>Node6&#45;&gt;Node3</title>
<path fill="none" stroke="midnightblue" d="M222.017,-168.42C219.46,-155.824 215.908,-131.686 221,-112 229.328,-79.8055 250.371,-46.9322 264.158,-27.7736"/>
<polygon fill="midnightblue" stroke="midnightblue" points="267.121,-29.6537 270.255,-19.5333 261.494,-25.4899 267.121,-29.6537"/>
</g>
<!-- Node7 -->
<g id="node7" class="node"><title>Node7</title>
<polygon fill="none" stroke="#bfbfbf" points="342,-112.5 342,-131.5 392,-131.5 392,-112.5 342,-112.5"/>
<text text-anchor="middle" x="367" y="-119.5" font-family="Helvetica,sans-Serif" font-size="10.00">chrono</text>
</g>
<!-- Node6&#45;&gt;Node7 -->
<g id="edge8" class="edge"><title>Node6&#45;&gt;Node7</title>
<path fill="none" stroke="midnightblue" d="M246.659,-168.444C270.402,-159.478 307.909,-145.314 334.738,-135.183"/>
<polygon fill="midnightblue" stroke="midnightblue" points="336.329,-138.324 344.447,-131.516 333.856,-131.775 336.329,-138.324"/>
</g>
<!-- Node8 -->
<g id="node8" class="node"><title>Node8</title>
<g id="a_node8"><a xlink:href="IGameLogic_8hpp.html" target="_top" xlink:title="IGameLogic.hpp">
<polygon fill="none" stroke="black" points="230,-112.5 230,-131.5 324,-131.5 324,-112.5 230,-112.5"/>
<text text-anchor="middle" x="277" y="-119.5" font-family="Helvetica,sans-Serif" font-size="10.00">IGameLogic.hpp</text>
</a>
</g>
</g>
<!-- Node6&#45;&gt;Node8 -->
<g id="edge10" class="edge"><title>Node6&#45;&gt;Node8</title>
<path fill="none" stroke="midnightblue" d="M232.752,-168.083C240.47,-160.22 251.905,-148.569 261.217,-139.081"/>
<polygon fill="midnightblue" stroke="midnightblue" points="263.904,-141.34 268.411,-131.751 258.908,-136.436 263.904,-141.34"/>
</g>
<!-- Node8&#45;&gt;Node3 -->
<g id="edge11" class="edge"><title>Node8&#45;&gt;Node3</title>
<path fill="none" stroke="midnightblue" d="M277,-112.368C277,-94.617 277,-53.6664 277,-29.5974"/>
<polygon fill="midnightblue" stroke="midnightblue" points="280.5,-29.5914 277,-19.5914 273.5,-29.5915 280.5,-29.5914"/>
</g>
<!-- Node8&#45;&gt;Node5 -->
<g id="edge12" class="edge"><title>Node8&#45;&gt;Node5</title>
<path fill="none" stroke="midnightblue" d="M303.937,-112.444C332.66,-103.32 378.329,-88.8133 410.321,-78.6509"/>
<polygon fill="midnightblue" stroke="midnightblue" points="411.718,-81.8797 420.189,-75.5164 409.599,-75.2081 411.718,-81.8797"/>
</g>
<!-- Node11 -->
<g id="node11" class="node"><title>Node11</title>
<g id="a_node11"><a xlink:href="IEntityConstructor_8hpp.html" target="_top" xlink:title="IEntityConstructor.hpp">
<polygon fill="none" stroke="black" points="924,-168.5 924,-187.5 1046,-187.5 1046,-168.5 924,-168.5"/>
<text text-anchor="middle" x="985" y="-175.5" font-family="Helvetica,sans-Serif" font-size="10.00">IEntityConstructor.hpp</text>
</a>
</g>
</g>
<!-- Node10&#45;&gt;Node11 -->
<g id="edge15" class="edge"><title>Node10&#45;&gt;Node11</title>
<path fill="none" stroke="midnightblue" d="M957.449,-224.083C962.014,-216.613 968.668,-205.724 974.293,-196.52"/>
<polygon fill="midnightblue" stroke="midnightblue" points="977.424,-198.109 979.652,-187.751 971.451,-194.459 977.424,-198.109"/>
</g>
<!-- Node12 -->
<g id="node12" class="node"><title>Node12</title>
<polygon fill="none" stroke="#bfbfbf" points="926.5,-56.5 926.5,-75.5 983.5,-75.5 983.5,-56.5 926.5,-56.5"/>
<text text-anchor="middle" x="955" y="-63.5" font-family="Helvetica,sans-Serif" font-size="10.00">memory</text>
</g>
<!-- Node11&#45;&gt;Node12 -->
<g id="edge16" class="edge"><title>Node11&#45;&gt;Node12</title>
<path fill="none" stroke="midnightblue" d="M987.309,-168.325C990.273,-155.609 994.326,-131.325 988,-112 984.51,-101.34 977.427,-91.1174 970.714,-83.1175"/>
<polygon fill="midnightblue" stroke="midnightblue" points="973.305,-80.7633 964.02,-75.66 968.096,-85.4395 973.305,-80.7633"/>
</g>
<!-- Node13 -->
<g id="node13" class="node"><title>Node13</title>
<polygon fill="none" stroke="#bfbfbf" points="744,-0.5 744,-19.5 788,-19.5 788,-0.5 744,-0.5"/>
<text text-anchor="middle" x="766" y="-7.5" font-family="Helvetica,sans-Serif" font-size="10.00">string</text>
</g>
<!-- Node11&#45;&gt;Node13 -->
<g id="edge17" class="edge"><title>Node11&#45;&gt;Node13</title>
<path fill="none" stroke="midnightblue" d="M923.986,-170.204C893.683,-164.237 858.077,-153.033 832,-132 798.428,-104.921 779.412,-55.9879 771.098,-29.4004"/>
<polygon fill="midnightblue" stroke="midnightblue" points="774.365,-28.104 768.179,-19.5027 767.651,-30.0843 774.365,-28.104"/>
</g>
<!-- Node14 -->
<g id="node14" class="node"><title>Node14</title>
<g id="a_node14"><a xlink:href="Entity_8hpp.html" target="_top" xlink:title="Entity.hpp">
<polygon fill="none" stroke="black" points="1001.5,-56.5 1001.5,-75.5 1064.5,-75.5 1064.5,-56.5 1001.5,-56.5"/>
<text text-anchor="middle" x="1033" y="-63.5" font-family="Helvetica,sans-Serif" font-size="10.00">Entity.hpp</text>
</a>
</g>
</g>
<!-- Node11&#45;&gt;Node14 -->
<g id="edge18" class="edge"><title>Node11&#45;&gt;Node14</title>
<path fill="none" stroke="midnightblue" d="M988.766,-168.368C996.583,-150.456 1014.71,-108.923 1025.17,-84.9482"/>
<polygon fill="midnightblue" stroke="midnightblue" points="1028.46,-86.1566 1029.25,-75.5914 1022.04,-83.357 1028.46,-86.1566"/>
</g>
<!-- Node15 -->
<g id="node15" class="node"><title>Node15</title>
<g id="a_node15"><a xlink:href="IEntityManager_8hpp.html" target="_top" xlink:title="IEntityManager.hpp">
<polygon fill="none" stroke="black" points="1073,-112.5 1073,-131.5 1181,-131.5 1181,-112.5 1073,-112.5"/>
<text text-anchor="middle" x="1127" y="-119.5" font-family="Helvetica,sans-Serif" font-size="10.00">IEntityManager.hpp</text>
</a>
</g>
</g>
<!-- Node11&#45;&gt;Node15 -->
<g id="edge19" class="edge"><title>Node11&#45;&gt;Node15</title>
<path fill="none" stroke="midnightblue" d="M1007.5,-168.444C1031.08,-159.478 1068.32,-145.314 1094.96,-135.183"/>
<polygon fill="midnightblue" stroke="midnightblue" points="1096.5,-138.342 1104.6,-131.516 1094.01,-131.8 1096.5,-138.342"/>
</g>
<!-- Node20 -->
<g id="node20" class="node"><title>Node20</title>
<g id="a_node20"><a xlink:href="IComponentManager_8hpp.html" target="_top" xlink:title="IComponentManager.hpp">
<polygon fill="none" stroke="black" points="841.5,-112.5 841.5,-131.5 978.5,-131.5 978.5,-112.5 841.5,-112.5"/>
<text text-anchor="middle" x="910" y="-119.5" font-family="Helvetica,sans-Serif" font-size="10.00">IComponentManager.hpp</text>
</a>
</g>
</g>
<!-- Node11&#45;&gt;Node20 -->
<g id="edge27" class="edge"><title>Node11&#45;&gt;Node20</title>
<path fill="none" stroke="midnightblue" d="M972.95,-168.324C961.537,-160.107 944.169,-147.602 930.565,-137.807"/>
<polygon fill="midnightblue" stroke="midnightblue" points="932.43,-134.837 922.269,-131.834 928.34,-140.517 932.43,-134.837"/>
</g>
<!-- Node15&#45;&gt;Node12 -->
<g id="edge20" class="edge"><title>Node15&#45;&gt;Node12</title>
<path fill="none" stroke="midnightblue" d="M1099.75,-112.444C1070.56,-103.28 1024.08,-88.6876 991.691,-78.5192"/>
<polygon fill="midnightblue" stroke="midnightblue" points="992.716,-75.1726 982.126,-75.5164 990.619,-81.8512 992.716,-75.1726"/>
</g>
<!-- Node15&#45;&gt;Node14 -->
<g id="edge22" class="edge"><title>Node15&#45;&gt;Node14</title>
<path fill="none" stroke="midnightblue" d="M1111.9,-112.324C1097.1,-103.822 1074.31,-90.7288 1057.02,-80.7975"/>
<polygon fill="midnightblue" stroke="midnightblue" points="1058.48,-77.6009 1048.07,-75.6545 1054.99,-83.6707 1058.48,-77.6009"/>
</g>
<!-- Node16 -->
<g id="node16" class="node"><title>Node16</title>
<polygon fill="none" stroke="#bfbfbf" points="1211.5,-56.5 1211.5,-75.5 1258.5,-75.5 1258.5,-56.5 1211.5,-56.5"/>
<text text-anchor="middle" x="1235" y="-63.5" font-family="Helvetica,sans-Serif" font-size="10.00">vector</text>
</g>
<!-- Node15&#45;&gt;Node16 -->
<g id="edge21" class="edge"><title>Node15&#45;&gt;Node16</title>
<path fill="none" stroke="midnightblue" d="M1144.35,-112.324C1161.67,-103.664 1188.52,-90.2424 1208.5,-80.249"/>
<polygon fill="midnightblue" stroke="midnightblue" points="1210.31,-83.2572 1217.69,-75.6545 1207.18,-76.9962 1210.31,-83.2572"/>
</g>
<!-- Node17 -->
<g id="node17" class="node"><title>Node17</title>
<g id="a_node17"><a xlink:href="PacketManager_8hpp.html" target="_top" xlink:title="PacketManager.hpp">
<polygon fill="none" stroke="black" points="1083,-56.5 1083,-75.5 1193,-75.5 1193,-56.5 1083,-56.5"/>
<text text-anchor="middle" x="1138" y="-63.5" font-family="Helvetica,sans-Serif" font-size="10.00">PacketManager.hpp</text>
</a>
</g>
</g>
<!-- Node15&#45;&gt;Node17 -->
<g id="edge23" class="edge"><title>Node15&#45;&gt;Node17</title>
<path fill="none" stroke="midnightblue" d="M1128.82,-112.083C1130.27,-104.927 1132.37,-94.6353 1134.19,-85.6911"/>
<polygon fill="midnightblue" stroke="midnightblue" points="1137.65,-86.2485 1136.22,-75.7511 1130.79,-84.8512 1137.65,-86.2485"/>
</g>
<!-- Node17&#45;&gt;Node13 -->
<g id="edge24" class="edge"><title>Node17&#45;&gt;Node13</title>
<path fill="none" stroke="midnightblue" d="M1082.71,-56.974C1004.07,-45.559 862.41,-24.995 798.655,-15.7402"/>
<polygon fill="midnightblue" stroke="midnightblue" points="798.799,-12.2245 788.4,-14.2515 797.793,-19.1519 798.799,-12.2245"/>
</g>
<!-- Node18 -->
<g id="node18" class="node"><title>Node18</title>
<polygon fill="none" stroke="#bfbfbf" points="962,-0.5 962,-19.5 992,-19.5 992,-0.5 962,-0.5"/>
<text text-anchor="middle" x="977" y="-7.5" font-family="Helvetica,sans-Serif" font-size="10.00">list</text>
</g>
<!-- Node17&#45;&gt;Node18 -->
<g id="edge25" class="edge"><title>Node17&#45;&gt;Node18</title>
<path fill="none" stroke="midnightblue" d="M1112.49,-56.4435C1082.19,-46.2813 1031.98,-29.4419 1001.94,-19.3646"/>
<polygon fill="midnightblue" stroke="midnightblue" points="1002.81,-15.9658 992.218,-16.1041 1000.59,-22.6025 1002.81,-15.9658"/>
</g>
<!-- Node19 -->
<g id="node19" class="node"><title>Node19</title>
<g id="a_node19"><a xlink:href="Input_8hpp.html" target="_top" xlink:title="Render/Input.hpp">
<polygon fill="none" stroke="black" points="1089,-0.5 1089,-19.5 1187,-19.5 1187,-0.5 1089,-0.5"/>
<text text-anchor="middle" x="1138" y="-7.5" font-family="Helvetica,sans-Serif" font-size="10.00">Render/Input.hpp</text>
</a>
</g>
</g>
<!-- Node17&#45;&gt;Node19 -->
<g id="edge26" class="edge"><title>Node17&#45;&gt;Node19</title>
<path fill="none" stroke="midnightblue" d="M1138,-56.083C1138,-49.0059 1138,-38.8611 1138,-29.9865"/>
<polygon fill="midnightblue" stroke="midnightblue" points="1141.5,-29.751 1138,-19.7511 1134.5,-29.7511 1141.5,-29.751"/>
</g>
<!-- Node20&#45;&gt;Node5 -->
<g id="edge30" class="edge"><title>Node20&#45;&gt;Node5</title>
<path fill="none" stroke="midnightblue" d="M841.184,-112.974C750.045,-102.344 590.884,-83.7813 505.341,-73.8044"/>
<polygon fill="midnightblue" stroke="midnightblue" points="505.622,-70.3134 495.283,-72.6313 504.811,-77.2663 505.622,-70.3134"/>
</g>
<!-- Node20&#45;&gt;Node12 -->
<g id="edge29" class="edge"><title>Node20&#45;&gt;Node12</title>
<path fill="none" stroke="midnightblue" d="M917.431,-112.083C923.853,-104.377 933.306,-93.0333 941.122,-83.6531"/>
<polygon fill="midnightblue" stroke="midnightblue" points="943.994,-85.674 947.707,-75.7511 938.617,-81.1927 943.994,-85.674"/>
</g>
<!-- Node20&#45;&gt;Node14 -->
<g id="edge31" class="edge"><title>Node20&#45;&gt;Node14</title>
<path fill="none" stroke="midnightblue" d="M929.49,-112.444C949.642,-103.596 981.323,-89.6875 1004.33,-79.5865"/>
<polygon fill="midnightblue" stroke="midnightblue" points="1005.85,-82.7411 1013.6,-75.5164 1003.04,-76.3316 1005.85,-82.7411"/>
</g>
<!-- Node20&#45;&gt;Node18 -->
<g id="edge28" class="edge"><title>Node20&#45;&gt;Node18</title>
<path fill="none" stroke="midnightblue" d="M908.856,-112.347C907.556,-99.2329 906.785,-73.9543 917,-56 925.187,-41.6112 940.041,-30.4151 952.921,-22.7896"/>
<polygon fill="midnightblue" stroke="midnightblue" points="954.763,-25.7703 961.827,-17.8734 951.38,-19.642 954.763,-25.7703"/>
</g>
<!-- Node22 -->
<g id="node22" class="node"><title>Node22</title>
<g id="a_node22"><a xlink:href="IPhysics_8hpp.html" target="_top" xlink:title="IPhysics.hpp">
<polygon fill="none" stroke="black" points="501.5,-112.5 501.5,-131.5 576.5,-131.5 576.5,-112.5 501.5,-112.5"/>
<text text-anchor="middle" x="539" y="-119.5" font-family="Helvetica,sans-Serif" font-size="10.00">IPhysics.hpp</text>
</a>
</g>
</g>
<!-- Node21&#45;&gt;Node22 -->
<g id="edge33" class="edge"><title>Node21&#45;&gt;Node22</title>
<path fill="none" stroke="midnightblue" d="M508.589,-224.368C513.939,-206.537 526.311,-165.295 533.518,-141.272"/>
<polygon fill="midnightblue" stroke="midnightblue" points="536.901,-142.175 536.423,-131.591 530.197,-140.164 536.901,-142.175"/>
</g>
<!-- Node22&#45;&gt;Node5 -->
<g id="edge34" class="edge"><title>Node22&#45;&gt;Node5</title>
<path fill="none" stroke="midnightblue" d="M524.219,-112.324C509.733,-103.822 487.427,-90.7288 470.507,-80.7975"/>
<polygon fill="midnightblue" stroke="midnightblue" points="472.141,-77.6981 461.745,-75.6545 468.597,-83.735 472.141,-77.6981"/>
</g>
<!-- Node23&#45;&gt;Node22 -->
<g id="edge37" class="edge"><title>Node23&#45;&gt;Node22</title>
<path fill="none" stroke="midnightblue" d="M743.58,-224.368C704.836,-205.171 611.335,-158.842 565.386,-136.074"/>
<polygon fill="midnightblue" stroke="midnightblue" points="566.853,-132.895 556.339,-131.591 563.745,-139.167 566.853,-132.895"/>
</g>
<!-- Node24 -->
<g id="node24" class="node"><title>Node24</title>
<polygon fill="none" stroke="#bfbfbf" points="709,-168.5 709,-187.5 751,-187.5 751,-168.5 709,-168.5"/>
<text text-anchor="middle" x="730" y="-175.5" font-family="Helvetica,sans-Serif" font-size="10.00">utility</text>
</g>
<!-- Node23&#45;&gt;Node24 -->
<g id="edge36" class="edge"><title>Node23&#45;&gt;Node24</title>
<path fill="none" stroke="midnightblue" d="M755.881,-224.083C751.592,-216.613 745.342,-205.724 740.058,-196.52"/>
<polygon fill="midnightblue" stroke="midnightblue" points="743.038,-194.681 735.024,-187.751 736.967,-198.166 743.038,-194.681"/>
</g>
<!-- Node26 -->
<g id="node26" class="node"><title>Node26</title>
<g id="a_node26"><a xlink:href="Motion_8hpp.html" target="_top" xlink:title="Motion.hpp">
<polygon fill="none" stroke="black" points="394,-168.5 394,-187.5 464,-187.5 464,-168.5 394,-168.5"/>
<text text-anchor="middle" x="429" y="-175.5" font-family="Helvetica,sans-Serif" font-size="10.00">Motion.hpp</text>
</a>
</g>
</g>
<!-- Node25&#45;&gt;Node26 -->
<g id="edge39" class="edge"><title>Node25&#45;&gt;Node26</title>
<path fill="none" stroke="midnightblue" d="M383.917,-224.083C391.78,-216.22 403.431,-204.569 412.919,-195.081"/>
<polygon fill="midnightblue" stroke="midnightblue" points="415.653,-197.297 420.249,-187.751 410.703,-192.347 415.653,-197.297"/>
</g>
<!-- Node26&#45;&gt;Node22 -->
<g id="edge40" class="edge"><title>Node26&#45;&gt;Node22</title>
<path fill="none" stroke="midnightblue" d="M446.673,-168.324C464.394,-159.625 491.903,-146.12 512.288,-136.113"/>
<polygon fill="midnightblue" stroke="midnightblue" points="513.936,-139.203 521.37,-131.655 510.851,-132.919 513.936,-139.203"/>
</g>
<!-- Node27&#45;&gt;Node13 -->
<g id="edge42" class="edge"><title>Node27&#45;&gt;Node13</title>
<path fill="none" stroke="midnightblue" d="M790.148,-168.397C771.119,-161.81 749.373,-150.589 738,-132 717.834,-99.0379 739.624,-52.9283 754.51,-28.2323"/>
<polygon fill="midnightblue" stroke="midnightblue" points="757.575,-29.9335 759.959,-19.6104 751.658,-26.1938 757.575,-29.9335"/>
</g>
<!-- Node27&#45;&gt;Node22 -->
<g id="edge44" class="edge"><title>Node27&#45;&gt;Node22</title>
<path fill="none" stroke="midnightblue" d="M780.524,-168.444C727.662,-158.497 640.805,-142.155 586.92,-132.016"/>
<polygon fill="midnightblue" stroke="midnightblue" points="587.406,-128.546 576.931,-130.137 586.111,-135.426 587.406,-128.546"/>
</g>
<!-- Node28 -->
<g id="node28" class="node"><title>Node28</title>
<polygon fill="none" stroke="#bfbfbf" points="747,-112.5 747,-131.5 785,-131.5 785,-112.5 747,-112.5"/>
<text text-anchor="middle" x="766" y="-119.5" font-family="Helvetica,sans-Serif" font-size="10.00">map</text>
</g>
<!-- Node27&#45;&gt;Node28 -->
<g id="edge43" class="edge"><title>Node27&#45;&gt;Node28</title>
<path fill="none" stroke="midnightblue" d="M816.36,-168.324C807.49,-160.341 794.125,-148.313 783.392,-138.653"/>
<polygon fill="midnightblue" stroke="midnightblue" points="785.59,-135.922 775.815,-131.834 780.907,-141.125 785.59,-135.922"/>
</g>
<!-- Node29&#45;&gt;Node3 -->
<g id="edge47" class="edge"><title>Node29&#45;&gt;Node3</title>
<path fill="none" stroke="midnightblue" d="M632.267,-224.206C627.721,-202.953 613.762,-147.909 585,-112 557.639,-77.8408 544.306,-73.0554 504,-56 442.598,-30.0179 365.414,-18.8114 318.711,-14.1423"/>
<polygon fill="midnightblue" stroke="midnightblue" points="318.942,-10.6487 308.657,-13.1915 318.283,-17.6176 318.942,-10.6487"/>
</g>
<!-- Node29&#45;&gt;Node4 -->
<g id="edge49" class="edge"><title>Node29&#45;&gt;Node4</title>
<path fill="none" stroke="midnightblue" d="M619.326,-224.368C587.101,-205.412 509.901,-160.001 470.702,-136.942"/>
<polygon fill="midnightblue" stroke="midnightblue" points="471.999,-133.645 461.605,-131.591 468.45,-139.678 471.999,-133.645"/>
</g>
<!-- Node29&#45;&gt;Node9 -->
<g id="edge48" class="edge"><title>Node29&#45;&gt;Node9</title>
<path fill="none" stroke="midnightblue" d="M584.803,-224.452C534.53,-215.637 454.234,-201.335 385,-188 383.517,-187.714 382.006,-187.42 380.48,-187.121"/>
<polygon fill="midnightblue" stroke="midnightblue" points="380.821,-183.62 370.329,-185.097 379.452,-190.485 380.821,-183.62"/>
</g>
<!-- Node29&#45;&gt;Node13 -->
<g id="edge46" class="edge"><title>Node29&#45;&gt;Node13</title>
<path fill="none" stroke="midnightblue" d="M638.076,-224.213C650.446,-197.85 689.216,-117.461 730,-56 736.569,-46.1004 744.79,-35.7023 751.717,-27.3982"/>
<polygon fill="midnightblue" stroke="midnightblue" points="754.528,-29.4952 758.343,-19.6112 749.197,-24.9586 754.528,-29.4952"/>
</g>
<!-- Node30&#45;&gt;Node3 -->
<g id="edge51" class="edge"><title>Node30&#45;&gt;Node3</title>
<path fill="none" stroke="midnightblue" d="M71.5654,-168.294C81.0159,-146.265 108.835,-87.8075 150,-56 175.03,-36.6596 209.052,-25.1954 235.584,-18.683"/>
<polygon fill="midnightblue" stroke="midnightblue" points="236.397,-22.0874 245.351,-16.4234 234.819,-15.2675 236.397,-22.0874"/>
</g>
<!-- Node30&#45;&gt;Node8 -->
<g id="edge52" class="edge"><title>Node30&#45;&gt;Node8</title>
<path fill="none" stroke="midnightblue" d="M101.117,-168.444C137.118,-159.142 194.77,-144.246 234.186,-134.062"/>
<polygon fill="midnightblue" stroke="midnightblue" points="235.232,-137.407 244.038,-131.516 233.481,-130.629 235.232,-137.407"/>
</g>
</g>
</svg>
