<?xml version="1.0" encoding="UTF-8" standalone="no"?>
<!DOCTYPE svg PUBLIC "-//W3C//DTD SVG 1.1//EN"
 "http://www.w3.org/Graphics/SVG/1.1/DTD/svg11.dtd">
<!-- Generated by graphviz version 2.38.0 (20140413.2041)
 -->
<!-- Title: src/Components/Display/Button.hpp Pages: 1 -->
<svg width="2138pt" height="106pt"
 viewBox="0.00 0.00 2137.50 106.00" xmlns="http://www.w3.org/2000/svg" xmlns:xlink="http://www.w3.org/1999/xlink">
<g id="graph0" class="graph" transform="scale(1 1) rotate(0) translate(4 102)">
<title>src/Components/Display/Button.hpp</title>
<!-- Node1 -->
<g id="node1" class="node"><title>Node1</title>
<polygon fill="#bfbfbf" stroke="black" points="914,-67.5 914,-97.5 1047,-97.5 1047,-67.5 914,-67.5"/>
<text text-anchor="start" x="922" y="-85.5" font-family="Helvetica,sans-Serif" font-size="10.00">src/Components/Display</text>
<text text-anchor="middle" x="980.5" y="-74.5" font-family="Helvetica,sans-Serif" font-size="10.00">/Button.hpp</text>
</g>
<!-- Node2 -->
<g id="node2" class="node"><title>Node2</title>
<g id="a_node2"><a xlink:href="Button_8cpp.html" target="_top" xlink:title="src/Components/Display\l/Button.cpp">
<polygon fill="none" stroke="black" points="0,-0.5 0,-30.5 133,-30.5 133,-0.5 0,-0.5"/>
<text text-anchor="start" x="8" y="-18.5" font-family="Helvetica,sans-Serif" font-size="10.00">src/Components/Display</text>
<text text-anchor="middle" x="66.5" y="-7.5" font-family="Helvetica,sans-Serif" font-size="10.00">/Button.cpp</text>
</a>
</g>
</g>
<!-- Node1&#45;&gt;Node2 -->
<g id="edge1" class="edge"><title>Node1&#45;&gt;Node2</title>
<path fill="none" stroke="midnightblue" d="M903.543,-80.231C755.444,-77.0457 420.729,-66.2419 141.5,-31 138.737,-30.6513 135.922,-30.2622 133.084,-29.8417"/>
<polygon fill="midnightblue" stroke="midnightblue" points="903.809,-83.7373 913.881,-80.4474 903.956,-76.7388 903.809,-83.7373"/>
</g>
<!-- Node3 -->
<g id="node3" class="node"><title>Node3</title>
<g id="a_node3"><a xlink:href="BackEntity_8cpp.html" target="_top" xlink:title="src/Entities/EntityConstructor\l/BackEntity/BackEntity.cpp">
<polygon fill="none" stroke="black" points="151,-0.5 151,-30.5 306,-30.5 306,-0.5 151,-0.5"/>
<text text-anchor="start" x="159" y="-18.5" font-family="Helvetica,sans-Serif" font-size="10.00">src/Entities/EntityConstructor</text>
<text text-anchor="middle" x="228.5" y="-7.5" font-family="Helvetica,sans-Serif" font-size="10.00">/BackEntity/BackEntity.cpp</text>
</a>
</g>
</g>
<!-- Node1&#45;&gt;Node3 -->
<g id="edge2" class="edge"><title>Node1&#45;&gt;Node3</title>
<path fill="none" stroke="midnightblue" d="M903.607,-77.8968C779.54,-71.5811 527.644,-56.6816 315.5,-31 312.46,-30.6319 309.363,-30.2329 306.239,-29.81"/>
<polygon fill="midnightblue" stroke="midnightblue" points="903.6,-81.4008 913.763,-78.4091 903.952,-74.4097 903.6,-81.4008"/>
</g>
<!-- Node4 -->
<g id="node4" class="node"><title>Node4</title>
<g id="a_node4"><a xlink:href="DefeatEntity_8cpp.html" target="_top" xlink:title="src/Entities/EntityConstructor\l/DefeatEntity/DefeatEntity.cpp">
<polygon fill="none" stroke="black" points="324.5,-0.5 324.5,-30.5 484.5,-30.5 484.5,-0.5 324.5,-0.5"/>
<text text-anchor="start" x="332.5" y="-18.5" font-family="Helvetica,sans-Serif" font-size="10.00">src/Entities/EntityConstructor</text>
<text text-anchor="middle" x="404.5" y="-7.5" font-family="Helvetica,sans-Serif" font-size="10.00">/DefeatEntity/DefeatEntity.cpp</text>
</a>
</g>
</g>
<!-- Node1&#45;&gt;Node4 -->
<g id="edge3" class="edge"><title>Node1&#45;&gt;Node4</title>
<path fill="none" stroke="midnightblue" d="M903.582,-74.9171C807.459,-66.3703 638.003,-50.2469 493.5,-31 490.552,-30.6073 487.551,-30.193 484.521,-29.7625"/>
<polygon fill="midnightblue" stroke="midnightblue" points="903.523,-78.4255 913.793,-75.821 904.14,-71.4527 903.523,-78.4255"/>
</g>
<!-- Node5 -->
<g id="node5" class="node"><title>Node5</title>
<g id="a_node5"><a xlink:href="MenuEntity_8cpp.html" target="_top" xlink:title="src/Entities/EntityConstructor\l/MenuEntity/MenuEntity.cpp">
<polygon fill="none" stroke="black" points="503,-0.5 503,-30.5 658,-30.5 658,-0.5 503,-0.5"/>
<text text-anchor="start" x="511" y="-18.5" font-family="Helvetica,sans-Serif" font-size="10.00">src/Entities/EntityConstructor</text>
<text text-anchor="middle" x="580.5" y="-7.5" font-family="Helvetica,sans-Serif" font-size="10.00">/MenuEntity/MenuEntity.cpp</text>
</a>
</g>
</g>
<!-- Node1&#45;&gt;Node5 -->
<g id="edge4" class="edge"><title>Node1&#45;&gt;Node5</title>
<path fill="none" stroke="midnightblue" d="M904.013,-69.2729C840.63,-59.1134 748.19,-44.2334 667.5,-31 664.478,-30.5044 661.397,-29.9977 658.285,-29.4847"/>
<polygon fill="midnightblue" stroke="midnightblue" points="903.502,-72.7356 913.93,-70.8619 904.609,-65.8238 903.502,-72.7356"/>
</g>
<!-- Node6 -->
<g id="node6" class="node"><title>Node6</title>
<g id="a_node6"><a xlink:href="NameRoomEntity_8cpp.html" target="_top" xlink:title="src/Entities/EntityConstructor\l/NameRoomEntity/NameRoomEntity.cpp">
<polygon fill="none" stroke="black" points="676.5,-0.5 676.5,-30.5 884.5,-30.5 884.5,-0.5 676.5,-0.5"/>
<text text-anchor="start" x="684.5" y="-18.5" font-family="Helvetica,sans-Serif" font-size="10.00">src/Entities/EntityConstructor</text>
<text text-anchor="middle" x="780.5" y="-7.5" font-family="Helvetica,sans-Serif" font-size="10.00">/NameRoomEntity/NameRoomEntity.cpp</text>
</a>
</g>
</g>
<!-- Node1&#45;&gt;Node6 -->
<g id="edge5" class="edge"><title>Node1&#45;&gt;Node6</title>
<path fill="none" stroke="midnightblue" d="M927.355,-64.2278C895.002,-53.7131 854.195,-40.4508 823.812,-30.5765"/>
<polygon fill="midnightblue" stroke="midnightblue" points="926.511,-67.6337 937.103,-67.396 928.674,-60.9764 926.511,-67.6337"/>
</g>
<!-- Node7 -->
<g id="node7" class="node"><title>Node7</title>
<g id="a_node7"><a xlink:href="PlayEntity_8cpp.html" target="_top" xlink:title="src/Entities/EntityConstructor\l/PlayEntity/PlayEntity.cpp">
<polygon fill="none" stroke="black" points="903,-0.5 903,-30.5 1058,-30.5 1058,-0.5 903,-0.5"/>
<text text-anchor="start" x="911" y="-18.5" font-family="Helvetica,sans-Serif" font-size="10.00">src/Entities/EntityConstructor</text>
<text text-anchor="middle" x="980.5" y="-7.5" font-family="Helvetica,sans-Serif" font-size="10.00">/PlayEntity/PlayEntity.cpp</text>
</a>
</g>
</g>
<!-- Node1&#45;&gt;Node7 -->
<g id="edge6" class="edge"><title>Node1&#45;&gt;Node7</title>
<path fill="none" stroke="midnightblue" d="M980.5,-57.1081C980.5,-48.1539 980.5,-38.3227 980.5,-30.5765"/>
<polygon fill="midnightblue" stroke="midnightblue" points="977,-57.3959 980.5,-67.396 984,-57.396 977,-57.3959"/>
</g>
<!-- Node8 -->
<g id="node8" class="node"><title>Node8</title>
<g id="a_node8"><a xlink:href="StopEntity_8cpp.html" target="_top" xlink:title="src/Entities/EntityConstructor\l/StopEntity/StopEntity.cpp">
<polygon fill="none" stroke="black" points="1076,-0.5 1076,-30.5 1231,-30.5 1231,-0.5 1076,-0.5"/>
<text text-anchor="start" x="1084" y="-18.5" font-family="Helvetica,sans-Serif" font-size="10.00">src/Entities/EntityConstructor</text>
<text text-anchor="middle" x="1153.5" y="-7.5" font-family="Helvetica,sans-Serif" font-size="10.00">/StopEntity/StopEntity.cpp</text>
</a>
</g>
</g>
<!-- Node1&#45;&gt;Node8 -->
<g id="edge7" class="edge"><title>Node1&#45;&gt;Node8</title>
<path fill="none" stroke="midnightblue" d="M1027.56,-63.8185C1055.37,-53.3707 1090.09,-40.3231 1116.03,-30.5765"/>
<polygon fill="midnightblue" stroke="midnightblue" points="1026.17,-60.6024 1018.04,-67.396 1028.63,-67.1551 1026.17,-60.6024"/>
</g>
<!-- Node9 -->
<g id="node9" class="node"><title>Node9</title>
<g id="a_node9"><a xlink:href="ButtonColorSystem_8cpp.html" target="_top" xlink:title="src/Systems/SystemConstructor\l/ButtonColorSystem/ButtonColorSystem.cpp">
<polygon fill="none" stroke="black" points="1249.5,-0.5 1249.5,-30.5 1479.5,-30.5 1479.5,-0.5 1249.5,-0.5"/>
<text text-anchor="start" x="1257.5" y="-18.5" font-family="Helvetica,sans-Serif" font-size="10.00">src/Systems/SystemConstructor</text>
<text text-anchor="middle" x="1364.5" y="-7.5" font-family="Helvetica,sans-Serif" font-size="10.00">/ButtonColorSystem/ButtonColorSystem.cpp</text>
</a>
</g>
</g>
<!-- Node1&#45;&gt;Node9 -->
<g id="edge8" class="edge"><title>Node1&#45;&gt;Node9</title>
<path fill="none" stroke="midnightblue" d="M1057.56,-68.4558C1122.49,-57.4657 1215.16,-41.7788 1281.67,-30.5215"/>
<polygon fill="midnightblue" stroke="midnightblue" points="1056.66,-65.0579 1047.39,-70.1779 1057.83,-71.9597 1056.66,-65.0579"/>
</g>
<!-- Node10 -->
<g id="node10" class="node"><title>Node10</title>
<g id="a_node10"><a xlink:href="ChooseRoomSystem_8cpp.html" target="_top" xlink:title="src/Systems/SystemConstructor\l/ChooseRoomSystem/ChooseRoomSystem.cpp">
<polygon fill="none" stroke="black" points="1497.5,-0.5 1497.5,-30.5 1739.5,-30.5 1739.5,-0.5 1497.5,-0.5"/>
<text text-anchor="start" x="1505.5" y="-18.5" font-family="Helvetica,sans-Serif" font-size="10.00">src/Systems/SystemConstructor</text>
<text text-anchor="middle" x="1618.5" y="-7.5" font-family="Helvetica,sans-Serif" font-size="10.00">/ChooseRoomSystem/ChooseRoomSystem.cpp</text>
</a>
</g>
</g>
<!-- Node1&#45;&gt;Node10 -->
<g id="edge9" class="edge"><title>Node1&#45;&gt;Node10</title>
<path fill="none" stroke="midnightblue" d="M1057.06,-74.1781C1156.52,-64.5995 1335.54,-47.1326 1488.5,-31 1491.44,-30.6903 1494.41,-30.3748 1497.41,-30.0546"/>
<polygon fill="midnightblue" stroke="midnightblue" points="1056.71,-70.6949 1047.09,-75.1367 1057.38,-77.6627 1056.71,-70.6949"/>
</g>
<!-- Node11 -->
<g id="node11" class="node"><title>Node11</title>
<g id="a_node11"><a xlink:href="DefeatSystem_8cpp.html" target="_top" xlink:title="src/Systems/SystemConstructor\l/DefeatSystem/DefeatSystem.cpp">
<polygon fill="none" stroke="black" points="1758,-0.5 1758,-30.5 1939,-30.5 1939,-0.5 1758,-0.5"/>
<text text-anchor="start" x="1766" y="-18.5" font-family="Helvetica,sans-Serif" font-size="10.00">src/Systems/SystemConstructor</text>
<text text-anchor="middle" x="1848.5" y="-7.5" font-family="Helvetica,sans-Serif" font-size="10.00">/DefeatSystem/DefeatSystem.cpp</text>
</a>
</g>
</g>
<!-- Node1&#45;&gt;Node11 -->
<g id="edge10" class="edge"><title>Node1&#45;&gt;Node11</title>
<path fill="none" stroke="midnightblue" d="M1057.25,-78.4462C1195.67,-72.4953 1496.18,-57.5475 1748.5,-31 1751.55,-30.6788 1754.66,-30.3337 1757.79,-29.9695"/>
<polygon fill="midnightblue" stroke="midnightblue" points="1057.01,-74.9532 1047.17,-78.8761 1057.31,-81.9469 1057.01,-74.9532"/>
</g>
<!-- Node12 -->
<g id="node12" class="node"><title>Node12</title>
<g id="a_node12"><a xlink:href="MenuSystem_8cpp.html" target="_top" xlink:title="src/Systems/SystemConstructor\l/MenuSystem/MenuSystem.cpp">
<polygon fill="none" stroke="black" points="1957.5,-0.5 1957.5,-30.5 2129.5,-30.5 2129.5,-0.5 1957.5,-0.5"/>
<text text-anchor="start" x="1965.5" y="-18.5" font-family="Helvetica,sans-Serif" font-size="10.00">src/Systems/SystemConstructor</text>
<text text-anchor="middle" x="2043.5" y="-7.5" font-family="Helvetica,sans-Serif" font-size="10.00">/MenuSystem/MenuSystem.cpp</text>
</a>
</g>
</g>
<!-- Node1&#45;&gt;Node12 -->
<g id="edge11" class="edge"><title>Node1&#45;&gt;Node12</title>
<path fill="none" stroke="midnightblue" d="M1057.76,-80.0736C1222.08,-76.468 1618.21,-64.7381 1948.5,-31 1951.4,-30.7033 1954.36,-30.3794 1957.33,-30.0334"/>
<polygon fill="midnightblue" stroke="midnightblue" points="1057.2,-76.5848 1047.28,-80.2995 1057.35,-83.5832 1057.2,-76.5848"/>
</g>
</g>
</svg>
