<?xml version="1.0" encoding="UTF-8" standalone="no"?>
<!DOCTYPE svg PUBLIC "-//W3C//DTD SVG 1.1//EN"
 "http://www.w3.org/Graphics/SVG/1.1/DTD/svg11.dtd">
<!-- Generated by graphviz version 2.38.0 (20140413.2041)
 -->
<!-- Title: src/Components/Display/Button.cpp Pages: 1 -->
<svg width="269pt" height="319pt"
 viewBox="0.00 0.00 269.08 319.00" xmlns="http://www.w3.org/2000/svg" xmlns:xlink="http://www.w3.org/1999/xlink">
<g id="graph0" class="graph" transform="scale(1 1) rotate(0) translate(4 315)">
<title>src/Components/Display/Button.cpp</title>
<!-- Node1 -->
<g id="node1" class="node"><title>Node1</title>
<polygon fill="#bfbfbf" stroke="black" points="4.58244,-280.5 4.58244,-310.5 137.582,-310.5 137.582,-280.5 4.58244,-280.5"/>
<text text-anchor="start" x="12.5824" y="-298.5" font-family="Helvetica,sans-Serif" font-size="10.00">src/Components/Display</text>
<text text-anchor="middle" x="71.0824" y="-287.5" font-family="Helvetica,sans-Serif" font-size="10.00">/Button.cpp</text>
</g>
<!-- Node2 -->
<g id="node2" class="node"><title>Node2</title>
<g id="a_node2"><a xlink:href="Button_8hpp.html" target="_top" xlink:title="Button.hpp">
<polygon fill="none" stroke="black" points="36.0824,-224.5 36.0824,-243.5 106.082,-243.5 106.082,-224.5 36.0824,-224.5"/>
<text text-anchor="middle" x="71.0824" y="-231.5" font-family="Helvetica,sans-Serif" font-size="10.00">Button.hpp</text>
</a>
</g>
</g>
<!-- Node1&#45;&gt;Node2 -->
<g id="edge1" class="edge"><title>Node1&#45;&gt;Node2</title>
<path fill="none" stroke="midnightblue" d="M71.0824,-280.399C71.0824,-272.466 71.0824,-262.458 71.0824,-253.858"/>
<polygon fill="midnightblue" stroke="midnightblue" points="74.5825,-253.658 71.0824,-243.658 67.5825,-253.658 74.5825,-253.658"/>
</g>
<!-- Node3 -->
<g id="node3" class="node"><title>Node3</title>
<polygon fill="none" stroke="#bfbfbf" points="16.5824,-0.5 16.5824,-19.5 79.5824,-19.5 79.5824,-0.5 16.5824,-0.5"/>
<text text-anchor="middle" x="48.0824" y="-7.5" font-family="Helvetica,sans-Serif" font-size="10.00">typeindex</text>
</g>
<!-- Node2&#45;&gt;Node3 -->
<g id="edge2" class="edge"><title>Node2&#45;&gt;Node3</title>
<path fill="none" stroke="midnightblue" d="M51.1764,-224.41C36.8575,-217.04 18.6244,-204.916 10.0824,-188 -17.1355,-134.099 17.9029,-61.4097 37.0824,-28.492"/>
<polygon fill="midnightblue" stroke="midnightblue" points="40.2676,-29.9878 42.439,-19.6178 34.2748,-26.3703 40.2676,-29.9878"/>
</g>
<!-- Node4 -->
<g id="node4" class="node"><title>Node4</title>
<g id="a_node4"><a xlink:href="IUserInterface_8hpp.html" target="_top" xlink:title="IUserInterface.hpp">
<polygon fill="none" stroke="black" points="19.0824,-168.5 19.0824,-187.5 123.082,-187.5 123.082,-168.5 19.0824,-168.5"/>
<text text-anchor="middle" x="71.0824" y="-175.5" font-family="Helvetica,sans-Serif" font-size="10.00">IUserInterface.hpp</text>
</a>
</g>
</g>
<!-- Node2&#45;&gt;Node4 -->
<g id="edge3" class="edge"><title>Node2&#45;&gt;Node4</title>
<path fill="none" stroke="midnightblue" d="M71.0824,-224.083C71.0824,-217.006 71.0824,-206.861 71.0824,-197.986"/>
<polygon fill="midnightblue" stroke="midnightblue" points="74.5825,-197.751 71.0824,-187.751 67.5825,-197.751 74.5825,-197.751"/>
</g>
<!-- Node7 -->
<g id="node7" class="node"><title>Node7</title>
<g id="a_node7"><a xlink:href="SystemResponse_8hpp.html" target="_top" xlink:title="SystemResponse.hpp">
<polygon fill="none" stroke="black" points="141.082,-168.5 141.082,-187.5 261.082,-187.5 261.082,-168.5 141.082,-168.5"/>
<text text-anchor="middle" x="201.082" y="-175.5" font-family="Helvetica,sans-Serif" font-size="10.00">SystemResponse.hpp</text>
</a>
</g>
</g>
<!-- Node2&#45;&gt;Node7 -->
<g id="edge9" class="edge"><title>Node2&#45;&gt;Node7</title>
<path fill="none" stroke="midnightblue" d="M91.6813,-224.444C113.076,-215.557 146.764,-201.563 171.107,-191.451"/>
<polygon fill="midnightblue" stroke="midnightblue" points="172.688,-194.585 180.58,-187.516 170.002,-188.12 172.688,-194.585"/>
</g>
<!-- Node4&#45;&gt;Node3 -->
<g id="edge4" class="edge"><title>Node4&#45;&gt;Node3</title>
<path fill="none" stroke="midnightblue" d="M64.9778,-168.191C59.3278,-159.46 51.3271,-145.478 48.0824,-132 39.5894,-96.7217 42.5576,-53.9623 45.387,-29.8789"/>
<polygon fill="midnightblue" stroke="midnightblue" points="48.8955,-30.0387 46.7139,-19.671 41.9539,-29.1363 48.8955,-30.0387"/>
</g>
<!-- Node5 -->
<g id="node5" class="node"><title>Node5</title>
<g id="a_node5"><a xlink:href="IDisplay_8hpp.html" target="_top" xlink:title="IDisplay.hpp">
<polygon fill="none" stroke="black" points="57.5824,-112.5 57.5824,-131.5 130.582,-131.5 130.582,-112.5 57.5824,-112.5"/>
<text text-anchor="middle" x="94.0824" y="-119.5" font-family="Helvetica,sans-Serif" font-size="10.00">IDisplay.hpp</text>
</a>
</g>
</g>
<!-- Node4&#45;&gt;Node5 -->
<g id="edge5" class="edge"><title>Node4&#45;&gt;Node5</title>
<path fill="none" stroke="midnightblue" d="M74.8804,-168.083C77.9952,-160.77 82.5052,-150.181 86.3717,-141.103"/>
<polygon fill="midnightblue" stroke="midnightblue" points="89.6565,-142.323 90.3551,-131.751 83.2164,-139.58 89.6565,-142.323"/>
</g>
<!-- Node5&#45;&gt;Node3 -->
<g id="edge6" class="edge"><title>Node5&#45;&gt;Node3</title>
<path fill="none" stroke="midnightblue" d="M90.4729,-112.368C82.9824,-94.4563 65.614,-52.9233 55.588,-28.9482"/>
<polygon fill="midnightblue" stroke="midnightblue" points="58.7624,-27.4669 51.6752,-19.5914 52.3043,-30.1676 58.7624,-27.4669"/>
</g>
<!-- Node6 -->
<g id="node6" class="node"><title>Node6</title>
<g id="a_node6"><a xlink:href="IComponent_8hpp.html" target="_top" xlink:title="IComponent.hpp">
<polygon fill="none" stroke="black" points="95.0824,-56.5 95.0824,-75.5 191.082,-75.5 191.082,-56.5 95.0824,-56.5"/>
<text text-anchor="middle" x="143.082" y="-63.5" font-family="Helvetica,sans-Serif" font-size="10.00">IComponent.hpp</text>
</a>
</g>
</g>
<!-- Node5&#45;&gt;Node6 -->
<g id="edge7" class="edge"><title>Node5&#45;&gt;Node6</title>
<path fill="none" stroke="midnightblue" d="M102.174,-112.083C109.238,-104.298 119.67,-92.8015 128.231,-83.3665"/>
<polygon fill="midnightblue" stroke="midnightblue" points="131.014,-85.5087 135.142,-75.7511 125.83,-80.8047 131.014,-85.5087"/>
</g>
<!-- Node6&#45;&gt;Node3 -->
<g id="edge8" class="edge"><title>Node6&#45;&gt;Node3</title>
<path fill="none" stroke="midnightblue" d="M127.819,-56.324C112.861,-47.8215 89.8276,-34.7288 72.3558,-24.7975"/>
<polygon fill="midnightblue" stroke="midnightblue" points="73.7312,-21.5534 63.308,-19.6545 70.272,-27.639 73.7312,-21.5534"/>
</g>
<!-- Node8 -->
<g id="node8" class="node"><title>Node8</title>
<polygon fill="none" stroke="#bfbfbf" points="179.082,-112.5 179.082,-131.5 223.082,-131.5 223.082,-112.5 179.082,-112.5"/>
<text text-anchor="middle" x="201.082" y="-119.5" font-family="Helvetica,sans-Serif" font-size="10.00">string</text>
</g>
<!-- Node7&#45;&gt;Node8 -->
<g id="edge10" class="edge"><title>Node7&#45;&gt;Node8</title>
<path fill="none" stroke="midnightblue" d="M201.082,-168.083C201.082,-161.006 201.082,-150.861 201.082,-141.986"/>
<polygon fill="midnightblue" stroke="midnightblue" points="204.583,-141.751 201.082,-131.751 197.583,-141.751 204.583,-141.751"/>
</g>
</g>
</svg>
