<?xml version="1.0" encoding="UTF-8" standalone="no"?>
<!DOCTYPE svg PUBLIC "-//W3C//DTD SVG 1.1//EN"
 "http://www.w3.org/Graphics/SVG/1.1/DTD/svg11.dtd">
<!-- Generated by graphviz version 2.38.0 (20140413.2041)
 -->
<!-- Title: src/Systems/SystemConstructor/ButtonColorSystem/ButtonColorSystem.hpp Pages: 1 -->
<svg width="781pt" height="106pt"
 viewBox="0.00 0.00 780.50 106.00" xmlns="http://www.w3.org/2000/svg" xmlns:xlink="http://www.w3.org/1999/xlink">
<g id="graph0" class="graph" transform="scale(1 1) rotate(0) translate(4 102)">
<title>src/Systems/SystemConstructor/ButtonColorSystem/ButtonColorSystem.hpp</title>
<!-- Node1 -->
<g id="node1" class="node"><title>Node1</title>
<polygon fill="#bfbfbf" stroke="black" points="250,-67.5 250,-97.5 481,-97.5 481,-67.5 250,-67.5"/>
<text text-anchor="start" x="258" y="-85.5" font-family="Helvetica,sans-Serif" font-size="10.00">src/Systems/SystemConstructor</text>
<text text-anchor="middle" x="365.5" y="-74.5" font-family="Helvetica,sans-Serif" font-size="10.00">/ButtonColorSystem/ButtonColorSystem.hpp</text>
</g>
<!-- Node2 -->
<g id="node2" class="node"><title>Node2</title>
<g id="a_node2"><a xlink:href="ChooseRoomScene_8cpp.html" target="_top" xlink:title="src/Scenes/ChooseRoomScene.cpp">
<polygon fill="none" stroke="black" points="0,-6 0,-25 185,-25 185,-6 0,-6"/>
<text text-anchor="middle" x="92.5" y="-13" font-family="Helvetica,sans-Serif" font-size="10.00">src/Scenes/ChooseRoomScene.cpp</text>
</a>
</g>
</g>
<!-- Node1&#45;&gt;Node2 -->
<g id="edge1" class="edge"><title>Node1&#45;&gt;Node2</title>
<path fill="none" stroke="midnightblue" d="M296.825,-65.1489C243.256,-52.3942 171,-35.1905 128.32,-25.0287"/>
<polygon fill="midnightblue" stroke="midnightblue" points="296.06,-68.5645 306.599,-67.476 297.682,-61.7549 296.06,-68.5645"/>
</g>
<!-- Node3 -->
<g id="node3" class="node"><title>Node3</title>
<g id="a_node3"><a xlink:href="DefeatScene_8cpp.html" target="_top" xlink:title="src/Scenes/DefeatScene.cpp">
<polygon fill="none" stroke="black" points="203,-6 203,-25 358,-25 358,-6 203,-6"/>
<text text-anchor="middle" x="280.5" y="-13" font-family="Helvetica,sans-Serif" font-size="10.00">src/Scenes/DefeatScene.cpp</text>
</a>
</g>
</g>
<!-- Node1&#45;&gt;Node3 -->
<g id="edge2" class="edge"><title>Node1&#45;&gt;Node3</title>
<path fill="none" stroke="midnightblue" d="M338.703,-61.008C322.923,-48.9412 303.783,-34.3046 291.87,-25.1945"/>
<polygon fill="midnightblue" stroke="midnightblue" points="336.987,-64.1017 347.056,-67.396 341.239,-58.5412 336.987,-64.1017"/>
</g>
<!-- Node4 -->
<g id="node4" class="node"><title>Node4</title>
<g id="a_node4"><a xlink:href="MenuScene_8cpp.html" target="_top" xlink:title="src/Scenes/MenuScene.cpp">
<polygon fill="none" stroke="black" points="376,-6 376,-25 525,-25 525,-6 376,-6"/>
<text text-anchor="middle" x="450.5" y="-13" font-family="Helvetica,sans-Serif" font-size="10.00">src/Scenes/MenuScene.cpp</text>
</a>
</g>
</g>
<!-- Node1&#45;&gt;Node4 -->
<g id="edge3" class="edge"><title>Node1&#45;&gt;Node4</title>
<path fill="none" stroke="midnightblue" d="M392.297,-61.008C408.077,-48.9412 427.217,-34.3046 439.13,-25.1945"/>
<polygon fill="midnightblue" stroke="midnightblue" points="389.761,-58.5412 383.944,-67.396 394.013,-64.1017 389.761,-58.5412"/>
</g>
<!-- Node5 -->
<g id="node5" class="node"><title>Node5</title>
<g id="a_node5"><a xlink:href="ButtonColorSystem_8cpp.html" target="_top" xlink:title="src/Systems/SystemConstructor\l/ButtonColorSystem/ButtonColorSystem.cpp">
<polygon fill="none" stroke="black" points="542.5,-0.5 542.5,-30.5 772.5,-30.5 772.5,-0.5 542.5,-0.5"/>
<text text-anchor="start" x="550.5" y="-18.5" font-family="Helvetica,sans-Serif" font-size="10.00">src/Systems/SystemConstructor</text>
<text text-anchor="middle" x="657.5" y="-7.5" font-family="Helvetica,sans-Serif" font-size="10.00">/ButtonColorSystem/ButtonColorSystem.cpp</text>
</a>
</g>
</g>
<!-- Node1&#45;&gt;Node5 -->
<g id="edge4" class="edge"><title>Node1&#45;&gt;Node5</title>
<path fill="none" stroke="midnightblue" d="M438.506,-65.2486C486.455,-54.5751 548.545,-40.7536 594.361,-30.5549"/>
<polygon fill="midnightblue" stroke="midnightblue" points="437.501,-61.8867 428.5,-67.476 439.022,-68.7195 437.501,-61.8867"/>
</g>
</g>
</svg>
