<?xml version="1.0" encoding="UTF-8" standalone="no"?>
<!DOCTYPE svg PUBLIC "-//W3C//DTD SVG 1.1//EN"
 "http://www.w3.org/Graphics/SVG/1.1/DTD/svg11.dtd">
<!-- Generated by graphviz version 2.38.0 (20140413.2041)
 -->
<!-- Title: src/Components/Display/Button.hpp Pages: 1 -->
<svg width="268pt" height="263pt"
 viewBox="0.00 0.00 268.26 263.00" xmlns="http://www.w3.org/2000/svg" xmlns:xlink="http://www.w3.org/1999/xlink">
<g id="graph0" class="graph" transform="scale(1 1) rotate(0) translate(4 259)">
<title>src/Components/Display/Button.hpp</title>
<!-- Node1 -->
<g id="node1" class="node"><title>Node1</title>
<polygon fill="#bfbfbf" stroke="black" points="3.76396,-224.5 3.76396,-254.5 136.764,-254.5 136.764,-224.5 3.76396,-224.5"/>
<text text-anchor="start" x="11.764" y="-242.5" font-family="Helvetica,sans-Serif" font-size="10.00">src/Components/Display</text>
<text text-anchor="middle" x="70.264" y="-231.5" font-family="Helvetica,sans-Serif" font-size="10.00">/Button.hpp</text>
</g>
<!-- Node2 -->
<g id="node2" class="node"><title>Node2</title>
<polygon fill="none" stroke="#bfbfbf" points="15.764,-0.5 15.764,-19.5 78.764,-19.5 78.764,-0.5 15.764,-0.5"/>
<text text-anchor="middle" x="47.264" y="-7.5" font-family="Helvetica,sans-Serif" font-size="10.00">typeindex</text>
</g>
<!-- Node1&#45;&gt;Node2 -->
<g id="edge1" class="edge"><title>Node1&#45;&gt;Node2</title>
<path fill="none" stroke="midnightblue" d="M44.1222,-224.371C31.0585,-215.757 16.52,-203.427 9.26396,-188 -16.4365,-133.359 17.8417,-61.0405 36.5473,-28.3538"/>
<polygon fill="midnightblue" stroke="midnightblue" points="39.6802,-29.9324 41.7689,-19.5455 33.6587,-26.3628 39.6802,-29.9324"/>
</g>
<!-- Node3 -->
<g id="node3" class="node"><title>Node3</title>
<g id="a_node3"><a xlink:href="IUserInterface_8hpp.html" target="_top" xlink:title="IUserInterface.hpp">
<polygon fill="none" stroke="black" points="18.264,-168.5 18.264,-187.5 122.264,-187.5 122.264,-168.5 18.264,-168.5"/>
<text text-anchor="middle" x="70.264" y="-175.5" font-family="Helvetica,sans-Serif" font-size="10.00">IUserInterface.hpp</text>
</a>
</g>
</g>
<!-- Node1&#45;&gt;Node3 -->
<g id="edge2" class="edge"><title>Node1&#45;&gt;Node3</title>
<path fill="none" stroke="midnightblue" d="M70.264,-224.399C70.264,-216.466 70.264,-206.458 70.264,-197.858"/>
<polygon fill="midnightblue" stroke="midnightblue" points="73.7641,-197.658 70.264,-187.658 66.7641,-197.658 73.7641,-197.658"/>
</g>
<!-- Node6 -->
<g id="node6" class="node"><title>Node6</title>
<g id="a_node6"><a xlink:href="SystemResponse_8hpp.html" target="_top" xlink:title="SystemResponse.hpp">
<polygon fill="none" stroke="black" points="140.264,-168.5 140.264,-187.5 260.264,-187.5 260.264,-168.5 140.264,-168.5"/>
<text text-anchor="middle" x="200.264" y="-175.5" font-family="Helvetica,sans-Serif" font-size="10.00">SystemResponse.hpp</text>
</a>
</g>
</g>
<!-- Node1&#45;&gt;Node6 -->
<g id="edge8" class="edge"><title>Node1&#45;&gt;Node6</title>
<path fill="none" stroke="midnightblue" d="M101.072,-224.399C122.592,-214.55 151.101,-201.501 172.032,-191.922"/>
<polygon fill="midnightblue" stroke="midnightblue" points="173.712,-195.002 181.348,-187.658 170.798,-188.637 173.712,-195.002"/>
</g>
<!-- Node3&#45;&gt;Node2 -->
<g id="edge3" class="edge"><title>Node3&#45;&gt;Node2</title>
<path fill="none" stroke="midnightblue" d="M64.1594,-168.191C58.5093,-159.46 50.5086,-145.478 47.264,-132 38.7709,-96.7217 41.7391,-53.9623 44.5685,-29.8789"/>
<polygon fill="midnightblue" stroke="midnightblue" points="48.0771,-30.0387 45.8955,-19.671 41.1355,-29.1363 48.0771,-30.0387"/>
</g>
<!-- Node4 -->
<g id="node4" class="node"><title>Node4</title>
<g id="a_node4"><a xlink:href="IDisplay_8hpp.html" target="_top" xlink:title="IDisplay.hpp">
<polygon fill="none" stroke="black" points="56.764,-112.5 56.764,-131.5 129.764,-131.5 129.764,-112.5 56.764,-112.5"/>
<text text-anchor="middle" x="93.264" y="-119.5" font-family="Helvetica,sans-Serif" font-size="10.00">IDisplay.hpp</text>
</a>
</g>
</g>
<!-- Node3&#45;&gt;Node4 -->
<g id="edge4" class="edge"><title>Node3&#45;&gt;Node4</title>
<path fill="none" stroke="midnightblue" d="M74.0619,-168.083C77.1768,-160.77 81.6867,-150.181 85.5533,-141.103"/>
<polygon fill="midnightblue" stroke="midnightblue" points="88.8381,-142.323 89.5367,-131.751 82.3979,-139.58 88.8381,-142.323"/>
</g>
<!-- Node4&#45;&gt;Node2 -->
<g id="edge5" class="edge"><title>Node4&#45;&gt;Node2</title>
<path fill="none" stroke="midnightblue" d="M89.6544,-112.368C82.1639,-94.4563 64.7955,-52.9233 54.7696,-28.9482"/>
<polygon fill="midnightblue" stroke="midnightblue" points="57.9439,-27.4669 50.8567,-19.5914 51.4858,-30.1676 57.9439,-27.4669"/>
</g>
<!-- Node5 -->
<g id="node5" class="node"><title>Node5</title>
<g id="a_node5"><a xlink:href="IComponent_8hpp.html" target="_top" xlink:title="IComponent.hpp">
<polygon fill="none" stroke="black" points="94.264,-56.5 94.264,-75.5 190.264,-75.5 190.264,-56.5 94.264,-56.5"/>
<text text-anchor="middle" x="142.264" y="-63.5" font-family="Helvetica,sans-Serif" font-size="10.00">IComponent.hpp</text>
</a>
</g>
</g>
<!-- Node4&#45;&gt;Node5 -->
<g id="edge6" class="edge"><title>Node4&#45;&gt;Node5</title>
<path fill="none" stroke="midnightblue" d="M101.355,-112.083C108.419,-104.298 118.852,-92.8015 127.413,-83.3665"/>
<polygon fill="midnightblue" stroke="midnightblue" points="130.195,-85.5087 134.323,-75.7511 125.011,-80.8047 130.195,-85.5087"/>
</g>
<!-- Node5&#45;&gt;Node2 -->
<g id="edge7" class="edge"><title>Node5&#45;&gt;Node2</title>
<path fill="none" stroke="midnightblue" d="M127.001,-56.324C112.043,-47.8215 89.0092,-34.7288 71.5373,-24.7975"/>
<polygon fill="midnightblue" stroke="midnightblue" points="72.9128,-21.5534 62.4895,-19.6545 69.4536,-27.639 72.9128,-21.5534"/>
</g>
<!-- Node7 -->
<g id="node7" class="node"><title>Node7</title>
<polygon fill="none" stroke="#bfbfbf" points="178.264,-112.5 178.264,-131.5 222.264,-131.5 222.264,-112.5 178.264,-112.5"/>
<text text-anchor="middle" x="200.264" y="-119.5" font-family="Helvetica,sans-Serif" font-size="10.00">string</text>
</g>
<!-- Node6&#45;&gt;Node7 -->
<g id="edge9" class="edge"><title>Node6&#45;&gt;Node7</title>
<path fill="none" stroke="midnightblue" d="M200.264,-168.083C200.264,-161.006 200.264,-150.861 200.264,-141.986"/>
<polygon fill="midnightblue" stroke="midnightblue" points="203.764,-141.751 200.264,-131.751 196.764,-141.751 203.764,-141.751"/>
</g>
</g>
</svg>
