<?xml version="1.0" encoding="UTF-8" standalone="no"?>
<!DOCTYPE svg PUBLIC "-//W3C//DTD SVG 1.1//EN"
 "http://www.w3.org/Graphics/SVG/1.1/DTD/svg11.dtd">
<!-- Generated by graphviz version 2.38.0 (20140413.2041)
 -->
<!-- Title: src/Systems/SystemConstructor/ChooseRoomSystem/ChooseRoomSystem.hpp Pages: 1 -->
<svg width="453pt" height="106pt"
 viewBox="0.00 0.00 452.50 106.00" xmlns="http://www.w3.org/2000/svg" xmlns:xlink="http://www.w3.org/1999/xlink">
<g id="graph0" class="graph" transform="scale(1 1) rotate(0) translate(4 102)">
<title>src/Systems/SystemConstructor/ChooseRoomSystem/ChooseRoomSystem.hpp</title>
<!-- Node1 -->
<g id="node1" class="node"><title>Node1</title>
<polygon fill="#bfbfbf" stroke="black" points="86,-67.5 86,-97.5 329,-97.5 329,-67.5 86,-67.5"/>
<text text-anchor="start" x="94" y="-85.5" font-family="Helvetica,sans-Serif" font-size="10.00">src/Systems/SystemConstructor</text>
<text text-anchor="middle" x="207.5" y="-74.5" font-family="Helvetica,sans-Serif" font-size="10.00">/ChooseRoomSystem/ChooseRoomSystem.hpp</text>
</g>
<!-- Node2 -->
<g id="node2" class="node"><title>Node2</title>
<g id="a_node2"><a xlink:href="ChooseRoomScene_8cpp.html" target="_top" xlink:title="src/Scenes/ChooseRoomScene.cpp">
<polygon fill="none" stroke="black" points="0,-6 0,-25 185,-25 185,-6 0,-6"/>
<text text-anchor="middle" x="92.5" y="-13" font-family="Helvetica,sans-Serif" font-size="10.00">src/Scenes/ChooseRoomScene.cpp</text>
</a>
</g>
</g>
<!-- Node1&#45;&gt;Node2 -->
<g id="edge1" class="edge"><title>Node1&#45;&gt;Node2</title>
<path fill="none" stroke="midnightblue" d="M173.836,-62.4727C151.883,-50.0641 124.296,-34.4716 107.551,-25.007"/>
<polygon fill="midnightblue" stroke="midnightblue" points="172.119,-65.5223 182.547,-67.396 175.563,-59.4284 172.119,-65.5223"/>
</g>
<!-- Node3 -->
<g id="node3" class="node"><title>Node3</title>
<g id="a_node3"><a xlink:href="ChooseRoomSystem_8cpp.html" target="_top" xlink:title="src/Systems/SystemConstructor\l/ChooseRoomSystem/ChooseRoomSystem.cpp">
<polygon fill="none" stroke="black" points="202.5,-0.5 202.5,-30.5 444.5,-30.5 444.5,-0.5 202.5,-0.5"/>
<text text-anchor="start" x="210.5" y="-18.5" font-family="Helvetica,sans-Serif" font-size="10.00">src/Systems/SystemConstructor</text>
<text text-anchor="middle" x="323.5" y="-7.5" font-family="Helvetica,sans-Serif" font-size="10.00">/ChooseRoomSystem/ChooseRoomSystem.cpp</text>
</a>
</g>
</g>
<!-- Node1&#45;&gt;Node3 -->
<g id="edge2" class="edge"><title>Node1&#45;&gt;Node3</title>
<path fill="none" stroke="midnightblue" d="M241.772,-62.2956C259.923,-52.1248 281.82,-39.8549 298.379,-30.5765"/>
<polygon fill="midnightblue" stroke="midnightblue" points="239.683,-59.4543 232.67,-67.396 243.105,-65.5609 239.683,-59.4543"/>
</g>
</g>
</svg>
