<?xml version="1.0" encoding="UTF-8" standalone="no"?>
<!DOCTYPE svg PUBLIC "-//W3C//DTD SVG 1.1//EN"
 "http://www.w3.org/Graphics/SVG/1.1/DTD/svg11.dtd">
<!-- Generated by graphviz version 2.38.0 (20140413.2041)
 -->
<!-- Title: ecs::system::EnemiesMovementSystem Pages: 1 -->
<svg width="554pt" height="343pt"
 viewBox="0.00 0.00 553.50 343.00" xmlns="http://www.w3.org/2000/svg" xmlns:xlink="http://www.w3.org/1999/xlink">
<g id="graph0" class="graph" transform="scale(1 1) rotate(0) translate(4 339)">
<title>ecs::system::EnemiesMovementSystem</title>
<!-- Node1 -->
<g id="node1" class="node"><title>Node1</title>
<polygon fill="#bfbfbf" stroke="black" points="204,-0.5 204,-112.5 377,-112.5 377,-0.5 204,-0.5"/>
<text text-anchor="start" x="212" y="-100.5" font-family="Helvetica,sans-Serif" font-size="10.00">ecs::system::EnemiesMovement</text>
<text text-anchor="middle" x="290.5" y="-89.5" font-family="Helvetica,sans-Serif" font-size="10.00">System</text>
<polyline fill="none" stroke="black" points="204,-82.5 377,-82.5 "/>
<text text-anchor="middle" x="290.5" y="-70.5" font-family="Helvetica,sans-Serif" font-size="10.00"> </text>
<polyline fill="none" stroke="black" points="204,-63.5 377,-63.5 "/>
<text text-anchor="start" x="212" y="-51.5" font-family="Helvetica,sans-Serif" font-size="10.00">+ EnemiesMovementSystem()</text>
<text text-anchor="start" x="212" y="-40.5" font-family="Helvetica,sans-Serif" font-size="10.00">+ ~EnemiesMovementSystem()</text>
<text text-anchor="start" x="212" y="-29.5" font-family="Helvetica,sans-Serif" font-size="10.00">+ update()</text>
<text text-anchor="start" x="212" y="-18.5" font-family="Helvetica,sans-Serif" font-size="10.00">+ updateVelocityOnPattern()</text>
<text text-anchor="start" x="212" y="-7.5" font-family="Helvetica,sans-Serif" font-size="10.00">+ spawnRandomEnemies()</text>
</g>
<!-- Node2 -->
<g id="node2" class="node"><title>Node2</title>
<g id="a_node2"><a xlink:href="classecs_1_1system_1_1ASystem.html" target="_top" xlink:title="{ecs::system::ASystem\n||+ ASystem()\l+ ~ASystem()\l}">
<polygon fill="none" stroke="black" points="228.5,-150.5 228.5,-218.5 352.5,-218.5 352.5,-150.5 228.5,-150.5"/>
<text text-anchor="middle" x="290.5" y="-206.5" font-family="Helvetica,sans-Serif" font-size="10.00">ecs::system::ASystem</text>
<polyline fill="none" stroke="black" points="228.5,-199.5 352.5,-199.5 "/>
<text text-anchor="middle" x="290.5" y="-187.5" font-family="Helvetica,sans-Serif" font-size="10.00"> </text>
<polyline fill="none" stroke="black" points="228.5,-180.5 352.5,-180.5 "/>
<text text-anchor="start" x="236.5" y="-168.5" font-family="Helvetica,sans-Serif" font-size="10.00">+ ASystem()</text>
<text text-anchor="start" x="236.5" y="-157.5" font-family="Helvetica,sans-Serif" font-size="10.00">+ ~ASystem()</text>
</a>
</g>
</g>
<!-- Node2&#45;&gt;Node1 -->
<g id="edge1" class="edge"><title>Node2&#45;&gt;Node1</title>
<path fill="none" stroke="midnightblue" d="M290.5,-140.311C290.5,-131.452 290.5,-122.011 290.5,-112.794"/>
<polygon fill="none" stroke="midnightblue" points="287,-140.395 290.5,-150.395 294,-140.395 287,-140.395"/>
</g>
<!-- Node3 -->
<g id="node3" class="node"><title>Node3</title>
<g id="a_node3"><a xlink:href="classecs_1_1system_1_1ISystem.html" target="_top" xlink:title="{ecs::system::ISystem\n||+ update()\l}">
<polygon fill="none" stroke="black" points="0,-272 0,-329 119,-329 119,-272 0,-272"/>
<text text-anchor="middle" x="59.5" y="-317" font-family="Helvetica,sans-Serif" font-size="10.00">ecs::system::ISystem</text>
<polyline fill="none" stroke="black" points="0,-310 119,-310 "/>
<text text-anchor="middle" x="59.5" y="-298" font-family="Helvetica,sans-Serif" font-size="10.00"> </text>
<polyline fill="none" stroke="black" points="0,-291 119,-291 "/>
<text text-anchor="start" x="8" y="-279" font-family="Helvetica,sans-Serif" font-size="10.00">+ update()</text>
</a>
</g>
</g>
<!-- Node3&#45;&gt;Node2 -->
<g id="edge2" class="edge"><title>Node3&#45;&gt;Node2</title>
<path fill="none" stroke="midnightblue" d="M124.396,-267.473C156.893,-251.436 196.051,-232.111 228.183,-216.254"/>
<polygon fill="none" stroke="midnightblue" points="122.837,-264.34 115.419,-271.904 125.935,-270.617 122.837,-264.34"/>
</g>
<!-- Node4 -->
<g id="node4" class="node"><title>Node4</title>
<polygon fill="none" stroke="#bfbfbf" points="137.5,-266.5 137.5,-334.5 283.5,-334.5 283.5,-266.5 137.5,-266.5"/>
<text text-anchor="start" x="145.5" y="-322.5" font-family="Helvetica,sans-Serif" font-size="10.00">shared_ptr&lt; ecs::IManager</text>
<text text-anchor="middle" x="210.5" y="-311.5" font-family="Helvetica,sans-Serif" font-size="10.00">Wrapper &gt; &amp;</text>
<polyline fill="none" stroke="#bfbfbf" points="137.5,-304.5 283.5,-304.5 "/>
<text text-anchor="middle" x="210.5" y="-292.5" font-family="Helvetica,sans-Serif" font-size="10.00"> </text>
<polyline fill="none" stroke="#bfbfbf" points="137.5,-285.5 283.5,-285.5 "/>
<text text-anchor="middle" x="210.5" y="-273.5" font-family="Helvetica,sans-Serif" font-size="10.00"> </text>
</g>
<!-- Node4&#45;&gt;Node2 -->
<g id="edge3" class="edge"><title>Node4&#45;&gt;Node2</title>
<path fill="none" stroke="#404040" d="M229.588,-266.193C235.397,-256.596 241.977,-246.23 248.5,-237 250.498,-234.173 252.604,-231.302 254.766,-228.435"/>
<polygon fill="none" stroke="#404040" points="254.901,-228.261 255.416,-221.068 262.254,-218.777 261.738,-225.97 254.901,-228.261"/>
<text text-anchor="middle" x="298.5" y="-240" font-family="Helvetica,sans-Serif" font-size="10.00"> #_managerWrapper</text>
</g>
<!-- Node5 -->
<g id="node5" class="node"><title>Node5</title>
<polygon fill="none" stroke="#bfbfbf" points="302,-266.5 302,-334.5 439,-334.5 439,-266.5 302,-266.5"/>
<text text-anchor="start" x="310" y="-322.5" font-family="Helvetica,sans-Serif" font-size="10.00">shared_ptr&lt; ecs::entities</text>
<text text-anchor="middle" x="370.5" y="-311.5" font-family="Helvetica,sans-Serif" font-size="10.00">::IEntityFactory &gt; &amp;</text>
<polyline fill="none" stroke="#bfbfbf" points="302,-304.5 439,-304.5 "/>
<text text-anchor="middle" x="370.5" y="-292.5" font-family="Helvetica,sans-Serif" font-size="10.00"> </text>
<polyline fill="none" stroke="#bfbfbf" points="302,-285.5 439,-285.5 "/>
<text text-anchor="middle" x="370.5" y="-273.5" font-family="Helvetica,sans-Serif" font-size="10.00"> </text>
</g>
<!-- Node5&#45;&gt;Node2 -->
<g id="edge4" class="edge"><title>Node5&#45;&gt;Node2</title>
<path fill="none" stroke="#404040" d="M362.248,-266.23C358.903,-256.327 354.402,-245.785 348.5,-237 346.322,-233.758 343.894,-230.59 341.299,-227.521"/>
<polygon fill="none" stroke="#404040" points="341.237,-227.454 334.229,-225.755 333.101,-218.633 340.109,-220.331 341.237,-227.454"/>
<text text-anchor="middle" x="395" y="-240" font-family="Helvetica,sans-Serif" font-size="10.00"> #_entityFactory</text>
</g>
<!-- Node6 -->
<g id="node6" class="node"><title>Node6</title>
<polygon fill="none" stroke="#bfbfbf" points="457.5,-272 457.5,-329 533.5,-329 533.5,-272 457.5,-272"/>
<text text-anchor="middle" x="495.5" y="-317" font-family="Helvetica,sans-Serif" font-size="10.00">list&lt; int &gt; &amp;</text>
<polyline fill="none" stroke="#bfbfbf" points="457.5,-310 533.5,-310 "/>
<text text-anchor="middle" x="495.5" y="-298" font-family="Helvetica,sans-Serif" font-size="10.00"> </text>
<polyline fill="none" stroke="#bfbfbf" points="457.5,-291 533.5,-291 "/>
<text text-anchor="middle" x="495.5" y="-279" font-family="Helvetica,sans-Serif" font-size="10.00"> </text>
</g>
<!-- Node6&#45;&gt;Node2 -->
<g id="edge5" class="edge"><title>Node6&#45;&gt;Node2</title>
<path fill="none" stroke="#404040" d="M475.503,-271.969C465.532,-259.856 452.597,-246.299 438.5,-237 416.15,-222.257 389.112,-211.238 364.293,-203.259"/>
<polygon fill="none" stroke="#404040" points="364.166,-203.22 357.256,-205.281 352.696,-199.694 359.606,-197.634 364.166,-203.22"/>
<text text-anchor="middle" x="498.5" y="-240" font-family="Helvetica,sans-Serif" font-size="10.00"> #_entitiesToDelete</text>
</g>
</g>
</svg>
