<?xml version="1.0" encoding="UTF-8" standalone="no"?>
<!DOCTYPE svg PUBLIC "-//W3C//DTD SVG 1.1//EN"
 "http://www.w3.org/Graphics/SVG/1.1/DTD/svg11.dtd">
<!-- Generated by graphviz version 2.38.0 (20140413.2041)
 -->
<!-- Title: ecs::system::SystemManager Pages: 1 -->
<svg width="169pt" height="270pt"
 viewBox="0.00 0.00 169.00 270.00" xmlns="http://www.w3.org/2000/svg" xmlns:xlink="http://www.w3.org/1999/xlink">
<g id="graph0" class="graph" transform="scale(1 1) rotate(0) translate(4 266)">
<title>ecs::system::SystemManager</title>
<!-- Node1 -->
<g id="node1" class="node"><title>Node1</title>
<polygon fill="#bfbfbf" stroke="black" points="1,-0.5 1,-123.5 160,-123.5 160,-0.5 1,-0.5"/>
<text text-anchor="middle" x="80.5" y="-111.5" font-family="Helvetica,sans-Serif" font-size="10.00">ecs::system::SystemManager</text>
<polyline fill="none" stroke="black" points="1,-104.5 160,-104.5 "/>
<text text-anchor="middle" x="80.5" y="-92.5" font-family="Helvetica,sans-Serif" font-size="10.00"> </text>
<polyline fill="none" stroke="black" points="1,-85.5 160,-85.5 "/>
<text text-anchor="start" x="9" y="-73.5" font-family="Helvetica,sans-Serif" font-size="10.00">+ SystemManager()</text>
<text text-anchor="start" x="9" y="-62.5" font-family="Helvetica,sans-Serif" font-size="10.00">+ ~SystemManager()</text>
<text text-anchor="start" x="9" y="-51.5" font-family="Helvetica,sans-Serif" font-size="10.00">+ getEntitiesToDelete()</text>
<text text-anchor="start" x="9" y="-40.5" font-family="Helvetica,sans-Serif" font-size="10.00">+ updateAll()</text>
<text text-anchor="start" x="9" y="-29.5" font-family="Helvetica,sans-Serif" font-size="10.00">+ addSystem()</text>
<text text-anchor="start" x="9" y="-18.5" font-family="Helvetica,sans-Serif" font-size="10.00">+ deleteAll()</text>
<text text-anchor="start" x="9" y="-7.5" font-family="Helvetica,sans-Serif" font-size="10.00">+ setEntityFactory()</text>
</g>
<!-- Node2 -->
<g id="node2" class="node"><title>Node2</title>
<g id="a_node2"><a xlink:href="classecs_1_1system_1_1ISystemManager.html" target="_top" xlink:title="{ecs::system::ISystemManager\n||+ updateAll()\l+ getEntitiesToDelete()\l+ addSystem()\l+ deleteAll()\l+ setEntityFactory()\l}">
<polygon fill="none" stroke="black" points="0,-160.5 0,-261.5 161,-261.5 161,-160.5 0,-160.5"/>
<text text-anchor="middle" x="80.5" y="-249.5" font-family="Helvetica,sans-Serif" font-size="10.00">ecs::system::ISystemManager</text>
<polyline fill="none" stroke="black" points="0,-242.5 161,-242.5 "/>
<text text-anchor="middle" x="80.5" y="-230.5" font-family="Helvetica,sans-Serif" font-size="10.00"> </text>
<polyline fill="none" stroke="black" points="0,-223.5 161,-223.5 "/>
<text text-anchor="start" x="8" y="-211.5" font-family="Helvetica,sans-Serif" font-size="10.00">+ updateAll()</text>
<text text-anchor="start" x="8" y="-200.5" font-family="Helvetica,sans-Serif" font-size="10.00">+ getEntitiesToDelete()</text>
<text text-anchor="start" x="8" y="-189.5" font-family="Helvetica,sans-Serif" font-size="10.00">+ addSystem()</text>
<text text-anchor="start" x="8" y="-178.5" font-family="Helvetica,sans-Serif" font-size="10.00">+ deleteAll()</text>
<text text-anchor="start" x="8" y="-167.5" font-family="Helvetica,sans-Serif" font-size="10.00">+ setEntityFactory()</text>
</a>
</g>
</g>
<!-- Node2&#45;&gt;Node1 -->
<g id="edge1" class="edge"><title>Node2&#45;&gt;Node1</title>
<path fill="none" stroke="midnightblue" d="M80.5,-150.139C80.5,-141.411 80.5,-132.417 80.5,-123.672"/>
<polygon fill="none" stroke="midnightblue" points="77.0001,-150.232 80.5,-160.233 84.0001,-150.233 77.0001,-150.232"/>
</g>
</g>
</svg>
