<?xml version="1.0" encoding="UTF-8" standalone="no"?>
<!DOCTYPE svg PUBLIC "-//W3C//DTD SVG 1.1//EN"
 "http://www.w3.org/Graphics/SVG/1.1/DTD/svg11.dtd">
<!-- Generated by graphviz version 2.38.0 (20140413.2041)
 -->
<!-- Title: ecs::components::IPhysics Pages: 1 -->
<!--zoomable 689 -->
<svg id="main" version="1.1" xmlns="http://www.w3.org/2000/svg" xmlns:xlink="http://www.w3.org/1999/xlink" xml:space="preserve" onload="init(evt)">
<style type="text/css"><![CDATA[
.edge:hover path { stroke: red; }
.edge:hover polygon { stroke: red; fill: red; }
]]></style>
<script type="text/javascript"><![CDATA[
var edges = document.getElementsByTagName('g');
if (edges && edges.length) {
  for (var i=0;i<edges.length;i++) {
    if (edges[i].id.substr(0,4)=='edge') {
      edges[i].setAttribute('class','edge');
    }
  }
}
]]></script>
        <defs>
                <circle id="rim" cx="0" cy="0" r="7"/>
                <circle id="rim2" cx="0" cy="0" r="3.5"/>
                <g id="zoomPlus">
                        <use xlink:href="#rim" fill="#404040">
                                <set attributeName="fill" to="#808080" begin="zoomplus.mouseover" end="zoomplus.mouseout"/>
                        </use>
                        <path d="M-4,0h8M0,-4v8" fill="none" stroke="white" stroke-width="1.5" pointer-events="none"/>
                </g>
                <g id="zoomMin">
                        <use xlink:href="#rim" fill="#404040">
                                <set attributeName="fill" to="#808080" begin="zoomminus.mouseover" end="zoomminus.mouseout"/>
                        </use>
                        <path d="M-4,0h8" fill="none" stroke="white" stroke-width="1.5" pointer-events="none"/>
                </g>
                <g id="dirArrow">
                        <path fill="none" stroke="white" stroke-width="1.5" d="M0,-3.0v7 M-2.5,-0.5L0,-3.0L2.5,-0.5"/>
                </g>
               <g id="resetDef">
                       <use xlink:href="#rim2" fill="#404040">
                               <set attributeName="fill" to="#808080" begin="reset.mouseover" end="reset.mouseout"/>
                       </use>
               </g>
        </defs>

<script type="text/javascript">
var viewWidth = 958;
var viewHeight = 689;
var sectionId = 'dynsection-0';
</script>
<script xlink:href="svgpan.js"/>
<svg id="graph" class="graph">
<g id="viewport">
<title>ecs::components::IPhysics</title>
<!-- Node1 -->
<g id="node1" class="node"><title>Node1</title>
<polygon fill="#bfbfbf" stroke="black" points="395.5,-529.5 395.5,-586.5 538.5,-586.5 538.5,-529.5 395.5,-529.5"/>
<text text-anchor="middle" x="467" y="-574.5" font-family="Helvetica,sans-Serif" font-size="10.00">ecs::components::IPhysics</text>
<polyline fill="none" stroke="black" points="395.5,-567.5 538.5,-567.5 "/>
<text text-anchor="middle" x="467" y="-555.5" font-family="Helvetica,sans-Serif" font-size="10.00"> </text>
<polyline fill="none" stroke="black" points="395.5,-548.5 538.5,-548.5 "/>
<text text-anchor="middle" x="467" y="-536.5" font-family="Helvetica,sans-Serif" font-size="10.00"> </text>
</g>
<!-- Node3 -->
<g id="node3" class="node"><title>Node3</title>
<g id="a_node3"><a xlink:href="classecs_1_1components_1_1Collision.html" target="_top" xlink:title="Collision describes the collision of an Entity and an other Entity. ">
<polygon fill="none" stroke="black" points="0,-204.5 0,-492.5 144,-492.5 144,-204.5 0,-204.5"/>
<text text-anchor="middle" x="72" y="-480.5" font-family="Helvetica,sans-Serif" font-size="10.00">ecs::components::Collision</text>
<polyline fill="none" stroke="black" points="0,-473.5 144,-473.5 "/>
<text text-anchor="middle" x="72" y="-461.5" font-family="Helvetica,sans-Serif" font-size="10.00"> </text>
<polyline fill="none" stroke="black" points="0,-454.5 144,-454.5 "/>
<text text-anchor="start" x="8" y="-442.5" font-family="Helvetica,sans-Serif" font-size="10.00">+ Collision()</text>
<text text-anchor="start" x="8" y="-431.5" font-family="Helvetica,sans-Serif" font-size="10.00">+ Collision()</text>
<text text-anchor="start" x="8" y="-420.5" font-family="Helvetica,sans-Serif" font-size="10.00">+ ~Collision()</text>
<text text-anchor="start" x="8" y="-409.5" font-family="Helvetica,sans-Serif" font-size="10.00">+ operator==()</text>
<text text-anchor="start" x="8" y="-398.5" font-family="Helvetica,sans-Serif" font-size="10.00">+ isColliding()</text>
<text text-anchor="start" x="8" y="-387.5" font-family="Helvetica,sans-Serif" font-size="10.00">+ setCollinding()</text>
<text text-anchor="start" x="8" y="-376.5" font-family="Helvetica,sans-Serif" font-size="10.00">+ isTriggered()</text>
<text text-anchor="start" x="8" y="-365.5" font-family="Helvetica,sans-Serif" font-size="10.00">+ setTriggered()</text>
<text text-anchor="start" x="8" y="-354.5" font-family="Helvetica,sans-Serif" font-size="10.00">+ getCollidedTags()</text>
<text text-anchor="start" x="8" y="-343.5" font-family="Helvetica,sans-Serif" font-size="10.00">+ clearTags()</text>
<text text-anchor="start" x="8" y="-332.5" font-family="Helvetica,sans-Serif" font-size="10.00">+ addTag()</text>
<text text-anchor="start" x="8" y="-321.5" font-family="Helvetica,sans-Serif" font-size="10.00">+ getTag()</text>
<text text-anchor="start" x="8" y="-310.5" font-family="Helvetica,sans-Serif" font-size="10.00">+ setTag()</text>
<text text-anchor="start" x="8" y="-299.5" font-family="Helvetica,sans-Serif" font-size="10.00">+ setX()</text>
<text text-anchor="start" x="8" y="-288.5" font-family="Helvetica,sans-Serif" font-size="10.00">+ setY()</text>
<text text-anchor="start" x="8" y="-277.5" font-family="Helvetica,sans-Serif" font-size="10.00">+ setHeight()</text>
<text text-anchor="start" x="8" y="-266.5" font-family="Helvetica,sans-Serif" font-size="10.00">+ setWidth()</text>
<text text-anchor="start" x="8" y="-255.5" font-family="Helvetica,sans-Serif" font-size="10.00">+ getX()</text>
<text text-anchor="start" x="8" y="-244.5" font-family="Helvetica,sans-Serif" font-size="10.00">+ getY()</text>
<text text-anchor="start" x="8" y="-233.5" font-family="Helvetica,sans-Serif" font-size="10.00">+ getHeight()</text>
<text text-anchor="start" x="8" y="-222.5" font-family="Helvetica,sans-Serif" font-size="10.00">+ getWidth()</text>
<text text-anchor="start" x="8" y="-211.5" font-family="Helvetica,sans-Serif" font-size="10.00">+ getType()</text>
</a>
</g>
</g>
<!-- Node1&#45;&gt;Node3 -->
<g id="edge2" class="edge"><title>Node1&#45;&gt;Node3</title>
<path fill="none" stroke="midnightblue" d="M385.21,-548.097C304.914,-538.005 189.347,-519.445 153,-493 149.993,-490.812 147.082,-488.476 144.266,-486.013"/>
<polygon fill="none" stroke="midnightblue" points="384.957,-551.592 395.311,-549.346 385.816,-544.645 384.957,-551.592"/>
</g>
<!-- Node4 -->
<g id="node4" class="node"><title>Node4</title>
<g id="a_node4"><a xlink:href="classecs_1_1components_1_1Gravity.html" target="_top" xlink:title="Gravity describes the gravity of an Entity. ">
<polygon fill="none" stroke="black" points="162.5,-287 162.5,-410 301.5,-410 301.5,-287 162.5,-287"/>
<text text-anchor="middle" x="232" y="-398" font-family="Helvetica,sans-Serif" font-size="10.00">ecs::components::Gravity</text>
<polyline fill="none" stroke="black" points="162.5,-391 301.5,-391 "/>
<text text-anchor="middle" x="232" y="-379" font-family="Helvetica,sans-Serif" font-size="10.00"> </text>
<polyline fill="none" stroke="black" points="162.5,-372 301.5,-372 "/>
<text text-anchor="start" x="170.5" y="-360" font-family="Helvetica,sans-Serif" font-size="10.00">+ Gravity()</text>
<text text-anchor="start" x="170.5" y="-349" font-family="Helvetica,sans-Serif" font-size="10.00">+ Gravity()</text>
<text text-anchor="start" x="170.5" y="-338" font-family="Helvetica,sans-Serif" font-size="10.00">+ ~Gravity()</text>
<text text-anchor="start" x="170.5" y="-327" font-family="Helvetica,sans-Serif" font-size="10.00">+ operator==()</text>
<text text-anchor="start" x="170.5" y="-316" font-family="Helvetica,sans-Serif" font-size="10.00">+ setValue()</text>
<text text-anchor="start" x="170.5" y="-305" font-family="Helvetica,sans-Serif" font-size="10.00">+ getValue()</text>
<text text-anchor="start" x="170.5" y="-294" font-family="Helvetica,sans-Serif" font-size="10.00">+ getType()</text>
</a>
</g>
</g>
<!-- Node1&#45;&gt;Node4 -->
<g id="edge3" class="edge"><title>Node1&#45;&gt;Node4</title>
<path fill="none" stroke="midnightblue" d="M385.586,-535.795C359.268,-525.989 331.391,-512.143 310,-493 285.067,-470.687 266.547,-438.455 253.825,-410.189"/>
<polygon fill="none" stroke="midnightblue" points="384.602,-539.16 395.196,-539.228 386.956,-532.568 384.602,-539.16"/>
</g>
<!-- Node5 -->
<g id="node5" class="node"><title>Node5</title>
<g id="a_node5"><a xlink:href="classecs_1_1components_1_1Motion.html" target="_top" xlink:title="Motion describes the Motion like the Velocity and the Acceleration of an Entity. ">
<polygon fill="none" stroke="black" points="319.5,-309 319.5,-388 456.5,-388 456.5,-309 319.5,-309"/>
<text text-anchor="middle" x="388" y="-376" font-family="Helvetica,sans-Serif" font-size="10.00">ecs::components::Motion</text>
<polyline fill="none" stroke="black" points="319.5,-369 456.5,-369 "/>
<text text-anchor="middle" x="388" y="-357" font-family="Helvetica,sans-Serif" font-size="10.00"> </text>
<polyline fill="none" stroke="black" points="319.5,-350 456.5,-350 "/>
<text text-anchor="start" x="327.5" y="-338" font-family="Helvetica,sans-Serif" font-size="10.00">+ Motion()</text>
<text text-anchor="start" x="327.5" y="-327" font-family="Helvetica,sans-Serif" font-size="10.00">+ ~Motion()</text>
<text text-anchor="start" x="327.5" y="-316" font-family="Helvetica,sans-Serif" font-size="10.00">+ operator==()</text>
</a>
</g>
</g>
<!-- Node1&#45;&gt;Node5 -->
<g id="edge4" class="edge"><title>Node1&#45;&gt;Node5</title>
<path fill="none" stroke="midnightblue" d="M452.909,-519.989C438.764,-482.837 417.067,-425.847 402.708,-388.131"/>
<polygon fill="none" stroke="midnightblue" points="449.68,-521.345 456.509,-529.446 456.222,-518.855 449.68,-521.345"/>
</g>
<!-- Node8 -->
<g id="node8" class="node"><title>Node8</title>
<g id="a_node8"><a xlink:href="classecs_1_1components_1_1Position.html" target="_top" xlink:title="{ecs::components::Position\n||+ Position()\l+ Position()\l+ ~Position()\l+ operator==()\l+ getX()\l+ getY()\l+ getPosition()\l+ setX()\l+ setY()\l+ setPosition()\l+ getType()\l}">
<polygon fill="none" stroke="black" points="474.5,-265 474.5,-432 617.5,-432 617.5,-265 474.5,-265"/>
<text text-anchor="middle" x="546" y="-420" font-family="Helvetica,sans-Serif" font-size="10.00">ecs::components::Position</text>
<polyline fill="none" stroke="black" points="474.5,-413 617.5,-413 "/>
<text text-anchor="middle" x="546" y="-401" font-family="Helvetica,sans-Serif" font-size="10.00"> </text>
<polyline fill="none" stroke="black" points="474.5,-394 617.5,-394 "/>
<text text-anchor="start" x="482.5" y="-382" font-family="Helvetica,sans-Serif" font-size="10.00">+ Position()</text>
<text text-anchor="start" x="482.5" y="-371" font-family="Helvetica,sans-Serif" font-size="10.00">+ Position()</text>
<text text-anchor="start" x="482.5" y="-360" font-family="Helvetica,sans-Serif" font-size="10.00">+ ~Position()</text>
<text text-anchor="start" x="482.5" y="-349" font-family="Helvetica,sans-Serif" font-size="10.00">+ operator==()</text>
<text text-anchor="start" x="482.5" y="-338" font-family="Helvetica,sans-Serif" font-size="10.00">+ getX()</text>
<text text-anchor="start" x="482.5" y="-327" font-family="Helvetica,sans-Serif" font-size="10.00">+ getY()</text>
<text text-anchor="start" x="482.5" y="-316" font-family="Helvetica,sans-Serif" font-size="10.00">+ getPosition()</text>
<text text-anchor="start" x="482.5" y="-305" font-family="Helvetica,sans-Serif" font-size="10.00">+ setX()</text>
<text text-anchor="start" x="482.5" y="-294" font-family="Helvetica,sans-Serif" font-size="10.00">+ setY()</text>
<text text-anchor="start" x="482.5" y="-283" font-family="Helvetica,sans-Serif" font-size="10.00">+ setPosition()</text>
<text text-anchor="start" x="482.5" y="-272" font-family="Helvetica,sans-Serif" font-size="10.00">+ getType()</text>
</a>
</g>
</g>
<!-- Node1&#45;&gt;Node8 -->
<g id="edge7" class="edge"><title>Node1&#45;&gt;Node8</title>
<path fill="none" stroke="midnightblue" d="M481.127,-519.894C490.397,-495.545 502.9,-462.705 514.456,-432.354"/>
<polygon fill="none" stroke="midnightblue" points="477.778,-518.855 477.491,-529.446 484.32,-521.345 477.778,-518.855"/>
</g>
<!-- Node9 -->
<g id="node9" class="node"><title>Node9</title>
<g id="a_node9"><a xlink:href="classecs_1_1components_1_1Rotation.html" target="_top" xlink:title="Rotation describes the Rotation of an Entity. ">
<polygon fill="none" stroke="black" points="636,-287 636,-410 780,-410 780,-287 636,-287"/>
<text text-anchor="middle" x="708" y="-398" font-family="Helvetica,sans-Serif" font-size="10.00">ecs::components::Rotation</text>
<polyline fill="none" stroke="black" points="636,-391 780,-391 "/>
<text text-anchor="middle" x="708" y="-379" font-family="Helvetica,sans-Serif" font-size="10.00"> </text>
<polyline fill="none" stroke="black" points="636,-372 780,-372 "/>
<text text-anchor="start" x="644" y="-360" font-family="Helvetica,sans-Serif" font-size="10.00">+ Rotation()</text>
<text text-anchor="start" x="644" y="-349" font-family="Helvetica,sans-Serif" font-size="10.00">+ Rotation()</text>
<text text-anchor="start" x="644" y="-338" font-family="Helvetica,sans-Serif" font-size="10.00">+ ~Rotation()</text>
<text text-anchor="start" x="644" y="-327" font-family="Helvetica,sans-Serif" font-size="10.00">+ operator==()</text>
<text text-anchor="start" x="644" y="-316" font-family="Helvetica,sans-Serif" font-size="10.00">+ setRadAngle()</text>
<text text-anchor="start" x="644" y="-305" font-family="Helvetica,sans-Serif" font-size="10.00">+ getRadAngle()</text>
<text text-anchor="start" x="644" y="-294" font-family="Helvetica,sans-Serif" font-size="10.00">+ getType()</text>
</a>
</g>
</g>
<!-- Node1&#45;&gt;Node9 -->
<g id="edge8" class="edge"><title>Node1&#45;&gt;Node9</title>
<path fill="none" stroke="midnightblue" d="M548.13,-536.112C575.078,-526.276 603.832,-512.332 626,-493 651.518,-470.746 670.934,-438.519 684.451,-410.241"/>
<polygon fill="none" stroke="midnightblue" points="546.966,-532.811 538.686,-539.421 549.281,-539.417 546.966,-532.811"/>
</g>
<!-- Node10 -->
<g id="node10" class="node"><title>Node10</title>
<g id="a_node10"><a xlink:href="classecs_1_1components_1_1Transform.html" target="_top" xlink:title="Transform describes the Transform of an Entity. ">
<polygon fill="none" stroke="black" points="798,-287 798,-410 950,-410 950,-287 798,-287"/>
<text text-anchor="middle" x="874" y="-398" font-family="Helvetica,sans-Serif" font-size="10.00">ecs::components::Transform</text>
<polyline fill="none" stroke="black" points="798,-391 950,-391 "/>
<text text-anchor="middle" x="874" y="-379" font-family="Helvetica,sans-Serif" font-size="10.00"> </text>
<polyline fill="none" stroke="black" points="798,-372 950,-372 "/>
<text text-anchor="start" x="806" y="-360" font-family="Helvetica,sans-Serif" font-size="10.00">+ Transform()</text>
<text text-anchor="start" x="806" y="-349" font-family="Helvetica,sans-Serif" font-size="10.00">+ Transform()</text>
<text text-anchor="start" x="806" y="-338" font-family="Helvetica,sans-Serif" font-size="10.00">+ ~Transform()</text>
<text text-anchor="start" x="806" y="-327" font-family="Helvetica,sans-Serif" font-size="10.00">+ operator==()</text>
<text text-anchor="start" x="806" y="-316" font-family="Helvetica,sans-Serif" font-size="10.00">+ setValue()</text>
<text text-anchor="start" x="806" y="-305" font-family="Helvetica,sans-Serif" font-size="10.00">+ getValue()</text>
<text text-anchor="start" x="806" y="-294" font-family="Helvetica,sans-Serif" font-size="10.00">+ getType()</text>
</a>
</g>
</g>
<!-- Node1&#45;&gt;Node10 -->
<g id="edge9" class="edge"><title>Node1&#45;&gt;Node10</title>
<path fill="none" stroke="midnightblue" d="M548.672,-548.417C630.982,-538.439 751.1,-519.836 789,-493 817.594,-472.753 838.147,-439.588 851.873,-410.239"/>
<polygon fill="none" stroke="midnightblue" points="548.094,-544.961 538.578,-549.621 548.922,-551.912 548.094,-544.961"/>
</g>
<!-- Node2 -->
<g id="node2" class="node"><title>Node2</title>
<g id="a_node2"><a xlink:href="classecs_1_1components_1_1IComponent.html" target="_top" xlink:title="Icomponent describes an attribute of an Entity. ">
<polygon fill="none" stroke="black" points="385,-623.5 385,-680.5 549,-680.5 549,-623.5 385,-623.5"/>
<text text-anchor="middle" x="467" y="-668.5" font-family="Helvetica,sans-Serif" font-size="10.00">ecs::components::IComponent</text>
<polyline fill="none" stroke="black" points="385,-661.5 549,-661.5 "/>
<text text-anchor="middle" x="467" y="-649.5" font-family="Helvetica,sans-Serif" font-size="10.00"> </text>
<polyline fill="none" stroke="black" points="385,-642.5 549,-642.5 "/>
<text text-anchor="start" x="393" y="-630.5" font-family="Helvetica,sans-Serif" font-size="10.00">+ getType()</text>
</a>
</g>
</g>
<!-- Node2&#45;&gt;Node1 -->
<g id="edge1" class="edge"><title>Node2&#45;&gt;Node1</title>
<path fill="none" stroke="midnightblue" d="M467,-613.209C467,-604.293 467,-594.951 467,-586.584"/>
<polygon fill="none" stroke="midnightblue" points="463.5,-613.397 467,-623.397 470.5,-613.397 463.5,-613.397"/>
</g>
<!-- Node6 -->
<g id="node6" class="node"><title>Node6</title>
<g id="a_node6"><a xlink:href="classecs_1_1components_1_1Acceleration.html" target="_top" xlink:title="Acceleration describes the Acceleration of an Entity. ">
<polygon fill="none" stroke="black" points="221,-22.5 221,-145.5 385,-145.5 385,-22.5 221,-22.5"/>
<text text-anchor="middle" x="303" y="-133.5" font-family="Helvetica,sans-Serif" font-size="10.00">ecs::components::Acceleration</text>
<polyline fill="none" stroke="black" points="221,-126.5 385,-126.5 "/>
<text text-anchor="middle" x="303" y="-114.5" font-family="Helvetica,sans-Serif" font-size="10.00"> </text>
<polyline fill="none" stroke="black" points="221,-107.5 385,-107.5 "/>
<text text-anchor="start" x="229" y="-95.5" font-family="Helvetica,sans-Serif" font-size="10.00">+ Acceleration()</text>
<text text-anchor="start" x="229" y="-84.5" font-family="Helvetica,sans-Serif" font-size="10.00">+ Acceleration()</text>
<text text-anchor="start" x="229" y="-73.5" font-family="Helvetica,sans-Serif" font-size="10.00">+ ~Acceleration()</text>
<text text-anchor="start" x="229" y="-62.5" font-family="Helvetica,sans-Serif" font-size="10.00">+ operator==()</text>
<text text-anchor="start" x="229" y="-51.5" font-family="Helvetica,sans-Serif" font-size="10.00">+ setValue()</text>
<text text-anchor="start" x="229" y="-40.5" font-family="Helvetica,sans-Serif" font-size="10.00">+ getValue()</text>
<text text-anchor="start" x="229" y="-29.5" font-family="Helvetica,sans-Serif" font-size="10.00">+ getType()</text>
</a>
</g>
</g>
<!-- Node5&#45;&gt;Node6 -->
<g id="edge5" class="edge"><title>Node5&#45;&gt;Node6</title>
<path fill="none" stroke="midnightblue" d="M372.308,-299.041C358.294,-255.761 337.708,-192.185 322.612,-145.565"/>
<polygon fill="none" stroke="midnightblue" points="369.047,-300.332 375.458,-308.767 375.707,-298.175 369.047,-300.332"/>
</g>
<!-- Node7 -->
<g id="node7" class="node"><title>Node7</title>
<g id="a_node7"><a xlink:href="classecs_1_1components_1_1Velocity.html" target="_top" xlink:title="Velocity describes the Velocity of an Entity. ">
<polygon fill="none" stroke="black" points="403,-0.5 403,-167.5 545,-167.5 545,-0.5 403,-0.5"/>
<text text-anchor="middle" x="474" y="-155.5" font-family="Helvetica,sans-Serif" font-size="10.00">ecs::components::Velocity</text>
<polyline fill="none" stroke="black" points="403,-148.5 545,-148.5 "/>
<text text-anchor="middle" x="474" y="-136.5" font-family="Helvetica,sans-Serif" font-size="10.00"> </text>
<polyline fill="none" stroke="black" points="403,-129.5 545,-129.5 "/>
<text text-anchor="start" x="411" y="-117.5" font-family="Helvetica,sans-Serif" font-size="10.00">+ Velocity()</text>
<text text-anchor="start" x="411" y="-106.5" font-family="Helvetica,sans-Serif" font-size="10.00">+ Velocity()</text>
<text text-anchor="start" x="411" y="-95.5" font-family="Helvetica,sans-Serif" font-size="10.00">+ ~Velocity()</text>
<text text-anchor="start" x="411" y="-84.5" font-family="Helvetica,sans-Serif" font-size="10.00">+ operator==()</text>
<text text-anchor="start" x="411" y="-73.5" font-family="Helvetica,sans-Serif" font-size="10.00">+ setVelocityX()</text>
<text text-anchor="start" x="411" y="-62.5" font-family="Helvetica,sans-Serif" font-size="10.00">+ getVelocityX()</text>
<text text-anchor="start" x="411" y="-51.5" font-family="Helvetica,sans-Serif" font-size="10.00">+ setVelocityY()</text>
<text text-anchor="start" x="411" y="-40.5" font-family="Helvetica,sans-Serif" font-size="10.00">+ getVelocityY()</text>
<text text-anchor="start" x="411" y="-29.5" font-family="Helvetica,sans-Serif" font-size="10.00">+ setVelocity()</text>
<text text-anchor="start" x="411" y="-18.5" font-family="Helvetica,sans-Serif" font-size="10.00">+ getVelocity()</text>
<text text-anchor="start" x="411" y="-7.5" font-family="Helvetica,sans-Serif" font-size="10.00">+ getType()</text>
</a>
</g>
</g>
<!-- Node5&#45;&gt;Node7 -->
<g id="edge6" class="edge"><title>Node5&#45;&gt;Node7</title>
<path fill="none" stroke="midnightblue" d="M403.954,-298.802C415.999,-262.038 432.809,-210.727 446.943,-167.587"/>
<polygon fill="none" stroke="midnightblue" points="400.477,-298.175 400.69,-308.767 407.129,-300.354 400.477,-298.175"/>
</g>
</g>
</svg>
        <g id="navigator" transform="translate(0 0)" fill="#404254">
                <rect fill="#f2f5e9" fill-opacity="0.5" stroke="#606060" stroke-width=".5" x="0" y="0" width="60" height="60"/>
                <use id="zoomplus" xlink:href="#zoomPlus" x="17" y="9" onmousedown="handleZoom(evt,'in')"/>
                <use id="zoomminus" xlink:href="#zoomMin" x="42" y="9" onmousedown="handleZoom(evt,'out')"/>
                <use id="reset" xlink:href="#resetDef" x="30" y="36" onmousedown="handleReset()"/>
                <g id="arrowUp" xlink:href="#dirArrow" transform="translate(30 24)" onmousedown="handlePan(0,-1)">
                  <use xlink:href="#rim" fill="#404040">
                        <set attributeName="fill" to="#808080" begin="arrowUp.mouseover" end="arrowUp.mouseout"/>
                  </use>
                  <path fill="none" stroke="white" stroke-width="1.5" d="M0,-3.0v7 M-2.5,-0.5L0,-3.0L2.5,-0.5"/>
                </g>
                <g id="arrowRight" xlink:href="#dirArrow" transform="rotate(90) translate(36 -43)" onmousedown="handlePan(1,0)">
                  <use xlink:href="#rim" fill="#404040">
                        <set attributeName="fill" to="#808080" begin="arrowRight.mouseover" end="arrowRight.mouseout"/>
                  </use>
                  <path fill="none" stroke="white" stroke-width="1.5" d="M0,-3.0v7 M-2.5,-0.5L0,-3.0L2.5,-0.5"/>
                </g>
                <g id="arrowDown" xlink:href="#dirArrow" transform="rotate(180) translate(-30 -48)" onmousedown="handlePan(0,1)">
                  <use xlink:href="#rim" fill="#404040">
                        <set attributeName="fill" to="#808080" begin="arrowDown.mouseover" end="arrowDown.mouseout"/>
                  </use>
                  <path fill="none" stroke="white" stroke-width="1.5" d="M0,-3.0v7 M-2.5,-0.5L0,-3.0L2.5,-0.5"/>
                </g>
                <g id="arrowLeft" xlink:href="#dirArrow" transform="rotate(270) translate(-36 17)" onmousedown="handlePan(-1,0)">
                  <use xlink:href="#rim" fill="#404040">
                        <set attributeName="fill" to="#808080" begin="arrowLeft.mouseover" end="arrowLeft.mouseout"/>
                  </use>
                  <path fill="none" stroke="white" stroke-width="1.5" d="M0,-3.0v7 M-2.5,-0.5L0,-3.0L2.5,-0.5"/>
                </g>
        </g>
        <svg viewBox="0 0 15 15" width="100%" height="30px" preserveAspectRatio="xMaxYMin meet">
         <g id="arrow_out" transform="scale(0.3 0.3)">
          <a xlink:href="classecs_1_1components_1_1IPhysics__inherit__graph_org.svg" target="_base">
           <rect id="button" ry="5" rx="5" y="6" x="6" height="38" width="38"
                fill="#f2f5e9" fill-opacity="0.5" stroke="#606060" stroke-width="1.0"/>
           <path id="arrow"
             d="M 11.500037,31.436501 C 11.940474,20.09759 22.043105,11.32322 32.158766,21.979434 L 37.068811,17.246167 C 37.068811,17.246167 37.088388,32 37.088388,32 L 22.160133,31.978069 C 22.160133,31.978069 26.997745,27.140456 26.997745,27.140456 C 18.528582,18.264221 13.291696,25.230495 11.500037,31.436501 z"
             style="fill:#404040;"/>
          </a>
         </g>
        </svg>
</svg>
