<?xml version="1.0" encoding="UTF-8" standalone="no"?>
<!DOCTYPE svg PUBLIC "-//W3C//DTD SVG 1.1//EN"
 "http://www.w3.org/Graphics/SVG/1.1/DTD/svg11.dtd">
<!-- Generated by graphviz version 2.38.0 (20140413.2041)
 -->
<!-- Title: ecs::GameScene Pages: 1 -->
<svg width="111pt" height="171pt"
 viewBox="0.00 0.00 111.00 171.00" xmlns="http://www.w3.org/2000/svg" xmlns:xlink="http://www.w3.org/1999/xlink">
<g id="graph0" class="graph" transform="scale(1 1) rotate(0) translate(4 167)">
<title>ecs::GameScene</title>
<!-- Node1 -->
<g id="node1" class="node"><title>Node1</title>
<polygon fill="#bfbfbf" stroke="black" points="0,-0.5 0,-68.5 103,-68.5 103,-0.5 0,-0.5"/>
<text text-anchor="middle" x="51.5" y="-56.5" font-family="Helvetica,sans-Serif" font-size="10.00">ecs::GameScene</text>
<polyline fill="none" stroke="black" points="0,-49.5 103,-49.5 "/>
<text text-anchor="middle" x="51.5" y="-37.5" font-family="Helvetica,sans-Serif" font-size="10.00"> </text>
<polyline fill="none" stroke="black" points="0,-30.5 103,-30.5 "/>
<text text-anchor="start" x="8" y="-18.5" font-family="Helvetica,sans-Serif" font-size="10.00">+ GameScene()</text>
<text text-anchor="start" x="8" y="-7.5" font-family="Helvetica,sans-Serif" font-size="10.00">+ ~GameScene()</text>
</g>
<!-- Node2 -->
<g id="node2" class="node"><title>Node2</title>
<g id="a_node2"><a xlink:href="classecs_1_1IScene.html" target="_top" xlink:title="Scene for the game. ">
<polygon fill="none" stroke="black" points="16,-105.5 16,-162.5 87,-162.5 87,-105.5 16,-105.5"/>
<text text-anchor="middle" x="51.5" y="-150.5" font-family="Helvetica,sans-Serif" font-size="10.00">ecs::IScene</text>
<polyline fill="none" stroke="black" points="16,-143.5 87,-143.5 "/>
<text text-anchor="middle" x="51.5" y="-131.5" font-family="Helvetica,sans-Serif" font-size="10.00"> </text>
<polyline fill="none" stroke="black" points="16,-124.5 87,-124.5 "/>
<text text-anchor="middle" x="51.5" y="-112.5" font-family="Helvetica,sans-Serif" font-size="10.00"> </text>
</a>
</g>
</g>
<!-- Node2&#45;&gt;Node1 -->
<g id="edge1" class="edge"><title>Node2&#45;&gt;Node1</title>
<path fill="none" stroke="midnightblue" d="M51.5,-95.0631C51.5,-86.3933 51.5,-77.2431 51.5,-68.7855"/>
<polygon fill="none" stroke="midnightblue" points="48.0001,-95.3212 51.5,-105.321 55.0001,-95.3212 48.0001,-95.3212"/>
</g>
</g>
</svg>
