<?xml version="1.0" encoding="UTF-8" standalone="no"?>
<!DOCTYPE svg PUBLIC "-//W3C//DTD SVG 1.1//EN"
 "http://www.w3.org/Graphics/SVG/1.1/DTD/svg11.dtd">
<!-- Generated by graphviz version 2.38.0 (20140413.2041)
 -->
<!-- Title: ecs::DefeatScene Pages: 1 -->
<svg width="114pt" height="171pt"
 viewBox="0.00 0.00 114.00 171.00" xmlns="http://www.w3.org/2000/svg" xmlns:xlink="http://www.w3.org/1999/xlink">
<g id="graph0" class="graph" transform="scale(1 1) rotate(0) translate(4 167)">
<title>ecs::DefeatScene</title>
<!-- Node1 -->
<g id="node1" class="node"><title>Node1</title>
<polygon fill="#bfbfbf" stroke="black" points="-7.10543e-15,-0.5 -7.10543e-15,-68.5 106,-68.5 106,-0.5 -7.10543e-15,-0.5"/>
<text text-anchor="middle" x="53" y="-56.5" font-family="Helvetica,sans-Serif" font-size="10.00">ecs::DefeatScene</text>
<polyline fill="none" stroke="black" points="-7.10543e-15,-49.5 106,-49.5 "/>
<text text-anchor="middle" x="53" y="-37.5" font-family="Helvetica,sans-Serif" font-size="10.00"> </text>
<polyline fill="none" stroke="black" points="-7.10543e-15,-30.5 106,-30.5 "/>
<text text-anchor="start" x="8" y="-18.5" font-family="Helvetica,sans-Serif" font-size="10.00">+ DefeatScene()</text>
<text text-anchor="start" x="8" y="-7.5" font-family="Helvetica,sans-Serif" font-size="10.00">+ ~DefeatScene()</text>
</g>
<!-- Node2 -->
<g id="node2" class="node"><title>Node2</title>
<g id="a_node2"><a xlink:href="classecs_1_1IScene.html" target="_top" xlink:title="Scene for the game. ">
<polygon fill="none" stroke="black" points="17.5,-105.5 17.5,-162.5 88.5,-162.5 88.5,-105.5 17.5,-105.5"/>
<text text-anchor="middle" x="53" y="-150.5" font-family="Helvetica,sans-Serif" font-size="10.00">ecs::IScene</text>
<polyline fill="none" stroke="black" points="17.5,-143.5 88.5,-143.5 "/>
<text text-anchor="middle" x="53" y="-131.5" font-family="Helvetica,sans-Serif" font-size="10.00"> </text>
<polyline fill="none" stroke="black" points="17.5,-124.5 88.5,-124.5 "/>
<text text-anchor="middle" x="53" y="-112.5" font-family="Helvetica,sans-Serif" font-size="10.00"> </text>
</a>
</g>
</g>
<!-- Node2&#45;&gt;Node1 -->
<g id="edge1" class="edge"><title>Node2&#45;&gt;Node1</title>
<path fill="none" stroke="midnightblue" d="M53,-95.0631C53,-86.3933 53,-77.2431 53,-68.7855"/>
<polygon fill="none" stroke="midnightblue" points="49.5001,-95.3212 53,-105.321 56.5001,-95.3212 49.5001,-95.3212"/>
</g>
</g>
</svg>
