<?xml version="1.0" encoding="UTF-8" standalone="no"?>
<!DOCTYPE svg PUBLIC "-//W3C//DTD SVG 1.1//EN"
 "http://www.w3.org/Graphics/SVG/1.1/DTD/svg11.dtd">
<!-- Generated by graphviz version 2.38.0 (20140413.2041)
 -->
<!-- Title: ecs::components::Animator Pages: 1 -->
<svg width="172pt" height="419pt"
 viewBox="0.00 0.00 172.00 419.00" xmlns="http://www.w3.org/2000/svg" xmlns:xlink="http://www.w3.org/1999/xlink">
<g id="graph0" class="graph" transform="scale(1 1) rotate(0) translate(4 415)">
<title>ecs::components::Animator</title>
<!-- Node1 -->
<g id="node1" class="node"><title>Node1</title>
<polygon fill="#bfbfbf" stroke="black" points="7.5,-0.5 7.5,-222.5 156.5,-222.5 156.5,-0.5 7.5,-0.5"/>
<text text-anchor="middle" x="82" y="-210.5" font-family="Helvetica,sans-Serif" font-size="10.00">ecs::components::Animator</text>
<polyline fill="none" stroke="black" points="7.5,-203.5 156.5,-203.5 "/>
<text text-anchor="middle" x="82" y="-191.5" font-family="Helvetica,sans-Serif" font-size="10.00"> </text>
<polyline fill="none" stroke="black" points="7.5,-184.5 156.5,-184.5 "/>
<text text-anchor="start" x="15.5" y="-172.5" font-family="Helvetica,sans-Serif" font-size="10.00">+ Animator()</text>
<text text-anchor="start" x="15.5" y="-161.5" font-family="Helvetica,sans-Serif" font-size="10.00">+ Animator()</text>
<text text-anchor="start" x="15.5" y="-150.5" font-family="Helvetica,sans-Serif" font-size="10.00">+ ~Animator()</text>
<text text-anchor="start" x="15.5" y="-139.5" font-family="Helvetica,sans-Serif" font-size="10.00">+ setId()</text>
<text text-anchor="start" x="15.5" y="-128.5" font-family="Helvetica,sans-Serif" font-size="10.00">+ getId()</text>
<text text-anchor="start" x="15.5" y="-117.5" font-family="Helvetica,sans-Serif" font-size="10.00">+ getType()</text>
<text text-anchor="start" x="15.5" y="-106.5" font-family="Helvetica,sans-Serif" font-size="10.00">+ operator==()</text>
<text text-anchor="start" x="15.5" y="-95.5" font-family="Helvetica,sans-Serif" font-size="10.00">+ getRect()</text>
<text text-anchor="start" x="15.5" y="-84.5" font-family="Helvetica,sans-Serif" font-size="10.00">+ getMaxRep()</text>
<text text-anchor="start" x="15.5" y="-73.5" font-family="Helvetica,sans-Serif" font-size="10.00">+ getCurrentRep()</text>
<text text-anchor="start" x="15.5" y="-62.5" font-family="Helvetica,sans-Serif" font-size="10.00">+ setCurrentRep()</text>
<text text-anchor="start" x="15.5" y="-51.5" font-family="Helvetica,sans-Serif" font-size="10.00">+ getInterval()</text>
<text text-anchor="start" x="15.5" y="-40.5" font-family="Helvetica,sans-Serif" font-size="10.00">+ setInterval()</text>
<text text-anchor="start" x="15.5" y="-29.5" font-family="Helvetica,sans-Serif" font-size="10.00">+ getOffset()</text>
<text text-anchor="start" x="15.5" y="-18.5" font-family="Helvetica,sans-Serif" font-size="10.00">+ setOffset()</text>
<text text-anchor="start" x="15.5" y="-7.5" font-family="Helvetica,sans-Serif" font-size="10.00">+ getTimer()</text>
</g>
<!-- Node2 -->
<g id="node2" class="node"><title>Node2</title>
<g id="a_node2"><a xlink:href="classecs_1_1components_1_1IDisplay.html" target="_top" xlink:title="IDisplay describes an attribute of an Entity that is displayable. ">
<polygon fill="none" stroke="black" points="11,-259.5 11,-316.5 153,-316.5 153,-259.5 11,-259.5"/>
<text text-anchor="middle" x="82" y="-304.5" font-family="Helvetica,sans-Serif" font-size="10.00">ecs::components::IDisplay</text>
<polyline fill="none" stroke="black" points="11,-297.5 153,-297.5 "/>
<text text-anchor="middle" x="82" y="-285.5" font-family="Helvetica,sans-Serif" font-size="10.00"> </text>
<polyline fill="none" stroke="black" points="11,-278.5 153,-278.5 "/>
<text text-anchor="start" x="19" y="-266.5" font-family="Helvetica,sans-Serif" font-size="10.00">+ IDisplay()</text>
</a>
</g>
</g>
<!-- Node2&#45;&gt;Node1 -->
<g id="edge1" class="edge"><title>Node2&#45;&gt;Node1</title>
<path fill="none" stroke="midnightblue" d="M82,-249.203C82,-241.081 82,-232.104 82,-222.748"/>
<polygon fill="none" stroke="midnightblue" points="78.5001,-249.35 82,-259.35 85.5001,-249.35 78.5001,-249.35"/>
</g>
<!-- Node3 -->
<g id="node3" class="node"><title>Node3</title>
<g id="a_node3"><a xlink:href="classecs_1_1components_1_1IComponent.html" target="_top" xlink:title="Icomponent describes an attribute of an Entity. ">
<polygon fill="none" stroke="black" points="0,-353.5 0,-410.5 164,-410.5 164,-353.5 0,-353.5"/>
<text text-anchor="middle" x="82" y="-398.5" font-family="Helvetica,sans-Serif" font-size="10.00">ecs::components::IComponent</text>
<polyline fill="none" stroke="black" points="0,-391.5 164,-391.5 "/>
<text text-anchor="middle" x="82" y="-379.5" font-family="Helvetica,sans-Serif" font-size="10.00"> </text>
<polyline fill="none" stroke="black" points="0,-372.5 164,-372.5 "/>
<text text-anchor="start" x="8" y="-360.5" font-family="Helvetica,sans-Serif" font-size="10.00">+ getType()</text>
</a>
</g>
</g>
<!-- Node3&#45;&gt;Node2 -->
<g id="edge2" class="edge"><title>Node3&#45;&gt;Node2</title>
<path fill="none" stroke="midnightblue" d="M82,-343.209C82,-334.293 82,-324.951 82,-316.584"/>
<polygon fill="none" stroke="midnightblue" points="78.5001,-343.397 82,-353.397 85.5001,-343.397 78.5001,-343.397"/>
</g>
</g>
</svg>
