<?xml version="1.0" encoding="UTF-8" standalone="no"?>
<!DOCTYPE svg PUBLIC "-//W3C//DTD SVG 1.1//EN"
 "http://www.w3.org/Graphics/SVG/1.1/DTD/svg11.dtd">
<!-- Generated by graphviz version 2.38.0 (20140413.2041)
 -->
<!-- Title: ecs::system::ButtonColorSystem Pages: 1 -->
<svg width="554pt" height="321pt"
 viewBox="0.00 0.00 553.50 321.00" xmlns="http://www.w3.org/2000/svg" xmlns:xlink="http://www.w3.org/1999/xlink">
<g id="graph0" class="graph" transform="scale(1 1) rotate(0) translate(4 317)">
<title>ecs::system::ButtonColorSystem</title>
<!-- Node1 -->
<g id="node1" class="node"><title>Node1</title>
<polygon fill="#bfbfbf" stroke="black" points="222,-0.5 222,-90.5 359,-90.5 359,-0.5 222,-0.5"/>
<text text-anchor="start" x="230" y="-78.5" font-family="Helvetica,sans-Serif" font-size="10.00">ecs::system::ButtonColor</text>
<text text-anchor="middle" x="290.5" y="-67.5" font-family="Helvetica,sans-Serif" font-size="10.00">System</text>
<polyline fill="none" stroke="black" points="222,-60.5 359,-60.5 "/>
<text text-anchor="middle" x="290.5" y="-48.5" font-family="Helvetica,sans-Serif" font-size="10.00"> </text>
<polyline fill="none" stroke="black" points="222,-41.5 359,-41.5 "/>
<text text-anchor="start" x="230" y="-29.5" font-family="Helvetica,sans-Serif" font-size="10.00">+ ButtonColorSystem()</text>
<text text-anchor="start" x="230" y="-18.5" font-family="Helvetica,sans-Serif" font-size="10.00">+ ~ButtonColorSystem()</text>
<text text-anchor="start" x="230" y="-7.5" font-family="Helvetica,sans-Serif" font-size="10.00">+ update()</text>
</g>
<!-- Node2 -->
<g id="node2" class="node"><title>Node2</title>
<g id="a_node2"><a xlink:href="classecs_1_1system_1_1ASystem.html" target="_top" xlink:title="{ecs::system::ASystem\n||+ ASystem()\l+ ~ASystem()\l}">
<polygon fill="none" stroke="black" points="228.5,-128.5 228.5,-196.5 352.5,-196.5 352.5,-128.5 228.5,-128.5"/>
<text text-anchor="middle" x="290.5" y="-184.5" font-family="Helvetica,sans-Serif" font-size="10.00">ecs::system::ASystem</text>
<polyline fill="none" stroke="black" points="228.5,-177.5 352.5,-177.5 "/>
<text text-anchor="middle" x="290.5" y="-165.5" font-family="Helvetica,sans-Serif" font-size="10.00"> </text>
<polyline fill="none" stroke="black" points="228.5,-158.5 352.5,-158.5 "/>
<text text-anchor="start" x="236.5" y="-146.5" font-family="Helvetica,sans-Serif" font-size="10.00">+ ASystem()</text>
<text text-anchor="start" x="236.5" y="-135.5" font-family="Helvetica,sans-Serif" font-size="10.00">+ ~ASystem()</text>
</a>
</g>
</g>
<!-- Node2&#45;&gt;Node1 -->
<g id="edge1" class="edge"><title>Node2&#45;&gt;Node1</title>
<path fill="none" stroke="midnightblue" d="M290.5,-118.055C290.5,-109.146 290.5,-99.7573 290.5,-90.8181"/>
<polygon fill="none" stroke="midnightblue" points="287,-118.237 290.5,-128.237 294,-118.237 287,-118.237"/>
</g>
<!-- Node3 -->
<g id="node3" class="node"><title>Node3</title>
<g id="a_node3"><a xlink:href="classecs_1_1system_1_1ISystem.html" target="_top" xlink:title="{ecs::system::ISystem\n||+ update()\l}">
<polygon fill="none" stroke="black" points="0,-250 0,-307 119,-307 119,-250 0,-250"/>
<text text-anchor="middle" x="59.5" y="-295" font-family="Helvetica,sans-Serif" font-size="10.00">ecs::system::ISystem</text>
<polyline fill="none" stroke="black" points="0,-288 119,-288 "/>
<text text-anchor="middle" x="59.5" y="-276" font-family="Helvetica,sans-Serif" font-size="10.00"> </text>
<polyline fill="none" stroke="black" points="0,-269 119,-269 "/>
<text text-anchor="start" x="8" y="-257" font-family="Helvetica,sans-Serif" font-size="10.00">+ update()</text>
</a>
</g>
</g>
<!-- Node3&#45;&gt;Node2 -->
<g id="edge2" class="edge"><title>Node3&#45;&gt;Node2</title>
<path fill="none" stroke="midnightblue" d="M124.396,-245.473C156.893,-229.436 196.051,-210.111 228.183,-194.254"/>
<polygon fill="none" stroke="midnightblue" points="122.837,-242.34 115.419,-249.904 125.935,-248.617 122.837,-242.34"/>
</g>
<!-- Node4 -->
<g id="node4" class="node"><title>Node4</title>
<polygon fill="none" stroke="#bfbfbf" points="137.5,-244.5 137.5,-312.5 283.5,-312.5 283.5,-244.5 137.5,-244.5"/>
<text text-anchor="start" x="145.5" y="-300.5" font-family="Helvetica,sans-Serif" font-size="10.00">shared_ptr&lt; ecs::IManager</text>
<text text-anchor="middle" x="210.5" y="-289.5" font-family="Helvetica,sans-Serif" font-size="10.00">Wrapper &gt; &amp;</text>
<polyline fill="none" stroke="#bfbfbf" points="137.5,-282.5 283.5,-282.5 "/>
<text text-anchor="middle" x="210.5" y="-270.5" font-family="Helvetica,sans-Serif" font-size="10.00"> </text>
<polyline fill="none" stroke="#bfbfbf" points="137.5,-263.5 283.5,-263.5 "/>
<text text-anchor="middle" x="210.5" y="-251.5" font-family="Helvetica,sans-Serif" font-size="10.00"> </text>
</g>
<!-- Node4&#45;&gt;Node2 -->
<g id="edge3" class="edge"><title>Node4&#45;&gt;Node2</title>
<path fill="none" stroke="#404040" d="M229.588,-244.193C235.397,-234.596 241.977,-224.23 248.5,-215 250.498,-212.173 252.604,-209.302 254.766,-206.435"/>
<polygon fill="none" stroke="#404040" points="254.901,-206.261 255.416,-199.068 262.254,-196.777 261.738,-203.97 254.901,-206.261"/>
<text text-anchor="middle" x="298.5" y="-218" font-family="Helvetica,sans-Serif" font-size="10.00"> #_managerWrapper</text>
</g>
<!-- Node5 -->
<g id="node5" class="node"><title>Node5</title>
<polygon fill="none" stroke="#bfbfbf" points="302,-244.5 302,-312.5 439,-312.5 439,-244.5 302,-244.5"/>
<text text-anchor="start" x="310" y="-300.5" font-family="Helvetica,sans-Serif" font-size="10.00">shared_ptr&lt; ecs::entities</text>
<text text-anchor="middle" x="370.5" y="-289.5" font-family="Helvetica,sans-Serif" font-size="10.00">::IEntityFactory &gt; &amp;</text>
<polyline fill="none" stroke="#bfbfbf" points="302,-282.5 439,-282.5 "/>
<text text-anchor="middle" x="370.5" y="-270.5" font-family="Helvetica,sans-Serif" font-size="10.00"> </text>
<polyline fill="none" stroke="#bfbfbf" points="302,-263.5 439,-263.5 "/>
<text text-anchor="middle" x="370.5" y="-251.5" font-family="Helvetica,sans-Serif" font-size="10.00"> </text>
</g>
<!-- Node5&#45;&gt;Node2 -->
<g id="edge4" class="edge"><title>Node5&#45;&gt;Node2</title>
<path fill="none" stroke="#404040" d="M362.248,-244.23C358.903,-234.327 354.402,-223.785 348.5,-215 346.322,-211.758 343.894,-208.59 341.299,-205.521"/>
<polygon fill="none" stroke="#404040" points="341.237,-205.454 334.229,-203.755 333.101,-196.633 340.109,-198.331 341.237,-205.454"/>
<text text-anchor="middle" x="395" y="-218" font-family="Helvetica,sans-Serif" font-size="10.00"> #_entityFactory</text>
</g>
<!-- Node6 -->
<g id="node6" class="node"><title>Node6</title>
<polygon fill="none" stroke="#bfbfbf" points="457.5,-250 457.5,-307 533.5,-307 533.5,-250 457.5,-250"/>
<text text-anchor="middle" x="495.5" y="-295" font-family="Helvetica,sans-Serif" font-size="10.00">list&lt; int &gt; &amp;</text>
<polyline fill="none" stroke="#bfbfbf" points="457.5,-288 533.5,-288 "/>
<text text-anchor="middle" x="495.5" y="-276" font-family="Helvetica,sans-Serif" font-size="10.00"> </text>
<polyline fill="none" stroke="#bfbfbf" points="457.5,-269 533.5,-269 "/>
<text text-anchor="middle" x="495.5" y="-257" font-family="Helvetica,sans-Serif" font-size="10.00"> </text>
</g>
<!-- Node6&#45;&gt;Node2 -->
<g id="edge5" class="edge"><title>Node6&#45;&gt;Node2</title>
<path fill="none" stroke="#404040" d="M475.503,-249.969C465.532,-237.856 452.597,-224.299 438.5,-215 416.15,-200.257 389.112,-189.238 364.293,-181.259"/>
<polygon fill="none" stroke="#404040" points="364.166,-181.22 357.256,-183.281 352.696,-177.694 359.606,-175.634 364.166,-181.22"/>
<text text-anchor="middle" x="498.5" y="-218" font-family="Helvetica,sans-Serif" font-size="10.00"> #_entitiesToDelete</text>
</g>
</g>
</svg>
