<?xml version="1.0" encoding="UTF-8" standalone="no"?>
<!DOCTYPE svg PUBLIC "-//W3C//DTD SVG 1.1//EN"
 "http://www.w3.org/Graphics/SVG/1.1/DTD/svg11.dtd">
<!-- Generated by graphviz version 2.38.0 (20140413.2041)
 -->
<!-- Title: ecs::components::Velocity Pages: 1 -->
<svg width="172pt" height="480pt"
 viewBox="0.00 0.00 172.00 480.00" xmlns="http://www.w3.org/2000/svg" xmlns:xlink="http://www.w3.org/1999/xlink">
<g id="graph0" class="graph" transform="scale(1 1) rotate(0) translate(4 476)">
<title>ecs::components::Velocity</title>
<!-- Node1 -->
<g id="node1" class="node"><title>Node1</title>
<polygon fill="#bfbfbf" stroke="black" points="11,-0.5 11,-167.5 153,-167.5 153,-0.5 11,-0.5"/>
<text text-anchor="middle" x="82" y="-155.5" font-family="Helvetica,sans-Serif" font-size="10.00">ecs::components::Velocity</text>
<polyline fill="none" stroke="black" points="11,-148.5 153,-148.5 "/>
<text text-anchor="middle" x="82" y="-136.5" font-family="Helvetica,sans-Serif" font-size="10.00"> </text>
<polyline fill="none" stroke="black" points="11,-129.5 153,-129.5 "/>
<text text-anchor="start" x="19" y="-117.5" font-family="Helvetica,sans-Serif" font-size="10.00">+ Velocity()</text>
<text text-anchor="start" x="19" y="-106.5" font-family="Helvetica,sans-Serif" font-size="10.00">+ Velocity()</text>
<text text-anchor="start" x="19" y="-95.5" font-family="Helvetica,sans-Serif" font-size="10.00">+ ~Velocity()</text>
<text text-anchor="start" x="19" y="-84.5" font-family="Helvetica,sans-Serif" font-size="10.00">+ operator==()</text>
<text text-anchor="start" x="19" y="-73.5" font-family="Helvetica,sans-Serif" font-size="10.00">+ setVelocityX()</text>
<text text-anchor="start" x="19" y="-62.5" font-family="Helvetica,sans-Serif" font-size="10.00">+ getVelocityX()</text>
<text text-anchor="start" x="19" y="-51.5" font-family="Helvetica,sans-Serif" font-size="10.00">+ setVelocityY()</text>
<text text-anchor="start" x="19" y="-40.5" font-family="Helvetica,sans-Serif" font-size="10.00">+ getVelocityY()</text>
<text text-anchor="start" x="19" y="-29.5" font-family="Helvetica,sans-Serif" font-size="10.00">+ setVelocity()</text>
<text text-anchor="start" x="19" y="-18.5" font-family="Helvetica,sans-Serif" font-size="10.00">+ getVelocity()</text>
<text text-anchor="start" x="19" y="-7.5" font-family="Helvetica,sans-Serif" font-size="10.00">+ getType()</text>
</g>
<!-- Node2 -->
<g id="node2" class="node"><title>Node2</title>
<g id="a_node2"><a xlink:href="classecs_1_1components_1_1Motion.html" target="_top" xlink:title="Motion describes the Motion like the Velocity and the Acceleration of an Entity. ">
<polygon fill="none" stroke="black" points="13.5,-204.5 13.5,-283.5 150.5,-283.5 150.5,-204.5 13.5,-204.5"/>
<text text-anchor="middle" x="82" y="-271.5" font-family="Helvetica,sans-Serif" font-size="10.00">ecs::components::Motion</text>
<polyline fill="none" stroke="black" points="13.5,-264.5 150.5,-264.5 "/>
<text text-anchor="middle" x="82" y="-252.5" font-family="Helvetica,sans-Serif" font-size="10.00"> </text>
<polyline fill="none" stroke="black" points="13.5,-245.5 150.5,-245.5 "/>
<text text-anchor="start" x="21.5" y="-233.5" font-family="Helvetica,sans-Serif" font-size="10.00">+ Motion()</text>
<text text-anchor="start" x="21.5" y="-222.5" font-family="Helvetica,sans-Serif" font-size="10.00">+ ~Motion()</text>
<text text-anchor="start" x="21.5" y="-211.5" font-family="Helvetica,sans-Serif" font-size="10.00">+ operator==()</text>
</a>
</g>
</g>
<!-- Node2&#45;&gt;Node1 -->
<g id="edge1" class="edge"><title>Node2&#45;&gt;Node1</title>
<path fill="none" stroke="midnightblue" d="M82,-194.264C82,-185.744 82,-176.671 82,-167.535"/>
<polygon fill="none" stroke="midnightblue" points="78.5001,-194.349 82,-204.349 85.5001,-194.349 78.5001,-194.349"/>
</g>
<!-- Node3 -->
<g id="node3" class="node"><title>Node3</title>
<g id="a_node3"><a xlink:href="classecs_1_1components_1_1IPhysics.html" target="_top" xlink:title="IPhysics describes the physics of an Entity. ">
<polygon fill="none" stroke="black" points="10.5,-320.5 10.5,-377.5 153.5,-377.5 153.5,-320.5 10.5,-320.5"/>
<text text-anchor="middle" x="82" y="-365.5" font-family="Helvetica,sans-Serif" font-size="10.00">ecs::components::IPhysics</text>
<polyline fill="none" stroke="black" points="10.5,-358.5 153.5,-358.5 "/>
<text text-anchor="middle" x="82" y="-346.5" font-family="Helvetica,sans-Serif" font-size="10.00"> </text>
<polyline fill="none" stroke="black" points="10.5,-339.5 153.5,-339.5 "/>
<text text-anchor="middle" x="82" y="-327.5" font-family="Helvetica,sans-Serif" font-size="10.00"> </text>
</a>
</g>
</g>
<!-- Node3&#45;&gt;Node2 -->
<g id="edge2" class="edge"><title>Node3&#45;&gt;Node2</title>
<path fill="none" stroke="midnightblue" d="M82,-310.156C82,-301.473 82,-292.232 82,-283.52"/>
<polygon fill="none" stroke="midnightblue" points="78.5001,-310.398 82,-320.398 85.5001,-310.398 78.5001,-310.398"/>
</g>
<!-- Node4 -->
<g id="node4" class="node"><title>Node4</title>
<g id="a_node4"><a xlink:href="classecs_1_1components_1_1IComponent.html" target="_top" xlink:title="Icomponent describes an attribute of an Entity. ">
<polygon fill="none" stroke="black" points="0,-414.5 0,-471.5 164,-471.5 164,-414.5 0,-414.5"/>
<text text-anchor="middle" x="82" y="-459.5" font-family="Helvetica,sans-Serif" font-size="10.00">ecs::components::IComponent</text>
<polyline fill="none" stroke="black" points="0,-452.5 164,-452.5 "/>
<text text-anchor="middle" x="82" y="-440.5" font-family="Helvetica,sans-Serif" font-size="10.00"> </text>
<polyline fill="none" stroke="black" points="0,-433.5 164,-433.5 "/>
<text text-anchor="start" x="8" y="-421.5" font-family="Helvetica,sans-Serif" font-size="10.00">+ getType()</text>
</a>
</g>
</g>
<!-- Node4&#45;&gt;Node3 -->
<g id="edge3" class="edge"><title>Node4&#45;&gt;Node3</title>
<path fill="none" stroke="midnightblue" d="M82,-404.209C82,-395.293 82,-385.951 82,-377.584"/>
<polygon fill="none" stroke="midnightblue" points="78.5001,-404.397 82,-414.397 85.5001,-404.397 78.5001,-404.397"/>
</g>
</g>
</svg>
