<?xml version="1.0" encoding="UTF-8" standalone="no"?>
<!DOCTYPE svg PUBLIC "-//W3C//DTD SVG 1.1//EN"
 "http://www.w3.org/Graphics/SVG/1.1/DTD/svg11.dtd">
<!-- Generated by graphviz version 2.38.0 (20140413.2041)
 -->
<!-- Title: ecs::system::DisplaySystem Pages: 1 -->
<svg width="160pt" height="309pt"
 viewBox="0.00 0.00 160.00 309.00" xmlns="http://www.w3.org/2000/svg" xmlns:xlink="http://www.w3.org/1999/xlink">
<g id="graph0" class="graph" transform="scale(1 1) rotate(0) translate(4 305)">
<title>ecs::system::DisplaySystem</title>
<!-- Node1 -->
<g id="node1" class="node"><title>Node1</title>
<polygon fill="#bfbfbf" stroke="black" points="0,-0.5 0,-79.5 152,-79.5 152,-0.5 0,-0.5"/>
<text text-anchor="middle" x="76" y="-67.5" font-family="Helvetica,sans-Serif" font-size="10.00">ecs::system::DisplaySystem</text>
<polyline fill="none" stroke="black" points="0,-60.5 152,-60.5 "/>
<text text-anchor="middle" x="76" y="-48.5" font-family="Helvetica,sans-Serif" font-size="10.00"> </text>
<polyline fill="none" stroke="black" points="0,-41.5 152,-41.5 "/>
<text text-anchor="start" x="8" y="-29.5" font-family="Helvetica,sans-Serif" font-size="10.00">+ DisplaySystem()</text>
<text text-anchor="start" x="8" y="-18.5" font-family="Helvetica,sans-Serif" font-size="10.00">+ ~DisplaySystem()</text>
<text text-anchor="start" x="8" y="-7.5" font-family="Helvetica,sans-Serif" font-size="10.00">+ update()</text>
</g>
<!-- Node2 -->
<g id="node2" class="node"><title>Node2</title>
<g id="a_node2"><a xlink:href="classecs_1_1system_1_1ASystem.html" target="_top" xlink:title="{ecs::system::ASystem\n|# _managerWrapper\l# _entityFactory\l# _entitiesToDelete\l|+ ASystem()\l+ ~ASystem()\l}">
<polygon fill="none" stroke="black" points="14,-116.5 14,-206.5 138,-206.5 138,-116.5 14,-116.5"/>
<text text-anchor="middle" x="76" y="-194.5" font-family="Helvetica,sans-Serif" font-size="10.00">ecs::system::ASystem</text>
<polyline fill="none" stroke="black" points="14,-187.5 138,-187.5 "/>
<text text-anchor="start" x="22" y="-175.5" font-family="Helvetica,sans-Serif" font-size="10.00"># _managerWrapper</text>
<text text-anchor="start" x="22" y="-164.5" font-family="Helvetica,sans-Serif" font-size="10.00"># _entityFactory</text>
<text text-anchor="start" x="22" y="-153.5" font-family="Helvetica,sans-Serif" font-size="10.00"># _entitiesToDelete</text>
<polyline fill="none" stroke="black" points="14,-146.5 138,-146.5 "/>
<text text-anchor="start" x="22" y="-134.5" font-family="Helvetica,sans-Serif" font-size="10.00">+ ASystem()</text>
<text text-anchor="start" x="22" y="-123.5" font-family="Helvetica,sans-Serif" font-size="10.00">+ ~ASystem()</text>
</a>
</g>
</g>
<!-- Node2&#45;&gt;Node1 -->
<g id="edge1" class="edge"><title>Node2&#45;&gt;Node1</title>
<path fill="none" stroke="midnightblue" d="M76,-106.079C76,-97.234 76,-88.2325 76,-79.8576"/>
<polygon fill="none" stroke="midnightblue" points="72.5001,-106.342 76,-116.342 79.5001,-106.342 72.5001,-106.342"/>
</g>
<!-- Node3 -->
<g id="node3" class="node"><title>Node3</title>
<g id="a_node3"><a xlink:href="classecs_1_1system_1_1ISystem.html" target="_top" xlink:title="{ecs::system::ISystem\n||+ update()\l}">
<polygon fill="none" stroke="black" points="16.5,-243.5 16.5,-300.5 135.5,-300.5 135.5,-243.5 16.5,-243.5"/>
<text text-anchor="middle" x="76" y="-288.5" font-family="Helvetica,sans-Serif" font-size="10.00">ecs::system::ISystem</text>
<polyline fill="none" stroke="black" points="16.5,-281.5 135.5,-281.5 "/>
<text text-anchor="middle" x="76" y="-269.5" font-family="Helvetica,sans-Serif" font-size="10.00"> </text>
<polyline fill="none" stroke="black" points="16.5,-262.5 135.5,-262.5 "/>
<text text-anchor="start" x="24.5" y="-250.5" font-family="Helvetica,sans-Serif" font-size="10.00">+ update()</text>
</a>
</g>
</g>
<!-- Node3&#45;&gt;Node2 -->
<g id="edge2" class="edge"><title>Node3&#45;&gt;Node2</title>
<path fill="none" stroke="midnightblue" d="M76,-233.214C76,-224.609 76,-215.394 76,-206.554"/>
<polygon fill="none" stroke="midnightblue" points="72.5001,-233.34 76,-243.34 79.5001,-233.34 72.5001,-233.34"/>
</g>
</g>
</svg>
