<?xml version="1.0" encoding="UTF-8" standalone="no"?>
<!DOCTYPE svg PUBLIC "-//W3C//DTD SVG 1.1//EN"
 "http://www.w3.org/Graphics/SVG/1.1/DTD/svg11.dtd">
<!-- Generated by graphviz version 2.38.0 (20140413.2041)
 -->
<!-- Title: ServerExceptions Pages: 1 -->
<svg width="135pt" height="298pt"
 viewBox="0.00 0.00 135.00 298.00" xmlns="http://www.w3.org/2000/svg" xmlns:xlink="http://www.w3.org/1999/xlink">
<g id="graph0" class="graph" transform="scale(1 1) rotate(0) translate(4 294)">
<title>ServerExceptions</title>
<!-- Node1 -->
<g id="node1" class="node"><title>Node1</title>
<polygon fill="#bfbfbf" stroke="black" points="0,-0.5 0,-68.5 127,-68.5 127,-0.5 0,-0.5"/>
<text text-anchor="middle" x="63.5" y="-56.5" font-family="Helvetica,sans-Serif" font-size="10.00">ServerExceptions</text>
<polyline fill="none" stroke="black" points="0,-49.5 127,-49.5 "/>
<text text-anchor="middle" x="63.5" y="-37.5" font-family="Helvetica,sans-Serif" font-size="10.00"> </text>
<polyline fill="none" stroke="black" points="0,-30.5 127,-30.5 "/>
<text text-anchor="start" x="8" y="-18.5" font-family="Helvetica,sans-Serif" font-size="10.00">+ ServerExceptions()</text>
<text text-anchor="start" x="8" y="-7.5" font-family="Helvetica,sans-Serif" font-size="10.00">+ ~ServerExceptions()</text>
</g>
<!-- Node2 -->
<g id="node2" class="node"><title>Node2</title>
<g id="a_node2"><a xlink:href="classRTypeExceptions.html" target="_top" xlink:title="Rtype Class Exception which regroup all Exceptions. ">
<polygon fill="none" stroke="black" points="2.5,-105.5 2.5,-195.5 124.5,-195.5 124.5,-105.5 2.5,-105.5"/>
<text text-anchor="middle" x="63.5" y="-183.5" font-family="Helvetica,sans-Serif" font-size="10.00">RTypeExceptions</text>
<polyline fill="none" stroke="black" points="2.5,-176.5 124.5,-176.5 "/>
<text text-anchor="middle" x="63.5" y="-164.5" font-family="Helvetica,sans-Serif" font-size="10.00"> </text>
<polyline fill="none" stroke="black" points="2.5,-157.5 124.5,-157.5 "/>
<text text-anchor="start" x="10.5" y="-145.5" font-family="Helvetica,sans-Serif" font-size="10.00">+ RTypeExceptions()</text>
<text text-anchor="start" x="10.5" y="-134.5" font-family="Helvetica,sans-Serif" font-size="10.00">+ ~RTypeExceptions()</text>
<text text-anchor="start" x="10.5" y="-123.5" font-family="Helvetica,sans-Serif" font-size="10.00">+ what()</text>
<text text-anchor="start" x="10.5" y="-112.5" font-family="Helvetica,sans-Serif" font-size="10.00">+ where()</text>
</a>
</g>
</g>
<!-- Node2&#45;&gt;Node1 -->
<g id="edge1" class="edge"><title>Node2&#45;&gt;Node1</title>
<path fill="none" stroke="midnightblue" d="M63.5,-95.3164C63.5,-86.2849 63.5,-77.1589 63.5,-68.8483"/>
<polygon fill="none" stroke="midnightblue" points="60.0001,-95.4246 63.5,-105.425 67.0001,-95.4247 60.0001,-95.4246"/>
</g>
<!-- Node3 -->
<g id="node3" class="node"><title>Node3</title>
<polygon fill="none" stroke="#bfbfbf" points="21.5,-232.5 21.5,-289.5 105.5,-289.5 105.5,-232.5 21.5,-232.5"/>
<text text-anchor="middle" x="63.5" y="-277.5" font-family="Helvetica,sans-Serif" font-size="10.00">std::exception</text>
<polyline fill="none" stroke="#bfbfbf" points="21.5,-270.5 105.5,-270.5 "/>
<text text-anchor="middle" x="63.5" y="-258.5" font-family="Helvetica,sans-Serif" font-size="10.00"> </text>
<polyline fill="none" stroke="#bfbfbf" points="21.5,-251.5 105.5,-251.5 "/>
<text text-anchor="middle" x="63.5" y="-239.5" font-family="Helvetica,sans-Serif" font-size="10.00"> </text>
</g>
<!-- Node3&#45;&gt;Node2 -->
<g id="edge2" class="edge"><title>Node3&#45;&gt;Node2</title>
<path fill="none" stroke="midnightblue" d="M63.5,-222.214C63.5,-213.609 63.5,-204.394 63.5,-195.554"/>
<polygon fill="none" stroke="midnightblue" points="60.0001,-222.34 63.5,-232.34 67.0001,-222.34 60.0001,-222.34"/>
</g>
</g>
</svg>
