<?xml version="1.0" encoding="UTF-8" standalone="no"?>
<!DOCTYPE svg PUBLIC "-//W3C//DTD SVG 1.1//EN"
 "http://www.w3.org/Graphics/SVG/1.1/DTD/svg11.dtd">
<!-- Generated by graphviz version 2.38.0 (20140413.2041)
 -->
<!-- Title: TestNetwork Pages: 1 -->
<svg width="155pt" height="281pt"
 viewBox="0.00 0.00 155.00 281.00" xmlns="http://www.w3.org/2000/svg" xmlns:xlink="http://www.w3.org/1999/xlink">
<g id="graph0" class="graph" transform="scale(1 1) rotate(0) translate(4 277)">
<title>TestNetwork</title>
<!-- Node1 -->
<g id="node1" class="node"><title>Node1</title>
<polygon fill="#bfbfbf" stroke="black" points="14,-0.5 14,-167.5 133,-167.5 133,-0.5 14,-0.5"/>
<text text-anchor="middle" x="73.5" y="-155.5" font-family="Helvetica,sans-Serif" font-size="10.00">TestNetwork</text>
<polyline fill="none" stroke="black" points="14,-148.5 133,-148.5 "/>
<text text-anchor="middle" x="73.5" y="-136.5" font-family="Helvetica,sans-Serif" font-size="10.00"> </text>
<polyline fill="none" stroke="black" points="14,-129.5 133,-129.5 "/>
<text text-anchor="start" x="22" y="-117.5" font-family="Helvetica,sans-Serif" font-size="10.00">+ TestNetwork()</text>
<text text-anchor="start" x="22" y="-106.5" font-family="Helvetica,sans-Serif" font-size="10.00">+ ~TestNetwork()</text>
<text text-anchor="start" x="22" y="-95.5" font-family="Helvetica,sans-Serif" font-size="10.00">+ doReceive()</text>
<text text-anchor="start" x="22" y="-84.5" font-family="Helvetica,sans-Serif" font-size="10.00">+ handleReceive()</text>
<text text-anchor="start" x="22" y="-73.5" font-family="Helvetica,sans-Serif" font-size="10.00">+ doSend()</text>
<text text-anchor="start" x="22" y="-62.5" font-family="Helvetica,sans-Serif" font-size="10.00">+ handleSend()</text>
<text text-anchor="start" x="22" y="-51.5" font-family="Helvetica,sans-Serif" font-size="10.00">+ start()</text>
<text text-anchor="start" x="22" y="-40.5" font-family="Helvetica,sans-Serif" font-size="10.00">+ checkTimeOut()</text>
<text text-anchor="start" x="22" y="-29.5" font-family="Helvetica,sans-Serif" font-size="10.00">+ handleTimeOut()</text>
<text text-anchor="start" x="22" y="-18.5" font-family="Helvetica,sans-Serif" font-size="10.00">+ askListRoom()</text>
<text text-anchor="start" x="22" y="-7.5" font-family="Helvetica,sans-Serif" font-size="10.00">+ manageListRoom()</text>
</g>
<!-- Node2 -->
<g id="node2" class="node"><title>Node2</title>
<polygon fill="none" stroke="#bfbfbf" points="0,-204.5 0,-272.5 147,-272.5 147,-204.5 0,-204.5"/>
<text text-anchor="start" x="8" y="-260.5" font-family="Helvetica,sans-Serif" font-size="10.00">std::enable_shared</text>
<text text-anchor="middle" x="73.5" y="-249.5" font-family="Helvetica,sans-Serif" font-size="10.00">_from_this&lt; TestNetwork &gt;</text>
<polyline fill="none" stroke="#bfbfbf" points="0,-242.5 147,-242.5 "/>
<text text-anchor="middle" x="73.5" y="-230.5" font-family="Helvetica,sans-Serif" font-size="10.00"> </text>
<polyline fill="none" stroke="#bfbfbf" points="0,-223.5 147,-223.5 "/>
<text text-anchor="middle" x="73.5" y="-211.5" font-family="Helvetica,sans-Serif" font-size="10.00"> </text>
</g>
<!-- Node2&#45;&gt;Node1 -->
<g id="edge1" class="edge"><title>Node2&#45;&gt;Node1</title>
<path fill="none" stroke="midnightblue" d="M73.5,-194.229C73.5,-185.884 73.5,-176.887 73.5,-167.765"/>
<polygon fill="none" stroke="midnightblue" points="70.0001,-194.41 73.5,-204.41 77.0001,-194.41 70.0001,-194.41"/>
</g>
</g>
</svg>
