<?xml version="1.0" encoding="UTF-8" standalone="no"?>
<!DOCTYPE svg PUBLIC "-//W3C//DTD SVG 1.1//EN"
 "http://www.w3.org/Graphics/SVG/1.1/DTD/svg11.dtd">
<!-- Generated by graphviz version 2.38.0 (20140413.2041)
 -->
<!-- Title: ecs::components::Text Pages: 1 -->
<svg width="180pt" height="640pt"
 viewBox="0.00 0.00 180.00 640.00" xmlns="http://www.w3.org/2000/svg" xmlns:xlink="http://www.w3.org/1999/xlink">
<g id="graph0" class="graph" transform="scale(1 1) rotate(0) translate(4 636)">
<title>ecs::components::Text</title>
<!-- Node1 -->
<g id="node1" class="node"><title>Node1</title>
<polygon fill="#bfbfbf" stroke="black" points="24,-127.5 24,-349.5 148,-349.5 148,-127.5 24,-127.5"/>
<text text-anchor="middle" x="86" y="-337.5" font-family="Helvetica,sans-Serif" font-size="10.00">ecs::components::Text</text>
<polyline fill="none" stroke="black" points="24,-330.5 148,-330.5 "/>
<text text-anchor="middle" x="86" y="-318.5" font-family="Helvetica,sans-Serif" font-size="10.00"> </text>
<polyline fill="none" stroke="black" points="24,-311.5 148,-311.5 "/>
<text text-anchor="start" x="32" y="-299.5" font-family="Helvetica,sans-Serif" font-size="10.00">+ Text()</text>
<text text-anchor="start" x="32" y="-288.5" font-family="Helvetica,sans-Serif" font-size="10.00">+ Text()</text>
<text text-anchor="start" x="32" y="-277.5" font-family="Helvetica,sans-Serif" font-size="10.00">+ Text()</text>
<text text-anchor="start" x="32" y="-266.5" font-family="Helvetica,sans-Serif" font-size="10.00">+ ~Text()</text>
<text text-anchor="start" x="32" y="-255.5" font-family="Helvetica,sans-Serif" font-size="10.00">+ setId()</text>
<text text-anchor="start" x="32" y="-244.5" font-family="Helvetica,sans-Serif" font-size="10.00">+ getId()</text>
<text text-anchor="start" x="32" y="-233.5" font-family="Helvetica,sans-Serif" font-size="10.00">+ getType()</text>
<text text-anchor="start" x="32" y="-222.5" font-family="Helvetica,sans-Serif" font-size="10.00">+ setStr()</text>
<text text-anchor="start" x="32" y="-211.5" font-family="Helvetica,sans-Serif" font-size="10.00">+ getStr()</text>
<text text-anchor="start" x="32" y="-200.5" font-family="Helvetica,sans-Serif" font-size="10.00">+ setSize()</text>
<text text-anchor="start" x="32" y="-189.5" font-family="Helvetica,sans-Serif" font-size="10.00">+ getSize()</text>
<text text-anchor="start" x="32" y="-178.5" font-family="Helvetica,sans-Serif" font-size="10.00">+ setColor()</text>
<text text-anchor="start" x="32" y="-167.5" font-family="Helvetica,sans-Serif" font-size="10.00">+ getColor()</text>
<text text-anchor="start" x="32" y="-156.5" font-family="Helvetica,sans-Serif" font-size="10.00">+ getPostion()</text>
<text text-anchor="start" x="32" y="-145.5" font-family="Helvetica,sans-Serif" font-size="10.00">+ setPostion()</text>
<text text-anchor="start" x="32" y="-134.5" font-family="Helvetica,sans-Serif" font-size="10.00">+ operator==()</text>
</g>
<!-- Node5 -->
<g id="node5" class="node"><title>Node5</title>
<g id="a_node5"><a xlink:href="classecs_1_1components_1_1StaticText.html" target="_top" xlink:title="StaticText describes an attribute that is a StaticText. ">
<polygon fill="none" stroke="black" points="10,-0.5 10,-90.5 162,-90.5 162,-0.5 10,-0.5"/>
<text text-anchor="middle" x="86" y="-78.5" font-family="Helvetica,sans-Serif" font-size="10.00">ecs::components::StaticText</text>
<polyline fill="none" stroke="black" points="10,-71.5 162,-71.5 "/>
<text text-anchor="middle" x="86" y="-59.5" font-family="Helvetica,sans-Serif" font-size="10.00"> </text>
<polyline fill="none" stroke="black" points="10,-52.5 162,-52.5 "/>
<text text-anchor="start" x="18" y="-40.5" font-family="Helvetica,sans-Serif" font-size="10.00">+ StaticText()</text>
<text text-anchor="start" x="18" y="-29.5" font-family="Helvetica,sans-Serif" font-size="10.00">+ StaticText()</text>
<text text-anchor="start" x="18" y="-18.5" font-family="Helvetica,sans-Serif" font-size="10.00">+ ~StaticText()</text>
<text text-anchor="start" x="18" y="-7.5" font-family="Helvetica,sans-Serif" font-size="10.00">+ getType()</text>
</a>
</g>
</g>
<!-- Node1&#45;&gt;Node5 -->
<g id="edge4" class="edge"><title>Node1&#45;&gt;Node5</title>
<path fill="none" stroke="midnightblue" d="M86,-117.039C86,-107.757 86,-98.8141 86,-90.5947"/>
<polygon fill="none" stroke="midnightblue" points="82.5001,-117.224 86,-127.224 89.5001,-117.224 82.5001,-117.224"/>
</g>
<!-- Node2 -->
<g id="node2" class="node"><title>Node2</title>
<g id="a_node2"><a xlink:href="classecs_1_1components_1_1IUserInterface.html" target="_top" xlink:title="UserInterface describes an attribute that is part of the User Interface. ">
<polygon fill="none" stroke="black" points="0,-386.5 0,-443.5 172,-443.5 172,-386.5 0,-386.5"/>
<text text-anchor="middle" x="86" y="-431.5" font-family="Helvetica,sans-Serif" font-size="10.00">ecs::components::IUserInterface</text>
<polyline fill="none" stroke="black" points="0,-424.5 172,-424.5 "/>
<text text-anchor="middle" x="86" y="-412.5" font-family="Helvetica,sans-Serif" font-size="10.00"> </text>
<polyline fill="none" stroke="black" points="0,-405.5 172,-405.5 "/>
<text text-anchor="middle" x="86" y="-393.5" font-family="Helvetica,sans-Serif" font-size="10.00"> </text>
</a>
</g>
</g>
<!-- Node2&#45;&gt;Node1 -->
<g id="edge1" class="edge"><title>Node2&#45;&gt;Node1</title>
<path fill="none" stroke="midnightblue" d="M86,-376.203C86,-368.081 86,-359.104 86,-349.748"/>
<polygon fill="none" stroke="midnightblue" points="82.5001,-376.35 86,-386.35 89.5001,-376.35 82.5001,-376.35"/>
</g>
<!-- Node3 -->
<g id="node3" class="node"><title>Node3</title>
<g id="a_node3"><a xlink:href="classecs_1_1components_1_1IDisplay.html" target="_top" xlink:title="IDisplay describes an attribute of an Entity that is displayable. ">
<polygon fill="none" stroke="black" points="15,-480.5 15,-537.5 157,-537.5 157,-480.5 15,-480.5"/>
<text text-anchor="middle" x="86" y="-525.5" font-family="Helvetica,sans-Serif" font-size="10.00">ecs::components::IDisplay</text>
<polyline fill="none" stroke="black" points="15,-518.5 157,-518.5 "/>
<text text-anchor="middle" x="86" y="-506.5" font-family="Helvetica,sans-Serif" font-size="10.00"> </text>
<polyline fill="none" stroke="black" points="15,-499.5 157,-499.5 "/>
<text text-anchor="start" x="23" y="-487.5" font-family="Helvetica,sans-Serif" font-size="10.00">+ IDisplay()</text>
</a>
</g>
</g>
<!-- Node3&#45;&gt;Node2 -->
<g id="edge2" class="edge"><title>Node3&#45;&gt;Node2</title>
<path fill="none" stroke="midnightblue" d="M86,-470.209C86,-461.293 86,-451.951 86,-443.584"/>
<polygon fill="none" stroke="midnightblue" points="82.5001,-470.397 86,-480.397 89.5001,-470.397 82.5001,-470.397"/>
</g>
<!-- Node4 -->
<g id="node4" class="node"><title>Node4</title>
<g id="a_node4"><a xlink:href="classecs_1_1components_1_1IComponent.html" target="_top" xlink:title="Icomponent describes an attribute of an Entity. ">
<polygon fill="none" stroke="black" points="4,-574.5 4,-631.5 168,-631.5 168,-574.5 4,-574.5"/>
<text text-anchor="middle" x="86" y="-619.5" font-family="Helvetica,sans-Serif" font-size="10.00">ecs::components::IComponent</text>
<polyline fill="none" stroke="black" points="4,-612.5 168,-612.5 "/>
<text text-anchor="middle" x="86" y="-600.5" font-family="Helvetica,sans-Serif" font-size="10.00"> </text>
<polyline fill="none" stroke="black" points="4,-593.5 168,-593.5 "/>
<text text-anchor="start" x="12" y="-581.5" font-family="Helvetica,sans-Serif" font-size="10.00">+ getType()</text>
</a>
</g>
</g>
<!-- Node4&#45;&gt;Node3 -->
<g id="edge3" class="edge"><title>Node4&#45;&gt;Node3</title>
<path fill="none" stroke="midnightblue" d="M86,-564.209C86,-555.293 86,-545.951 86,-537.584"/>
<polygon fill="none" stroke="midnightblue" points="82.5001,-564.397 86,-574.397 89.5001,-564.397 82.5001,-564.397"/>
</g>
</g>
</svg>
