<?xml version="1.0" encoding="UTF-8" standalone="no"?>
<!DOCTYPE svg PUBLIC "-//W3C//DTD SVG 1.1//EN"
 "http://www.w3.org/Graphics/SVG/1.1/DTD/svg11.dtd">
<!-- Generated by graphviz version 2.38.0 (20140413.2041)
 -->
<!-- Title: ecs::components::PlayerController Pages: 1 -->
<svg width="189pt" height="364pt"
 viewBox="0.00 0.00 189.00 364.00" xmlns="http://www.w3.org/2000/svg" xmlns:xlink="http://www.w3.org/1999/xlink">
<g id="graph0" class="graph" transform="scale(1 1) rotate(0) translate(4 360)">
<title>ecs::components::PlayerController</title>
<!-- Node1 -->
<g id="node1" class="node"><title>Node1</title>
<polygon fill="#bfbfbf" stroke="black" points="0,-0.5 0,-167.5 181,-167.5 181,-0.5 0,-0.5"/>
<text text-anchor="middle" x="90.5" y="-155.5" font-family="Helvetica,sans-Serif" font-size="10.00">ecs::components::PlayerController</text>
<polyline fill="none" stroke="black" points="0,-148.5 181,-148.5 "/>
<text text-anchor="middle" x="90.5" y="-136.5" font-family="Helvetica,sans-Serif" font-size="10.00"> </text>
<polyline fill="none" stroke="black" points="0,-129.5 181,-129.5 "/>
<text text-anchor="start" x="8" y="-117.5" font-family="Helvetica,sans-Serif" font-size="10.00">+ PlayerController()</text>
<text text-anchor="start" x="8" y="-106.5" font-family="Helvetica,sans-Serif" font-size="10.00">+ PlayerController()</text>
<text text-anchor="start" x="8" y="-95.5" font-family="Helvetica,sans-Serif" font-size="10.00">+ ~PlayerController()</text>
<text text-anchor="start" x="8" y="-84.5" font-family="Helvetica,sans-Serif" font-size="10.00">+ getType()</text>
<text text-anchor="start" x="8" y="-73.5" font-family="Helvetica,sans-Serif" font-size="10.00">+ getCreationInterval()</text>
<text text-anchor="start" x="8" y="-62.5" font-family="Helvetica,sans-Serif" font-size="10.00">+ setCreationInterval()</text>
<text text-anchor="start" x="8" y="-51.5" font-family="Helvetica,sans-Serif" font-size="10.00">+ getTimer()</text>
<text text-anchor="start" x="8" y="-40.5" font-family="Helvetica,sans-Serif" font-size="10.00">+ getCreationTimer()</text>
<text text-anchor="start" x="8" y="-29.5" font-family="Helvetica,sans-Serif" font-size="10.00">+ operator==()</text>
<text text-anchor="start" x="8" y="-18.5" font-family="Helvetica,sans-Serif" font-size="10.00">+ getMovementKeys()</text>
<text text-anchor="start" x="8" y="-7.5" font-family="Helvetica,sans-Serif" font-size="10.00">+ setMovementKeys()</text>
</g>
<!-- Node2 -->
<g id="node2" class="node"><title>Node2</title>
<g id="a_node2"><a xlink:href="classecs_1_1components_1_1IGameLogic.html" target="_top" xlink:title="IGameLogic describes an attribute of an Entity that represent an ingame value. ">
<polygon fill="none" stroke="black" points="10,-204.5 10,-261.5 171,-261.5 171,-204.5 10,-204.5"/>
<text text-anchor="middle" x="90.5" y="-249.5" font-family="Helvetica,sans-Serif" font-size="10.00">ecs::components::IGameLogic</text>
<polyline fill="none" stroke="black" points="10,-242.5 171,-242.5 "/>
<text text-anchor="middle" x="90.5" y="-230.5" font-family="Helvetica,sans-Serif" font-size="10.00"> </text>
<polyline fill="none" stroke="black" points="10,-223.5 171,-223.5 "/>
<text text-anchor="middle" x="90.5" y="-211.5" font-family="Helvetica,sans-Serif" font-size="10.00"> </text>
</a>
</g>
</g>
<!-- Node2&#45;&gt;Node1 -->
<g id="edge1" class="edge"><title>Node2&#45;&gt;Node1</title>
<path fill="none" stroke="midnightblue" d="M90.5,-194.35C90.5,-186.08 90.5,-177.008 90.5,-167.738"/>
<polygon fill="none" stroke="midnightblue" points="87.0001,-194.35 90.5,-204.35 94.0001,-194.35 87.0001,-194.35"/>
</g>
<!-- Node3 -->
<g id="node3" class="node"><title>Node3</title>
<g id="a_node3"><a xlink:href="classecs_1_1components_1_1IComponent.html" target="_top" xlink:title="Icomponent describes an attribute of an Entity. ">
<polygon fill="none" stroke="black" points="8.5,-298.5 8.5,-355.5 172.5,-355.5 172.5,-298.5 8.5,-298.5"/>
<text text-anchor="middle" x="90.5" y="-343.5" font-family="Helvetica,sans-Serif" font-size="10.00">ecs::components::IComponent</text>
<polyline fill="none" stroke="black" points="8.5,-336.5 172.5,-336.5 "/>
<text text-anchor="middle" x="90.5" y="-324.5" font-family="Helvetica,sans-Serif" font-size="10.00"> </text>
<polyline fill="none" stroke="black" points="8.5,-317.5 172.5,-317.5 "/>
<text text-anchor="start" x="16.5" y="-305.5" font-family="Helvetica,sans-Serif" font-size="10.00">+ getType()</text>
</a>
</g>
</g>
<!-- Node3&#45;&gt;Node2 -->
<g id="edge2" class="edge"><title>Node3&#45;&gt;Node2</title>
<path fill="none" stroke="midnightblue" d="M90.5,-288.209C90.5,-279.293 90.5,-269.951 90.5,-261.584"/>
<polygon fill="none" stroke="midnightblue" points="87.0001,-288.397 90.5,-298.397 94.0001,-288.397 87.0001,-288.397"/>
</g>
</g>
</svg>
