<?xml version="1.0" encoding="UTF-8" standalone="no"?>
<!DOCTYPE svg PUBLIC "-//W3C//DTD SVG 1.1//EN"
 "http://www.w3.org/Graphics/SVG/1.1/DTD/svg11.dtd">
<!-- Generated by graphviz version 2.38.0 (20140413.2041)
 -->
<!-- Title: ecs::IEcs Pages: 1 -->
<svg width="157pt" height="336pt"
 viewBox="0.00 0.00 157.00 336.00" xmlns="http://www.w3.org/2000/svg" xmlns:xlink="http://www.w3.org/1999/xlink">
<g id="graph0" class="graph" transform="scale(1 1) rotate(0) translate(4 332)">
<title>ecs::IEcs</title>
<!-- Node1 -->
<g id="node1" class="node"><title>Node1</title>
<polygon fill="#bfbfbf" stroke="black" points="-1.42109e-14,-193.5 -1.42109e-14,-327.5 149,-327.5 149,-193.5 -1.42109e-14,-193.5"/>
<text text-anchor="middle" x="74.5" y="-315.5" font-family="Helvetica,sans-Serif" font-size="10.00">ecs::IEcs</text>
<polyline fill="none" stroke="black" points="-1.42109e-14,-308.5 149,-308.5 "/>
<text text-anchor="middle" x="74.5" y="-296.5" font-family="Helvetica,sans-Serif" font-size="10.00"> </text>
<polyline fill="none" stroke="black" points="-1.42109e-14,-289.5 149,-289.5 "/>
<text text-anchor="start" x="8" y="-277.5" font-family="Helvetica,sans-Serif" font-size="10.00">+ getComponentManager()</text>
<text text-anchor="start" x="8" y="-266.5" font-family="Helvetica,sans-Serif" font-size="10.00">+ getRenderManager()</text>
<text text-anchor="start" x="8" y="-255.5" font-family="Helvetica,sans-Serif" font-size="10.00">+ getEntityManager()</text>
<text text-anchor="start" x="8" y="-244.5" font-family="Helvetica,sans-Serif" font-size="10.00">+ getResourceManager()</text>
<text text-anchor="start" x="8" y="-233.5" font-family="Helvetica,sans-Serif" font-size="10.00">+ getSystemManager()</text>
<text text-anchor="start" x="8" y="-222.5" font-family="Helvetica,sans-Serif" font-size="10.00">+ getSystemFactory()</text>
<text text-anchor="start" x="8" y="-211.5" font-family="Helvetica,sans-Serif" font-size="10.00">+ getEntityFactory()</text>
<text text-anchor="start" x="8" y="-200.5" font-family="Helvetica,sans-Serif" font-size="10.00">+ getManagerWrapper()</text>
</g>
<!-- Node2 -->
<g id="node2" class="node"><title>Node2</title>
<g id="a_node2"><a xlink:href="classecs_1_1Ecs.html" target="_top" xlink:title="{ecs::Ecs\n||+ Ecs()\l+ ~Ecs()\l+ getComponentManager()\l+ getRenderManager()\l+ getEntityManager()\l+ getResourceManager()\l+ getSystemManager()\l+ getSystemFactory()\l+ getEntityFactory()\l+ getManagerWrapper()\l}">
<polygon fill="none" stroke="black" points="-1.42109e-14,-0.5 -1.42109e-14,-156.5 149,-156.5 149,-0.5 -1.42109e-14,-0.5"/>
<text text-anchor="middle" x="74.5" y="-144.5" font-family="Helvetica,sans-Serif" font-size="10.00">ecs::Ecs</text>
<polyline fill="none" stroke="black" points="-1.42109e-14,-137.5 149,-137.5 "/>
<text text-anchor="middle" x="74.5" y="-125.5" font-family="Helvetica,sans-Serif" font-size="10.00"> </text>
<polyline fill="none" stroke="black" points="-1.42109e-14,-118.5 149,-118.5 "/>
<text text-anchor="start" x="8" y="-106.5" font-family="Helvetica,sans-Serif" font-size="10.00">+ Ecs()</text>
<text text-anchor="start" x="8" y="-95.5" font-family="Helvetica,sans-Serif" font-size="10.00">+ ~Ecs()</text>
<text text-anchor="start" x="8" y="-84.5" font-family="Helvetica,sans-Serif" font-size="10.00">+ getComponentManager()</text>
<text text-anchor="start" x="8" y="-73.5" font-family="Helvetica,sans-Serif" font-size="10.00">+ getRenderManager()</text>
<text text-anchor="start" x="8" y="-62.5" font-family="Helvetica,sans-Serif" font-size="10.00">+ getEntityManager()</text>
<text text-anchor="start" x="8" y="-51.5" font-family="Helvetica,sans-Serif" font-size="10.00">+ getResourceManager()</text>
<text text-anchor="start" x="8" y="-40.5" font-family="Helvetica,sans-Serif" font-size="10.00">+ getSystemManager()</text>
<text text-anchor="start" x="8" y="-29.5" font-family="Helvetica,sans-Serif" font-size="10.00">+ getSystemFactory()</text>
<text text-anchor="start" x="8" y="-18.5" font-family="Helvetica,sans-Serif" font-size="10.00">+ getEntityFactory()</text>
<text text-anchor="start" x="8" y="-7.5" font-family="Helvetica,sans-Serif" font-size="10.00">+ getManagerWrapper()</text>
</a>
</g>
</g>
<!-- Node1&#45;&gt;Node2 -->
<g id="edge1" class="edge"><title>Node1&#45;&gt;Node2</title>
<path fill="none" stroke="midnightblue" d="M74.5,-183.299C74.5,-174.524 74.5,-165.57 74.5,-156.781"/>
<polygon fill="none" stroke="midnightblue" points="71.0001,-183.497 74.5,-193.497 78.0001,-183.497 71.0001,-183.497"/>
</g>
</g>
</svg>
