<?xml version="1.0" encoding="UTF-8" standalone="no"?>
<!DOCTYPE svg PUBLIC "-//W3C//DTD SVG 1.1//EN"
 "http://www.w3.org/Graphics/SVG/1.1/DTD/svg11.dtd">
<!-- Generated by graphviz version 2.38.0 (20140413.2041)
 -->
<!-- Title: ecs::network::UDPClient Pages: 1 -->
<svg width="157pt" height="292pt"
 viewBox="0.00 0.00 157.00 292.00" xmlns="http://www.w3.org/2000/svg" xmlns:xlink="http://www.w3.org/1999/xlink">
<g id="graph0" class="graph" transform="scale(1 1) rotate(0) translate(4 288)">
<title>ecs::network::UDPClient</title>
<!-- Node1 -->
<g id="node1" class="node"><title>Node1</title>
<polygon fill="#bfbfbf" stroke="black" points="9,-0.5 9,-79.5 140,-79.5 140,-0.5 9,-0.5"/>
<text text-anchor="middle" x="74.5" y="-67.5" font-family="Helvetica,sans-Serif" font-size="10.00">ecs::network::UDPClient</text>
<polyline fill="none" stroke="black" points="9,-60.5 140,-60.5 "/>
<text text-anchor="middle" x="74.5" y="-48.5" font-family="Helvetica,sans-Serif" font-size="10.00"> </text>
<polyline fill="none" stroke="black" points="9,-41.5 140,-41.5 "/>
<text text-anchor="start" x="17" y="-29.5" font-family="Helvetica,sans-Serif" font-size="10.00">+ UDPClient()</text>
<text text-anchor="start" x="17" y="-18.5" font-family="Helvetica,sans-Serif" font-size="10.00">+ handle_receive()</text>
<text text-anchor="start" x="17" y="-7.5" font-family="Helvetica,sans-Serif" font-size="10.00">+ send()</text>
</g>
<!-- Node2 -->
<g id="node2" class="node"><title>Node2</title>
<g id="a_node2"><a xlink:href="classecs_1_1network_1_1AUDPNetwork.html" target="_top" xlink:title="{ecs::network::AUDPNetwork\n|# _ioContext\l# _socket\l# sender_endpoint_\l# _ip\l# _port\l# data_\l|+ AUDPNetwork()\l+ AUDPNetwork()\l+ handle_receive()\l+ send()\l+ run()\l+ do_receive()\l}">
<polygon fill="none" stroke="black" points="-1.42109e-14,-116.5 -1.42109e-14,-283.5 149,-283.5 149,-116.5 -1.42109e-14,-116.5"/>
<text text-anchor="middle" x="74.5" y="-271.5" font-family="Helvetica,sans-Serif" font-size="10.00">ecs::network::AUDPNetwork</text>
<polyline fill="none" stroke="black" points="-1.42109e-14,-264.5 149,-264.5 "/>
<text text-anchor="start" x="8" y="-252.5" font-family="Helvetica,sans-Serif" font-size="10.00"># _ioContext</text>
<text text-anchor="start" x="8" y="-241.5" font-family="Helvetica,sans-Serif" font-size="10.00"># _socket</text>
<text text-anchor="start" x="8" y="-230.5" font-family="Helvetica,sans-Serif" font-size="10.00"># sender_endpoint_</text>
<text text-anchor="start" x="8" y="-219.5" font-family="Helvetica,sans-Serif" font-size="10.00"># _ip</text>
<text text-anchor="start" x="8" y="-208.5" font-family="Helvetica,sans-Serif" font-size="10.00"># _port</text>
<text text-anchor="start" x="8" y="-197.5" font-family="Helvetica,sans-Serif" font-size="10.00"># data_</text>
<polyline fill="none" stroke="black" points="-1.42109e-14,-190.5 149,-190.5 "/>
<text text-anchor="start" x="8" y="-178.5" font-family="Helvetica,sans-Serif" font-size="10.00">+ AUDPNetwork()</text>
<text text-anchor="start" x="8" y="-167.5" font-family="Helvetica,sans-Serif" font-size="10.00">+ AUDPNetwork()</text>
<text text-anchor="start" x="8" y="-156.5" font-family="Helvetica,sans-Serif" font-size="10.00">+ handle_receive()</text>
<text text-anchor="start" x="8" y="-145.5" font-family="Helvetica,sans-Serif" font-size="10.00">+ send()</text>
<text text-anchor="start" x="8" y="-134.5" font-family="Helvetica,sans-Serif" font-size="10.00">+ run()</text>
<text text-anchor="start" x="8" y="-123.5" font-family="Helvetica,sans-Serif" font-size="10.00">+ do_receive()</text>
</a>
</g>
</g>
<!-- Node2&#45;&gt;Node1 -->
<g id="edge1" class="edge"><title>Node2&#45;&gt;Node1</title>
<path fill="none" stroke="midnightblue" d="M74.5,-106.118C74.5,-96.808 74.5,-87.7641 74.5,-79.5248"/>
<polygon fill="none" stroke="midnightblue" points="71.0001,-106.298 74.5,-116.298 78.0001,-106.298 71.0001,-106.298"/>
</g>
</g>
</svg>
