<?xml version="1.0" encoding="UTF-8" standalone="no"?>
<!DOCTYPE svg PUBLIC "-//W3C//DTD SVG 1.1//EN"
 "http://www.w3.org/Graphics/SVG/1.1/DTD/svg11.dtd">
<!-- Generated by graphviz version 2.38.0 (20140413.2041)
 -->
<!-- Title: ecs::MenuScene Pages: 1 -->
<svg width="108pt" height="171pt"
 viewBox="0.00 0.00 108.00 171.00" xmlns="http://www.w3.org/2000/svg" xmlns:xlink="http://www.w3.org/1999/xlink">
<g id="graph0" class="graph" transform="scale(1 1) rotate(0) translate(4 167)">
<title>ecs::MenuScene</title>
<!-- Node1 -->
<g id="node1" class="node"><title>Node1</title>
<polygon fill="#bfbfbf" stroke="black" points="0,-0.5 0,-68.5 100,-68.5 100,-0.5 0,-0.5"/>
<text text-anchor="middle" x="50" y="-56.5" font-family="Helvetica,sans-Serif" font-size="10.00">ecs::MenuScene</text>
<polyline fill="none" stroke="black" points="0,-49.5 100,-49.5 "/>
<text text-anchor="middle" x="50" y="-37.5" font-family="Helvetica,sans-Serif" font-size="10.00"> </text>
<polyline fill="none" stroke="black" points="0,-30.5 100,-30.5 "/>
<text text-anchor="start" x="8" y="-18.5" font-family="Helvetica,sans-Serif" font-size="10.00">+ MenuScene()</text>
<text text-anchor="start" x="8" y="-7.5" font-family="Helvetica,sans-Serif" font-size="10.00">+ ~MenuScene()</text>
</g>
<!-- Node2 -->
<g id="node2" class="node"><title>Node2</title>
<g id="a_node2"><a xlink:href="classecs_1_1IScene.html" target="_top" xlink:title="Scene for the game. ">
<polygon fill="none" stroke="black" points="14.5,-105.5 14.5,-162.5 85.5,-162.5 85.5,-105.5 14.5,-105.5"/>
<text text-anchor="middle" x="50" y="-150.5" font-family="Helvetica,sans-Serif" font-size="10.00">ecs::IScene</text>
<polyline fill="none" stroke="black" points="14.5,-143.5 85.5,-143.5 "/>
<text text-anchor="middle" x="50" y="-131.5" font-family="Helvetica,sans-Serif" font-size="10.00"> </text>
<polyline fill="none" stroke="black" points="14.5,-124.5 85.5,-124.5 "/>
<text text-anchor="middle" x="50" y="-112.5" font-family="Helvetica,sans-Serif" font-size="10.00"> </text>
</a>
</g>
</g>
<!-- Node2&#45;&gt;Node1 -->
<g id="edge1" class="edge"><title>Node2&#45;&gt;Node1</title>
<path fill="none" stroke="midnightblue" d="M50,-95.0631C50,-86.3933 50,-77.2431 50,-68.7855"/>
<polygon fill="none" stroke="midnightblue" points="46.5001,-95.3212 50,-105.321 53.5001,-95.3212 46.5001,-95.3212"/>
</g>
</g>
</svg>
