<?xml version="1.0" encoding="UTF-8" standalone="no"?>
<!DOCTYPE svg PUBLIC "-//W3C//DTD SVG 1.1//EN"
 "http://www.w3.org/Graphics/SVG/1.1/DTD/svg11.dtd">
<!-- Generated by graphviz version 2.38.0 (20140413.2041)
 -->
<!-- Title: ecs::components::Collision Pages: 1 -->
<svg width="172pt" height="485pt"
 viewBox="0.00 0.00 172.00 485.00" xmlns="http://www.w3.org/2000/svg" xmlns:xlink="http://www.w3.org/1999/xlink">
<g id="graph0" class="graph" transform="scale(1 1) rotate(0) translate(4 481)">
<title>ecs::components::Collision</title>
<!-- Node1 -->
<g id="node1" class="node"><title>Node1</title>
<polygon fill="#bfbfbf" stroke="black" points="10,-0.5 10,-288.5 154,-288.5 154,-0.5 10,-0.5"/>
<text text-anchor="middle" x="82" y="-276.5" font-family="Helvetica,sans-Serif" font-size="10.00">ecs::components::Collision</text>
<polyline fill="none" stroke="black" points="10,-269.5 154,-269.5 "/>
<text text-anchor="middle" x="82" y="-257.5" font-family="Helvetica,sans-Serif" font-size="10.00"> </text>
<polyline fill="none" stroke="black" points="10,-250.5 154,-250.5 "/>
<text text-anchor="start" x="18" y="-238.5" font-family="Helvetica,sans-Serif" font-size="10.00">+ Collision()</text>
<text text-anchor="start" x="18" y="-227.5" font-family="Helvetica,sans-Serif" font-size="10.00">+ Collision()</text>
<text text-anchor="start" x="18" y="-216.5" font-family="Helvetica,sans-Serif" font-size="10.00">+ ~Collision()</text>
<text text-anchor="start" x="18" y="-205.5" font-family="Helvetica,sans-Serif" font-size="10.00">+ operator==()</text>
<text text-anchor="start" x="18" y="-194.5" font-family="Helvetica,sans-Serif" font-size="10.00">+ isColliding()</text>
<text text-anchor="start" x="18" y="-183.5" font-family="Helvetica,sans-Serif" font-size="10.00">+ setCollinding()</text>
<text text-anchor="start" x="18" y="-172.5" font-family="Helvetica,sans-Serif" font-size="10.00">+ isTriggered()</text>
<text text-anchor="start" x="18" y="-161.5" font-family="Helvetica,sans-Serif" font-size="10.00">+ setTriggered()</text>
<text text-anchor="start" x="18" y="-150.5" font-family="Helvetica,sans-Serif" font-size="10.00">+ getCollidedTags()</text>
<text text-anchor="start" x="18" y="-139.5" font-family="Helvetica,sans-Serif" font-size="10.00">+ clearTags()</text>
<text text-anchor="start" x="18" y="-128.5" font-family="Helvetica,sans-Serif" font-size="10.00">+ addTag()</text>
<text text-anchor="start" x="18" y="-117.5" font-family="Helvetica,sans-Serif" font-size="10.00">+ getTag()</text>
<text text-anchor="start" x="18" y="-106.5" font-family="Helvetica,sans-Serif" font-size="10.00">+ setTag()</text>
<text text-anchor="start" x="18" y="-95.5" font-family="Helvetica,sans-Serif" font-size="10.00">+ setX()</text>
<text text-anchor="start" x="18" y="-84.5" font-family="Helvetica,sans-Serif" font-size="10.00">+ setY()</text>
<text text-anchor="start" x="18" y="-73.5" font-family="Helvetica,sans-Serif" font-size="10.00">+ setHeight()</text>
<text text-anchor="start" x="18" y="-62.5" font-family="Helvetica,sans-Serif" font-size="10.00">+ setWidth()</text>
<text text-anchor="start" x="18" y="-51.5" font-family="Helvetica,sans-Serif" font-size="10.00">+ getX()</text>
<text text-anchor="start" x="18" y="-40.5" font-family="Helvetica,sans-Serif" font-size="10.00">+ getY()</text>
<text text-anchor="start" x="18" y="-29.5" font-family="Helvetica,sans-Serif" font-size="10.00">+ getHeight()</text>
<text text-anchor="start" x="18" y="-18.5" font-family="Helvetica,sans-Serif" font-size="10.00">+ getWidth()</text>
<text text-anchor="start" x="18" y="-7.5" font-family="Helvetica,sans-Serif" font-size="10.00">+ getType()</text>
</g>
<!-- Node2 -->
<g id="node2" class="node"><title>Node2</title>
<g id="a_node2"><a xlink:href="classecs_1_1components_1_1IPhysics.html" target="_top" xlink:title="IPhysics describes the physics of an Entity. ">
<polygon fill="none" stroke="black" points="10.5,-325.5 10.5,-382.5 153.5,-382.5 153.5,-325.5 10.5,-325.5"/>
<text text-anchor="middle" x="82" y="-370.5" font-family="Helvetica,sans-Serif" font-size="10.00">ecs::components::IPhysics</text>
<polyline fill="none" stroke="black" points="10.5,-363.5 153.5,-363.5 "/>
<text text-anchor="middle" x="82" y="-351.5" font-family="Helvetica,sans-Serif" font-size="10.00"> </text>
<polyline fill="none" stroke="black" points="10.5,-344.5 153.5,-344.5 "/>
<text text-anchor="middle" x="82" y="-332.5" font-family="Helvetica,sans-Serif" font-size="10.00"> </text>
</a>
</g>
</g>
<!-- Node2&#45;&gt;Node1 -->
<g id="edge1" class="edge"><title>Node2&#45;&gt;Node1</title>
<path fill="none" stroke="midnightblue" d="M82,-315.377C82,-307.29 82,-298.284 82,-288.756"/>
<polygon fill="none" stroke="midnightblue" points="78.5001,-315.446 82,-325.446 85.5001,-315.446 78.5001,-315.446"/>
</g>
<!-- Node3 -->
<g id="node3" class="node"><title>Node3</title>
<g id="a_node3"><a xlink:href="classecs_1_1components_1_1IComponent.html" target="_top" xlink:title="Icomponent describes an attribute of an Entity. ">
<polygon fill="none" stroke="black" points="0,-419.5 0,-476.5 164,-476.5 164,-419.5 0,-419.5"/>
<text text-anchor="middle" x="82" y="-464.5" font-family="Helvetica,sans-Serif" font-size="10.00">ecs::components::IComponent</text>
<polyline fill="none" stroke="black" points="0,-457.5 164,-457.5 "/>
<text text-anchor="middle" x="82" y="-445.5" font-family="Helvetica,sans-Serif" font-size="10.00"> </text>
<polyline fill="none" stroke="black" points="0,-438.5 164,-438.5 "/>
<text text-anchor="start" x="8" y="-426.5" font-family="Helvetica,sans-Serif" font-size="10.00">+ getType()</text>
</a>
</g>
</g>
<!-- Node3&#45;&gt;Node2 -->
<g id="edge2" class="edge"><title>Node3&#45;&gt;Node2</title>
<path fill="none" stroke="midnightblue" d="M82,-409.209C82,-400.293 82,-390.951 82,-382.584"/>
<polygon fill="none" stroke="midnightblue" points="78.5001,-409.397 82,-419.397 85.5001,-409.397 78.5001,-409.397"/>
</g>
</g>
</svg>
