<?xml version="1.0" encoding="UTF-8" standalone="no"?>
<!DOCTYPE svg PUBLIC "-//W3C//DTD SVG 1.1//EN"
 "http://www.w3.org/Graphics/SVG/1.1/DTD/svg11.dtd">
<!-- Generated by graphviz version 2.38.0 (20140413.2041)
 -->
<!-- Title: ecs::network::AUDPNetwork Pages: 1 -->
<svg width="399pt" height="237pt"
 viewBox="0.00 0.00 399.00 237.00" xmlns="http://www.w3.org/2000/svg" xmlns:xlink="http://www.w3.org/1999/xlink">
<g id="graph0" class="graph" transform="scale(1 1) rotate(0) translate(4 233)">
<title>ecs::network::AUDPNetwork</title>
<!-- Node1 -->
<g id="node1" class="node"><title>Node1</title>
<polygon fill="#bfbfbf" stroke="black" points="110.5,-0.5 110.5,-112.5 259.5,-112.5 259.5,-0.5 110.5,-0.5"/>
<text text-anchor="middle" x="185" y="-100.5" font-family="Helvetica,sans-Serif" font-size="10.00">ecs::network::AUDPNetwork</text>
<polyline fill="none" stroke="black" points="110.5,-93.5 259.5,-93.5 "/>
<text text-anchor="middle" x="185" y="-81.5" font-family="Helvetica,sans-Serif" font-size="10.00"> </text>
<polyline fill="none" stroke="black" points="110.5,-74.5 259.5,-74.5 "/>
<text text-anchor="start" x="118.5" y="-62.5" font-family="Helvetica,sans-Serif" font-size="10.00">+ AUDPNetwork()</text>
<text text-anchor="start" x="118.5" y="-51.5" font-family="Helvetica,sans-Serif" font-size="10.00">+ AUDPNetwork()</text>
<text text-anchor="start" x="118.5" y="-40.5" font-family="Helvetica,sans-Serif" font-size="10.00">+ handle_receive()</text>
<text text-anchor="start" x="118.5" y="-29.5" font-family="Helvetica,sans-Serif" font-size="10.00">+ send()</text>
<text text-anchor="start" x="118.5" y="-18.5" font-family="Helvetica,sans-Serif" font-size="10.00">+ run()</text>
<text text-anchor="start" x="118.5" y="-7.5" font-family="Helvetica,sans-Serif" font-size="10.00">+ do_receive()</text>
</g>
<!-- Node2 -->
<g id="node2" class="node"><title>Node2</title>
<polygon fill="none" stroke="#bfbfbf" points="0,-171.5 0,-228.5 48,-228.5 48,-171.5 0,-171.5"/>
<text text-anchor="middle" x="24" y="-216.5" font-family="Helvetica,sans-Serif" font-size="10.00">socket</text>
<polyline fill="none" stroke="#bfbfbf" points="0,-209.5 48,-209.5 "/>
<text text-anchor="middle" x="24" y="-197.5" font-family="Helvetica,sans-Serif" font-size="10.00"> </text>
<polyline fill="none" stroke="#bfbfbf" points="0,-190.5 48,-190.5 "/>
<text text-anchor="middle" x="24" y="-178.5" font-family="Helvetica,sans-Serif" font-size="10.00"> </text>
</g>
<!-- Node2&#45;&gt;Node1 -->
<g id="edge1" class="edge"><title>Node2&#45;&gt;Node1</title>
<path fill="none" stroke="#404040" d="M32.6272,-171.214C37.8021,-157.894 45.4579,-142.399 56,-131 68.4903,-117.495 84.042,-105.807 99.9776,-95.9735"/>
<polygon fill="none" stroke="#404040" points="100.142,-95.8768 103.276,-89.3827 110.477,-89.7786 107.342,-96.2727 100.142,-95.8768"/>
<text text-anchor="middle" x="80.5" y="-139.5" font-family="Helvetica,sans-Serif" font-size="10.00"> #_socket</text>
</g>
<!-- Node3 -->
<g id="node3" class="node"><title>Node3</title>
<polygon fill="none" stroke="#bfbfbf" points="66,-171.5 66,-228.5 132,-228.5 132,-171.5 66,-171.5"/>
<text text-anchor="middle" x="99" y="-216.5" font-family="Helvetica,sans-Serif" font-size="10.00">io_context</text>
<polyline fill="none" stroke="#bfbfbf" points="66,-209.5 132,-209.5 "/>
<text text-anchor="middle" x="99" y="-197.5" font-family="Helvetica,sans-Serif" font-size="10.00"> </text>
<polyline fill="none" stroke="#bfbfbf" points="66,-190.5 132,-190.5 "/>
<text text-anchor="middle" x="99" y="-178.5" font-family="Helvetica,sans-Serif" font-size="10.00"> </text>
</g>
<!-- Node3&#45;&gt;Node1 -->
<g id="edge2" class="edge"><title>Node3&#45;&gt;Node1</title>
<path fill="none" stroke="#404040" d="M103.139,-171.371C105.84,-158.54 110.175,-143.414 117,-131 118.556,-128.17 120.244,-125.363 122.037,-122.592"/>
<polygon fill="none" stroke="#404040" points="122.058,-122.563 122.222,-115.353 128.94,-112.732 128.776,-119.941 122.058,-122.563"/>
<text text-anchor="middle" x="148.5" y="-139.5" font-family="Helvetica,sans-Serif" font-size="10.00"> #_ioContext</text>
</g>
<!-- Node4 -->
<g id="node4" class="node"><title>Node4</title>
<polygon fill="none" stroke="#bfbfbf" points="164,-171.5 164,-228.5 202,-228.5 202,-171.5 164,-171.5"/>
<text text-anchor="middle" x="183" y="-216.5" font-family="Helvetica,sans-Serif" font-size="10.00">char</text>
<polyline fill="none" stroke="#bfbfbf" points="164,-209.5 202,-209.5 "/>
<text text-anchor="middle" x="183" y="-197.5" font-family="Helvetica,sans-Serif" font-size="10.00"> </text>
<polyline fill="none" stroke="#bfbfbf" points="164,-190.5 202,-190.5 "/>
<text text-anchor="middle" x="183" y="-178.5" font-family="Helvetica,sans-Serif" font-size="10.00"> </text>
</g>
<!-- Node4&#45;&gt;Node1 -->
<g id="edge3" class="edge"><title>Node4&#45;&gt;Node1</title>
<path fill="none" stroke="#404040" d="M183.39,-171.381C183.579,-158.051 183.814,-141.416 184.046,-125.014"/>
<polygon fill="none" stroke="#404040" points="184.052,-124.574 180.137,-118.518 184.222,-112.575 188.136,-118.631 184.052,-124.574"/>
<text text-anchor="middle" x="203.5" y="-139.5" font-family="Helvetica,sans-Serif" font-size="10.00"> #data_</text>
</g>
<!-- Node5 -->
<g id="node5" class="node"><title>Node5</title>
<polygon fill="none" stroke="#bfbfbf" points="220.5,-171.5 220.5,-228.5 279.5,-228.5 279.5,-171.5 220.5,-171.5"/>
<text text-anchor="middle" x="250" y="-216.5" font-family="Helvetica,sans-Serif" font-size="10.00">endpoint</text>
<polyline fill="none" stroke="#bfbfbf" points="220.5,-209.5 279.5,-209.5 "/>
<text text-anchor="middle" x="250" y="-197.5" font-family="Helvetica,sans-Serif" font-size="10.00"> </text>
<polyline fill="none" stroke="#bfbfbf" points="220.5,-190.5 279.5,-190.5 "/>
<text text-anchor="middle" x="250" y="-178.5" font-family="Helvetica,sans-Serif" font-size="10.00"> </text>
</g>
<!-- Node5&#45;&gt;Node1 -->
<g id="edge4" class="edge"><title>Node5&#45;&gt;Node1</title>
<path fill="none" stroke="#404040" d="M242,-171.404C238.026,-158.859 232.828,-143.957 227,-131 225.898,-128.55 224.739,-126.074 223.537,-123.59"/>
<polygon fill="none" stroke="#404040" points="223.443,-123.405 217.168,-119.852 218.034,-112.693 224.309,-116.246 223.443,-123.405"/>
<text text-anchor="middle" x="284.5" y="-139.5" font-family="Helvetica,sans-Serif" font-size="10.00"> #sender_endpoint_</text>
</g>
<!-- Node6 -->
<g id="node6" class="node"><title>Node6</title>
<polygon fill="none" stroke="#bfbfbf" points="347,-171.5 347,-228.5 391,-228.5 391,-171.5 347,-171.5"/>
<text text-anchor="middle" x="369" y="-216.5" font-family="Helvetica,sans-Serif" font-size="10.00">string</text>
<polyline fill="none" stroke="#bfbfbf" points="347,-209.5 391,-209.5 "/>
<text text-anchor="middle" x="369" y="-197.5" font-family="Helvetica,sans-Serif" font-size="10.00"> </text>
<polyline fill="none" stroke="#bfbfbf" points="347,-190.5 391,-190.5 "/>
<text text-anchor="middle" x="369" y="-178.5" font-family="Helvetica,sans-Serif" font-size="10.00"> </text>
</g>
<!-- Node6&#45;&gt;Node1 -->
<g id="edge5" class="edge"><title>Node6&#45;&gt;Node1</title>
<path fill="none" stroke="#404040" d="M360.826,-171.24C355.732,-157.766 348.012,-142.129 337,-131 318.579,-112.383 294.5,-97.8082 270.958,-86.7215"/>
<polygon fill="none" stroke="#404040" points="270.779,-86.6412 263.666,-87.8251 259.837,-81.7144 266.95,-80.5304 270.779,-86.6412"/>
<text text-anchor="middle" x="371.5" y="-145" font-family="Helvetica,sans-Serif" font-size="10.00"> #_port</text>
<text text-anchor="middle" x="371.5" y="-134" font-family="Helvetica,sans-Serif" font-size="10.00">#_ip</text>
</g>
</g>
</svg>
