<?xml version="1.0" encoding="UTF-8" standalone="no"?>
<!DOCTYPE svg PUBLIC "-//W3C//DTD SVG 1.1//EN"
 "http://www.w3.org/Graphics/SVG/1.1/DTD/svg11.dtd">
<!-- Generated by graphviz version 2.38.0 (20140413.2041)
 -->
<!-- Title: ecs::components::IDisplay Pages: 1 -->
<svg width="706pt" height="805pt"
 viewBox="0.00 0.00 705.50 805.00" xmlns="http://www.w3.org/2000/svg" xmlns:xlink="http://www.w3.org/1999/xlink">
<g id="graph0" class="graph" transform="scale(1 1) rotate(0) translate(4 801)">
<title>ecs::components::IDisplay</title>
<!-- Node1 -->
<g id="node1" class="node"><title>Node1</title>
<polygon fill="#bfbfbf" stroke="black" points="315.5,-645.5 315.5,-702.5 457.5,-702.5 457.5,-645.5 315.5,-645.5"/>
<text text-anchor="middle" x="386.5" y="-690.5" font-family="Helvetica,sans-Serif" font-size="10.00">ecs::components::IDisplay</text>
<polyline fill="none" stroke="black" points="315.5,-683.5 457.5,-683.5 "/>
<text text-anchor="middle" x="386.5" y="-671.5" font-family="Helvetica,sans-Serif" font-size="10.00"> </text>
<polyline fill="none" stroke="black" points="315.5,-664.5 457.5,-664.5 "/>
<text text-anchor="start" x="323.5" y="-652.5" font-family="Helvetica,sans-Serif" font-size="10.00">+ IDisplay()</text>
</g>
<!-- Node3 -->
<g id="node3" class="node"><title>Node3</title>
<g id="a_node3"><a xlink:href="classecs_1_1components_1_1Animator.html" target="_top" xlink:title="Animator describes that the entity is animated. ">
<polygon fill="none" stroke="black" points="46,-386.5 46,-608.5 195,-608.5 195,-386.5 46,-386.5"/>
<text text-anchor="middle" x="120.5" y="-596.5" font-family="Helvetica,sans-Serif" font-size="10.00">ecs::components::Animator</text>
<polyline fill="none" stroke="black" points="46,-589.5 195,-589.5 "/>
<text text-anchor="middle" x="120.5" y="-577.5" font-family="Helvetica,sans-Serif" font-size="10.00"> </text>
<polyline fill="none" stroke="black" points="46,-570.5 195,-570.5 "/>
<text text-anchor="start" x="54" y="-558.5" font-family="Helvetica,sans-Serif" font-size="10.00">+ Animator()</text>
<text text-anchor="start" x="54" y="-547.5" font-family="Helvetica,sans-Serif" font-size="10.00">+ Animator()</text>
<text text-anchor="start" x="54" y="-536.5" font-family="Helvetica,sans-Serif" font-size="10.00">+ ~Animator()</text>
<text text-anchor="start" x="54" y="-525.5" font-family="Helvetica,sans-Serif" font-size="10.00">+ setId()</text>
<text text-anchor="start" x="54" y="-514.5" font-family="Helvetica,sans-Serif" font-size="10.00">+ getId()</text>
<text text-anchor="start" x="54" y="-503.5" font-family="Helvetica,sans-Serif" font-size="10.00">+ getType()</text>
<text text-anchor="start" x="54" y="-492.5" font-family="Helvetica,sans-Serif" font-size="10.00">+ operator==()</text>
<text text-anchor="start" x="54" y="-481.5" font-family="Helvetica,sans-Serif" font-size="10.00">+ getRect()</text>
<text text-anchor="start" x="54" y="-470.5" font-family="Helvetica,sans-Serif" font-size="10.00">+ getMaxRep()</text>
<text text-anchor="start" x="54" y="-459.5" font-family="Helvetica,sans-Serif" font-size="10.00">+ getCurrentRep()</text>
<text text-anchor="start" x="54" y="-448.5" font-family="Helvetica,sans-Serif" font-size="10.00">+ setCurrentRep()</text>
<text text-anchor="start" x="54" y="-437.5" font-family="Helvetica,sans-Serif" font-size="10.00">+ getInterval()</text>
<text text-anchor="start" x="54" y="-426.5" font-family="Helvetica,sans-Serif" font-size="10.00">+ setInterval()</text>
<text text-anchor="start" x="54" y="-415.5" font-family="Helvetica,sans-Serif" font-size="10.00">+ getOffset()</text>
<text text-anchor="start" x="54" y="-404.5" font-family="Helvetica,sans-Serif" font-size="10.00">+ setOffset()</text>
<text text-anchor="start" x="54" y="-393.5" font-family="Helvetica,sans-Serif" font-size="10.00">+ getTimer()</text>
</a>
</g>
</g>
<!-- Node1&#45;&gt;Node3 -->
<g id="edge2" class="edge"><title>Node1&#45;&gt;Node3</title>
<path fill="none" stroke="midnightblue" d="M305.609,-655.494C272.161,-645.592 234.317,-630.716 204.5,-609 201.286,-606.659 198.137,-604.161 195.059,-601.536"/>
<polygon fill="none" stroke="midnightblue" points="304.797,-658.902 315.373,-658.283 306.719,-652.171 304.797,-658.902"/>
</g>
<!-- Node4 -->
<g id="node4" class="node"><title>Node4</title>
<g id="a_node4"><a xlink:href="classecs_1_1components_1_1IUserInterface.html" target="_top" xlink:title="UserInterface describes an attribute that is part of the User Interface. ">
<polygon fill="none" stroke="black" points="213.5,-469 213.5,-526 385.5,-526 385.5,-469 213.5,-469"/>
<text text-anchor="middle" x="299.5" y="-514" font-family="Helvetica,sans-Serif" font-size="10.00">ecs::components::IUserInterface</text>
<polyline fill="none" stroke="black" points="213.5,-507 385.5,-507 "/>
<text text-anchor="middle" x="299.5" y="-495" font-family="Helvetica,sans-Serif" font-size="10.00"> </text>
<polyline fill="none" stroke="black" points="213.5,-488 385.5,-488 "/>
<text text-anchor="middle" x="299.5" y="-476" font-family="Helvetica,sans-Serif" font-size="10.00"> </text>
</a>
</g>
</g>
<!-- Node1&#45;&gt;Node4 -->
<g id="edge3" class="edge"><title>Node1&#45;&gt;Node4</title>
<path fill="none" stroke="midnightblue" d="M368.081,-636.057C351.669,-603.138 328.022,-555.708 313.221,-526.021"/>
<polygon fill="none" stroke="midnightblue" points="365.12,-637.962 372.715,-645.35 371.385,-634.839 365.12,-637.962"/>
</g>
<!-- Node10 -->
<g id="node10" class="node"><title>Node10</title>
<g id="a_node10"><a xlink:href="classecs_1_1components_1_1Parallax.html" target="_top" xlink:title="Parallax describes that the entity is animated. ">
<polygon fill="none" stroke="black" points="403.5,-392 403.5,-603 545.5,-603 545.5,-392 403.5,-392"/>
<text text-anchor="middle" x="474.5" y="-591" font-family="Helvetica,sans-Serif" font-size="10.00">ecs::components::Parallax</text>
<polyline fill="none" stroke="black" points="403.5,-584 545.5,-584 "/>
<text text-anchor="middle" x="474.5" y="-572" font-family="Helvetica,sans-Serif" font-size="10.00"> </text>
<polyline fill="none" stroke="black" points="403.5,-565 545.5,-565 "/>
<text text-anchor="start" x="411.5" y="-553" font-family="Helvetica,sans-Serif" font-size="10.00">+ Parallax()</text>
<text text-anchor="start" x="411.5" y="-542" font-family="Helvetica,sans-Serif" font-size="10.00">+ Parallax()</text>
<text text-anchor="start" x="411.5" y="-531" font-family="Helvetica,sans-Serif" font-size="10.00">+ ~Parallax()</text>
<text text-anchor="start" x="411.5" y="-520" font-family="Helvetica,sans-Serif" font-size="10.00">+ getRect()</text>
<text text-anchor="start" x="411.5" y="-509" font-family="Helvetica,sans-Serif" font-size="10.00">+ setId()</text>
<text text-anchor="start" x="411.5" y="-498" font-family="Helvetica,sans-Serif" font-size="10.00">+ getId()</text>
<text text-anchor="start" x="411.5" y="-487" font-family="Helvetica,sans-Serif" font-size="10.00">+ getType()</text>
<text text-anchor="start" x="411.5" y="-476" font-family="Helvetica,sans-Serif" font-size="10.00">+ operator==()</text>
<text text-anchor="start" x="411.5" y="-465" font-family="Helvetica,sans-Serif" font-size="10.00">+ getInterval()</text>
<text text-anchor="start" x="411.5" y="-454" font-family="Helvetica,sans-Serif" font-size="10.00">+ setInterval()</text>
<text text-anchor="start" x="411.5" y="-443" font-family="Helvetica,sans-Serif" font-size="10.00">+ getMove()</text>
<text text-anchor="start" x="411.5" y="-432" font-family="Helvetica,sans-Serif" font-size="10.00">+ setMove()</text>
<text text-anchor="start" x="411.5" y="-421" font-family="Helvetica,sans-Serif" font-size="10.00">+ getOffset()</text>
<text text-anchor="start" x="411.5" y="-410" font-family="Helvetica,sans-Serif" font-size="10.00">+ setOffset()</text>
<text text-anchor="start" x="411.5" y="-399" font-family="Helvetica,sans-Serif" font-size="10.00">+ getTimer()</text>
</a>
</g>
</g>
<!-- Node1&#45;&gt;Node10 -->
<g id="edge9" class="edge"><title>Node1&#45;&gt;Node10</title>
<path fill="none" stroke="midnightblue" d="M405.047,-636.221C410.081,-626.24 415.792,-614.916 421.725,-603.151"/>
<polygon fill="none" stroke="midnightblue" points="401.822,-634.845 400.444,-645.35 408.072,-637.997 401.822,-634.845"/>
</g>
<!-- Node11 -->
<g id="node11" class="node"><title>Node11</title>
<g id="a_node11"><a xlink:href="classecs_1_1components_1_1Sprite.html" target="_top" xlink:title="Sprite describes an attribute that contains an image id. ">
<polygon fill="none" stroke="black" points="563.5,-403 563.5,-592 697.5,-592 697.5,-403 563.5,-403"/>
<text text-anchor="middle" x="630.5" y="-580" font-family="Helvetica,sans-Serif" font-size="10.00">ecs::components::Sprite</text>
<polyline fill="none" stroke="black" points="563.5,-573 697.5,-573 "/>
<text text-anchor="middle" x="630.5" y="-561" font-family="Helvetica,sans-Serif" font-size="10.00"> </text>
<polyline fill="none" stroke="black" points="563.5,-554 697.5,-554 "/>
<text text-anchor="start" x="571.5" y="-542" font-family="Helvetica,sans-Serif" font-size="10.00">+ Sprite()</text>
<text text-anchor="start" x="571.5" y="-531" font-family="Helvetica,sans-Serif" font-size="10.00">+ Sprite()</text>
<text text-anchor="start" x="571.5" y="-520" font-family="Helvetica,sans-Serif" font-size="10.00">+ Sprite()</text>
<text text-anchor="start" x="571.5" y="-509" font-family="Helvetica,sans-Serif" font-size="10.00">+ ~Sprite()</text>
<text text-anchor="start" x="571.5" y="-498" font-family="Helvetica,sans-Serif" font-size="10.00">+ setId()</text>
<text text-anchor="start" x="571.5" y="-487" font-family="Helvetica,sans-Serif" font-size="10.00">+ getId()</text>
<text text-anchor="start" x="571.5" y="-476" font-family="Helvetica,sans-Serif" font-size="10.00">+ getType()</text>
<text text-anchor="start" x="571.5" y="-465" font-family="Helvetica,sans-Serif" font-size="10.00">+ operator==()</text>
<text text-anchor="start" x="571.5" y="-454" font-family="Helvetica,sans-Serif" font-size="10.00">+ getName()</text>
<text text-anchor="start" x="571.5" y="-443" font-family="Helvetica,sans-Serif" font-size="10.00">+ getRect()</text>
<text text-anchor="start" x="571.5" y="-432" font-family="Helvetica,sans-Serif" font-size="10.00">+ setRect()</text>
<text text-anchor="start" x="571.5" y="-421" font-family="Helvetica,sans-Serif" font-size="10.00">+ getIsVisible()</text>
<text text-anchor="start" x="571.5" y="-410" font-family="Helvetica,sans-Serif" font-size="10.00">+ setIsVisible()</text>
</a>
</g>
</g>
<!-- Node1&#45;&gt;Node11 -->
<g id="edge10" class="edge"><title>Node1&#45;&gt;Node11</title>
<path fill="none" stroke="midnightblue" d="M467.438,-653.125C496.893,-643.195 529.147,-628.928 554.5,-609 560.907,-603.964 566.983,-598.24 572.698,-592.109"/>
<polygon fill="none" stroke="midnightblue" points="466.002,-649.911 457.571,-656.328 468.163,-656.569 466.002,-649.911"/>
</g>
<!-- Node2 -->
<g id="node2" class="node"><title>Node2</title>
<g id="a_node2"><a xlink:href="classecs_1_1components_1_1IComponent.html" target="_top" xlink:title="Icomponent describes an attribute of an Entity. ">
<polygon fill="none" stroke="black" points="304.5,-739.5 304.5,-796.5 468.5,-796.5 468.5,-739.5 304.5,-739.5"/>
<text text-anchor="middle" x="386.5" y="-784.5" font-family="Helvetica,sans-Serif" font-size="10.00">ecs::components::IComponent</text>
<polyline fill="none" stroke="black" points="304.5,-777.5 468.5,-777.5 "/>
<text text-anchor="middle" x="386.5" y="-765.5" font-family="Helvetica,sans-Serif" font-size="10.00"> </text>
<polyline fill="none" stroke="black" points="304.5,-758.5 468.5,-758.5 "/>
<text text-anchor="start" x="312.5" y="-746.5" font-family="Helvetica,sans-Serif" font-size="10.00">+ getType()</text>
</a>
</g>
</g>
<!-- Node2&#45;&gt;Node1 -->
<g id="edge1" class="edge"><title>Node2&#45;&gt;Node1</title>
<path fill="none" stroke="midnightblue" d="M386.5,-729.209C386.5,-720.293 386.5,-710.951 386.5,-702.584"/>
<polygon fill="none" stroke="midnightblue" points="383,-729.397 386.5,-739.397 390,-729.397 383,-729.397"/>
</g>
<!-- Node5 -->
<g id="node5" class="node"><title>Node5</title>
<g id="a_node5"><a xlink:href="classecs_1_1components_1_1Button.html" target="_top" xlink:title="Button describes an attribute that is button. ">
<polygon fill="none" stroke="black" points="0,-155 0,-322 137,-322 137,-155 0,-155"/>
<text text-anchor="middle" x="68.5" y="-310" font-family="Helvetica,sans-Serif" font-size="10.00">ecs::components::Button</text>
<polyline fill="none" stroke="black" points="0,-303 137,-303 "/>
<text text-anchor="middle" x="68.5" y="-291" font-family="Helvetica,sans-Serif" font-size="10.00"> </text>
<polyline fill="none" stroke="black" points="0,-284 137,-284 "/>
<text text-anchor="start" x="8" y="-272" font-family="Helvetica,sans-Serif" font-size="10.00">+ Button()</text>
<text text-anchor="start" x="8" y="-261" font-family="Helvetica,sans-Serif" font-size="10.00">+ Button()</text>
<text text-anchor="start" x="8" y="-250" font-family="Helvetica,sans-Serif" font-size="10.00">+ ~Button()</text>
<text text-anchor="start" x="8" y="-239" font-family="Helvetica,sans-Serif" font-size="10.00">+ setIsSelected()</text>
<text text-anchor="start" x="8" y="-228" font-family="Helvetica,sans-Serif" font-size="10.00">+ getIsSelected()</text>
<text text-anchor="start" x="8" y="-217" font-family="Helvetica,sans-Serif" font-size="10.00">+ setCmd()</text>
<text text-anchor="start" x="8" y="-206" font-family="Helvetica,sans-Serif" font-size="10.00">+ getCmd()</text>
<text text-anchor="start" x="8" y="-195" font-family="Helvetica,sans-Serif" font-size="10.00">+ setParameter()</text>
<text text-anchor="start" x="8" y="-184" font-family="Helvetica,sans-Serif" font-size="10.00">+ getParameter()</text>
<text text-anchor="start" x="8" y="-173" font-family="Helvetica,sans-Serif" font-size="10.00">+ getType()</text>
<text text-anchor="start" x="8" y="-162" font-family="Helvetica,sans-Serif" font-size="10.00">+ operator==()</text>
</a>
</g>
</g>
<!-- Node4&#45;&gt;Node5 -->
<g id="edge4" class="edge"><title>Node4&#45;&gt;Node5</title>
<path fill="none" stroke="midnightblue" d="M272.731,-460.424C254.693,-437.532 229.518,-408.16 203.5,-386 180.403,-366.327 167.515,-370.876 145.5,-350 136.677,-341.634 128.262,-332.107 120.452,-322.237"/>
<polygon fill="none" stroke="midnightblue" points="270.14,-462.793 279.042,-468.539 275.666,-458.496 270.14,-462.793"/>
</g>
<!-- Node6 -->
<g id="node6" class="node"><title>Node6</title>
<g id="a_node6"><a xlink:href="classecs_1_1components_1_1Image.html" target="_top" xlink:title="Image describes an attribute that is an Image. ">
<polygon fill="none" stroke="black" points="155,-177 155,-300 290,-300 290,-177 155,-177"/>
<text text-anchor="middle" x="222.5" y="-288" font-family="Helvetica,sans-Serif" font-size="10.00">ecs::components::Image</text>
<polyline fill="none" stroke="black" points="155,-281 290,-281 "/>
<text text-anchor="middle" x="222.5" y="-269" font-family="Helvetica,sans-Serif" font-size="10.00"> </text>
<polyline fill="none" stroke="black" points="155,-262 290,-262 "/>
<text text-anchor="start" x="163" y="-250" font-family="Helvetica,sans-Serif" font-size="10.00">+ Image()</text>
<text text-anchor="start" x="163" y="-239" font-family="Helvetica,sans-Serif" font-size="10.00">+ Image()</text>
<text text-anchor="start" x="163" y="-228" font-family="Helvetica,sans-Serif" font-size="10.00">+ ~Image()</text>
<text text-anchor="start" x="163" y="-217" font-family="Helvetica,sans-Serif" font-size="10.00">+ setId()</text>
<text text-anchor="start" x="163" y="-206" font-family="Helvetica,sans-Serif" font-size="10.00">+ getId()</text>
<text text-anchor="start" x="163" y="-195" font-family="Helvetica,sans-Serif" font-size="10.00">+ getType()</text>
<text text-anchor="start" x="163" y="-184" font-family="Helvetica,sans-Serif" font-size="10.00">+ operator==()</text>
</a>
</g>
</g>
<!-- Node4&#45;&gt;Node6 -->
<g id="edge5" class="edge"><title>Node4&#45;&gt;Node6</title>
<path fill="none" stroke="midnightblue" d="M288.344,-459.264C275.872,-417.639 255.49,-349.609 240.702,-300.253"/>
<polygon fill="none" stroke="midnightblue" points="285.037,-460.422 291.26,-468.996 291.742,-458.413 285.037,-460.422"/>
</g>
<!-- Node7 -->
<g id="node7" class="node"><title>Node7</title>
<g id="a_node7"><a xlink:href="classecs_1_1components_1_1PopUp.html" target="_top" xlink:title="PopUp describes an attribute that is a popUp. ">
<polygon fill="none" stroke="black" points="308,-177 308,-300 445,-300 445,-177 308,-177"/>
<text text-anchor="middle" x="376.5" y="-288" font-family="Helvetica,sans-Serif" font-size="10.00">ecs::components::PopUp</text>
<polyline fill="none" stroke="black" points="308,-281 445,-281 "/>
<text text-anchor="middle" x="376.5" y="-269" font-family="Helvetica,sans-Serif" font-size="10.00"> </text>
<polyline fill="none" stroke="black" points="308,-262 445,-262 "/>
<text text-anchor="start" x="316" y="-250" font-family="Helvetica,sans-Serif" font-size="10.00">+ PopUp()</text>
<text text-anchor="start" x="316" y="-239" font-family="Helvetica,sans-Serif" font-size="10.00">+ PopUp()</text>
<text text-anchor="start" x="316" y="-228" font-family="Helvetica,sans-Serif" font-size="10.00">+ ~PopUp()</text>
<text text-anchor="start" x="316" y="-217" font-family="Helvetica,sans-Serif" font-size="10.00">+ setId()</text>
<text text-anchor="start" x="316" y="-206" font-family="Helvetica,sans-Serif" font-size="10.00">+ getId()</text>
<text text-anchor="start" x="316" y="-195" font-family="Helvetica,sans-Serif" font-size="10.00">+ getType()</text>
<text text-anchor="start" x="316" y="-184" font-family="Helvetica,sans-Serif" font-size="10.00">+ operator==()</text>
</a>
</g>
</g>
<!-- Node4&#45;&gt;Node7 -->
<g id="edge6" class="edge"><title>Node4&#45;&gt;Node7</title>
<path fill="none" stroke="midnightblue" d="M310.656,-459.264C323.128,-417.639 343.51,-349.609 358.298,-300.253"/>
<polygon fill="none" stroke="midnightblue" points="307.258,-458.413 307.74,-468.996 313.963,-460.422 307.258,-458.413"/>
</g>
<!-- Node8 -->
<g id="node8" class="node"><title>Node8</title>
<g id="a_node8"><a xlink:href="classecs_1_1components_1_1Text.html" target="_top" xlink:title="Text describes an attribute that is a Text. ">
<polygon fill="none" stroke="black" points="463.5,-127.5 463.5,-349.5 587.5,-349.5 587.5,-127.5 463.5,-127.5"/>
<text text-anchor="middle" x="525.5" y="-337.5" font-family="Helvetica,sans-Serif" font-size="10.00">ecs::components::Text</text>
<polyline fill="none" stroke="black" points="463.5,-330.5 587.5,-330.5 "/>
<text text-anchor="middle" x="525.5" y="-318.5" font-family="Helvetica,sans-Serif" font-size="10.00"> </text>
<polyline fill="none" stroke="black" points="463.5,-311.5 587.5,-311.5 "/>
<text text-anchor="start" x="471.5" y="-299.5" font-family="Helvetica,sans-Serif" font-size="10.00">+ Text()</text>
<text text-anchor="start" x="471.5" y="-288.5" font-family="Helvetica,sans-Serif" font-size="10.00">+ Text()</text>
<text text-anchor="start" x="471.5" y="-277.5" font-family="Helvetica,sans-Serif" font-size="10.00">+ Text()</text>
<text text-anchor="start" x="471.5" y="-266.5" font-family="Helvetica,sans-Serif" font-size="10.00">+ ~Text()</text>
<text text-anchor="start" x="471.5" y="-255.5" font-family="Helvetica,sans-Serif" font-size="10.00">+ setId()</text>
<text text-anchor="start" x="471.5" y="-244.5" font-family="Helvetica,sans-Serif" font-size="10.00">+ getId()</text>
<text text-anchor="start" x="471.5" y="-233.5" font-family="Helvetica,sans-Serif" font-size="10.00">+ getType()</text>
<text text-anchor="start" x="471.5" y="-222.5" font-family="Helvetica,sans-Serif" font-size="10.00">+ setStr()</text>
<text text-anchor="start" x="471.5" y="-211.5" font-family="Helvetica,sans-Serif" font-size="10.00">+ getStr()</text>
<text text-anchor="start" x="471.5" y="-200.5" font-family="Helvetica,sans-Serif" font-size="10.00">+ setSize()</text>
<text text-anchor="start" x="471.5" y="-189.5" font-family="Helvetica,sans-Serif" font-size="10.00">+ getSize()</text>
<text text-anchor="start" x="471.5" y="-178.5" font-family="Helvetica,sans-Serif" font-size="10.00">+ setColor()</text>
<text text-anchor="start" x="471.5" y="-167.5" font-family="Helvetica,sans-Serif" font-size="10.00">+ getColor()</text>
<text text-anchor="start" x="471.5" y="-156.5" font-family="Helvetica,sans-Serif" font-size="10.00">+ getPostion()</text>
<text text-anchor="start" x="471.5" y="-145.5" font-family="Helvetica,sans-Serif" font-size="10.00">+ setPostion()</text>
<text text-anchor="start" x="471.5" y="-134.5" font-family="Helvetica,sans-Serif" font-size="10.00">+ operator==()</text>
</a>
</g>
</g>
<!-- Node4&#45;&gt;Node8 -->
<g id="edge7" class="edge"><title>Node4&#45;&gt;Node8</title>
<path fill="none" stroke="midnightblue" d="M325.515,-460.79C343.338,-437.798 368.4,-408.175 394.5,-386 417.91,-366.111 431.46,-371.397 453.5,-350 456.868,-346.73 460.158,-343.276 463.361,-339.687"/>
<polygon fill="none" stroke="midnightblue" points="322.581,-458.865 319.287,-468.935 328.142,-463.117 322.581,-458.865"/>
</g>
<!-- Node9 -->
<g id="node9" class="node"><title>Node9</title>
<g id="a_node9"><a xlink:href="classecs_1_1components_1_1StaticText.html" target="_top" xlink:title="StaticText describes an attribute that is a StaticText. ">
<polygon fill="none" stroke="black" points="449.5,-0.5 449.5,-90.5 601.5,-90.5 601.5,-0.5 449.5,-0.5"/>
<text text-anchor="middle" x="525.5" y="-78.5" font-family="Helvetica,sans-Serif" font-size="10.00">ecs::components::StaticText</text>
<polyline fill="none" stroke="black" points="449.5,-71.5 601.5,-71.5 "/>
<text text-anchor="middle" x="525.5" y="-59.5" font-family="Helvetica,sans-Serif" font-size="10.00"> </text>
<polyline fill="none" stroke="black" points="449.5,-52.5 601.5,-52.5 "/>
<text text-anchor="start" x="457.5" y="-40.5" font-family="Helvetica,sans-Serif" font-size="10.00">+ StaticText()</text>
<text text-anchor="start" x="457.5" y="-29.5" font-family="Helvetica,sans-Serif" font-size="10.00">+ StaticText()</text>
<text text-anchor="start" x="457.5" y="-18.5" font-family="Helvetica,sans-Serif" font-size="10.00">+ ~StaticText()</text>
<text text-anchor="start" x="457.5" y="-7.5" font-family="Helvetica,sans-Serif" font-size="10.00">+ getType()</text>
</a>
</g>
</g>
<!-- Node8&#45;&gt;Node9 -->
<g id="edge8" class="edge"><title>Node8&#45;&gt;Node9</title>
<path fill="none" stroke="midnightblue" d="M525.5,-117.039C525.5,-107.757 525.5,-98.8141 525.5,-90.5947"/>
<polygon fill="none" stroke="midnightblue" points="522,-117.224 525.5,-127.224 529,-117.224 522,-117.224"/>
</g>
</g>
</svg>
