<?xml version="1.0" encoding="UTF-8" standalone="no"?>
<!DOCTYPE svg PUBLIC "-//W3C//DTD SVG 1.1//EN"
 "http://www.w3.org/Graphics/SVG/1.1/DTD/svg11.dtd">
<!-- Generated by graphviz version 2.38.0 (20140413.2041)
 -->
<!-- Title: ecs::network::ServerSession Pages: 1 -->
<svg width="306pt" height="336pt"
 viewBox="0.00 0.00 306.00 336.00" xmlns="http://www.w3.org/2000/svg" xmlns:xlink="http://www.w3.org/1999/xlink">
<g id="graph0" class="graph" transform="scale(1 1) rotate(0) translate(4 332)">
<title>ecs::network::ServerSession</title>
<!-- Node1 -->
<g id="node1" class="node"><title>Node1</title>
<polygon fill="#bfbfbf" stroke="black" points="82,-0.5 82,-211.5 234,-211.5 234,-0.5 82,-0.5"/>
<text text-anchor="middle" x="158" y="-199.5" font-family="Helvetica,sans-Serif" font-size="10.00">ecs::network::ServerSession</text>
<polyline fill="none" stroke="black" points="82,-192.5 234,-192.5 "/>
<text text-anchor="middle" x="158" y="-180.5" font-family="Helvetica,sans-Serif" font-size="10.00"> </text>
<polyline fill="none" stroke="black" points="82,-173.5 234,-173.5 "/>
<text text-anchor="start" x="90" y="-161.5" font-family="Helvetica,sans-Serif" font-size="10.00">+ ServerSession()</text>
<text text-anchor="start" x="90" y="-150.5" font-family="Helvetica,sans-Serif" font-size="10.00">+ ~ServerSession()</text>
<text text-anchor="start" x="90" y="-139.5" font-family="Helvetica,sans-Serif" font-size="10.00">+ do_write()</text>
<text text-anchor="start" x="90" y="-128.5" font-family="Helvetica,sans-Serif" font-size="10.00">+ handle_write()</text>
<text text-anchor="start" x="90" y="-117.5" font-family="Helvetica,sans-Serif" font-size="10.00">+ manage_data()</text>
<text text-anchor="start" x="90" y="-106.5" font-family="Helvetica,sans-Serif" font-size="10.00">+ getInfo()</text>
<text text-anchor="start" x="90" y="-95.5" font-family="Helvetica,sans-Serif" font-size="10.00">+ isPacketValid()</text>
<text text-anchor="start" x="90" y="-84.5" font-family="Helvetica,sans-Serif" font-size="10.00">+ setMsgPacket()</text>
<text text-anchor="start" x="90" y="-73.5" font-family="Helvetica,sans-Serif" font-size="10.00">+ manageLeaveRoom()</text>
<text text-anchor="start" x="90" y="-62.5" font-family="Helvetica,sans-Serif" font-size="10.00">+ manageJoinRoom()</text>
<text text-anchor="start" x="90" y="-51.5" font-family="Helvetica,sans-Serif" font-size="10.00">+ manageGetRooms()</text>
<text text-anchor="start" x="90" y="-40.5" font-family="Helvetica,sans-Serif" font-size="10.00">+ manageHandShake()</text>
<text text-anchor="start" x="90" y="-29.5" font-family="Helvetica,sans-Serif" font-size="10.00">+ manageIsReady()</text>
<text text-anchor="start" x="90" y="-18.5" font-family="Helvetica,sans-Serif" font-size="10.00">+ manageLaunchGame()</text>
<text text-anchor="start" x="90" y="-7.5" font-family="Helvetica,sans-Serif" font-size="10.00">+ manageUpdate()</text>
</g>
<!-- Node2 -->
<g id="node2" class="node"><title>Node2</title>
<polygon fill="none" stroke="#bfbfbf" points="0,-254 0,-322 158,-322 158,-254 0,-254"/>
<text text-anchor="start" x="8" y="-310" font-family="Helvetica,sans-Serif" font-size="10.00">std::enable_shared</text>
<text text-anchor="middle" x="79" y="-299" font-family="Helvetica,sans-Serif" font-size="10.00">_from_this&lt; ServerSession &gt;</text>
<polyline fill="none" stroke="#bfbfbf" points="0,-292 158,-292 "/>
<text text-anchor="middle" x="79" y="-280" font-family="Helvetica,sans-Serif" font-size="10.00"> </text>
<polyline fill="none" stroke="#bfbfbf" points="0,-273 158,-273 "/>
<text text-anchor="middle" x="79" y="-261" font-family="Helvetica,sans-Serif" font-size="10.00"> </text>
</g>
<!-- Node2&#45;&gt;Node1 -->
<g id="edge1" class="edge"><title>Node2&#45;&gt;Node1</title>
<path fill="none" stroke="midnightblue" d="M97.5802,-244.665C102.017,-234.557 106.948,-223.322 112.026,-211.752"/>
<polygon fill="none" stroke="midnightblue" points="94.3038,-243.422 93.4898,-253.985 100.714,-246.235 94.3038,-243.422"/>
</g>
<!-- Node3 -->
<g id="node3" class="node"><title>Node3</title>
<g id="a_node3"><a xlink:href="classecs_1_1network_1_1ISession.html" target="_top" xlink:title="{ecs::network::ISession\n||+ do_write()\l+ handle_write()\l+ manage_data()\l}">
<polygon fill="none" stroke="black" points="176,-248.5 176,-327.5 298,-327.5 298,-248.5 176,-248.5"/>
<text text-anchor="middle" x="237" y="-315.5" font-family="Helvetica,sans-Serif" font-size="10.00">ecs::network::ISession</text>
<polyline fill="none" stroke="black" points="176,-308.5 298,-308.5 "/>
<text text-anchor="middle" x="237" y="-296.5" font-family="Helvetica,sans-Serif" font-size="10.00"> </text>
<polyline fill="none" stroke="black" points="176,-289.5 298,-289.5 "/>
<text text-anchor="start" x="184" y="-277.5" font-family="Helvetica,sans-Serif" font-size="10.00">+ do_write()</text>
<text text-anchor="start" x="184" y="-266.5" font-family="Helvetica,sans-Serif" font-size="10.00">+ handle_write()</text>
<text text-anchor="start" x="184" y="-255.5" font-family="Helvetica,sans-Serif" font-size="10.00">+ manage_data()</text>
</a>
</g>
</g>
<!-- Node3&#45;&gt;Node1 -->
<g id="edge2" class="edge"><title>Node3&#45;&gt;Node1</title>
<path fill="none" stroke="midnightblue" d="M215.93,-238.993C212.161,-230.406 208.104,-221.161 203.949,-211.694"/>
<polygon fill="none" stroke="midnightblue" points="212.829,-240.635 220.053,-248.385 219.239,-237.822 212.829,-240.635"/>
</g>
</g>
</svg>
