<?xml version="1.0" encoding="UTF-8" standalone="no"?>
<!DOCTYPE svg PUBLIC "-//W3C//DTD SVG 1.1//EN"
 "http://www.w3.org/Graphics/SVG/1.1/DTD/svg11.dtd">
<!-- Generated by graphviz version 2.38.0 (20140413.2041)
 -->
<!-- Title: ecs::system::ASystem Pages: 1 -->
<!--zoomable 353 -->
<svg id="main" version="1.1" xmlns="http://www.w3.org/2000/svg" xmlns:xlink="http://www.w3.org/1999/xlink" xml:space="preserve" onload="init(evt)">
<style type="text/css"><![CDATA[
.edge:hover path { stroke: red; }
.edge:hover polygon { stroke: red; fill: red; }
]]></style>
<script type="text/javascript"><![CDATA[
var edges = document.getElementsByTagName('g');
if (edges && edges.length) {
  for (var i=0;i<edges.length;i++) {
    if (edges[i].id.substr(0,4)=='edge') {
      edges[i].setAttribute('class','edge');
    }
  }
}
]]></script>
        <defs>
                <circle id="rim" cx="0" cy="0" r="7"/>
                <circle id="rim2" cx="0" cy="0" r="3.5"/>
                <g id="zoomPlus">
                        <use xlink:href="#rim" fill="#404040">
                                <set attributeName="fill" to="#808080" begin="zoomplus.mouseover" end="zoomplus.mouseout"/>
                        </use>
                        <path d="M-4,0h8M0,-4v8" fill="none" stroke="white" stroke-width="1.5" pointer-events="none"/>
                </g>
                <g id="zoomMin">
                        <use xlink:href="#rim" fill="#404040">
                                <set attributeName="fill" to="#808080" begin="zoomminus.mouseover" end="zoomminus.mouseout"/>
                        </use>
                        <path d="M-4,0h8" fill="none" stroke="white" stroke-width="1.5" pointer-events="none"/>
                </g>
                <g id="dirArrow">
                        <path fill="none" stroke="white" stroke-width="1.5" d="M0,-3.0v7 M-2.5,-0.5L0,-3.0L2.5,-0.5"/>
                </g>
               <g id="resetDef">
                       <use xlink:href="#rim2" fill="#404040">
                               <set attributeName="fill" to="#808080" begin="reset.mouseover" end="reset.mouseout"/>
                       </use>
               </g>
        </defs>

<script type="text/javascript">
var viewWidth = 1757;
var viewHeight = 353;
var sectionId = 'dynsection-0';
</script>
<script xlink:href="svgpan.js"/>
<svg id="graph" class="graph">
<g id="viewport">
<title>ecs::system::ASystem</title>
<!-- Node1 -->
<g id="node1" class="node"><title>Node1</title>
<polygon fill="#bfbfbf" stroke="black" points="810,-160.5 810,-250.5 934,-250.5 934,-160.5 810,-160.5"/>
<text text-anchor="middle" x="872" y="-238.5" font-family="Helvetica,sans-Serif" font-size="10.00">ecs::system::ASystem</text>
<polyline fill="none" stroke="black" points="810,-231.5 934,-231.5 "/>
<text text-anchor="start" x="818" y="-219.5" font-family="Helvetica,sans-Serif" font-size="10.00"># _managerWrapper</text>
<text text-anchor="start" x="818" y="-208.5" font-family="Helvetica,sans-Serif" font-size="10.00"># _entityFactory</text>
<text text-anchor="start" x="818" y="-197.5" font-family="Helvetica,sans-Serif" font-size="10.00"># _entitiesToDelete</text>
<polyline fill="none" stroke="black" points="810,-190.5 934,-190.5 "/>
<text text-anchor="start" x="818" y="-178.5" font-family="Helvetica,sans-Serif" font-size="10.00">+ ASystem()</text>
<text text-anchor="start" x="818" y="-167.5" font-family="Helvetica,sans-Serif" font-size="10.00">+ ~ASystem()</text>
</g>
<!-- Node3 -->
<g id="node3" class="node"><title>Node3</title>
<g id="a_node3"><a xlink:href="classecs_1_1system_1_1AnimationSystem.html" target="_top" xlink:title="{ecs::system::AnimationSystem\n||+ AnimationSystem()\l+ ~AnimationSystem()\l+ update()\l}">
<polygon fill="none" stroke="black" points="0,-22.5 0,-101.5 166,-101.5 166,-22.5 0,-22.5"/>
<text text-anchor="middle" x="83" y="-89.5" font-family="Helvetica,sans-Serif" font-size="10.00">ecs::system::AnimationSystem</text>
<polyline fill="none" stroke="black" points="0,-82.5 166,-82.5 "/>
<text text-anchor="middle" x="83" y="-70.5" font-family="Helvetica,sans-Serif" font-size="10.00"> </text>
<polyline fill="none" stroke="black" points="0,-63.5 166,-63.5 "/>
<text text-anchor="start" x="8" y="-51.5" font-family="Helvetica,sans-Serif" font-size="10.00">+ AnimationSystem()</text>
<text text-anchor="start" x="8" y="-40.5" font-family="Helvetica,sans-Serif" font-size="10.00">+ ~AnimationSystem()</text>
<text text-anchor="start" x="8" y="-29.5" font-family="Helvetica,sans-Serif" font-size="10.00">+ update()</text>
</a>
</g>
</g>
<!-- Node1&#45;&gt;Node3 -->
<g id="edge2" class="edge"><title>Node1&#45;&gt;Node3</title>
<path fill="none" stroke="midnightblue" d="M799.639,-200.428C645.295,-191.05 288.594,-165.496 175,-124 160.239,-118.608 145.496,-110.412 132.272,-101.761"/>
<polygon fill="none" stroke="midnightblue" points="799.76,-203.942 809.952,-201.049 800.181,-196.954 799.76,-203.942"/>
</g>
<!-- Node4 -->
<g id="node4" class="node"><title>Node4</title>
<g id="a_node4"><a xlink:href="classecs_1_1system_1_1ButtonColorSystem.html" target="_top" xlink:title="{ecs::system::ButtonColor\lSystem\n||+ ButtonColorSystem()\l+ ~ButtonColorSystem()\l+ update()\l}">
<polygon fill="none" stroke="black" points="184.5,-17 184.5,-107 321.5,-107 321.5,-17 184.5,-17"/>
<text text-anchor="start" x="192.5" y="-95" font-family="Helvetica,sans-Serif" font-size="10.00">ecs::system::ButtonColor</text>
<text text-anchor="middle" x="253" y="-84" font-family="Helvetica,sans-Serif" font-size="10.00">System</text>
<polyline fill="none" stroke="black" points="184.5,-77 321.5,-77 "/>
<text text-anchor="middle" x="253" y="-65" font-family="Helvetica,sans-Serif" font-size="10.00"> </text>
<polyline fill="none" stroke="black" points="184.5,-58 321.5,-58 "/>
<text text-anchor="start" x="192.5" y="-46" font-family="Helvetica,sans-Serif" font-size="10.00">+ ButtonColorSystem()</text>
<text text-anchor="start" x="192.5" y="-35" font-family="Helvetica,sans-Serif" font-size="10.00">+ ~ButtonColorSystem()</text>
<text text-anchor="start" x="192.5" y="-24" font-family="Helvetica,sans-Serif" font-size="10.00">+ update()</text>
</a>
</g>
</g>
<!-- Node1&#45;&gt;Node4 -->
<g id="edge3" class="edge"><title>Node1&#45;&gt;Node4</title>
<path fill="none" stroke="midnightblue" d="M799.557,-205.274C692.683,-203.91 488.424,-191.619 331,-124 320.891,-119.658 310.961,-113.674 301.753,-107.141"/>
<polygon fill="none" stroke="midnightblue" points="799.557,-208.774 809.591,-205.374 799.626,-201.775 799.557,-208.774"/>
</g>
<!-- Node5 -->
<g id="node5" class="node"><title>Node5</title>
<g id="a_node5"><a xlink:href="classecs_1_1system_1_1ChooseRoomSystem.html" target="_top" xlink:title="{ecs::system::ChooseRoomSystem\n||+ ChooseRoomSystem()\l+ ~ChooseRoomSystem()\l+ update()\l}">
<polygon fill="none" stroke="black" points="340,-22.5 340,-101.5 520,-101.5 520,-22.5 340,-22.5"/>
<text text-anchor="middle" x="430" y="-89.5" font-family="Helvetica,sans-Serif" font-size="10.00">ecs::system::ChooseRoomSystem</text>
<polyline fill="none" stroke="black" points="340,-82.5 520,-82.5 "/>
<text text-anchor="middle" x="430" y="-70.5" font-family="Helvetica,sans-Serif" font-size="10.00"> </text>
<polyline fill="none" stroke="black" points="340,-63.5 520,-63.5 "/>
<text text-anchor="start" x="348" y="-51.5" font-family="Helvetica,sans-Serif" font-size="10.00">+ ChooseRoomSystem()</text>
<text text-anchor="start" x="348" y="-40.5" font-family="Helvetica,sans-Serif" font-size="10.00">+ ~ChooseRoomSystem()</text>
<text text-anchor="start" x="348" y="-29.5" font-family="Helvetica,sans-Serif" font-size="10.00">+ update()</text>
</a>
</g>
</g>
<!-- Node1&#45;&gt;Node5 -->
<g id="edge4" class="edge"><title>Node1&#45;&gt;Node5</title>
<path fill="none" stroke="midnightblue" d="M799.579,-194.448C728.688,-183.016 618.594,-160.972 529,-124 514.351,-117.955 499.377,-109.881 485.654,-101.592"/>
<polygon fill="none" stroke="midnightblue" points="799.322,-197.951 809.746,-196.058 800.417,-191.037 799.322,-197.951"/>
</g>
<!-- Node6 -->
<g id="node6" class="node"><title>Node6</title>
<g id="a_node6"><a xlink:href="classecs_1_1system_1_1DefeatSystem.html" target="_top" xlink:title="{ecs::system::DefeatSystem\n||+ DefeatSystem()\l+ ~DefeatSystem()\l+ update()\l}">
<polygon fill="none" stroke="black" points="538.5,-22.5 538.5,-101.5 687.5,-101.5 687.5,-22.5 538.5,-22.5"/>
<text text-anchor="middle" x="613" y="-89.5" font-family="Helvetica,sans-Serif" font-size="10.00">ecs::system::DefeatSystem</text>
<polyline fill="none" stroke="black" points="538.5,-82.5 687.5,-82.5 "/>
<text text-anchor="middle" x="613" y="-70.5" font-family="Helvetica,sans-Serif" font-size="10.00"> </text>
<polyline fill="none" stroke="black" points="538.5,-63.5 687.5,-63.5 "/>
<text text-anchor="start" x="546.5" y="-51.5" font-family="Helvetica,sans-Serif" font-size="10.00">+ DefeatSystem()</text>
<text text-anchor="start" x="546.5" y="-40.5" font-family="Helvetica,sans-Serif" font-size="10.00">+ ~DefeatSystem()</text>
<text text-anchor="start" x="546.5" y="-29.5" font-family="Helvetica,sans-Serif" font-size="10.00">+ update()</text>
</a>
</g>
</g>
<!-- Node1&#45;&gt;Node6 -->
<g id="edge5" class="edge"><title>Node1&#45;&gt;Node6</title>
<path fill="none" stroke="midnightblue" d="M800.374,-175.365C768.048,-161.257 729.835,-143.221 697,-124 685.646,-117.353 673.936,-109.537 662.998,-101.759"/>
<polygon fill="none" stroke="midnightblue" points="799.197,-178.669 809.764,-179.425 801.975,-172.244 799.197,-178.669"/>
</g>
<!-- Node7 -->
<g id="node7" class="node"><title>Node7</title>
<g id="a_node7"><a xlink:href="classecs_1_1system_1_1DisplaySystem.html" target="_top" xlink:title="{ecs::system::DisplaySystem\n||+ DisplaySystem()\l+ ~DisplaySystem()\l+ update()\l}">
<polygon fill="none" stroke="black" points="706,-22.5 706,-101.5 858,-101.5 858,-22.5 706,-22.5"/>
<text text-anchor="middle" x="782" y="-89.5" font-family="Helvetica,sans-Serif" font-size="10.00">ecs::system::DisplaySystem</text>
<polyline fill="none" stroke="black" points="706,-82.5 858,-82.5 "/>
<text text-anchor="middle" x="782" y="-70.5" font-family="Helvetica,sans-Serif" font-size="10.00"> </text>
<polyline fill="none" stroke="black" points="706,-63.5 858,-63.5 "/>
<text text-anchor="start" x="714" y="-51.5" font-family="Helvetica,sans-Serif" font-size="10.00">+ DisplaySystem()</text>
<text text-anchor="start" x="714" y="-40.5" font-family="Helvetica,sans-Serif" font-size="10.00">+ ~DisplaySystem()</text>
<text text-anchor="start" x="714" y="-29.5" font-family="Helvetica,sans-Serif" font-size="10.00">+ update()</text>
</a>
</g>
</g>
<!-- Node1&#45;&gt;Node7 -->
<g id="edge6" class="edge"><title>Node1&#45;&gt;Node7</title>
<path fill="none" stroke="midnightblue" d="M838.384,-151.648C827.904,-135.172 816.543,-117.31 806.784,-101.965"/>
<polygon fill="none" stroke="midnightblue" points="835.45,-153.557 843.77,-160.117 841.357,-149.8 835.45,-153.557"/>
</g>
<!-- Node8 -->
<g id="node8" class="node"><title>Node8</title>
<g id="a_node8"><a xlink:href="classecs_1_1system_1_1EnemiesMovementSystem.html" target="_top" xlink:title="{ecs::system::EnemiesMovement\lSystem\n||+ EnemiesMovementSystem()\l+ ~EnemiesMovementSystem()\l+ update()\l+ updateVelocityOnPattern()\l+ spawnRandomEnemies()\l}">
<polygon fill="none" stroke="black" points="876.5,-6 876.5,-118 1049.5,-118 1049.5,-6 876.5,-6"/>
<text text-anchor="start" x="884.5" y="-106" font-family="Helvetica,sans-Serif" font-size="10.00">ecs::system::EnemiesMovement</text>
<text text-anchor="middle" x="963" y="-95" font-family="Helvetica,sans-Serif" font-size="10.00">System</text>
<polyline fill="none" stroke="black" points="876.5,-88 1049.5,-88 "/>
<text text-anchor="middle" x="963" y="-76" font-family="Helvetica,sans-Serif" font-size="10.00"> </text>
<polyline fill="none" stroke="black" points="876.5,-69 1049.5,-69 "/>
<text text-anchor="start" x="884.5" y="-57" font-family="Helvetica,sans-Serif" font-size="10.00">+ EnemiesMovementSystem()</text>
<text text-anchor="start" x="884.5" y="-46" font-family="Helvetica,sans-Serif" font-size="10.00">+ ~EnemiesMovementSystem()</text>
<text text-anchor="start" x="884.5" y="-35" font-family="Helvetica,sans-Serif" font-size="10.00">+ update()</text>
<text text-anchor="start" x="884.5" y="-24" font-family="Helvetica,sans-Serif" font-size="10.00">+ updateVelocityOnPattern()</text>
<text text-anchor="start" x="884.5" y="-13" font-family="Helvetica,sans-Serif" font-size="10.00">+ spawnRandomEnemies()</text>
</a>
</g>
</g>
<!-- Node1&#45;&gt;Node8 -->
<g id="edge7" class="edge"><title>Node1&#45;&gt;Node8</title>
<path fill="none" stroke="midnightblue" d="M906.063,-151.533C913.067,-140.643 920.457,-129.152 927.51,-118.186"/>
<polygon fill="none" stroke="midnightblue" points="903.009,-149.813 900.543,-160.117 908.896,-153.599 903.009,-149.813"/>
</g>
<!-- Node9 -->
<g id="node9" class="node"><title>Node9</title>
<g id="a_node9"><a xlink:href="classecs_1_1system_1_1MenuSystem.html" target="_top" xlink:title="{ecs::system::MenuSystem\n||+ MenuSystem()\l+ ~MenuSystem()\l+ update()\l}">
<polygon fill="none" stroke="black" points="1067.5,-22.5 1067.5,-101.5 1210.5,-101.5 1210.5,-22.5 1067.5,-22.5"/>
<text text-anchor="middle" x="1139" y="-89.5" font-family="Helvetica,sans-Serif" font-size="10.00">ecs::system::MenuSystem</text>
<polyline fill="none" stroke="black" points="1067.5,-82.5 1210.5,-82.5 "/>
<text text-anchor="middle" x="1139" y="-70.5" font-family="Helvetica,sans-Serif" font-size="10.00"> </text>
<polyline fill="none" stroke="black" points="1067.5,-63.5 1210.5,-63.5 "/>
<text text-anchor="start" x="1075.5" y="-51.5" font-family="Helvetica,sans-Serif" font-size="10.00">+ MenuSystem()</text>
<text text-anchor="start" x="1075.5" y="-40.5" font-family="Helvetica,sans-Serif" font-size="10.00">+ ~MenuSystem()</text>
<text text-anchor="start" x="1075.5" y="-29.5" font-family="Helvetica,sans-Serif" font-size="10.00">+ update()</text>
</a>
</g>
</g>
<!-- Node1&#45;&gt;Node9 -->
<g id="edge8" class="edge"><title>Node1&#45;&gt;Node9</title>
<path fill="none" stroke="midnightblue" d="M943.434,-178.532C979.153,-164.365 1022.44,-145.368 1059,-124 1070.16,-117.478 1081.55,-109.629 1092.11,-101.766"/>
<polygon fill="none" stroke="midnightblue" points="942.082,-175.302 934.05,-182.212 944.638,-181.819 942.082,-175.302"/>
</g>
<!-- Node10 -->
<g id="node10" class="node"><title>Node10</title>
<g id="a_node10"><a xlink:href="classecs_1_1system_1_1MovementSystem.html" target="_top" xlink:title="{ecs::system::MovementSystem\n||+ MovementSystem()\l+ ~MovementSystem()\l+ isColliding()\l+ getNextPos()\l+ updateAll()\l+ update()\l+ deleteIfOutOfWindow()\l}">
<polygon fill="none" stroke="black" points="1229,-0.5 1229,-123.5 1397,-123.5 1397,-0.5 1229,-0.5"/>
<text text-anchor="middle" x="1313" y="-111.5" font-family="Helvetica,sans-Serif" font-size="10.00">ecs::system::MovementSystem</text>
<polyline fill="none" stroke="black" points="1229,-104.5 1397,-104.5 "/>
<text text-anchor="middle" x="1313" y="-92.5" font-family="Helvetica,sans-Serif" font-size="10.00"> </text>
<polyline fill="none" stroke="black" points="1229,-85.5 1397,-85.5 "/>
<text text-anchor="start" x="1237" y="-73.5" font-family="Helvetica,sans-Serif" font-size="10.00">+ MovementSystem()</text>
<text text-anchor="start" x="1237" y="-62.5" font-family="Helvetica,sans-Serif" font-size="10.00">+ ~MovementSystem()</text>
<text text-anchor="start" x="1237" y="-51.5" font-family="Helvetica,sans-Serif" font-size="10.00">+ isColliding()</text>
<text text-anchor="start" x="1237" y="-40.5" font-family="Helvetica,sans-Serif" font-size="10.00">+ getNextPos()</text>
<text text-anchor="start" x="1237" y="-29.5" font-family="Helvetica,sans-Serif" font-size="10.00">+ updateAll()</text>
<text text-anchor="start" x="1237" y="-18.5" font-family="Helvetica,sans-Serif" font-size="10.00">+ update()</text>
<text text-anchor="start" x="1237" y="-7.5" font-family="Helvetica,sans-Serif" font-size="10.00">+ deleteIfOutOfWindow()</text>
</a>
</g>
</g>
<!-- Node1&#45;&gt;Node10 -->
<g id="edge9" class="edge"><title>Node1&#45;&gt;Node10</title>
<path fill="none" stroke="midnightblue" d="M944.418,-195.361C1016.47,-184.532 1129.1,-162.852 1220,-124 1222.93,-122.748 1225.87,-121.404 1228.8,-119.985"/>
<polygon fill="none" stroke="midnightblue" points="943.473,-191.962 934.089,-196.881 944.492,-198.888 943.473,-191.962"/>
</g>
<!-- Node11 -->
<g id="node11" class="node"><title>Node11</title>
<g id="a_node11"><a xlink:href="classecs_1_1system_1_1ParallaxSystem.html" target="_top" xlink:title="{ecs::system::ParallaxSystem\n||+ ParallaxSystem()\l+ ~ParallaxSystem()\l+ update()\l}">
<polygon fill="none" stroke="black" points="1415,-22.5 1415,-101.5 1569,-101.5 1569,-22.5 1415,-22.5"/>
<text text-anchor="middle" x="1492" y="-89.5" font-family="Helvetica,sans-Serif" font-size="10.00">ecs::system::ParallaxSystem</text>
<polyline fill="none" stroke="black" points="1415,-82.5 1569,-82.5 "/>
<text text-anchor="middle" x="1492" y="-70.5" font-family="Helvetica,sans-Serif" font-size="10.00"> </text>
<polyline fill="none" stroke="black" points="1415,-63.5 1569,-63.5 "/>
<text text-anchor="start" x="1423" y="-51.5" font-family="Helvetica,sans-Serif" font-size="10.00">+ ParallaxSystem()</text>
<text text-anchor="start" x="1423" y="-40.5" font-family="Helvetica,sans-Serif" font-size="10.00">+ ~ParallaxSystem()</text>
<text text-anchor="start" x="1423" y="-29.5" font-family="Helvetica,sans-Serif" font-size="10.00">+ update()</text>
</a>
</g>
</g>
<!-- Node1&#45;&gt;Node11 -->
<g id="edge10" class="edge"><title>Node1&#45;&gt;Node11</title>
<path fill="none" stroke="midnightblue" d="M944.279,-204.104C1049.59,-201.233 1249.69,-187.028 1406,-124 1419.75,-118.455 1433.41,-110.312 1445.66,-101.771"/>
<polygon fill="none" stroke="midnightblue" points="943.989,-200.609 934.078,-204.354 944.161,-207.607 943.989,-200.609"/>
</g>
<!-- Node12 -->
<g id="node12" class="node"><title>Node12</title>
<g id="a_node12"><a xlink:href="classecs_1_1system_1_1PlayerMovementSystem.html" target="_top" xlink:title="{ecs::system::PlayerMovement\lSystem\n||+ PlayerMovementSystem()\l+ ~PlayerMovementSystem()\l+ update()\l+ updateVelocityOnInput()\l}">
<polygon fill="none" stroke="black" points="1587.5,-11.5 1587.5,-112.5 1748.5,-112.5 1748.5,-11.5 1587.5,-11.5"/>
<text text-anchor="start" x="1595.5" y="-100.5" font-family="Helvetica,sans-Serif" font-size="10.00">ecs::system::PlayerMovement</text>
<text text-anchor="middle" x="1668" y="-89.5" font-family="Helvetica,sans-Serif" font-size="10.00">System</text>
<polyline fill="none" stroke="black" points="1587.5,-82.5 1748.5,-82.5 "/>
<text text-anchor="middle" x="1668" y="-70.5" font-family="Helvetica,sans-Serif" font-size="10.00"> </text>
<polyline fill="none" stroke="black" points="1587.5,-63.5 1748.5,-63.5 "/>
<text text-anchor="start" x="1595.5" y="-51.5" font-family="Helvetica,sans-Serif" font-size="10.00">+ PlayerMovementSystem()</text>
<text text-anchor="start" x="1595.5" y="-40.5" font-family="Helvetica,sans-Serif" font-size="10.00">+ ~PlayerMovementSystem()</text>
<text text-anchor="start" x="1595.5" y="-29.5" font-family="Helvetica,sans-Serif" font-size="10.00">+ update()</text>
<text text-anchor="start" x="1595.5" y="-18.5" font-family="Helvetica,sans-Serif" font-size="10.00">+ updateVelocityOnInput()</text>
</a>
</g>
</g>
<!-- Node1&#45;&gt;Node12 -->
<g id="edge11" class="edge"><title>Node1&#45;&gt;Node12</title>
<path fill="none" stroke="midnightblue" d="M944.462,-200.634C1100.39,-191.604 1462.93,-166.604 1578,-124 1586.23,-120.952 1594.44,-116.999 1602.37,-112.57"/>
<polygon fill="none" stroke="midnightblue" points="943.83,-197.164 934.046,-201.231 944.23,-204.153 943.83,-197.164"/>
</g>
<!-- Node2 -->
<g id="node2" class="node"><title>Node2</title>
<g id="a_node2"><a xlink:href="classecs_1_1system_1_1ISystem.html" target="_top" xlink:title="{ecs::system::ISystem\n||+ update()\l}">
<polygon fill="none" stroke="black" points="812.5,-287.5 812.5,-344.5 931.5,-344.5 931.5,-287.5 812.5,-287.5"/>
<text text-anchor="middle" x="872" y="-332.5" font-family="Helvetica,sans-Serif" font-size="10.00">ecs::system::ISystem</text>
<polyline fill="none" stroke="black" points="812.5,-325.5 931.5,-325.5 "/>
<text text-anchor="middle" x="872" y="-313.5" font-family="Helvetica,sans-Serif" font-size="10.00"> </text>
<polyline fill="none" stroke="black" points="812.5,-306.5 931.5,-306.5 "/>
<text text-anchor="start" x="820.5" y="-294.5" font-family="Helvetica,sans-Serif" font-size="10.00">+ update()</text>
</a>
</g>
</g>
<!-- Node2&#45;&gt;Node1 -->
<g id="edge1" class="edge"><title>Node2&#45;&gt;Node1</title>
<path fill="none" stroke="midnightblue" d="M872,-277.214C872,-268.609 872,-259.394 872,-250.554"/>
<polygon fill="none" stroke="midnightblue" points="868.5,-277.34 872,-287.34 875.5,-277.34 868.5,-277.34"/>
</g>
</g>
</svg>
        <g id="navigator" transform="translate(0 0)" fill="#404254">
                <rect fill="#f2f5e9" fill-opacity="0.5" stroke="#606060" stroke-width=".5" x="0" y="0" width="60" height="60"/>
                <use id="zoomplus" xlink:href="#zoomPlus" x="17" y="9" onmousedown="handleZoom(evt,'in')"/>
                <use id="zoomminus" xlink:href="#zoomMin" x="42" y="9" onmousedown="handleZoom(evt,'out')"/>
                <use id="reset" xlink:href="#resetDef" x="30" y="36" onmousedown="handleReset()"/>
                <g id="arrowUp" xlink:href="#dirArrow" transform="translate(30 24)" onmousedown="handlePan(0,-1)">
                  <use xlink:href="#rim" fill="#404040">
                        <set attributeName="fill" to="#808080" begin="arrowUp.mouseover" end="arrowUp.mouseout"/>
                  </use>
                  <path fill="none" stroke="white" stroke-width="1.5" d="M0,-3.0v7 M-2.5,-0.5L0,-3.0L2.5,-0.5"/>
                </g>
                <g id="arrowRight" xlink:href="#dirArrow" transform="rotate(90) translate(36 -43)" onmousedown="handlePan(1,0)">
                  <use xlink:href="#rim" fill="#404040">
                        <set attributeName="fill" to="#808080" begin="arrowRight.mouseover" end="arrowRight.mouseout"/>
                  </use>
                  <path fill="none" stroke="white" stroke-width="1.5" d="M0,-3.0v7 M-2.5,-0.5L0,-3.0L2.5,-0.5"/>
                </g>
                <g id="arrowDown" xlink:href="#dirArrow" transform="rotate(180) translate(-30 -48)" onmousedown="handlePan(0,1)">
                  <use xlink:href="#rim" fill="#404040">
                        <set attributeName="fill" to="#808080" begin="arrowDown.mouseover" end="arrowDown.mouseout"/>
                  </use>
                  <path fill="none" stroke="white" stroke-width="1.5" d="M0,-3.0v7 M-2.5,-0.5L0,-3.0L2.5,-0.5"/>
                </g>
                <g id="arrowLeft" xlink:href="#dirArrow" transform="rotate(270) translate(-36 17)" onmousedown="handlePan(-1,0)">
                  <use xlink:href="#rim" fill="#404040">
                        <set attributeName="fill" to="#808080" begin="arrowLeft.mouseover" end="arrowLeft.mouseout"/>
                  </use>
                  <path fill="none" stroke="white" stroke-width="1.5" d="M0,-3.0v7 M-2.5,-0.5L0,-3.0L2.5,-0.5"/>
                </g>
        </g>
        <svg viewBox="0 0 15 15" width="100%" height="30px" preserveAspectRatio="xMaxYMin meet">
         <g id="arrow_out" transform="scale(0.3 0.3)">
          <a xlink:href="classecs_1_1system_1_1ASystem__inherit__graph_org.svg" target="_base">
           <rect id="button" ry="5" rx="5" y="6" x="6" height="38" width="38"
                fill="#f2f5e9" fill-opacity="0.5" stroke="#606060" stroke-width="1.0"/>
           <path id="arrow"
             d="M 11.500037,31.436501 C 11.940474,20.09759 22.043105,11.32322 32.158766,21.979434 L 37.068811,17.246167 C 37.068811,17.246167 37.088388,32 37.088388,32 L 22.160133,31.978069 C 22.160133,31.978069 26.997745,27.140456 26.997745,27.140456 C 18.528582,18.264221 13.291696,25.230495 11.500037,31.436501 z"
             style="fill:#404040;"/>
          </a>
         </g>
        </svg>
</svg>
