<?xml version="1.0" encoding="UTF-8" standalone="no"?>
<!DOCTYPE svg PUBLIC "-//W3C//DTD SVG 1.1//EN"
 "http://www.w3.org/Graphics/SVG/1.1/DTD/svg11.dtd">
<!-- Generated by graphviz version 2.38.0 (20140413.2041)
 -->
<!-- Title: ecs::entities::GameBackgroundEntity Pages: 1 -->
<svg width="175pt" height="215pt"
 viewBox="0.00 0.00 175.00 215.00" xmlns="http://www.w3.org/2000/svg" xmlns:xlink="http://www.w3.org/1999/xlink">
<g id="graph0" class="graph" transform="scale(1 1) rotate(0) translate(4 211)">
<title>ecs::entities::GameBackgroundEntity</title>
<!-- Node1 -->
<g id="node1" class="node"><title>Node1</title>
<polygon fill="#bfbfbf" stroke="black" points="-1.42109e-14,-0.5 -1.42109e-14,-101.5 167,-101.5 167,-0.5 -1.42109e-14,-0.5"/>
<text text-anchor="start" x="8" y="-89.5" font-family="Helvetica,sans-Serif" font-size="10.00">ecs::entities::GameBackground</text>
<text text-anchor="middle" x="83.5" y="-78.5" font-family="Helvetica,sans-Serif" font-size="10.00">Entity</text>
<polyline fill="none" stroke="black" points="-1.42109e-14,-71.5 167,-71.5 "/>
<text text-anchor="middle" x="83.5" y="-59.5" font-family="Helvetica,sans-Serif" font-size="10.00"> </text>
<polyline fill="none" stroke="black" points="-1.42109e-14,-52.5 167,-52.5 "/>
<text text-anchor="start" x="8" y="-40.5" font-family="Helvetica,sans-Serif" font-size="10.00">+ GameBackgroundEntity()</text>
<text text-anchor="start" x="8" y="-29.5" font-family="Helvetica,sans-Serif" font-size="10.00">+ ~GameBackgroundEntity()</text>
<text text-anchor="start" x="8" y="-18.5" font-family="Helvetica,sans-Serif" font-size="10.00">+ create()</text>
<text text-anchor="start" x="8" y="-7.5" font-family="Helvetica,sans-Serif" font-size="10.00">+ getName()</text>
</g>
<!-- Node2 -->
<g id="node2" class="node"><title>Node2</title>
<g id="a_node2"><a xlink:href="classecs_1_1entities_1_1IEntityConstructor.html" target="_top" xlink:title="{ecs::entities::IEntityConstructor\n||+ create()\l+ getName()\l}">
<polygon fill="none" stroke="black" points="0.5,-138.5 0.5,-206.5 166.5,-206.5 166.5,-138.5 0.5,-138.5"/>
<text text-anchor="middle" x="83.5" y="-194.5" font-family="Helvetica,sans-Serif" font-size="10.00">ecs::entities::IEntityConstructor</text>
<polyline fill="none" stroke="black" points="0.5,-187.5 166.5,-187.5 "/>
<text text-anchor="middle" x="83.5" y="-175.5" font-family="Helvetica,sans-Serif" font-size="10.00"> </text>
<polyline fill="none" stroke="black" points="0.5,-168.5 166.5,-168.5 "/>
<text text-anchor="start" x="8.5" y="-156.5" font-family="Helvetica,sans-Serif" font-size="10.00">+ create()</text>
<text text-anchor="start" x="8.5" y="-145.5" font-family="Helvetica,sans-Serif" font-size="10.00">+ getName()</text>
</a>
</g>
</g>
<!-- Node2&#45;&gt;Node1 -->
<g id="edge1" class="edge"><title>Node2&#45;&gt;Node1</title>
<path fill="none" stroke="midnightblue" d="M83.5,-128.045C83.5,-119.469 83.5,-110.408 83.5,-101.646"/>
<polygon fill="none" stroke="midnightblue" points="80.0001,-128.213 83.5,-138.213 87.0001,-128.213 80.0001,-128.213"/>
</g>
</g>
</svg>
