<?xml version="1.0" encoding="UTF-8" standalone="no"?>
<!DOCTYPE svg PUBLIC "-//W3C//DTD SVG 1.1//EN"
 "http://www.w3.org/Graphics/SVG/1.1/DTD/svg11.dtd">
<!-- Generated by graphviz version 2.38.0 (20140413.2041)
 -->
<!-- Title: ecs::components::Motion Pages: 1 -->
<svg width="332pt" height="480pt"
 viewBox="0.00 0.00 332.00 480.00" xmlns="http://www.w3.org/2000/svg" xmlns:xlink="http://www.w3.org/1999/xlink">
<g id="graph0" class="graph" transform="scale(1 1) rotate(0) translate(4 476)">
<title>ecs::components::Motion</title>
<!-- Node1 -->
<g id="node1" class="node"><title>Node1</title>
<polygon fill="#bfbfbf" stroke="black" points="98.5,-204.5 98.5,-283.5 235.5,-283.5 235.5,-204.5 98.5,-204.5"/>
<text text-anchor="middle" x="167" y="-271.5" font-family="Helvetica,sans-Serif" font-size="10.00">ecs::components::Motion</text>
<polyline fill="none" stroke="black" points="98.5,-264.5 235.5,-264.5 "/>
<text text-anchor="middle" x="167" y="-252.5" font-family="Helvetica,sans-Serif" font-size="10.00"> </text>
<polyline fill="none" stroke="black" points="98.5,-245.5 235.5,-245.5 "/>
<text text-anchor="start" x="106.5" y="-233.5" font-family="Helvetica,sans-Serif" font-size="10.00">+ Motion()</text>
<text text-anchor="start" x="106.5" y="-222.5" font-family="Helvetica,sans-Serif" font-size="10.00">+ ~Motion()</text>
<text text-anchor="start" x="106.5" y="-211.5" font-family="Helvetica,sans-Serif" font-size="10.00">+ operator==()</text>
</g>
<!-- Node4 -->
<g id="node4" class="node"><title>Node4</title>
<g id="a_node4"><a xlink:href="classecs_1_1components_1_1Acceleration.html" target="_top" xlink:title="Acceleration describes the Acceleration of an Entity. ">
<polygon fill="none" stroke="black" points="0,-22.5 0,-145.5 164,-145.5 164,-22.5 0,-22.5"/>
<text text-anchor="middle" x="82" y="-133.5" font-family="Helvetica,sans-Serif" font-size="10.00">ecs::components::Acceleration</text>
<polyline fill="none" stroke="black" points="0,-126.5 164,-126.5 "/>
<text text-anchor="middle" x="82" y="-114.5" font-family="Helvetica,sans-Serif" font-size="10.00"> </text>
<polyline fill="none" stroke="black" points="0,-107.5 164,-107.5 "/>
<text text-anchor="start" x="8" y="-95.5" font-family="Helvetica,sans-Serif" font-size="10.00">+ Acceleration()</text>
<text text-anchor="start" x="8" y="-84.5" font-family="Helvetica,sans-Serif" font-size="10.00">+ Acceleration()</text>
<text text-anchor="start" x="8" y="-73.5" font-family="Helvetica,sans-Serif" font-size="10.00">+ ~Acceleration()</text>
<text text-anchor="start" x="8" y="-62.5" font-family="Helvetica,sans-Serif" font-size="10.00">+ operator==()</text>
<text text-anchor="start" x="8" y="-51.5" font-family="Helvetica,sans-Serif" font-size="10.00">+ setValue()</text>
<text text-anchor="start" x="8" y="-40.5" font-family="Helvetica,sans-Serif" font-size="10.00">+ getValue()</text>
<text text-anchor="start" x="8" y="-29.5" font-family="Helvetica,sans-Serif" font-size="10.00">+ getType()</text>
</a>
</g>
</g>
<!-- Node1&#45;&gt;Node4 -->
<g id="edge3" class="edge"><title>Node1&#45;&gt;Node4</title>
<path fill="none" stroke="midnightblue" d="M141.391,-195.398C132.985,-179.771 123.525,-162.188 114.668,-145.724"/>
<polygon fill="none" stroke="midnightblue" points="138.387,-197.201 146.207,-204.349 144.551,-193.884 138.387,-197.201"/>
</g>
<!-- Node5 -->
<g id="node5" class="node"><title>Node5</title>
<g id="a_node5"><a xlink:href="classecs_1_1components_1_1Velocity.html" target="_top" xlink:title="Velocity describes the Velocity of an Entity. ">
<polygon fill="none" stroke="black" points="182,-0.5 182,-167.5 324,-167.5 324,-0.5 182,-0.5"/>
<text text-anchor="middle" x="253" y="-155.5" font-family="Helvetica,sans-Serif" font-size="10.00">ecs::components::Velocity</text>
<polyline fill="none" stroke="black" points="182,-148.5 324,-148.5 "/>
<text text-anchor="middle" x="253" y="-136.5" font-family="Helvetica,sans-Serif" font-size="10.00"> </text>
<polyline fill="none" stroke="black" points="182,-129.5 324,-129.5 "/>
<text text-anchor="start" x="190" y="-117.5" font-family="Helvetica,sans-Serif" font-size="10.00">+ Velocity()</text>
<text text-anchor="start" x="190" y="-106.5" font-family="Helvetica,sans-Serif" font-size="10.00">+ Velocity()</text>
<text text-anchor="start" x="190" y="-95.5" font-family="Helvetica,sans-Serif" font-size="10.00">+ ~Velocity()</text>
<text text-anchor="start" x="190" y="-84.5" font-family="Helvetica,sans-Serif" font-size="10.00">+ operator==()</text>
<text text-anchor="start" x="190" y="-73.5" font-family="Helvetica,sans-Serif" font-size="10.00">+ setVelocityX()</text>
<text text-anchor="start" x="190" y="-62.5" font-family="Helvetica,sans-Serif" font-size="10.00">+ getVelocityX()</text>
<text text-anchor="start" x="190" y="-51.5" font-family="Helvetica,sans-Serif" font-size="10.00">+ setVelocityY()</text>
<text text-anchor="start" x="190" y="-40.5" font-family="Helvetica,sans-Serif" font-size="10.00">+ getVelocityY()</text>
<text text-anchor="start" x="190" y="-29.5" font-family="Helvetica,sans-Serif" font-size="10.00">+ setVelocity()</text>
<text text-anchor="start" x="190" y="-18.5" font-family="Helvetica,sans-Serif" font-size="10.00">+ getVelocity()</text>
<text text-anchor="start" x="190" y="-7.5" font-family="Helvetica,sans-Serif" font-size="10.00">+ getType()</text>
</a>
</g>
</g>
<!-- Node1&#45;&gt;Node5 -->
<g id="edge4" class="edge"><title>Node1&#45;&gt;Node5</title>
<path fill="none" stroke="midnightblue" d="M192.917,-195.384C197.731,-186.542 202.885,-177.073 208.076,-167.535"/>
<polygon fill="none" stroke="midnightblue" points="189.745,-193.892 188.038,-204.349 195.893,-197.239 189.745,-193.892"/>
</g>
<!-- Node2 -->
<g id="node2" class="node"><title>Node2</title>
<g id="a_node2"><a xlink:href="classecs_1_1components_1_1IPhysics.html" target="_top" xlink:title="IPhysics describes the physics of an Entity. ">
<polygon fill="none" stroke="black" points="95.5,-320.5 95.5,-377.5 238.5,-377.5 238.5,-320.5 95.5,-320.5"/>
<text text-anchor="middle" x="167" y="-365.5" font-family="Helvetica,sans-Serif" font-size="10.00">ecs::components::IPhysics</text>
<polyline fill="none" stroke="black" points="95.5,-358.5 238.5,-358.5 "/>
<text text-anchor="middle" x="167" y="-346.5" font-family="Helvetica,sans-Serif" font-size="10.00"> </text>
<polyline fill="none" stroke="black" points="95.5,-339.5 238.5,-339.5 "/>
<text text-anchor="middle" x="167" y="-327.5" font-family="Helvetica,sans-Serif" font-size="10.00"> </text>
</a>
</g>
</g>
<!-- Node2&#45;&gt;Node1 -->
<g id="edge1" class="edge"><title>Node2&#45;&gt;Node1</title>
<path fill="none" stroke="midnightblue" d="M167,-310.156C167,-301.473 167,-292.232 167,-283.52"/>
<polygon fill="none" stroke="midnightblue" points="163.5,-310.398 167,-320.398 170.5,-310.398 163.5,-310.398"/>
</g>
<!-- Node3 -->
<g id="node3" class="node"><title>Node3</title>
<g id="a_node3"><a xlink:href="classecs_1_1components_1_1IComponent.html" target="_top" xlink:title="Icomponent describes an attribute of an Entity. ">
<polygon fill="none" stroke="black" points="85,-414.5 85,-471.5 249,-471.5 249,-414.5 85,-414.5"/>
<text text-anchor="middle" x="167" y="-459.5" font-family="Helvetica,sans-Serif" font-size="10.00">ecs::components::IComponent</text>
<polyline fill="none" stroke="black" points="85,-452.5 249,-452.5 "/>
<text text-anchor="middle" x="167" y="-440.5" font-family="Helvetica,sans-Serif" font-size="10.00"> </text>
<polyline fill="none" stroke="black" points="85,-433.5 249,-433.5 "/>
<text text-anchor="start" x="93" y="-421.5" font-family="Helvetica,sans-Serif" font-size="10.00">+ getType()</text>
</a>
</g>
</g>
<!-- Node3&#45;&gt;Node2 -->
<g id="edge2" class="edge"><title>Node3&#45;&gt;Node2</title>
<path fill="none" stroke="midnightblue" d="M167,-404.209C167,-395.293 167,-385.951 167,-377.584"/>
<polygon fill="none" stroke="midnightblue" points="163.5,-404.397 167,-414.397 170.5,-404.397 163.5,-404.397"/>
</g>
</g>
</svg>
