<?xml version="1.0" encoding="UTF-8" standalone="no"?>
<!DOCTYPE svg PUBLIC "-//W3C//DTD SVG 1.1//EN"
 "http://www.w3.org/Graphics/SVG/1.1/DTD/svg11.dtd">
<!-- Generated by graphviz version 2.38.0 (20140413.2041)
 -->
<!-- Title: ecs::entities::IEntityConstructor Pages: 1 -->
<!--zoomable 215 -->
<svg id="main" version="1.1" xmlns="http://www.w3.org/2000/svg" xmlns:xlink="http://www.w3.org/1999/xlink" xml:space="preserve" onload="init(evt)">
<style type="text/css"><![CDATA[
.edge:hover path { stroke: red; }
.edge:hover polygon { stroke: red; fill: red; }
]]></style>
<script type="text/javascript"><![CDATA[
var edges = document.getElementsByTagName('g');
if (edges && edges.length) {
  for (var i=0;i<edges.length;i++) {
    if (edges[i].id.substr(0,4)=='edge') {
      edges[i].setAttribute('class','edge');
    }
  }
}
]]></script>
        <defs>
                <circle id="rim" cx="0" cy="0" r="7"/>
                <circle id="rim2" cx="0" cy="0" r="3.5"/>
                <g id="zoomPlus">
                        <use xlink:href="#rim" fill="#404040">
                                <set attributeName="fill" to="#808080" begin="zoomplus.mouseover" end="zoomplus.mouseout"/>
                        </use>
                        <path d="M-4,0h8M0,-4v8" fill="none" stroke="white" stroke-width="1.5" pointer-events="none"/>
                </g>
                <g id="zoomMin">
                        <use xlink:href="#rim" fill="#404040">
                                <set attributeName="fill" to="#808080" begin="zoomminus.mouseover" end="zoomminus.mouseout"/>
                        </use>
                        <path d="M-4,0h8" fill="none" stroke="white" stroke-width="1.5" pointer-events="none"/>
                </g>
                <g id="dirArrow">
                        <path fill="none" stroke="white" stroke-width="1.5" d="M0,-3.0v7 M-2.5,-0.5L0,-3.0L2.5,-0.5"/>
                </g>
               <g id="resetDef">
                       <use xlink:href="#rim2" fill="#404040">
                               <set attributeName="fill" to="#808080" begin="reset.mouseover" end="reset.mouseout"/>
                       </use>
               </g>
        </defs>

<script type="text/javascript">
var viewWidth = 4005;
var viewHeight = 215;
var sectionId = 'dynsection-0';
</script>
<script xlink:href="svgpan.js"/>
<svg id="graph" class="graph">
<g id="viewport">
<title>ecs::entities::IEntityConstructor</title>
<!-- Node1 -->
<g id="node1" class="node"><title>Node1</title>
<polygon fill="#bfbfbf" stroke="black" points="1978.5,-138.5 1978.5,-206.5 2144.5,-206.5 2144.5,-138.5 1978.5,-138.5"/>
<text text-anchor="middle" x="2061.5" y="-194.5" font-family="Helvetica,sans-Serif" font-size="10.00">ecs::entities::IEntityConstructor</text>
<polyline fill="none" stroke="black" points="1978.5,-187.5 2144.5,-187.5 "/>
<text text-anchor="middle" x="2061.5" y="-175.5" font-family="Helvetica,sans-Serif" font-size="10.00"> </text>
<polyline fill="none" stroke="black" points="1978.5,-168.5 2144.5,-168.5 "/>
<text text-anchor="start" x="1986.5" y="-156.5" font-family="Helvetica,sans-Serif" font-size="10.00">+ create()</text>
<text text-anchor="start" x="1986.5" y="-145.5" font-family="Helvetica,sans-Serif" font-size="10.00">+ getName()</text>
</g>
<!-- Node2 -->
<g id="node2" class="node"><title>Node2</title>
<g id="a_node2"><a xlink:href="classecs_1_1entities_1_1BackEntity.html" target="_top" xlink:title="{ecs::entities::BackEntity\n||+ BackEntity()\l+ ~BackEntity()\l+ create()\l+ getName()\l}">
<polygon fill="none" stroke="black" points="0,-6 0,-96 131,-96 131,-6 0,-6"/>
<text text-anchor="middle" x="65.5" y="-84" font-family="Helvetica,sans-Serif" font-size="10.00">ecs::entities::BackEntity</text>
<polyline fill="none" stroke="black" points="0,-77 131,-77 "/>
<text text-anchor="middle" x="65.5" y="-65" font-family="Helvetica,sans-Serif" font-size="10.00"> </text>
<polyline fill="none" stroke="black" points="0,-58 131,-58 "/>
<text text-anchor="start" x="8" y="-46" font-family="Helvetica,sans-Serif" font-size="10.00">+ BackEntity()</text>
<text text-anchor="start" x="8" y="-35" font-family="Helvetica,sans-Serif" font-size="10.00">+ ~BackEntity()</text>
<text text-anchor="start" x="8" y="-24" font-family="Helvetica,sans-Serif" font-size="10.00">+ create()</text>
<text text-anchor="start" x="8" y="-13" font-family="Helvetica,sans-Serif" font-size="10.00">+ getName()</text>
</a>
</g>
</g>
<!-- Node1&#45;&gt;Node2 -->
<g id="edge1" class="edge"><title>Node1&#45;&gt;Node2</title>
<path fill="none" stroke="midnightblue" d="M1968.33,-171.105C1607.73,-169.173 315.142,-158.344 140.5,-102 135.585,-100.414 130.691,-98.4067 125.895,-96.1121"/>
<polygon fill="none" stroke="midnightblue" points="1968.45,-174.606 1978.47,-171.159 1968.48,-167.606 1968.45,-174.606"/>
</g>
<!-- Node3 -->
<g id="node3" class="node"><title>Node3</title>
<g id="a_node3"><a xlink:href="classecs_1_1entities_1_1BackgroundMenuEntity.html" target="_top" xlink:title="{ecs::entities::Background\lMenuEntity\n||+ BackgroundMenuEntity()\l+ ~BackgroundMenuEntity()\l+ create()\l+ getName()\l}">
<polygon fill="none" stroke="black" points="149.5,-0.5 149.5,-101.5 303.5,-101.5 303.5,-0.5 149.5,-0.5"/>
<text text-anchor="start" x="157.5" y="-89.5" font-family="Helvetica,sans-Serif" font-size="10.00">ecs::entities::Background</text>
<text text-anchor="middle" x="226.5" y="-78.5" font-family="Helvetica,sans-Serif" font-size="10.00">MenuEntity</text>
<polyline fill="none" stroke="black" points="149.5,-71.5 303.5,-71.5 "/>
<text text-anchor="middle" x="226.5" y="-59.5" font-family="Helvetica,sans-Serif" font-size="10.00"> </text>
<polyline fill="none" stroke="black" points="149.5,-52.5 303.5,-52.5 "/>
<text text-anchor="start" x="157.5" y="-40.5" font-family="Helvetica,sans-Serif" font-size="10.00">+ BackgroundMenuEntity()</text>
<text text-anchor="start" x="157.5" y="-29.5" font-family="Helvetica,sans-Serif" font-size="10.00">+ ~BackgroundMenuEntity()</text>
<text text-anchor="start" x="157.5" y="-18.5" font-family="Helvetica,sans-Serif" font-size="10.00">+ create()</text>
<text text-anchor="start" x="157.5" y="-7.5" font-family="Helvetica,sans-Serif" font-size="10.00">+ getName()</text>
</a>
</g>
</g>
<!-- Node1&#45;&gt;Node3 -->
<g id="edge2" class="edge"><title>Node1&#45;&gt;Node3</title>
<path fill="none" stroke="midnightblue" d="M1968.34,-170.426C1629.15,-166.154 471.6,-148.297 312.5,-102 309.515,-101.131 306.525,-100.138 303.545,-99.041"/>
<polygon fill="none" stroke="midnightblue" points="1968.34,-173.926 1978.38,-170.551 1968.42,-166.926 1968.34,-173.926"/>
</g>
<!-- Node4 -->
<g id="node4" class="node"><title>Node4</title>
<g id="a_node4"><a xlink:href="classecs_1_1entities_1_1BackgroundWithoutTitleEntity.html" target="_top" xlink:title="{ecs::entities::Background\lWithoutTitleEntity\n||+ BackgroundWithoutTitleEntity()\l+ ~BackgroundWithoutTitleEntity()\l+ create()\l+ getName()\l}">
<polygon fill="none" stroke="black" points="322,-0.5 322,-101.5 505,-101.5 505,-0.5 322,-0.5"/>
<text text-anchor="start" x="330" y="-89.5" font-family="Helvetica,sans-Serif" font-size="10.00">ecs::entities::Background</text>
<text text-anchor="middle" x="413.5" y="-78.5" font-family="Helvetica,sans-Serif" font-size="10.00">WithoutTitleEntity</text>
<polyline fill="none" stroke="black" points="322,-71.5 505,-71.5 "/>
<text text-anchor="middle" x="413.5" y="-59.5" font-family="Helvetica,sans-Serif" font-size="10.00"> </text>
<polyline fill="none" stroke="black" points="322,-52.5 505,-52.5 "/>
<text text-anchor="start" x="330" y="-40.5" font-family="Helvetica,sans-Serif" font-size="10.00">+ BackgroundWithoutTitleEntity()</text>
<text text-anchor="start" x="330" y="-29.5" font-family="Helvetica,sans-Serif" font-size="10.00">+ ~BackgroundWithoutTitleEntity()</text>
<text text-anchor="start" x="330" y="-18.5" font-family="Helvetica,sans-Serif" font-size="10.00">+ create()</text>
<text text-anchor="start" x="330" y="-7.5" font-family="Helvetica,sans-Serif" font-size="10.00">+ getName()</text>
</a>
</g>
</g>
<!-- Node1&#45;&gt;Node4 -->
<g id="edge3" class="edge"><title>Node1&#45;&gt;Node4</title>
<path fill="none" stroke="midnightblue" d="M1968.08,-169.546C1655.02,-162.687 654.75,-138.154 514.5,-102 511.374,-101.194 508.231,-100.284 505.087,-99.2877"/>
<polygon fill="none" stroke="midnightblue" points="1968.41,-173.054 1978.48,-169.773 1968.56,-166.055 1968.41,-173.054"/>
</g>
<!-- Node5 -->
<g id="node5" class="node"><title>Node5</title>
<g id="a_node5"><a xlink:href="classecs_1_1entities_1_1BulletEntity.html" target="_top" xlink:title="{ecs::entities::BulletEntity\n||+ BulletEntity()\l+ ~BulletEntity()\l+ create()\l+ getName()\l}">
<polygon fill="none" stroke="black" points="523.5,-6 523.5,-96 657.5,-96 657.5,-6 523.5,-6"/>
<text text-anchor="middle" x="590.5" y="-84" font-family="Helvetica,sans-Serif" font-size="10.00">ecs::entities::BulletEntity</text>
<polyline fill="none" stroke="black" points="523.5,-77 657.5,-77 "/>
<text text-anchor="middle" x="590.5" y="-65" font-family="Helvetica,sans-Serif" font-size="10.00"> </text>
<polyline fill="none" stroke="black" points="523.5,-58 657.5,-58 "/>
<text text-anchor="start" x="531.5" y="-46" font-family="Helvetica,sans-Serif" font-size="10.00">+ BulletEntity()</text>
<text text-anchor="start" x="531.5" y="-35" font-family="Helvetica,sans-Serif" font-size="10.00">+ ~BulletEntity()</text>
<text text-anchor="start" x="531.5" y="-24" font-family="Helvetica,sans-Serif" font-size="10.00">+ create()</text>
<text text-anchor="start" x="531.5" y="-13" font-family="Helvetica,sans-Serif" font-size="10.00">+ getName()</text>
</a>
</g>
</g>
<!-- Node1&#45;&gt;Node5 -->
<g id="edge4" class="edge"><title>Node1&#45;&gt;Node5</title>
<path fill="none" stroke="midnightblue" d="M1967.95,-169.69C1675.3,-163.632 789.365,-142.15 666.5,-102 661.546,-100.381 656.606,-98.3487 651.759,-96.0363"/>
<polygon fill="none" stroke="midnightblue" points="1968.04,-173.192 1978.11,-169.899 1968.18,-166.194 1968.04,-173.192"/>
</g>
<!-- Node6 -->
<g id="node6" class="node"><title>Node6</title>
<g id="a_node6"><a xlink:href="classecs_1_1entities_1_1DefeatEntity.html" target="_top" xlink:title="{ecs::entities::DefeatEntity\n||+ DefeatEntity()\l+ ~DefeatEntity()\l+ create()\l+ getName()\l}">
<polygon fill="none" stroke="black" points="675.5,-6 675.5,-96 815.5,-96 815.5,-6 675.5,-6"/>
<text text-anchor="middle" x="745.5" y="-84" font-family="Helvetica,sans-Serif" font-size="10.00">ecs::entities::DefeatEntity</text>
<polyline fill="none" stroke="black" points="675.5,-77 815.5,-77 "/>
<text text-anchor="middle" x="745.5" y="-65" font-family="Helvetica,sans-Serif" font-size="10.00"> </text>
<polyline fill="none" stroke="black" points="675.5,-58 815.5,-58 "/>
<text text-anchor="start" x="683.5" y="-46" font-family="Helvetica,sans-Serif" font-size="10.00">+ DefeatEntity()</text>
<text text-anchor="start" x="683.5" y="-35" font-family="Helvetica,sans-Serif" font-size="10.00">+ ~DefeatEntity()</text>
<text text-anchor="start" x="683.5" y="-24" font-family="Helvetica,sans-Serif" font-size="10.00">+ create()</text>
<text text-anchor="start" x="683.5" y="-13" font-family="Helvetica,sans-Serif" font-size="10.00">+ getName()</text>
</a>
</g>
</g>
<!-- Node1&#45;&gt;Node6 -->
<g id="edge5" class="edge"><title>Node1&#45;&gt;Node6</title>
<path fill="none" stroke="midnightblue" d="M1968,-172.297C1717.71,-173.471 1037.01,-170.119 824.5,-102 819.554,-100.415 814.61,-98.4442 809.745,-96.2099"/>
<polygon fill="none" stroke="midnightblue" points="1968.18,-175.796 1978.16,-172.245 1968.14,-168.796 1968.18,-175.796"/>
</g>
<!-- Node7 -->
<g id="node7" class="node"><title>Node7</title>
<g id="a_node7"><a xlink:href="classecs_1_1entities_1_1EnemyBulletEntity.html" target="_top" xlink:title="{ecs::entities::EnemyBullet\lEntity\n||+ EnemyBulletEntity()\l+ ~EnemyBulletEntity()\l+ create()\l+ getName()\l}">
<polygon fill="none" stroke="black" points="833.5,-0.5 833.5,-101.5 973.5,-101.5 973.5,-0.5 833.5,-0.5"/>
<text text-anchor="start" x="841.5" y="-89.5" font-family="Helvetica,sans-Serif" font-size="10.00">ecs::entities::EnemyBullet</text>
<text text-anchor="middle" x="903.5" y="-78.5" font-family="Helvetica,sans-Serif" font-size="10.00">Entity</text>
<polyline fill="none" stroke="black" points="833.5,-71.5 973.5,-71.5 "/>
<text text-anchor="middle" x="903.5" y="-59.5" font-family="Helvetica,sans-Serif" font-size="10.00"> </text>
<polyline fill="none" stroke="black" points="833.5,-52.5 973.5,-52.5 "/>
<text text-anchor="start" x="841.5" y="-40.5" font-family="Helvetica,sans-Serif" font-size="10.00">+ EnemyBulletEntity()</text>
<text text-anchor="start" x="841.5" y="-29.5" font-family="Helvetica,sans-Serif" font-size="10.00">+ ~EnemyBulletEntity()</text>
<text text-anchor="start" x="841.5" y="-18.5" font-family="Helvetica,sans-Serif" font-size="10.00">+ create()</text>
<text text-anchor="start" x="841.5" y="-7.5" font-family="Helvetica,sans-Serif" font-size="10.00">+ getName()</text>
</a>
</g>
</g>
<!-- Node1&#45;&gt;Node7 -->
<g id="edge6" class="edge"><title>Node1&#45;&gt;Node7</title>
<path fill="none" stroke="midnightblue" d="M1968.12,-171.387C1740.9,-170.168 1164.47,-161.153 982.5,-102 979.567,-101.047 976.634,-99.9593 973.718,-98.7632"/>
<polygon fill="none" stroke="midnightblue" points="1968.33,-174.888 1978.35,-171.437 1968.37,-167.888 1968.33,-174.888"/>
</g>
<!-- Node8 -->
<g id="node8" class="node"><title>Node8</title>
<g id="a_node8"><a xlink:href="classecs_1_1entities_1_1EnemyEntity.html" target="_top" xlink:title="{ecs::entities::EnemyEntity\n||+ EnemyEntity()\l+ ~EnemyEntity()\l+ create()\l+ getName()\l}">
<polygon fill="none" stroke="black" points="991.5,-6 991.5,-96 1131.5,-96 1131.5,-6 991.5,-6"/>
<text text-anchor="middle" x="1061.5" y="-84" font-family="Helvetica,sans-Serif" font-size="10.00">ecs::entities::EnemyEntity</text>
<polyline fill="none" stroke="black" points="991.5,-77 1131.5,-77 "/>
<text text-anchor="middle" x="1061.5" y="-65" font-family="Helvetica,sans-Serif" font-size="10.00"> </text>
<polyline fill="none" stroke="black" points="991.5,-58 1131.5,-58 "/>
<text text-anchor="start" x="999.5" y="-46" font-family="Helvetica,sans-Serif" font-size="10.00">+ EnemyEntity()</text>
<text text-anchor="start" x="999.5" y="-35" font-family="Helvetica,sans-Serif" font-size="10.00">+ ~EnemyEntity()</text>
<text text-anchor="start" x="999.5" y="-24" font-family="Helvetica,sans-Serif" font-size="10.00">+ create()</text>
<text text-anchor="start" x="999.5" y="-13" font-family="Helvetica,sans-Serif" font-size="10.00">+ getName()</text>
</a>
</g>
</g>
<!-- Node1&#45;&gt;Node8 -->
<g id="edge7" class="edge"><title>Node1&#45;&gt;Node8</title>
<path fill="none" stroke="midnightblue" d="M1968.18,-170.173C1765.71,-166.369 1292.16,-152.223 1140.5,-102 1135.57,-100.367 1130.64,-98.3612 1125.78,-96.1011"/>
<polygon fill="none" stroke="midnightblue" points="1968.13,-173.672 1978.2,-170.356 1968.26,-166.673 1968.13,-173.672"/>
</g>
<!-- Node9 -->
<g id="node9" class="node"><title>Node9</title>
<g id="a_node9"><a xlink:href="classecs_1_1entities_1_1EnemyType01Entity.html" target="_top" xlink:title="{ecs::entities::EnemyType01\lEntity\n||+ EnemyType01Entity()\l+ ~EnemyType01Entity()\l+ create()\l+ getName()\l}">
<polygon fill="none" stroke="black" points="1149.5,-0.5 1149.5,-101.5 1295.5,-101.5 1295.5,-0.5 1149.5,-0.5"/>
<text text-anchor="start" x="1157.5" y="-89.5" font-family="Helvetica,sans-Serif" font-size="10.00">ecs::entities::EnemyType01</text>
<text text-anchor="middle" x="1222.5" y="-78.5" font-family="Helvetica,sans-Serif" font-size="10.00">Entity</text>
<polyline fill="none" stroke="black" points="1149.5,-71.5 1295.5,-71.5 "/>
<text text-anchor="middle" x="1222.5" y="-59.5" font-family="Helvetica,sans-Serif" font-size="10.00"> </text>
<polyline fill="none" stroke="black" points="1149.5,-52.5 1295.5,-52.5 "/>
<text text-anchor="start" x="1157.5" y="-40.5" font-family="Helvetica,sans-Serif" font-size="10.00">+ EnemyType01Entity()</text>
<text text-anchor="start" x="1157.5" y="-29.5" font-family="Helvetica,sans-Serif" font-size="10.00">+ ~EnemyType01Entity()</text>
<text text-anchor="start" x="1157.5" y="-18.5" font-family="Helvetica,sans-Serif" font-size="10.00">+ create()</text>
<text text-anchor="start" x="1157.5" y="-7.5" font-family="Helvetica,sans-Serif" font-size="10.00">+ getName()</text>
</a>
</g>
</g>
<!-- Node1&#45;&gt;Node9 -->
<g id="edge8" class="edge"><title>Node1&#45;&gt;Node9</title>
<path fill="none" stroke="midnightblue" d="M1968.24,-168.203C1793.92,-161.175 1425.35,-141.99 1304.5,-102 1301.65,-101.057 1298.8,-99.9997 1295.95,-98.8484"/>
<polygon fill="none" stroke="midnightblue" points="1968.3,-171.708 1978.43,-168.609 1968.57,-164.714 1968.3,-171.708"/>
</g>
<!-- Node10 -->
<g id="node10" class="node"><title>Node10</title>
<g id="a_node10"><a xlink:href="classecs_1_1entities_1_1EnemyType02Entity.html" target="_top" xlink:title="{ecs::entities::EnemyType02\lEntity\n||+ EnemyType02Entity()\l+ ~EnemyType02Entity()\l+ create()\l+ getName()\l}">
<polygon fill="none" stroke="black" points="1313.5,-0.5 1313.5,-101.5 1459.5,-101.5 1459.5,-0.5 1313.5,-0.5"/>
<text text-anchor="start" x="1321.5" y="-89.5" font-family="Helvetica,sans-Serif" font-size="10.00">ecs::entities::EnemyType02</text>
<text text-anchor="middle" x="1386.5" y="-78.5" font-family="Helvetica,sans-Serif" font-size="10.00">Entity</text>
<polyline fill="none" stroke="black" points="1313.5,-71.5 1459.5,-71.5 "/>
<text text-anchor="middle" x="1386.5" y="-59.5" font-family="Helvetica,sans-Serif" font-size="10.00"> </text>
<polyline fill="none" stroke="black" points="1313.5,-52.5 1459.5,-52.5 "/>
<text text-anchor="start" x="1321.5" y="-40.5" font-family="Helvetica,sans-Serif" font-size="10.00">+ EnemyType02Entity()</text>
<text text-anchor="start" x="1321.5" y="-29.5" font-family="Helvetica,sans-Serif" font-size="10.00">+ ~EnemyType02Entity()</text>
<text text-anchor="start" x="1321.5" y="-18.5" font-family="Helvetica,sans-Serif" font-size="10.00">+ create()</text>
<text text-anchor="start" x="1321.5" y="-7.5" font-family="Helvetica,sans-Serif" font-size="10.00">+ getName()</text>
</a>
</g>
</g>
<!-- Node1&#45;&gt;Node10 -->
<g id="edge9" class="edge"><title>Node1&#45;&gt;Node10</title>
<path fill="none" stroke="midnightblue" d="M1968.18,-165.451C1825.09,-155.354 1558.57,-133.065 1468.5,-102 1465.51,-100.967 1462.5,-99.8121 1459.51,-98.5588"/>
<polygon fill="none" stroke="midnightblue" points="1968.04,-168.951 1978.26,-166.157 1968.53,-161.968 1968.04,-168.951"/>
</g>
<!-- Node11 -->
<g id="node11" class="node"><title>Node11</title>
<g id="a_node11"><a xlink:href="classecs_1_1entities_1_1EnemyType03Entity.html" target="_top" xlink:title="{ecs::entities::EnemyType03\lEntity\n||+ EnemyType03Entity()\l+ ~EnemyType03Entity()\l+ create()\l+ getName()\l}">
<polygon fill="none" stroke="black" points="1477.5,-0.5 1477.5,-101.5 1623.5,-101.5 1623.5,-0.5 1477.5,-0.5"/>
<text text-anchor="start" x="1485.5" y="-89.5" font-family="Helvetica,sans-Serif" font-size="10.00">ecs::entities::EnemyType03</text>
<text text-anchor="middle" x="1550.5" y="-78.5" font-family="Helvetica,sans-Serif" font-size="10.00">Entity</text>
<polyline fill="none" stroke="black" points="1477.5,-71.5 1623.5,-71.5 "/>
<text text-anchor="middle" x="1550.5" y="-59.5" font-family="Helvetica,sans-Serif" font-size="10.00"> </text>
<polyline fill="none" stroke="black" points="1477.5,-52.5 1623.5,-52.5 "/>
<text text-anchor="start" x="1485.5" y="-40.5" font-family="Helvetica,sans-Serif" font-size="10.00">+ EnemyType03Entity()</text>
<text text-anchor="start" x="1485.5" y="-29.5" font-family="Helvetica,sans-Serif" font-size="10.00">+ ~EnemyType03Entity()</text>
<text text-anchor="start" x="1485.5" y="-18.5" font-family="Helvetica,sans-Serif" font-size="10.00">+ create()</text>
<text text-anchor="start" x="1485.5" y="-7.5" font-family="Helvetica,sans-Serif" font-size="10.00">+ getName()</text>
</a>
</g>
</g>
<!-- Node1&#45;&gt;Node11 -->
<g id="edge10" class="edge"><title>Node1&#45;&gt;Node11</title>
<path fill="none" stroke="midnightblue" d="M1968.42,-166.779C1879.7,-159.897 1743.57,-143.06 1632.5,-102 1629.53,-100.902 1626.55,-99.6907 1623.57,-98.3902"/>
<polygon fill="none" stroke="midnightblue" points="1968.22,-170.274 1978.46,-167.531 1968.75,-163.293 1968.22,-170.274"/>
</g>
<!-- Node12 -->
<g id="node12" class="node"><title>Node12</title>
<g id="a_node12"><a xlink:href="classecs_1_1entities_1_1GameBackgroundEntity.html" target="_top" xlink:title="{ecs::entities::GameBackground\lEntity\n||+ GameBackgroundEntity()\l+ ~GameBackgroundEntity()\l+ create()\l+ getName()\l}">
<polygon fill="none" stroke="black" points="1642,-0.5 1642,-101.5 1809,-101.5 1809,-0.5 1642,-0.5"/>
<text text-anchor="start" x="1650" y="-89.5" font-family="Helvetica,sans-Serif" font-size="10.00">ecs::entities::GameBackground</text>
<text text-anchor="middle" x="1725.5" y="-78.5" font-family="Helvetica,sans-Serif" font-size="10.00">Entity</text>
<polyline fill="none" stroke="black" points="1642,-71.5 1809,-71.5 "/>
<text text-anchor="middle" x="1725.5" y="-59.5" font-family="Helvetica,sans-Serif" font-size="10.00"> </text>
<polyline fill="none" stroke="black" points="1642,-52.5 1809,-52.5 "/>
<text text-anchor="start" x="1650" y="-40.5" font-family="Helvetica,sans-Serif" font-size="10.00">+ GameBackgroundEntity()</text>
<text text-anchor="start" x="1650" y="-29.5" font-family="Helvetica,sans-Serif" font-size="10.00">+ ~GameBackgroundEntity()</text>
<text text-anchor="start" x="1650" y="-18.5" font-family="Helvetica,sans-Serif" font-size="10.00">+ create()</text>
<text text-anchor="start" x="1650" y="-7.5" font-family="Helvetica,sans-Serif" font-size="10.00">+ getName()</text>
</a>
</g>
</g>
<!-- Node1&#45;&gt;Node12 -->
<g id="edge11" class="edge"><title>Node1&#45;&gt;Node12</title>
<path fill="none" stroke="midnightblue" d="M1968.52,-149.914C1922.58,-137.996 1866.79,-121.62 1818.5,-102 1815.36,-100.723 1812.18,-99.3702 1809,-97.9582"/>
<polygon fill="none" stroke="midnightblue" points="1967.91,-153.37 1978.47,-152.465 1969.65,-146.59 1967.91,-153.37"/>
</g>
<!-- Node13 -->
<g id="node13" class="node"><title>Node13</title>
<g id="a_node13"><a xlink:href="classecs_1_1entities_1_1MenuEntity.html" target="_top" xlink:title="{ecs::entities::MenuEntity\n||+ MenuEntity()\l+ ~MenuEntity()\l+ create()\l+ getName()\l}">
<polygon fill="none" stroke="black" points="1827.5,-6 1827.5,-96 1961.5,-96 1961.5,-6 1827.5,-6"/>
<text text-anchor="middle" x="1894.5" y="-84" font-family="Helvetica,sans-Serif" font-size="10.00">ecs::entities::MenuEntity</text>
<polyline fill="none" stroke="black" points="1827.5,-77 1961.5,-77 "/>
<text text-anchor="middle" x="1894.5" y="-65" font-family="Helvetica,sans-Serif" font-size="10.00"> </text>
<polyline fill="none" stroke="black" points="1827.5,-58 1961.5,-58 "/>
<text text-anchor="start" x="1835.5" y="-46" font-family="Helvetica,sans-Serif" font-size="10.00">+ MenuEntity()</text>
<text text-anchor="start" x="1835.5" y="-35" font-family="Helvetica,sans-Serif" font-size="10.00">+ ~MenuEntity()</text>
<text text-anchor="start" x="1835.5" y="-24" font-family="Helvetica,sans-Serif" font-size="10.00">+ create()</text>
<text text-anchor="start" x="1835.5" y="-13" font-family="Helvetica,sans-Serif" font-size="10.00">+ getName()</text>
</a>
</g>
</g>
<!-- Node1&#45;&gt;Node13 -->
<g id="edge12" class="edge"><title>Node1&#45;&gt;Node13</title>
<path fill="none" stroke="midnightblue" d="M2006.68,-132.272C1990.49,-120.685 1972.66,-107.927 1956.07,-96.0585"/>
<polygon fill="none" stroke="midnightblue" points="2004.81,-135.24 2014.98,-138.213 2008.89,-129.547 2004.81,-135.24"/>
</g>
<!-- Node14 -->
<g id="node14" class="node"><title>Node14</title>
<g id="a_node14"><a xlink:href="classecs_1_1entities_1_1NameRoomEntity.html" target="_top" xlink:title="{ecs::entities::NameRoomEntity\n||+ NameRoomEntity()\l+ ~NameRoomEntity()\l+ create()\l+ getName()\l}">
<polygon fill="none" stroke="black" points="1979.5,-6 1979.5,-96 2143.5,-96 2143.5,-6 1979.5,-6"/>
<text text-anchor="middle" x="2061.5" y="-84" font-family="Helvetica,sans-Serif" font-size="10.00">ecs::entities::NameRoomEntity</text>
<polyline fill="none" stroke="black" points="1979.5,-77 2143.5,-77 "/>
<text text-anchor="middle" x="2061.5" y="-65" font-family="Helvetica,sans-Serif" font-size="10.00"> </text>
<polyline fill="none" stroke="black" points="1979.5,-58 2143.5,-58 "/>
<text text-anchor="start" x="1987.5" y="-46" font-family="Helvetica,sans-Serif" font-size="10.00">+ NameRoomEntity()</text>
<text text-anchor="start" x="1987.5" y="-35" font-family="Helvetica,sans-Serif" font-size="10.00">+ ~NameRoomEntity()</text>
<text text-anchor="start" x="1987.5" y="-24" font-family="Helvetica,sans-Serif" font-size="10.00">+ create()</text>
<text text-anchor="start" x="1987.5" y="-13" font-family="Helvetica,sans-Serif" font-size="10.00">+ getName()</text>
</a>
</g>
</g>
<!-- Node1&#45;&gt;Node14 -->
<g id="edge13" class="edge"><title>Node1&#45;&gt;Node14</title>
<path fill="none" stroke="midnightblue" d="M2061.5,-128.135C2061.5,-117.768 2061.5,-106.687 2061.5,-96.2798"/>
<polygon fill="none" stroke="midnightblue" points="2058,-128.213 2061.5,-138.213 2065,-128.213 2058,-128.213"/>
</g>
<!-- Node15 -->
<g id="node15" class="node"><title>Node15</title>
<g id="a_node15"><a xlink:href="classecs_1_1entities_1_1NumberPlayersEntity.html" target="_top" xlink:title="{ecs::entities::NumberPlayers\lEntity\n||+ NumberPlayersEntity()\l+ ~NumberPlayersEntity()\l+ create()\l+ getName()\l}">
<polygon fill="none" stroke="black" points="2161.5,-0.5 2161.5,-101.5 2315.5,-101.5 2315.5,-0.5 2161.5,-0.5"/>
<text text-anchor="start" x="2169.5" y="-89.5" font-family="Helvetica,sans-Serif" font-size="10.00">ecs::entities::NumberPlayers</text>
<text text-anchor="middle" x="2238.5" y="-78.5" font-family="Helvetica,sans-Serif" font-size="10.00">Entity</text>
<polyline fill="none" stroke="black" points="2161.5,-71.5 2315.5,-71.5 "/>
<text text-anchor="middle" x="2238.5" y="-59.5" font-family="Helvetica,sans-Serif" font-size="10.00"> </text>
<polyline fill="none" stroke="black" points="2161.5,-52.5 2315.5,-52.5 "/>
<text text-anchor="start" x="2169.5" y="-40.5" font-family="Helvetica,sans-Serif" font-size="10.00">+ NumberPlayersEntity()</text>
<text text-anchor="start" x="2169.5" y="-29.5" font-family="Helvetica,sans-Serif" font-size="10.00">+ ~NumberPlayersEntity()</text>
<text text-anchor="start" x="2169.5" y="-18.5" font-family="Helvetica,sans-Serif" font-size="10.00">+ create()</text>
<text text-anchor="start" x="2169.5" y="-7.5" font-family="Helvetica,sans-Serif" font-size="10.00">+ getName()</text>
</a>
</g>
</g>
<!-- Node1&#45;&gt;Node15 -->
<g id="edge14" class="edge"><title>Node1&#45;&gt;Node15</title>
<path fill="none" stroke="midnightblue" d="M2119.24,-132.519C2133.83,-122.665 2149.71,-111.949 2164.97,-101.646"/>
<polygon fill="none" stroke="midnightblue" points="2117.13,-129.716 2110.8,-138.213 2121.05,-135.518 2117.13,-129.716"/>
</g>
<!-- Node16 -->
<g id="node16" class="node"><title>Node16</title>
<g id="a_node16"><a xlink:href="classecs_1_1entities_1_1PlanetEntity.html" target="_top" xlink:title="{ecs::entities::PlanetEntity\n||+ PlanetEntity()\l+ ~PlanetEntity()\l+ create()\l+ getName()\l}">
<polygon fill="none" stroke="black" points="2334,-6 2334,-96 2471,-96 2471,-6 2334,-6"/>
<text text-anchor="middle" x="2402.5" y="-84" font-family="Helvetica,sans-Serif" font-size="10.00">ecs::entities::PlanetEntity</text>
<polyline fill="none" stroke="black" points="2334,-77 2471,-77 "/>
<text text-anchor="middle" x="2402.5" y="-65" font-family="Helvetica,sans-Serif" font-size="10.00"> </text>
<polyline fill="none" stroke="black" points="2334,-58 2471,-58 "/>
<text text-anchor="start" x="2342" y="-46" font-family="Helvetica,sans-Serif" font-size="10.00">+ PlanetEntity()</text>
<text text-anchor="start" x="2342" y="-35" font-family="Helvetica,sans-Serif" font-size="10.00">+ ~PlanetEntity()</text>
<text text-anchor="start" x="2342" y="-24" font-family="Helvetica,sans-Serif" font-size="10.00">+ create()</text>
<text text-anchor="start" x="2342" y="-13" font-family="Helvetica,sans-Serif" font-size="10.00">+ getName()</text>
</a>
</g>
</g>
<!-- Node1&#45;&gt;Node16 -->
<g id="edge15" class="edge"><title>Node1&#45;&gt;Node16</title>
<path fill="none" stroke="midnightblue" d="M2154.37,-154.369C2205.82,-143.064 2270.18,-125.882 2324.5,-102 2328.62,-100.187 2332.78,-98.1732 2336.91,-96.0231"/>
<polygon fill="none" stroke="midnightblue" points="2153.62,-150.949 2144.59,-156.482 2155.1,-157.791 2153.62,-150.949"/>
</g>
<!-- Node17 -->
<g id="node17" class="node"><title>Node17</title>
<g id="a_node17"><a xlink:href="classecs_1_1entities_1_1PlanetRingEntity.html" target="_top" xlink:title="{ecs::entities::PlanetRing\lEntity\n||+ PlanetRingEntity()\l+ ~PlanetRingEntity()\l+ create()\l+ getName()\l}">
<polygon fill="none" stroke="black" points="2489,-0.5 2489,-101.5 2620,-101.5 2620,-0.5 2489,-0.5"/>
<text text-anchor="start" x="2497" y="-89.5" font-family="Helvetica,sans-Serif" font-size="10.00">ecs::entities::PlanetRing</text>
<text text-anchor="middle" x="2554.5" y="-78.5" font-family="Helvetica,sans-Serif" font-size="10.00">Entity</text>
<polyline fill="none" stroke="black" points="2489,-71.5 2620,-71.5 "/>
<text text-anchor="middle" x="2554.5" y="-59.5" font-family="Helvetica,sans-Serif" font-size="10.00"> </text>
<polyline fill="none" stroke="black" points="2489,-52.5 2620,-52.5 "/>
<text text-anchor="start" x="2497" y="-40.5" font-family="Helvetica,sans-Serif" font-size="10.00">+ PlanetRingEntity()</text>
<text text-anchor="start" x="2497" y="-29.5" font-family="Helvetica,sans-Serif" font-size="10.00">+ ~PlanetRingEntity()</text>
<text text-anchor="start" x="2497" y="-18.5" font-family="Helvetica,sans-Serif" font-size="10.00">+ create()</text>
<text text-anchor="start" x="2497" y="-7.5" font-family="Helvetica,sans-Serif" font-size="10.00">+ getName()</text>
</a>
</g>
</g>
<!-- Node1&#45;&gt;Node17 -->
<g id="edge16" class="edge"><title>Node1&#45;&gt;Node17</title>
<path fill="none" stroke="midnightblue" d="M2154.72,-167.446C2241.72,-161.047 2373.76,-144.545 2480.5,-102 2483.24,-100.909 2485.97,-99.7049 2488.7,-98.41"/>
<polygon fill="none" stroke="midnightblue" points="2154.34,-163.965 2144.61,-168.16 2154.83,-170.948 2154.34,-163.965"/>
</g>
<!-- Node18 -->
<g id="node18" class="node"><title>Node18</title>
<g id="a_node18"><a xlink:href="classecs_1_1entities_1_1PlayEntity.html" target="_top" xlink:title="{ecs::entities::PlayEntity\n||+ PlayEntity()\l+ ~PlayEntity()\l+ create()\l+ getName()\l}">
<polygon fill="none" stroke="black" points="2638,-6 2638,-96 2765,-96 2765,-6 2638,-6"/>
<text text-anchor="middle" x="2701.5" y="-84" font-family="Helvetica,sans-Serif" font-size="10.00">ecs::entities::PlayEntity</text>
<polyline fill="none" stroke="black" points="2638,-77 2765,-77 "/>
<text text-anchor="middle" x="2701.5" y="-65" font-family="Helvetica,sans-Serif" font-size="10.00"> </text>
<polyline fill="none" stroke="black" points="2638,-58 2765,-58 "/>
<text text-anchor="start" x="2646" y="-46" font-family="Helvetica,sans-Serif" font-size="10.00">+ PlayEntity()</text>
<text text-anchor="start" x="2646" y="-35" font-family="Helvetica,sans-Serif" font-size="10.00">+ ~PlayEntity()</text>
<text text-anchor="start" x="2646" y="-24" font-family="Helvetica,sans-Serif" font-size="10.00">+ create()</text>
<text text-anchor="start" x="2646" y="-13" font-family="Helvetica,sans-Serif" font-size="10.00">+ getName()</text>
</a>
</g>
</g>
<!-- Node1&#45;&gt;Node18 -->
<g id="edge17" class="edge"><title>Node1&#45;&gt;Node18</title>
<path fill="none" stroke="midnightblue" d="M2154.83,-165.542C2293.05,-155.798 2544.94,-134.251 2629.5,-102 2633.91,-100.319 2638.3,-98.3116 2642.63,-96.0819"/>
<polygon fill="none" stroke="midnightblue" points="2154.41,-162.063 2144.68,-166.251 2154.9,-169.046 2154.41,-162.063"/>
</g>
<!-- Node19 -->
<g id="node19" class="node"><title>Node19</title>
<g id="a_node19"><a xlink:href="classecs_1_1entities_1_1PlayerEntity.html" target="_top" xlink:title="{ecs::entities::PlayerEntity\n||+ PlayerEntity()\l+ ~PlayerEntity()\l+ create()\l+ getName()\l}">
<polygon fill="none" stroke="black" points="2783,-6 2783,-96 2920,-96 2920,-6 2783,-6"/>
<text text-anchor="middle" x="2851.5" y="-84" font-family="Helvetica,sans-Serif" font-size="10.00">ecs::entities::PlayerEntity</text>
<polyline fill="none" stroke="black" points="2783,-77 2920,-77 "/>
<text text-anchor="middle" x="2851.5" y="-65" font-family="Helvetica,sans-Serif" font-size="10.00"> </text>
<polyline fill="none" stroke="black" points="2783,-58 2920,-58 "/>
<text text-anchor="start" x="2791" y="-46" font-family="Helvetica,sans-Serif" font-size="10.00">+ PlayerEntity()</text>
<text text-anchor="start" x="2791" y="-35" font-family="Helvetica,sans-Serif" font-size="10.00">+ ~PlayerEntity()</text>
<text text-anchor="start" x="2791" y="-24" font-family="Helvetica,sans-Serif" font-size="10.00">+ create()</text>
<text text-anchor="start" x="2791" y="-13" font-family="Helvetica,sans-Serif" font-size="10.00">+ getName()</text>
</a>
</g>
</g>
<!-- Node1&#45;&gt;Node19 -->
<g id="edge18" class="edge"><title>Node1&#45;&gt;Node19</title>
<path fill="none" stroke="midnightblue" d="M2155.01,-167.891C2321.54,-160.556 2662.53,-141.172 2774.5,-102 2779.16,-100.368 2783.83,-98.3986 2788.42,-96.1967"/>
<polygon fill="none" stroke="midnightblue" points="2154.62,-164.405 2144.78,-168.336 2154.93,-171.398 2154.62,-164.405"/>
</g>
<!-- Node20 -->
<g id="node20" class="node"><title>Node20</title>
<g id="a_node20"><a xlink:href="classecs_1_1entities_1_1PlayerTwoEntity.html" target="_top" xlink:title="{ecs::entities::PlayerTwo\lEntity\n||+ PlayerTwoEntity()\l+ ~PlayerTwoEntity()\l+ create()\l+ getName()\l}">
<polygon fill="none" stroke="black" points="2938.5,-0.5 2938.5,-101.5 3064.5,-101.5 3064.5,-0.5 2938.5,-0.5"/>
<text text-anchor="start" x="2946.5" y="-89.5" font-family="Helvetica,sans-Serif" font-size="10.00">ecs::entities::PlayerTwo</text>
<text text-anchor="middle" x="3001.5" y="-78.5" font-family="Helvetica,sans-Serif" font-size="10.00">Entity</text>
<polyline fill="none" stroke="black" points="2938.5,-71.5 3064.5,-71.5 "/>
<text text-anchor="middle" x="3001.5" y="-59.5" font-family="Helvetica,sans-Serif" font-size="10.00"> </text>
<polyline fill="none" stroke="black" points="2938.5,-52.5 3064.5,-52.5 "/>
<text text-anchor="start" x="2946.5" y="-40.5" font-family="Helvetica,sans-Serif" font-size="10.00">+ PlayerTwoEntity()</text>
<text text-anchor="start" x="2946.5" y="-29.5" font-family="Helvetica,sans-Serif" font-size="10.00">+ ~PlayerTwoEntity()</text>
<text text-anchor="start" x="2946.5" y="-18.5" font-family="Helvetica,sans-Serif" font-size="10.00">+ create()</text>
<text text-anchor="start" x="2946.5" y="-7.5" font-family="Helvetica,sans-Serif" font-size="10.00">+ getName()</text>
</a>
</g>
</g>
<!-- Node1&#45;&gt;Node20 -->
<g id="edge19" class="edge"><title>Node1&#45;&gt;Node20</title>
<path fill="none" stroke="midnightblue" d="M2154.84,-170.144C2348.78,-166.336 2788.95,-152.261 2929.5,-102 2932.51,-100.924 2935.51,-99.6878 2938.48,-98.3253"/>
<polygon fill="none" stroke="midnightblue" points="2154.6,-166.648 2144.67,-170.339 2154.73,-173.647 2154.6,-166.648"/>
</g>
<!-- Node21 -->
<g id="node21" class="node"><title>Node21</title>
<g id="a_node21"><a xlink:href="classecs_1_1entities_1_1StarsEntity.html" target="_top" xlink:title="{ecs::entities::StarsEntity\n||+ StarsEntity()\l+ ~StarsEntity()\l+ create()\l+ getName()\l}">
<polygon fill="none" stroke="black" points="3083,-6 3083,-96 3216,-96 3216,-6 3083,-6"/>
<text text-anchor="middle" x="3149.5" y="-84" font-family="Helvetica,sans-Serif" font-size="10.00">ecs::entities::StarsEntity</text>
<polyline fill="none" stroke="black" points="3083,-77 3216,-77 "/>
<text text-anchor="middle" x="3149.5" y="-65" font-family="Helvetica,sans-Serif" font-size="10.00"> </text>
<polyline fill="none" stroke="black" points="3083,-58 3216,-58 "/>
<text text-anchor="start" x="3091" y="-46" font-family="Helvetica,sans-Serif" font-size="10.00">+ StarsEntity()</text>
<text text-anchor="start" x="3091" y="-35" font-family="Helvetica,sans-Serif" font-size="10.00">+ ~StarsEntity()</text>
<text text-anchor="start" x="3091" y="-24" font-family="Helvetica,sans-Serif" font-size="10.00">+ create()</text>
<text text-anchor="start" x="3091" y="-13" font-family="Helvetica,sans-Serif" font-size="10.00">+ getName()</text>
</a>
</g>
</g>
<!-- Node1&#45;&gt;Node21 -->
<g id="edge20" class="edge"><title>Node1&#45;&gt;Node21</title>
<path fill="none" stroke="midnightblue" d="M2154.95,-171.115C2372.08,-169.254 2904.92,-158.847 3073.5,-102 3078.29,-100.385 3083.07,-98.3926 3087.77,-96.1423"/>
<polygon fill="none" stroke="midnightblue" points="2154.83,-167.616 2144.85,-171.198 2154.88,-174.616 2154.83,-167.616"/>
</g>
<!-- Node22 -->
<g id="node22" class="node"><title>Node22</title>
<g id="a_node22"><a xlink:href="classecs_1_1entities_1_1StopEntity.html" target="_top" xlink:title="{ecs::entities::StopEntity\n||+ StopEntity()\l+ ~StopEntity()\l+ create()\l+ getName()\l}">
<polygon fill="none" stroke="black" points="3234.5,-6 3234.5,-96 3364.5,-96 3364.5,-6 3234.5,-6"/>
<text text-anchor="middle" x="3299.5" y="-84" font-family="Helvetica,sans-Serif" font-size="10.00">ecs::entities::StopEntity</text>
<polyline fill="none" stroke="black" points="3234.5,-77 3364.5,-77 "/>
<text text-anchor="middle" x="3299.5" y="-65" font-family="Helvetica,sans-Serif" font-size="10.00"> </text>
<polyline fill="none" stroke="black" points="3234.5,-58 3364.5,-58 "/>
<text text-anchor="start" x="3242.5" y="-46" font-family="Helvetica,sans-Serif" font-size="10.00">+ StopEntity()</text>
<text text-anchor="start" x="3242.5" y="-35" font-family="Helvetica,sans-Serif" font-size="10.00">+ ~StopEntity()</text>
<text text-anchor="start" x="3242.5" y="-24" font-family="Helvetica,sans-Serif" font-size="10.00">+ create()</text>
<text text-anchor="start" x="3242.5" y="-13" font-family="Helvetica,sans-Serif" font-size="10.00">+ getName()</text>
</a>
</g>
</g>
<!-- Node1&#45;&gt;Node22 -->
<g id="edge21" class="edge"><title>Node1&#45;&gt;Node22</title>
<path fill="none" stroke="midnightblue" d="M2154.62,-172.245C2394.4,-173.161 3027.99,-168.975 3225.5,-102 3230.2,-100.407 3234.88,-98.4304 3239.47,-96.1919"/>
<polygon fill="none" stroke="midnightblue" points="2154.55,-168.744 2144.54,-172.202 2154.52,-175.744 2154.55,-168.744"/>
</g>
<!-- Node23 -->
<g id="node23" class="node"><title>Node23</title>
<g id="a_node23"><a xlink:href="classecs_1_1entities_1_1TestBackground.html" target="_top" xlink:title="{ecs::entities::TestBackground\n||+ TestBackground()\l+ ~TestBackground()\l+ create()\l+ getName()\l}">
<polygon fill="none" stroke="black" points="3382.5,-6 3382.5,-96 3538.5,-96 3538.5,-6 3382.5,-6"/>
<text text-anchor="middle" x="3460.5" y="-84" font-family="Helvetica,sans-Serif" font-size="10.00">ecs::entities::TestBackground</text>
<polyline fill="none" stroke="black" points="3382.5,-77 3538.5,-77 "/>
<text text-anchor="middle" x="3460.5" y="-65" font-family="Helvetica,sans-Serif" font-size="10.00"> </text>
<polyline fill="none" stroke="black" points="3382.5,-58 3538.5,-58 "/>
<text text-anchor="start" x="3390.5" y="-46" font-family="Helvetica,sans-Serif" font-size="10.00">+ TestBackground()</text>
<text text-anchor="start" x="3390.5" y="-35" font-family="Helvetica,sans-Serif" font-size="10.00">+ ~TestBackground()</text>
<text text-anchor="start" x="3390.5" y="-24" font-family="Helvetica,sans-Serif" font-size="10.00">+ create()</text>
<text text-anchor="start" x="3390.5" y="-13" font-family="Helvetica,sans-Serif" font-size="10.00">+ getName()</text>
</a>
</g>
</g>
<!-- Node1&#45;&gt;Node23 -->
<g id="edge22" class="edge"><title>Node1&#45;&gt;Node23</title>
<path fill="none" stroke="midnightblue" d="M2154.97,-172.162C2415.38,-173.12 3144.95,-169.523 3373.5,-102 3379.01,-100.371 3384.55,-98.3314 3390.01,-96.0137"/>
<polygon fill="none" stroke="midnightblue" points="2154.8,-168.662 2144.79,-172.121 2154.77,-175.662 2154.8,-168.662"/>
</g>
<!-- Node24 -->
<g id="node24" class="node"><title>Node24</title>
<g id="a_node24"><a xlink:href="classecs_1_1entities_1_1TestEntity.html" target="_top" xlink:title="{ecs::entities::TestEntity\n||+ TestEntity()\l+ ~TestEntity()\l+ create()\l+ getName()\l}">
<polygon fill="none" stroke="black" points="3556.5,-6 3556.5,-96 3682.5,-96 3682.5,-6 3556.5,-6"/>
<text text-anchor="middle" x="3619.5" y="-84" font-family="Helvetica,sans-Serif" font-size="10.00">ecs::entities::TestEntity</text>
<polyline fill="none" stroke="black" points="3556.5,-77 3682.5,-77 "/>
<text text-anchor="middle" x="3619.5" y="-65" font-family="Helvetica,sans-Serif" font-size="10.00"> </text>
<polyline fill="none" stroke="black" points="3556.5,-58 3682.5,-58 "/>
<text text-anchor="start" x="3564.5" y="-46" font-family="Helvetica,sans-Serif" font-size="10.00">+ TestEntity()</text>
<text text-anchor="start" x="3564.5" y="-35" font-family="Helvetica,sans-Serif" font-size="10.00">+ ~TestEntity()</text>
<text text-anchor="start" x="3564.5" y="-24" font-family="Helvetica,sans-Serif" font-size="10.00">+ create()</text>
<text text-anchor="start" x="3564.5" y="-13" font-family="Helvetica,sans-Serif" font-size="10.00">+ getName()</text>
</a>
</g>
</g>
<!-- Node1&#45;&gt;Node24 -->
<g id="edge23" class="edge"><title>Node1&#45;&gt;Node24</title>
<path fill="none" stroke="midnightblue" d="M2154.85,-170.131C2460.05,-165.243 3416.22,-146.506 3547.5,-102 3552.26,-100.388 3556.98,-98.36 3561.61,-96.0511"/>
<polygon fill="none" stroke="midnightblue" points="2154.65,-166.634 2144.71,-170.293 2154.76,-173.633 2154.65,-166.634"/>
</g>
<!-- Node25 -->
<g id="node25" class="node"><title>Node25</title>
<g id="a_node25"><a xlink:href="classecs_1_1entities_1_1TestEntity2.html" target="_top" xlink:title="{ecs::entities::TestEntity2\n||+ TestEntity2()\l+ ~TestEntity2()\l+ create()\l+ getName()\l}">
<polygon fill="none" stroke="black" points="3700.5,-6 3700.5,-96 3832.5,-96 3832.5,-6 3700.5,-6"/>
<text text-anchor="middle" x="3766.5" y="-84" font-family="Helvetica,sans-Serif" font-size="10.00">ecs::entities::TestEntity2</text>
<polyline fill="none" stroke="black" points="3700.5,-77 3832.5,-77 "/>
<text text-anchor="middle" x="3766.5" y="-65" font-family="Helvetica,sans-Serif" font-size="10.00"> </text>
<polyline fill="none" stroke="black" points="3700.5,-58 3832.5,-58 "/>
<text text-anchor="start" x="3708.5" y="-46" font-family="Helvetica,sans-Serif" font-size="10.00">+ TestEntity2()</text>
<text text-anchor="start" x="3708.5" y="-35" font-family="Helvetica,sans-Serif" font-size="10.00">+ ~TestEntity2()</text>
<text text-anchor="start" x="3708.5" y="-24" font-family="Helvetica,sans-Serif" font-size="10.00">+ create()</text>
<text text-anchor="start" x="3708.5" y="-13" font-family="Helvetica,sans-Serif" font-size="10.00">+ getName()</text>
</a>
</g>
</g>
<!-- Node1&#45;&gt;Node25 -->
<g id="edge24" class="edge"><title>Node1&#45;&gt;Node25</title>
<path fill="none" stroke="midnightblue" d="M2154.87,-170.451C2479.27,-166.401 3545.65,-149.574 3691.5,-102 3696.41,-100.399 3701.3,-98.3791 3706.09,-96.0761"/>
<polygon fill="none" stroke="midnightblue" points="2154.52,-166.954 2144.57,-170.578 2154.61,-173.954 2154.52,-166.954"/>
</g>
<!-- Node26 -->
<g id="node26" class="node"><title>Node26</title>
<g id="a_node26"><a xlink:href="classecs_1_1entities_1_1WallSideEntity.html" target="_top" xlink:title="{ecs::entities::WallSideEntity\n||+ WallSideEntity()\l+ ~WallSideEntity()\l+ create()\l+ getName()\l}">
<polygon fill="none" stroke="black" points="3850.5,-6 3850.5,-96 3996.5,-96 3996.5,-6 3850.5,-6"/>
<text text-anchor="middle" x="3923.5" y="-84" font-family="Helvetica,sans-Serif" font-size="10.00">ecs::entities::WallSideEntity</text>
<polyline fill="none" stroke="black" points="3850.5,-77 3996.5,-77 "/>
<text text-anchor="middle" x="3923.5" y="-65" font-family="Helvetica,sans-Serif" font-size="10.00"> </text>
<polyline fill="none" stroke="black" points="3850.5,-58 3996.5,-58 "/>
<text text-anchor="start" x="3858.5" y="-46" font-family="Helvetica,sans-Serif" font-size="10.00">+ WallSideEntity()</text>
<text text-anchor="start" x="3858.5" y="-35" font-family="Helvetica,sans-Serif" font-size="10.00">+ ~WallSideEntity()</text>
<text text-anchor="start" x="3858.5" y="-24" font-family="Helvetica,sans-Serif" font-size="10.00">+ create()</text>
<text text-anchor="start" x="3858.5" y="-13" font-family="Helvetica,sans-Serif" font-size="10.00">+ getName()</text>
</a>
</g>
</g>
<!-- Node1&#45;&gt;Node26 -->
<g id="edge25" class="edge"><title>Node1&#45;&gt;Node26</title>
<path fill="none" stroke="midnightblue" d="M2154.88,-170.603C2498.31,-166.926 3679.84,-150.822 3841.5,-102 3846.77,-100.409 3852.04,-98.3977 3857.23,-96.1004"/>
<polygon fill="none" stroke="midnightblue" points="2154.68,-167.105 2144.72,-170.71 2154.75,-174.104 2154.68,-167.105"/>
</g>
</g>
</svg>
        <g id="navigator" transform="translate(0 0)" fill="#404254">
                <rect fill="#f2f5e9" fill-opacity="0.5" stroke="#606060" stroke-width=".5" x="0" y="0" width="60" height="60"/>
                <use id="zoomplus" xlink:href="#zoomPlus" x="17" y="9" onmousedown="handleZoom(evt,'in')"/>
                <use id="zoomminus" xlink:href="#zoomMin" x="42" y="9" onmousedown="handleZoom(evt,'out')"/>
                <use id="reset" xlink:href="#resetDef" x="30" y="36" onmousedown="handleReset()"/>
                <g id="arrowUp" xlink:href="#dirArrow" transform="translate(30 24)" onmousedown="handlePan(0,-1)">
                  <use xlink:href="#rim" fill="#404040">
                        <set attributeName="fill" to="#808080" begin="arrowUp.mouseover" end="arrowUp.mouseout"/>
                  </use>
                  <path fill="none" stroke="white" stroke-width="1.5" d="M0,-3.0v7 M-2.5,-0.5L0,-3.0L2.5,-0.5"/>
                </g>
                <g id="arrowRight" xlink:href="#dirArrow" transform="rotate(90) translate(36 -43)" onmousedown="handlePan(1,0)">
                  <use xlink:href="#rim" fill="#404040">
                        <set attributeName="fill" to="#808080" begin="arrowRight.mouseover" end="arrowRight.mouseout"/>
                  </use>
                  <path fill="none" stroke="white" stroke-width="1.5" d="M0,-3.0v7 M-2.5,-0.5L0,-3.0L2.5,-0.5"/>
                </g>
                <g id="arrowDown" xlink:href="#dirArrow" transform="rotate(180) translate(-30 -48)" onmousedown="handlePan(0,1)">
                  <use xlink:href="#rim" fill="#404040">
                        <set attributeName="fill" to="#808080" begin="arrowDown.mouseover" end="arrowDown.mouseout"/>
                  </use>
                  <path fill="none" stroke="white" stroke-width="1.5" d="M0,-3.0v7 M-2.5,-0.5L0,-3.0L2.5,-0.5"/>
                </g>
                <g id="arrowLeft" xlink:href="#dirArrow" transform="rotate(270) translate(-36 17)" onmousedown="handlePan(-1,0)">
                  <use xlink:href="#rim" fill="#404040">
                        <set attributeName="fill" to="#808080" begin="arrowLeft.mouseover" end="arrowLeft.mouseout"/>
                  </use>
                  <path fill="none" stroke="white" stroke-width="1.5" d="M0,-3.0v7 M-2.5,-0.5L0,-3.0L2.5,-0.5"/>
                </g>
        </g>
        <svg viewBox="0 0 15 15" width="100%" height="30px" preserveAspectRatio="xMaxYMin meet">
         <g id="arrow_out" transform="scale(0.3 0.3)">
          <a xlink:href="classecs_1_1entities_1_1IEntityConstructor__inherit__graph_org.svg" target="_base">
           <rect id="button" ry="5" rx="5" y="6" x="6" height="38" width="38"
                fill="#f2f5e9" fill-opacity="0.5" stroke="#606060" stroke-width="1.0"/>
           <path id="arrow"
             d="M 11.500037,31.436501 C 11.940474,20.09759 22.043105,11.32322 32.158766,21.979434 L 37.068811,17.246167 C 37.068811,17.246167 37.088388,32 37.088388,32 L 22.160133,31.978069 C 22.160133,31.978069 26.997745,27.140456 26.997745,27.140456 C 18.528582,18.264221 13.291696,25.230495 11.500037,31.436501 z"
             style="fill:#404040;"/>
          </a>
         </g>
        </svg>
</svg>
