<?xml version="1.0" encoding="UTF-8" standalone="no"?>
<!DOCTYPE svg PUBLIC "-//W3C//DTD SVG 1.1//EN"
 "http://www.w3.org/Graphics/SVG/1.1/DTD/svg11.dtd">
<!-- Generated by graphviz version 2.38.0 (20140413.2041)
 -->
<!-- Title: ECSExceptions Pages: 1 -->
<svg width="450pt" height="403pt"
 viewBox="0.00 0.00 450.00 403.00" xmlns="http://www.w3.org/2000/svg" xmlns:xlink="http://www.w3.org/1999/xlink">
<g id="graph0" class="graph" transform="scale(1 1) rotate(0) translate(4 399)">
<title>ECSExceptions</title>
<!-- Node1 -->
<g id="node1" class="node"><title>Node1</title>
<polygon fill="#bfbfbf" stroke="black" points="173.5,-105.5 173.5,-173.5 288.5,-173.5 288.5,-105.5 173.5,-105.5"/>
<text text-anchor="middle" x="231" y="-161.5" font-family="Helvetica,sans-Serif" font-size="10.00">ECSExceptions</text>
<polyline fill="none" stroke="black" points="173.5,-154.5 288.5,-154.5 "/>
<text text-anchor="middle" x="231" y="-142.5" font-family="Helvetica,sans-Serif" font-size="10.00"> </text>
<polyline fill="none" stroke="black" points="173.5,-135.5 288.5,-135.5 "/>
<text text-anchor="start" x="181.5" y="-123.5" font-family="Helvetica,sans-Serif" font-size="10.00">+ ECSExceptions()</text>
<text text-anchor="start" x="181.5" y="-112.5" font-family="Helvetica,sans-Serif" font-size="10.00">+ ~ECSExceptions()</text>
</g>
<!-- Node4 -->
<g id="node4" class="node"><title>Node4</title>
<g id="a_node4"><a xlink:href="classComponentExceptions.html" target="_top" xlink:title="Component Class Exceptions. ">
<polygon fill="none" stroke="black" points="0,-0.5 0,-68.5 152,-68.5 152,-0.5 0,-0.5"/>
<text text-anchor="middle" x="76" y="-56.5" font-family="Helvetica,sans-Serif" font-size="10.00">ComponentExceptions</text>
<polyline fill="none" stroke="black" points="0,-49.5 152,-49.5 "/>
<text text-anchor="middle" x="76" y="-37.5" font-family="Helvetica,sans-Serif" font-size="10.00"> </text>
<polyline fill="none" stroke="black" points="0,-30.5 152,-30.5 "/>
<text text-anchor="start" x="8" y="-18.5" font-family="Helvetica,sans-Serif" font-size="10.00">+ ComponentExceptions()</text>
<text text-anchor="start" x="8" y="-7.5" font-family="Helvetica,sans-Serif" font-size="10.00">+ ~ComponentExceptions()</text>
</a>
</g>
</g>
<!-- Node1&#45;&gt;Node4 -->
<g id="edge3" class="edge"><title>Node1&#45;&gt;Node4</title>
<path fill="none" stroke="midnightblue" d="M172.662,-99.7335C157.237,-89.483 140.73,-78.5143 125.803,-68.5947"/>
<polygon fill="none" stroke="midnightblue" points="170.838,-102.724 181.104,-105.343 174.712,-96.8935 170.838,-102.724"/>
</g>
<!-- Node5 -->
<g id="node5" class="node"><title>Node5</title>
<g id="a_node5"><a xlink:href="classEntityExceptions.html" target="_top" xlink:title="Entity Class Exceptions. ">
<polygon fill="none" stroke="black" points="170,-0.5 170,-68.5 292,-68.5 292,-0.5 170,-0.5"/>
<text text-anchor="middle" x="231" y="-56.5" font-family="Helvetica,sans-Serif" font-size="10.00">EntityExceptions</text>
<polyline fill="none" stroke="black" points="170,-49.5 292,-49.5 "/>
<text text-anchor="middle" x="231" y="-37.5" font-family="Helvetica,sans-Serif" font-size="10.00"> </text>
<polyline fill="none" stroke="black" points="170,-30.5 292,-30.5 "/>
<text text-anchor="start" x="178" y="-18.5" font-family="Helvetica,sans-Serif" font-size="10.00">+ EntityExceptions()</text>
<text text-anchor="start" x="178" y="-7.5" font-family="Helvetica,sans-Serif" font-size="10.00">+ ~EntityExceptions()</text>
</a>
</g>
</g>
<!-- Node1&#45;&gt;Node5 -->
<g id="edge4" class="edge"><title>Node1&#45;&gt;Node5</title>
<path fill="none" stroke="midnightblue" d="M231,-95.1362C231,-86.256 231,-77.0447 231,-68.5947"/>
<polygon fill="none" stroke="midnightblue" points="227.5,-95.3432 231,-105.343 234.5,-95.3432 227.5,-95.3432"/>
</g>
<!-- Node6 -->
<g id="node6" class="node"><title>Node6</title>
<g id="a_node6"><a xlink:href="classSystemExceptions.html" target="_top" xlink:title="System class Exception. ">
<polygon fill="none" stroke="black" points="310,-0.5 310,-68.5 442,-68.5 442,-0.5 310,-0.5"/>
<text text-anchor="middle" x="376" y="-56.5" font-family="Helvetica,sans-Serif" font-size="10.00">SystemExceptions</text>
<polyline fill="none" stroke="black" points="310,-49.5 442,-49.5 "/>
<text text-anchor="middle" x="376" y="-37.5" font-family="Helvetica,sans-Serif" font-size="10.00"> </text>
<polyline fill="none" stroke="black" points="310,-30.5 442,-30.5 "/>
<text text-anchor="start" x="318" y="-18.5" font-family="Helvetica,sans-Serif" font-size="10.00">+ SystemExceptions()</text>
<text text-anchor="start" x="318" y="-7.5" font-family="Helvetica,sans-Serif" font-size="10.00">+ ~SystemExceptions()</text>
</a>
</g>
</g>
<!-- Node1&#45;&gt;Node6 -->
<g id="edge5" class="edge"><title>Node1&#45;&gt;Node6</title>
<path fill="none" stroke="midnightblue" d="M285.975,-99.4486C300.29,-89.2799 315.575,-78.4225 329.41,-68.5947"/>
<polygon fill="none" stroke="midnightblue" points="283.803,-96.6987 277.677,-105.343 287.856,-102.405 283.803,-96.6987"/>
</g>
<!-- Node2 -->
<g id="node2" class="node"><title>Node2</title>
<g id="a_node2"><a xlink:href="classRTypeExceptions.html" target="_top" xlink:title="Rtype Class Exception which regroup all Exceptions. ">
<polygon fill="none" stroke="black" points="170,-210.5 170,-300.5 292,-300.5 292,-210.5 170,-210.5"/>
<text text-anchor="middle" x="231" y="-288.5" font-family="Helvetica,sans-Serif" font-size="10.00">RTypeExceptions</text>
<polyline fill="none" stroke="black" points="170,-281.5 292,-281.5 "/>
<text text-anchor="middle" x="231" y="-269.5" font-family="Helvetica,sans-Serif" font-size="10.00"> </text>
<polyline fill="none" stroke="black" points="170,-262.5 292,-262.5 "/>
<text text-anchor="start" x="178" y="-250.5" font-family="Helvetica,sans-Serif" font-size="10.00">+ RTypeExceptions()</text>
<text text-anchor="start" x="178" y="-239.5" font-family="Helvetica,sans-Serif" font-size="10.00">+ ~RTypeExceptions()</text>
<text text-anchor="start" x="178" y="-228.5" font-family="Helvetica,sans-Serif" font-size="10.00">+ what()</text>
<text text-anchor="start" x="178" y="-217.5" font-family="Helvetica,sans-Serif" font-size="10.00">+ where()</text>
</a>
</g>
</g>
<!-- Node2&#45;&gt;Node1 -->
<g id="edge1" class="edge"><title>Node2&#45;&gt;Node1</title>
<path fill="none" stroke="midnightblue" d="M231,-200.316C231,-191.285 231,-182.159 231,-173.848"/>
<polygon fill="none" stroke="midnightblue" points="227.5,-200.425 231,-210.425 234.5,-200.425 227.5,-200.425"/>
</g>
<!-- Node3 -->
<g id="node3" class="node"><title>Node3</title>
<polygon fill="none" stroke="#bfbfbf" points="189,-337.5 189,-394.5 273,-394.5 273,-337.5 189,-337.5"/>
<text text-anchor="middle" x="231" y="-382.5" font-family="Helvetica,sans-Serif" font-size="10.00">std::exception</text>
<polyline fill="none" stroke="#bfbfbf" points="189,-375.5 273,-375.5 "/>
<text text-anchor="middle" x="231" y="-363.5" font-family="Helvetica,sans-Serif" font-size="10.00"> </text>
<polyline fill="none" stroke="#bfbfbf" points="189,-356.5 273,-356.5 "/>
<text text-anchor="middle" x="231" y="-344.5" font-family="Helvetica,sans-Serif" font-size="10.00"> </text>
</g>
<!-- Node3&#45;&gt;Node2 -->
<g id="edge2" class="edge"><title>Node3&#45;&gt;Node2</title>
<path fill="none" stroke="midnightblue" d="M231,-327.214C231,-318.609 231,-309.394 231,-300.554"/>
<polygon fill="none" stroke="midnightblue" points="227.5,-327.34 231,-337.34 234.5,-327.34 227.5,-327.34"/>
</g>
</g>
</svg>
