<?xml version="1.0" encoding="UTF-8" standalone="no"?>
<!DOCTYPE svg PUBLIC "-//W3C//DTD SVG 1.1//EN"
 "http://www.w3.org/Graphics/SVG/1.1/DTD/svg11.dtd">
<!-- Generated by graphviz version 2.38.0 (20140413.2041)
 -->
<!-- Title: ecs::Font Pages: 1 -->
<svg width="106pt" height="193pt"
 viewBox="0.00 0.00 106.00 193.00" xmlns="http://www.w3.org/2000/svg" xmlns:xlink="http://www.w3.org/1999/xlink">
<g id="graph0" class="graph" transform="scale(1 1) rotate(0) translate(4 189)">
<title>ecs::Font</title>
<!-- Node1 -->
<g id="node1" class="node"><title>Node1</title>
<polygon fill="#bfbfbf" stroke="black" points="-7.10543e-15,-0.5 -7.10543e-15,-90.5 98,-90.5 98,-0.5 -7.10543e-15,-0.5"/>
<text text-anchor="middle" x="49" y="-78.5" font-family="Helvetica,sans-Serif" font-size="10.00">ecs::Font</text>
<polyline fill="none" stroke="black" points="-7.10543e-15,-71.5 98,-71.5 "/>
<text text-anchor="middle" x="49" y="-59.5" font-family="Helvetica,sans-Serif" font-size="10.00"> </text>
<polyline fill="none" stroke="black" points="-7.10543e-15,-52.5 98,-52.5 "/>
<text text-anchor="start" x="8" y="-40.5" font-family="Helvetica,sans-Serif" font-size="10.00">+ Font()</text>
<text text-anchor="start" x="8" y="-29.5" font-family="Helvetica,sans-Serif" font-size="10.00">+ ~Font()</text>
<text text-anchor="start" x="8" y="-18.5" font-family="Helvetica,sans-Serif" font-size="10.00">+ getName()</text>
<text text-anchor="start" x="8" y="-7.5" font-family="Helvetica,sans-Serif" font-size="10.00">+ getSFMLFont()</text>
</g>
<!-- Node2 -->
<g id="node2" class="node"><title>Node2</title>
<g id="a_node2"><a xlink:href="classecs_1_1IFont.html" target="_top" xlink:title="{ecs::IFont\n||+ getName()\l}">
<polygon fill="none" stroke="black" points="9,-127.5 9,-184.5 89,-184.5 89,-127.5 9,-127.5"/>
<text text-anchor="middle" x="49" y="-172.5" font-family="Helvetica,sans-Serif" font-size="10.00">ecs::IFont</text>
<polyline fill="none" stroke="black" points="9,-165.5 89,-165.5 "/>
<text text-anchor="middle" x="49" y="-153.5" font-family="Helvetica,sans-Serif" font-size="10.00"> </text>
<polyline fill="none" stroke="black" points="9,-146.5 89,-146.5 "/>
<text text-anchor="start" x="17" y="-134.5" font-family="Helvetica,sans-Serif" font-size="10.00">+ getName()</text>
</a>
</g>
</g>
<!-- Node2&#45;&gt;Node1 -->
<g id="edge1" class="edge"><title>Node2&#45;&gt;Node1</title>
<path fill="none" stroke="midnightblue" d="M49,-117.214C49,-108.609 49,-99.3943 49,-90.5541"/>
<polygon fill="none" stroke="midnightblue" points="45.5001,-117.34 49,-127.34 52.5001,-117.34 45.5001,-117.34"/>
</g>
</g>
</svg>
