<?xml version="1.0" encoding="UTF-8" standalone="no"?>
<!DOCTYPE svg PUBLIC "-//W3C//DTD SVG 1.1//EN"
 "http://www.w3.org/Graphics/SVG/1.1/DTD/svg11.dtd">
<!-- Generated by graphviz version 2.38.0 (20140413.2041)
 -->
<!-- Title: ecs::system::ASystem Pages: 1 -->
<svg width="554pt" height="193pt"
 viewBox="0.00 0.00 553.50 193.00" xmlns="http://www.w3.org/2000/svg" xmlns:xlink="http://www.w3.org/1999/xlink">
<g id="graph0" class="graph" transform="scale(1 1) rotate(0) translate(4 189)">
<title>ecs::system::ASystem</title>
<!-- Node1 -->
<g id="node1" class="node"><title>Node1</title>
<polygon fill="#bfbfbf" stroke="black" points="228.5,-0.5 228.5,-68.5 352.5,-68.5 352.5,-0.5 228.5,-0.5"/>
<text text-anchor="middle" x="290.5" y="-56.5" font-family="Helvetica,sans-Serif" font-size="10.00">ecs::system::ASystem</text>
<polyline fill="none" stroke="black" points="228.5,-49.5 352.5,-49.5 "/>
<text text-anchor="middle" x="290.5" y="-37.5" font-family="Helvetica,sans-Serif" font-size="10.00"> </text>
<polyline fill="none" stroke="black" points="228.5,-30.5 352.5,-30.5 "/>
<text text-anchor="start" x="236.5" y="-18.5" font-family="Helvetica,sans-Serif" font-size="10.00">+ ASystem()</text>
<text text-anchor="start" x="236.5" y="-7.5" font-family="Helvetica,sans-Serif" font-size="10.00">+ ~ASystem()</text>
</g>
<!-- Node2 -->
<g id="node2" class="node"><title>Node2</title>
<g id="a_node2"><a xlink:href="classecs_1_1system_1_1ISystem.html" target="_top" xlink:title="{ecs::system::ISystem\n||+ update()\l}">
<polygon fill="none" stroke="black" points="0,-122 0,-179 119,-179 119,-122 0,-122"/>
<text text-anchor="middle" x="59.5" y="-167" font-family="Helvetica,sans-Serif" font-size="10.00">ecs::system::ISystem</text>
<polyline fill="none" stroke="black" points="0,-160 119,-160 "/>
<text text-anchor="middle" x="59.5" y="-148" font-family="Helvetica,sans-Serif" font-size="10.00"> </text>
<polyline fill="none" stroke="black" points="0,-141 119,-141 "/>
<text text-anchor="start" x="8" y="-129" font-family="Helvetica,sans-Serif" font-size="10.00">+ update()</text>
</a>
</g>
</g>
<!-- Node2&#45;&gt;Node1 -->
<g id="edge1" class="edge"><title>Node2&#45;&gt;Node1</title>
<path fill="none" stroke="midnightblue" d="M124.396,-117.473C156.893,-101.436 196.051,-82.1113 228.183,-66.2538"/>
<polygon fill="none" stroke="midnightblue" points="122.837,-114.34 115.419,-121.904 125.935,-120.617 122.837,-114.34"/>
</g>
<!-- Node3 -->
<g id="node3" class="node"><title>Node3</title>
<polygon fill="none" stroke="#bfbfbf" points="137.5,-116.5 137.5,-184.5 283.5,-184.5 283.5,-116.5 137.5,-116.5"/>
<text text-anchor="start" x="145.5" y="-172.5" font-family="Helvetica,sans-Serif" font-size="10.00">shared_ptr&lt; ecs::IManager</text>
<text text-anchor="middle" x="210.5" y="-161.5" font-family="Helvetica,sans-Serif" font-size="10.00">Wrapper &gt; &amp;</text>
<polyline fill="none" stroke="#bfbfbf" points="137.5,-154.5 283.5,-154.5 "/>
<text text-anchor="middle" x="210.5" y="-142.5" font-family="Helvetica,sans-Serif" font-size="10.00"> </text>
<polyline fill="none" stroke="#bfbfbf" points="137.5,-135.5 283.5,-135.5 "/>
<text text-anchor="middle" x="210.5" y="-123.5" font-family="Helvetica,sans-Serif" font-size="10.00"> </text>
</g>
<!-- Node3&#45;&gt;Node1 -->
<g id="edge2" class="edge"><title>Node3&#45;&gt;Node1</title>
<path fill="none" stroke="#404040" d="M229.588,-116.193C235.397,-106.596 241.977,-96.2298 248.5,-87 250.498,-84.1734 252.604,-81.3021 254.766,-78.4353"/>
<polygon fill="none" stroke="#404040" points="254.901,-78.2609 255.416,-71.0682 262.254,-68.7774 261.738,-75.9701 254.901,-78.2609"/>
<text text-anchor="middle" x="298.5" y="-90" font-family="Helvetica,sans-Serif" font-size="10.00"> #_managerWrapper</text>
</g>
<!-- Node4 -->
<g id="node4" class="node"><title>Node4</title>
<polygon fill="none" stroke="#bfbfbf" points="302,-116.5 302,-184.5 439,-184.5 439,-116.5 302,-116.5"/>
<text text-anchor="start" x="310" y="-172.5" font-family="Helvetica,sans-Serif" font-size="10.00">shared_ptr&lt; ecs::entities</text>
<text text-anchor="middle" x="370.5" y="-161.5" font-family="Helvetica,sans-Serif" font-size="10.00">::IEntityFactory &gt; &amp;</text>
<polyline fill="none" stroke="#bfbfbf" points="302,-154.5 439,-154.5 "/>
<text text-anchor="middle" x="370.5" y="-142.5" font-family="Helvetica,sans-Serif" font-size="10.00"> </text>
<polyline fill="none" stroke="#bfbfbf" points="302,-135.5 439,-135.5 "/>
<text text-anchor="middle" x="370.5" y="-123.5" font-family="Helvetica,sans-Serif" font-size="10.00"> </text>
</g>
<!-- Node4&#45;&gt;Node1 -->
<g id="edge3" class="edge"><title>Node4&#45;&gt;Node1</title>
<path fill="none" stroke="#404040" d="M362.248,-116.23C358.903,-106.327 354.402,-95.7846 348.5,-87 346.322,-83.7585 343.894,-80.5905 341.299,-77.5209"/>
<polygon fill="none" stroke="#404040" points="341.237,-77.4537 334.229,-75.7551 333.101,-68.6327 340.109,-70.3312 341.237,-77.4537"/>
<text text-anchor="middle" x="395" y="-90" font-family="Helvetica,sans-Serif" font-size="10.00"> #_entityFactory</text>
</g>
<!-- Node5 -->
<g id="node5" class="node"><title>Node5</title>
<polygon fill="none" stroke="#bfbfbf" points="457.5,-122 457.5,-179 533.5,-179 533.5,-122 457.5,-122"/>
<text text-anchor="middle" x="495.5" y="-167" font-family="Helvetica,sans-Serif" font-size="10.00">list&lt; int &gt; &amp;</text>
<polyline fill="none" stroke="#bfbfbf" points="457.5,-160 533.5,-160 "/>
<text text-anchor="middle" x="495.5" y="-148" font-family="Helvetica,sans-Serif" font-size="10.00"> </text>
<polyline fill="none" stroke="#bfbfbf" points="457.5,-141 533.5,-141 "/>
<text text-anchor="middle" x="495.5" y="-129" font-family="Helvetica,sans-Serif" font-size="10.00"> </text>
</g>
<!-- Node5&#45;&gt;Node1 -->
<g id="edge4" class="edge"><title>Node5&#45;&gt;Node1</title>
<path fill="none" stroke="#404040" d="M475.503,-121.969C465.532,-109.856 452.597,-96.2994 438.5,-87 416.15,-72.2571 389.112,-61.2384 364.293,-53.2594"/>
<polygon fill="none" stroke="#404040" points="364.166,-53.2204 357.256,-55.2808 352.696,-49.6944 359.606,-47.634 364.166,-53.2204"/>
<text text-anchor="middle" x="498.5" y="-90" font-family="Helvetica,sans-Serif" font-size="10.00"> #_entitiesToDelete</text>
</g>
</g>
</svg>
