<?xml version="1.0" encoding="UTF-8" standalone="no"?>
<!DOCTYPE svg PUBLIC "-//W3C//DTD SVG 1.1//EN"
 "http://www.w3.org/Graphics/SVG/1.1/DTD/svg11.dtd">
<!-- Generated by graphviz version 2.38.0 (20140413.2041)
 -->
<!-- Title: ecs::network::ClientSession Pages: 1 -->
<svg width="302pt" height="226pt"
 viewBox="0.00 0.00 302.00 226.00" xmlns="http://www.w3.org/2000/svg" xmlns:xlink="http://www.w3.org/1999/xlink">
<g id="graph0" class="graph" transform="scale(1 1) rotate(0) translate(4 222)">
<title>ecs::network::ClientSession</title>
<!-- Node1 -->
<g id="node1" class="node"><title>Node1</title>
<polygon fill="#bfbfbf" stroke="black" points="81.5,-0.5 81.5,-101.5 228.5,-101.5 228.5,-0.5 81.5,-0.5"/>
<text text-anchor="middle" x="155" y="-89.5" font-family="Helvetica,sans-Serif" font-size="10.00">ecs::network::ClientSession</text>
<polyline fill="none" stroke="black" points="81.5,-82.5 228.5,-82.5 "/>
<text text-anchor="middle" x="155" y="-70.5" font-family="Helvetica,sans-Serif" font-size="10.00"> </text>
<polyline fill="none" stroke="black" points="81.5,-63.5 228.5,-63.5 "/>
<text text-anchor="start" x="89.5" y="-51.5" font-family="Helvetica,sans-Serif" font-size="10.00">+ ClientSession()</text>
<text text-anchor="start" x="89.5" y="-40.5" font-family="Helvetica,sans-Serif" font-size="10.00">+ ~ClientSession()</text>
<text text-anchor="start" x="89.5" y="-29.5" font-family="Helvetica,sans-Serif" font-size="10.00">+ do_write()</text>
<text text-anchor="start" x="89.5" y="-18.5" font-family="Helvetica,sans-Serif" font-size="10.00">+ handle_write()</text>
<text text-anchor="start" x="89.5" y="-7.5" font-family="Helvetica,sans-Serif" font-size="10.00">+ manage_data()</text>
</g>
<!-- Node2 -->
<g id="node2" class="node"><title>Node2</title>
<polygon fill="none" stroke="#bfbfbf" points="0,-144 0,-212 154,-212 154,-144 0,-144"/>
<text text-anchor="start" x="8" y="-200" font-family="Helvetica,sans-Serif" font-size="10.00">std::enable_shared</text>
<text text-anchor="middle" x="77" y="-189" font-family="Helvetica,sans-Serif" font-size="10.00">_from_this&lt; ClientSession &gt;</text>
<polyline fill="none" stroke="#bfbfbf" points="0,-182 154,-182 "/>
<text text-anchor="middle" x="77" y="-170" font-family="Helvetica,sans-Serif" font-size="10.00"> </text>
<polyline fill="none" stroke="#bfbfbf" points="0,-163 154,-163 "/>
<text text-anchor="middle" x="77" y="-151" font-family="Helvetica,sans-Serif" font-size="10.00"> </text>
</g>
<!-- Node2&#45;&gt;Node1 -->
<g id="edge1" class="edge"><title>Node2&#45;&gt;Node1</title>
<path fill="none" stroke="midnightblue" d="M103.142,-135.105C109.805,-124.427 117.032,-112.846 123.916,-101.814"/>
<polygon fill="none" stroke="midnightblue" points="100.022,-133.494 97.6978,-143.83 105.961,-137.2 100.022,-133.494"/>
</g>
<!-- Node3 -->
<g id="node3" class="node"><title>Node3</title>
<g id="a_node3"><a xlink:href="classecs_1_1network_1_1ISession.html" target="_top" xlink:title="{ecs::network::ISession\n||+ do_write()\l+ handle_write()\l+ manage_data()\l}">
<polygon fill="none" stroke="black" points="172,-138.5 172,-217.5 294,-217.5 294,-138.5 172,-138.5"/>
<text text-anchor="middle" x="233" y="-205.5" font-family="Helvetica,sans-Serif" font-size="10.00">ecs::network::ISession</text>
<polyline fill="none" stroke="black" points="172,-198.5 294,-198.5 "/>
<text text-anchor="middle" x="233" y="-186.5" font-family="Helvetica,sans-Serif" font-size="10.00"> </text>
<polyline fill="none" stroke="black" points="172,-179.5 294,-179.5 "/>
<text text-anchor="start" x="180" y="-167.5" font-family="Helvetica,sans-Serif" font-size="10.00">+ do_write()</text>
<text text-anchor="start" x="180" y="-156.5" font-family="Helvetica,sans-Serif" font-size="10.00">+ handle_write()</text>
<text text-anchor="start" x="180" y="-145.5" font-family="Helvetica,sans-Serif" font-size="10.00">+ manage_data()</text>
</a>
</g>
</g>
<!-- Node3&#45;&gt;Node1 -->
<g id="edge2" class="edge"><title>Node3&#45;&gt;Node1</title>
<path fill="none" stroke="midnightblue" d="M203.567,-129.831C197.828,-120.635 191.795,-110.966 186.007,-101.691"/>
<polygon fill="none" stroke="midnightblue" points="200.698,-131.845 208.961,-138.476 206.636,-128.139 200.698,-131.845"/>
</g>
</g>
</svg>
