<?xml version="1.0" encoding="UTF-8" standalone="no"?>
<!DOCTYPE svg PUBLIC "-//W3C//DTD SVG 1.1//EN"
 "http://www.w3.org/Graphics/SVG/1.1/DTD/svg11.dtd">
<!-- Generated by graphviz version 2.38.0 (20140413.2041)
 -->
<!-- Title: ecs::entities::NumberPlayersEntity Pages: 1 -->
<svg width="174pt" height="215pt"
 viewBox="0.00 0.00 174.00 215.00" xmlns="http://www.w3.org/2000/svg" xmlns:xlink="http://www.w3.org/1999/xlink">
<g id="graph0" class="graph" transform="scale(1 1) rotate(0) translate(4 211)">
<title>ecs::entities::NumberPlayersEntity</title>
<!-- Node1 -->
<g id="node1" class="node"><title>Node1</title>
<polygon fill="#bfbfbf" stroke="black" points="6,-0.5 6,-101.5 160,-101.5 160,-0.5 6,-0.5"/>
<text text-anchor="start" x="14" y="-89.5" font-family="Helvetica,sans-Serif" font-size="10.00">ecs::entities::NumberPlayers</text>
<text text-anchor="middle" x="83" y="-78.5" font-family="Helvetica,sans-Serif" font-size="10.00">Entity</text>
<polyline fill="none" stroke="black" points="6,-71.5 160,-71.5 "/>
<text text-anchor="middle" x="83" y="-59.5" font-family="Helvetica,sans-Serif" font-size="10.00"> </text>
<polyline fill="none" stroke="black" points="6,-52.5 160,-52.5 "/>
<text text-anchor="start" x="14" y="-40.5" font-family="Helvetica,sans-Serif" font-size="10.00">+ NumberPlayersEntity()</text>
<text text-anchor="start" x="14" y="-29.5" font-family="Helvetica,sans-Serif" font-size="10.00">+ ~NumberPlayersEntity()</text>
<text text-anchor="start" x="14" y="-18.5" font-family="Helvetica,sans-Serif" font-size="10.00">+ create()</text>
<text text-anchor="start" x="14" y="-7.5" font-family="Helvetica,sans-Serif" font-size="10.00">+ getName()</text>
</g>
<!-- Node2 -->
<g id="node2" class="node"><title>Node2</title>
<g id="a_node2"><a xlink:href="classecs_1_1entities_1_1IEntityConstructor.html" target="_top" xlink:title="{ecs::entities::IEntityConstructor\n||+ create()\l+ getName()\l}">
<polygon fill="none" stroke="black" points="0,-138.5 0,-206.5 166,-206.5 166,-138.5 0,-138.5"/>
<text text-anchor="middle" x="83" y="-194.5" font-family="Helvetica,sans-Serif" font-size="10.00">ecs::entities::IEntityConstructor</text>
<polyline fill="none" stroke="black" points="0,-187.5 166,-187.5 "/>
<text text-anchor="middle" x="83" y="-175.5" font-family="Helvetica,sans-Serif" font-size="10.00"> </text>
<polyline fill="none" stroke="black" points="0,-168.5 166,-168.5 "/>
<text text-anchor="start" x="8" y="-156.5" font-family="Helvetica,sans-Serif" font-size="10.00">+ create()</text>
<text text-anchor="start" x="8" y="-145.5" font-family="Helvetica,sans-Serif" font-size="10.00">+ getName()</text>
</a>
</g>
</g>
<!-- Node2&#45;&gt;Node1 -->
<g id="edge1" class="edge"><title>Node2&#45;&gt;Node1</title>
<path fill="none" stroke="midnightblue" d="M83,-128.045C83,-119.469 83,-110.408 83,-101.646"/>
<polygon fill="none" stroke="midnightblue" points="79.5001,-128.213 83,-138.213 86.5001,-128.213 79.5001,-128.213"/>
</g>
</g>
</svg>
