<?xml version="1.0" encoding="UTF-8" standalone="no"?>
<!DOCTYPE svg PUBLIC "-//W3C//DTD SVG 1.1//EN"
 "http://www.w3.org/Graphics/SVG/1.1/DTD/svg11.dtd">
<!-- Generated by graphviz version 2.38.0 (20140413.2041)
 -->
<!-- Title: ecs::components::PopUp Pages: 1 -->
<svg width="180pt" height="414pt"
 viewBox="0.00 0.00 180.00 414.00" xmlns="http://www.w3.org/2000/svg" xmlns:xlink="http://www.w3.org/1999/xlink">
<g id="graph0" class="graph" transform="scale(1 1) rotate(0) translate(4 410)">
<title>ecs::components::PopUp</title>
<!-- Node1 -->
<g id="node1" class="node"><title>Node1</title>
<polygon fill="#bfbfbf" stroke="black" points="17.5,-0.5 17.5,-123.5 154.5,-123.5 154.5,-0.5 17.5,-0.5"/>
<text text-anchor="middle" x="86" y="-111.5" font-family="Helvetica,sans-Serif" font-size="10.00">ecs::components::PopUp</text>
<polyline fill="none" stroke="black" points="17.5,-104.5 154.5,-104.5 "/>
<text text-anchor="middle" x="86" y="-92.5" font-family="Helvetica,sans-Serif" font-size="10.00"> </text>
<polyline fill="none" stroke="black" points="17.5,-85.5 154.5,-85.5 "/>
<text text-anchor="start" x="25.5" y="-73.5" font-family="Helvetica,sans-Serif" font-size="10.00">+ PopUp()</text>
<text text-anchor="start" x="25.5" y="-62.5" font-family="Helvetica,sans-Serif" font-size="10.00">+ PopUp()</text>
<text text-anchor="start" x="25.5" y="-51.5" font-family="Helvetica,sans-Serif" font-size="10.00">+ ~PopUp()</text>
<text text-anchor="start" x="25.5" y="-40.5" font-family="Helvetica,sans-Serif" font-size="10.00">+ setId()</text>
<text text-anchor="start" x="25.5" y="-29.5" font-family="Helvetica,sans-Serif" font-size="10.00">+ getId()</text>
<text text-anchor="start" x="25.5" y="-18.5" font-family="Helvetica,sans-Serif" font-size="10.00">+ getType()</text>
<text text-anchor="start" x="25.5" y="-7.5" font-family="Helvetica,sans-Serif" font-size="10.00">+ operator==()</text>
</g>
<!-- Node2 -->
<g id="node2" class="node"><title>Node2</title>
<g id="a_node2"><a xlink:href="classecs_1_1components_1_1IUserInterface.html" target="_top" xlink:title="UserInterface describes an attribute that is part of the User Interface. ">
<polygon fill="none" stroke="black" points="0,-160.5 0,-217.5 172,-217.5 172,-160.5 0,-160.5"/>
<text text-anchor="middle" x="86" y="-205.5" font-family="Helvetica,sans-Serif" font-size="10.00">ecs::components::IUserInterface</text>
<polyline fill="none" stroke="black" points="0,-198.5 172,-198.5 "/>
<text text-anchor="middle" x="86" y="-186.5" font-family="Helvetica,sans-Serif" font-size="10.00"> </text>
<polyline fill="none" stroke="black" points="0,-179.5 172,-179.5 "/>
<text text-anchor="middle" x="86" y="-167.5" font-family="Helvetica,sans-Serif" font-size="10.00"> </text>
</a>
</g>
</g>
<!-- Node2&#45;&gt;Node1 -->
<g id="edge1" class="edge"><title>Node2&#45;&gt;Node1</title>
<path fill="none" stroke="midnightblue" d="M86,-150.099C86,-141.739 86,-132.68 86,-123.672"/>
<polygon fill="none" stroke="midnightblue" points="82.5001,-150.258 86,-160.258 89.5001,-150.258 82.5001,-150.258"/>
</g>
<!-- Node3 -->
<g id="node3" class="node"><title>Node3</title>
<g id="a_node3"><a xlink:href="classecs_1_1components_1_1IDisplay.html" target="_top" xlink:title="IDisplay describes an attribute of an Entity that is displayable. ">
<polygon fill="none" stroke="black" points="15,-254.5 15,-311.5 157,-311.5 157,-254.5 15,-254.5"/>
<text text-anchor="middle" x="86" y="-299.5" font-family="Helvetica,sans-Serif" font-size="10.00">ecs::components::IDisplay</text>
<polyline fill="none" stroke="black" points="15,-292.5 157,-292.5 "/>
<text text-anchor="middle" x="86" y="-280.5" font-family="Helvetica,sans-Serif" font-size="10.00"> </text>
<polyline fill="none" stroke="black" points="15,-273.5 157,-273.5 "/>
<text text-anchor="start" x="23" y="-261.5" font-family="Helvetica,sans-Serif" font-size="10.00">+ IDisplay()</text>
</a>
</g>
</g>
<!-- Node3&#45;&gt;Node2 -->
<g id="edge2" class="edge"><title>Node3&#45;&gt;Node2</title>
<path fill="none" stroke="midnightblue" d="M86,-244.209C86,-235.293 86,-225.951 86,-217.584"/>
<polygon fill="none" stroke="midnightblue" points="82.5001,-244.397 86,-254.397 89.5001,-244.397 82.5001,-244.397"/>
</g>
<!-- Node4 -->
<g id="node4" class="node"><title>Node4</title>
<g id="a_node4"><a xlink:href="classecs_1_1components_1_1IComponent.html" target="_top" xlink:title="Icomponent describes an attribute of an Entity. ">
<polygon fill="none" stroke="black" points="4,-348.5 4,-405.5 168,-405.5 168,-348.5 4,-348.5"/>
<text text-anchor="middle" x="86" y="-393.5" font-family="Helvetica,sans-Serif" font-size="10.00">ecs::components::IComponent</text>
<polyline fill="none" stroke="black" points="4,-386.5 168,-386.5 "/>
<text text-anchor="middle" x="86" y="-374.5" font-family="Helvetica,sans-Serif" font-size="10.00"> </text>
<polyline fill="none" stroke="black" points="4,-367.5 168,-367.5 "/>
<text text-anchor="start" x="12" y="-355.5" font-family="Helvetica,sans-Serif" font-size="10.00">+ getType()</text>
</a>
</g>
</g>
<!-- Node4&#45;&gt;Node3 -->
<g id="edge3" class="edge"><title>Node4&#45;&gt;Node3</title>
<path fill="none" stroke="midnightblue" d="M86,-338.209C86,-329.293 86,-319.951 86,-311.584"/>
<polygon fill="none" stroke="midnightblue" points="82.5001,-338.397 86,-348.397 89.5001,-338.397 82.5001,-338.397"/>
</g>
</g>
</svg>
