<?xml version="1.0" encoding="UTF-8" standalone="no"?>
<!DOCTYPE svg PUBLIC "-//W3C//DTD SVG 1.1//EN"
 "http://www.w3.org/Graphics/SVG/1.1/DTD/svg11.dtd">
<!-- Generated by graphviz version 2.38.0 (20140413.2041)
 -->
<!-- Title: ecs::IScene Pages: 1 -->
<svg width="510pt" height="171pt"
 viewBox="0.00 0.00 509.50 171.00" xmlns="http://www.w3.org/2000/svg" xmlns:xlink="http://www.w3.org/1999/xlink">
<g id="graph0" class="graph" transform="scale(1 1) rotate(0) translate(4 167)">
<title>ecs::IScene</title>
<!-- Node1 -->
<g id="node1" class="node"><title>Node1</title>
<polygon fill="#bfbfbf" stroke="black" points="234,-105.5 234,-162.5 305,-162.5 305,-105.5 234,-105.5"/>
<text text-anchor="middle" x="269.5" y="-150.5" font-family="Helvetica,sans-Serif" font-size="10.00">ecs::IScene</text>
<polyline fill="none" stroke="black" points="234,-143.5 305,-143.5 "/>
<text text-anchor="middle" x="269.5" y="-131.5" font-family="Helvetica,sans-Serif" font-size="10.00"> </text>
<polyline fill="none" stroke="black" points="234,-124.5 305,-124.5 "/>
<text text-anchor="middle" x="269.5" y="-112.5" font-family="Helvetica,sans-Serif" font-size="10.00"> </text>
</g>
<!-- Node2 -->
<g id="node2" class="node"><title>Node2</title>
<g id="a_node2"><a xlink:href="classecs_1_1ChooseRoomScene.html" target="_top" xlink:title="{ecs::ChooseRoomScene\n||+ ChooseRoomScene()\l+ ~ChooseRoomScene()\l}">
<polygon fill="none" stroke="black" points="0,-0.5 0,-68.5 137,-68.5 137,-0.5 0,-0.5"/>
<text text-anchor="middle" x="68.5" y="-56.5" font-family="Helvetica,sans-Serif" font-size="10.00">ecs::ChooseRoomScene</text>
<polyline fill="none" stroke="black" points="0,-49.5 137,-49.5 "/>
<text text-anchor="middle" x="68.5" y="-37.5" font-family="Helvetica,sans-Serif" font-size="10.00"> </text>
<polyline fill="none" stroke="black" points="0,-30.5 137,-30.5 "/>
<text text-anchor="start" x="8" y="-18.5" font-family="Helvetica,sans-Serif" font-size="10.00">+ ChooseRoomScene()</text>
<text text-anchor="start" x="8" y="-7.5" font-family="Helvetica,sans-Serif" font-size="10.00">+ ~ChooseRoomScene()</text>
</a>
</g>
</g>
<!-- Node1&#45;&gt;Node2 -->
<g id="edge1" class="edge"><title>Node1&#45;&gt;Node2</title>
<path fill="none" stroke="midnightblue" d="M224.384,-111.115C198.535,-98.5768 165.579,-82.5904 136.633,-68.5494"/>
<polygon fill="none" stroke="midnightblue" points="223.04,-114.354 233.565,-115.569 226.095,-108.055 223.04,-114.354"/>
</g>
<!-- Node3 -->
<g id="node3" class="node"><title>Node3</title>
<g id="a_node3"><a xlink:href="classecs_1_1DefeatScene.html" target="_top" xlink:title="{ecs::DefeatScene\n||+ DefeatScene()\l+ ~DefeatScene()\l}">
<polygon fill="none" stroke="black" points="155.5,-0.5 155.5,-68.5 261.5,-68.5 261.5,-0.5 155.5,-0.5"/>
<text text-anchor="middle" x="208.5" y="-56.5" font-family="Helvetica,sans-Serif" font-size="10.00">ecs::DefeatScene</text>
<polyline fill="none" stroke="black" points="155.5,-49.5 261.5,-49.5 "/>
<text text-anchor="middle" x="208.5" y="-37.5" font-family="Helvetica,sans-Serif" font-size="10.00"> </text>
<polyline fill="none" stroke="black" points="155.5,-30.5 261.5,-30.5 "/>
<text text-anchor="start" x="163.5" y="-18.5" font-family="Helvetica,sans-Serif" font-size="10.00">+ DefeatScene()</text>
<text text-anchor="start" x="163.5" y="-7.5" font-family="Helvetica,sans-Serif" font-size="10.00">+ ~DefeatScene()</text>
</a>
</g>
</g>
<!-- Node1&#45;&gt;Node3 -->
<g id="edge2" class="edge"><title>Node1&#45;&gt;Node3</title>
<path fill="none" stroke="midnightblue" d="M246.834,-96.7714C241.098,-87.603 234.965,-77.8007 229.325,-68.7855"/>
<polygon fill="none" stroke="midnightblue" points="243.912,-98.7 252.183,-105.321 249.846,-94.9873 243.912,-98.7"/>
</g>
<!-- Node4 -->
<g id="node4" class="node"><title>Node4</title>
<g id="a_node4"><a xlink:href="classecs_1_1GameScene.html" target="_top" xlink:title="{ecs::GameScene\n||+ GameScene()\l+ ~GameScene()\l}">
<polygon fill="none" stroke="black" points="280,-0.5 280,-68.5 383,-68.5 383,-0.5 280,-0.5"/>
<text text-anchor="middle" x="331.5" y="-56.5" font-family="Helvetica,sans-Serif" font-size="10.00">ecs::GameScene</text>
<polyline fill="none" stroke="black" points="280,-49.5 383,-49.5 "/>
<text text-anchor="middle" x="331.5" y="-37.5" font-family="Helvetica,sans-Serif" font-size="10.00"> </text>
<polyline fill="none" stroke="black" points="280,-30.5 383,-30.5 "/>
<text text-anchor="start" x="288" y="-18.5" font-family="Helvetica,sans-Serif" font-size="10.00">+ GameScene()</text>
<text text-anchor="start" x="288" y="-7.5" font-family="Helvetica,sans-Serif" font-size="10.00">+ ~GameScene()</text>
</a>
</g>
</g>
<!-- Node1&#45;&gt;Node4 -->
<g id="edge3" class="edge"><title>Node1&#45;&gt;Node4</title>
<path fill="none" stroke="midnightblue" d="M292.538,-96.7714C298.368,-87.603 304.601,-77.8007 310.334,-68.7855"/>
<polygon fill="none" stroke="midnightblue" points="289.513,-95.0047 287.101,-105.321 295.42,-98.7609 289.513,-95.0047"/>
</g>
<!-- Node5 -->
<g id="node5" class="node"><title>Node5</title>
<g id="a_node5"><a xlink:href="classecs_1_1MenuScene.html" target="_top" xlink:title="{ecs::MenuScene\n||+ MenuScene()\l+ ~MenuScene()\l}">
<polygon fill="none" stroke="black" points="401.5,-0.5 401.5,-68.5 501.5,-68.5 501.5,-0.5 401.5,-0.5"/>
<text text-anchor="middle" x="451.5" y="-56.5" font-family="Helvetica,sans-Serif" font-size="10.00">ecs::MenuScene</text>
<polyline fill="none" stroke="black" points="401.5,-49.5 501.5,-49.5 "/>
<text text-anchor="middle" x="451.5" y="-37.5" font-family="Helvetica,sans-Serif" font-size="10.00"> </text>
<polyline fill="none" stroke="black" points="401.5,-30.5 501.5,-30.5 "/>
<text text-anchor="start" x="409.5" y="-18.5" font-family="Helvetica,sans-Serif" font-size="10.00">+ MenuScene()</text>
<text text-anchor="start" x="409.5" y="-7.5" font-family="Helvetica,sans-Serif" font-size="10.00">+ ~MenuScene()</text>
</a>
</g>
</g>
<!-- Node1&#45;&gt;Node5 -->
<g id="edge4" class="edge"><title>Node1&#45;&gt;Node5</title>
<path fill="none" stroke="midnightblue" d="M314.214,-110.233C337.639,-98.1804 366.737,-83.0106 392.5,-69 395.397,-67.4243 398.367,-65.7926 401.358,-64.1359"/>
<polygon fill="none" stroke="midnightblue" points="312.504,-107.177 305.207,-114.858 315.701,-113.404 312.504,-107.177"/>
</g>
</g>
</svg>
