<?xml version="1.0" encoding="UTF-8" standalone="no"?>
<!DOCTYPE svg PUBLIC "-//W3C//DTD SVG 1.1//EN"
 "http://www.w3.org/Graphics/SVG/1.1/DTD/svg11.dtd">
<!-- Generated by graphviz version 2.38.0 (20140413.2041)
 -->
<!-- Title: ecs::components::Output Pages: 1 -->
<svg width="172pt" height="414pt"
 viewBox="0.00 0.00 172.00 414.00" xmlns="http://www.w3.org/2000/svg" xmlns:xlink="http://www.w3.org/1999/xlink">
<g id="graph0" class="graph" transform="scale(1 1) rotate(0) translate(4 410)">
<title>ecs::components::Output</title>
<!-- Node1 -->
<g id="node1" class="node"><title>Node1</title>
<polygon fill="#bfbfbf" stroke="black" points="13,-149.5 13,-217.5 151,-217.5 151,-149.5 13,-149.5"/>
<text text-anchor="middle" x="82" y="-205.5" font-family="Helvetica,sans-Serif" font-size="10.00">ecs::components::Output</text>
<polyline fill="none" stroke="black" points="13,-198.5 151,-198.5 "/>
<text text-anchor="middle" x="82" y="-186.5" font-family="Helvetica,sans-Serif" font-size="10.00"> </text>
<polyline fill="none" stroke="black" points="13,-179.5 151,-179.5 "/>
<text text-anchor="start" x="21" y="-167.5" font-family="Helvetica,sans-Serif" font-size="10.00">+ Output()</text>
<text text-anchor="start" x="21" y="-156.5" font-family="Helvetica,sans-Serif" font-size="10.00">+ ~Output()</text>
</g>
<!-- Node4 -->
<g id="node4" class="node"><title>Node4</title>
<g id="a_node4"><a xlink:href="classecs_1_1components_1_1Sound.html" target="_top" xlink:title="{ecs::components::Sound\n||+ Sound()\l+ Sound()\l+ ~Sound()\l+ getNameSound()\l+ getType()\l+ operator==()\l}">
<polygon fill="none" stroke="black" points="14,-0.5 14,-112.5 150,-112.5 150,-0.5 14,-0.5"/>
<text text-anchor="middle" x="82" y="-100.5" font-family="Helvetica,sans-Serif" font-size="10.00">ecs::components::Sound</text>
<polyline fill="none" stroke="black" points="14,-93.5 150,-93.5 "/>
<text text-anchor="middle" x="82" y="-81.5" font-family="Helvetica,sans-Serif" font-size="10.00"> </text>
<polyline fill="none" stroke="black" points="14,-74.5 150,-74.5 "/>
<text text-anchor="start" x="22" y="-62.5" font-family="Helvetica,sans-Serif" font-size="10.00">+ Sound()</text>
<text text-anchor="start" x="22" y="-51.5" font-family="Helvetica,sans-Serif" font-size="10.00">+ Sound()</text>
<text text-anchor="start" x="22" y="-40.5" font-family="Helvetica,sans-Serif" font-size="10.00">+ ~Sound()</text>
<text text-anchor="start" x="22" y="-29.5" font-family="Helvetica,sans-Serif" font-size="10.00">+ getNameSound()</text>
<text text-anchor="start" x="22" y="-18.5" font-family="Helvetica,sans-Serif" font-size="10.00">+ getType()</text>
<text text-anchor="start" x="22" y="-7.5" font-family="Helvetica,sans-Serif" font-size="10.00">+ operator==()</text>
</a>
</g>
</g>
<!-- Node1&#45;&gt;Node4 -->
<g id="edge3" class="edge"><title>Node1&#45;&gt;Node4</title>
<path fill="none" stroke="midnightblue" d="M82,-139.182C82,-130.604 82,-121.493 82,-112.585"/>
<polygon fill="none" stroke="midnightblue" points="78.5001,-139.33 82,-149.33 85.5001,-139.331 78.5001,-139.33"/>
</g>
<!-- Node2 -->
<g id="node2" class="node"><title>Node2</title>
<g id="a_node2"><a xlink:href="classecs_1_1components_1_1IIO.html" target="_top" xlink:title="IIsO describes the input output of an Component. ">
<polygon fill="none" stroke="black" points="23.5,-254.5 23.5,-311.5 140.5,-311.5 140.5,-254.5 23.5,-254.5"/>
<text text-anchor="middle" x="82" y="-299.5" font-family="Helvetica,sans-Serif" font-size="10.00">ecs::components::IIO</text>
<polyline fill="none" stroke="black" points="23.5,-292.5 140.5,-292.5 "/>
<text text-anchor="middle" x="82" y="-280.5" font-family="Helvetica,sans-Serif" font-size="10.00"> </text>
<polyline fill="none" stroke="black" points="23.5,-273.5 140.5,-273.5 "/>
<text text-anchor="middle" x="82" y="-261.5" font-family="Helvetica,sans-Serif" font-size="10.00"> </text>
</a>
</g>
</g>
<!-- Node2&#45;&gt;Node1 -->
<g id="edge1" class="edge"><title>Node2&#45;&gt;Node1</title>
<path fill="none" stroke="midnightblue" d="M82,-244.063C82,-235.393 82,-226.243 82,-217.786"/>
<polygon fill="none" stroke="midnightblue" points="78.5001,-244.321 82,-254.321 85.5001,-244.321 78.5001,-244.321"/>
</g>
<!-- Node3 -->
<g id="node3" class="node"><title>Node3</title>
<g id="a_node3"><a xlink:href="classecs_1_1components_1_1IComponent.html" target="_top" xlink:title="Icomponent describes an attribute of an Entity. ">
<polygon fill="none" stroke="black" points="0,-348.5 0,-405.5 164,-405.5 164,-348.5 0,-348.5"/>
<text text-anchor="middle" x="82" y="-393.5" font-family="Helvetica,sans-Serif" font-size="10.00">ecs::components::IComponent</text>
<polyline fill="none" stroke="black" points="0,-386.5 164,-386.5 "/>
<text text-anchor="middle" x="82" y="-374.5" font-family="Helvetica,sans-Serif" font-size="10.00"> </text>
<polyline fill="none" stroke="black" points="0,-367.5 164,-367.5 "/>
<text text-anchor="start" x="8" y="-355.5" font-family="Helvetica,sans-Serif" font-size="10.00">+ getType()</text>
</a>
</g>
</g>
<!-- Node3&#45;&gt;Node2 -->
<g id="edge2" class="edge"><title>Node3&#45;&gt;Node2</title>
<path fill="none" stroke="midnightblue" d="M82,-338.209C82,-329.293 82,-319.951 82,-311.584"/>
<polygon fill="none" stroke="midnightblue" points="78.5001,-338.397 82,-348.397 85.5001,-338.397 78.5001,-338.397"/>
</g>
</g>
</svg>
