<?xml version="1.0" encoding="UTF-8" standalone="no"?>
<!DOCTYPE svg PUBLIC "-//W3C//DTD SVG 1.1//EN"
 "http://www.w3.org/Graphics/SVG/1.1/DTD/svg11.dtd">
<!-- Generated by graphviz version 2.38.0 (20140413.2041)
 -->
<!-- Title: ecs::components::IGameLogic Pages: 1 -->
<svg width="1618pt" height="430pt"
 viewBox="0.00 0.00 1618.00 430.00" xmlns="http://www.w3.org/2000/svg" xmlns:xlink="http://www.w3.org/1999/xlink">
<g id="graph0" class="graph" transform="scale(1 1) rotate(0) translate(4 426)">
<title>ecs::components::IGameLogic</title>
<!-- Node1 -->
<g id="node1" class="node"><title>Node1</title>
<polygon fill="#bfbfbf" stroke="black" points="724.5,-270.5 724.5,-327.5 885.5,-327.5 885.5,-270.5 724.5,-270.5"/>
<text text-anchor="middle" x="805" y="-315.5" font-family="Helvetica,sans-Serif" font-size="10.00">ecs::components::IGameLogic</text>
<polyline fill="none" stroke="black" points="724.5,-308.5 885.5,-308.5 "/>
<text text-anchor="middle" x="805" y="-296.5" font-family="Helvetica,sans-Serif" font-size="10.00"> </text>
<polyline fill="none" stroke="black" points="724.5,-289.5 885.5,-289.5 "/>
<text text-anchor="middle" x="805" y="-277.5" font-family="Helvetica,sans-Serif" font-size="10.00"> </text>
</g>
<!-- Node3 -->
<g id="node3" class="node"><title>Node3</title>
<g id="a_node3"><a xlink:href="classecs_1_1components_1_1Damage.html" target="_top" xlink:title="Damage describes an attribute that stores a numeric value representing Damage points. ">
<polygon fill="none" stroke="black" points="0,-50 0,-184 146,-184 146,-50 0,-50"/>
<text text-anchor="middle" x="73" y="-172" font-family="Helvetica,sans-Serif" font-size="10.00">ecs::components::Damage</text>
<polyline fill="none" stroke="black" points="0,-165 146,-165 "/>
<text text-anchor="middle" x="73" y="-153" font-family="Helvetica,sans-Serif" font-size="10.00"> </text>
<polyline fill="none" stroke="black" points="0,-146 146,-146 "/>
<text text-anchor="start" x="8" y="-134" font-family="Helvetica,sans-Serif" font-size="10.00">+ Damage()</text>
<text text-anchor="start" x="8" y="-123" font-family="Helvetica,sans-Serif" font-size="10.00">+ Damage()</text>
<text text-anchor="start" x="8" y="-112" font-family="Helvetica,sans-Serif" font-size="10.00">+ Damage()</text>
<text text-anchor="start" x="8" y="-101" font-family="Helvetica,sans-Serif" font-size="10.00">+ ~Damage()</text>
<text text-anchor="start" x="8" y="-90" font-family="Helvetica,sans-Serif" font-size="10.00">+ setValue()</text>
<text text-anchor="start" x="8" y="-79" font-family="Helvetica,sans-Serif" font-size="10.00">+ getValue()</text>
<text text-anchor="start" x="8" y="-68" font-family="Helvetica,sans-Serif" font-size="10.00">+ getType()</text>
<text text-anchor="start" x="8" y="-57" font-family="Helvetica,sans-Serif" font-size="10.00">+ operator==()</text>
</a>
</g>
</g>
<!-- Node1&#45;&gt;Node3 -->
<g id="edge2" class="edge"><title>Node1&#45;&gt;Node3</title>
<path fill="none" stroke="midnightblue" d="M714.316,-298.218C558.497,-297.105 247.736,-287.938 155,-234 134.854,-222.282 118.407,-203.409 105.675,-184.259"/>
<polygon fill="none" stroke="midnightblue" points="714.33,-301.718 724.351,-298.28 714.373,-294.718 714.33,-301.718"/>
</g>
<!-- Node4 -->
<g id="node4" class="node"><title>Node4</title>
<g id="a_node4"><a xlink:href="classecs_1_1components_1_1EnemiesController.html" target="_top" xlink:title="EnemiesController is used to recognize player entity. ">
<polygon fill="none" stroke="black" points="164,-28 164,-206 310,-206 310,-28 164,-28"/>
<text text-anchor="start" x="172" y="-194" font-family="Helvetica,sans-Serif" font-size="10.00">ecs::components::Enemies</text>
<text text-anchor="middle" x="237" y="-183" font-family="Helvetica,sans-Serif" font-size="10.00">Controller</text>
<polyline fill="none" stroke="black" points="164,-176 310,-176 "/>
<text text-anchor="middle" x="237" y="-164" font-family="Helvetica,sans-Serif" font-size="10.00"> </text>
<polyline fill="none" stroke="black" points="164,-157 310,-157 "/>
<text text-anchor="start" x="172" y="-145" font-family="Helvetica,sans-Serif" font-size="10.00">+ EnemiesController()</text>
<text text-anchor="start" x="172" y="-134" font-family="Helvetica,sans-Serif" font-size="10.00">+ EnemiesController()</text>
<text text-anchor="start" x="172" y="-123" font-family="Helvetica,sans-Serif" font-size="10.00">+ EnemiesController()</text>
<text text-anchor="start" x="172" y="-112" font-family="Helvetica,sans-Serif" font-size="10.00">+ ~EnemiesController()</text>
<text text-anchor="start" x="172" y="-101" font-family="Helvetica,sans-Serif" font-size="10.00">+ getType()</text>
<text text-anchor="start" x="172" y="-90" font-family="Helvetica,sans-Serif" font-size="10.00">+ getShipType()</text>
<text text-anchor="start" x="172" y="-79" font-family="Helvetica,sans-Serif" font-size="10.00">+ setShipType()</text>
<text text-anchor="start" x="172" y="-68" font-family="Helvetica,sans-Serif" font-size="10.00">+ operator==()</text>
<text text-anchor="start" x="172" y="-57" font-family="Helvetica,sans-Serif" font-size="10.00">+ getInterval()</text>
<text text-anchor="start" x="172" y="-46" font-family="Helvetica,sans-Serif" font-size="10.00">+ setInterval()</text>
<text text-anchor="start" x="172" y="-35" font-family="Helvetica,sans-Serif" font-size="10.00">+ getTimer()</text>
</a>
</g>
</g>
<!-- Node1&#45;&gt;Node4 -->
<g id="edge3" class="edge"><title>Node1&#45;&gt;Node4</title>
<path fill="none" stroke="midnightblue" d="M714.191,-294.651C592.319,-288.712 383.661,-273.041 319,-234 306.966,-226.734 296.225,-216.953 286.799,-206.137"/>
<polygon fill="none" stroke="midnightblue" points="714.104,-298.15 724.259,-295.129 714.436,-291.158 714.104,-298.15"/>
</g>
<!-- Node5 -->
<g id="node5" class="node"><title>Node5</title>
<g id="a_node5"><a xlink:href="classecs_1_1components_1_1EnemyShoot.html" target="_top" xlink:title="Damage describes an attribute that stores a numeric value representing Damage points. ">
<polygon fill="none" stroke="black" points="328.5,-39 328.5,-195 495.5,-195 495.5,-39 328.5,-39"/>
<text text-anchor="middle" x="412" y="-183" font-family="Helvetica,sans-Serif" font-size="10.00">ecs::components::EnemyShoot</text>
<polyline fill="none" stroke="black" points="328.5,-176 495.5,-176 "/>
<text text-anchor="middle" x="412" y="-164" font-family="Helvetica,sans-Serif" font-size="10.00"> </text>
<polyline fill="none" stroke="black" points="328.5,-157 495.5,-157 "/>
<text text-anchor="start" x="336.5" y="-145" font-family="Helvetica,sans-Serif" font-size="10.00">+ EnemyShoot()</text>
<text text-anchor="start" x="336.5" y="-134" font-family="Helvetica,sans-Serif" font-size="10.00">+ EnemyShoot()</text>
<text text-anchor="start" x="336.5" y="-123" font-family="Helvetica,sans-Serif" font-size="10.00">+ EnemyShoot()</text>
<text text-anchor="start" x="336.5" y="-112" font-family="Helvetica,sans-Serif" font-size="10.00">+ ~EnemyShoot()</text>
<text text-anchor="start" x="336.5" y="-101" font-family="Helvetica,sans-Serif" font-size="10.00">+ setCanShoot()</text>
<text text-anchor="start" x="336.5" y="-90" font-family="Helvetica,sans-Serif" font-size="10.00">+ getCanShoot()</text>
<text text-anchor="start" x="336.5" y="-79" font-family="Helvetica,sans-Serif" font-size="10.00">+ getType()</text>
<text text-anchor="start" x="336.5" y="-68" font-family="Helvetica,sans-Serif" font-size="10.00">+ getBulletTimer()</text>
<text text-anchor="start" x="336.5" y="-57" font-family="Helvetica,sans-Serif" font-size="10.00">+ getEndTime()</text>
<text text-anchor="start" x="336.5" y="-46" font-family="Helvetica,sans-Serif" font-size="10.00">+ operator==()</text>
</a>
</g>
</g>
<!-- Node1&#45;&gt;Node5 -->
<g id="edge4" class="edge"><title>Node1&#45;&gt;Node5</title>
<path fill="none" stroke="midnightblue" d="M714.063,-294.694C651.015,-288.738 567.339,-273.261 504,-234 487.724,-223.911 473.129,-209.87 460.616,-195.032"/>
<polygon fill="none" stroke="midnightblue" points="714.126,-298.213 724.394,-295.602 714.739,-291.24 714.126,-298.213"/>
</g>
<!-- Node6 -->
<g id="node6" class="node"><title>Node6</title>
<g id="a_node6"><a xlink:href="classecs_1_1components_1_1Health.html" target="_top" xlink:title="Health describes an attribute that stores a numeric value representing Health points. ">
<polygon fill="none" stroke="black" points="513.5,-50 513.5,-184 650.5,-184 650.5,-50 513.5,-50"/>
<text text-anchor="middle" x="582" y="-172" font-family="Helvetica,sans-Serif" font-size="10.00">ecs::components::Health</text>
<polyline fill="none" stroke="black" points="513.5,-165 650.5,-165 "/>
<text text-anchor="middle" x="582" y="-153" font-family="Helvetica,sans-Serif" font-size="10.00"> </text>
<polyline fill="none" stroke="black" points="513.5,-146 650.5,-146 "/>
<text text-anchor="start" x="521.5" y="-134" font-family="Helvetica,sans-Serif" font-size="10.00">+ Health()</text>
<text text-anchor="start" x="521.5" y="-123" font-family="Helvetica,sans-Serif" font-size="10.00">+ Health()</text>
<text text-anchor="start" x="521.5" y="-112" font-family="Helvetica,sans-Serif" font-size="10.00">+ Health()</text>
<text text-anchor="start" x="521.5" y="-101" font-family="Helvetica,sans-Serif" font-size="10.00">+ ~Health()</text>
<text text-anchor="start" x="521.5" y="-90" font-family="Helvetica,sans-Serif" font-size="10.00">+ setValue()</text>
<text text-anchor="start" x="521.5" y="-79" font-family="Helvetica,sans-Serif" font-size="10.00">+ getValue()</text>
<text text-anchor="start" x="521.5" y="-68" font-family="Helvetica,sans-Serif" font-size="10.00">+ getType()</text>
<text text-anchor="start" x="521.5" y="-57" font-family="Helvetica,sans-Serif" font-size="10.00">+ operator==()</text>
</a>
</g>
</g>
<!-- Node1&#45;&gt;Node6 -->
<g id="edge5" class="edge"><title>Node1&#45;&gt;Node6</title>
<path fill="none" stroke="midnightblue" d="M715.137,-268.242C695.378,-259.168 675.461,-247.835 659,-234 642.532,-220.158 628.207,-201.92 616.527,-184.016"/>
<polygon fill="none" stroke="midnightblue" points="713.938,-271.539 724.499,-272.384 716.771,-265.137 713.938,-271.539"/>
</g>
<!-- Node7 -->
<g id="node7" class="node"><title>Node7</title>
<g id="a_node7"><a xlink:href="classecs_1_1components_1_1Item.html" target="_top" xlink:title="Item describes an attribute that stores a numeric value representing Item points. ...">
<polygon fill="none" stroke="black" points="668.5,-55.5 668.5,-178.5 795.5,-178.5 795.5,-55.5 668.5,-55.5"/>
<text text-anchor="middle" x="732" y="-166.5" font-family="Helvetica,sans-Serif" font-size="10.00">ecs::components::Item</text>
<polyline fill="none" stroke="black" points="668.5,-159.5 795.5,-159.5 "/>
<text text-anchor="middle" x="732" y="-147.5" font-family="Helvetica,sans-Serif" font-size="10.00"> </text>
<polyline fill="none" stroke="black" points="668.5,-140.5 795.5,-140.5 "/>
<text text-anchor="start" x="676.5" y="-128.5" font-family="Helvetica,sans-Serif" font-size="10.00">+ Item()</text>
<text text-anchor="start" x="676.5" y="-117.5" font-family="Helvetica,sans-Serif" font-size="10.00">+ Item()</text>
<text text-anchor="start" x="676.5" y="-106.5" font-family="Helvetica,sans-Serif" font-size="10.00">+ ~Item()</text>
<text text-anchor="start" x="676.5" y="-95.5" font-family="Helvetica,sans-Serif" font-size="10.00">+ setValue()</text>
<text text-anchor="start" x="676.5" y="-84.5" font-family="Helvetica,sans-Serif" font-size="10.00">+ getValue()</text>
<text text-anchor="start" x="676.5" y="-73.5" font-family="Helvetica,sans-Serif" font-size="10.00">+ getType()</text>
<text text-anchor="start" x="676.5" y="-62.5" font-family="Helvetica,sans-Serif" font-size="10.00">+ operator==()</text>
</a>
</g>
</g>
<!-- Node1&#45;&gt;Node7 -->
<g id="edge6" class="edge"><title>Node1&#45;&gt;Node7</title>
<path fill="none" stroke="midnightblue" d="M789.964,-260.926C780.342,-237.198 767.631,-205.858 756.565,-178.572"/>
<polygon fill="none" stroke="midnightblue" points="786.752,-262.318 793.754,-270.269 793.239,-259.687 786.752,-262.318"/>
</g>
<!-- Node8 -->
<g id="node8" class="node"><title>Node8</title>
<g id="a_node8"><a xlink:href="classecs_1_1components_1_1Level.html" target="_top" xlink:title="Level describes an attribute that stores a numeric value representing Level points. ">
<polygon fill="none" stroke="black" points="814,-55.5 814,-178.5 944,-178.5 944,-55.5 814,-55.5"/>
<text text-anchor="middle" x="879" y="-166.5" font-family="Helvetica,sans-Serif" font-size="10.00">ecs::components::Level</text>
<polyline fill="none" stroke="black" points="814,-159.5 944,-159.5 "/>
<text text-anchor="middle" x="879" y="-147.5" font-family="Helvetica,sans-Serif" font-size="10.00"> </text>
<polyline fill="none" stroke="black" points="814,-140.5 944,-140.5 "/>
<text text-anchor="start" x="822" y="-128.5" font-family="Helvetica,sans-Serif" font-size="10.00">+ Level()</text>
<text text-anchor="start" x="822" y="-117.5" font-family="Helvetica,sans-Serif" font-size="10.00">+ Level()</text>
<text text-anchor="start" x="822" y="-106.5" font-family="Helvetica,sans-Serif" font-size="10.00">+ ~Level()</text>
<text text-anchor="start" x="822" y="-95.5" font-family="Helvetica,sans-Serif" font-size="10.00">+ setValue()</text>
<text text-anchor="start" x="822" y="-84.5" font-family="Helvetica,sans-Serif" font-size="10.00">+ getValue()</text>
<text text-anchor="start" x="822" y="-73.5" font-family="Helvetica,sans-Serif" font-size="10.00">+ getType()</text>
<text text-anchor="start" x="822" y="-62.5" font-family="Helvetica,sans-Serif" font-size="10.00">+ operator==()</text>
</a>
</g>
</g>
<!-- Node1&#45;&gt;Node8 -->
<g id="edge7" class="edge"><title>Node1&#45;&gt;Node8</title>
<path fill="none" stroke="midnightblue" d="M820.242,-260.926C829.996,-237.198 842.881,-205.858 854.098,-178.572"/>
<polygon fill="none" stroke="midnightblue" points="816.966,-259.69 816.4,-270.269 823.44,-262.351 816.966,-259.69"/>
</g>
<!-- Node9 -->
<g id="node9" class="node"><title>Node9</title>
<g id="a_node9"><a xlink:href="classecs_1_1components_1_1PlayerController.html" target="_top" xlink:title="PlayerController is used to recognize player entity. ">
<polygon fill="none" stroke="black" points="962.5,-33.5 962.5,-200.5 1143.5,-200.5 1143.5,-33.5 962.5,-33.5"/>
<text text-anchor="middle" x="1053" y="-188.5" font-family="Helvetica,sans-Serif" font-size="10.00">ecs::components::PlayerController</text>
<polyline fill="none" stroke="black" points="962.5,-181.5 1143.5,-181.5 "/>
<text text-anchor="middle" x="1053" y="-169.5" font-family="Helvetica,sans-Serif" font-size="10.00"> </text>
<polyline fill="none" stroke="black" points="962.5,-162.5 1143.5,-162.5 "/>
<text text-anchor="start" x="970.5" y="-150.5" font-family="Helvetica,sans-Serif" font-size="10.00">+ PlayerController()</text>
<text text-anchor="start" x="970.5" y="-139.5" font-family="Helvetica,sans-Serif" font-size="10.00">+ PlayerController()</text>
<text text-anchor="start" x="970.5" y="-128.5" font-family="Helvetica,sans-Serif" font-size="10.00">+ ~PlayerController()</text>
<text text-anchor="start" x="970.5" y="-117.5" font-family="Helvetica,sans-Serif" font-size="10.00">+ getType()</text>
<text text-anchor="start" x="970.5" y="-106.5" font-family="Helvetica,sans-Serif" font-size="10.00">+ getCreationInterval()</text>
<text text-anchor="start" x="970.5" y="-95.5" font-family="Helvetica,sans-Serif" font-size="10.00">+ setCreationInterval()</text>
<text text-anchor="start" x="970.5" y="-84.5" font-family="Helvetica,sans-Serif" font-size="10.00">+ getTimer()</text>
<text text-anchor="start" x="970.5" y="-73.5" font-family="Helvetica,sans-Serif" font-size="10.00">+ getCreationTimer()</text>
<text text-anchor="start" x="970.5" y="-62.5" font-family="Helvetica,sans-Serif" font-size="10.00">+ operator==()</text>
<text text-anchor="start" x="970.5" y="-51.5" font-family="Helvetica,sans-Serif" font-size="10.00">+ getMovementKeys()</text>
<text text-anchor="start" x="970.5" y="-40.5" font-family="Helvetica,sans-Serif" font-size="10.00">+ setMovementKeys()</text>
</a>
</g>
</g>
<!-- Node1&#45;&gt;Node9 -->
<g id="edge8" class="edge"><title>Node1&#45;&gt;Node9</title>
<path fill="none" stroke="midnightblue" d="M894.934,-266.823C914.996,-257.813 935.492,-246.866 953,-234 966.07,-224.395 978.589,-212.782 990.078,-200.662"/>
<polygon fill="none" stroke="midnightblue" points="893.525,-263.619 885.759,-270.826 896.324,-270.035 893.525,-263.619"/>
</g>
<!-- Node10 -->
<g id="node10" class="node"><title>Node10</title>
<g id="a_node10"><a xlink:href="classecs_1_1components_1_1Power.html" target="_top" xlink:title="Power describes an attribute that stores a numeric value representing Power points. ">
<polygon fill="none" stroke="black" points="1162,-55.5 1162,-178.5 1296,-178.5 1296,-55.5 1162,-55.5"/>
<text text-anchor="middle" x="1229" y="-166.5" font-family="Helvetica,sans-Serif" font-size="10.00">ecs::components::Power</text>
<polyline fill="none" stroke="black" points="1162,-159.5 1296,-159.5 "/>
<text text-anchor="middle" x="1229" y="-147.5" font-family="Helvetica,sans-Serif" font-size="10.00"> </text>
<polyline fill="none" stroke="black" points="1162,-140.5 1296,-140.5 "/>
<text text-anchor="start" x="1170" y="-128.5" font-family="Helvetica,sans-Serif" font-size="10.00">+ Power()</text>
<text text-anchor="start" x="1170" y="-117.5" font-family="Helvetica,sans-Serif" font-size="10.00">+ Power()</text>
<text text-anchor="start" x="1170" y="-106.5" font-family="Helvetica,sans-Serif" font-size="10.00">+ ~Power()</text>
<text text-anchor="start" x="1170" y="-95.5" font-family="Helvetica,sans-Serif" font-size="10.00">+ setValue()</text>
<text text-anchor="start" x="1170" y="-84.5" font-family="Helvetica,sans-Serif" font-size="10.00">+ getValue()</text>
<text text-anchor="start" x="1170" y="-73.5" font-family="Helvetica,sans-Serif" font-size="10.00">+ getType()</text>
<text text-anchor="start" x="1170" y="-62.5" font-family="Helvetica,sans-Serif" font-size="10.00">+ operator==()</text>
</a>
</g>
</g>
<!-- Node1&#45;&gt;Node10 -->
<g id="edge9" class="edge"><title>Node1&#45;&gt;Node10</title>
<path fill="none" stroke="midnightblue" d="M895.715,-289.457C984.338,-279.686 1111.74,-261.41 1153,-234 1173.46,-220.412 1189.68,-199.236 1201.79,-178.677"/>
<polygon fill="none" stroke="midnightblue" points="895.213,-285.99 885.649,-290.548 895.968,-292.95 895.213,-285.99"/>
</g>
<!-- Node11 -->
<g id="node11" class="node"><title>Node11</title>
<g id="a_node11"><a xlink:href="classecs_1_1components_1_1Scale.html" target="_top" xlink:title="Scale describes an attribute that stores a numeric value representing Scale points. ">
<polygon fill="none" stroke="black" points="1314.5,-55.5 1314.5,-178.5 1445.5,-178.5 1445.5,-55.5 1314.5,-55.5"/>
<text text-anchor="middle" x="1380" y="-166.5" font-family="Helvetica,sans-Serif" font-size="10.00">ecs::components::Scale</text>
<polyline fill="none" stroke="black" points="1314.5,-159.5 1445.5,-159.5 "/>
<text text-anchor="middle" x="1380" y="-147.5" font-family="Helvetica,sans-Serif" font-size="10.00"> </text>
<polyline fill="none" stroke="black" points="1314.5,-140.5 1445.5,-140.5 "/>
<text text-anchor="start" x="1322.5" y="-128.5" font-family="Helvetica,sans-Serif" font-size="10.00">+ Scale()</text>
<text text-anchor="start" x="1322.5" y="-117.5" font-family="Helvetica,sans-Serif" font-size="10.00">+ Scale()</text>
<text text-anchor="start" x="1322.5" y="-106.5" font-family="Helvetica,sans-Serif" font-size="10.00">+ ~Scale()</text>
<text text-anchor="start" x="1322.5" y="-95.5" font-family="Helvetica,sans-Serif" font-size="10.00">+ setValue()</text>
<text text-anchor="start" x="1322.5" y="-84.5" font-family="Helvetica,sans-Serif" font-size="10.00">+ getValue()</text>
<text text-anchor="start" x="1322.5" y="-73.5" font-family="Helvetica,sans-Serif" font-size="10.00">+ getType()</text>
<text text-anchor="start" x="1322.5" y="-62.5" font-family="Helvetica,sans-Serif" font-size="10.00">+ operator==()</text>
</a>
</g>
</g>
<!-- Node1&#45;&gt;Node11 -->
<g id="edge10" class="edge"><title>Node1&#45;&gt;Node11</title>
<path fill="none" stroke="midnightblue" d="M896.081,-295.419C1021.35,-290.356 1238.83,-275.679 1305,-234 1325.9,-220.836 1342.12,-199.486 1354.05,-178.67"/>
<polygon fill="none" stroke="midnightblue" points="895.596,-291.935 885.741,-295.824 895.87,-298.93 895.596,-291.935"/>
</g>
<!-- Node12 -->
<g id="node12" class="node"><title>Node12</title>
<g id="a_node12"><a xlink:href="classecs_1_1components_1_1Timer.html" target="_top" xlink:title="Timer for all the game. ">
<polygon fill="none" stroke="black" points="1464,-0.5 1464,-233.5 1610,-233.5 1610,-0.5 1464,-0.5"/>
<text text-anchor="middle" x="1537" y="-221.5" font-family="Helvetica,sans-Serif" font-size="10.00">ecs::components::Timer</text>
<polyline fill="none" stroke="black" points="1464,-214.5 1610,-214.5 "/>
<text text-anchor="middle" x="1537" y="-202.5" font-family="Helvetica,sans-Serif" font-size="10.00"> </text>
<polyline fill="none" stroke="black" points="1464,-195.5 1610,-195.5 "/>
<text text-anchor="start" x="1472" y="-183.5" font-family="Helvetica,sans-Serif" font-size="10.00">+ Timer()</text>
<text text-anchor="start" x="1472" y="-172.5" font-family="Helvetica,sans-Serif" font-size="10.00">+ Timer()</text>
<text text-anchor="start" x="1472" y="-161.5" font-family="Helvetica,sans-Serif" font-size="10.00">+ Timer()</text>
<text text-anchor="start" x="1472" y="-150.5" font-family="Helvetica,sans-Serif" font-size="10.00">+ ~Timer()</text>
<text text-anchor="start" x="1472" y="-139.5" font-family="Helvetica,sans-Serif" font-size="10.00">+ operator==()</text>
<text text-anchor="start" x="1472" y="-128.5" font-family="Helvetica,sans-Serif" font-size="10.00">+ start()</text>
<text text-anchor="start" x="1472" y="-117.5" font-family="Helvetica,sans-Serif" font-size="10.00">+ stop()</text>
<text text-anchor="start" x="1472" y="-106.5" font-family="Helvetica,sans-Serif" font-size="10.00">+ restart()</text>
<text text-anchor="start" x="1472" y="-95.5" font-family="Helvetica,sans-Serif" font-size="10.00">+ restart()</text>
<text text-anchor="start" x="1472" y="-84.5" font-family="Helvetica,sans-Serif" font-size="10.00">+ getElapsedMilliseconds()</text>
<text text-anchor="start" x="1472" y="-73.5" font-family="Helvetica,sans-Serif" font-size="10.00">+ getElapsedSeconds()</text>
<text text-anchor="start" x="1472" y="-62.5" font-family="Helvetica,sans-Serif" font-size="10.00">+ getStart()</text>
<text text-anchor="start" x="1472" y="-51.5" font-family="Helvetica,sans-Serif" font-size="10.00">+ getStop()</text>
<text text-anchor="start" x="1472" y="-40.5" font-family="Helvetica,sans-Serif" font-size="10.00">+ getEndTime()</text>
<text text-anchor="start" x="1472" y="-29.5" font-family="Helvetica,sans-Serif" font-size="10.00">+ isRunning()</text>
<text text-anchor="start" x="1472" y="-18.5" font-family="Helvetica,sans-Serif" font-size="10.00">+ checkEndTimer()</text>
<text text-anchor="start" x="1472" y="-7.5" font-family="Helvetica,sans-Serif" font-size="10.00">+ getType()</text>
</a>
</g>
</g>
<!-- Node1&#45;&gt;Node12 -->
<g id="edge11" class="edge"><title>Node1&#45;&gt;Node12</title>
<path fill="none" stroke="midnightblue" d="M895.684,-298.218C1051.5,-297.105 1362.26,-287.938 1455,-234 1457.98,-232.264 1460.89,-230.371 1463.71,-228.343"/>
<polygon fill="none" stroke="midnightblue" points="895.627,-294.718 885.649,-298.28 895.67,-301.718 895.627,-294.718"/>
</g>
<!-- Node2 -->
<g id="node2" class="node"><title>Node2</title>
<g id="a_node2"><a xlink:href="classecs_1_1components_1_1IComponent.html" target="_top" xlink:title="Icomponent describes an attribute of an Entity. ">
<polygon fill="none" stroke="black" points="723,-364.5 723,-421.5 887,-421.5 887,-364.5 723,-364.5"/>
<text text-anchor="middle" x="805" y="-409.5" font-family="Helvetica,sans-Serif" font-size="10.00">ecs::components::IComponent</text>
<polyline fill="none" stroke="black" points="723,-402.5 887,-402.5 "/>
<text text-anchor="middle" x="805" y="-390.5" font-family="Helvetica,sans-Serif" font-size="10.00"> </text>
<polyline fill="none" stroke="black" points="723,-383.5 887,-383.5 "/>
<text text-anchor="start" x="731" y="-371.5" font-family="Helvetica,sans-Serif" font-size="10.00">+ getType()</text>
</a>
</g>
</g>
<!-- Node2&#45;&gt;Node1 -->
<g id="edge1" class="edge"><title>Node2&#45;&gt;Node1</title>
<path fill="none" stroke="midnightblue" d="M805,-354.209C805,-345.293 805,-335.951 805,-327.584"/>
<polygon fill="none" stroke="midnightblue" points="801.5,-354.397 805,-364.397 808.5,-354.397 801.5,-354.397"/>
</g>
</g>
</svg>
