<?xml version="1.0" encoding="UTF-8" standalone="no"?>
<!DOCTYPE svg PUBLIC "-//W3C//DTD SVG 1.1//EN"
 "http://www.w3.org/Graphics/SVG/1.1/DTD/svg11.dtd">
<!-- Generated by graphviz version 2.38.0 (20140413.2041)
 -->
<!-- Title: ecs::system::PlayerMovementSystem Pages: 1 -->
<svg width="554pt" height="332pt"
 viewBox="0.00 0.00 553.50 332.00" xmlns="http://www.w3.org/2000/svg" xmlns:xlink="http://www.w3.org/1999/xlink">
<g id="graph0" class="graph" transform="scale(1 1) rotate(0) translate(4 328)">
<title>ecs::system::PlayerMovementSystem</title>
<!-- Node1 -->
<g id="node1" class="node"><title>Node1</title>
<polygon fill="#bfbfbf" stroke="black" points="210,-0.5 210,-101.5 371,-101.5 371,-0.5 210,-0.5"/>
<text text-anchor="start" x="218" y="-89.5" font-family="Helvetica,sans-Serif" font-size="10.00">ecs::system::PlayerMovement</text>
<text text-anchor="middle" x="290.5" y="-78.5" font-family="Helvetica,sans-Serif" font-size="10.00">System</text>
<polyline fill="none" stroke="black" points="210,-71.5 371,-71.5 "/>
<text text-anchor="middle" x="290.5" y="-59.5" font-family="Helvetica,sans-Serif" font-size="10.00"> </text>
<polyline fill="none" stroke="black" points="210,-52.5 371,-52.5 "/>
<text text-anchor="start" x="218" y="-40.5" font-family="Helvetica,sans-Serif" font-size="10.00">+ PlayerMovementSystem()</text>
<text text-anchor="start" x="218" y="-29.5" font-family="Helvetica,sans-Serif" font-size="10.00">+ ~PlayerMovementSystem()</text>
<text text-anchor="start" x="218" y="-18.5" font-family="Helvetica,sans-Serif" font-size="10.00">+ update()</text>
<text text-anchor="start" x="218" y="-7.5" font-family="Helvetica,sans-Serif" font-size="10.00">+ updateVelocityOnInput()</text>
</g>
<!-- Node2 -->
<g id="node2" class="node"><title>Node2</title>
<g id="a_node2"><a xlink:href="classecs_1_1system_1_1ASystem.html" target="_top" xlink:title="{ecs::system::ASystem\n||+ ASystem()\l+ ~ASystem()\l}">
<polygon fill="none" stroke="black" points="228.5,-139.5 228.5,-207.5 352.5,-207.5 352.5,-139.5 228.5,-139.5"/>
<text text-anchor="middle" x="290.5" y="-195.5" font-family="Helvetica,sans-Serif" font-size="10.00">ecs::system::ASystem</text>
<polyline fill="none" stroke="black" points="228.5,-188.5 352.5,-188.5 "/>
<text text-anchor="middle" x="290.5" y="-176.5" font-family="Helvetica,sans-Serif" font-size="10.00"> </text>
<polyline fill="none" stroke="black" points="228.5,-169.5 352.5,-169.5 "/>
<text text-anchor="start" x="236.5" y="-157.5" font-family="Helvetica,sans-Serif" font-size="10.00">+ ASystem()</text>
<text text-anchor="start" x="236.5" y="-146.5" font-family="Helvetica,sans-Serif" font-size="10.00">+ ~ASystem()</text>
</a>
</g>
</g>
<!-- Node2&#45;&gt;Node1 -->
<g id="edge1" class="edge"><title>Node2&#45;&gt;Node1</title>
<path fill="none" stroke="midnightblue" d="M290.5,-129.151C290.5,-120.293 290.5,-110.906 290.5,-101.842"/>
<polygon fill="none" stroke="midnightblue" points="287,-129.254 290.5,-139.254 294,-129.254 287,-129.254"/>
</g>
<!-- Node3 -->
<g id="node3" class="node"><title>Node3</title>
<g id="a_node3"><a xlink:href="classecs_1_1system_1_1ISystem.html" target="_top" xlink:title="{ecs::system::ISystem\n||+ update()\l}">
<polygon fill="none" stroke="black" points="0,-261 0,-318 119,-318 119,-261 0,-261"/>
<text text-anchor="middle" x="59.5" y="-306" font-family="Helvetica,sans-Serif" font-size="10.00">ecs::system::ISystem</text>
<polyline fill="none" stroke="black" points="0,-299 119,-299 "/>
<text text-anchor="middle" x="59.5" y="-287" font-family="Helvetica,sans-Serif" font-size="10.00"> </text>
<polyline fill="none" stroke="black" points="0,-280 119,-280 "/>
<text text-anchor="start" x="8" y="-268" font-family="Helvetica,sans-Serif" font-size="10.00">+ update()</text>
</a>
</g>
</g>
<!-- Node3&#45;&gt;Node2 -->
<g id="edge2" class="edge"><title>Node3&#45;&gt;Node2</title>
<path fill="none" stroke="midnightblue" d="M124.396,-256.473C156.893,-240.436 196.051,-221.111 228.183,-205.254"/>
<polygon fill="none" stroke="midnightblue" points="122.837,-253.34 115.419,-260.904 125.935,-259.617 122.837,-253.34"/>
</g>
<!-- Node4 -->
<g id="node4" class="node"><title>Node4</title>
<polygon fill="none" stroke="#bfbfbf" points="137.5,-255.5 137.5,-323.5 283.5,-323.5 283.5,-255.5 137.5,-255.5"/>
<text text-anchor="start" x="145.5" y="-311.5" font-family="Helvetica,sans-Serif" font-size="10.00">shared_ptr&lt; ecs::IManager</text>
<text text-anchor="middle" x="210.5" y="-300.5" font-family="Helvetica,sans-Serif" font-size="10.00">Wrapper &gt; &amp;</text>
<polyline fill="none" stroke="#bfbfbf" points="137.5,-293.5 283.5,-293.5 "/>
<text text-anchor="middle" x="210.5" y="-281.5" font-family="Helvetica,sans-Serif" font-size="10.00"> </text>
<polyline fill="none" stroke="#bfbfbf" points="137.5,-274.5 283.5,-274.5 "/>
<text text-anchor="middle" x="210.5" y="-262.5" font-family="Helvetica,sans-Serif" font-size="10.00"> </text>
</g>
<!-- Node4&#45;&gt;Node2 -->
<g id="edge3" class="edge"><title>Node4&#45;&gt;Node2</title>
<path fill="none" stroke="#404040" d="M229.588,-255.193C235.397,-245.596 241.977,-235.23 248.5,-226 250.498,-223.173 252.604,-220.302 254.766,-217.435"/>
<polygon fill="none" stroke="#404040" points="254.901,-217.261 255.416,-210.068 262.254,-207.777 261.738,-214.97 254.901,-217.261"/>
<text text-anchor="middle" x="298.5" y="-229" font-family="Helvetica,sans-Serif" font-size="10.00"> #_managerWrapper</text>
</g>
<!-- Node5 -->
<g id="node5" class="node"><title>Node5</title>
<polygon fill="none" stroke="#bfbfbf" points="302,-255.5 302,-323.5 439,-323.5 439,-255.5 302,-255.5"/>
<text text-anchor="start" x="310" y="-311.5" font-family="Helvetica,sans-Serif" font-size="10.00">shared_ptr&lt; ecs::entities</text>
<text text-anchor="middle" x="370.5" y="-300.5" font-family="Helvetica,sans-Serif" font-size="10.00">::IEntityFactory &gt; &amp;</text>
<polyline fill="none" stroke="#bfbfbf" points="302,-293.5 439,-293.5 "/>
<text text-anchor="middle" x="370.5" y="-281.5" font-family="Helvetica,sans-Serif" font-size="10.00"> </text>
<polyline fill="none" stroke="#bfbfbf" points="302,-274.5 439,-274.5 "/>
<text text-anchor="middle" x="370.5" y="-262.5" font-family="Helvetica,sans-Serif" font-size="10.00"> </text>
</g>
<!-- Node5&#45;&gt;Node2 -->
<g id="edge4" class="edge"><title>Node5&#45;&gt;Node2</title>
<path fill="none" stroke="#404040" d="M362.248,-255.23C358.903,-245.327 354.402,-234.785 348.5,-226 346.322,-222.758 343.894,-219.59 341.299,-216.521"/>
<polygon fill="none" stroke="#404040" points="341.237,-216.454 334.229,-214.755 333.101,-207.633 340.109,-209.331 341.237,-216.454"/>
<text text-anchor="middle" x="395" y="-229" font-family="Helvetica,sans-Serif" font-size="10.00"> #_entityFactory</text>
</g>
<!-- Node6 -->
<g id="node6" class="node"><title>Node6</title>
<polygon fill="none" stroke="#bfbfbf" points="457.5,-261 457.5,-318 533.5,-318 533.5,-261 457.5,-261"/>
<text text-anchor="middle" x="495.5" y="-306" font-family="Helvetica,sans-Serif" font-size="10.00">list&lt; int &gt; &amp;</text>
<polyline fill="none" stroke="#bfbfbf" points="457.5,-299 533.5,-299 "/>
<text text-anchor="middle" x="495.5" y="-287" font-family="Helvetica,sans-Serif" font-size="10.00"> </text>
<polyline fill="none" stroke="#bfbfbf" points="457.5,-280 533.5,-280 "/>
<text text-anchor="middle" x="495.5" y="-268" font-family="Helvetica,sans-Serif" font-size="10.00"> </text>
</g>
<!-- Node6&#45;&gt;Node2 -->
<g id="edge5" class="edge"><title>Node6&#45;&gt;Node2</title>
<path fill="none" stroke="#404040" d="M475.503,-260.969C465.532,-248.856 452.597,-235.299 438.5,-226 416.15,-211.257 389.112,-200.238 364.293,-192.259"/>
<polygon fill="none" stroke="#404040" points="364.166,-192.22 357.256,-194.281 352.696,-188.694 359.606,-186.634 364.166,-192.22"/>
<text text-anchor="middle" x="498.5" y="-229" font-family="Helvetica,sans-Serif" font-size="10.00"> #_entitiesToDelete</text>
</g>
</g>
</svg>
