<?xml version="1.0" encoding="UTF-8" standalone="no"?>
<!DOCTYPE svg PUBLIC "-//W3C//DTD SVG 1.1//EN"
 "http://www.w3.org/Graphics/SVG/1.1/DTD/svg11.dtd">
<!-- Generated by graphviz version 2.38.0 (20140413.2041)
 -->
<!-- Title: ComponentExceptions Pages: 1 -->
<svg width="160pt" height="403pt"
 viewBox="0.00 0.00 160.00 403.00" xmlns="http://www.w3.org/2000/svg" xmlns:xlink="http://www.w3.org/1999/xlink">
<g id="graph0" class="graph" transform="scale(1 1) rotate(0) translate(4 399)">
<title>ComponentExceptions</title>
<!-- Node1 -->
<g id="node1" class="node"><title>Node1</title>
<polygon fill="#bfbfbf" stroke="black" points="0,-0.5 0,-68.5 152,-68.5 152,-0.5 0,-0.5"/>
<text text-anchor="middle" x="76" y="-56.5" font-family="Helvetica,sans-Serif" font-size="10.00">ComponentExceptions</text>
<polyline fill="none" stroke="black" points="0,-49.5 152,-49.5 "/>
<text text-anchor="middle" x="76" y="-37.5" font-family="Helvetica,sans-Serif" font-size="10.00"> </text>
<polyline fill="none" stroke="black" points="0,-30.5 152,-30.5 "/>
<text text-anchor="start" x="8" y="-18.5" font-family="Helvetica,sans-Serif" font-size="10.00">+ ComponentExceptions()</text>
<text text-anchor="start" x="8" y="-7.5" font-family="Helvetica,sans-Serif" font-size="10.00">+ ~ComponentExceptions()</text>
</g>
<!-- Node2 -->
<g id="node2" class="node"><title>Node2</title>
<g id="a_node2"><a xlink:href="classECSExceptions.html" target="_top" xlink:title="ECS Class Esception which manage exceptions of Entity, Components and System. ">
<polygon fill="none" stroke="black" points="18.5,-105.5 18.5,-173.5 133.5,-173.5 133.5,-105.5 18.5,-105.5"/>
<text text-anchor="middle" x="76" y="-161.5" font-family="Helvetica,sans-Serif" font-size="10.00">ECSExceptions</text>
<polyline fill="none" stroke="black" points="18.5,-154.5 133.5,-154.5 "/>
<text text-anchor="middle" x="76" y="-142.5" font-family="Helvetica,sans-Serif" font-size="10.00"> </text>
<polyline fill="none" stroke="black" points="18.5,-135.5 133.5,-135.5 "/>
<text text-anchor="start" x="26.5" y="-123.5" font-family="Helvetica,sans-Serif" font-size="10.00">+ ECSExceptions()</text>
<text text-anchor="start" x="26.5" y="-112.5" font-family="Helvetica,sans-Serif" font-size="10.00">+ ~ECSExceptions()</text>
</a>
</g>
</g>
<!-- Node2&#45;&gt;Node1 -->
<g id="edge1" class="edge"><title>Node2&#45;&gt;Node1</title>
<path fill="none" stroke="midnightblue" d="M76,-95.1362C76,-86.256 76,-77.0447 76,-68.5947"/>
<polygon fill="none" stroke="midnightblue" points="72.5001,-95.3432 76,-105.343 79.5001,-95.3432 72.5001,-95.3432"/>
</g>
<!-- Node3 -->
<g id="node3" class="node"><title>Node3</title>
<g id="a_node3"><a xlink:href="classRTypeExceptions.html" target="_top" xlink:title="Rtype Class Exception which regroup all Exceptions. ">
<polygon fill="none" stroke="black" points="15,-210.5 15,-300.5 137,-300.5 137,-210.5 15,-210.5"/>
<text text-anchor="middle" x="76" y="-288.5" font-family="Helvetica,sans-Serif" font-size="10.00">RTypeExceptions</text>
<polyline fill="none" stroke="black" points="15,-281.5 137,-281.5 "/>
<text text-anchor="middle" x="76" y="-269.5" font-family="Helvetica,sans-Serif" font-size="10.00"> </text>
<polyline fill="none" stroke="black" points="15,-262.5 137,-262.5 "/>
<text text-anchor="start" x="23" y="-250.5" font-family="Helvetica,sans-Serif" font-size="10.00">+ RTypeExceptions()</text>
<text text-anchor="start" x="23" y="-239.5" font-family="Helvetica,sans-Serif" font-size="10.00">+ ~RTypeExceptions()</text>
<text text-anchor="start" x="23" y="-228.5" font-family="Helvetica,sans-Serif" font-size="10.00">+ what()</text>
<text text-anchor="start" x="23" y="-217.5" font-family="Helvetica,sans-Serif" font-size="10.00">+ where()</text>
</a>
</g>
</g>
<!-- Node3&#45;&gt;Node2 -->
<g id="edge2" class="edge"><title>Node3&#45;&gt;Node2</title>
<path fill="none" stroke="midnightblue" d="M76,-200.316C76,-191.285 76,-182.159 76,-173.848"/>
<polygon fill="none" stroke="midnightblue" points="72.5001,-200.425 76,-210.425 79.5001,-200.425 72.5001,-200.425"/>
</g>
<!-- Node4 -->
<g id="node4" class="node"><title>Node4</title>
<polygon fill="none" stroke="#bfbfbf" points="34,-337.5 34,-394.5 118,-394.5 118,-337.5 34,-337.5"/>
<text text-anchor="middle" x="76" y="-382.5" font-family="Helvetica,sans-Serif" font-size="10.00">std::exception</text>
<polyline fill="none" stroke="#bfbfbf" points="34,-375.5 118,-375.5 "/>
<text text-anchor="middle" x="76" y="-363.5" font-family="Helvetica,sans-Serif" font-size="10.00"> </text>
<polyline fill="none" stroke="#bfbfbf" points="34,-356.5 118,-356.5 "/>
<text text-anchor="middle" x="76" y="-344.5" font-family="Helvetica,sans-Serif" font-size="10.00"> </text>
</g>
<!-- Node4&#45;&gt;Node3 -->
<g id="edge3" class="edge"><title>Node4&#45;&gt;Node3</title>
<path fill="none" stroke="midnightblue" d="M76,-327.214C76,-318.609 76,-309.394 76,-300.554"/>
<polygon fill="none" stroke="midnightblue" points="72.5001,-327.34 76,-337.34 79.5001,-327.34 72.5001,-327.34"/>
</g>
</g>
</svg>
