<?xml version="1.0" encoding="UTF-8" standalone="no"?>
<!DOCTYPE svg PUBLIC "-//W3C//DTD SVG 1.1//EN"
 "http://www.w3.org/Graphics/SVG/1.1/DTD/svg11.dtd">
<!-- Generated by graphviz version 2.38.0 (20140413.2041)
 -->
<!-- Title: ecs::IAudio Pages: 1 -->
<svg width="238pt" height="325pt"
 viewBox="0.00 0.00 237.50 325.00" xmlns="http://www.w3.org/2000/svg" xmlns:xlink="http://www.w3.org/1999/xlink">
<g id="graph0" class="graph" transform="scale(1 1) rotate(0) translate(4 321)">
<title>ecs::IAudio</title>
<!-- Node1 -->
<g id="node1" class="node"><title>Node1</title>
<polygon fill="#bfbfbf" stroke="black" points="74,-193.5 74,-316.5 154,-316.5 154,-193.5 74,-193.5"/>
<text text-anchor="middle" x="114" y="-304.5" font-family="Helvetica,sans-Serif" font-size="10.00">ecs::IAudio</text>
<polyline fill="none" stroke="black" points="74,-297.5 154,-297.5 "/>
<text text-anchor="middle" x="114" y="-285.5" font-family="Helvetica,sans-Serif" font-size="10.00"> </text>
<polyline fill="none" stroke="black" points="74,-278.5 154,-278.5 "/>
<text text-anchor="start" x="82" y="-266.5" font-family="Helvetica,sans-Serif" font-size="10.00">+ getName()</text>
<text text-anchor="start" x="82" y="-255.5" font-family="Helvetica,sans-Serif" font-size="10.00">+ play()</text>
<text text-anchor="start" x="82" y="-244.5" font-family="Helvetica,sans-Serif" font-size="10.00">+ stop()</text>
<text text-anchor="start" x="82" y="-233.5" font-family="Helvetica,sans-Serif" font-size="10.00">+ pause()</text>
<text text-anchor="start" x="82" y="-222.5" font-family="Helvetica,sans-Serif" font-size="10.00">+ loop()</text>
<text text-anchor="start" x="82" y="-211.5" font-family="Helvetica,sans-Serif" font-size="10.00">+ getState()</text>
<text text-anchor="start" x="82" y="-200.5" font-family="Helvetica,sans-Serif" font-size="10.00">+ setState()</text>
</g>
<!-- Node2 -->
<g id="node2" class="node"><title>Node2</title>
<g id="a_node2"><a xlink:href="classecs_1_1Music.html" target="_top" xlink:title="Music for the game. ">
<polygon fill="none" stroke="black" points="0,-0.5 0,-156.5 104,-156.5 104,-0.5 0,-0.5"/>
<text text-anchor="middle" x="52" y="-144.5" font-family="Helvetica,sans-Serif" font-size="10.00">ecs::Music</text>
<polyline fill="none" stroke="black" points="0,-137.5 104,-137.5 "/>
<text text-anchor="middle" x="52" y="-125.5" font-family="Helvetica,sans-Serif" font-size="10.00"> </text>
<polyline fill="none" stroke="black" points="0,-118.5 104,-118.5 "/>
<text text-anchor="start" x="8" y="-106.5" font-family="Helvetica,sans-Serif" font-size="10.00">+ Music()</text>
<text text-anchor="start" x="8" y="-95.5" font-family="Helvetica,sans-Serif" font-size="10.00">+ ~Music()</text>
<text text-anchor="start" x="8" y="-84.5" font-family="Helvetica,sans-Serif" font-size="10.00">+ getName()</text>
<text text-anchor="start" x="8" y="-73.5" font-family="Helvetica,sans-Serif" font-size="10.00">+ play()</text>
<text text-anchor="start" x="8" y="-62.5" font-family="Helvetica,sans-Serif" font-size="10.00">+ stop()</text>
<text text-anchor="start" x="8" y="-51.5" font-family="Helvetica,sans-Serif" font-size="10.00">+ pause()</text>
<text text-anchor="start" x="8" y="-40.5" font-family="Helvetica,sans-Serif" font-size="10.00">+ loop()</text>
<text text-anchor="start" x="8" y="-29.5" font-family="Helvetica,sans-Serif" font-size="10.00">+ getState()</text>
<text text-anchor="start" x="8" y="-18.5" font-family="Helvetica,sans-Serif" font-size="10.00">+ setState()</text>
<text text-anchor="start" x="8" y="-7.5" font-family="Helvetica,sans-Serif" font-size="10.00">+ getSFMLMusic()</text>
</a>
</g>
</g>
<!-- Node1&#45;&gt;Node2 -->
<g id="edge1" class="edge"><title>Node1&#45;&gt;Node2</title>
<path fill="none" stroke="midnightblue" d="M89.0685,-183.83C85.8775,-174.849 82.5971,-165.616 79.37,-156.533"/>
<polygon fill="none" stroke="midnightblue" points="85.8434,-185.207 92.4894,-193.458 92.4394,-182.863 85.8434,-185.207"/>
</g>
<!-- Node3 -->
<g id="node3" class="node"><title>Node3</title>
<g id="a_node3"><a xlink:href="classecs_1_1Sound.html" target="_top" xlink:title="Sound for the game. ">
<polygon fill="none" stroke="black" points="122.5,-0.5 122.5,-156.5 229.5,-156.5 229.5,-0.5 122.5,-0.5"/>
<text text-anchor="middle" x="176" y="-144.5" font-family="Helvetica,sans-Serif" font-size="10.00">ecs::Sound</text>
<polyline fill="none" stroke="black" points="122.5,-137.5 229.5,-137.5 "/>
<text text-anchor="middle" x="176" y="-125.5" font-family="Helvetica,sans-Serif" font-size="10.00"> </text>
<polyline fill="none" stroke="black" points="122.5,-118.5 229.5,-118.5 "/>
<text text-anchor="start" x="130.5" y="-106.5" font-family="Helvetica,sans-Serif" font-size="10.00">+ Sound()</text>
<text text-anchor="start" x="130.5" y="-95.5" font-family="Helvetica,sans-Serif" font-size="10.00">+ ~Sound()</text>
<text text-anchor="start" x="130.5" y="-84.5" font-family="Helvetica,sans-Serif" font-size="10.00">+ getName()</text>
<text text-anchor="start" x="130.5" y="-73.5" font-family="Helvetica,sans-Serif" font-size="10.00">+ play()</text>
<text text-anchor="start" x="130.5" y="-62.5" font-family="Helvetica,sans-Serif" font-size="10.00">+ stop()</text>
<text text-anchor="start" x="130.5" y="-51.5" font-family="Helvetica,sans-Serif" font-size="10.00">+ pause()</text>
<text text-anchor="start" x="130.5" y="-40.5" font-family="Helvetica,sans-Serif" font-size="10.00">+ loop()</text>
<text text-anchor="start" x="130.5" y="-29.5" font-family="Helvetica,sans-Serif" font-size="10.00">+ getState()</text>
<text text-anchor="start" x="130.5" y="-18.5" font-family="Helvetica,sans-Serif" font-size="10.00">+ setState()</text>
<text text-anchor="start" x="130.5" y="-7.5" font-family="Helvetica,sans-Serif" font-size="10.00">+ getSFMLSound()</text>
</a>
</g>
</g>
<!-- Node1&#45;&gt;Node3 -->
<g id="edge2" class="edge"><title>Node1&#45;&gt;Node3</title>
<path fill="none" stroke="midnightblue" d="M138.931,-183.83C142.123,-174.849 145.403,-165.616 148.63,-156.533"/>
<polygon fill="none" stroke="midnightblue" points="135.561,-182.863 135.511,-193.458 142.157,-185.207 135.561,-182.863"/>
</g>
</g>
</svg>
