<?xml version="1.0" encoding="UTF-8" standalone="no"?>
<!DOCTYPE svg PUBLIC "-//W3C//DTD SVG 1.1//EN"
 "http://www.w3.org/Graphics/SVG/1.1/DTD/svg11.dtd">
<!-- Generated by graphviz version 2.38.0 (20140413.2041)
 -->
<!-- Title: ecs::system::MovementSystem Pages: 1 -->
<svg width="176pt" height="353pt"
 viewBox="0.00 0.00 176.00 353.00" xmlns="http://www.w3.org/2000/svg" xmlns:xlink="http://www.w3.org/1999/xlink">
<g id="graph0" class="graph" transform="scale(1 1) rotate(0) translate(4 349)">
<title>ecs::system::MovementSystem</title>
<!-- Node1 -->
<g id="node1" class="node"><title>Node1</title>
<polygon fill="#bfbfbf" stroke="black" points="-1.42109e-14,-0.5 -1.42109e-14,-123.5 168,-123.5 168,-0.5 -1.42109e-14,-0.5"/>
<text text-anchor="middle" x="84" y="-111.5" font-family="Helvetica,sans-Serif" font-size="10.00">ecs::system::MovementSystem</text>
<polyline fill="none" stroke="black" points="-1.42109e-14,-104.5 168,-104.5 "/>
<text text-anchor="middle" x="84" y="-92.5" font-family="Helvetica,sans-Serif" font-size="10.00"> </text>
<polyline fill="none" stroke="black" points="-1.42109e-14,-85.5 168,-85.5 "/>
<text text-anchor="start" x="8" y="-73.5" font-family="Helvetica,sans-Serif" font-size="10.00">+ MovementSystem()</text>
<text text-anchor="start" x="8" y="-62.5" font-family="Helvetica,sans-Serif" font-size="10.00">+ ~MovementSystem()</text>
<text text-anchor="start" x="8" y="-51.5" font-family="Helvetica,sans-Serif" font-size="10.00">+ isColliding()</text>
<text text-anchor="start" x="8" y="-40.5" font-family="Helvetica,sans-Serif" font-size="10.00">+ getNextPos()</text>
<text text-anchor="start" x="8" y="-29.5" font-family="Helvetica,sans-Serif" font-size="10.00">+ updateAll()</text>
<text text-anchor="start" x="8" y="-18.5" font-family="Helvetica,sans-Serif" font-size="10.00">+ update()</text>
<text text-anchor="start" x="8" y="-7.5" font-family="Helvetica,sans-Serif" font-size="10.00">+ deleteIfOutOfWindow()</text>
</g>
<!-- Node2 -->
<g id="node2" class="node"><title>Node2</title>
<g id="a_node2"><a xlink:href="classecs_1_1system_1_1ASystem.html" target="_top" xlink:title="{ecs::system::ASystem\n|# _managerWrapper\l# _entityFactory\l# _entitiesToDelete\l|+ ASystem()\l+ ~ASystem()\l}">
<polygon fill="none" stroke="black" points="22,-160.5 22,-250.5 146,-250.5 146,-160.5 22,-160.5"/>
<text text-anchor="middle" x="84" y="-238.5" font-family="Helvetica,sans-Serif" font-size="10.00">ecs::system::ASystem</text>
<polyline fill="none" stroke="black" points="22,-231.5 146,-231.5 "/>
<text text-anchor="start" x="30" y="-219.5" font-family="Helvetica,sans-Serif" font-size="10.00"># _managerWrapper</text>
<text text-anchor="start" x="30" y="-208.5" font-family="Helvetica,sans-Serif" font-size="10.00"># _entityFactory</text>
<text text-anchor="start" x="30" y="-197.5" font-family="Helvetica,sans-Serif" font-size="10.00"># _entitiesToDelete</text>
<polyline fill="none" stroke="black" points="22,-190.5 146,-190.5 "/>
<text text-anchor="start" x="30" y="-178.5" font-family="Helvetica,sans-Serif" font-size="10.00">+ ASystem()</text>
<text text-anchor="start" x="30" y="-167.5" font-family="Helvetica,sans-Serif" font-size="10.00">+ ~ASystem()</text>
</a>
</g>
</g>
<!-- Node2&#45;&gt;Node1 -->
<g id="edge1" class="edge"><title>Node2&#45;&gt;Node1</title>
<path fill="none" stroke="midnightblue" d="M84,-150.11C84,-141.421 84,-132.383 84,-123.561"/>
<polygon fill="none" stroke="midnightblue" points="80.5001,-150.117 84,-160.117 87.5001,-150.117 80.5001,-150.117"/>
</g>
<!-- Node3 -->
<g id="node3" class="node"><title>Node3</title>
<g id="a_node3"><a xlink:href="classecs_1_1system_1_1ISystem.html" target="_top" xlink:title="{ecs::system::ISystem\n||+ update()\l}">
<polygon fill="none" stroke="black" points="24.5,-287.5 24.5,-344.5 143.5,-344.5 143.5,-287.5 24.5,-287.5"/>
<text text-anchor="middle" x="84" y="-332.5" font-family="Helvetica,sans-Serif" font-size="10.00">ecs::system::ISystem</text>
<polyline fill="none" stroke="black" points="24.5,-325.5 143.5,-325.5 "/>
<text text-anchor="middle" x="84" y="-313.5" font-family="Helvetica,sans-Serif" font-size="10.00"> </text>
<polyline fill="none" stroke="black" points="24.5,-306.5 143.5,-306.5 "/>
<text text-anchor="start" x="32.5" y="-294.5" font-family="Helvetica,sans-Serif" font-size="10.00">+ update()</text>
</a>
</g>
</g>
<!-- Node3&#45;&gt;Node2 -->
<g id="edge2" class="edge"><title>Node3&#45;&gt;Node2</title>
<path fill="none" stroke="midnightblue" d="M84,-277.214C84,-268.609 84,-259.394 84,-250.554"/>
<polygon fill="none" stroke="midnightblue" points="80.5001,-277.34 84,-287.34 87.5001,-277.34 80.5001,-277.34"/>
</g>
</g>
</svg>
