<?xml version="1.0" encoding="UTF-8" standalone="no"?>
<!DOCTYPE svg PUBLIC "-//W3C//DTD SVG 1.1//EN"
 "http://www.w3.org/Graphics/SVG/1.1/DTD/svg11.dtd">
<!-- Generated by graphviz version 2.38.0 (20140413.2041)
 -->
<!-- Title: ecs::network::UDPServer Pages: 1 -->
<svg width="399pt" height="376pt"
 viewBox="0.00 0.00 399.00 376.00" xmlns="http://www.w3.org/2000/svg" xmlns:xlink="http://www.w3.org/1999/xlink">
<g id="graph0" class="graph" transform="scale(1 1) rotate(0) translate(4 372)">
<title>ecs::network::UDPServer</title>
<!-- Node1 -->
<g id="node1" class="node"><title>Node1</title>
<polygon fill="#bfbfbf" stroke="black" points="117.5,-0.5 117.5,-101.5 252.5,-101.5 252.5,-0.5 117.5,-0.5"/>
<text text-anchor="middle" x="185" y="-89.5" font-family="Helvetica,sans-Serif" font-size="10.00">ecs::network::UDPServer</text>
<polyline fill="none" stroke="black" points="117.5,-82.5 252.5,-82.5 "/>
<text text-anchor="middle" x="185" y="-70.5" font-family="Helvetica,sans-Serif" font-size="10.00"> </text>
<polyline fill="none" stroke="black" points="117.5,-63.5 252.5,-63.5 "/>
<text text-anchor="start" x="125.5" y="-51.5" font-family="Helvetica,sans-Serif" font-size="10.00">+ UDPServer()</text>
<text text-anchor="start" x="125.5" y="-40.5" font-family="Helvetica,sans-Serif" font-size="10.00">+ handle_receive()</text>
<text text-anchor="start" x="125.5" y="-29.5" font-family="Helvetica,sans-Serif" font-size="10.00">+ getSession()</text>
<text text-anchor="start" x="125.5" y="-18.5" font-family="Helvetica,sans-Serif" font-size="10.00">+ getSession()</text>
<text text-anchor="start" x="125.5" y="-7.5" font-family="Helvetica,sans-Serif" font-size="10.00">+ send()</text>
</g>
<!-- Node2 -->
<g id="node2" class="node"><title>Node2</title>
<g id="a_node2"><a xlink:href="classecs_1_1network_1_1AUDPNetwork.html" target="_top" xlink:title="{ecs::network::AUDPNetwork\n||+ AUDPNetwork()\l+ AUDPNetwork()\l+ handle_receive()\l+ send()\l+ run()\l+ do_receive()\l}">
<polygon fill="none" stroke="black" points="110.5,-139.5 110.5,-251.5 259.5,-251.5 259.5,-139.5 110.5,-139.5"/>
<text text-anchor="middle" x="185" y="-239.5" font-family="Helvetica,sans-Serif" font-size="10.00">ecs::network::AUDPNetwork</text>
<polyline fill="none" stroke="black" points="110.5,-232.5 259.5,-232.5 "/>
<text text-anchor="middle" x="185" y="-220.5" font-family="Helvetica,sans-Serif" font-size="10.00"> </text>
<polyline fill="none" stroke="black" points="110.5,-213.5 259.5,-213.5 "/>
<text text-anchor="start" x="118.5" y="-201.5" font-family="Helvetica,sans-Serif" font-size="10.00">+ AUDPNetwork()</text>
<text text-anchor="start" x="118.5" y="-190.5" font-family="Helvetica,sans-Serif" font-size="10.00">+ AUDPNetwork()</text>
<text text-anchor="start" x="118.5" y="-179.5" font-family="Helvetica,sans-Serif" font-size="10.00">+ handle_receive()</text>
<text text-anchor="start" x="118.5" y="-168.5" font-family="Helvetica,sans-Serif" font-size="10.00">+ send()</text>
<text text-anchor="start" x="118.5" y="-157.5" font-family="Helvetica,sans-Serif" font-size="10.00">+ run()</text>
<text text-anchor="start" x="118.5" y="-146.5" font-family="Helvetica,sans-Serif" font-size="10.00">+ do_receive()</text>
</a>
</g>
</g>
<!-- Node2&#45;&gt;Node1 -->
<g id="edge1" class="edge"><title>Node2&#45;&gt;Node1</title>
<path fill="none" stroke="midnightblue" d="M185,-129.134C185,-119.957 185,-110.65 185,-101.826"/>
<polygon fill="none" stroke="midnightblue" points="181.5,-129.406 185,-139.406 188.5,-129.406 181.5,-129.406"/>
</g>
<!-- Node3 -->
<g id="node3" class="node"><title>Node3</title>
<polygon fill="none" stroke="#bfbfbf" points="0,-310.5 0,-367.5 48,-367.5 48,-310.5 0,-310.5"/>
<text text-anchor="middle" x="24" y="-355.5" font-family="Helvetica,sans-Serif" font-size="10.00">socket</text>
<polyline fill="none" stroke="#bfbfbf" points="0,-348.5 48,-348.5 "/>
<text text-anchor="middle" x="24" y="-336.5" font-family="Helvetica,sans-Serif" font-size="10.00"> </text>
<polyline fill="none" stroke="#bfbfbf" points="0,-329.5 48,-329.5 "/>
<text text-anchor="middle" x="24" y="-317.5" font-family="Helvetica,sans-Serif" font-size="10.00"> </text>
</g>
<!-- Node3&#45;&gt;Node2 -->
<g id="edge2" class="edge"><title>Node3&#45;&gt;Node2</title>
<path fill="none" stroke="#404040" d="M32.6272,-310.214C37.8021,-296.894 45.4579,-281.399 56,-270 68.4903,-256.495 84.042,-244.807 99.9776,-234.974"/>
<polygon fill="none" stroke="#404040" points="100.142,-234.877 103.276,-228.383 110.477,-228.779 107.342,-235.273 100.142,-234.877"/>
<text text-anchor="middle" x="80.5" y="-278.5" font-family="Helvetica,sans-Serif" font-size="10.00"> #_socket</text>
</g>
<!-- Node4 -->
<g id="node4" class="node"><title>Node4</title>
<polygon fill="none" stroke="#bfbfbf" points="66,-310.5 66,-367.5 132,-367.5 132,-310.5 66,-310.5"/>
<text text-anchor="middle" x="99" y="-355.5" font-family="Helvetica,sans-Serif" font-size="10.00">io_context</text>
<polyline fill="none" stroke="#bfbfbf" points="66,-348.5 132,-348.5 "/>
<text text-anchor="middle" x="99" y="-336.5" font-family="Helvetica,sans-Serif" font-size="10.00"> </text>
<polyline fill="none" stroke="#bfbfbf" points="66,-329.5 132,-329.5 "/>
<text text-anchor="middle" x="99" y="-317.5" font-family="Helvetica,sans-Serif" font-size="10.00"> </text>
</g>
<!-- Node4&#45;&gt;Node2 -->
<g id="edge3" class="edge"><title>Node4&#45;&gt;Node2</title>
<path fill="none" stroke="#404040" d="M103.139,-310.371C105.84,-297.54 110.175,-282.414 117,-270 118.556,-267.17 120.244,-264.363 122.037,-261.592"/>
<polygon fill="none" stroke="#404040" points="122.058,-261.563 122.222,-254.353 128.94,-251.732 128.776,-258.941 122.058,-261.563"/>
<text text-anchor="middle" x="148.5" y="-278.5" font-family="Helvetica,sans-Serif" font-size="10.00"> #_ioContext</text>
</g>
<!-- Node5 -->
<g id="node5" class="node"><title>Node5</title>
<polygon fill="none" stroke="#bfbfbf" points="164,-310.5 164,-367.5 202,-367.5 202,-310.5 164,-310.5"/>
<text text-anchor="middle" x="183" y="-355.5" font-family="Helvetica,sans-Serif" font-size="10.00">char</text>
<polyline fill="none" stroke="#bfbfbf" points="164,-348.5 202,-348.5 "/>
<text text-anchor="middle" x="183" y="-336.5" font-family="Helvetica,sans-Serif" font-size="10.00"> </text>
<polyline fill="none" stroke="#bfbfbf" points="164,-329.5 202,-329.5 "/>
<text text-anchor="middle" x="183" y="-317.5" font-family="Helvetica,sans-Serif" font-size="10.00"> </text>
</g>
<!-- Node5&#45;&gt;Node2 -->
<g id="edge4" class="edge"><title>Node5&#45;&gt;Node2</title>
<path fill="none" stroke="#404040" d="M183.39,-310.381C183.579,-297.051 183.814,-280.416 184.046,-264.014"/>
<polygon fill="none" stroke="#404040" points="184.052,-263.574 180.137,-257.518 184.222,-251.575 188.136,-257.631 184.052,-263.574"/>
<text text-anchor="middle" x="203.5" y="-278.5" font-family="Helvetica,sans-Serif" font-size="10.00"> #data_</text>
</g>
<!-- Node6 -->
<g id="node6" class="node"><title>Node6</title>
<polygon fill="none" stroke="#bfbfbf" points="220.5,-310.5 220.5,-367.5 279.5,-367.5 279.5,-310.5 220.5,-310.5"/>
<text text-anchor="middle" x="250" y="-355.5" font-family="Helvetica,sans-Serif" font-size="10.00">endpoint</text>
<polyline fill="none" stroke="#bfbfbf" points="220.5,-348.5 279.5,-348.5 "/>
<text text-anchor="middle" x="250" y="-336.5" font-family="Helvetica,sans-Serif" font-size="10.00"> </text>
<polyline fill="none" stroke="#bfbfbf" points="220.5,-329.5 279.5,-329.5 "/>
<text text-anchor="middle" x="250" y="-317.5" font-family="Helvetica,sans-Serif" font-size="10.00"> </text>
</g>
<!-- Node6&#45;&gt;Node2 -->
<g id="edge5" class="edge"><title>Node6&#45;&gt;Node2</title>
<path fill="none" stroke="#404040" d="M242,-310.404C238.026,-297.859 232.828,-282.957 227,-270 225.898,-267.55 224.739,-265.074 223.537,-262.59"/>
<polygon fill="none" stroke="#404040" points="223.443,-262.405 217.168,-258.852 218.034,-251.693 224.309,-255.246 223.443,-262.405"/>
<text text-anchor="middle" x="284.5" y="-278.5" font-family="Helvetica,sans-Serif" font-size="10.00"> #sender_endpoint_</text>
</g>
<!-- Node7 -->
<g id="node7" class="node"><title>Node7</title>
<polygon fill="none" stroke="#bfbfbf" points="347,-310.5 347,-367.5 391,-367.5 391,-310.5 347,-310.5"/>
<text text-anchor="middle" x="369" y="-355.5" font-family="Helvetica,sans-Serif" font-size="10.00">string</text>
<polyline fill="none" stroke="#bfbfbf" points="347,-348.5 391,-348.5 "/>
<text text-anchor="middle" x="369" y="-336.5" font-family="Helvetica,sans-Serif" font-size="10.00"> </text>
<polyline fill="none" stroke="#bfbfbf" points="347,-329.5 391,-329.5 "/>
<text text-anchor="middle" x="369" y="-317.5" font-family="Helvetica,sans-Serif" font-size="10.00"> </text>
</g>
<!-- Node7&#45;&gt;Node2 -->
<g id="edge6" class="edge"><title>Node7&#45;&gt;Node2</title>
<path fill="none" stroke="#404040" d="M360.826,-310.24C355.732,-296.766 348.012,-281.129 337,-270 318.579,-251.383 294.5,-236.808 270.958,-225.722"/>
<polygon fill="none" stroke="#404040" points="270.779,-225.641 263.666,-226.825 259.837,-220.714 266.95,-219.53 270.779,-225.641"/>
<text text-anchor="middle" x="371.5" y="-284" font-family="Helvetica,sans-Serif" font-size="10.00"> #_port</text>
<text text-anchor="middle" x="371.5" y="-273" font-family="Helvetica,sans-Serif" font-size="10.00">#_ip</text>
</g>
</g>
</svg>
