<?xml version="1.0" encoding="UTF-8" standalone="no"?>
<!DOCTYPE svg PUBLIC "-//W3C//DTD SVG 1.1//EN"
 "http://www.w3.org/Graphics/SVG/1.1/DTD/svg11.dtd">
<!-- Generated by graphviz version 2.38.0 (20140413.2041)
 -->
<!-- Title: ecs::system::MovementSystem Pages: 1 -->
<!--zoomable 354 -->
<svg id="main" version="1.1" xmlns="http://www.w3.org/2000/svg" xmlns:xlink="http://www.w3.org/1999/xlink" xml:space="preserve" onload="init(evt)">
<style type="text/css"><![CDATA[
.edge:hover path { stroke: red; }
.edge:hover polygon { stroke: red; fill: red; }
]]></style>
<script type="text/javascript"><![CDATA[
var edges = document.getElementsByTagName('g');
if (edges && edges.length) {
  for (var i=0;i<edges.length;i++) {
    if (edges[i].id.substr(0,4)=='edge') {
      edges[i].setAttribute('class','edge');
    }
  }
}
]]></script>
        <defs>
                <circle id="rim" cx="0" cy="0" r="7"/>
                <circle id="rim2" cx="0" cy="0" r="3.5"/>
                <g id="zoomPlus">
                        <use xlink:href="#rim" fill="#404040">
                                <set attributeName="fill" to="#808080" begin="zoomplus.mouseover" end="zoomplus.mouseout"/>
                        </use>
                        <path d="M-4,0h8M0,-4v8" fill="none" stroke="white" stroke-width="1.5" pointer-events="none"/>
                </g>
                <g id="zoomMin">
                        <use xlink:href="#rim" fill="#404040">
                                <set attributeName="fill" to="#808080" begin="zoomminus.mouseover" end="zoomminus.mouseout"/>
                        </use>
                        <path d="M-4,0h8" fill="none" stroke="white" stroke-width="1.5" pointer-events="none"/>
                </g>
                <g id="dirArrow">
                        <path fill="none" stroke="white" stroke-width="1.5" d="M0,-3.0v7 M-2.5,-0.5L0,-3.0L2.5,-0.5"/>
                </g>
               <g id="resetDef">
                       <use xlink:href="#rim2" fill="#404040">
                               <set attributeName="fill" to="#808080" begin="reset.mouseover" end="reset.mouseout"/>
                       </use>
               </g>
        </defs>

<script type="text/javascript">
var viewWidth = 554;
var viewHeight = 354;
var sectionId = 'dynsection-1';
</script>
<script xlink:href="svgpan.js"/>
<svg id="graph" class="graph">
<g id="viewport">
<title>ecs::system::MovementSystem</title>
<!-- Node1 -->
<g id="node1" class="node"><title>Node1</title>
<polygon fill="#bfbfbf" stroke="black" points="206.5,-0.5 206.5,-123.5 374.5,-123.5 374.5,-0.5 206.5,-0.5"/>
<text text-anchor="middle" x="290.5" y="-111.5" font-family="Helvetica,sans-Serif" font-size="10.00">ecs::system::MovementSystem</text>
<polyline fill="none" stroke="black" points="206.5,-104.5 374.5,-104.5 "/>
<text text-anchor="middle" x="290.5" y="-92.5" font-family="Helvetica,sans-Serif" font-size="10.00"> </text>
<polyline fill="none" stroke="black" points="206.5,-85.5 374.5,-85.5 "/>
<text text-anchor="start" x="214.5" y="-73.5" font-family="Helvetica,sans-Serif" font-size="10.00">+ MovementSystem()</text>
<text text-anchor="start" x="214.5" y="-62.5" font-family="Helvetica,sans-Serif" font-size="10.00">+ ~MovementSystem()</text>
<text text-anchor="start" x="214.5" y="-51.5" font-family="Helvetica,sans-Serif" font-size="10.00">+ isColliding()</text>
<text text-anchor="start" x="214.5" y="-40.5" font-family="Helvetica,sans-Serif" font-size="10.00">+ getNextPos()</text>
<text text-anchor="start" x="214.5" y="-29.5" font-family="Helvetica,sans-Serif" font-size="10.00">+ updateAll()</text>
<text text-anchor="start" x="214.5" y="-18.5" font-family="Helvetica,sans-Serif" font-size="10.00">+ update()</text>
<text text-anchor="start" x="214.5" y="-7.5" font-family="Helvetica,sans-Serif" font-size="10.00">+ deleteIfOutOfWindow()</text>
</g>
<!-- Node2 -->
<g id="node2" class="node"><title>Node2</title>
<g id="a_node2"><a xlink:href="classecs_1_1system_1_1ASystem.html" target="_top" xlink:title="{ecs::system::ASystem\n||+ ASystem()\l+ ~ASystem()\l}">
<polygon fill="none" stroke="black" points="228.5,-161.5 228.5,-229.5 352.5,-229.5 352.5,-161.5 228.5,-161.5"/>
<text text-anchor="middle" x="290.5" y="-217.5" font-family="Helvetica,sans-Serif" font-size="10.00">ecs::system::ASystem</text>
<polyline fill="none" stroke="black" points="228.5,-210.5 352.5,-210.5 "/>
<text text-anchor="middle" x="290.5" y="-198.5" font-family="Helvetica,sans-Serif" font-size="10.00"> </text>
<polyline fill="none" stroke="black" points="228.5,-191.5 352.5,-191.5 "/>
<text text-anchor="start" x="236.5" y="-179.5" font-family="Helvetica,sans-Serif" font-size="10.00">+ ASystem()</text>
<text text-anchor="start" x="236.5" y="-168.5" font-family="Helvetica,sans-Serif" font-size="10.00">+ ~ASystem()</text>
</a>
</g>
</g>
<!-- Node2&#45;&gt;Node1 -->
<g id="edge1" class="edge"><title>Node2&#45;&gt;Node1</title>
<path fill="none" stroke="midnightblue" d="M290.5,-151.248C290.5,-142.389 290.5,-132.91 290.5,-123.572"/>
<polygon fill="none" stroke="midnightblue" points="287,-151.317 290.5,-161.317 294,-151.317 287,-151.317"/>
</g>
<!-- Node3 -->
<g id="node3" class="node"><title>Node3</title>
<g id="a_node3"><a xlink:href="classecs_1_1system_1_1ISystem.html" target="_top" xlink:title="{ecs::system::ISystem\n||+ update()\l}">
<polygon fill="none" stroke="black" points="0,-283 0,-340 119,-340 119,-283 0,-283"/>
<text text-anchor="middle" x="59.5" y="-328" font-family="Helvetica,sans-Serif" font-size="10.00">ecs::system::ISystem</text>
<polyline fill="none" stroke="black" points="0,-321 119,-321 "/>
<text text-anchor="middle" x="59.5" y="-309" font-family="Helvetica,sans-Serif" font-size="10.00"> </text>
<polyline fill="none" stroke="black" points="0,-302 119,-302 "/>
<text text-anchor="start" x="8" y="-290" font-family="Helvetica,sans-Serif" font-size="10.00">+ update()</text>
</a>
</g>
</g>
<!-- Node3&#45;&gt;Node2 -->
<g id="edge2" class="edge"><title>Node3&#45;&gt;Node2</title>
<path fill="none" stroke="midnightblue" d="M124.396,-278.473C156.893,-262.436 196.051,-243.111 228.183,-227.254"/>
<polygon fill="none" stroke="midnightblue" points="122.837,-275.34 115.419,-282.904 125.935,-281.617 122.837,-275.34"/>
</g>
<!-- Node4 -->
<g id="node4" class="node"><title>Node4</title>
<polygon fill="none" stroke="#bfbfbf" points="137.5,-277.5 137.5,-345.5 283.5,-345.5 283.5,-277.5 137.5,-277.5"/>
<text text-anchor="start" x="145.5" y="-333.5" font-family="Helvetica,sans-Serif" font-size="10.00">shared_ptr&lt; ecs::IManager</text>
<text text-anchor="middle" x="210.5" y="-322.5" font-family="Helvetica,sans-Serif" font-size="10.00">Wrapper &gt; &amp;</text>
<polyline fill="none" stroke="#bfbfbf" points="137.5,-315.5 283.5,-315.5 "/>
<text text-anchor="middle" x="210.5" y="-303.5" font-family="Helvetica,sans-Serif" font-size="10.00"> </text>
<polyline fill="none" stroke="#bfbfbf" points="137.5,-296.5 283.5,-296.5 "/>
<text text-anchor="middle" x="210.5" y="-284.5" font-family="Helvetica,sans-Serif" font-size="10.00"> </text>
</g>
<!-- Node4&#45;&gt;Node2 -->
<g id="edge3" class="edge"><title>Node4&#45;&gt;Node2</title>
<path fill="none" stroke="#404040" d="M229.588,-277.193C235.397,-267.596 241.977,-257.23 248.5,-248 250.498,-245.173 252.604,-242.302 254.766,-239.435"/>
<polygon fill="none" stroke="#404040" points="254.901,-239.261 255.416,-232.068 262.254,-229.777 261.738,-236.97 254.901,-239.261"/>
<text text-anchor="middle" x="298.5" y="-251" font-family="Helvetica,sans-Serif" font-size="10.00"> #_managerWrapper</text>
</g>
<!-- Node5 -->
<g id="node5" class="node"><title>Node5</title>
<polygon fill="none" stroke="#bfbfbf" points="302,-277.5 302,-345.5 439,-345.5 439,-277.5 302,-277.5"/>
<text text-anchor="start" x="310" y="-333.5" font-family="Helvetica,sans-Serif" font-size="10.00">shared_ptr&lt; ecs::entities</text>
<text text-anchor="middle" x="370.5" y="-322.5" font-family="Helvetica,sans-Serif" font-size="10.00">::IEntityFactory &gt; &amp;</text>
<polyline fill="none" stroke="#bfbfbf" points="302,-315.5 439,-315.5 "/>
<text text-anchor="middle" x="370.5" y="-303.5" font-family="Helvetica,sans-Serif" font-size="10.00"> </text>
<polyline fill="none" stroke="#bfbfbf" points="302,-296.5 439,-296.5 "/>
<text text-anchor="middle" x="370.5" y="-284.5" font-family="Helvetica,sans-Serif" font-size="10.00"> </text>
</g>
<!-- Node5&#45;&gt;Node2 -->
<g id="edge4" class="edge"><title>Node5&#45;&gt;Node2</title>
<path fill="none" stroke="#404040" d="M362.248,-277.23C358.903,-267.327 354.402,-256.785 348.5,-248 346.322,-244.758 343.894,-241.59 341.299,-238.521"/>
<polygon fill="none" stroke="#404040" points="341.237,-238.454 334.229,-236.755 333.101,-229.633 340.109,-231.331 341.237,-238.454"/>
<text text-anchor="middle" x="395" y="-251" font-family="Helvetica,sans-Serif" font-size="10.00"> #_entityFactory</text>
</g>
<!-- Node6 -->
<g id="node6" class="node"><title>Node6</title>
<polygon fill="none" stroke="#bfbfbf" points="457.5,-283 457.5,-340 533.5,-340 533.5,-283 457.5,-283"/>
<text text-anchor="middle" x="495.5" y="-328" font-family="Helvetica,sans-Serif" font-size="10.00">list&lt; int &gt; &amp;</text>
<polyline fill="none" stroke="#bfbfbf" points="457.5,-321 533.5,-321 "/>
<text text-anchor="middle" x="495.5" y="-309" font-family="Helvetica,sans-Serif" font-size="10.00"> </text>
<polyline fill="none" stroke="#bfbfbf" points="457.5,-302 533.5,-302 "/>
<text text-anchor="middle" x="495.5" y="-290" font-family="Helvetica,sans-Serif" font-size="10.00"> </text>
</g>
<!-- Node6&#45;&gt;Node2 -->
<g id="edge5" class="edge"><title>Node6&#45;&gt;Node2</title>
<path fill="none" stroke="#404040" d="M475.503,-282.969C465.532,-270.856 452.597,-257.299 438.5,-248 416.15,-233.257 389.112,-222.238 364.293,-214.259"/>
<polygon fill="none" stroke="#404040" points="364.166,-214.22 357.256,-216.281 352.696,-210.694 359.606,-208.634 364.166,-214.22"/>
<text text-anchor="middle" x="498.5" y="-251" font-family="Helvetica,sans-Serif" font-size="10.00"> #_entitiesToDelete</text>
</g>
</g>
</svg>
        <g id="navigator" transform="translate(0 0)" fill="#404254">
                <rect fill="#f2f5e9" fill-opacity="0.5" stroke="#606060" stroke-width=".5" x="0" y="0" width="60" height="60"/>
                <use id="zoomplus" xlink:href="#zoomPlus" x="17" y="9" onmousedown="handleZoom(evt,'in')"/>
                <use id="zoomminus" xlink:href="#zoomMin" x="42" y="9" onmousedown="handleZoom(evt,'out')"/>
                <use id="reset" xlink:href="#resetDef" x="30" y="36" onmousedown="handleReset()"/>
                <g id="arrowUp" xlink:href="#dirArrow" transform="translate(30 24)" onmousedown="handlePan(0,-1)">
                  <use xlink:href="#rim" fill="#404040">
                        <set attributeName="fill" to="#808080" begin="arrowUp.mouseover" end="arrowUp.mouseout"/>
                  </use>
                  <path fill="none" stroke="white" stroke-width="1.5" d="M0,-3.0v7 M-2.5,-0.5L0,-3.0L2.5,-0.5"/>
                </g>
                <g id="arrowRight" xlink:href="#dirArrow" transform="rotate(90) translate(36 -43)" onmousedown="handlePan(1,0)">
                  <use xlink:href="#rim" fill="#404040">
                        <set attributeName="fill" to="#808080" begin="arrowRight.mouseover" end="arrowRight.mouseout"/>
                  </use>
                  <path fill="none" stroke="white" stroke-width="1.5" d="M0,-3.0v7 M-2.5,-0.5L0,-3.0L2.5,-0.5"/>
                </g>
                <g id="arrowDown" xlink:href="#dirArrow" transform="rotate(180) translate(-30 -48)" onmousedown="handlePan(0,1)">
                  <use xlink:href="#rim" fill="#404040">
                        <set attributeName="fill" to="#808080" begin="arrowDown.mouseover" end="arrowDown.mouseout"/>
                  </use>
                  <path fill="none" stroke="white" stroke-width="1.5" d="M0,-3.0v7 M-2.5,-0.5L0,-3.0L2.5,-0.5"/>
                </g>
                <g id="arrowLeft" xlink:href="#dirArrow" transform="rotate(270) translate(-36 17)" onmousedown="handlePan(-1,0)">
                  <use xlink:href="#rim" fill="#404040">
                        <set attributeName="fill" to="#808080" begin="arrowLeft.mouseover" end="arrowLeft.mouseout"/>
                  </use>
                  <path fill="none" stroke="white" stroke-width="1.5" d="M0,-3.0v7 M-2.5,-0.5L0,-3.0L2.5,-0.5"/>
                </g>
        </g>
        <svg viewBox="0 0 15 15" width="100%" height="30px" preserveAspectRatio="xMaxYMin meet">
         <g id="arrow_out" transform="scale(0.3 0.3)">
          <a xlink:href="classecs_1_1system_1_1MovementSystem__coll__graph_org.svg" target="_base">
           <rect id="button" ry="5" rx="5" y="6" x="6" height="38" width="38"
                fill="#f2f5e9" fill-opacity="0.5" stroke="#606060" stroke-width="1.0"/>
           <path id="arrow"
             d="M 11.500037,31.436501 C 11.940474,20.09759 22.043105,11.32322 32.158766,21.979434 L 37.068811,17.246167 C 37.068811,17.246167 37.088388,32 37.088388,32 L 22.160133,31.978069 C 22.160133,31.978069 26.997745,27.140456 26.997745,27.140456 C 18.528582,18.264221 13.291696,25.230495 11.500037,31.436501 z"
             style="fill:#404040;"/>
          </a>
         </g>
        </svg>
</svg>
