<?xml version="1.0" encoding="UTF-8" standalone="no"?>
<!DOCTYPE svg PUBLIC "-//W3C//DTD SVG 1.1//EN"
 "http://www.w3.org/Graphics/SVG/1.1/DTD/svg11.dtd">
<!-- Generated by graphviz version 2.38.0 (20140413.2041)
 -->
<!-- Title: ecs::network::AUDPNetwork Pages: 1 -->
<svg width="292pt" height="314pt"
 viewBox="0.00 0.00 292.00 314.00" xmlns="http://www.w3.org/2000/svg" xmlns:xlink="http://www.w3.org/1999/xlink">
<g id="graph0" class="graph" transform="scale(1 1) rotate(0) translate(4 310)">
<title>ecs::network::AUDPNetwork</title>
<!-- Node1 -->
<g id="node1" class="node"><title>Node1</title>
<polygon fill="#bfbfbf" stroke="black" points="66,-138.5 66,-305.5 215,-305.5 215,-138.5 66,-138.5"/>
<text text-anchor="middle" x="140.5" y="-293.5" font-family="Helvetica,sans-Serif" font-size="10.00">ecs::network::AUDPNetwork</text>
<polyline fill="none" stroke="black" points="66,-286.5 215,-286.5 "/>
<text text-anchor="start" x="74" y="-274.5" font-family="Helvetica,sans-Serif" font-size="10.00"># _ioContext</text>
<text text-anchor="start" x="74" y="-263.5" font-family="Helvetica,sans-Serif" font-size="10.00"># _socket</text>
<text text-anchor="start" x="74" y="-252.5" font-family="Helvetica,sans-Serif" font-size="10.00"># sender_endpoint_</text>
<text text-anchor="start" x="74" y="-241.5" font-family="Helvetica,sans-Serif" font-size="10.00"># _ip</text>
<text text-anchor="start" x="74" y="-230.5" font-family="Helvetica,sans-Serif" font-size="10.00"># _port</text>
<text text-anchor="start" x="74" y="-219.5" font-family="Helvetica,sans-Serif" font-size="10.00"># data_</text>
<polyline fill="none" stroke="black" points="66,-212.5 215,-212.5 "/>
<text text-anchor="start" x="74" y="-200.5" font-family="Helvetica,sans-Serif" font-size="10.00">+ AUDPNetwork()</text>
<text text-anchor="start" x="74" y="-189.5" font-family="Helvetica,sans-Serif" font-size="10.00">+ AUDPNetwork()</text>
<text text-anchor="start" x="74" y="-178.5" font-family="Helvetica,sans-Serif" font-size="10.00">+ handle_receive()</text>
<text text-anchor="start" x="74" y="-167.5" font-family="Helvetica,sans-Serif" font-size="10.00">+ send()</text>
<text text-anchor="start" x="74" y="-156.5" font-family="Helvetica,sans-Serif" font-size="10.00">+ run()</text>
<text text-anchor="start" x="74" y="-145.5" font-family="Helvetica,sans-Serif" font-size="10.00">+ do_receive()</text>
</g>
<!-- Node2 -->
<g id="node2" class="node"><title>Node2</title>
<g id="a_node2"><a xlink:href="classecs_1_1network_1_1UDPClient.html" target="_top" xlink:title="{ecs::network::UDPClient\n||+ UDPClient()\l+ handle_receive()\l+ send()\l}">
<polygon fill="none" stroke="black" points="0,-11.5 0,-90.5 131,-90.5 131,-11.5 0,-11.5"/>
<text text-anchor="middle" x="65.5" y="-78.5" font-family="Helvetica,sans-Serif" font-size="10.00">ecs::network::UDPClient</text>
<polyline fill="none" stroke="black" points="0,-71.5 131,-71.5 "/>
<text text-anchor="middle" x="65.5" y="-59.5" font-family="Helvetica,sans-Serif" font-size="10.00"> </text>
<polyline fill="none" stroke="black" points="0,-52.5 131,-52.5 "/>
<text text-anchor="start" x="8" y="-40.5" font-family="Helvetica,sans-Serif" font-size="10.00">+ UDPClient()</text>
<text text-anchor="start" x="8" y="-29.5" font-family="Helvetica,sans-Serif" font-size="10.00">+ handle_receive()</text>
<text text-anchor="start" x="8" y="-18.5" font-family="Helvetica,sans-Serif" font-size="10.00">+ send()</text>
</a>
</g>
</g>
<!-- Node1&#45;&gt;Node2 -->
<g id="edge1" class="edge"><title>Node1&#45;&gt;Node2</title>
<path fill="none" stroke="midnightblue" d="M99.6985,-129.061C93.6754,-115.489 87.7669,-102.175 82.6008,-90.5337"/>
<polygon fill="none" stroke="midnightblue" points="96.6233,-130.76 103.879,-138.48 103.022,-127.92 96.6233,-130.76"/>
</g>
<!-- Node3 -->
<g id="node3" class="node"><title>Node3</title>
<g id="a_node3"><a xlink:href="classecs_1_1network_1_1UDPServer.html" target="_top" xlink:title="{ecs::network::UDPServer\n||+ UDPServer()\l+ handle_receive()\l+ getSession()\l+ getSession()\l+ send()\l}">
<polygon fill="none" stroke="black" points="149,-0.5 149,-101.5 284,-101.5 284,-0.5 149,-0.5"/>
<text text-anchor="middle" x="216.5" y="-89.5" font-family="Helvetica,sans-Serif" font-size="10.00">ecs::network::UDPServer</text>
<polyline fill="none" stroke="black" points="149,-82.5 284,-82.5 "/>
<text text-anchor="middle" x="216.5" y="-70.5" font-family="Helvetica,sans-Serif" font-size="10.00"> </text>
<polyline fill="none" stroke="black" points="149,-63.5 284,-63.5 "/>
<text text-anchor="start" x="157" y="-51.5" font-family="Helvetica,sans-Serif" font-size="10.00">+ UDPServer()</text>
<text text-anchor="start" x="157" y="-40.5" font-family="Helvetica,sans-Serif" font-size="10.00">+ handle_receive()</text>
<text text-anchor="start" x="157" y="-29.5" font-family="Helvetica,sans-Serif" font-size="10.00">+ getSession()</text>
<text text-anchor="start" x="157" y="-18.5" font-family="Helvetica,sans-Serif" font-size="10.00">+ getSession()</text>
<text text-anchor="start" x="157" y="-7.5" font-family="Helvetica,sans-Serif" font-size="10.00">+ send()</text>
</a>
</g>
</g>
<!-- Node1&#45;&gt;Node3 -->
<g id="edge2" class="edge"><title>Node1&#45;&gt;Node3</title>
<path fill="none" stroke="midnightblue" d="M181.713,-129.354C185.984,-119.858 190.2,-110.483 194.144,-101.713"/>
<polygon fill="none" stroke="midnightblue" points="178.519,-127.925 177.609,-138.48 184.903,-130.796 178.519,-127.925"/>
</g>
</g>
</svg>
