<?xml version="1.0" encoding="UTF-8" standalone="no"?>
<!DOCTYPE svg PUBLIC "-//W3C//DTD SVG 1.1//EN"
 "http://www.w3.org/Graphics/SVG/1.1/DTD/svg11.dtd">
<!-- Generated by graphviz version 2.38.0 (20140413.2041)
 -->
<!-- Title: ecs::network::PacketManager Pages: 1 -->
<!--zoomable 1142 -->
<svg id="main" version="1.1" xmlns="http://www.w3.org/2000/svg" xmlns:xlink="http://www.w3.org/1999/xlink" xml:space="preserve" onload="init(evt)">
<style type="text/css"><![CDATA[
.edge:hover path { stroke: red; }
.edge:hover polygon { stroke: red; fill: red; }
]]></style>
<script type="text/javascript"><![CDATA[
var edges = document.getElementsByTagName('g');
if (edges && edges.length) {
  for (var i=0;i<edges.length;i++) {
    if (edges[i].id.substr(0,4)=='edge') {
      edges[i].setAttribute('class','edge');
    }
  }
}
]]></script>
        <defs>
                <circle id="rim" cx="0" cy="0" r="7"/>
                <circle id="rim2" cx="0" cy="0" r="3.5"/>
                <g id="zoomPlus">
                        <use xlink:href="#rim" fill="#404040">
                                <set attributeName="fill" to="#808080" begin="zoomplus.mouseover" end="zoomplus.mouseout"/>
                        </use>
                        <path d="M-4,0h8M0,-4v8" fill="none" stroke="white" stroke-width="1.5" pointer-events="none"/>
                </g>
                <g id="zoomMin">
                        <use xlink:href="#rim" fill="#404040">
                                <set attributeName="fill" to="#808080" begin="zoomminus.mouseover" end="zoomminus.mouseout"/>
                        </use>
                        <path d="M-4,0h8" fill="none" stroke="white" stroke-width="1.5" pointer-events="none"/>
                </g>
                <g id="dirArrow">
                        <path fill="none" stroke="white" stroke-width="1.5" d="M0,-3.0v7 M-2.5,-0.5L0,-3.0L2.5,-0.5"/>
                </g>
               <g id="resetDef">
                       <use xlink:href="#rim2" fill="#404040">
                               <set attributeName="fill" to="#808080" begin="reset.mouseover" end="reset.mouseout"/>
                       </use>
               </g>
        </defs>

<script type="text/javascript">
var viewWidth = 1668;
var viewHeight = 1142;
var sectionId = 'dynsection-0';
</script>
<script xlink:href="svgpan.js"/>
<svg id="graph" class="graph">
<g id="viewport">
<title>ecs::network::PacketManager</title>
<!-- Node1 -->
<g id="node1" class="node"><title>Node1</title>
<polygon fill="#bfbfbf" stroke="black" points="108,-0.5 108,-310.5 264,-310.5 264,-0.5 108,-0.5"/>
<text text-anchor="middle" x="186" y="-298.5" font-family="Helvetica,sans-Serif" font-size="10.00">ecs::network::PacketManager</text>
<polyline fill="none" stroke="black" points="108,-291.5 264,-291.5 "/>
<text text-anchor="middle" x="186" y="-279.5" font-family="Helvetica,sans-Serif" font-size="10.00"> </text>
<polyline fill="none" stroke="black" points="108,-272.5 264,-272.5 "/>
<text text-anchor="start" x="116" y="-260.5" font-family="Helvetica,sans-Serif" font-size="10.00">+ PacketManager()</text>
<text text-anchor="start" x="116" y="-249.5" font-family="Helvetica,sans-Serif" font-size="10.00">+ PacketManager()</text>
<text text-anchor="start" x="116" y="-238.5" font-family="Helvetica,sans-Serif" font-size="10.00">+ ~PacketManager()</text>
<text text-anchor="start" x="116" y="-227.5" font-family="Helvetica,sans-Serif" font-size="10.00">+ clear()</text>
<text text-anchor="start" x="116" y="-216.5" font-family="Helvetica,sans-Serif" font-size="10.00">+ setCmd()</text>
<text text-anchor="start" x="116" y="-205.5" font-family="Helvetica,sans-Serif" font-size="10.00">+ setRes()</text>
<text text-anchor="start" x="116" y="-194.5" font-family="Helvetica,sans-Serif" font-size="10.00">+ setJoinRoom()</text>
<text text-anchor="start" x="116" y="-183.5" font-family="Helvetica,sans-Serif" font-size="10.00">+ addEntity()</text>
<text text-anchor="start" x="116" y="-172.5" font-family="Helvetica,sans-Serif" font-size="10.00">+ addEntity()</text>
<text text-anchor="start" x="116" y="-161.5" font-family="Helvetica,sans-Serif" font-size="10.00">+ addPosition()</text>
<text text-anchor="start" x="116" y="-150.5" font-family="Helvetica,sans-Serif" font-size="10.00">+ addRotation()</text>
<text text-anchor="start" x="116" y="-139.5" font-family="Helvetica,sans-Serif" font-size="10.00">+ addRoom()</text>
<text text-anchor="start" x="116" y="-128.5" font-family="Helvetica,sans-Serif" font-size="10.00">+ isSuccessful()</text>
<text text-anchor="start" x="116" y="-117.5" font-family="Helvetica,sans-Serif" font-size="10.00">+ getCmd()</text>
<text text-anchor="start" x="116" y="-106.5" font-family="Helvetica,sans-Serif" font-size="10.00">+ getIsReady()</text>
<text text-anchor="start" x="116" y="-95.5" font-family="Helvetica,sans-Serif" font-size="10.00">+ getJoinRoom()</text>
<text text-anchor="start" x="116" y="-84.5" font-family="Helvetica,sans-Serif" font-size="10.00">+ getListRooms()</text>
<text text-anchor="start" x="116" y="-73.5" font-family="Helvetica,sans-Serif" font-size="10.00">+ getListEntities()</text>
<text text-anchor="start" x="116" y="-62.5" font-family="Helvetica,sans-Serif" font-size="10.00">+ getRawData()</text>
<text text-anchor="start" x="116" y="-51.5" font-family="Helvetica,sans-Serif" font-size="10.00">+ getMagicNumber()</text>
<text text-anchor="start" x="116" y="-40.5" font-family="Helvetica,sans-Serif" font-size="10.00">+ setMsg()</text>
<text text-anchor="start" x="116" y="-29.5" font-family="Helvetica,sans-Serif" font-size="10.00">+ getMsg()</text>
<text text-anchor="start" x="116" y="-18.5" font-family="Helvetica,sans-Serif" font-size="10.00">+ getKeys()</text>
<text text-anchor="start" x="116" y="-7.5" font-family="Helvetica,sans-Serif" font-size="10.00">+ addKey()</text>
</g>
<!-- Node2 -->
<g id="node2" class="node"><title>Node2</title>
<polygon fill="none" stroke="#bfbfbf" points="108,-358.5 108,-426.5 264,-426.5 264,-358.5 108,-358.5"/>
<text text-anchor="start" x="116" y="-414.5" font-family="Helvetica,sans-Serif" font-size="10.00">ecs::network::PacketManager</text>
<text text-anchor="middle" x="186" y="-403.5" font-family="Helvetica,sans-Serif" font-size="10.00">::PacketData</text>
<polyline fill="none" stroke="#bfbfbf" points="108,-396.5 264,-396.5 "/>
<text text-anchor="middle" x="186" y="-384.5" font-family="Helvetica,sans-Serif" font-size="10.00"> </text>
<polyline fill="none" stroke="#bfbfbf" points="108,-377.5 264,-377.5 "/>
<text text-anchor="middle" x="186" y="-365.5" font-family="Helvetica,sans-Serif" font-size="10.00"> </text>
</g>
<!-- Node2&#45;&gt;Node1 -->
<g id="edge1" class="edge"><title>Node2&#45;&gt;Node1</title>
<path fill="none" stroke="#404040" d="M186,-358.329C186,-348.061 186,-335.977 186,-322.911"/>
<polygon fill="none" stroke="#404040" points="186,-322.66 182,-316.66 186,-310.66 190,-316.66 186,-322.66"/>
<text text-anchor="middle" x="208" y="-332" font-family="Helvetica,sans-Serif" font-size="10.00"> +packet</text>
</g>
<!-- Node3 -->
<g id="node3" class="node"><title>Node3</title>
<polygon fill="none" stroke="#bfbfbf" points="635,-474.5 635,-542.5 791,-542.5 791,-474.5 635,-474.5"/>
<text text-anchor="start" x="643" y="-530.5" font-family="Helvetica,sans-Serif" font-size="10.00">ecs::network::PacketManager</text>
<text text-anchor="middle" x="713" y="-519.5" font-family="Helvetica,sans-Serif" font-size="10.00">::Data</text>
<polyline fill="none" stroke="#bfbfbf" points="635,-512.5 791,-512.5 "/>
<text text-anchor="middle" x="713" y="-500.5" font-family="Helvetica,sans-Serif" font-size="10.00"> </text>
<polyline fill="none" stroke="#bfbfbf" points="635,-493.5 791,-493.5 "/>
<text text-anchor="middle" x="713" y="-481.5" font-family="Helvetica,sans-Serif" font-size="10.00"> </text>
</g>
<!-- Node3&#45;&gt;Node2 -->
<g id="edge2" class="edge"><title>Node3&#45;&gt;Node2</title>
<path fill="none" stroke="#404040" d="M634.956,-490.618C539.278,-469.921 377.433,-434.911 276.427,-413.061"/>
<polygon fill="none" stroke="#404040" points="276.148,-413.001 269.438,-415.642 264.419,-410.463 271.129,-407.823 276.148,-413.001"/>
<text text-anchor="middle" x="483" y="-448" font-family="Helvetica,sans-Serif" font-size="10.00"> +data</text>
</g>
<!-- Node4 -->
<g id="node4" class="node"><title>Node4</title>
<polygon fill="none" stroke="#bfbfbf" points="996,-596 996,-653 1096,-653 1096,-596 996,-596"/>
<text text-anchor="middle" x="1046" y="-641" font-family="Helvetica,sans-Serif" font-size="10.00">anonymous:+@8</text>
<polyline fill="none" stroke="#bfbfbf" points="996,-634 1096,-634 "/>
<text text-anchor="middle" x="1046" y="-622" font-family="Helvetica,sans-Serif" font-size="10.00"> </text>
<polyline fill="none" stroke="#bfbfbf" points="996,-615 1096,-615 "/>
<text text-anchor="middle" x="1046" y="-603" font-family="Helvetica,sans-Serif" font-size="10.00"> </text>
</g>
<!-- Node4&#45;&gt;Node3 -->
<g id="edge3" class="edge"><title>Node4&#45;&gt;Node3</title>
<path fill="none" stroke="#404040" d="M1014.93,-595.967C999.404,-583.553 979.744,-569.746 960,-561 910.525,-539.083 851.284,-526.327 803.223,-518.993"/>
<polygon fill="none" stroke="#404040" points="803.131,-518.979 796.615,-522.069 791.257,-517.243 797.773,-514.153 803.131,-518.979"/>
<text text-anchor="middle" x="995" y="-564" font-family="Helvetica,sans-Serif" font-size="10.00"> +@8</text>
</g>
<!-- Node5 -->
<g id="node5" class="node"><title>Node5</title>
<polygon fill="none" stroke="#bfbfbf" points="635,-590.5 635,-658.5 791,-658.5 791,-590.5 635,-590.5"/>
<text text-anchor="start" x="643" y="-646.5" font-family="Helvetica,sans-Serif" font-size="10.00">ecs::network::PacketManager</text>
<text text-anchor="middle" x="713" y="-635.5" font-family="Helvetica,sans-Serif" font-size="10.00">::Entities</text>
<polyline fill="none" stroke="#bfbfbf" points="635,-628.5 791,-628.5 "/>
<text text-anchor="middle" x="713" y="-616.5" font-family="Helvetica,sans-Serif" font-size="10.00"> </text>
<polyline fill="none" stroke="#bfbfbf" points="635,-609.5 791,-609.5 "/>
<text text-anchor="middle" x="713" y="-597.5" font-family="Helvetica,sans-Serif" font-size="10.00"> </text>
</g>
<!-- Node5&#45;&gt;Node3 -->
<g id="edge4" class="edge"><title>Node5&#45;&gt;Node3</title>
<path fill="none" stroke="#404040" d="M713,-590.22C713,-579.099 713,-566.512 713,-554.642"/>
<polygon fill="none" stroke="#404040" points="713,-554.624 709,-548.624 713,-542.624 717,-548.624 713,-554.624"/>
<text text-anchor="middle" x="739" y="-564" font-family="Helvetica,sans-Serif" font-size="10.00"> +_entities</text>
</g>
<!-- Node6 -->
<g id="node6" class="node"><title>Node6</title>
<polygon fill="none" stroke="#bfbfbf" points="177,-1076.5 177,-1133.5 215,-1133.5 215,-1076.5 177,-1076.5"/>
<text text-anchor="middle" x="196" y="-1121.5" font-family="Helvetica,sans-Serif" font-size="10.00">char</text>
<polyline fill="none" stroke="#bfbfbf" points="177,-1114.5 215,-1114.5 "/>
<text text-anchor="middle" x="196" y="-1102.5" font-family="Helvetica,sans-Serif" font-size="10.00"> </text>
<polyline fill="none" stroke="#bfbfbf" points="177,-1095.5 215,-1095.5 "/>
<text text-anchor="middle" x="196" y="-1083.5" font-family="Helvetica,sans-Serif" font-size="10.00"> </text>
</g>
<!-- Node6&#45;&gt;Node2 -->
<g id="edge34" class="edge"><title>Node6&#45;&gt;Node2</title>
<path fill="none" stroke="#404040" d="M176.85,-1100.72C127.531,-1091.06 0,-1057.92 0,-973.5 0,-973.5 0,-973.5 0,-507.5 0,-457.903 48.67,-429.217 96.2173,-413.026"/>
<polygon fill="none" stroke="#404040" points="96.5007,-412.936 100.993,-407.295 107.928,-409.272 103.435,-414.913 96.5007,-412.936"/>
<text text-anchor="middle" x="26" y="-709" font-family="Helvetica,sans-Serif" font-size="10.00"> +rawData</text>
</g>
<!-- Node6&#45;&gt;Node3 -->
<g id="edge17" class="edge"><title>Node6&#45;&gt;Node3</title>
<path fill="none" stroke="#404040" d="M176.966,-1095.62C141.082,-1078.38 67,-1035.3 67,-973.5 67,-973.5 67,-973.5 67,-623.5 67,-561.784 130.325,-572.286 191,-561 340.848,-533.127 517.886,-519.687 622.507,-513.722"/>
<polygon fill="none" stroke="#404040" points="622.606,-513.716 628.374,-509.388 634.588,-513.048 628.82,-517.376 622.606,-513.716"/>
<text text-anchor="middle" x="86" y="-796" font-family="Helvetica,sans-Serif" font-size="10.00"> +_msg</text>
</g>
<!-- Node6&#45;&gt;Node5 -->
<g id="edge5" class="edge"><title>Node6&#45;&gt;Node5</title>
<path fill="none" stroke="#404040" d="M215.334,-1101.1C281.33,-1090.86 496.321,-1054.36 545,-1007 596.992,-956.413 565.168,-917.99 593,-851 607.764,-815.464 657.658,-724.478 688.267,-669.553"/>
<polygon fill="none" stroke="#404040" points="688.451,-669.222 687.883,-662.033 694.301,-658.744 694.869,-665.933 688.451,-669.222"/>
<text text-anchor="middle" x="608.5" y="-883" font-family="Helvetica,sans-Serif" font-size="10.00"> +size</text>
</g>
<!-- Node7 -->
<g id="node7" class="node"><title>Node7</title>
<g id="a_node7"><a xlink:href="structecs_1_1network_1_1PacketManager_1_1Entity.html" target="_top" xlink:title="{ecs::network::PacketManager\l::Entity\n||}">
<polygon fill="none" stroke="black" points="712,-764.5 712,-832.5 868,-832.5 868,-764.5 712,-764.5"/>
<text text-anchor="start" x="720" y="-820.5" font-family="Helvetica,sans-Serif" font-size="10.00">ecs::network::PacketManager</text>
<text text-anchor="middle" x="790" y="-809.5" font-family="Helvetica,sans-Serif" font-size="10.00">::Entity</text>
<polyline fill="none" stroke="black" points="712,-802.5 868,-802.5 "/>
<text text-anchor="middle" x="790" y="-790.5" font-family="Helvetica,sans-Serif" font-size="10.00"> </text>
<polyline fill="none" stroke="black" points="712,-783.5 868,-783.5 "/>
<text text-anchor="middle" x="790" y="-771.5" font-family="Helvetica,sans-Serif" font-size="10.00"> </text>
</a>
</g>
</g>
<!-- Node6&#45;&gt;Node7 -->
<g id="edge13" class="edge"><title>Node6&#45;&gt;Node7</title>
<path fill="none" stroke="#404040" d="M215.072,-1103.09C290.222,-1099.31 563.119,-1083.91 591,-1058 630.783,-1021.04 585.768,-984.388 614,-938 639.037,-896.862 681.044,-863.111 717.741,-839.229"/>
<polygon fill="none" stroke="#404040" points="717.802,-839.19 720.722,-832.596 727.932,-832.756 725.011,-839.349 717.802,-839.19"/>
<text text-anchor="middle" x="658.5" y="-970" font-family="Helvetica,sans-Serif" font-size="10.00"> +nbrComponents</text>
</g>
<!-- Node15 -->
<g id="node15" class="node"><title>Node15</title>
<polygon fill="none" stroke="#bfbfbf" points="148,-851.5 148,-919.5 304,-919.5 304,-851.5 148,-851.5"/>
<text text-anchor="start" x="156" y="-907.5" font-family="Helvetica,sans-Serif" font-size="10.00">ecs::network::PacketManager</text>
<text text-anchor="middle" x="226" y="-896.5" font-family="Helvetica,sans-Serif" font-size="10.00">::JoinRoom</text>
<polyline fill="none" stroke="#bfbfbf" points="148,-889.5 304,-889.5 "/>
<text text-anchor="middle" x="226" y="-877.5" font-family="Helvetica,sans-Serif" font-size="10.00"> </text>
<polyline fill="none" stroke="#bfbfbf" points="148,-870.5 304,-870.5 "/>
<text text-anchor="middle" x="226" y="-858.5" font-family="Helvetica,sans-Serif" font-size="10.00"> </text>
</g>
<!-- Node6&#45;&gt;Node15 -->
<g id="edge16" class="edge"><title>Node6&#45;&gt;Node15</title>
<path fill="none" stroke="#404040" d="M176.973,-1084.08C170.975,-1076.51 165.107,-1067.43 162,-1058 152.563,-1029.36 166.89,-952.219 174,-938 175.468,-935.065 177.168,-932.198 179.04,-929.415"/>
<polygon fill="none" stroke="#404040" points="179.159,-929.26 179.633,-922.064 186.457,-919.735 185.983,-926.93 179.159,-929.26"/>
<text text-anchor="middle" x="172" y="-1039" font-family="Helvetica,sans-Serif" font-size="10.00"> +id</text>
</g>
<!-- Node16 -->
<g id="node16" class="node"><title>Node16</title>
<polygon fill="none" stroke="#bfbfbf" points="95,-590.5 95,-658.5 251,-658.5 251,-590.5 95,-590.5"/>
<text text-anchor="start" x="103" y="-646.5" font-family="Helvetica,sans-Serif" font-size="10.00">ecs::network::PacketManager</text>
<text text-anchor="middle" x="173" y="-635.5" font-family="Helvetica,sans-Serif" font-size="10.00">::GetRooms</text>
<polyline fill="none" stroke="#bfbfbf" points="95,-628.5 251,-628.5 "/>
<text text-anchor="middle" x="173" y="-616.5" font-family="Helvetica,sans-Serif" font-size="10.00"> </text>
<polyline fill="none" stroke="#bfbfbf" points="95,-609.5 251,-609.5 "/>
<text text-anchor="middle" x="173" y="-597.5" font-family="Helvetica,sans-Serif" font-size="10.00"> </text>
</g>
<!-- Node6&#45;&gt;Node16 -->
<g id="edge19" class="edge"><title>Node6&#45;&gt;Node16</title>
<path fill="none" stroke="#404040" d="M176.99,-1086.1C169.334,-1078.09 160.93,-1068.16 155,-1058 122.35,-1002.03 118.587,-983.922 108,-920 102.989,-889.745 103.711,-881.365 108,-851 117.076,-786.747 140.017,-715.161 156.059,-670.236"/>
<polygon fill="none" stroke="#404040" points="156.094,-670.139 154.376,-663.135 160.18,-658.856 161.898,-665.859 156.094,-670.139"/>
<text text-anchor="middle" x="123.5" y="-883" font-family="Helvetica,sans-Serif" font-size="10.00"> +size</text>
</g>
<!-- Node17 -->
<g id="node17" class="node"><title>Node17</title>
<g id="a_node17"><a xlink:href="structecs_1_1network_1_1PacketManager_1_1Room.html" target="_top" xlink:title="{ecs::network::PacketManager\l::Room\n||}">
<polygon fill="none" stroke="black" points="307,-764.5 307,-832.5 463,-832.5 463,-764.5 307,-764.5"/>
<text text-anchor="start" x="315" y="-820.5" font-family="Helvetica,sans-Serif" font-size="10.00">ecs::network::PacketManager</text>
<text text-anchor="middle" x="385" y="-809.5" font-family="Helvetica,sans-Serif" font-size="10.00">::Room</text>
<polyline fill="none" stroke="black" points="307,-802.5 463,-802.5 "/>
<text text-anchor="middle" x="385" y="-790.5" font-family="Helvetica,sans-Serif" font-size="10.00"> </text>
<polyline fill="none" stroke="black" points="307,-783.5 463,-783.5 "/>
<text text-anchor="middle" x="385" y="-771.5" font-family="Helvetica,sans-Serif" font-size="10.00"> </text>
</a>
</g>
</g>
<!-- Node6&#45;&gt;Node17 -->
<g id="edge24" class="edge"><title>Node6&#45;&gt;Node17</title>
<path fill="none" stroke="#404040" d="M193.539,-1076.38C190.447,-1034.53 187.471,-957.848 205,-938 234.893,-904.152 267.261,-944.801 305,-920 332.91,-901.658 353.413,-869.85 366.672,-843.519"/>
<polygon fill="none" stroke="#404040" points="366.71,-843.439 365.706,-836.298 371.911,-832.625 372.915,-839.765 366.71,-843.439"/>
<text text-anchor="middle" x="240" y="-981" font-family="Helvetica,sans-Serif" font-size="10.00"> +nbPlayers</text>
<text text-anchor="middle" x="240" y="-970" font-family="Helvetica,sans-Serif" font-size="10.00">+id</text>
<text text-anchor="middle" x="240" y="-959" font-family="Helvetica,sans-Serif" font-size="10.00">+nbPlayerMax</text>
</g>
<!-- Node18 -->
<g id="node18" class="node"><title>Node18</title>
<g id="a_node18"><a xlink:href="structecs_1_1network_1_1PacketManager_1_1PlayerInfo.html" target="_top" xlink:title="{ecs::network::PacketManager\l::PlayerInfo\n||}">
<polygon fill="none" stroke="black" points="284,-938.5 284,-1006.5 440,-1006.5 440,-938.5 284,-938.5"/>
<text text-anchor="start" x="292" y="-994.5" font-family="Helvetica,sans-Serif" font-size="10.00">ecs::network::PacketManager</text>
<text text-anchor="middle" x="362" y="-983.5" font-family="Helvetica,sans-Serif" font-size="10.00">::PlayerInfo</text>
<polyline fill="none" stroke="black" points="284,-976.5 440,-976.5 "/>
<text text-anchor="middle" x="362" y="-964.5" font-family="Helvetica,sans-Serif" font-size="10.00"> </text>
<polyline fill="none" stroke="black" points="284,-957.5 440,-957.5 "/>
<text text-anchor="middle" x="362" y="-945.5" font-family="Helvetica,sans-Serif" font-size="10.00"> </text>
</a>
</g>
</g>
<!-- Node6&#45;&gt;Node18 -->
<g id="edge22" class="edge"><title>Node6&#45;&gt;Node18</title>
<path fill="none" stroke="#404040" d="M215.042,-1089.03C238.041,-1070.95 277.665,-1039.8 309.976,-1014.4"/>
<polygon fill="none" stroke="#404040" points="310.308,-1014.14 312.553,-1007.28 319.742,-1006.72 317.497,-1013.57 310.308,-1014.14"/>
<text text-anchor="middle" x="317.5" y="-1039" font-family="Helvetica,sans-Serif" font-size="10.00"> +pseudo</text>
</g>
<!-- Node22 -->
<g id="node22" class="node"><title>Node22</title>
<polygon fill="none" stroke="#bfbfbf" points="712,-938.5 712,-1006.5 868,-1006.5 868,-938.5 712,-938.5"/>
<text text-anchor="start" x="720" y="-994.5" font-family="Helvetica,sans-Serif" font-size="10.00">ecs::network::PacketManager</text>
<text text-anchor="middle" x="790" y="-983.5" font-family="Helvetica,sans-Serif" font-size="10.00">::KeysPressed</text>
<polyline fill="none" stroke="#bfbfbf" points="712,-976.5 868,-976.5 "/>
<text text-anchor="middle" x="790" y="-964.5" font-family="Helvetica,sans-Serif" font-size="10.00"> </text>
<polyline fill="none" stroke="#bfbfbf" points="712,-957.5 868,-957.5 "/>
<text text-anchor="middle" x="790" y="-945.5" font-family="Helvetica,sans-Serif" font-size="10.00"> </text>
</g>
<!-- Node6&#45;&gt;Node22 -->
<g id="edge32" class="edge"><title>Node6&#45;&gt;Node22</title>
<path fill="none" stroke="#404040" d="M215.285,-1104.21C275.706,-1104.36 466.221,-1101.16 616,-1058 653.092,-1047.31 691.955,-1029.18 723.52,-1012.45"/>
<polygon fill="none" stroke="#404040" points="723.803,-1012.3 727.187,-1005.93 734.366,-1006.61 730.982,-1012.98 723.803,-1012.3"/>
<text text-anchor="middle" x="710.5" y="-1039" font-family="Helvetica,sans-Serif" font-size="10.00"> +size</text>
</g>
<!-- Node7&#45;&gt;Node5 -->
<g id="edge6" class="edge"><title>Node7&#45;&gt;Node5</title>
<path fill="none" stroke="#404040" d="M775.154,-764.337C763.117,-737.449 746.043,-699.31 732.835,-669.807"/>
<polygon fill="none" stroke="#404040" points="732.704,-669.514 726.602,-665.672 727.801,-658.562 733.903,-662.403 732.704,-669.514"/>
<text text-anchor="middle" x="778.5" y="-709" font-family="Helvetica,sans-Serif" font-size="10.00"> +list</text>
</g>
<!-- Node8 -->
<g id="node8" class="node"><title>Node8</title>
<g id="a_node8"><a xlink:href="structecs_1_1network_1_1PacketManager_1_1Component.html" target="_top" xlink:title="{ecs::network::PacketManager\l::Component\n||}">
<polygon fill="none" stroke="black" points="1212,-938.5 1212,-1006.5 1368,-1006.5 1368,-938.5 1212,-938.5"/>
<text text-anchor="start" x="1220" y="-994.5" font-family="Helvetica,sans-Serif" font-size="10.00">ecs::network::PacketManager</text>
<text text-anchor="middle" x="1290" y="-983.5" font-family="Helvetica,sans-Serif" font-size="10.00">::Component</text>
<polyline fill="none" stroke="black" points="1212,-976.5 1368,-976.5 "/>
<text text-anchor="middle" x="1290" y="-964.5" font-family="Helvetica,sans-Serif" font-size="10.00"> </text>
<polyline fill="none" stroke="black" points="1212,-957.5 1368,-957.5 "/>
<text text-anchor="middle" x="1290" y="-945.5" font-family="Helvetica,sans-Serif" font-size="10.00"> </text>
</a>
</g>
</g>
<!-- Node8&#45;&gt;Node7 -->
<g id="edge7" class="edge"><title>Node8&#45;&gt;Node7</title>
<path fill="none" stroke="#404040" d="M1211.88,-944.625C1121.97,-913.696 974.575,-862.994 879.956,-830.445"/>
<polygon fill="none" stroke="#404040" points="879.747,-830.373 872.772,-832.204 868.4,-826.47 875.375,-824.639 879.747,-830.373"/>
<text text-anchor="middle" x="1165" y="-883" font-family="Helvetica,sans-Serif" font-size="10.00"> +components</text>
</g>
<!-- Node9 -->
<g id="node9" class="node"><title>Node9</title>
<polygon fill="none" stroke="#bfbfbf" points="1414.5,-1076.5 1414.5,-1133.5 1541.5,-1133.5 1541.5,-1076.5 1414.5,-1076.5"/>
<text text-anchor="middle" x="1478" y="-1121.5" font-family="Helvetica,sans-Serif" font-size="10.00">anonymous:+_position</text>
<polyline fill="none" stroke="#bfbfbf" points="1414.5,-1114.5 1541.5,-1114.5 "/>
<text text-anchor="middle" x="1478" y="-1102.5" font-family="Helvetica,sans-Serif" font-size="10.00"> </text>
<polyline fill="none" stroke="#bfbfbf" points="1414.5,-1095.5 1541.5,-1095.5 "/>
<text text-anchor="middle" x="1478" y="-1083.5" font-family="Helvetica,sans-Serif" font-size="10.00"> </text>
</g>
<!-- Node9&#45;&gt;Node8 -->
<g id="edge8" class="edge"><title>Node9&#45;&gt;Node8</title>
<path fill="none" stroke="#404040" d="M1438.13,-1076.32C1411.9,-1058.12 1377.15,-1034 1347.9,-1013.69"/>
<polygon fill="none" stroke="#404040" points="1347.66,-1013.53 1340.45,-1013.39 1337.81,-1006.68 1345.01,-1006.82 1347.66,-1013.53"/>
<text text-anchor="middle" x="1434.5" y="-1039" font-family="Helvetica,sans-Serif" font-size="10.00"> +_position</text>
</g>
<!-- Node10 -->
<g id="node10" class="node"><title>Node10</title>
<polygon fill="none" stroke="#bfbfbf" points="1156.5,-1076.5 1156.5,-1133.5 1283.5,-1133.5 1283.5,-1076.5 1156.5,-1076.5"/>
<text text-anchor="middle" x="1220" y="-1121.5" font-family="Helvetica,sans-Serif" font-size="10.00">anonymous:+_rotation</text>
<polyline fill="none" stroke="#bfbfbf" points="1156.5,-1114.5 1283.5,-1114.5 "/>
<text text-anchor="middle" x="1220" y="-1102.5" font-family="Helvetica,sans-Serif" font-size="10.00"> </text>
<polyline fill="none" stroke="#bfbfbf" points="1156.5,-1095.5 1283.5,-1095.5 "/>
<text text-anchor="middle" x="1220" y="-1083.5" font-family="Helvetica,sans-Serif" font-size="10.00"> </text>
</g>
<!-- Node10&#45;&gt;Node8 -->
<g id="edge9" class="edge"><title>Node10&#45;&gt;Node8</title>
<path fill="none" stroke="#404040" d="M1231.31,-1076.43C1237.94,-1061.01 1246.8,-1041.62 1256,-1025 1257.48,-1022.33 1259.04,-1019.63 1260.66,-1016.92"/>
<polygon fill="none" stroke="#404040" points="1260.77,-1016.75 1260.53,-1009.54 1267.09,-1006.55 1267.33,-1013.76 1260.77,-1016.75"/>
<text text-anchor="middle" x="1283.5" y="-1039" font-family="Helvetica,sans-Serif" font-size="10.00"> +_rotation</text>
</g>
<!-- Node11 -->
<g id="node11" class="node"><title>Node11</title>
<polygon fill="none" stroke="#bfbfbf" points="1302,-1076.5 1302,-1133.5 1396,-1133.5 1396,-1076.5 1302,-1076.5"/>
<text text-anchor="middle" x="1349" y="-1121.5" font-family="Helvetica,sans-Serif" font-size="10.00">ComponentType</text>
<polyline fill="none" stroke="#bfbfbf" points="1302,-1114.5 1396,-1114.5 "/>
<text text-anchor="middle" x="1349" y="-1102.5" font-family="Helvetica,sans-Serif" font-size="10.00"> </text>
<polyline fill="none" stroke="#bfbfbf" points="1302,-1095.5 1396,-1095.5 "/>
<text text-anchor="middle" x="1349" y="-1083.5" font-family="Helvetica,sans-Serif" font-size="10.00"> </text>
</g>
<!-- Node11&#45;&gt;Node8 -->
<g id="edge10" class="edge"><title>Node11&#45;&gt;Node8</title>
<path fill="none" stroke="#404040" d="M1336.49,-1076.32C1328.8,-1059.31 1318.77,-1037.13 1310,-1017.73"/>
<polygon fill="none" stroke="#404040" points="1309.95,-1017.62 1303.83,-1013.8 1305,-1006.68 1311.12,-1010.5 1309.95,-1017.62"/>
<text text-anchor="middle" x="1343.5" y="-1039" font-family="Helvetica,sans-Serif" font-size="10.00"> +type</text>
</g>
<!-- Node12 -->
<g id="node12" class="node"><title>Node12</title>
<polygon fill="none" stroke="#bfbfbf" points="1109.5,-1076.5 1109.5,-1133.5 1138.5,-1133.5 1138.5,-1076.5 1109.5,-1076.5"/>
<text text-anchor="middle" x="1124" y="-1121.5" font-family="Helvetica,sans-Serif" font-size="10.00">int</text>
<polyline fill="none" stroke="#bfbfbf" points="1109.5,-1114.5 1138.5,-1114.5 "/>
<text text-anchor="middle" x="1124" y="-1102.5" font-family="Helvetica,sans-Serif" font-size="10.00"> </text>
<polyline fill="none" stroke="#bfbfbf" points="1109.5,-1095.5 1138.5,-1095.5 "/>
<text text-anchor="middle" x="1124" y="-1083.5" font-family="Helvetica,sans-Serif" font-size="10.00"> </text>
</g>
<!-- Node12&#45;&gt;Node3 -->
<g id="edge29" class="edge"><title>Node12&#45;&gt;Node3</title>
<path fill="none" stroke="#404040" d="M1124,-1076.25C1124,-1049.83 1124,-1008.96 1124,-973.5 1124,-973.5 1124,-973.5 1124,-623.5 1124,-566.884 1068.02,-574.33 1013,-561 943.329,-544.121 863.257,-530.67 803.37,-521.753"/>
<polygon fill="none" stroke="#404040" points="803.162,-521.722 796.644,-524.806 791.29,-519.975 797.809,-516.891 803.162,-521.722"/>
<text text-anchor="middle" x="1164" y="-796" font-family="Helvetica,sans-Serif" font-size="10.00"> +magicNumber</text>
</g>
<!-- Node12&#45;&gt;Node8 -->
<g id="edge11" class="edge"><title>Node12&#45;&gt;Node8</title>
<path fill="none" stroke="#404040" d="M1138.54,-1079.09C1149.39,-1062.16 1165.49,-1040.18 1184,-1025 1189.42,-1020.55 1195.29,-1016.38 1201.39,-1012.47"/>
<polygon fill="none" stroke="#404040" points="1201.57,-1012.37 1204.64,-1005.84 1211.84,-1006.17 1208.77,-1012.69 1201.57,-1012.37"/>
<text text-anchor="middle" x="1210" y="-1050" font-family="Helvetica,sans-Serif" font-size="10.00"> +x</text>
<text text-anchor="middle" x="1210" y="-1039" font-family="Helvetica,sans-Serif" font-size="10.00">+y</text>
<text text-anchor="middle" x="1210" y="-1028" font-family="Helvetica,sans-Serif" font-size="10.00">+radAngle</text>
</g>
<!-- Node13 -->
<g id="node13" class="node"><title>Node13</title>
<polygon fill="none" stroke="#bfbfbf" points="1560,-1076.5 1560,-1133.5 1660,-1133.5 1660,-1076.5 1560,-1076.5"/>
<text text-anchor="middle" x="1610" y="-1121.5" font-family="Helvetica,sans-Serif" font-size="10.00">anonymous:+@4</text>
<polyline fill="none" stroke="#bfbfbf" points="1560,-1114.5 1660,-1114.5 "/>
<text text-anchor="middle" x="1610" y="-1102.5" font-family="Helvetica,sans-Serif" font-size="10.00"> </text>
<polyline fill="none" stroke="#bfbfbf" points="1560,-1095.5 1660,-1095.5 "/>
<text text-anchor="middle" x="1610" y="-1083.5" font-family="Helvetica,sans-Serif" font-size="10.00"> </text>
</g>
<!-- Node13&#45;&gt;Node8 -->
<g id="edge12" class="edge"><title>Node13&#45;&gt;Node8</title>
<path fill="none" stroke="#404040" d="M1565.53,-1076.31C1537.68,-1059.82 1500.64,-1039.37 1466,-1025 1438.72,-1013.69 1408.11,-1003.81 1380.16,-995.815"/>
<polygon fill="none" stroke="#404040" points="1379.91,-995.746 1373.06,-997.977 1368.36,-992.505 1375.22,-990.274 1379.91,-995.746"/>
<text text-anchor="middle" x="1544" y="-1039" font-family="Helvetica,sans-Serif" font-size="10.00"> +@4</text>
</g>
<!-- Node14 -->
<g id="node14" class="node"><title>Node14</title>
<polygon fill="none" stroke="#bfbfbf" points="886,-944 886,-1001 930,-1001 930,-944 886,-944"/>
<text text-anchor="middle" x="908" y="-989" font-family="Helvetica,sans-Serif" font-size="10.00">size_t</text>
<polyline fill="none" stroke="#bfbfbf" points="886,-982 930,-982 "/>
<text text-anchor="middle" x="908" y="-970" font-family="Helvetica,sans-Serif" font-size="10.00"> </text>
<polyline fill="none" stroke="#bfbfbf" points="886,-963 930,-963 "/>
<text text-anchor="middle" x="908" y="-951" font-family="Helvetica,sans-Serif" font-size="10.00"> </text>
</g>
<!-- Node14&#45;&gt;Node7 -->
<g id="edge14" class="edge"><title>Node14&#45;&gt;Node7</title>
<path fill="none" stroke="#404040" d="M889.041,-943.865C870.289,-916.531 841.317,-874.302 819.545,-842.565"/>
<polygon fill="none" stroke="#404040" points="819.539,-842.557 812.846,-839.872 812.75,-832.662 819.443,-835.346 819.539,-842.557"/>
<text text-anchor="middle" x="880" y="-883" font-family="Helvetica,sans-Serif" font-size="10.00"> +id</text>
</g>
<!-- Node15&#45;&gt;Node3 -->
<g id="edge15" class="edge"><title>Node15&#45;&gt;Node3</title>
<path fill="none" stroke="#404040" d="M240.998,-851.272C253.7,-825.53 273.702,-789.991 298,-764 406.189,-648.272 452.174,-637.323 591,-561 601.35,-555.31 612.46,-549.829 623.607,-544.703"/>
<polygon fill="none" stroke="#404040" points="623.794,-544.62 627.627,-538.512 634.74,-539.701 630.906,-545.809 623.794,-544.62"/>
<text text-anchor="middle" x="407" y="-709" font-family="Helvetica,sans-Serif" font-size="10.00"> +_join</text>
</g>
<!-- Node16&#45;&gt;Node3 -->
<g id="edge18" class="edge"><title>Node16&#45;&gt;Node3</title>
<path fill="none" stroke="#404040" d="M182.662,-590.474C187.567,-579.36 194.733,-568.014 205,-561 270.902,-515.98 495.428,-508.813 622.826,-508.523"/>
<polygon fill="none" stroke="#404040" points="622.843,-508.523 628.84,-504.519 634.843,-508.515 628.845,-512.519 622.843,-508.523"/>
<text text-anchor="middle" x="235" y="-564" font-family="Helvetica,sans-Serif" font-size="10.00"> +_getRoom</text>
</g>
<!-- Node17&#45;&gt;Node16 -->
<g id="edge20" class="edge"><title>Node17&#45;&gt;Node16</title>
<path fill="none" stroke="#404040" d="M306.982,-792.448C271.52,-786.237 231.633,-773.147 205,-746 185.613,-726.239 177.61,-696.148 174.456,-670.981"/>
<polygon fill="none" stroke="#404040" points="174.424,-670.661 169.852,-665.085 173.24,-658.719 177.813,-664.296 174.424,-670.661"/>
<text text-anchor="middle" x="231" y="-709" font-family="Helvetica,sans-Serif" font-size="10.00"> +listRoom</text>
</g>
<!-- Node18&#45;&gt;Node17 -->
<g id="edge21" class="edge"><title>Node18&#45;&gt;Node17</title>
<path fill="none" stroke="#404040" d="M366.435,-938.337C369.998,-911.687 375.04,-873.984 378.97,-844.593"/>
<polygon fill="none" stroke="#404040" points="378.988,-844.456 375.819,-837.978 380.579,-832.562 383.748,-839.039 378.988,-844.456"/>
<text text-anchor="middle" x="401" y="-883" font-family="Helvetica,sans-Serif" font-size="10.00"> +players</text>
</g>
<!-- Node19 -->
<g id="node19" class="node"><title>Node19</title>
<polygon fill="none" stroke="#bfbfbf" points="779.5,-1076.5 779.5,-1133.5 816.5,-1133.5 816.5,-1076.5 779.5,-1076.5"/>
<text text-anchor="middle" x="798" y="-1121.5" font-family="Helvetica,sans-Serif" font-size="10.00">bool</text>
<polyline fill="none" stroke="#bfbfbf" points="779.5,-1114.5 816.5,-1114.5 "/>
<text text-anchor="middle" x="798" y="-1102.5" font-family="Helvetica,sans-Serif" font-size="10.00"> </text>
<polyline fill="none" stroke="#bfbfbf" points="779.5,-1095.5 816.5,-1095.5 "/>
<text text-anchor="middle" x="798" y="-1083.5" font-family="Helvetica,sans-Serif" font-size="10.00"> </text>
</g>
<!-- Node19&#45;&gt;Node3 -->
<g id="edge30" class="edge"><title>Node19&#45;&gt;Node3</title>
<path fill="none" stroke="#404040" d="M816.548,-1097.76C848.466,-1085.89 912.864,-1056.7 939,-1007 953.273,-979.857 944.223,-968.219 939,-938 910.635,-773.885 896.454,-725.775 800,-590 790.122,-576.096 777.521,-562.757 764.996,-551.074"/>
<polygon fill="none" stroke="#404040" points="764.83,-550.924 757.696,-549.867 755.928,-542.876 763.062,-543.933 764.83,-550.924"/>
<text text-anchor="middle" x="932.5" y="-796" font-family="Helvetica,sans-Serif" font-size="10.00"> +res</text>
</g>
<!-- Node19&#45;&gt;Node17 -->
<g id="edge25" class="edge"><title>Node19&#45;&gt;Node17</title>
<path fill="none" stroke="#404040" d="M779.38,-1088.9C755.575,-1070.48 712.352,-1039.96 670,-1025 610.016,-1003.81 581.783,-1040.98 528,-1007 458.374,-963.015 476.71,-917.406 428,-851 425.831,-848.043 423.545,-845.034 421.204,-842.031"/>
<polygon fill="none" stroke="#404040" points="421.104,-841.906 414.233,-839.715 413.613,-832.531 420.484,-834.722 421.104,-841.906"/>
<text text-anchor="middle" x="555.5" y="-975.5" font-family="Helvetica,sans-Serif" font-size="10.00"> +isStarted</text>
<text text-anchor="middle" x="555.5" y="-964.5" font-family="Helvetica,sans-Serif" font-size="10.00">+isOpen</text>
</g>
<!-- Node19&#45;&gt;Node18 -->
<g id="edge23" class="edge"><title>Node19&#45;&gt;Node18</title>
<path fill="none" stroke="#404040" d="M779.218,-1101.49C739.598,-1095.93 644.795,-1081.2 568,-1058 526.416,-1045.44 481.646,-1027.62 444.499,-1011.59"/>
<polygon fill="none" stroke="#404040" points="444.228,-1011.47 437.13,-1012.74 433.228,-1006.68 440.326,-1005.41 444.228,-1011.47"/>
<text text-anchor="middle" x="592" y="-1039" font-family="Helvetica,sans-Serif" font-size="10.00"> +isReady</text>
</g>
<!-- Node21 -->
<g id="node21" class="node"><title>Node21</title>
<polygon fill="none" stroke="#bfbfbf" points="908,-677.5 908,-745.5 1064,-745.5 1064,-677.5 908,-677.5"/>
<text text-anchor="start" x="916" y="-733.5" font-family="Helvetica,sans-Serif" font-size="10.00">ecs::network::PacketManager</text>
<text text-anchor="middle" x="986" y="-722.5" font-family="Helvetica,sans-Serif" font-size="10.00">::IsReady</text>
<polyline fill="none" stroke="#bfbfbf" points="908,-715.5 1064,-715.5 "/>
<text text-anchor="middle" x="986" y="-703.5" font-family="Helvetica,sans-Serif" font-size="10.00"> </text>
<polyline fill="none" stroke="#bfbfbf" points="908,-696.5 1064,-696.5 "/>
<text text-anchor="middle" x="986" y="-684.5" font-family="Helvetica,sans-Serif" font-size="10.00"> </text>
</g>
<!-- Node19&#45;&gt;Node21 -->
<g id="edge28" class="edge"><title>Node19&#45;&gt;Node21</title>
<path fill="none" stroke="#404040" d="M816.785,-1101.09C856.252,-1093.78 946.267,-1070.46 972,-1007 1005.58,-924.188 999.871,-817.361 992.842,-757.788"/>
<polygon fill="none" stroke="#404040" points="992.835,-757.725 988.117,-752.271 991.336,-745.819 996.054,-751.272 992.835,-757.725"/>
<text text-anchor="middle" x="1015" y="-970" font-family="Helvetica,sans-Serif" font-size="10.00"> +isReady</text>
</g>
<!-- Node20 -->
<g id="node20" class="node"><title>Node20</title>
<polygon fill="none" stroke="#bfbfbf" points="938.5,-596 938.5,-653 977.5,-653 977.5,-596 938.5,-596"/>
<text text-anchor="middle" x="958" y="-641" font-family="Helvetica,sans-Serif" font-size="10.00">CMD</text>
<polyline fill="none" stroke="#bfbfbf" points="938.5,-634 977.5,-634 "/>
<text text-anchor="middle" x="958" y="-622" font-family="Helvetica,sans-Serif" font-size="10.00"> </text>
<polyline fill="none" stroke="#bfbfbf" points="938.5,-615 977.5,-615 "/>
<text text-anchor="middle" x="958" y="-603" font-family="Helvetica,sans-Serif" font-size="10.00"> </text>
</g>
<!-- Node20&#45;&gt;Node3 -->
<g id="edge26" class="edge"><title>Node20&#45;&gt;Node3</title>
<path fill="none" stroke="#404040" d="M938.44,-603.019C933.851,-598.56 928.874,-593.988 924,-590 906.158,-575.404 901.802,-570.931 881,-561 856.529,-549.318 828.798,-539.539 803.021,-531.751"/>
<polygon fill="none" stroke="#404040" points="802.846,-531.7 795.961,-533.844 791.333,-528.313 798.218,-526.169 802.846,-531.7"/>
<text text-anchor="middle" x="928.5" y="-564" font-family="Helvetica,sans-Serif" font-size="10.00"> +typeCmd</text>
</g>
<!-- Node21&#45;&gt;Node3 -->
<g id="edge27" class="edge"><title>Node21&#45;&gt;Node3</title>
<path fill="none" stroke="#404040" d="M907.823,-682.854C896.169,-676.321 885.05,-668.435 876,-659 843.317,-624.927 868.332,-594.438 835,-561 825.522,-551.492 814.02,-543.642 801.911,-537.188"/>
<polygon fill="none" stroke="#404040" points="801.907,-537.186 794.756,-538.114 791.149,-531.869 798.3,-530.942 801.907,-537.186"/>
<text text-anchor="middle" x="902.5" y="-622" font-family="Helvetica,sans-Serif" font-size="10.00"> +_isReady</text>
</g>
<!-- Node22&#45;&gt;Node3 -->
<g id="edge31" class="edge"><title>Node22&#45;&gt;Node3</title>
<path fill="none" stroke="#404040" d="M764.562,-938.312C724.649,-883.713 649.442,-769.9 626,-659 619.658,-628.996 613.717,-618.099 626,-590 632.437,-575.275 643.042,-562.043 654.674,-550.763"/>
<polygon fill="none" stroke="#404040" points="654.846,-550.606 656.588,-543.609 663.717,-542.525 661.976,-549.523 654.846,-550.606"/>
<text text-anchor="middle" x="672.5" y="-709" font-family="Helvetica,sans-Serif" font-size="10.00"> +_keys</text>
</g>
<!-- Node23 -->
<g id="node23" class="node"><title>Node23</title>
<polygon fill="none" stroke="#bfbfbf" points="947.5,-1076.5 947.5,-1133.5 980.5,-1133.5 980.5,-1076.5 947.5,-1076.5"/>
<text text-anchor="middle" x="964" y="-1121.5" font-family="Helvetica,sans-Serif" font-size="10.00">Key</text>
<polyline fill="none" stroke="#bfbfbf" points="947.5,-1114.5 980.5,-1114.5 "/>
<text text-anchor="middle" x="964" y="-1102.5" font-family="Helvetica,sans-Serif" font-size="10.00"> </text>
<polyline fill="none" stroke="#bfbfbf" points="947.5,-1095.5 980.5,-1095.5 "/>
<text text-anchor="middle" x="964" y="-1083.5" font-family="Helvetica,sans-Serif" font-size="10.00"> </text>
</g>
<!-- Node23&#45;&gt;Node22 -->
<g id="edge33" class="edge"><title>Node23&#45;&gt;Node22</title>
<path fill="none" stroke="#404040" d="M947.316,-1091.49C923.758,-1073.82 879.654,-1040.74 844.125,-1014.09"/>
<polygon fill="none" stroke="#404040" points="843.956,-1013.97 836.756,-1013.57 834.356,-1006.77 841.556,-1007.17 843.956,-1013.97"/>
<text text-anchor="middle" x="910.5" y="-1039" font-family="Helvetica,sans-Serif" font-size="10.00"> +list</text>
</g>
</g>
</svg>
        <g id="navigator" transform="translate(0 0)" fill="#404254">
                <rect fill="#f2f5e9" fill-opacity="0.5" stroke="#606060" stroke-width=".5" x="0" y="0" width="60" height="60"/>
                <use id="zoomplus" xlink:href="#zoomPlus" x="17" y="9" onmousedown="handleZoom(evt,'in')"/>
                <use id="zoomminus" xlink:href="#zoomMin" x="42" y="9" onmousedown="handleZoom(evt,'out')"/>
                <use id="reset" xlink:href="#resetDef" x="30" y="36" onmousedown="handleReset()"/>
                <g id="arrowUp" xlink:href="#dirArrow" transform="translate(30 24)" onmousedown="handlePan(0,-1)">
                  <use xlink:href="#rim" fill="#404040">
                        <set attributeName="fill" to="#808080" begin="arrowUp.mouseover" end="arrowUp.mouseout"/>
                  </use>
                  <path fill="none" stroke="white" stroke-width="1.5" d="M0,-3.0v7 M-2.5,-0.5L0,-3.0L2.5,-0.5"/>
                </g>
                <g id="arrowRight" xlink:href="#dirArrow" transform="rotate(90) translate(36 -43)" onmousedown="handlePan(1,0)">
                  <use xlink:href="#rim" fill="#404040">
                        <set attributeName="fill" to="#808080" begin="arrowRight.mouseover" end="arrowRight.mouseout"/>
                  </use>
                  <path fill="none" stroke="white" stroke-width="1.5" d="M0,-3.0v7 M-2.5,-0.5L0,-3.0L2.5,-0.5"/>
                </g>
                <g id="arrowDown" xlink:href="#dirArrow" transform="rotate(180) translate(-30 -48)" onmousedown="handlePan(0,1)">
                  <use xlink:href="#rim" fill="#404040">
                        <set attributeName="fill" to="#808080" begin="arrowDown.mouseover" end="arrowDown.mouseout"/>
                  </use>
                  <path fill="none" stroke="white" stroke-width="1.5" d="M0,-3.0v7 M-2.5,-0.5L0,-3.0L2.5,-0.5"/>
                </g>
                <g id="arrowLeft" xlink:href="#dirArrow" transform="rotate(270) translate(-36 17)" onmousedown="handlePan(-1,0)">
                  <use xlink:href="#rim" fill="#404040">
                        <set attributeName="fill" to="#808080" begin="arrowLeft.mouseover" end="arrowLeft.mouseout"/>
                  </use>
                  <path fill="none" stroke="white" stroke-width="1.5" d="M0,-3.0v7 M-2.5,-0.5L0,-3.0L2.5,-0.5"/>
                </g>
        </g>
        <svg viewBox="0 0 15 15" width="100%" height="30px" preserveAspectRatio="xMaxYMin meet">
         <g id="arrow_out" transform="scale(0.3 0.3)">
          <a xlink:href="classecs_1_1network_1_1PacketManager__coll__graph_org.svg" target="_base">
           <rect id="button" ry="5" rx="5" y="6" x="6" height="38" width="38"
                fill="#f2f5e9" fill-opacity="0.5" stroke="#606060" stroke-width="1.0"/>
           <path id="arrow"
             d="M 11.500037,31.436501 C 11.940474,20.09759 22.043105,11.32322 32.158766,21.979434 L 37.068811,17.246167 C 37.068811,17.246167 37.088388,32 37.088388,32 L 22.160133,31.978069 C 22.160133,31.978069 26.997745,27.140456 26.997745,27.140456 C 18.528582,18.264221 13.291696,25.230495 11.500037,31.436501 z"
             style="fill:#404040;"/>
          </a>
         </g>
        </svg>
</svg>
