<?xml version="1.0" encoding="UTF-8" standalone="no"?>
<!DOCTYPE svg PUBLIC "-//W3C//DTD SVG 1.1//EN"
 "http://www.w3.org/Graphics/SVG/1.1/DTD/svg11.dtd">
<!-- Generated by graphviz version 2.38.0 (20140413.2041)
 -->
<!-- Title: ecs::system::ParallaxSystem Pages: 1 -->
<svg width="554pt" height="310pt"
 viewBox="0.00 0.00 553.50 310.00" xmlns="http://www.w3.org/2000/svg" xmlns:xlink="http://www.w3.org/1999/xlink">
<g id="graph0" class="graph" transform="scale(1 1) rotate(0) translate(4 306)">
<title>ecs::system::ParallaxSystem</title>
<!-- Node1 -->
<g id="node1" class="node"><title>Node1</title>
<polygon fill="#bfbfbf" stroke="black" points="213.5,-0.5 213.5,-79.5 367.5,-79.5 367.5,-0.5 213.5,-0.5"/>
<text text-anchor="middle" x="290.5" y="-67.5" font-family="Helvetica,sans-Serif" font-size="10.00">ecs::system::ParallaxSystem</text>
<polyline fill="none" stroke="black" points="213.5,-60.5 367.5,-60.5 "/>
<text text-anchor="middle" x="290.5" y="-48.5" font-family="Helvetica,sans-Serif" font-size="10.00"> </text>
<polyline fill="none" stroke="black" points="213.5,-41.5 367.5,-41.5 "/>
<text text-anchor="start" x="221.5" y="-29.5" font-family="Helvetica,sans-Serif" font-size="10.00">+ ParallaxSystem()</text>
<text text-anchor="start" x="221.5" y="-18.5" font-family="Helvetica,sans-Serif" font-size="10.00">+ ~ParallaxSystem()</text>
<text text-anchor="start" x="221.5" y="-7.5" font-family="Helvetica,sans-Serif" font-size="10.00">+ update()</text>
</g>
<!-- Node2 -->
<g id="node2" class="node"><title>Node2</title>
<g id="a_node2"><a xlink:href="classecs_1_1system_1_1ASystem.html" target="_top" xlink:title="{ecs::system::ASystem\n||+ ASystem()\l+ ~ASystem()\l}">
<polygon fill="none" stroke="black" points="228.5,-117.5 228.5,-185.5 352.5,-185.5 352.5,-117.5 228.5,-117.5"/>
<text text-anchor="middle" x="290.5" y="-173.5" font-family="Helvetica,sans-Serif" font-size="10.00">ecs::system::ASystem</text>
<polyline fill="none" stroke="black" points="228.5,-166.5 352.5,-166.5 "/>
<text text-anchor="middle" x="290.5" y="-154.5" font-family="Helvetica,sans-Serif" font-size="10.00"> </text>
<polyline fill="none" stroke="black" points="228.5,-147.5 352.5,-147.5 "/>
<text text-anchor="start" x="236.5" y="-135.5" font-family="Helvetica,sans-Serif" font-size="10.00">+ ASystem()</text>
<text text-anchor="start" x="236.5" y="-124.5" font-family="Helvetica,sans-Serif" font-size="10.00">+ ~ASystem()</text>
</a>
</g>
</g>
<!-- Node2&#45;&gt;Node1 -->
<g id="edge1" class="edge"><title>Node2&#45;&gt;Node1</title>
<path fill="none" stroke="midnightblue" d="M290.5,-107.339C290.5,-98.2542 290.5,-88.7235 290.5,-79.8103"/>
<polygon fill="none" stroke="midnightblue" points="287,-107.349 290.5,-117.349 294,-107.349 287,-107.349"/>
</g>
<!-- Node3 -->
<g id="node3" class="node"><title>Node3</title>
<g id="a_node3"><a xlink:href="classecs_1_1system_1_1ISystem.html" target="_top" xlink:title="{ecs::system::ISystem\n||+ update()\l}">
<polygon fill="none" stroke="black" points="0,-239 0,-296 119,-296 119,-239 0,-239"/>
<text text-anchor="middle" x="59.5" y="-284" font-family="Helvetica,sans-Serif" font-size="10.00">ecs::system::ISystem</text>
<polyline fill="none" stroke="black" points="0,-277 119,-277 "/>
<text text-anchor="middle" x="59.5" y="-265" font-family="Helvetica,sans-Serif" font-size="10.00"> </text>
<polyline fill="none" stroke="black" points="0,-258 119,-258 "/>
<text text-anchor="start" x="8" y="-246" font-family="Helvetica,sans-Serif" font-size="10.00">+ update()</text>
</a>
</g>
</g>
<!-- Node3&#45;&gt;Node2 -->
<g id="edge2" class="edge"><title>Node3&#45;&gt;Node2</title>
<path fill="none" stroke="midnightblue" d="M124.396,-234.473C156.893,-218.436 196.051,-199.111 228.183,-183.254"/>
<polygon fill="none" stroke="midnightblue" points="122.837,-231.34 115.419,-238.904 125.935,-237.617 122.837,-231.34"/>
</g>
<!-- Node4 -->
<g id="node4" class="node"><title>Node4</title>
<polygon fill="none" stroke="#bfbfbf" points="137.5,-233.5 137.5,-301.5 283.5,-301.5 283.5,-233.5 137.5,-233.5"/>
<text text-anchor="start" x="145.5" y="-289.5" font-family="Helvetica,sans-Serif" font-size="10.00">shared_ptr&lt; ecs::IManager</text>
<text text-anchor="middle" x="210.5" y="-278.5" font-family="Helvetica,sans-Serif" font-size="10.00">Wrapper &gt; &amp;</text>
<polyline fill="none" stroke="#bfbfbf" points="137.5,-271.5 283.5,-271.5 "/>
<text text-anchor="middle" x="210.5" y="-259.5" font-family="Helvetica,sans-Serif" font-size="10.00"> </text>
<polyline fill="none" stroke="#bfbfbf" points="137.5,-252.5 283.5,-252.5 "/>
<text text-anchor="middle" x="210.5" y="-240.5" font-family="Helvetica,sans-Serif" font-size="10.00"> </text>
</g>
<!-- Node4&#45;&gt;Node2 -->
<g id="edge3" class="edge"><title>Node4&#45;&gt;Node2</title>
<path fill="none" stroke="#404040" d="M229.588,-233.193C235.397,-223.596 241.977,-213.23 248.5,-204 250.498,-201.173 252.604,-198.302 254.766,-195.435"/>
<polygon fill="none" stroke="#404040" points="254.901,-195.261 255.416,-188.068 262.254,-185.777 261.738,-192.97 254.901,-195.261"/>
<text text-anchor="middle" x="298.5" y="-207" font-family="Helvetica,sans-Serif" font-size="10.00"> #_managerWrapper</text>
</g>
<!-- Node5 -->
<g id="node5" class="node"><title>Node5</title>
<polygon fill="none" stroke="#bfbfbf" points="302,-233.5 302,-301.5 439,-301.5 439,-233.5 302,-233.5"/>
<text text-anchor="start" x="310" y="-289.5" font-family="Helvetica,sans-Serif" font-size="10.00">shared_ptr&lt; ecs::entities</text>
<text text-anchor="middle" x="370.5" y="-278.5" font-family="Helvetica,sans-Serif" font-size="10.00">::IEntityFactory &gt; &amp;</text>
<polyline fill="none" stroke="#bfbfbf" points="302,-271.5 439,-271.5 "/>
<text text-anchor="middle" x="370.5" y="-259.5" font-family="Helvetica,sans-Serif" font-size="10.00"> </text>
<polyline fill="none" stroke="#bfbfbf" points="302,-252.5 439,-252.5 "/>
<text text-anchor="middle" x="370.5" y="-240.5" font-family="Helvetica,sans-Serif" font-size="10.00"> </text>
</g>
<!-- Node5&#45;&gt;Node2 -->
<g id="edge4" class="edge"><title>Node5&#45;&gt;Node2</title>
<path fill="none" stroke="#404040" d="M362.248,-233.23C358.903,-223.327 354.402,-212.785 348.5,-204 346.322,-200.758 343.894,-197.59 341.299,-194.521"/>
<polygon fill="none" stroke="#404040" points="341.237,-194.454 334.229,-192.755 333.101,-185.633 340.109,-187.331 341.237,-194.454"/>
<text text-anchor="middle" x="395" y="-207" font-family="Helvetica,sans-Serif" font-size="10.00"> #_entityFactory</text>
</g>
<!-- Node6 -->
<g id="node6" class="node"><title>Node6</title>
<polygon fill="none" stroke="#bfbfbf" points="457.5,-239 457.5,-296 533.5,-296 533.5,-239 457.5,-239"/>
<text text-anchor="middle" x="495.5" y="-284" font-family="Helvetica,sans-Serif" font-size="10.00">list&lt; int &gt; &amp;</text>
<polyline fill="none" stroke="#bfbfbf" points="457.5,-277 533.5,-277 "/>
<text text-anchor="middle" x="495.5" y="-265" font-family="Helvetica,sans-Serif" font-size="10.00"> </text>
<polyline fill="none" stroke="#bfbfbf" points="457.5,-258 533.5,-258 "/>
<text text-anchor="middle" x="495.5" y="-246" font-family="Helvetica,sans-Serif" font-size="10.00"> </text>
</g>
<!-- Node6&#45;&gt;Node2 -->
<g id="edge5" class="edge"><title>Node6&#45;&gt;Node2</title>
<path fill="none" stroke="#404040" d="M475.503,-238.969C465.532,-226.856 452.597,-213.299 438.5,-204 416.15,-189.257 389.112,-178.238 364.293,-170.259"/>
<polygon fill="none" stroke="#404040" points="364.166,-170.22 357.256,-172.281 352.696,-166.694 359.606,-164.634 364.166,-170.22"/>
<text text-anchor="middle" x="498.5" y="-207" font-family="Helvetica,sans-Serif" font-size="10.00"> #_entitiesToDelete</text>
</g>
</g>
</svg>
