<?xml version="1.0" encoding="UTF-8" standalone="no"?>
<!DOCTYPE svg PUBLIC "-//W3C//DTD SVG 1.1//EN"
 "http://www.w3.org/Graphics/SVG/1.1/DTD/svg11.dtd">
<!-- Generated by graphviz version 2.38.0 (20140413.2041)
 -->
<!-- Title: ecs::components::Button Pages: 1 -->
<svg width="180pt" height="458pt"
 viewBox="0.00 0.00 180.00 458.00" xmlns="http://www.w3.org/2000/svg" xmlns:xlink="http://www.w3.org/1999/xlink">
<g id="graph0" class="graph" transform="scale(1 1) rotate(0) translate(4 454)">
<title>ecs::components::Button</title>
<!-- Node1 -->
<g id="node1" class="node"><title>Node1</title>
<polygon fill="#bfbfbf" stroke="black" points="17.5,-0.5 17.5,-167.5 154.5,-167.5 154.5,-0.5 17.5,-0.5"/>
<text text-anchor="middle" x="86" y="-155.5" font-family="Helvetica,sans-Serif" font-size="10.00">ecs::components::Button</text>
<polyline fill="none" stroke="black" points="17.5,-148.5 154.5,-148.5 "/>
<text text-anchor="middle" x="86" y="-136.5" font-family="Helvetica,sans-Serif" font-size="10.00"> </text>
<polyline fill="none" stroke="black" points="17.5,-129.5 154.5,-129.5 "/>
<text text-anchor="start" x="25.5" y="-117.5" font-family="Helvetica,sans-Serif" font-size="10.00">+ Button()</text>
<text text-anchor="start" x="25.5" y="-106.5" font-family="Helvetica,sans-Serif" font-size="10.00">+ Button()</text>
<text text-anchor="start" x="25.5" y="-95.5" font-family="Helvetica,sans-Serif" font-size="10.00">+ ~Button()</text>
<text text-anchor="start" x="25.5" y="-84.5" font-family="Helvetica,sans-Serif" font-size="10.00">+ setIsSelected()</text>
<text text-anchor="start" x="25.5" y="-73.5" font-family="Helvetica,sans-Serif" font-size="10.00">+ getIsSelected()</text>
<text text-anchor="start" x="25.5" y="-62.5" font-family="Helvetica,sans-Serif" font-size="10.00">+ setCmd()</text>
<text text-anchor="start" x="25.5" y="-51.5" font-family="Helvetica,sans-Serif" font-size="10.00">+ getCmd()</text>
<text text-anchor="start" x="25.5" y="-40.5" font-family="Helvetica,sans-Serif" font-size="10.00">+ setParameter()</text>
<text text-anchor="start" x="25.5" y="-29.5" font-family="Helvetica,sans-Serif" font-size="10.00">+ getParameter()</text>
<text text-anchor="start" x="25.5" y="-18.5" font-family="Helvetica,sans-Serif" font-size="10.00">+ getType()</text>
<text text-anchor="start" x="25.5" y="-7.5" font-family="Helvetica,sans-Serif" font-size="10.00">+ operator==()</text>
</g>
<!-- Node2 -->
<g id="node2" class="node"><title>Node2</title>
<g id="a_node2"><a xlink:href="classecs_1_1components_1_1IUserInterface.html" target="_top" xlink:title="UserInterface describes an attribute that is part of the User Interface. ">
<polygon fill="none" stroke="black" points="0,-204.5 0,-261.5 172,-261.5 172,-204.5 0,-204.5"/>
<text text-anchor="middle" x="86" y="-249.5" font-family="Helvetica,sans-Serif" font-size="10.00">ecs::components::IUserInterface</text>
<polyline fill="none" stroke="black" points="0,-242.5 172,-242.5 "/>
<text text-anchor="middle" x="86" y="-230.5" font-family="Helvetica,sans-Serif" font-size="10.00"> </text>
<polyline fill="none" stroke="black" points="0,-223.5 172,-223.5 "/>
<text text-anchor="middle" x="86" y="-211.5" font-family="Helvetica,sans-Serif" font-size="10.00"> </text>
</a>
</g>
</g>
<!-- Node2&#45;&gt;Node1 -->
<g id="edge1" class="edge"><title>Node2&#45;&gt;Node1</title>
<path fill="none" stroke="midnightblue" d="M86,-194.35C86,-186.08 86,-177.008 86,-167.738"/>
<polygon fill="none" stroke="midnightblue" points="82.5001,-194.35 86,-204.35 89.5001,-194.35 82.5001,-194.35"/>
</g>
<!-- Node3 -->
<g id="node3" class="node"><title>Node3</title>
<g id="a_node3"><a xlink:href="classecs_1_1components_1_1IDisplay.html" target="_top" xlink:title="IDisplay describes an attribute of an Entity that is displayable. ">
<polygon fill="none" stroke="black" points="15,-298.5 15,-355.5 157,-355.5 157,-298.5 15,-298.5"/>
<text text-anchor="middle" x="86" y="-343.5" font-family="Helvetica,sans-Serif" font-size="10.00">ecs::components::IDisplay</text>
<polyline fill="none" stroke="black" points="15,-336.5 157,-336.5 "/>
<text text-anchor="middle" x="86" y="-324.5" font-family="Helvetica,sans-Serif" font-size="10.00"> </text>
<polyline fill="none" stroke="black" points="15,-317.5 157,-317.5 "/>
<text text-anchor="start" x="23" y="-305.5" font-family="Helvetica,sans-Serif" font-size="10.00">+ IDisplay()</text>
</a>
</g>
</g>
<!-- Node3&#45;&gt;Node2 -->
<g id="edge2" class="edge"><title>Node3&#45;&gt;Node2</title>
<path fill="none" stroke="midnightblue" d="M86,-288.209C86,-279.293 86,-269.951 86,-261.584"/>
<polygon fill="none" stroke="midnightblue" points="82.5001,-288.397 86,-298.397 89.5001,-288.397 82.5001,-288.397"/>
</g>
<!-- Node4 -->
<g id="node4" class="node"><title>Node4</title>
<g id="a_node4"><a xlink:href="classecs_1_1components_1_1IComponent.html" target="_top" xlink:title="Icomponent describes an attribute of an Entity. ">
<polygon fill="none" stroke="black" points="4,-392.5 4,-449.5 168,-449.5 168,-392.5 4,-392.5"/>
<text text-anchor="middle" x="86" y="-437.5" font-family="Helvetica,sans-Serif" font-size="10.00">ecs::components::IComponent</text>
<polyline fill="none" stroke="black" points="4,-430.5 168,-430.5 "/>
<text text-anchor="middle" x="86" y="-418.5" font-family="Helvetica,sans-Serif" font-size="10.00"> </text>
<polyline fill="none" stroke="black" points="4,-411.5 168,-411.5 "/>
<text text-anchor="start" x="12" y="-399.5" font-family="Helvetica,sans-Serif" font-size="10.00">+ getType()</text>
</a>
</g>
</g>
<!-- Node4&#45;&gt;Node3 -->
<g id="edge3" class="edge"><title>Node4&#45;&gt;Node3</title>
<path fill="none" stroke="midnightblue" d="M86,-382.209C86,-373.293 86,-363.951 86,-355.584"/>
<polygon fill="none" stroke="midnightblue" points="82.5001,-382.397 86,-392.397 89.5001,-382.397 82.5001,-382.397"/>
</g>
</g>
</svg>
