<?xml version="1.0" encoding="UTF-8" standalone="no"?>
<!DOCTYPE svg PUBLIC "-//W3C//DTD SVG 1.1//EN"
 "http://www.w3.org/Graphics/SVG/1.1/DTD/svg11.dtd">
<!-- Generated by graphviz version 2.38.0 (20140413.2041)
 -->
<!-- Title: RTypeExceptions Pages: 1 -->
<svg width="450pt" height="403pt"
 viewBox="0.00 0.00 450.00 403.00" xmlns="http://www.w3.org/2000/svg" xmlns:xlink="http://www.w3.org/1999/xlink">
<g id="graph0" class="graph" transform="scale(1 1) rotate(0) translate(4 399)">
<title>RTypeExceptions</title>
<!-- Node1 -->
<g id="node1" class="node"><title>Node1</title>
<polygon fill="#bfbfbf" stroke="black" points="239,-210.5 239,-300.5 361,-300.5 361,-210.5 239,-210.5"/>
<text text-anchor="middle" x="300" y="-288.5" font-family="Helvetica,sans-Serif" font-size="10.00">RTypeExceptions</text>
<polyline fill="none" stroke="black" points="239,-281.5 361,-281.5 "/>
<text text-anchor="middle" x="300" y="-269.5" font-family="Helvetica,sans-Serif" font-size="10.00"> </text>
<polyline fill="none" stroke="black" points="239,-262.5 361,-262.5 "/>
<text text-anchor="start" x="247" y="-250.5" font-family="Helvetica,sans-Serif" font-size="10.00">+ RTypeExceptions()</text>
<text text-anchor="start" x="247" y="-239.5" font-family="Helvetica,sans-Serif" font-size="10.00">+ ~RTypeExceptions()</text>
<text text-anchor="start" x="247" y="-228.5" font-family="Helvetica,sans-Serif" font-size="10.00">+ what()</text>
<text text-anchor="start" x="247" y="-217.5" font-family="Helvetica,sans-Serif" font-size="10.00">+ where()</text>
</g>
<!-- Node3 -->
<g id="node3" class="node"><title>Node3</title>
<g id="a_node3"><a xlink:href="classECSExceptions.html" target="_top" xlink:title="ECS Class Esception which manage exceptions of Entity, Components and System. ">
<polygon fill="none" stroke="black" points="173.5,-105.5 173.5,-173.5 288.5,-173.5 288.5,-105.5 173.5,-105.5"/>
<text text-anchor="middle" x="231" y="-161.5" font-family="Helvetica,sans-Serif" font-size="10.00">ECSExceptions</text>
<polyline fill="none" stroke="black" points="173.5,-154.5 288.5,-154.5 "/>
<text text-anchor="middle" x="231" y="-142.5" font-family="Helvetica,sans-Serif" font-size="10.00"> </text>
<polyline fill="none" stroke="black" points="173.5,-135.5 288.5,-135.5 "/>
<text text-anchor="start" x="181.5" y="-123.5" font-family="Helvetica,sans-Serif" font-size="10.00">+ ECSExceptions()</text>
<text text-anchor="start" x="181.5" y="-112.5" font-family="Helvetica,sans-Serif" font-size="10.00">+ ~ECSExceptions()</text>
</a>
</g>
</g>
<!-- Node1&#45;&gt;Node3 -->
<g id="edge2" class="edge"><title>Node1&#45;&gt;Node3</title>
<path fill="none" stroke="midnightblue" d="M268.086,-201.772C262.334,-192.269 256.485,-182.606 251.185,-173.848"/>
<polygon fill="none" stroke="midnightblue" points="265.15,-203.682 273.323,-210.425 271.139,-200.057 265.15,-203.682"/>
</g>
<!-- Node7 -->
<g id="node7" class="node"><title>Node7</title>
<g id="a_node7"><a xlink:href="classServerExceptions.html" target="_top" xlink:title="Server class Exception. ">
<polygon fill="none" stroke="black" points="306.5,-105.5 306.5,-173.5 433.5,-173.5 433.5,-105.5 306.5,-105.5"/>
<text text-anchor="middle" x="370" y="-161.5" font-family="Helvetica,sans-Serif" font-size="10.00">ServerExceptions</text>
<polyline fill="none" stroke="black" points="306.5,-154.5 433.5,-154.5 "/>
<text text-anchor="middle" x="370" y="-142.5" font-family="Helvetica,sans-Serif" font-size="10.00"> </text>
<polyline fill="none" stroke="black" points="306.5,-135.5 433.5,-135.5 "/>
<text text-anchor="start" x="314.5" y="-123.5" font-family="Helvetica,sans-Serif" font-size="10.00">+ ServerExceptions()</text>
<text text-anchor="start" x="314.5" y="-112.5" font-family="Helvetica,sans-Serif" font-size="10.00">+ ~ServerExceptions()</text>
</a>
</g>
</g>
<!-- Node1&#45;&gt;Node7 -->
<g id="edge6" class="edge"><title>Node1&#45;&gt;Node7</title>
<path fill="none" stroke="midnightblue" d="M332.377,-201.772C338.212,-192.269 344.146,-182.606 349.523,-173.848"/>
<polygon fill="none" stroke="midnightblue" points="329.314,-200.071 327.064,-210.425 335.279,-203.734 329.314,-200.071"/>
</g>
<!-- Node2 -->
<g id="node2" class="node"><title>Node2</title>
<polygon fill="none" stroke="#bfbfbf" points="258,-337.5 258,-394.5 342,-394.5 342,-337.5 258,-337.5"/>
<text text-anchor="middle" x="300" y="-382.5" font-family="Helvetica,sans-Serif" font-size="10.00">std::exception</text>
<polyline fill="none" stroke="#bfbfbf" points="258,-375.5 342,-375.5 "/>
<text text-anchor="middle" x="300" y="-363.5" font-family="Helvetica,sans-Serif" font-size="10.00"> </text>
<polyline fill="none" stroke="#bfbfbf" points="258,-356.5 342,-356.5 "/>
<text text-anchor="middle" x="300" y="-344.5" font-family="Helvetica,sans-Serif" font-size="10.00"> </text>
</g>
<!-- Node2&#45;&gt;Node1 -->
<g id="edge1" class="edge"><title>Node2&#45;&gt;Node1</title>
<path fill="none" stroke="midnightblue" d="M300,-327.214C300,-318.609 300,-309.394 300,-300.554"/>
<polygon fill="none" stroke="midnightblue" points="296.5,-327.34 300,-337.34 303.5,-327.34 296.5,-327.34"/>
</g>
<!-- Node4 -->
<g id="node4" class="node"><title>Node4</title>
<g id="a_node4"><a xlink:href="classComponentExceptions.html" target="_top" xlink:title="Component Class Exceptions. ">
<polygon fill="none" stroke="black" points="0,-0.5 0,-68.5 152,-68.5 152,-0.5 0,-0.5"/>
<text text-anchor="middle" x="76" y="-56.5" font-family="Helvetica,sans-Serif" font-size="10.00">ComponentExceptions</text>
<polyline fill="none" stroke="black" points="0,-49.5 152,-49.5 "/>
<text text-anchor="middle" x="76" y="-37.5" font-family="Helvetica,sans-Serif" font-size="10.00"> </text>
<polyline fill="none" stroke="black" points="0,-30.5 152,-30.5 "/>
<text text-anchor="start" x="8" y="-18.5" font-family="Helvetica,sans-Serif" font-size="10.00">+ ComponentExceptions()</text>
<text text-anchor="start" x="8" y="-7.5" font-family="Helvetica,sans-Serif" font-size="10.00">+ ~ComponentExceptions()</text>
</a>
</g>
</g>
<!-- Node3&#45;&gt;Node4 -->
<g id="edge3" class="edge"><title>Node3&#45;&gt;Node4</title>
<path fill="none" stroke="midnightblue" d="M172.662,-99.7335C157.237,-89.483 140.73,-78.5143 125.803,-68.5947"/>
<polygon fill="none" stroke="midnightblue" points="170.838,-102.724 181.104,-105.343 174.712,-96.8935 170.838,-102.724"/>
</g>
<!-- Node5 -->
<g id="node5" class="node"><title>Node5</title>
<g id="a_node5"><a xlink:href="classEntityExceptions.html" target="_top" xlink:title="Entity Class Exceptions. ">
<polygon fill="none" stroke="black" points="170,-0.5 170,-68.5 292,-68.5 292,-0.5 170,-0.5"/>
<text text-anchor="middle" x="231" y="-56.5" font-family="Helvetica,sans-Serif" font-size="10.00">EntityExceptions</text>
<polyline fill="none" stroke="black" points="170,-49.5 292,-49.5 "/>
<text text-anchor="middle" x="231" y="-37.5" font-family="Helvetica,sans-Serif" font-size="10.00"> </text>
<polyline fill="none" stroke="black" points="170,-30.5 292,-30.5 "/>
<text text-anchor="start" x="178" y="-18.5" font-family="Helvetica,sans-Serif" font-size="10.00">+ EntityExceptions()</text>
<text text-anchor="start" x="178" y="-7.5" font-family="Helvetica,sans-Serif" font-size="10.00">+ ~EntityExceptions()</text>
</a>
</g>
</g>
<!-- Node3&#45;&gt;Node5 -->
<g id="edge4" class="edge"><title>Node3&#45;&gt;Node5</title>
<path fill="none" stroke="midnightblue" d="M231,-95.1362C231,-86.256 231,-77.0447 231,-68.5947"/>
<polygon fill="none" stroke="midnightblue" points="227.5,-95.3432 231,-105.343 234.5,-95.3432 227.5,-95.3432"/>
</g>
<!-- Node6 -->
<g id="node6" class="node"><title>Node6</title>
<g id="a_node6"><a xlink:href="classSystemExceptions.html" target="_top" xlink:title="System class Exception. ">
<polygon fill="none" stroke="black" points="310,-0.5 310,-68.5 442,-68.5 442,-0.5 310,-0.5"/>
<text text-anchor="middle" x="376" y="-56.5" font-family="Helvetica,sans-Serif" font-size="10.00">SystemExceptions</text>
<polyline fill="none" stroke="black" points="310,-49.5 442,-49.5 "/>
<text text-anchor="middle" x="376" y="-37.5" font-family="Helvetica,sans-Serif" font-size="10.00"> </text>
<polyline fill="none" stroke="black" points="310,-30.5 442,-30.5 "/>
<text text-anchor="start" x="318" y="-18.5" font-family="Helvetica,sans-Serif" font-size="10.00">+ SystemExceptions()</text>
<text text-anchor="start" x="318" y="-7.5" font-family="Helvetica,sans-Serif" font-size="10.00">+ ~SystemExceptions()</text>
</a>
</g>
</g>
<!-- Node3&#45;&gt;Node6 -->
<g id="edge5" class="edge"><title>Node3&#45;&gt;Node6</title>
<path fill="none" stroke="midnightblue" d="M285.975,-99.4486C300.29,-89.2799 315.575,-78.4225 329.41,-68.5947"/>
<polygon fill="none" stroke="midnightblue" points="283.803,-96.6987 277.677,-105.343 287.856,-102.405 283.803,-96.6987"/>
</g>
</g>
</svg>
