<?xml version="1.0" encoding="UTF-8" standalone="no"?>
<!DOCTYPE svg PUBLIC "-//W3C//DTD SVG 1.1//EN"
 "http://www.w3.org/Graphics/SVG/1.1/DTD/svg11.dtd">
<!-- Generated by graphviz version 2.38.0 (20140413.2041)
 -->
<!-- Title: ecs::system::PlayerMovementSystem Pages: 1 -->
<svg width="169pt" height="331pt"
 viewBox="0.00 0.00 169.00 331.00" xmlns="http://www.w3.org/2000/svg" xmlns:xlink="http://www.w3.org/1999/xlink">
<g id="graph0" class="graph" transform="scale(1 1) rotate(0) translate(4 327)">
<title>ecs::system::PlayerMovementSystem</title>
<!-- Node1 -->
<g id="node1" class="node"><title>Node1</title>
<polygon fill="#bfbfbf" stroke="black" points="0,-0.5 0,-101.5 161,-101.5 161,-0.5 0,-0.5"/>
<text text-anchor="start" x="8" y="-89.5" font-family="Helvetica,sans-Serif" font-size="10.00">ecs::system::PlayerMovement</text>
<text text-anchor="middle" x="80.5" y="-78.5" font-family="Helvetica,sans-Serif" font-size="10.00">System</text>
<polyline fill="none" stroke="black" points="0,-71.5 161,-71.5 "/>
<text text-anchor="middle" x="80.5" y="-59.5" font-family="Helvetica,sans-Serif" font-size="10.00"> </text>
<polyline fill="none" stroke="black" points="0,-52.5 161,-52.5 "/>
<text text-anchor="start" x="8" y="-40.5" font-family="Helvetica,sans-Serif" font-size="10.00">+ PlayerMovementSystem()</text>
<text text-anchor="start" x="8" y="-29.5" font-family="Helvetica,sans-Serif" font-size="10.00">+ ~PlayerMovementSystem()</text>
<text text-anchor="start" x="8" y="-18.5" font-family="Helvetica,sans-Serif" font-size="10.00">+ update()</text>
<text text-anchor="start" x="8" y="-7.5" font-family="Helvetica,sans-Serif" font-size="10.00">+ updateVelocityOnInput()</text>
</g>
<!-- Node2 -->
<g id="node2" class="node"><title>Node2</title>
<g id="a_node2"><a xlink:href="classecs_1_1system_1_1ASystem.html" target="_top" xlink:title="{ecs::system::ASystem\n|# _managerWrapper\l# _entityFactory\l# _entitiesToDelete\l|+ ASystem()\l+ ~ASystem()\l}">
<polygon fill="none" stroke="black" points="18.5,-138.5 18.5,-228.5 142.5,-228.5 142.5,-138.5 18.5,-138.5"/>
<text text-anchor="middle" x="80.5" y="-216.5" font-family="Helvetica,sans-Serif" font-size="10.00">ecs::system::ASystem</text>
<polyline fill="none" stroke="black" points="18.5,-209.5 142.5,-209.5 "/>
<text text-anchor="start" x="26.5" y="-197.5" font-family="Helvetica,sans-Serif" font-size="10.00"># _managerWrapper</text>
<text text-anchor="start" x="26.5" y="-186.5" font-family="Helvetica,sans-Serif" font-size="10.00"># _entityFactory</text>
<text text-anchor="start" x="26.5" y="-175.5" font-family="Helvetica,sans-Serif" font-size="10.00"># _entitiesToDelete</text>
<polyline fill="none" stroke="black" points="18.5,-168.5 142.5,-168.5 "/>
<text text-anchor="start" x="26.5" y="-156.5" font-family="Helvetica,sans-Serif" font-size="10.00">+ ASystem()</text>
<text text-anchor="start" x="26.5" y="-145.5" font-family="Helvetica,sans-Serif" font-size="10.00">+ ~ASystem()</text>
</a>
</g>
</g>
<!-- Node2&#45;&gt;Node1 -->
<g id="edge1" class="edge"><title>Node2&#45;&gt;Node1</title>
<path fill="none" stroke="midnightblue" d="M80.5,-128.131C80.5,-119.311 80.5,-110.219 80.5,-101.523"/>
<polygon fill="none" stroke="midnightblue" points="77.0001,-128.319 80.5,-138.319 84.0001,-128.319 77.0001,-128.319"/>
</g>
<!-- Node3 -->
<g id="node3" class="node"><title>Node3</title>
<g id="a_node3"><a xlink:href="classecs_1_1system_1_1ISystem.html" target="_top" xlink:title="{ecs::system::ISystem\n||+ update()\l}">
<polygon fill="none" stroke="black" points="21,-265.5 21,-322.5 140,-322.5 140,-265.5 21,-265.5"/>
<text text-anchor="middle" x="80.5" y="-310.5" font-family="Helvetica,sans-Serif" font-size="10.00">ecs::system::ISystem</text>
<polyline fill="none" stroke="black" points="21,-303.5 140,-303.5 "/>
<text text-anchor="middle" x="80.5" y="-291.5" font-family="Helvetica,sans-Serif" font-size="10.00"> </text>
<polyline fill="none" stroke="black" points="21,-284.5 140,-284.5 "/>
<text text-anchor="start" x="29" y="-272.5" font-family="Helvetica,sans-Serif" font-size="10.00">+ update()</text>
</a>
</g>
</g>
<!-- Node3&#45;&gt;Node2 -->
<g id="edge2" class="edge"><title>Node3&#45;&gt;Node2</title>
<path fill="none" stroke="midnightblue" d="M80.5,-255.214C80.5,-246.609 80.5,-237.394 80.5,-228.554"/>
<polygon fill="none" stroke="midnightblue" points="77.0001,-255.34 80.5,-265.34 84.0001,-255.34 77.0001,-255.34"/>
</g>
</g>
</svg>
