<?xml version="1.0" encoding="UTF-8" standalone="no"?>
<!DOCTYPE svg PUBLIC "-//W3C//DTD SVG 1.1//EN"
 "http://www.w3.org/Graphics/SVG/1.1/DTD/svg11.dtd">
<!-- Generated by graphviz version 2.38.0 (20140413.2041)
 -->
<!-- Title: ecs::components::IUserInterface Pages: 1 -->
<svg width="180pt" height="254pt"
 viewBox="0.00 0.00 180.00 254.00" xmlns="http://www.w3.org/2000/svg" xmlns:xlink="http://www.w3.org/1999/xlink">
<g id="graph0" class="graph" transform="scale(1 1) rotate(0) translate(4 250)">
<title>ecs::components::IUserInterface</title>
<!-- Node1 -->
<g id="node1" class="node"><title>Node1</title>
<polygon fill="#bfbfbf" stroke="black" points="0,-0.5 0,-57.5 172,-57.5 172,-0.5 0,-0.5"/>
<text text-anchor="middle" x="86" y="-45.5" font-family="Helvetica,sans-Serif" font-size="10.00">ecs::components::IUserInterface</text>
<polyline fill="none" stroke="black" points="0,-38.5 172,-38.5 "/>
<text text-anchor="middle" x="86" y="-26.5" font-family="Helvetica,sans-Serif" font-size="10.00"> </text>
<polyline fill="none" stroke="black" points="0,-19.5 172,-19.5 "/>
<text text-anchor="middle" x="86" y="-7.5" font-family="Helvetica,sans-Serif" font-size="10.00"> </text>
</g>
<!-- Node2 -->
<g id="node2" class="node"><title>Node2</title>
<g id="a_node2"><a xlink:href="classecs_1_1components_1_1IDisplay.html" target="_top" xlink:title="IDisplay describes an attribute of an Entity that is displayable. ">
<polygon fill="none" stroke="black" points="15,-94.5 15,-151.5 157,-151.5 157,-94.5 15,-94.5"/>
<text text-anchor="middle" x="86" y="-139.5" font-family="Helvetica,sans-Serif" font-size="10.00">ecs::components::IDisplay</text>
<polyline fill="none" stroke="black" points="15,-132.5 157,-132.5 "/>
<text text-anchor="middle" x="86" y="-120.5" font-family="Helvetica,sans-Serif" font-size="10.00"> </text>
<polyline fill="none" stroke="black" points="15,-113.5 157,-113.5 "/>
<text text-anchor="start" x="23" y="-101.5" font-family="Helvetica,sans-Serif" font-size="10.00">+ IDisplay()</text>
</a>
</g>
</g>
<!-- Node2&#45;&gt;Node1 -->
<g id="edge1" class="edge"><title>Node2&#45;&gt;Node1</title>
<path fill="none" stroke="midnightblue" d="M86,-84.2092C86,-75.2929 86,-65.9513 86,-57.5836"/>
<polygon fill="none" stroke="midnightblue" points="82.5001,-84.3969 86,-94.397 89.5001,-84.397 82.5001,-84.3969"/>
</g>
<!-- Node3 -->
<g id="node3" class="node"><title>Node3</title>
<g id="a_node3"><a xlink:href="classecs_1_1components_1_1IComponent.html" target="_top" xlink:title="Icomponent describes an attribute of an Entity. ">
<polygon fill="none" stroke="black" points="4,-188.5 4,-245.5 168,-245.5 168,-188.5 4,-188.5"/>
<text text-anchor="middle" x="86" y="-233.5" font-family="Helvetica,sans-Serif" font-size="10.00">ecs::components::IComponent</text>
<polyline fill="none" stroke="black" points="4,-226.5 168,-226.5 "/>
<text text-anchor="middle" x="86" y="-214.5" font-family="Helvetica,sans-Serif" font-size="10.00"> </text>
<polyline fill="none" stroke="black" points="4,-207.5 168,-207.5 "/>
<text text-anchor="start" x="12" y="-195.5" font-family="Helvetica,sans-Serif" font-size="10.00">+ getType()</text>
</a>
</g>
</g>
<!-- Node3&#45;&gt;Node2 -->
<g id="edge2" class="edge"><title>Node3&#45;&gt;Node2</title>
<path fill="none" stroke="midnightblue" d="M86,-178.209C86,-169.293 86,-159.951 86,-151.584"/>
<polygon fill="none" stroke="midnightblue" points="82.5001,-178.397 86,-188.397 89.5001,-178.397 82.5001,-178.397"/>
</g>
</g>
</svg>
