<?xml version="1.0" encoding="UTF-8" standalone="no"?>
<!DOCTYPE svg PUBLIC "-//W3C//DTD SVG 1.1//EN"
 "http://www.w3.org/Graphics/SVG/1.1/DTD/svg11.dtd">
<!-- Generated by graphviz version 2.38.0 (20140413.2041)
 -->
<!-- Title: ecs::Texture Pages: 1 -->
<svg width="118pt" height="193pt"
 viewBox="0.00 0.00 118.00 193.00" xmlns="http://www.w3.org/2000/svg" xmlns:xlink="http://www.w3.org/1999/xlink">
<g id="graph0" class="graph" transform="scale(1 1) rotate(0) translate(4 189)">
<title>ecs::Texture</title>
<!-- Node1 -->
<g id="node1" class="node"><title>Node1</title>
<polygon fill="#bfbfbf" stroke="black" points="0,-0.5 0,-90.5 110,-90.5 110,-0.5 0,-0.5"/>
<text text-anchor="middle" x="55" y="-78.5" font-family="Helvetica,sans-Serif" font-size="10.00">ecs::Texture</text>
<polyline fill="none" stroke="black" points="0,-71.5 110,-71.5 "/>
<text text-anchor="middle" x="55" y="-59.5" font-family="Helvetica,sans-Serif" font-size="10.00"> </text>
<polyline fill="none" stroke="black" points="0,-52.5 110,-52.5 "/>
<text text-anchor="start" x="8" y="-40.5" font-family="Helvetica,sans-Serif" font-size="10.00">+ Texture()</text>
<text text-anchor="start" x="8" y="-29.5" font-family="Helvetica,sans-Serif" font-size="10.00">+ ~Texture()</text>
<text text-anchor="start" x="8" y="-18.5" font-family="Helvetica,sans-Serif" font-size="10.00">+ getName()</text>
<text text-anchor="start" x="8" y="-7.5" font-family="Helvetica,sans-Serif" font-size="10.00">+ getSFMLTexture()</text>
</g>
<!-- Node2 -->
<g id="node2" class="node"><title>Node2</title>
<g id="a_node2"><a xlink:href="classecs_1_1ITexture.html" target="_top" xlink:title="{ecs::ITexture\n||+ getName()\l}">
<polygon fill="none" stroke="black" points="15,-127.5 15,-184.5 95,-184.5 95,-127.5 15,-127.5"/>
<text text-anchor="middle" x="55" y="-172.5" font-family="Helvetica,sans-Serif" font-size="10.00">ecs::ITexture</text>
<polyline fill="none" stroke="black" points="15,-165.5 95,-165.5 "/>
<text text-anchor="middle" x="55" y="-153.5" font-family="Helvetica,sans-Serif" font-size="10.00"> </text>
<polyline fill="none" stroke="black" points="15,-146.5 95,-146.5 "/>
<text text-anchor="start" x="23" y="-134.5" font-family="Helvetica,sans-Serif" font-size="10.00">+ getName()</text>
</a>
</g>
</g>
<!-- Node2&#45;&gt;Node1 -->
<g id="edge1" class="edge"><title>Node2&#45;&gt;Node1</title>
<path fill="none" stroke="midnightblue" d="M55,-117.214C55,-108.609 55,-99.3943 55,-90.5541"/>
<polygon fill="none" stroke="midnightblue" points="51.5001,-117.34 55,-127.34 58.5001,-117.34 51.5001,-117.34"/>
</g>
</g>
</svg>
