<?xml version="1.0" encoding="UTF-8" standalone="no"?>
<!DOCTYPE svg PUBLIC "-//W3C//DTD SVG 1.1//EN"
 "http://www.w3.org/Graphics/SVG/1.1/DTD/svg11.dtd">
<!-- Generated by graphviz version 2.38.0 (20140413.2041)
 -->
<!-- Title: ecs::network::UDPClient Pages: 1 -->
<svg width="399pt" height="354pt"
 viewBox="0.00 0.00 399.00 354.00" xmlns="http://www.w3.org/2000/svg" xmlns:xlink="http://www.w3.org/1999/xlink">
<g id="graph0" class="graph" transform="scale(1 1) rotate(0) translate(4 350)">
<title>ecs::network::UDPClient</title>
<!-- Node1 -->
<g id="node1" class="node"><title>Node1</title>
<polygon fill="#bfbfbf" stroke="black" points="119.5,-0.5 119.5,-79.5 250.5,-79.5 250.5,-0.5 119.5,-0.5"/>
<text text-anchor="middle" x="185" y="-67.5" font-family="Helvetica,sans-Serif" font-size="10.00">ecs::network::UDPClient</text>
<polyline fill="none" stroke="black" points="119.5,-60.5 250.5,-60.5 "/>
<text text-anchor="middle" x="185" y="-48.5" font-family="Helvetica,sans-Serif" font-size="10.00"> </text>
<polyline fill="none" stroke="black" points="119.5,-41.5 250.5,-41.5 "/>
<text text-anchor="start" x="127.5" y="-29.5" font-family="Helvetica,sans-Serif" font-size="10.00">+ UDPClient()</text>
<text text-anchor="start" x="127.5" y="-18.5" font-family="Helvetica,sans-Serif" font-size="10.00">+ handle_receive()</text>
<text text-anchor="start" x="127.5" y="-7.5" font-family="Helvetica,sans-Serif" font-size="10.00">+ send()</text>
</g>
<!-- Node2 -->
<g id="node2" class="node"><title>Node2</title>
<g id="a_node2"><a xlink:href="classecs_1_1network_1_1AUDPNetwork.html" target="_top" xlink:title="{ecs::network::AUDPNetwork\n||+ AUDPNetwork()\l+ AUDPNetwork()\l+ handle_receive()\l+ send()\l+ run()\l+ do_receive()\l}">
<polygon fill="none" stroke="black" points="110.5,-117.5 110.5,-229.5 259.5,-229.5 259.5,-117.5 110.5,-117.5"/>
<text text-anchor="middle" x="185" y="-217.5" font-family="Helvetica,sans-Serif" font-size="10.00">ecs::network::AUDPNetwork</text>
<polyline fill="none" stroke="black" points="110.5,-210.5 259.5,-210.5 "/>
<text text-anchor="middle" x="185" y="-198.5" font-family="Helvetica,sans-Serif" font-size="10.00"> </text>
<polyline fill="none" stroke="black" points="110.5,-191.5 259.5,-191.5 "/>
<text text-anchor="start" x="118.5" y="-179.5" font-family="Helvetica,sans-Serif" font-size="10.00">+ AUDPNetwork()</text>
<text text-anchor="start" x="118.5" y="-168.5" font-family="Helvetica,sans-Serif" font-size="10.00">+ AUDPNetwork()</text>
<text text-anchor="start" x="118.5" y="-157.5" font-family="Helvetica,sans-Serif" font-size="10.00">+ handle_receive()</text>
<text text-anchor="start" x="118.5" y="-146.5" font-family="Helvetica,sans-Serif" font-size="10.00">+ send()</text>
<text text-anchor="start" x="118.5" y="-135.5" font-family="Helvetica,sans-Serif" font-size="10.00">+ run()</text>
<text text-anchor="start" x="118.5" y="-124.5" font-family="Helvetica,sans-Serif" font-size="10.00">+ do_receive()</text>
</a>
</g>
</g>
<!-- Node2&#45;&gt;Node1 -->
<g id="edge1" class="edge"><title>Node2&#45;&gt;Node1</title>
<path fill="none" stroke="midnightblue" d="M185,-107.32C185,-97.9041 185,-88.4729 185,-79.7985"/>
<polygon fill="none" stroke="midnightblue" points="181.5,-107.494 185,-117.494 188.5,-107.494 181.5,-107.494"/>
</g>
<!-- Node3 -->
<g id="node3" class="node"><title>Node3</title>
<polygon fill="none" stroke="#bfbfbf" points="0,-288.5 0,-345.5 48,-345.5 48,-288.5 0,-288.5"/>
<text text-anchor="middle" x="24" y="-333.5" font-family="Helvetica,sans-Serif" font-size="10.00">socket</text>
<polyline fill="none" stroke="#bfbfbf" points="0,-326.5 48,-326.5 "/>
<text text-anchor="middle" x="24" y="-314.5" font-family="Helvetica,sans-Serif" font-size="10.00"> </text>
<polyline fill="none" stroke="#bfbfbf" points="0,-307.5 48,-307.5 "/>
<text text-anchor="middle" x="24" y="-295.5" font-family="Helvetica,sans-Serif" font-size="10.00"> </text>
</g>
<!-- Node3&#45;&gt;Node2 -->
<g id="edge2" class="edge"><title>Node3&#45;&gt;Node2</title>
<path fill="none" stroke="#404040" d="M32.6272,-288.214C37.8021,-274.894 45.4579,-259.399 56,-248 68.4903,-234.495 84.042,-222.807 99.9776,-212.974"/>
<polygon fill="none" stroke="#404040" points="100.142,-212.877 103.276,-206.383 110.477,-206.779 107.342,-213.273 100.142,-212.877"/>
<text text-anchor="middle" x="80.5" y="-256.5" font-family="Helvetica,sans-Serif" font-size="10.00"> #_socket</text>
</g>
<!-- Node4 -->
<g id="node4" class="node"><title>Node4</title>
<polygon fill="none" stroke="#bfbfbf" points="66,-288.5 66,-345.5 132,-345.5 132,-288.5 66,-288.5"/>
<text text-anchor="middle" x="99" y="-333.5" font-family="Helvetica,sans-Serif" font-size="10.00">io_context</text>
<polyline fill="none" stroke="#bfbfbf" points="66,-326.5 132,-326.5 "/>
<text text-anchor="middle" x="99" y="-314.5" font-family="Helvetica,sans-Serif" font-size="10.00"> </text>
<polyline fill="none" stroke="#bfbfbf" points="66,-307.5 132,-307.5 "/>
<text text-anchor="middle" x="99" y="-295.5" font-family="Helvetica,sans-Serif" font-size="10.00"> </text>
</g>
<!-- Node4&#45;&gt;Node2 -->
<g id="edge3" class="edge"><title>Node4&#45;&gt;Node2</title>
<path fill="none" stroke="#404040" d="M103.139,-288.371C105.84,-275.54 110.175,-260.414 117,-248 118.556,-245.17 120.244,-242.363 122.037,-239.592"/>
<polygon fill="none" stroke="#404040" points="122.058,-239.563 122.222,-232.353 128.94,-229.732 128.776,-236.941 122.058,-239.563"/>
<text text-anchor="middle" x="148.5" y="-256.5" font-family="Helvetica,sans-Serif" font-size="10.00"> #_ioContext</text>
</g>
<!-- Node5 -->
<g id="node5" class="node"><title>Node5</title>
<polygon fill="none" stroke="#bfbfbf" points="164,-288.5 164,-345.5 202,-345.5 202,-288.5 164,-288.5"/>
<text text-anchor="middle" x="183" y="-333.5" font-family="Helvetica,sans-Serif" font-size="10.00">char</text>
<polyline fill="none" stroke="#bfbfbf" points="164,-326.5 202,-326.5 "/>
<text text-anchor="middle" x="183" y="-314.5" font-family="Helvetica,sans-Serif" font-size="10.00"> </text>
<polyline fill="none" stroke="#bfbfbf" points="164,-307.5 202,-307.5 "/>
<text text-anchor="middle" x="183" y="-295.5" font-family="Helvetica,sans-Serif" font-size="10.00"> </text>
</g>
<!-- Node5&#45;&gt;Node2 -->
<g id="edge4" class="edge"><title>Node5&#45;&gt;Node2</title>
<path fill="none" stroke="#404040" d="M183.39,-288.381C183.579,-275.051 183.814,-258.416 184.046,-242.014"/>
<polygon fill="none" stroke="#404040" points="184.052,-241.574 180.137,-235.518 184.222,-229.575 188.136,-235.631 184.052,-241.574"/>
<text text-anchor="middle" x="203.5" y="-256.5" font-family="Helvetica,sans-Serif" font-size="10.00"> #data_</text>
</g>
<!-- Node6 -->
<g id="node6" class="node"><title>Node6</title>
<polygon fill="none" stroke="#bfbfbf" points="220.5,-288.5 220.5,-345.5 279.5,-345.5 279.5,-288.5 220.5,-288.5"/>
<text text-anchor="middle" x="250" y="-333.5" font-family="Helvetica,sans-Serif" font-size="10.00">endpoint</text>
<polyline fill="none" stroke="#bfbfbf" points="220.5,-326.5 279.5,-326.5 "/>
<text text-anchor="middle" x="250" y="-314.5" font-family="Helvetica,sans-Serif" font-size="10.00"> </text>
<polyline fill="none" stroke="#bfbfbf" points="220.5,-307.5 279.5,-307.5 "/>
<text text-anchor="middle" x="250" y="-295.5" font-family="Helvetica,sans-Serif" font-size="10.00"> </text>
</g>
<!-- Node6&#45;&gt;Node2 -->
<g id="edge5" class="edge"><title>Node6&#45;&gt;Node2</title>
<path fill="none" stroke="#404040" d="M242,-288.404C238.026,-275.859 232.828,-260.957 227,-248 225.898,-245.55 224.739,-243.074 223.537,-240.59"/>
<polygon fill="none" stroke="#404040" points="223.443,-240.405 217.168,-236.852 218.034,-229.693 224.309,-233.246 223.443,-240.405"/>
<text text-anchor="middle" x="284.5" y="-256.5" font-family="Helvetica,sans-Serif" font-size="10.00"> #sender_endpoint_</text>
</g>
<!-- Node7 -->
<g id="node7" class="node"><title>Node7</title>
<polygon fill="none" stroke="#bfbfbf" points="347,-288.5 347,-345.5 391,-345.5 391,-288.5 347,-288.5"/>
<text text-anchor="middle" x="369" y="-333.5" font-family="Helvetica,sans-Serif" font-size="10.00">string</text>
<polyline fill="none" stroke="#bfbfbf" points="347,-326.5 391,-326.5 "/>
<text text-anchor="middle" x="369" y="-314.5" font-family="Helvetica,sans-Serif" font-size="10.00"> </text>
<polyline fill="none" stroke="#bfbfbf" points="347,-307.5 391,-307.5 "/>
<text text-anchor="middle" x="369" y="-295.5" font-family="Helvetica,sans-Serif" font-size="10.00"> </text>
</g>
<!-- Node7&#45;&gt;Node2 -->
<g id="edge6" class="edge"><title>Node7&#45;&gt;Node2</title>
<path fill="none" stroke="#404040" d="M360.826,-288.24C355.732,-274.766 348.012,-259.129 337,-248 318.579,-229.383 294.5,-214.808 270.958,-203.722"/>
<polygon fill="none" stroke="#404040" points="270.779,-203.641 263.666,-204.825 259.837,-198.714 266.95,-197.53 270.779,-203.641"/>
<text text-anchor="middle" x="371.5" y="-262" font-family="Helvetica,sans-Serif" font-size="10.00"> #_port</text>
<text text-anchor="middle" x="371.5" y="-251" font-family="Helvetica,sans-Serif" font-size="10.00">#_ip</text>
</g>
</g>
</svg>
