<?xml version="1.0" encoding="UTF-8" standalone="no"?>
<!DOCTYPE svg PUBLIC "-//W3C//DTD SVG 1.1//EN"
 "http://www.w3.org/Graphics/SVG/1.1/DTD/svg11.dtd">
<!-- Generated by graphviz version 2.38.0 (20140413.2041)
 -->
<!-- Title: ecs::components::IUserInterface Pages: 1 -->
<svg width="610pt" height="640pt"
 viewBox="0.00 0.00 609.50 640.00" xmlns="http://www.w3.org/2000/svg" xmlns:xlink="http://www.w3.org/1999/xlink">
<g id="graph0" class="graph" transform="scale(1 1) rotate(0) translate(4 636)">
<title>ecs::components::IUserInterface</title>
<!-- Node1 -->
<g id="node1" class="node"><title>Node1</title>
<polygon fill="#bfbfbf" stroke="black" points="213.5,-386.5 213.5,-443.5 385.5,-443.5 385.5,-386.5 213.5,-386.5"/>
<text text-anchor="middle" x="299.5" y="-431.5" font-family="Helvetica,sans-Serif" font-size="10.00">ecs::components::IUserInterface</text>
<polyline fill="none" stroke="black" points="213.5,-424.5 385.5,-424.5 "/>
<text text-anchor="middle" x="299.5" y="-412.5" font-family="Helvetica,sans-Serif" font-size="10.00"> </text>
<polyline fill="none" stroke="black" points="213.5,-405.5 385.5,-405.5 "/>
<text text-anchor="middle" x="299.5" y="-393.5" font-family="Helvetica,sans-Serif" font-size="10.00"> </text>
</g>
<!-- Node4 -->
<g id="node4" class="node"><title>Node4</title>
<g id="a_node4"><a xlink:href="classecs_1_1components_1_1Button.html" target="_top" xlink:title="Button describes an attribute that is button. ">
<polygon fill="none" stroke="black" points="0,-155 0,-322 137,-322 137,-155 0,-155"/>
<text text-anchor="middle" x="68.5" y="-310" font-family="Helvetica,sans-Serif" font-size="10.00">ecs::components::Button</text>
<polyline fill="none" stroke="black" points="0,-303 137,-303 "/>
<text text-anchor="middle" x="68.5" y="-291" font-family="Helvetica,sans-Serif" font-size="10.00"> </text>
<polyline fill="none" stroke="black" points="0,-284 137,-284 "/>
<text text-anchor="start" x="8" y="-272" font-family="Helvetica,sans-Serif" font-size="10.00">+ Button()</text>
<text text-anchor="start" x="8" y="-261" font-family="Helvetica,sans-Serif" font-size="10.00">+ Button()</text>
<text text-anchor="start" x="8" y="-250" font-family="Helvetica,sans-Serif" font-size="10.00">+ ~Button()</text>
<text text-anchor="start" x="8" y="-239" font-family="Helvetica,sans-Serif" font-size="10.00">+ setIsSelected()</text>
<text text-anchor="start" x="8" y="-228" font-family="Helvetica,sans-Serif" font-size="10.00">+ getIsSelected()</text>
<text text-anchor="start" x="8" y="-217" font-family="Helvetica,sans-Serif" font-size="10.00">+ setCmd()</text>
<text text-anchor="start" x="8" y="-206" font-family="Helvetica,sans-Serif" font-size="10.00">+ getCmd()</text>
<text text-anchor="start" x="8" y="-195" font-family="Helvetica,sans-Serif" font-size="10.00">+ setParameter()</text>
<text text-anchor="start" x="8" y="-184" font-family="Helvetica,sans-Serif" font-size="10.00">+ getParameter()</text>
<text text-anchor="start" x="8" y="-173" font-family="Helvetica,sans-Serif" font-size="10.00">+ getType()</text>
<text text-anchor="start" x="8" y="-162" font-family="Helvetica,sans-Serif" font-size="10.00">+ operator==()</text>
</a>
</g>
</g>
<!-- Node1&#45;&gt;Node4 -->
<g id="edge3" class="edge"><title>Node1&#45;&gt;Node4</title>
<path fill="none" stroke="midnightblue" d="M203.828,-384.155C183.341,-375.143 162.708,-363.859 145.5,-350 135.575,-342.007 126.387,-332.408 118.07,-322.251"/>
<polygon fill="none" stroke="midnightblue" points="202.645,-387.455 213.218,-388.137 205.378,-381.01 202.645,-387.455"/>
</g>
<!-- Node5 -->
<g id="node5" class="node"><title>Node5</title>
<g id="a_node5"><a xlink:href="classecs_1_1components_1_1Image.html" target="_top" xlink:title="Image describes an attribute that is an Image. ">
<polygon fill="none" stroke="black" points="155,-177 155,-300 290,-300 290,-177 155,-177"/>
<text text-anchor="middle" x="222.5" y="-288" font-family="Helvetica,sans-Serif" font-size="10.00">ecs::components::Image</text>
<polyline fill="none" stroke="black" points="155,-281 290,-281 "/>
<text text-anchor="middle" x="222.5" y="-269" font-family="Helvetica,sans-Serif" font-size="10.00"> </text>
<polyline fill="none" stroke="black" points="155,-262 290,-262 "/>
<text text-anchor="start" x="163" y="-250" font-family="Helvetica,sans-Serif" font-size="10.00">+ Image()</text>
<text text-anchor="start" x="163" y="-239" font-family="Helvetica,sans-Serif" font-size="10.00">+ Image()</text>
<text text-anchor="start" x="163" y="-228" font-family="Helvetica,sans-Serif" font-size="10.00">+ ~Image()</text>
<text text-anchor="start" x="163" y="-217" font-family="Helvetica,sans-Serif" font-size="10.00">+ setId()</text>
<text text-anchor="start" x="163" y="-206" font-family="Helvetica,sans-Serif" font-size="10.00">+ getId()</text>
<text text-anchor="start" x="163" y="-195" font-family="Helvetica,sans-Serif" font-size="10.00">+ getType()</text>
<text text-anchor="start" x="163" y="-184" font-family="Helvetica,sans-Serif" font-size="10.00">+ operator==()</text>
</a>
</g>
</g>
<!-- Node1&#45;&gt;Node5 -->
<g id="edge4" class="edge"><title>Node1&#45;&gt;Node5</title>
<path fill="none" stroke="midnightblue" d="M283.143,-376.932C273.319,-354.668 260.581,-325.799 249.316,-300.271"/>
<polygon fill="none" stroke="midnightblue" points="280.06,-378.614 287.299,-386.35 286.464,-375.788 280.06,-378.614"/>
</g>
<!-- Node6 -->
<g id="node6" class="node"><title>Node6</title>
<g id="a_node6"><a xlink:href="classecs_1_1components_1_1PopUp.html" target="_top" xlink:title="PopUp describes an attribute that is a popUp. ">
<polygon fill="none" stroke="black" points="308,-177 308,-300 445,-300 445,-177 308,-177"/>
<text text-anchor="middle" x="376.5" y="-288" font-family="Helvetica,sans-Serif" font-size="10.00">ecs::components::PopUp</text>
<polyline fill="none" stroke="black" points="308,-281 445,-281 "/>
<text text-anchor="middle" x="376.5" y="-269" font-family="Helvetica,sans-Serif" font-size="10.00"> </text>
<polyline fill="none" stroke="black" points="308,-262 445,-262 "/>
<text text-anchor="start" x="316" y="-250" font-family="Helvetica,sans-Serif" font-size="10.00">+ PopUp()</text>
<text text-anchor="start" x="316" y="-239" font-family="Helvetica,sans-Serif" font-size="10.00">+ PopUp()</text>
<text text-anchor="start" x="316" y="-228" font-family="Helvetica,sans-Serif" font-size="10.00">+ ~PopUp()</text>
<text text-anchor="start" x="316" y="-217" font-family="Helvetica,sans-Serif" font-size="10.00">+ setId()</text>
<text text-anchor="start" x="316" y="-206" font-family="Helvetica,sans-Serif" font-size="10.00">+ getId()</text>
<text text-anchor="start" x="316" y="-195" font-family="Helvetica,sans-Serif" font-size="10.00">+ getType()</text>
<text text-anchor="start" x="316" y="-184" font-family="Helvetica,sans-Serif" font-size="10.00">+ operator==()</text>
</a>
</g>
</g>
<!-- Node1&#45;&gt;Node6 -->
<g id="edge5" class="edge"><title>Node1&#45;&gt;Node6</title>
<path fill="none" stroke="midnightblue" d="M315.857,-376.932C325.681,-354.668 338.419,-325.799 349.684,-300.271"/>
<polygon fill="none" stroke="midnightblue" points="312.536,-375.788 311.701,-386.35 318.94,-378.614 312.536,-375.788"/>
</g>
<!-- Node7 -->
<g id="node7" class="node"><title>Node7</title>
<g id="a_node7"><a xlink:href="classecs_1_1components_1_1Text.html" target="_top" xlink:title="Text describes an attribute that is a Text. ">
<polygon fill="none" stroke="black" points="463.5,-127.5 463.5,-349.5 587.5,-349.5 587.5,-127.5 463.5,-127.5"/>
<text text-anchor="middle" x="525.5" y="-337.5" font-family="Helvetica,sans-Serif" font-size="10.00">ecs::components::Text</text>
<polyline fill="none" stroke="black" points="463.5,-330.5 587.5,-330.5 "/>
<text text-anchor="middle" x="525.5" y="-318.5" font-family="Helvetica,sans-Serif" font-size="10.00"> </text>
<polyline fill="none" stroke="black" points="463.5,-311.5 587.5,-311.5 "/>
<text text-anchor="start" x="471.5" y="-299.5" font-family="Helvetica,sans-Serif" font-size="10.00">+ Text()</text>
<text text-anchor="start" x="471.5" y="-288.5" font-family="Helvetica,sans-Serif" font-size="10.00">+ Text()</text>
<text text-anchor="start" x="471.5" y="-277.5" font-family="Helvetica,sans-Serif" font-size="10.00">+ Text()</text>
<text text-anchor="start" x="471.5" y="-266.5" font-family="Helvetica,sans-Serif" font-size="10.00">+ ~Text()</text>
<text text-anchor="start" x="471.5" y="-255.5" font-family="Helvetica,sans-Serif" font-size="10.00">+ setId()</text>
<text text-anchor="start" x="471.5" y="-244.5" font-family="Helvetica,sans-Serif" font-size="10.00">+ getId()</text>
<text text-anchor="start" x="471.5" y="-233.5" font-family="Helvetica,sans-Serif" font-size="10.00">+ getType()</text>
<text text-anchor="start" x="471.5" y="-222.5" font-family="Helvetica,sans-Serif" font-size="10.00">+ setStr()</text>
<text text-anchor="start" x="471.5" y="-211.5" font-family="Helvetica,sans-Serif" font-size="10.00">+ getStr()</text>
<text text-anchor="start" x="471.5" y="-200.5" font-family="Helvetica,sans-Serif" font-size="10.00">+ setSize()</text>
<text text-anchor="start" x="471.5" y="-189.5" font-family="Helvetica,sans-Serif" font-size="10.00">+ getSize()</text>
<text text-anchor="start" x="471.5" y="-178.5" font-family="Helvetica,sans-Serif" font-size="10.00">+ setColor()</text>
<text text-anchor="start" x="471.5" y="-167.5" font-family="Helvetica,sans-Serif" font-size="10.00">+ getColor()</text>
<text text-anchor="start" x="471.5" y="-156.5" font-family="Helvetica,sans-Serif" font-size="10.00">+ getPostion()</text>
<text text-anchor="start" x="471.5" y="-145.5" font-family="Helvetica,sans-Serif" font-size="10.00">+ setPostion()</text>
<text text-anchor="start" x="471.5" y="-134.5" font-family="Helvetica,sans-Serif" font-size="10.00">+ operator==()</text>
</a>
</g>
</g>
<!-- Node1&#45;&gt;Node7 -->
<g id="edge6" class="edge"><title>Node1&#45;&gt;Node7</title>
<path fill="none" stroke="midnightblue" d="M395.145,-384.702C415.731,-375.646 436.414,-364.205 453.5,-350 456.845,-347.219 460.091,-344.242 463.232,-341.113"/>
<polygon fill="none" stroke="midnightblue" points="393.551,-381.575 385.706,-388.696 396.279,-388.022 393.551,-381.575"/>
</g>
<!-- Node2 -->
<g id="node2" class="node"><title>Node2</title>
<g id="a_node2"><a xlink:href="classecs_1_1components_1_1IDisplay.html" target="_top" xlink:title="IDisplay describes an attribute of an Entity that is displayable. ">
<polygon fill="none" stroke="black" points="228.5,-480.5 228.5,-537.5 370.5,-537.5 370.5,-480.5 228.5,-480.5"/>
<text text-anchor="middle" x="299.5" y="-525.5" font-family="Helvetica,sans-Serif" font-size="10.00">ecs::components::IDisplay</text>
<polyline fill="none" stroke="black" points="228.5,-518.5 370.5,-518.5 "/>
<text text-anchor="middle" x="299.5" y="-506.5" font-family="Helvetica,sans-Serif" font-size="10.00"> </text>
<polyline fill="none" stroke="black" points="228.5,-499.5 370.5,-499.5 "/>
<text text-anchor="start" x="236.5" y="-487.5" font-family="Helvetica,sans-Serif" font-size="10.00">+ IDisplay()</text>
</a>
</g>
</g>
<!-- Node2&#45;&gt;Node1 -->
<g id="edge1" class="edge"><title>Node2&#45;&gt;Node1</title>
<path fill="none" stroke="midnightblue" d="M299.5,-470.209C299.5,-461.293 299.5,-451.951 299.5,-443.584"/>
<polygon fill="none" stroke="midnightblue" points="296,-470.397 299.5,-480.397 303,-470.397 296,-470.397"/>
</g>
<!-- Node3 -->
<g id="node3" class="node"><title>Node3</title>
<g id="a_node3"><a xlink:href="classecs_1_1components_1_1IComponent.html" target="_top" xlink:title="Icomponent describes an attribute of an Entity. ">
<polygon fill="none" stroke="black" points="217.5,-574.5 217.5,-631.5 381.5,-631.5 381.5,-574.5 217.5,-574.5"/>
<text text-anchor="middle" x="299.5" y="-619.5" font-family="Helvetica,sans-Serif" font-size="10.00">ecs::components::IComponent</text>
<polyline fill="none" stroke="black" points="217.5,-612.5 381.5,-612.5 "/>
<text text-anchor="middle" x="299.5" y="-600.5" font-family="Helvetica,sans-Serif" font-size="10.00"> </text>
<polyline fill="none" stroke="black" points="217.5,-593.5 381.5,-593.5 "/>
<text text-anchor="start" x="225.5" y="-581.5" font-family="Helvetica,sans-Serif" font-size="10.00">+ getType()</text>
</a>
</g>
</g>
<!-- Node3&#45;&gt;Node2 -->
<g id="edge2" class="edge"><title>Node3&#45;&gt;Node2</title>
<path fill="none" stroke="midnightblue" d="M299.5,-564.209C299.5,-555.293 299.5,-545.951 299.5,-537.584"/>
<polygon fill="none" stroke="midnightblue" points="296,-564.397 299.5,-574.397 303,-564.397 296,-564.397"/>
</g>
<!-- Node8 -->
<g id="node8" class="node"><title>Node8</title>
<g id="a_node8"><a xlink:href="classecs_1_1components_1_1StaticText.html" target="_top" xlink:title="StaticText describes an attribute that is a StaticText. ">
<polygon fill="none" stroke="black" points="449.5,-0.5 449.5,-90.5 601.5,-90.5 601.5,-0.5 449.5,-0.5"/>
<text text-anchor="middle" x="525.5" y="-78.5" font-family="Helvetica,sans-Serif" font-size="10.00">ecs::components::StaticText</text>
<polyline fill="none" stroke="black" points="449.5,-71.5 601.5,-71.5 "/>
<text text-anchor="middle" x="525.5" y="-59.5" font-family="Helvetica,sans-Serif" font-size="10.00"> </text>
<polyline fill="none" stroke="black" points="449.5,-52.5 601.5,-52.5 "/>
<text text-anchor="start" x="457.5" y="-40.5" font-family="Helvetica,sans-Serif" font-size="10.00">+ StaticText()</text>
<text text-anchor="start" x="457.5" y="-29.5" font-family="Helvetica,sans-Serif" font-size="10.00">+ StaticText()</text>
<text text-anchor="start" x="457.5" y="-18.5" font-family="Helvetica,sans-Serif" font-size="10.00">+ ~StaticText()</text>
<text text-anchor="start" x="457.5" y="-7.5" font-family="Helvetica,sans-Serif" font-size="10.00">+ getType()</text>
</a>
</g>
</g>
<!-- Node7&#45;&gt;Node8 -->
<g id="edge7" class="edge"><title>Node7&#45;&gt;Node8</title>
<path fill="none" stroke="midnightblue" d="M525.5,-117.039C525.5,-107.757 525.5,-98.8141 525.5,-90.5947"/>
<polygon fill="none" stroke="midnightblue" points="522,-117.224 525.5,-127.224 529,-117.224 522,-117.224"/>
</g>
</g>
</svg>
