<?xml version="1.0" encoding="UTF-8" standalone="no"?>
<!DOCTYPE svg PUBLIC "-//W3C//DTD SVG 1.1//EN"
 "http://www.w3.org/Graphics/SVG/1.1/DTD/svg11.dtd">
<!-- Generated by graphviz version 2.38.0 (20140413.2041)
 -->
<!-- Title: src/Network/Session/ClientSession.cpp Pages: 1 -->
<svg width="397pt" height="207pt"
 viewBox="0.00 0.00 396.50 207.00" xmlns="http://www.w3.org/2000/svg" xmlns:xlink="http://www.w3.org/1999/xlink">
<g id="graph0" class="graph" transform="scale(1 1) rotate(0) translate(4 203)">
<title>src/Network/Session/ClientSession.cpp</title>
<!-- Node1 -->
<g id="node1" class="node"><title>Node1</title>
<polygon fill="#bfbfbf" stroke="black" points="53.5,-168.5 53.5,-198.5 166.5,-198.5 166.5,-168.5 53.5,-168.5"/>
<text text-anchor="start" x="61.5" y="-186.5" font-family="Helvetica,sans-Serif" font-size="10.00">src/Network/Session</text>
<text text-anchor="middle" x="110" y="-175.5" font-family="Helvetica,sans-Serif" font-size="10.00">/ClientSession.cpp</text>
</g>
<!-- Node2 -->
<g id="node2" class="node"><title>Node2</title>
<polygon fill="none" stroke="#bfbfbf" points="22.5,-112.5 22.5,-131.5 81.5,-131.5 81.5,-112.5 22.5,-112.5"/>
<text text-anchor="middle" x="52" y="-119.5" font-family="Helvetica,sans-Serif" font-size="10.00">iostream</text>
</g>
<!-- Node1&#45;&gt;Node2 -->
<g id="edge1" class="edge"><title>Node1&#45;&gt;Node2</title>
<path fill="none" stroke="midnightblue" d="M96.2548,-168.399C87.6529,-159.575 76.5479,-148.183 67.614,-139.018"/>
<polygon fill="midnightblue" stroke="midnightblue" points="69.926,-136.375 60.4395,-131.658 64.9135,-141.262 69.926,-136.375"/>
</g>
<!-- Node3 -->
<g id="node3" class="node"><title>Node3</title>
<g id="a_node3"><a xlink:href="PacketManager_8hpp.html" target="_top" xlink:title="PacketManager.hpp">
<polygon fill="none" stroke="black" points="55,-56.5 55,-75.5 165,-75.5 165,-56.5 55,-56.5"/>
<text text-anchor="middle" x="110" y="-63.5" font-family="Helvetica,sans-Serif" font-size="10.00">PacketManager.hpp</text>
</a>
</g>
</g>
<!-- Node1&#45;&gt;Node3 -->
<g id="edge2" class="edge"><title>Node1&#45;&gt;Node3</title>
<path fill="none" stroke="midnightblue" d="M110,-168.337C110,-147.622 110,-109.016 110,-85.8991"/>
<polygon fill="midnightblue" stroke="midnightblue" points="113.5,-85.6694 110,-75.6695 106.5,-85.6695 113.5,-85.6694"/>
</g>
<!-- Node7 -->
<g id="node7" class="node"><title>Node7</title>
<g id="a_node7"><a xlink:href="ClientSession_8hpp.html" target="_top" xlink:title="ClientSession.hpp">
<polygon fill="none" stroke="black" points="138,-112.5 138,-131.5 240,-131.5 240,-112.5 138,-112.5"/>
<text text-anchor="middle" x="189" y="-119.5" font-family="Helvetica,sans-Serif" font-size="10.00">ClientSession.hpp</text>
</a>
</g>
</g>
<!-- Node1&#45;&gt;Node7 -->
<g id="edge6" class="edge"><title>Node1&#45;&gt;Node7</title>
<path fill="none" stroke="midnightblue" d="M128.722,-168.399C140.912,-159.218 156.792,-147.258 169.193,-137.918"/>
<polygon fill="midnightblue" stroke="midnightblue" points="171.623,-140.47 177.505,-131.658 167.411,-134.878 171.623,-140.47"/>
</g>
<!-- Node4 -->
<g id="node4" class="node"><title>Node4</title>
<polygon fill="none" stroke="#bfbfbf" points="0,-0.5 0,-19.5 44,-19.5 44,-0.5 0,-0.5"/>
<text text-anchor="middle" x="22" y="-7.5" font-family="Helvetica,sans-Serif" font-size="10.00">string</text>
</g>
<!-- Node3&#45;&gt;Node4 -->
<g id="edge3" class="edge"><title>Node3&#45;&gt;Node4</title>
<path fill="none" stroke="midnightblue" d="M95.8613,-56.324C82.1337,-47.9002 61.0637,-34.9709 44.9357,-25.0741"/>
<polygon fill="midnightblue" stroke="midnightblue" points="46.4574,-21.9016 36.1036,-19.6545 42.7963,-27.8678 46.4574,-21.9016"/>
</g>
<!-- Node5 -->
<g id="node5" class="node"><title>Node5</title>
<polygon fill="none" stroke="#bfbfbf" points="62,-0.5 62,-19.5 92,-19.5 92,-0.5 62,-0.5"/>
<text text-anchor="middle" x="77" y="-7.5" font-family="Helvetica,sans-Serif" font-size="10.00">list</text>
</g>
<!-- Node3&#45;&gt;Node5 -->
<g id="edge4" class="edge"><title>Node3&#45;&gt;Node5</title>
<path fill="none" stroke="midnightblue" d="M104.551,-56.083C99.9855,-48.6127 93.3316,-37.7244 87.7066,-28.5199"/>
<polygon fill="midnightblue" stroke="midnightblue" points="90.5489,-26.4588 82.3479,-19.7511 84.5759,-30.109 90.5489,-26.4588"/>
</g>
<!-- Node6 -->
<g id="node6" class="node"><title>Node6</title>
<g id="a_node6"><a xlink:href="Input_8hpp.html" target="_top" xlink:title="Render/Input.hpp">
<polygon fill="none" stroke="black" points="110,-0.5 110,-19.5 208,-19.5 208,-0.5 110,-0.5"/>
<text text-anchor="middle" x="159" y="-7.5" font-family="Helvetica,sans-Serif" font-size="10.00">Render/Input.hpp</text>
</a>
</g>
</g>
<!-- Node3&#45;&gt;Node6 -->
<g id="edge5" class="edge"><title>Node3&#45;&gt;Node6</title>
<path fill="none" stroke="midnightblue" d="M118.091,-56.083C125.155,-48.2982 135.588,-36.8015 144.149,-27.3665"/>
<polygon fill="midnightblue" stroke="midnightblue" points="146.931,-29.5087 151.059,-19.7511 141.747,-24.8047 146.931,-29.5087"/>
</g>
<!-- Node7&#45;&gt;Node3 -->
<g id="edge10" class="edge"><title>Node7&#45;&gt;Node3</title>
<path fill="none" stroke="midnightblue" d="M176.307,-112.324C164.099,-103.979 145.422,-91.2122 130.997,-81.3524"/>
<polygon fill="midnightblue" stroke="midnightblue" points="132.892,-78.4082 122.661,-75.6545 128.942,-84.1871 132.892,-78.4082"/>
</g>
<!-- Node8 -->
<g id="node8" class="node"><title>Node8</title>
<g id="a_node8"><a xlink:href="ISession_8hpp.html" target="_top" xlink:title="ISession.hpp">
<polygon fill="none" stroke="black" points="216.5,-56.5 216.5,-75.5 293.5,-75.5 293.5,-56.5 216.5,-56.5"/>
<text text-anchor="middle" x="255" y="-63.5" font-family="Helvetica,sans-Serif" font-size="10.00">ISession.hpp</text>
</a>
</g>
</g>
<!-- Node7&#45;&gt;Node8 -->
<g id="edge7" class="edge"><title>Node7&#45;&gt;Node8</title>
<path fill="none" stroke="midnightblue" d="M199.604,-112.324C209.456,-104.263 224.351,-92.0765 236.215,-82.3695"/>
<polygon fill="midnightblue" stroke="midnightblue" points="238.68,-84.8752 244.203,-75.8339 234.247,-79.4575 238.68,-84.8752"/>
</g>
<!-- Node9 -->
<g id="node9" class="node"><title>Node9</title>
<polygon fill="none" stroke="#bfbfbf" points="226.5,-0.5 226.5,-19.5 283.5,-19.5 283.5,-0.5 226.5,-0.5"/>
<text text-anchor="middle" x="255" y="-7.5" font-family="Helvetica,sans-Serif" font-size="10.00">memory</text>
</g>
<!-- Node8&#45;&gt;Node9 -->
<g id="edge8" class="edge"><title>Node8&#45;&gt;Node9</title>
<path fill="none" stroke="midnightblue" d="M255,-56.083C255,-49.0059 255,-38.8611 255,-29.9865"/>
<polygon fill="midnightblue" stroke="midnightblue" points="258.5,-29.751 255,-19.7511 251.5,-29.7511 258.5,-29.751"/>
</g>
<!-- Node10 -->
<g id="node10" class="node"><title>Node10</title>
<polygon fill="none" stroke="#bfbfbf" points="301.5,-0.5 301.5,-19.5 388.5,-19.5 388.5,-0.5 301.5,-0.5"/>
<text text-anchor="middle" x="345" y="-7.5" font-family="Helvetica,sans-Serif" font-size="10.00">boost/asio.hpp</text>
</g>
<!-- Node8&#45;&gt;Node10 -->
<g id="edge9" class="edge"><title>Node8&#45;&gt;Node10</title>
<path fill="none" stroke="midnightblue" d="M269.46,-56.324C283.5,-47.9002 305.048,-34.9709 321.543,-25.0741"/>
<polygon fill="midnightblue" stroke="midnightblue" points="323.802,-27.8007 330.576,-19.6545 320.2,-21.7983 323.802,-27.8007"/>
</g>
</g>
</svg>
