<?xml version="1.0" encoding="UTF-8" standalone="no"?>
<!DOCTYPE svg PUBLIC "-//W3C//DTD SVG 1.1//EN"
 "http://www.w3.org/Graphics/SVG/1.1/DTD/svg11.dtd">
<!-- Generated by graphviz version 2.38.0 (20140413.2041)
 -->
<!-- Title: src/Network/Session/ClientSession.hpp Pages: 1 -->
<svg width="397pt" height="151pt"
 viewBox="0.00 0.00 396.50 151.00" xmlns="http://www.w3.org/2000/svg" xmlns:xlink="http://www.w3.org/1999/xlink">
<g id="graph0" class="graph" transform="scale(1 1) rotate(0) translate(4 147)">
<title>src/Network/Session/ClientSession.hpp</title>
<!-- Node1 -->
<g id="node1" class="node"><title>Node1</title>
<polygon fill="#bfbfbf" stroke="black" points="124,-112.5 124,-142.5 237,-142.5 237,-112.5 124,-112.5"/>
<text text-anchor="start" x="132" y="-130.5" font-family="Helvetica,sans-Serif" font-size="10.00">src/Network/Session</text>
<text text-anchor="middle" x="180.5" y="-119.5" font-family="Helvetica,sans-Serif" font-size="10.00">/ClientSession.hpp</text>
</g>
<!-- Node2 -->
<g id="node2" class="node"><title>Node2</title>
<g id="a_node2"><a xlink:href="ISession_8hpp.html" target="_top" xlink:title="ISession.hpp">
<polygon fill="none" stroke="black" points="80,-56.5 80,-75.5 157,-75.5 157,-56.5 80,-56.5"/>
<text text-anchor="middle" x="118.5" y="-63.5" font-family="Helvetica,sans-Serif" font-size="10.00">ISession.hpp</text>
</a>
</g>
</g>
<!-- Node1&#45;&gt;Node2 -->
<g id="edge1" class="edge"><title>Node1&#45;&gt;Node2</title>
<path fill="none" stroke="midnightblue" d="M165.807,-112.399C156.519,-103.486 144.501,-91.9523 134.902,-82.7408"/>
<polygon fill="midnightblue" stroke="midnightblue" points="137.16,-80.0566 127.522,-75.6578 132.313,-85.1072 137.16,-80.0566"/>
</g>
<!-- Node5 -->
<g id="node5" class="node"><title>Node5</title>
<g id="a_node5"><a xlink:href="PacketManager_8hpp.html" target="_top" xlink:title="PacketManager.hpp">
<polygon fill="none" stroke="black" points="188.5,-56.5 188.5,-75.5 298.5,-75.5 298.5,-56.5 188.5,-56.5"/>
<text text-anchor="middle" x="243.5" y="-63.5" font-family="Helvetica,sans-Serif" font-size="10.00">PacketManager.hpp</text>
</a>
</g>
</g>
<!-- Node1&#45;&gt;Node5 -->
<g id="edge4" class="edge"><title>Node1&#45;&gt;Node5</title>
<path fill="none" stroke="midnightblue" d="M195.43,-112.399C204.868,-103.486 217.08,-91.9523 226.833,-82.7408"/>
<polygon fill="midnightblue" stroke="midnightblue" points="229.466,-85.0686 234.333,-75.6578 224.66,-79.9795 229.466,-85.0686"/>
</g>
<!-- Node3 -->
<g id="node3" class="node"><title>Node3</title>
<polygon fill="none" stroke="#bfbfbf" points="0,-0.5 0,-19.5 57,-19.5 57,-0.5 0,-0.5"/>
<text text-anchor="middle" x="28.5" y="-7.5" font-family="Helvetica,sans-Serif" font-size="10.00">memory</text>
</g>
<!-- Node2&#45;&gt;Node3 -->
<g id="edge2" class="edge"><title>Node2&#45;&gt;Node3</title>
<path fill="none" stroke="midnightblue" d="M104.04,-56.324C90.0004,-47.9002 68.4515,-34.9709 51.9569,-25.0741"/>
<polygon fill="midnightblue" stroke="midnightblue" points="53.2999,-21.7983 42.9242,-19.6545 49.6984,-27.8007 53.2999,-21.7983"/>
</g>
<!-- Node4 -->
<g id="node4" class="node"><title>Node4</title>
<polygon fill="none" stroke="#bfbfbf" points="75,-0.5 75,-19.5 162,-19.5 162,-0.5 75,-0.5"/>
<text text-anchor="middle" x="118.5" y="-7.5" font-family="Helvetica,sans-Serif" font-size="10.00">boost/asio.hpp</text>
</g>
<!-- Node2&#45;&gt;Node4 -->
<g id="edge3" class="edge"><title>Node2&#45;&gt;Node4</title>
<path fill="none" stroke="midnightblue" d="M118.5,-56.083C118.5,-49.0059 118.5,-38.8611 118.5,-29.9865"/>
<polygon fill="midnightblue" stroke="midnightblue" points="122,-29.751 118.5,-19.7511 115,-29.7511 122,-29.751"/>
</g>
<!-- Node6 -->
<g id="node6" class="node"><title>Node6</title>
<polygon fill="none" stroke="#bfbfbf" points="180.5,-0.5 180.5,-19.5 224.5,-19.5 224.5,-0.5 180.5,-0.5"/>
<text text-anchor="middle" x="202.5" y="-7.5" font-family="Helvetica,sans-Serif" font-size="10.00">string</text>
</g>
<!-- Node5&#45;&gt;Node6 -->
<g id="edge5" class="edge"><title>Node5&#45;&gt;Node6</title>
<path fill="none" stroke="midnightblue" d="M236.73,-56.083C230.938,-48.4554 222.442,-37.2645 215.362,-27.9408"/>
<polygon fill="midnightblue" stroke="midnightblue" points="217.979,-25.5991 209.144,-19.7511 212.404,-29.8321 217.979,-25.5991"/>
</g>
<!-- Node7 -->
<g id="node7" class="node"><title>Node7</title>
<polygon fill="none" stroke="#bfbfbf" points="242.5,-0.5 242.5,-19.5 272.5,-19.5 272.5,-0.5 242.5,-0.5"/>
<text text-anchor="middle" x="257.5" y="-7.5" font-family="Helvetica,sans-Serif" font-size="10.00">list</text>
</g>
<!-- Node5&#45;&gt;Node7 -->
<g id="edge6" class="edge"><title>Node5&#45;&gt;Node7</title>
<path fill="none" stroke="midnightblue" d="M245.812,-56.083C247.667,-48.9272 250.335,-38.6353 252.654,-29.6911"/>
<polygon fill="midnightblue" stroke="midnightblue" points="256.109,-30.3094 255.231,-19.7511 249.334,-28.5527 256.109,-30.3094"/>
</g>
<!-- Node8 -->
<g id="node8" class="node"><title>Node8</title>
<g id="a_node8"><a xlink:href="Input_8hpp.html" target="_top" xlink:title="Render/Input.hpp">
<polygon fill="none" stroke="black" points="290.5,-0.5 290.5,-19.5 388.5,-19.5 388.5,-0.5 290.5,-0.5"/>
<text text-anchor="middle" x="339.5" y="-7.5" font-family="Helvetica,sans-Serif" font-size="10.00">Render/Input.hpp</text>
</a>
</g>
</g>
<!-- Node5&#45;&gt;Node8 -->
<g id="edge7" class="edge"><title>Node5&#45;&gt;Node8</title>
<path fill="none" stroke="midnightblue" d="M258.924,-56.324C274.04,-47.8215 297.315,-34.7288 314.971,-24.7975"/>
<polygon fill="midnightblue" stroke="midnightblue" points="317.114,-27.6077 324.114,-19.6545 313.683,-21.5066 317.114,-27.6077"/>
</g>
</g>
</svg>
