<?xml version="1.0" encoding="UTF-8" standalone="no"?>
<!DOCTYPE svg PUBLIC "-//W3C//DTD SVG 1.1//EN"
 "http://www.w3.org/Graphics/SVG/1.1/DTD/svg11.dtd">
<!-- Generated by graphviz version 2.38.0 (20140413.2041)
 -->
<!-- Title: src/Components/Physics/Collision.cpp Pages: 1 -->
<svg width="230pt" height="263pt"
 viewBox="0.00 0.00 230.00 263.00" xmlns="http://www.w3.org/2000/svg" xmlns:xlink="http://www.w3.org/1999/xlink">
<g id="graph0" class="graph" transform="scale(1 1) rotate(0) translate(4 259)">
<title>src/Components/Physics/Collision.cpp</title>
<!-- Node1 -->
<g id="node1" class="node"><title>Node1</title>
<polygon fill="#bfbfbf" stroke="black" points="0,-224.5 0,-254.5 134,-254.5 134,-224.5 0,-224.5"/>
<text text-anchor="start" x="8" y="-242.5" font-family="Helvetica,sans-Serif" font-size="10.00">src/Components/Physics</text>
<text text-anchor="middle" x="67" y="-231.5" font-family="Helvetica,sans-Serif" font-size="10.00">/Collision.cpp</text>
</g>
<!-- Node2 -->
<g id="node2" class="node"><title>Node2</title>
<polygon fill="none" stroke="#bfbfbf" points="14,-112.5 14,-131.5 58,-131.5 58,-112.5 14,-112.5"/>
<text text-anchor="middle" x="36" y="-119.5" font-family="Helvetica,sans-Serif" font-size="10.00">string</text>
</g>
<!-- Node1&#45;&gt;Node2 -->
<g id="edge1" class="edge"><title>Node1&#45;&gt;Node2</title>
<path fill="none" stroke="midnightblue" d="M63.0221,-224.366C60.1893,-214.249 56.3129,-200.299 53,-188 48.8233,-172.494 44.2223,-154.867 40.8614,-141.885"/>
<polygon fill="midnightblue" stroke="midnightblue" points="44.1573,-140.65 38.2689,-131.842 37.3795,-142.4 44.1573,-140.65"/>
</g>
<!-- Node3 -->
<g id="node3" class="node"><title>Node3</title>
<g id="a_node3"><a xlink:href="Collision_8hpp.html" target="_top" xlink:title="Collision.hpp">
<polygon fill="none" stroke="black" points="62.5,-168.5 62.5,-187.5 139.5,-187.5 139.5,-168.5 62.5,-168.5"/>
<text text-anchor="middle" x="101" y="-175.5" font-family="Helvetica,sans-Serif" font-size="10.00">Collision.hpp</text>
</a>
</g>
</g>
<!-- Node1&#45;&gt;Node3 -->
<g id="edge2" class="edge"><title>Node1&#45;&gt;Node3</title>
<path fill="none" stroke="midnightblue" d="M75.0575,-224.399C79.8453,-216.021 85.9561,-205.327 91.0441,-196.423"/>
<polygon fill="midnightblue" stroke="midnightblue" points="94.1301,-198.077 96.0527,-187.658 88.0524,-194.604 94.1301,-198.077"/>
</g>
<!-- Node3&#45;&gt;Node2 -->
<g id="edge3" class="edge"><title>Node3&#45;&gt;Node2</title>
<path fill="none" stroke="midnightblue" d="M90.5566,-168.324C80.8538,-160.263 66.1847,-148.077 54.5003,-138.369"/>
<polygon fill="midnightblue" stroke="midnightblue" points="56.5619,-135.532 46.6334,-131.834 52.0887,-140.916 56.5619,-135.532"/>
</g>
<!-- Node4 -->
<g id="node4" class="node"><title>Node4</title>
<polygon fill="none" stroke="#bfbfbf" points="80,-112.5 80,-131.5 118,-131.5 118,-112.5 80,-112.5"/>
<text text-anchor="middle" x="99" y="-119.5" font-family="Helvetica,sans-Serif" font-size="10.00">map</text>
</g>
<!-- Node3&#45;&gt;Node4 -->
<g id="edge4" class="edge"><title>Node3&#45;&gt;Node4</title>
<path fill="none" stroke="midnightblue" d="M100.67,-168.083C100.408,-161.006 100.032,-150.861 99.7032,-141.986"/>
<polygon fill="midnightblue" stroke="midnightblue" points="103.192,-141.615 99.3241,-131.751 96.1967,-141.874 103.192,-141.615"/>
</g>
<!-- Node5 -->
<g id="node5" class="node"><title>Node5</title>
<g id="a_node5"><a xlink:href="IPhysics_8hpp.html" target="_top" xlink:title="IPhysics.hpp">
<polygon fill="none" stroke="black" points="136.5,-112.5 136.5,-131.5 211.5,-131.5 211.5,-112.5 136.5,-112.5"/>
<text text-anchor="middle" x="174" y="-119.5" font-family="Helvetica,sans-Serif" font-size="10.00">IPhysics.hpp</text>
</a>
</g>
</g>
<!-- Node3&#45;&gt;Node5 -->
<g id="edge5" class="edge"><title>Node3&#45;&gt;Node5</title>
<path fill="none" stroke="midnightblue" d="M112.729,-168.324C123.837,-160.107 140.742,-147.602 153.983,-137.807"/>
<polygon fill="midnightblue" stroke="midnightblue" points="156.1,-140.595 162.058,-131.834 151.937,-134.967 156.1,-140.595"/>
</g>
<!-- Node6 -->
<g id="node6" class="node"><title>Node6</title>
<g id="a_node6"><a xlink:href="IComponent_8hpp.html" target="_top" xlink:title="IComponent.hpp">
<polygon fill="none" stroke="black" points="126,-56.5 126,-75.5 222,-75.5 222,-56.5 126,-56.5"/>
<text text-anchor="middle" x="174" y="-63.5" font-family="Helvetica,sans-Serif" font-size="10.00">IComponent.hpp</text>
</a>
</g>
</g>
<!-- Node5&#45;&gt;Node6 -->
<g id="edge6" class="edge"><title>Node5&#45;&gt;Node6</title>
<path fill="none" stroke="midnightblue" d="M174,-112.083C174,-105.006 174,-94.8611 174,-85.9865"/>
<polygon fill="midnightblue" stroke="midnightblue" points="177.5,-85.751 174,-75.7511 170.5,-85.7511 177.5,-85.751"/>
</g>
<!-- Node7 -->
<g id="node7" class="node"><title>Node7</title>
<polygon fill="none" stroke="#bfbfbf" points="142.5,-0.5 142.5,-19.5 205.5,-19.5 205.5,-0.5 142.5,-0.5"/>
<text text-anchor="middle" x="174" y="-7.5" font-family="Helvetica,sans-Serif" font-size="10.00">typeindex</text>
</g>
<!-- Node6&#45;&gt;Node7 -->
<g id="edge7" class="edge"><title>Node6&#45;&gt;Node7</title>
<path fill="none" stroke="midnightblue" d="M174,-56.083C174,-49.0059 174,-38.8611 174,-29.9865"/>
<polygon fill="midnightblue" stroke="midnightblue" points="177.5,-29.751 174,-19.7511 170.5,-29.7511 177.5,-29.751"/>
</g>
</g>
</svg>
