<?xml version="1.0" encoding="UTF-8" standalone="no"?>
<!DOCTYPE svg PUBLIC "-//W3C//DTD SVG 1.1//EN"
 "http://www.w3.org/Graphics/SVG/1.1/DTD/svg11.dtd">
<!-- Generated by graphviz version 2.38.0 (20140413.2041)
 -->
<!-- Title: src/Components/Physics/Collision.hpp Pages: 1 -->
<svg width="212pt" height="207pt"
 viewBox="0.00 0.00 212.00 207.00" xmlns="http://www.w3.org/2000/svg" xmlns:xlink="http://www.w3.org/1999/xlink">
<g id="graph0" class="graph" transform="scale(1 1) rotate(0) translate(4 203)">
<title>src/Components/Physics/Collision.hpp</title>
<!-- Node1 -->
<g id="node1" class="node"><title>Node1</title>
<polygon fill="#bfbfbf" stroke="black" points="14,-168.5 14,-198.5 148,-198.5 148,-168.5 14,-168.5"/>
<text text-anchor="start" x="22" y="-186.5" font-family="Helvetica,sans-Serif" font-size="10.00">src/Components/Physics</text>
<text text-anchor="middle" x="81" y="-175.5" font-family="Helvetica,sans-Serif" font-size="10.00">/Collision.hpp</text>
</g>
<!-- Node2 -->
<g id="node2" class="node"><title>Node2</title>
<polygon fill="none" stroke="#bfbfbf" points="-3.55271e-15,-112.5 -3.55271e-15,-131.5 44,-131.5 44,-112.5 -3.55271e-15,-112.5"/>
<text text-anchor="middle" x="22" y="-119.5" font-family="Helvetica,sans-Serif" font-size="10.00">string</text>
</g>
<!-- Node1&#45;&gt;Node2 -->
<g id="edge1" class="edge"><title>Node1&#45;&gt;Node2</title>
<path fill="none" stroke="midnightblue" d="M67.0178,-168.399C58.2677,-159.575 46.9711,-148.183 37.8832,-139.018"/>
<polygon fill="midnightblue" stroke="midnightblue" points="40.1115,-136.294 30.585,-131.658 35.1409,-141.223 40.1115,-136.294"/>
</g>
<!-- Node3 -->
<g id="node3" class="node"><title>Node3</title>
<polygon fill="none" stroke="#bfbfbf" points="62,-112.5 62,-131.5 100,-131.5 100,-112.5 62,-112.5"/>
<text text-anchor="middle" x="81" y="-119.5" font-family="Helvetica,sans-Serif" font-size="10.00">map</text>
</g>
<!-- Node1&#45;&gt;Node3 -->
<g id="edge2" class="edge"><title>Node1&#45;&gt;Node3</title>
<path fill="none" stroke="midnightblue" d="M81,-168.399C81,-160.466 81,-150.458 81,-141.858"/>
<polygon fill="midnightblue" stroke="midnightblue" points="84.5001,-141.658 81,-131.658 77.5001,-141.658 84.5001,-141.658"/>
</g>
<!-- Node4 -->
<g id="node4" class="node"><title>Node4</title>
<g id="a_node4"><a xlink:href="IPhysics_8hpp.html" target="_top" xlink:title="IPhysics.hpp">
<polygon fill="none" stroke="black" points="118.5,-112.5 118.5,-131.5 193.5,-131.5 193.5,-112.5 118.5,-112.5"/>
<text text-anchor="middle" x="156" y="-119.5" font-family="Helvetica,sans-Serif" font-size="10.00">IPhysics.hpp</text>
</a>
</g>
</g>
<!-- Node1&#45;&gt;Node4 -->
<g id="edge3" class="edge"><title>Node1&#45;&gt;Node4</title>
<path fill="none" stroke="midnightblue" d="M98.774,-168.399C110.346,-159.218 125.423,-147.258 137.196,-137.918"/>
<polygon fill="midnightblue" stroke="midnightblue" points="139.428,-140.615 145.087,-131.658 135.077,-135.131 139.428,-140.615"/>
</g>
<!-- Node5 -->
<g id="node5" class="node"><title>Node5</title>
<g id="a_node5"><a xlink:href="IComponent_8hpp.html" target="_top" xlink:title="IComponent.hpp">
<polygon fill="none" stroke="black" points="108,-56.5 108,-75.5 204,-75.5 204,-56.5 108,-56.5"/>
<text text-anchor="middle" x="156" y="-63.5" font-family="Helvetica,sans-Serif" font-size="10.00">IComponent.hpp</text>
</a>
</g>
</g>
<!-- Node4&#45;&gt;Node5 -->
<g id="edge4" class="edge"><title>Node4&#45;&gt;Node5</title>
<path fill="none" stroke="midnightblue" d="M156,-112.083C156,-105.006 156,-94.8611 156,-85.9865"/>
<polygon fill="midnightblue" stroke="midnightblue" points="159.5,-85.751 156,-75.7511 152.5,-85.7511 159.5,-85.751"/>
</g>
<!-- Node6 -->
<g id="node6" class="node"><title>Node6</title>
<polygon fill="none" stroke="#bfbfbf" points="124.5,-0.5 124.5,-19.5 187.5,-19.5 187.5,-0.5 124.5,-0.5"/>
<text text-anchor="middle" x="156" y="-7.5" font-family="Helvetica,sans-Serif" font-size="10.00">typeindex</text>
</g>
<!-- Node5&#45;&gt;Node6 -->
<g id="edge5" class="edge"><title>Node5&#45;&gt;Node6</title>
<path fill="none" stroke="midnightblue" d="M156,-56.083C156,-49.0059 156,-38.8611 156,-29.9865"/>
<polygon fill="midnightblue" stroke="midnightblue" points="159.5,-29.751 156,-19.7511 152.5,-29.7511 159.5,-29.751"/>
</g>
</g>
</svg>
