<?xml version="1.0" encoding="UTF-8" standalone="no"?>
<!DOCTYPE svg PUBLIC "-//W3C//DTD SVG 1.1//EN"
 "http://www.w3.org/Graphics/SVG/1.1/DTD/svg11.dtd">
<!-- Generated by graphviz version 2.38.0 (20140413.2041)
 -->
<!-- Title: src/Components/Physics/Collision.hpp Pages: 1 -->
<svg width="4598pt" height="195pt"
 viewBox="0.00 0.00 4597.50 195.00" xmlns="http://www.w3.org/2000/svg" xmlns:xlink="http://www.w3.org/1999/xlink">
<g id="graph0" class="graph" transform="scale(1 1) rotate(0) translate(4 191)">
<title>src/Components/Physics/Collision.hpp</title>
<!-- Node1 -->
<g id="node1" class="node"><title>Node1</title>
<polygon fill="#bfbfbf" stroke="black" points="1880,-156.5 1880,-186.5 2014,-186.5 2014,-156.5 1880,-156.5"/>
<text text-anchor="start" x="1888" y="-174.5" font-family="Helvetica,sans-Serif" font-size="10.00">src/Components/Physics</text>
<text text-anchor="middle" x="1947" y="-163.5" font-family="Helvetica,sans-Serif" font-size="10.00">/Collision.hpp</text>
</g>
<!-- Node2 -->
<g id="node2" class="node"><title>Node2</title>
<g id="a_node2"><a xlink:href="Collision_8cpp.html" target="_top" xlink:title="src/Components/Physics\l/Collision.cpp">
<polygon fill="none" stroke="black" points="0,-84 0,-114 134,-114 134,-84 0,-84"/>
<text text-anchor="start" x="8" y="-102" font-family="Helvetica,sans-Serif" font-size="10.00">src/Components/Physics</text>
<text text-anchor="middle" x="67" y="-91" font-family="Helvetica,sans-Serif" font-size="10.00">/Collision.cpp</text>
</a>
</g>
</g>
<!-- Node1&#45;&gt;Node2 -->
<g id="edge1" class="edge"><title>Node1&#45;&gt;Node2</title>
<path fill="none" stroke="midnightblue" d="M1869.3,-170.693C1568.97,-171.072 483.79,-168.948 143,-120 133.411,-118.623 123.296,-116.471 113.683,-114.08"/>
<polygon fill="midnightblue" stroke="midnightblue" points="1869.66,-174.193 1879.65,-170.679 1869.65,-167.193 1869.66,-174.193"/>
</g>
<!-- Node3 -->
<g id="node3" class="node"><title>Node3</title>
<g id="a_node3"><a xlink:href="BulletEntity_8cpp.html" target="_top" xlink:title="src/Entities/EntityConstructor\l/BulletEntity/BulletEntity.cpp">
<polygon fill="none" stroke="black" points="152.5,-84 152.5,-114 307.5,-114 307.5,-84 152.5,-84"/>
<text text-anchor="start" x="160.5" y="-102" font-family="Helvetica,sans-Serif" font-size="10.00">src/Entities/EntityConstructor</text>
<text text-anchor="middle" x="230" y="-91" font-family="Helvetica,sans-Serif" font-size="10.00">/BulletEntity/BulletEntity.cpp</text>
</a>
</g>
</g>
<!-- Node1&#45;&gt;Node3 -->
<g id="edge2" class="edge"><title>Node1&#45;&gt;Node3</title>
<path fill="none" stroke="midnightblue" d="M1869.83,-170.131C1589.03,-168.474 622.102,-159.933 316,-120 305.208,-118.592 293.787,-116.427 282.916,-114.032"/>
<polygon fill="midnightblue" stroke="midnightblue" points="1869.91,-173.632 1879.93,-170.189 1869.95,-166.632 1869.91,-173.632"/>
</g>
<!-- Node4 -->
<g id="node4" class="node"><title>Node4</title>
<g id="a_node4"><a xlink:href="EnemyBulletEntity_8cpp.html" target="_top" xlink:title="src/Entities/EntityConstructor\l/EnemyBulletEntity/EnemyBulletEntity.cpp">
<polygon fill="none" stroke="black" points="325.5,-84 325.5,-114 540.5,-114 540.5,-84 325.5,-84"/>
<text text-anchor="start" x="333.5" y="-102" font-family="Helvetica,sans-Serif" font-size="10.00">src/Entities/EntityConstructor</text>
<text text-anchor="middle" x="433" y="-91" font-family="Helvetica,sans-Serif" font-size="10.00">/EnemyBulletEntity/EnemyBulletEntity.cpp</text>
</a>
</g>
</g>
<!-- Node1&#45;&gt;Node4 -->
<g id="edge3" class="edge"><title>Node1&#45;&gt;Node4</title>
<path fill="none" stroke="midnightblue" d="M1869.65,-169.079C1615.61,-164.197 808.263,-146.909 549,-120 534.873,-118.534 519.867,-116.39 505.5,-114.044"/>
<polygon fill="midnightblue" stroke="midnightblue" points="1869.83,-172.583 1879.9,-169.275 1869.96,-165.584 1869.83,-172.583"/>
</g>
<!-- Node5 -->
<g id="node5" class="node"><title>Node5</title>
<g id="a_node5"><a xlink:href="EnemyEntity_8cpp.html" target="_top" xlink:title="src/Entities/EntityConstructor\l/EnemyEntity/EnemyEntity.cpp">
<polygon fill="none" stroke="black" points="558.5,-84 558.5,-114 719.5,-114 719.5,-84 558.5,-84"/>
<text text-anchor="start" x="566.5" y="-102" font-family="Helvetica,sans-Serif" font-size="10.00">src/Entities/EntityConstructor</text>
<text text-anchor="middle" x="639" y="-91" font-family="Helvetica,sans-Serif" font-size="10.00">/EnemyEntity/EnemyEntity.cpp</text>
</a>
</g>
</g>
<!-- Node1&#45;&gt;Node5 -->
<g id="edge4" class="edge"><title>Node1&#45;&gt;Node5</title>
<path fill="none" stroke="midnightblue" d="M1869.84,-169.091C1638.19,-164.575 951.029,-149.039 729,-120 717.89,-118.547 706.127,-116.393 694.898,-114.031"/>
<polygon fill="midnightblue" stroke="midnightblue" points="1869.8,-172.59 1879.87,-169.285 1869.94,-165.592 1869.8,-172.59"/>
</g>
<!-- Node6 -->
<g id="node6" class="node"><title>Node6</title>
<g id="a_node6"><a xlink:href="EnemyType01Entity_8cpp.html" target="_top" xlink:title="src/Entities/EntityConstructor\l/EnemyType01Entity/EnemyType01Entity.cpp">
<polygon fill="none" stroke="black" points="737.5,-84 737.5,-114 964.5,-114 964.5,-84 737.5,-84"/>
<text text-anchor="start" x="745.5" y="-102" font-family="Helvetica,sans-Serif" font-size="10.00">src/Entities/EntityConstructor</text>
<text text-anchor="middle" x="851" y="-91" font-family="Helvetica,sans-Serif" font-size="10.00">/EnemyType01Entity/EnemyType01Entity.cpp</text>
</a>
</g>
</g>
<!-- Node1&#45;&gt;Node6 -->
<g id="edge5" class="edge"><title>Node1&#45;&gt;Node6</title>
<path fill="none" stroke="midnightblue" d="M1869.81,-169.358C1704.89,-166.289 1306.16,-155.517 974,-120 959.479,-118.447 944.065,-116.323 929.237,-114.036"/>
<polygon fill="midnightblue" stroke="midnightblue" points="1869.79,-172.858 1879.86,-169.541 1869.92,-165.859 1869.79,-172.858"/>
</g>
<!-- Node7 -->
<g id="node7" class="node"><title>Node7</title>
<g id="a_node7"><a xlink:href="EnemyType02Entity_8cpp.html" target="_top" xlink:title="src/Entities/EntityConstructor\l/EnemyType02Entity/EnemyType02Entity.cpp">
<polygon fill="none" stroke="black" points="982.5,-84 982.5,-114 1209.5,-114 1209.5,-84 982.5,-84"/>
<text text-anchor="start" x="990.5" y="-102" font-family="Helvetica,sans-Serif" font-size="10.00">src/Entities/EntityConstructor</text>
<text text-anchor="middle" x="1096" y="-91" font-family="Helvetica,sans-Serif" font-size="10.00">/EnemyType02Entity/EnemyType02Entity.cpp</text>
</a>
</g>
</g>
<!-- Node1&#45;&gt;Node7 -->
<g id="edge6" class="edge"><title>Node1&#45;&gt;Node7</title>
<path fill="none" stroke="midnightblue" d="M1869.71,-167.476C1736.51,-161.742 1455.27,-147.345 1219,-120 1204.92,-118.371 1190,-116.266 1175.58,-114.036"/>
<polygon fill="midnightblue" stroke="midnightblue" points="1869.67,-170.977 1879.81,-167.906 1869.97,-163.983 1869.67,-170.977"/>
</g>
<!-- Node8 -->
<g id="node8" class="node"><title>Node8</title>
<g id="a_node8"><a xlink:href="EnemyType03Entity_8cpp.html" target="_top" xlink:title="src/Entities/EntityConstructor\l/EnemyType03Entity/EnemyType03Entity.cpp">
<polygon fill="none" stroke="black" points="1227.5,-84 1227.5,-114 1454.5,-114 1454.5,-84 1227.5,-84"/>
<text text-anchor="start" x="1235.5" y="-102" font-family="Helvetica,sans-Serif" font-size="10.00">src/Entities/EntityConstructor</text>
<text text-anchor="middle" x="1341" y="-91" font-family="Helvetica,sans-Serif" font-size="10.00">/EnemyType03Entity/EnemyType03Entity.cpp</text>
</a>
</g>
</g>
<!-- Node1&#45;&gt;Node8 -->
<g id="edge7" class="edge"><title>Node1&#45;&gt;Node8</title>
<path fill="none" stroke="midnightblue" d="M1869.51,-163.77C1773.97,-155.156 1606.72,-139.048 1464,-120 1450.81,-118.24 1436.86,-116.171 1423.28,-114.044"/>
<polygon fill="midnightblue" stroke="midnightblue" points="1869.39,-167.273 1879.66,-164.681 1870.01,-160.301 1869.39,-167.273"/>
</g>
<!-- Node9 -->
<g id="node9" class="node"><title>Node9</title>
<g id="a_node9"><a xlink:href="PlayerEntity_8cpp.html" target="_top" xlink:title="src/Entities/EntityConstructor\l/PlayerEntity/PlayerEntity.cpp">
<polygon fill="none" stroke="black" points="1472.5,-84 1472.5,-114 1627.5,-114 1627.5,-84 1472.5,-84"/>
<text text-anchor="start" x="1480.5" y="-102" font-family="Helvetica,sans-Serif" font-size="10.00">src/Entities/EntityConstructor</text>
<text text-anchor="middle" x="1550" y="-91" font-family="Helvetica,sans-Serif" font-size="10.00">/PlayerEntity/PlayerEntity.cpp</text>
</a>
</g>
</g>
<!-- Node1&#45;&gt;Node9 -->
<g id="edge8" class="edge"><title>Node1&#45;&gt;Node9</title>
<path fill="none" stroke="midnightblue" d="M1869.73,-159.326C1806.86,-149.897 1715.95,-135.488 1637,-120 1627.88,-118.21 1618.25,-116.16 1608.86,-114.071"/>
<polygon fill="midnightblue" stroke="midnightblue" points="1869.55,-162.839 1879.96,-160.854 1870.58,-155.916 1869.55,-162.839"/>
</g>
<!-- Node10 -->
<g id="node10" class="node"><title>Node10</title>
<g id="a_node10"><a xlink:href="PlayerTwoEntity_8cpp.html" target="_top" xlink:title="src/Entities/EntityConstructor\l/PlayerTwoEntity/PlayerTwoEntity.cpp">
<polygon fill="none" stroke="black" points="1645.5,-84 1645.5,-114 1832.5,-114 1832.5,-84 1645.5,-84"/>
<text text-anchor="start" x="1653.5" y="-102" font-family="Helvetica,sans-Serif" font-size="10.00">src/Entities/EntityConstructor</text>
<text text-anchor="middle" x="1739" y="-91" font-family="Helvetica,sans-Serif" font-size="10.00">/PlayerTwoEntity/PlayerTwoEntity.cpp</text>
</a>
</g>
</g>
<!-- Node1&#45;&gt;Node10 -->
<g id="edge9" class="edge"><title>Node1&#45;&gt;Node10</title>
<path fill="none" stroke="midnightblue" d="M1895.72,-153.119C1860.25,-141.097 1813.66,-125.306 1780.52,-114.073"/>
<polygon fill="midnightblue" stroke="midnightblue" points="1894.81,-156.507 1905.41,-156.403 1897.06,-149.878 1894.81,-156.507"/>
</g>
<!-- Node11 -->
<g id="node11" class="node"><title>Node11</title>
<g id="a_node11"><a xlink:href="TestBackground_8cpp.html" target="_top" xlink:title="src/Entities/EntityConstructor\l/TestBackground/TestBackground.cpp">
<polygon fill="none" stroke="black" points="1850,-84 1850,-114 2044,-114 2044,-84 1850,-84"/>
<text text-anchor="start" x="1858" y="-102" font-family="Helvetica,sans-Serif" font-size="10.00">src/Entities/EntityConstructor</text>
<text text-anchor="middle" x="1947" y="-91" font-family="Helvetica,sans-Serif" font-size="10.00">/TestBackground/TestBackground.cpp</text>
</a>
</g>
</g>
<!-- Node1&#45;&gt;Node11 -->
<g id="edge10" class="edge"><title>Node1&#45;&gt;Node11</title>
<path fill="none" stroke="midnightblue" d="M1947,-146.232C1947,-135.568 1947,-123.414 1947,-114.246"/>
<polygon fill="midnightblue" stroke="midnightblue" points="1943.5,-146.233 1947,-156.233 1950.5,-146.233 1943.5,-146.233"/>
</g>
<!-- Node12 -->
<g id="node12" class="node"><title>Node12</title>
<g id="a_node12"><a xlink:href="TestEntity_8cpp.html" target="_top" xlink:title="src/Entities/EntityConstructor\l/TestEntity/TestEntity.cpp">
<polygon fill="none" stroke="black" points="2062.5,-84 2062.5,-114 2217.5,-114 2217.5,-84 2062.5,-84"/>
<text text-anchor="start" x="2070.5" y="-102" font-family="Helvetica,sans-Serif" font-size="10.00">src/Entities/EntityConstructor</text>
<text text-anchor="middle" x="2140" y="-91" font-family="Helvetica,sans-Serif" font-size="10.00">/TestEntity/TestEntity.cpp</text>
</a>
</g>
</g>
<!-- Node1&#45;&gt;Node12 -->
<g id="edge11" class="edge"><title>Node1&#45;&gt;Node12</title>
<path fill="none" stroke="midnightblue" d="M1995,-152.965C2027.86,-140.962 2070.86,-125.258 2101.47,-114.073"/>
<polygon fill="midnightblue" stroke="midnightblue" points="1993.78,-149.684 1985.59,-156.403 1996.19,-156.259 1993.78,-149.684"/>
</g>
<!-- Node13 -->
<g id="node13" class="node"><title>Node13</title>
<g id="a_node13"><a xlink:href="TestEntity2_8cpp.html" target="_top" xlink:title="src/Entities/EntityConstructor\l/TestEntity2/TestEntity2.cpp">
<polygon fill="none" stroke="black" points="2235.5,-84 2235.5,-114 2390.5,-114 2390.5,-84 2235.5,-84"/>
<text text-anchor="start" x="2243.5" y="-102" font-family="Helvetica,sans-Serif" font-size="10.00">src/Entities/EntityConstructor</text>
<text text-anchor="middle" x="2313" y="-91" font-family="Helvetica,sans-Serif" font-size="10.00">/TestEntity2/TestEntity2.cpp</text>
</a>
</g>
</g>
<!-- Node1&#45;&gt;Node13 -->
<g id="edge12" class="edge"><title>Node1&#45;&gt;Node13</title>
<path fill="none" stroke="midnightblue" d="M2024.13,-157.658C2080.48,-148.017 2158.66,-134.1 2227,-120 2235.86,-118.172 2245.2,-116.125 2254.33,-114.056"/>
<polygon fill="midnightblue" stroke="midnightblue" points="2023.49,-154.216 2014.22,-159.348 2024.67,-161.117 2023.49,-154.216"/>
</g>
<!-- Node14 -->
<g id="node14" class="node"><title>Node14</title>
<g id="a_node14"><a xlink:href="WallSideEntity_8cpp.html" target="_top" xlink:title="src/Entities/EntityConstructor\l/WallSideEntity/WallSideEntity.cpp">
<polygon fill="none" stroke="black" points="2408.5,-84 2408.5,-114 2581.5,-114 2581.5,-84 2408.5,-84"/>
<text text-anchor="start" x="2416.5" y="-102" font-family="Helvetica,sans-Serif" font-size="10.00">src/Entities/EntityConstructor</text>
<text text-anchor="middle" x="2495" y="-91" font-family="Helvetica,sans-Serif" font-size="10.00">/WallSideEntity/WallSideEntity.cpp</text>
</a>
</g>
</g>
<!-- Node1&#45;&gt;Node14 -->
<g id="edge13" class="edge"><title>Node1&#45;&gt;Node14</title>
<path fill="none" stroke="midnightblue" d="M2024.21,-164.178C2114.62,-156.247 2268.72,-141.086 2400,-120 2410.57,-118.303 2421.74,-116.217 2432.56,-114.04"/>
<polygon fill="midnightblue" stroke="midnightblue" points="2023.71,-160.709 2014.05,-165.062 2024.32,-167.682 2023.71,-160.709"/>
</g>
<!-- Node15 -->
<g id="node15" class="node"><title>Node15</title>
<g id="a_node15"><a xlink:href="AnimationSystem_8hpp.html" target="_top" xlink:title="src/Systems/SystemConstructor\l/AnimationSystem/AnimationSystem.hpp">
<polygon fill="none" stroke="black" points="2599.5,-84 2599.5,-114 2814.5,-114 2814.5,-84 2599.5,-84"/>
<text text-anchor="start" x="2607.5" y="-102" font-family="Helvetica,sans-Serif" font-size="10.00">src/Systems/SystemConstructor</text>
<text text-anchor="middle" x="2707" y="-91" font-family="Helvetica,sans-Serif" font-size="10.00">/AnimationSystem/AnimationSystem.hpp</text>
</a>
</g>
</g>
<!-- Node1&#45;&gt;Node15 -->
<g id="edge14" class="edge"><title>Node1&#45;&gt;Node15</title>
<path fill="none" stroke="midnightblue" d="M2024.72,-166.731C2145.99,-160.327 2387.45,-145.473 2591,-120 2604.18,-118.351 2618.15,-116.249 2631.65,-114.032"/>
<polygon fill="midnightblue" stroke="midnightblue" points="2024.23,-163.252 2014.42,-167.27 2024.59,-170.242 2024.23,-163.252"/>
</g>
<!-- Node18 -->
<g id="node18" class="node"><title>Node18</title>
<g id="a_node18"><a xlink:href="DisplaySystem_8cpp.html" target="_top" xlink:title="src/Systems/SystemConstructor\l/DisplaySystem/DisplaySystem.cpp">
<polygon fill="none" stroke="black" points="2832.5,-84 2832.5,-114 3017.5,-114 3017.5,-84 2832.5,-84"/>
<text text-anchor="start" x="2840.5" y="-102" font-family="Helvetica,sans-Serif" font-size="10.00">src/Systems/SystemConstructor</text>
<text text-anchor="middle" x="2925" y="-91" font-family="Helvetica,sans-Serif" font-size="10.00">/DisplaySystem/DisplaySystem.cpp</text>
</a>
</g>
</g>
<!-- Node1&#45;&gt;Node18 -->
<g id="edge17" class="edge"><title>Node1&#45;&gt;Node18</title>
<path fill="none" stroke="midnightblue" d="M2024.37,-169.624C2177.6,-167.099 2530.25,-157.36 2824,-120 2836.06,-118.466 2848.84,-116.336 2861.1,-114.035"/>
<polygon fill="midnightblue" stroke="midnightblue" points="2024.07,-166.128 2014.13,-169.786 2024.18,-173.127 2024.07,-166.128"/>
</g>
<!-- Node19 -->
<g id="node19" class="node"><title>Node19</title>
<g id="a_node19"><a xlink:href="EnemiesMovementSystem_8hpp.html" target="_top" xlink:title="src/Systems/SystemConstructor\l/EnemiesMovementSystem/EnemiesMovement\lSystem.hpp">
<polygon fill="none" stroke="black" points="3036,-78.5 3036,-119.5 3280,-119.5 3280,-78.5 3036,-78.5"/>
<text text-anchor="start" x="3044" y="-107.5" font-family="Helvetica,sans-Serif" font-size="10.00">src/Systems/SystemConstructor</text>
<text text-anchor="start" x="3044" y="-96.5" font-family="Helvetica,sans-Serif" font-size="10.00">/EnemiesMovementSystem/EnemiesMovement</text>
<text text-anchor="middle" x="3158" y="-85.5" font-family="Helvetica,sans-Serif" font-size="10.00">System.hpp</text>
</a>
</g>
</g>
<!-- Node1&#45;&gt;Node19 -->
<g id="edge18" class="edge"><title>Node1&#45;&gt;Node19</title>
<path fill="none" stroke="midnightblue" d="M2024.19,-169.663C2201.66,-167.135 2652.3,-157.26 3027,-120 3029.86,-119.715 3032.76,-119.411 3035.67,-119.089"/>
<polygon fill="midnightblue" stroke="midnightblue" points="2024.11,-166.164 2014.16,-169.803 2024.21,-173.163 2024.11,-166.164"/>
</g>
<!-- Node21 -->
<g id="node21" class="node"><title>Node21</title>
<g id="a_node21"><a xlink:href="MovementSystem_8hpp.html" target="_top" xlink:title="src/Systems/SystemConstructor\l/MovementSystem/MovementSystem.hpp">
<polygon fill="none" stroke="black" points="3298.5,-84 3298.5,-114 3517.5,-114 3517.5,-84 3298.5,-84"/>
<text text-anchor="start" x="3306.5" y="-102" font-family="Helvetica,sans-Serif" font-size="10.00">src/Systems/SystemConstructor</text>
<text text-anchor="middle" x="3408" y="-91" font-family="Helvetica,sans-Serif" font-size="10.00">/MovementSystem/MovementSystem.hpp</text>
</a>
</g>
</g>
<!-- Node1&#45;&gt;Node21 -->
<g id="edge21" class="edge"><title>Node1&#45;&gt;Node21</title>
<path fill="none" stroke="midnightblue" d="M2024.36,-171.068C2230.51,-171.829 2810.02,-169.056 3289,-120 3303.48,-118.517 3318.87,-116.365 3333.61,-114.016"/>
<polygon fill="midnightblue" stroke="midnightblue" points="2024.25,-167.567 2014.24,-171.026 2024.22,-174.567 2024.25,-167.567"/>
</g>
<!-- Node24 -->
<g id="node24" class="node"><title>Node24</title>
<g id="a_node24"><a xlink:href="ParallaxSystem_8hpp.html" target="_top" xlink:title="src/Systems/SystemConstructor\l/ParallaxSystem/ParallaxSystem.hpp">
<polygon fill="none" stroke="black" points="3928.5,-84 3928.5,-114 4119.5,-114 4119.5,-84 3928.5,-84"/>
<text text-anchor="start" x="3936.5" y="-102" font-family="Helvetica,sans-Serif" font-size="10.00">src/Systems/SystemConstructor</text>
<text text-anchor="middle" x="4024" y="-91" font-family="Helvetica,sans-Serif" font-size="10.00">/ParallaxSystem/ParallaxSystem.hpp</text>
</a>
</g>
</g>
<!-- Node1&#45;&gt;Node24 -->
<g id="edge25" class="edge"><title>Node1&#45;&gt;Node24</title>
<path fill="none" stroke="midnightblue" d="M2024.44,-169.714C2275.76,-166.869 3091.29,-155.347 3765,-120 3819.16,-117.159 3879.58,-112.574 3928.44,-108.51"/>
<polygon fill="midnightblue" stroke="midnightblue" points="2024.28,-166.215 2014.32,-169.827 2024.36,-173.215 2024.28,-166.215"/>
</g>
<!-- Node29 -->
<g id="node29" class="node"><title>Node29</title>
<g id="a_node29"><a xlink:href="PlayerMovementSystem_8hpp.html" target="_top" xlink:title="src/Systems/SystemConstructor\l/PlayerMovementSystem/PlayerMovement\lSystem.hpp">
<polygon fill="none" stroke="black" points="3536,-78.5 3536,-119.5 3756,-119.5 3756,-78.5 3536,-78.5"/>
<text text-anchor="start" x="3544" y="-107.5" font-family="Helvetica,sans-Serif" font-size="10.00">src/Systems/SystemConstructor</text>
<text text-anchor="start" x="3544" y="-96.5" font-family="Helvetica,sans-Serif" font-size="10.00">/PlayerMovementSystem/PlayerMovement</text>
<text text-anchor="middle" x="3646" y="-85.5" font-family="Helvetica,sans-Serif" font-size="10.00">System.hpp</text>
</a>
</g>
</g>
<!-- Node1&#45;&gt;Node29 -->
<g id="edge31" class="edge"><title>Node1&#45;&gt;Node29</title>
<path fill="none" stroke="midnightblue" d="M2024.42,-169.407C2299.68,-165.304 3230.41,-149.528 3527,-120 3529.92,-119.709 3532.87,-119.391 3535.85,-119.048"/>
<polygon fill="midnightblue" stroke="midnightblue" points="2024.07,-165.911 2014.13,-169.559 2024.18,-172.911 2024.07,-165.911"/>
</g>
<!-- Node16 -->
<g id="node16" class="node"><title>Node16</title>
<g id="a_node16"><a xlink:href="GameScene_8cpp.html" target="_top" xlink:title="src/Scenes/GameScene.cpp">
<polygon fill="none" stroke="black" points="3111,-11.5 3111,-30.5 3263,-30.5 3263,-11.5 3111,-11.5"/>
<text text-anchor="middle" x="3187" y="-18.5" font-family="Helvetica,sans-Serif" font-size="10.00">src/Scenes/GameScene.cpp</text>
</a>
</g>
</g>
<!-- Node15&#45;&gt;Node16 -->
<g id="edge15" class="edge"><title>Node15&#45;&gt;Node16</title>
<path fill="none" stroke="midnightblue" d="M2796.57,-82.3078C2805.82,-80.8004 2815.1,-79.3371 2824,-78 2947.21,-59.5 2979.42,-64.2969 3102,-42 3119.3,-38.8528 3138.38,-34.4513 3154.06,-30.5784"/>
<polygon fill="midnightblue" stroke="midnightblue" points="2795.84,-78.8794 2786.55,-83.9571 2796.98,-85.7864 2795.84,-78.8794"/>
</g>
<!-- Node17 -->
<g id="node17" class="node"><title>Node17</title>
<g id="a_node17"><a xlink:href="AnimationSystem_8cpp.html" target="_top" xlink:title="src/Systems/SystemConstructor\l/AnimationSystem/AnimationSystem.cpp">
<polygon fill="none" stroke="black" points="2600,-6 2600,-36 2814,-36 2814,-6 2600,-6"/>
<text text-anchor="start" x="2608" y="-24" font-family="Helvetica,sans-Serif" font-size="10.00">src/Systems/SystemConstructor</text>
<text text-anchor="middle" x="2707" y="-13" font-family="Helvetica,sans-Serif" font-size="10.00">/AnimationSystem/AnimationSystem.cpp</text>
</a>
</g>
</g>
<!-- Node15&#45;&gt;Node17 -->
<g id="edge16" class="edge"><title>Node15&#45;&gt;Node17</title>
<path fill="none" stroke="midnightblue" d="M2707,-73.5898C2707,-61.2565 2707,-46.7237 2707,-36.2309"/>
<polygon fill="midnightblue" stroke="midnightblue" points="2703.5,-73.7049 2707,-83.705 2710.5,-73.705 2703.5,-73.7049"/>
</g>
<!-- Node19&#45;&gt;Node16 -->
<g id="edge19" class="edge"><title>Node19&#45;&gt;Node16</title>
<path fill="none" stroke="midnightblue" d="M3169.12,-68.8505C3174.35,-55.1523 3180.2,-39.8294 3183.74,-30.552"/>
<polygon fill="midnightblue" stroke="midnightblue" points="3165.76,-67.8374 3165.47,-78.4281 3172.3,-70.333 3165.76,-67.8374"/>
</g>
<!-- Node20 -->
<g id="node20" class="node"><title>Node20</title>
<g id="a_node20"><a xlink:href="EnemiesMovementSystem_8cpp.html" target="_top" xlink:title="src/Systems/SystemConstructor\l/EnemiesMovementSystem/EnemiesMovement\lSystem.cpp">
<polygon fill="none" stroke="black" points="2849,-0.5 2849,-41.5 3093,-41.5 3093,-0.5 2849,-0.5"/>
<text text-anchor="start" x="2857" y="-29.5" font-family="Helvetica,sans-Serif" font-size="10.00">src/Systems/SystemConstructor</text>
<text text-anchor="start" x="2857" y="-18.5" font-family="Helvetica,sans-Serif" font-size="10.00">/EnemiesMovementSystem/EnemiesMovement</text>
<text text-anchor="middle" x="2971" y="-7.5" font-family="Helvetica,sans-Serif" font-size="10.00">System.cpp</text>
</a>
</g>
</g>
<!-- Node19&#45;&gt;Node20 -->
<g id="edge20" class="edge"><title>Node19&#45;&gt;Node20</title>
<path fill="none" stroke="midnightblue" d="M3100.44,-74.6086C3074.34,-64.0008 3043.84,-51.6015 3018.99,-41.5056"/>
<polygon fill="midnightblue" stroke="midnightblue" points="3099.26,-77.9054 3109.84,-78.4281 3101.9,-71.4205 3099.26,-77.9054"/>
</g>
<!-- Node21&#45;&gt;Node16 -->
<g id="edge23" class="edge"><title>Node21&#45;&gt;Node16</title>
<path fill="none" stroke="midnightblue" d="M3357.52,-80.6395C3311.97,-64.9777 3246.91,-42.6012 3211.78,-30.5206"/>
<polygon fill="midnightblue" stroke="midnightblue" points="3356.61,-84.0296 3367.21,-83.9719 3358.89,-77.41 3356.61,-84.0296"/>
</g>
<!-- Node22 -->
<g id="node22" class="node"><title>Node22</title>
<g id="a_node22"><a xlink:href="Rtype_8cpp.html" target="_top" xlink:title="src/Rtype.cpp">
<polygon fill="none" stroke="black" points="3517.5,-11.5 3517.5,-30.5 3598.5,-30.5 3598.5,-11.5 3517.5,-11.5"/>
<text text-anchor="middle" x="3558" y="-18.5" font-family="Helvetica,sans-Serif" font-size="10.00">src/Rtype.cpp</text>
</a>
</g>
</g>
<!-- Node21&#45;&gt;Node22 -->
<g id="edge22" class="edge"><title>Node21&#45;&gt;Node22</title>
<path fill="none" stroke="midnightblue" d="M3444.97,-79.2667C3475.63,-63.7321 3517.82,-42.3564 3541.01,-30.6061"/>
<polygon fill="midnightblue" stroke="midnightblue" points="3443.2,-76.2413 3435.86,-83.8831 3446.36,-82.4855 3443.2,-76.2413"/>
</g>
<!-- Node23 -->
<g id="node23" class="node"><title>Node23</title>
<g id="a_node23"><a xlink:href="MovementSystem_8cpp.html" target="_top" xlink:title="src/Systems/SystemConstructor\l/MovementSystem/MovementSystem.cpp">
<polygon fill="none" stroke="black" points="3281,-6 3281,-36 3499,-36 3499,-6 3281,-6"/>
<text text-anchor="start" x="3289" y="-24" font-family="Helvetica,sans-Serif" font-size="10.00">src/Systems/SystemConstructor</text>
<text text-anchor="middle" x="3390" y="-13" font-family="Helvetica,sans-Serif" font-size="10.00">/MovementSystem/MovementSystem.cpp</text>
</a>
</g>
</g>
<!-- Node21&#45;&gt;Node23 -->
<g id="edge24" class="edge"><title>Node21&#45;&gt;Node23</title>
<path fill="none" stroke="midnightblue" d="M3402.31,-73.9628C3399.37,-61.5505 3395.88,-46.8296 3393.37,-36.2309"/>
<polygon fill="midnightblue" stroke="midnightblue" points="3398.9,-74.7808 3404.61,-83.705 3405.72,-73.1675 3398.9,-74.7808"/>
</g>
<!-- Node24&#45;&gt;Node16 -->
<g id="edge28" class="edge"><title>Node24&#45;&gt;Node16</title>
<path fill="none" stroke="midnightblue" d="M3918.19,-89.7293C3871.27,-86.0872 3815.38,-81.7848 3765,-78 3545.92,-61.5427 3489.16,-75.2633 3272,-42 3253.87,-39.2227 3233.89,-34.6027 3217.86,-30.5024"/>
<polygon fill="midnightblue" stroke="midnightblue" points="3918.13,-93.2349 3928.37,-90.5199 3918.67,-86.2559 3918.13,-93.2349"/>
</g>
<!-- Node25 -->
<g id="node25" class="node"><title>Node25</title>
<g id="a_node25"><a xlink:href="ChooseRoomScene_8cpp.html" target="_top" xlink:title="src/Scenes/ChooseRoomScene.cpp">
<polygon fill="none" stroke="black" points="4231.5,-11.5 4231.5,-30.5 4416.5,-30.5 4416.5,-11.5 4231.5,-11.5"/>
<text text-anchor="middle" x="4324" y="-18.5" font-family="Helvetica,sans-Serif" font-size="10.00">src/Scenes/ChooseRoomScene.cpp</text>
</a>
</g>
</g>
<!-- Node24&#45;&gt;Node25 -->
<g id="edge26" class="edge"><title>Node24&#45;&gt;Node25</title>
<path fill="none" stroke="midnightblue" d="M4089.44,-81.4217C4151.38,-65.7312 4241.88,-42.8038 4290.37,-30.5206"/>
<polygon fill="midnightblue" stroke="midnightblue" points="4088.21,-78.1232 4079.37,-83.9719 4089.93,-84.9089 4088.21,-78.1232"/>
</g>
<!-- Node26 -->
<g id="node26" class="node"><title>Node26</title>
<g id="a_node26"><a xlink:href="DefeatScene_8cpp.html" target="_top" xlink:title="src/Scenes/DefeatScene.cpp">
<polygon fill="none" stroke="black" points="4434.5,-11.5 4434.5,-30.5 4589.5,-30.5 4589.5,-11.5 4434.5,-11.5"/>
<text text-anchor="middle" x="4512" y="-18.5" font-family="Helvetica,sans-Serif" font-size="10.00">src/Scenes/DefeatScene.cpp</text>
</a>
</g>
</g>
<!-- Node24&#45;&gt;Node26 -->
<g id="edge27" class="edge"><title>Node24&#45;&gt;Node26</title>
<path fill="none" stroke="midnightblue" d="M4130.07,-85.8701C4211.37,-75.9346 4326.17,-60.5222 4426,-42 4443.33,-38.7841 4462.45,-34.4215 4478.25,-30.5915"/>
<polygon fill="midnightblue" stroke="midnightblue" points="4129.33,-82.434 4119.83,-87.1147 4130.18,-89.3829 4129.33,-82.434"/>
</g>
<!-- Node27 -->
<g id="node27" class="node"><title>Node27</title>
<g id="a_node27"><a xlink:href="MenuScene_8cpp.html" target="_top" xlink:title="src/Scenes/MenuScene.cpp">
<polygon fill="none" stroke="black" points="3855.5,-11.5 3855.5,-30.5 4004.5,-30.5 4004.5,-11.5 3855.5,-11.5"/>
<text text-anchor="middle" x="3930" y="-18.5" font-family="Helvetica,sans-Serif" font-size="10.00">src/Scenes/MenuScene.cpp</text>
</a>
</g>
</g>
<!-- Node24&#45;&gt;Node27 -->
<g id="edge29" class="edge"><title>Node24&#45;&gt;Node27</title>
<path fill="none" stroke="midnightblue" d="M3998.34,-77.2511C3979.36,-61.9093 3954.5,-41.8052 3940.59,-30.5635"/>
<polygon fill="midnightblue" stroke="midnightblue" points="3996.34,-80.1394 4006.32,-83.705 4000.74,-74.696 3996.34,-80.1394"/>
</g>
<!-- Node28 -->
<g id="node28" class="node"><title>Node28</title>
<g id="a_node28"><a xlink:href="ParallaxSystem_8cpp.html" target="_top" xlink:title="src/Systems/SystemConstructor\l/ParallaxSystem/ParallaxSystem.cpp">
<polygon fill="none" stroke="black" points="4023,-6 4023,-36 4213,-36 4213,-6 4023,-6"/>
<text text-anchor="start" x="4031" y="-24" font-family="Helvetica,sans-Serif" font-size="10.00">src/Systems/SystemConstructor</text>
<text text-anchor="middle" x="4118" y="-13" font-family="Helvetica,sans-Serif" font-size="10.00">/ParallaxSystem/ParallaxSystem.cpp</text>
</a>
</g>
</g>
<!-- Node24&#45;&gt;Node28 -->
<g id="edge30" class="edge"><title>Node24&#45;&gt;Node28</title>
<path fill="none" stroke="midnightblue" d="M4049.66,-77.2533C4065.76,-64.2337 4086.11,-47.7835 4100.4,-36.2309"/>
<polygon fill="midnightblue" stroke="midnightblue" points="4047.26,-74.696 4041.68,-83.705 4051.66,-80.1394 4047.26,-74.696"/>
</g>
<!-- Node29&#45;&gt;Node16 -->
<g id="edge33" class="edge"><title>Node29&#45;&gt;Node16</title>
<path fill="none" stroke="midnightblue" d="M3525.66,-77.8224C3412.15,-60.6424 3381.3,-62.531 3272,-42 3254.87,-38.7816 3235.97,-34.4188 3220.36,-30.5892"/>
<polygon fill="midnightblue" stroke="midnightblue" points="3525.38,-81.3209 3535.8,-79.3742 3526.44,-74.4015 3525.38,-81.3209"/>
</g>
<!-- Node29&#45;&gt;Node22 -->
<g id="edge32" class="edge"><title>Node29&#45;&gt;Node22</title>
<path fill="none" stroke="midnightblue" d="M3615.45,-71.6184C3598.83,-57.263 3579.37,-40.4599 3567.9,-30.552"/>
<polygon fill="midnightblue" stroke="midnightblue" points="3613.48,-74.5408 3623.34,-78.4281 3618.06,-69.243 3613.48,-74.5408"/>
</g>
<!-- Node30 -->
<g id="node30" class="node"><title>Node30</title>
<g id="a_node30"><a xlink:href="PlayerMovementSystem_8cpp.html" target="_top" xlink:title="src/Systems/SystemConstructor\l/PlayerMovementSystem/PlayerMovement\lSystem.cpp">
<polygon fill="none" stroke="black" points="3617,-0.5 3617,-41.5 3837,-41.5 3837,-0.5 3617,-0.5"/>
<text text-anchor="start" x="3625" y="-29.5" font-family="Helvetica,sans-Serif" font-size="10.00">src/Systems/SystemConstructor</text>
<text text-anchor="start" x="3625" y="-18.5" font-family="Helvetica,sans-Serif" font-size="10.00">/PlayerMovementSystem/PlayerMovement</text>
<text text-anchor="middle" x="3727" y="-7.5" font-family="Helvetica,sans-Serif" font-size="10.00">System.cpp</text>
</a>
</g>
</g>
<!-- Node29&#45;&gt;Node30 -->
<g id="edge34" class="edge"><title>Node29&#45;&gt;Node30</title>
<path fill="none" stroke="midnightblue" d="M3674.25,-71.4916C3684.76,-61.6294 3696.49,-50.6273 3706.21,-41.5056"/>
<polygon fill="midnightblue" stroke="midnightblue" points="3671.76,-69.0333 3666.86,-78.4281 3676.55,-74.1381 3671.76,-69.0333"/>
</g>
</g>
</svg>
