<?xml version="1.0" encoding="UTF-8" standalone="no"?>
<!DOCTYPE svg PUBLIC "-//W3C//DTD SVG 1.1//EN"
 "http://www.w3.org/Graphics/SVG/1.1/DTD/svg11.dtd">
<!-- Generated by graphviz version 2.38.0 (20140413.2041)
 -->
<!-- Title: src/Exceptions/ComponentExceptions.cpp Pages: 1 -->
<svg width="222pt" height="263pt"
 viewBox="0.00 0.00 222.00 263.00" xmlns="http://www.w3.org/2000/svg" xmlns:xlink="http://www.w3.org/1999/xlink">
<g id="graph0" class="graph" transform="scale(1 1) rotate(0) translate(4 259)">
<title>src/Exceptions/ComponentExceptions.cpp</title>
<!-- Node1 -->
<g id="node1" class="node"><title>Node1</title>
<polygon fill="#bfbfbf" stroke="black" points="0.5,-224.5 0.5,-254.5 145.5,-254.5 145.5,-224.5 0.5,-224.5"/>
<text text-anchor="start" x="8.5" y="-242.5" font-family="Helvetica,sans-Serif" font-size="10.00">src/Exceptions/Component</text>
<text text-anchor="middle" x="73" y="-231.5" font-family="Helvetica,sans-Serif" font-size="10.00">Exceptions.cpp</text>
</g>
<!-- Node2 -->
<g id="node2" class="node"><title>Node2</title>
<g id="a_node2"><a xlink:href="ComponentExceptions_8hpp.html" target="_top" xlink:title="ComponentExceptions.hpp">
<polygon fill="none" stroke="black" points="0,-168.5 0,-187.5 146,-187.5 146,-168.5 0,-168.5"/>
<text text-anchor="middle" x="73" y="-175.5" font-family="Helvetica,sans-Serif" font-size="10.00">ComponentExceptions.hpp</text>
</a>
</g>
</g>
<!-- Node1&#45;&gt;Node2 -->
<g id="edge1" class="edge"><title>Node1&#45;&gt;Node2</title>
<path fill="none" stroke="midnightblue" d="M73,-224.399C73,-216.466 73,-206.458 73,-197.858"/>
<polygon fill="midnightblue" stroke="midnightblue" points="76.5001,-197.658 73,-187.658 69.5001,-197.658 76.5001,-197.658"/>
</g>
<!-- Node3 -->
<g id="node3" class="node"><title>Node3</title>
<polygon fill="none" stroke="#bfbfbf" points="48,-0.5 48,-19.5 92,-19.5 92,-0.5 48,-0.5"/>
<text text-anchor="middle" x="70" y="-7.5" font-family="Helvetica,sans-Serif" font-size="10.00">string</text>
</g>
<!-- Node2&#45;&gt;Node3 -->
<g id="edge2" class="edge"><title>Node2&#45;&gt;Node3</title>
<path fill="none" stroke="midnightblue" d="M67.3622,-168.481C61.946,-159.745 54.1363,-145.556 51,-132 42.6454,-95.8891 54.476,-52.8575 62.8777,-29.0703"/>
<polygon fill="midnightblue" stroke="midnightblue" points="66.1985,-30.1819 66.4118,-19.5892 59.6394,-27.7369 66.1985,-30.1819"/>
</g>
<!-- Node4 -->
<g id="node4" class="node"><title>Node4</title>
<g id="a_node4"><a xlink:href="ECSExceptions_8hpp.html" target="_top" xlink:title="ECSExceptions.hpp">
<polygon fill="none" stroke="black" points="60.5,-112.5 60.5,-131.5 169.5,-131.5 169.5,-112.5 60.5,-112.5"/>
<text text-anchor="middle" x="115" y="-119.5" font-family="Helvetica,sans-Serif" font-size="10.00">ECSExceptions.hpp</text>
</a>
</g>
</g>
<!-- Node2&#45;&gt;Node4 -->
<g id="edge3" class="edge"><title>Node2&#45;&gt;Node4</title>
<path fill="none" stroke="midnightblue" d="M79.9354,-168.083C85.9292,-160.377 94.7518,-149.033 102.048,-139.653"/>
<polygon fill="midnightblue" stroke="midnightblue" points="104.817,-141.793 108.194,-131.751 99.2914,-137.496 104.817,-141.793"/>
</g>
<!-- Node4&#45;&gt;Node3 -->
<g id="edge4" class="edge"><title>Node4&#45;&gt;Node3</title>
<path fill="none" stroke="midnightblue" d="M109.168,-112.361C103.414,-103.533 94.677,-89.2734 89,-76 82.4985,-60.7988 77.4065,-42.6845 74.1374,-29.4444"/>
<polygon fill="midnightblue" stroke="midnightblue" points="77.5277,-28.5719 71.8291,-19.6402 70.714,-30.1762 77.5277,-28.5719"/>
</g>
<!-- Node5 -->
<g id="node5" class="node"><title>Node5</title>
<g id="a_node5"><a xlink:href="RTypeExceptions_8hpp.html" target="_top" xlink:title="RTypeExceptions.hpp">
<polygon fill="none" stroke="black" points="98,-56.5 98,-75.5 214,-75.5 214,-56.5 98,-56.5"/>
<text text-anchor="middle" x="156" y="-63.5" font-family="Helvetica,sans-Serif" font-size="10.00">RTypeExceptions.hpp</text>
</a>
</g>
</g>
<!-- Node4&#45;&gt;Node5 -->
<g id="edge5" class="edge"><title>Node4&#45;&gt;Node5</title>
<path fill="none" stroke="midnightblue" d="M121.77,-112.083C127.562,-104.455 136.058,-93.2645 143.138,-83.9408"/>
<polygon fill="midnightblue" stroke="midnightblue" points="146.096,-85.8321 149.356,-75.7511 140.521,-81.5991 146.096,-85.8321"/>
</g>
<!-- Node5&#45;&gt;Node3 -->
<g id="edge6" class="edge"><title>Node5&#45;&gt;Node3</title>
<path fill="none" stroke="midnightblue" d="M142.183,-56.324C128.767,-47.9002 108.176,-34.9709 92.4144,-25.0741"/>
<polygon fill="midnightblue" stroke="midnightblue" points="94.1132,-22.0081 83.7831,-19.6545 90.3908,-27.9364 94.1132,-22.0081"/>
</g>
</g>
</svg>
