<?xml version="1.0" encoding="UTF-8" standalone="no"?>
<!DOCTYPE svg PUBLIC "-//W3C//DTD SVG 1.1//EN"
 "http://www.w3.org/Graphics/SVG/1.1/DTD/svg11.dtd">
<!-- Generated by graphviz version 2.38.0 (20140413.2041)
 -->
<!-- Title: src/Components/ComponentManager/ComponentManager.cpp Pages: 1 -->
<svg width="497pt" height="263pt"
 viewBox="0.00 0.00 497.19 263.00" xmlns="http://www.w3.org/2000/svg" xmlns:xlink="http://www.w3.org/1999/xlink">
<g id="graph0" class="graph" transform="scale(1 1) rotate(0) translate(4 259)">
<title>src/Components/ComponentManager/ComponentManager.cpp</title>
<!-- Node1 -->
<g id="node1" class="node"><title>Node1</title>
<polygon fill="#bfbfbf" stroke="black" points="132.189,-224.5 132.189,-254.5 311.189,-254.5 311.189,-224.5 132.189,-224.5"/>
<text text-anchor="start" x="140.189" y="-242.5" font-family="Helvetica,sans-Serif" font-size="10.00">src/Components/Component</text>
<text text-anchor="middle" x="221.689" y="-231.5" font-family="Helvetica,sans-Serif" font-size="10.00">Manager/ComponentManager.cpp</text>
</g>
<!-- Node2 -->
<g id="node2" class="node"><title>Node2</title>
<g id="a_node2"><a xlink:href="ComponentExceptions_8hpp.html" target="_top" xlink:title="ComponentExceptions.hpp">
<polygon fill="none" stroke="black" points="27.6892,-168.5 27.6892,-187.5 173.689,-187.5 173.689,-168.5 27.6892,-168.5"/>
<text text-anchor="middle" x="100.689" y="-175.5" font-family="Helvetica,sans-Serif" font-size="10.00">ComponentExceptions.hpp</text>
</a>
</g>
</g>
<!-- Node1&#45;&gt;Node2 -->
<g id="edge1" class="edge"><title>Node1&#45;&gt;Node2</title>
<path fill="none" stroke="midnightblue" d="M193.014,-224.399C173.165,-214.639 146.928,-201.737 127.498,-192.183"/>
<polygon fill="midnightblue" stroke="midnightblue" points="128.814,-188.93 118.296,-187.658 125.725,-195.211 128.814,-188.93"/>
</g>
<!-- Node6 -->
<g id="node6" class="node"><title>Node6</title>
<g id="a_node6"><a xlink:href="ComponentManager_8hpp.html" target="_top" xlink:title="ComponentManager.hpp">
<polygon fill="none" stroke="black" points="245.189,-168.5 245.189,-187.5 380.189,-187.5 380.189,-168.5 245.189,-168.5"/>
<text text-anchor="middle" x="312.689" y="-175.5" font-family="Helvetica,sans-Serif" font-size="10.00">ComponentManager.hpp</text>
</a>
</g>
</g>
<!-- Node1&#45;&gt;Node6 -->
<g id="edge7" class="edge"><title>Node1&#45;&gt;Node6</title>
<path fill="none" stroke="midnightblue" d="M243.255,-224.399C257.569,-215.04 276.301,-202.792 290.701,-193.377"/>
<polygon fill="midnightblue" stroke="midnightblue" points="292.994,-196.06 299.448,-187.658 289.163,-190.201 292.994,-196.06"/>
</g>
<!-- Node3 -->
<g id="node3" class="node"><title>Node3</title>
<polygon fill="none" stroke="#bfbfbf" points="47.6892,-0.5 47.6892,-19.5 91.6892,-19.5 91.6892,-0.5 47.6892,-0.5"/>
<text text-anchor="middle" x="69.6892" y="-7.5" font-family="Helvetica,sans-Serif" font-size="10.00">string</text>
</g>
<!-- Node2&#45;&gt;Node3 -->
<g id="edge2" class="edge"><title>Node2&#45;&gt;Node3</title>
<path fill="none" stroke="midnightblue" d="M84.8378,-168.38C70.9706,-160.289 50.8824,-147.18 36.6892,-132 16.8032,-110.731 10.5349,-104.04 2.6892,-76 0.294041,-67.4399 -1.49162,-63.8443 2.6892,-56 10.3465,-41.6329 24.8542,-31.0377 38.4169,-23.7499"/>
<polygon fill="midnightblue" stroke="midnightblue" points="40.1482,-26.7984 47.5596,-19.2273 37.0444,-20.5241 40.1482,-26.7984"/>
</g>
<!-- Node4 -->
<g id="node4" class="node"><title>Node4</title>
<g id="a_node4"><a xlink:href="ECSExceptions_8hpp.html" target="_top" xlink:title="ECSExceptions.hpp">
<polygon fill="none" stroke="black" points="46.1892,-112.5 46.1892,-131.5 155.189,-131.5 155.189,-112.5 46.1892,-112.5"/>
<text text-anchor="middle" x="100.689" y="-119.5" font-family="Helvetica,sans-Serif" font-size="10.00">ECSExceptions.hpp</text>
</a>
</g>
</g>
<!-- Node2&#45;&gt;Node4 -->
<g id="edge3" class="edge"><title>Node2&#45;&gt;Node4</title>
<path fill="none" stroke="midnightblue" d="M100.689,-168.083C100.689,-161.006 100.689,-150.861 100.689,-141.986"/>
<polygon fill="midnightblue" stroke="midnightblue" points="104.189,-141.751 100.689,-131.751 97.1893,-141.751 104.189,-141.751"/>
</g>
<!-- Node4&#45;&gt;Node3 -->
<g id="edge4" class="edge"><title>Node4&#45;&gt;Node3</title>
<path fill="none" stroke="midnightblue" d="M111.687,-112.218C125.866,-99.7729 147.489,-76.2634 136.689,-56 129.032,-41.6329 114.524,-31.0377 100.962,-23.7499"/>
<polygon fill="midnightblue" stroke="midnightblue" points="102.334,-20.5241 91.8188,-19.2273 99.2302,-26.7984 102.334,-20.5241"/>
</g>
<!-- Node5 -->
<g id="node5" class="node"><title>Node5</title>
<g id="a_node5"><a xlink:href="RTypeExceptions_8hpp.html" target="_top" xlink:title="RTypeExceptions.hpp">
<polygon fill="none" stroke="black" points="11.6892,-56.5 11.6892,-75.5 127.689,-75.5 127.689,-56.5 11.6892,-56.5"/>
<text text-anchor="middle" x="69.6892" y="-63.5" font-family="Helvetica,sans-Serif" font-size="10.00">RTypeExceptions.hpp</text>
</a>
</g>
</g>
<!-- Node4&#45;&gt;Node5 -->
<g id="edge5" class="edge"><title>Node4&#45;&gt;Node5</title>
<path fill="none" stroke="midnightblue" d="M95.5702,-112.083C91.2817,-104.613 85.031,-93.7244 79.7469,-84.5199"/>
<polygon fill="midnightblue" stroke="midnightblue" points="82.7271,-82.6811 74.713,-75.7511 76.6563,-86.1662 82.7271,-82.6811"/>
</g>
<!-- Node5&#45;&gt;Node3 -->
<g id="edge6" class="edge"><title>Node5&#45;&gt;Node3</title>
<path fill="none" stroke="midnightblue" d="M69.6892,-56.083C69.6892,-49.0059 69.6892,-38.8611 69.6892,-29.9865"/>
<polygon fill="midnightblue" stroke="midnightblue" points="73.1893,-29.751 69.6892,-19.7511 66.1893,-29.7511 73.1893,-29.751"/>
</g>
<!-- Node7 -->
<g id="node7" class="node"><title>Node7</title>
<polygon fill="none" stroke="#bfbfbf" points="399.689,-112.5 399.689,-131.5 437.689,-131.5 437.689,-112.5 399.689,-112.5"/>
<text text-anchor="middle" x="418.689" y="-119.5" font-family="Helvetica,sans-Serif" font-size="10.00">map</text>
</g>
<!-- Node6&#45;&gt;Node7 -->
<g id="edge8" class="edge"><title>Node6&#45;&gt;Node7</title>
<path fill="none" stroke="midnightblue" d="M329.72,-168.324C346.719,-159.664 373.065,-146.242 392.682,-136.249"/>
<polygon fill="midnightblue" stroke="midnightblue" points="394.379,-139.312 401.701,-131.655 391.202,-133.075 394.379,-139.312"/>
</g>
<!-- Node8 -->
<g id="node8" class="node"><title>Node8</title>
<polygon fill="none" stroke="#bfbfbf" points="432.189,-56.5 432.189,-75.5 489.189,-75.5 489.189,-56.5 432.189,-56.5"/>
<text text-anchor="middle" x="460.689" y="-63.5" font-family="Helvetica,sans-Serif" font-size="10.00">memory</text>
</g>
<!-- Node6&#45;&gt;Node8 -->
<g id="edge9" class="edge"><title>Node6&#45;&gt;Node8</title>
<path fill="none" stroke="midnightblue" d="M379.975,-168.461C404.131,-162.127 429.597,-151.119 446.689,-132 457.859,-119.505 460.862,-100.276 461.369,-85.9699"/>
<polygon fill="midnightblue" stroke="midnightblue" points="464.869,-85.7679 461.349,-75.7749 457.869,-85.7819 464.869,-85.7679"/>
</g>
<!-- Node9 -->
<g id="node9" class="node"><title>Node9</title>
<g id="a_node9"><a xlink:href="IComponent_8hpp.html" target="_top" xlink:title="IComponent.hpp">
<polygon fill="none" stroke="black" points="183.689,-56.5 183.689,-75.5 279.689,-75.5 279.689,-56.5 183.689,-56.5"/>
<text text-anchor="middle" x="231.689" y="-63.5" font-family="Helvetica,sans-Serif" font-size="10.00">IComponent.hpp</text>
</a>
</g>
</g>
<!-- Node6&#45;&gt;Node9 -->
<g id="edge10" class="edge"><title>Node6&#45;&gt;Node9</title>
<path fill="none" stroke="midnightblue" d="M284.24,-168.426C266.754,-161.556 245.663,-150.028 234.689,-132 226.337,-118.28 226.337,-99.7485 227.988,-85.9831"/>
<polygon fill="midnightblue" stroke="midnightblue" points="231.501,-86.1772 229.616,-75.7514 224.588,-85.0772 231.501,-86.1772"/>
</g>
<!-- Node11 -->
<g id="node11" class="node"><title>Node11</title>
<g id="a_node11"><a xlink:href="IComponentManager_8hpp.html" target="_top" xlink:title="IComponentManager.hpp">
<polygon fill="none" stroke="black" points="244.189,-112.5 244.189,-131.5 381.189,-131.5 381.189,-112.5 244.189,-112.5"/>
<text text-anchor="middle" x="312.689" y="-119.5" font-family="Helvetica,sans-Serif" font-size="10.00">IComponentManager.hpp</text>
</a>
</g>
</g>
<!-- Node6&#45;&gt;Node11 -->
<g id="edge12" class="edge"><title>Node6&#45;&gt;Node11</title>
<path fill="none" stroke="midnightblue" d="M312.689,-168.083C312.689,-161.006 312.689,-150.861 312.689,-141.986"/>
<polygon fill="midnightblue" stroke="midnightblue" points="316.189,-141.751 312.689,-131.751 309.189,-141.751 316.189,-141.751"/>
</g>
<!-- Node10 -->
<g id="node10" class="node"><title>Node10</title>
<polygon fill="none" stroke="#bfbfbf" points="200.189,-0.5 200.189,-19.5 263.189,-19.5 263.189,-0.5 200.189,-0.5"/>
<text text-anchor="middle" x="231.689" y="-7.5" font-family="Helvetica,sans-Serif" font-size="10.00">typeindex</text>
</g>
<!-- Node9&#45;&gt;Node10 -->
<g id="edge11" class="edge"><title>Node9&#45;&gt;Node10</title>
<path fill="none" stroke="midnightblue" d="M231.689,-56.083C231.689,-49.0059 231.689,-38.8611 231.689,-29.9865"/>
<polygon fill="midnightblue" stroke="midnightblue" points="235.189,-29.751 231.689,-19.7511 228.189,-29.7511 235.189,-29.751"/>
</g>
<!-- Node11&#45;&gt;Node8 -->
<g id="edge14" class="edge"><title>Node11&#45;&gt;Node8</title>
<path fill="none" stroke="midnightblue" d="M336.14,-112.444C360.822,-103.438 399.875,-89.1891 427.666,-79.049"/>
<polygon fill="midnightblue" stroke="midnightblue" points="429.153,-82.2321 437.348,-75.5164 426.754,-75.6561 429.153,-82.2321"/>
</g>
<!-- Node11&#45;&gt;Node9 -->
<g id="edge15" class="edge"><title>Node11&#45;&gt;Node9</title>
<path fill="none" stroke="midnightblue" d="M299.675,-112.324C287.158,-103.979 268.007,-91.2122 253.218,-81.3524"/>
<polygon fill="midnightblue" stroke="midnightblue" points="254.933,-78.2894 244.671,-75.6545 251.05,-84.1137 254.933,-78.2894"/>
</g>
<!-- Node12 -->
<g id="node12" class="node"><title>Node12</title>
<polygon fill="none" stroke="#bfbfbf" points="297.689,-56.5 297.689,-75.5 327.689,-75.5 327.689,-56.5 297.689,-56.5"/>
<text text-anchor="middle" x="312.689" y="-63.5" font-family="Helvetica,sans-Serif" font-size="10.00">list</text>
</g>
<!-- Node11&#45;&gt;Node12 -->
<g id="edge13" class="edge"><title>Node11&#45;&gt;Node12</title>
<path fill="none" stroke="midnightblue" d="M312.689,-112.083C312.689,-105.006 312.689,-94.8611 312.689,-85.9865"/>
<polygon fill="midnightblue" stroke="midnightblue" points="316.189,-85.751 312.689,-75.7511 309.189,-85.7511 316.189,-85.751"/>
</g>
<!-- Node13 -->
<g id="node13" class="node"><title>Node13</title>
<g id="a_node13"><a xlink:href="Entity_8hpp.html" target="_top" xlink:title="Entity.hpp">
<polygon fill="none" stroke="black" points="346.189,-56.5 346.189,-75.5 409.189,-75.5 409.189,-56.5 346.189,-56.5"/>
<text text-anchor="middle" x="377.689" y="-63.5" font-family="Helvetica,sans-Serif" font-size="10.00">Entity.hpp</text>
</a>
</g>
</g>
<!-- Node11&#45;&gt;Node13 -->
<g id="edge16" class="edge"><title>Node11&#45;&gt;Node13</title>
<path fill="none" stroke="midnightblue" d="M323.133,-112.324C332.835,-104.263 347.505,-92.0765 359.189,-82.3695"/>
<polygon fill="midnightblue" stroke="midnightblue" points="361.6,-84.9163 367.056,-75.8339 357.127,-79.532 361.6,-84.9163"/>
</g>
</g>
</svg>
