<?xml version="1.0" encoding="UTF-8" standalone="no"?>
<!DOCTYPE svg PUBLIC "-//W3C//DTD SVG 1.1//EN"
 "http://www.w3.org/Graphics/SVG/1.1/DTD/svg11.dtd">
<!-- Generated by graphviz version 2.38.0 (20140413.2041)
 -->
<!-- Title: src/Components/IO/Sound.cpp Pages: 1 -->
<svg width="175pt" height="308pt"
 viewBox="0.00 0.00 175.00 308.00" xmlns="http://www.w3.org/2000/svg" xmlns:xlink="http://www.w3.org/1999/xlink">
<g id="graph0" class="graph" transform="scale(1 1) rotate(0) translate(4 304)">
<title>src/Components/IO/Sound.cpp</title>
<!-- Node1 -->
<g id="node1" class="node"><title>Node1</title>
<polygon fill="#bfbfbf" stroke="black" points="0,-280.5 0,-299.5 162,-299.5 162,-280.5 0,-280.5"/>
<text text-anchor="middle" x="81" y="-287.5" font-family="Helvetica,sans-Serif" font-size="10.00">src/Components/IO/Sound.cpp</text>
</g>
<!-- Node2 -->
<g id="node2" class="node"><title>Node2</title>
<g id="a_node2"><a xlink:href="Components_2IO_2Sound_8hpp.html" target="_top" xlink:title="Sound.hpp">
<polygon fill="none" stroke="black" points="47,-224.5 47,-243.5 115,-243.5 115,-224.5 47,-224.5"/>
<text text-anchor="middle" x="81" y="-231.5" font-family="Helvetica,sans-Serif" font-size="10.00">Sound.hpp</text>
</a>
</g>
</g>
<!-- Node1&#45;&gt;Node2 -->
<g id="edge1" class="edge"><title>Node1&#45;&gt;Node2</title>
<path fill="none" stroke="midnightblue" d="M81,-280.083C81,-273.006 81,-262.861 81,-253.986"/>
<polygon fill="midnightblue" stroke="midnightblue" points="84.5001,-253.751 81,-243.751 77.5001,-253.751 84.5001,-253.751"/>
</g>
<!-- Node3 -->
<g id="node3" class="node"><title>Node3</title>
<polygon fill="none" stroke="#bfbfbf" points="21,-168.5 21,-187.5 65,-187.5 65,-168.5 21,-168.5"/>
<text text-anchor="middle" x="43" y="-175.5" font-family="Helvetica,sans-Serif" font-size="10.00">string</text>
</g>
<!-- Node2&#45;&gt;Node3 -->
<g id="edge2" class="edge"><title>Node2&#45;&gt;Node3</title>
<path fill="none" stroke="midnightblue" d="M74.7251,-224.083C69.3575,-216.455 61.4824,-205.264 54.9213,-195.941"/>
<polygon fill="midnightblue" stroke="midnightblue" points="57.7755,-193.915 49.1582,-187.751 52.0508,-197.943 57.7755,-193.915"/>
</g>
<!-- Node4 -->
<g id="node4" class="node"><title>Node4</title>
<g id="a_node4"><a xlink:href="Output_8hpp.html" target="_top" xlink:title="Output.hpp">
<polygon fill="none" stroke="black" points="83.5,-168.5 83.5,-187.5 154.5,-187.5 154.5,-168.5 83.5,-168.5"/>
<text text-anchor="middle" x="119" y="-175.5" font-family="Helvetica,sans-Serif" font-size="10.00">Output.hpp</text>
</a>
</g>
</g>
<!-- Node2&#45;&gt;Node4 -->
<g id="edge3" class="edge"><title>Node2&#45;&gt;Node4</title>
<path fill="none" stroke="midnightblue" d="M87.2749,-224.083C92.6425,-216.455 100.518,-205.264 107.079,-195.941"/>
<polygon fill="midnightblue" stroke="midnightblue" points="109.949,-197.943 112.842,-187.751 104.225,-193.915 109.949,-197.943"/>
</g>
<!-- Node5 -->
<g id="node5" class="node"><title>Node5</title>
<g id="a_node5"><a xlink:href="IIO_8hpp.html" target="_top" xlink:title="IIO.hpp">
<polygon fill="none" stroke="black" points="94.5,-112.5 94.5,-131.5 143.5,-131.5 143.5,-112.5 94.5,-112.5"/>
<text text-anchor="middle" x="119" y="-119.5" font-family="Helvetica,sans-Serif" font-size="10.00">IIO.hpp</text>
</a>
</g>
</g>
<!-- Node4&#45;&gt;Node5 -->
<g id="edge4" class="edge"><title>Node4&#45;&gt;Node5</title>
<path fill="none" stroke="midnightblue" d="M119,-168.083C119,-161.006 119,-150.861 119,-141.986"/>
<polygon fill="midnightblue" stroke="midnightblue" points="122.5,-141.751 119,-131.751 115.5,-141.751 122.5,-141.751"/>
</g>
<!-- Node6 -->
<g id="node6" class="node"><title>Node6</title>
<g id="a_node6"><a xlink:href="IComponent_8hpp.html" target="_top" xlink:title="IComponent.hpp">
<polygon fill="none" stroke="black" points="71,-56.5 71,-75.5 167,-75.5 167,-56.5 71,-56.5"/>
<text text-anchor="middle" x="119" y="-63.5" font-family="Helvetica,sans-Serif" font-size="10.00">IComponent.hpp</text>
</a>
</g>
</g>
<!-- Node5&#45;&gt;Node6 -->
<g id="edge5" class="edge"><title>Node5&#45;&gt;Node6</title>
<path fill="none" stroke="midnightblue" d="M119,-112.083C119,-105.006 119,-94.8611 119,-85.9865"/>
<polygon fill="midnightblue" stroke="midnightblue" points="122.5,-85.751 119,-75.7511 115.5,-85.7511 122.5,-85.751"/>
</g>
<!-- Node7 -->
<g id="node7" class="node"><title>Node7</title>
<polygon fill="none" stroke="#bfbfbf" points="87.5,-0.5 87.5,-19.5 150.5,-19.5 150.5,-0.5 87.5,-0.5"/>
<text text-anchor="middle" x="119" y="-7.5" font-family="Helvetica,sans-Serif" font-size="10.00">typeindex</text>
</g>
<!-- Node6&#45;&gt;Node7 -->
<g id="edge6" class="edge"><title>Node6&#45;&gt;Node7</title>
<path fill="none" stroke="midnightblue" d="M119,-56.083C119,-49.0059 119,-38.8611 119,-29.9865"/>
<polygon fill="midnightblue" stroke="midnightblue" points="122.5,-29.751 119,-19.7511 115.5,-29.7511 122.5,-29.751"/>
</g>
</g>
</svg>
