<?xml version="1.0" encoding="UTF-8" standalone="no"?>
<!DOCTYPE svg PUBLIC "-//W3C//DTD SVG 1.1//EN"
 "http://www.w3.org/Graphics/SVG/1.1/DTD/svg11.dtd">
<!-- Generated by graphviz version 2.38.0 (20140413.2041)
 -->
<!-- Title: src/Components/ComponentManager/ComponentManager.hpp Pages: 1 -->
<svg width="332pt" height="207pt"
 viewBox="0.00 0.00 331.50 207.00" xmlns="http://www.w3.org/2000/svg" xmlns:xlink="http://www.w3.org/1999/xlink">
<g id="graph0" class="graph" transform="scale(1 1) rotate(0) translate(4 203)">
<title>src/Components/ComponentManager/ComponentManager.hpp</title>
<!-- Node1 -->
<g id="node1" class="node"><title>Node1</title>
<polygon fill="#bfbfbf" stroke="black" points="0,-168.5 0,-198.5 180,-198.5 180,-168.5 0,-168.5"/>
<text text-anchor="start" x="8" y="-186.5" font-family="Helvetica,sans-Serif" font-size="10.00">src/Components/Component</text>
<text text-anchor="middle" x="90" y="-175.5" font-family="Helvetica,sans-Serif" font-size="10.00">Manager/ComponentManager.hpp</text>
</g>
<!-- Node2 -->
<g id="node2" class="node"><title>Node2</title>
<polygon fill="none" stroke="#bfbfbf" points="5,-112.5 5,-131.5 43,-131.5 43,-112.5 5,-112.5"/>
<text text-anchor="middle" x="24" y="-119.5" font-family="Helvetica,sans-Serif" font-size="10.00">map</text>
</g>
<!-- Node1&#45;&gt;Node2 -->
<g id="edge1" class="edge"><title>Node1&#45;&gt;Node2</title>
<path fill="none" stroke="midnightblue" d="M74.3589,-168.399C64.3728,-159.397 51.422,-147.721 41.1546,-138.465"/>
<polygon fill="midnightblue" stroke="midnightblue" points="43.3745,-135.754 33.6036,-131.658 38.6874,-140.953 43.3745,-135.754"/>
</g>
<!-- Node3 -->
<g id="node3" class="node"><title>Node3</title>
<polygon fill="none" stroke="#bfbfbf" points="22.5,-56.5 22.5,-75.5 79.5,-75.5 79.5,-56.5 22.5,-56.5"/>
<text text-anchor="middle" x="51" y="-63.5" font-family="Helvetica,sans-Serif" font-size="10.00">memory</text>
</g>
<!-- Node1&#45;&gt;Node3 -->
<g id="edge2" class="edge"><title>Node1&#45;&gt;Node3</title>
<path fill="none" stroke="midnightblue" d="M85.2178,-168.337C78.159,-147.433 64.9487,-108.31 57.169,-85.2696"/>
<polygon fill="midnightblue" stroke="midnightblue" points="60.4426,-84.0242 53.9273,-75.6695 53.8105,-86.2636 60.4426,-84.0242"/>
</g>
<!-- Node4 -->
<g id="node4" class="node"><title>Node4</title>
<g id="a_node4"><a xlink:href="IComponent_8hpp.html" target="_top" xlink:title="IComponent.hpp">
<polygon fill="none" stroke="black" points="98,-56.5 98,-75.5 194,-75.5 194,-56.5 98,-56.5"/>
<text text-anchor="middle" x="146" y="-63.5" font-family="Helvetica,sans-Serif" font-size="10.00">IComponent.hpp</text>
</a>
</g>
</g>
<!-- Node1&#45;&gt;Node4 -->
<g id="edge3" class="edge"><title>Node1&#45;&gt;Node4</title>
<path fill="none" stroke="midnightblue" d="M96.8667,-168.337C107.048,-147.338 126.143,-107.955 137.293,-84.9579"/>
<polygon fill="midnightblue" stroke="midnightblue" points="140.583,-86.1946 141.797,-75.6695 134.284,-83.1406 140.583,-86.1946"/>
</g>
<!-- Node6 -->
<g id="node6" class="node"><title>Node6</title>
<g id="a_node6"><a xlink:href="IComponentManager_8hpp.html" target="_top" xlink:title="IComponentManager.hpp">
<polygon fill="none" stroke="black" points="137.5,-112.5 137.5,-131.5 274.5,-131.5 274.5,-112.5 137.5,-112.5"/>
<text text-anchor="middle" x="206" y="-119.5" font-family="Helvetica,sans-Serif" font-size="10.00">IComponentManager.hpp</text>
</a>
</g>
</g>
<!-- Node1&#45;&gt;Node6 -->
<g id="edge5" class="edge"><title>Node1&#45;&gt;Node6</title>
<path fill="none" stroke="midnightblue" d="M117.49,-168.399C136.432,-158.684 161.442,-145.855 180.044,-136.314"/>
<polygon fill="midnightblue" stroke="midnightblue" points="181.821,-139.336 189.121,-131.658 178.626,-133.108 181.821,-139.336"/>
</g>
<!-- Node5 -->
<g id="node5" class="node"><title>Node5</title>
<polygon fill="none" stroke="#bfbfbf" points="114.5,-0.5 114.5,-19.5 177.5,-19.5 177.5,-0.5 114.5,-0.5"/>
<text text-anchor="middle" x="146" y="-7.5" font-family="Helvetica,sans-Serif" font-size="10.00">typeindex</text>
</g>
<!-- Node4&#45;&gt;Node5 -->
<g id="edge4" class="edge"><title>Node4&#45;&gt;Node5</title>
<path fill="none" stroke="midnightblue" d="M146,-56.083C146,-49.0059 146,-38.8611 146,-29.9865"/>
<polygon fill="midnightblue" stroke="midnightblue" points="149.5,-29.751 146,-19.7511 142.5,-29.7511 149.5,-29.751"/>
</g>
<!-- Node6&#45;&gt;Node3 -->
<g id="edge7" class="edge"><title>Node6&#45;&gt;Node3</title>
<path fill="none" stroke="midnightblue" d="M181.44,-112.444C155.477,-103.399 114.332,-89.064 85.2029,-78.9158"/>
<polygon fill="midnightblue" stroke="midnightblue" points="86.0401,-75.5013 75.4453,-75.5164 83.7371,-82.1116 86.0401,-75.5013"/>
</g>
<!-- Node6&#45;&gt;Node4 -->
<g id="edge8" class="edge"><title>Node6&#45;&gt;Node4</title>
<path fill="none" stroke="midnightblue" d="M196.36,-112.324C187.49,-104.341 174.125,-92.3128 163.392,-82.6529"/>
<polygon fill="midnightblue" stroke="midnightblue" points="165.59,-79.922 155.815,-75.8339 160.907,-85.1251 165.59,-79.922"/>
</g>
<!-- Node7 -->
<g id="node7" class="node"><title>Node7</title>
<polygon fill="none" stroke="#bfbfbf" points="212,-56.5 212,-75.5 242,-75.5 242,-56.5 212,-56.5"/>
<text text-anchor="middle" x="227" y="-63.5" font-family="Helvetica,sans-Serif" font-size="10.00">list</text>
</g>
<!-- Node6&#45;&gt;Node7 -->
<g id="edge6" class="edge"><title>Node6&#45;&gt;Node7</title>
<path fill="none" stroke="midnightblue" d="M209.468,-112.083C212.312,-104.77 216.429,-94.1814 219.96,-85.1034"/>
<polygon fill="midnightblue" stroke="midnightblue" points="223.234,-86.3397 223.597,-75.7511 216.71,-83.8025 223.234,-86.3397"/>
</g>
<!-- Node8 -->
<g id="node8" class="node"><title>Node8</title>
<g id="a_node8"><a xlink:href="Entity_8hpp.html" target="_top" xlink:title="Entity.hpp">
<polygon fill="none" stroke="black" points="260.5,-56.5 260.5,-75.5 323.5,-75.5 323.5,-56.5 260.5,-56.5"/>
<text text-anchor="middle" x="292" y="-63.5" font-family="Helvetica,sans-Serif" font-size="10.00">Entity.hpp</text>
</a>
</g>
</g>
<!-- Node6&#45;&gt;Node8 -->
<g id="edge9" class="edge"><title>Node6&#45;&gt;Node8</title>
<path fill="none" stroke="midnightblue" d="M219.817,-112.324C233.233,-103.9 253.824,-90.9709 269.586,-81.0741"/>
<polygon fill="midnightblue" stroke="midnightblue" points="271.609,-83.9364 278.217,-75.6545 267.887,-78.0081 271.609,-83.9364"/>
</g>
</g>
</svg>
