<?xml version="1.0" encoding="UTF-8" standalone="no"?>
<!DOCTYPE svg PUBLIC "-//W3C//DTD SVG 1.1//EN"
 "http://www.w3.org/Graphics/SVG/1.1/DTD/svg11.dtd">
<!-- Generated by graphviz version 2.38.0 (20140413.2041)
 -->
<!-- Title: src/Exceptions/ComponentExceptions.hpp Pages: 1 -->
<svg width="222pt" height="207pt"
 viewBox="0.00 0.00 221.50 207.00" xmlns="http://www.w3.org/2000/svg" xmlns:xlink="http://www.w3.org/1999/xlink">
<g id="graph0" class="graph" transform="scale(1 1) rotate(0) translate(4 203)">
<title>src/Exceptions/ComponentExceptions.hpp</title>
<!-- Node1 -->
<g id="node1" class="node"><title>Node1</title>
<polygon fill="#bfbfbf" stroke="black" points="0,-168.5 0,-198.5 145,-198.5 145,-168.5 0,-168.5"/>
<text text-anchor="start" x="8" y="-186.5" font-family="Helvetica,sans-Serif" font-size="10.00">src/Exceptions/Component</text>
<text text-anchor="middle" x="72.5" y="-175.5" font-family="Helvetica,sans-Serif" font-size="10.00">Exceptions.hpp</text>
</g>
<!-- Node2 -->
<g id="node2" class="node"><title>Node2</title>
<polygon fill="none" stroke="#bfbfbf" points="47.5,-0.5 47.5,-19.5 91.5,-19.5 91.5,-0.5 47.5,-0.5"/>
<text text-anchor="middle" x="69.5" y="-7.5" font-family="Helvetica,sans-Serif" font-size="10.00">string</text>
</g>
<!-- Node1&#45;&gt;Node2 -->
<g id="edge1" class="edge"><title>Node1&#45;&gt;Node2</title>
<path fill="none" stroke="midnightblue" d="M64.5023,-168.438C59.3746,-158.585 53.192,-144.92 50.5,-132 42.9394,-95.7146 54.4828,-52.7461 62.6202,-29.017"/>
<polygon fill="midnightblue" stroke="midnightblue" points="65.9302,-30.1556 66.0386,-19.5613 59.3472,-27.7757 65.9302,-30.1556"/>
</g>
<!-- Node3 -->
<g id="node3" class="node"><title>Node3</title>
<g id="a_node3"><a xlink:href="ECSExceptions_8hpp.html" target="_top" xlink:title="ECSExceptions.hpp">
<polygon fill="none" stroke="black" points="60,-112.5 60,-131.5 169,-131.5 169,-112.5 60,-112.5"/>
<text text-anchor="middle" x="114.5" y="-119.5" font-family="Helvetica,sans-Serif" font-size="10.00">ECSExceptions.hpp</text>
</a>
</g>
</g>
<!-- Node1&#45;&gt;Node3 -->
<g id="edge2" class="edge"><title>Node1&#45;&gt;Node3</title>
<path fill="none" stroke="midnightblue" d="M82.4534,-168.399C88.4936,-159.842 96.2383,-148.871 102.601,-139.857"/>
<polygon fill="midnightblue" stroke="midnightblue" points="105.481,-141.846 108.389,-131.658 99.7624,-137.809 105.481,-141.846"/>
</g>
<!-- Node3&#45;&gt;Node2 -->
<g id="edge3" class="edge"><title>Node3&#45;&gt;Node2</title>
<path fill="none" stroke="midnightblue" d="M108.668,-112.361C102.914,-103.533 94.177,-89.2734 88.5,-76 81.9985,-60.7988 76.9065,-42.6845 73.6374,-29.4444"/>
<polygon fill="midnightblue" stroke="midnightblue" points="77.0277,-28.5719 71.3291,-19.6402 70.214,-30.1762 77.0277,-28.5719"/>
</g>
<!-- Node4 -->
<g id="node4" class="node"><title>Node4</title>
<g id="a_node4"><a xlink:href="RTypeExceptions_8hpp.html" target="_top" xlink:title="RTypeExceptions.hpp">
<polygon fill="none" stroke="black" points="97.5,-56.5 97.5,-75.5 213.5,-75.5 213.5,-56.5 97.5,-56.5"/>
<text text-anchor="middle" x="155.5" y="-63.5" font-family="Helvetica,sans-Serif" font-size="10.00">RTypeExceptions.hpp</text>
</a>
</g>
</g>
<!-- Node3&#45;&gt;Node4 -->
<g id="edge4" class="edge"><title>Node3&#45;&gt;Node4</title>
<path fill="none" stroke="midnightblue" d="M121.27,-112.083C127.062,-104.455 135.558,-93.2645 142.638,-83.9408"/>
<polygon fill="midnightblue" stroke="midnightblue" points="145.596,-85.8321 148.856,-75.7511 140.021,-81.5991 145.596,-85.8321"/>
</g>
<!-- Node4&#45;&gt;Node2 -->
<g id="edge5" class="edge"><title>Node4&#45;&gt;Node2</title>
<path fill="none" stroke="midnightblue" d="M141.683,-56.324C128.267,-47.9002 107.676,-34.9709 91.9144,-25.0741"/>
<polygon fill="midnightblue" stroke="midnightblue" points="93.6132,-22.0081 83.2831,-19.6545 89.8908,-27.9364 93.6132,-22.0081"/>
</g>
</g>
</svg>
