<?xml version="1.0" encoding="UTF-8" standalone="no"?>
<!DOCTYPE svg PUBLIC "-//W3C//DTD SVG 1.1//EN"
 "http://www.w3.org/Graphics/SVG/1.1/DTD/svg11.dtd">
<!-- Generated by graphviz version 2.38.0 (20140413.2041)
 -->
<!-- Title: src/Components/IO/Sound.hpp Pages: 1 -->
<svg width="176pt" height="252pt"
 viewBox="0.00 0.00 175.50 252.00" xmlns="http://www.w3.org/2000/svg" xmlns:xlink="http://www.w3.org/1999/xlink">
<g id="graph0" class="graph" transform="scale(1 1) rotate(0) translate(4 248)">
<title>src/Components/IO/Sound.hpp</title>
<!-- Node1 -->
<g id="node1" class="node"><title>Node1</title>
<polygon fill="#bfbfbf" stroke="black" points="0,-224.5 0,-243.5 163,-243.5 163,-224.5 0,-224.5"/>
<text text-anchor="middle" x="81.5" y="-231.5" font-family="Helvetica,sans-Serif" font-size="10.00">src/Components/IO/Sound.hpp</text>
</g>
<!-- Node2 -->
<g id="node2" class="node"><title>Node2</title>
<polygon fill="none" stroke="#bfbfbf" points="21.5,-168.5 21.5,-187.5 65.5,-187.5 65.5,-168.5 21.5,-168.5"/>
<text text-anchor="middle" x="43.5" y="-175.5" font-family="Helvetica,sans-Serif" font-size="10.00">string</text>
</g>
<!-- Node1&#45;&gt;Node2 -->
<g id="edge1" class="edge"><title>Node1&#45;&gt;Node2</title>
<path fill="none" stroke="midnightblue" d="M75.2251,-224.083C69.8575,-216.455 61.9824,-205.264 55.4213,-195.941"/>
<polygon fill="midnightblue" stroke="midnightblue" points="58.2755,-193.915 49.6582,-187.751 52.5508,-197.943 58.2755,-193.915"/>
</g>
<!-- Node3 -->
<g id="node3" class="node"><title>Node3</title>
<g id="a_node3"><a xlink:href="Output_8hpp.html" target="_top" xlink:title="Output.hpp">
<polygon fill="none" stroke="black" points="84,-168.5 84,-187.5 155,-187.5 155,-168.5 84,-168.5"/>
<text text-anchor="middle" x="119.5" y="-175.5" font-family="Helvetica,sans-Serif" font-size="10.00">Output.hpp</text>
</a>
</g>
</g>
<!-- Node1&#45;&gt;Node3 -->
<g id="edge2" class="edge"><title>Node1&#45;&gt;Node3</title>
<path fill="none" stroke="midnightblue" d="M87.7749,-224.083C93.1425,-216.455 101.018,-205.264 107.579,-195.941"/>
<polygon fill="midnightblue" stroke="midnightblue" points="110.449,-197.943 113.342,-187.751 104.725,-193.915 110.449,-197.943"/>
</g>
<!-- Node4 -->
<g id="node4" class="node"><title>Node4</title>
<g id="a_node4"><a xlink:href="IIO_8hpp.html" target="_top" xlink:title="IIO.hpp">
<polygon fill="none" stroke="black" points="95,-112.5 95,-131.5 144,-131.5 144,-112.5 95,-112.5"/>
<text text-anchor="middle" x="119.5" y="-119.5" font-family="Helvetica,sans-Serif" font-size="10.00">IIO.hpp</text>
</a>
</g>
</g>
<!-- Node3&#45;&gt;Node4 -->
<g id="edge3" class="edge"><title>Node3&#45;&gt;Node4</title>
<path fill="none" stroke="midnightblue" d="M119.5,-168.083C119.5,-161.006 119.5,-150.861 119.5,-141.986"/>
<polygon fill="midnightblue" stroke="midnightblue" points="123,-141.751 119.5,-131.751 116,-141.751 123,-141.751"/>
</g>
<!-- Node5 -->
<g id="node5" class="node"><title>Node5</title>
<g id="a_node5"><a xlink:href="IComponent_8hpp.html" target="_top" xlink:title="IComponent.hpp">
<polygon fill="none" stroke="black" points="71.5,-56.5 71.5,-75.5 167.5,-75.5 167.5,-56.5 71.5,-56.5"/>
<text text-anchor="middle" x="119.5" y="-63.5" font-family="Helvetica,sans-Serif" font-size="10.00">IComponent.hpp</text>
</a>
</g>
</g>
<!-- Node4&#45;&gt;Node5 -->
<g id="edge4" class="edge"><title>Node4&#45;&gt;Node5</title>
<path fill="none" stroke="midnightblue" d="M119.5,-112.083C119.5,-105.006 119.5,-94.8611 119.5,-85.9865"/>
<polygon fill="midnightblue" stroke="midnightblue" points="123,-85.751 119.5,-75.7511 116,-85.7511 123,-85.751"/>
</g>
<!-- Node6 -->
<g id="node6" class="node"><title>Node6</title>
<polygon fill="none" stroke="#bfbfbf" points="88,-0.5 88,-19.5 151,-19.5 151,-0.5 88,-0.5"/>
<text text-anchor="middle" x="119.5" y="-7.5" font-family="Helvetica,sans-Serif" font-size="10.00">typeindex</text>
</g>
<!-- Node5&#45;&gt;Node6 -->
<g id="edge5" class="edge"><title>Node5&#45;&gt;Node6</title>
<path fill="none" stroke="midnightblue" d="M119.5,-56.083C119.5,-49.0059 119.5,-38.8611 119.5,-29.9865"/>
<polygon fill="midnightblue" stroke="midnightblue" points="123,-29.751 119.5,-19.7511 116,-29.7511 123,-29.751"/>
</g>
</g>
</svg>
