<?xml version="1.0" encoding="UTF-8" standalone="no"?>
<!DOCTYPE svg PUBLIC "-//W3C//DTD SVG 1.1//EN"
 "http://www.w3.org/Graphics/SVG/1.1/DTD/svg11.dtd">
<!-- Generated by graphviz version 2.38.0 (20140413.2041)
 -->
<!-- Title: src/Components/GameLogic/Damage.hpp Pages: 1 -->
<svg width="1067pt" height="117pt"
 viewBox="0.00 0.00 1067.00 117.00" xmlns="http://www.w3.org/2000/svg" xmlns:xlink="http://www.w3.org/1999/xlink">
<g id="graph0" class="graph" transform="scale(1 1) rotate(0) translate(4 113)">
<title>src/Components/GameLogic/Damage.hpp</title>
<!-- Node1 -->
<g id="node1" class="node"><title>Node1</title>
<polygon fill="#bfbfbf" stroke="black" points="375,-78.5 375,-108.5 527,-108.5 527,-78.5 375,-78.5"/>
<text text-anchor="start" x="383" y="-96.5" font-family="Helvetica,sans-Serif" font-size="10.00">src/Components/GameLogic</text>
<text text-anchor="middle" x="451" y="-85.5" font-family="Helvetica,sans-Serif" font-size="10.00">/Damage.hpp</text>
</g>
<!-- Node2 -->
<g id="node2" class="node"><title>Node2</title>
<g id="a_node2"><a xlink:href="Damage_8cpp.html" target="_top" xlink:title="src/Components/GameLogic\l/Damage.cpp">
<polygon fill="none" stroke="black" points="0,-6 0,-36 152,-36 152,-6 0,-6"/>
<text text-anchor="start" x="8" y="-24" font-family="Helvetica,sans-Serif" font-size="10.00">src/Components/GameLogic</text>
<text text-anchor="middle" x="76" y="-13" font-family="Helvetica,sans-Serif" font-size="10.00">/Damage.cpp</text>
</a>
</g>
</g>
<!-- Node1&#45;&gt;Node2 -->
<g id="edge1" class="edge"><title>Node1&#45;&gt;Node2</title>
<path fill="none" stroke="midnightblue" d="M364.563,-78.8113C306.774,-69.3249 229.133,-55.9354 161,-42 152.089,-40.1773 142.685,-38.1104 133.51,-36.0138"/>
<polygon fill="midnightblue" stroke="midnightblue" points="364.317,-82.3175 374.751,-80.4771 365.447,-75.4093 364.317,-82.3175"/>
</g>
<!-- Node3 -->
<g id="node3" class="node"><title>Node3</title>
<g id="a_node3"><a xlink:href="BulletEntity_8cpp.html" target="_top" xlink:title="src/Entities/EntityConstructor\l/BulletEntity/BulletEntity.cpp">
<polygon fill="none" stroke="black" points="170.5,-6 170.5,-36 325.5,-36 325.5,-6 170.5,-6"/>
<text text-anchor="start" x="178.5" y="-24" font-family="Helvetica,sans-Serif" font-size="10.00">src/Entities/EntityConstructor</text>
<text text-anchor="middle" x="248" y="-13" font-family="Helvetica,sans-Serif" font-size="10.00">/BulletEntity/BulletEntity.cpp</text>
</a>
</g>
</g>
<!-- Node1&#45;&gt;Node3 -->
<g id="edge2" class="edge"><title>Node1&#45;&gt;Node3</title>
<path fill="none" stroke="midnightblue" d="M400.952,-75.1188C366.336,-63.0971 320.866,-47.3056 288.522,-36.0729"/>
<polygon fill="midnightblue" stroke="midnightblue" points="399.813,-78.4282 410.408,-78.4027 402.11,-71.8157 399.813,-78.4282"/>
</g>
<!-- Node4 -->
<g id="node4" class="node"><title>Node4</title>
<g id="a_node4"><a xlink:href="EnemyBulletEntity_8cpp.html" target="_top" xlink:title="src/Entities/EntityConstructor\l/EnemyBulletEntity/EnemyBulletEntity.cpp">
<polygon fill="none" stroke="black" points="343.5,-6 343.5,-36 558.5,-36 558.5,-6 343.5,-6"/>
<text text-anchor="start" x="351.5" y="-24" font-family="Helvetica,sans-Serif" font-size="10.00">src/Entities/EntityConstructor</text>
<text text-anchor="middle" x="451" y="-13" font-family="Helvetica,sans-Serif" font-size="10.00">/EnemyBulletEntity/EnemyBulletEntity.cpp</text>
</a>
</g>
</g>
<!-- Node1&#45;&gt;Node4 -->
<g id="edge3" class="edge"><title>Node1&#45;&gt;Node4</title>
<path fill="none" stroke="midnightblue" d="M451,-68.2317C451,-57.5679 451,-45.4145 451,-36.2455"/>
<polygon fill="midnightblue" stroke="midnightblue" points="447.5,-68.2332 451,-78.2333 454.5,-68.2333 447.5,-68.2332"/>
</g>
<!-- Node5 -->
<g id="node5" class="node"><title>Node5</title>
<g id="a_node5"><a xlink:href="EnemiesMovementSystem_8cpp.html" target="_top" xlink:title="src/Systems/SystemConstructor\l/EnemiesMovementSystem/EnemiesMovement\lSystem.cpp">
<polygon fill="none" stroke="black" points="577,-0.5 577,-41.5 821,-41.5 821,-0.5 577,-0.5"/>
<text text-anchor="start" x="585" y="-29.5" font-family="Helvetica,sans-Serif" font-size="10.00">src/Systems/SystemConstructor</text>
<text text-anchor="start" x="585" y="-18.5" font-family="Helvetica,sans-Serif" font-size="10.00">/EnemiesMovementSystem/EnemiesMovement</text>
<text text-anchor="middle" x="699" y="-7.5" font-family="Helvetica,sans-Serif" font-size="10.00">System.cpp</text>
</a>
</g>
</g>
<!-- Node1&#45;&gt;Node5 -->
<g id="edge4" class="edge"><title>Node1&#45;&gt;Node5</title>
<path fill="none" stroke="midnightblue" d="M510.172,-75.679C546.206,-65.4354 592.401,-52.3032 630.081,-41.5919"/>
<polygon fill="midnightblue" stroke="midnightblue" points="508.955,-72.3861 500.293,-78.4872 510.869,-79.1193 508.955,-72.3861"/>
</g>
<!-- Node6 -->
<g id="node6" class="node"><title>Node6</title>
<g id="a_node6"><a xlink:href="PlayerMovementSystem_8cpp.html" target="_top" xlink:title="src/Systems/SystemConstructor\l/PlayerMovementSystem/PlayerMovement\lSystem.cpp">
<polygon fill="none" stroke="black" points="839,-0.5 839,-41.5 1059,-41.5 1059,-0.5 839,-0.5"/>
<text text-anchor="start" x="847" y="-29.5" font-family="Helvetica,sans-Serif" font-size="10.00">src/Systems/SystemConstructor</text>
<text text-anchor="start" x="847" y="-18.5" font-family="Helvetica,sans-Serif" font-size="10.00">/PlayerMovementSystem/PlayerMovement</text>
<text text-anchor="middle" x="949" y="-7.5" font-family="Helvetica,sans-Serif" font-size="10.00">System.cpp</text>
</a>
</g>
</g>
<!-- Node1&#45;&gt;Node6 -->
<g id="edge5" class="edge"><title>Node1&#45;&gt;Node6</title>
<path fill="none" stroke="midnightblue" d="M537.45,-81.8318C614.345,-72.1401 729.803,-57.0908 830,-42 832.9,-41.5632 835.839,-41.1143 838.804,-40.6561"/>
<polygon fill="midnightblue" stroke="midnightblue" points="536.815,-78.3839 527.33,-83.1044 537.689,-85.3292 536.815,-78.3839"/>
</g>
</g>
</svg>
