<?xml version="1.0" encoding="UTF-8" standalone="no"?>
<!DOCTYPE svg PUBLIC "-//W3C//DTD SVG 1.1//EN"
 "http://www.w3.org/Graphics/SVG/1.1/DTD/svg11.dtd">
<!-- Generated by graphviz version 2.38.0 (20140413.2041)
 -->
<!-- Title: src/Systems/SystemConstructor/DefeatSystem/DefeatSystem.hpp Pages: 1 -->
<svg width="362pt" height="106pt"
 viewBox="0.00 0.00 362.00 106.00" xmlns="http://www.w3.org/2000/svg" xmlns:xlink="http://www.w3.org/1999/xlink">
<g id="graph0" class="graph" transform="scale(1 1) rotate(0) translate(4 102)">
<title>src/Systems/SystemConstructor/DefeatSystem/DefeatSystem.hpp</title>
<!-- Node1 -->
<g id="node1" class="node"><title>Node1</title>
<polygon fill="#bfbfbf" stroke="black" points="79.5,-67.5 79.5,-97.5 261.5,-97.5 261.5,-67.5 79.5,-67.5"/>
<text text-anchor="start" x="87.5" y="-85.5" font-family="Helvetica,sans-Serif" font-size="10.00">src/Systems/SystemConstructor</text>
<text text-anchor="middle" x="170.5" y="-74.5" font-family="Helvetica,sans-Serif" font-size="10.00">/DefeatSystem/DefeatSystem.hpp</text>
</g>
<!-- Node2 -->
<g id="node2" class="node"><title>Node2</title>
<g id="a_node2"><a xlink:href="DefeatScene_8cpp.html" target="_top" xlink:title="src/Scenes/DefeatScene.cpp">
<polygon fill="none" stroke="black" points="0,-6 0,-25 155,-25 155,-6 0,-6"/>
<text text-anchor="middle" x="77.5" y="-13" font-family="Helvetica,sans-Serif" font-size="10.00">src/Scenes/DefeatScene.cpp</text>
</a>
</g>
</g>
<!-- Node1&#45;&gt;Node2 -->
<g id="edge1" class="edge"><title>Node1&#45;&gt;Node2</title>
<path fill="none" stroke="midnightblue" d="M142.086,-61.6409C124.535,-49.3742 102.912,-34.2613 89.6716,-25.007"/>
<polygon fill="midnightblue" stroke="midnightblue" points="140.119,-64.536 150.32,-67.396 144.129,-58.7985 140.119,-64.536"/>
</g>
<!-- Node3 -->
<g id="node3" class="node"><title>Node3</title>
<g id="a_node3"><a xlink:href="DefeatSystem_8cpp.html" target="_top" xlink:title="src/Systems/SystemConstructor\l/DefeatSystem/DefeatSystem.cpp">
<polygon fill="none" stroke="black" points="173,-0.5 173,-30.5 354,-30.5 354,-0.5 173,-0.5"/>
<text text-anchor="start" x="181" y="-18.5" font-family="Helvetica,sans-Serif" font-size="10.00">src/Systems/SystemConstructor</text>
<text text-anchor="middle" x="263.5" y="-7.5" font-family="Helvetica,sans-Serif" font-size="10.00">/DefeatSystem/DefeatSystem.cpp</text>
</a>
</g>
</g>
<!-- Node1&#45;&gt;Node3 -->
<g id="edge2" class="edge"><title>Node1&#45;&gt;Node3</title>
<path fill="none" stroke="midnightblue" d="M199.185,-61.4511C213.492,-51.4517 230.45,-39.5995 243.36,-30.5765"/>
<polygon fill="midnightblue" stroke="midnightblue" points="196.871,-58.7985 190.68,-67.396 200.881,-64.536 196.871,-58.7985"/>
</g>
</g>
</svg>
