<?xml version="1.0" encoding="UTF-8" standalone="no"?>
<!DOCTYPE svg PUBLIC "-//W3C//DTD SVG 1.1//EN"
 "http://www.w3.org/Graphics/SVG/1.1/DTD/svg11.dtd">
<!-- Generated by graphviz version 2.38.0 (20140413.2041)
 -->
<!-- Title: src/Render Pages: 1 -->
<svg width="218pt" height="367pt"
 viewBox="0.00 0.00 218.09 367.00" xmlns="http://www.w3.org/2000/svg" xmlns:xlink="http://www.w3.org/1999/xlink">
<g id="graph0" class="graph" transform="scale(1 1) rotate(0) translate(4 363)">
<title>src/Render</title>
<g id="clust1" class="cluster"><title>clusterdir_68267d1309a1af8e8297ef4c3efbcdba</title>
<g id="a_clust1"><a xlink:href="dir_68267d1309a1af8e8297ef4c3efbcdba.html" target="_top" xlink:title="src">
<polygon fill="#ddddee" stroke="black" points="22.4156,-280 22.4156,-351 92.4156,-351 92.4156,-280 22.4156,-280"/>
<text text-anchor="middle" x="57.4156" y="-339" font-family="Helvetica,sans-Serif" font-size="10.00">src</text>
</a>
</g>
</g>
<!-- dir_4c7ee98193a6cba0af9aae7f963a60da -->
<g id="node1" class="node"><title>dir_4c7ee98193a6cba0af9aae7f963a60da</title>
<g id="a_node1"><a xlink:href="dir_4c7ee98193a6cba0af9aae7f963a60da.html" target="_top" xlink:title="Render">
<polygon fill="#eeeeff" stroke="black" points="84.4156,-324 30.4156,-324 30.4156,-288 84.4156,-288 84.4156,-324"/>
<text text-anchor="middle" x="57.4156" y="-303.5" font-family="Helvetica,sans-Serif" font-size="10.00">Render</text>
</a>
</g>
</g>
<!-- dir_c610c8504d46288da7634b3c0b18263f -->
<g id="node2" class="node"><title>dir_c610c8504d46288da7634b3c0b18263f</title>
<g id="a_node2"><a xlink:href="dir_c610c8504d46288da7634b3c0b18263f.html" target="_top" xlink:title="Components">
<polygon fill="none" stroke="red" points="197.416,-252 119.416,-252 119.416,-216 197.416,-216 197.416,-252"/>
<text text-anchor="middle" x="158.416" y="-231.5" font-family="Helvetica,sans-Serif" font-size="10.00">Components</text>
</a>
</g>
</g>
<!-- dir_4c7ee98193a6cba0af9aae7f963a60da&#45;&gt;dir_c610c8504d46288da7634b3c0b18263f -->
<g id="edge10" class="edge"><title>dir_4c7ee98193a6cba0af9aae7f963a60da&#45;&gt;dir_c610c8504d46288da7634b3c0b18263f</title>
<path fill="none" stroke="black" d="M82.123,-287.876C95.0842,-278.893 111.144,-267.763 125.181,-258.034"/>
<polygon fill="black" stroke="black" points="127.388,-260.763 133.613,-252.19 123.4,-255.009 127.388,-260.763"/>
<g id="a_edge10&#45;headlabel"><a xlink:href="dir_000045_000001.html" target="_top" xlink:title="5">
<text text-anchor="middle" x="126.051" y="-262.644" font-family="Helvetica,sans-Serif" font-size="10.00">5</text>
</a>
</g>
</g>
<!-- dir_093f3b7f7c7a61ef21fffb3d339f67e1 -->
<g id="node3" class="node"><title>dir_093f3b7f7c7a61ef21fffb3d339f67e1</title>
<g id="a_node3"><a xlink:href="dir_093f3b7f7c7a61ef21fffb3d339f67e1.html" target="_top" xlink:title="Entities">
<polygon fill="none" stroke="red" points="135.416,-180 81.4156,-180 81.4156,-144 135.416,-144 135.416,-180"/>
<text text-anchor="middle" x="108.416" y="-159.5" font-family="Helvetica,sans-Serif" font-size="10.00">Entities</text>
</a>
</g>
</g>
<!-- dir_4c7ee98193a6cba0af9aae7f963a60da&#45;&gt;dir_093f3b7f7c7a61ef21fffb3d339f67e1 -->
<g id="edge11" class="edge"><title>dir_4c7ee98193a6cba0af9aae7f963a60da&#45;&gt;dir_093f3b7f7c7a61ef21fffb3d339f67e1</title>
<path fill="none" stroke="black" d="M63.5674,-287.871C72.336,-263.457 88.5091,-218.426 98.8494,-189.635"/>
<polygon fill="black" stroke="black" points="102.156,-190.784 102.242,-180.189 95.5678,-188.418 102.156,-190.784"/>
<g id="a_edge11&#45;headlabel"><a xlink:href="dir_000045_000008.html" target="_top" xlink:title="2">
<text text-anchor="middle" x="103.613" y="-192.626" font-family="Helvetica,sans-Serif" font-size="10.00">2</text>
</a>
</g>
</g>
<!-- dir_0c0333544ec44c57ec7d33d873fe36a2 -->
<g id="node4" class="node"><title>dir_0c0333544ec44c57ec7d33d873fe36a2</title>
<g id="a_node4"><a xlink:href="dir_0c0333544ec44c57ec7d33d873fe36a2.html" target="_top" xlink:title="Network">
<polygon fill="none" stroke="red" points="81.4156,-108 25.4156,-108 25.4156,-72 81.4156,-72 81.4156,-108"/>
<text text-anchor="middle" x="53.4156" y="-87.5" font-family="Helvetica,sans-Serif" font-size="10.00">Network</text>
</a>
</g>
</g>
<!-- dir_4c7ee98193a6cba0af9aae7f963a60da&#45;&gt;dir_0c0333544ec44c57ec7d33d873fe36a2 -->
<g id="edge12" class="edge"><title>dir_4c7ee98193a6cba0af9aae7f963a60da&#45;&gt;dir_0c0333544ec44c57ec7d33d873fe36a2</title>
<path fill="none" stroke="black" d="M55.4452,-287.84C54.343,-277.477 53.0638,-263.997 52.4156,-252 49.8259,-204.068 50.5104,-191.994 51.4156,-144 51.5725,-135.678 51.868,-126.626 52.1846,-118.396"/>
<polygon fill="black" stroke="black" points="55.6907,-118.316 52.6031,-108.181 48.6966,-118.029 55.6907,-118.316"/>
<g id="a_edge12&#45;headlabel"><a xlink:href="dir_000045_000041.html" target="_top" xlink:title="1">
<text text-anchor="middle" x="58.3805" y="-119.524" font-family="Helvetica,sans-Serif" font-size="10.00">1</text>
</a>
</g>
</g>
<!-- dir_cc826e206496d9bb3cee340d21aea050 -->
<g id="node5" class="node"><title>dir_cc826e206496d9bb3cee340d21aea050</title>
<g id="a_node5"><a xlink:href="dir_cc826e206496d9bb3cee340d21aea050.html" target="_top" xlink:title="ResourceManager">
<polygon fill="none" stroke="black" points="209.416,-324 107.416,-324 107.416,-288 209.416,-288 209.416,-324"/>
<text text-anchor="middle" x="158.416" y="-303.5" font-family="Helvetica,sans-Serif" font-size="10.00">ResourceManager</text>
</a>
</g>
</g>
<!-- dir_4c7ee98193a6cba0af9aae7f963a60da&#45;&gt;dir_cc826e206496d9bb3cee340d21aea050 -->
<g id="edge13" class="edge"><title>dir_4c7ee98193a6cba0af9aae7f963a60da&#45;&gt;dir_cc826e206496d9bb3cee340d21aea050</title>
<path fill="none" stroke="black" d="M84.6382,-306C88.7885,-306 92.9388,-306 97.0891,-306"/>
<polygon fill="black" stroke="black" points="97.4055,-309.5 107.405,-306 97.4054,-302.5 97.4055,-309.5"/>
<g id="a_edge13&#45;headlabel"><a xlink:href="dir_000045_000006.html" target="_top" xlink:title="2">
<text text-anchor="middle" x="93.8109" y="-309.839" font-family="Helvetica,sans-Serif" font-size="10.00">2</text>
</a>
</g>
</g>
<!-- dir_6bd92bd93c0d5d9980919215b46f20a3 -->
<g id="node6" class="node"><title>dir_6bd92bd93c0d5d9980919215b46f20a3</title>
<g id="a_node6"><a xlink:href="dir_6bd92bd93c0d5d9980919215b46f20a3.html" target="_top" xlink:title="Exceptions">
<polygon fill="none" stroke="black" points="143.416,-36 75.4156,-36 75.4156,-0 143.416,-0 143.416,-36"/>
<text text-anchor="middle" x="109.416" y="-15.5" font-family="Helvetica,sans-Serif" font-size="10.00">Exceptions</text>
</a>
</g>
</g>
<!-- dir_4c7ee98193a6cba0af9aae7f963a60da&#45;&gt;dir_6bd92bd93c0d5d9980919215b46f20a3 -->
<g id="edge14" class="edge"><title>dir_4c7ee98193a6cba0af9aae7f963a60da&#45;&gt;dir_6bd92bd93c0d5d9980919215b46f20a3</title>
<path fill="none" stroke="black" d="M47.1481,-287.847C24.3571,-247.334 -25.2695,-143.735 16.4156,-72 27.1987,-53.4436 47.1796,-40.8434 65.865,-32.602"/>
<polygon fill="black" stroke="black" points="67.2461,-35.8186 75.1742,-28.7904 64.5936,-29.3406 67.2461,-35.8186"/>
<g id="a_edge14&#45;headlabel"><a xlink:href="dir_000045_000038.html" target="_top" xlink:title="1">
<text text-anchor="middle" x="64.9953" y="-37.3082" font-family="Helvetica,sans-Serif" font-size="10.00">1</text>
</a>
</g>
</g>
<!-- dir_c610c8504d46288da7634b3c0b18263f&#45;&gt;dir_093f3b7f7c7a61ef21fffb3d339f67e1 -->
<g id="edge1" class="edge"><title>dir_c610c8504d46288da7634b3c0b18263f&#45;&gt;dir_093f3b7f7c7a61ef21fffb3d339f67e1</title>
<path fill="none" stroke="black" d="M140.14,-215.697C133.488,-207.559 126.232,-197.689 120.24,-188.701"/>
<polygon fill="black" stroke="black" points="123.076,-186.64 114.738,-180.104 117.181,-190.414 123.076,-186.64"/>
<g id="a_edge1&#45;headlabel"><a xlink:href="dir_000001_000008.html" target="_top" xlink:title="1">
<text text-anchor="middle" x="127.406" y="-185.637" font-family="Helvetica,sans-Serif" font-size="10.00">1</text>
</a>
</g>
</g>
<!-- dir_c610c8504d46288da7634b3c0b18263f&#45;&gt;dir_6bd92bd93c0d5d9980919215b46f20a3 -->
<g id="edge2" class="edge"><title>dir_c610c8504d46288da7634b3c0b18263f&#45;&gt;dir_6bd92bd93c0d5d9980919215b46f20a3</title>
<path fill="none" stroke="black" d="M156.321,-215.828C153.983,-197.822 149.81,-168.758 144.416,-144 136.952,-109.745 125.635,-70.9627 117.904,-45.805"/>
<polygon fill="black" stroke="black" points="121.239,-44.7428 114.932,-36.2298 114.553,-46.8179 121.239,-44.7428"/>
<g id="a_edge2&#45;headlabel"><a xlink:href="dir_000001_000038.html" target="_top" xlink:title="1">
<text text-anchor="middle" x="125.016" y="-44.8342" font-family="Helvetica,sans-Serif" font-size="10.00">1</text>
</a>
</g>
</g>
<!-- dir_093f3b7f7c7a61ef21fffb3d339f67e1&#45;&gt;dir_c610c8504d46288da7634b3c0b18263f -->
<g id="edge3" class="edge"><title>dir_093f3b7f7c7a61ef21fffb3d339f67e1&#45;&gt;dir_c610c8504d46288da7634b3c0b18263f</title>
<path fill="none" stroke="black" d="M126.528,-180.104C133.17,-188.214 140.431,-198.076 146.444,-207.078"/>
<polygon fill="black" stroke="black" points="143.627,-209.169 151.972,-215.697 149.519,-205.39 143.627,-209.169"/>
<g id="a_edge3&#45;headlabel"><a xlink:href="dir_000008_000001.html" target="_top" xlink:title="155">
<text text-anchor="middle" x="139.296" y="-205.176" font-family="Helvetica,sans-Serif" font-size="10.00">155</text>
</a>
</g>
</g>
<!-- dir_093f3b7f7c7a61ef21fffb3d339f67e1&#45;&gt;dir_0c0333544ec44c57ec7d33d873fe36a2 -->
<g id="edge4" class="edge"><title>dir_093f3b7f7c7a61ef21fffb3d339f67e1&#45;&gt;dir_0c0333544ec44c57ec7d33d873fe36a2</title>
<path fill="none" stroke="black" d="M94.8201,-143.697C88.2929,-135.389 80.3476,-125.277 73.169,-116.141"/>
<polygon fill="black" stroke="black" points="75.7851,-113.805 66.8547,-108.104 70.2808,-118.13 75.7851,-113.805"/>
<g id="a_edge4&#45;headlabel"><a xlink:href="dir_000008_000041.html" target="_top" xlink:title="4">
<text text-anchor="middle" x="80.2384" y="-112.377" font-family="Helvetica,sans-Serif" font-size="10.00">4</text>
</a>
</g>
</g>
<!-- dir_093f3b7f7c7a61ef21fffb3d339f67e1&#45;&gt;dir_6bd92bd93c0d5d9980919215b46f20a3 -->
<g id="edge5" class="edge"><title>dir_093f3b7f7c7a61ef21fffb3d339f67e1&#45;&gt;dir_6bd92bd93c0d5d9980919215b46f20a3</title>
<path fill="none" stroke="black" d="M108.536,-143.871C108.707,-119.67 109.02,-75.2108 109.223,-46.3932"/>
<polygon fill="black" stroke="black" points="112.724,-46.2137 109.295,-36.1893 105.724,-46.1643 112.724,-46.2137"/>
<g id="a_edge5&#45;headlabel"><a xlink:href="dir_000008_000038.html" target="_top" xlink:title="3">
<text text-anchor="middle" x="115.538" y="-47.3282" font-family="Helvetica,sans-Serif" font-size="10.00">3</text>
</a>
</g>
</g>
<!-- dir_0c0333544ec44c57ec7d33d873fe36a2&#45;&gt;dir_4c7ee98193a6cba0af9aae7f963a60da -->
<g id="edge7" class="edge"><title>dir_0c0333544ec44c57ec7d33d873fe36a2&#45;&gt;dir_4c7ee98193a6cba0af9aae7f963a60da</title>
<path fill="none" stroke="black" d="M53.7377,-108.232C54.431,-145.324 56.0694,-232.981 56.9055,-277.712"/>
<polygon fill="black" stroke="black" points="53.4086,-277.916 57.095,-287.849 60.4074,-277.786 53.4086,-277.916"/>
<g id="a_edge7&#45;headlabel"><a xlink:href="dir_000041_000045.html" target="_top" xlink:title="1">
<text text-anchor="middle" x="50.5028" y="-271.875" font-family="Helvetica,sans-Serif" font-size="10.00">1</text>
</a>
</g>
</g>
<!-- dir_0c0333544ec44c57ec7d33d873fe36a2&#45;&gt;dir_6bd92bd93c0d5d9980919215b46f20a3 -->
<g id="edge6" class="edge"><title>dir_0c0333544ec44c57ec7d33d873fe36a2&#45;&gt;dir_6bd92bd93c0d5d9980919215b46f20a3</title>
<path fill="none" stroke="black" d="M67.2583,-71.6966C73.9041,-63.3893 81.9939,-53.2771 89.303,-44.1407"/>
<polygon fill="black" stroke="black" points="92.2182,-46.0995 95.7321,-36.1043 86.7521,-41.7266 92.2182,-46.0995"/>
<g id="a_edge6&#45;headlabel"><a xlink:href="dir_000041_000038.html" target="_top" xlink:title="1">
<text text-anchor="middle" x="92.1898" y="-48.1801" font-family="Helvetica,sans-Serif" font-size="10.00">1</text>
</a>
</g>
</g>
<!-- dir_cc826e206496d9bb3cee340d21aea050&#45;&gt;dir_c610c8504d46288da7634b3c0b18263f -->
<g id="edge8" class="edge"><title>dir_cc826e206496d9bb3cee340d21aea050&#45;&gt;dir_c610c8504d46288da7634b3c0b18263f</title>
<path fill="none" stroke="black" d="M158.416,-287.697C158.416,-279.983 158.416,-270.712 158.416,-262.112"/>
<polygon fill="black" stroke="black" points="161.916,-262.104 158.416,-252.104 154.916,-262.104 161.916,-262.104"/>
<g id="a_edge8&#45;headlabel"><a xlink:href="dir_000006_000001.html" target="_top" xlink:title="1">
<text text-anchor="middle" x="164.755" y="-263.199" font-family="Helvetica,sans-Serif" font-size="10.00">1</text>
</a>
</g>
</g>
<!-- dir_cc826e206496d9bb3cee340d21aea050&#45;&gt;dir_6bd92bd93c0d5d9980919215b46f20a3 -->
<g id="edge9" class="edge"><title>dir_cc826e206496d9bb3cee340d21aea050&#45;&gt;dir_6bd92bd93c0d5d9980919215b46f20a3</title>
<path fill="none" stroke="black" d="M180.126,-287.787C190.175,-278.414 201.057,-265.9 206.416,-252 212.171,-237.071 209.6,-231.68 206.416,-216 192.583,-147.885 178.658,-133.041 145.416,-72 140.362,-62.7198 134.101,-53.0285 128.226,-44.5093"/>
<polygon fill="black" stroke="black" points="130.933,-42.2757 122.308,-36.1221 125.213,-46.311 130.933,-42.2757"/>
<g id="a_edge9&#45;headlabel"><a xlink:href="dir_000006_000038.html" target="_top" xlink:title="5">
<text text-anchor="middle" x="135.325" y="-41.0762" font-family="Helvetica,sans-Serif" font-size="10.00">5</text>
</a>
</g>
</g>
</g>
</svg>
