<?xml version="1.0" encoding="UTF-8" standalone="no"?>
<!DOCTYPE svg PUBLIC "-//W3C//DTD SVG 1.1//EN"
 "http://www.w3.org/Graphics/SVG/1.1/DTD/svg11.dtd">
<!-- Generated by graphviz version 2.38.0 (20140413.2041)
 -->
<!-- Title: src/Components Pages: 1 -->
<svg width="630pt" height="339pt"
 viewBox="0.00 0.00 630.16 339.00" xmlns="http://www.w3.org/2000/svg" xmlns:xlink="http://www.w3.org/1999/xlink">
<g id="graph0" class="graph" transform="scale(1 1) rotate(0) translate(4 335)">
<title>src/Components</title>
<g id="clust1" class="cluster"><title>clusterdir_68267d1309a1af8e8297ef4c3efbcdba</title>
<g id="a_clust1"><a xlink:href="dir_68267d1309a1af8e8297ef4c3efbcdba.html" target="_top" xlink:title="src">
<polygon fill="#ddddee" stroke="black" points="8,-56 8,-215 468,-215 468,-56 8,-56"/>
<text text-anchor="middle" x="238" y="-203" font-family="Helvetica,sans-Serif" font-size="10.00">src</text>
</a>
</g>
</g>
<g id="clust2" class="cluster"><title>clusterdir_c610c8504d46288da7634b3c0b18263f</title>
<g id="a_clust2"><a xlink:href="dir_c610c8504d46288da7634b3c0b18263f.html" target="_top">
<polygon fill="#eeeeff" stroke="black" points="16,-64 16,-188 460,-188 460,-64 16,-64"/>
</a>
</g>
</g>
<!-- dir_c610c8504d46288da7634b3c0b18263f -->
<g id="node1" class="node"><title>dir_c610c8504d46288da7634b3c0b18263f</title>
<text text-anchor="middle" x="413" y="-159.5" font-family="Helvetica,sans-Serif" font-size="10.00">Components</text>
</g>
<!-- dir_7fd9eb6eaf8c73f5f8e9e7238378dadb -->
<g id="node2" class="node"><title>dir_7fd9eb6eaf8c73f5f8e9e7238378dadb</title>
<g id="a_node2"><a xlink:href="dir_7fd9eb6eaf8c73f5f8e9e7238378dadb.html" target="_top" xlink:title="ComponentManager">
<polygon fill="white" stroke="black" points="355.5,-180 240.5,-180 240.5,-144 355.5,-144 355.5,-180"/>
<text text-anchor="middle" x="298" y="-159.5" font-family="Helvetica,sans-Serif" font-size="10.00">ComponentManager</text>
</a>
</g>
</g>
<!-- dir_093f3b7f7c7a61ef21fffb3d339f67e1 -->
<g id="node8" class="node"><title>dir_093f3b7f7c7a61ef21fffb3d339f67e1</title>
<g id="a_node8"><a xlink:href="dir_093f3b7f7c7a61ef21fffb3d339f67e1.html" target="_top" xlink:title="Entities">
<polygon fill="none" stroke="red" points="600,-180 546,-180 546,-144 600,-144 600,-180"/>
<text text-anchor="middle" x="573" y="-159.5" font-family="Helvetica,sans-Serif" font-size="10.00">Entities</text>
</a>
</g>
</g>
<!-- dir_7fd9eb6eaf8c73f5f8e9e7238378dadb&#45;&gt;dir_093f3b7f7c7a61ef21fffb3d339f67e1 -->
<g id="edge20" class="edge"><title>dir_7fd9eb6eaf8c73f5f8e9e7238378dadb&#45;&gt;dir_093f3b7f7c7a61ef21fffb3d339f67e1</title>
<path fill="none" stroke="black" d="M313.296,-180.002C327.282,-194.677 349.477,-213.796 374,-219 390.195,-222.437 506.805,-222.437 523,-219 539.007,-215.603 551.259,-202.064 559.627,-189.035"/>
<polygon fill="black" stroke="black" points="562.754,-190.622 564.799,-180.226 556.718,-187.078 562.754,-190.622"/>
<g id="a_edge20&#45;headlabel"><a xlink:href="dir_000002_000008.html" target="_top" xlink:title="1">
<text text-anchor="middle" x="563.383" y="-192.659" font-family="Helvetica,sans-Serif" font-size="10.00">1</text>
</a>
</g>
</g>
<!-- dir_6bd92bd93c0d5d9980919215b46f20a3 -->
<g id="node11" class="node"><title>dir_6bd92bd93c0d5d9980919215b46f20a3</title>
<g id="a_node11"><a xlink:href="dir_6bd92bd93c0d5d9980919215b46f20a3.html" target="_top" xlink:title="Exceptions">
<polygon fill="none" stroke="black" points="548,-108 480,-108 480,-72 548,-72 548,-108"/>
<text text-anchor="middle" x="514" y="-87.5" font-family="Helvetica,sans-Serif" font-size="10.00">Exceptions</text>
</a>
</g>
</g>
<!-- dir_7fd9eb6eaf8c73f5f8e9e7238378dadb&#45;&gt;dir_6bd92bd93c0d5d9980919215b46f20a3 -->
<g id="edge21" class="edge"><title>dir_7fd9eb6eaf8c73f5f8e9e7238378dadb&#45;&gt;dir_6bd92bd93c0d5d9980919215b46f20a3</title>
<path fill="none" stroke="black" d="M352.285,-143.95C384.749,-133.683 426.792,-120.264 464,-108 466.087,-107.312 468.222,-106.604 470.377,-105.885"/>
<polygon fill="black" stroke="black" points="471.504,-109.199 479.87,-102.699 469.276,-102.563 471.504,-109.199"/>
<g id="a_edge21&#45;headlabel"><a xlink:href="dir_000002_000038.html" target="_top" xlink:title="1">
<text text-anchor="middle" x="468.999" y="-110.534" font-family="Helvetica,sans-Serif" font-size="10.00">1</text>
</a>
</g>
</g>
<!-- dir_def6d6f35ac5409afe1a3bac925a8368 -->
<g id="node3" class="node"><title>dir_def6d6f35ac5409afe1a3bac925a8368</title>
<g id="a_node3"><a xlink:href="dir_def6d6f35ac5409afe1a3bac925a8368.html" target="_top" xlink:title="Display">
<polygon fill="white" stroke="black" points="150,-180 96,-180 96,-144 150,-144 150,-180"/>
<text text-anchor="middle" x="123" y="-159.5" font-family="Helvetica,sans-Serif" font-size="10.00">Display</text>
</a>
</g>
</g>
<!-- dir_234b1c3f276c9241e041bdd88bdcd4ef -->
<g id="node4" class="node"><title>dir_234b1c3f276c9241e041bdd88bdcd4ef</title>
<g id="a_node4"><a xlink:href="dir_234b1c3f276c9241e041bdd88bdcd4ef.html" target="_top" xlink:title="GameLogic">
<polygon fill="white" stroke="black" points="393.5,-108 322.5,-108 322.5,-72 393.5,-72 393.5,-108"/>
<text text-anchor="middle" x="358" y="-87.5" font-family="Helvetica,sans-Serif" font-size="10.00">GameLogic</text>
</a>
</g>
</g>
<!-- dir_def6d6f35ac5409afe1a3bac925a8368&#45;&gt;dir_234b1c3f276c9241e041bdd88bdcd4ef -->
<g id="edge3" class="edge"><title>dir_def6d6f35ac5409afe1a3bac925a8368&#45;&gt;dir_234b1c3f276c9241e041bdd88bdcd4ef</title>
<path fill="none" stroke="black" d="M150.299,-147.484C153.206,-146.233 156.144,-145.045 159,-144 210.382,-125.201 271.445,-109.938 312.253,-100.702"/>
<polygon fill="black" stroke="black" points="313.177,-104.082 322.173,-98.4848 311.651,-97.2501 313.177,-104.082"/>
<g id="a_edge3&#45;headlabel"><a xlink:href="dir_000003_000004.html" target="_top" xlink:title="2">
<text text-anchor="middle" x="310.289" y="-105.136" font-family="Helvetica,sans-Serif" font-size="10.00">2</text>
</a>
</g>
</g>
<!-- dir_a7363e98f9e0bdd87618633653859815 -->
<g id="node7" class="node"><title>dir_a7363e98f9e0bdd87618633653859815</title>
<g id="a_node7"><a xlink:href="dir_a7363e98f9e0bdd87618633653859815.html" target="_top" xlink:title="Utils">
<polygon fill="none" stroke="black" points="385,-36 331,-36 331,-0 385,-0 385,-36"/>
<text text-anchor="middle" x="358" y="-15.5" font-family="Helvetica,sans-Serif" font-size="10.00">Utils</text>
</a>
</g>
</g>
<!-- dir_def6d6f35ac5409afe1a3bac925a8368&#45;&gt;dir_a7363e98f9e0bdd87618633653859815 -->
<g id="edge1" class="edge"><title>dir_def6d6f35ac5409afe1a3bac925a8368&#45;&gt;dir_a7363e98f9e0bdd87618633653859815</title>
<path fill="none" stroke="black" d="M150.417,-144.433C192.958,-118.728 274.868,-69.2327 322.081,-40.7042"/>
<polygon fill="black" stroke="black" points="324.009,-43.6289 330.757,-35.4616 320.388,-37.6378 324.009,-43.6289"/>
<g id="a_edge1&#45;headlabel"><a xlink:href="dir_000003_000065.html" target="_top" xlink:title="4">
<text text-anchor="middle" x="322.4" y="-45.418" font-family="Helvetica,sans-Serif" font-size="10.00">4</text>
</a>
</g>
</g>
<!-- dir_900c20bb70493231141df6997ccd6b87 -->
<g id="node9" class="node"><title>dir_900c20bb70493231141df6997ccd6b87</title>
<g id="a_node9"><a xlink:href="dir_900c20bb70493231141df6997ccd6b87.html" target="_top" xlink:title="Systems">
<polygon fill="none" stroke="red" points="228.5,-331 169.5,-331 169.5,-295 228.5,-295 228.5,-331"/>
<text text-anchor="middle" x="199" y="-310.5" font-family="Helvetica,sans-Serif" font-size="10.00">Systems</text>
</a>
</g>
</g>
<!-- dir_def6d6f35ac5409afe1a3bac925a8368&#45;&gt;dir_900c20bb70493231141df6997ccd6b87 -->
<g id="edge2" class="edge"><title>dir_def6d6f35ac5409afe1a3bac925a8368&#45;&gt;dir_900c20bb70493231141df6997ccd6b87</title>
<path fill="none" stroke="black" d="M131.851,-180.352C145.088,-206.304 170.139,-255.417 185.619,-285.767"/>
<polygon fill="black" stroke="black" points="182.62,-287.59 190.282,-294.908 188.856,-284.409 182.62,-287.59"/>
<g id="a_edge2&#45;headlabel"><a xlink:href="dir_000003_000048.html" target="_top" xlink:title="1">
<text text-anchor="middle" x="178.458" y="-283.178" font-family="Helvetica,sans-Serif" font-size="10.00">1</text>
</a>
</g>
</g>
<!-- dir_4c7ee98193a6cba0af9aae7f963a60da -->
<g id="node10" class="node"><title>dir_4c7ee98193a6cba0af9aae7f963a60da</title>
<g id="a_node10"><a xlink:href="dir_4c7ee98193a6cba0af9aae7f963a60da.html" target="_top" xlink:title="Render">
<polygon fill="none" stroke="black" points="325,-259 271,-259 271,-223 325,-223 325,-259"/>
<text text-anchor="middle" x="298" y="-238.5" font-family="Helvetica,sans-Serif" font-size="10.00">Render</text>
</a>
</g>
</g>
<!-- dir_def6d6f35ac5409afe1a3bac925a8368&#45;&gt;dir_4c7ee98193a6cba0af9aae7f963a60da -->
<g id="edge4" class="edge"><title>dir_def6d6f35ac5409afe1a3bac925a8368&#45;&gt;dir_4c7ee98193a6cba0af9aae7f963a60da</title>
<path fill="none" stroke="black" d="M122.985,-180.232C127.517,-191.912 137.071,-206.684 150,-215 167.483,-226.245 222.785,-233.562 260.753,-237.22"/>
<polygon fill="black" stroke="black" points="260.679,-240.728 270.957,-238.155 261.318,-233.757 260.679,-240.728"/>
<g id="a_edge4&#45;headlabel"><a xlink:href="dir_000003_000045.html" target="_top" xlink:title="2">
<text text-anchor="middle" x="256.84" y="-240.727" font-family="Helvetica,sans-Serif" font-size="10.00">2</text>
</a>
</g>
</g>
<!-- dir_234b1c3f276c9241e041bdd88bdcd4ef&#45;&gt;dir_a7363e98f9e0bdd87618633653859815 -->
<g id="edge22" class="edge"><title>dir_234b1c3f276c9241e041bdd88bdcd4ef&#45;&gt;dir_a7363e98f9e0bdd87618633653859815</title>
<path fill="none" stroke="black" d="M358,-71.6966C358,-63.9827 358,-54.7125 358,-46.1124"/>
<polygon fill="black" stroke="black" points="361.5,-46.1043 358,-36.1043 354.5,-46.1044 361.5,-46.1043"/>
<g id="a_edge22&#45;headlabel"><a xlink:href="dir_000004_000065.html" target="_top" xlink:title="1">
<text text-anchor="middle" x="364.339" y="-47.199" font-family="Helvetica,sans-Serif" font-size="10.00">1</text>
</a>
</g>
</g>
<!-- dir_234b1c3f276c9241e041bdd88bdcd4ef&#45;&gt;dir_4c7ee98193a6cba0af9aae7f963a60da -->
<g id="edge23" class="edge"><title>dir_234b1c3f276c9241e041bdd88bdcd4ef&#45;&gt;dir_4c7ee98193a6cba0af9aae7f963a60da</title>
<path fill="none" stroke="black" d="M393.501,-99.059C417.117,-106.465 446.39,-120.051 461,-144 477.434,-170.938 481.552,-191.055 461,-215 452.913,-224.422 380.929,-232.555 335.365,-236.819"/>
<polygon fill="black" stroke="black" points="334.881,-233.349 325.241,-237.744 335.518,-240.32 334.881,-233.349"/>
<g id="a_edge23&#45;headlabel"><a xlink:href="dir_000004_000045.html" target="_top" xlink:title="1">
<text text-anchor="middle" x="338.203" y="-227.694" font-family="Helvetica,sans-Serif" font-size="10.00">1</text>
</a>
</g>
</g>
<!-- dir_5d915c3b63a7d810721fbec04b492a78 -->
<g id="node5" class="node"><title>dir_5d915c3b63a7d810721fbec04b492a78</title>
<g id="a_node5"><a xlink:href="dir_5d915c3b63a7d810721fbec04b492a78.html" target="_top" xlink:title="IO">
<polygon fill="white" stroke="black" points="78,-180 24,-180 24,-144 78,-144 78,-180"/>
<text text-anchor="middle" x="51" y="-159.5" font-family="Helvetica,sans-Serif" font-size="10.00">IO</text>
</a>
</g>
</g>
<!-- dir_57ab9a0190d7244f4b8175e5d2762dbd -->
<g id="node6" class="node"><title>dir_57ab9a0190d7244f4b8175e5d2762dbd</title>
<g id="a_node6"><a xlink:href="dir_57ab9a0190d7244f4b8175e5d2762dbd.html" target="_top" xlink:title="Physics">
<polygon fill="white" stroke="black" points="222,-180 168,-180 168,-144 222,-144 222,-180"/>
<text text-anchor="middle" x="195" y="-159.5" font-family="Helvetica,sans-Serif" font-size="10.00">Physics</text>
</a>
</g>
</g>
<!-- dir_093f3b7f7c7a61ef21fffb3d339f67e1&#45;&gt;dir_7fd9eb6eaf8c73f5f8e9e7238378dadb -->
<g id="edge8" class="edge"><title>dir_093f3b7f7c7a61ef21fffb3d339f67e1&#45;&gt;dir_7fd9eb6eaf8c73f5f8e9e7238378dadb</title>
<path fill="none" stroke="black" d="M564.799,-180.226C556.713,-195.276 542.702,-214.819 523,-219 506.805,-222.437 390.195,-222.437 374,-219 353.308,-214.609 334.275,-200.312 320.431,-187.136"/>
<polygon fill="black" stroke="black" points="322.842,-184.598 313.296,-180.002 317.892,-189.548 322.842,-184.598"/>
<g id="a_edge8&#45;headlabel"><a xlink:href="dir_000008_000002.html" target="_top" xlink:title="3">
<text text-anchor="middle" x="327.391" y="-182.632" font-family="Helvetica,sans-Serif" font-size="10.00">3</text>
</a>
</g>
</g>
<!-- dir_093f3b7f7c7a61ef21fffb3d339f67e1&#45;&gt;dir_def6d6f35ac5409afe1a3bac925a8368 -->
<g id="edge6" class="edge"><title>dir_093f3b7f7c7a61ef21fffb3d339f67e1&#45;&gt;dir_def6d6f35ac5409afe1a3bac925a8368</title>
<path fill="none" stroke="black" d="M564.799,-180.226C556.713,-195.276 542.702,-214.819 523,-219 503.707,-223.094 187.293,-223.094 168,-219 152.716,-215.757 141.685,-202.297 134.37,-189.272"/>
<polygon fill="black" stroke="black" points="137.327,-187.363 129.693,-180.016 131.079,-190.52 137.327,-187.363"/>
<g id="a_edge6&#45;headlabel"><a xlink:href="dir_000008_000003.html" target="_top" xlink:title="50">
<text text-anchor="middle" x="141.482" y="-186.791" font-family="Helvetica,sans-Serif" font-size="10.00">50</text>
</a>
</g>
</g>
<!-- dir_093f3b7f7c7a61ef21fffb3d339f67e1&#45;&gt;dir_234b1c3f276c9241e041bdd88bdcd4ef -->
<g id="edge9" class="edge"><title>dir_093f3b7f7c7a61ef21fffb3d339f67e1&#45;&gt;dir_234b1c3f276c9241e041bdd88bdcd4ef</title>
<path fill="none" stroke="black" d="M545.77,-152.134C509.918,-140.462 446.393,-119.779 403.26,-105.736"/>
<polygon fill="black" stroke="black" points="404.167,-102.35 393.574,-102.582 402,-109.006 404.167,-102.35"/>
<g id="a_edge9&#45;headlabel"><a xlink:href="dir_000008_000004.html" target="_top" xlink:title="20">
<text text-anchor="middle" x="408.464" y="-98.2633" font-family="Helvetica,sans-Serif" font-size="10.00">20</text>
</a>
</g>
</g>
<!-- dir_093f3b7f7c7a61ef21fffb3d339f67e1&#45;&gt;dir_5d915c3b63a7d810721fbec04b492a78 -->
<g id="edge7" class="edge"><title>dir_093f3b7f7c7a61ef21fffb3d339f67e1&#45;&gt;dir_5d915c3b63a7d810721fbec04b492a78</title>
<path fill="none" stroke="black" d="M564.799,-180.226C556.713,-195.276 542.702,-214.819 523,-219 499.795,-223.925 119.205,-223.925 96,-219 80.7162,-215.757 69.6847,-202.297 62.3701,-189.272"/>
<polygon fill="black" stroke="black" points="65.3271,-187.363 57.6931,-180.016 59.0795,-190.52 65.3271,-187.363"/>
<g id="a_edge7&#45;headlabel"><a xlink:href="dir_000008_000005.html" target="_top" xlink:title="2">
<text text-anchor="middle" x="69.4823" y="-186.791" font-family="Helvetica,sans-Serif" font-size="10.00">2</text>
</a>
</g>
</g>
<!-- dir_093f3b7f7c7a61ef21fffb3d339f67e1&#45;&gt;dir_57ab9a0190d7244f4b8175e5d2762dbd -->
<g id="edge10" class="edge"><title>dir_093f3b7f7c7a61ef21fffb3d339f67e1&#45;&gt;dir_57ab9a0190d7244f4b8175e5d2762dbd</title>
<path fill="none" stroke="black" d="M564.799,-180.226C556.713,-195.276 542.702,-214.819 523,-219 507.62,-222.264 255.38,-222.264 240,-219 224.716,-215.757 213.685,-202.297 206.37,-189.272"/>
<polygon fill="black" stroke="black" points="209.327,-187.363 201.693,-180.016 203.079,-190.52 209.327,-187.363"/>
<g id="a_edge10&#45;headlabel"><a xlink:href="dir_000008_000007.html" target="_top" xlink:title="80">
<text text-anchor="middle" x="213.482" y="-186.791" font-family="Helvetica,sans-Serif" font-size="10.00">80</text>
</a>
</g>
</g>
<!-- dir_093f3b7f7c7a61ef21fffb3d339f67e1&#45;&gt;dir_a7363e98f9e0bdd87618633653859815 -->
<g id="edge5" class="edge"><title>dir_093f3b7f7c7a61ef21fffb3d339f67e1&#45;&gt;dir_a7363e98f9e0bdd87618633653859815</title>
<path fill="none" stroke="black" d="M575.854,-143.874C578.658,-120.669 579.699,-79.4519 557,-56 535.107,-33.3813 446.394,-24.2999 395.108,-20.8859"/>
<polygon fill="black" stroke="black" points="395.275,-17.3896 385.076,-20.2585 394.838,-24.3759 395.275,-17.3896"/>
<g id="a_edge5&#45;headlabel"><a xlink:href="dir_000008_000065.html" target="_top" xlink:title="9">
<text text-anchor="middle" x="399.039" y="-12.2801" font-family="Helvetica,sans-Serif" font-size="10.00">9</text>
</a>
</g>
</g>
<!-- dir_093f3b7f7c7a61ef21fffb3d339f67e1&#45;&gt;dir_6bd92bd93c0d5d9980919215b46f20a3 -->
<g id="edge11" class="edge"><title>dir_093f3b7f7c7a61ef21fffb3d339f67e1&#45;&gt;dir_6bd92bd93c0d5d9980919215b46f20a3</title>
<path fill="none" stroke="black" d="M558.416,-143.697C551.342,-135.305 542.717,-125.07 534.955,-115.861"/>
<polygon fill="black" stroke="black" points="537.537,-113.495 528.417,-108.104 532.185,-118.006 537.537,-113.495"/>
<g id="a_edge11&#45;headlabel"><a xlink:href="dir_000008_000038.html" target="_top" xlink:title="3">
<text text-anchor="middle" x="542.025" y="-111.914" font-family="Helvetica,sans-Serif" font-size="10.00">3</text>
</a>
</g>
</g>
<!-- dir_900c20bb70493231141df6997ccd6b87&#45;&gt;dir_7fd9eb6eaf8c73f5f8e9e7238378dadb -->
<g id="edge15" class="edge"><title>dir_900c20bb70493231141df6997ccd6b87&#45;&gt;dir_7fd9eb6eaf8c73f5f8e9e7238378dadb</title>
<path fill="none" stroke="black" d="M210.357,-294.908C227.645,-268.888 260.685,-219.161 280.89,-188.751"/>
<polygon fill="black" stroke="black" points="283.852,-190.618 286.471,-180.352 278.022,-186.744 283.852,-190.618"/>
<g id="a_edge15&#45;headlabel"><a xlink:href="dir_000048_000002.html" target="_top" xlink:title="7">
<text text-anchor="middle" x="284.228" y="-192.683" font-family="Helvetica,sans-Serif" font-size="10.00">7</text>
</a>
</g>
</g>
<!-- dir_900c20bb70493231141df6997ccd6b87&#45;&gt;dir_def6d6f35ac5409afe1a3bac925a8368 -->
<g id="edge12" class="edge"><title>dir_900c20bb70493231141df6997ccd6b87&#45;&gt;dir_def6d6f35ac5409afe1a3bac925a8368</title>
<path fill="none" stroke="black" d="M179.868,-294.975C170.009,-285.29 158.513,-272.436 151,-259 138.934,-237.421 131.627,-210.144 127.519,-190.185"/>
<polygon fill="black" stroke="black" points="130.927,-189.369 125.605,-180.208 124.052,-190.689 130.927,-189.369"/>
<g id="a_edge12&#45;headlabel"><a xlink:href="dir_000048_000003.html" target="_top" xlink:title="10">
<text text-anchor="middle" x="134.392" y="-189.865" font-family="Helvetica,sans-Serif" font-size="10.00">10</text>
</a>
</g>
</g>
<!-- dir_900c20bb70493231141df6997ccd6b87&#45;&gt;dir_234b1c3f276c9241e041bdd88bdcd4ef -->
<g id="edge16" class="edge"><title>dir_900c20bb70493231141df6997ccd6b87&#45;&gt;dir_234b1c3f276c9241e041bdd88bdcd4ef</title>
<path fill="none" stroke="black" d="M169.281,-306.482C126.109,-296.668 47.647,-271.625 15,-215 -0.761419,-187.663 -5.53893,-167.956 15,-144 52.79,-99.9223 228.056,-92.1723 312.405,-91.0343"/>
<polygon fill="black" stroke="black" points="312.507,-94.5335 322.468,-90.9243 312.43,-87.5339 312.507,-94.5335"/>
<g id="a_edge16&#45;headlabel"><a xlink:href="dir_000048_000004.html" target="_top" xlink:title="10">
<text text-anchor="middle" x="308.943" y="-94.9118" font-family="Helvetica,sans-Serif" font-size="10.00">10</text>
</a>
</g>
</g>
<!-- dir_900c20bb70493231141df6997ccd6b87&#45;&gt;dir_5d915c3b63a7d810721fbec04b492a78 -->
<g id="edge14" class="edge"><title>dir_900c20bb70493231141df6997ccd6b87&#45;&gt;dir_5d915c3b63a7d810721fbec04b492a78</title>
<path fill="none" stroke="black" d="M175.285,-294.854C151.254,-276.744 113.888,-246.499 87,-215 80.0161,-206.818 73.1053,-197.283 67.2344,-188.629"/>
<polygon fill="black" stroke="black" points="69.9737,-186.426 61.5333,-180.022 64.138,-190.292 69.9737,-186.426"/>
<g id="a_edge14&#45;headlabel"><a xlink:href="dir_000048_000005.html" target="_top" xlink:title="1">
<text text-anchor="middle" x="74.3259" y="-185.355" font-family="Helvetica,sans-Serif" font-size="10.00">1</text>
</a>
</g>
</g>
<!-- dir_900c20bb70493231141df6997ccd6b87&#45;&gt;dir_57ab9a0190d7244f4b8175e5d2762dbd -->
<g id="edge17" class="edge"><title>dir_900c20bb70493231141df6997ccd6b87&#45;&gt;dir_57ab9a0190d7244f4b8175e5d2762dbd</title>
<path fill="none" stroke="black" d="M198.541,-294.908C197.858,-269.446 196.565,-221.284 195.745,-190.735"/>
<polygon fill="black" stroke="black" points="199.233,-190.254 195.466,-180.352 192.236,-190.442 199.233,-190.254"/>
<g id="a_edge17&#45;headlabel"><a xlink:href="dir_000048_000007.html" target="_top" xlink:title="28">
<text text-anchor="middle" x="202.168" y="-191.271" font-family="Helvetica,sans-Serif" font-size="10.00">28</text>
</a>
</g>
</g>
<!-- dir_900c20bb70493231141df6997ccd6b87&#45;&gt;dir_093f3b7f7c7a61ef21fffb3d339f67e1 -->
<g id="edge13" class="edge"><title>dir_900c20bb70493231141df6997ccd6b87&#45;&gt;dir_093f3b7f7c7a61ef21fffb3d339f67e1</title>
<path fill="none" stroke="black" d="M228.615,-306.971C286.088,-296.34 415.564,-268.087 512,-215 525.538,-207.548 538.809,-196.776 549.497,-186.967"/>
<polygon fill="black" stroke="black" points="551.939,-189.475 556.79,-180.056 547.124,-184.394 551.939,-189.475"/>
<g id="a_edge13&#45;headlabel"><a xlink:href="dir_000048_000008.html" target="_top" xlink:title="10">
<text text-anchor="middle" x="551.282" y="-191.509" font-family="Helvetica,sans-Serif" font-size="10.00">10</text>
</a>
</g>
</g>
<!-- dir_900c20bb70493231141df6997ccd6b87&#45;&gt;dir_4c7ee98193a6cba0af9aae7f963a60da -->
<g id="edge18" class="edge"><title>dir_900c20bb70493231141df6997ccd6b87&#45;&gt;dir_4c7ee98193a6cba0af9aae7f963a60da</title>
<path fill="none" stroke="black" d="M223.218,-294.876C235.923,-285.893 251.664,-274.763 265.423,-265.034"/>
<polygon fill="black" stroke="black" points="267.544,-267.821 273.689,-259.19 263.503,-262.105 267.544,-267.821"/>
<g id="a_edge18&#45;headlabel"><a xlink:href="dir_000048_000045.html" target="_top" xlink:title="2">
<text text-anchor="middle" x="266.248" y="-269.714" font-family="Helvetica,sans-Serif" font-size="10.00">2</text>
</a>
</g>
</g>
<!-- dir_900c20bb70493231141df6997ccd6b87&#45;&gt;dir_6bd92bd93c0d5d9980919215b46f20a3 -->
<g id="edge19" class="edge"><title>dir_900c20bb70493231141df6997ccd6b87&#45;&gt;dir_6bd92bd93c0d5d9980919215b46f20a3</title>
<path fill="none" stroke="black" d="M228.626,-309.804C315.01,-302.706 563.395,-277.137 609,-215 627.671,-189.561 624.978,-171.211 609,-144 597.741,-124.826 576.745,-112.078 557.349,-103.901"/>
<polygon fill="black" stroke="black" points="558.593,-100.63 548.006,-100.246 556.043,-107.149 558.593,-100.63"/>
<g id="a_edge19&#45;headlabel"><a xlink:href="dir_000048_000038.html" target="_top" xlink:title="13">
<text text-anchor="middle" x="562.975" y="-96.7953" font-family="Helvetica,sans-Serif" font-size="10.00">13</text>
</a>
</g>
</g>
<!-- dir_4c7ee98193a6cba0af9aae7f963a60da&#45;&gt;dir_c610c8504d46288da7634b3c0b18263f -->
<g id="edge25" class="edge"><title>dir_4c7ee98193a6cba0af9aae7f963a60da&#45;&gt;dir_c610c8504d46288da7634b3c0b18263f</title>
<path fill="none" stroke="black" d="M325.021,-232.827C337.519,-228.764 352.178,-222.891 364,-215 374.962,-207.683 385.265,-197.482 393.568,-188.052"/>
<polygon fill="black" stroke="black" points="396.26,-190.288 400.043,-180.392 390.914,-185.77 396.26,-190.288"/>
<g id="a_edge25&#45;headlabel"><a xlink:href="dir_000045_000001.html" target="_top" xlink:title="5">
<text text-anchor="middle" x="396.108" y="-192.367" font-family="Helvetica,sans-Serif" font-size="10.00">5</text>
</a>
</g>
</g>
<!-- dir_4c7ee98193a6cba0af9aae7f963a60da&#45;&gt;dir_7fd9eb6eaf8c73f5f8e9e7238378dadb -->
<g id="edge27" class="edge"><title>dir_4c7ee98193a6cba0af9aae7f963a60da&#45;&gt;dir_7fd9eb6eaf8c73f5f8e9e7238378dadb</title>
<path fill="none" stroke="black" d="M298,-222.911C298,-213.341 298,-201.183 298,-190.323"/>
<polygon fill="black" stroke="black" points="301.5,-190.041 298,-180.041 294.5,-190.041 301.5,-190.041"/>
<g id="a_edge27&#45;headlabel"><a xlink:href="dir_000045_000002.html" target="_top" xlink:title="1">
<text text-anchor="middle" x="304.339" y="-191.136" font-family="Helvetica,sans-Serif" font-size="10.00">1</text>
</a>
</g>
</g>
<!-- dir_4c7ee98193a6cba0af9aae7f963a60da&#45;&gt;dir_def6d6f35ac5409afe1a3bac925a8368 -->
<g id="edge24" class="edge"><title>dir_4c7ee98193a6cba0af9aae7f963a60da&#45;&gt;dir_def6d6f35ac5409afe1a3bac925a8368</title>
<path fill="none" stroke="black" d="M270.835,-236.917C237.838,-233.165 185.013,-225.943 168,-215 158.102,-208.633 150.181,-198.482 143.657,-188.831"/>
<polygon fill="black" stroke="black" points="146.439,-186.691 138.041,-180.232 140.578,-190.518 146.439,-186.691"/>
<g id="a_edge24&#45;headlabel"><a xlink:href="dir_000045_000003.html" target="_top" xlink:title="2">
<text text-anchor="middle" x="150.782" y="-185.648" font-family="Helvetica,sans-Serif" font-size="10.00">2</text>
</a>
</g>
</g>
<!-- dir_4c7ee98193a6cba0af9aae7f963a60da&#45;&gt;dir_57ab9a0190d7244f4b8175e5d2762dbd -->
<g id="edge28" class="edge"><title>dir_4c7ee98193a6cba0af9aae7f963a60da&#45;&gt;dir_57ab9a0190d7244f4b8175e5d2762dbd</title>
<path fill="none" stroke="black" d="M270.991,-233.978C257.958,-230.112 242.661,-224.072 231,-215 221.937,-207.949 214.271,-197.981 208.373,-188.656"/>
<polygon fill="black" stroke="black" points="211.375,-186.855 203.272,-180.029 205.349,-190.418 211.375,-186.855"/>
<g id="a_edge28&#45;headlabel"><a xlink:href="dir_000045_000007.html" target="_top" xlink:title="1">
<text text-anchor="middle" x="215.648" y="-186.004" font-family="Helvetica,sans-Serif" font-size="10.00">1</text>
</a>
</g>
</g>
<!-- dir_4c7ee98193a6cba0af9aae7f963a60da&#45;&gt;dir_093f3b7f7c7a61ef21fffb3d339f67e1 -->
<g id="edge26" class="edge"><title>dir_4c7ee98193a6cba0af9aae7f963a60da&#45;&gt;dir_093f3b7f7c7a61ef21fffb3d339f67e1</title>
<path fill="none" stroke="black" d="M325.264,-236.797C355.493,-233.278 405.707,-227.523 449,-223 467.43,-221.075 515.735,-223.877 532,-215 543.083,-208.951 552.203,-198.521 559.004,-188.583"/>
<polygon fill="black" stroke="black" points="561.983,-190.42 564.375,-180.099 556.069,-186.676 561.983,-190.42"/>
<g id="a_edge26&#45;headlabel"><a xlink:href="dir_000045_000008.html" target="_top" xlink:title="2">
<text text-anchor="middle" x="562.46" y="-192.476" font-family="Helvetica,sans-Serif" font-size="10.00">2</text>
</a>
</g>
</g>
<!-- dir_4c7ee98193a6cba0af9aae7f963a60da&#45;&gt;dir_6bd92bd93c0d5d9980919215b46f20a3 -->
<g id="edge29" class="edge"><title>dir_4c7ee98193a6cba0af9aae7f963a60da&#45;&gt;dir_6bd92bd93c0d5d9980919215b46f20a3</title>
<path fill="none" stroke="black" d="M325.277,-237.1C375.084,-231.693 476.202,-220.154 482,-215 509.259,-190.769 514.723,-146.676 515.131,-118.125"/>
<polygon fill="black" stroke="black" points="518.631,-117.998 515.075,-108.018 511.631,-118.037 518.631,-117.998"/>
<g id="a_edge29&#45;headlabel"><a xlink:href="dir_000045_000038.html" target="_top" xlink:title="1">
<text text-anchor="middle" x="521.49" y="-119.077" font-family="Helvetica,sans-Serif" font-size="10.00">1</text>
</a>
</g>
</g>
</g>
</svg>
