<?xml version="1.0" encoding="UTF-8" standalone="no"?>
<!DOCTYPE svg PUBLIC "-//W3C//DTD SVG 1.1//EN"
 "http://www.w3.org/Graphics/SVG/1.1/DTD/svg11.dtd">
<!-- Generated by graphviz version 2.38.0 (20140413.2041)
 -->
<!-- Title: src/Entities/EntityConstructor/EnemyType02Entity Pages: 1 -->
<svg width="152pt" height="223pt"
 viewBox="0.00 0.00 152.00 223.00" xmlns="http://www.w3.org/2000/svg" xmlns:xlink="http://www.w3.org/1999/xlink">
<g id="graph0" class="graph" transform="scale(1 1) rotate(0) translate(4 219)">
<title>src/Entities/EntityConstructor/EnemyType02Entity</title>
<g id="clust1" class="cluster"><title>clusterdir_407c77903c552c75ad67cb9ea27f8b48</title>
<g id="a_clust1"><a xlink:href="dir_407c77903c552c75ad67cb9ea27f8b48.html" target="_top" xlink:title="EntityConstructor">
<polygon fill="#ddddee" stroke="black" points="8,-136 8,-207 134,-207 134,-136 8,-136"/>
<text text-anchor="middle" x="71" y="-195" font-family="Helvetica,sans-Serif" font-size="10.00">EntityConstructor</text>
</a>
</g>
</g>
<!-- dir_fc04bb07f4a71bda49e269598d947aa7 -->
<g id="node1" class="node"><title>dir_fc04bb07f4a71bda49e269598d947aa7</title>
<g id="a_node1"><a xlink:href="dir_fc04bb07f4a71bda49e269598d947aa7.html" target="_top" xlink:title="EnemyType02Entity">
<polygon fill="#eeeeff" stroke="black" points="126,-180 16,-180 16,-144 126,-144 126,-180"/>
<text text-anchor="middle" x="71" y="-159.5" font-family="Helvetica,sans-Serif" font-size="10.00">EnemyType02Entity</text>
</a>
</g>
</g>
<!-- dir_a7363e98f9e0bdd87618633653859815 -->
<g id="node2" class="node"><title>dir_a7363e98f9e0bdd87618633653859815</title>
<g id="a_node2"><a xlink:href="dir_a7363e98f9e0bdd87618633653859815.html" target="_top" xlink:title="Utils">
<polygon fill="none" stroke="black" points="98,-36 44,-36 44,-0 98,-0 98,-36"/>
<text text-anchor="middle" x="71" y="-15.5" font-family="Helvetica,sans-Serif" font-size="10.00">Utils</text>
</a>
</g>
</g>
<!-- dir_fc04bb07f4a71bda49e269598d947aa7&#45;&gt;dir_a7363e98f9e0bdd87618633653859815 -->
<g id="edge2" class="edge"><title>dir_fc04bb07f4a71bda49e269598d947aa7&#45;&gt;dir_a7363e98f9e0bdd87618633653859815</title>
<path fill="none" stroke="black" d="M65.1765,-143.56C62.0686,-133.33 58.5686,-120.08 57,-108 54.9397,-92.1332 54.9397,-87.8668 57,-72 58.1029,-63.506 60.1607,-54.4338 62.3656,-46.2397"/>
<polygon fill="black" stroke="black" points="65.7837,-47.0172 65.1765,-36.4397 59.055,-45.0872 65.7837,-47.0172"/>
<g id="a_edge2&#45;headlabel"><a xlink:href="dir_000018_000065.html" target="_top" xlink:title="1">
<text text-anchor="middle" x="67.5219" y="-48.7552" font-family="Helvetica,sans-Serif" font-size="10.00">1</text>
</a>
</g>
</g>
<!-- dir_c610c8504d46288da7634b3c0b18263f -->
<g id="node3" class="node"><title>dir_c610c8504d46288da7634b3c0b18263f</title>
<g id="a_node3"><a xlink:href="dir_c610c8504d46288da7634b3c0b18263f.html" target="_top" xlink:title="Components">
<polygon fill="none" stroke="red" points="144,-108 66,-108 66,-72 144,-72 144,-108"/>
<text text-anchor="middle" x="105" y="-87.5" font-family="Helvetica,sans-Serif" font-size="10.00">Components</text>
</a>
</g>
</g>
<!-- dir_fc04bb07f4a71bda49e269598d947aa7&#45;&gt;dir_c610c8504d46288da7634b3c0b18263f -->
<g id="edge3" class="edge"><title>dir_fc04bb07f4a71bda49e269598d947aa7&#45;&gt;dir_c610c8504d46288da7634b3c0b18263f</title>
<path fill="none" stroke="black" d="M79.4045,-143.697C83.2748,-135.728 87.9517,-126.1 92.2431,-117.264"/>
<polygon fill="black" stroke="black" points="95.4714,-118.629 96.6922,-108.104 89.1748,-115.57 95.4714,-118.629"/>
<g id="a_edge3&#45;headlabel"><a xlink:href="dir_000018_000001.html" target="_top" xlink:title="10">
<text text-anchor="middle" x="96.4549" y="-120.602" font-family="Helvetica,sans-Serif" font-size="10.00">10</text>
</a>
</g>
</g>
<!-- dir_c610c8504d46288da7634b3c0b18263f&#45;&gt;dir_a7363e98f9e0bdd87618633653859815 -->
<g id="edge1" class="edge"><title>dir_c610c8504d46288da7634b3c0b18263f&#45;&gt;dir_a7363e98f9e0bdd87618633653859815</title>
<path fill="none" stroke="black" d="M96.5955,-71.6966C92.7252,-63.7284 88.0483,-54.0995 83.7569,-45.2641"/>
<polygon fill="black" stroke="black" points="86.8252,-43.5702 79.3078,-36.1043 80.5286,-46.6286 86.8252,-43.5702"/>
<g id="a_edge1&#45;headlabel"><a xlink:href="dir_000001_000065.html" target="_top" xlink:title="5">
<text text-anchor="middle" x="90.9496" y="-43.0631" font-family="Helvetica,sans-Serif" font-size="10.00">5</text>
</a>
</g>
</g>
</g>
</svg>
