<?xml version="1.0" encoding="UTF-8" standalone="no"?>
<!DOCTYPE svg PUBLIC "-//W3C//DTD SVG 1.1//EN"
 "http://www.w3.org/Graphics/SVG/1.1/DTD/svg11.dtd">
<!-- Generated by graphviz version 2.38.0 (20140413.2041)
 -->
<!-- Title: src/Entities/EntityConstructor/EnemyBulletEntity Pages: 1 -->
<svg width="149pt" height="223pt"
 viewBox="0.00 0.00 149.00 223.00" xmlns="http://www.w3.org/2000/svg" xmlns:xlink="http://www.w3.org/1999/xlink">
<g id="graph0" class="graph" transform="scale(1 1) rotate(0) translate(4 219)">
<title>src/Entities/EntityConstructor/EnemyBulletEntity</title>
<g id="clust1" class="cluster"><title>clusterdir_407c77903c552c75ad67cb9ea27f8b48</title>
<g id="a_clust1"><a xlink:href="dir_407c77903c552c75ad67cb9ea27f8b48.html" target="_top" xlink:title="EntityConstructor">
<polygon fill="#ddddee" stroke="black" points="8,-136 8,-207 128,-207 128,-136 8,-136"/>
<text text-anchor="middle" x="68" y="-195" font-family="Helvetica,sans-Serif" font-size="10.00">EntityConstructor</text>
</a>
</g>
</g>
<!-- dir_6062429cec636af05c0d2a403ba06554 -->
<g id="node1" class="node"><title>dir_6062429cec636af05c0d2a403ba06554</title>
<g id="a_node1"><a xlink:href="dir_6062429cec636af05c0d2a403ba06554.html" target="_top" xlink:title="EnemyBulletEntity">
<polygon fill="#eeeeff" stroke="black" points="120,-180 16,-180 16,-144 120,-144 120,-180"/>
<text text-anchor="middle" x="68" y="-159.5" font-family="Helvetica,sans-Serif" font-size="10.00">EnemyBulletEntity</text>
</a>
</g>
</g>
<!-- dir_a7363e98f9e0bdd87618633653859815 -->
<g id="node2" class="node"><title>dir_a7363e98f9e0bdd87618633653859815</title>
<g id="a_node2"><a xlink:href="dir_a7363e98f9e0bdd87618633653859815.html" target="_top" xlink:title="Utils">
<polygon fill="none" stroke="black" points="95,-36 41,-36 41,-0 95,-0 95,-36"/>
<text text-anchor="middle" x="68" y="-15.5" font-family="Helvetica,sans-Serif" font-size="10.00">Utils</text>
</a>
</g>
</g>
<!-- dir_6062429cec636af05c0d2a403ba06554&#45;&gt;dir_a7363e98f9e0bdd87618633653859815 -->
<g id="edge2" class="edge"><title>dir_6062429cec636af05c0d2a403ba06554&#45;&gt;dir_a7363e98f9e0bdd87618633653859815</title>
<path fill="none" stroke="black" d="M62.1765,-143.56C59.0686,-133.33 55.5686,-120.08 54,-108 51.9397,-92.1332 51.9397,-87.8668 54,-72 55.1029,-63.506 57.1607,-54.4338 59.3656,-46.2397"/>
<polygon fill="black" stroke="black" points="62.7837,-47.0172 62.1765,-36.4397 56.055,-45.0872 62.7837,-47.0172"/>
<g id="a_edge2&#45;headlabel"><a xlink:href="dir_000015_000065.html" target="_top" xlink:title="1">
<text text-anchor="middle" x="64.5219" y="-48.7552" font-family="Helvetica,sans-Serif" font-size="10.00">1</text>
</a>
</g>
</g>
<!-- dir_c610c8504d46288da7634b3c0b18263f -->
<g id="node3" class="node"><title>dir_c610c8504d46288da7634b3c0b18263f</title>
<g id="a_node3"><a xlink:href="dir_c610c8504d46288da7634b3c0b18263f.html" target="_top" xlink:title="Components">
<polygon fill="none" stroke="red" points="141,-108 63,-108 63,-72 141,-72 141,-108"/>
<text text-anchor="middle" x="102" y="-87.5" font-family="Helvetica,sans-Serif" font-size="10.00">Components</text>
</a>
</g>
</g>
<!-- dir_6062429cec636af05c0d2a403ba06554&#45;&gt;dir_c610c8504d46288da7634b3c0b18263f -->
<g id="edge3" class="edge"><title>dir_6062429cec636af05c0d2a403ba06554&#45;&gt;dir_c610c8504d46288da7634b3c0b18263f</title>
<path fill="none" stroke="black" d="M76.4045,-143.697C80.2748,-135.728 84.9517,-126.1 89.2431,-117.264"/>
<polygon fill="black" stroke="black" points="92.4714,-118.629 93.6922,-108.104 86.1748,-115.57 92.4714,-118.629"/>
<g id="a_edge3&#45;headlabel"><a xlink:href="dir_000015_000001.html" target="_top" xlink:title="7">
<text text-anchor="middle" x="93.4549" y="-120.602" font-family="Helvetica,sans-Serif" font-size="10.00">7</text>
</a>
</g>
</g>
<!-- dir_c610c8504d46288da7634b3c0b18263f&#45;&gt;dir_a7363e98f9e0bdd87618633653859815 -->
<g id="edge1" class="edge"><title>dir_c610c8504d46288da7634b3c0b18263f&#45;&gt;dir_a7363e98f9e0bdd87618633653859815</title>
<path fill="none" stroke="black" d="M93.5955,-71.6966C89.7252,-63.7284 85.0483,-54.0995 80.7569,-45.2641"/>
<polygon fill="black" stroke="black" points="83.8252,-43.5702 76.3078,-36.1043 77.5286,-46.6286 83.8252,-43.5702"/>
<g id="a_edge1&#45;headlabel"><a xlink:href="dir_000001_000065.html" target="_top" xlink:title="5">
<text text-anchor="middle" x="87.9496" y="-43.0631" font-family="Helvetica,sans-Serif" font-size="10.00">5</text>
</a>
</g>
</g>
</g>
</svg>
