<?xml version="1.0" encoding="UTF-8" standalone="no"?>
<!DOCTYPE svg PUBLIC "-//W3C//DTD SVG 1.1//EN"
 "http://www.w3.org/Graphics/SVG/1.1/DTD/svg11.dtd">
<!-- Generated by graphviz version 2.38.0 (20140413.2041)
 -->
<!-- Title: src/Systems/SystemConstructor/MovementSystem Pages: 1 -->
<svg width="148pt" height="223pt"
 viewBox="0.00 0.00 148.00 223.00" xmlns="http://www.w3.org/2000/svg" xmlns:xlink="http://www.w3.org/1999/xlink">
<g id="graph0" class="graph" transform="scale(1 1) rotate(0) translate(4 219)">
<title>src/Systems/SystemConstructor/MovementSystem</title>
<g id="clust1" class="cluster"><title>clusterdir_289c9e282717af8b03cbc49f45b6383f</title>
<g id="a_clust1"><a xlink:href="dir_289c9e282717af8b03cbc49f45b6383f.html" target="_top" xlink:title="SystemConstructor">
<polygon fill="#ddddee" stroke="black" points="12,-136 12,-207 132,-207 132,-136 12,-136"/>
<text text-anchor="middle" x="72" y="-195" font-family="Helvetica,sans-Serif" font-size="10.00">SystemConstructor</text>
</a>
</g>
</g>
<!-- dir_b6ef746ab79db41685913881539b8477 -->
<g id="node1" class="node"><title>dir_b6ef746ab79db41685913881539b8477</title>
<g id="a_node1"><a xlink:href="dir_b6ef746ab79db41685913881539b8477.html" target="_top" xlink:title="MovementSystem">
<polygon fill="#eeeeff" stroke="black" points="124,-180 20,-180 20,-144 124,-144 124,-180"/>
<text text-anchor="middle" x="72" y="-159.5" font-family="Helvetica,sans-Serif" font-size="10.00">MovementSystem</text>
</a>
</g>
</g>
<!-- dir_c610c8504d46288da7634b3c0b18263f -->
<g id="node2" class="node"><title>dir_c610c8504d46288da7634b3c0b18263f</title>
<g id="a_node2"><a xlink:href="dir_c610c8504d46288da7634b3c0b18263f.html" target="_top" xlink:title="Components">
<polygon fill="none" stroke="red" points="78,-108 0,-108 0,-72 78,-72 78,-108"/>
<text text-anchor="middle" x="39" y="-87.5" font-family="Helvetica,sans-Serif" font-size="10.00">Components</text>
</a>
</g>
</g>
<!-- dir_b6ef746ab79db41685913881539b8477&#45;&gt;dir_c610c8504d46288da7634b3c0b18263f -->
<g id="edge2" class="edge"><title>dir_b6ef746ab79db41685913881539b8477&#45;&gt;dir_c610c8504d46288da7634b3c0b18263f</title>
<path fill="none" stroke="black" d="M63.8427,-143.697C60.0862,-135.728 55.5469,-126.1 51.3817,-117.264"/>
<polygon fill="black" stroke="black" points="54.4936,-115.657 47.0635,-108.104 48.1619,-118.642 54.4936,-115.657"/>
<g id="a_edge2&#45;headlabel"><a xlink:href="dir_000058_000001.html" target="_top" xlink:title="10">
<text text-anchor="middle" x="58.5945" y="-115.198" font-family="Helvetica,sans-Serif" font-size="10.00">10</text>
</a>
</g>
</g>
<!-- dir_6bd92bd93c0d5d9980919215b46f20a3 -->
<g id="node3" class="node"><title>dir_6bd92bd93c0d5d9980919215b46f20a3</title>
<g id="a_node3"><a xlink:href="dir_6bd92bd93c0d5d9980919215b46f20a3.html" target="_top" xlink:title="Exceptions">
<polygon fill="none" stroke="black" points="106,-36 38,-36 38,-0 106,-0 106,-36"/>
<text text-anchor="middle" x="72" y="-15.5" font-family="Helvetica,sans-Serif" font-size="10.00">Exceptions</text>
</a>
</g>
</g>
<!-- dir_b6ef746ab79db41685913881539b8477&#45;&gt;dir_6bd92bd93c0d5d9980919215b46f20a3 -->
<g id="edge3" class="edge"><title>dir_b6ef746ab79db41685913881539b8477&#45;&gt;dir_6bd92bd93c0d5d9980919215b46f20a3</title>
<path fill="none" stroke="black" d="M78.238,-143.593C81.5674,-133.374 85.3174,-120.124 87,-108 89.1995,-92.1519 89.1995,-87.8481 87,-72 85.8169,-63.4752 83.6117,-54.3938 81.2493,-46.2008"/>
<polygon fill="black" stroke="black" points="84.5224,-44.9366 78.238,-36.4069 77.8316,-46.9939 84.5224,-44.9366"/>
<g id="a_edge3&#45;headlabel"><a xlink:href="dir_000058_000038.html" target="_top" xlink:title="2">
<text text-anchor="middle" x="88.2927" y="-45.0381" font-family="Helvetica,sans-Serif" font-size="10.00">2</text>
</a>
</g>
</g>
<!-- dir_c610c8504d46288da7634b3c0b18263f&#45;&gt;dir_6bd92bd93c0d5d9980919215b46f20a3 -->
<g id="edge1" class="edge"><title>dir_c610c8504d46288da7634b3c0b18263f&#45;&gt;dir_6bd92bd93c0d5d9980919215b46f20a3</title>
<path fill="none" stroke="black" d="M47.1573,-71.6966C50.9138,-63.7284 55.4531,-54.0995 59.6183,-45.2641"/>
<polygon fill="black" stroke="black" points="62.8381,-46.6421 63.9365,-36.1043 56.5064,-43.6571 62.8381,-46.6421"/>
<g id="a_edge1&#45;headlabel"><a xlink:href="dir_000001_000038.html" target="_top" xlink:title="1">
<text text-anchor="middle" x="63.8736" y="-48.6042" font-family="Helvetica,sans-Serif" font-size="10.00">1</text>
</a>
</g>
</g>
</g>
</svg>
