<?xml version="1.0" encoding="UTF-8" standalone="no"?>
<!DOCTYPE svg PUBLIC "-//W3C//DTD SVG 1.1//EN"
 "http://www.w3.org/Graphics/SVG/1.1/DTD/svg11.dtd">
<!-- Generated by graphviz version 2.38.0 (20140413.2041)
 -->
<!-- Title: src/Entities/Serializer Pages: 1 -->
<svg width="174pt" height="223pt"
 viewBox="0.00 0.00 174.00 223.00" xmlns="http://www.w3.org/2000/svg" xmlns:xlink="http://www.w3.org/1999/xlink">
<g id="graph0" class="graph" transform="scale(1 1) rotate(0) translate(4 219)">
<title>src/Entities/Serializer</title>
<g id="clust1" class="cluster"><title>clusterdir_093f3b7f7c7a61ef21fffb3d339f67e1</title>
<g id="a_clust1"><a xlink:href="dir_093f3b7f7c7a61ef21fffb3d339f67e1.html" target="_top" xlink:title="Entities">
<polygon fill="#ddddee" stroke="black" points="43,-136 43,-207 121,-207 121,-136 43,-136"/>
<text text-anchor="middle" x="82" y="-195" font-family="Helvetica,sans-Serif" font-size="10.00">Entities</text>
</a>
</g>
</g>
<!-- dir_0dac3e29977a4b10b0c6c77097c9a8ff -->
<g id="node1" class="node"><title>dir_0dac3e29977a4b10b0c6c77097c9a8ff</title>
<g id="a_node1"><a xlink:href="dir_0dac3e29977a4b10b0c6c77097c9a8ff.html" target="_top" xlink:title="Serializer">
<polygon fill="#eeeeff" stroke="black" points="112.5,-180 51.5,-180 51.5,-144 112.5,-144 112.5,-180"/>
<text text-anchor="middle" x="82" y="-159.5" font-family="Helvetica,sans-Serif" font-size="10.00">Serializer</text>
</a>
</g>
</g>
<!-- dir_c610c8504d46288da7634b3c0b18263f -->
<g id="node2" class="node"><title>dir_c610c8504d46288da7634b3c0b18263f</title>
<g id="a_node2"><a xlink:href="dir_c610c8504d46288da7634b3c0b18263f.html" target="_top" xlink:title="Components">
<polygon fill="none" stroke="red" points="78,-36 0,-36 0,-0 78,-0 78,-36"/>
<text text-anchor="middle" x="39" y="-15.5" font-family="Helvetica,sans-Serif" font-size="10.00">Components</text>
</a>
</g>
</g>
<!-- dir_0dac3e29977a4b10b0c6c77097c9a8ff&#45;&gt;dir_c610c8504d46288da7634b3c0b18263f -->
<g id="edge1" class="edge"><title>dir_0dac3e29977a4b10b0c6c77097c9a8ff&#45;&gt;dir_c610c8504d46288da7634b3c0b18263f</title>
<path fill="none" stroke="black" d="M58.2479,-143.91C47.4469,-134.651 35.8027,-122.2 30,-108 21.9084,-88.1991 25.129,-63.942 29.8316,-45.7557"/>
<polygon fill="black" stroke="black" points="33.212,-46.6647 32.6154,-36.0867 26.4853,-44.7279 33.212,-46.6647"/>
<g id="a_edge1&#45;headlabel"><a xlink:href="dir_000037_000001.html" target="_top" xlink:title="2">
<text text-anchor="middle" x="34.946" y="-48.4045" font-family="Helvetica,sans-Serif" font-size="10.00">2</text>
</a>
</g>
</g>
<!-- dir_0c0333544ec44c57ec7d33d873fe36a2 -->
<g id="node3" class="node"><title>dir_0c0333544ec44c57ec7d33d873fe36a2</title>
<g id="a_node3"><a xlink:href="dir_0c0333544ec44c57ec7d33d873fe36a2.html" target="_top" xlink:title="Network">
<polygon fill="none" stroke="red" points="166,-36 110,-36 110,-0 166,-0 166,-36"/>
<text text-anchor="middle" x="138" y="-15.5" font-family="Helvetica,sans-Serif" font-size="10.00">Network</text>
</a>
</g>
</g>
<!-- dir_0dac3e29977a4b10b0c6c77097c9a8ff&#45;&gt;dir_0c0333544ec44c57ec7d33d873fe36a2 -->
<g id="edge2" class="edge"><title>dir_0dac3e29977a4b10b0c6c77097c9a8ff&#45;&gt;dir_0c0333544ec44c57ec7d33d873fe36a2</title>
<path fill="none" stroke="black" d="M105.479,-143.795C116.213,-134.507 127.88,-122.066 134,-108 142.46,-88.5565 143.006,-64.414 141.688,-46.1815"/>
<polygon fill="black" stroke="black" points="145.171,-45.8345 140.743,-36.2096 138.202,-46.4954 145.171,-45.8345"/>
<g id="a_edge2&#45;headlabel"><a xlink:href="dir_000037_000041.html" target="_top" xlink:title="1">
<text text-anchor="middle" x="148.337" y="-46.6451" font-family="Helvetica,sans-Serif" font-size="10.00">1</text>
</a>
</g>
</g>
<!-- dir_7ef50f4d5f08318e733b1532da00e919 -->
<g id="node4" class="node"><title>dir_7ef50f4d5f08318e733b1532da00e919</title>
<g id="a_node4"><a xlink:href="dir_7ef50f4d5f08318e733b1532da00e919.html" target="_top" xlink:title="EntityManager">
<polygon fill="none" stroke="black" points="125,-108 39,-108 39,-72 125,-72 125,-108"/>
<text text-anchor="middle" x="82" y="-87.5" font-family="Helvetica,sans-Serif" font-size="10.00">EntityManager</text>
</a>
</g>
</g>
<!-- dir_0dac3e29977a4b10b0c6c77097c9a8ff&#45;&gt;dir_7ef50f4d5f08318e733b1532da00e919 -->
<g id="edge3" class="edge"><title>dir_0dac3e29977a4b10b0c6c77097c9a8ff&#45;&gt;dir_7ef50f4d5f08318e733b1532da00e919</title>
<path fill="none" stroke="black" d="M82,-143.697C82,-135.983 82,-126.712 82,-118.112"/>
<polygon fill="black" stroke="black" points="85.5001,-118.104 82,-108.104 78.5001,-118.104 85.5001,-118.104"/>
<g id="a_edge3&#45;headlabel"><a xlink:href="dir_000037_000035.html" target="_top" xlink:title="1">
<text text-anchor="middle" x="88.3393" y="-119.199" font-family="Helvetica,sans-Serif" font-size="10.00">1</text>
</a>
</g>
</g>
<!-- dir_7ef50f4d5f08318e733b1532da00e919&#45;&gt;dir_c610c8504d46288da7634b3c0b18263f -->
<g id="edge4" class="edge"><title>dir_7ef50f4d5f08318e733b1532da00e919&#45;&gt;dir_c610c8504d46288da7634b3c0b18263f</title>
<path fill="none" stroke="black" d="M71.3708,-71.6966C66.3719,-63.5589 60.309,-53.689 54.7879,-44.7013"/>
<polygon fill="black" stroke="black" points="57.7234,-42.7931 49.5069,-36.1043 51.7589,-46.4571 57.7234,-42.7931"/>
<g id="a_edge4&#45;headlabel"><a xlink:href="dir_000035_000001.html" target="_top" xlink:title="3">
<text text-anchor="middle" x="62.0242" y="-41.8699" font-family="Helvetica,sans-Serif" font-size="10.00">3</text>
</a>
</g>
</g>
<!-- dir_7ef50f4d5f08318e733b1532da00e919&#45;&gt;dir_0c0333544ec44c57ec7d33d873fe36a2 -->
<g id="edge5" class="edge"><title>dir_7ef50f4d5f08318e733b1532da00e919&#45;&gt;dir_0c0333544ec44c57ec7d33d873fe36a2</title>
<path fill="none" stroke="black" d="M95.8427,-71.6966C102.489,-63.3893 110.578,-53.2771 117.887,-44.1407"/>
<polygon fill="black" stroke="black" points="120.803,-46.0995 124.317,-36.1043 115.336,-41.7266 120.803,-46.0995"/>
<g id="a_edge5&#45;headlabel"><a xlink:href="dir_000035_000041.html" target="_top" xlink:title="2">
<text text-anchor="middle" x="120.774" y="-48.1801" font-family="Helvetica,sans-Serif" font-size="10.00">2</text>
</a>
</g>
</g>
</g>
</svg>
