<?xml version="1.0" encoding="UTF-8" standalone="no"?>
<!DOCTYPE svg PUBLIC "-//W3C//DTD SVG 1.1//EN"
 "http://www.w3.org/Graphics/SVG/1.1/DTD/svg11.dtd">
<!-- Generated by graphviz version 2.38.0 (20140413.2041)
 -->
<!-- Title: src/Entities Pages: 1 -->
<svg width="297pt" height="375pt"
 viewBox="0.00 0.00 296.85 375.00" xmlns="http://www.w3.org/2000/svg" xmlns:xlink="http://www.w3.org/1999/xlink">
<g id="graph0" class="graph" transform="scale(1 1) rotate(0) translate(4 371)">
<title>src/Entities</title>
<g id="clust1" class="cluster"><title>clusterdir_68267d1309a1af8e8297ef4c3efbcdba</title>
<g id="a_clust1"><a xlink:href="dir_68267d1309a1af8e8297ef4c3efbcdba.html" target="_top" xlink:title="src">
<polygon fill="#ddddee" stroke="black" points="48.8516,-128 48.8516,-359 280.852,-359 280.852,-128 48.8516,-128"/>
<text text-anchor="middle" x="164.852" y="-347" font-family="Helvetica,sans-Serif" font-size="10.00">src</text>
</a>
</g>
</g>
<g id="clust2" class="cluster"><title>clusterdir_093f3b7f7c7a61ef21fffb3d339f67e1</title>
<g id="a_clust2"><a xlink:href="dir_093f3b7f7c7a61ef21fffb3d339f67e1.html" target="_top">
<polygon fill="#eeeeff" stroke="black" points="56.8516,-136 56.8516,-332 272.852,-332 272.852,-136 56.8516,-136"/>
</a>
</g>
</g>
<!-- dir_093f3b7f7c7a61ef21fffb3d339f67e1 -->
<g id="node1" class="node"><title>dir_093f3b7f7c7a61ef21fffb3d339f67e1</title>
<text text-anchor="middle" x="228.852" y="-303.5" font-family="Helvetica,sans-Serif" font-size="10.00">Entities</text>
</g>
<!-- dir_407c77903c552c75ad67cb9ea27f8b48 -->
<g id="node2" class="node"><title>dir_407c77903c552c75ad67cb9ea27f8b48</title>
<g id="a_node2"><a xlink:href="dir_407c77903c552c75ad67cb9ea27f8b48.html" target="_top" xlink:title="EntityConstructor">
<polygon fill="white" stroke="red" points="264.852,-252 164.852,-252 164.852,-216 264.852,-216 264.852,-252"/>
<text text-anchor="middle" x="214.852" y="-231.5" font-family="Helvetica,sans-Serif" font-size="10.00">EntityConstructor</text>
</a>
</g>
</g>
<!-- dir_7ef50f4d5f08318e733b1532da00e919 -->
<g id="node3" class="node"><title>dir_7ef50f4d5f08318e733b1532da00e919</title>
<g id="a_node3"><a xlink:href="dir_7ef50f4d5f08318e733b1532da00e919.html" target="_top" xlink:title="EntityManager">
<polygon fill="white" stroke="black" points="169.852,-180 83.8516,-180 83.8516,-144 169.852,-144 169.852,-180"/>
<text text-anchor="middle" x="126.852" y="-159.5" font-family="Helvetica,sans-Serif" font-size="10.00">EntityManager</text>
</a>
</g>
</g>
<!-- dir_407c77903c552c75ad67cb9ea27f8b48&#45;&gt;dir_7ef50f4d5f08318e733b1532da00e919 -->
<g id="edge17" class="edge"><title>dir_407c77903c552c75ad67cb9ea27f8b48&#45;&gt;dir_7ef50f4d5f08318e733b1532da00e919</title>
<path fill="none" stroke="black" d="M193.099,-215.697C182.016,-206.881 168.378,-196.032 156.362,-186.474"/>
<polygon fill="black" stroke="black" points="158.359,-183.59 148.354,-180.104 154.001,-189.069 158.359,-183.59"/>
<g id="a_edge17&#45;headlabel"><a xlink:href="dir_000009_000035.html" target="_top" xlink:title="1">
<text text-anchor="middle" x="162.94" y="-181.106" font-family="Helvetica,sans-Serif" font-size="10.00">1</text>
</a>
</g>
</g>
<!-- dir_a7363e98f9e0bdd87618633653859815 -->
<g id="node6" class="node"><title>dir_a7363e98f9e0bdd87618633653859815</title>
<g id="a_node6"><a xlink:href="dir_a7363e98f9e0bdd87618633653859815.html" target="_top" xlink:title="Utils">
<polygon fill="none" stroke="black" points="264.852,-36 210.852,-36 210.852,-0 264.852,-0 264.852,-36"/>
<text text-anchor="middle" x="237.852" y="-15.5" font-family="Helvetica,sans-Serif" font-size="10.00">Utils</text>
</a>
</g>
</g>
<!-- dir_407c77903c552c75ad67cb9ea27f8b48&#45;&gt;dir_a7363e98f9e0bdd87618633653859815 -->
<g id="edge15" class="edge"><title>dir_407c77903c552c75ad67cb9ea27f8b48&#45;&gt;dir_a7363e98f9e0bdd87618633653859815</title>
<path fill="none" stroke="black" d="M222.404,-215.802C234.38,-186.563 255.794,-125.159 249.852,-72 248.894,-63.4299 247.09,-54.2228 245.166,-45.9264"/>
<polygon fill="black" stroke="black" points="248.516,-44.8904 242.721,-36.0209 241.72,-46.5684 248.516,-44.8904"/>
<g id="a_edge15&#45;headlabel"><a xlink:href="dir_000009_000065.html" target="_top" xlink:title="9">
<text text-anchor="middle" x="252.134" y="-45.1997" font-family="Helvetica,sans-Serif" font-size="10.00">9</text>
</a>
</g>
</g>
<!-- dir_c610c8504d46288da7634b3c0b18263f -->
<g id="node7" class="node"><title>dir_c610c8504d46288da7634b3c0b18263f</title>
<g id="a_node7"><a xlink:href="dir_c610c8504d46288da7634b3c0b18263f.html" target="_top" xlink:title="Components">
<polygon fill="none" stroke="red" points="240.852,-108 162.852,-108 162.852,-72 240.852,-72 240.852,-108"/>
<text text-anchor="middle" x="201.852" y="-87.5" font-family="Helvetica,sans-Serif" font-size="10.00">Components</text>
</a>
</g>
</g>
<!-- dir_407c77903c552c75ad67cb9ea27f8b48&#45;&gt;dir_c610c8504d46288da7634b3c0b18263f -->
<g id="edge16" class="edge"><title>dir_407c77903c552c75ad67cb9ea27f8b48&#45;&gt;dir_c610c8504d46288da7634b3c0b18263f</title>
<path fill="none" stroke="black" d="M215.593,-215.797C216.21,-194.91 216.37,-158.671 211.852,-128 211.367,-124.708 210.69,-121.291 209.914,-117.923"/>
<polygon fill="black" stroke="black" points="213.277,-116.946 207.386,-108.14 206.5,-118.698 213.277,-116.946"/>
<g id="a_edge16&#45;headlabel"><a xlink:href="dir_000009_000001.html" target="_top" xlink:title="146">
<text text-anchor="middle" x="216.925" y="-117.216" font-family="Helvetica,sans-Serif" font-size="10.00">146</text>
</a>
</g>
</g>
<!-- dir_7ef50f4d5f08318e733b1532da00e919&#45;&gt;dir_c610c8504d46288da7634b3c0b18263f -->
<g id="edge12" class="edge"><title>dir_7ef50f4d5f08318e733b1532da00e919&#45;&gt;dir_c610c8504d46288da7634b3c0b18263f</title>
<path fill="none" stroke="black" d="M145.391,-143.697C154.655,-135.05 166.014,-124.449 176.108,-115.027"/>
<polygon fill="black" stroke="black" points="178.603,-117.486 183.526,-108.104 173.827,-112.369 178.603,-117.486"/>
<g id="a_edge12&#45;headlabel"><a xlink:href="dir_000035_000001.html" target="_top" xlink:title="3">
<text text-anchor="middle" x="177.913" y="-119.515" font-family="Helvetica,sans-Serif" font-size="10.00">3</text>
</a>
</g>
</g>
<!-- dir_0c0333544ec44c57ec7d33d873fe36a2 -->
<g id="node8" class="node"><title>dir_0c0333544ec44c57ec7d33d873fe36a2</title>
<g id="a_node8"><a xlink:href="dir_0c0333544ec44c57ec7d33d873fe36a2.html" target="_top" xlink:title="Network">
<polygon fill="none" stroke="red" points="87.8516,-108 31.8516,-108 31.8516,-72 87.8516,-72 87.8516,-108"/>
<text text-anchor="middle" x="59.8516" y="-87.5" font-family="Helvetica,sans-Serif" font-size="10.00">Network</text>
</a>
</g>
</g>
<!-- dir_7ef50f4d5f08318e733b1532da00e919&#45;&gt;dir_0c0333544ec44c57ec7d33d873fe36a2 -->
<g id="edge13" class="edge"><title>dir_7ef50f4d5f08318e733b1532da00e919&#45;&gt;dir_0c0333544ec44c57ec7d33d873fe36a2</title>
<path fill="none" stroke="black" d="M110.29,-143.697C102.176,-135.22 92.2639,-124.864 83.3807,-115.583"/>
<polygon fill="black" stroke="black" points="85.666,-112.908 76.2229,-108.104 80.6091,-117.749 85.666,-112.908"/>
<g id="a_edge13&#45;headlabel"><a xlink:href="dir_000035_000041.html" target="_top" xlink:title="2">
<text text-anchor="middle" x="90.2026" y="-111.042" font-family="Helvetica,sans-Serif" font-size="10.00">2</text>
</a>
</g>
</g>
<!-- dir_6bd92bd93c0d5d9980919215b46f20a3 -->
<g id="node9" class="node"><title>dir_6bd92bd93c0d5d9980919215b46f20a3</title>
<g id="a_node9"><a xlink:href="dir_6bd92bd93c0d5d9980919215b46f20a3.html" target="_top" xlink:title="Exceptions">
<polygon fill="none" stroke="black" points="124.852,-36 56.8516,-36 56.8516,-0 124.852,-0 124.852,-36"/>
<text text-anchor="middle" x="90.8516" y="-15.5" font-family="Helvetica,sans-Serif" font-size="10.00">Exceptions</text>
</a>
</g>
</g>
<!-- dir_7ef50f4d5f08318e733b1532da00e919&#45;&gt;dir_6bd92bd93c0d5d9980919215b46f20a3 -->
<g id="edge14" class="edge"><title>dir_7ef50f4d5f08318e733b1532da00e919&#45;&gt;dir_6bd92bd93c0d5d9980919215b46f20a3</title>
<path fill="none" stroke="black" d="M122.509,-143.871C116.347,-119.564 105.003,-74.8187 97.7001,-46.0132"/>
<polygon fill="black" stroke="black" points="101.06,-45.0225 95.2095,-36.1893 94.2744,-46.7427 101.06,-45.0225"/>
<g id="a_edge14&#45;headlabel"><a xlink:href="dir_000035_000038.html" target="_top" xlink:title="2">
<text text-anchor="middle" x="104.695" y="-45.3091" font-family="Helvetica,sans-Serif" font-size="10.00">2</text>
</a>
</g>
</g>
<!-- dir_a210a49ed660ba3a88bedec209eda968 -->
<g id="node4" class="node"><title>dir_a210a49ed660ba3a88bedec209eda968</title>
<g id="a_node4"><a xlink:href="dir_a210a49ed660ba3a88bedec209eda968.html" target="_top" xlink:title="Factories">
<polygon fill="white" stroke="black" points="175.352,-324 116.352,-324 116.352,-288 175.352,-288 175.352,-324"/>
<text text-anchor="middle" x="145.852" y="-303.5" font-family="Helvetica,sans-Serif" font-size="10.00">Factories</text>
</a>
</g>
</g>
<!-- dir_a210a49ed660ba3a88bedec209eda968&#45;&gt;dir_407c77903c552c75ad67cb9ea27f8b48 -->
<g id="edge8" class="edge"><title>dir_a210a49ed660ba3a88bedec209eda968&#45;&gt;dir_407c77903c552c75ad67cb9ea27f8b48</title>
<path fill="none" stroke="black" d="M162.908,-287.697C171.347,-279.135 181.676,-268.656 190.894,-259.304"/>
<polygon fill="black" stroke="black" points="193.464,-261.683 197.992,-252.104 188.479,-256.769 193.464,-261.683"/>
<g id="a_edge8&#45;headlabel"><a xlink:href="dir_000036_000009.html" target="_top" xlink:title="2">
<text text-anchor="middle" x="192.963" y="-263.736" font-family="Helvetica,sans-Serif" font-size="10.00">2</text>
</a>
</g>
</g>
<!-- dir_a210a49ed660ba3a88bedec209eda968&#45;&gt;dir_7ef50f4d5f08318e733b1532da00e919 -->
<g id="edge7" class="edge"><title>dir_a210a49ed660ba3a88bedec209eda968&#45;&gt;dir_7ef50f4d5f08318e733b1532da00e919</title>
<path fill="none" stroke="black" d="M143.879,-287.92C141.775,-269.99 138.281,-240.987 134.852,-216 133.695,-207.573 132.345,-198.407 131.086,-190.104"/>
<polygon fill="black" stroke="black" points="134.538,-189.523 129.562,-180.169 127.619,-190.584 134.538,-189.523"/>
<g id="a_edge7&#45;headlabel"><a xlink:href="dir_000036_000035.html" target="_top" xlink:title="1">
<text text-anchor="middle" x="137.889" y="-190.146" font-family="Helvetica,sans-Serif" font-size="10.00">1</text>
</a>
</g>
</g>
<!-- dir_a210a49ed660ba3a88bedec209eda968&#45;&gt;dir_c610c8504d46288da7634b3c0b18263f -->
<g id="edge4" class="edge"><title>dir_a210a49ed660ba3a88bedec209eda968&#45;&gt;dir_c610c8504d46288da7634b3c0b18263f</title>
<path fill="none" stroke="black" d="M175.625,-293.631C212.522,-279.403 270.937,-256.362 273.852,-252 303.619,-207.456 259.06,-148.591 227.871,-115.79"/>
<polygon fill="black" stroke="black" points="230.165,-113.13 220.673,-108.424 225.159,-118.022 230.165,-113.13"/>
<g id="a_edge4&#45;headlabel"><a xlink:href="dir_000036_000001.html" target="_top" xlink:title="4">
<text text-anchor="middle" x="234.708" y="-111.216" font-family="Helvetica,sans-Serif" font-size="10.00">4</text>
</a>
</g>
</g>
<!-- dir_a210a49ed660ba3a88bedec209eda968&#45;&gt;dir_0c0333544ec44c57ec7d33d873fe36a2 -->
<g id="edge5" class="edge"><title>dir_a210a49ed660ba3a88bedec209eda968&#45;&gt;dir_0c0333544ec44c57ec7d33d873fe36a2</title>
<path fill="none" stroke="black" d="M116.247,-296.295C95.2944,-288.411 68.7199,-274.512 55.8516,-252 31.9595,-210.203 42.0171,-151.796 51.1635,-118.031"/>
<polygon fill="black" stroke="black" points="54.5361,-118.967 53.9342,-108.389 47.8084,-117.034 54.5361,-118.967"/>
<g id="a_edge5&#45;headlabel"><a xlink:href="dir_000036_000041.html" target="_top" xlink:title="1">
<text text-anchor="middle" x="56.2722" y="-120.706" font-family="Helvetica,sans-Serif" font-size="10.00">1</text>
</a>
</g>
</g>
<!-- dir_a210a49ed660ba3a88bedec209eda968&#45;&gt;dir_6bd92bd93c0d5d9980919215b46f20a3 -->
<g id="edge6" class="edge"><title>dir_a210a49ed660ba3a88bedec209eda968&#45;&gt;dir_6bd92bd93c0d5d9980919215b46f20a3</title>
<path fill="none" stroke="black" d="M115.995,-298.397C91.3792,-291.295 57.7089,-277.423 39.8516,-252 -6.33505,-186.244 -12.4162,-144.203 22.8516,-72 28.6573,-60.1143 38.5583,-50.1186 49.0353,-42.1245"/>
<polygon fill="black" stroke="black" points="51.3487,-44.7754 57.4938,-36.1447 47.3078,-39.0595 51.3487,-44.7754"/>
<g id="a_edge6&#45;headlabel"><a xlink:href="dir_000036_000038.html" target="_top" xlink:title="1">
<text text-anchor="middle" x="50.0526" y="-46.6688" font-family="Helvetica,sans-Serif" font-size="10.00">1</text>
</a>
</g>
</g>
<!-- dir_0dac3e29977a4b10b0c6c77097c9a8ff -->
<g id="node5" class="node"><title>dir_0dac3e29977a4b10b0c6c77097c9a8ff</title>
<g id="a_node5"><a xlink:href="dir_0dac3e29977a4b10b0c6c77097c9a8ff.html" target="_top" xlink:title="Serializer">
<polygon fill="white" stroke="black" points="126.352,-252 65.3516,-252 65.3516,-216 126.352,-216 126.352,-252"/>
<text text-anchor="middle" x="95.8516" y="-231.5" font-family="Helvetica,sans-Serif" font-size="10.00">Serializer</text>
</a>
</g>
</g>
<!-- dir_0dac3e29977a4b10b0c6c77097c9a8ff&#45;&gt;dir_7ef50f4d5f08318e733b1532da00e919 -->
<g id="edge11" class="edge"><title>dir_0dac3e29977a4b10b0c6c77097c9a8ff&#45;&gt;dir_7ef50f4d5f08318e733b1532da00e919</title>
<path fill="none" stroke="black" d="M103.515,-215.697C107.043,-207.728 111.308,-198.1 115.22,-189.264"/>
<polygon fill="black" stroke="black" points="118.428,-190.665 119.277,-180.104 112.027,-187.831 118.428,-190.665"/>
<g id="a_edge11&#45;headlabel"><a xlink:href="dir_000037_000035.html" target="_top" xlink:title="1">
<text text-anchor="middle" x="119.568" y="-192.602" font-family="Helvetica,sans-Serif" font-size="10.00">1</text>
</a>
</g>
</g>
<!-- dir_0dac3e29977a4b10b0c6c77097c9a8ff&#45;&gt;dir_c610c8504d46288da7634b3c0b18263f -->
<g id="edge9" class="edge"><title>dir_0dac3e29977a4b10b0c6c77097c9a8ff&#45;&gt;dir_c610c8504d46288da7634b3c0b18263f</title>
<path fill="none" stroke="black" d="M126.485,-220.397C144.272,-211.581 165.698,-198.128 178.852,-180 191.918,-161.992 197.574,-137.203 200.016,-118.359"/>
<polygon fill="black" stroke="black" points="203.507,-118.631 201.091,-108.315 196.546,-117.886 203.507,-118.631"/>
<g id="a_edge9&#45;headlabel"><a xlink:href="dir_000037_000001.html" target="_top" xlink:title="2">
<text text-anchor="middle" x="205.947" y="-120.007" font-family="Helvetica,sans-Serif" font-size="10.00">2</text>
</a>
</g>
</g>
<!-- dir_0dac3e29977a4b10b0c6c77097c9a8ff&#45;&gt;dir_0c0333544ec44c57ec7d33d873fe36a2 -->
<g id="edge10" class="edge"><title>dir_0dac3e29977a4b10b0c6c77097c9a8ff&#45;&gt;dir_0c0333544ec44c57ec7d33d873fe36a2</title>
<path fill="none" stroke="black" d="M87.9053,-215.652C83.5065,-205.452 78.2565,-192.202 74.8516,-180 69.1752,-159.657 65.3179,-136.063 62.9378,-118.281"/>
<polygon fill="black" stroke="black" points="66.4022,-117.778 61.6741,-108.297 59.4576,-118.657 66.4022,-117.778"/>
<g id="a_edge10&#45;headlabel"><a xlink:href="dir_000037_000041.html" target="_top" xlink:title="1">
<text text-anchor="middle" x="69.6703" y="-118.488" font-family="Helvetica,sans-Serif" font-size="10.00">1</text>
</a>
</g>
</g>
<!-- dir_c610c8504d46288da7634b3c0b18263f&#45;&gt;dir_a7363e98f9e0bdd87618633653859815 -->
<g id="edge1" class="edge"><title>dir_c610c8504d46288da7634b3c0b18263f&#45;&gt;dir_a7363e98f9e0bdd87618633653859815</title>
<path fill="none" stroke="black" d="M210.751,-71.6966C214.848,-63.7284 219.8,-54.0995 224.344,-45.2641"/>
<polygon fill="black" stroke="black" points="227.594,-46.598 229.055,-36.1043 221.369,-43.3965 227.594,-46.598"/>
<g id="a_edge1&#45;headlabel"><a xlink:href="dir_000001_000065.html" target="_top" xlink:title="5">
<text text-anchor="middle" x="228.475" y="-48.5931" font-family="Helvetica,sans-Serif" font-size="10.00">5</text>
</a>
</g>
</g>
<!-- dir_c610c8504d46288da7634b3c0b18263f&#45;&gt;dir_6bd92bd93c0d5d9980919215b46f20a3 -->
<g id="edge2" class="edge"><title>dir_c610c8504d46288da7634b3c0b18263f&#45;&gt;dir_6bd92bd93c0d5d9980919215b46f20a3</title>
<path fill="none" stroke="black" d="M174.698,-71.8761C160.319,-62.8083 142.47,-51.5523 126.941,-41.7592"/>
<polygon fill="black" stroke="black" points="128.435,-38.5635 118.11,-36.1898 124.701,-44.4845 128.435,-38.5635"/>
<g id="a_edge2&#45;headlabel"><a xlink:href="dir_000001_000038.html" target="_top" xlink:title="1">
<text text-anchor="middle" x="132.99" y="-35.5793" font-family="Helvetica,sans-Serif" font-size="10.00">1</text>
</a>
</g>
</g>
<!-- dir_0c0333544ec44c57ec7d33d873fe36a2&#45;&gt;dir_6bd92bd93c0d5d9980919215b46f20a3 -->
<g id="edge3" class="edge"><title>dir_0c0333544ec44c57ec7d33d873fe36a2&#45;&gt;dir_6bd92bd93c0d5d9980919215b46f20a3</title>
<path fill="none" stroke="black" d="M67.5146,-71.6966C71.0433,-63.7284 75.3076,-54.0995 79.2204,-45.2641"/>
<polygon fill="black" stroke="black" points="82.4278,-46.6651 83.2769,-36.1043 76.0273,-43.8306 82.4278,-46.6651"/>
<g id="a_edge3&#45;headlabel"><a xlink:href="dir_000041_000038.html" target="_top" xlink:title="1">
<text text-anchor="middle" x="83.5684" y="-48.6015" font-family="Helvetica,sans-Serif" font-size="10.00">1</text>
</a>
</g>
</g>
</g>
</svg>
