<?xml version="1.0" encoding="UTF-8" standalone="no"?>
<!DOCTYPE svg PUBLIC "-//W3C//DTD SVG 1.1//EN"
 "http://www.w3.org/Graphics/SVG/1.1/DTD/svg11.dtd">
<!-- Generated by graphviz version 2.38.0 (20140413.2041)
 -->
<!-- Title: src/Network Pages: 1 -->
<svg width="310pt" height="303pt"
 viewBox="0.00 0.00 310.00 303.00" xmlns="http://www.w3.org/2000/svg" xmlns:xlink="http://www.w3.org/1999/xlink">
<g id="graph0" class="graph" transform="scale(1 1) rotate(0) translate(4 299)">
<title>src/Network</title>
<g id="clust1" class="cluster"><title>clusterdir_68267d1309a1af8e8297ef4c3efbcdba</title>
<g id="a_clust1"><a xlink:href="dir_68267d1309a1af8e8297ef4c3efbcdba.html" target="_top" xlink:title="src">
<polygon fill="#ddddee" stroke="black" points="8,-128 8,-287 240,-287 240,-128 8,-128"/>
<text text-anchor="middle" x="124" y="-275" font-family="Helvetica,sans-Serif" font-size="10.00">src</text>
</a>
</g>
</g>
<g id="clust2" class="cluster"><title>clusterdir_0c0333544ec44c57ec7d33d873fe36a2</title>
<g id="a_clust2"><a xlink:href="dir_0c0333544ec44c57ec7d33d873fe36a2.html" target="_top">
<polygon fill="#eeeeff" stroke="black" points="16,-136 16,-260 232,-260 232,-136 16,-136"/>
</a>
</g>
</g>
<!-- dir_0c0333544ec44c57ec7d33d873fe36a2 -->
<g id="node1" class="node"><title>dir_0c0333544ec44c57ec7d33d873fe36a2</title>
<text text-anchor="middle" x="196" y="-231.5" font-family="Helvetica,sans-Serif" font-size="10.00">Network</text>
</g>
<!-- dir_4c7ee98193a6cba0af9aae7f963a60da -->
<g id="node6" class="node"><title>dir_4c7ee98193a6cba0af9aae7f963a60da</title>
<g id="a_node6"><a xlink:href="dir_4c7ee98193a6cba0af9aae7f963a60da.html" target="_top" xlink:title="Render">
<polygon fill="none" stroke="black" points="302,-180 248,-180 248,-144 302,-144 302,-180"/>
<text text-anchor="middle" x="275" y="-159.5" font-family="Helvetica,sans-Serif" font-size="10.00">Render</text>
</a>
</g>
</g>
<!-- dir_0c0333544ec44c57ec7d33d873fe36a2&#45;&gt;dir_4c7ee98193a6cba0af9aae7f963a60da -->
<g id="edge2" class="edge"><title>dir_0c0333544ec44c57ec7d33d873fe36a2&#45;&gt;dir_4c7ee98193a6cba0af9aae7f963a60da</title>
<path fill="none" stroke="black" d="M209.612,-215.697C218.565,-206.965 230.498,-196.24 241.766,-186.75"/>
<polygon fill="black" stroke="black" points="244.326,-189.175 249.802,-180.104 239.865,-183.781 244.326,-189.175"/>
<g id="a_edge2&#45;headlabel"><a xlink:href="dir_000041_000045.html" target="_top" xlink:title="1">
<text text-anchor="middle" x="243.366" y="-191.154" font-family="Helvetica,sans-Serif" font-size="10.00">1</text>
</a>
</g>
</g>
<!-- dir_a2c98005762925003481a1ea339550b7 -->
<g id="node2" class="node"><title>dir_a2c98005762925003481a1ea339550b7</title>
<g id="a_node2"><a xlink:href="dir_a2c98005762925003481a1ea339550b7.html" target="_top" xlink:title="Client">
<polygon fill="white" stroke="black" points="78,-252 24,-252 24,-216 78,-216 78,-252"/>
<text text-anchor="middle" x="51" y="-231.5" font-family="Helvetica,sans-Serif" font-size="10.00">Client</text>
</a>
</g>
</g>
<!-- dir_f87d956b2b97682c57ad22a1d66cc929 -->
<g id="node4" class="node"><title>dir_f87d956b2b97682c57ad22a1d66cc929</title>
<g id="a_node4"><a xlink:href="dir_f87d956b2b97682c57ad22a1d66cc929.html" target="_top" xlink:title="Session">
<polygon fill="white" stroke="black" points="95,-180 41,-180 41,-144 95,-144 95,-180"/>
<text text-anchor="middle" x="68" y="-159.5" font-family="Helvetica,sans-Serif" font-size="10.00">Session</text>
</a>
</g>
</g>
<!-- dir_a2c98005762925003481a1ea339550b7&#45;&gt;dir_f87d956b2b97682c57ad22a1d66cc929 -->
<g id="edge1" class="edge"><title>dir_a2c98005762925003481a1ea339550b7&#45;&gt;dir_f87d956b2b97682c57ad22a1d66cc929</title>
<path fill="none" stroke="black" d="M55.2022,-215.697C57.0962,-207.898 59.3765,-198.509 61.4843,-189.829"/>
<polygon fill="black" stroke="black" points="64.8872,-190.648 63.8461,-180.104 58.0849,-188.996 64.8872,-190.648"/>
<g id="a_edge1&#45;headlabel"><a xlink:href="dir_000042_000044.html" target="_top" xlink:title="2">
<text text-anchor="middle" x="66.798" y="-192.311" font-family="Helvetica,sans-Serif" font-size="10.00">2</text>
</a>
</g>
</g>
<!-- dir_4f9e5a33db805b480ca4c3c5a4c359b4 -->
<g id="node3" class="node"><title>dir_4f9e5a33db805b480ca4c3c5a4c359b4</title>
<g id="a_node3"><a xlink:href="dir_4f9e5a33db805b480ca4c3c5a4c359b4.html" target="_top" xlink:title="Server">
<polygon fill="white" stroke="black" points="150,-252 96,-252 96,-216 150,-216 150,-252"/>
<text text-anchor="middle" x="123" y="-231.5" font-family="Helvetica,sans-Serif" font-size="10.00">Server</text>
</a>
</g>
</g>
<!-- dir_4f9e5a33db805b480ca4c3c5a4c359b4&#45;&gt;dir_f87d956b2b97682c57ad22a1d66cc929 -->
<g id="edge6" class="edge"><title>dir_4f9e5a33db805b480ca4c3c5a4c359b4&#45;&gt;dir_f87d956b2b97682c57ad22a1d66cc929</title>
<path fill="none" stroke="black" d="M109.404,-215.697C102.877,-207.389 94.932,-197.277 87.7534,-188.141"/>
<polygon fill="black" stroke="black" points="90.3695,-185.805 81.4391,-180.104 84.8653,-190.13 90.3695,-185.805"/>
<g id="a_edge6&#45;headlabel"><a xlink:href="dir_000043_000044.html" target="_top" xlink:title="1">
<text text-anchor="middle" x="94.8229" y="-184.377" font-family="Helvetica,sans-Serif" font-size="10.00">1</text>
</a>
</g>
</g>
<!-- dir_6bd92bd93c0d5d9980919215b46f20a3 -->
<g id="node5" class="node"><title>dir_6bd92bd93c0d5d9980919215b46f20a3</title>
<g id="a_node5"><a xlink:href="dir_6bd92bd93c0d5d9980919215b46f20a3.html" target="_top" xlink:title="Exceptions">
<polygon fill="none" stroke="black" points="203,-36 135,-36 135,-0 203,-0 203,-36"/>
<text text-anchor="middle" x="169" y="-15.5" font-family="Helvetica,sans-Serif" font-size="10.00">Exceptions</text>
</a>
</g>
</g>
<!-- dir_4f9e5a33db805b480ca4c3c5a4c359b4&#45;&gt;dir_6bd92bd93c0d5d9980919215b46f20a3 -->
<g id="edge7" class="edge"><title>dir_4f9e5a33db805b480ca4c3c5a4c359b4&#45;&gt;dir_6bd92bd93c0d5d9980919215b46f20a3</title>
<path fill="none" stroke="black" d="M126.77,-215.612C132.001,-191.469 141.749,-146.421 150,-108 154.45,-87.2763 159.454,-63.8313 163.209,-46.2085"/>
<polygon fill="black" stroke="black" points="166.71,-46.5743 165.37,-36.0645 159.863,-45.116 166.71,-46.5743"/>
<g id="a_edge7&#45;headlabel"><a xlink:href="dir_000043_000038.html" target="_top" xlink:title="1">
<text text-anchor="middle" x="168.738" y="-48.1815" font-family="Helvetica,sans-Serif" font-size="10.00">1</text>
</a>
</g>
</g>
<!-- dir_42bf377ab7683cad4df24545e38566c4 -->
<g id="node7" class="node"><title>dir_42bf377ab7683cad4df24545e38566c4</title>
<g id="a_node7"><a xlink:href="dir_42bf377ab7683cad4df24545e38566c4.html" target="_top" xlink:title="Room">
<polygon fill="none" stroke="black" points="141,-108 87,-108 87,-72 141,-72 141,-108"/>
<text text-anchor="middle" x="114" y="-87.5" font-family="Helvetica,sans-Serif" font-size="10.00">Room</text>
</a>
</g>
</g>
<!-- dir_4f9e5a33db805b480ca4c3c5a4c359b4&#45;&gt;dir_42bf377ab7683cad4df24545e38566c4 -->
<g id="edge8" class="edge"><title>dir_4f9e5a33db805b480ca4c3c5a4c359b4&#45;&gt;dir_42bf377ab7683cad4df24545e38566c4</title>
<path fill="none" stroke="black" d="M121.914,-215.871C120.381,-191.67 117.563,-147.211 115.736,-118.393"/>
<polygon fill="black" stroke="black" points="119.215,-117.948 115.089,-108.189 112.229,-118.391 119.215,-117.948"/>
<g id="a_edge8&#45;headlabel"><a xlink:href="dir_000043_000046.html" target="_top" xlink:title="1">
<text text-anchor="middle" x="122.276" y="-118.856" font-family="Helvetica,sans-Serif" font-size="10.00">1</text>
</a>
</g>
</g>
<!-- dir_f87d956b2b97682c57ad22a1d66cc929&#45;&gt;dir_42bf377ab7683cad4df24545e38566c4 -->
<g id="edge3" class="edge"><title>dir_f87d956b2b97682c57ad22a1d66cc929&#45;&gt;dir_42bf377ab7683cad4df24545e38566c4</title>
<path fill="none" stroke="black" d="M79.3708,-143.697C84.7185,-135.559 91.2043,-125.689 97.1106,-116.701"/>
<polygon fill="black" stroke="black" points="100.193,-118.384 102.76,-108.104 94.3432,-114.539 100.193,-118.384"/>
<g id="a_edge3&#45;headlabel"><a xlink:href="dir_000044_000046.html" target="_top" xlink:title="1">
<text text-anchor="middle" x="100.592" y="-120.447" font-family="Helvetica,sans-Serif" font-size="10.00">1</text>
</a>
</g>
</g>
<!-- dir_4c7ee98193a6cba0af9aae7f963a60da&#45;&gt;dir_0c0333544ec44c57ec7d33d873fe36a2 -->
<g id="edge4" class="edge"><title>dir_4c7ee98193a6cba0af9aae7f963a60da&#45;&gt;dir_0c0333544ec44c57ec7d33d873fe36a2</title>
<path fill="none" stroke="black" d="M261.592,-180.104C252.598,-188.889 240.538,-199.732 229.163,-209.309"/>
<polygon fill="black" stroke="black" points="226.917,-206.625 221.444,-215.697 231.38,-212.018 226.917,-206.625"/>
<g id="a_edge4&#45;headlabel"><a xlink:href="dir_000045_000041.html" target="_top" xlink:title="1">
<text text-anchor="middle" x="227.876" y="-199.646" font-family="Helvetica,sans-Serif" font-size="10.00">1</text>
</a>
</g>
</g>
<!-- dir_4c7ee98193a6cba0af9aae7f963a60da&#45;&gt;dir_6bd92bd93c0d5d9980919215b46f20a3 -->
<g id="edge5" class="edge"><title>dir_4c7ee98193a6cba0af9aae7f963a60da&#45;&gt;dir_6bd92bd93c0d5d9980919215b46f20a3</title>
<path fill="none" stroke="black" d="M262.214,-143.871C243.75,-119.137 209.491,-73.2424 188.044,-44.5121"/>
<polygon fill="black" stroke="black" points="190.618,-42.1091 181.831,-36.1893 185.009,-46.2965 190.618,-42.1091"/>
<g id="a_edge5&#45;headlabel"><a xlink:href="dir_000045_000038.html" target="_top" xlink:title="1">
<text text-anchor="middle" x="195.044" y="-40.7912" font-family="Helvetica,sans-Serif" font-size="10.00">1</text>
</a>
</g>
</g>
<!-- dir_42bf377ab7683cad4df24545e38566c4&#45;&gt;dir_6bd92bd93c0d5d9980919215b46f20a3 -->
<g id="edge9" class="edge"><title>dir_42bf377ab7683cad4df24545e38566c4&#45;&gt;dir_6bd92bd93c0d5d9980919215b46f20a3</title>
<path fill="none" stroke="black" d="M127.596,-71.6966C134.123,-63.3893 142.068,-53.2771 149.247,-44.1407"/>
<polygon fill="black" stroke="black" points="152.135,-46.1299 155.561,-36.1043 146.631,-41.8051 152.135,-46.1299"/>
<g id="a_edge9&#45;headlabel"><a xlink:href="dir_000046_000038.html" target="_top" xlink:title="1">
<text text-anchor="middle" x="152.147" y="-48.2106" font-family="Helvetica,sans-Serif" font-size="10.00">1</text>
</a>
</g>
</g>
</g>
</svg>
