<?xml version="1.0" encoding="UTF-8" standalone="no"?>
<!DOCTYPE svg PUBLIC "-//W3C//DTD SVG 1.1//EN"
 "http://www.w3.org/Graphics/SVG/1.1/DTD/svg11.dtd">
<!-- Generated by graphviz version 2.38.0 (20140413.2041)
 -->
<!-- Title: src/Entities/EntityManager Pages: 1 -->
<svg width="191pt" height="223pt"
 viewBox="0.00 0.00 191.00 223.00" xmlns="http://www.w3.org/2000/svg" xmlns:xlink="http://www.w3.org/1999/xlink">
<g id="graph0" class="graph" transform="scale(1 1) rotate(0) translate(4 219)">
<title>src/Entities/EntityManager</title>
<g id="clust1" class="cluster"><title>clusterdir_093f3b7f7c7a61ef21fffb3d339f67e1</title>
<g id="a_clust1"><a xlink:href="dir_093f3b7f7c7a61ef21fffb3d339f67e1.html" target="_top" xlink:title="Entities">
<polygon fill="#ddddee" stroke="black" points="73,-136 73,-207 175,-207 175,-136 73,-136"/>
<text text-anchor="middle" x="124" y="-195" font-family="Helvetica,sans-Serif" font-size="10.00">Entities</text>
</a>
</g>
</g>
<!-- dir_7ef50f4d5f08318e733b1532da00e919 -->
<g id="node1" class="node"><title>dir_7ef50f4d5f08318e733b1532da00e919</title>
<g id="a_node1"><a xlink:href="dir_7ef50f4d5f08318e733b1532da00e919.html" target="_top" xlink:title="EntityManager">
<polygon fill="#eeeeff" stroke="black" points="167,-180 81,-180 81,-144 167,-144 167,-180"/>
<text text-anchor="middle" x="124" y="-159.5" font-family="Helvetica,sans-Serif" font-size="10.00">EntityManager</text>
</a>
</g>
</g>
<!-- dir_c610c8504d46288da7634b3c0b18263f -->
<g id="node2" class="node"><title>dir_c610c8504d46288da7634b3c0b18263f</title>
<g id="a_node2"><a xlink:href="dir_c610c8504d46288da7634b3c0b18263f.html" target="_top" xlink:title="Components">
<polygon fill="none" stroke="red" points="78,-108 0,-108 0,-72 78,-72 78,-108"/>
<text text-anchor="middle" x="39" y="-87.5" font-family="Helvetica,sans-Serif" font-size="10.00">Components</text>
</a>
</g>
</g>
<!-- dir_7ef50f4d5f08318e733b1532da00e919&#45;&gt;dir_c610c8504d46288da7634b3c0b18263f -->
<g id="edge3" class="edge"><title>dir_7ef50f4d5f08318e733b1532da00e919&#45;&gt;dir_c610c8504d46288da7634b3c0b18263f</title>
<path fill="none" stroke="black" d="M102.989,-143.697C92.2837,-134.881 79.1103,-124.032 67.5044,-114.474"/>
<polygon fill="black" stroke="black" points="69.7139,-111.76 59.7695,-108.104 65.2639,-117.163 69.7139,-111.76"/>
<g id="a_edge3&#45;headlabel"><a xlink:href="dir_000035_000001.html" target="_top" xlink:title="3">
<text text-anchor="middle" x="74.2936" y="-109.353" font-family="Helvetica,sans-Serif" font-size="10.00">3</text>
</a>
</g>
</g>
<!-- dir_0c0333544ec44c57ec7d33d873fe36a2 -->
<g id="node3" class="node"><title>dir_0c0333544ec44c57ec7d33d873fe36a2</title>
<g id="a_node3"><a xlink:href="dir_0c0333544ec44c57ec7d33d873fe36a2.html" target="_top" xlink:title="Network">
<polygon fill="none" stroke="red" points="152,-108 96,-108 96,-72 152,-72 152,-108"/>
<text text-anchor="middle" x="124" y="-87.5" font-family="Helvetica,sans-Serif" font-size="10.00">Network</text>
</a>
</g>
</g>
<!-- dir_7ef50f4d5f08318e733b1532da00e919&#45;&gt;dir_0c0333544ec44c57ec7d33d873fe36a2 -->
<g id="edge4" class="edge"><title>dir_7ef50f4d5f08318e733b1532da00e919&#45;&gt;dir_0c0333544ec44c57ec7d33d873fe36a2</title>
<path fill="none" stroke="black" d="M124,-143.697C124,-135.983 124,-126.712 124,-118.112"/>
<polygon fill="black" stroke="black" points="127.5,-118.104 124,-108.104 120.5,-118.104 127.5,-118.104"/>
<g id="a_edge4&#45;headlabel"><a xlink:href="dir_000035_000041.html" target="_top" xlink:title="2">
<text text-anchor="middle" x="130.339" y="-119.199" font-family="Helvetica,sans-Serif" font-size="10.00">2</text>
</a>
</g>
</g>
<!-- dir_6bd92bd93c0d5d9980919215b46f20a3 -->
<g id="node4" class="node"><title>dir_6bd92bd93c0d5d9980919215b46f20a3</title>
<g id="a_node4"><a xlink:href="dir_6bd92bd93c0d5d9980919215b46f20a3.html" target="_top" xlink:title="Exceptions">
<polygon fill="none" stroke="black" points="158,-36 90,-36 90,-0 158,-0 158,-36"/>
<text text-anchor="middle" x="124" y="-15.5" font-family="Helvetica,sans-Serif" font-size="10.00">Exceptions</text>
</a>
</g>
</g>
<!-- dir_7ef50f4d5f08318e733b1532da00e919&#45;&gt;dir_6bd92bd93c0d5d9980919215b46f20a3 -->
<g id="edge5" class="edge"><title>dir_7ef50f4d5f08318e733b1532da00e919&#45;&gt;dir_6bd92bd93c0d5d9980919215b46f20a3</title>
<path fill="none" stroke="black" d="M140.037,-143.846C148.014,-134.124 156.825,-121.274 161,-108 165.801,-92.7371 165.801,-87.2629 161,-72 157.901,-62.1483 152.249,-52.5302 146.279,-44.2511"/>
<polygon fill="black" stroke="black" points="148.914,-41.9371 140.037,-36.1544 143.371,-46.2111 148.914,-41.9371"/>
<g id="a_edge5&#45;headlabel"><a xlink:href="dir_000035_000038.html" target="_top" xlink:title="2">
<text text-anchor="middle" x="153.358" y="-40.5503" font-family="Helvetica,sans-Serif" font-size="10.00">2</text>
</a>
</g>
</g>
<!-- dir_c610c8504d46288da7634b3c0b18263f&#45;&gt;dir_6bd92bd93c0d5d9980919215b46f20a3 -->
<g id="edge1" class="edge"><title>dir_c610c8504d46288da7634b3c0b18263f&#45;&gt;dir_6bd92bd93c0d5d9980919215b46f20a3</title>
<path fill="none" stroke="black" d="M60.0112,-71.6966C70.7163,-62.8807 83.8897,-52.0321 95.4956,-42.4742"/>
<polygon fill="black" stroke="black" points="97.7361,-45.1632 103.23,-36.1043 93.2861,-39.7597 97.7361,-45.1632"/>
<g id="a_edge1&#45;headlabel"><a xlink:href="dir_000001_000038.html" target="_top" xlink:title="1">
<text text-anchor="middle" x="96.7663" y="-47.14" font-family="Helvetica,sans-Serif" font-size="10.00">1</text>
</a>
</g>
</g>
<!-- dir_0c0333544ec44c57ec7d33d873fe36a2&#45;&gt;dir_6bd92bd93c0d5d9980919215b46f20a3 -->
<g id="edge2" class="edge"><title>dir_0c0333544ec44c57ec7d33d873fe36a2&#45;&gt;dir_6bd92bd93c0d5d9980919215b46f20a3</title>
<path fill="none" stroke="black" d="M124,-71.6966C124,-63.9827 124,-54.7125 124,-46.1124"/>
<polygon fill="black" stroke="black" points="127.5,-46.1043 124,-36.1043 120.5,-46.1044 127.5,-46.1043"/>
<g id="a_edge2&#45;headlabel"><a xlink:href="dir_000041_000038.html" target="_top" xlink:title="1">
<text text-anchor="middle" x="130.339" y="-47.199" font-family="Helvetica,sans-Serif" font-size="10.00">1</text>
</a>
</g>
</g>
</g>
</svg>
