<?xml version="1.0" encoding="UTF-8" standalone="no"?>
<!DOCTYPE svg PUBLIC "-//W3C//DTD SVG 1.1//EN"
 "http://www.w3.org/Graphics/SVG/1.1/DTD/svg11.dtd">
<!-- Generated by graphviz version 2.38.0 (20140413.2041)
 -->
<!-- Title: src/ManagerWrapper Pages: 1 -->
<svg width="279pt" height="367pt"
 viewBox="0.00 0.00 278.67 367.00" xmlns="http://www.w3.org/2000/svg" xmlns:xlink="http://www.w3.org/1999/xlink">
<g id="graph0" class="graph" transform="scale(1 1) rotate(0) translate(4 363)">
<title>src/ManagerWrapper</title>
<g id="clust1" class="cluster"><title>clusterdir_68267d1309a1af8e8297ef4c3efbcdba</title>
<g id="a_clust1"><a xlink:href="dir_68267d1309a1af8e8297ef4c3efbcdba.html" target="_top" xlink:title="src">
<polygon fill="#ddddee" stroke="black" points="51.6678,-280 51.6678,-351 165.668,-351 165.668,-280 51.6678,-280"/>
<text text-anchor="middle" x="108.668" y="-339" font-family="Helvetica,sans-Serif" font-size="10.00">src</text>
</a>
</g>
</g>
<!-- dir_72b0d7f49fde90450b6e05dc81befa69 -->
<g id="node1" class="node"><title>dir_72b0d7f49fde90450b6e05dc81befa69</title>
<g id="a_node1"><a xlink:href="dir_72b0d7f49fde90450b6e05dc81befa69.html" target="_top" xlink:title="ManagerWrapper">
<polygon fill="#eeeeff" stroke="black" points="157.668,-324 59.6678,-324 59.6678,-288 157.668,-288 157.668,-324"/>
<text text-anchor="middle" x="108.668" y="-303.5" font-family="Helvetica,sans-Serif" font-size="10.00">ManagerWrapper</text>
</a>
</g>
</g>
<!-- dir_c610c8504d46288da7634b3c0b18263f -->
<g id="node2" class="node"><title>dir_c610c8504d46288da7634b3c0b18263f</title>
<g id="a_node2"><a xlink:href="dir_c610c8504d46288da7634b3c0b18263f.html" target="_top" xlink:title="Components">
<polygon fill="none" stroke="red" points="147.668,-252 69.6678,-252 69.6678,-216 147.668,-216 147.668,-252"/>
<text text-anchor="middle" x="108.668" y="-231.5" font-family="Helvetica,sans-Serif" font-size="10.00">Components</text>
</a>
</g>
</g>
<!-- dir_72b0d7f49fde90450b6e05dc81befa69&#45;&gt;dir_c610c8504d46288da7634b3c0b18263f -->
<g id="edge8" class="edge"><title>dir_72b0d7f49fde90450b6e05dc81befa69&#45;&gt;dir_c610c8504d46288da7634b3c0b18263f</title>
<path fill="none" stroke="black" d="M108.668,-287.697C108.668,-279.983 108.668,-270.712 108.668,-262.112"/>
<polygon fill="black" stroke="black" points="112.168,-262.104 108.668,-252.104 105.168,-262.104 112.168,-262.104"/>
<g id="a_edge8&#45;headlabel"><a xlink:href="dir_000040_000001.html" target="_top" xlink:title="1">
<text text-anchor="middle" x="115.007" y="-263.199" font-family="Helvetica,sans-Serif" font-size="10.00">1</text>
</a>
</g>
</g>
<!-- dir_093f3b7f7c7a61ef21fffb3d339f67e1 -->
<g id="node3" class="node"><title>dir_093f3b7f7c7a61ef21fffb3d339f67e1</title>
<g id="a_node3"><a xlink:href="dir_093f3b7f7c7a61ef21fffb3d339f67e1.html" target="_top" xlink:title="Entities">
<polygon fill="none" stroke="red" points="127.668,-36 73.6678,-36 73.6678,-0 127.668,-0 127.668,-36"/>
<text text-anchor="middle" x="100.668" y="-15.5" font-family="Helvetica,sans-Serif" font-size="10.00">Entities</text>
</a>
</g>
</g>
<!-- dir_72b0d7f49fde90450b6e05dc81befa69&#45;&gt;dir_093f3b7f7c7a61ef21fffb3d339f67e1 -->
<g id="edge9" class="edge"><title>dir_72b0d7f49fde90450b6e05dc81befa69&#45;&gt;dir_093f3b7f7c7a61ef21fffb3d339f67e1</title>
<path fill="none" stroke="black" d="M84.0897,-287.904C71.3709,-278.294 56.148,-265.53 44.6678,-252 20.6997,-223.752 12.3362,-215.763 2.66779,-180 -11.9189,-126.045 36.5863,-72.416 70.4855,-42.6974"/>
<polygon fill="black" stroke="black" points="72.9762,-45.1734 78.3168,-36.023 68.4356,-39.8457 72.9762,-45.1734"/>
<g id="a_edge9&#45;headlabel"><a xlink:href="dir_000040_000008.html" target="_top" xlink:title="1">
<text text-anchor="middle" x="72.0821" y="-47.1659" font-family="Helvetica,sans-Serif" font-size="10.00">1</text>
</a>
</g>
</g>
<!-- dir_900c20bb70493231141df6997ccd6b87 -->
<g id="node4" class="node"><title>dir_900c20bb70493231141df6997ccd6b87</title>
<g id="a_node4"><a xlink:href="dir_900c20bb70493231141df6997ccd6b87.html" target="_top" xlink:title="Systems">
<polygon fill="none" stroke="red" points="71.1678,-180 12.1678,-180 12.1678,-144 71.1678,-144 71.1678,-180"/>
<text text-anchor="middle" x="41.6678" y="-159.5" font-family="Helvetica,sans-Serif" font-size="10.00">Systems</text>
</a>
</g>
</g>
<!-- dir_72b0d7f49fde90450b6e05dc81befa69&#45;&gt;dir_900c20bb70493231141df6997ccd6b87 -->
<g id="edge10" class="edge"><title>dir_72b0d7f49fde90450b6e05dc81befa69&#45;&gt;dir_900c20bb70493231141df6997ccd6b87</title>
<path fill="none" stroke="black" d="M88.6541,-287.719C78.7939,-278.15 67.5691,-265.481 60.6678,-252 50.7978,-232.719 46.0501,-208.565 43.7691,-190.287"/>
<polygon fill="black" stroke="black" points="47.2426,-189.852 42.691,-180.285 40.2829,-190.603 47.2426,-189.852"/>
<g id="a_edge10&#45;headlabel"><a xlink:href="dir_000040_000048.html" target="_top" xlink:title="1">
<text text-anchor="middle" x="50.4507" y="-190.622" font-family="Helvetica,sans-Serif" font-size="10.00">1</text>
</a>
</g>
</g>
<!-- dir_cc826e206496d9bb3cee340d21aea050 -->
<g id="node5" class="node"><title>dir_cc826e206496d9bb3cee340d21aea050</title>
<g id="a_node5"><a xlink:href="dir_cc826e206496d9bb3cee340d21aea050.html" target="_top" xlink:title="ResourceManager">
<polygon fill="none" stroke="black" points="270.668,-36 168.668,-36 168.668,-0 270.668,-0 270.668,-36"/>
<text text-anchor="middle" x="219.668" y="-15.5" font-family="Helvetica,sans-Serif" font-size="10.00">ResourceManager</text>
</a>
</g>
</g>
<!-- dir_72b0d7f49fde90450b6e05dc81befa69&#45;&gt;dir_cc826e206496d9bb3cee340d21aea050 -->
<g id="edge11" class="edge"><title>dir_72b0d7f49fde90450b6e05dc81befa69&#45;&gt;dir_cc826e206496d9bb3cee340d21aea050</title>
<path fill="none" stroke="black" d="M138.26,-287.853C151.685,-278.738 166.741,-266.427 176.668,-252 223.349,-184.152 221.445,-154.352 220.668,-72 220.589,-63.6817 220.442,-54.63 220.283,-46.3999"/>
<polygon fill="black" stroke="black" points="223.778,-46.1108 220.074,-36.1846 216.78,-46.2542 223.778,-46.1108"/>
<g id="a_edge11&#45;headlabel"><a xlink:href="dir_000040_000006.html" target="_top" xlink:title="2">
<text text-anchor="middle" x="226.69" y="-47.1465" font-family="Helvetica,sans-Serif" font-size="10.00">2</text>
</a>
</g>
</g>
<!-- dir_4c7ee98193a6cba0af9aae7f963a60da -->
<g id="node6" class="node"><title>dir_4c7ee98193a6cba0af9aae7f963a60da</title>
<g id="a_node6"><a xlink:href="dir_4c7ee98193a6cba0af9aae7f963a60da.html" target="_top" xlink:title="Render">
<polygon fill="none" stroke="black" points="191.668,-108 137.668,-108 137.668,-72 191.668,-72 191.668,-108"/>
<text text-anchor="middle" x="164.668" y="-87.5" font-family="Helvetica,sans-Serif" font-size="10.00">Render</text>
</a>
</g>
</g>
<!-- dir_72b0d7f49fde90450b6e05dc81befa69&#45;&gt;dir_4c7ee98193a6cba0af9aae7f963a60da -->
<g id="edge12" class="edge"><title>dir_72b0d7f49fde90450b6e05dc81befa69&#45;&gt;dir_4c7ee98193a6cba0af9aae7f963a60da</title>
<path fill="none" stroke="black" d="M129.973,-287.623C139.919,-278.208 150.831,-265.706 156.668,-252 175.289,-208.279 172.727,-151.724 168.891,-118.596"/>
<polygon fill="black" stroke="black" points="172.315,-117.784 167.57,-108.312 165.372,-118.676 172.315,-117.784"/>
<g id="a_edge12&#45;headlabel"><a xlink:href="dir_000040_000045.html" target="_top" xlink:title="2">
<text text-anchor="middle" x="175.589" y="-118.488" font-family="Helvetica,sans-Serif" font-size="10.00">2</text>
</a>
</g>
</g>
<!-- dir_c610c8504d46288da7634b3c0b18263f&#45;&gt;dir_093f3b7f7c7a61ef21fffb3d339f67e1 -->
<g id="edge1" class="edge"><title>dir_c610c8504d46288da7634b3c0b18263f&#45;&gt;dir_093f3b7f7c7a61ef21fffb3d339f67e1</title>
<path fill="none" stroke="black" d="M104.149,-215.849C99.2295,-178.832 95.6812,-91.1809 96.9994,-46.3863"/>
<polygon fill="black" stroke="black" points="100.503,-46.3708 97.4267,-36.2325 93.5093,-46.0764 100.503,-46.3708"/>
<g id="a_edge1&#45;headlabel"><a xlink:href="dir_000001_000008.html" target="_top" xlink:title="1">
<text text-anchor="middle" x="103.189" y="-47.5816" font-family="Helvetica,sans-Serif" font-size="10.00">1</text>
</a>
</g>
</g>
<!-- dir_c610c8504d46288da7634b3c0b18263f&#45;&gt;dir_900c20bb70493231141df6997ccd6b87 -->
<g id="edge2" class="edge"><title>dir_c610c8504d46288da7634b3c0b18263f&#45;&gt;dir_900c20bb70493231141df6997ccd6b87</title>
<path fill="none" stroke="black" d="M86.1903,-215.697C77.2922,-207.305 67.3048,-197.07 58.9719,-187.861"/>
<polygon fill="black" stroke="black" points="61.3785,-185.298 52.1441,-180.104 56.1241,-189.923 61.3785,-185.298"/>
<g id="a_edge2&#45;headlabel"><a xlink:href="dir_000001_000048.html" target="_top" xlink:title="1">
<text text-anchor="middle" x="65.8848" y="-183.62" font-family="Helvetica,sans-Serif" font-size="10.00">1</text>
</a>
</g>
</g>
<!-- dir_c610c8504d46288da7634b3c0b18263f&#45;&gt;dir_4c7ee98193a6cba0af9aae7f963a60da -->
<g id="edge3" class="edge"><title>dir_c610c8504d46288da7634b3c0b18263f&#45;&gt;dir_4c7ee98193a6cba0af9aae7f963a60da</title>
<path fill="none" stroke="black" d="M108.542,-215.914C111.949,-205.577 117.804,-192.098 122.668,-180 131.07,-159.101 139.908,-135.146 147.69,-117.357"/>
<polygon fill="black" stroke="black" points="150.917,-118.717 151.896,-108.168 144.552,-115.804 150.917,-118.717"/>
<g id="a_edge3&#45;headlabel"><a xlink:href="dir_000001_000045.html" target="_top" xlink:title="3">
<text text-anchor="middle" x="152.003" y="-120.667" font-family="Helvetica,sans-Serif" font-size="10.00">3</text>
</a>
</g>
</g>
<!-- dir_093f3b7f7c7a61ef21fffb3d339f67e1&#45;&gt;dir_c610c8504d46288da7634b3c0b18263f -->
<g id="edge4" class="edge"><title>dir_093f3b7f7c7a61ef21fffb3d339f67e1&#45;&gt;dir_c610c8504d46288da7634b3c0b18263f</title>
<path fill="none" stroke="black" d="M105.197,-36.2325C110.115,-73.3243 113.659,-160.981 112.333,-205.712"/>
<polygon fill="black" stroke="black" points="108.83,-205.71 111.904,-215.849 115.824,-206.006 108.83,-205.71"/>
<g id="a_edge4&#45;headlabel"><a xlink:href="dir_000008_000001.html" target="_top" xlink:title="155">
<text text-anchor="middle" x="106.146" y="-199.499" font-family="Helvetica,sans-Serif" font-size="10.00">155</text>
</a>
</g>
</g>
<!-- dir_900c20bb70493231141df6997ccd6b87&#45;&gt;dir_c610c8504d46288da7634b3c0b18263f -->
<g id="edge5" class="edge"><title>dir_900c20bb70493231141df6997ccd6b87&#45;&gt;dir_c610c8504d46288da7634b3c0b18263f</title>
<path fill="none" stroke="black" d="M63.9341,-180.104C72.8147,-188.467 82.8065,-198.694 91.1654,-207.92"/>
<polygon fill="black" stroke="black" points="88.7832,-210.51 98.0217,-215.697 94.0339,-205.881 88.7832,-210.51"/>
<g id="a_edge5&#45;headlabel"><a xlink:href="dir_000048_000001.html" target="_top" xlink:title="56">
<text text-anchor="middle" x="84.2763" y="-207.191" font-family="Helvetica,sans-Serif" font-size="10.00">56</text>
</a>
</g>
</g>
<!-- dir_900c20bb70493231141df6997ccd6b87&#45;&gt;dir_093f3b7f7c7a61ef21fffb3d339f67e1 -->
<g id="edge6" class="edge"><title>dir_900c20bb70493231141df6997ccd6b87&#45;&gt;dir_093f3b7f7c7a61ef21fffb3d339f67e1</title>
<path fill="none" stroke="black" d="M48.4427,-143.886C55.5862,-125.928 67.2299,-96.9024 77.6678,-72 81.2908,-63.3564 85.3331,-53.9619 89.0059,-45.5161"/>
<polygon fill="black" stroke="black" points="92.3062,-46.7042 93.1006,-36.1392 85.8912,-43.9029 92.3062,-46.7042"/>
<g id="a_edge6&#45;headlabel"><a xlink:href="dir_000048_000008.html" target="_top" xlink:title="10">
<text text-anchor="middle" x="93.4698" y="-48.6346" font-family="Helvetica,sans-Serif" font-size="10.00">10</text>
</a>
</g>
</g>
<!-- dir_900c20bb70493231141df6997ccd6b87&#45;&gt;dir_4c7ee98193a6cba0af9aae7f963a60da -->
<g id="edge7" class="edge"><title>dir_900c20bb70493231141df6997ccd6b87&#45;&gt;dir_4c7ee98193a6cba0af9aae7f963a60da</title>
<path fill="none" stroke="black" d="M71.4427,-144.055C88.5162,-134.338 110.082,-122.065 128.17,-111.771"/>
<polygon fill="black" stroke="black" points="130.31,-114.58 137.27,-106.592 126.848,-108.497 130.31,-114.58"/>
<g id="a_edge7&#45;headlabel"><a xlink:href="dir_000048_000045.html" target="_top" xlink:title="2">
<text text-anchor="middle" x="128.59" y="-116.326" font-family="Helvetica,sans-Serif" font-size="10.00">2</text>
</a>
</g>
</g>
<!-- dir_cc826e206496d9bb3cee340d21aea050&#45;&gt;dir_c610c8504d46288da7634b3c0b18263f -->
<g id="edge13" class="edge"><title>dir_cc826e206496d9bb3cee340d21aea050&#45;&gt;dir_c610c8504d46288da7634b3c0b18263f</title>
<path fill="none" stroke="black" d="M217.496,-36.1367C214.846,-54.3632 209.58,-83.838 200.668,-108 188.073,-142.144 183.428,-150.829 161.668,-180 154.145,-190.084 144.746,-200.111 135.96,-208.685"/>
<polygon fill="black" stroke="black" points="133.298,-206.386 128.459,-215.811 138.12,-211.46 133.298,-206.386"/>
<g id="a_edge13&#45;headlabel"><a xlink:href="dir_000006_000001.html" target="_top" xlink:title="1">
<text text-anchor="middle" x="133.949" y="-199.351" font-family="Helvetica,sans-Serif" font-size="10.00">1</text>
</a>
</g>
</g>
<!-- dir_4c7ee98193a6cba0af9aae7f963a60da&#45;&gt;dir_c610c8504d46288da7634b3c0b18263f -->
<g id="edge14" class="edge"><title>dir_4c7ee98193a6cba0af9aae7f963a60da&#45;&gt;dir_c610c8504d46288da7634b3c0b18263f</title>
<path fill="none" stroke="black" d="M165.335,-108.168C161.196,-126.17 150.626,-155.23 140.668,-180 137.134,-188.79 133.077,-198.309 128.911,-206.822"/>
<polygon fill="black" stroke="black" points="125.692,-205.426 124.185,-215.914 131.903,-208.655 125.692,-205.426"/>
<g id="a_edge14&#45;headlabel"><a xlink:href="dir_000045_000001.html" target="_top" xlink:title="5">
<text text-anchor="middle" x="124.831" y="-198.427" font-family="Helvetica,sans-Serif" font-size="10.00">5</text>
</a>
</g>
</g>
<!-- dir_4c7ee98193a6cba0af9aae7f963a60da&#45;&gt;dir_093f3b7f7c7a61ef21fffb3d339f67e1 -->
<g id="edge15" class="edge"><title>dir_4c7ee98193a6cba0af9aae7f963a60da&#45;&gt;dir_093f3b7f7c7a61ef21fffb3d339f67e1</title>
<path fill="none" stroke="black" d="M148.848,-71.6966C141.097,-63.2198 131.629,-52.8636 123.143,-43.5826"/>
<polygon fill="black" stroke="black" points="125.637,-41.1229 116.306,-36.1043 120.471,-45.8464 125.637,-41.1229"/>
<g id="a_edge15&#45;headlabel"><a xlink:href="dir_000045_000008.html" target="_top" xlink:title="2">
<text text-anchor="middle" x="130.158" y="-39.36" font-family="Helvetica,sans-Serif" font-size="10.00">2</text>
</a>
</g>
</g>
<!-- dir_4c7ee98193a6cba0af9aae7f963a60da&#45;&gt;dir_cc826e206496d9bb3cee340d21aea050 -->
<g id="edge16" class="edge"><title>dir_4c7ee98193a6cba0af9aae7f963a60da&#45;&gt;dir_cc826e206496d9bb3cee340d21aea050</title>
<path fill="none" stroke="black" d="M178.263,-71.6966C184.79,-63.3893 192.736,-53.2771 199.914,-44.1407"/>
<polygon fill="black" stroke="black" points="202.803,-46.1299 206.229,-36.1043 197.298,-41.8051 202.803,-46.1299"/>
<g id="a_edge16&#45;headlabel"><a xlink:href="dir_000045_000006.html" target="_top" xlink:title="2">
<text text-anchor="middle" x="202.814" y="-48.2106" font-family="Helvetica,sans-Serif" font-size="10.00">2</text>
</a>
</g>
</g>
</g>
</svg>
