<?xml version="1.0" encoding="UTF-8" standalone="no"?>
<!DOCTYPE svg PUBLIC "-//W3C//DTD SVG 1.1//EN"
 "http://www.w3.org/Graphics/SVG/1.1/DTD/svg11.dtd">
<!-- Generated by graphviz version 2.38.0 (20140413.2041)
 -->
<!-- Title: src/Systems/SystemConstructor/EnemiesMovementSystem Pages: 1 -->
<svg width="186pt" height="295pt"
 viewBox="0.00 0.00 186.00 295.00" xmlns="http://www.w3.org/2000/svg" xmlns:xlink="http://www.w3.org/1999/xlink">
<g id="graph0" class="graph" transform="scale(1 1) rotate(0) translate(4 291)">
<title>src/Systems/SystemConstructor/EnemiesMovementSystem</title>
<g id="clust1" class="cluster"><title>clusterdir_289c9e282717af8b03cbc49f45b6383f</title>
<g id="a_clust1"><a xlink:href="dir_289c9e282717af8b03cbc49f45b6383f.html" target="_top" xlink:title="SystemConstructor">
<polygon fill="#ddddee" stroke="black" points="8,-208 8,-279 170,-279 170,-208 8,-208"/>
<text text-anchor="middle" x="89" y="-267" font-family="Helvetica,sans-Serif" font-size="10.00">SystemConstructor</text>
</a>
</g>
</g>
<!-- dir_7a6ea1122f5179884a31c7c3e7abc759 -->
<g id="node1" class="node"><title>dir_7a6ea1122f5179884a31c7c3e7abc759</title>
<g id="a_node1"><a xlink:href="dir_7a6ea1122f5179884a31c7c3e7abc759.html" target="_top" xlink:title="EnemiesMovementSystem">
<polygon fill="#eeeeff" stroke="black" points="162,-252 16,-252 16,-216 162,-216 162,-252"/>
<text text-anchor="middle" x="89" y="-231.5" font-family="Helvetica,sans-Serif" font-size="10.00">EnemiesMovementSystem</text>
</a>
</g>
</g>
<!-- dir_c610c8504d46288da7634b3c0b18263f -->
<g id="node2" class="node"><title>dir_c610c8504d46288da7634b3c0b18263f</title>
<g id="a_node2"><a xlink:href="dir_c610c8504d46288da7634b3c0b18263f.html" target="_top" xlink:title="Components">
<polygon fill="none" stroke="red" points="128,-180 50,-180 50,-144 128,-144 128,-180"/>
<text text-anchor="middle" x="89" y="-159.5" font-family="Helvetica,sans-Serif" font-size="10.00">Components</text>
</a>
</g>
</g>
<!-- dir_7a6ea1122f5179884a31c7c3e7abc759&#45;&gt;dir_c610c8504d46288da7634b3c0b18263f -->
<g id="edge5" class="edge"><title>dir_7a6ea1122f5179884a31c7c3e7abc759&#45;&gt;dir_c610c8504d46288da7634b3c0b18263f</title>
<path fill="none" stroke="black" d="M89,-215.697C89,-207.983 89,-198.712 89,-190.112"/>
<polygon fill="black" stroke="black" points="92.5001,-190.104 89,-180.104 85.5001,-190.104 92.5001,-190.104"/>
<g id="a_edge5&#45;headlabel"><a xlink:href="dir_000056_000001.html" target="_top" xlink:title="10">
<text text-anchor="middle" x="95.3393" y="-191.199" font-family="Helvetica,sans-Serif" font-size="10.00">10</text>
</a>
</g>
</g>
<!-- dir_4c7ee98193a6cba0af9aae7f963a60da -->
<g id="node3" class="node"><title>dir_4c7ee98193a6cba0af9aae7f963a60da</title>
<g id="a_node3"><a xlink:href="dir_4c7ee98193a6cba0af9aae7f963a60da.html" target="_top" xlink:title="Render">
<polygon fill="none" stroke="black" points="90,-108 36,-108 36,-72 90,-72 90,-108"/>
<text text-anchor="middle" x="63" y="-87.5" font-family="Helvetica,sans-Serif" font-size="10.00">Render</text>
</a>
</g>
</g>
<!-- dir_7a6ea1122f5179884a31c7c3e7abc759&#45;&gt;dir_4c7ee98193a6cba0af9aae7f963a60da -->
<g id="edge6" class="edge"><title>dir_7a6ea1122f5179884a31c7c3e7abc759&#45;&gt;dir_4c7ee98193a6cba0af9aae7f963a60da</title>
<path fill="none" stroke="black" d="M67.29,-215.787C57.2405,-206.414 46.3587,-193.9 41,-180 33.1257,-159.575 40.0616,-135.409 48.1674,-117.417"/>
<polygon fill="black" stroke="black" points="51.4644,-118.641 52.7044,-108.119 45.1734,-115.571 51.4644,-118.641"/>
<g id="a_edge6&#45;headlabel"><a xlink:href="dir_000056_000045.html" target="_top" xlink:title="1">
<text text-anchor="middle" x="52.4398" y="-120.617" font-family="Helvetica,sans-Serif" font-size="10.00">1</text>
</a>
</g>
</g>
<!-- dir_6bd92bd93c0d5d9980919215b46f20a3 -->
<g id="node4" class="node"><title>dir_6bd92bd93c0d5d9980919215b46f20a3</title>
<g id="a_node4"><a xlink:href="dir_6bd92bd93c0d5d9980919215b46f20a3.html" target="_top" xlink:title="Exceptions">
<polygon fill="none" stroke="black" points="152,-36 84,-36 84,-0 152,-0 152,-36"/>
<text text-anchor="middle" x="118" y="-15.5" font-family="Helvetica,sans-Serif" font-size="10.00">Exceptions</text>
</a>
</g>
</g>
<!-- dir_7a6ea1122f5179884a31c7c3e7abc759&#45;&gt;dir_6bd92bd93c0d5d9980919215b46f20a3 -->
<g id="edge7" class="edge"><title>dir_7a6ea1122f5179884a31c7c3e7abc759&#45;&gt;dir_6bd92bd93c0d5d9980919215b46f20a3</title>
<path fill="none" stroke="black" d="M110.71,-215.787C120.759,-206.414 131.641,-193.9 137,-180 154.266,-135.213 140.095,-78.647 128.71,-45.8722"/>
<polygon fill="black" stroke="black" points="131.866,-44.3103 125.155,-36.1122 125.289,-46.7062 131.866,-44.3103"/>
<g id="a_edge7&#45;headlabel"><a xlink:href="dir_000056_000038.html" target="_top" xlink:title="1">
<text text-anchor="middle" x="135.764" y="-44.2161" font-family="Helvetica,sans-Serif" font-size="10.00">1</text>
</a>
</g>
</g>
<!-- dir_c610c8504d46288da7634b3c0b18263f&#45;&gt;dir_4c7ee98193a6cba0af9aae7f963a60da -->
<g id="edge1" class="edge"><title>dir_c610c8504d46288da7634b3c0b18263f&#45;&gt;dir_4c7ee98193a6cba0af9aae7f963a60da</title>
<path fill="none" stroke="black" d="M76.6573,-143.697C72.9562,-135.898 69.246,-126.509 66.3813,-117.829"/>
<polygon fill="black" stroke="black" points="69.6887,-116.673 63.458,-108.104 62.985,-118.689 69.6887,-116.673"/>
<g id="a_edge1&#45;headlabel"><a xlink:href="dir_000001_000045.html" target="_top" xlink:title="3">
<text text-anchor="middle" x="73.4425" y="-116.799" font-family="Helvetica,sans-Serif" font-size="10.00">3</text>
</a>
</g>
</g>
<!-- dir_c610c8504d46288da7634b3c0b18263f&#45;&gt;dir_6bd92bd93c0d5d9980919215b46f20a3 -->
<g id="edge2" class="edge"><title>dir_c610c8504d46288da7634b3c0b18263f&#45;&gt;dir_6bd92bd93c0d5d9980919215b46f20a3</title>
<path fill="none" stroke="black" d="M92.4981,-143.871C97.4624,-119.564 106.6,-74.8187 112.483,-46.0132"/>
<polygon fill="black" stroke="black" points="115.918,-46.6874 114.49,-36.1893 109.059,-45.2867 115.918,-46.6874"/>
<g id="a_edge2&#45;headlabel"><a xlink:href="dir_000001_000038.html" target="_top" xlink:title="1">
<text text-anchor="middle" x="117.98" y="-48.2774" font-family="Helvetica,sans-Serif" font-size="10.00">1</text>
</a>
</g>
</g>
<!-- dir_4c7ee98193a6cba0af9aae7f963a60da&#45;&gt;dir_c610c8504d46288da7634b3c0b18263f -->
<g id="edge3" class="edge"><title>dir_4c7ee98193a6cba0af9aae7f963a60da&#45;&gt;dir_c610c8504d46288da7634b3c0b18263f</title>
<path fill="none" stroke="black" d="M75.2481,-108.104C78.9489,-115.876 82.6662,-125.257 85.5452,-133.949"/>
<polygon fill="black" stroke="black" points="82.2474,-135.135 88.4888,-143.697 88.9485,-133.112 82.2474,-135.135"/>
<g id="a_edge3&#45;headlabel"><a xlink:href="dir_000045_000001.html" target="_top" xlink:title="5">
<text text-anchor="middle" x="78.4903" y="-130.015" font-family="Helvetica,sans-Serif" font-size="10.00">5</text>
</a>
</g>
</g>
<!-- dir_4c7ee98193a6cba0af9aae7f963a60da&#45;&gt;dir_6bd92bd93c0d5d9980919215b46f20a3 -->
<g id="edge4" class="edge"><title>dir_4c7ee98193a6cba0af9aae7f963a60da&#45;&gt;dir_6bd92bd93c0d5d9980919215b46f20a3</title>
<path fill="none" stroke="black" d="M76.5955,-71.6966C83.1227,-63.3893 91.068,-53.2771 98.2466,-44.1407"/>
<polygon fill="black" stroke="black" points="101.135,-46.1299 104.561,-36.1043 95.6305,-41.8051 101.135,-46.1299"/>
<g id="a_edge4&#45;headlabel"><a xlink:href="dir_000045_000038.html" target="_top" xlink:title="1">
<text text-anchor="middle" x="101.147" y="-48.2106" font-family="Helvetica,sans-Serif" font-size="10.00">1</text>
</a>
</g>
</g>
</g>
</svg>
