<?xml version="1.0" encoding="UTF-8" standalone="no"?>
<!DOCTYPE svg PUBLIC "-//W3C//DTD SVG 1.1//EN"
 "http://www.w3.org/Graphics/SVG/1.1/DTD/svg11.dtd">
<!-- Generated by graphviz version 2.38.0 (20140413.2041)
 -->
<!-- Title: src/Entities/Factories Pages: 1 -->
<svg width="231pt" height="367pt"
 viewBox="0.00 0.00 231.32 367.00" xmlns="http://www.w3.org/2000/svg" xmlns:xlink="http://www.w3.org/1999/xlink">
<g id="graph0" class="graph" transform="scale(1 1) rotate(0) translate(4 363)">
<title>src/Entities/Factories</title>
<g id="clust1" class="cluster"><title>clusterdir_093f3b7f7c7a61ef21fffb3d339f67e1</title>
<g id="a_clust1"><a xlink:href="dir_093f3b7f7c7a61ef21fffb3d339f67e1.html" target="_top" xlink:title="Entities">
<polygon fill="#ddddee" stroke="black" points="67.3175,-280 67.3175,-351 143.318,-351 143.318,-280 67.3175,-280"/>
<text text-anchor="middle" x="105.318" y="-339" font-family="Helvetica,sans-Serif" font-size="10.00">Entities</text>
</a>
</g>
</g>
<!-- dir_a210a49ed660ba3a88bedec209eda968 -->
<g id="node1" class="node"><title>dir_a210a49ed660ba3a88bedec209eda968</title>
<g id="a_node1"><a xlink:href="dir_a210a49ed660ba3a88bedec209eda968.html" target="_top" xlink:title="Factories">
<polygon fill="#eeeeff" stroke="black" points="134.818,-324 75.8175,-324 75.8175,-288 134.818,-288 134.818,-324"/>
<text text-anchor="middle" x="105.318" y="-303.5" font-family="Helvetica,sans-Serif" font-size="10.00">Factories</text>
</a>
</g>
</g>
<!-- dir_c610c8504d46288da7634b3c0b18263f -->
<g id="node2" class="node"><title>dir_c610c8504d46288da7634b3c0b18263f</title>
<g id="a_node2"><a xlink:href="dir_c610c8504d46288da7634b3c0b18263f.html" target="_top" xlink:title="Components">
<polygon fill="none" stroke="red" points="111.318,-108 33.3175,-108 33.3175,-72 111.318,-72 111.318,-108"/>
<text text-anchor="middle" x="72.3175" y="-87.5" font-family="Helvetica,sans-Serif" font-size="10.00">Components</text>
</a>
</g>
</g>
<!-- dir_a210a49ed660ba3a88bedec209eda968&#45;&gt;dir_c610c8504d46288da7634b3c0b18263f -->
<g id="edge3" class="edge"><title>dir_a210a49ed660ba3a88bedec209eda968&#45;&gt;dir_c610c8504d46288da7634b3c0b18263f</title>
<path fill="none" stroke="black" d="M77.5175,-287.872C65.5462,-278.837 52.8224,-266.587 46.3175,-252 26.5668,-207.708 44.8841,-150.613 59.1708,-117.674"/>
<polygon fill="black" stroke="black" points="62.4932,-118.822 63.4285,-108.268 56.1161,-115.935 62.4932,-118.822"/>
<g id="a_edge3&#45;headlabel"><a xlink:href="dir_000036_000001.html" target="_top" xlink:title="4">
<text text-anchor="middle" x="63.5974" y="-120.767" font-family="Helvetica,sans-Serif" font-size="10.00">4</text>
</a>
</g>
</g>
<!-- dir_0c0333544ec44c57ec7d33d873fe36a2 -->
<g id="node3" class="node"><title>dir_0c0333544ec44c57ec7d33d873fe36a2</title>
<g id="a_node3"><a xlink:href="dir_0c0333544ec44c57ec7d33d873fe36a2.html" target="_top" xlink:title="Network">
<polygon fill="none" stroke="red" points="223.318,-108 167.318,-108 167.318,-72 223.318,-72 223.318,-108"/>
<text text-anchor="middle" x="195.318" y="-87.5" font-family="Helvetica,sans-Serif" font-size="10.00">Network</text>
</a>
</g>
</g>
<!-- dir_a210a49ed660ba3a88bedec209eda968&#45;&gt;dir_0c0333544ec44c57ec7d33d873fe36a2 -->
<g id="edge4" class="edge"><title>dir_a210a49ed660ba3a88bedec209eda968&#45;&gt;dir_0c0333544ec44c57ec7d33d873fe36a2</title>
<path fill="none" stroke="black" d="M134.894,-291.443C151.086,-282.507 170.086,-269.257 181.318,-252 207.694,-211.472 204.901,-152.541 200.259,-118.356"/>
<polygon fill="black" stroke="black" points="203.676,-117.546 198.722,-108.181 196.755,-118.591 203.676,-117.546"/>
<g id="a_edge4&#45;headlabel"><a xlink:href="dir_000036_000041.html" target="_top" xlink:title="1">
<text text-anchor="middle" x="207.021" y="-118.176" font-family="Helvetica,sans-Serif" font-size="10.00">1</text>
</a>
</g>
</g>
<!-- dir_6bd92bd93c0d5d9980919215b46f20a3 -->
<g id="node4" class="node"><title>dir_6bd92bd93c0d5d9980919215b46f20a3</title>
<g id="a_node4"><a xlink:href="dir_6bd92bd93c0d5d9980919215b46f20a3.html" target="_top" xlink:title="Exceptions">
<polygon fill="none" stroke="black" points="139.318,-36 71.3175,-36 71.3175,-0 139.318,-0 139.318,-36"/>
<text text-anchor="middle" x="105.318" y="-15.5" font-family="Helvetica,sans-Serif" font-size="10.00">Exceptions</text>
</a>
</g>
</g>
<!-- dir_a210a49ed660ba3a88bedec209eda968&#45;&gt;dir_6bd92bd93c0d5d9980919215b46f20a3 -->
<g id="edge5" class="edge"><title>dir_a210a49ed660ba3a88bedec209eda968&#45;&gt;dir_6bd92bd93c0d5d9980919215b46f20a3</title>
<path fill="none" stroke="black" d="M75.8038,-290.828C60.6698,-281.911 43.5263,-268.879 34.3175,-252 -4.05649,-181.664 -13.7926,-142.48 24.3175,-72 32.5919,-56.6977 47.4186,-45.1048 62.1457,-36.7235"/>
<polygon fill="black" stroke="black" points="64.0373,-39.6826 71.2431,-31.9155 60.7664,-33.4937 64.0373,-39.6826"/>
<g id="a_edge5&#45;headlabel"><a xlink:href="dir_000036_000038.html" target="_top" xlink:title="1">
<text text-anchor="middle" x="62.1859" y="-41.3724" font-family="Helvetica,sans-Serif" font-size="10.00">1</text>
</a>
</g>
</g>
<!-- dir_7ef50f4d5f08318e733b1532da00e919 -->
<g id="node5" class="node"><title>dir_7ef50f4d5f08318e733b1532da00e919</title>
<g id="a_node5"><a xlink:href="dir_7ef50f4d5f08318e733b1532da00e919.html" target="_top" xlink:title="EntityManager">
<polygon fill="none" stroke="black" points="186.318,-180 100.318,-180 100.318,-144 186.318,-144 186.318,-180"/>
<text text-anchor="middle" x="143.318" y="-159.5" font-family="Helvetica,sans-Serif" font-size="10.00">EntityManager</text>
</a>
</g>
</g>
<!-- dir_a210a49ed660ba3a88bedec209eda968&#45;&gt;dir_7ef50f4d5f08318e733b1532da00e919 -->
<g id="edge6" class="edge"><title>dir_a210a49ed660ba3a88bedec209eda968&#45;&gt;dir_7ef50f4d5f08318e733b1532da00e919</title>
<path fill="none" stroke="black" d="M133.118,-287.872C145.089,-278.837 157.813,-266.587 164.318,-252 173.264,-231.936 166.404,-207.56 158.21,-189.394"/>
<polygon fill="black" stroke="black" points="161.155,-187.449 153.613,-180.008 154.868,-190.529 161.155,-187.449"/>
<g id="a_edge6&#45;headlabel"><a xlink:href="dir_000036_000035.html" target="_top" xlink:title="1">
<text text-anchor="middle" x="165.286" y="-186.929" font-family="Helvetica,sans-Serif" font-size="10.00">1</text>
</a>
</g>
</g>
<!-- dir_407c77903c552c75ad67cb9ea27f8b48 -->
<g id="node6" class="node"><title>dir_407c77903c552c75ad67cb9ea27f8b48</title>
<g id="a_node6"><a xlink:href="dir_407c77903c552c75ad67cb9ea27f8b48.html" target="_top" xlink:title="EntityConstructor">
<polygon fill="none" stroke="red" points="155.318,-252 55.3175,-252 55.3175,-216 155.318,-216 155.318,-252"/>
<text text-anchor="middle" x="105.318" y="-231.5" font-family="Helvetica,sans-Serif" font-size="10.00">EntityConstructor</text>
</a>
</g>
</g>
<!-- dir_a210a49ed660ba3a88bedec209eda968&#45;&gt;dir_407c77903c552c75ad67cb9ea27f8b48 -->
<g id="edge7" class="edge"><title>dir_a210a49ed660ba3a88bedec209eda968&#45;&gt;dir_407c77903c552c75ad67cb9ea27f8b48</title>
<path fill="none" stroke="black" d="M105.318,-287.697C105.318,-279.983 105.318,-270.712 105.318,-262.112"/>
<polygon fill="black" stroke="black" points="108.818,-262.104 105.318,-252.104 101.818,-262.104 108.818,-262.104"/>
<g id="a_edge7&#45;headlabel"><a xlink:href="dir_000036_000009.html" target="_top" xlink:title="2">
<text text-anchor="middle" x="111.657" y="-263.199" font-family="Helvetica,sans-Serif" font-size="10.00">2</text>
</a>
</g>
</g>
<!-- dir_c610c8504d46288da7634b3c0b18263f&#45;&gt;dir_6bd92bd93c0d5d9980919215b46f20a3 -->
<g id="edge1" class="edge"><title>dir_c610c8504d46288da7634b3c0b18263f&#45;&gt;dir_6bd92bd93c0d5d9980919215b46f20a3</title>
<path fill="none" stroke="black" d="M80.4748,-71.6966C84.2313,-63.7284 88.7706,-54.0995 92.9359,-45.2641"/>
<polygon fill="black" stroke="black" points="96.1556,-46.6421 97.254,-36.1043 89.824,-43.6571 96.1556,-46.6421"/>
<g id="a_edge1&#45;headlabel"><a xlink:href="dir_000001_000038.html" target="_top" xlink:title="1">
<text text-anchor="middle" x="97.1911" y="-48.6042" font-family="Helvetica,sans-Serif" font-size="10.00">1</text>
</a>
</g>
</g>
<!-- dir_0c0333544ec44c57ec7d33d873fe36a2&#45;&gt;dir_6bd92bd93c0d5d9980919215b46f20a3 -->
<g id="edge2" class="edge"><title>dir_0c0333544ec44c57ec7d33d873fe36a2&#45;&gt;dir_6bd92bd93c0d5d9980919215b46f20a3</title>
<path fill="none" stroke="black" d="M173.07,-71.6966C161.736,-62.8807 147.787,-52.0321 135.499,-42.4742"/>
<polygon fill="black" stroke="black" points="137.351,-39.481 127.309,-36.1043 133.054,-45.0065 137.351,-39.481"/>
<g id="a_edge2&#45;headlabel"><a xlink:href="dir_000041_000038.html" target="_top" xlink:title="1">
<text text-anchor="middle" x="141.932" y="-36.9467" font-family="Helvetica,sans-Serif" font-size="10.00">1</text>
</a>
</g>
</g>
<!-- dir_7ef50f4d5f08318e733b1532da00e919&#45;&gt;dir_c610c8504d46288da7634b3c0b18263f -->
<g id="edge8" class="edge"><title>dir_7ef50f4d5f08318e733b1532da00e919&#45;&gt;dir_c610c8504d46288da7634b3c0b18263f</title>
<path fill="none" stroke="black" d="M125.767,-143.697C117.083,-135.135 106.455,-124.656 96.9692,-115.304"/>
<polygon fill="black" stroke="black" points="99.2445,-112.633 89.6662,-108.104 94.33,-117.617 99.2445,-112.633"/>
<g id="a_edge8&#45;headlabel"><a xlink:href="dir_000035_000001.html" target="_top" xlink:title="3">
<text text-anchor="middle" x="103.798" y="-110.635" font-family="Helvetica,sans-Serif" font-size="10.00">3</text>
</a>
</g>
</g>
<!-- dir_7ef50f4d5f08318e733b1532da00e919&#45;&gt;dir_0c0333544ec44c57ec7d33d873fe36a2 -->
<g id="edge9" class="edge"><title>dir_7ef50f4d5f08318e733b1532da00e919&#45;&gt;dir_0c0333544ec44c57ec7d33d873fe36a2</title>
<path fill="none" stroke="black" d="M156.171,-143.697C162.343,-135.389 169.855,-125.277 176.642,-116.141"/>
<polygon fill="black" stroke="black" points="179.458,-118.219 182.611,-108.104 173.839,-114.045 179.458,-118.219"/>
<g id="a_edge9&#45;headlabel"><a xlink:href="dir_000035_000041.html" target="_top" xlink:title="2">
<text text-anchor="middle" x="179.593" y="-120.298" font-family="Helvetica,sans-Serif" font-size="10.00">2</text>
</a>
</g>
</g>
<!-- dir_7ef50f4d5f08318e733b1532da00e919&#45;&gt;dir_6bd92bd93c0d5d9980919215b46f20a3 -->
<g id="edge10" class="edge"><title>dir_7ef50f4d5f08318e733b1532da00e919&#45;&gt;dir_6bd92bd93c0d5d9980919215b46f20a3</title>
<path fill="none" stroke="black" d="M139.024,-143.907C134.489,-125.967 127.073,-96.9555 120.318,-72 118.008,-63.4689 115.411,-54.1897 113.035,-45.8146"/>
<polygon fill="black" stroke="black" points="116.39,-44.8146 110.281,-36.1582 109.658,-46.7347 116.39,-44.8146"/>
<g id="a_edge10&#45;headlabel"><a xlink:href="dir_000035_000038.html" target="_top" xlink:title="2">
<text text-anchor="middle" x="120.106" y="-44.9926" font-family="Helvetica,sans-Serif" font-size="10.00">2</text>
</a>
</g>
</g>
<!-- dir_407c77903c552c75ad67cb9ea27f8b48&#45;&gt;dir_c610c8504d46288da7634b3c0b18263f -->
<g id="edge11" class="edge"><title>dir_407c77903c552c75ad67cb9ea27f8b48&#45;&gt;dir_c610c8504d46288da7634b3c0b18263f</title>
<path fill="none" stroke="black" d="M100.569,-215.867C97.7551,-205.513 94.1897,-192.034 91.3175,-180 86.3968,-159.383 81.4156,-135.933 77.7886,-118.281"/>
<polygon fill="black" stroke="black" points="81.1438,-117.217 75.718,-108.117 74.2846,-118.614 81.1438,-117.217"/>
<g id="a_edge11&#45;headlabel"><a xlink:href="dir_000009_000001.html" target="_top" xlink:title="146">
<text text-anchor="middle" x="84.6434" y="-117.672" font-family="Helvetica,sans-Serif" font-size="10.00">146</text>
</a>
</g>
</g>
<!-- dir_407c77903c552c75ad67cb9ea27f8b48&#45;&gt;dir_7ef50f4d5f08318e733b1532da00e919 -->
<g id="edge12" class="edge"><title>dir_407c77903c552c75ad67cb9ea27f8b48&#45;&gt;dir_7ef50f4d5f08318e733b1532da00e919</title>
<path fill="none" stroke="black" d="M114.711,-215.697C119.082,-207.644 124.375,-197.894 129.213,-188.982"/>
<polygon fill="black" stroke="black" points="132.337,-190.563 134.032,-180.104 126.185,-187.223 132.337,-190.563"/>
<g id="a_edge12&#45;headlabel"><a xlink:href="dir_000009_000035.html" target="_top" xlink:title="1">
<text text-anchor="middle" x="133.118" y="-192.576" font-family="Helvetica,sans-Serif" font-size="10.00">1</text>
</a>
</g>
</g>
</g>
</svg>
