<?xml version="1.0" encoding="UTF-8" standalone="no"?>
<!DOCTYPE svg PUBLIC "-//W3C//DTD SVG 1.1//EN"
 "http://www.w3.org/Graphics/SVG/1.1/DTD/svg11.dtd">
<!-- Generated by graphviz version 2.38.0 (20140413.2041)
 -->
<!-- Title: src/Systems/SystemManager Pages: 1 -->
<svg width="236pt" height="223pt"
 viewBox="0.00 0.00 236.00 223.00" xmlns="http://www.w3.org/2000/svg" xmlns:xlink="http://www.w3.org/1999/xlink">
<g id="graph0" class="graph" transform="scale(1 1) rotate(0) translate(4 219)">
<title>src/Systems/SystemManager</title>
<g id="clust1" class="cluster"><title>clusterdir_900c20bb70493231141df6997ccd6b87</title>
<g id="a_clust1"><a xlink:href="dir_900c20bb70493231141df6997ccd6b87.html" target="_top" xlink:title="Systems">
<polygon fill="#ddddee" stroke="black" points="108,-136 108,-207 220,-207 220,-136 108,-136"/>
<text text-anchor="middle" x="164" y="-195" font-family="Helvetica,sans-Serif" font-size="10.00">Systems</text>
</a>
</g>
</g>
<!-- dir_1160894028a428f438e3bcef638ce1e2 -->
<g id="node1" class="node"><title>dir_1160894028a428f438e3bcef638ce1e2</title>
<g id="a_node1"><a xlink:href="dir_1160894028a428f438e3bcef638ce1e2.html" target="_top" xlink:title="SystemManager">
<polygon fill="#eeeeff" stroke="black" points="211.5,-180 116.5,-180 116.5,-144 211.5,-144 211.5,-180"/>
<text text-anchor="middle" x="164" y="-159.5" font-family="Helvetica,sans-Serif" font-size="10.00">SystemManager</text>
</a>
</g>
</g>
<!-- dir_093f3b7f7c7a61ef21fffb3d339f67e1 -->
<g id="node2" class="node"><title>dir_093f3b7f7c7a61ef21fffb3d339f67e1</title>
<g id="a_node2"><a xlink:href="dir_093f3b7f7c7a61ef21fffb3d339f67e1.html" target="_top" xlink:title="Entities">
<polygon fill="none" stroke="red" points="86,-108 32,-108 32,-72 86,-72 86,-108"/>
<text text-anchor="middle" x="59" y="-87.5" font-family="Helvetica,sans-Serif" font-size="10.00">Entities</text>
</a>
</g>
</g>
<!-- dir_1160894028a428f438e3bcef638ce1e2&#45;&gt;dir_093f3b7f7c7a61ef21fffb3d339f67e1 -->
<g id="edge2" class="edge"><title>dir_1160894028a428f438e3bcef638ce1e2&#45;&gt;dir_093f3b7f7c7a61ef21fffb3d339f67e1</title>
<path fill="none" stroke="black" d="M138.314,-143.876C124.712,-134.808 107.828,-123.552 93.1388,-113.759"/>
<polygon fill="black" stroke="black" points="95.0466,-110.825 84.7846,-108.19 91.1637,-116.649 95.0466,-110.825"/>
<g id="a_edge2&#45;headlabel"><a xlink:href="dir_000062_000008.html" target="_top" xlink:title="2">
<text text-anchor="middle" x="99.6124" y="-107.956" font-family="Helvetica,sans-Serif" font-size="10.00">2</text>
</a>
</g>
</g>
<!-- dir_72b0d7f49fde90450b6e05dc81befa69 -->
<g id="node3" class="node"><title>dir_72b0d7f49fde90450b6e05dc81befa69</title>
<g id="a_node3"><a xlink:href="dir_72b0d7f49fde90450b6e05dc81befa69.html" target="_top" xlink:title="ManagerWrapper">
<polygon fill="none" stroke="black" points="98,-180 7.10543e-15,-180 7.10543e-15,-144 98,-144 98,-180"/>
<text text-anchor="middle" x="49" y="-159.5" font-family="Helvetica,sans-Serif" font-size="10.00">ManagerWrapper</text>
</a>
</g>
</g>
<!-- dir_1160894028a428f438e3bcef638ce1e2&#45;&gt;dir_72b0d7f49fde90450b6e05dc81befa69 -->
<g id="edge3" class="edge"><title>dir_1160894028a428f438e3bcef638ce1e2&#45;&gt;dir_72b0d7f49fde90450b6e05dc81befa69</title>
<path fill="none" stroke="black" d="M116.348,-162C113.732,-162 111.117,-162 108.502,-162"/>
<polygon fill="black" stroke="black" points="108.414,-158.5 98.4141,-162 108.414,-165.5 108.414,-158.5"/>
<g id="a_edge3&#45;headlabel"><a xlink:href="dir_000062_000040.html" target="_top" xlink:title="1">
<text text-anchor="middle" x="112.009" y="-153.161" font-family="Helvetica,sans-Serif" font-size="10.00">1</text>
</a>
</g>
</g>
<!-- dir_ee001d497cfb0622591b7eb1d04ce131 -->
<g id="node4" class="node"><title>dir_ee001d497cfb0622591b7eb1d04ce131</title>
<g id="a_node4"><a xlink:href="dir_ee001d497cfb0622591b7eb1d04ce131.html" target="_top" xlink:title="SystemResponse">
<polygon fill="none" stroke="black" points="203.5,-108 104.5,-108 104.5,-72 203.5,-72 203.5,-108"/>
<text text-anchor="middle" x="154" y="-87.5" font-family="Helvetica,sans-Serif" font-size="10.00">SystemResponse</text>
</a>
</g>
</g>
<!-- dir_1160894028a428f438e3bcef638ce1e2&#45;&gt;dir_ee001d497cfb0622591b7eb1d04ce131 -->
<g id="edge4" class="edge"><title>dir_1160894028a428f438e3bcef638ce1e2&#45;&gt;dir_ee001d497cfb0622591b7eb1d04ce131</title>
<path fill="none" stroke="black" d="M161.528,-143.697C160.426,-135.983 159.102,-126.712 157.873,-118.112"/>
<polygon fill="black" stroke="black" points="161.323,-117.509 156.443,-108.104 154.393,-118.499 161.323,-117.509"/>
<g id="a_edge4&#45;headlabel"><a xlink:href="dir_000062_000063.html" target="_top" xlink:title="1">
<text text-anchor="middle" x="164.642" y="-118.166" font-family="Helvetica,sans-Serif" font-size="10.00">1</text>
</a>
</g>
</g>
<!-- dir_6bd92bd93c0d5d9980919215b46f20a3 -->
<g id="node5" class="node"><title>dir_6bd92bd93c0d5d9980919215b46f20a3</title>
<g id="a_node5"><a xlink:href="dir_6bd92bd93c0d5d9980919215b46f20a3.html" target="_top" xlink:title="Exceptions">
<polygon fill="none" stroke="black" points="179,-36 111,-36 111,-0 179,-0 179,-36"/>
<text text-anchor="middle" x="145" y="-15.5" font-family="Helvetica,sans-Serif" font-size="10.00">Exceptions</text>
</a>
</g>
</g>
<!-- dir_1160894028a428f438e3bcef638ce1e2&#45;&gt;dir_6bd92bd93c0d5d9980919215b46f20a3 -->
<g id="edge5" class="edge"><title>dir_1160894028a428f438e3bcef638ce1e2&#45;&gt;dir_6bd92bd93c0d5d9980919215b46f20a3</title>
<path fill="none" stroke="black" d="M186.153,-143.875C196.41,-134.524 207.519,-122.003 213,-108 218.832,-93.1008 220.022,-86.3766 213,-72 207.194,-60.1143 197.293,-50.1186 186.816,-42.1245"/>
<polygon fill="black" stroke="black" points="188.544,-39.0595 178.358,-36.1447 184.503,-44.7754 188.544,-39.0595"/>
<g id="a_edge5&#45;headlabel"><a xlink:href="dir_000062_000038.html" target="_top" xlink:title="1">
<text text-anchor="middle" x="193.118" y="-36.3161" font-family="Helvetica,sans-Serif" font-size="10.00">1</text>
</a>
</g>
</g>
<!-- dir_093f3b7f7c7a61ef21fffb3d339f67e1&#45;&gt;dir_6bd92bd93c0d5d9980919215b46f20a3 -->
<g id="edge1" class="edge"><title>dir_093f3b7f7c7a61ef21fffb3d339f67e1&#45;&gt;dir_6bd92bd93c0d5d9980919215b46f20a3</title>
<path fill="none" stroke="black" d="M80.2584,-71.6966C91.0894,-62.8807 104.418,-52.0321 116.16,-42.4742"/>
<polygon fill="black" stroke="black" points="118.44,-45.1316 123.986,-36.1043 114.021,-39.7026 118.44,-45.1316"/>
<g id="a_edge1&#45;headlabel"><a xlink:href="dir_000008_000038.html" target="_top" xlink:title="3">
<text text-anchor="middle" x="117.444" y="-47.1027" font-family="Helvetica,sans-Serif" font-size="10.00">3</text>
</a>
</g>
</g>
<!-- dir_72b0d7f49fde90450b6e05dc81befa69&#45;&gt;dir_1160894028a428f438e3bcef638ce1e2 -->
<g id="edge7" class="edge"><title>dir_72b0d7f49fde90450b6e05dc81befa69&#45;&gt;dir_1160894028a428f438e3bcef638ce1e2</title>
<path fill="none" stroke="black" d="M98.4141,-162C101.029,-162 103.645,-162 106.26,-162"/>
<polygon fill="black" stroke="black" points="106.348,-165.5 116.348,-162 106.348,-158.5 106.348,-165.5"/>
<g id="a_edge7&#45;headlabel"><a xlink:href="dir_000040_000062.html" target="_top" xlink:title="1">
<text text-anchor="middle" x="102.753" y="-165.839" font-family="Helvetica,sans-Serif" font-size="10.00">1</text>
</a>
</g>
</g>
<!-- dir_72b0d7f49fde90450b6e05dc81befa69&#45;&gt;dir_093f3b7f7c7a61ef21fffb3d339f67e1 -->
<g id="edge6" class="edge"><title>dir_72b0d7f49fde90450b6e05dc81befa69&#45;&gt;dir_093f3b7f7c7a61ef21fffb3d339f67e1</title>
<path fill="none" stroke="black" d="M51.4719,-143.697C52.5739,-135.983 53.8982,-126.712 55.1268,-118.112"/>
<polygon fill="black" stroke="black" points="58.607,-118.499 56.5565,-108.104 51.6774,-117.509 58.607,-118.499"/>
<g id="a_edge6&#45;headlabel"><a xlink:href="dir_000040_000008.html" target="_top" xlink:title="1">
<text text-anchor="middle" x="60.9095" y="-119.959" font-family="Helvetica,sans-Serif" font-size="10.00">1</text>
</a>
</g>
</g>
</g>
</svg>
