<?xml version="1.0" encoding="UTF-8" standalone="no"?>
<!DOCTYPE svg PUBLIC "-//W3C//DTD SVG 1.1//EN"
 "http://www.w3.org/Graphics/SVG/1.1/DTD/svg11.dtd">
<!-- Generated by graphviz version 2.38.0 (20140413.2041)
 -->
<!-- Title: src/Systems/SystemConstructor/ChooseRoomSystem Pages: 1 -->
<svg width="275pt" height="367pt"
 viewBox="0.00 0.00 275.00 367.00" xmlns="http://www.w3.org/2000/svg" xmlns:xlink="http://www.w3.org/1999/xlink">
<g id="graph0" class="graph" transform="scale(1 1) rotate(0) translate(4 363)">
<title>src/Systems/SystemConstructor/ChooseRoomSystem</title>
<g id="clust1" class="cluster"><title>clusterdir_289c9e282717af8b03cbc49f45b6383f</title>
<g id="a_clust1"><a xlink:href="dir_289c9e282717af8b03cbc49f45b6383f.html" target="_top" xlink:title="SystemConstructor">
<polygon fill="#ddddee" stroke="black" points="8,-280 8,-351 140,-351 140,-280 8,-280"/>
<text text-anchor="middle" x="74" y="-339" font-family="Helvetica,sans-Serif" font-size="10.00">SystemConstructor</text>
</a>
</g>
</g>
<!-- dir_4287f517605ebc1d0517909b75117874 -->
<g id="node1" class="node"><title>dir_4287f517605ebc1d0517909b75117874</title>
<g id="a_node1"><a xlink:href="dir_4287f517605ebc1d0517909b75117874.html" target="_top" xlink:title="ChooseRoomSystem">
<polygon fill="#eeeeff" stroke="black" points="132,-324 16,-324 16,-288 132,-288 132,-324"/>
<text text-anchor="middle" x="74" y="-303.5" font-family="Helvetica,sans-Serif" font-size="10.00">ChooseRoomSystem</text>
</a>
</g>
</g>
<!-- dir_c610c8504d46288da7634b3c0b18263f -->
<g id="node2" class="node"><title>dir_c610c8504d46288da7634b3c0b18263f</title>
<g id="a_node2"><a xlink:href="dir_c610c8504d46288da7634b3c0b18263f.html" target="_top" xlink:title="Components">
<polygon fill="none" stroke="red" points="180,-180 102,-180 102,-144 180,-144 180,-180"/>
<text text-anchor="middle" x="141" y="-159.5" font-family="Helvetica,sans-Serif" font-size="10.00">Components</text>
</a>
</g>
</g>
<!-- dir_4287f517605ebc1d0517909b75117874&#45;&gt;dir_c610c8504d46288da7634b3c0b18263f -->
<g id="edge7" class="edge"><title>dir_4287f517605ebc1d0517909b75117874&#45;&gt;dir_c610c8504d46288da7634b3c0b18263f</title>
<path fill="none" stroke="black" d="M100.092,-287.939C111.886,-278.766 124.774,-266.382 132,-252 141.617,-232.859 143.484,-208.508 143.16,-190.118"/>
<polygon fill="black" stroke="black" points="146.654,-189.915 142.758,-180.063 139.66,-190.195 146.654,-189.915"/>
<g id="a_edge7&#45;headlabel"><a xlink:href="dir_000053_000001.html" target="_top" xlink:title="2">
<text text-anchor="middle" x="149.635" y="-190.893" font-family="Helvetica,sans-Serif" font-size="10.00">2</text>
</a>
</g>
</g>
<!-- dir_093f3b7f7c7a61ef21fffb3d339f67e1 -->
<g id="node3" class="node"><title>dir_093f3b7f7c7a61ef21fffb3d339f67e1</title>
<g id="a_node3"><a xlink:href="dir_093f3b7f7c7a61ef21fffb3d339f67e1.html" target="_top" xlink:title="Entities">
<polygon fill="none" stroke="red" points="113,-108 59,-108 59,-72 113,-72 113,-108"/>
<text text-anchor="middle" x="86" y="-87.5" font-family="Helvetica,sans-Serif" font-size="10.00">Entities</text>
</a>
</g>
</g>
<!-- dir_4287f517605ebc1d0517909b75117874&#45;&gt;dir_093f3b7f7c7a61ef21fffb3d339f67e1 -->
<g id="edge8" class="edge"><title>dir_4287f517605ebc1d0517909b75117874&#45;&gt;dir_093f3b7f7c7a61ef21fffb3d339f67e1</title>
<path fill="none" stroke="black" d="M46.6604,-287.775C34.8896,-278.718 22.3826,-266.478 16,-252 9.54594,-237.359 11.9603,-231.482 16,-216 25.7318,-178.704 49.3325,-140.757 66.4449,-116.613"/>
<polygon fill="black" stroke="black" points="69.3848,-118.521 72.4183,-108.37 63.7165,-114.414 69.3848,-118.521"/>
<g id="a_edge8&#45;headlabel"><a xlink:href="dir_000053_000008.html" target="_top" xlink:title="1">
<text text-anchor="middle" x="69.5749" y="-120.598" font-family="Helvetica,sans-Serif" font-size="10.00">1</text>
</a>
</g>
</g>
<!-- dir_5e4479035860cf5bcbad91b0602a81f2 -->
<g id="node4" class="node"><title>dir_5e4479035860cf5bcbad91b0602a81f2</title>
<g id="a_node4"><a xlink:href="dir_5e4479035860cf5bcbad91b0602a81f2.html" target="_top" xlink:title="DisplaySystem">
<polygon fill="none" stroke="black" points="267,-252 179,-252 179,-216 267,-216 267,-252"/>
<text text-anchor="middle" x="223" y="-231.5" font-family="Helvetica,sans-Serif" font-size="10.00">DisplaySystem</text>
</a>
</g>
</g>
<!-- dir_4287f517605ebc1d0517909b75117874&#45;&gt;dir_5e4479035860cf5bcbad91b0602a81f2 -->
<g id="edge9" class="edge"><title>dir_4287f517605ebc1d0517909b75117874&#45;&gt;dir_5e4479035860cf5bcbad91b0602a81f2</title>
<path fill="none" stroke="black" d="M110.45,-287.876C130.638,-278.392 155.921,-266.513 177.408,-256.419"/>
<polygon fill="black" stroke="black" points="179.106,-259.488 186.669,-252.068 176.13,-253.153 179.106,-259.488"/>
<g id="a_edge9&#45;headlabel"><a xlink:href="dir_000053_000055.html" target="_top" xlink:title="1">
<text text-anchor="middle" x="177.06" y="-261.087" font-family="Helvetica,sans-Serif" font-size="10.00">1</text>
</a>
</g>
</g>
<!-- dir_72b0d7f49fde90450b6e05dc81befa69 -->
<g id="node5" class="node"><title>dir_72b0d7f49fde90450b6e05dc81befa69</title>
<g id="a_node5"><a xlink:href="dir_72b0d7f49fde90450b6e05dc81befa69.html" target="_top" xlink:title="ManagerWrapper">
<polygon fill="none" stroke="black" points="123,-252 25,-252 25,-216 123,-216 123,-252"/>
<text text-anchor="middle" x="74" y="-231.5" font-family="Helvetica,sans-Serif" font-size="10.00">ManagerWrapper</text>
</a>
</g>
</g>
<!-- dir_4287f517605ebc1d0517909b75117874&#45;&gt;dir_72b0d7f49fde90450b6e05dc81befa69 -->
<g id="edge10" class="edge"><title>dir_4287f517605ebc1d0517909b75117874&#45;&gt;dir_72b0d7f49fde90450b6e05dc81befa69</title>
<path fill="none" stroke="black" d="M74,-287.697C74,-279.983 74,-270.712 74,-262.112"/>
<polygon fill="black" stroke="black" points="77.5001,-262.104 74,-252.104 70.5001,-262.104 77.5001,-262.104"/>
<g id="a_edge10&#45;headlabel"><a xlink:href="dir_000053_000040.html" target="_top" xlink:title="1">
<text text-anchor="middle" x="80.3393" y="-263.199" font-family="Helvetica,sans-Serif" font-size="10.00">1</text>
</a>
</g>
</g>
<!-- dir_6bd92bd93c0d5d9980919215b46f20a3 -->
<g id="node6" class="node"><title>dir_6bd92bd93c0d5d9980919215b46f20a3</title>
<g id="a_node6"><a xlink:href="dir_6bd92bd93c0d5d9980919215b46f20a3.html" target="_top" xlink:title="Exceptions">
<polygon fill="none" stroke="black" points="147,-36 79,-36 79,-0 147,-0 147,-36"/>
<text text-anchor="middle" x="113" y="-15.5" font-family="Helvetica,sans-Serif" font-size="10.00">Exceptions</text>
</a>
</g>
</g>
<!-- dir_4287f517605ebc1d0517909b75117874&#45;&gt;dir_6bd92bd93c0d5d9980919215b46f20a3 -->
<g id="edge11" class="edge"><title>dir_4287f517605ebc1d0517909b75117874&#45;&gt;dir_6bd92bd93c0d5d9980919215b46f20a3</title>
<path fill="none" stroke="black" d="M42.4204,-287.776C29.5501,-278.931 16.0583,-266.863 9,-252 2.13619,-237.547 7.14924,-231.893 9,-216 16.6973,-149.903 12.6152,-127.049 50,-72 57.5401,-60.8972 68.0246,-50.8088 78.2792,-42.4845"/>
<polygon fill="black" stroke="black" points="80.6298,-45.091 86.3933,-36.201 76.3438,-39.5565 80.6298,-45.091"/>
<g id="a_edge11&#45;headlabel"><a xlink:href="dir_000053_000038.html" target="_top" xlink:title="1">
<text text-anchor="middle" x="79.5261" y="-47.0367" font-family="Helvetica,sans-Serif" font-size="10.00">1</text>
</a>
</g>
</g>
<!-- dir_c610c8504d46288da7634b3c0b18263f&#45;&gt;dir_093f3b7f7c7a61ef21fffb3d339f67e1 -->
<g id="edge1" class="edge"><title>dir_c610c8504d46288da7634b3c0b18263f&#45;&gt;dir_093f3b7f7c7a61ef21fffb3d339f67e1</title>
<path fill="none" stroke="black" d="M121.489,-143.697C114.18,-135.474 106.129,-125.483 99.4533,-116.421"/>
<polygon fill="black" stroke="black" points="102.189,-114.229 93.5441,-108.104 96.4833,-118.283 102.189,-114.229"/>
<g id="a_edge1&#45;headlabel"><a xlink:href="dir_000001_000008.html" target="_top" xlink:title="1">
<text text-anchor="middle" x="106.586" y="-113.014" font-family="Helvetica,sans-Serif" font-size="10.00">1</text>
</a>
</g>
</g>
<!-- dir_c610c8504d46288da7634b3c0b18263f&#45;&gt;dir_6bd92bd93c0d5d9980919215b46f20a3 -->
<g id="edge2" class="edge"><title>dir_c610c8504d46288da7634b3c0b18263f&#45;&gt;dir_6bd92bd93c0d5d9980919215b46f20a3</title>
<path fill="none" stroke="black" d="M137.623,-143.871C132.829,-119.564 124.007,-74.8187 118.327,-46.0132"/>
<polygon fill="black" stroke="black" points="121.758,-45.3232 116.389,-36.1893 114.89,-46.6775 121.758,-45.3232"/>
<g id="a_edge2&#45;headlabel"><a xlink:href="dir_000001_000038.html" target="_top" xlink:title="1">
<text text-anchor="middle" x="125.239" y="-45.8007" font-family="Helvetica,sans-Serif" font-size="10.00">1</text>
</a>
</g>
</g>
<!-- dir_093f3b7f7c7a61ef21fffb3d339f67e1&#45;&gt;dir_c610c8504d46288da7634b3c0b18263f -->
<g id="edge3" class="edge"><title>dir_093f3b7f7c7a61ef21fffb3d339f67e1&#45;&gt;dir_c610c8504d46288da7634b3c0b18263f</title>
<path fill="none" stroke="black" d="M105.334,-108.104C112.631,-116.298 120.687,-126.282 127.385,-135.359"/>
<polygon fill="black" stroke="black" points="124.669,-137.58 133.32,-143.697 130.372,-133.52 124.669,-137.58"/>
<g id="a_edge3&#45;headlabel"><a xlink:href="dir_000008_000001.html" target="_top" xlink:title="155">
<text text-anchor="middle" x="120.271" y="-133.799" font-family="Helvetica,sans-Serif" font-size="10.00">155</text>
</a>
</g>
</g>
<!-- dir_093f3b7f7c7a61ef21fffb3d339f67e1&#45;&gt;dir_6bd92bd93c0d5d9980919215b46f20a3 -->
<g id="edge4" class="edge"><title>dir_093f3b7f7c7a61ef21fffb3d339f67e1&#45;&gt;dir_6bd92bd93c0d5d9980919215b46f20a3</title>
<path fill="none" stroke="black" d="M92.6742,-71.6966C95.7149,-63.8132 99.3827,-54.3042 102.761,-45.5464"/>
<polygon fill="black" stroke="black" points="106.069,-46.6939 106.403,-36.1043 99.5383,-44.1748 106.069,-46.6939"/>
<g id="a_edge4&#45;headlabel"><a xlink:href="dir_000008_000038.html" target="_top" xlink:title="3">
<text text-anchor="middle" x="107.425" y="-48.5695" font-family="Helvetica,sans-Serif" font-size="10.00">3</text>
</a>
</g>
</g>
<!-- dir_5e4479035860cf5bcbad91b0602a81f2&#45;&gt;dir_c610c8504d46288da7634b3c0b18263f -->
<g id="edge5" class="edge"><title>dir_5e4479035860cf5bcbad91b0602a81f2&#45;&gt;dir_c610c8504d46288da7634b3c0b18263f</title>
<path fill="none" stroke="black" d="M202.73,-215.697C192.502,-206.965 179.939,-196.24 168.822,-186.75"/>
<polygon fill="black" stroke="black" points="170.915,-183.935 161.037,-180.104 166.37,-189.259 170.915,-183.935"/>
<g id="a_edge5&#45;headlabel"><a xlink:href="dir_000055_000001.html" target="_top" xlink:title="4">
<text text-anchor="middle" x="175.492" y="-181.609" font-family="Helvetica,sans-Serif" font-size="10.00">4</text>
</a>
</g>
</g>
<!-- dir_5e4479035860cf5bcbad91b0602a81f2&#45;&gt;dir_6bd92bd93c0d5d9980919215b46f20a3 -->
<g id="edge6" class="edge"><title>dir_5e4479035860cf5bcbad91b0602a81f2&#45;&gt;dir_6bd92bd93c0d5d9980919215b46f20a3</title>
<path fill="none" stroke="black" d="M217.496,-215.883C211.403,-197.672 200.863,-168.211 189,-144 171.483,-108.25 146.924,-69.4151 130.514,-44.6764"/>
<polygon fill="black" stroke="black" points="133.334,-42.5975 124.865,-36.2318 127.516,-46.4896 133.334,-42.5975"/>
<g id="a_edge6&#45;headlabel"><a xlink:href="dir_000055_000038.html" target="_top" xlink:title="1">
<text text-anchor="middle" x="137.693" y="-41.5066" font-family="Helvetica,sans-Serif" font-size="10.00">1</text>
</a>
</g>
</g>
<!-- dir_72b0d7f49fde90450b6e05dc81befa69&#45;&gt;dir_c610c8504d46288da7634b3c0b18263f -->
<g id="edge12" class="edge"><title>dir_72b0d7f49fde90450b6e05dc81befa69&#45;&gt;dir_c610c8504d46288da7634b3c0b18263f</title>
<path fill="none" stroke="black" d="M90.5618,-215.697C98.6753,-207.22 108.588,-196.864 117.471,-187.583"/>
<polygon fill="black" stroke="black" points="120.243,-189.749 124.629,-180.104 115.186,-184.908 120.243,-189.749"/>
<g id="a_edge12&#45;headlabel"><a xlink:href="dir_000040_000001.html" target="_top" xlink:title="1">
<text text-anchor="middle" x="119.808" y="-191.809" font-family="Helvetica,sans-Serif" font-size="10.00">1</text>
</a>
</g>
</g>
<!-- dir_72b0d7f49fde90450b6e05dc81befa69&#45;&gt;dir_093f3b7f7c7a61ef21fffb3d339f67e1 -->
<g id="edge13" class="edge"><title>dir_72b0d7f49fde90450b6e05dc81befa69&#45;&gt;dir_093f3b7f7c7a61ef21fffb3d339f67e1</title>
<path fill="none" stroke="black" d="M75.4475,-215.871C77.4927,-191.67 81.2498,-147.211 83.6851,-118.393"/>
<polygon fill="black" stroke="black" points="87.1928,-118.449 84.5474,-108.189 80.2177,-117.859 87.1928,-118.449"/>
<g id="a_edge13&#45;headlabel"><a xlink:href="dir_000040_000008.html" target="_top" xlink:title="1">
<text text-anchor="middle" x="89.7194" y="-119.769" font-family="Helvetica,sans-Serif" font-size="10.00">1</text>
</a>
</g>
</g>
</g>
</svg>
