<?xml version="1.0" encoding="UTF-8" standalone="no"?>
<!DOCTYPE svg PUBLIC "-//W3C//DTD SVG 1.1//EN"
 "http://www.w3.org/Graphics/SVG/1.1/DTD/svg11.dtd">
<!-- Generated by graphviz version 2.38.0 (20140413.2041)
 -->
<!-- Title: src Pages: 1 -->
<svg width="392pt" height="724pt"
 viewBox="0.00 0.00 392.00 724.00" xmlns="http://www.w3.org/2000/svg" xmlns:xlink="http://www.w3.org/1999/xlink">
<g id="graph0" class="graph" transform="scale(1 1) rotate(0) translate(4 720)">
<title>src</title>
<g id="clust1" class="cluster"><title>clusterdir_68267d1309a1af8e8297ef4c3efbcdba</title>
<g id="a_clust1"><a xlink:href="dir_68267d1309a1af8e8297ef4c3efbcdba.html" target="_top">
<polygon fill="#eeeeff" stroke="black" points="8,-8 8,-708 376,-708 376,-8 8,-8"/>
</a>
</g>
</g>
<!-- dir_68267d1309a1af8e8297ef4c3efbcdba -->
<g id="node1" class="node"><title>dir_68267d1309a1af8e8297ef4c3efbcdba</title>
<text text-anchor="middle" x="184" y="-679.5" font-family="Helvetica,sans-Serif" font-size="10.00">src</text>
</g>
<!-- dir_10504429fd2cfba37486df15d0308dfc -->
<g id="node5" class="node"><title>dir_10504429fd2cfba37486df15d0308dfc</title>
<g id="a_node5"><a xlink:href="dir_10504429fd2cfba37486df15d0308dfc.html" target="_top" xlink:title="FactoriesWrapper">
<polygon fill="white" stroke="black" points="127,-628 29,-628 29,-592 127,-592 127,-628"/>
<text text-anchor="middle" x="78" y="-607.5" font-family="Helvetica,sans-Serif" font-size="10.00">FactoriesWrapper</text>
</a>
</g>
</g>
<!-- dir_68267d1309a1af8e8297ef4c3efbcdba&#45;&gt;dir_10504429fd2cfba37486df15d0308dfc -->
<g id="edge12" class="edge"><title>dir_68267d1309a1af8e8297ef4c3efbcdba&#45;&gt;dir_10504429fd2cfba37486df15d0308dfc</title>
<path fill="none" stroke="black" d="M158.069,-663.876C144.338,-654.808 127.294,-643.552 112.464,-633.759"/>
<polygon fill="black" stroke="black" points="114.304,-630.78 104.03,-628.19 110.446,-636.621 114.304,-630.78"/>
<g id="a_edge12&#45;headlabel"><a xlink:href="dir_000000_000039.html" target="_top" xlink:title="1">
<text text-anchor="middle" x="118.868" y="-627.891" font-family="Helvetica,sans-Serif" font-size="10.00">1</text>
</a>
</g>
</g>
<!-- dir_d665af80335f773f8bfcf2f56b3f3e8a -->
<g id="node11" class="node"><title>dir_d665af80335f773f8bfcf2f56b3f3e8a</title>
<g id="a_node11"><a xlink:href="dir_d665af80335f773f8bfcf2f56b3f3e8a.html" target="_top" xlink:title="Scenes">
<polygon fill="white" stroke="black" points="211,-628 157,-628 157,-592 211,-592 211,-628"/>
<text text-anchor="middle" x="184" y="-607.5" font-family="Helvetica,sans-Serif" font-size="10.00">Scenes</text>
</a>
</g>
</g>
<!-- dir_68267d1309a1af8e8297ef4c3efbcdba&#45;&gt;dir_d665af80335f773f8bfcf2f56b3f3e8a -->
<g id="edge11" class="edge"><title>dir_68267d1309a1af8e8297ef4c3efbcdba&#45;&gt;dir_d665af80335f773f8bfcf2f56b3f3e8a</title>
<path fill="none" stroke="black" d="M184,-663.697C184,-655.983 184,-646.712 184,-638.112"/>
<polygon fill="black" stroke="black" points="187.5,-638.104 184,-628.104 180.5,-638.104 187.5,-638.104"/>
<g id="a_edge11&#45;headlabel"><a xlink:href="dir_000000_000047.html" target="_top" xlink:title="1">
<text text-anchor="middle" x="190.339" y="-639.199" font-family="Helvetica,sans-Serif" font-size="10.00">1</text>
</a>
</g>
</g>
<!-- dir_770ce52091e736e8a5c951118a509018 -->
<g id="node13" class="node"><title>dir_770ce52091e736e8a5c951118a509018</title>
<g id="a_node13"><a xlink:href="dir_770ce52091e736e8a5c951118a509018.html" target="_top" xlink:title="TestNetwork">
<polygon fill="white" stroke="black" points="368,-556 294,-556 294,-520 368,-520 368,-556"/>
<text text-anchor="middle" x="331" y="-535.5" font-family="Helvetica,sans-Serif" font-size="10.00">TestNetwork</text>
</a>
</g>
</g>
<!-- dir_68267d1309a1af8e8297ef4c3efbcdba&#45;&gt;dir_770ce52091e736e8a5c951118a509018 -->
<g id="edge10" class="edge"><title>dir_68267d1309a1af8e8297ef4c3efbcdba&#45;&gt;dir_770ce52091e736e8a5c951118a509018</title>
<path fill="none" stroke="black" d="M201.732,-663.871C227.668,-638.817 276.08,-592.052 305.734,-563.406"/>
<polygon fill="black" stroke="black" points="308.445,-565.654 313.205,-556.189 303.581,-560.62 308.445,-565.654"/>
<g id="a_edge10&#45;headlabel"><a xlink:href="dir_000000_000064.html" target="_top" xlink:title="1">
<text text-anchor="middle" x="307.832" y="-567.694" font-family="Helvetica,sans-Serif" font-size="10.00">1</text>
</a>
</g>
</g>
<!-- dir_c610c8504d46288da7634b3c0b18263f -->
<g id="node2" class="node"><title>dir_c610c8504d46288da7634b3c0b18263f</title>
<g id="a_node2"><a xlink:href="dir_c610c8504d46288da7634b3c0b18263f.html" target="_top" xlink:title="Components">
<polygon fill="white" stroke="red" points="223,-484 145,-484 145,-448 223,-448 223,-484"/>
<text text-anchor="middle" x="184" y="-463.5" font-family="Helvetica,sans-Serif" font-size="10.00">Components</text>
</a>
</g>
</g>
<!-- dir_093f3b7f7c7a61ef21fffb3d339f67e1 -->
<g id="node3" class="node"><title>dir_093f3b7f7c7a61ef21fffb3d339f67e1</title>
<g id="a_node3"><a xlink:href="dir_093f3b7f7c7a61ef21fffb3d339f67e1.html" target="_top" xlink:title="Entities">
<polygon fill="white" stroke="red" points="211,-556 157,-556 157,-520 211,-520 211,-556"/>
<text text-anchor="middle" x="184" y="-535.5" font-family="Helvetica,sans-Serif" font-size="10.00">Entities</text>
</a>
</g>
</g>
<!-- dir_c610c8504d46288da7634b3c0b18263f&#45;&gt;dir_093f3b7f7c7a61ef21fffb3d339f67e1 -->
<g id="edge2" class="edge"><title>dir_c610c8504d46288da7634b3c0b18263f&#45;&gt;dir_093f3b7f7c7a61ef21fffb3d339f67e1</title>
<path fill="none" stroke="black" d="M189.895,-484.104C190.701,-491.791 190.937,-501.054 190.604,-509.665"/>
<polygon fill="black" stroke="black" points="187.109,-509.48 189.916,-519.697 194.092,-509.96 187.109,-509.48"/>
<g id="a_edge2&#45;headlabel"><a xlink:href="dir_000001_000008.html" target="_top" xlink:title="1">
<text text-anchor="middle" x="184.522" y="-503.2" font-family="Helvetica,sans-Serif" font-size="10.00">1</text>
</a>
</g>
</g>
<!-- dir_6bd92bd93c0d5d9980919215b46f20a3 -->
<g id="node4" class="node"><title>dir_6bd92bd93c0d5d9980919215b46f20a3</title>
<g id="a_node4"><a xlink:href="dir_6bd92bd93c0d5d9980919215b46f20a3.html" target="_top" xlink:title="Exceptions">
<polygon fill="white" stroke="black" points="278,-52 210,-52 210,-16 278,-16 278,-52"/>
<text text-anchor="middle" x="244" y="-31.5" font-family="Helvetica,sans-Serif" font-size="10.00">Exceptions</text>
</a>
</g>
</g>
<!-- dir_c610c8504d46288da7634b3c0b18263f&#45;&gt;dir_6bd92bd93c0d5d9980919215b46f20a3 -->
<g id="edge5" class="edge"><title>dir_c610c8504d46288da7634b3c0b18263f&#45;&gt;dir_6bd92bd93c0d5d9980919215b46f20a3</title>
<path fill="none" stroke="black" d="M191.398,-447.769C205.433,-414.035 235.464,-336.575 246,-268 257.327,-194.28 251.301,-105.889 247.042,-62.1991"/>
<polygon fill="black" stroke="black" points="250.508,-61.683 246.009,-52.0907 243.544,-62.3947 250.508,-61.683"/>
<g id="a_edge5&#45;headlabel"><a xlink:href="dir_000001_000038.html" target="_top" xlink:title="1">
<text text-anchor="middle" x="253.698" y="-62.4704" font-family="Helvetica,sans-Serif" font-size="10.00">1</text>
</a>
</g>
</g>
<!-- dir_4c7ee98193a6cba0af9aae7f963a60da -->
<g id="node8" class="node"><title>dir_4c7ee98193a6cba0af9aae7f963a60da</title>
<g id="a_node8"><a xlink:href="dir_4c7ee98193a6cba0af9aae7f963a60da.html" target="_top" xlink:title="Render">
<polygon fill="white" stroke="black" points="237,-268 183,-268 183,-232 237,-232 237,-268"/>
<text text-anchor="middle" x="210" y="-247.5" font-family="Helvetica,sans-Serif" font-size="10.00">Render</text>
</a>
</g>
</g>
<!-- dir_c610c8504d46288da7634b3c0b18263f&#45;&gt;dir_4c7ee98193a6cba0af9aae7f963a60da -->
<g id="edge4" class="edge"><title>dir_c610c8504d46288da7634b3c0b18263f&#45;&gt;dir_4c7ee98193a6cba0af9aae7f963a60da</title>
<path fill="none" stroke="black" d="M182.206,-447.849C183.17,-410.753 193.589,-322.81 202.034,-278.103"/>
<polygon fill="black" stroke="black" points="205.479,-278.727 204.021,-268.232 198.616,-277.345 205.479,-278.727"/>
<g id="a_edge4&#45;headlabel"><a xlink:href="dir_000001_000045.html" target="_top" xlink:title="3">
<text text-anchor="middle" x="207.553" y="-280.311" font-family="Helvetica,sans-Serif" font-size="10.00">3</text>
</a>
</g>
</g>
<!-- dir_900c20bb70493231141df6997ccd6b87 -->
<g id="node12" class="node"><title>dir_900c20bb70493231141df6997ccd6b87</title>
<g id="a_node12"><a xlink:href="dir_900c20bb70493231141df6997ccd6b87.html" target="_top" xlink:title="Systems">
<polygon fill="white" stroke="red" points="135.5,-412 76.5,-412 76.5,-376 135.5,-376 135.5,-412"/>
<text text-anchor="middle" x="106" y="-391.5" font-family="Helvetica,sans-Serif" font-size="10.00">Systems</text>
</a>
</g>
</g>
<!-- dir_c610c8504d46288da7634b3c0b18263f&#45;&gt;dir_900c20bb70493231141df6997ccd6b87 -->
<g id="edge3" class="edge"><title>dir_c610c8504d46288da7634b3c0b18263f&#45;&gt;dir_900c20bb70493231141df6997ccd6b87</title>
<path fill="none" stroke="black" d="M158.803,-447.697C148.38,-439.135 136.522,-428.656 126.62,-419.304"/>
<polygon fill="black" stroke="black" points="128.789,-416.533 119.164,-412.104 123.926,-421.569 128.789,-416.533"/>
<g id="a_edge3&#45;headlabel"><a xlink:href="dir_000001_000048.html" target="_top" xlink:title="1">
<text text-anchor="middle" x="133.347" y="-414.487" font-family="Helvetica,sans-Serif" font-size="10.00">1</text>
</a>
</g>
</g>
<!-- dir_a7363e98f9e0bdd87618633653859815 -->
<g id="node14" class="node"><title>dir_a7363e98f9e0bdd87618633653859815</title>
<g id="a_node14"><a xlink:href="dir_a7363e98f9e0bdd87618633653859815.html" target="_top" xlink:title="Utils">
<polygon fill="white" stroke="black" points="288,-412 234,-412 234,-376 288,-376 288,-412"/>
<text text-anchor="middle" x="261" y="-391.5" font-family="Helvetica,sans-Serif" font-size="10.00">Utils</text>
</a>
</g>
</g>
<!-- dir_c610c8504d46288da7634b3c0b18263f&#45;&gt;dir_a7363e98f9e0bdd87618633653859815 -->
<g id="edge1" class="edge"><title>dir_c610c8504d46288da7634b3c0b18263f&#45;&gt;dir_a7363e98f9e0bdd87618633653859815</title>
<path fill="none" stroke="black" d="M203.034,-447.697C212.545,-439.05 224.207,-428.449 234.57,-419.027"/>
<polygon fill="black" stroke="black" points="237.14,-421.421 242.185,-412.104 232.431,-416.241 237.14,-421.421"/>
<g id="a_edge1&#45;headlabel"><a xlink:href="dir_000001_000065.html" target="_top" xlink:title="5">
<text text-anchor="middle" x="236.39" y="-423.44" font-family="Helvetica,sans-Serif" font-size="10.00">5</text>
</a>
</g>
</g>
<!-- dir_093f3b7f7c7a61ef21fffb3d339f67e1&#45;&gt;dir_c610c8504d46288da7634b3c0b18263f -->
<g id="edge7" class="edge"><title>dir_093f3b7f7c7a61ef21fffb3d339f67e1&#45;&gt;dir_c610c8504d46288da7634b3c0b18263f</title>
<path fill="none" stroke="black" d="M178.084,-519.697C177.289,-511.983 177.062,-502.712 177.405,-494.112"/>
<polygon fill="black" stroke="black" points="180.898,-494.324 178.105,-484.104 173.915,-493.836 180.898,-494.324"/>
<g id="a_edge7&#45;headlabel"><a xlink:href="dir_000008_000001.html" target="_top" xlink:title="155">
<text text-anchor="middle" x="183.48" y="-495.608" font-family="Helvetica,sans-Serif" font-size="10.00">155</text>
</a>
</g>
</g>
<!-- dir_093f3b7f7c7a61ef21fffb3d339f67e1&#45;&gt;dir_6bd92bd93c0d5d9980919215b46f20a3 -->
<g id="edge9" class="edge"><title>dir_093f3b7f7c7a61ef21fffb3d339f67e1&#45;&gt;dir_6bd92bd93c0d5d9980919215b46f20a3</title>
<path fill="none" stroke="black" d="M156.847,-528.971C134.202,-520.978 102.581,-506.599 83,-484 12.5203,-402.656 17,-358.63 17,-251 17,-251 17,-251 17,-177 17,-133.99 22.6741,-116.371 55,-88 95.3761,-52.5637 157.693,-40.6726 199.619,-36.7662"/>
<polygon fill="black" stroke="black" points="200.131,-40.2362 209.813,-35.9356 199.562,-33.2593 200.131,-40.2362"/>
<g id="a_edge9&#45;headlabel"><a xlink:href="dir_000008_000038.html" target="_top" xlink:title="3">
<text text-anchor="middle" x="196.778" y="-40.8579" font-family="Helvetica,sans-Serif" font-size="10.00">3</text>
</a>
</g>
</g>
<!-- dir_0c0333544ec44c57ec7d33d873fe36a2 -->
<g id="node7" class="node"><title>dir_0c0333544ec44c57ec7d33d873fe36a2</title>
<g id="a_node7"><a xlink:href="dir_0c0333544ec44c57ec7d33d873fe36a2.html" target="_top" xlink:title="Network">
<polygon fill="white" stroke="red" points="339,-196 283,-196 283,-160 339,-160 339,-196"/>
<text text-anchor="middle" x="311" y="-175.5" font-family="Helvetica,sans-Serif" font-size="10.00">Network</text>
</a>
</g>
</g>
<!-- dir_093f3b7f7c7a61ef21fffb3d339f67e1&#45;&gt;dir_0c0333544ec44c57ec7d33d873fe36a2 -->
<g id="edge8" class="edge"><title>dir_093f3b7f7c7a61ef21fffb3d339f67e1&#45;&gt;dir_0c0333544ec44c57ec7d33d873fe36a2</title>
<path fill="none" stroke="black" d="M211.234,-525.063C252.724,-504.815 327,-459.552 327,-395 327,-395 327,-395 327,-321 327,-280.963 320.642,-234.973 315.941,-206.447"/>
<polygon fill="black" stroke="black" points="319.363,-205.69 314.238,-196.418 312.462,-206.862 319.363,-205.69"/>
<g id="a_edge8&#45;headlabel"><a xlink:href="dir_000008_000041.html" target="_top" xlink:title="4">
<text text-anchor="middle" x="322.764" y="-206.259" font-family="Helvetica,sans-Serif" font-size="10.00">4</text>
</a>
</g>
</g>
<!-- dir_093f3b7f7c7a61ef21fffb3d339f67e1&#45;&gt;dir_a7363e98f9e0bdd87618633653859815 -->
<g id="edge6" class="edge"><title>dir_093f3b7f7c7a61ef21fffb3d339f67e1&#45;&gt;dir_a7363e98f9e0bdd87618633653859815</title>
<path fill="none" stroke="black" d="M202.966,-519.88C212.775,-510.168 224.278,-497.317 232,-484 243.228,-464.637 250.769,-440.346 255.34,-422.036"/>
<polygon fill="black" stroke="black" points="258.749,-422.825 257.636,-412.288 251.936,-421.22 258.749,-422.825"/>
<g id="a_edge6&#45;headlabel"><a xlink:href="dir_000008_000065.html" target="_top" xlink:title="9">
<text text-anchor="middle" x="260.689" y="-424.474" font-family="Helvetica,sans-Serif" font-size="10.00">9</text>
</a>
</g>
</g>
<!-- dir_10504429fd2cfba37486df15d0308dfc&#45;&gt;dir_093f3b7f7c7a61ef21fffb3d339f67e1 -->
<g id="edge37" class="edge"><title>dir_10504429fd2cfba37486df15d0308dfc&#45;&gt;dir_093f3b7f7c7a61ef21fffb3d339f67e1</title>
<path fill="none" stroke="black" d="M103.931,-591.876C117.662,-582.808 134.706,-571.552 149.536,-561.759"/>
<polygon fill="black" stroke="black" points="151.554,-564.621 157.97,-556.19 147.696,-558.78 151.554,-564.621"/>
<g id="a_edge37&#45;headlabel"><a xlink:href="dir_000039_000008.html" target="_top" xlink:title="1">
<text text-anchor="middle" x="150.119" y="-566.471" font-family="Helvetica,sans-Serif" font-size="10.00">1</text>
</a>
</g>
</g>
<!-- dir_72b0d7f49fde90450b6e05dc81befa69 -->
<g id="node6" class="node"><title>dir_72b0d7f49fde90450b6e05dc81befa69</title>
<g id="a_node6"><a xlink:href="dir_72b0d7f49fde90450b6e05dc81befa69.html" target="_top" xlink:title="ManagerWrapper">
<polygon fill="white" stroke="black" points="154,-340 56,-340 56,-304 154,-304 154,-340"/>
<text text-anchor="middle" x="105" y="-319.5" font-family="Helvetica,sans-Serif" font-size="10.00">ManagerWrapper</text>
</a>
</g>
</g>
<!-- dir_10504429fd2cfba37486df15d0308dfc&#45;&gt;dir_72b0d7f49fde90450b6e05dc81befa69 -->
<g id="edge39" class="edge"><title>dir_10504429fd2cfba37486df15d0308dfc&#45;&gt;dir_72b0d7f49fde90450b6e05dc81befa69</title>
<path fill="none" stroke="black" d="M71.9714,-591.957C59.0161,-552.53 31.8857,-452.55 60,-376 63.7842,-365.696 70.5583,-356.025 77.7205,-347.837"/>
<polygon fill="black" stroke="black" points="80.34,-350.16 84.6214,-340.469 75.2309,-345.375 80.34,-350.16"/>
<g id="a_edge39&#45;headlabel"><a xlink:href="dir_000039_000040.html" target="_top" xlink:title="1">
<text text-anchor="middle" x="79.955" y="-352.225" font-family="Helvetica,sans-Serif" font-size="10.00">1</text>
</a>
</g>
</g>
<!-- dir_10504429fd2cfba37486df15d0308dfc&#45;&gt;dir_900c20bb70493231141df6997ccd6b87 -->
<g id="edge38" class="edge"><title>dir_10504429fd2cfba37486df15d0308dfc&#45;&gt;dir_900c20bb70493231141df6997ccd6b87</title>
<path fill="none" stroke="black" d="M80.244,-591.849C85.0874,-554.832 96.5558,-467.181 102.417,-422.386"/>
<polygon fill="black" stroke="black" points="105.918,-422.602 103.745,-412.232 98.9774,-421.694 105.918,-422.602"/>
<g id="a_edge38&#45;headlabel"><a xlink:href="dir_000039_000048.html" target="_top" xlink:title="2">
<text text-anchor="middle" x="108.267" y="-424.035" font-family="Helvetica,sans-Serif" font-size="10.00">2</text>
</a>
</g>
</g>
<!-- dir_72b0d7f49fde90450b6e05dc81befa69&#45;&gt;dir_c610c8504d46288da7634b3c0b18263f -->
<g id="edge21" class="edge"><title>dir_72b0d7f49fde90450b6e05dc81befa69&#45;&gt;dir_c610c8504d46288da7634b3c0b18263f</title>
<path fill="none" stroke="black" d="M118.971,-340.029C126.878,-350.121 136.628,-363.371 144,-376 155.745,-396.121 166.416,-420.309 173.776,-438.388"/>
<polygon fill="black" stroke="black" points="170.551,-439.75 177.51,-447.738 177.052,-437.154 170.551,-439.75"/>
<g id="a_edge21&#45;headlabel"><a xlink:href="dir_000040_000001.html" target="_top" xlink:title="1">
<text text-anchor="middle" x="166.581" y="-434.965" font-family="Helvetica,sans-Serif" font-size="10.00">1</text>
</a>
</g>
</g>
<!-- dir_72b0d7f49fde90450b6e05dc81befa69&#45;&gt;dir_093f3b7f7c7a61ef21fffb3d339f67e1 -->
<g id="edge22" class="edge"><title>dir_72b0d7f49fde90450b6e05dc81befa69&#45;&gt;dir_093f3b7f7c7a61ef21fffb3d339f67e1</title>
<path fill="none" stroke="black" d="M88.5365,-340.081C80.3462,-349.782 71.2964,-362.634 67,-376 62.1036,-391.232 62.2183,-396.731 67,-412 80.6236,-455.503 119.914,-491.743 149.229,-513.811"/>
<polygon fill="black" stroke="black" points="147.447,-516.844 157.584,-519.925 151.581,-511.195 147.447,-516.844"/>
<g id="a_edge22&#45;headlabel"><a xlink:href="dir_000040_000008.html" target="_top" xlink:title="1">
<text text-anchor="middle" x="142.87" y="-514.513" font-family="Helvetica,sans-Serif" font-size="10.00">1</text>
</a>
</g>
</g>
<!-- dir_72b0d7f49fde90450b6e05dc81befa69&#45;&gt;dir_4c7ee98193a6cba0af9aae7f963a60da -->
<g id="edge25" class="edge"><title>dir_72b0d7f49fde90450b6e05dc81befa69&#45;&gt;dir_4c7ee98193a6cba0af9aae7f963a60da</title>
<path fill="none" stroke="black" d="M130.686,-303.876C144.288,-294.808 161.172,-283.552 175.861,-273.759"/>
<polygon fill="black" stroke="black" points="177.836,-276.649 184.215,-268.19 173.953,-270.825 177.836,-276.649"/>
<g id="a_edge25&#45;headlabel"><a xlink:href="dir_000040_000045.html" target="_top" xlink:title="2">
<text text-anchor="middle" x="176.42" y="-278.505" font-family="Helvetica,sans-Serif" font-size="10.00">2</text>
</a>
</g>
</g>
<!-- dir_cc826e206496d9bb3cee340d21aea050 -->
<g id="node9" class="node"><title>dir_cc826e206496d9bb3cee340d21aea050</title>
<g id="a_node9"><a xlink:href="dir_cc826e206496d9bb3cee340d21aea050.html" target="_top" xlink:title="ResourceManager">
<polygon fill="white" stroke="black" points="215,-196 113,-196 113,-160 215,-160 215,-196"/>
<text text-anchor="middle" x="164" y="-175.5" font-family="Helvetica,sans-Serif" font-size="10.00">ResourceManager</text>
</a>
</g>
</g>
<!-- dir_72b0d7f49fde90450b6e05dc81befa69&#45;&gt;dir_cc826e206496d9bb3cee340d21aea050 -->
<g id="edge24" class="edge"><title>dir_72b0d7f49fde90450b6e05dc81befa69&#45;&gt;dir_cc826e206496d9bb3cee340d21aea050</title>
<path fill="none" stroke="black" d="M112.117,-303.871C122.261,-279.457 140.971,-234.426 152.933,-205.635"/>
<polygon fill="black" stroke="black" points="156.253,-206.767 156.858,-196.189 149.789,-204.081 156.253,-206.767"/>
<g id="a_edge24&#45;headlabel"><a xlink:href="dir_000040_000006.html" target="_top" xlink:title="2">
<text text-anchor="middle" x="157.496" y="-208.676" font-family="Helvetica,sans-Serif" font-size="10.00">2</text>
</a>
</g>
</g>
<!-- dir_72b0d7f49fde90450b6e05dc81befa69&#45;&gt;dir_900c20bb70493231141df6997ccd6b87 -->
<g id="edge23" class="edge"><title>dir_72b0d7f49fde90450b6e05dc81befa69&#45;&gt;dir_900c20bb70493231141df6997ccd6b87</title>
<path fill="none" stroke="black" d="M111.139,-340.104C112.055,-347.791 112.423,-357.054 112.214,-365.665"/>
<polygon fill="black" stroke="black" points="108.716,-365.521 111.669,-375.697 115.706,-365.901 108.716,-365.521"/>
<g id="a_edge23&#45;headlabel"><a xlink:href="dir_000040_000048.html" target="_top" xlink:title="1">
<text text-anchor="middle" x="106.076" y="-359.278" font-family="Helvetica,sans-Serif" font-size="10.00">1</text>
</a>
</g>
</g>
<!-- dir_0c0333544ec44c57ec7d33d873fe36a2&#45;&gt;dir_6bd92bd93c0d5d9980919215b46f20a3 -->
<g id="edge13" class="edge"><title>dir_0c0333544ec44c57ec7d33d873fe36a2&#45;&gt;dir_6bd92bd93c0d5d9980919215b46f20a3</title>
<path fill="none" stroke="black" d="M323.579,-159.963C335.686,-141.299 350.345,-110.965 337,-88 326.217,-69.4436 306.236,-56.8434 287.551,-48.602"/>
<polygon fill="black" stroke="black" points="288.822,-45.3406 278.241,-44.7904 286.169,-51.8186 288.822,-45.3406"/>
<g id="a_edge13&#45;headlabel"><a xlink:href="dir_000041_000038.html" target="_top" xlink:title="1">
<text text-anchor="middle" x="293.224" y="-41.575" font-family="Helvetica,sans-Serif" font-size="10.00">1</text>
</a>
</g>
</g>
<!-- dir_0c0333544ec44c57ec7d33d873fe36a2&#45;&gt;dir_4c7ee98193a6cba0af9aae7f963a60da -->
<g id="edge14" class="edge"><title>dir_0c0333544ec44c57ec7d33d873fe36a2&#45;&gt;dir_4c7ee98193a6cba0af9aae7f963a60da</title>
<path fill="none" stroke="black" d="M292.302,-196.04C279.147,-205.875 261.314,-218.305 245.555,-228.651"/>
<polygon fill="black" stroke="black" points="243.547,-225.782 237.055,-234.155 247.352,-231.657 243.547,-225.782"/>
<g id="a_edge14&#45;headlabel"><a xlink:href="dir_000041_000045.html" target="_top" xlink:title="1">
<text text-anchor="middle" x="245.021" y="-218.944" font-family="Helvetica,sans-Serif" font-size="10.00">1</text>
</a>
</g>
</g>
<!-- dir_42bf377ab7683cad4df24545e38566c4 -->
<g id="node10" class="node"><title>dir_42bf377ab7683cad4df24545e38566c4</title>
<g id="a_node10"><a xlink:href="dir_42bf377ab7683cad4df24545e38566c4.html" target="_top" xlink:title="Room">
<polygon fill="white" stroke="black" points="328,-124 274,-124 274,-88 328,-88 328,-124"/>
<text text-anchor="middle" x="301" y="-103.5" font-family="Helvetica,sans-Serif" font-size="10.00">Room</text>
</a>
</g>
</g>
<!-- dir_0c0333544ec44c57ec7d33d873fe36a2&#45;&gt;dir_42bf377ab7683cad4df24545e38566c4 -->
<g id="edge15" class="edge"><title>dir_0c0333544ec44c57ec7d33d873fe36a2&#45;&gt;dir_42bf377ab7683cad4df24545e38566c4</title>
<path fill="none" stroke="black" d="M308.528,-159.697C307.426,-151.983 306.102,-142.712 304.873,-134.112"/>
<polygon fill="black" stroke="black" points="308.323,-133.509 303.443,-124.104 301.393,-134.499 308.323,-133.509"/>
<g id="a_edge15&#45;headlabel"><a xlink:href="dir_000041_000046.html" target="_top" xlink:title="2">
<text text-anchor="middle" x="311.642" y="-134.166" font-family="Helvetica,sans-Serif" font-size="10.00">2</text>
</a>
</g>
</g>
<!-- dir_4c7ee98193a6cba0af9aae7f963a60da&#45;&gt;dir_c610c8504d46288da7634b3c0b18263f -->
<g id="edge32" class="edge"><title>dir_4c7ee98193a6cba0af9aae7f963a60da&#45;&gt;dir_c610c8504d46288da7634b3c0b18263f</title>
<path fill="none" stroke="black" d="M211.792,-268.232C210.814,-305.403 200.389,-393.352 191.947,-437.996"/>
<polygon fill="black" stroke="black" points="188.506,-437.355 189.961,-447.849 195.368,-438.738 188.506,-437.355"/>
<g id="a_edge32&#45;headlabel"><a xlink:href="dir_000045_000001.html" target="_top" xlink:title="5">
<text text-anchor="middle" x="186.433" y="-430.77" font-family="Helvetica,sans-Serif" font-size="10.00">5</text>
</a>
</g>
</g>
<!-- dir_4c7ee98193a6cba0af9aae7f963a60da&#45;&gt;dir_093f3b7f7c7a61ef21fffb3d339f67e1 -->
<g id="edge33" class="edge"><title>dir_4c7ee98193a6cba0af9aae7f963a60da&#45;&gt;dir_093f3b7f7c7a61ef21fffb3d339f67e1</title>
<path fill="none" stroke="black" d="M230.286,-268.147C261.307,-296.579 315.133,-355.923 297,-412 283.115,-454.942 244.928,-491.523 216.772,-513.814"/>
<polygon fill="black" stroke="black" points="214.543,-511.113 208.76,-519.99 218.817,-516.657 214.543,-511.113"/>
<g id="a_edge33&#45;headlabel"><a xlink:href="dir_000045_000008.html" target="_top" xlink:title="2">
<text text-anchor="middle" x="215.657" y="-504.17" font-family="Helvetica,sans-Serif" font-size="10.00">2</text>
</a>
</g>
</g>
<!-- dir_4c7ee98193a6cba0af9aae7f963a60da&#45;&gt;dir_6bd92bd93c0d5d9980919215b46f20a3 -->
<g id="edge36" class="edge"><title>dir_4c7ee98193a6cba0af9aae7f963a60da&#45;&gt;dir_6bd92bd93c0d5d9980919215b46f20a3</title>
<path fill="none" stroke="black" d="M215.13,-231.949C218.079,-221.625 221.652,-208.147 224,-196 233.028,-149.29 238.849,-94.1305 241.765,-62.0054"/>
<polygon fill="black" stroke="black" points="245.252,-62.3079 242.643,-52.0393 238.279,-61.6935 245.252,-62.3079"/>
<g id="a_edge36&#45;headlabel"><a xlink:href="dir_000045_000038.html" target="_top" xlink:title="1">
<text text-anchor="middle" x="247.765" y="-63.6377" font-family="Helvetica,sans-Serif" font-size="10.00">1</text>
</a>
</g>
</g>
<!-- dir_4c7ee98193a6cba0af9aae7f963a60da&#45;&gt;dir_0c0333544ec44c57ec7d33d873fe36a2 -->
<g id="edge34" class="edge"><title>dir_4c7ee98193a6cba0af9aae7f963a60da&#45;&gt;dir_0c0333544ec44c57ec7d33d873fe36a2</title>
<path fill="none" stroke="black" d="M229.051,-231.697C241.746,-222.22 258.689,-210.395 273.925,-200.349"/>
<polygon fill="black" stroke="black" points="276.179,-203.058 282.653,-194.671 272.362,-197.191 276.179,-203.058"/>
<g id="a_edge34&#45;headlabel"><a xlink:href="dir_000045_000041.html" target="_top" xlink:title="1">
<text text-anchor="middle" x="274.714" y="-204.898" font-family="Helvetica,sans-Serif" font-size="10.00">1</text>
</a>
</g>
</g>
<!-- dir_4c7ee98193a6cba0af9aae7f963a60da&#45;&gt;dir_cc826e206496d9bb3cee340d21aea050 -->
<g id="edge35" class="edge"><title>dir_4c7ee98193a6cba0af9aae7f963a60da&#45;&gt;dir_cc826e206496d9bb3cee340d21aea050</title>
<path fill="none" stroke="black" d="M198.629,-231.697C193.282,-223.559 186.796,-213.689 180.889,-204.701"/>
<polygon fill="black" stroke="black" points="183.657,-202.539 175.24,-196.104 177.807,-206.384 183.657,-202.539"/>
<g id="a_edge35&#45;headlabel"><a xlink:href="dir_000045_000006.html" target="_top" xlink:title="2">
<text text-anchor="middle" x="188.004" y="-201.484" font-family="Helvetica,sans-Serif" font-size="10.00">2</text>
</a>
</g>
</g>
<!-- dir_cc826e206496d9bb3cee340d21aea050&#45;&gt;dir_c610c8504d46288da7634b3c0b18263f -->
<g id="edge27" class="edge"><title>dir_cc826e206496d9bb3cee340d21aea050&#45;&gt;dir_c610c8504d46288da7634b3c0b18263f</title>
<path fill="none" stroke="black" d="M165.21,-196.306C168.567,-244.313 178.017,-379.439 182.091,-437.702"/>
<polygon fill="black" stroke="black" points="178.62,-438.234 182.809,-447.966 185.603,-437.746 178.62,-438.234"/>
<g id="a_edge27&#45;headlabel"><a xlink:href="dir_000006_000001.html" target="_top" xlink:title="1">
<text text-anchor="middle" x="175.537" y="-432.347" font-family="Helvetica,sans-Serif" font-size="10.00">1</text>
</a>
</g>
</g>
<!-- dir_cc826e206496d9bb3cee340d21aea050&#45;&gt;dir_6bd92bd93c0d5d9980919215b46f20a3 -->
<g id="edge28" class="edge"><title>dir_cc826e206496d9bb3cee340d21aea050&#45;&gt;dir_6bd92bd93c0d5d9980919215b46f20a3</title>
<path fill="none" stroke="black" d="M173.65,-159.871C187.465,-135.35 212.996,-90.0321 229.206,-61.2589"/>
<polygon fill="black" stroke="black" points="232.457,-62.6197 234.316,-52.1893 226.358,-59.1838 232.457,-62.6197"/>
<g id="a_edge28&#45;headlabel"><a xlink:href="dir_000006_000038.html" target="_top" xlink:title="5">
<text text-anchor="middle" x="233.166" y="-64.6451" font-family="Helvetica,sans-Serif" font-size="10.00">5</text>
</a>
</g>
</g>
<!-- dir_42bf377ab7683cad4df24545e38566c4&#45;&gt;dir_6bd92bd93c0d5d9980919215b46f20a3 -->
<g id="edge40" class="edge"><title>dir_42bf377ab7683cad4df24545e38566c4&#45;&gt;dir_6bd92bd93c0d5d9980919215b46f20a3</title>
<path fill="none" stroke="black" d="M286.91,-87.6966C280.077,-79.3046 271.743,-69.0705 264.244,-59.8613"/>
<polygon fill="black" stroke="black" points="266.956,-57.6487 257.928,-52.1043 261.528,-62.0687 266.956,-57.6487"/>
<g id="a_edge40&#45;headlabel"><a xlink:href="dir_000046_000038.html" target="_top" xlink:title="1">
<text text-anchor="middle" x="271.428" y="-56.1433" font-family="Helvetica,sans-Serif" font-size="10.00">1</text>
</a>
</g>
</g>
<!-- dir_d665af80335f773f8bfcf2f56b3f3e8a&#45;&gt;dir_093f3b7f7c7a61ef21fffb3d339f67e1 -->
<g id="edge29" class="edge"><title>dir_d665af80335f773f8bfcf2f56b3f3e8a&#45;&gt;dir_093f3b7f7c7a61ef21fffb3d339f67e1</title>
<path fill="none" stroke="black" d="M184,-591.697C184,-583.983 184,-574.712 184,-566.112"/>
<polygon fill="black" stroke="black" points="187.5,-566.104 184,-556.104 180.5,-566.104 187.5,-566.104"/>
<g id="a_edge29&#45;headlabel"><a xlink:href="dir_000047_000008.html" target="_top" xlink:title="25">
<text text-anchor="middle" x="190.339" y="-567.199" font-family="Helvetica,sans-Serif" font-size="10.00">25</text>
</a>
</g>
</g>
<!-- dir_d665af80335f773f8bfcf2f56b3f3e8a&#45;&gt;dir_6bd92bd93c0d5d9980919215b46f20a3 -->
<g id="edge31" class="edge"><title>dir_d665af80335f773f8bfcf2f56b3f3e8a&#45;&gt;dir_6bd92bd93c0d5d9980919215b46f20a3</title>
<path fill="none" stroke="black" d="M202.915,-591.859C227.267,-569.05 269.797,-526.619 298,-484 357.601,-393.934 367,-359.001 367,-251 367,-251 367,-251 367,-177 367,-136.145 369.312,-120.07 344,-88 329.772,-69.9738 307.693,-57.3602 287.896,-48.9743"/>
<polygon fill="black" stroke="black" points="288.991,-45.6429 278.405,-45.192 286.399,-52.1455 288.991,-45.6429"/>
<g id="a_edge31&#45;headlabel"><a xlink:href="dir_000047_000038.html" target="_top" xlink:title="1">
<text text-anchor="middle" x="293.381" y="-41.8361" font-family="Helvetica,sans-Serif" font-size="10.00">1</text>
</a>
</g>
</g>
<!-- dir_d665af80335f773f8bfcf2f56b3f3e8a&#45;&gt;dir_900c20bb70493231141df6997ccd6b87 -->
<g id="edge30" class="edge"><title>dir_d665af80335f773f8bfcf2f56b3f3e8a&#45;&gt;dir_900c20bb70493231141df6997ccd6b87</title>
<path fill="none" stroke="black" d="M171.135,-591.863C163.846,-581.734 154.846,-568.484 148,-556 131.247,-525.452 126.117,-517.626 117,-484 111.475,-463.621 108.716,-439.856 107.344,-422.012"/>
<polygon fill="black" stroke="black" points="110.834,-421.748 106.671,-412.006 103.85,-422.218 110.834,-421.748"/>
<g id="a_edge30&#45;headlabel"><a xlink:href="dir_000047_000048.html" target="_top" xlink:title="19">
<text text-anchor="middle" x="113.908" y="-422.644" font-family="Helvetica,sans-Serif" font-size="10.00">19</text>
</a>
</g>
</g>
<!-- dir_900c20bb70493231141df6997ccd6b87&#45;&gt;dir_c610c8504d46288da7634b3c0b18263f -->
<g id="edge16" class="edge"><title>dir_900c20bb70493231141df6997ccd6b87&#45;&gt;dir_c610c8504d46288da7634b3c0b18263f</title>
<path fill="none" stroke="black" d="M130.954,-412.104C141.355,-420.636 153.217,-431.108 163.149,-440.478"/>
<polygon fill="black" stroke="black" points="161.007,-443.275 170.635,-447.697 165.866,-438.236 161.007,-443.275"/>
<g id="a_edge16&#45;headlabel"><a xlink:href="dir_000048_000001.html" target="_top" xlink:title="56">
<text text-anchor="middle" x="156.449" y="-440.323" font-family="Helvetica,sans-Serif" font-size="10.00">56</text>
</a>
</g>
</g>
<!-- dir_900c20bb70493231141df6997ccd6b87&#45;&gt;dir_093f3b7f7c7a61ef21fffb3d339f67e1 -->
<g id="edge17" class="edge"><title>dir_900c20bb70493231141df6997ccd6b87&#45;&gt;dir_093f3b7f7c7a61ef21fffb3d339f67e1</title>
<path fill="none" stroke="black" d="M109.596,-412.285C113.963,-430.896 122.469,-460.935 136,-484 141.963,-494.166 150.105,-504.08 157.989,-512.532"/>
<polygon fill="black" stroke="black" points="155.612,-515.109 165.088,-519.848 160.636,-510.234 155.612,-515.109"/>
<g id="a_edge17&#45;headlabel"><a xlink:href="dir_000048_000008.html" target="_top" xlink:title="10">
<text text-anchor="middle" x="151.072" y="-512.006" font-family="Helvetica,sans-Serif" font-size="10.00">10</text>
</a>
</g>
</g>
<!-- dir_900c20bb70493231141df6997ccd6b87&#45;&gt;dir_6bd92bd93c0d5d9980919215b46f20a3 -->
<g id="edge20" class="edge"><title>dir_900c20bb70493231141df6997ccd6b87&#45;&gt;dir_6bd92bd93c0d5d9980919215b46f20a3</title>
<path fill="none" stroke="black" d="M79.5328,-375.994C67.5527,-366.835 54.4364,-354.446 47,-340 28.7816,-304.61 37,-290.804 37,-251 37,-251 37,-251 37,-177 37,-98.5635 139.315,-60.229 200.081,-44.3785"/>
<polygon fill="black" stroke="black" points="200.969,-47.7641 209.818,-41.9373 199.267,-40.9743 200.969,-47.7641"/>
<g id="a_edge20&#45;headlabel"><a xlink:href="dir_000048_000038.html" target="_top" xlink:title="13">
<text text-anchor="middle" x="198.173" y="-48.8922" font-family="Helvetica,sans-Serif" font-size="10.00">13</text>
</a>
</g>
</g>
<!-- dir_900c20bb70493231141df6997ccd6b87&#45;&gt;dir_72b0d7f49fde90450b6e05dc81befa69 -->
<g id="edge18" class="edge"><title>dir_900c20bb70493231141df6997ccd6b87&#45;&gt;dir_72b0d7f49fde90450b6e05dc81befa69</title>
<path fill="none" stroke="black" d="M99.8371,-375.697C98.9312,-367.983 98.5722,-358.712 98.792,-350.112"/>
<polygon fill="black" stroke="black" points="102.288,-350.283 99.3493,-340.104 95.2987,-349.894 102.288,-350.283"/>
<g id="a_edge18&#45;headlabel"><a xlink:href="dir_000048_000040.html" target="_top" xlink:title="7">
<text text-anchor="middle" x="104.923" y="-351.53" font-family="Helvetica,sans-Serif" font-size="10.00">7</text>
</a>
</g>
</g>
<!-- dir_900c20bb70493231141df6997ccd6b87&#45;&gt;dir_4c7ee98193a6cba0af9aae7f963a60da -->
<g id="edge19" class="edge"><title>dir_900c20bb70493231141df6997ccd6b87&#45;&gt;dir_4c7ee98193a6cba0af9aae7f963a60da</title>
<path fill="none" stroke="black" d="M127.707,-375.867C139.117,-366.151 152.809,-353.3 163,-340 177.864,-320.601 190.515,-295.833 198.935,-277.354"/>
<polygon fill="black" stroke="black" points="202.199,-278.627 203.053,-268.067 195.8,-275.79 202.199,-278.627"/>
<g id="a_edge19&#45;headlabel"><a xlink:href="dir_000048_000045.html" target="_top" xlink:title="2">
<text text-anchor="middle" x="203.337" y="-280.564" font-family="Helvetica,sans-Serif" font-size="10.00">2</text>
</a>
</g>
</g>
<!-- dir_770ce52091e736e8a5c951118a509018&#45;&gt;dir_0c0333544ec44c57ec7d33d873fe36a2 -->
<g id="edge26" class="edge"><title>dir_770ce52091e736e8a5c951118a509018&#45;&gt;dir_0c0333544ec44c57ec7d33d873fe36a2</title>
<path fill="none" stroke="black" d="M333.312,-519.928C339.149,-473.275 352.602,-339.926 332,-232 330.293,-223.056 327.1,-213.695 323.711,-205.373"/>
<polygon fill="black" stroke="black" points="326.908,-203.949 319.718,-196.167 320.486,-206.734 326.908,-203.949"/>
<g id="a_edge26&#45;headlabel"><a xlink:href="dir_000064_000041.html" target="_top" xlink:title="1">
<text text-anchor="middle" x="330.943" y="-203.617" font-family="Helvetica,sans-Serif" font-size="10.00">1</text>
</a>
</g>
</g>
</g>
</svg>
