<?xml version="1.0" encoding="UTF-8" standalone="no"?>
<!DOCTYPE svg PUBLIC "-//W3C//DTD SVG 1.1//EN"
 "http://www.w3.org/Graphics/SVG/1.1/DTD/svg11.dtd">
<!-- Generated by graphviz version 2.38.0 (20140413.2041)
 -->
<!-- Title: src/FactoriesWrapper Pages: 1 -->
<svg width="179pt" height="295pt"
 viewBox="0.00 0.00 179.00 295.00" xmlns="http://www.w3.org/2000/svg" xmlns:xlink="http://www.w3.org/1999/xlink">
<g id="graph0" class="graph" transform="scale(1 1) rotate(0) translate(4 291)">
<title>src/FactoriesWrapper</title>
<g id="clust1" class="cluster"><title>clusterdir_68267d1309a1af8e8297ef4c3efbcdba</title>
<g id="a_clust1"><a xlink:href="dir_68267d1309a1af8e8297ef4c3efbcdba.html" target="_top" xlink:title="src">
<polygon fill="#ddddee" stroke="black" points="8,-208 8,-279 122,-279 122,-208 8,-208"/>
<text text-anchor="middle" x="65" y="-267" font-family="Helvetica,sans-Serif" font-size="10.00">src</text>
</a>
</g>
</g>
<!-- dir_10504429fd2cfba37486df15d0308dfc -->
<g id="node1" class="node"><title>dir_10504429fd2cfba37486df15d0308dfc</title>
<g id="a_node1"><a xlink:href="dir_10504429fd2cfba37486df15d0308dfc.html" target="_top" xlink:title="FactoriesWrapper">
<polygon fill="#eeeeff" stroke="black" points="114,-252 16,-252 16,-216 114,-216 114,-252"/>
<text text-anchor="middle" x="65" y="-231.5" font-family="Helvetica,sans-Serif" font-size="10.00">FactoriesWrapper</text>
</a>
</g>
</g>
<!-- dir_093f3b7f7c7a61ef21fffb3d339f67e1 -->
<g id="node2" class="node"><title>dir_093f3b7f7c7a61ef21fffb3d339f67e1</title>
<g id="a_node2"><a xlink:href="dir_093f3b7f7c7a61ef21fffb3d339f67e1.html" target="_top" xlink:title="Entities">
<polygon fill="none" stroke="red" points="72,-36 18,-36 18,-0 72,-0 72,-36"/>
<text text-anchor="middle" x="45" y="-15.5" font-family="Helvetica,sans-Serif" font-size="10.00">Entities</text>
</a>
</g>
</g>
<!-- dir_10504429fd2cfba37486df15d0308dfc&#45;&gt;dir_093f3b7f7c7a61ef21fffb3d339f67e1 -->
<g id="edge5" class="edge"><title>dir_10504429fd2cfba37486df15d0308dfc&#45;&gt;dir_093f3b7f7c7a61ef21fffb3d339f67e1</title>
<path fill="none" stroke="black" d="M48.1103,-215.993C39.7065,-206.315 30.4183,-193.459 26,-180 11.1081,-134.636 24.2959,-78.6958 34.8882,-46.1165"/>
<polygon fill="black" stroke="black" points="38.2856,-46.9971 38.1971,-36.4026 31.6595,-44.7399 38.2856,-46.9971"/>
<g id="a_edge5&#45;headlabel"><a xlink:href="dir_000039_000008.html" target="_top" xlink:title="1">
<text text-anchor="middle" x="39.8142" y="-48.8152" font-family="Helvetica,sans-Serif" font-size="10.00">1</text>
</a>
</g>
</g>
<!-- dir_900c20bb70493231141df6997ccd6b87 -->
<g id="node3" class="node"><title>dir_900c20bb70493231141df6997ccd6b87</title>
<g id="a_node3"><a xlink:href="dir_900c20bb70493231141df6997ccd6b87.html" target="_top" xlink:title="Systems">
<polygon fill="none" stroke="red" points="94.5,-180 35.5,-180 35.5,-144 94.5,-144 94.5,-180"/>
<text text-anchor="middle" x="65" y="-159.5" font-family="Helvetica,sans-Serif" font-size="10.00">Systems</text>
</a>
</g>
</g>
<!-- dir_10504429fd2cfba37486df15d0308dfc&#45;&gt;dir_900c20bb70493231141df6997ccd6b87 -->
<g id="edge6" class="edge"><title>dir_10504429fd2cfba37486df15d0308dfc&#45;&gt;dir_900c20bb70493231141df6997ccd6b87</title>
<path fill="none" stroke="black" d="M65,-215.697C65,-207.983 65,-198.712 65,-190.112"/>
<polygon fill="black" stroke="black" points="68.5001,-190.104 65,-180.104 61.5001,-190.104 68.5001,-190.104"/>
<g id="a_edge6&#45;headlabel"><a xlink:href="dir_000039_000048.html" target="_top" xlink:title="2">
<text text-anchor="middle" x="71.3393" y="-191.199" font-family="Helvetica,sans-Serif" font-size="10.00">2</text>
</a>
</g>
</g>
<!-- dir_72b0d7f49fde90450b6e05dc81befa69 -->
<g id="node4" class="node"><title>dir_72b0d7f49fde90450b6e05dc81befa69</title>
<g id="a_node4"><a xlink:href="dir_72b0d7f49fde90450b6e05dc81befa69.html" target="_top" xlink:title="ManagerWrapper">
<polygon fill="none" stroke="black" points="171,-108 73,-108 73,-72 171,-72 171,-108"/>
<text text-anchor="middle" x="122" y="-87.5" font-family="Helvetica,sans-Serif" font-size="10.00">ManagerWrapper</text>
</a>
</g>
</g>
<!-- dir_10504429fd2cfba37486df15d0308dfc&#45;&gt;dir_72b0d7f49fde90450b6e05dc81befa69 -->
<g id="edge7" class="edge"><title>dir_10504429fd2cfba37486df15d0308dfc&#45;&gt;dir_72b0d7f49fde90450b6e05dc81befa69</title>
<path fill="none" stroke="black" d="M79.9836,-215.973C87.9372,-206.091 97.2328,-193.048 103,-180 111.716,-160.281 116.538,-136.298 119.142,-118.198"/>
<polygon fill="black" stroke="black" points="122.644,-118.407 120.461,-108.039 115.702,-117.505 122.644,-118.407"/>
<g id="a_edge7&#45;headlabel"><a xlink:href="dir_000039_000040.html" target="_top" xlink:title="1">
<text text-anchor="middle" x="124.997" y="-119.837" font-family="Helvetica,sans-Serif" font-size="10.00">1</text>
</a>
</g>
</g>
<!-- dir_900c20bb70493231141df6997ccd6b87&#45;&gt;dir_093f3b7f7c7a61ef21fffb3d339f67e1 -->
<g id="edge1" class="edge"><title>dir_900c20bb70493231141df6997ccd6b87&#45;&gt;dir_093f3b7f7c7a61ef21fffb3d339f67e1</title>
<path fill="none" stroke="black" d="M62.5875,-143.871C59.1789,-119.67 52.917,-75.2108 48.8582,-46.3932"/>
<polygon fill="black" stroke="black" points="52.2816,-45.6034 47.421,-36.1893 45.35,-46.5797 52.2816,-45.6034"/>
<g id="a_edge1&#45;headlabel"><a xlink:href="dir_000048_000008.html" target="_top" xlink:title="10">
<text text-anchor="middle" x="55.5944" y="-46.2669" font-family="Helvetica,sans-Serif" font-size="10.00">10</text>
</a>
</g>
</g>
<!-- dir_900c20bb70493231141df6997ccd6b87&#45;&gt;dir_72b0d7f49fde90450b6e05dc81befa69 -->
<g id="edge2" class="edge"><title>dir_900c20bb70493231141df6997ccd6b87&#45;&gt;dir_72b0d7f49fde90450b6e05dc81befa69</title>
<path fill="none" stroke="black" d="M73.1742,-143.697C79.2023,-135.22 87.4482,-124.864 95.5058,-115.583"/>
<polygon fill="black" stroke="black" points="98.1319,-117.897 102.177,-108.104 92.9083,-113.237 98.1319,-117.897"/>
<g id="a_edge2&#45;headlabel"><a xlink:href="dir_000048_000040.html" target="_top" xlink:title="7">
<text text-anchor="middle" x="97.8577" y="-119.969" font-family="Helvetica,sans-Serif" font-size="10.00">7</text>
</a>
</g>
</g>
<!-- dir_72b0d7f49fde90450b6e05dc81befa69&#45;&gt;dir_093f3b7f7c7a61ef21fffb3d339f67e1 -->
<g id="edge3" class="edge"><title>dir_72b0d7f49fde90450b6e05dc81befa69&#45;&gt;dir_093f3b7f7c7a61ef21fffb3d339f67e1</title>
<path fill="none" stroke="black" d="M102.966,-71.6966C93.4553,-63.0503 81.7934,-52.4486 71.4297,-43.027"/>
<polygon fill="black" stroke="black" points="73.5686,-40.2413 63.8148,-36.1043 68.8598,-45.4209 73.5686,-40.2413"/>
<g id="a_edge3&#45;headlabel"><a xlink:href="dir_000040_000008.html" target="_top" xlink:title="1">
<text text-anchor="middle" x="78.1382" y="-38.0584" font-family="Helvetica,sans-Serif" font-size="10.00">1</text>
</a>
</g>
</g>
<!-- dir_72b0d7f49fde90450b6e05dc81befa69&#45;&gt;dir_900c20bb70493231141df6997ccd6b87 -->
<g id="edge4" class="edge"><title>dir_72b0d7f49fde90450b6e05dc81befa69&#45;&gt;dir_900c20bb70493231141df6997ccd6b87</title>
<path fill="none" stroke="black" d="M113.967,-108.104C107.974,-116.552 99.7442,-126.901 91.6837,-136.199"/>
<polygon fill="black" stroke="black" points="89.0432,-133.901 85.0056,-143.697 94.2704,-138.557 89.0432,-133.901"/>
<g id="a_edge4&#45;headlabel"><a xlink:href="dir_000040_000048.html" target="_top" xlink:title="1">
<text text-anchor="middle" x="89.3138" y="-126.829" font-family="Helvetica,sans-Serif" font-size="10.00">1</text>
</a>
</g>
</g>
</g>
</svg>
