<?xml version="1.0" encoding="UTF-8" standalone="no"?>
<!DOCTYPE svg PUBLIC "-//W3C//DTD SVG 1.1//EN"
 "http://www.w3.org/Graphics/SVG/1.1/DTD/svg11.dtd">
<!-- Generated by graphviz version 2.38.0 (20140413.2041)
 -->
<!-- Title: src/Systems/Factories Pages: 1 -->
<svg width="279pt" height="439pt"
 viewBox="0.00 0.00 278.84 439.00" xmlns="http://www.w3.org/2000/svg" xmlns:xlink="http://www.w3.org/1999/xlink">
<g id="graph0" class="graph" transform="scale(1 1) rotate(0) translate(4 435)">
<title>src/Systems/Factories</title>
<g id="clust1" class="cluster"><title>clusterdir_900c20bb70493231141df6997ccd6b87</title>
<g id="a_clust1"><a xlink:href="dir_900c20bb70493231141df6997ccd6b87.html" target="_top" xlink:title="Systems">
<polygon fill="#ddddee" stroke="black" points="70,-352 70,-423 146,-423 146,-352 70,-352"/>
<text text-anchor="middle" x="108" y="-411" font-family="Helvetica,sans-Serif" font-size="10.00">Systems</text>
</a>
</g>
</g>
<!-- dir_1114d6c8b86f020fc164a5bf3bc359f4 -->
<g id="node1" class="node"><title>dir_1114d6c8b86f020fc164a5bf3bc359f4</title>
<g id="a_node1"><a xlink:href="dir_1114d6c8b86f020fc164a5bf3bc359f4.html" target="_top" xlink:title="Factories">
<polygon fill="#eeeeff" stroke="black" points="137.5,-396 78.5,-396 78.5,-360 137.5,-360 137.5,-396"/>
<text text-anchor="middle" x="108" y="-375.5" font-family="Helvetica,sans-Serif" font-size="10.00">Factories</text>
</a>
</g>
</g>
<!-- dir_c610c8504d46288da7634b3c0b18263f -->
<g id="node2" class="node"><title>dir_c610c8504d46288da7634b3c0b18263f</title>
<g id="a_node2"><a xlink:href="dir_c610c8504d46288da7634b3c0b18263f.html" target="_top" xlink:title="Components">
<polygon fill="none" stroke="red" points="144,-180 66,-180 66,-144 144,-144 144,-180"/>
<text text-anchor="middle" x="105" y="-159.5" font-family="Helvetica,sans-Serif" font-size="10.00">Components</text>
</a>
</g>
</g>
<!-- dir_1114d6c8b86f020fc164a5bf3bc359f4&#45;&gt;dir_c610c8504d46288da7634b3c0b18263f -->
<g id="edge1" class="edge"><title>dir_1114d6c8b86f020fc164a5bf3bc359f4&#45;&gt;dir_c610c8504d46288da7634b3c0b18263f</title>
<path fill="none" stroke="black" d="M101.823,-359.537C92.1651,-329.908 75.5255,-267.943 85,-216 86.6059,-207.196 89.5973,-197.954 92.7862,-189.698"/>
<polygon fill="black" stroke="black" points="96.1211,-190.791 96.6942,-180.212 89.6488,-188.125 96.1211,-190.791"/>
<g id="a_edge1&#45;headlabel"><a xlink:href="dir_000049_000001.html" target="_top" xlink:title="1">
<text text-anchor="middle" x="97.3771" y="-192.696" font-family="Helvetica,sans-Serif" font-size="10.00">1</text>
</a>
</g>
</g>
<!-- dir_093f3b7f7c7a61ef21fffb3d339f67e1 -->
<g id="node3" class="node"><title>dir_093f3b7f7c7a61ef21fffb3d339f67e1</title>
<g id="a_node3"><a xlink:href="dir_093f3b7f7c7a61ef21fffb3d339f67e1.html" target="_top" xlink:title="Entities">
<polygon fill="none" stroke="red" points="193,-108 139,-108 139,-72 193,-72 193,-108"/>
<text text-anchor="middle" x="166" y="-87.5" font-family="Helvetica,sans-Serif" font-size="10.00">Entities</text>
</a>
</g>
</g>
<!-- dir_1114d6c8b86f020fc164a5bf3bc359f4&#45;&gt;dir_093f3b7f7c7a61ef21fffb3d339f67e1 -->
<g id="edge2" class="edge"><title>dir_1114d6c8b86f020fc164a5bf3bc359f4&#45;&gt;dir_093f3b7f7c7a61ef21fffb3d339f67e1</title>
<path fill="none" stroke="black" d="M137.647,-375.852C172.365,-372.727 228.49,-361.739 255,-324 302.431,-256.479 229.936,-160.377 189.773,-115.656"/>
<polygon fill="black" stroke="black" points="192.256,-113.185 182.921,-108.174 187.093,-117.913 192.256,-113.185"/>
<g id="a_edge2&#45;headlabel"><a xlink:href="dir_000049_000008.html" target="_top" xlink:title="1">
<text text-anchor="middle" x="196.777" y="-111.419" font-family="Helvetica,sans-Serif" font-size="10.00">1</text>
</a>
</g>
</g>
<!-- dir_289c9e282717af8b03cbc49f45b6383f -->
<g id="node4" class="node"><title>dir_289c9e282717af8b03cbc49f45b6383f</title>
<g id="a_node4"><a xlink:href="dir_289c9e282717af8b03cbc49f45b6383f.html" target="_top" xlink:title="SystemConstructor">
<polygon fill="none" stroke="red" points="246,-324 136,-324 136,-288 246,-288 246,-324"/>
<text text-anchor="middle" x="191" y="-303.5" font-family="Helvetica,sans-Serif" font-size="10.00">SystemConstructor</text>
</a>
</g>
</g>
<!-- dir_1114d6c8b86f020fc164a5bf3bc359f4&#45;&gt;dir_289c9e282717af8b03cbc49f45b6383f -->
<g id="edge3" class="edge"><title>dir_1114d6c8b86f020fc164a5bf3bc359f4&#45;&gt;dir_289c9e282717af8b03cbc49f45b6383f</title>
<path fill="none" stroke="black" d="M128.517,-359.697C138.869,-350.965 151.586,-340.24 162.839,-330.75"/>
<polygon fill="black" stroke="black" points="165.331,-333.227 170.719,-324.104 160.818,-327.876 165.331,-333.227"/>
<g id="a_edge3&#45;headlabel"><a xlink:href="dir_000049_000050.html" target="_top" xlink:title="2">
<text text-anchor="middle" x="164.414" y="-335.215" font-family="Helvetica,sans-Serif" font-size="10.00">2</text>
</a>
</g>
</g>
<!-- dir_72b0d7f49fde90450b6e05dc81befa69 -->
<g id="node5" class="node"><title>dir_72b0d7f49fde90450b6e05dc81befa69</title>
<g id="a_node5"><a xlink:href="dir_72b0d7f49fde90450b6e05dc81befa69.html" target="_top" xlink:title="ManagerWrapper">
<polygon fill="none" stroke="black" points="202,-252 104,-252 104,-216 202,-216 202,-252"/>
<text text-anchor="middle" x="153" y="-231.5" font-family="Helvetica,sans-Serif" font-size="10.00">ManagerWrapper</text>
</a>
</g>
</g>
<!-- dir_1114d6c8b86f020fc164a5bf3bc359f4&#45;&gt;dir_72b0d7f49fde90450b6e05dc81befa69 -->
<g id="edge4" class="edge"><title>dir_1114d6c8b86f020fc164a5bf3bc359f4&#45;&gt;dir_72b0d7f49fde90450b6e05dc81befa69</title>
<path fill="none" stroke="black" d="M110.366,-359.933C113.177,-341.764 118.577,-312.337 127,-288 130.117,-278.993 134.401,-269.535 138.592,-261.143"/>
<polygon fill="black" stroke="black" points="141.732,-262.692 143.218,-252.202 135.514,-259.476 141.732,-262.692"/>
<g id="a_edge4&#45;headlabel"><a xlink:href="dir_000049_000040.html" target="_top" xlink:title="1">
<text text-anchor="middle" x="142.602" y="-264.689" font-family="Helvetica,sans-Serif" font-size="10.00">1</text>
</a>
</g>
</g>
<!-- dir_6bd92bd93c0d5d9980919215b46f20a3 -->
<g id="node6" class="node"><title>dir_6bd92bd93c0d5d9980919215b46f20a3</title>
<g id="a_node6"><a xlink:href="dir_6bd92bd93c0d5d9980919215b46f20a3.html" target="_top" xlink:title="Exceptions">
<polygon fill="none" stroke="black" points="171,-36 103,-36 103,-0 171,-0 171,-36"/>
<text text-anchor="middle" x="137" y="-15.5" font-family="Helvetica,sans-Serif" font-size="10.00">Exceptions</text>
</a>
</g>
</g>
<!-- dir_1114d6c8b86f020fc164a5bf3bc359f4&#45;&gt;dir_6bd92bd93c0d5d9980919215b46f20a3 -->
<g id="edge5" class="edge"><title>dir_1114d6c8b86f020fc164a5bf3bc359f4&#45;&gt;dir_6bd92bd93c0d5d9980919215b46f20a3</title>
<path fill="none" stroke="black" d="M82.6788,-359.832C50.7572,-335.922 0,-289.357 0,-235 0,-235 0,-235 0,-161 0,-106.063 53.7642,-64.2304 93.9314,-40.6429"/>
<polygon fill="black" stroke="black" points="95.8221,-43.594 102.783,-35.6064 92.3601,-37.51 95.8221,-43.594"/>
<g id="a_edge5&#45;headlabel"><a xlink:href="dir_000049_000038.html" target="_top" xlink:title="1">
<text text-anchor="middle" x="94.102" y="-45.3395" font-family="Helvetica,sans-Serif" font-size="10.00">1</text>
</a>
</g>
</g>
<!-- dir_c610c8504d46288da7634b3c0b18263f&#45;&gt;dir_093f3b7f7c7a61ef21fffb3d339f67e1 -->
<g id="edge6" class="edge"><title>dir_c610c8504d46288da7634b3c0b18263f&#45;&gt;dir_093f3b7f7c7a61ef21fffb3d339f67e1</title>
<path fill="none" stroke="black" d="M114.163,-143.697C120.675,-135.22 129.513,-124.864 138.101,-115.583"/>
<polygon fill="black" stroke="black" points="140.854,-117.767 145.2,-108.104 135.777,-112.947 140.854,-117.767"/>
<g id="a_edge6&#45;headlabel"><a xlink:href="dir_000001_000008.html" target="_top" xlink:title="1">
<text text-anchor="middle" x="140.438" y="-119.829" font-family="Helvetica,sans-Serif" font-size="10.00">1</text>
</a>
</g>
</g>
<!-- dir_c610c8504d46288da7634b3c0b18263f&#45;&gt;dir_6bd92bd93c0d5d9980919215b46f20a3 -->
<g id="edge7" class="edge"><title>dir_c610c8504d46288da7634b3c0b18263f&#45;&gt;dir_6bd92bd93c0d5d9980919215b46f20a3</title>
<path fill="none" stroke="black" d="M108.86,-143.871C114.338,-119.564 124.421,-74.8187 130.913,-46.0132"/>
<polygon fill="black" stroke="black" points="134.342,-46.7141 133.126,-36.1893 127.514,-45.1752 134.342,-46.7141"/>
<g id="a_edge7&#45;headlabel"><a xlink:href="dir_000001_000038.html" target="_top" xlink:title="1">
<text text-anchor="middle" x="136.322" y="-48.3449" font-family="Helvetica,sans-Serif" font-size="10.00">1</text>
</a>
</g>
</g>
<!-- dir_093f3b7f7c7a61ef21fffb3d339f67e1&#45;&gt;dir_c610c8504d46288da7634b3c0b18263f -->
<g id="edge8" class="edge"><title>dir_093f3b7f7c7a61ef21fffb3d339f67e1&#45;&gt;dir_c610c8504d46288da7634b3c0b18263f</title>
<path fill="none" stroke="black" d="M156.99,-108.104C150.514,-116.552 141.693,-126.901 133.101,-136.199"/>
<polygon fill="black" stroke="black" points="130.333,-134.031 125.994,-143.697 135.414,-138.846 130.333,-134.031"/>
<g id="a_edge8&#45;headlabel"><a xlink:href="dir_000008_000001.html" target="_top" xlink:title="155">
<text text-anchor="middle" x="130.745" y="-126.969" font-family="Helvetica,sans-Serif" font-size="10.00">155</text>
</a>
</g>
</g>
<!-- dir_093f3b7f7c7a61ef21fffb3d339f67e1&#45;&gt;dir_6bd92bd93c0d5d9980919215b46f20a3 -->
<g id="edge9" class="edge"><title>dir_093f3b7f7c7a61ef21fffb3d339f67e1&#45;&gt;dir_6bd92bd93c0d5d9980919215b46f20a3</title>
<path fill="none" stroke="black" d="M158.831,-71.6966C155.565,-63.8132 151.626,-54.3042 147.998,-45.5464"/>
<polygon fill="black" stroke="black" points="151.147,-44.0033 144.086,-36.1043 144.68,-46.6825 151.147,-44.0033"/>
<g id="a_edge9&#45;headlabel"><a xlink:href="dir_000008_000038.html" target="_top" xlink:title="3">
<text text-anchor="middle" x="155.146" y="-43.7375" font-family="Helvetica,sans-Serif" font-size="10.00">3</text>
</a>
</g>
</g>
<!-- dir_289c9e282717af8b03cbc49f45b6383f&#45;&gt;dir_c610c8504d46288da7634b3c0b18263f -->
<g id="edge10" class="edge"><title>dir_289c9e282717af8b03cbc49f45b6383f&#45;&gt;dir_c610c8504d46288da7634b3c0b18263f</title>
<path fill="none" stroke="black" d="M137.776,-287.963C121.107,-279.835 104.58,-268.231 95,-252 83.931,-233.245 87.9675,-208.371 93.8939,-189.688"/>
<polygon fill="black" stroke="black" points="97.2768,-190.619 97.2968,-180.024 90.6742,-188.294 97.2768,-190.619"/>
<g id="a_edge10&#45;headlabel"><a xlink:href="dir_000050_000001.html" target="_top" xlink:title="55">
<text text-anchor="middle" x="98.7611" y="-192.452" font-family="Helvetica,sans-Serif" font-size="10.00">55</text>
</a>
</g>
</g>
<!-- dir_289c9e282717af8b03cbc49f45b6383f&#45;&gt;dir_093f3b7f7c7a61ef21fffb3d339f67e1 -->
<g id="edge11" class="edge"><title>dir_289c9e282717af8b03cbc49f45b6383f&#45;&gt;dir_093f3b7f7c7a61ef21fffb3d339f67e1</title>
<path fill="none" stroke="black" d="M199.306,-287.788C203.741,-277.634 208.741,-264.384 211,-252 213.871,-236.26 213.751,-231.762 211,-216 204.839,-180.697 189.58,-142.201 178.536,-117.392"/>
<polygon fill="black" stroke="black" points="181.717,-115.931 174.392,-108.276 175.344,-118.828 181.717,-115.931"/>
<g id="a_edge11&#45;headlabel"><a xlink:href="dir_000050_000008.html" target="_top" xlink:title="6">
<text text-anchor="middle" x="185.789" y="-115.529" font-family="Helvetica,sans-Serif" font-size="10.00">6</text>
</a>
</g>
</g>
<!-- dir_289c9e282717af8b03cbc49f45b6383f&#45;&gt;dir_72b0d7f49fde90450b6e05dc81befa69 -->
<g id="edge12" class="edge"><title>dir_289c9e282717af8b03cbc49f45b6383f&#45;&gt;dir_72b0d7f49fde90450b6e05dc81befa69</title>
<path fill="none" stroke="black" d="M181.607,-287.697C177.235,-279.644 171.943,-269.894 167.105,-260.982"/>
<polygon fill="black" stroke="black" points="170.132,-259.223 162.285,-252.104 163.98,-262.563 170.132,-259.223"/>
<g id="a_edge12&#45;headlabel"><a xlink:href="dir_000050_000040.html" target="_top" xlink:title="4">
<text text-anchor="middle" x="174.342" y="-258.528" font-family="Helvetica,sans-Serif" font-size="10.00">4</text>
</a>
</g>
</g>
<!-- dir_289c9e282717af8b03cbc49f45b6383f&#45;&gt;dir_6bd92bd93c0d5d9980919215b46f20a3 -->
<g id="edge13" class="edge"><title>dir_289c9e282717af8b03cbc49f45b6383f&#45;&gt;dir_6bd92bd93c0d5d9980919215b46f20a3</title>
<path fill="none" stroke="black" d="M206.61,-287.774C214.373,-278.03 222.946,-265.184 227,-252 242.514,-201.55 228.913,-118.005 202,-72 195.27,-60.4964 185.044,-50.4435 174.681,-42.2745"/>
<polygon fill="black" stroke="black" points="176.522,-39.2822 166.405,-36.1353 172.351,-44.9042 176.522,-39.2822"/>
<g id="a_edge13&#45;headlabel"><a xlink:href="dir_000050_000038.html" target="_top" xlink:title="11">
<text text-anchor="middle" x="181.1" y="-36.6435" font-family="Helvetica,sans-Serif" font-size="10.00">11</text>
</a>
</g>
</g>
<!-- dir_72b0d7f49fde90450b6e05dc81befa69&#45;&gt;dir_c610c8504d46288da7634b3c0b18263f -->
<g id="edge14" class="edge"><title>dir_72b0d7f49fde90450b6e05dc81befa69&#45;&gt;dir_c610c8504d46288da7634b3c0b18263f</title>
<path fill="none" stroke="black" d="M141.135,-215.697C135.497,-207.474 128.646,-197.483 122.431,-188.421"/>
<polygon fill="black" stroke="black" points="125.271,-186.372 116.729,-180.104 119.497,-190.331 125.271,-186.372"/>
<g id="a_edge14&#45;headlabel"><a xlink:href="dir_000040_000001.html" target="_top" xlink:title="1">
<text text-anchor="middle" x="129.645" y="-185.231" font-family="Helvetica,sans-Serif" font-size="10.00">1</text>
</a>
</g>
</g>
<!-- dir_72b0d7f49fde90450b6e05dc81befa69&#45;&gt;dir_093f3b7f7c7a61ef21fffb3d339f67e1 -->
<g id="edge15" class="edge"><title>dir_72b0d7f49fde90450b6e05dc81befa69&#45;&gt;dir_093f3b7f7c7a61ef21fffb3d339f67e1</title>
<path fill="none" stroke="black" d="M154.568,-215.871C156.784,-191.67 160.854,-147.211 163.492,-118.393"/>
<polygon fill="black" stroke="black" points="167,-118.467 164.426,-108.189 160.029,-117.829 167,-118.467"/>
<g id="a_edge15&#45;headlabel"><a xlink:href="dir_000040_000008.html" target="_top" xlink:title="1">
<text text-anchor="middle" x="169.5" y="-119.805" font-family="Helvetica,sans-Serif" font-size="10.00">1</text>
</a>
</g>
</g>
</g>
</svg>
