<?xml version="1.0" encoding="UTF-8" standalone="no"?>
<!DOCTYPE svg PUBLIC "-//W3C//DTD SVG 1.1//EN"
 "http://www.w3.org/Graphics/SVG/1.1/DTD/svg11.dtd">
<!-- Generated by graphviz version 2.38.0 (20140413.2041)
 -->
<!-- Title: src/Systems Pages: 1 -->
<svg width="480pt" height="447pt"
 viewBox="0.00 0.00 480.12 447.00" xmlns="http://www.w3.org/2000/svg" xmlns:xlink="http://www.w3.org/1999/xlink">
<g id="graph0" class="graph" transform="scale(1 1) rotate(0) translate(4 443)">
<title>src/Systems</title>
<g id="clust1" class="cluster"><title>clusterdir_68267d1309a1af8e8297ef4c3efbcdba</title>
<g id="a_clust1"><a xlink:href="dir_68267d1309a1af8e8297ef4c3efbcdba.html" target="_top" xlink:title="src">
<polygon fill="#ddddee" stroke="black" points="127,-128 127,-431 296,-431 296,-128 127,-128"/>
<text text-anchor="middle" x="211.5" y="-419" font-family="Helvetica,sans-Serif" font-size="10.00">src</text>
</a>
</g>
</g>
<g id="clust2" class="cluster"><title>clusterdir_900c20bb70493231141df6997ccd6b87</title>
<g id="a_clust2"><a xlink:href="dir_900c20bb70493231141df6997ccd6b87.html" target="_top">
<polygon fill="#eeeeff" stroke="black" points="135,-136 135,-404 288,-404 288,-136 135,-136"/>
</a>
</g>
</g>
<!-- dir_900c20bb70493231141df6997ccd6b87 -->
<g id="node1" class="node"><title>dir_900c20bb70493231141df6997ccd6b87</title>
<text text-anchor="middle" x="250" y="-375.5" font-family="Helvetica,sans-Serif" font-size="10.00">Systems</text>
</g>
<!-- dir_1114d6c8b86f020fc164a5bf3bc359f4 -->
<g id="node2" class="node"><title>dir_1114d6c8b86f020fc164a5bf3bc359f4</title>
<g id="a_node2"><a xlink:href="dir_1114d6c8b86f020fc164a5bf3bc359f4.html" target="_top" xlink:title="Factories">
<polygon fill="white" stroke="black" points="202.5,-396 143.5,-396 143.5,-360 202.5,-360 202.5,-396"/>
<text text-anchor="middle" x="173" y="-375.5" font-family="Helvetica,sans-Serif" font-size="10.00">Factories</text>
</a>
</g>
</g>
<!-- dir_289c9e282717af8b03cbc49f45b6383f -->
<g id="node3" class="node"><title>dir_289c9e282717af8b03cbc49f45b6383f</title>
<g id="a_node3"><a xlink:href="dir_289c9e282717af8b03cbc49f45b6383f.html" target="_top" xlink:title="SystemConstructor">
<polygon fill="white" stroke="red" points="253,-324 143,-324 143,-288 253,-288 253,-324"/>
<text text-anchor="middle" x="198" y="-303.5" font-family="Helvetica,sans-Serif" font-size="10.00">SystemConstructor</text>
</a>
</g>
</g>
<!-- dir_1114d6c8b86f020fc164a5bf3bc359f4&#45;&gt;dir_289c9e282717af8b03cbc49f45b6383f -->
<g id="edge3" class="edge"><title>dir_1114d6c8b86f020fc164a5bf3bc359f4&#45;&gt;dir_289c9e282717af8b03cbc49f45b6383f</title>
<path fill="none" stroke="black" d="M179.18,-359.697C181.995,-351.813 185.391,-342.304 188.519,-333.546"/>
<polygon fill="black" stroke="black" points="191.824,-334.699 191.891,-324.104 185.232,-332.345 191.824,-334.699"/>
<g id="a_edge3&#45;headlabel"><a xlink:href="dir_000049_000050.html" target="_top" xlink:title="2">
<text text-anchor="middle" x="193.289" y="-336.539" font-family="Helvetica,sans-Serif" font-size="10.00">2</text>
</a>
</g>
</g>
<!-- dir_c610c8504d46288da7634b3c0b18263f -->
<g id="node6" class="node"><title>dir_c610c8504d46288da7634b3c0b18263f</title>
<g id="a_node6"><a xlink:href="dir_c610c8504d46288da7634b3c0b18263f.html" target="_top" xlink:title="Components">
<polygon fill="none" stroke="red" points="393,-252 315,-252 315,-216 393,-216 393,-252"/>
<text text-anchor="middle" x="354" y="-231.5" font-family="Helvetica,sans-Serif" font-size="10.00">Components</text>
</a>
</g>
</g>
<!-- dir_1114d6c8b86f020fc164a5bf3bc359f4&#45;&gt;dir_c610c8504d46288da7634b3c0b18263f -->
<g id="edge1" class="edge"><title>dir_1114d6c8b86f020fc164a5bf3bc359f4&#45;&gt;dir_c610c8504d46288da7634b3c0b18263f</title>
<path fill="none" stroke="black" d="M202.552,-361.669C220.421,-351.856 243.288,-338.313 262,-324 265.655,-321.204 303.1,-284.763 329.075,-259.388"/>
<polygon fill="black" stroke="black" points="331.684,-261.733 336.389,-252.241 326.791,-256.727 331.684,-261.733"/>
<g id="a_edge1&#45;headlabel"><a xlink:href="dir_000049_000001.html" target="_top" xlink:title="1">
<text text-anchor="middle" x="331.098" y="-263.776" font-family="Helvetica,sans-Serif" font-size="10.00">1</text>
</a>
</g>
</g>
<!-- dir_093f3b7f7c7a61ef21fffb3d339f67e1 -->
<g id="node7" class="node"><title>dir_093f3b7f7c7a61ef21fffb3d339f67e1</title>
<g id="a_node7"><a xlink:href="dir_093f3b7f7c7a61ef21fffb3d339f67e1.html" target="_top" xlink:title="Entities">
<polygon fill="none" stroke="red" points="451,-108 397,-108 397,-72 451,-72 451,-108"/>
<text text-anchor="middle" x="424" y="-87.5" font-family="Helvetica,sans-Serif" font-size="10.00">Entities</text>
</a>
</g>
</g>
<!-- dir_1114d6c8b86f020fc164a5bf3bc359f4&#45;&gt;dir_093f3b7f7c7a61ef21fffb3d339f67e1 -->
<g id="edge2" class="edge"><title>dir_1114d6c8b86f020fc164a5bf3bc359f4&#45;&gt;dir_093f3b7f7c7a61ef21fffb3d339f67e1</title>
<path fill="none" stroke="black" d="M202.603,-362.924C205.408,-361.844 208.236,-360.847 211,-360 299.449,-332.906 345.56,-383.962 416,-324 483.504,-266.537 481.926,-211.798 453,-128 451.66,-124.118 449.727,-120.333 447.485,-116.757"/>
<polygon fill="black" stroke="black" points="450.123,-114.431 441.439,-108.36 444.442,-118.521 450.123,-114.431"/>
<g id="a_edge2&#45;headlabel"><a xlink:href="dir_000049_000008.html" target="_top" xlink:title="1">
<text text-anchor="middle" x="454.527" y="-113.189" font-family="Helvetica,sans-Serif" font-size="10.00">1</text>
</a>
</g>
</g>
<!-- dir_72b0d7f49fde90450b6e05dc81befa69 -->
<g id="node8" class="node"><title>dir_72b0d7f49fde90450b6e05dc81befa69</title>
<g id="a_node8"><a xlink:href="dir_72b0d7f49fde90450b6e05dc81befa69.html" target="_top" xlink:title="ManagerWrapper">
<polygon fill="none" stroke="black" points="407,-324 309,-324 309,-288 407,-288 407,-324"/>
<text text-anchor="middle" x="358" y="-303.5" font-family="Helvetica,sans-Serif" font-size="10.00">ManagerWrapper</text>
</a>
</g>
</g>
<!-- dir_1114d6c8b86f020fc164a5bf3bc359f4&#45;&gt;dir_72b0d7f49fde90450b6e05dc81befa69 -->
<g id="edge4" class="edge"><title>dir_1114d6c8b86f020fc164a5bf3bc359f4&#45;&gt;dir_72b0d7f49fde90450b6e05dc81befa69</title>
<path fill="none" stroke="black" d="M202.781,-363.425C205.548,-362.24 208.319,-361.081 211,-360 239.794,-348.387 272.222,-336.565 299.28,-327.042"/>
<polygon fill="black" stroke="black" points="300.708,-330.25 308.989,-323.642 298.395,-323.644 300.708,-330.25"/>
<g id="a_edge4&#45;headlabel"><a xlink:href="dir_000049_000040.html" target="_top" xlink:title="1">
<text text-anchor="middle" x="298.254" y="-331.618" font-family="Helvetica,sans-Serif" font-size="10.00">1</text>
</a>
</g>
</g>
<!-- dir_6bd92bd93c0d5d9980919215b46f20a3 -->
<g id="node10" class="node"><title>dir_6bd92bd93c0d5d9980919215b46f20a3</title>
<g id="a_node10"><a xlink:href="dir_6bd92bd93c0d5d9980919215b46f20a3.html" target="_top" xlink:title="Exceptions">
<polygon fill="none" stroke="black" points="229,-36 161,-36 161,-0 229,-0 229,-36"/>
<text text-anchor="middle" x="195" y="-15.5" font-family="Helvetica,sans-Serif" font-size="10.00">Exceptions</text>
</a>
</g>
</g>
<!-- dir_1114d6c8b86f020fc164a5bf3bc359f4&#45;&gt;dir_6bd92bd93c0d5d9980919215b46f20a3 -->
<g id="edge5" class="edge"><title>dir_1114d6c8b86f020fc164a5bf3bc359f4&#45;&gt;dir_6bd92bd93c0d5d9980919215b46f20a3</title>
<path fill="none" stroke="black" d="M143.26,-367.866C93.797,-350.615 0,-308.245 0,-235 0,-235 0,-235 0,-161 0,-86.9242 93.0918,-47.4219 150.634,-30.0802"/>
<polygon fill="black" stroke="black" points="151.958,-33.3407 160.587,-27.1935 150.008,-26.6178 151.958,-33.3407"/>
<g id="a_edge5&#45;headlabel"><a xlink:href="dir_000049_000038.html" target="_top" xlink:title="1">
<text text-anchor="middle" x="149.296" y="-34.5688" font-family="Helvetica,sans-Serif" font-size="10.00">1</text>
</a>
</g>
</g>
<!-- dir_1160894028a428f438e3bcef638ce1e2 -->
<g id="node4" class="node"><title>dir_1160894028a428f438e3bcef638ce1e2</title>
<g id="a_node4"><a xlink:href="dir_1160894028a428f438e3bcef638ce1e2.html" target="_top" xlink:title="SystemManager">
<polygon fill="white" stroke="black" points="238.5,-252 143.5,-252 143.5,-216 238.5,-216 238.5,-252"/>
<text text-anchor="middle" x="191" y="-231.5" font-family="Helvetica,sans-Serif" font-size="10.00">SystemManager</text>
</a>
</g>
</g>
<!-- dir_289c9e282717af8b03cbc49f45b6383f&#45;&gt;dir_1160894028a428f438e3bcef638ce1e2 -->
<g id="edge14" class="edge"><title>dir_289c9e282717af8b03cbc49f45b6383f&#45;&gt;dir_1160894028a428f438e3bcef638ce1e2</title>
<path fill="none" stroke="black" d="M196.27,-287.697C195.498,-279.983 194.571,-270.712 193.711,-262.112"/>
<polygon fill="black" stroke="black" points="197.188,-261.706 192.71,-252.104 190.223,-262.403 197.188,-261.706"/>
<g id="a_edge14&#45;headlabel"><a xlink:href="dir_000050_000062.html" target="_top" xlink:title="1">
<text text-anchor="middle" x="200.371" y="-262.501" font-family="Helvetica,sans-Serif" font-size="10.00">1</text>
</a>
</g>
</g>
<!-- dir_ee001d497cfb0622591b7eb1d04ce131 -->
<g id="node5" class="node"><title>dir_ee001d497cfb0622591b7eb1d04ce131</title>
<g id="a_node5"><a xlink:href="dir_ee001d497cfb0622591b7eb1d04ce131.html" target="_top" xlink:title="SystemResponse">
<polygon fill="white" stroke="black" points="279.5,-180 180.5,-180 180.5,-144 279.5,-144 279.5,-180"/>
<text text-anchor="middle" x="230" y="-159.5" font-family="Helvetica,sans-Serif" font-size="10.00">SystemResponse</text>
</a>
</g>
</g>
<!-- dir_289c9e282717af8b03cbc49f45b6383f&#45;&gt;dir_ee001d497cfb0622591b7eb1d04ce131 -->
<g id="edge16" class="edge"><title>dir_289c9e282717af8b03cbc49f45b6383f&#45;&gt;dir_ee001d497cfb0622591b7eb1d04ce131</title>
<path fill="none" stroke="black" d="M220.153,-287.875C230.41,-278.524 241.519,-266.003 247,-252 254.886,-231.854 249.392,-207.667 242.619,-189.596"/>
<polygon fill="black" stroke="black" points="245.823,-188.183 238.801,-180.25 239.343,-190.831 245.823,-188.183"/>
<g id="a_edge16&#45;headlabel"><a xlink:href="dir_000050_000063.html" target="_top" xlink:title="2">
<text text-anchor="middle" x="249.81" y="-187.937" font-family="Helvetica,sans-Serif" font-size="10.00">2</text>
</a>
</g>
</g>
<!-- dir_289c9e282717af8b03cbc49f45b6383f&#45;&gt;dir_c610c8504d46288da7634b3c0b18263f -->
<g id="edge12" class="edge"><title>dir_289c9e282717af8b03cbc49f45b6383f&#45;&gt;dir_c610c8504d46288da7634b3c0b18263f</title>
<path fill="none" stroke="black" d="M236.162,-287.876C257.393,-278.349 284.008,-266.407 306.569,-256.283"/>
<polygon fill="black" stroke="black" points="308.271,-259.356 315.962,-252.068 305.406,-252.969 308.271,-259.356"/>
<g id="a_edge12&#45;headlabel"><a xlink:href="dir_000050_000001.html" target="_top" xlink:title="55">
<text text-anchor="middle" x="306.154" y="-260.918" font-family="Helvetica,sans-Serif" font-size="10.00">55</text>
</a>
</g>
</g>
<!-- dir_289c9e282717af8b03cbc49f45b6383f&#45;&gt;dir_093f3b7f7c7a61ef21fffb3d339f67e1 -->
<g id="edge13" class="edge"><title>dir_289c9e282717af8b03cbc49f45b6383f&#45;&gt;dir_093f3b7f7c7a61ef21fffb3d339f67e1</title>
<path fill="none" stroke="black" d="M167.231,-287.907C154.456,-279.021 140.999,-266.883 134,-252 118.058,-218.099 151.434,-132.945 157,-128 190.221,-98.4828 321.11,-92.3978 386.462,-91.2231"/>
<polygon fill="black" stroke="black" points="386.792,-94.7186 396.739,-91.0694 386.687,-87.7194 386.792,-94.7186"/>
<g id="a_edge13&#45;headlabel"><a xlink:href="dir_000050_000008.html" target="_top" xlink:title="6">
<text text-anchor="middle" x="383.24" y="-95.1113" font-family="Helvetica,sans-Serif" font-size="10.00">6</text>
</a>
</g>
</g>
<!-- dir_289c9e282717af8b03cbc49f45b6383f&#45;&gt;dir_72b0d7f49fde90450b6e05dc81befa69 -->
<g id="edge15" class="edge"><title>dir_289c9e282717af8b03cbc49f45b6383f&#45;&gt;dir_72b0d7f49fde90450b6e05dc81befa69</title>
<path fill="none" stroke="black" d="M253,-306C268.253,-306 283.505,-306 298.758,-306"/>
<polygon fill="black" stroke="black" points="298.781,-309.5 308.781,-306 298.781,-302.5 298.781,-309.5"/>
<g id="a_edge15&#45;headlabel"><a xlink:href="dir_000050_000040.html" target="_top" xlink:title="4">
<text text-anchor="middle" x="295.187" y="-309.839" font-family="Helvetica,sans-Serif" font-size="10.00">4</text>
</a>
</g>
</g>
<!-- dir_4c7ee98193a6cba0af9aae7f963a60da -->
<g id="node9" class="node"><title>dir_4c7ee98193a6cba0af9aae7f963a60da</title>
<g id="a_node9"><a xlink:href="dir_4c7ee98193a6cba0af9aae7f963a60da.html" target="_top" xlink:title="Render">
<polygon fill="none" stroke="black" points="396,-180 342,-180 342,-144 396,-144 396,-180"/>
<text text-anchor="middle" x="369" y="-159.5" font-family="Helvetica,sans-Serif" font-size="10.00">Render</text>
</a>
</g>
</g>
<!-- dir_289c9e282717af8b03cbc49f45b6383f&#45;&gt;dir_4c7ee98193a6cba0af9aae7f963a60da -->
<g id="edge17" class="edge"><title>dir_289c9e282717af8b03cbc49f45b6383f&#45;&gt;dir_4c7ee98193a6cba0af9aae7f963a60da</title>
<path fill="none" stroke="black" d="M218.627,-287.871C249.054,-262.604 306.074,-215.254 340.485,-186.679"/>
<polygon fill="black" stroke="black" points="342.843,-189.271 348.3,-180.189 338.371,-183.885 342.843,-189.271"/>
<g id="a_edge17&#45;headlabel"><a xlink:href="dir_000050_000045.html" target="_top" xlink:title="2">
<text text-anchor="middle" x="341.891" y="-191.251" font-family="Helvetica,sans-Serif" font-size="10.00">2</text>
</a>
</g>
</g>
<!-- dir_289c9e282717af8b03cbc49f45b6383f&#45;&gt;dir_6bd92bd93c0d5d9980919215b46f20a3 -->
<g id="edge18" class="edge"><title>dir_289c9e282717af8b03cbc49f45b6383f&#45;&gt;dir_6bd92bd93c0d5d9980919215b46f20a3</title>
<path fill="none" stroke="black" d="M161.973,-287.815C148.081,-279.165 133.704,-267.237 126,-252 105.906,-212.258 112.507,-163.623 154,-72 158.463,-62.1446 165.095,-52.4552 171.73,-44.1118"/>
<polygon fill="black" stroke="black" points="174.563,-46.1799 178.286,-36.2608 169.19,-41.693 174.563,-46.1799"/>
<g id="a_edge18&#45;headlabel"><a xlink:href="dir_000050_000038.html" target="_top" xlink:title="11">
<text text-anchor="middle" x="174.438" y="-48.2588" font-family="Helvetica,sans-Serif" font-size="10.00">11</text>
</a>
</g>
</g>
<!-- dir_1160894028a428f438e3bcef638ce1e2&#45;&gt;dir_ee001d497cfb0622591b7eb1d04ce131 -->
<g id="edge21" class="edge"><title>dir_1160894028a428f438e3bcef638ce1e2&#45;&gt;dir_ee001d497cfb0622591b7eb1d04ce131</title>
<path fill="none" stroke="black" d="M200.64,-215.697C205.127,-207.644 210.559,-197.894 215.524,-188.982"/>
<polygon fill="black" stroke="black" points="218.661,-190.544 220.47,-180.104 212.546,-187.137 218.661,-190.544"/>
<g id="a_edge21&#45;headlabel"><a xlink:href="dir_000062_000063.html" target="_top" xlink:title="1">
<text text-anchor="middle" x="219.392" y="-192.565" font-family="Helvetica,sans-Serif" font-size="10.00">1</text>
</a>
</g>
</g>
<!-- dir_1160894028a428f438e3bcef638ce1e2&#45;&gt;dir_093f3b7f7c7a61ef21fffb3d339f67e1 -->
<g id="edge19" class="edge"><title>dir_1160894028a428f438e3bcef638ce1e2&#45;&gt;dir_093f3b7f7c7a61ef21fffb3d339f67e1</title>
<path fill="none" stroke="black" d="M180.104,-215.886C167.104,-193.072 149.642,-152.709 171,-128 198.43,-96.2671 323.232,-91.2219 386.698,-90.7552"/>
<polygon fill="black" stroke="black" points="386.714,-94.2553 396.7,-90.716 386.687,-87.2553 386.714,-94.2553"/>
<g id="a_edge19&#45;headlabel"><a xlink:href="dir_000062_000008.html" target="_top" xlink:title="2">
<text text-anchor="middle" x="383.131" y="-94.6085" font-family="Helvetica,sans-Serif" font-size="10.00">2</text>
</a>
</g>
</g>
<!-- dir_1160894028a428f438e3bcef638ce1e2&#45;&gt;dir_72b0d7f49fde90450b6e05dc81befa69 -->
<g id="edge20" class="edge"><title>dir_1160894028a428f438e3bcef638ce1e2&#45;&gt;dir_72b0d7f49fde90450b6e05dc81befa69</title>
<path fill="none" stroke="black" d="M225.829,-252.068C247.825,-261.713 276.657,-273.847 301.812,-284.064"/>
<polygon fill="black" stroke="black" points="300.667,-287.376 311.25,-287.876 303.289,-280.886 300.667,-287.376"/>
<g id="a_edge20&#45;headlabel"><a xlink:href="dir_000062_000040.html" target="_top" xlink:title="1">
<text text-anchor="middle" x="296.271" y="-286.162" font-family="Helvetica,sans-Serif" font-size="10.00">1</text>
</a>
</g>
</g>
<!-- dir_1160894028a428f438e3bcef638ce1e2&#45;&gt;dir_6bd92bd93c0d5d9980919215b46f20a3 -->
<g id="edge22" class="edge"><title>dir_1160894028a428f438e3bcef638ce1e2&#45;&gt;dir_6bd92bd93c0d5d9980919215b46f20a3</title>
<path fill="none" stroke="black" d="M176.245,-215.634C168.91,-205.849 160.814,-193.008 157,-180 143.234,-133.046 164.622,-77.279 180.47,-45.2269"/>
<polygon fill="black" stroke="black" points="183.714,-46.572 185.166,-36.0771 177.486,-43.3761 183.714,-46.572"/>
<g id="a_edge22&#45;headlabel"><a xlink:href="dir_000062_000038.html" target="_top" xlink:title="1">
<text text-anchor="middle" x="184.599" y="-48.5664" font-family="Helvetica,sans-Serif" font-size="10.00">1</text>
</a>
</g>
</g>
<!-- dir_c610c8504d46288da7634b3c0b18263f&#45;&gt;dir_ee001d497cfb0622591b7eb1d04ce131 -->
<g id="edge7" class="edge"><title>dir_c610c8504d46288da7634b3c0b18263f&#45;&gt;dir_ee001d497cfb0622591b7eb1d04ce131</title>
<path fill="none" stroke="black" d="M323.666,-215.876C307.303,-206.639 286.917,-195.131 269.346,-185.212"/>
<polygon fill="black" stroke="black" points="270.879,-182.058 260.45,-180.19 267.438,-188.154 270.879,-182.058"/>
<g id="a_edge7&#45;headlabel"><a xlink:href="dir_000001_000063.html" target="_top" xlink:title="1">
<text text-anchor="middle" x="275.405" y="-178.852" font-family="Helvetica,sans-Serif" font-size="10.00">1</text>
</a>
</g>
</g>
<!-- dir_c610c8504d46288da7634b3c0b18263f&#45;&gt;dir_093f3b7f7c7a61ef21fffb3d339f67e1 -->
<g id="edge6" class="edge"><title>dir_c610c8504d46288da7634b3c0b18263f&#45;&gt;dir_093f3b7f7c7a61ef21fffb3d339f67e1</title>
<path fill="none" stroke="black" d="M367.259,-215.947C376.767,-206.44 388.692,-193.759 396,-180 406.222,-160.754 410.945,-136.411 414.534,-118.05"/>
<polygon fill="black" stroke="black" points="418.012,-118.508 416.55,-108.015 411.149,-117.13 418.012,-118.508"/>
<g id="a_edge6&#45;headlabel"><a xlink:href="dir_000001_000008.html" target="_top" xlink:title="1">
<text text-anchor="middle" x="420.088" y="-120.092" font-family="Helvetica,sans-Serif" font-size="10.00">1</text>
</a>
</g>
</g>
<!-- dir_c610c8504d46288da7634b3c0b18263f&#45;&gt;dir_4c7ee98193a6cba0af9aae7f963a60da -->
<g id="edge8" class="edge"><title>dir_c610c8504d46288da7634b3c0b18263f&#45;&gt;dir_4c7ee98193a6cba0af9aae7f963a60da</title>
<path fill="none" stroke="black" d="M351.792,-215.697C352.659,-207.898 354.448,-198.509 356.667,-189.829"/>
<polygon fill="black" stroke="black" points="360.064,-190.681 359.44,-180.104 353.332,-188.761 360.064,-190.681"/>
<g id="a_edge8&#45;headlabel"><a xlink:href="dir_000001_000045.html" target="_top" xlink:title="3">
<text text-anchor="middle" x="361.809" y="-192.416" font-family="Helvetica,sans-Serif" font-size="10.00">3</text>
</a>
</g>
</g>
<!-- dir_c610c8504d46288da7634b3c0b18263f&#45;&gt;dir_6bd92bd93c0d5d9980919215b46f20a3 -->
<g id="edge9" class="edge"><title>dir_c610c8504d46288da7634b3c0b18263f&#45;&gt;dir_6bd92bd93c0d5d9980919215b46f20a3</title>
<path fill="none" stroke="black" d="M345.09,-215.632C333.832,-194.269 313.336,-157.245 292,-128 269.528,-97.198 239.949,-64.9363 219.389,-43.5792"/>
<polygon fill="black" stroke="black" points="221.728,-40.9645 212.252,-36.2271 216.706,-45.8402 221.728,-40.9645"/>
<g id="a_edge9&#45;headlabel"><a xlink:href="dir_000001_000038.html" target="_top" xlink:title="1">
<text text-anchor="middle" x="226.269" y="-39.0661" font-family="Helvetica,sans-Serif" font-size="10.00">1</text>
</a>
</g>
</g>
<!-- dir_093f3b7f7c7a61ef21fffb3d339f67e1&#45;&gt;dir_c610c8504d46288da7634b3c0b18263f -->
<g id="edge10" class="edge"><title>dir_093f3b7f7c7a61ef21fffb3d339f67e1&#45;&gt;dir_c610c8504d46288da7634b3c0b18263f</title>
<path fill="none" stroke="black" d="M429.73,-108.015C430.587,-126.659 426.229,-156.977 414,-180 408.291,-190.749 399.763,-200.841 390.843,-209.274"/>
<polygon fill="black" stroke="black" points="388.475,-206.696 383.311,-215.947 393.117,-211.936 388.475,-206.696"/>
<g id="a_edge10&#45;headlabel"><a xlink:href="dir_000008_000001.html" target="_top" xlink:title="155">
<text text-anchor="middle" x="389.283" y="-199.687" font-family="Helvetica,sans-Serif" font-size="10.00">155</text>
</a>
</g>
</g>
<!-- dir_093f3b7f7c7a61ef21fffb3d339f67e1&#45;&gt;dir_6bd92bd93c0d5d9980919215b46f20a3 -->
<g id="edge11" class="edge"><title>dir_093f3b7f7c7a61ef21fffb3d339f67e1&#45;&gt;dir_6bd92bd93c0d5d9980919215b46f20a3</title>
<path fill="none" stroke="black" d="M396.818,-79.5384C389.434,-77.0284 381.427,-74.3611 374,-72 328.122,-57.4152 275.222,-41.9126 238.893,-31.4672"/>
<polygon fill="black" stroke="black" points="239.683,-28.0527 229.106,-28.6602 237.753,-34.7815 239.683,-28.0527"/>
<g id="a_edge11&#45;headlabel"><a xlink:href="dir_000008_000038.html" target="_top" xlink:title="3">
<text text-anchor="middle" x="243.921" y="-23.8144" font-family="Helvetica,sans-Serif" font-size="10.00">3</text>
</a>
</g>
</g>
<!-- dir_72b0d7f49fde90450b6e05dc81befa69&#45;&gt;dir_900c20bb70493231141df6997ccd6b87 -->
<g id="edge26" class="edge"><title>dir_72b0d7f49fde90450b6e05dc81befa69&#45;&gt;dir_900c20bb70493231141df6997ccd6b87</title>
<path fill="none" stroke="black" d="M331.479,-324.19C317.472,-333.268 300.103,-344.526 285.005,-354.312"/>
<polygon fill="black" stroke="black" points="282.908,-351.5 276.42,-359.876 286.715,-357.374 282.908,-351.5"/>
<g id="a_edge26&#45;headlabel"><a xlink:href="dir_000040_000048.html" target="_top" xlink:title="1">
<text text-anchor="middle" x="284.38" y="-344.662" font-family="Helvetica,sans-Serif" font-size="10.00">1</text>
</a>
</g>
</g>
<!-- dir_72b0d7f49fde90450b6e05dc81befa69&#45;&gt;dir_1160894028a428f438e3bcef638ce1e2 -->
<g id="edge25" class="edge"><title>dir_72b0d7f49fde90450b6e05dc81befa69&#45;&gt;dir_1160894028a428f438e3bcef638ce1e2</title>
<path fill="none" stroke="black" d="M323.044,-287.876C301.022,-278.222 272.184,-266.087 247.044,-255.878"/>
<polygon fill="black" stroke="black" points="248.194,-252.568 237.611,-252.068 245.573,-259.058 248.194,-252.568"/>
<g id="a_edge25&#45;headlabel"><a xlink:href="dir_000040_000062.html" target="_top" xlink:title="1">
<text text-anchor="middle" x="252.591" y="-248.781" font-family="Helvetica,sans-Serif" font-size="10.00">1</text>
</a>
</g>
</g>
<!-- dir_72b0d7f49fde90450b6e05dc81befa69&#45;&gt;dir_c610c8504d46288da7634b3c0b18263f -->
<g id="edge23" class="edge"><title>dir_72b0d7f49fde90450b6e05dc81befa69&#45;&gt;dir_c610c8504d46288da7634b3c0b18263f</title>
<path fill="none" stroke="black" d="M357.011,-287.697C356.57,-279.983 356.041,-270.712 355.549,-262.112"/>
<polygon fill="black" stroke="black" points="359.042,-261.888 354.977,-252.104 352.054,-262.288 359.042,-261.888"/>
<g id="a_edge23&#45;headlabel"><a xlink:href="dir_000040_000001.html" target="_top" xlink:title="1">
<text text-anchor="middle" x="362.082" y="-262.815" font-family="Helvetica,sans-Serif" font-size="10.00">1</text>
</a>
</g>
</g>
<!-- dir_72b0d7f49fde90450b6e05dc81befa69&#45;&gt;dir_093f3b7f7c7a61ef21fffb3d339f67e1 -->
<g id="edge24" class="edge"><title>dir_72b0d7f49fde90450b6e05dc81befa69&#45;&gt;dir_093f3b7f7c7a61ef21fffb3d339f67e1</title>
<path fill="none" stroke="black" d="M383.778,-287.853C395.841,-278.58 409.41,-266.134 418,-252 446.923,-204.411 444.697,-183.005 436,-128 435.473,-124.665 434.694,-121.221 433.781,-117.838"/>
<polygon fill="black" stroke="black" points="437.052,-116.569 430.763,-108.043 430.363,-118.63 437.052,-116.569"/>
<g id="a_edge24&#45;headlabel"><a xlink:href="dir_000040_000008.html" target="_top" xlink:title="1">
<text text-anchor="middle" x="440.824" y="-116.668" font-family="Helvetica,sans-Serif" font-size="10.00">1</text>
</a>
</g>
</g>
<!-- dir_72b0d7f49fde90450b6e05dc81befa69&#45;&gt;dir_4c7ee98193a6cba0af9aae7f963a60da -->
<g id="edge27" class="edge"><title>dir_72b0d7f49fde90450b6e05dc81befa69&#45;&gt;dir_4c7ee98193a6cba0af9aae7f963a60da</title>
<path fill="none" stroke="black" d="M377.474,-287.918C386.821,-278.403 397.046,-265.723 402,-252 407.433,-236.951 406.398,-231.384 402,-216 399.287,-206.51 394.328,-197.065 389.065,-188.834"/>
<polygon fill="black" stroke="black" points="391.858,-186.717 383.327,-180.434 386.078,-190.666 391.858,-186.717"/>
<g id="a_edge27&#45;headlabel"><a xlink:href="dir_000040_000045.html" target="_top" xlink:title="2">
<text text-anchor="middle" x="396.23" y="-185.583" font-family="Helvetica,sans-Serif" font-size="10.00">2</text>
</a>
</g>
</g>
<!-- dir_4c7ee98193a6cba0af9aae7f963a60da&#45;&gt;dir_c610c8504d46288da7634b3c0b18263f -->
<g id="edge28" class="edge"><title>dir_4c7ee98193a6cba0af9aae7f963a60da&#45;&gt;dir_c610c8504d46288da7634b3c0b18263f</title>
<path fill="none" stroke="black" d="M371.23,-180.104C370.379,-187.876 368.601,-197.257 366.39,-205.949"/>
<polygon fill="black" stroke="black" points="362.986,-205.121 363.624,-215.697 369.72,-207.032 362.986,-205.121"/>
<g id="a_edge28&#45;headlabel"><a xlink:href="dir_000045_000001.html" target="_top" xlink:title="5">
<text text-anchor="middle" x="361.236" y="-198.388" font-family="Helvetica,sans-Serif" font-size="10.00">5</text>
</a>
</g>
</g>
<!-- dir_4c7ee98193a6cba0af9aae7f963a60da&#45;&gt;dir_093f3b7f7c7a61ef21fffb3d339f67e1 -->
<g id="edge29" class="edge"><title>dir_4c7ee98193a6cba0af9aae7f963a60da&#45;&gt;dir_093f3b7f7c7a61ef21fffb3d339f67e1</title>
<path fill="none" stroke="black" d="M382.596,-143.697C389.123,-135.389 397.068,-125.277 404.247,-116.141"/>
<polygon fill="black" stroke="black" points="407.135,-118.13 410.561,-108.104 401.631,-113.805 407.135,-118.13"/>
<g id="a_edge29&#45;headlabel"><a xlink:href="dir_000045_000008.html" target="_top" xlink:title="2">
<text text-anchor="middle" x="407.147" y="-120.211" font-family="Helvetica,sans-Serif" font-size="10.00">2</text>
</a>
</g>
</g>
<!-- dir_4c7ee98193a6cba0af9aae7f963a60da&#45;&gt;dir_6bd92bd93c0d5d9980919215b46f20a3 -->
<g id="edge30" class="edge"><title>dir_4c7ee98193a6cba0af9aae7f963a60da&#45;&gt;dir_6bd92bd93c0d5d9980919215b46f20a3</title>
<path fill="none" stroke="black" d="M365.146,-143.654C359.911,-123.854 348.733,-91.6721 328,-72 303.51,-48.7629 267.569,-35.2641 239.222,-27.7111"/>
<polygon fill="black" stroke="black" points="239.707,-24.2247 229.157,-25.1905 238.007,-31.015 239.707,-24.2247"/>
<g id="a_edge30&#45;headlabel"><a xlink:href="dir_000045_000038.html" target="_top" xlink:title="1">
<text text-anchor="middle" x="243.884" y="-19.8437" font-family="Helvetica,sans-Serif" font-size="10.00">1</text>
</a>
</g>
</g>
</g>
</svg>
