<?xml version="1.0" encoding="UTF-8" standalone="no"?>
<!DOCTYPE svg PUBLIC "-//W3C//DTD SVG 1.1//EN"
 "http://www.w3.org/Graphics/SVG/1.1/DTD/svg11.dtd">
<!-- Generated by graphviz version 2.38.0 (20140413.2041)
 -->
<!-- Title: src/Systems/SystemConstructor/MenuSystem Pages: 1 -->
<svg width="270pt" height="367pt"
 viewBox="0.00 0.00 269.62 367.00" xmlns="http://www.w3.org/2000/svg" xmlns:xlink="http://www.w3.org/1999/xlink">
<g id="graph0" class="graph" transform="scale(1 1) rotate(0) translate(4 363)">
<title>src/Systems/SystemConstructor/MenuSystem</title>
<g id="clust1" class="cluster"><title>clusterdir_289c9e282717af8b03cbc49f45b6383f</title>
<g id="a_clust1"><a xlink:href="dir_289c9e282717af8b03cbc49f45b6383f.html" target="_top" xlink:title="SystemConstructor">
<polygon fill="#ddddee" stroke="black" points="13.6223,-280 13.6223,-351 123.622,-351 123.622,-280 13.6223,-280"/>
<text text-anchor="middle" x="68.6223" y="-339" font-family="Helvetica,sans-Serif" font-size="10.00">SystemConstructor</text>
</a>
</g>
</g>
<!-- dir_25e2c3bd161c7afeb999d193fee28416 -->
<g id="node1" class="node"><title>dir_25e2c3bd161c7afeb999d193fee28416</title>
<g id="a_node1"><a xlink:href="dir_25e2c3bd161c7afeb999d193fee28416.html" target="_top" xlink:title="MenuSystem">
<polygon fill="#eeeeff" stroke="black" points="108.622,-324 28.6223,-324 28.6223,-288 108.622,-288 108.622,-324"/>
<text text-anchor="middle" x="68.6223" y="-303.5" font-family="Helvetica,sans-Serif" font-size="10.00">MenuSystem</text>
</a>
</g>
</g>
<!-- dir_c610c8504d46288da7634b3c0b18263f -->
<g id="node2" class="node"><title>dir_c610c8504d46288da7634b3c0b18263f</title>
<g id="a_node2"><a xlink:href="dir_c610c8504d46288da7634b3c0b18263f.html" target="_top" xlink:title="Components">
<polygon fill="none" stroke="red" points="174.622,-180 96.6223,-180 96.6223,-144 174.622,-144 174.622,-180"/>
<text text-anchor="middle" x="135.622" y="-159.5" font-family="Helvetica,sans-Serif" font-size="10.00">Components</text>
</a>
</g>
</g>
<!-- dir_25e2c3bd161c7afeb999d193fee28416&#45;&gt;dir_c610c8504d46288da7634b3c0b18263f -->
<g id="edge9" class="edge"><title>dir_25e2c3bd161c7afeb999d193fee28416&#45;&gt;dir_c610c8504d46288da7634b3c0b18263f</title>
<path fill="none" stroke="black" d="M94.7142,-287.939C106.509,-278.766 119.396,-266.382 126.622,-252 136.239,-232.859 138.106,-208.508 137.782,-190.118"/>
<polygon fill="black" stroke="black" points="141.277,-189.915 137.38,-180.063 134.282,-190.195 141.277,-189.915"/>
<g id="a_edge9&#45;headlabel"><a xlink:href="dir_000057_000001.html" target="_top" xlink:title="2">
<text text-anchor="middle" x="144.257" y="-190.893" font-family="Helvetica,sans-Serif" font-size="10.00">2</text>
</a>
</g>
</g>
<!-- dir_093f3b7f7c7a61ef21fffb3d339f67e1 -->
<g id="node3" class="node"><title>dir_093f3b7f7c7a61ef21fffb3d339f67e1</title>
<g id="a_node3"><a xlink:href="dir_093f3b7f7c7a61ef21fffb3d339f67e1.html" target="_top" xlink:title="Entities">
<polygon fill="none" stroke="red" points="107.622,-108 53.6223,-108 53.6223,-72 107.622,-72 107.622,-108"/>
<text text-anchor="middle" x="80.6223" y="-87.5" font-family="Helvetica,sans-Serif" font-size="10.00">Entities</text>
</a>
</g>
</g>
<!-- dir_25e2c3bd161c7afeb999d193fee28416&#45;&gt;dir_093f3b7f7c7a61ef21fffb3d339f67e1 -->
<g id="edge10" class="edge"><title>dir_25e2c3bd161c7afeb999d193fee28416&#45;&gt;dir_093f3b7f7c7a61ef21fffb3d339f67e1</title>
<path fill="none" stroke="black" d="M41.2827,-287.775C29.5119,-278.718 17.0049,-266.478 10.6223,-252 4.16821,-237.359 6.58256,-231.482 10.6223,-216 20.3541,-178.704 43.9548,-140.757 61.0672,-116.613"/>
<polygon fill="black" stroke="black" points="64.0071,-118.521 67.0405,-108.37 58.3388,-114.414 64.0071,-118.521"/>
<g id="a_edge10&#45;headlabel"><a xlink:href="dir_000057_000008.html" target="_top" xlink:title="1">
<text text-anchor="middle" x="64.1971" y="-120.598" font-family="Helvetica,sans-Serif" font-size="10.00">1</text>
</a>
</g>
</g>
<!-- dir_5e4479035860cf5bcbad91b0602a81f2 -->
<g id="node4" class="node"><title>dir_5e4479035860cf5bcbad91b0602a81f2</title>
<g id="a_node4"><a xlink:href="dir_5e4479035860cf5bcbad91b0602a81f2.html" target="_top" xlink:title="DisplaySystem">
<polygon fill="none" stroke="black" points="261.622,-252 173.622,-252 173.622,-216 261.622,-216 261.622,-252"/>
<text text-anchor="middle" x="217.622" y="-231.5" font-family="Helvetica,sans-Serif" font-size="10.00">DisplaySystem</text>
</a>
</g>
</g>
<!-- dir_25e2c3bd161c7afeb999d193fee28416&#45;&gt;dir_5e4479035860cf5bcbad91b0602a81f2 -->
<g id="edge11" class="edge"><title>dir_25e2c3bd161c7afeb999d193fee28416&#45;&gt;dir_5e4479035860cf5bcbad91b0602a81f2</title>
<path fill="none" stroke="black" d="M105.072,-287.876C125.26,-278.392 150.544,-266.513 172.03,-256.419"/>
<polygon fill="black" stroke="black" points="173.728,-259.488 181.291,-252.068 170.752,-253.153 173.728,-259.488"/>
<g id="a_edge11&#45;headlabel"><a xlink:href="dir_000057_000055.html" target="_top" xlink:title="1">
<text text-anchor="middle" x="171.682" y="-261.087" font-family="Helvetica,sans-Serif" font-size="10.00">1</text>
</a>
</g>
</g>
<!-- dir_72b0d7f49fde90450b6e05dc81befa69 -->
<g id="node5" class="node"><title>dir_72b0d7f49fde90450b6e05dc81befa69</title>
<g id="a_node5"><a xlink:href="dir_72b0d7f49fde90450b6e05dc81befa69.html" target="_top" xlink:title="ManagerWrapper">
<polygon fill="none" stroke="black" points="117.622,-252 19.6223,-252 19.6223,-216 117.622,-216 117.622,-252"/>
<text text-anchor="middle" x="68.6223" y="-231.5" font-family="Helvetica,sans-Serif" font-size="10.00">ManagerWrapper</text>
</a>
</g>
</g>
<!-- dir_25e2c3bd161c7afeb999d193fee28416&#45;&gt;dir_72b0d7f49fde90450b6e05dc81befa69 -->
<g id="edge12" class="edge"><title>dir_25e2c3bd161c7afeb999d193fee28416&#45;&gt;dir_72b0d7f49fde90450b6e05dc81befa69</title>
<path fill="none" stroke="black" d="M68.6223,-287.697C68.6223,-279.983 68.6223,-270.712 68.6223,-262.112"/>
<polygon fill="black" stroke="black" points="72.1224,-262.104 68.6223,-252.104 65.1224,-262.104 72.1224,-262.104"/>
<g id="a_edge12&#45;headlabel"><a xlink:href="dir_000057_000040.html" target="_top" xlink:title="1">
<text text-anchor="middle" x="74.9615" y="-263.199" font-family="Helvetica,sans-Serif" font-size="10.00">1</text>
</a>
</g>
</g>
<!-- dir_6bd92bd93c0d5d9980919215b46f20a3 -->
<g id="node6" class="node"><title>dir_6bd92bd93c0d5d9980919215b46f20a3</title>
<g id="a_node6"><a xlink:href="dir_6bd92bd93c0d5d9980919215b46f20a3.html" target="_top" xlink:title="Exceptions">
<polygon fill="none" stroke="black" points="141.622,-36 73.6223,-36 73.6223,-0 141.622,-0 141.622,-36"/>
<text text-anchor="middle" x="107.622" y="-15.5" font-family="Helvetica,sans-Serif" font-size="10.00">Exceptions</text>
</a>
</g>
</g>
<!-- dir_25e2c3bd161c7afeb999d193fee28416&#45;&gt;dir_6bd92bd93c0d5d9980919215b46f20a3 -->
<g id="edge13" class="edge"><title>dir_25e2c3bd161c7afeb999d193fee28416&#45;&gt;dir_6bd92bd93c0d5d9980919215b46f20a3</title>
<path fill="none" stroke="black" d="M37.0427,-287.776C24.1723,-278.931 10.6806,-266.863 3.62227,-252 -3.24154,-237.547 1.7715,-231.893 3.62227,-216 11.3196,-149.903 7.23744,-127.049 44.6223,-72 52.1623,-60.8972 62.6469,-50.8088 72.9015,-42.4845"/>
<polygon fill="black" stroke="black" points="75.252,-45.091 81.0155,-36.201 70.9661,-39.5565 75.252,-45.091"/>
<g id="a_edge13&#45;headlabel"><a xlink:href="dir_000057_000038.html" target="_top" xlink:title="1">
<text text-anchor="middle" x="74.1484" y="-47.0367" font-family="Helvetica,sans-Serif" font-size="10.00">1</text>
</a>
</g>
</g>
<!-- dir_c610c8504d46288da7634b3c0b18263f&#45;&gt;dir_093f3b7f7c7a61ef21fffb3d339f67e1 -->
<g id="edge1" class="edge"><title>dir_c610c8504d46288da7634b3c0b18263f&#45;&gt;dir_093f3b7f7c7a61ef21fffb3d339f67e1</title>
<path fill="none" stroke="black" d="M116.111,-143.697C108.802,-135.474 100.751,-125.483 94.0756,-116.421"/>
<polygon fill="black" stroke="black" points="96.8117,-114.229 88.1664,-108.104 91.1055,-118.283 96.8117,-114.229"/>
<g id="a_edge1&#45;headlabel"><a xlink:href="dir_000001_000008.html" target="_top" xlink:title="1">
<text text-anchor="middle" x="101.208" y="-113.014" font-family="Helvetica,sans-Serif" font-size="10.00">1</text>
</a>
</g>
</g>
<!-- dir_c610c8504d46288da7634b3c0b18263f&#45;&gt;dir_6bd92bd93c0d5d9980919215b46f20a3 -->
<g id="edge2" class="edge"><title>dir_c610c8504d46288da7634b3c0b18263f&#45;&gt;dir_6bd92bd93c0d5d9980919215b46f20a3</title>
<path fill="none" stroke="black" d="M132.245,-143.871C127.452,-119.564 118.629,-74.8187 112.949,-46.0132"/>
<polygon fill="black" stroke="black" points="116.38,-45.3232 111.012,-36.1893 109.512,-46.6775 116.38,-45.3232"/>
<g id="a_edge2&#45;headlabel"><a xlink:href="dir_000001_000038.html" target="_top" xlink:title="1">
<text text-anchor="middle" x="119.861" y="-45.8007" font-family="Helvetica,sans-Serif" font-size="10.00">1</text>
</a>
</g>
</g>
<!-- dir_093f3b7f7c7a61ef21fffb3d339f67e1&#45;&gt;dir_c610c8504d46288da7634b3c0b18263f -->
<g id="edge3" class="edge"><title>dir_093f3b7f7c7a61ef21fffb3d339f67e1&#45;&gt;dir_c610c8504d46288da7634b3c0b18263f</title>
<path fill="none" stroke="black" d="M99.9564,-108.104C107.253,-116.298 115.309,-126.282 122.007,-135.359"/>
<polygon fill="black" stroke="black" points="119.291,-137.58 127.942,-143.697 124.994,-133.52 119.291,-137.58"/>
<g id="a_edge3&#45;headlabel"><a xlink:href="dir_000008_000001.html" target="_top" xlink:title="155">
<text text-anchor="middle" x="114.894" y="-133.799" font-family="Helvetica,sans-Serif" font-size="10.00">155</text>
</a>
</g>
</g>
<!-- dir_093f3b7f7c7a61ef21fffb3d339f67e1&#45;&gt;dir_6bd92bd93c0d5d9980919215b46f20a3 -->
<g id="edge4" class="edge"><title>dir_093f3b7f7c7a61ef21fffb3d339f67e1&#45;&gt;dir_6bd92bd93c0d5d9980919215b46f20a3</title>
<path fill="none" stroke="black" d="M87.2964,-71.6966C90.3372,-63.8132 94.0049,-54.3042 97.3829,-45.5464"/>
<polygon fill="black" stroke="black" points="100.692,-46.6939 101.025,-36.1043 94.1606,-44.1748 100.692,-46.6939"/>
<g id="a_edge4&#45;headlabel"><a xlink:href="dir_000008_000038.html" target="_top" xlink:title="3">
<text text-anchor="middle" x="102.047" y="-48.5695" font-family="Helvetica,sans-Serif" font-size="10.00">3</text>
</a>
</g>
</g>
<!-- dir_5e4479035860cf5bcbad91b0602a81f2&#45;&gt;dir_c610c8504d46288da7634b3c0b18263f -->
<g id="edge5" class="edge"><title>dir_5e4479035860cf5bcbad91b0602a81f2&#45;&gt;dir_c610c8504d46288da7634b3c0b18263f</title>
<path fill="none" stroke="black" d="M197.353,-215.697C187.125,-206.965 174.561,-196.24 163.444,-186.75"/>
<polygon fill="black" stroke="black" points="165.537,-183.935 155.659,-180.104 160.992,-189.259 165.537,-183.935"/>
<g id="a_edge5&#45;headlabel"><a xlink:href="dir_000055_000001.html" target="_top" xlink:title="4">
<text text-anchor="middle" x="170.114" y="-181.609" font-family="Helvetica,sans-Serif" font-size="10.00">4</text>
</a>
</g>
</g>
<!-- dir_5e4479035860cf5bcbad91b0602a81f2&#45;&gt;dir_6bd92bd93c0d5d9980919215b46f20a3 -->
<g id="edge6" class="edge"><title>dir_5e4479035860cf5bcbad91b0602a81f2&#45;&gt;dir_6bd92bd93c0d5d9980919215b46f20a3</title>
<path fill="none" stroke="black" d="M212.118,-215.883C206.025,-197.672 195.485,-168.211 183.622,-144 166.106,-108.25 141.546,-69.4151 125.136,-44.6764"/>
<polygon fill="black" stroke="black" points="127.956,-42.5975 119.487,-36.2318 122.138,-46.4896 127.956,-42.5975"/>
<g id="a_edge6&#45;headlabel"><a xlink:href="dir_000055_000038.html" target="_top" xlink:title="1">
<text text-anchor="middle" x="132.315" y="-41.5066" font-family="Helvetica,sans-Serif" font-size="10.00">1</text>
</a>
</g>
</g>
<!-- dir_72b0d7f49fde90450b6e05dc81befa69&#45;&gt;dir_c610c8504d46288da7634b3c0b18263f -->
<g id="edge7" class="edge"><title>dir_72b0d7f49fde90450b6e05dc81befa69&#45;&gt;dir_c610c8504d46288da7634b3c0b18263f</title>
<path fill="none" stroke="black" d="M85.1841,-215.697C93.2976,-207.22 103.21,-196.864 112.093,-187.583"/>
<polygon fill="black" stroke="black" points="114.865,-189.749 119.251,-180.104 109.808,-184.908 114.865,-189.749"/>
<g id="a_edge7&#45;headlabel"><a xlink:href="dir_000040_000001.html" target="_top" xlink:title="1">
<text text-anchor="middle" x="114.43" y="-191.809" font-family="Helvetica,sans-Serif" font-size="10.00">1</text>
</a>
</g>
</g>
<!-- dir_72b0d7f49fde90450b6e05dc81befa69&#45;&gt;dir_093f3b7f7c7a61ef21fffb3d339f67e1 -->
<g id="edge8" class="edge"><title>dir_72b0d7f49fde90450b6e05dc81befa69&#45;&gt;dir_093f3b7f7c7a61ef21fffb3d339f67e1</title>
<path fill="none" stroke="black" d="M70.0697,-215.871C72.1149,-191.67 75.8721,-147.211 78.3073,-118.393"/>
<polygon fill="black" stroke="black" points="81.8151,-118.449 79.1697,-108.189 74.8399,-117.859 81.8151,-118.449"/>
<g id="a_edge8&#45;headlabel"><a xlink:href="dir_000040_000008.html" target="_top" xlink:title="1">
<text text-anchor="middle" x="84.3417" y="-119.769" font-family="Helvetica,sans-Serif" font-size="10.00">1</text>
</a>
</g>
</g>
</g>
</svg>
