<?xml version="1.0" encoding="UTF-8" standalone="no"?>
<!DOCTYPE svg PUBLIC "-//W3C//DTD SVG 1.1//EN"
 "http://www.w3.org/Graphics/SVG/1.1/DTD/svg11.dtd">
<!-- Generated by graphviz version 2.38.0 (20140413.2041)
 -->
<!-- Title: src/Entities/EntityConstructor Pages: 1 -->
<svg width="2958pt" height="252pt"
 viewBox="0.00 0.00 2958.00 252.27" xmlns="http://www.w3.org/2000/svg" xmlns:xlink="http://www.w3.org/1999/xlink">
<g id="graph0" class="graph" transform="scale(1 1) rotate(0) translate(4 248.274)">
<title>src/Entities/EntityConstructor</title>
<g id="clust1" class="cluster"><title>clusterdir_093f3b7f7c7a61ef21fffb3d339f67e1</title>
<g id="a_clust1"><a xlink:href="dir_093f3b7f7c7a61ef21fffb3d339f67e1.html" target="_top" xlink:title="Entities">
<polygon fill="#ddddee" stroke="black" points="94,-128 94,-215 2942,-215 2942,-128 94,-128"/>
<text text-anchor="middle" x="1518" y="-203" font-family="Helvetica,sans-Serif" font-size="10.00">Entities</text>
</a>
</g>
</g>
<g id="clust2" class="cluster"><title>clusterdir_407c77903c552c75ad67cb9ea27f8b48</title>
<g id="a_clust2"><a xlink:href="dir_407c77903c552c75ad67cb9ea27f8b48.html" target="_top">
<polygon fill="#eeeeff" stroke="black" points="102,-136 102,-188 2934,-188 2934,-136 102,-136"/>
</a>
</g>
</g>
<!-- dir_407c77903c552c75ad67cb9ea27f8b48 -->
<g id="node1" class="node"><title>dir_407c77903c552c75ad67cb9ea27f8b48</title>
<text text-anchor="middle" x="2876" y="-159.5" font-family="Helvetica,sans-Serif" font-size="10.00">EntityConstructor</text>
</g>
<!-- dir_7ef50f4d5f08318e733b1532da00e919 -->
<g id="node29" class="node"><title>dir_7ef50f4d5f08318e733b1532da00e919</title>
<g id="a_node29"><a xlink:href="dir_7ef50f4d5f08318e733b1532da00e919.html" target="_top" xlink:title="EntityManager">
<polygon fill="none" stroke="black" points="86,-180 0,-180 0,-144 86,-144 86,-180"/>
<text text-anchor="middle" x="43" y="-159.5" font-family="Helvetica,sans-Serif" font-size="10.00">EntityManager</text>
</a>
</g>
</g>
<!-- dir_407c77903c552c75ad67cb9ea27f8b48&#45;&gt;dir_7ef50f4d5f08318e733b1532da00e919 -->
<g id="edge34" class="edge"><title>dir_407c77903c552c75ad67cb9ea27f8b48&#45;&gt;dir_7ef50f4d5f08318e733b1532da00e919</title>
<path fill="none" stroke="black" d="M2864.86,-180.266C2853.15,-197.537 2832.96,-222.345 2808,-233 2773.5,-247.729 141.275,-248.249 107,-233 86.6589,-223.95 70.0612,-204.887 58.8696,-188.791"/>
<polygon fill="black" stroke="black" points="61.6508,-186.651 53.2188,-180.236 55.81,-190.509 61.6508,-186.651"/>
<g id="a_edge34&#45;headlabel"><a xlink:href="dir_000009_000035.html" target="_top" xlink:title="1">
<text text-anchor="middle" x="66.0011" y="-185.585" font-family="Helvetica,sans-Serif" font-size="10.00">1</text>
</a>
</g>
</g>
<!-- dir_74bbeac3360c94b99a8f07c2d03b5876 -->
<g id="node2" class="node"><title>dir_74bbeac3360c94b99a8f07c2d03b5876</title>
<g id="a_node2"><a xlink:href="dir_74bbeac3360c94b99a8f07c2d03b5876.html" target="_top" xlink:title="BackEntity">
<polygon fill="white" stroke="black" points="672.5,-180 605.5,-180 605.5,-144 672.5,-144 672.5,-180"/>
<text text-anchor="middle" x="639" y="-159.5" font-family="Helvetica,sans-Serif" font-size="10.00">BackEntity</text>
</a>
</g>
</g>
<!-- dir_c610c8504d46288da7634b3c0b18263f -->
<g id="node28" class="node"><title>dir_c610c8504d46288da7634b3c0b18263f</title>
<g id="a_node28"><a xlink:href="dir_c610c8504d46288da7634b3c0b18263f.html" target="_top" xlink:title="Components">
<polygon fill="none" stroke="red" points="1559,-108 1481,-108 1481,-72 1559,-72 1559,-108"/>
<text text-anchor="middle" x="1520" y="-87.5" font-family="Helvetica,sans-Serif" font-size="10.00">Components</text>
</a>
</g>
</g>
<!-- dir_74bbeac3360c94b99a8f07c2d03b5876&#45;&gt;dir_c610c8504d46288da7634b3c0b18263f -->
<g id="edge29" class="edge"><title>dir_74bbeac3360c94b99a8f07c2d03b5876&#45;&gt;dir_c610c8504d46288da7634b3c0b18263f</title>
<path fill="none" stroke="black" d="M656.335,-143.805C663.644,-137.659 672.628,-131.414 682,-128 755.923,-101.071 1302.18,-93.2404 1470.66,-91.4537"/>
<polygon fill="black" stroke="black" points="1470.78,-94.9528 1480.74,-91.3493 1470.71,-87.9532 1470.78,-94.9528"/>
<g id="a_edge29&#45;headlabel"><a xlink:href="dir_000010_000001.html" target="_top" xlink:title="3">
<text text-anchor="middle" x="1467.21" y="-95.3291" font-family="Helvetica,sans-Serif" font-size="10.00">3</text>
</a>
</g>
</g>
<!-- dir_d9d3758fc584a6df7fcfc0ccf8e89afd -->
<g id="node3" class="node"><title>dir_d9d3758fc584a6df7fcfc0ccf8e89afd</title>
<g id="a_node3"><a xlink:href="dir_d9d3758fc584a6df7fcfc0ccf8e89afd.html" target="_top" xlink:title="BackgroundMenuEntity">
<polygon fill="white" stroke="black" points="587.5,-180 460.5,-180 460.5,-144 587.5,-144 587.5,-180"/>
<text text-anchor="middle" x="524" y="-159.5" font-family="Helvetica,sans-Serif" font-size="10.00">BackgroundMenuEntity</text>
</a>
</g>
</g>
<!-- dir_d9d3758fc584a6df7fcfc0ccf8e89afd&#45;&gt;dir_c610c8504d46288da7634b3c0b18263f -->
<g id="edge31" class="edge"><title>dir_d9d3758fc584a6df7fcfc0ccf8e89afd&#45;&gt;dir_c610c8504d46288da7634b3c0b18263f</title>
<path fill="none" stroke="black" d="M554.684,-143.958C567.389,-137.753 582.518,-131.426 597,-128 765.077,-88.2355 1303.74,-89.1922 1470.39,-90.4961"/>
<polygon fill="black" stroke="black" points="1470.79,-93.9994 1480.82,-90.582 1470.85,-86.9997 1470.79,-93.9994"/>
<g id="a_edge31&#45;headlabel"><a xlink:href="dir_000011_000001.html" target="_top" xlink:title="4">
<text text-anchor="middle" x="1467.18" y="-94.3091" font-family="Helvetica,sans-Serif" font-size="10.00">4</text>
</a>
</g>
</g>
<!-- dir_06af63ca3c005737ab40a6af31355171 -->
<g id="node4" class="node"><title>dir_06af63ca3c005737ab40a6af31355171</title>
<g id="a_node4"><a xlink:href="dir_06af63ca3c005737ab40a6af31355171.html" target="_top" xlink:title="BackgroundWithoutTitleEntity">
<polygon fill="white" stroke="black" points="442,-180 286,-180 286,-144 442,-144 442,-180"/>
<text text-anchor="middle" x="364" y="-159.5" font-family="Helvetica,sans-Serif" font-size="10.00">BackgroundWithoutTitleEntity</text>
</a>
</g>
</g>
<!-- dir_06af63ca3c005737ab40a6af31355171&#45;&gt;dir_c610c8504d46288da7634b3c0b18263f -->
<g id="edge1" class="edge"><title>dir_06af63ca3c005737ab40a6af31355171&#45;&gt;dir_c610c8504d46288da7634b3c0b18263f</title>
<path fill="none" stroke="black" d="M401.33,-143.943C416.695,-137.737 434.878,-131.412 452,-128 650.788,-88.386 1288.31,-89.4408 1470.78,-90.5994"/>
<polygon fill="black" stroke="black" points="1470.86,-94.0999 1480.89,-90.6667 1470.91,-87.1 1470.86,-94.0999"/>
<g id="a_edge1&#45;headlabel"><a xlink:href="dir_000012_000001.html" target="_top" xlink:title="4">
<text text-anchor="middle" x="1467.25" y="-94.4153" font-family="Helvetica,sans-Serif" font-size="10.00">4</text>
</a>
</g>
</g>
<!-- dir_9fb19b3a022587f1a291b12820e846d2 -->
<g id="node5" class="node"><title>dir_9fb19b3a022587f1a291b12820e846d2</title>
<g id="a_node5"><a xlink:href="dir_9fb19b3a022587f1a291b12820e846d2.html" target="_top" xlink:title="BulletEntity">
<polygon fill="white" stroke="black" points="1896.5,-180 1825.5,-180 1825.5,-144 1896.5,-144 1896.5,-180"/>
<text text-anchor="middle" x="1861" y="-159.5" font-family="Helvetica,sans-Serif" font-size="10.00">BulletEntity</text>
</a>
</g>
</g>
<!-- dir_a7363e98f9e0bdd87618633653859815 -->
<g id="node27" class="node"><title>dir_a7363e98f9e0bdd87618633653859815</title>
<g id="a_node27"><a xlink:href="dir_a7363e98f9e0bdd87618633653859815.html" target="_top" xlink:title="Utils">
<polygon fill="none" stroke="black" points="2278,-36 2224,-36 2224,-0 2278,-0 2278,-36"/>
<text text-anchor="middle" x="2251" y="-15.5" font-family="Helvetica,sans-Serif" font-size="10.00">Utils</text>
</a>
</g>
</g>
<!-- dir_9fb19b3a022587f1a291b12820e846d2&#45;&gt;dir_a7363e98f9e0bdd87618633653859815 -->
<g id="edge23" class="edge"><title>dir_9fb19b3a022587f1a291b12820e846d2&#45;&gt;dir_a7363e98f9e0bdd87618633653859815</title>
<path fill="none" stroke="black" d="M1881.68,-143.88C1889.05,-138.317 1897.61,-132.44 1906,-128 2010.88,-72.5067 2148.82,-39.5618 2213.93,-26.1032"/>
<polygon fill="black" stroke="black" points="2214.64,-29.5314 2223.74,-24.11 2213.24,-22.6716 2214.64,-29.5314"/>
<g id="a_edge23&#45;headlabel"><a xlink:href="dir_000013_000065.html" target="_top" xlink:title="1">
<text text-anchor="middle" x="2211.68" y="-30.5296" font-family="Helvetica,sans-Serif" font-size="10.00">1</text>
</a>
</g>
</g>
<!-- dir_9fb19b3a022587f1a291b12820e846d2&#45;&gt;dir_c610c8504d46288da7634b3c0b18263f -->
<g id="edge24" class="edge"><title>dir_9fb19b3a022587f1a291b12820e846d2&#45;&gt;dir_c610c8504d46288da7634b3c0b18263f</title>
<path fill="none" stroke="black" d="M1842.15,-143.852C1834.54,-137.868 1825.36,-131.724 1816,-128 1772.31,-110.624 1641.69,-99.2833 1569.43,-94.1578"/>
<polygon fill="black" stroke="black" points="1569.43,-90.6493 1559.21,-93.4467 1568.95,-97.6324 1569.43,-90.6493"/>
<g id="a_edge24&#45;headlabel"><a xlink:href="dir_000013_000001.html" target="_top" xlink:title="7">
<text text-anchor="middle" x="1573.22" y="-85.5663" font-family="Helvetica,sans-Serif" font-size="10.00">7</text>
</a>
</g>
</g>
<!-- dir_e4189690913802ab399576fc026847c0 -->
<g id="node6" class="node"><title>dir_e4189690913802ab399576fc026847c0</title>
<g id="a_node6"><a xlink:href="dir_e4189690913802ab399576fc026847c0.html" target="_top" xlink:title="DefeatEntity">
<polygon fill="white" stroke="black" points="186,-180 110,-180 110,-144 186,-144 186,-180"/>
<text text-anchor="middle" x="148" y="-159.5" font-family="Helvetica,sans-Serif" font-size="10.00">DefeatEntity</text>
</a>
</g>
</g>
<!-- dir_e4189690913802ab399576fc026847c0&#45;&gt;dir_c610c8504d46288da7634b3c0b18263f -->
<g id="edge16" class="edge"><title>dir_e4189690913802ab399576fc026847c0&#45;&gt;dir_c610c8504d46288da7634b3c0b18263f</title>
<path fill="none" stroke="black" d="M167.167,-143.712C175.186,-137.554 184.968,-131.325 195,-128 317.632,-87.3562 1244.66,-89.547 1470.5,-90.6981"/>
<polygon fill="black" stroke="black" points="1470.71,-94.1991 1480.72,-90.7519 1470.74,-87.1992 1470.71,-94.1991"/>
<g id="a_edge16&#45;headlabel"><a xlink:href="dir_000014_000001.html" target="_top" xlink:title="3">
<text text-anchor="middle" x="1467.1" y="-94.5195" font-family="Helvetica,sans-Serif" font-size="10.00">3</text>
</a>
</g>
</g>
<!-- dir_6062429cec636af05c0d2a403ba06554 -->
<g id="node7" class="node"><title>dir_6062429cec636af05c0d2a403ba06554</title>
<g id="a_node7"><a xlink:href="dir_6062429cec636af05c0d2a403ba06554.html" target="_top" xlink:title="EnemyBulletEntity">
<polygon fill="white" stroke="black" points="2019,-180 1915,-180 1915,-144 2019,-144 2019,-180"/>
<text text-anchor="middle" x="1967" y="-159.5" font-family="Helvetica,sans-Serif" font-size="10.00">EnemyBulletEntity</text>
</a>
</g>
</g>
<!-- dir_6062429cec636af05c0d2a403ba06554&#45;&gt;dir_a7363e98f9e0bdd87618633653859815 -->
<g id="edge14" class="edge"><title>dir_6062429cec636af05c0d2a403ba06554&#45;&gt;dir_a7363e98f9e0bdd87618633653859815</title>
<path fill="none" stroke="black" d="M1998.81,-143.954C2008.49,-138.799 2019.17,-133.142 2029,-128 2077.26,-102.76 2089.12,-96.0121 2138,-72 2163.53,-59.4613 2192.58,-45.8482 2214.84,-35.5584"/>
<polygon fill="black" stroke="black" points="2216.31,-38.7315 2223.93,-31.3647 2213.38,-32.3752 2216.31,-38.7315"/>
<g id="a_edge14&#45;headlabel"><a xlink:href="dir_000015_000065.html" target="_top" xlink:title="1">
<text text-anchor="middle" x="2214.24" y="-40.3153" font-family="Helvetica,sans-Serif" font-size="10.00">1</text>
</a>
</g>
</g>
<!-- dir_6062429cec636af05c0d2a403ba06554&#45;&gt;dir_c610c8504d46288da7634b3c0b18263f -->
<g id="edge15" class="edge"><title>dir_6062429cec636af05c0d2a403ba06554&#45;&gt;dir_c610c8504d46288da7634b3c0b18263f</title>
<path fill="none" stroke="black" d="M1940.99,-143.946C1930.53,-137.898 1918.09,-131.685 1906,-128 1844.29,-109.198 1658.62,-97.8102 1569.19,-93.2737"/>
<polygon fill="black" stroke="black" points="1569.2,-89.7697 1559.04,-92.767 1568.85,-96.761 1569.2,-89.7697"/>
<g id="a_edge15&#45;headlabel"><a xlink:href="dir_000015_000001.html" target="_top" xlink:title="7">
<text text-anchor="middle" x="1572.93" y="-84.613" font-family="Helvetica,sans-Serif" font-size="10.00">7</text>
</a>
</g>
</g>
<!-- dir_187ac6d9457d81653d312f6043ab00b0 -->
<g id="node8" class="node"><title>dir_187ac6d9457d81653d312f6043ab00b0</title>
<g id="a_node8"><a xlink:href="dir_187ac6d9457d81653d312f6043ab00b0.html" target="_top" xlink:title="EnemyEntity">
<polygon fill="white" stroke="black" points="2114.5,-180 2037.5,-180 2037.5,-144 2114.5,-144 2114.5,-180"/>
<text text-anchor="middle" x="2076" y="-159.5" font-family="Helvetica,sans-Serif" font-size="10.00">EnemyEntity</text>
</a>
</g>
</g>
<!-- dir_187ac6d9457d81653d312f6043ab00b0&#45;&gt;dir_a7363e98f9e0bdd87618633653859815 -->
<g id="edge8" class="edge"><title>dir_187ac6d9457d81653d312f6043ab00b0&#45;&gt;dir_a7363e98f9e0bdd87618633653859815</title>
<path fill="none" stroke="black" d="M2097.11,-143.871C2128.25,-118.604 2186.6,-71.2543 2221.82,-42.6788"/>
<polygon fill="black" stroke="black" points="2224.26,-45.208 2229.82,-36.1893 2219.85,-39.7724 2224.26,-45.208"/>
<g id="a_edge8&#45;headlabel"><a xlink:href="dir_000016_000065.html" target="_top" xlink:title="1">
<text text-anchor="middle" x="2223.25" y="-47.1777" font-family="Helvetica,sans-Serif" font-size="10.00">1</text>
</a>
</g>
</g>
<!-- dir_187ac6d9457d81653d312f6043ab00b0&#45;&gt;dir_c610c8504d46288da7634b3c0b18263f -->
<g id="edge9" class="edge"><title>dir_187ac6d9457d81653d312f6043ab00b0&#45;&gt;dir_c610c8504d46288da7634b3c0b18263f</title>
<path fill="none" stroke="black" d="M2056.29,-143.944C2048.08,-137.817 2038.11,-131.55 2028,-128 1944.34,-98.6414 1680.04,-92.5743 1569.43,-91.3235"/>
<polygon fill="black" stroke="black" points="1569.25,-87.8215 1559.22,-91.2168 1569.18,-94.8212 1569.25,-87.8215"/>
<g id="a_edge9&#45;headlabel"><a xlink:href="dir_000016_000001.html" target="_top" xlink:title="10">
<text text-anchor="middle" x="1572.88" y="-82.5199" font-family="Helvetica,sans-Serif" font-size="10.00">10</text>
</a>
</g>
</g>
<!-- dir_f87e0701404db92db731deaf7894fc5d -->
<g id="node9" class="node"><title>dir_f87e0701404db92db731deaf7894fc5d</title>
<g id="a_node9"><a xlink:href="dir_f87e0701404db92db731deaf7894fc5d.html" target="_top" xlink:title="EnemyType01Entity">
<polygon fill="white" stroke="black" points="2243,-180 2133,-180 2133,-144 2243,-144 2243,-180"/>
<text text-anchor="middle" x="2188" y="-159.5" font-family="Helvetica,sans-Serif" font-size="10.00">EnemyType01Entity</text>
</a>
</g>
</g>
<!-- dir_f87e0701404db92db731deaf7894fc5d&#45;&gt;dir_a7363e98f9e0bdd87618633653859815 -->
<g id="edge21" class="edge"><title>dir_f87e0701404db92db731deaf7894fc5d&#45;&gt;dir_a7363e98f9e0bdd87618633653859815</title>
<path fill="none" stroke="black" d="M2195.6,-143.871C2206.43,-119.457 2226.41,-74.4258 2239.18,-45.6351"/>
<polygon fill="black" stroke="black" points="2242.52,-46.7495 2243.37,-36.1893 2236.12,-43.9106 2242.52,-46.7495"/>
<g id="a_edge21&#45;headlabel"><a xlink:href="dir_000017_000065.html" target="_top" xlink:title="1">
<text text-anchor="middle" x="2243.66" y="-48.6866" font-family="Helvetica,sans-Serif" font-size="10.00">1</text>
</a>
</g>
</g>
<!-- dir_f87e0701404db92db731deaf7894fc5d&#45;&gt;dir_c610c8504d46288da7634b3c0b18263f -->
<g id="edge22" class="edge"><title>dir_f87e0701404db92db731deaf7894fc5d&#45;&gt;dir_c610c8504d46288da7634b3c0b18263f</title>
<path fill="none" stroke="black" d="M2160.99,-143.91C2149.94,-137.779 2136.78,-131.517 2124,-128 2019.94,-99.3539 1693.82,-92.8563 1569.14,-91.4073"/>
<polygon fill="black" stroke="black" points="1569.15,-87.9073 1559.11,-91.2967 1569.07,-94.9069 1569.15,-87.9073"/>
<g id="a_edge22&#45;headlabel"><a xlink:href="dir_000017_000001.html" target="_top" xlink:title="10">
<text text-anchor="middle" x="1572.77" y="-82.6078" font-family="Helvetica,sans-Serif" font-size="10.00">10</text>
</a>
</g>
</g>
<!-- dir_fc04bb07f4a71bda49e269598d947aa7 -->
<g id="node10" class="node"><title>dir_fc04bb07f4a71bda49e269598d947aa7</title>
<g id="a_node10"><a xlink:href="dir_fc04bb07f4a71bda49e269598d947aa7.html" target="_top" xlink:title="EnemyType02Entity">
<polygon fill="white" stroke="black" points="2371,-180 2261,-180 2261,-144 2371,-144 2371,-180"/>
<text text-anchor="middle" x="2316" y="-159.5" font-family="Helvetica,sans-Serif" font-size="10.00">EnemyType02Entity</text>
</a>
</g>
</g>
<!-- dir_fc04bb07f4a71bda49e269598d947aa7&#45;&gt;dir_a7363e98f9e0bdd87618633653859815 -->
<g id="edge6" class="edge"><title>dir_fc04bb07f4a71bda49e269598d947aa7&#45;&gt;dir_a7363e98f9e0bdd87618633653859815</title>
<path fill="none" stroke="black" d="M2308.16,-143.871C2296.98,-119.457 2276.37,-74.4258 2263.19,-45.6351"/>
<polygon fill="black" stroke="black" points="2266.21,-43.8252 2258.87,-36.1893 2259.85,-46.7387 2266.21,-43.8252"/>
<g id="a_edge6&#45;headlabel"><a xlink:href="dir_000018_000065.html" target="_top" xlink:title="1">
<text text-anchor="middle" x="2270.29" y="-43.4119" font-family="Helvetica,sans-Serif" font-size="10.00">1</text>
</a>
</g>
</g>
<!-- dir_fc04bb07f4a71bda49e269598d947aa7&#45;&gt;dir_c610c8504d46288da7634b3c0b18263f -->
<g id="edge7" class="edge"><title>dir_fc04bb07f4a71bda49e269598d947aa7&#45;&gt;dir_c610c8504d46288da7634b3c0b18263f</title>
<path fill="none" stroke="black" d="M2289.01,-143.84C2277.97,-137.699 2264.79,-131.449 2252,-128 2122.85,-93.1883 1712.13,-90.6001 1569.43,-90.7871"/>
<polygon fill="black" stroke="black" points="1569.22,-87.2874 1559.23,-90.8059 1569.23,-94.2874 1569.22,-87.2874"/>
<g id="a_edge7&#45;headlabel"><a xlink:href="dir_000018_000001.html" target="_top" xlink:title="10">
<text text-anchor="middle" x="1572.81" y="-81.9416" font-family="Helvetica,sans-Serif" font-size="10.00">10</text>
</a>
</g>
</g>
<!-- dir_a58f42533881d8900f52788cdfd99968 -->
<g id="node11" class="node"><title>dir_a58f42533881d8900f52788cdfd99968</title>
<g id="a_node11"><a xlink:href="dir_a58f42533881d8900f52788cdfd99968.html" target="_top" xlink:title="EnemyType03Entity">
<polygon fill="white" stroke="black" points="2499,-180 2389,-180 2389,-144 2499,-144 2499,-180"/>
<text text-anchor="middle" x="2444" y="-159.5" font-family="Helvetica,sans-Serif" font-size="10.00">EnemyType03Entity</text>
</a>
</g>
</g>
<!-- dir_a58f42533881d8900f52788cdfd99968&#45;&gt;dir_a7363e98f9e0bdd87618633653859815 -->
<g id="edge4" class="edge"><title>dir_a58f42533881d8900f52788cdfd99968&#45;&gt;dir_a7363e98f9e0bdd87618633653859815</title>
<path fill="none" stroke="black" d="M2420.72,-143.871C2386.23,-118.497 2321.48,-70.8544 2282.69,-42.3181"/>
<polygon fill="black" stroke="black" points="2284.49,-39.2964 2274.36,-36.1893 2280.34,-44.9348 2284.49,-39.2964"/>
<g id="a_edge4&#45;headlabel"><a xlink:href="dir_000019_000065.html" target="_top" xlink:title="1">
<text text-anchor="middle" x="2289.07" y="-36.6397" font-family="Helvetica,sans-Serif" font-size="10.00">1</text>
</a>
</g>
</g>
<!-- dir_a58f42533881d8900f52788cdfd99968&#45;&gt;dir_c610c8504d46288da7634b3c0b18263f -->
<g id="edge5" class="edge"><title>dir_a58f42533881d8900f52788cdfd99968&#45;&gt;dir_c610c8504d46288da7634b3c0b18263f</title>
<path fill="none" stroke="black" d="M2417.33,-143.965C2406.23,-137.761 2392.93,-131.433 2380,-128 2301.79,-107.234 1740.32,-95.1213 1569.31,-91.8842"/>
<polygon fill="black" stroke="black" points="1569.15,-88.3807 1559.09,-91.6925 1569.02,-95.3795 1569.15,-88.3807"/>
<g id="a_edge5&#45;headlabel"><a xlink:href="dir_000019_000001.html" target="_top" xlink:title="10">
<text text-anchor="middle" x="1572.8" y="-83.1092" font-family="Helvetica,sans-Serif" font-size="10.00">10</text>
</a>
</g>
</g>
<!-- dir_c7fd5c2875f871f5bec57a13c86d4935 -->
<g id="node12" class="node"><title>dir_c7fd5c2875f871f5bec57a13c86d4935</title>
<g id="a_node12"><a xlink:href="dir_c7fd5c2875f871f5bec57a13c86d4935.html" target="_top" xlink:title="GameBackgroundEntity">
<polygon fill="white" stroke="black" points="1367,-180 1237,-180 1237,-144 1367,-144 1367,-180"/>
<text text-anchor="middle" x="1302" y="-159.5" font-family="Helvetica,sans-Serif" font-size="10.00">GameBackgroundEntity</text>
</a>
</g>
</g>
<!-- dir_c7fd5c2875f871f5bec57a13c86d4935&#45;&gt;dir_c610c8504d46288da7634b3c0b18263f -->
<g id="edge11" class="edge"><title>dir_c7fd5c2875f871f5bec57a13c86d4935&#45;&gt;dir_c610c8504d46288da7634b3c0b18263f</title>
<path fill="none" stroke="black" d="M1337.77,-143.856C1350.04,-138.354 1363.96,-132.522 1377,-128 1407.75,-117.335 1443.16,-108.151 1471.04,-101.601"/>
<polygon fill="black" stroke="black" points="1472,-104.972 1480.96,-99.3086 1470.43,-98.1516 1472,-104.972"/>
<g id="a_edge11&#45;headlabel"><a xlink:href="dir_000020_000001.html" target="_top" xlink:title="5">
<text text-anchor="middle" x="1469.14" y="-106.048" font-family="Helvetica,sans-Serif" font-size="10.00">5</text>
</a>
</g>
</g>
<!-- dir_32f41ff1f979f8f7c396d6ecac91fa08 -->
<g id="node13" class="node"><title>dir_32f41ff1f979f8f7c396d6ecac91fa08</title>
<g id="a_node13"><a xlink:href="dir_32f41ff1f979f8f7c396d6ecac91fa08.html" target="_top" xlink:title="MenuEntity">
<polygon fill="white" stroke="black" points="1219,-180 1149,-180 1149,-144 1219,-144 1219,-180"/>
<text text-anchor="middle" x="1184" y="-159.5" font-family="Helvetica,sans-Serif" font-size="10.00">MenuEntity</text>
</a>
</g>
</g>
<!-- dir_32f41ff1f979f8f7c396d6ecac91fa08&#45;&gt;dir_c610c8504d46288da7634b3c0b18263f -->
<g id="edge10" class="edge"><title>dir_32f41ff1f979f8f7c396d6ecac91fa08&#45;&gt;dir_c610c8504d46288da7634b3c0b18263f</title>
<path fill="none" stroke="black" d="M1202.38,-143.856C1209.81,-137.873 1218.8,-131.727 1228,-128 1270.89,-110.633 1399.22,-99.3215 1470.65,-94.1889"/>
<polygon fill="black" stroke="black" points="1471.03,-97.6709 1480.75,-93.4765 1470.53,-90.6882 1471.03,-97.6709"/>
<g id="a_edge10&#45;headlabel"><a xlink:href="dir_000021_000001.html" target="_top" xlink:title="3">
<text text-anchor="middle" x="1467.64" y="-98.2558" font-family="Helvetica,sans-Serif" font-size="10.00">3</text>
</a>
</g>
</g>
<!-- dir_ad6db193996de89f148e1773a56908cb -->
<g id="node14" class="node"><title>dir_ad6db193996de89f148e1773a56908cb</title>
<g id="a_node14"><a xlink:href="dir_ad6db193996de89f148e1773a56908cb.html" target="_top" xlink:title="NameRoomEntity">
<polygon fill="white" stroke="black" points="1131,-180 1031,-180 1031,-144 1131,-144 1131,-180"/>
<text text-anchor="middle" x="1081" y="-159.5" font-family="Helvetica,sans-Serif" font-size="10.00">NameRoomEntity</text>
</a>
</g>
</g>
<!-- dir_ad6db193996de89f148e1773a56908cb&#45;&gt;dir_c610c8504d46288da7634b3c0b18263f -->
<g id="edge30" class="edge"><title>dir_ad6db193996de89f148e1773a56908cb&#45;&gt;dir_c610c8504d46288da7634b3c0b18263f</title>
<path fill="none" stroke="black" d="M1106.09,-143.945C1116.2,-137.896 1128.24,-131.683 1140,-128 1200.47,-109.063 1382.55,-97.7749 1470.88,-93.2728"/>
<polygon fill="black" stroke="black" points="1471.11,-96.766 1480.92,-92.7699 1470.76,-89.7748 1471.11,-96.766"/>
<g id="a_edge30&#45;headlabel"><a xlink:href="dir_000022_000001.html" target="_top" xlink:title="3">
<text text-anchor="middle" x="1467.66" y="-97.2815" font-family="Helvetica,sans-Serif" font-size="10.00">3</text>
</a>
</g>
</g>
<!-- dir_4d3fe9c3ded12de7e59c11500ea26b8c -->
<g id="node15" class="node"><title>dir_4d3fe9c3ded12de7e59c11500ea26b8c</title>
<g id="a_node15"><a xlink:href="dir_4d3fe9c3ded12de7e59c11500ea26b8c.html" target="_top" xlink:title="NumberPlayersEntity">
<polygon fill="white" stroke="black" points="1012.5,-180 895.5,-180 895.5,-144 1012.5,-144 1012.5,-180"/>
<text text-anchor="middle" x="954" y="-159.5" font-family="Helvetica,sans-Serif" font-size="10.00">NumberPlayersEntity</text>
</a>
</g>
</g>
<!-- dir_4d3fe9c3ded12de7e59c11500ea26b8c&#45;&gt;dir_c610c8504d46288da7634b3c0b18263f -->
<g id="edge20" class="edge"><title>dir_4d3fe9c3ded12de7e59c11500ea26b8c&#45;&gt;dir_c610c8504d46288da7634b3c0b18263f</title>
<path fill="none" stroke="black" d="M983.179,-143.839C994.865,-137.777 1008.7,-131.582 1022,-128 1105.63,-105.484 1362.08,-95.5759 1470.64,-92.311"/>
<polygon fill="black" stroke="black" points="1470.78,-95.8085 1480.67,-92.0156 1470.57,-88.8115 1470.78,-95.8085"/>
<g id="a_edge20&#45;headlabel"><a xlink:href="dir_000023_000001.html" target="_top" xlink:title="2">
<text text-anchor="middle" x="1467.27" y="-96.2522" font-family="Helvetica,sans-Serif" font-size="10.00">2</text>
</a>
</g>
</g>
<!-- dir_d46b89330a7f259be9cbe08137653224 -->
<g id="node16" class="node"><title>dir_d46b89330a7f259be9cbe08137653224</title>
<g id="a_node16"><a xlink:href="dir_d46b89330a7f259be9cbe08137653224.html" target="_top" xlink:title="PlanetEntity">
<polygon fill="white" stroke="black" points="877,-180 803,-180 803,-144 877,-144 877,-180"/>
<text text-anchor="middle" x="840" y="-159.5" font-family="Helvetica,sans-Serif" font-size="10.00">PlanetEntity</text>
</a>
</g>
</g>
<!-- dir_d46b89330a7f259be9cbe08137653224&#45;&gt;dir_c610c8504d46288da7634b3c0b18263f -->
<g id="edge2" class="edge"><title>dir_d46b89330a7f259be9cbe08137653224&#45;&gt;dir_c610c8504d46288da7634b3c0b18263f</title>
<path fill="none" stroke="black" d="M859.22,-143.869C867.247,-137.733 877.02,-131.477 887,-128 994.539,-90.531 1341.71,-89.4588 1470.94,-90.426"/>
<polygon fill="black" stroke="black" points="1470.92,-93.9259 1480.95,-90.5084 1470.98,-86.9261 1470.92,-93.9259"/>
<g id="a_edge2&#45;headlabel"><a xlink:href="dir_000024_000001.html" target="_top" xlink:title="5">
<text text-anchor="middle" x="1467.3" y="-94.2356" font-family="Helvetica,sans-Serif" font-size="10.00">5</text>
</a>
</g>
</g>
<!-- dir_ed6b40b768772beec01032739a2a785f -->
<g id="node17" class="node"><title>dir_ed6b40b768772beec01032739a2a785f</title>
<g id="a_node17"><a xlink:href="dir_ed6b40b768772beec01032739a2a785f.html" target="_top" xlink:title="PlanetRingEntity">
<polygon fill="white" stroke="black" points="785,-180 691,-180 691,-144 785,-144 785,-180"/>
<text text-anchor="middle" x="738" y="-159.5" font-family="Helvetica,sans-Serif" font-size="10.00">PlanetRingEntity</text>
</a>
</g>
</g>
<!-- dir_ed6b40b768772beec01032739a2a785f&#45;&gt;dir_c610c8504d46288da7634b3c0b18263f -->
<g id="edge33" class="edge"><title>dir_ed6b40b768772beec01032739a2a785f&#45;&gt;dir_c610c8504d46288da7634b3c0b18263f</title>
<path fill="none" stroke="black" d="M761.348,-143.831C770.973,-137.689 782.544,-131.44 794,-128 920.914,-89.8905 1328.13,-89.4063 1470.38,-90.463"/>
<polygon fill="black" stroke="black" points="1470.53,-93.9642 1480.56,-90.5447 1470.59,-86.9644 1470.53,-93.9642"/>
<g id="a_edge33&#45;headlabel"><a xlink:href="dir_000025_000001.html" target="_top" xlink:title="6">
<text text-anchor="middle" x="1466.91" y="-94.2747" font-family="Helvetica,sans-Serif" font-size="10.00">6</text>
</a>
</g>
</g>
<!-- dir_fb9aa64b1fc6f2ada0ec2bbaa8cf06ba -->
<g id="node18" class="node"><title>dir_fb9aa64b1fc6f2ada0ec2bbaa8cf06ba</title>
<g id="a_node18"><a xlink:href="dir_fb9aa64b1fc6f2ada0ec2bbaa8cf06ba.html" target="_top" xlink:title="PlayEntity">
<polygon fill="white" stroke="black" points="267.5,-180 204.5,-180 204.5,-144 267.5,-144 267.5,-180"/>
<text text-anchor="middle" x="236" y="-159.5" font-family="Helvetica,sans-Serif" font-size="10.00">PlayEntity</text>
</a>
</g>
</g>
<!-- dir_fb9aa64b1fc6f2ada0ec2bbaa8cf06ba&#45;&gt;dir_c610c8504d46288da7634b3c0b18263f -->
<g id="edge18" class="edge"><title>dir_fb9aa64b1fc6f2ada0ec2bbaa8cf06ba&#45;&gt;dir_c610c8504d46288da7634b3c0b18263f</title>
<path fill="none" stroke="black" d="M252.375,-143.744C259.323,-137.59 267.914,-131.355 277,-128 333.818,-107.019 1246.4,-94.3876 1470.57,-91.5918"/>
<polygon fill="black" stroke="black" points="1470.76,-95.0898 1480.71,-91.4661 1470.67,-88.0903 1470.76,-95.0898"/>
<g id="a_edge18&#45;headlabel"><a xlink:href="dir_000026_000001.html" target="_top" xlink:title="3">
<text text-anchor="middle" x="1467.2" y="-95.4733" font-family="Helvetica,sans-Serif" font-size="10.00">3</text>
</a>
</g>
</g>
<!-- dir_8831e65918a02769ba44156b24e3faea -->
<g id="node19" class="node"><title>dir_8831e65918a02769ba44156b24e3faea</title>
<g id="a_node19"><a xlink:href="dir_8831e65918a02769ba44156b24e3faea.html" target="_top" xlink:title="PlayerEntity">
<polygon fill="white" stroke="black" points="2590.5,-180 2517.5,-180 2517.5,-144 2590.5,-144 2590.5,-180"/>
<text text-anchor="middle" x="2554" y="-159.5" font-family="Helvetica,sans-Serif" font-size="10.00">PlayerEntity</text>
</a>
</g>
</g>
<!-- dir_8831e65918a02769ba44156b24e3faea&#45;&gt;dir_a7363e98f9e0bdd87618633653859815 -->
<g id="edge36" class="edge"><title>dir_8831e65918a02769ba44156b24e3faea&#45;&gt;dir_a7363e98f9e0bdd87618633653859815</title>
<path fill="none" stroke="black" d="M2532.2,-143.856C2524.75,-138.416 2516.23,-132.62 2508,-128 2433.13,-85.9496 2338.78,-49.8915 2287.79,-31.6752"/>
<polygon fill="black" stroke="black" points="2288.78,-28.3138 2278.18,-28.2734 2286.44,-34.9119 2288.78,-28.3138"/>
<g id="a_edge36&#45;headlabel"><a xlink:href="dir_000027_000065.html" target="_top" xlink:title="1">
<text text-anchor="middle" x="2293.12" y="-24.3378" font-family="Helvetica,sans-Serif" font-size="10.00">1</text>
</a>
</g>
</g>
<!-- dir_8831e65918a02769ba44156b24e3faea&#45;&gt;dir_c610c8504d46288da7634b3c0b18263f -->
<g id="edge37" class="edge"><title>dir_8831e65918a02769ba44156b24e3faea&#45;&gt;dir_c610c8504d46288da7634b3c0b18263f</title>
<path fill="none" stroke="black" d="M2535.28,-143.764C2527.44,-137.612 2517.86,-131.375 2508,-128 2418.9,-97.493 1756.39,-92.0996 1569.15,-91.1816"/>
<polygon fill="black" stroke="black" points="1569.07,-87.6813 1559.05,-91.1342 1569.04,-94.6812 1569.07,-87.6813"/>
<g id="a_edge37&#45;headlabel"><a xlink:href="dir_000027_000001.html" target="_top" xlink:title="10">
<text text-anchor="middle" x="1572.68" y="-82.3588" font-family="Helvetica,sans-Serif" font-size="10.00">10</text>
</a>
</g>
</g>
<!-- dir_cd888dfcafaaff71189ca72ab94f71a6 -->
<g id="node20" class="node"><title>dir_cd888dfcafaaff71189ca72ab94f71a6</title>
<g id="a_node20"><a xlink:href="dir_cd888dfcafaaff71189ca72ab94f71a6.html" target="_top" xlink:title="PlayerTwoEntity">
<polygon fill="white" stroke="black" points="2697.5,-180 2608.5,-180 2608.5,-144 2697.5,-144 2697.5,-180"/>
<text text-anchor="middle" x="2653" y="-159.5" font-family="Helvetica,sans-Serif" font-size="10.00">PlayerTwoEntity</text>
</a>
</g>
</g>
<!-- dir_cd888dfcafaaff71189ca72ab94f71a6&#45;&gt;dir_a7363e98f9e0bdd87618633653859815 -->
<g id="edge12" class="edge"><title>dir_cd888dfcafaaff71189ca72ab94f71a6&#45;&gt;dir_a7363e98f9e0bdd87618633653859815</title>
<path fill="none" stroke="black" d="M2628,-143.947C2619.35,-138.452 2609.45,-132.6 2600,-128 2492.18,-75.5399 2353.46,-41.152 2288.14,-26.7285"/>
<polygon fill="black" stroke="black" points="2288.82,-23.2944 2278.31,-24.5853 2287.33,-30.1339 2288.82,-23.2944"/>
<g id="a_edge12&#45;headlabel"><a xlink:href="dir_000028_000065.html" target="_top" xlink:title="1">
<text text-anchor="middle" x="2292.94" y="-18.7853" font-family="Helvetica,sans-Serif" font-size="10.00">1</text>
</a>
</g>
</g>
<!-- dir_cd888dfcafaaff71189ca72ab94f71a6&#45;&gt;dir_c610c8504d46288da7634b3c0b18263f -->
<g id="edge13" class="edge"><title>dir_cd888dfcafaaff71189ca72ab94f71a6&#45;&gt;dir_c610c8504d46288da7634b3c0b18263f</title>
<path fill="none" stroke="black" d="M2631.31,-143.909C2622.17,-137.698 2611.1,-131.378 2600,-128 2500.82,-97.8005 1767.71,-92.1673 1569.36,-91.192"/>
<polygon fill="black" stroke="black" points="1569.25,-87.6915 1559.23,-91.144 1569.22,-94.6914 1569.25,-87.6915"/>
<g id="a_edge13&#45;headlabel"><a xlink:href="dir_000028_000001.html" target="_top" xlink:title="10">
<text text-anchor="middle" x="1572.86" y="-82.3692" font-family="Helvetica,sans-Serif" font-size="10.00">10</text>
</a>
</g>
</g>
<!-- dir_1ad959dc56187660d376057d145d8c51 -->
<g id="node21" class="node"><title>dir_1ad959dc56187660d376057d145d8c51</title>
<g id="a_node21"><a xlink:href="dir_1ad959dc56187660d376057d145d8c51.html" target="_top" xlink:title="StarsEntity">
<polygon fill="white" stroke="black" points="1640.5,-180 1571.5,-180 1571.5,-144 1640.5,-144 1640.5,-180"/>
<text text-anchor="middle" x="1606" y="-159.5" font-family="Helvetica,sans-Serif" font-size="10.00">StarsEntity</text>
</a>
</g>
</g>
<!-- dir_1ad959dc56187660d376057d145d8c51&#45;&gt;dir_c610c8504d46288da7634b3c0b18263f -->
<g id="edge17" class="edge"><title>dir_1ad959dc56187660d376057d145d8c51&#45;&gt;dir_c610c8504d46288da7634b3c0b18263f</title>
<path fill="none" stroke="black" d="M1584.74,-143.697C1573.91,-134.881 1560.58,-124.032 1548.84,-114.474"/>
<polygon fill="black" stroke="black" points="1550.98,-111.703 1541.01,-108.104 1546.56,-117.132 1550.98,-111.703"/>
<g id="a_edge17&#45;headlabel"><a xlink:href="dir_000029_000001.html" target="_top" xlink:title="6">
<text text-anchor="middle" x="1555.56" y="-109.27" font-family="Helvetica,sans-Serif" font-size="10.00">6</text>
</a>
</g>
</g>
<!-- dir_7e595f2277c781072aeebe830ed50c4a -->
<g id="node22" class="node"><title>dir_7e595f2277c781072aeebe830ed50c4a</title>
<g id="a_node22"><a xlink:href="dir_7e595f2277c781072aeebe830ed50c4a.html" target="_top" xlink:title="StopEntity">
<polygon fill="white" stroke="black" points="1553,-180 1487,-180 1487,-144 1553,-144 1553,-180"/>
<text text-anchor="middle" x="1520" y="-159.5" font-family="Helvetica,sans-Serif" font-size="10.00">StopEntity</text>
</a>
</g>
</g>
<!-- dir_7e595f2277c781072aeebe830ed50c4a&#45;&gt;dir_c610c8504d46288da7634b3c0b18263f -->
<g id="edge28" class="edge"><title>dir_7e595f2277c781072aeebe830ed50c4a&#45;&gt;dir_c610c8504d46288da7634b3c0b18263f</title>
<path fill="none" stroke="black" d="M1520,-143.697C1520,-135.983 1520,-126.712 1520,-118.112"/>
<polygon fill="black" stroke="black" points="1523.5,-118.104 1520,-108.104 1516.5,-118.104 1523.5,-118.104"/>
<g id="a_edge28&#45;headlabel"><a xlink:href="dir_000030_000001.html" target="_top" xlink:title="3">
<text text-anchor="middle" x="1526.34" y="-119.199" font-family="Helvetica,sans-Serif" font-size="10.00">3</text>
</a>
</g>
</g>
<!-- dir_d3203aaa7883c446be92172eee82ad5d -->
<g id="node23" class="node"><title>dir_d3203aaa7883c446be92172eee82ad5d</title>
<g id="a_node23"><a xlink:href="dir_d3203aaa7883c446be92172eee82ad5d.html" target="_top" xlink:title="TestBackground">
<polygon fill="white" stroke="black" points="2808,-180 2716,-180 2716,-144 2808,-144 2808,-180"/>
<text text-anchor="middle" x="2762" y="-159.5" font-family="Helvetica,sans-Serif" font-size="10.00">TestBackground</text>
</a>
</g>
</g>
<!-- dir_d3203aaa7883c446be92172eee82ad5d&#45;&gt;dir_a7363e98f9e0bdd87618633653859815 -->
<g id="edge25" class="edge"><title>dir_d3203aaa7883c446be92172eee82ad5d&#45;&gt;dir_a7363e98f9e0bdd87618633653859815</title>
<path fill="none" stroke="black" d="M2736.41,-143.85C2727.38,-138.285 2716.98,-132.414 2707,-128 2559.71,-62.8525 2367.69,-33.2956 2288.08,-23.2313"/>
<polygon fill="black" stroke="black" points="2288.4,-19.7448 2278.05,-21.9921 2287.54,-26.692 2288.4,-19.7448"/>
<g id="a_edge25&#45;headlabel"><a xlink:href="dir_000031_000065.html" target="_top" xlink:title="1">
<text text-anchor="middle" x="2292.32" y="-14.8677" font-family="Helvetica,sans-Serif" font-size="10.00">1</text>
</a>
</g>
</g>
<!-- dir_d3203aaa7883c446be92172eee82ad5d&#45;&gt;dir_c610c8504d46288da7634b3c0b18263f -->
<g id="edge26" class="edge"><title>dir_d3203aaa7883c446be92172eee82ad5d&#45;&gt;dir_c610c8504d46288da7634b3c0b18263f</title>
<path fill="none" stroke="black" d="M2739.41,-143.89C2729.92,-137.675 2718.43,-131.359 2707,-128 2596.85,-95.6335 1779.78,-91.5794 1569.33,-91.0723"/>
<polygon fill="black" stroke="black" points="1569.2,-87.5722 1559.19,-91.0496 1569.18,-94.5721 1569.2,-87.5722"/>
<g id="a_edge26&#45;headlabel"><a xlink:href="dir_000031_000001.html" target="_top" xlink:title="9">
<text text-anchor="middle" x="1572.8" y="-82.2409" font-family="Helvetica,sans-Serif" font-size="10.00">9</text>
</a>
</g>
</g>
<!-- dir_0117859d0f153a3a9748f4e9aeabc3b2 -->
<g id="node24" class="node"><title>dir_0117859d0f153a3a9748f4e9aeabc3b2</title>
<g id="a_node24"><a xlink:href="dir_0117859d0f153a3a9748f4e9aeabc3b2.html" target="_top" xlink:title="TestEntity">
<polygon fill="white" stroke="black" points="1807,-180 1745,-180 1745,-144 1807,-144 1807,-180"/>
<text text-anchor="middle" x="1776" y="-159.5" font-family="Helvetica,sans-Serif" font-size="10.00">TestEntity</text>
</a>
</g>
</g>
<!-- dir_0117859d0f153a3a9748f4e9aeabc3b2&#45;&gt;dir_c610c8504d46288da7634b3c0b18263f -->
<g id="edge27" class="edge"><title>dir_0117859d0f153a3a9748f4e9aeabc3b2&#45;&gt;dir_c610c8504d46288da7634b3c0b18263f</title>
<path fill="none" stroke="black" d="M1759.05,-143.695C1752.39,-137.842 1744.35,-131.826 1736,-128 1682.41,-103.442 1614.57,-95.0572 1569.36,-92.2642"/>
<polygon fill="black" stroke="black" points="1569.4,-88.7613 1559.22,-91.7084 1569.02,-95.7508 1569.4,-88.7613"/>
<g id="a_edge27&#45;headlabel"><a xlink:href="dir_000032_000001.html" target="_top" xlink:title="4">
<text text-anchor="middle" x="1573.15" y="-83.623" font-family="Helvetica,sans-Serif" font-size="10.00">4</text>
</a>
</g>
</g>
<!-- dir_f3f3880c33ad19867ab59b80cdfa7101 -->
<g id="node25" class="node"><title>dir_f3f3880c33ad19867ab59b80cdfa7101</title>
<g id="a_node25"><a xlink:href="dir_f3f3880c33ad19867ab59b80cdfa7101.html" target="_top" xlink:title="TestEntity2">
<polygon fill="white" stroke="black" points="1727,-180 1659,-180 1659,-144 1727,-144 1727,-180"/>
<text text-anchor="middle" x="1693" y="-159.5" font-family="Helvetica,sans-Serif" font-size="10.00">TestEntity2</text>
</a>
</g>
</g>
<!-- dir_f3f3880c33ad19867ab59b80cdfa7101&#45;&gt;dir_c610c8504d46288da7634b3c0b18263f -->
<g id="edge19" class="edge"><title>dir_f3f3880c33ad19867ab59b80cdfa7101&#45;&gt;dir_c610c8504d46288da7634b3c0b18263f</title>
<path fill="none" stroke="black" d="M1673.92,-143.882C1666.81,-138.188 1658.41,-132.228 1650,-128 1624.66,-115.26 1594.28,-106.303 1569.26,-100.396"/>
<polygon fill="black" stroke="black" points="1569.77,-96.9246 1559.25,-98.1266 1568.23,-103.751 1569.77,-96.9246"/>
<g id="a_edge19&#45;headlabel"><a xlink:href="dir_000033_000001.html" target="_top" xlink:title="4">
<text text-anchor="middle" x="1573.91" y="-92.4504" font-family="Helvetica,sans-Serif" font-size="10.00">4</text>
</a>
</g>
</g>
<!-- dir_ec25d881637dd163058940284029b99d -->
<g id="node26" class="node"><title>dir_ec25d881637dd163058940284029b99d</title>
<g id="a_node26"><a xlink:href="dir_ec25d881637dd163058940284029b99d.html" target="_top" xlink:title="WallSideEntity">
<polygon fill="white" stroke="black" points="1468.5,-180 1385.5,-180 1385.5,-144 1468.5,-144 1468.5,-180"/>
<text text-anchor="middle" x="1427" y="-159.5" font-family="Helvetica,sans-Serif" font-size="10.00">WallSideEntity</text>
</a>
</g>
</g>
<!-- dir_ec25d881637dd163058940284029b99d&#45;&gt;dir_c610c8504d46288da7634b3c0b18263f -->
<g id="edge35" class="edge"><title>dir_ec25d881637dd163058940284029b99d&#45;&gt;dir_c610c8504d46288da7634b3c0b18263f</title>
<path fill="none" stroke="black" d="M1449.99,-143.697C1461.81,-134.796 1476.39,-123.823 1489.18,-114.199"/>
<polygon fill="black" stroke="black" points="1491.39,-116.915 1497.28,-108.104 1487.18,-111.322 1491.39,-116.915"/>
<g id="a_edge35&#45;headlabel"><a xlink:href="dir_000034_000001.html" target="_top" xlink:title="4">
<text text-anchor="middle" x="1490.23" y="-118.845" font-family="Helvetica,sans-Serif" font-size="10.00">4</text>
</a>
</g>
</g>
<!-- dir_c610c8504d46288da7634b3c0b18263f&#45;&gt;dir_a7363e98f9e0bdd87618633653859815 -->
<g id="edge3" class="edge"><title>dir_c610c8504d46288da7634b3c0b18263f&#45;&gt;dir_a7363e98f9e0bdd87618633653859815</title>
<path fill="none" stroke="black" d="M1559.04,-85.2612C1686.4,-73.0659 2088.71,-34.5412 2213.62,-22.579"/>
<polygon fill="black" stroke="black" points="2214.21,-26.0395 2223.83,-21.6021 2213.54,-19.0713 2214.21,-26.0395"/>
<g id="a_edge3&#45;headlabel"><a xlink:href="dir_000001_000065.html" target="_top" xlink:title="5">
<text text-anchor="middle" x="2210.9" y="-26.7084" font-family="Helvetica,sans-Serif" font-size="10.00">5</text>
</a>
</g>
</g>
<!-- dir_7ef50f4d5f08318e733b1532da00e919&#45;&gt;dir_c610c8504d46288da7634b3c0b18263f -->
<g id="edge32" class="edge"><title>dir_7ef50f4d5f08318e733b1532da00e919&#45;&gt;dir_c610c8504d46288da7634b3c0b18263f</title>
<path fill="none" stroke="black" d="M65.5803,-143.86C75.0744,-137.641 86.5597,-131.33 98,-128 231.769,-89.0677 1234.59,-90.0221 1470.44,-90.7953"/>
<polygon fill="black" stroke="black" points="1470.75,-94.2963 1480.77,-90.8307 1470.78,-87.2964 1470.75,-94.2963"/>
<g id="a_edge32&#45;headlabel"><a xlink:href="dir_000035_000001.html" target="_top" xlink:title="3">
<text text-anchor="middle" x="1467.15" y="-94.6234" font-family="Helvetica,sans-Serif" font-size="10.00">3</text>
</a>
</g>
</g>
</g>
</svg>
