<?xml version="1.0" encoding="UTF-8" standalone="no"?>
<!DOCTYPE svg PUBLIC "-//W3C//DTD SVG 1.1//EN"
 "http://www.w3.org/Graphics/SVG/1.1/DTD/svg11.dtd">
<!-- Generated by graphviz version 2.38.0 (20140413.2041)
 -->
<!-- Title: src/Components/ComponentManager Pages: 1 -->
<svg width="156pt" height="223pt"
 viewBox="0.00 0.00 156.00 223.00" xmlns="http://www.w3.org/2000/svg" xmlns:xlink="http://www.w3.org/1999/xlink">
<g id="graph0" class="graph" transform="scale(1 1) rotate(0) translate(4 219)">
<title>src/Components/ComponentManager</title>
<g id="clust1" class="cluster"><title>clusterdir_c610c8504d46288da7634b3c0b18263f</title>
<g id="a_clust1"><a xlink:href="dir_c610c8504d46288da7634b3c0b18263f.html" target="_top" xlink:title="Components">
<polygon fill="#ddddee" stroke="black" points="8,-136 8,-207 140,-207 140,-136 8,-136"/>
<text text-anchor="middle" x="74" y="-195" font-family="Helvetica,sans-Serif" font-size="10.00">Components</text>
</a>
</g>
</g>
<!-- dir_7fd9eb6eaf8c73f5f8e9e7238378dadb -->
<g id="node1" class="node"><title>dir_7fd9eb6eaf8c73f5f8e9e7238378dadb</title>
<g id="a_node1"><a xlink:href="dir_7fd9eb6eaf8c73f5f8e9e7238378dadb.html" target="_top" xlink:title="ComponentManager">
<polygon fill="#eeeeff" stroke="black" points="131.5,-180 16.5,-180 16.5,-144 131.5,-144 131.5,-180"/>
<text text-anchor="middle" x="74" y="-159.5" font-family="Helvetica,sans-Serif" font-size="10.00">ComponentManager</text>
</a>
</g>
</g>
<!-- dir_093f3b7f7c7a61ef21fffb3d339f67e1 -->
<g id="node2" class="node"><title>dir_093f3b7f7c7a61ef21fffb3d339f67e1</title>
<g id="a_node2"><a xlink:href="dir_093f3b7f7c7a61ef21fffb3d339f67e1.html" target="_top" xlink:title="Entities">
<polygon fill="none" stroke="red" points="74,-108 20,-108 20,-72 74,-72 74,-108"/>
<text text-anchor="middle" x="47" y="-87.5" font-family="Helvetica,sans-Serif" font-size="10.00">Entities</text>
</a>
</g>
</g>
<!-- dir_7fd9eb6eaf8c73f5f8e9e7238378dadb&#45;&gt;dir_093f3b7f7c7a61ef21fffb3d339f67e1 -->
<g id="edge2" class="edge"><title>dir_7fd9eb6eaf8c73f5f8e9e7238378dadb&#45;&gt;dir_093f3b7f7c7a61ef21fffb3d339f67e1</title>
<path fill="none" stroke="black" d="M67.3258,-143.697C64.2851,-135.813 60.6173,-126.304 57.2393,-117.546"/>
<polygon fill="black" stroke="black" points="60.4617,-116.175 53.5974,-108.104 53.9307,-118.694 60.4617,-116.175"/>
<g id="a_edge2&#45;headlabel"><a xlink:href="dir_000002_000008.html" target="_top" xlink:title="1">
<text text-anchor="middle" x="64.4043" y="-116.007" font-family="Helvetica,sans-Serif" font-size="10.00">1</text>
</a>
</g>
</g>
<!-- dir_6bd92bd93c0d5d9980919215b46f20a3 -->
<g id="node3" class="node"><title>dir_6bd92bd93c0d5d9980919215b46f20a3</title>
<g id="a_node3"><a xlink:href="dir_6bd92bd93c0d5d9980919215b46f20a3.html" target="_top" xlink:title="Exceptions">
<polygon fill="none" stroke="black" points="108,-36 40,-36 40,-0 108,-0 108,-36"/>
<text text-anchor="middle" x="74" y="-15.5" font-family="Helvetica,sans-Serif" font-size="10.00">Exceptions</text>
</a>
</g>
</g>
<!-- dir_7fd9eb6eaf8c73f5f8e9e7238378dadb&#45;&gt;dir_6bd92bd93c0d5d9980919215b46f20a3 -->
<g id="edge3" class="edge"><title>dir_7fd9eb6eaf8c73f5f8e9e7238378dadb&#45;&gt;dir_6bd92bd93c0d5d9980919215b46f20a3</title>
<path fill="none" stroke="black" d="M77.6538,-143.908C79.6758,-133.569 81.9808,-120.09 83,-108 84.3441,-92.0566 84.3441,-87.9434 83,-72 82.2834,-63.4991 80.9311,-54.3119 79.4884,-46.0122"/>
<polygon fill="black" stroke="black" points="82.9142,-45.2892 77.6538,-36.0925 76.0309,-46.5623 82.9142,-45.2892"/>
<g id="a_edge3&#45;headlabel"><a xlink:href="dir_000002_000038.html" target="_top" xlink:title="1">
<text text-anchor="middle" x="86.3597" y="-45.8075" font-family="Helvetica,sans-Serif" font-size="10.00">1</text>
</a>
</g>
</g>
<!-- dir_093f3b7f7c7a61ef21fffb3d339f67e1&#45;&gt;dir_6bd92bd93c0d5d9980919215b46f20a3 -->
<g id="edge1" class="edge"><title>dir_093f3b7f7c7a61ef21fffb3d339f67e1&#45;&gt;dir_6bd92bd93c0d5d9980919215b46f20a3</title>
<path fill="none" stroke="black" d="M53.6742,-71.6966C56.7149,-63.8132 60.3827,-54.3042 63.7607,-45.5464"/>
<polygon fill="black" stroke="black" points="67.0693,-46.6939 67.4026,-36.1043 60.5383,-44.1748 67.0693,-46.6939"/>
<g id="a_edge1&#45;headlabel"><a xlink:href="dir_000008_000038.html" target="_top" xlink:title="3">
<text text-anchor="middle" x="68.4248" y="-48.5695" font-family="Helvetica,sans-Serif" font-size="10.00">3</text>
</a>
</g>
</g>
</g>
</svg>
