<?xml version="1.0" encoding="UTF-8" standalone="no"?>
<!DOCTYPE svg PUBLIC "-//W3C//DTD SVG 1.1//EN"
 "http://www.w3.org/Graphics/SVG/1.1/DTD/svg11.dtd">
<!-- Generated by graphviz version 2.38.0 (20140413.2041)
 -->
<!-- Title: src/Entities/EntityConstructor/TestBackground Pages: 1 -->
<svg width="143pt" height="223pt"
 viewBox="0.00 0.00 143.00 223.00" xmlns="http://www.w3.org/2000/svg" xmlns:xlink="http://www.w3.org/1999/xlink">
<g id="graph0" class="graph" transform="scale(1 1) rotate(0) translate(4 219)">
<title>src/Entities/EntityConstructor/TestBackground</title>
<g id="clust1" class="cluster"><title>clusterdir_407c77903c552c75ad67cb9ea27f8b48</title>
<g id="a_clust1"><a xlink:href="dir_407c77903c552c75ad67cb9ea27f8b48.html" target="_top" xlink:title="EntityConstructor">
<polygon fill="#ddddee" stroke="black" points="8,-136 8,-207 116,-207 116,-136 8,-136"/>
<text text-anchor="middle" x="62" y="-195" font-family="Helvetica,sans-Serif" font-size="10.00">EntityConstructor</text>
</a>
</g>
</g>
<!-- dir_d3203aaa7883c446be92172eee82ad5d -->
<g id="node1" class="node"><title>dir_d3203aaa7883c446be92172eee82ad5d</title>
<g id="a_node1"><a xlink:href="dir_d3203aaa7883c446be92172eee82ad5d.html" target="_top" xlink:title="TestBackground">
<polygon fill="#eeeeff" stroke="black" points="108,-180 16,-180 16,-144 108,-144 108,-180"/>
<text text-anchor="middle" x="62" y="-159.5" font-family="Helvetica,sans-Serif" font-size="10.00">TestBackground</text>
</a>
</g>
</g>
<!-- dir_a7363e98f9e0bdd87618633653859815 -->
<g id="node2" class="node"><title>dir_a7363e98f9e0bdd87618633653859815</title>
<g id="a_node2"><a xlink:href="dir_a7363e98f9e0bdd87618633653859815.html" target="_top" xlink:title="Utils">
<polygon fill="none" stroke="black" points="89,-36 35,-36 35,-0 89,-0 89,-36"/>
<text text-anchor="middle" x="62" y="-15.5" font-family="Helvetica,sans-Serif" font-size="10.00">Utils</text>
</a>
</g>
</g>
<!-- dir_d3203aaa7883c446be92172eee82ad5d&#45;&gt;dir_a7363e98f9e0bdd87618633653859815 -->
<g id="edge2" class="edge"><title>dir_d3203aaa7883c446be92172eee82ad5d&#45;&gt;dir_a7363e98f9e0bdd87618633653859815</title>
<path fill="none" stroke="black" d="M56.1765,-143.56C53.0686,-133.33 49.5686,-120.08 48,-108 45.9397,-92.1332 45.9397,-87.8668 48,-72 49.1029,-63.506 51.1607,-54.4338 53.3656,-46.2397"/>
<polygon fill="black" stroke="black" points="56.7837,-47.0172 56.1765,-36.4397 50.055,-45.0872 56.7837,-47.0172"/>
<g id="a_edge2&#45;headlabel"><a xlink:href="dir_000031_000065.html" target="_top" xlink:title="1">
<text text-anchor="middle" x="58.5219" y="-48.7552" font-family="Helvetica,sans-Serif" font-size="10.00">1</text>
</a>
</g>
</g>
<!-- dir_c610c8504d46288da7634b3c0b18263f -->
<g id="node3" class="node"><title>dir_c610c8504d46288da7634b3c0b18263f</title>
<g id="a_node3"><a xlink:href="dir_c610c8504d46288da7634b3c0b18263f.html" target="_top" xlink:title="Components">
<polygon fill="none" stroke="red" points="135,-108 57,-108 57,-72 135,-72 135,-108"/>
<text text-anchor="middle" x="96" y="-87.5" font-family="Helvetica,sans-Serif" font-size="10.00">Components</text>
</a>
</g>
</g>
<!-- dir_d3203aaa7883c446be92172eee82ad5d&#45;&gt;dir_c610c8504d46288da7634b3c0b18263f -->
<g id="edge3" class="edge"><title>dir_d3203aaa7883c446be92172eee82ad5d&#45;&gt;dir_c610c8504d46288da7634b3c0b18263f</title>
<path fill="none" stroke="black" d="M70.4045,-143.697C74.2748,-135.728 78.9517,-126.1 83.2431,-117.264"/>
<polygon fill="black" stroke="black" points="86.4714,-118.629 87.6922,-108.104 80.1748,-115.57 86.4714,-118.629"/>
<g id="a_edge3&#45;headlabel"><a xlink:href="dir_000031_000001.html" target="_top" xlink:title="9">
<text text-anchor="middle" x="87.4549" y="-120.602" font-family="Helvetica,sans-Serif" font-size="10.00">9</text>
</a>
</g>
</g>
<!-- dir_c610c8504d46288da7634b3c0b18263f&#45;&gt;dir_a7363e98f9e0bdd87618633653859815 -->
<g id="edge1" class="edge"><title>dir_c610c8504d46288da7634b3c0b18263f&#45;&gt;dir_a7363e98f9e0bdd87618633653859815</title>
<path fill="none" stroke="black" d="M87.5955,-71.6966C83.7252,-63.7284 79.0483,-54.0995 74.7569,-45.2641"/>
<polygon fill="black" stroke="black" points="77.8252,-43.5702 70.3078,-36.1043 71.5286,-46.6286 77.8252,-43.5702"/>
<g id="a_edge1&#45;headlabel"><a xlink:href="dir_000001_000065.html" target="_top" xlink:title="5">
<text text-anchor="middle" x="81.9496" y="-43.0631" font-family="Helvetica,sans-Serif" font-size="10.00">5</text>
</a>
</g>
</g>
</g>
</svg>
