<?xml version="1.0" encoding="UTF-8" standalone="no"?>
<!DOCTYPE svg PUBLIC "-//W3C//DTD SVG 1.1//EN"
 "http://www.w3.org/Graphics/SVG/1.1/DTD/svg11.dtd">
<!-- Generated by graphviz version 2.38.0 (20140413.2041)
 -->
<!-- Title: src/Network/Server Pages: 1 -->
<svg width="134pt" height="295pt"
 viewBox="0.00 0.00 134.00 295.00" xmlns="http://www.w3.org/2000/svg" xmlns:xlink="http://www.w3.org/1999/xlink">
<g id="graph0" class="graph" transform="scale(1 1) rotate(0) translate(4 291)">
<title>src/Network/Server</title>
<g id="clust1" class="cluster"><title>clusterdir_0c0333544ec44c57ec7d33d873fe36a2</title>
<g id="a_clust1"><a xlink:href="dir_0c0333544ec44c57ec7d33d873fe36a2.html" target="_top" xlink:title="Network">
<polygon fill="#ddddee" stroke="black" points="47,-208 47,-279 117,-279 117,-208 47,-208"/>
<text text-anchor="middle" x="82" y="-267" font-family="Helvetica,sans-Serif" font-size="10.00">Network</text>
</a>
</g>
</g>
<!-- dir_4f9e5a33db805b480ca4c3c5a4c359b4 -->
<g id="node1" class="node"><title>dir_4f9e5a33db805b480ca4c3c5a4c359b4</title>
<g id="a_node1"><a xlink:href="dir_4f9e5a33db805b480ca4c3c5a4c359b4.html" target="_top" xlink:title="Server">
<polygon fill="#eeeeff" stroke="black" points="109,-252 55,-252 55,-216 109,-216 109,-252"/>
<text text-anchor="middle" x="82" y="-231.5" font-family="Helvetica,sans-Serif" font-size="10.00">Server</text>
</a>
</g>
</g>
<!-- dir_f87d956b2b97682c57ad22a1d66cc929 -->
<g id="node2" class="node"><title>dir_f87d956b2b97682c57ad22a1d66cc929</title>
<g id="a_node2"><a xlink:href="dir_f87d956b2b97682c57ad22a1d66cc929.html" target="_top" xlink:title="Session">
<polygon fill="none" stroke="black" points="54,-180 0,-180 0,-144 54,-144 54,-180"/>
<text text-anchor="middle" x="27" y="-159.5" font-family="Helvetica,sans-Serif" font-size="10.00">Session</text>
</a>
</g>
</g>
<!-- dir_4f9e5a33db805b480ca4c3c5a4c359b4&#45;&gt;dir_f87d956b2b97682c57ad22a1d66cc929 -->
<g id="edge2" class="edge"><title>dir_4f9e5a33db805b480ca4c3c5a4c359b4&#45;&gt;dir_f87d956b2b97682c57ad22a1d66cc929</title>
<path fill="none" stroke="black" d="M68.4045,-215.697C61.8773,-207.389 53.932,-197.277 46.7534,-188.141"/>
<polygon fill="black" stroke="black" points="49.3695,-185.805 40.4391,-180.104 43.8653,-190.13 49.3695,-185.805"/>
<g id="a_edge2&#45;headlabel"><a xlink:href="dir_000043_000044.html" target="_top" xlink:title="1">
<text text-anchor="middle" x="53.8229" y="-184.377" font-family="Helvetica,sans-Serif" font-size="10.00">1</text>
</a>
</g>
</g>
<!-- dir_6bd92bd93c0d5d9980919215b46f20a3 -->
<g id="node3" class="node"><title>dir_6bd92bd93c0d5d9980919215b46f20a3</title>
<g id="a_node3"><a xlink:href="dir_6bd92bd93c0d5d9980919215b46f20a3.html" target="_top" xlink:title="Exceptions">
<polygon fill="none" stroke="black" points="126,-36 58,-36 58,-0 126,-0 126,-36"/>
<text text-anchor="middle" x="92" y="-15.5" font-family="Helvetica,sans-Serif" font-size="10.00">Exceptions</text>
</a>
</g>
</g>
<!-- dir_4f9e5a33db805b480ca4c3c5a4c359b4&#45;&gt;dir_6bd92bd93c0d5d9980919215b46f20a3 -->
<g id="edge3" class="edge"><title>dir_4f9e5a33db805b480ca4c3c5a4c359b4&#45;&gt;dir_6bd92bd93c0d5d9980919215b46f20a3</title>
<path fill="none" stroke="black" d="M86.3604,-215.647C93.2452,-186.179 105.421,-124.446 101,-72 100.283,-63.4991 98.9311,-54.3119 97.4884,-46.0122"/>
<polygon fill="black" stroke="black" points="100.914,-45.2892 95.6538,-36.0925 94.0309,-46.5623 100.914,-45.2892"/>
<g id="a_edge3&#45;headlabel"><a xlink:href="dir_000043_000038.html" target="_top" xlink:title="1">
<text text-anchor="middle" x="104.36" y="-45.8075" font-family="Helvetica,sans-Serif" font-size="10.00">1</text>
</a>
</g>
</g>
<!-- dir_42bf377ab7683cad4df24545e38566c4 -->
<g id="node4" class="node"><title>dir_42bf377ab7683cad4df24545e38566c4</title>
<g id="a_node4"><a xlink:href="dir_42bf377ab7683cad4df24545e38566c4.html" target="_top" xlink:title="Room">
<polygon fill="none" stroke="black" points="92,-108 38,-108 38,-72 92,-72 92,-108"/>
<text text-anchor="middle" x="65" y="-87.5" font-family="Helvetica,sans-Serif" font-size="10.00">Room</text>
</a>
</g>
</g>
<!-- dir_4f9e5a33db805b480ca4c3c5a4c359b4&#45;&gt;dir_42bf377ab7683cad4df24545e38566c4 -->
<g id="edge4" class="edge"><title>dir_4f9e5a33db805b480ca4c3c5a4c359b4&#45;&gt;dir_42bf377ab7683cad4df24545e38566c4</title>
<path fill="none" stroke="black" d="M79.9494,-215.871C77.0521,-191.67 71.7295,-147.211 68.2795,-118.393"/>
<polygon fill="black" stroke="black" points="71.7218,-117.702 67.0579,-108.189 64.7715,-118.534 71.7218,-117.702"/>
<g id="a_edge4&#45;headlabel"><a xlink:href="dir_000043_000046.html" target="_top" xlink:title="1">
<text text-anchor="middle" x="74.9682" y="-118.434" font-family="Helvetica,sans-Serif" font-size="10.00">1</text>
</a>
</g>
</g>
<!-- dir_f87d956b2b97682c57ad22a1d66cc929&#45;&gt;dir_42bf377ab7683cad4df24545e38566c4 -->
<g id="edge1" class="edge"><title>dir_f87d956b2b97682c57ad22a1d66cc929&#45;&gt;dir_42bf377ab7683cad4df24545e38566c4</title>
<path fill="none" stroke="black" d="M36.3933,-143.697C40.7649,-135.644 46.0573,-125.894 50.8953,-116.982"/>
<polygon fill="black" stroke="black" points="54.0198,-118.563 55.7148,-108.104 47.8678,-115.223 54.0198,-118.563"/>
<g id="a_edge1&#45;headlabel"><a xlink:href="dir_000044_000046.html" target="_top" xlink:title="1">
<text text-anchor="middle" x="54.8002" y="-120.576" font-family="Helvetica,sans-Serif" font-size="10.00">1</text>
</a>
</g>
</g>
<!-- dir_42bf377ab7683cad4df24545e38566c4&#45;&gt;dir_6bd92bd93c0d5d9980919215b46f20a3 -->
<g id="edge5" class="edge"><title>dir_42bf377ab7683cad4df24545e38566c4&#45;&gt;dir_6bd92bd93c0d5d9980919215b46f20a3</title>
<path fill="none" stroke="black" d="M71.6742,-71.6966C74.7149,-63.8132 78.3827,-54.3042 81.7607,-45.5464"/>
<polygon fill="black" stroke="black" points="85.0693,-46.6939 85.4026,-36.1043 78.5383,-44.1748 85.0693,-46.6939"/>
<g id="a_edge5&#45;headlabel"><a xlink:href="dir_000046_000038.html" target="_top" xlink:title="1">
<text text-anchor="middle" x="86.4248" y="-48.5695" font-family="Helvetica,sans-Serif" font-size="10.00">1</text>
</a>
</g>
</g>
</g>
</svg>
