<?xml version="1.0" encoding="UTF-8" standalone="no"?>
<!DOCTYPE svg PUBLIC "-//W3C//DTD SVG 1.1//EN"
 "http://www.w3.org/Graphics/SVG/1.1/DTD/svg11.dtd">
<!-- Generated by graphviz version 2.38.0 (20140413.2041)
 -->
<!-- Title: src/Systems/SystemConstructor/ButtonColorSystem Pages: 1 -->
<svg width="184pt" height="367pt"
 viewBox="0.00 0.00 183.86 367.00" xmlns="http://www.w3.org/2000/svg" xmlns:xlink="http://www.w3.org/1999/xlink">
<g id="graph0" class="graph" transform="scale(1 1) rotate(0) translate(4 363)">
<title>src/Systems/SystemConstructor/ButtonColorSystem</title>
<g id="clust1" class="cluster"><title>clusterdir_289c9e282717af8b03cbc49f45b6383f</title>
<g id="a_clust1"><a xlink:href="dir_289c9e282717af8b03cbc49f45b6383f.html" target="_top" xlink:title="SystemConstructor">
<polygon fill="#ddddee" stroke="black" points="8,-280 8,-351 134,-351 134,-280 8,-280"/>
<text text-anchor="middle" x="71" y="-339" font-family="Helvetica,sans-Serif" font-size="10.00">SystemConstructor</text>
</a>
</g>
</g>
<!-- dir_c8801eaf6dff1d341aa19fb797ed92e8 -->
<g id="node1" class="node"><title>dir_c8801eaf6dff1d341aa19fb797ed92e8</title>
<g id="a_node1"><a xlink:href="dir_c8801eaf6dff1d341aa19fb797ed92e8.html" target="_top" xlink:title="ButtonColorSystem">
<polygon fill="#eeeeff" stroke="black" points="126,-324 16,-324 16,-288 126,-288 126,-324"/>
<text text-anchor="middle" x="71" y="-303.5" font-family="Helvetica,sans-Serif" font-size="10.00">ButtonColorSystem</text>
</a>
</g>
</g>
<!-- dir_c610c8504d46288da7634b3c0b18263f -->
<g id="node2" class="node"><title>dir_c610c8504d46288da7634b3c0b18263f</title>
<g id="a_node2"><a xlink:href="dir_c610c8504d46288da7634b3c0b18263f.html" target="_top" xlink:title="Components">
<polygon fill="none" stroke="red" points="103,-180 25,-180 25,-144 103,-144 103,-180"/>
<text text-anchor="middle" x="64" y="-159.5" font-family="Helvetica,sans-Serif" font-size="10.00">Components</text>
</a>
</g>
</g>
<!-- dir_c8801eaf6dff1d341aa19fb797ed92e8&#45;&gt;dir_c610c8504d46288da7634b3c0b18263f -->
<g id="edge7" class="edge"><title>dir_c8801eaf6dff1d341aa19fb797ed92e8&#45;&gt;dir_c610c8504d46288da7634b3c0b18263f</title>
<path fill="none" stroke="black" d="M63.9339,-287.665C60.1619,-277.47 55.9119,-264.22 54,-252 50.7757,-231.391 53.6771,-207.941 57.1693,-190.287"/>
<polygon fill="black" stroke="black" points="60.6749,-190.635 59.3705,-180.121 53.8334,-189.153 60.6749,-190.635"/>
<g id="a_edge7&#45;headlabel"><a xlink:href="dir_000052_000001.html" target="_top" xlink:title="2">
<text text-anchor="middle" x="62.6892" y="-192.249" font-family="Helvetica,sans-Serif" font-size="10.00">2</text>
</a>
</g>
</g>
<!-- dir_093f3b7f7c7a61ef21fffb3d339f67e1 -->
<g id="node3" class="node"><title>dir_093f3b7f7c7a61ef21fffb3d339f67e1</title>
<g id="a_node3"><a xlink:href="dir_093f3b7f7c7a61ef21fffb3d339f67e1.html" target="_top" xlink:title="Entities">
<polygon fill="none" stroke="red" points="70,-108 16,-108 16,-72 70,-72 70,-108"/>
<text text-anchor="middle" x="43" y="-87.5" font-family="Helvetica,sans-Serif" font-size="10.00">Entities</text>
</a>
</g>
</g>
<!-- dir_c8801eaf6dff1d341aa19fb797ed92e8&#45;&gt;dir_093f3b7f7c7a61ef21fffb3d339f67e1 -->
<g id="edge8" class="edge"><title>dir_c8801eaf6dff1d341aa19fb797ed92e8&#45;&gt;dir_093f3b7f7c7a61ef21fffb3d339f67e1</title>
<path fill="none" stroke="black" d="M60.7592,-287.972C47.3627,-264.604 24.5865,-220.835 16,-180 12.7076,-164.342 12.2654,-159.558 16,-144 18.2066,-134.807 22.2878,-125.412 26.6207,-117.134"/>
<polygon fill="black" stroke="black" points="29.7153,-118.771 31.5331,-108.333 23.603,-115.359 29.7153,-118.771"/>
<g id="a_edge8&#45;headlabel"><a xlink:href="dir_000052_000008.html" target="_top" xlink:title="1">
<text text-anchor="middle" x="30.4425" y="-120.793" font-family="Helvetica,sans-Serif" font-size="10.00">1</text>
</a>
</g>
</g>
<!-- dir_5e4479035860cf5bcbad91b0602a81f2 -->
<g id="node4" class="node"><title>dir_5e4479035860cf5bcbad91b0602a81f2</title>
<g id="a_node4"><a xlink:href="dir_5e4479035860cf5bcbad91b0602a81f2.html" target="_top" xlink:title="DisplaySystem">
<polygon fill="none" stroke="black" points="151,-252 63,-252 63,-216 151,-216 151,-252"/>
<text text-anchor="middle" x="107" y="-231.5" font-family="Helvetica,sans-Serif" font-size="10.00">DisplaySystem</text>
</a>
</g>
</g>
<!-- dir_c8801eaf6dff1d341aa19fb797ed92e8&#45;&gt;dir_5e4479035860cf5bcbad91b0602a81f2 -->
<g id="edge9" class="edge"><title>dir_c8801eaf6dff1d341aa19fb797ed92e8&#45;&gt;dir_5e4479035860cf5bcbad91b0602a81f2</title>
<path fill="none" stroke="black" d="M79.8989,-287.697C83.9968,-279.728 88.9488,-270.1 93.4927,-261.264"/>
<polygon fill="black" stroke="black" points="96.7425,-262.598 98.2035,-252.104 90.5174,-259.396 96.7425,-262.598"/>
<g id="a_edge9&#45;headlabel"><a xlink:href="dir_000052_000055.html" target="_top" xlink:title="1">
<text text-anchor="middle" x="97.6235" y="-264.593" font-family="Helvetica,sans-Serif" font-size="10.00">1</text>
</a>
</g>
</g>
<!-- dir_6bd92bd93c0d5d9980919215b46f20a3 -->
<g id="node5" class="node"><title>dir_6bd92bd93c0d5d9980919215b46f20a3</title>
<g id="a_node5"><a xlink:href="dir_6bd92bd93c0d5d9980919215b46f20a3.html" target="_top" xlink:title="Exceptions">
<polygon fill="none" stroke="black" points="151,-36 83,-36 83,-0 151,-0 151,-36"/>
<text text-anchor="middle" x="117" y="-15.5" font-family="Helvetica,sans-Serif" font-size="10.00">Exceptions</text>
</a>
</g>
</g>
<!-- dir_c8801eaf6dff1d341aa19fb797ed92e8&#45;&gt;dir_6bd92bd93c0d5d9980919215b46f20a3 -->
<g id="edge10" class="edge"><title>dir_c8801eaf6dff1d341aa19fb797ed92e8&#45;&gt;dir_6bd92bd93c0d5d9980919215b46f20a3</title>
<path fill="none" stroke="black" d="M119.032,-287.85C134.966,-279.601 150.936,-267.947 160,-252 198.332,-184.559 156.854,-90.0375 132.35,-44.9327"/>
<polygon fill="black" stroke="black" points="135.342,-43.1127 127.413,-36.0854 129.229,-46.5234 135.342,-43.1127"/>
<g id="a_edge10&#45;headlabel"><a xlink:href="dir_000052_000038.html" target="_top" xlink:title="1">
<text text-anchor="middle" x="139.573" y="-42.3684" font-family="Helvetica,sans-Serif" font-size="10.00">1</text>
</a>
</g>
</g>
<!-- dir_c610c8504d46288da7634b3c0b18263f&#45;&gt;dir_093f3b7f7c7a61ef21fffb3d339f67e1 -->
<g id="edge1" class="edge"><title>dir_c610c8504d46288da7634b3c0b18263f&#45;&gt;dir_093f3b7f7c7a61ef21fffb3d339f67e1</title>
<path fill="none" stroke="black" d="M52.8933,-143.697C49.7834,-135.983 46.7758,-126.712 44.5384,-118.112"/>
<polygon fill="black" stroke="black" points="47.889,-117.065 42.2363,-108.104 41.0672,-118.634 47.889,-117.065"/>
<g id="a_edge1&#45;headlabel"><a xlink:href="dir_000001_000008.html" target="_top" xlink:title="1">
<text text-anchor="middle" x="51.4618" y="-117.432" font-family="Helvetica,sans-Serif" font-size="10.00">1</text>
</a>
</g>
</g>
<!-- dir_c610c8504d46288da7634b3c0b18263f&#45;&gt;dir_6bd92bd93c0d5d9980919215b46f20a3 -->
<g id="edge2" class="edge"><title>dir_c610c8504d46288da7634b3c0b18263f&#45;&gt;dir_6bd92bd93c0d5d9980919215b46f20a3</title>
<path fill="none" stroke="black" d="M70.393,-143.871C79.5055,-119.457 96.3129,-74.4258 107.059,-45.6351"/>
<polygon fill="black" stroke="black" points="110.367,-46.7819 110.584,-36.1893 103.808,-44.3341 110.367,-46.7819"/>
<g id="a_edge2&#45;headlabel"><a xlink:href="dir_000001_000038.html" target="_top" xlink:title="1">
<text text-anchor="middle" x="111.77" y="-48.6424" font-family="Helvetica,sans-Serif" font-size="10.00">1</text>
</a>
</g>
</g>
<!-- dir_093f3b7f7c7a61ef21fffb3d339f67e1&#45;&gt;dir_c610c8504d46288da7634b3c0b18263f -->
<g id="edge3" class="edge"><title>dir_093f3b7f7c7a61ef21fffb3d339f67e1&#45;&gt;dir_c610c8504d46288da7634b3c0b18263f</title>
<path fill="none" stroke="black" d="M54.0263,-108.104C57.1721,-115.876 60.2192,-125.257 62.4775,-133.949"/>
<polygon fill="black" stroke="black" points="59.0676,-134.739 64.7247,-143.697 65.8887,-133.166 59.0676,-134.739"/>
<g id="a_edge3&#45;headlabel"><a xlink:href="dir_000008_000001.html" target="_top" xlink:title="155">
<text text-anchor="middle" x="55.4935" y="-129.374" font-family="Helvetica,sans-Serif" font-size="10.00">155</text>
</a>
</g>
</g>
<!-- dir_093f3b7f7c7a61ef21fffb3d339f67e1&#45;&gt;dir_6bd92bd93c0d5d9980919215b46f20a3 -->
<g id="edge4" class="edge"><title>dir_093f3b7f7c7a61ef21fffb3d339f67e1&#45;&gt;dir_6bd92bd93c0d5d9980919215b46f20a3</title>
<path fill="none" stroke="black" d="M61.2921,-71.6966C70.4326,-63.0503 81.6401,-52.4486 91.6,-43.027"/>
<polygon fill="black" stroke="black" points="94.0588,-45.519 98.9183,-36.1043 89.2484,-40.4337 94.0588,-45.519"/>
<g id="a_edge4&#45;headlabel"><a xlink:href="dir_000008_000038.html" target="_top" xlink:title="3">
<text text-anchor="middle" x="93.3986" y="-47.5518" font-family="Helvetica,sans-Serif" font-size="10.00">3</text>
</a>
</g>
</g>
<!-- dir_5e4479035860cf5bcbad91b0602a81f2&#45;&gt;dir_c610c8504d46288da7634b3c0b18263f -->
<g id="edge5" class="edge"><title>dir_5e4479035860cf5bcbad91b0602a81f2&#45;&gt;dir_c610c8504d46288da7634b3c0b18263f</title>
<path fill="none" stroke="black" d="M96.3708,-215.697C91.3719,-207.559 85.309,-197.689 79.7879,-188.701"/>
<polygon fill="black" stroke="black" points="82.7234,-186.793 74.5069,-180.104 76.7589,-190.457 82.7234,-186.793"/>
<g id="a_edge5&#45;headlabel"><a xlink:href="dir_000055_000001.html" target="_top" xlink:title="4">
<text text-anchor="middle" x="87.0242" y="-185.87" font-family="Helvetica,sans-Serif" font-size="10.00">4</text>
</a>
</g>
</g>
<!-- dir_5e4479035860cf5bcbad91b0602a81f2&#45;&gt;dir_6bd92bd93c0d5d9980919215b46f20a3 -->
<g id="edge6" class="edge"><title>dir_5e4479035860cf5bcbad91b0602a81f2&#45;&gt;dir_6bd92bd93c0d5d9980919215b46f20a3</title>
<path fill="none" stroke="black" d="M108.896,-215.836C109.971,-205.471 111.249,-191.991 112,-180 114.924,-133.313 116.162,-78.8971 116.668,-46.787"/>
<polygon fill="black" stroke="black" points="120.173,-46.4584 116.819,-36.4088 113.174,-46.357 120.173,-46.4584"/>
<g id="a_edge6&#45;headlabel"><a xlink:href="dir_000055_000038.html" target="_top" xlink:title="1">
<text text-anchor="middle" x="122.96" y="-47.5937" font-family="Helvetica,sans-Serif" font-size="10.00">1</text>
</a>
</g>
</g>
</g>
</svg>
