<?xml version="1.0" encoding="UTF-8" standalone="no"?>
<!DOCTYPE svg PUBLIC "-//W3C//DTD SVG 1.1//EN"
 "http://www.w3.org/Graphics/SVG/1.1/DTD/svg11.dtd">
<!-- Generated by graphviz version 2.38.0 (20140413.2041)
 -->
<!-- Title: src/Systems/SystemConstructor/testSystem Pages: 1 -->
<svg width="134pt" height="295pt"
 viewBox="0.00 0.00 134.00 295.00" xmlns="http://www.w3.org/2000/svg" xmlns:xlink="http://www.w3.org/1999/xlink">
<g id="graph0" class="graph" transform="scale(1 1) rotate(0) translate(4 291)">
<title>src/Systems/SystemConstructor/testSystem</title>
<g id="clust1" class="cluster"><title>clusterdir_289c9e282717af8b03cbc49f45b6383f</title>
<g id="a_clust1"><a xlink:href="dir_289c9e282717af8b03cbc49f45b6383f.html" target="_top" xlink:title="SystemConstructor">
<polygon fill="#ddddee" stroke="black" points="8,-208 8,-279 118,-279 118,-208 8,-208"/>
<text text-anchor="middle" x="63" y="-267" font-family="Helvetica,sans-Serif" font-size="10.00">SystemConstructor</text>
</a>
</g>
</g>
<!-- dir_4307362a3be32c0b2eab283ec865aba1 -->
<g id="node1" class="node"><title>dir_4307362a3be32c0b2eab283ec865aba1</title>
<g id="a_node1"><a xlink:href="dir_4307362a3be32c0b2eab283ec865aba1.html" target="_top" xlink:title="testSystem">
<polygon fill="#eeeeff" stroke="black" points="99,-252 27,-252 27,-216 99,-216 99,-252"/>
<text text-anchor="middle" x="63" y="-231.5" font-family="Helvetica,sans-Serif" font-size="10.00">testSystem</text>
</a>
</g>
</g>
<!-- dir_c610c8504d46288da7634b3c0b18263f -->
<g id="node2" class="node"><title>dir_c610c8504d46288da7634b3c0b18263f</title>
<g id="a_node2"><a xlink:href="dir_c610c8504d46288da7634b3c0b18263f.html" target="_top" xlink:title="Components">
<polygon fill="none" stroke="red" points="102,-108 24,-108 24,-72 102,-72 102,-108"/>
<text text-anchor="middle" x="63" y="-87.5" font-family="Helvetica,sans-Serif" font-size="10.00">Components</text>
</a>
</g>
</g>
<!-- dir_4307362a3be32c0b2eab283ec865aba1&#45;&gt;dir_c610c8504d46288da7634b3c0b18263f -->
<g id="edge4" class="edge"><title>dir_4307362a3be32c0b2eab283ec865aba1&#45;&gt;dir_c610c8504d46288da7634b3c0b18263f</title>
<path fill="none" stroke="black" d="M38.5234,-215.768C27.5957,-206.555 15.8761,-194.186 10,-180 3.87707,-165.218 3.87707,-158.782 10,-144 14.5448,-133.028 22.5852,-123.143 31.0512,-114.964"/>
<polygon fill="black" stroke="black" points="33.4369,-117.526 38.5234,-108.232 28.7513,-112.326 33.4369,-117.526"/>
<g id="a_edge4&#45;headlabel"><a xlink:href="dir_000061_000001.html" target="_top" xlink:title="1">
<text text-anchor="middle" x="32.6668" y="-119.542" font-family="Helvetica,sans-Serif" font-size="10.00">1</text>
</a>
</g>
</g>
<!-- dir_093f3b7f7c7a61ef21fffb3d339f67e1 -->
<g id="node3" class="node"><title>dir_093f3b7f7c7a61ef21fffb3d339f67e1</title>
<g id="a_node3"><a xlink:href="dir_093f3b7f7c7a61ef21fffb3d339f67e1.html" target="_top" xlink:title="Entities">
<polygon fill="none" stroke="red" points="90,-36 36,-36 36,-0 90,-0 90,-36"/>
<text text-anchor="middle" x="63" y="-15.5" font-family="Helvetica,sans-Serif" font-size="10.00">Entities</text>
</a>
</g>
</g>
<!-- dir_4307362a3be32c0b2eab283ec865aba1&#45;&gt;dir_093f3b7f7c7a61ef21fffb3d339f67e1 -->
<g id="edge5" class="edge"><title>dir_4307362a3be32c0b2eab283ec865aba1&#45;&gt;dir_093f3b7f7c7a61ef21fffb3d339f67e1</title>
<path fill="none" stroke="black" d="M87.4766,-215.768C98.4043,-206.555 110.124,-194.186 116,-180 123,-163.1 117.259,-86.6964 111,-72 106.531,-61.5066 99.0872,-51.7187 91.3796,-43.4815"/>
<polygon fill="black" stroke="black" points="93.8411,-40.9931 84.3048,-36.3768 88.8809,-45.9325 93.8411,-40.9931"/>
<g id="a_edge5&#45;headlabel"><a xlink:href="dir_000061_000008.html" target="_top" xlink:title="1">
<text text-anchor="middle" x="98.3894" y="-39.0368" font-family="Helvetica,sans-Serif" font-size="10.00">1</text>
</a>
</g>
</g>
<!-- dir_5e4479035860cf5bcbad91b0602a81f2 -->
<g id="node4" class="node"><title>dir_5e4479035860cf5bcbad91b0602a81f2</title>
<g id="a_node4"><a xlink:href="dir_5e4479035860cf5bcbad91b0602a81f2.html" target="_top" xlink:title="DisplaySystem">
<polygon fill="none" stroke="black" points="107,-180 19,-180 19,-144 107,-144 107,-180"/>
<text text-anchor="middle" x="63" y="-159.5" font-family="Helvetica,sans-Serif" font-size="10.00">DisplaySystem</text>
</a>
</g>
</g>
<!-- dir_4307362a3be32c0b2eab283ec865aba1&#45;&gt;dir_5e4479035860cf5bcbad91b0602a81f2 -->
<g id="edge6" class="edge"><title>dir_4307362a3be32c0b2eab283ec865aba1&#45;&gt;dir_5e4479035860cf5bcbad91b0602a81f2</title>
<path fill="none" stroke="black" d="M63,-215.697C63,-207.983 63,-198.712 63,-190.112"/>
<polygon fill="black" stroke="black" points="66.5001,-190.104 63,-180.104 59.5001,-190.104 66.5001,-190.104"/>
<g id="a_edge6&#45;headlabel"><a xlink:href="dir_000061_000055.html" target="_top" xlink:title="1">
<text text-anchor="middle" x="69.3393" y="-191.199" font-family="Helvetica,sans-Serif" font-size="10.00">1</text>
</a>
</g>
</g>
<!-- dir_c610c8504d46288da7634b3c0b18263f&#45;&gt;dir_093f3b7f7c7a61ef21fffb3d339f67e1 -->
<g id="edge1" class="edge"><title>dir_c610c8504d46288da7634b3c0b18263f&#45;&gt;dir_093f3b7f7c7a61ef21fffb3d339f67e1</title>
<path fill="none" stroke="black" d="M57.0843,-71.6966C56.2886,-63.9827 56.0621,-54.7125 56.4047,-46.1124"/>
<polygon fill="black" stroke="black" points="59.8984,-46.3243 57.105,-36.1043 52.9154,-45.8356 59.8984,-46.3243"/>
<g id="a_edge1&#45;headlabel"><a xlink:href="dir_000001_000008.html" target="_top" xlink:title="1">
<text text-anchor="middle" x="62.4799" y="-47.6083" font-family="Helvetica,sans-Serif" font-size="10.00">1</text>
</a>
</g>
</g>
<!-- dir_093f3b7f7c7a61ef21fffb3d339f67e1&#45;&gt;dir_c610c8504d46288da7634b3c0b18263f -->
<g id="edge2" class="edge"><title>dir_093f3b7f7c7a61ef21fffb3d339f67e1&#45;&gt;dir_c610c8504d46288da7634b3c0b18263f</title>
<path fill="none" stroke="black" d="M68.895,-36.1043C69.7005,-43.7913 69.9369,-53.0537 69.604,-61.6651"/>
<polygon fill="black" stroke="black" points="66.1085,-61.4805 68.9157,-71.6966 73.0921,-61.9597 66.1085,-61.4805"/>
<g id="a_edge2&#45;headlabel"><a xlink:href="dir_000008_000001.html" target="_top" xlink:title="155">
<text text-anchor="middle" x="63.5219" y="-55.2" font-family="Helvetica,sans-Serif" font-size="10.00">155</text>
</a>
</g>
</g>
<!-- dir_5e4479035860cf5bcbad91b0602a81f2&#45;&gt;dir_c610c8504d46288da7634b3c0b18263f -->
<g id="edge3" class="edge"><title>dir_5e4479035860cf5bcbad91b0602a81f2&#45;&gt;dir_c610c8504d46288da7634b3c0b18263f</title>
<path fill="none" stroke="black" d="M63,-143.697C63,-135.983 63,-126.712 63,-118.112"/>
<polygon fill="black" stroke="black" points="66.5001,-118.104 63,-108.104 59.5001,-118.104 66.5001,-118.104"/>
<g id="a_edge3&#45;headlabel"><a xlink:href="dir_000055_000001.html" target="_top" xlink:title="4">
<text text-anchor="middle" x="69.3393" y="-119.199" font-family="Helvetica,sans-Serif" font-size="10.00">4</text>
</a>
</g>
</g>
</g>
</svg>
