<?xml version="1.0" encoding="UTF-8" standalone="no"?>
<!DOCTYPE svg PUBLIC "-//W3C//DTD SVG 1.1//EN"
 "http://www.w3.org/Graphics/SVG/1.1/DTD/svg11.dtd">
<!-- Generated by graphviz version 2.38.0 (20140413.2041)
 -->
<!-- Title: src/Systems/SystemConstructor/ParallaxSystem Pages: 1 -->
<svg width="202pt" height="223pt"
 viewBox="0.00 0.00 201.50 223.00" xmlns="http://www.w3.org/2000/svg" xmlns:xlink="http://www.w3.org/1999/xlink">
<g id="graph0" class="graph" transform="scale(1 1) rotate(0) translate(4 219)">
<title>src/Systems/SystemConstructor/ParallaxSystem</title>
<g id="clust1" class="cluster"><title>clusterdir_289c9e282717af8b03cbc49f45b6383f</title>
<g id="a_clust1"><a xlink:href="dir_289c9e282717af8b03cbc49f45b6383f.html" target="_top" xlink:title="SystemConstructor">
<polygon fill="#ddddee" stroke="black" points="45.5,-136 45.5,-207 155.5,-207 155.5,-136 45.5,-136"/>
<text text-anchor="middle" x="100.5" y="-195" font-family="Helvetica,sans-Serif" font-size="10.00">SystemConstructor</text>
</a>
</g>
</g>
<!-- dir_4cdf2e1764b5e762beb783bb890f90ee -->
<g id="node1" class="node"><title>dir_4cdf2e1764b5e762beb783bb890f90ee</title>
<g id="a_node1"><a xlink:href="dir_4cdf2e1764b5e762beb783bb890f90ee.html" target="_top" xlink:title="ParallaxSystem">
<polygon fill="#eeeeff" stroke="black" points="145.5,-180 55.5,-180 55.5,-144 145.5,-144 145.5,-180"/>
<text text-anchor="middle" x="100.5" y="-159.5" font-family="Helvetica,sans-Serif" font-size="10.00">ParallaxSystem</text>
</a>
</g>
</g>
<!-- dir_c610c8504d46288da7634b3c0b18263f -->
<g id="node2" class="node"><title>dir_c610c8504d46288da7634b3c0b18263f</title>
<g id="a_node2"><a xlink:href="dir_c610c8504d46288da7634b3c0b18263f.html" target="_top" xlink:title="Components">
<polygon fill="none" stroke="red" points="139.5,-108 61.5,-108 61.5,-72 139.5,-72 139.5,-108"/>
<text text-anchor="middle" x="100.5" y="-87.5" font-family="Helvetica,sans-Serif" font-size="10.00">Components</text>
</a>
</g>
</g>
<!-- dir_4cdf2e1764b5e762beb783bb890f90ee&#45;&gt;dir_c610c8504d46288da7634b3c0b18263f -->
<g id="edge3" class="edge"><title>dir_4cdf2e1764b5e762beb783bb890f90ee&#45;&gt;dir_c610c8504d46288da7634b3c0b18263f</title>
<path fill="none" stroke="black" d="M100.5,-143.697C100.5,-135.983 100.5,-126.712 100.5,-118.112"/>
<polygon fill="black" stroke="black" points="104,-118.104 100.5,-108.104 97.0001,-118.104 104,-118.104"/>
<g id="a_edge3&#45;headlabel"><a xlink:href="dir_000059_000001.html" target="_top" xlink:title="6">
<text text-anchor="middle" x="106.839" y="-119.199" font-family="Helvetica,sans-Serif" font-size="10.00">6</text>
</a>
</g>
</g>
<!-- dir_ee001d497cfb0622591b7eb1d04ce131 -->
<g id="node3" class="node"><title>dir_ee001d497cfb0622591b7eb1d04ce131</title>
<g id="a_node3"><a xlink:href="dir_ee001d497cfb0622591b7eb1d04ce131.html" target="_top" xlink:title="SystemResponse">
<polygon fill="none" stroke="black" points="99,-36 0,-36 0,-0 99,-0 99,-36"/>
<text text-anchor="middle" x="49.5" y="-15.5" font-family="Helvetica,sans-Serif" font-size="10.00">SystemResponse</text>
</a>
</g>
</g>
<!-- dir_4cdf2e1764b5e762beb783bb890f90ee&#45;&gt;dir_ee001d497cfb0622591b7eb1d04ce131 -->
<g id="edge4" class="edge"><title>dir_4cdf2e1764b5e762beb783bb890f90ee&#45;&gt;dir_ee001d497cfb0622591b7eb1d04ce131</title>
<path fill="none" stroke="black" d="M78.9877,-143.709C68.9885,-134.316 58.0921,-121.807 52.5,-108 44.5809,-88.4469 44.2515,-64.4524 45.6709,-46.3064"/>
<polygon fill="black" stroke="black" points="49.1774,-46.4165 46.6962,-36.1163 42.2125,-45.7156 49.1774,-46.4165"/>
<g id="a_edge4&#45;headlabel"><a xlink:href="dir_000059_000063.html" target="_top" xlink:title="1">
<text text-anchor="middle" x="51.6426" y="-47.7773" font-family="Helvetica,sans-Serif" font-size="10.00">1</text>
</a>
</g>
</g>
<!-- dir_6bd92bd93c0d5d9980919215b46f20a3 -->
<g id="node4" class="node"><title>dir_6bd92bd93c0d5d9980919215b46f20a3</title>
<g id="a_node4"><a xlink:href="dir_6bd92bd93c0d5d9980919215b46f20a3.html" target="_top" xlink:title="Exceptions">
<polygon fill="none" stroke="black" points="193.5,-36 125.5,-36 125.5,-0 193.5,-0 193.5,-36"/>
<text text-anchor="middle" x="159.5" y="-15.5" font-family="Helvetica,sans-Serif" font-size="10.00">Exceptions</text>
</a>
</g>
</g>
<!-- dir_4cdf2e1764b5e762beb783bb890f90ee&#45;&gt;dir_6bd92bd93c0d5d9980919215b46f20a3 -->
<g id="edge5" class="edge"><title>dir_4cdf2e1764b5e762beb783bb890f90ee&#45;&gt;dir_6bd92bd93c0d5d9980919215b46f20a3</title>
<path fill="none" stroke="black" d="M121.003,-143.956C130.997,-134.452 142.194,-121.77 148.5,-108 157.346,-88.6848 159.887,-64.6745 160.331,-46.462"/>
<polygon fill="black" stroke="black" points="163.832,-46.2432 160.378,-36.2271 156.832,-46.2107 163.832,-46.2432"/>
<g id="a_edge5&#45;headlabel"><a xlink:href="dir_000059_000038.html" target="_top" xlink:title="1">
<text text-anchor="middle" x="166.655" y="-47.3509" font-family="Helvetica,sans-Serif" font-size="10.00">1</text>
</a>
</g>
</g>
<!-- dir_c610c8504d46288da7634b3c0b18263f&#45;&gt;dir_ee001d497cfb0622591b7eb1d04ce131 -->
<g id="edge1" class="edge"><title>dir_c610c8504d46288da7634b3c0b18263f&#45;&gt;dir_ee001d497cfb0622591b7eb1d04ce131</title>
<path fill="none" stroke="black" d="M87.8933,-71.6966C81.9026,-63.4741 74.6235,-53.4832 68.0208,-44.4207"/>
<polygon fill="black" stroke="black" points="70.6792,-42.1257 61.9617,-36.1043 65.0215,-46.2477 70.6792,-42.1257"/>
<g id="a_edge1&#45;headlabel"><a xlink:href="dir_000001_000063.html" target="_top" xlink:title="1">
<text text-anchor="middle" x="75.0907" y="-40.8591" font-family="Helvetica,sans-Serif" font-size="10.00">1</text>
</a>
</g>
</g>
<!-- dir_c610c8504d46288da7634b3c0b18263f&#45;&gt;dir_6bd92bd93c0d5d9980919215b46f20a3 -->
<g id="edge2" class="edge"><title>dir_c610c8504d46288da7634b3c0b18263f&#45;&gt;dir_6bd92bd93c0d5d9980919215b46f20a3</title>
<path fill="none" stroke="black" d="M115.084,-71.6966C122.158,-63.3046 130.783,-53.0705 138.545,-43.8613"/>
<polygon fill="black" stroke="black" points="141.315,-46.0063 145.083,-36.1043 135.963,-41.495 141.315,-46.0063"/>
<g id="a_edge2&#45;headlabel"><a xlink:href="dir_000001_000038.html" target="_top" xlink:title="1">
<text text-anchor="middle" x="141.169" y="-48.0846" font-family="Helvetica,sans-Serif" font-size="10.00">1</text>
</a>
</g>
</g>
</g>
</svg>
