<?xml version="1.0" encoding="UTF-8" standalone="no"?>
<!DOCTYPE svg PUBLIC "-//W3C//DTD SVG 1.1//EN"
 "http://www.w3.org/Graphics/SVG/1.1/DTD/svg11.dtd">
<!-- Generated by graphviz version 2.38.0 (20140413.2041)
 -->
<!-- Title: src/Components/Display Pages: 1 -->
<svg width="190pt" height="223pt"
 viewBox="0.00 0.00 190.39 223.00" xmlns="http://www.w3.org/2000/svg" xmlns:xlink="http://www.w3.org/1999/xlink">
<g id="graph0" class="graph" transform="scale(1 1) rotate(0) translate(4 219)">
<title>src/Components/Display</title>
<g id="clust1" class="cluster"><title>clusterdir_c610c8504d46288da7634b3c0b18263f</title>
<g id="a_clust1"><a xlink:href="dir_c610c8504d46288da7634b3c0b18263f.html" target="_top" xlink:title="Components">
<polygon fill="#ddddee" stroke="black" points="21,-136 21,-207 99,-207 99,-136 21,-136"/>
<text text-anchor="middle" x="60" y="-195" font-family="Helvetica,sans-Serif" font-size="10.00">Components</text>
</a>
</g>
</g>
<!-- dir_def6d6f35ac5409afe1a3bac925a8368 -->
<g id="node1" class="node"><title>dir_def6d6f35ac5409afe1a3bac925a8368</title>
<g id="a_node1"><a xlink:href="dir_def6d6f35ac5409afe1a3bac925a8368.html" target="_top" xlink:title="Display">
<polygon fill="#eeeeff" stroke="black" points="90,-180 36,-180 36,-144 90,-144 90,-180"/>
<text text-anchor="middle" x="63" y="-159.5" font-family="Helvetica,sans-Serif" font-size="10.00">Display</text>
</a>
</g>
</g>
<!-- dir_a7363e98f9e0bdd87618633653859815 -->
<g id="node2" class="node"><title>dir_a7363e98f9e0bdd87618633653859815</title>
<g id="a_node2"><a xlink:href="dir_a7363e98f9e0bdd87618633653859815.html" target="_top" xlink:title="Utils">
<polygon fill="none" stroke="black" points="54,-36 0,-36 0,-0 54,-0 54,-36"/>
<text text-anchor="middle" x="27" y="-15.5" font-family="Helvetica,sans-Serif" font-size="10.00">Utils</text>
</a>
</g>
</g>
<!-- dir_def6d6f35ac5409afe1a3bac925a8368&#45;&gt;dir_a7363e98f9e0bdd87618633653859815 -->
<g id="edge1" class="edge"><title>dir_def6d6f35ac5409afe1a3bac925a8368&#45;&gt;dir_a7363e98f9e0bdd87618633653859815</title>
<path fill="none" stroke="black" d="M42.1772,-143.615C32.542,-134.198 22.1149,-121.697 17,-108 9.5535,-88.0598 12.9305,-63.9958 17.6847,-45.9202"/>
<polygon fill="black" stroke="black" points="21.0497,-46.8827 20.4892,-36.3027 14.3296,-44.923 21.0497,-46.8827"/>
<g id="a_edge1&#45;headlabel"><a xlink:href="dir_000003_000065.html" target="_top" xlink:title="4">
<text text-anchor="middle" x="22.7692" y="-48.6284" font-family="Helvetica,sans-Serif" font-size="10.00">4</text>
</a>
</g>
</g>
<!-- dir_900c20bb70493231141df6997ccd6b87 -->
<g id="node3" class="node"><title>dir_900c20bb70493231141df6997ccd6b87</title>
<g id="a_node3"><a xlink:href="dir_900c20bb70493231141df6997ccd6b87.html" target="_top" xlink:title="Systems">
<polygon fill="none" stroke="red" points="167.5,-180 108.5,-180 108.5,-144 167.5,-144 167.5,-180"/>
<text text-anchor="middle" x="138" y="-159.5" font-family="Helvetica,sans-Serif" font-size="10.00">Systems</text>
</a>
</g>
</g>
<!-- dir_def6d6f35ac5409afe1a3bac925a8368&#45;&gt;dir_900c20bb70493231141df6997ccd6b87 -->
<g id="edge2" class="edge"><title>dir_def6d6f35ac5409afe1a3bac925a8368&#45;&gt;dir_900c20bb70493231141df6997ccd6b87</title>
<path fill="none" stroke="black" d="M90.2461,-162C92.8576,-162 95.4692,-162 98.0807,-162"/>
<polygon fill="black" stroke="black" points="98.1538,-165.5 108.154,-162 98.1538,-158.5 98.1538,-165.5"/>
<g id="a_edge2&#45;headlabel"><a xlink:href="dir_000003_000048.html" target="_top" xlink:title="1">
<text text-anchor="middle" x="94.5592" y="-165.839" font-family="Helvetica,sans-Serif" font-size="10.00">1</text>
</a>
</g>
</g>
<!-- dir_234b1c3f276c9241e041bdd88bdcd4ef -->
<g id="node4" class="node"><title>dir_234b1c3f276c9241e041bdd88bdcd4ef</title>
<g id="a_node4"><a xlink:href="dir_234b1c3f276c9241e041bdd88bdcd4ef.html" target="_top" xlink:title="GameLogic">
<polygon fill="none" stroke="black" points="168.5,-108 97.5,-108 97.5,-72 168.5,-72 168.5,-108"/>
<text text-anchor="middle" x="133" y="-87.5" font-family="Helvetica,sans-Serif" font-size="10.00">GameLogic</text>
</a>
</g>
</g>
<!-- dir_def6d6f35ac5409afe1a3bac925a8368&#45;&gt;dir_234b1c3f276c9241e041bdd88bdcd4ef -->
<g id="edge3" class="edge"><title>dir_def6d6f35ac5409afe1a3bac925a8368&#45;&gt;dir_234b1c3f276c9241e041bdd88bdcd4ef</title>
<path fill="none" stroke="black" d="M80.3034,-143.697C88.865,-135.135 99.3438,-124.656 108.696,-115.304"/>
<polygon fill="black" stroke="black" points="111.299,-117.65 115.896,-108.104 106.35,-112.701 111.299,-117.65"/>
<g id="a_edge3&#45;headlabel"><a xlink:href="dir_000003_000004.html" target="_top" xlink:title="2">
<text text-anchor="middle" x="110.765" y="-119.7" font-family="Helvetica,sans-Serif" font-size="10.00">2</text>
</a>
</g>
</g>
<!-- dir_4c7ee98193a6cba0af9aae7f963a60da -->
<g id="node5" class="node"><title>dir_4c7ee98193a6cba0af9aae7f963a60da</title>
<g id="a_node5"><a xlink:href="dir_4c7ee98193a6cba0af9aae7f963a60da.html" target="_top" xlink:title="Render">
<polygon fill="none" stroke="black" points="128,-36 74,-36 74,-0 128,-0 128,-36"/>
<text text-anchor="middle" x="101" y="-15.5" font-family="Helvetica,sans-Serif" font-size="10.00">Render</text>
</a>
</g>
</g>
<!-- dir_def6d6f35ac5409afe1a3bac925a8368&#45;&gt;dir_4c7ee98193a6cba0af9aae7f963a60da -->
<g id="edge4" class="edge"><title>dir_def6d6f35ac5409afe1a3bac925a8368&#45;&gt;dir_4c7ee98193a6cba0af9aae7f963a60da</title>
<path fill="none" stroke="black" d="M57.0972,-143.676C51.8157,-125.293 46.1534,-95.6894 55,-72 58.8761,-61.6206 65.8029,-51.9274 73.124,-43.7427"/>
<polygon fill="black" stroke="black" points="75.784,-46.0256 80.1772,-36.3845 70.7306,-41.1816 75.784,-46.0256"/>
<g id="a_edge4&#45;headlabel"><a xlink:href="dir_000003_000045.html" target="_top" xlink:title="2">
<text text-anchor="middle" x="75.3463" y="-48.0853" font-family="Helvetica,sans-Serif" font-size="10.00">2</text>
</a>
</g>
</g>
<!-- dir_900c20bb70493231141df6997ccd6b87&#45;&gt;dir_234b1c3f276c9241e041bdd88bdcd4ef -->
<g id="edge5" class="edge"><title>dir_900c20bb70493231141df6997ccd6b87&#45;&gt;dir_234b1c3f276c9241e041bdd88bdcd4ef</title>
<path fill="none" stroke="black" d="M136.764,-143.697C136.213,-135.983 135.551,-126.712 134.937,-118.112"/>
<polygon fill="black" stroke="black" points="138.425,-117.83 134.222,-108.104 131.443,-118.328 138.425,-117.83"/>
<g id="a_edge5&#45;headlabel"><a xlink:href="dir_000048_000004.html" target="_top" xlink:title="10">
<text text-anchor="middle" x="141.513" y="-118.713" font-family="Helvetica,sans-Serif" font-size="10.00">10</text>
</a>
</g>
</g>
<!-- dir_900c20bb70493231141df6997ccd6b87&#45;&gt;dir_4c7ee98193a6cba0af9aae7f963a60da -->
<g id="edge6" class="edge"><title>dir_900c20bb70493231141df6997ccd6b87&#45;&gt;dir_4c7ee98193a6cba0af9aae7f963a60da</title>
<path fill="none" stroke="black" d="M155.088,-143.974C171.119,-125.84 190.848,-96.4413 178,-72 169.289,-55.4288 152.793,-43.0301 137.297,-34.4084"/>
<polygon fill="black" stroke="black" points="138.843,-31.2676 128.355,-29.7656 135.617,-37.48 138.843,-31.2676"/>
<g id="a_edge6&#45;headlabel"><a xlink:href="dir_000048_000045.html" target="_top" xlink:title="2">
<text text-anchor="middle" x="143.342" y="-27.9041" font-family="Helvetica,sans-Serif" font-size="10.00">2</text>
</a>
</g>
</g>
<!-- dir_234b1c3f276c9241e041bdd88bdcd4ef&#45;&gt;dir_a7363e98f9e0bdd87618633653859815 -->
<g id="edge7" class="edge"><title>dir_234b1c3f276c9241e041bdd88bdcd4ef&#45;&gt;dir_a7363e98f9e0bdd87618633653859815</title>
<path fill="none" stroke="black" d="M107.069,-71.8761C93.3383,-62.8083 76.2935,-51.5523 61.4639,-41.7592"/>
<polygon fill="black" stroke="black" points="63.3036,-38.7798 53.0302,-36.1898 59.4461,-44.621 63.3036,-38.7798"/>
<g id="a_edge7&#45;headlabel"><a xlink:href="dir_000004_000065.html" target="_top" xlink:title="1">
<text text-anchor="middle" x="67.8678" y="-35.8913" font-family="Helvetica,sans-Serif" font-size="10.00">1</text>
</a>
</g>
</g>
<!-- dir_234b1c3f276c9241e041bdd88bdcd4ef&#45;&gt;dir_4c7ee98193a6cba0af9aae7f963a60da -->
<g id="edge8" class="edge"><title>dir_234b1c3f276c9241e041bdd88bdcd4ef&#45;&gt;dir_4c7ee98193a6cba0af9aae7f963a60da</title>
<path fill="none" stroke="black" d="M125.09,-71.6966C121.447,-63.7284 117.046,-54.0995 113.006,-45.2641"/>
<polygon fill="black" stroke="black" points="116.16,-43.7439 108.819,-36.1043 109.794,-46.6543 116.16,-43.7439"/>
<g id="a_edge8&#45;headlabel"><a xlink:href="dir_000004_000045.html" target="_top" xlink:title="1">
<text text-anchor="middle" x="120.237" y="-43.3327" font-family="Helvetica,sans-Serif" font-size="10.00">1</text>
</a>
</g>
</g>
<!-- dir_4c7ee98193a6cba0af9aae7f963a60da&#45;&gt;dir_def6d6f35ac5409afe1a3bac925a8368 -->
<g id="edge9" class="edge"><title>dir_4c7ee98193a6cba0af9aae7f963a60da&#45;&gt;dir_def6d6f35ac5409afe1a3bac925a8368</title>
<path fill="none" stroke="black" d="M96.4001,-36.1893C89.886,-60.5311 77.911,-105.28 70.2097,-134.059"/>
<polygon fill="black" stroke="black" points="66.7878,-133.307 67.5837,-143.871 73.5499,-135.116 66.7878,-133.307"/>
<g id="a_edge9&#45;headlabel"><a xlink:href="dir_000045_000003.html" target="_top" xlink:title="2">
<text text-anchor="middle" x="64.9742" y="-126.6" font-family="Helvetica,sans-Serif" font-size="10.00">2</text>
</a>
</g>
</g>
</g>
</svg>
