<?xml version="1.0" encoding="UTF-8" standalone="no"?>
<!DOCTYPE svg PUBLIC "-//W3C//DTD SVG 1.1//EN"
 "http://www.w3.org/Graphics/SVG/1.1/DTD/svg11.dtd">
<!-- Generated by graphviz version 2.38.0 (20140413.2041)
 -->
<!-- Title: src/Systems/SystemConstructor/PlayerMovementSystem Pages: 1 -->
<svg width="174pt" height="295pt"
 viewBox="0.00 0.00 174.00 295.00" xmlns="http://www.w3.org/2000/svg" xmlns:xlink="http://www.w3.org/1999/xlink">
<g id="graph0" class="graph" transform="scale(1 1) rotate(0) translate(4 291)">
<title>src/Systems/SystemConstructor/PlayerMovementSystem</title>
<g id="clust1" class="cluster"><title>clusterdir_289c9e282717af8b03cbc49f45b6383f</title>
<g id="a_clust1"><a xlink:href="dir_289c9e282717af8b03cbc49f45b6383f.html" target="_top" xlink:title="SystemConstructor">
<polygon fill="#ddddee" stroke="black" points="8,-208 8,-279 158,-279 158,-208 8,-208"/>
<text text-anchor="middle" x="83" y="-267" font-family="Helvetica,sans-Serif" font-size="10.00">SystemConstructor</text>
</a>
</g>
</g>
<!-- dir_6775ee646e45618c60c89dd53eb5c079 -->
<g id="node1" class="node"><title>dir_6775ee646e45618c60c89dd53eb5c079</title>
<g id="a_node1"><a xlink:href="dir_6775ee646e45618c60c89dd53eb5c079.html" target="_top" xlink:title="PlayerMovementSystem">
<polygon fill="#eeeeff" stroke="black" points="150,-252 16,-252 16,-216 150,-216 150,-252"/>
<text text-anchor="middle" x="83" y="-231.5" font-family="Helvetica,sans-Serif" font-size="10.00">PlayerMovementSystem</text>
</a>
</g>
</g>
<!-- dir_c610c8504d46288da7634b3c0b18263f -->
<g id="node2" class="node"><title>dir_c610c8504d46288da7634b3c0b18263f</title>
<g id="a_node2"><a xlink:href="dir_c610c8504d46288da7634b3c0b18263f.html" target="_top" xlink:title="Components">
<polygon fill="none" stroke="red" points="122,-180 44,-180 44,-144 122,-144 122,-180"/>
<text text-anchor="middle" x="83" y="-159.5" font-family="Helvetica,sans-Serif" font-size="10.00">Components</text>
</a>
</g>
</g>
<!-- dir_6775ee646e45618c60c89dd53eb5c079&#45;&gt;dir_c610c8504d46288da7634b3c0b18263f -->
<g id="edge3" class="edge"><title>dir_6775ee646e45618c60c89dd53eb5c079&#45;&gt;dir_c610c8504d46288da7634b3c0b18263f</title>
<path fill="none" stroke="black" d="M83,-215.697C83,-207.983 83,-198.712 83,-190.112"/>
<polygon fill="black" stroke="black" points="86.5001,-190.104 83,-180.104 79.5001,-190.104 86.5001,-190.104"/>
<g id="a_edge3&#45;headlabel"><a xlink:href="dir_000060_000001.html" target="_top" xlink:title="9">
<text text-anchor="middle" x="89.3393" y="-191.199" font-family="Helvetica,sans-Serif" font-size="10.00">9</text>
</a>
</g>
</g>
<!-- dir_4c7ee98193a6cba0af9aae7f963a60da -->
<g id="node3" class="node"><title>dir_4c7ee98193a6cba0af9aae7f963a60da</title>
<g id="a_node3"><a xlink:href="dir_4c7ee98193a6cba0af9aae7f963a60da.html" target="_top" xlink:title="Render">
<polygon fill="none" stroke="black" points="84,-108 30,-108 30,-72 84,-72 84,-108"/>
<text text-anchor="middle" x="57" y="-87.5" font-family="Helvetica,sans-Serif" font-size="10.00">Render</text>
</a>
</g>
</g>
<!-- dir_6775ee646e45618c60c89dd53eb5c079&#45;&gt;dir_4c7ee98193a6cba0af9aae7f963a60da -->
<g id="edge4" class="edge"><title>dir_6775ee646e45618c60c89dd53eb5c079&#45;&gt;dir_4c7ee98193a6cba0af9aae7f963a60da</title>
<path fill="none" stroke="black" d="M61.29,-215.787C51.2405,-206.414 40.3587,-193.9 35,-180 27.1257,-159.575 34.0616,-135.409 42.1674,-117.417"/>
<polygon fill="black" stroke="black" points="45.4644,-118.641 46.7044,-108.119 39.1734,-115.571 45.4644,-118.641"/>
<g id="a_edge4&#45;headlabel"><a xlink:href="dir_000060_000045.html" target="_top" xlink:title="1">
<text text-anchor="middle" x="46.4398" y="-120.617" font-family="Helvetica,sans-Serif" font-size="10.00">1</text>
</a>
</g>
</g>
<!-- dir_6bd92bd93c0d5d9980919215b46f20a3 -->
<g id="node4" class="node"><title>dir_6bd92bd93c0d5d9980919215b46f20a3</title>
<g id="a_node4"><a xlink:href="dir_6bd92bd93c0d5d9980919215b46f20a3.html" target="_top" xlink:title="Exceptions">
<polygon fill="none" stroke="black" points="146,-36 78,-36 78,-0 146,-0 146,-36"/>
<text text-anchor="middle" x="112" y="-15.5" font-family="Helvetica,sans-Serif" font-size="10.00">Exceptions</text>
</a>
</g>
</g>
<!-- dir_6775ee646e45618c60c89dd53eb5c079&#45;&gt;dir_6bd92bd93c0d5d9980919215b46f20a3 -->
<g id="edge5" class="edge"><title>dir_6775ee646e45618c60c89dd53eb5c079&#45;&gt;dir_6bd92bd93c0d5d9980919215b46f20a3</title>
<path fill="none" stroke="black" d="M104.71,-215.787C114.759,-206.414 125.641,-193.9 131,-180 148.266,-135.213 134.095,-78.647 122.71,-45.8722"/>
<polygon fill="black" stroke="black" points="125.866,-44.3103 119.155,-36.1122 119.289,-46.7062 125.866,-44.3103"/>
<g id="a_edge5&#45;headlabel"><a xlink:href="dir_000060_000038.html" target="_top" xlink:title="1">
<text text-anchor="middle" x="129.764" y="-44.2161" font-family="Helvetica,sans-Serif" font-size="10.00">1</text>
</a>
</g>
</g>
<!-- dir_c610c8504d46288da7634b3c0b18263f&#45;&gt;dir_4c7ee98193a6cba0af9aae7f963a60da -->
<g id="edge1" class="edge"><title>dir_c610c8504d46288da7634b3c0b18263f&#45;&gt;dir_4c7ee98193a6cba0af9aae7f963a60da</title>
<path fill="none" stroke="black" d="M70.6573,-143.697C66.9562,-135.898 63.246,-126.509 60.3813,-117.829"/>
<polygon fill="black" stroke="black" points="63.6887,-116.673 57.458,-108.104 56.985,-118.689 63.6887,-116.673"/>
<g id="a_edge1&#45;headlabel"><a xlink:href="dir_000001_000045.html" target="_top" xlink:title="3">
<text text-anchor="middle" x="67.4425" y="-116.799" font-family="Helvetica,sans-Serif" font-size="10.00">3</text>
</a>
</g>
</g>
<!-- dir_c610c8504d46288da7634b3c0b18263f&#45;&gt;dir_6bd92bd93c0d5d9980919215b46f20a3 -->
<g id="edge2" class="edge"><title>dir_c610c8504d46288da7634b3c0b18263f&#45;&gt;dir_6bd92bd93c0d5d9980919215b46f20a3</title>
<path fill="none" stroke="black" d="M86.4981,-143.871C91.4624,-119.564 100.6,-74.8187 106.483,-46.0132"/>
<polygon fill="black" stroke="black" points="109.918,-46.6874 108.49,-36.1893 103.059,-45.2867 109.918,-46.6874"/>
<g id="a_edge2&#45;headlabel"><a xlink:href="dir_000001_000038.html" target="_top" xlink:title="1">
<text text-anchor="middle" x="111.98" y="-48.2774" font-family="Helvetica,sans-Serif" font-size="10.00">1</text>
</a>
</g>
</g>
<!-- dir_4c7ee98193a6cba0af9aae7f963a60da&#45;&gt;dir_c610c8504d46288da7634b3c0b18263f -->
<g id="edge6" class="edge"><title>dir_4c7ee98193a6cba0af9aae7f963a60da&#45;&gt;dir_c610c8504d46288da7634b3c0b18263f</title>
<path fill="none" stroke="black" d="M69.2481,-108.104C72.9489,-115.876 76.6662,-125.257 79.5452,-133.949"/>
<polygon fill="black" stroke="black" points="76.2474,-135.135 82.4888,-143.697 82.9485,-133.112 76.2474,-135.135"/>
<g id="a_edge6&#45;headlabel"><a xlink:href="dir_000045_000001.html" target="_top" xlink:title="5">
<text text-anchor="middle" x="72.4903" y="-130.015" font-family="Helvetica,sans-Serif" font-size="10.00">5</text>
</a>
</g>
</g>
<!-- dir_4c7ee98193a6cba0af9aae7f963a60da&#45;&gt;dir_6bd92bd93c0d5d9980919215b46f20a3 -->
<g id="edge7" class="edge"><title>dir_4c7ee98193a6cba0af9aae7f963a60da&#45;&gt;dir_6bd92bd93c0d5d9980919215b46f20a3</title>
<path fill="none" stroke="black" d="M70.5955,-71.6966C77.1227,-63.3893 85.068,-53.2771 92.2466,-44.1407"/>
<polygon fill="black" stroke="black" points="95.1347,-46.1299 98.5609,-36.1043 89.6305,-41.8051 95.1347,-46.1299"/>
<g id="a_edge7&#45;headlabel"><a xlink:href="dir_000045_000038.html" target="_top" xlink:title="1">
<text text-anchor="middle" x="95.1465" y="-48.2106" font-family="Helvetica,sans-Serif" font-size="10.00">1</text>
</a>
</g>
</g>
</g>
</svg>
