<?xml version="1.0" encoding="UTF-8" standalone="no"?>
<!DOCTYPE svg PUBLIC "-//W3C//DTD SVG 1.1//EN"
 "http://www.w3.org/Graphics/SVG/1.1/DTD/svg11.dtd">
<!-- Generated by graphviz version 2.38.0 (20140413.2041)
 -->
<!-- Title: src/Systems/SystemConstructor/DisplaySystem/DisplaySystem.hpp Pages: 1 -->
<!--zoomable 106 -->
<svg id="main" version="1.1" xmlns="http://www.w3.org/2000/svg" xmlns:xlink="http://www.w3.org/1999/xlink" xml:space="preserve" onload="init(evt)">
<style type="text/css"><![CDATA[
.edge:hover path { stroke: red; }
.edge:hover polygon { stroke: red; fill: red; }
]]></style>
<script type="text/javascript"><![CDATA[
var edges = document.getElementsByTagName('g');
if (edges && edges.length) {
  for (var i=0;i<edges.length;i++) {
    if (edges[i].id.substr(0,4)=='edge') {
      edges[i].setAttribute('class','edge');
    }
  }
}
]]></script>
        <defs>
                <circle id="rim" cx="0" cy="0" r="7"/>
                <circle id="rim2" cx="0" cy="0" r="3.5"/>
                <g id="zoomPlus">
                        <use xlink:href="#rim" fill="#404040">
                                <set attributeName="fill" to="#808080" begin="zoomplus.mouseover" end="zoomplus.mouseout"/>
                        </use>
                        <path d="M-4,0h8M0,-4v8" fill="none" stroke="white" stroke-width="1.5" pointer-events="none"/>
                </g>
                <g id="zoomMin">
                        <use xlink:href="#rim" fill="#404040">
                                <set attributeName="fill" to="#808080" begin="zoomminus.mouseover" end="zoomminus.mouseout"/>
                        </use>
                        <path d="M-4,0h8" fill="none" stroke="white" stroke-width="1.5" pointer-events="none"/>
                </g>
                <g id="dirArrow">
                        <path fill="none" stroke="white" stroke-width="1.5" d="M0,-3.0v7 M-2.5,-0.5L0,-3.0L2.5,-0.5"/>
                </g>
               <g id="resetDef">
                       <use xlink:href="#rim2" fill="#404040">
                               <set attributeName="fill" to="#808080" begin="reset.mouseover" end="reset.mouseout"/>
                       </use>
               </g>
        </defs>

<script type="text/javascript">
var viewWidth = 2094;
var viewHeight = 106;
var sectionId = 'dynsection-1';
</script>
<script xlink:href="svgpan.js"/>
<svg id="graph" class="graph">
<g id="viewport">
<title>src/Systems/SystemConstructor/DisplaySystem/DisplaySystem.hpp</title>
<!-- Node1 -->
<g id="node1" class="node"><title>Node1</title>
<polygon fill="#bfbfbf" stroke="black" points="834.5,-67.5 834.5,-97.5 1020.5,-97.5 1020.5,-67.5 834.5,-67.5"/>
<text text-anchor="start" x="842.5" y="-85.5" font-family="Helvetica,sans-Serif" font-size="10.00">src/Systems/SystemConstructor</text>
<text text-anchor="middle" x="927.5" y="-74.5" font-family="Helvetica,sans-Serif" font-size="10.00">/DisplaySystem/DisplaySystem.hpp</text>
</g>
<!-- Node2 -->
<g id="node2" class="node"><title>Node2</title>
<g id="a_node2"><a xlink:href="Rtype_8cpp.html" target="_top" xlink:title="src/Rtype.cpp">
<polygon fill="none" stroke="black" points="0,-6 0,-25 81,-25 81,-6 0,-6"/>
<text text-anchor="middle" x="40.5" y="-13" font-family="Helvetica,sans-Serif" font-size="10.00">src/Rtype.cpp</text>
</a>
</g>
</g>
<!-- Node1&#45;&gt;Node2 -->
<g id="edge1" class="edge"><title>Node1&#45;&gt;Node2</title>
<path fill="none" stroke="midnightblue" d="M824.066,-78.2072C632.107,-71.6085 227.707,-55.2863 89.5,-31 81.5487,-29.6028 73.0587,-27.3667 65.4177,-25.0647"/>
<polygon fill="midnightblue" stroke="midnightblue" points="824.049,-81.7086 834.163,-78.5521 824.288,-74.7127 824.049,-81.7086"/>
</g>
<!-- Node3 -->
<g id="node3" class="node"><title>Node3</title>
<g id="a_node3"><a xlink:href="ChooseRoomScene_8cpp.html" target="_top" xlink:title="src/Scenes/ChooseRoomScene.cpp">
<polygon fill="none" stroke="black" points="99,-6 99,-25 284,-25 284,-6 99,-6"/>
<text text-anchor="middle" x="191.5" y="-13" font-family="Helvetica,sans-Serif" font-size="10.00">src/Scenes/ChooseRoomScene.cpp</text>
</a>
</g>
</g>
<!-- Node1&#45;&gt;Node3 -->
<g id="edge2" class="edge"><title>Node1&#45;&gt;Node3</title>
<path fill="none" stroke="midnightblue" d="M824.237,-75.3011C698.427,-67.2845 479.505,-51.8385 292.5,-31 277.535,-29.3324 261.373,-27.1737 246.459,-25.0338"/>
<polygon fill="midnightblue" stroke="midnightblue" points="824.049,-78.7961 834.251,-75.936 824.492,-71.8102 824.049,-78.7961"/>
</g>
<!-- Node4 -->
<g id="node4" class="node"><title>Node4</title>
<g id="a_node4"><a xlink:href="DefeatScene_8cpp.html" target="_top" xlink:title="src/Scenes/DefeatScene.cpp">
<polygon fill="none" stroke="black" points="302,-6 302,-25 457,-25 457,-6 302,-6"/>
<text text-anchor="middle" x="379.5" y="-13" font-family="Helvetica,sans-Serif" font-size="10.00">src/Scenes/DefeatScene.cpp</text>
</a>
</g>
</g>
<!-- Node1&#45;&gt;Node4 -->
<g id="edge3" class="edge"><title>Node1&#45;&gt;Node4</title>
<path fill="none" stroke="midnightblue" d="M824.126,-71.8478C730.561,-62.7143 589.049,-47.9111 466.5,-31 453.91,-29.2626 440.338,-27.1276 427.745,-25.0355"/>
<polygon fill="midnightblue" stroke="midnightblue" points="823.867,-75.3391 834.159,-72.8234 824.545,-68.372 823.867,-75.3391"/>
</g>
<!-- Node5 -->
<g id="node5" class="node"><title>Node5</title>
<g id="a_node5"><a xlink:href="GameScene_8cpp.html" target="_top" xlink:title="src/Scenes/GameScene.cpp">
<polygon fill="none" stroke="black" points="475.5,-6 475.5,-25 627.5,-25 627.5,-6 475.5,-6"/>
<text text-anchor="middle" x="551.5" y="-13" font-family="Helvetica,sans-Serif" font-size="10.00">src/Scenes/GameScene.cpp</text>
</a>
</g>
</g>
<!-- Node1&#45;&gt;Node5 -->
<g id="edge4" class="edge"><title>Node1&#45;&gt;Node5</title>
<path fill="none" stroke="midnightblue" d="M836.113,-65.7017C762.033,-52.8954 660.471,-35.3381 600.835,-25.0287"/>
<polygon fill="midnightblue" stroke="midnightblue" points="835.926,-69.2213 846.377,-67.476 837.119,-62.3236 835.926,-69.2213"/>
</g>
<!-- Node6 -->
<g id="node6" class="node"><title>Node6</title>
<g id="a_node6"><a xlink:href="MenuScene_8cpp.html" target="_top" xlink:title="src/Scenes/MenuScene.cpp">
<polygon fill="none" stroke="black" points="646,-6 646,-25 795,-25 795,-6 646,-6"/>
<text text-anchor="middle" x="720.5" y="-13" font-family="Helvetica,sans-Serif" font-size="10.00">src/Scenes/MenuScene.cpp</text>
</a>
</g>
</g>
<!-- Node1&#45;&gt;Node6 -->
<g id="edge5" class="edge"><title>Node1&#45;&gt;Node6</title>
<path fill="none" stroke="midnightblue" d="M873.138,-64.4298C832.771,-51.7542 779.418,-35.0008 747.661,-25.0287"/>
<polygon fill="midnightblue" stroke="midnightblue" points="872.25,-67.8193 882.839,-67.476 874.347,-61.1408 872.25,-67.8193"/>
</g>
<!-- Node7 -->
<g id="node7" class="node"><title>Node7</title>
<g id="a_node7"><a xlink:href="ButtonColorSystem_8cpp.html" target="_top" xlink:title="src/Systems/SystemConstructor\l/ButtonColorSystem/ButtonColorSystem.cpp">
<polygon fill="none" stroke="black" points="812.5,-0.5 812.5,-30.5 1042.5,-30.5 1042.5,-0.5 812.5,-0.5"/>
<text text-anchor="start" x="820.5" y="-18.5" font-family="Helvetica,sans-Serif" font-size="10.00">src/Systems/SystemConstructor</text>
<text text-anchor="middle" x="927.5" y="-7.5" font-family="Helvetica,sans-Serif" font-size="10.00">/ButtonColorSystem/ButtonColorSystem.cpp</text>
</a>
</g>
</g>
<!-- Node1&#45;&gt;Node7 -->
<g id="edge6" class="edge"><title>Node1&#45;&gt;Node7</title>
<path fill="none" stroke="midnightblue" d="M927.5,-57.1081C927.5,-48.1539 927.5,-38.3227 927.5,-30.5765"/>
<polygon fill="midnightblue" stroke="midnightblue" points="924,-57.3959 927.5,-67.396 931,-57.396 924,-57.3959"/>
</g>
<!-- Node8 -->
<g id="node8" class="node"><title>Node8</title>
<g id="a_node8"><a xlink:href="ChooseRoomSystem_8cpp.html" target="_top" xlink:title="src/Systems/SystemConstructor\l/ChooseRoomSystem/ChooseRoomSystem.cpp">
<polygon fill="none" stroke="black" points="1060.5,-0.5 1060.5,-30.5 1302.5,-30.5 1302.5,-0.5 1060.5,-0.5"/>
<text text-anchor="start" x="1068.5" y="-18.5" font-family="Helvetica,sans-Serif" font-size="10.00">src/Systems/SystemConstructor</text>
<text text-anchor="middle" x="1181.5" y="-7.5" font-family="Helvetica,sans-Serif" font-size="10.00">/ChooseRoomSystem/ChooseRoomSystem.cpp</text>
</a>
</g>
</g>
<!-- Node1&#45;&gt;Node8 -->
<g id="edge7" class="edge"><title>Node1&#45;&gt;Node8</title>
<path fill="none" stroke="midnightblue" d="M992.038,-64.9844C1033.53,-54.3674 1086.86,-40.7201 1126.36,-30.6109"/>
<polygon fill="midnightblue" stroke="midnightblue" points="991.122,-61.606 982.302,-67.476 992.857,-68.3875 991.122,-61.606"/>
</g>
<!-- Node9 -->
<g id="node9" class="node"><title>Node9</title>
<g id="a_node9"><a xlink:href="DefeatSystem_8cpp.html" target="_top" xlink:title="src/Systems/SystemConstructor\l/DefeatSystem/DefeatSystem.cpp">
<polygon fill="none" stroke="black" points="1321,-0.5 1321,-30.5 1502,-30.5 1502,-0.5 1321,-0.5"/>
<text text-anchor="start" x="1329" y="-18.5" font-family="Helvetica,sans-Serif" font-size="10.00">src/Systems/SystemConstructor</text>
<text text-anchor="middle" x="1411.5" y="-7.5" font-family="Helvetica,sans-Serif" font-size="10.00">/DefeatSystem/DefeatSystem.cpp</text>
</a>
</g>
</g>
<!-- Node1&#45;&gt;Node9 -->
<g id="edge8" class="edge"><title>Node1&#45;&gt;Node9</title>
<path fill="none" stroke="midnightblue" d="M1030.88,-68.2807C1108.21,-58.3022 1216.52,-44.1309 1311.5,-31 1314.54,-30.5796 1317.63,-30.1489 1320.76,-29.7113"/>
<polygon fill="midnightblue" stroke="midnightblue" points="1030.13,-64.8488 1020.66,-69.5989 1031.03,-71.7913 1030.13,-64.8488"/>
</g>
<!-- Node10 -->
<g id="node10" class="node"><title>Node10</title>
<g id="a_node10"><a xlink:href="DisplaySystem_8cpp.html" target="_top" xlink:title="src/Systems/SystemConstructor\l/DisplaySystem/DisplaySystem.cpp">
<polygon fill="none" stroke="black" points="1520,-0.5 1520,-30.5 1705,-30.5 1705,-0.5 1520,-0.5"/>
<text text-anchor="start" x="1528" y="-18.5" font-family="Helvetica,sans-Serif" font-size="10.00">src/Systems/SystemConstructor</text>
<text text-anchor="middle" x="1612.5" y="-7.5" font-family="Helvetica,sans-Serif" font-size="10.00">/DisplaySystem/DisplaySystem.cpp</text>
</a>
</g>
</g>
<!-- Node1&#45;&gt;Node10 -->
<g id="edge9" class="edge"><title>Node1&#45;&gt;Node10</title>
<path fill="none" stroke="midnightblue" d="M1030.73,-74.3397C1147.57,-65.825 1343.51,-50.3062 1511.5,-31 1514.23,-30.6865 1517,-30.3578 1519.79,-30.0169"/>
<polygon fill="midnightblue" stroke="midnightblue" points="1030.44,-70.8516 1020.72,-75.0663 1030.94,-77.8332 1030.44,-70.8516"/>
</g>
<!-- Node11 -->
<g id="node11" class="node"><title>Node11</title>
<g id="a_node11"><a xlink:href="MenuSystem_8cpp.html" target="_top" xlink:title="src/Systems/SystemConstructor\l/MenuSystem/MenuSystem.cpp">
<polygon fill="none" stroke="black" points="1723.5,-0.5 1723.5,-30.5 1895.5,-30.5 1895.5,-0.5 1723.5,-0.5"/>
<text text-anchor="start" x="1731.5" y="-18.5" font-family="Helvetica,sans-Serif" font-size="10.00">src/Systems/SystemConstructor</text>
<text text-anchor="middle" x="1809.5" y="-7.5" font-family="Helvetica,sans-Serif" font-size="10.00">/MenuSystem/MenuSystem.cpp</text>
</a>
</g>
</g>
<!-- Node1&#45;&gt;Node11 -->
<g id="edge10" class="edge"><title>Node1&#45;&gt;Node11</title>
<path fill="none" stroke="midnightblue" d="M1030.87,-77.7482C1181.55,-71.6268 1470.17,-57.4346 1714.5,-31 1717.4,-30.6859 1720.35,-30.3471 1723.33,-29.9882"/>
<polygon fill="midnightblue" stroke="midnightblue" points="1030.56,-74.2579 1020.71,-78.1574 1030.84,-81.2523 1030.56,-74.2579"/>
</g>
<!-- Node12 -->
<g id="node12" class="node"><title>Node12</title>
<g id="a_node12"><a xlink:href="testSystem_8cpp.html" target="_top" xlink:title="src/Systems/SystemConstructor\l/testSystem/testSystem.cpp">
<polygon fill="none" stroke="black" points="1913.5,-0.5 1913.5,-30.5 2085.5,-30.5 2085.5,-0.5 1913.5,-0.5"/>
<text text-anchor="start" x="1921.5" y="-18.5" font-family="Helvetica,sans-Serif" font-size="10.00">src/Systems/SystemConstructor</text>
<text text-anchor="middle" x="1999.5" y="-7.5" font-family="Helvetica,sans-Serif" font-size="10.00">/testSystem/testSystem.cpp</text>
</a>
</g>
</g>
<!-- Node1&#45;&gt;Node12 -->
<g id="edge11" class="edge"><title>Node1&#45;&gt;Node12</title>
<path fill="none" stroke="midnightblue" d="M1030.86,-79.5458C1209.43,-75.4132 1587.09,-63.3456 1904.5,-31 1907.4,-30.704 1910.36,-30.3807 1913.33,-30.0353"/>
<polygon fill="midnightblue" stroke="midnightblue" points="1030.6,-76.0506 1020.69,-79.7776 1030.76,-83.0488 1030.6,-76.0506"/>
</g>
</g>
</svg>
        <g id="navigator" transform="translate(0 0)" fill="#404254">
                <rect fill="#f2f5e9" fill-opacity="0.5" stroke="#606060" stroke-width=".5" x="0" y="0" width="60" height="60"/>
                <use id="zoomplus" xlink:href="#zoomPlus" x="17" y="9" onmousedown="handleZoom(evt,'in')"/>
                <use id="zoomminus" xlink:href="#zoomMin" x="42" y="9" onmousedown="handleZoom(evt,'out')"/>
                <use id="reset" xlink:href="#resetDef" x="30" y="36" onmousedown="handleReset()"/>
                <g id="arrowUp" xlink:href="#dirArrow" transform="translate(30 24)" onmousedown="handlePan(0,-1)">
                  <use xlink:href="#rim" fill="#404040">
                        <set attributeName="fill" to="#808080" begin="arrowUp.mouseover" end="arrowUp.mouseout"/>
                  </use>
                  <path fill="none" stroke="white" stroke-width="1.5" d="M0,-3.0v7 M-2.5,-0.5L0,-3.0L2.5,-0.5"/>
                </g>
                <g id="arrowRight" xlink:href="#dirArrow" transform="rotate(90) translate(36 -43)" onmousedown="handlePan(1,0)">
                  <use xlink:href="#rim" fill="#404040">
                        <set attributeName="fill" to="#808080" begin="arrowRight.mouseover" end="arrowRight.mouseout"/>
                  </use>
                  <path fill="none" stroke="white" stroke-width="1.5" d="M0,-3.0v7 M-2.5,-0.5L0,-3.0L2.5,-0.5"/>
                </g>
                <g id="arrowDown" xlink:href="#dirArrow" transform="rotate(180) translate(-30 -48)" onmousedown="handlePan(0,1)">
                  <use xlink:href="#rim" fill="#404040">
                        <set attributeName="fill" to="#808080" begin="arrowDown.mouseover" end="arrowDown.mouseout"/>
                  </use>
                  <path fill="none" stroke="white" stroke-width="1.5" d="M0,-3.0v7 M-2.5,-0.5L0,-3.0L2.5,-0.5"/>
                </g>
                <g id="arrowLeft" xlink:href="#dirArrow" transform="rotate(270) translate(-36 17)" onmousedown="handlePan(-1,0)">
                  <use xlink:href="#rim" fill="#404040">
                        <set attributeName="fill" to="#808080" begin="arrowLeft.mouseover" end="arrowLeft.mouseout"/>
                  </use>
                  <path fill="none" stroke="white" stroke-width="1.5" d="M0,-3.0v7 M-2.5,-0.5L0,-3.0L2.5,-0.5"/>
                </g>
        </g>
        <svg viewBox="0 0 15 15" width="100%" height="30px" preserveAspectRatio="xMaxYMin meet">
         <g id="arrow_out" transform="scale(0.3 0.3)">
          <a xlink:href="DisplaySystem_8hpp__dep__incl_org.svg" target="_base">
           <rect id="button" ry="5" rx="5" y="6" x="6" height="38" width="38"
                fill="#f2f5e9" fill-opacity="0.5" stroke="#606060" stroke-width="1.0"/>
           <path id="arrow"
             d="M 11.500037,31.436501 C 11.940474,20.09759 22.043105,11.32322 32.158766,21.979434 L 37.068811,17.246167 C 37.068811,17.246167 37.088388,32 37.088388,32 L 22.160133,31.978069 C 22.160133,31.978069 26.997745,27.140456 26.997745,27.140456 C 18.528582,18.264221 13.291696,25.230495 11.500037,31.436501 z"
             style="fill:#404040;"/>
          </a>
         </g>
        </svg>
</svg>
