<?xml version="1.0" encoding="UTF-8" standalone="no"?>
<!DOCTYPE svg PUBLIC "-//W3C//DTD SVG 1.1//EN"
 "http://www.w3.org/Graphics/SVG/1.1/DTD/svg11.dtd">
<!-- Generated by graphviz version 2.38.0 (20140413.2041)
 -->
<!-- Title: src/Exceptions/ECSExceptions.hpp Pages: 1 -->
<svg width="200pt" height="140pt"
 viewBox="0.00 0.00 199.50 140.00" xmlns="http://www.w3.org/2000/svg" xmlns:xlink="http://www.w3.org/1999/xlink">
<g id="graph0" class="graph" transform="scale(1 1) rotate(0) translate(4 136)">
<title>src/Exceptions/ECSExceptions.hpp</title>
<!-- Node1 -->
<g id="node1" class="node"><title>Node1</title>
<polygon fill="#bfbfbf" stroke="black" points="0,-112.5 0,-131.5 181,-131.5 181,-112.5 0,-112.5"/>
<text text-anchor="middle" x="90.5" y="-119.5" font-family="Helvetica,sans-Serif" font-size="10.00">src/Exceptions/ECSExceptions.hpp</text>
</g>
<!-- Node2 -->
<g id="node2" class="node"><title>Node2</title>
<polygon fill="none" stroke="#bfbfbf" points="68.5,-0.5 68.5,-19.5 112.5,-19.5 112.5,-0.5 68.5,-0.5"/>
<text text-anchor="middle" x="90.5" y="-7.5" font-family="Helvetica,sans-Serif" font-size="10.00">string</text>
</g>
<!-- Node1&#45;&gt;Node2 -->
<g id="edge1" class="edge"><title>Node1&#45;&gt;Node2</title>
<path fill="none" stroke="midnightblue" d="M84.1332,-112.232C78.2398,-103.532 69.893,-89.5719 66.5,-76 62.3211,-59.2842 70.3316,-40.9254 78.1997,-27.9951"/>
<polygon fill="midnightblue" stroke="midnightblue" points="81.1285,-29.9114 83.7273,-19.6403 75.2905,-26.049 81.1285,-29.9114"/>
</g>
<!-- Node3 -->
<g id="node3" class="node"><title>Node3</title>
<g id="a_node3"><a xlink:href="RTypeExceptions_8hpp.html" target="_top" xlink:title="RTypeExceptions.hpp">
<polygon fill="none" stroke="black" points="75.5,-56.5 75.5,-75.5 191.5,-75.5 191.5,-56.5 75.5,-56.5"/>
<text text-anchor="middle" x="133.5" y="-63.5" font-family="Helvetica,sans-Serif" font-size="10.00">RTypeExceptions.hpp</text>
</a>
</g>
</g>
<!-- Node1&#45;&gt;Node3 -->
<g id="edge2" class="edge"><title>Node1&#45;&gt;Node3</title>
<path fill="none" stroke="midnightblue" d="M97.6006,-112.083C103.737,-104.377 112.77,-93.0333 120.239,-83.6531"/>
<polygon fill="midnightblue" stroke="midnightblue" points="123.04,-85.7542 126.532,-75.7511 117.564,-81.3936 123.04,-85.7542"/>
</g>
<!-- Node3&#45;&gt;Node2 -->
<g id="edge3" class="edge"><title>Node3&#45;&gt;Node2</title>
<path fill="none" stroke="midnightblue" d="M126.399,-56.083C120.263,-48.3768 111.23,-37.0333 103.761,-27.6531"/>
<polygon fill="midnightblue" stroke="midnightblue" points="106.436,-25.3936 97.4685,-19.7511 100.96,-29.7542 106.436,-25.3936"/>
</g>
</g>
</svg>
