<?xml version="1.0" encoding="UTF-8" standalone="no"?>
<!DOCTYPE svg PUBLIC "-//W3C//DTD SVG 1.1//EN"
 "http://www.w3.org/Graphics/SVG/1.1/DTD/svg11.dtd">
<!-- Generated by graphviz version 2.38.0 (20140413.2041)
 -->
<!-- Title: src/Exceptions/ECSExceptions.hpp Pages: 1 -->
<!--zoomable 173 -->
<svg id="main" version="1.1" xmlns="http://www.w3.org/2000/svg" xmlns:xlink="http://www.w3.org/1999/xlink" xml:space="preserve" onload="init(evt)">
<style type="text/css"><![CDATA[
.edge:hover path { stroke: red; }
.edge:hover polygon { stroke: red; fill: red; }
]]></style>
<script type="text/javascript"><![CDATA[
var edges = document.getElementsByTagName('g');
if (edges && edges.length) {
  for (var i=0;i<edges.length;i++) {
    if (edges[i].id.substr(0,4)=='edge') {
      edges[i].setAttribute('class','edge');
    }
  }
}
]]></script>
        <defs>
                <circle id="rim" cx="0" cy="0" r="7"/>
                <circle id="rim2" cx="0" cy="0" r="3.5"/>
                <g id="zoomPlus">
                        <use xlink:href="#rim" fill="#404040">
                                <set attributeName="fill" to="#808080" begin="zoomplus.mouseover" end="zoomplus.mouseout"/>
                        </use>
                        <path d="M-4,0h8M0,-4v8" fill="none" stroke="white" stroke-width="1.5" pointer-events="none"/>
                </g>
                <g id="zoomMin">
                        <use xlink:href="#rim" fill="#404040">
                                <set attributeName="fill" to="#808080" begin="zoomminus.mouseover" end="zoomminus.mouseout"/>
                        </use>
                        <path d="M-4,0h8" fill="none" stroke="white" stroke-width="1.5" pointer-events="none"/>
                </g>
                <g id="dirArrow">
                        <path fill="none" stroke="white" stroke-width="1.5" d="M0,-3.0v7 M-2.5,-0.5L0,-3.0L2.5,-0.5"/>
                </g>
               <g id="resetDef">
                       <use xlink:href="#rim2" fill="#404040">
                               <set attributeName="fill" to="#808080" begin="reset.mouseover" end="reset.mouseout"/>
                       </use>
               </g>
        </defs>

<script type="text/javascript">
var viewWidth = 4119;
var viewHeight = 173;
var sectionId = 'dynsection-1';
</script>
<script xlink:href="svgpan.js"/>
<svg id="graph" class="graph">
<g id="viewport">
<title>src/Exceptions/ECSExceptions.hpp</title>
<!-- Node1 -->
<g id="node1" class="node"><title>Node1</title>
<polygon fill="#bfbfbf" stroke="black" points="3407,-145.5 3407,-164.5 3588,-164.5 3588,-145.5 3407,-145.5"/>
<text text-anchor="middle" x="3497.5" y="-152.5" font-family="Helvetica,sans-Serif" font-size="10.00">src/Exceptions/ECSExceptions.hpp</text>
</g>
<!-- Node2 -->
<g id="node2" class="node"><title>Node2</title>
<g id="a_node2"><a xlink:href="ComponentExceptions_8hpp.html" target="_top" xlink:title="src/Exceptions/Component\lExceptions.hpp">
<polygon fill="none" stroke="black" points="1718,-78.5 1718,-108.5 1863,-108.5 1863,-78.5 1718,-78.5"/>
<text text-anchor="start" x="1726" y="-96.5" font-family="Helvetica,sans-Serif" font-size="10.00">src/Exceptions/Component</text>
<text text-anchor="middle" x="1790.5" y="-85.5" font-family="Helvetica,sans-Serif" font-size="10.00">Exceptions.hpp</text>
</a>
</g>
</g>
<!-- Node1&#45;&gt;Node2 -->
<g id="edge1" class="edge"><title>Node1&#45;&gt;Node2</title>
<path fill="none" stroke="midnightblue" d="M3396.51,-150.48C3083.37,-139.565 2133.64,-106.461 1863.12,-97.0312"/>
<polygon fill="midnightblue" stroke="midnightblue" points="3396.81,-153.992 3406.93,-150.843 3397.06,-146.997 3396.81,-153.992"/>
</g>
<!-- Node16 -->
<g id="node16" class="node"><title>Node16</title>
<g id="a_node16"><a xlink:href="ECSExceptions_8cpp.html" target="_top" xlink:title="src/Exceptions/ECSExceptions.cpp">
<polygon fill="none" stroke="black" points="3239.5,-84 3239.5,-103 3419.5,-103 3419.5,-84 3239.5,-84"/>
<text text-anchor="middle" x="3329.5" y="-91" font-family="Helvetica,sans-Serif" font-size="10.00">src/Exceptions/ECSExceptions.cpp</text>
</a>
</g>
</g>
<!-- Node1&#45;&gt;Node16 -->
<g id="edge15" class="edge"><title>Node1&#45;&gt;Node16</title>
<path fill="none" stroke="midnightblue" d="M3463.85,-142.083C3431.2,-130.517 3382.45,-113.252 3353.53,-103.009"/>
<polygon fill="midnightblue" stroke="midnightblue" points="3462.83,-145.436 3473.43,-145.475 3465.17,-138.837 3462.83,-145.436"/>
</g>
<!-- Node17 -->
<g id="node17" class="node"><title>Node17</title>
<g id="a_node17"><a xlink:href="EntityExceptions_8hpp.html" target="_top" xlink:title="src/Exceptions/EntityExceptions.hpp">
<polygon fill="none" stroke="black" points="225.5,-84 225.5,-103 413.5,-103 413.5,-84 225.5,-84"/>
<text text-anchor="middle" x="319.5" y="-91" font-family="Helvetica,sans-Serif" font-size="10.00">src/Exceptions/EntityExceptions.hpp</text>
</a>
</g>
</g>
<!-- Node1&#45;&gt;Node17 -->
<g id="edge16" class="edge"><title>Node1&#45;&gt;Node17</title>
<path fill="none" stroke="midnightblue" d="M3396.66,-152.112C2917.8,-143.147 877.421,-104.946 413.575,-96.2613"/>
<polygon fill="midnightblue" stroke="midnightblue" points="3396.6,-155.611 3406.66,-152.299 3396.73,-148.613 3396.6,-155.611"/>
</g>
<!-- Node20 -->
<g id="node20" class="node"><title>Node20</title>
<g id="a_node20"><a xlink:href="SystemExceptions_8hpp.html" target="_top" xlink:title="src/Exceptions/SystemExceptions.hpp">
<polygon fill="none" stroke="black" points="3023.5,-84 3023.5,-103 3221.5,-103 3221.5,-84 3023.5,-84"/>
<text text-anchor="middle" x="3122.5" y="-91" font-family="Helvetica,sans-Serif" font-size="10.00">src/Exceptions/SystemExceptions.hpp</text>
</a>
</g>
</g>
<!-- Node1&#45;&gt;Node20 -->
<g id="edge20" class="edge"><title>Node1&#45;&gt;Node20</title>
<path fill="none" stroke="midnightblue" d="M3433.85,-143.901C3361.35,-132.398 3244.17,-113.804 3176.13,-103.009"/>
<polygon fill="midnightblue" stroke="midnightblue" points="3433.35,-147.365 3443.77,-145.475 3434.44,-140.451 3433.35,-147.365"/>
</g>
<!-- Node24 -->
<g id="node24" class="node"><title>Node24</title>
<g id="a_node24"><a xlink:href="Font_8cpp.html" target="_top" xlink:title="src/ResourceManager\l/Font.cpp">
<polygon fill="none" stroke="black" points="3438,-78.5 3438,-108.5 3557,-108.5 3557,-78.5 3438,-78.5"/>
<text text-anchor="start" x="3446" y="-96.5" font-family="Helvetica,sans-Serif" font-size="10.00">src/ResourceManager</text>
<text text-anchor="middle" x="3497.5" y="-85.5" font-family="Helvetica,sans-Serif" font-size="10.00">/Font.cpp</text>
</a>
</g>
</g>
<!-- Node1&#45;&gt;Node24 -->
<g id="edge25" class="edge"><title>Node1&#45;&gt;Node24</title>
<path fill="none" stroke="midnightblue" d="M3497.5,-135.235C3497.5,-126.586 3497.5,-116.497 3497.5,-108.523"/>
<polygon fill="midnightblue" stroke="midnightblue" points="3494,-135.475 3497.5,-145.475 3501,-135.475 3494,-135.475"/>
</g>
<!-- Node25 -->
<g id="node25" class="node"><title>Node25</title>
<g id="a_node25"><a xlink:href="Music_8cpp.html" target="_top" xlink:title="src/ResourceManager\l/Music.cpp">
<polygon fill="none" stroke="black" points="3575,-78.5 3575,-108.5 3694,-108.5 3694,-78.5 3575,-78.5"/>
<text text-anchor="start" x="3583" y="-96.5" font-family="Helvetica,sans-Serif" font-size="10.00">src/ResourceManager</text>
<text text-anchor="middle" x="3634.5" y="-85.5" font-family="Helvetica,sans-Serif" font-size="10.00">/Music.cpp</text>
</a>
</g>
</g>
<!-- Node1&#45;&gt;Node25 -->
<g id="edge26" class="edge"><title>Node1&#45;&gt;Node25</title>
<path fill="none" stroke="midnightblue" d="M3526.37,-141.461C3548.56,-131.823 3579.21,-118.513 3602.21,-108.523"/>
<polygon fill="midnightblue" stroke="midnightblue" points="3524.91,-138.281 3517.13,-145.475 3527.7,-144.702 3524.91,-138.281"/>
</g>
<!-- Node26 -->
<g id="node26" class="node"><title>Node26</title>
<g id="a_node26"><a xlink:href="ResourceManager_8cpp.html" target="_top" xlink:title="src/ResourceManager\l/ResourceManager.cpp">
<polygon fill="none" stroke="black" points="3712,-78.5 3712,-108.5 3837,-108.5 3837,-78.5 3712,-78.5"/>
<text text-anchor="start" x="3720" y="-96.5" font-family="Helvetica,sans-Serif" font-size="10.00">src/ResourceManager</text>
<text text-anchor="middle" x="3774.5" y="-85.5" font-family="Helvetica,sans-Serif" font-size="10.00">/ResourceManager.cpp</text>
</a>
</g>
</g>
<!-- Node1&#45;&gt;Node26 -->
<g id="edge27" class="edge"><title>Node1&#45;&gt;Node26</title>
<path fill="none" stroke="midnightblue" d="M3547.24,-143.317C3593.32,-133.418 3662.06,-118.652 3711.87,-107.953"/>
<polygon fill="midnightblue" stroke="midnightblue" points="3546.23,-139.953 3537.19,-145.475 3547.7,-146.797 3546.23,-139.953"/>
</g>
<!-- Node27 -->
<g id="node27" class="node"><title>Node27</title>
<g id="a_node27"><a xlink:href="ResourceManager_2Sound_8cpp.html" target="_top" xlink:title="src/ResourceManager\l/Sound.cpp">
<polygon fill="none" stroke="black" points="3855,-78.5 3855,-108.5 3974,-108.5 3974,-78.5 3855,-78.5"/>
<text text-anchor="start" x="3863" y="-96.5" font-family="Helvetica,sans-Serif" font-size="10.00">src/ResourceManager</text>
<text text-anchor="middle" x="3914.5" y="-85.5" font-family="Helvetica,sans-Serif" font-size="10.00">/Sound.cpp</text>
</a>
</g>
</g>
<!-- Node1&#45;&gt;Node27 -->
<g id="edge28" class="edge"><title>Node1&#45;&gt;Node27</title>
<path fill="none" stroke="midnightblue" d="M3588.37,-144.347C3658.99,-136.348 3759.26,-123.901 3846.5,-109 3849.24,-108.533 3852.03,-108.032 3854.85,-107.508"/>
<polygon fill="midnightblue" stroke="midnightblue" points="3587.72,-140.898 3578.18,-145.494 3588.51,-147.854 3587.72,-140.898"/>
</g>
<!-- Node28 -->
<g id="node28" class="node"><title>Node28</title>
<g id="a_node28"><a xlink:href="Texture_8cpp.html" target="_top" xlink:title="src/ResourceManager\l/Texture.cpp">
<polygon fill="none" stroke="black" points="3992,-78.5 3992,-108.5 4111,-108.5 4111,-78.5 3992,-78.5"/>
<text text-anchor="start" x="4000" y="-96.5" font-family="Helvetica,sans-Serif" font-size="10.00">src/ResourceManager</text>
<text text-anchor="middle" x="4051.5" y="-85.5" font-family="Helvetica,sans-Serif" font-size="10.00">/Texture.cpp</text>
</a>
</g>
</g>
<!-- Node1&#45;&gt;Node28 -->
<g id="edge29" class="edge"><title>Node1&#45;&gt;Node28</title>
<path fill="none" stroke="midnightblue" d="M3598.61,-148.121C3697.21,-141.568 3851.22,-129.156 3983.5,-109 3986.24,-108.582 3989.04,-108.122 3991.87,-107.631"/>
<polygon fill="midnightblue" stroke="midnightblue" points="3598.1,-144.646 3588.36,-148.794 3598.56,-151.631 3598.1,-144.646"/>
</g>
<!-- Node3 -->
<g id="node3" class="node"><title>Node3</title>
<g id="a_node3"><a xlink:href="ComponentManager_8cpp.html" target="_top" xlink:title="src/Components/Component\lManager/ComponentManager.cpp">
<polygon fill="none" stroke="black" points="499,-6 499,-36 678,-36 678,-6 499,-6"/>
<text text-anchor="start" x="507" y="-24" font-family="Helvetica,sans-Serif" font-size="10.00">src/Components/Component</text>
<text text-anchor="middle" x="588.5" y="-13" font-family="Helvetica,sans-Serif" font-size="10.00">Manager/ComponentManager.cpp</text>
</a>
</g>
</g>
<!-- Node2&#45;&gt;Node3 -->
<g id="edge2" class="edge"><title>Node2&#45;&gt;Node3</title>
<path fill="none" stroke="midnightblue" d="M1707.68,-93.0989C1523.41,-93.473 1065.85,-89.0949 686.5,-42 674.524,-40.5132 661.827,-38.3596 649.684,-36.0108"/>
<polygon fill="midnightblue" stroke="midnightblue" points="1707.84,-96.5986 1717.84,-93.0729 1707.83,-89.5987 1707.84,-96.5986"/>
</g>
<!-- Node4 -->
<g id="node4" class="node"><title>Node4</title>
<g id="a_node4"><a xlink:href="EntityManager_8cpp.html" target="_top" xlink:title="src/Entities/EntityManager\l/EntityManager.cpp">
<polygon fill="none" stroke="black" points="340,-6 340,-36 481,-36 481,-6 340,-6"/>
<text text-anchor="start" x="348" y="-24" font-family="Helvetica,sans-Serif" font-size="10.00">src/Entities/EntityManager</text>
<text text-anchor="middle" x="410.5" y="-13" font-family="Helvetica,sans-Serif" font-size="10.00">/EntityManager.cpp</text>
</a>
</g>
</g>
<!-- Node2&#45;&gt;Node4 -->
<g id="edge3" class="edge"><title>Node2&#45;&gt;Node4</title>
<path fill="none" stroke="midnightblue" d="M1707.92,-91.5519C1460.23,-88.3511 726.158,-76.1655 489.5,-42 479.698,-40.5849 469.35,-38.4484 459.487,-36.0907"/>
<polygon fill="midnightblue" stroke="midnightblue" points="1707.89,-95.0517 1717.93,-91.6798 1707.98,-88.0523 1707.89,-95.0517"/>
</g>
<!-- Node5 -->
<g id="node5" class="node"><title>Node5</title>
<g id="a_node5"><a xlink:href="ComponentExceptions_8cpp.html" target="_top" xlink:title="src/Exceptions/Component\lExceptions.cpp">
<polygon fill="none" stroke="black" points="696,-6 696,-36 841,-36 841,-6 696,-6"/>
<text text-anchor="start" x="704" y="-24" font-family="Helvetica,sans-Serif" font-size="10.00">src/Exceptions/Component</text>
<text text-anchor="middle" x="768.5" y="-13" font-family="Helvetica,sans-Serif" font-size="10.00">Exceptions.cpp</text>
</a>
</g>
</g>
<!-- Node2&#45;&gt;Node5 -->
<g id="edge4" class="edge"><title>Node2&#45;&gt;Node5</title>
<path fill="none" stroke="midnightblue" d="M1707.77,-93.1888C1543.45,-93.428 1164.66,-88.3404 850.5,-42 840.497,-40.5245 829.93,-38.3915 819.828,-36.0625"/>
<polygon fill="midnightblue" stroke="midnightblue" points="1707.82,-96.6889 1717.81,-93.1671 1707.8,-89.6889 1707.82,-96.6889"/>
</g>
<!-- Node6 -->
<g id="node6" class="node"><title>Node6</title>
<g id="a_node6"><a xlink:href="AnimationSystem_8cpp.html" target="_top" xlink:title="src/Systems/SystemConstructor\l/AnimationSystem/AnimationSystem.cpp">
<polygon fill="none" stroke="black" points="859.5,-6 859.5,-36 1073.5,-36 1073.5,-6 859.5,-6"/>
<text text-anchor="start" x="867.5" y="-24" font-family="Helvetica,sans-Serif" font-size="10.00">src/Systems/SystemConstructor</text>
<text text-anchor="middle" x="966.5" y="-13" font-family="Helvetica,sans-Serif" font-size="10.00">/AnimationSystem/AnimationSystem.cpp</text>
</a>
</g>
</g>
<!-- Node2&#45;&gt;Node6 -->
<g id="edge5" class="edge"><title>Node2&#45;&gt;Node6</title>
<path fill="none" stroke="midnightblue" d="M1707.84,-89.2752C1575.45,-83.5105 1307.83,-69.3922 1082.5,-42 1069.11,-40.3723 1054.92,-38.2546 1041.22,-36.0077"/>
<polygon fill="midnightblue" stroke="midnightblue" points="1707.77,-92.7752 1717.91,-89.7088 1708.07,-85.7817 1707.77,-92.7752"/>
</g>
<!-- Node7 -->
<g id="node7" class="node"><title>Node7</title>
<g id="a_node7"><a xlink:href="ButtonColorSystem_8cpp.html" target="_top" xlink:title="src/Systems/SystemConstructor\l/ButtonColorSystem/ButtonColorSystem.cpp">
<polygon fill="none" stroke="black" points="1091.5,-6 1091.5,-36 1321.5,-36 1321.5,-6 1091.5,-6"/>
<text text-anchor="start" x="1099.5" y="-24" font-family="Helvetica,sans-Serif" font-size="10.00">src/Systems/SystemConstructor</text>
<text text-anchor="middle" x="1206.5" y="-13" font-family="Helvetica,sans-Serif" font-size="10.00">/ButtonColorSystem/ButtonColorSystem.cpp</text>
</a>
</g>
</g>
<!-- Node2&#45;&gt;Node7 -->
<g id="edge6" class="edge"><title>Node2&#45;&gt;Node7</title>
<path fill="none" stroke="midnightblue" d="M1707.75,-84.6877C1615.55,-75.6866 1462.1,-59.8256 1330.5,-42 1317.32,-40.2146 1303.38,-38.1445 1289.79,-36.0268"/>
<polygon fill="midnightblue" stroke="midnightblue" points="1707.57,-88.1862 1717.86,-85.6708 1708.25,-81.2191 1707.57,-88.1862"/>
</g>
<!-- Node8 -->
<g id="node8" class="node"><title>Node8</title>
<g id="a_node8"><a xlink:href="ChooseRoomSystem_8cpp.html" target="_top" xlink:title="src/Systems/SystemConstructor\l/ChooseRoomSystem/ChooseRoomSystem.cpp">
<polygon fill="none" stroke="black" points="1339.5,-6 1339.5,-36 1581.5,-36 1581.5,-6 1339.5,-6"/>
<text text-anchor="start" x="1347.5" y="-24" font-family="Helvetica,sans-Serif" font-size="10.00">src/Systems/SystemConstructor</text>
<text text-anchor="middle" x="1460.5" y="-13" font-family="Helvetica,sans-Serif" font-size="10.00">/ChooseRoomSystem/ChooseRoomSystem.cpp</text>
</a>
</g>
</g>
<!-- Node2&#45;&gt;Node8 -->
<g id="edge7" class="edge"><title>Node2&#45;&gt;Node8</title>
<path fill="none" stroke="midnightblue" d="M1714.88,-76.3448C1657.93,-64.1789 1580.64,-47.6667 1526.25,-36.0465"/>
<polygon fill="midnightblue" stroke="midnightblue" points="1714.4,-79.8206 1724.91,-78.4872 1715.86,-72.9751 1714.4,-79.8206"/>
</g>
<!-- Node9 -->
<g id="node9" class="node"><title>Node9</title>
<g id="a_node9"><a xlink:href="DefeatSystem_8cpp.html" target="_top" xlink:title="src/Systems/SystemConstructor\l/DefeatSystem/DefeatSystem.cpp">
<polygon fill="none" stroke="black" points="1600,-6 1600,-36 1781,-36 1781,-6 1600,-6"/>
<text text-anchor="start" x="1608" y="-24" font-family="Helvetica,sans-Serif" font-size="10.00">src/Systems/SystemConstructor</text>
<text text-anchor="middle" x="1690.5" y="-13" font-family="Helvetica,sans-Serif" font-size="10.00">/DefeatSystem/DefeatSystem.cpp</text>
</a>
</g>
</g>
<!-- Node2&#45;&gt;Node9 -->
<g id="edge8" class="edge"><title>Node2&#45;&gt;Node9</title>
<path fill="none" stroke="midnightblue" d="M1762.03,-72.4311C1745.52,-60.7922 1725.14,-46.4238 1710.37,-36.0049"/>
<polygon fill="midnightblue" stroke="midnightblue" points="1760.07,-75.3318 1770.26,-78.2333 1764.11,-69.6106 1760.07,-75.3318"/>
</g>
<!-- Node10 -->
<g id="node10" class="node"><title>Node10</title>
<g id="a_node10"><a xlink:href="DisplaySystem_8cpp.html" target="_top" xlink:title="src/Systems/SystemConstructor\l/DisplaySystem/DisplaySystem.cpp">
<polygon fill="none" stroke="black" points="1799,-6 1799,-36 1984,-36 1984,-6 1799,-6"/>
<text text-anchor="start" x="1807" y="-24" font-family="Helvetica,sans-Serif" font-size="10.00">src/Systems/SystemConstructor</text>
<text text-anchor="middle" x="1891.5" y="-13" font-family="Helvetica,sans-Serif" font-size="10.00">/DisplaySystem/DisplaySystem.cpp</text>
</a>
</g>
</g>
<!-- Node2&#45;&gt;Node10 -->
<g id="edge9" class="edge"><title>Node2&#45;&gt;Node10</title>
<path fill="none" stroke="midnightblue" d="M1819.25,-72.4311C1835.93,-60.7922 1856.51,-46.4238 1871.44,-36.0049"/>
<polygon fill="midnightblue" stroke="midnightblue" points="1817.14,-69.6395 1810.94,-78.2333 1821.14,-75.3795 1817.14,-69.6395"/>
</g>
<!-- Node11 -->
<g id="node11" class="node"><title>Node11</title>
<g id="a_node11"><a xlink:href="EnemiesMovementSystem_8cpp.html" target="_top" xlink:title="src/Systems/SystemConstructor\l/EnemiesMovementSystem/EnemiesMovement\lSystem.cpp">
<polygon fill="none" stroke="black" points="2002.5,-0.5 2002.5,-41.5 2246.5,-41.5 2246.5,-0.5 2002.5,-0.5"/>
<text text-anchor="start" x="2010.5" y="-29.5" font-family="Helvetica,sans-Serif" font-size="10.00">src/Systems/SystemConstructor</text>
<text text-anchor="start" x="2010.5" y="-18.5" font-family="Helvetica,sans-Serif" font-size="10.00">/EnemiesMovementSystem/EnemiesMovement</text>
<text text-anchor="middle" x="2124.5" y="-7.5" font-family="Helvetica,sans-Serif" font-size="10.00">System.cpp</text>
</a>
</g>
</g>
<!-- Node2&#45;&gt;Node11 -->
<g id="edge10" class="edge"><title>Node2&#45;&gt;Node11</title>
<path fill="none" stroke="midnightblue" d="M1866.81,-76.3924C1915.91,-66.0295 1980.01,-52.4987 2032,-41.5251"/>
<polygon fill="midnightblue" stroke="midnightblue" points="1865.95,-72.9973 1856.89,-78.4872 1867.39,-79.8464 1865.95,-72.9973"/>
</g>
<!-- Node12 -->
<g id="node12" class="node"><title>Node12</title>
<g id="a_node12"><a xlink:href="MenuSystem_8cpp.html" target="_top" xlink:title="src/Systems/SystemConstructor\l/MenuSystem/MenuSystem.cpp">
<polygon fill="none" stroke="black" points="2264.5,-6 2264.5,-36 2436.5,-36 2436.5,-6 2264.5,-6"/>
<text text-anchor="start" x="2272.5" y="-24" font-family="Helvetica,sans-Serif" font-size="10.00">src/Systems/SystemConstructor</text>
<text text-anchor="middle" x="2350.5" y="-13" font-family="Helvetica,sans-Serif" font-size="10.00">/MenuSystem/MenuSystem.cpp</text>
</a>
</g>
</g>
<!-- Node2&#45;&gt;Node12 -->
<g id="edge11" class="edge"><title>Node2&#45;&gt;Node12</title>
<path fill="none" stroke="midnightblue" d="M1873.51,-85.9894C1966.78,-78.0929 2122.55,-63.1605 2255.5,-42 2266.15,-40.3045 2277.42,-38.2067 2288.32,-36.0138"/>
<polygon fill="midnightblue" stroke="midnightblue" points="1872.96,-82.5232 1863.29,-86.8478 1873.54,-89.4986 1872.96,-82.5232"/>
</g>
<!-- Node13 -->
<g id="node13" class="node"><title>Node13</title>
<g id="a_node13"><a xlink:href="MovementSystem_8cpp.html" target="_top" xlink:title="src/Systems/SystemConstructor\l/MovementSystem/MovementSystem.cpp">
<polygon fill="none" stroke="black" points="2900.5,-6 2900.5,-36 3118.5,-36 3118.5,-6 2900.5,-6"/>
<text text-anchor="start" x="2908.5" y="-24" font-family="Helvetica,sans-Serif" font-size="10.00">src/Systems/SystemConstructor</text>
<text text-anchor="middle" x="3009.5" y="-13" font-family="Helvetica,sans-Serif" font-size="10.00">/MovementSystem/MovementSystem.cpp</text>
</a>
</g>
</g>
<!-- Node2&#45;&gt;Node13 -->
<g id="edge12" class="edge"><title>Node2&#45;&gt;Node13</title>
<path fill="none" stroke="midnightblue" d="M1873.33,-92.1473C2057.1,-90.6105 2512.68,-82.6375 2891.5,-42 2905.65,-40.4819 2920.68,-38.3442 2935.1,-36.0273"/>
<polygon fill="midnightblue" stroke="midnightblue" points="1873.17,-88.6483 1863.2,-92.2277 1873.22,-95.6481 1873.17,-88.6483"/>
</g>
<!-- Node14 -->
<g id="node14" class="node"><title>Node14</title>
<g id="a_node14"><a xlink:href="ParallaxSystem_8cpp.html" target="_top" xlink:title="src/Systems/SystemConstructor\l/ParallaxSystem/ParallaxSystem.cpp">
<polygon fill="none" stroke="black" points="2454.5,-6 2454.5,-36 2644.5,-36 2644.5,-6 2454.5,-6"/>
<text text-anchor="start" x="2462.5" y="-24" font-family="Helvetica,sans-Serif" font-size="10.00">src/Systems/SystemConstructor</text>
<text text-anchor="middle" x="2549.5" y="-13" font-family="Helvetica,sans-Serif" font-size="10.00">/ParallaxSystem/ParallaxSystem.cpp</text>
</a>
</g>
</g>
<!-- Node2&#45;&gt;Node14 -->
<g id="edge13" class="edge"><title>Node2&#45;&gt;Node14</title>
<path fill="none" stroke="midnightblue" d="M1873.71,-89.1016C1998.42,-83.3276 2241,-69.4577 2445.5,-42 2457.53,-40.3852 2470.27,-38.2736 2482.55,-36.0289"/>
<polygon fill="midnightblue" stroke="midnightblue" points="1873.31,-85.6164 1863.48,-89.5695 1873.63,-92.6091 1873.31,-85.6164"/>
</g>
<!-- Node15 -->
<g id="node15" class="node"><title>Node15</title>
<g id="a_node15"><a xlink:href="PlayerMovementSystem_8cpp.html" target="_top" xlink:title="src/Systems/SystemConstructor\l/PlayerMovementSystem/PlayerMovement\lSystem.cpp">
<polygon fill="none" stroke="black" points="2662.5,-0.5 2662.5,-41.5 2882.5,-41.5 2882.5,-0.5 2662.5,-0.5"/>
<text text-anchor="start" x="2670.5" y="-29.5" font-family="Helvetica,sans-Serif" font-size="10.00">src/Systems/SystemConstructor</text>
<text text-anchor="start" x="2670.5" y="-18.5" font-family="Helvetica,sans-Serif" font-size="10.00">/PlayerMovementSystem/PlayerMovement</text>
<text text-anchor="middle" x="2772.5" y="-7.5" font-family="Helvetica,sans-Serif" font-size="10.00">System.cpp</text>
</a>
</g>
</g>
<!-- Node2&#45;&gt;Node15 -->
<g id="edge14" class="edge"><title>Node2&#45;&gt;Node15</title>
<path fill="none" stroke="midnightblue" d="M1873.51,-90.6243C2027.63,-86.4799 2368.31,-74.2144 2653.5,-42 2656.41,-41.6708 2659.37,-41.3178 2662.34,-40.9446"/>
<polygon fill="midnightblue" stroke="midnightblue" points="1873.08,-87.1341 1863.18,-90.8972 1873.27,-94.1317 1873.08,-87.1341"/>
</g>
<!-- Node17&#45;&gt;Node4 -->
<g id="edge17" class="edge"><title>Node17&#45;&gt;Node4</title>
<path fill="none" stroke="midnightblue" d="M338.699,-77.6262C354.519,-65.3698 376.8,-48.1084 392.331,-36.0762"/>
<polygon fill="midnightblue" stroke="midnightblue" points="336.42,-74.9641 330.658,-83.8553 340.707,-80.4977 336.42,-74.9641"/>
</g>
<!-- Node18 -->
<g id="node18" class="node"><title>Node18</title>
<g id="a_node18"><a xlink:href="EntityFactory_8cpp.html" target="_top" xlink:title="src/Entities/Factories\l/EntityFactory.cpp">
<polygon fill="none" stroke="black" points="0,-6 0,-36 115,-36 115,-6 0,-6"/>
<text text-anchor="start" x="8" y="-24" font-family="Helvetica,sans-Serif" font-size="10.00">src/Entities/Factories</text>
<text text-anchor="middle" x="57.5" y="-13" font-family="Helvetica,sans-Serif" font-size="10.00">/EntityFactory.cpp</text>
</a>
</g>
</g>
<!-- Node17&#45;&gt;Node18 -->
<g id="edge18" class="edge"><title>Node17&#45;&gt;Node18</title>
<path fill="none" stroke="midnightblue" d="M275.005,-81.4709C235.4,-71.5366 175.943,-56.3342 124.5,-42 117.835,-40.1428 110.816,-38.1211 103.931,-36.1002"/>
<polygon fill="midnightblue" stroke="midnightblue" points="274.327,-84.9092 284.878,-83.9414 276.026,-78.1186 274.327,-84.9092"/>
</g>
<!-- Node19 -->
<g id="node19" class="node"><title>Node19</title>
<g id="a_node19"><a xlink:href="EntityExceptions_8cpp.html" target="_top" xlink:title="src/Exceptions/EntityExceptions.cpp">
<polygon fill="none" stroke="black" points="133.5,-11.5 133.5,-30.5 321.5,-30.5 321.5,-11.5 133.5,-11.5"/>
<text text-anchor="middle" x="227.5" y="-18.5" font-family="Helvetica,sans-Serif" font-size="10.00">src/Exceptions/EntityExceptions.cpp</text>
</a>
</g>
</g>
<!-- Node17&#45;&gt;Node19 -->
<g id="edge19" class="edge"><title>Node17&#45;&gt;Node19</title>
<path fill="none" stroke="midnightblue" d="M300.145,-77.6682C281.576,-63.4385 254.165,-42.4338 238.873,-30.7154"/>
<polygon fill="midnightblue" stroke="midnightblue" points="298.153,-80.5509 308.219,-83.8553 302.41,-74.9947 298.153,-80.5509"/>
</g>
<!-- Node20&#45;&gt;Node13 -->
<g id="edge23" class="edge"><title>Node20&#45;&gt;Node13</title>
<path fill="none" stroke="midnightblue" d="M3100.01,-78.4691C3080.3,-66.1718 3051.79,-48.3869 3032.06,-36.0762"/>
<polygon fill="midnightblue" stroke="midnightblue" points="3098.31,-81.5315 3108.64,-83.8553 3102.01,-75.5926 3098.31,-81.5315"/>
</g>
<!-- Node21 -->
<g id="node21" class="node"><title>Node21</title>
<g id="a_node21"><a xlink:href="SystemExceptions_8cpp.html" target="_top" xlink:title="src/Exceptions/SystemExceptions.cpp">
<polygon fill="none" stroke="black" points="3137,-11.5 3137,-30.5 3334,-30.5 3334,-11.5 3137,-11.5"/>
<text text-anchor="middle" x="3235.5" y="-18.5" font-family="Helvetica,sans-Serif" font-size="10.00">src/Exceptions/SystemExceptions.cpp</text>
</a>
</g>
</g>
<!-- Node20&#45;&gt;Node21 -->
<g id="edge21" class="edge"><title>Node20&#45;&gt;Node21</title>
<path fill="none" stroke="midnightblue" d="M3145.05,-78.4341C3167.86,-64.2019 3202.41,-42.6459 3221.53,-30.7154"/>
<polygon fill="midnightblue" stroke="midnightblue" points="3142.99,-75.5926 3136.36,-83.8553 3146.69,-81.5315 3142.99,-75.5926"/>
</g>
<!-- Node22 -->
<g id="node22" class="node"><title>Node22</title>
<g id="a_node22"><a xlink:href="SystemFactory_8cpp.html" target="_top" xlink:title="src/Systems/Factories\l/SystemFactory.cpp">
<polygon fill="none" stroke="black" points="3352.5,-6 3352.5,-36 3474.5,-36 3474.5,-6 3352.5,-6"/>
<text text-anchor="start" x="3360.5" y="-24" font-family="Helvetica,sans-Serif" font-size="10.00">src/Systems/Factories</text>
<text text-anchor="middle" x="3413.5" y="-13" font-family="Helvetica,sans-Serif" font-size="10.00">/SystemFactory.cpp</text>
</a>
</g>
</g>
<!-- Node20&#45;&gt;Node22 -->
<g id="edge22" class="edge"><title>Node20&#45;&gt;Node22</title>
<path fill="none" stroke="midnightblue" d="M3172.77,-81.8175C3217.69,-72.0824 3285.2,-56.9773 3343.5,-42 3350.72,-40.1444 3358.33,-38.0819 3365.77,-36.0062"/>
<polygon fill="midnightblue" stroke="midnightblue" points="3172.02,-78.3994 3162.98,-83.9317 3173.5,-85.2416 3172.02,-78.3994"/>
</g>
<!-- Node23 -->
<g id="node23" class="node"><title>Node23</title>
<g id="a_node23"><a xlink:href="SystemManager_8cpp.html" target="_top" xlink:title="src/Systems/SystemManager\l/SystemManager.cpp">
<polygon fill="none" stroke="black" points="3492.5,-6 3492.5,-36 3650.5,-36 3650.5,-6 3492.5,-6"/>
<text text-anchor="start" x="3500.5" y="-24" font-family="Helvetica,sans-Serif" font-size="10.00">src/Systems/SystemManager</text>
<text text-anchor="middle" x="3571.5" y="-13" font-family="Helvetica,sans-Serif" font-size="10.00">/SystemManager.cpp</text>
</a>
</g>
</g>
<!-- Node20&#45;&gt;Node23 -->
<g id="edge24" class="edge"><title>Node20&#45;&gt;Node23</title>
<path fill="none" stroke="midnightblue" d="M3195.77,-82.5878C3293.07,-69.3742 3455.88,-47.0607 3483.5,-42 3493.05,-40.2492 3503.14,-38.1733 3512.95,-36.0325"/>
<polygon fill="midnightblue" stroke="midnightblue" points="3195.14,-79.1419 3185.7,-83.9553 3196.08,-86.0783 3195.14,-79.1419"/>
</g>
</g>
</svg>
        <g id="navigator" transform="translate(0 0)" fill="#404254">
                <rect fill="#f2f5e9" fill-opacity="0.5" stroke="#606060" stroke-width=".5" x="0" y="0" width="60" height="60"/>
                <use id="zoomplus" xlink:href="#zoomPlus" x="17" y="9" onmousedown="handleZoom(evt,'in')"/>
                <use id="zoomminus" xlink:href="#zoomMin" x="42" y="9" onmousedown="handleZoom(evt,'out')"/>
                <use id="reset" xlink:href="#resetDef" x="30" y="36" onmousedown="handleReset()"/>
                <g id="arrowUp" xlink:href="#dirArrow" transform="translate(30 24)" onmousedown="handlePan(0,-1)">
                  <use xlink:href="#rim" fill="#404040">
                        <set attributeName="fill" to="#808080" begin="arrowUp.mouseover" end="arrowUp.mouseout"/>
                  </use>
                  <path fill="none" stroke="white" stroke-width="1.5" d="M0,-3.0v7 M-2.5,-0.5L0,-3.0L2.5,-0.5"/>
                </g>
                <g id="arrowRight" xlink:href="#dirArrow" transform="rotate(90) translate(36 -43)" onmousedown="handlePan(1,0)">
                  <use xlink:href="#rim" fill="#404040">
                        <set attributeName="fill" to="#808080" begin="arrowRight.mouseover" end="arrowRight.mouseout"/>
                  </use>
                  <path fill="none" stroke="white" stroke-width="1.5" d="M0,-3.0v7 M-2.5,-0.5L0,-3.0L2.5,-0.5"/>
                </g>
                <g id="arrowDown" xlink:href="#dirArrow" transform="rotate(180) translate(-30 -48)" onmousedown="handlePan(0,1)">
                  <use xlink:href="#rim" fill="#404040">
                        <set attributeName="fill" to="#808080" begin="arrowDown.mouseover" end="arrowDown.mouseout"/>
                  </use>
                  <path fill="none" stroke="white" stroke-width="1.5" d="M0,-3.0v7 M-2.5,-0.5L0,-3.0L2.5,-0.5"/>
                </g>
                <g id="arrowLeft" xlink:href="#dirArrow" transform="rotate(270) translate(-36 17)" onmousedown="handlePan(-1,0)">
                  <use xlink:href="#rim" fill="#404040">
                        <set attributeName="fill" to="#808080" begin="arrowLeft.mouseover" end="arrowLeft.mouseout"/>
                  </use>
                  <path fill="none" stroke="white" stroke-width="1.5" d="M0,-3.0v7 M-2.5,-0.5L0,-3.0L2.5,-0.5"/>
                </g>
        </g>
        <svg viewBox="0 0 15 15" width="100%" height="30px" preserveAspectRatio="xMaxYMin meet">
         <g id="arrow_out" transform="scale(0.3 0.3)">
          <a xlink:href="ECSExceptions_8hpp__dep__incl_org.svg" target="_base">
           <rect id="button" ry="5" rx="5" y="6" x="6" height="38" width="38"
                fill="#f2f5e9" fill-opacity="0.5" stroke="#606060" stroke-width="1.0"/>
           <path id="arrow"
             d="M 11.500037,31.436501 C 11.940474,20.09759 22.043105,11.32322 32.158766,21.979434 L 37.068811,17.246167 C 37.068811,17.246167 37.088388,32 37.088388,32 L 22.160133,31.978069 C 22.160133,31.978069 26.997745,27.140456 26.997745,27.140456 C 18.528582,18.264221 13.291696,25.230495 11.500037,31.436501 z"
             style="fill:#404040;"/>
          </a>
         </g>
        </svg>
</svg>
