<?xml version="1.0" encoding="UTF-8" standalone="no"?>
<!DOCTYPE svg PUBLIC "-//W3C//DTD SVG 1.1//EN"
 "http://www.w3.org/Graphics/SVG/1.1/DTD/svg11.dtd">
<!-- Generated by graphviz version 2.38.0 (20140413.2041)
 -->
<!-- Title: src/Exceptions/ECSExceptions.cpp Pages: 1 -->
<svg width="199pt" height="196pt"
 viewBox="0.00 0.00 199.00 196.00" xmlns="http://www.w3.org/2000/svg" xmlns:xlink="http://www.w3.org/1999/xlink">
<g id="graph0" class="graph" transform="scale(1 1) rotate(0) translate(4 192)">
<title>src/Exceptions/ECSExceptions.cpp</title>
<!-- Node1 -->
<g id="node1" class="node"><title>Node1</title>
<polygon fill="#bfbfbf" stroke="black" points="0,-168.5 0,-187.5 180,-187.5 180,-168.5 0,-168.5"/>
<text text-anchor="middle" x="90" y="-175.5" font-family="Helvetica,sans-Serif" font-size="10.00">src/Exceptions/ECSExceptions.cpp</text>
</g>
<!-- Node2 -->
<g id="node2" class="node"><title>Node2</title>
<g id="a_node2"><a xlink:href="ECSExceptions_8hpp.html" target="_top" xlink:title="ECSExceptions.hpp">
<polygon fill="none" stroke="black" points="35.5,-112.5 35.5,-131.5 144.5,-131.5 144.5,-112.5 35.5,-112.5"/>
<text text-anchor="middle" x="90" y="-119.5" font-family="Helvetica,sans-Serif" font-size="10.00">ECSExceptions.hpp</text>
</a>
</g>
</g>
<!-- Node1&#45;&gt;Node2 -->
<g id="edge1" class="edge"><title>Node1&#45;&gt;Node2</title>
<path fill="none" stroke="midnightblue" d="M90,-168.083C90,-161.006 90,-150.861 90,-141.986"/>
<polygon fill="midnightblue" stroke="midnightblue" points="93.5001,-141.751 90,-131.751 86.5001,-141.751 93.5001,-141.751"/>
</g>
<!-- Node3 -->
<g id="node3" class="node"><title>Node3</title>
<polygon fill="none" stroke="#bfbfbf" points="68,-0.5 68,-19.5 112,-19.5 112,-0.5 68,-0.5"/>
<text text-anchor="middle" x="90" y="-7.5" font-family="Helvetica,sans-Serif" font-size="10.00">string</text>
</g>
<!-- Node2&#45;&gt;Node3 -->
<g id="edge2" class="edge"><title>Node2&#45;&gt;Node3</title>
<path fill="none" stroke="midnightblue" d="M83.6332,-112.232C77.7398,-103.532 69.393,-89.5719 66,-76 61.8211,-59.2842 69.8316,-40.9254 77.6997,-27.9951"/>
<polygon fill="midnightblue" stroke="midnightblue" points="80.6285,-29.9114 83.2273,-19.6403 74.7905,-26.049 80.6285,-29.9114"/>
</g>
<!-- Node4 -->
<g id="node4" class="node"><title>Node4</title>
<g id="a_node4"><a xlink:href="RTypeExceptions_8hpp.html" target="_top" xlink:title="RTypeExceptions.hpp">
<polygon fill="none" stroke="black" points="75,-56.5 75,-75.5 191,-75.5 191,-56.5 75,-56.5"/>
<text text-anchor="middle" x="133" y="-63.5" font-family="Helvetica,sans-Serif" font-size="10.00">RTypeExceptions.hpp</text>
</a>
</g>
</g>
<!-- Node2&#45;&gt;Node4 -->
<g id="edge3" class="edge"><title>Node2&#45;&gt;Node4</title>
<path fill="none" stroke="midnightblue" d="M97.1006,-112.083C103.237,-104.377 112.27,-93.0333 119.739,-83.6531"/>
<polygon fill="midnightblue" stroke="midnightblue" points="122.54,-85.7542 126.032,-75.7511 117.064,-81.3936 122.54,-85.7542"/>
</g>
<!-- Node4&#45;&gt;Node3 -->
<g id="edge4" class="edge"><title>Node4&#45;&gt;Node3</title>
<path fill="none" stroke="midnightblue" d="M125.899,-56.083C119.763,-48.3768 110.73,-37.0333 103.261,-27.6531"/>
<polygon fill="midnightblue" stroke="midnightblue" points="105.936,-25.3936 96.9685,-19.7511 100.46,-29.7542 105.936,-25.3936"/>
</g>
</g>
</svg>
