<?xml version="1.0" encoding="UTF-8" standalone="no"?>
<!DOCTYPE svg PUBLIC "-//W3C//DTD SVG 1.1//EN"
 "http://www.w3.org/Graphics/SVG/1.1/DTD/svg11.dtd">
<!-- Generated by graphviz version 2.38.0 (20140413.2041)
 -->
<!-- Title: src/Components/GameLogic/EnemyShoot.cpp Pages: 1 -->
<svg width="238pt" height="319pt"
 viewBox="0.00 0.00 238.00 319.00" xmlns="http://www.w3.org/2000/svg" xmlns:xlink="http://www.w3.org/1999/xlink">
<g id="graph0" class="graph" transform="scale(1 1) rotate(0) translate(4 315)">
<title>src/Components/GameLogic/EnemyShoot.cpp</title>
<!-- Node1 -->
<g id="node1" class="node"><title>Node1</title>
<polygon fill="#bfbfbf" stroke="black" points="0,-280.5 0,-310.5 152,-310.5 152,-280.5 0,-280.5"/>
<text text-anchor="start" x="8" y="-298.5" font-family="Helvetica,sans-Serif" font-size="10.00">src/Components/GameLogic</text>
<text text-anchor="middle" x="76" y="-287.5" font-family="Helvetica,sans-Serif" font-size="10.00">/EnemyShoot.cpp</text>
</g>
<!-- Node2 -->
<g id="node2" class="node"><title>Node2</title>
<g id="a_node2"><a xlink:href="EnemyShoot_8hpp.html" target="_top" xlink:title="EnemyShoot.hpp">
<polygon fill="none" stroke="black" points="26.5,-224.5 26.5,-243.5 125.5,-243.5 125.5,-224.5 26.5,-224.5"/>
<text text-anchor="middle" x="76" y="-231.5" font-family="Helvetica,sans-Serif" font-size="10.00">EnemyShoot.hpp</text>
</a>
</g>
</g>
<!-- Node1&#45;&gt;Node2 -->
<g id="edge1" class="edge"><title>Node1&#45;&gt;Node2</title>
<path fill="none" stroke="midnightblue" d="M76,-280.399C76,-272.466 76,-262.458 76,-253.858"/>
<polygon fill="midnightblue" stroke="midnightblue" points="79.5001,-253.658 76,-243.658 72.5001,-253.658 79.5001,-253.658"/>
</g>
<!-- Node3 -->
<g id="node3" class="node"><title>Node3</title>
<polygon fill="none" stroke="#bfbfbf" points="6.5,-0.5 6.5,-19.5 69.5,-19.5 69.5,-0.5 6.5,-0.5"/>
<text text-anchor="middle" x="38" y="-7.5" font-family="Helvetica,sans-Serif" font-size="10.00">typeindex</text>
</g>
<!-- Node2&#45;&gt;Node3 -->
<g id="edge2" class="edge"><title>Node2&#45;&gt;Node3</title>
<path fill="none" stroke="midnightblue" d="M69.7336,-224.325C57.8937,-207.46 32.3221,-168.681 20,-132 11.9941,-108.167 13.7823,-101.078 12,-76 11.3699,-67.1335 9.69801,-64.5856 12,-56 14.6536,-46.1031 20.0693,-36.1315 25.2743,-28.099"/>
<polygon fill="midnightblue" stroke="midnightblue" points="28.2891,-29.8935 31.1097,-19.6811 22.5361,-25.9055 28.2891,-29.8935"/>
</g>
<!-- Node4 -->
<g id="node4" class="node"><title>Node4</title>
<g id="a_node4"><a xlink:href="IGameLogic_8hpp.html" target="_top" xlink:title="IGameLogic.hpp">
<polygon fill="none" stroke="black" points="29,-112.5 29,-131.5 123,-131.5 123,-112.5 29,-112.5"/>
<text text-anchor="middle" x="76" y="-119.5" font-family="Helvetica,sans-Serif" font-size="10.00">IGameLogic.hpp</text>
</a>
</g>
</g>
<!-- Node2&#45;&gt;Node4 -->
<g id="edge3" class="edge"><title>Node2&#45;&gt;Node4</title>
<path fill="none" stroke="midnightblue" d="M76,-224.368C76,-206.617 76,-165.666 76,-141.597"/>
<polygon fill="midnightblue" stroke="midnightblue" points="79.5001,-141.591 76,-131.591 72.5001,-141.591 79.5001,-141.591"/>
</g>
<!-- Node6 -->
<g id="node6" class="node"><title>Node6</title>
<g id="a_node6"><a xlink:href="Timer_8hpp.html" target="_top" xlink:title="Timer.hpp">
<polygon fill="none" stroke="black" points="112,-168.5 112,-187.5 176,-187.5 176,-168.5 112,-168.5"/>
<text text-anchor="middle" x="144" y="-175.5" font-family="Helvetica,sans-Serif" font-size="10.00">Timer.hpp</text>
</a>
</g>
</g>
<!-- Node2&#45;&gt;Node6 -->
<g id="edge7" class="edge"><title>Node2&#45;&gt;Node6</title>
<path fill="none" stroke="midnightblue" d="M86.9254,-224.324C97.1746,-216.185 112.721,-203.839 125.001,-194.087"/>
<polygon fill="midnightblue" stroke="midnightblue" points="127.221,-196.794 132.876,-187.834 122.868,-191.312 127.221,-196.794"/>
</g>
<!-- Node4&#45;&gt;Node3 -->
<g id="edge4" class="edge"><title>Node4&#45;&gt;Node3</title>
<path fill="none" stroke="midnightblue" d="M57.9185,-112.39C44.4382,-104.872 27.0275,-92.5651 19,-76 11.5737,-60.6754 18.6333,-41.8839 26.164,-28.4543"/>
<polygon fill="midnightblue" stroke="midnightblue" points="29.262,-30.0986 31.5304,-19.7495 23.3033,-26.4252 29.262,-30.0986"/>
</g>
<!-- Node5 -->
<g id="node5" class="node"><title>Node5</title>
<g id="a_node5"><a xlink:href="IComponent_8hpp.html" target="_top" xlink:title="IComponent.hpp">
<polygon fill="none" stroke="black" points="28,-56.5 28,-75.5 124,-75.5 124,-56.5 28,-56.5"/>
<text text-anchor="middle" x="76" y="-63.5" font-family="Helvetica,sans-Serif" font-size="10.00">IComponent.hpp</text>
</a>
</g>
</g>
<!-- Node4&#45;&gt;Node5 -->
<g id="edge5" class="edge"><title>Node4&#45;&gt;Node5</title>
<path fill="none" stroke="midnightblue" d="M76,-112.083C76,-105.006 76,-94.8611 76,-85.9865"/>
<polygon fill="midnightblue" stroke="midnightblue" points="79.5001,-85.751 76,-75.7511 72.5001,-85.7511 79.5001,-85.751"/>
</g>
<!-- Node5&#45;&gt;Node3 -->
<g id="edge6" class="edge"><title>Node5&#45;&gt;Node3</title>
<path fill="none" stroke="midnightblue" d="M69.7251,-56.083C64.3575,-48.4554 56.4824,-37.2645 49.9213,-27.9408"/>
<polygon fill="midnightblue" stroke="midnightblue" points="52.7755,-25.9149 44.1582,-19.7511 47.0508,-29.9434 52.7755,-25.9149"/>
</g>
<!-- Node6&#45;&gt;Node3 -->
<g id="edge9" class="edge"><title>Node6&#45;&gt;Node3</title>
<path fill="none" stroke="midnightblue" d="M145.872,-168.418C149.993,-147.169 157.635,-91.2815 133,-56 120.487,-38.0792 98.8895,-27.0772 79.4463,-20.4427"/>
<polygon fill="midnightblue" stroke="midnightblue" points="80.4188,-17.0797 69.8301,-17.4416 78.3333,-23.7619 80.4188,-17.0797"/>
</g>
<!-- Node6&#45;&gt;Node4 -->
<g id="edge10" class="edge"><title>Node6&#45;&gt;Node4</title>
<path fill="none" stroke="midnightblue" d="M133.075,-168.324C122.825,-160.185 107.279,-147.839 94.999,-138.087"/>
<polygon fill="midnightblue" stroke="midnightblue" points="97.1319,-135.312 87.1242,-131.834 92.7787,-140.794 97.1319,-135.312"/>
</g>
<!-- Node7 -->
<g id="node7" class="node"><title>Node7</title>
<polygon fill="none" stroke="#bfbfbf" points="180,-112.5 180,-131.5 230,-131.5 230,-112.5 180,-112.5"/>
<text text-anchor="middle" x="205" y="-119.5" font-family="Helvetica,sans-Serif" font-size="10.00">chrono</text>
</g>
<!-- Node6&#45;&gt;Node7 -->
<g id="edge8" class="edge"><title>Node6&#45;&gt;Node7</title>
<path fill="none" stroke="midnightblue" d="M153.801,-168.324C162.818,-160.341 176.406,-148.313 187.318,-138.653"/>
<polygon fill="midnightblue" stroke="midnightblue" points="189.853,-141.083 195.021,-131.834 185.213,-135.842 189.853,-141.083"/>
</g>
</g>
</svg>
