<?xml version="1.0" encoding="UTF-8" standalone="no"?>
<!DOCTYPE svg PUBLIC "-//W3C//DTD SVG 1.1//EN"
 "http://www.w3.org/Graphics/SVG/1.1/DTD/svg11.dtd">
<!-- Generated by graphviz version 2.38.0 (20140413.2041)
 -->
<!-- Title: src/Systems/SystemConstructor/EnemiesMovementSystem/EnemiesMovementSystem.hpp Pages: 1 -->
<svg width="422pt" height="128pt"
 viewBox="0.00 0.00 422.00 128.00" xmlns="http://www.w3.org/2000/svg" xmlns:xlink="http://www.w3.org/1999/xlink">
<g id="graph0" class="graph" transform="scale(1 1) rotate(0) translate(4 124)">
<title>src/Systems/SystemConstructor/EnemiesMovementSystem/EnemiesMovementSystem.hpp</title>
<!-- Node1 -->
<g id="node1" class="node"><title>Node1</title>
<polygon fill="#bfbfbf" stroke="black" points="62,-78.5 62,-119.5 306,-119.5 306,-78.5 62,-78.5"/>
<text text-anchor="start" x="70" y="-107.5" font-family="Helvetica,sans-Serif" font-size="10.00">src/Systems/SystemConstructor</text>
<text text-anchor="start" x="70" y="-96.5" font-family="Helvetica,sans-Serif" font-size="10.00">/EnemiesMovementSystem/EnemiesMovement</text>
<text text-anchor="middle" x="184" y="-85.5" font-family="Helvetica,sans-Serif" font-size="10.00">System.hpp</text>
</g>
<!-- Node2 -->
<g id="node2" class="node"><title>Node2</title>
<g id="a_node2"><a xlink:href="GameScene_8cpp.html" target="_top" xlink:title="src/Scenes/GameScene.cpp">
<polygon fill="none" stroke="black" points="0,-11.5 0,-30.5 152,-30.5 152,-11.5 0,-11.5"/>
<text text-anchor="middle" x="76" y="-18.5" font-family="Helvetica,sans-Serif" font-size="10.00">src/Scenes/GameScene.cpp</text>
</a>
</g>
</g>
<!-- Node1&#45;&gt;Node2 -->
<g id="edge1" class="edge"><title>Node1&#45;&gt;Node2</title>
<path fill="none" stroke="midnightblue" d="M147.896,-72.5933C127.201,-58.0303 102.552,-40.6851 88.1529,-30.552"/>
<polygon fill="midnightblue" stroke="midnightblue" points="145.995,-75.5355 156.187,-78.4281 150.023,-69.8108 145.995,-75.5355"/>
</g>
<!-- Node3 -->
<g id="node3" class="node"><title>Node3</title>
<g id="a_node3"><a xlink:href="EnemiesMovementSystem_8cpp.html" target="_top" xlink:title="src/Systems/SystemConstructor\l/EnemiesMovementSystem/EnemiesMovement\lSystem.cpp">
<polygon fill="none" stroke="black" points="170,-0.5 170,-41.5 414,-41.5 414,-0.5 170,-0.5"/>
<text text-anchor="start" x="178" y="-29.5" font-family="Helvetica,sans-Serif" font-size="10.00">src/Systems/SystemConstructor</text>
<text text-anchor="start" x="178" y="-18.5" font-family="Helvetica,sans-Serif" font-size="10.00">/EnemiesMovementSystem/EnemiesMovement</text>
<text text-anchor="middle" x="292" y="-7.5" font-family="Helvetica,sans-Serif" font-size="10.00">System.cpp</text>
</a>
</g>
</g>
<!-- Node1&#45;&gt;Node3 -->
<g id="edge2" class="edge"><title>Node1&#45;&gt;Node3</title>
<path fill="none" stroke="midnightblue" d="M220.045,-72.6352C234.466,-62.4868 250.816,-50.9816 264.282,-41.5056"/>
<polygon fill="midnightblue" stroke="midnightblue" points="217.977,-69.8108 211.813,-78.4281 222.005,-75.5355 217.977,-69.8108"/>
</g>
</g>
</svg>
