<?xml version="1.0" encoding="UTF-8" standalone="no"?>
<!DOCTYPE svg PUBLIC "-//W3C//DTD SVG 1.1//EN"
 "http://www.w3.org/Graphics/SVG/1.1/DTD/svg11.dtd">
<!-- Generated by graphviz version 2.38.0 (20140413.2041)
 -->
<!-- Title: src/Components/GameLogic/EnemiesController.hpp Pages: 1 -->
<svg width="1573pt" height="195pt"
 viewBox="0.00 0.00 1573.00 195.00" xmlns="http://www.w3.org/2000/svg" xmlns:xlink="http://www.w3.org/1999/xlink">
<g id="graph0" class="graph" transform="scale(1 1) rotate(0) translate(4 191)">
<title>src/Components/GameLogic/EnemiesController.hpp</title>
<!-- Node1 -->
<g id="node1" class="node"><title>Node1</title>
<polygon fill="#bfbfbf" stroke="black" points="632,-156.5 632,-186.5 784,-186.5 784,-156.5 632,-156.5"/>
<text text-anchor="start" x="640" y="-174.5" font-family="Helvetica,sans-Serif" font-size="10.00">src/Components/GameLogic</text>
<text text-anchor="middle" x="708" y="-163.5" font-family="Helvetica,sans-Serif" font-size="10.00">/EnemiesController.hpp</text>
</g>
<!-- Node2 -->
<g id="node2" class="node"><title>Node2</title>
<g id="a_node2"><a xlink:href="EnemiesController_8cpp.html" target="_top" xlink:title="src/Components/GameLogic\l/EnemiesController.cpp">
<polygon fill="none" stroke="black" points="0,-84 0,-114 152,-114 152,-84 0,-84"/>
<text text-anchor="start" x="8" y="-102" font-family="Helvetica,sans-Serif" font-size="10.00">src/Components/GameLogic</text>
<text text-anchor="middle" x="76" y="-91" font-family="Helvetica,sans-Serif" font-size="10.00">/EnemiesController.cpp</text>
</a>
</g>
</g>
<!-- Node1&#45;&gt;Node2 -->
<g id="edge1" class="edge"><title>Node1&#45;&gt;Node2</title>
<path fill="none" stroke="midnightblue" d="M621.427,-166.143C513.368,-159.869 323.137,-146.064 162,-120 152.013,-118.385 141.459,-116.273 131.295,-114.028"/>
<polygon fill="midnightblue" stroke="midnightblue" points="621.441,-169.65 631.625,-166.727 621.841,-162.661 621.441,-169.65"/>
</g>
<!-- Node3 -->
<g id="node3" class="node"><title>Node3</title>
<g id="a_node3"><a xlink:href="EnemyEntity_8cpp.html" target="_top" xlink:title="src/Entities/EntityConstructor\l/EnemyEntity/EnemyEntity.cpp">
<polygon fill="none" stroke="black" points="170.5,-84 170.5,-114 331.5,-114 331.5,-84 170.5,-84"/>
<text text-anchor="start" x="178.5" y="-102" font-family="Helvetica,sans-Serif" font-size="10.00">src/Entities/EntityConstructor</text>
<text text-anchor="middle" x="251" y="-91" font-family="Helvetica,sans-Serif" font-size="10.00">/EnemyEntity/EnemyEntity.cpp</text>
</a>
</g>
</g>
<!-- Node1&#45;&gt;Node3 -->
<g id="edge2" class="edge"><title>Node1&#45;&gt;Node3</title>
<path fill="none" stroke="midnightblue" d="M621.523,-160.629C546.954,-151.634 436.525,-137.156 341,-120 331.232,-118.246 320.917,-116.168 310.892,-114.027"/>
<polygon fill="midnightblue" stroke="midnightblue" points="621.457,-164.146 631.802,-161.862 622.29,-157.196 621.457,-164.146"/>
</g>
<!-- Node4 -->
<g id="node4" class="node"><title>Node4</title>
<g id="a_node4"><a xlink:href="EnemyType01Entity_8cpp.html" target="_top" xlink:title="src/Entities/EntityConstructor\l/EnemyType01Entity/EnemyType01Entity.cpp">
<polygon fill="none" stroke="black" points="349.5,-84 349.5,-114 576.5,-114 576.5,-84 349.5,-84"/>
<text text-anchor="start" x="357.5" y="-102" font-family="Helvetica,sans-Serif" font-size="10.00">src/Entities/EntityConstructor</text>
<text text-anchor="middle" x="463" y="-91" font-family="Helvetica,sans-Serif" font-size="10.00">/EnemyType01Entity/EnemyType01Entity.cpp</text>
</a>
</g>
</g>
<!-- Node1&#45;&gt;Node4 -->
<g id="edge3" class="edge"><title>Node1&#45;&gt;Node4</title>
<path fill="none" stroke="midnightblue" d="M649.495,-153.665C607.535,-141.591 551.647,-125.508 512.024,-114.107"/>
<polygon fill="midnightblue" stroke="midnightblue" points="648.725,-157.085 659.303,-156.487 650.661,-150.358 648.725,-157.085"/>
</g>
<!-- Node5 -->
<g id="node5" class="node"><title>Node5</title>
<g id="a_node5"><a xlink:href="EnemyType02Entity_8cpp.html" target="_top" xlink:title="src/Entities/EntityConstructor\l/EnemyType02Entity/EnemyType02Entity.cpp">
<polygon fill="none" stroke="black" points="594.5,-84 594.5,-114 821.5,-114 821.5,-84 594.5,-84"/>
<text text-anchor="start" x="602.5" y="-102" font-family="Helvetica,sans-Serif" font-size="10.00">src/Entities/EntityConstructor</text>
<text text-anchor="middle" x="708" y="-91" font-family="Helvetica,sans-Serif" font-size="10.00">/EnemyType02Entity/EnemyType02Entity.cpp</text>
</a>
</g>
</g>
<!-- Node1&#45;&gt;Node5 -->
<g id="edge4" class="edge"><title>Node1&#45;&gt;Node5</title>
<path fill="none" stroke="midnightblue" d="M708,-146.232C708,-135.568 708,-123.414 708,-114.246"/>
<polygon fill="midnightblue" stroke="midnightblue" points="704.5,-146.233 708,-156.233 711.5,-146.233 704.5,-146.233"/>
</g>
<!-- Node6 -->
<g id="node6" class="node"><title>Node6</title>
<g id="a_node6"><a xlink:href="EnemyType03Entity_8cpp.html" target="_top" xlink:title="src/Entities/EntityConstructor\l/EnemyType03Entity/EnemyType03Entity.cpp">
<polygon fill="none" stroke="black" points="839.5,-84 839.5,-114 1066.5,-114 1066.5,-84 839.5,-84"/>
<text text-anchor="start" x="847.5" y="-102" font-family="Helvetica,sans-Serif" font-size="10.00">src/Entities/EntityConstructor</text>
<text text-anchor="middle" x="953" y="-91" font-family="Helvetica,sans-Serif" font-size="10.00">/EnemyType03Entity/EnemyType03Entity.cpp</text>
</a>
</g>
</g>
<!-- Node1&#45;&gt;Node6 -->
<g id="edge5" class="edge"><title>Node1&#45;&gt;Node6</title>
<path fill="none" stroke="midnightblue" d="M766.505,-153.665C808.465,-141.591 864.353,-125.508 903.976,-114.107"/>
<polygon fill="midnightblue" stroke="midnightblue" points="765.339,-150.358 756.697,-156.487 767.275,-157.085 765.339,-150.358"/>
</g>
<!-- Node7 -->
<g id="node7" class="node"><title>Node7</title>
<g id="a_node7"><a xlink:href="EnemiesMovementSystem_8hpp.html" target="_top" xlink:title="src/Systems/SystemConstructor\l/EnemiesMovementSystem/EnemiesMovement\lSystem.hpp">
<polygon fill="none" stroke="black" points="1085,-78.5 1085,-119.5 1329,-119.5 1329,-78.5 1085,-78.5"/>
<text text-anchor="start" x="1093" y="-107.5" font-family="Helvetica,sans-Serif" font-size="10.00">src/Systems/SystemConstructor</text>
<text text-anchor="start" x="1093" y="-96.5" font-family="Helvetica,sans-Serif" font-size="10.00">/EnemiesMovementSystem/EnemiesMovement</text>
<text text-anchor="middle" x="1207" y="-85.5" font-family="Helvetica,sans-Serif" font-size="10.00">System.hpp</text>
</a>
</g>
</g>
<!-- Node1&#45;&gt;Node7 -->
<g id="edge6" class="edge"><title>Node1&#45;&gt;Node7</title>
<path fill="none" stroke="midnightblue" d="M794.449,-159.012C869.057,-149.008 979.693,-133.959 1076,-120 1078.96,-119.571 1081.96,-119.134 1084.98,-118.691"/>
<polygon fill="midnightblue" stroke="midnightblue" points="793.612,-155.593 784.165,-160.39 794.542,-162.531 793.612,-155.593"/>
</g>
<!-- Node10 -->
<g id="node10" class="node"><title>Node10</title>
<g id="a_node10"><a xlink:href="MovementSystem_8cpp.html" target="_top" xlink:title="src/Systems/SystemConstructor\l/MovementSystem/MovementSystem.cpp">
<polygon fill="none" stroke="black" points="1347,-84 1347,-114 1565,-114 1565,-84 1347,-84"/>
<text text-anchor="start" x="1355" y="-102" font-family="Helvetica,sans-Serif" font-size="10.00">src/Systems/SystemConstructor</text>
<text text-anchor="middle" x="1456" y="-91" font-family="Helvetica,sans-Serif" font-size="10.00">/MovementSystem/MovementSystem.cpp</text>
</a>
</g>
</g>
<!-- Node1&#45;&gt;Node10 -->
<g id="edge9" class="edge"><title>Node1&#45;&gt;Node10</title>
<path fill="none" stroke="midnightblue" d="M794.346,-165.988C915.951,-159.087 1144.46,-144.112 1338,-120 1351.3,-118.343 1365.39,-116.252 1379.02,-114.05"/>
<polygon fill="midnightblue" stroke="midnightblue" points="794.134,-162.495 784.347,-166.551 794.528,-169.483 794.134,-162.495"/>
</g>
<!-- Node8 -->
<g id="node8" class="node"><title>Node8</title>
<g id="a_node8"><a xlink:href="GameScene_8cpp.html" target="_top" xlink:title="src/Scenes/GameScene.cpp">
<polygon fill="none" stroke="black" points="1023,-11.5 1023,-30.5 1175,-30.5 1175,-11.5 1023,-11.5"/>
<text text-anchor="middle" x="1099" y="-18.5" font-family="Helvetica,sans-Serif" font-size="10.00">src/Scenes/GameScene.cpp</text>
</a>
</g>
</g>
<!-- Node7&#45;&gt;Node8 -->
<g id="edge7" class="edge"><title>Node7&#45;&gt;Node8</title>
<path fill="none" stroke="midnightblue" d="M1170.9,-72.5933C1150.2,-58.0303 1125.55,-40.6851 1111.15,-30.552"/>
<polygon fill="midnightblue" stroke="midnightblue" points="1168.99,-75.5355 1179.19,-78.4281 1173.02,-69.8108 1168.99,-75.5355"/>
</g>
<!-- Node9 -->
<g id="node9" class="node"><title>Node9</title>
<g id="a_node9"><a xlink:href="EnemiesMovementSystem_8cpp.html" target="_top" xlink:title="src/Systems/SystemConstructor\l/EnemiesMovementSystem/EnemiesMovement\lSystem.cpp">
<polygon fill="none" stroke="black" points="1193,-0.5 1193,-41.5 1437,-41.5 1437,-0.5 1193,-0.5"/>
<text text-anchor="start" x="1201" y="-29.5" font-family="Helvetica,sans-Serif" font-size="10.00">src/Systems/SystemConstructor</text>
<text text-anchor="start" x="1201" y="-18.5" font-family="Helvetica,sans-Serif" font-size="10.00">/EnemiesMovementSystem/EnemiesMovement</text>
<text text-anchor="middle" x="1315" y="-7.5" font-family="Helvetica,sans-Serif" font-size="10.00">System.cpp</text>
</a>
</g>
</g>
<!-- Node7&#45;&gt;Node9 -->
<g id="edge8" class="edge"><title>Node7&#45;&gt;Node9</title>
<path fill="none" stroke="midnightblue" d="M1243.04,-72.6352C1257.47,-62.4868 1273.82,-50.9816 1287.28,-41.5056"/>
<polygon fill="midnightblue" stroke="midnightblue" points="1240.98,-69.8108 1234.81,-78.4281 1245.01,-75.5355 1240.98,-69.8108"/>
</g>
</g>
</svg>
