<?xml version="1.0" encoding="UTF-8" standalone="no"?>
<!DOCTYPE svg PUBLIC "-//W3C//DTD SVG 1.1//EN"
 "http://www.w3.org/Graphics/SVG/1.1/DTD/svg11.dtd">
<!-- Generated by graphviz version 2.38.0 (20140413.2041)
 -->
<!-- Title: src/Entities/EntityConstructor/EnemyEntity/EnemyEntity.cpp Pages: 1 -->
<svg width="1607pt" height="319pt"
 viewBox="0.00 0.00 1607.00 319.00" xmlns="http://www.w3.org/2000/svg" xmlns:xlink="http://www.w3.org/1999/xlink">
<g id="graph0" class="graph" transform="scale(1 1) rotate(0) translate(4 315)">
<title>src/Entities/EntityConstructor/EnemyEntity/EnemyEntity.cpp</title>
<!-- Node1 -->
<g id="node1" class="node"><title>Node1</title>
<polygon fill="#bfbfbf" stroke="black" points="793.5,-280.5 793.5,-310.5 954.5,-310.5 954.5,-280.5 793.5,-280.5"/>
<text text-anchor="start" x="801.5" y="-298.5" font-family="Helvetica,sans-Serif" font-size="10.00">src/Entities/EntityConstructor</text>
<text text-anchor="middle" x="874" y="-287.5" font-family="Helvetica,sans-Serif" font-size="10.00">/EnemyEntity/EnemyEntity.cpp</text>
</g>
<!-- Node2 -->
<g id="node2" class="node"><title>Node2</title>
<g id="a_node2"><a xlink:href="EnemyShoot_8hpp.html" target="_top" xlink:title="GameLogic/EnemyShoot.hpp">
<polygon fill="none" stroke="black" points="1243,-224.5 1243,-243.5 1399,-243.5 1399,-224.5 1243,-224.5"/>
<text text-anchor="middle" x="1321" y="-231.5" font-family="Helvetica,sans-Serif" font-size="10.00">GameLogic/EnemyShoot.hpp</text>
</a>
</g>
</g>
<!-- Node1&#45;&gt;Node2 -->
<g id="edge1" class="edge"><title>Node1&#45;&gt;Node2</title>
<path fill="none" stroke="midnightblue" d="M954.689,-283.759C1037.77,-272.701 1166.15,-255.612 1246.78,-244.88"/>
<polygon fill="midnightblue" stroke="midnightblue" points="1247.4,-248.328 1256.85,-243.539 1246.48,-241.389 1247.4,-248.328"/>
</g>
<!-- Node8 -->
<g id="node8" class="node"><title>Node8</title>
<g id="a_node8"><a xlink:href="EnemyEntity_8hpp.html" target="_top" xlink:title="EnemyEntity.hpp">
<polygon fill="none" stroke="black" points="250,-224.5 250,-243.5 346,-243.5 346,-224.5 250,-224.5"/>
<text text-anchor="middle" x="298" y="-231.5" font-family="Helvetica,sans-Serif" font-size="10.00">EnemyEntity.hpp</text>
</a>
</g>
</g>
<!-- Node1&#45;&gt;Node8 -->
<g id="edge11" class="edge"><title>Node1&#45;&gt;Node8</title>
<path fill="none" stroke="midnightblue" d="M793.303,-286.164C675.664,-274.012 459.859,-251.72 356.369,-241.029"/>
<polygon fill="midnightblue" stroke="midnightblue" points="356.419,-237.516 346.112,-239.97 355.699,-244.479 356.419,-237.516"/>
</g>
<!-- Node19 -->
<g id="node19" class="node"><title>Node19</title>
<g id="a_node19"><a xlink:href="Rotation_8hpp.html" target="_top" xlink:title="Physics/Rotation.hpp">
<polygon fill="none" stroke="black" points="859.5,-224.5 859.5,-243.5 974.5,-243.5 974.5,-224.5 859.5,-224.5"/>
<text text-anchor="middle" x="917" y="-231.5" font-family="Helvetica,sans-Serif" font-size="10.00">Physics/Rotation.hpp</text>
</a>
</g>
</g>
<!-- Node1&#45;&gt;Node19 -->
<g id="edge29" class="edge"><title>Node1&#45;&gt;Node19</title>
<path fill="none" stroke="midnightblue" d="M884.19,-280.399C890.374,-271.842 898.303,-260.871 904.818,-251.857"/>
<polygon fill="midnightblue" stroke="midnightblue" points="907.722,-253.813 910.743,-243.658 902.049,-249.713 907.722,-253.813"/>
</g>
<!-- Node21 -->
<g id="node21" class="node"><title>Node21</title>
<g id="a_node21"><a xlink:href="Position_8hpp.html" target="_top" xlink:title="Physics/Position.hpp">
<polygon fill="none" stroke="black" points="438.5,-224.5 438.5,-243.5 551.5,-243.5 551.5,-224.5 438.5,-224.5"/>
<text text-anchor="middle" x="495" y="-231.5" font-family="Helvetica,sans-Serif" font-size="10.00">Physics/Position.hpp</text>
</a>
</g>
</g>
<!-- Node1&#45;&gt;Node21 -->
<g id="edge32" class="edge"><title>Node1&#45;&gt;Node21</title>
<path fill="none" stroke="midnightblue" d="M793.16,-281.809C723.307,-270.842 623.703,-255.205 559.2,-245.079"/>
<polygon fill="midnightblue" stroke="midnightblue" points="559.581,-241.596 549.159,-243.502 558.495,-248.511 559.581,-241.596"/>
</g>
<!-- Node23 -->
<g id="node23" class="node"><title>Node23</title>
<g id="a_node23"><a xlink:href="Velocity_8hpp.html" target="_top" xlink:title="Physics/Velocity.hpp">
<polygon fill="none" stroke="black" points="569.5,-224.5 569.5,-243.5 680.5,-243.5 680.5,-224.5 569.5,-224.5"/>
<text text-anchor="middle" x="625" y="-231.5" font-family="Helvetica,sans-Serif" font-size="10.00">Physics/Velocity.hpp</text>
</a>
</g>
</g>
<!-- Node1&#45;&gt;Node23 -->
<g id="edge35" class="edge"><title>Node1&#45;&gt;Node23</title>
<path fill="none" stroke="midnightblue" d="M815.306,-280.475C771.035,-269.896 711.186,-255.595 670.506,-245.874"/>
<polygon fill="midnightblue" stroke="midnightblue" points="671.138,-242.426 660.598,-243.506 669.511,-249.235 671.138,-242.426"/>
</g>
<!-- Node25 -->
<g id="node25" class="node"><title>Node25</title>
<g id="a_node25"><a xlink:href="Collision_8hpp.html" target="_top" xlink:title="Physics/Collision.hpp">
<polygon fill="none" stroke="black" points="352.5,-168.5 352.5,-187.5 467.5,-187.5 467.5,-168.5 352.5,-168.5"/>
<text text-anchor="middle" x="410" y="-175.5" font-family="Helvetica,sans-Serif" font-size="10.00">Physics/Collision.hpp</text>
</a>
</g>
</g>
<!-- Node1&#45;&gt;Node25 -->
<g id="edge38" class="edge"><title>Node1&#45;&gt;Node25</title>
<path fill="none" stroke="midnightblue" d="M793.215,-290.141C672.506,-282.914 456.251,-266.939 429,-244 415.669,-232.778 411.405,-212.761 410.178,-197.896"/>
<polygon fill="midnightblue" stroke="midnightblue" points="413.669,-197.6 409.732,-187.763 406.676,-197.907 413.669,-197.6"/>
</g>
<!-- Node27 -->
<g id="node27" class="node"><title>Node27</title>
<g id="a_node27"><a xlink:href="Sprite_8hpp.html" target="_top" xlink:title="Display/Sprite.hpp">
<polygon fill="none" stroke="black" points="699,-224.5 699,-243.5 803,-243.5 803,-224.5 699,-224.5"/>
<text text-anchor="middle" x="751" y="-231.5" font-family="Helvetica,sans-Serif" font-size="10.00">Display/Sprite.hpp</text>
</a>
</g>
</g>
<!-- Node1&#45;&gt;Node27 -->
<g id="edge42" class="edge"><title>Node1&#45;&gt;Node27</title>
<path fill="none" stroke="midnightblue" d="M844.851,-280.399C824.582,-270.595 797.759,-257.619 777.981,-248.052"/>
<polygon fill="midnightblue" stroke="midnightblue" points="779.424,-244.862 768.898,-243.658 776.376,-251.163 779.424,-244.862"/>
</g>
<!-- Node28 -->
<g id="node28" class="node"><title>Node28</title>
<g id="a_node28"><a xlink:href="Rect_8hpp.html" target="_top" xlink:title="Rect.hpp">
<polygon fill="none" stroke="black" points="785,-168.5 785,-187.5 843,-187.5 843,-168.5 785,-168.5"/>
<text text-anchor="middle" x="814" y="-175.5" font-family="Helvetica,sans-Serif" font-size="10.00">Rect.hpp</text>
</a>
</g>
</g>
<!-- Node1&#45;&gt;Node28 -->
<g id="edge61" class="edge"><title>Node1&#45;&gt;Node28</title>
<path fill="none" stroke="midnightblue" d="M866.643,-280.337C855.685,-259.243 835.091,-219.6 823.168,-196.648"/>
<polygon fill="midnightblue" stroke="midnightblue" points="826.219,-194.93 818.504,-187.669 820.008,-198.157 826.219,-194.93"/>
</g>
<!-- Node30 -->
<g id="node30" class="node"><title>Node30</title>
<g id="a_node30"><a xlink:href="Text_8hpp.html" target="_top" xlink:title="Display/Text.hpp">
<polygon fill="none" stroke="black" points="993,-224.5 993,-243.5 1087,-243.5 1087,-224.5 993,-224.5"/>
<text text-anchor="middle" x="1040" y="-231.5" font-family="Helvetica,sans-Serif" font-size="10.00">Display/Text.hpp</text>
</a>
</g>
</g>
<!-- Node1&#45;&gt;Node30 -->
<g id="edge49" class="edge"><title>Node1&#45;&gt;Node30</title>
<path fill="none" stroke="midnightblue" d="M913.34,-280.399C941.565,-270.283 979.206,-256.791 1006.1,-247.149"/>
<polygon fill="midnightblue" stroke="midnightblue" points="1007.61,-250.327 1015.85,-243.658 1005.25,-243.737 1007.61,-250.327"/>
</g>
<!-- Node33 -->
<g id="node33" class="node"><title>Node33</title>
<g id="a_node33"><a xlink:href="EnemiesController_8hpp.html" target="_top" xlink:title="GameLogic/EnemiesController.hpp">
<polygon fill="none" stroke="black" points="1417,-224.5 1417,-243.5 1599,-243.5 1599,-224.5 1417,-224.5"/>
<text text-anchor="middle" x="1508" y="-231.5" font-family="Helvetica,sans-Serif" font-size="10.00">GameLogic/EnemiesController.hpp</text>
</a>
</g>
</g>
<!-- Node1&#45;&gt;Node33 -->
<g id="edge56" class="edge"><title>Node1&#45;&gt;Node33</title>
<path fill="none" stroke="midnightblue" d="M954.618,-286.934C1069.89,-276.116 1281.72,-256.236 1407.21,-244.459"/>
<polygon fill="midnightblue" stroke="midnightblue" points="1407.58,-247.94 1417.21,-243.521 1406.93,-240.97 1407.58,-247.94"/>
</g>
<!-- Node34 -->
<g id="node34" class="node"><title>Node34</title>
<g id="a_node34"><a xlink:href="Animator_8hpp.html" target="_top" xlink:title="Animator.hpp">
<polygon fill="none" stroke="black" points="1105.5,-224.5 1105.5,-243.5 1186.5,-243.5 1186.5,-224.5 1105.5,-224.5"/>
<text text-anchor="middle" x="1146" y="-231.5" font-family="Helvetica,sans-Serif" font-size="10.00">Animator.hpp</text>
</a>
</g>
</g>
<!-- Node1&#45;&gt;Node34 -->
<g id="edge62" class="edge"><title>Node1&#45;&gt;Node34</title>
<path fill="none" stroke="midnightblue" d="M938.116,-280.475C986.783,-269.829 1052.68,-255.413 1097.14,-245.689"/>
<polygon fill="midnightblue" stroke="midnightblue" points="1098.09,-249.063 1107.11,-243.506 1096.6,-242.224 1098.09,-249.063"/>
</g>
<!-- Node35 -->
<g id="node35" class="node"><title>Node35</title>
<g id="a_node35"><a xlink:href="Health_8hpp.html" target="_top" xlink:title="Health.hpp">
<polygon fill="none" stroke="black" points="1253.5,-168.5 1253.5,-187.5 1322.5,-187.5 1322.5,-168.5 1253.5,-168.5"/>
<text text-anchor="middle" x="1288" y="-175.5" font-family="Helvetica,sans-Serif" font-size="10.00">Health.hpp</text>
</a>
</g>
</g>
<!-- Node1&#45;&gt;Node35 -->
<g id="edge67" class="edge"><title>Node1&#45;&gt;Node35</title>
<path fill="none" stroke="midnightblue" d="M954.83,-291.85C1021.4,-287.328 1117.16,-275.362 1195,-244 1224.36,-232.169 1253.51,-209.578 1271.14,-194.397"/>
<polygon fill="midnightblue" stroke="midnightblue" points="1273.64,-196.861 1278.82,-187.62 1269.01,-191.612 1273.64,-196.861"/>
</g>
<!-- Node3 -->
<g id="node3" class="node"><title>Node3</title>
<polygon fill="none" stroke="#bfbfbf" points="1232.5,-0.5 1232.5,-19.5 1295.5,-19.5 1295.5,-0.5 1232.5,-0.5"/>
<text text-anchor="middle" x="1264" y="-7.5" font-family="Helvetica,sans-Serif" font-size="10.00">typeindex</text>
</g>
<!-- Node2&#45;&gt;Node3 -->
<g id="edge2" class="edge"><title>Node2&#45;&gt;Node3</title>
<path fill="none" stroke="midnightblue" d="M1324.29,-224.132C1328.52,-211.584 1334.86,-187.953 1331,-168 1325.91,-141.665 1296.9,-80.5092 1286,-56 1281.93,-46.8483 1277.07,-36.8231 1272.95,-28.5626"/>
<polygon fill="midnightblue" stroke="midnightblue" points="1276.03,-26.8933 1268.41,-19.5393 1269.78,-30.0444 1276.03,-26.8933"/>
</g>
<!-- Node4 -->
<g id="node4" class="node"><title>Node4</title>
<g id="a_node4"><a xlink:href="IGameLogic_8hpp.html" target="_top" xlink:title="IGameLogic.hpp">
<polygon fill="none" stroke="black" points="1330,-112.5 1330,-131.5 1424,-131.5 1424,-112.5 1330,-112.5"/>
<text text-anchor="middle" x="1377" y="-119.5" font-family="Helvetica,sans-Serif" font-size="10.00">IGameLogic.hpp</text>
</a>
</g>
</g>
<!-- Node2&#45;&gt;Node4 -->
<g id="edge3" class="edge"><title>Node2&#45;&gt;Node4</title>
<path fill="none" stroke="midnightblue" d="M1332.7,-224.376C1342.9,-216.188 1357.25,-202.938 1365,-188 1372.51,-173.515 1375.38,-155.069 1376.45,-141.53"/>
<polygon fill="midnightblue" stroke="midnightblue" points="1379.94,-141.678 1376.98,-131.506 1372.95,-141.305 1379.94,-141.678"/>
</g>
<!-- Node6 -->
<g id="node6" class="node"><title>Node6</title>
<g id="a_node6"><a xlink:href="Timer_8hpp.html" target="_top" xlink:title="Timer.hpp">
<polygon fill="none" stroke="black" points="1455,-168.5 1455,-187.5 1519,-187.5 1519,-168.5 1455,-168.5"/>
<text text-anchor="middle" x="1487" y="-175.5" font-family="Helvetica,sans-Serif" font-size="10.00">Timer.hpp</text>
</a>
</g>
</g>
<!-- Node2&#45;&gt;Node6 -->
<g id="edge7" class="edge"><title>Node2&#45;&gt;Node6</title>
<path fill="none" stroke="midnightblue" d="M1347.3,-224.444C1375.35,-215.32 1419.94,-200.813 1451.18,-190.651"/>
<polygon fill="midnightblue" stroke="midnightblue" points="1452.39,-193.938 1460.82,-187.516 1450.23,-187.282 1452.39,-193.938"/>
</g>
<!-- Node4&#45;&gt;Node3 -->
<g id="edge4" class="edge"><title>Node4&#45;&gt;Node3</title>
<path fill="none" stroke="midnightblue" d="M1369.38,-112.317C1358.09,-99.5923 1336.09,-75.2965 1316,-56 1305.24,-45.6622 1292.59,-34.6911 1282.46,-26.1699"/>
<polygon fill="midnightblue" stroke="midnightblue" points="1284.56,-23.3684 1274.64,-19.6559 1280.08,-28.7462 1284.56,-23.3684"/>
</g>
<!-- Node5 -->
<g id="node5" class="node"><title>Node5</title>
<g id="a_node5"><a xlink:href="IComponent_8hpp.html" target="_top" xlink:title="IComponent.hpp">
<polygon fill="none" stroke="black" points="1026,-56.5 1026,-75.5 1122,-75.5 1122,-56.5 1026,-56.5"/>
<text text-anchor="middle" x="1074" y="-63.5" font-family="Helvetica,sans-Serif" font-size="10.00">IComponent.hpp</text>
</a>
</g>
</g>
<!-- Node4&#45;&gt;Node5 -->
<g id="edge5" class="edge"><title>Node4&#45;&gt;Node5</title>
<path fill="none" stroke="midnightblue" d="M1329.99,-112.622C1276.6,-103.106 1189.44,-87.5736 1131.9,-77.3193"/>
<polygon fill="midnightblue" stroke="midnightblue" points="1132.33,-73.8406 1121.87,-75.5317 1131.1,-80.732 1132.33,-73.8406"/>
</g>
<!-- Node5&#45;&gt;Node3 -->
<g id="edge6" class="edge"><title>Node5&#45;&gt;Node3</title>
<path fill="none" stroke="midnightblue" d="M1104.11,-56.4435C1136.63,-47.2011 1188.58,-32.4356 1224.39,-22.2572"/>
<polygon fill="midnightblue" stroke="midnightblue" points="1225.37,-25.617 1234.03,-19.5164 1223.46,-18.8837 1225.37,-25.617"/>
</g>
<!-- Node6&#45;&gt;Node3 -->
<g id="edge9" class="edge"><title>Node6&#45;&gt;Node3</title>
<path fill="none" stroke="midnightblue" d="M1492.74,-168.24C1500.62,-154.986 1512.58,-129.528 1501,-112 1457.56,-46.2719 1361.69,-23.1773 1306.11,-15.165"/>
<polygon fill="midnightblue" stroke="midnightblue" points="1306.27,-11.6548 1295.89,-13.7964 1305.34,-18.5928 1306.27,-11.6548"/>
</g>
<!-- Node6&#45;&gt;Node4 -->
<g id="edge10" class="edge"><title>Node6&#45;&gt;Node4</title>
<path fill="none" stroke="midnightblue" d="M1469.33,-168.324C1451.61,-159.625 1424.1,-146.12 1403.71,-136.113"/>
<polygon fill="midnightblue" stroke="midnightblue" points="1405.15,-132.919 1394.63,-131.655 1402.06,-139.203 1405.15,-132.919"/>
</g>
<!-- Node7 -->
<g id="node7" class="node"><title>Node7</title>
<polygon fill="none" stroke="#bfbfbf" points="1442,-112.5 1442,-131.5 1492,-131.5 1492,-112.5 1442,-112.5"/>
<text text-anchor="middle" x="1467" y="-119.5" font-family="Helvetica,sans-Serif" font-size="10.00">chrono</text>
</g>
<!-- Node6&#45;&gt;Node7 -->
<g id="edge8" class="edge"><title>Node6&#45;&gt;Node7</title>
<path fill="none" stroke="midnightblue" d="M1483.7,-168.083C1481.02,-160.849 1477.15,-150.409 1473.81,-141.397"/>
<polygon fill="midnightblue" stroke="midnightblue" points="1477,-139.913 1470.24,-131.751 1470.43,-142.344 1477,-139.913"/>
</g>
<!-- Node9 -->
<g id="node9" class="node"><title>Node9</title>
<g id="a_node9"><a xlink:href="IEntityConstructor_8hpp.html" target="_top" xlink:title="IEntityConstructor.hpp">
<polygon fill="none" stroke="black" points="206,-168.5 206,-187.5 328,-187.5 328,-168.5 206,-168.5"/>
<text text-anchor="middle" x="267" y="-175.5" font-family="Helvetica,sans-Serif" font-size="10.00">IEntityConstructor.hpp</text>
</a>
</g>
</g>
<!-- Node8&#45;&gt;Node9 -->
<g id="edge12" class="edge"><title>Node8&#45;&gt;Node9</title>
<path fill="none" stroke="midnightblue" d="M292.881,-224.083C288.592,-216.613 282.342,-205.724 277.058,-196.52"/>
<polygon fill="midnightblue" stroke="midnightblue" points="280.038,-194.681 272.024,-187.751 273.967,-198.166 280.038,-194.681"/>
</g>
<!-- Node10 -->
<g id="node10" class="node"><title>Node10</title>
<polygon fill="none" stroke="#bfbfbf" points="193.5,-56.5 193.5,-75.5 250.5,-75.5 250.5,-56.5 193.5,-56.5"/>
<text text-anchor="middle" x="222" y="-63.5" font-family="Helvetica,sans-Serif" font-size="10.00">memory</text>
</g>
<!-- Node9&#45;&gt;Node10 -->
<g id="edge13" class="edge"><title>Node9&#45;&gt;Node10</title>
<path fill="none" stroke="midnightblue" d="M263.469,-168.368C256.141,-150.456 239.15,-108.923 229.342,-84.9482"/>
<polygon fill="midnightblue" stroke="midnightblue" points="232.54,-83.5217 225.515,-75.5914 226.062,-86.1721 232.54,-83.5217"/>
</g>
<!-- Node11 -->
<g id="node11" class="node"><title>Node11</title>
<polygon fill="none" stroke="#bfbfbf" points="565,-0.5 565,-19.5 609,-19.5 609,-0.5 565,-0.5"/>
<text text-anchor="middle" x="587" y="-7.5" font-family="Helvetica,sans-Serif" font-size="10.00">string</text>
</g>
<!-- Node9&#45;&gt;Node11 -->
<g id="edge14" class="edge"><title>Node9&#45;&gt;Node11</title>
<path fill="none" stroke="midnightblue" d="M322.585,-168.47C356.442,-161.759 399.808,-150.388 435,-132 481.402,-107.755 483.787,-88.2869 525,-56 538.48,-45.4395 554.083,-34.1192 566.264,-25.4744"/>
<polygon fill="midnightblue" stroke="midnightblue" points="568.295,-28.3253 574.45,-19.7017 564.261,-22.6047 568.295,-28.3253"/>
</g>
<!-- Node12 -->
<g id="node12" class="node"><title>Node12</title>
<g id="a_node12"><a xlink:href="Entity_8hpp.html" target="_top" xlink:title="Entity.hpp">
<polygon fill="none" stroke="black" points="268.5,-56.5 268.5,-75.5 331.5,-75.5 331.5,-56.5 268.5,-56.5"/>
<text text-anchor="middle" x="300" y="-63.5" font-family="Helvetica,sans-Serif" font-size="10.00">Entity.hpp</text>
</a>
</g>
</g>
<!-- Node9&#45;&gt;Node12 -->
<g id="edge15" class="edge"><title>Node9&#45;&gt;Node12</title>
<path fill="none" stroke="midnightblue" d="M268.098,-168.435C269.847,-155.856 273.724,-131.741 280,-112 282.914,-102.834 287.129,-93.0337 290.939,-84.9267"/>
<polygon fill="midnightblue" stroke="midnightblue" points="294.183,-86.261 295.42,-75.7387 287.891,-83.1926 294.183,-86.261"/>
</g>
<!-- Node13 -->
<g id="node13" class="node"><title>Node13</title>
<g id="a_node13"><a xlink:href="IEntityManager_8hpp.html" target="_top" xlink:title="IEntityManager.hpp">
<polygon fill="none" stroke="black" points="87,-112.5 87,-131.5 195,-131.5 195,-112.5 87,-112.5"/>
<text text-anchor="middle" x="141" y="-119.5" font-family="Helvetica,sans-Serif" font-size="10.00">IEntityManager.hpp</text>
</a>
</g>
</g>
<!-- Node9&#45;&gt;Node13 -->
<g id="edge16" class="edge"><title>Node9&#45;&gt;Node13</title>
<path fill="none" stroke="midnightblue" d="M247.035,-168.444C226.391,-159.596 193.937,-145.687 170.368,-135.586"/>
<polygon fill="midnightblue" stroke="midnightblue" points="171.442,-132.239 160.872,-131.516 168.684,-138.673 171.442,-132.239"/>
</g>
<!-- Node18 -->
<g id="node18" class="node"><title>Node18</title>
<g id="a_node18"><a xlink:href="IComponentManager_8hpp.html" target="_top" xlink:title="IComponentManager.hpp">
<polygon fill="none" stroke="black" points="289.5,-112.5 289.5,-131.5 426.5,-131.5 426.5,-112.5 289.5,-112.5"/>
<text text-anchor="middle" x="358" y="-119.5" font-family="Helvetica,sans-Serif" font-size="10.00">IComponentManager.hpp</text>
</a>
</g>
</g>
<!-- Node9&#45;&gt;Node18 -->
<g id="edge24" class="edge"><title>Node9&#45;&gt;Node18</title>
<path fill="none" stroke="midnightblue" d="M281.621,-168.324C295.949,-159.822 318.013,-146.729 334.749,-136.797"/>
<polygon fill="midnightblue" stroke="midnightblue" points="336.602,-139.768 343.416,-131.655 333.03,-133.748 336.602,-139.768"/>
</g>
<!-- Node13&#45;&gt;Node10 -->
<g id="edge17" class="edge"><title>Node13&#45;&gt;Node10</title>
<path fill="none" stroke="midnightblue" d="M154.014,-112.324C166.532,-103.979 185.682,-91.2122 200.471,-81.3524"/>
<polygon fill="midnightblue" stroke="midnightblue" points="202.639,-84.1137 209.018,-75.6545 198.756,-78.2894 202.639,-84.1137"/>
</g>
<!-- Node13&#45;&gt;Node12 -->
<g id="edge19" class="edge"><title>Node13&#45;&gt;Node12</title>
<path fill="none" stroke="midnightblue" d="M166.194,-112.444C192.943,-103.359 235.403,-88.9388 265.305,-78.7831"/>
<polygon fill="midnightblue" stroke="midnightblue" points="266.581,-82.0464 274.924,-75.5164 264.329,-75.4182 266.581,-82.0464"/>
</g>
<!-- Node14 -->
<g id="node14" class="node"><title>Node14</title>
<polygon fill="none" stroke="#bfbfbf" points="128.5,-56.5 128.5,-75.5 175.5,-75.5 175.5,-56.5 128.5,-56.5"/>
<text text-anchor="middle" x="152" y="-63.5" font-family="Helvetica,sans-Serif" font-size="10.00">vector</text>
</g>
<!-- Node13&#45;&gt;Node14 -->
<g id="edge18" class="edge"><title>Node13&#45;&gt;Node14</title>
<path fill="none" stroke="midnightblue" d="M142.816,-112.083C144.274,-104.927 146.371,-94.6353 148.193,-85.6911"/>
<polygon fill="midnightblue" stroke="midnightblue" points="151.651,-86.2485 150.217,-75.7511 144.792,-84.8512 151.651,-86.2485"/>
</g>
<!-- Node15 -->
<g id="node15" class="node"><title>Node15</title>
<g id="a_node15"><a xlink:href="PacketManager_8hpp.html" target="_top" xlink:title="PacketManager.hpp">
<polygon fill="none" stroke="black" points="0,-56.5 0,-75.5 110,-75.5 110,-56.5 0,-56.5"/>
<text text-anchor="middle" x="55" y="-63.5" font-family="Helvetica,sans-Serif" font-size="10.00">PacketManager.hpp</text>
</a>
</g>
</g>
<!-- Node13&#45;&gt;Node15 -->
<g id="edge20" class="edge"><title>Node13&#45;&gt;Node15</title>
<path fill="none" stroke="midnightblue" d="M127.183,-112.324C113.767,-103.9 93.1759,-90.9709 77.4144,-81.0741"/>
<polygon fill="midnightblue" stroke="midnightblue" points="79.1132,-78.0081 68.7831,-75.6545 75.3908,-83.9364 79.1132,-78.0081"/>
</g>
<!-- Node15&#45;&gt;Node11 -->
<g id="edge21" class="edge"><title>Node15&#45;&gt;Node11</title>
<path fill="none" stroke="midnightblue" d="M110.138,-57.0898C113.134,-56.7088 116.103,-56.3428 119,-56 282.018,-36.7098 477.73,-19.9564 554.163,-13.6588"/>
<polygon fill="midnightblue" stroke="midnightblue" points="554.876,-17.1122 564.556,-12.8065 554.303,-10.1356 554.876,-17.1122"/>
</g>
<!-- Node16 -->
<g id="node16" class="node"><title>Node16</title>
<polygon fill="none" stroke="#bfbfbf" points="234,-0.5 234,-19.5 264,-19.5 264,-0.5 234,-0.5"/>
<text text-anchor="middle" x="249" y="-7.5" font-family="Helvetica,sans-Serif" font-size="10.00">list</text>
</g>
<!-- Node15&#45;&gt;Node16 -->
<g id="edge22" class="edge"><title>Node15&#45;&gt;Node16</title>
<path fill="none" stroke="midnightblue" d="M85.7399,-56.4435C123.889,-45.8247 188.23,-27.9153 223.678,-18.0485"/>
<polygon fill="midnightblue" stroke="midnightblue" points="224.995,-21.315 233.69,-15.2616 223.117,-14.5714 224.995,-21.315"/>
</g>
<!-- Node17 -->
<g id="node17" class="node"><title>Node17</title>
<g id="a_node17"><a xlink:href="Input_8hpp.html" target="_top" xlink:title="Render/Input.hpp">
<polygon fill="none" stroke="black" points="6,-0.5 6,-19.5 104,-19.5 104,-0.5 6,-0.5"/>
<text text-anchor="middle" x="55" y="-7.5" font-family="Helvetica,sans-Serif" font-size="10.00">Render/Input.hpp</text>
</a>
</g>
</g>
<!-- Node15&#45;&gt;Node17 -->
<g id="edge23" class="edge"><title>Node15&#45;&gt;Node17</title>
<path fill="none" stroke="midnightblue" d="M55,-56.083C55,-49.0059 55,-38.8611 55,-29.9865"/>
<polygon fill="midnightblue" stroke="midnightblue" points="58.5001,-29.751 55,-19.7511 51.5001,-29.7511 58.5001,-29.751"/>
</g>
<!-- Node18&#45;&gt;Node5 -->
<g id="edge27" class="edge"><title>Node18&#45;&gt;Node5</title>
<path fill="none" stroke="midnightblue" d="M426.653,-115.822C566.888,-105.246 884.044,-81.3263 1015.36,-71.4224"/>
<polygon fill="midnightblue" stroke="midnightblue" points="1015.91,-74.8914 1025.61,-70.6492 1015.38,-67.9112 1015.91,-74.8914"/>
</g>
<!-- Node18&#45;&gt;Node10 -->
<g id="edge26" class="edge"><title>Node18&#45;&gt;Node10</title>
<path fill="none" stroke="midnightblue" d="M336.45,-112.444C313.969,-103.517 278.512,-89.4387 253.02,-79.3168"/>
<polygon fill="midnightblue" stroke="midnightblue" points="254.035,-75.9539 243.449,-75.5164 251.451,-82.4598 254.035,-75.9539"/>
</g>
<!-- Node18&#45;&gt;Node12 -->
<g id="edge28" class="edge"><title>Node18&#45;&gt;Node12</title>
<path fill="none" stroke="midnightblue" d="M348.681,-112.324C340.107,-104.341 327.188,-92.3128 316.812,-82.6529"/>
<polygon fill="midnightblue" stroke="midnightblue" points="319.192,-80.0865 309.488,-75.8339 314.422,-85.2098 319.192,-80.0865"/>
</g>
<!-- Node18&#45;&gt;Node16 -->
<g id="edge25" class="edge"><title>Node18&#45;&gt;Node16</title>
<path fill="none" stroke="midnightblue" d="M357.787,-112.408C357.021,-98.9194 353.729,-72.605 340,-56 323.091,-35.5485 294.595,-23.5878 273.989,-17.2047"/>
<polygon fill="midnightblue" stroke="midnightblue" points="274.893,-13.8228 264.315,-14.4331 272.964,-20.552 274.893,-13.8228"/>
</g>
<!-- Node20 -->
<g id="node20" class="node"><title>Node20</title>
<g id="a_node20"><a xlink:href="IPhysics_8hpp.html" target="_top" xlink:title="IPhysics.hpp">
<polygon fill="none" stroke="black" points="577.5,-112.5 577.5,-131.5 652.5,-131.5 652.5,-112.5 577.5,-112.5"/>
<text text-anchor="middle" x="615" y="-119.5" font-family="Helvetica,sans-Serif" font-size="10.00">IPhysics.hpp</text>
</a>
</g>
</g>
<!-- Node19&#45;&gt;Node20 -->
<g id="edge30" class="edge"><title>Node19&#45;&gt;Node20</title>
<path fill="none" stroke="midnightblue" d="M910.964,-224.191C900.663,-209.903 878.239,-181.879 852,-168 791.861,-136.191 712.615,-126.631 662.726,-123.892"/>
<polygon fill="midnightblue" stroke="midnightblue" points="662.699,-120.387 652.543,-123.406 662.365,-127.379 662.699,-120.387"/>
</g>
<!-- Node20&#45;&gt;Node5 -->
<g id="edge31" class="edge"><title>Node20&#45;&gt;Node5</title>
<path fill="none" stroke="midnightblue" d="M652.562,-116.581C732.508,-107.176 919.992,-85.1185 1015.64,-73.8656"/>
<polygon fill="midnightblue" stroke="midnightblue" points="1016.2,-77.3242 1025.72,-72.6797 1015.38,-70.3721 1016.2,-77.3242"/>
</g>
<!-- Node21&#45;&gt;Node20 -->
<g id="edge34" class="edge"><title>Node21&#45;&gt;Node20</title>
<path fill="none" stroke="midnightblue" d="M504.416,-224.368C524.658,-205.814 572.55,-161.913 598.159,-138.438"/>
<polygon fill="midnightblue" stroke="midnightblue" points="600.621,-140.929 605.628,-131.591 595.891,-135.769 600.621,-140.929"/>
</g>
<!-- Node22 -->
<g id="node22" class="node"><title>Node22</title>
<polygon fill="none" stroke="#bfbfbf" points="485,-168.5 485,-187.5 527,-187.5 527,-168.5 485,-168.5"/>
<text text-anchor="middle" x="506" y="-175.5" font-family="Helvetica,sans-Serif" font-size="10.00">utility</text>
</g>
<!-- Node21&#45;&gt;Node22 -->
<g id="edge33" class="edge"><title>Node21&#45;&gt;Node22</title>
<path fill="none" stroke="midnightblue" d="M496.816,-224.083C498.274,-216.927 500.371,-206.635 502.193,-197.691"/>
<polygon fill="midnightblue" stroke="midnightblue" points="505.651,-198.248 504.217,-187.751 498.792,-196.851 505.651,-198.248"/>
</g>
<!-- Node24 -->
<g id="node24" class="node"><title>Node24</title>
<g id="a_node24"><a xlink:href="Motion_8hpp.html" target="_top" xlink:title="Motion.hpp">
<polygon fill="none" stroke="black" points="583,-168.5 583,-187.5 653,-187.5 653,-168.5 583,-168.5"/>
<text text-anchor="middle" x="618" y="-175.5" font-family="Helvetica,sans-Serif" font-size="10.00">Motion.hpp</text>
</a>
</g>
</g>
<!-- Node23&#45;&gt;Node24 -->
<g id="edge36" class="edge"><title>Node23&#45;&gt;Node24</title>
<path fill="none" stroke="midnightblue" d="M623.844,-224.083C622.916,-216.927 621.582,-206.635 620.423,-197.691"/>
<polygon fill="midnightblue" stroke="midnightblue" points="623.891,-197.218 619.134,-187.751 616.949,-198.118 623.891,-197.218"/>
</g>
<!-- Node24&#45;&gt;Node20 -->
<g id="edge37" class="edge"><title>Node24&#45;&gt;Node20</title>
<path fill="none" stroke="midnightblue" d="M617.505,-168.083C617.111,-161.006 616.548,-150.861 616.055,-141.986"/>
<polygon fill="midnightblue" stroke="midnightblue" points="619.536,-141.542 615.486,-131.751 612.546,-141.93 619.536,-141.542"/>
</g>
<!-- Node25&#45;&gt;Node11 -->
<g id="edge39" class="edge"><title>Node25&#45;&gt;Node11</title>
<path fill="none" stroke="midnightblue" d="M422.62,-168.198C434.859,-159.473 453.762,-145.494 469,-132 508.694,-96.8496 551.142,-51.0368 572.68,-27.1258"/>
<polygon fill="midnightblue" stroke="midnightblue" points="575.324,-29.4197 579.387,-19.635 570.109,-24.7501 575.324,-29.4197"/>
</g>
<!-- Node25&#45;&gt;Node20 -->
<g id="edge41" class="edge"><title>Node25&#45;&gt;Node20</title>
<path fill="none" stroke="midnightblue" d="M442.483,-168.444C477.72,-159.162 534.104,-144.309 572.759,-134.127"/>
<polygon fill="midnightblue" stroke="midnightblue" points="573.891,-137.448 582.669,-131.516 572.107,-130.679 573.891,-137.448"/>
</g>
<!-- Node26 -->
<g id="node26" class="node"><title>Node26</title>
<polygon fill="none" stroke="#bfbfbf" points="521,-112.5 521,-131.5 559,-131.5 559,-112.5 521,-112.5"/>
<text text-anchor="middle" x="540" y="-119.5" font-family="Helvetica,sans-Serif" font-size="10.00">map</text>
</g>
<!-- Node25&#45;&gt;Node26 -->
<g id="edge40" class="edge"><title>Node25&#45;&gt;Node26</title>
<path fill="none" stroke="midnightblue" d="M430.599,-168.444C452.371,-159.4 486.874,-145.068 511.304,-134.92"/>
<polygon fill="midnightblue" stroke="midnightblue" points="512.877,-138.057 520.769,-130.988 510.191,-131.592 512.877,-138.057"/>
</g>
<!-- Node27&#45;&gt;Node3 -->
<g id="edge44" class="edge"><title>Node27&#45;&gt;Node3</title>
<path fill="none" stroke="midnightblue" d="M749.41,-224.457C747.416,-211.037 745.613,-184.814 758,-168 832.388,-67.0309 896.975,-92.3641 1017,-56 1087.49,-34.6434 1172.54,-21.8742 1222.22,-15.6608"/>
<polygon fill="midnightblue" stroke="midnightblue" points="1222.76,-19.1205 1232.26,-14.4337 1221.91,-12.1722 1222.76,-19.1205"/>
</g>
<!-- Node27&#45;&gt;Node11 -->
<g id="edge43" class="edge"><title>Node27&#45;&gt;Node11</title>
<path fill="none" stroke="midnightblue" d="M740.699,-224.393C730.815,-215.813 715.831,-201.938 705,-188 681.052,-157.181 682.342,-144.678 661,-112 641.003,-81.3818 615.331,-47.3875 600.078,-27.6774"/>
<polygon fill="midnightblue" stroke="midnightblue" points="602.765,-25.4317 593.861,-19.69 597.241,-29.7312 602.765,-25.4317"/>
</g>
<!-- Node27&#45;&gt;Node28 -->
<g id="edge45" class="edge"><title>Node27&#45;&gt;Node28</title>
<path fill="none" stroke="midnightblue" d="M761.122,-224.324C770.526,-216.263 784.744,-204.077 796.069,-194.369"/>
<polygon fill="midnightblue" stroke="midnightblue" points="798.379,-196.999 803.694,-187.834 793.823,-191.684 798.379,-196.999"/>
</g>
<!-- Node29 -->
<g id="node29" class="node"><title>Node29</title>
<g id="a_node29"><a xlink:href="IDisplay_8hpp.html" target="_top" xlink:title="IDisplay.hpp">
<polygon fill="none" stroke="black" points="1093.5,-112.5 1093.5,-131.5 1166.5,-131.5 1166.5,-112.5 1093.5,-112.5"/>
<text text-anchor="middle" x="1130" y="-119.5" font-family="Helvetica,sans-Serif" font-size="10.00">IDisplay.hpp</text>
</a>
</g>
</g>
<!-- Node27&#45;&gt;Node29 -->
<g id="edge46" class="edge"><title>Node27&#45;&gt;Node29</title>
<path fill="none" stroke="midnightblue" d="M751.616,-224.191C753.125,-209.902 758.304,-181.877 776,-168 822.74,-131.346 998.072,-124.355 1083.13,-123.154"/>
<polygon fill="midnightblue" stroke="midnightblue" points="1083.33,-126.652 1093.29,-123.033 1083.25,-119.653 1083.33,-126.652"/>
</g>
<!-- Node29&#45;&gt;Node3 -->
<g id="edge47" class="edge"><title>Node29&#45;&gt;Node3</title>
<path fill="none" stroke="midnightblue" d="M1140.51,-112.368C1163.22,-93.7334 1217.06,-49.5324 1245.56,-26.1338"/>
<polygon fill="midnightblue" stroke="midnightblue" points="1248.03,-28.6416 1253.53,-19.5914 1243.58,-23.2311 1248.03,-28.6416"/>
</g>
<!-- Node29&#45;&gt;Node5 -->
<g id="edge48" class="edge"><title>Node29&#45;&gt;Node5</title>
<path fill="none" stroke="midnightblue" d="M1121,-112.324C1112.81,-104.42 1100.49,-92.5482 1090.53,-82.9377"/>
<polygon fill="midnightblue" stroke="midnightblue" points="1092.79,-80.2558 1083.16,-75.8339 1087.93,-85.2947 1092.79,-80.2558"/>
</g>
<!-- Node30&#45;&gt;Node3 -->
<g id="edge50" class="edge"><title>Node30&#45;&gt;Node3</title>
<path fill="none" stroke="midnightblue" d="M1041.08,-224.375C1044.15,-203.029 1054.69,-146.935 1084,-112 1105.4,-86.4875 1190.61,-44.7821 1235.69,-23.8447"/>
<polygon fill="midnightblue" stroke="midnightblue" points="1237.31,-26.9521 1244.92,-19.5858 1234.38,-20.5955 1237.31,-26.9521"/>
</g>
<!-- Node30&#45;&gt;Node11 -->
<g id="edge51" class="edge"><title>Node30&#45;&gt;Node11</title>
<path fill="none" stroke="midnightblue" d="M1016.56,-224.339C993.7,-215.718 958.089,-201.815 928,-188 806.769,-132.34 666.84,-55.6217 611.416,-24.7168"/>
<polygon fill="midnightblue" stroke="midnightblue" points="612.805,-21.4839 602.369,-19.66 609.39,-27.5942 612.805,-21.4839"/>
</g>
<!-- Node31 -->
<g id="node31" class="node"><title>Node31</title>
<g id="a_node31"><a xlink:href="Color_8hpp.html" target="_top" xlink:title="Color.hpp">
<polygon fill="none" stroke="black" points="937,-168.5 937,-187.5 999,-187.5 999,-168.5 937,-168.5"/>
<text text-anchor="middle" x="968" y="-175.5" font-family="Helvetica,sans-Serif" font-size="10.00">Color.hpp</text>
</a>
</g>
</g>
<!-- Node30&#45;&gt;Node31 -->
<g id="edge52" class="edge"><title>Node30&#45;&gt;Node31</title>
<path fill="none" stroke="midnightblue" d="M1028.43,-224.324C1017.58,-216.185 1001.12,-203.839 988.117,-194.087"/>
<polygon fill="midnightblue" stroke="midnightblue" points="989.879,-191.034 979.779,-187.834 985.679,-196.634 989.879,-191.034"/>
</g>
<!-- Node32 -->
<g id="node32" class="node"><title>Node32</title>
<g id="a_node32"><a xlink:href="IUserInterface_8hpp.html" target="_top" xlink:title="IUserInterface.hpp">
<polygon fill="none" stroke="black" points="1131,-168.5 1131,-187.5 1235,-187.5 1235,-168.5 1131,-168.5"/>
<text text-anchor="middle" x="1183" y="-175.5" font-family="Helvetica,sans-Serif" font-size="10.00">IUserInterface.hpp</text>
</a>
</g>
</g>
<!-- Node30&#45;&gt;Node32 -->
<g id="edge53" class="edge"><title>Node30&#45;&gt;Node32</title>
<path fill="none" stroke="midnightblue" d="M1062.66,-224.444C1086.4,-215.478 1123.91,-201.314 1150.74,-191.183"/>
<polygon fill="midnightblue" stroke="midnightblue" points="1152.33,-194.324 1160.45,-187.516 1149.86,-187.775 1152.33,-194.324"/>
</g>
<!-- Node32&#45;&gt;Node3 -->
<g id="edge54" class="edge"><title>Node32&#45;&gt;Node3</title>
<path fill="none" stroke="midnightblue" d="M1187.35,-168.075C1200.22,-141.719 1238.2,-63.878 1255.38,-28.6608"/>
<polygon fill="midnightblue" stroke="midnightblue" points="1258.58,-30.0902 1259.82,-19.5681 1252.29,-27.0204 1258.58,-30.0902"/>
</g>
<!-- Node32&#45;&gt;Node29 -->
<g id="edge55" class="edge"><title>Node32&#45;&gt;Node29</title>
<path fill="none" stroke="midnightblue" d="M1174.25,-168.083C1166.53,-160.22 1155.1,-148.569 1145.78,-139.081"/>
<polygon fill="midnightblue" stroke="midnightblue" points="1148.09,-136.436 1138.59,-131.751 1143.1,-141.34 1148.09,-136.436"/>
</g>
<!-- Node33&#45;&gt;Node3 -->
<g id="edge57" class="edge"><title>Node33&#45;&gt;Node3</title>
<path fill="none" stroke="midnightblue" d="M1519.14,-224.377C1528.75,-216.191 1542.01,-202.942 1548,-188 1560.57,-156.636 1562.79,-143.275 1550,-112 1536.8,-79.7103 1525.72,-72.5225 1495,-56 1434.66,-23.5487 1354.25,-14.3028 1305.95,-11.7855"/>
<polygon fill="midnightblue" stroke="midnightblue" points="1306.01,-8.28454 1295.86,-11.3335 1305.7,-15.2775 1306.01,-8.28454"/>
</g>
<!-- Node33&#45;&gt;Node4 -->
<g id="edge60" class="edge"><title>Node33&#45;&gt;Node4</title>
<path fill="none" stroke="midnightblue" d="M1495.3,-224.488C1482.51,-215.758 1462.39,-201.574 1446,-188 1426.93,-172.205 1406.44,-152.522 1392.79,-138.978"/>
<polygon fill="midnightblue" stroke="midnightblue" points="1395.15,-136.387 1385.6,-131.789 1390.19,-141.336 1395.15,-136.387"/>
</g>
<!-- Node33&#45;&gt;Node6 -->
<g id="edge59" class="edge"><title>Node33&#45;&gt;Node6</title>
<path fill="none" stroke="midnightblue" d="M1504.53,-224.083C1501.69,-216.77 1497.57,-206.181 1494.04,-197.103"/>
<polygon fill="midnightblue" stroke="midnightblue" points="1497.29,-195.803 1490.4,-187.751 1490.77,-198.34 1497.29,-195.803"/>
</g>
<!-- Node33&#45;&gt;Node11 -->
<g id="edge58" class="edge"><title>Node33&#45;&gt;Node11</title>
<path fill="none" stroke="midnightblue" d="M1416.95,-224.543C1320.99,-215.244 1176.35,-200.026 1122,-188 1020.3,-165.494 717.636,-57.9681 618.689,-22.4298"/>
<polygon fill="midnightblue" stroke="midnightblue" points="619.826,-19.1194 609.232,-19.0294 617.458,-25.7065 619.826,-19.1194"/>
</g>
<!-- Node34&#45;&gt;Node3 -->
<g id="edge63" class="edge"><title>Node34&#45;&gt;Node3</title>
<path fill="none" stroke="midnightblue" d="M1186.53,-228.578C1284.28,-217.868 1525.17,-191.181 1528,-188 1571.07,-139.561 1522.22,-88.251 1466,-56 1415.76,-27.1799 1348.69,-16.8124 1305.91,-13.086"/>
<polygon fill="midnightblue" stroke="midnightblue" points="1306.09,-9.5895 1295.85,-12.2931 1305.54,-16.5679 1306.09,-9.5895"/>
</g>
<!-- Node34&#45;&gt;Node6 -->
<g id="edge65" class="edge"><title>Node34&#45;&gt;Node6</title>
<path fill="none" stroke="midnightblue" d="M1186.79,-226.54C1251.9,-216.23 1378.68,-196.153 1444.72,-185.696"/>
<polygon fill="midnightblue" stroke="midnightblue" points="1445.44,-189.124 1454.77,-184.103 1444.35,-182.211 1445.44,-189.124"/>
</g>
<!-- Node34&#45;&gt;Node28 -->
<g id="edge66" class="edge"><title>Node34&#45;&gt;Node28</title>
<path fill="none" stroke="midnightblue" d="M1105.35,-225.614C1102.19,-225.06 1099.04,-224.517 1096,-224 1009.44,-209.305 907.696,-193.407 853.193,-185.003"/>
<polygon fill="midnightblue" stroke="midnightblue" points="853.677,-181.536 843.261,-183.473 852.612,-188.454 853.677,-181.536"/>
</g>
<!-- Node34&#45;&gt;Node29 -->
<g id="edge64" class="edge"><title>Node34&#45;&gt;Node29</title>
<path fill="none" stroke="midnightblue" d="M1139.63,-224.232C1133.74,-215.532 1125.39,-201.572 1122,-188 1118.12,-172.489 1120.92,-154.405 1124.23,-141.255"/>
<polygon fill="midnightblue" stroke="midnightblue" points="1127.62,-142.111 1126.99,-131.535 1120.89,-140.196 1127.62,-142.111"/>
</g>
<!-- Node35&#45;&gt;Node3 -->
<g id="edge68" class="edge"><title>Node35&#45;&gt;Node3</title>
<path fill="none" stroke="midnightblue" d="M1286.71,-168.075C1282.93,-141.945 1271.84,-65.2106 1266.69,-29.577"/>
<polygon fill="midnightblue" stroke="midnightblue" points="1270.13,-28.9644 1265.24,-19.5681 1263.21,-29.9661 1270.13,-28.9644"/>
</g>
<!-- Node35&#45;&gt;Node4 -->
<g id="edge69" class="edge"><title>Node35&#45;&gt;Node4</title>
<path fill="none" stroke="midnightblue" d="M1302.3,-168.324C1316.18,-159.9 1337.49,-146.971 1353.8,-137.074"/>
<polygon fill="midnightblue" stroke="midnightblue" points="1356,-139.834 1362.74,-131.655 1352.37,-133.85 1356,-139.834"/>
</g>
</g>
</svg>
