<?xml version="1.0" encoding="UTF-8" standalone="no"?>
<!DOCTYPE svg PUBLIC "-//W3C//DTD SVG 1.1//EN"
 "http://www.w3.org/Graphics/SVG/1.1/DTD/svg11.dtd">
<!-- Generated by graphviz version 2.38.0 (20140413.2041)
 -->
<!-- Title: src/Components/GameLogic/EnemiesController.hpp Pages: 1 -->
<svg width="227pt" height="263pt"
 viewBox="0.00 0.00 227.34 263.00" xmlns="http://www.w3.org/2000/svg" xmlns:xlink="http://www.w3.org/1999/xlink">
<g id="graph0" class="graph" transform="scale(1 1) rotate(0) translate(4 259)">
<title>src/Components/GameLogic/EnemiesController.hpp</title>
<!-- Node1 -->
<g id="node1" class="node"><title>Node1</title>
<polygon fill="#bfbfbf" stroke="black" points="0.337473,-224.5 0.337473,-254.5 152.337,-254.5 152.337,-224.5 0.337473,-224.5"/>
<text text-anchor="start" x="8.33747" y="-242.5" font-family="Helvetica,sans-Serif" font-size="10.00">src/Components/GameLogic</text>
<text text-anchor="middle" x="76.3375" y="-231.5" font-family="Helvetica,sans-Serif" font-size="10.00">/EnemiesController.hpp</text>
</g>
<!-- Node2 -->
<g id="node2" class="node"><title>Node2</title>
<polygon fill="none" stroke="#bfbfbf" points="23.8375,-0.5 23.8375,-19.5 86.8375,-19.5 86.8375,-0.5 23.8375,-0.5"/>
<text text-anchor="middle" x="55.3375" y="-7.5" font-family="Helvetica,sans-Serif" font-size="10.00">typeindex</text>
</g>
<!-- Node1&#45;&gt;Node2 -->
<g id="edge1" class="edge"><title>Node1&#45;&gt;Node2</title>
<path fill="none" stroke="midnightblue" d="M46.6523,-224.34C32.5988,-215.918 17.2008,-203.774 9.33747,-188 -17.9946,-133.173 22.0075,-60.4411 43.3684,-27.9423"/>
<polygon fill="midnightblue" stroke="midnightblue" points="46.3447,-29.7895 49.0666,-19.5503 40.5535,-25.8573 46.3447,-29.7895"/>
</g>
<!-- Node3 -->
<g id="node3" class="node"><title>Node3</title>
<polygon fill="none" stroke="#bfbfbf" points="18.3375,-168.5 18.3375,-187.5 62.3375,-187.5 62.3375,-168.5 18.3375,-168.5"/>
<text text-anchor="middle" x="40.3375" y="-175.5" font-family="Helvetica,sans-Serif" font-size="10.00">string</text>
</g>
<!-- Node1&#45;&gt;Node3 -->
<g id="edge2" class="edge"><title>Node1&#45;&gt;Node3</title>
<path fill="none" stroke="midnightblue" d="M67.806,-224.399C62.7365,-216.021 56.2664,-205.327 50.8791,-196.423"/>
<polygon fill="midnightblue" stroke="midnightblue" points="53.747,-194.402 45.5758,-187.658 47.7579,-198.025 53.747,-194.402"/>
</g>
<!-- Node4 -->
<g id="node4" class="node"><title>Node4</title>
<g id="a_node4"><a xlink:href="Timer_8hpp.html" target="_top" xlink:title="Timer.hpp">
<polygon fill="none" stroke="black" points="80.3375,-168.5 80.3375,-187.5 144.337,-187.5 144.337,-168.5 80.3375,-168.5"/>
<text text-anchor="middle" x="112.337" y="-175.5" font-family="Helvetica,sans-Serif" font-size="10.00">Timer.hpp</text>
</a>
</g>
</g>
<!-- Node1&#45;&gt;Node4 -->
<g id="edge3" class="edge"><title>Node1&#45;&gt;Node4</title>
<path fill="none" stroke="midnightblue" d="M84.869,-224.399C89.9384,-216.021 96.4086,-205.327 101.796,-196.423"/>
<polygon fill="midnightblue" stroke="midnightblue" points="104.917,-198.025 107.099,-187.658 98.9279,-194.402 104.917,-198.025"/>
</g>
<!-- Node6 -->
<g id="node6" class="node"><title>Node6</title>
<g id="a_node6"><a xlink:href="IGameLogic_8hpp.html" target="_top" xlink:title="IGameLogic.hpp">
<polygon fill="none" stroke="black" points="125.337,-112.5 125.337,-131.5 219.337,-131.5 219.337,-112.5 125.337,-112.5"/>
<text text-anchor="middle" x="172.337" y="-119.5" font-family="Helvetica,sans-Serif" font-size="10.00">IGameLogic.hpp</text>
</a>
</g>
</g>
<!-- Node1&#45;&gt;Node6 -->
<g id="edge10" class="edge"><title>Node1&#45;&gt;Node6</title>
<path fill="none" stroke="midnightblue" d="M108.003,-224.36C123.7,-215.878 141.731,-203.675 153.337,-188 163.285,-174.565 168.044,-156.002 170.309,-142.152"/>
<polygon fill="midnightblue" stroke="midnightblue" points="173.831,-142.218 171.684,-131.843 166.893,-141.292 173.831,-142.218"/>
</g>
<!-- Node4&#45;&gt;Node2 -->
<g id="edge5" class="edge"><title>Node4&#45;&gt;Node2</title>
<path fill="none" stroke="midnightblue" d="M90.8549,-168.36C75.9459,-161.09 57.2267,-149.117 48.3375,-132 31.1885,-98.9783 41.0708,-53.8427 48.823,-29.0843"/>
<polygon fill="midnightblue" stroke="midnightblue" points="52.1636,-30.131 52.0302,-19.537 45.528,-27.9019 52.1636,-30.131"/>
</g>
<!-- Node5 -->
<g id="node5" class="node"><title>Node5</title>
<polygon fill="none" stroke="#bfbfbf" points="57.3375,-112.5 57.3375,-131.5 107.337,-131.5 107.337,-112.5 57.3375,-112.5"/>
<text text-anchor="middle" x="82.3375" y="-119.5" font-family="Helvetica,sans-Serif" font-size="10.00">chrono</text>
</g>
<!-- Node4&#45;&gt;Node5 -->
<g id="edge4" class="edge"><title>Node4&#45;&gt;Node5</title>
<path fill="none" stroke="midnightblue" d="M107.384,-168.083C103.233,-160.613 97.1844,-149.724 92.0707,-140.52"/>
<polygon fill="midnightblue" stroke="midnightblue" points="95.1152,-138.793 87.1992,-131.751 88.9961,-142.192 95.1152,-138.793"/>
</g>
<!-- Node4&#45;&gt;Node6 -->
<g id="edge6" class="edge"><title>Node4&#45;&gt;Node6</title>
<path fill="none" stroke="midnightblue" d="M121.978,-168.324C130.847,-160.341 144.212,-148.313 154.945,-138.653"/>
<polygon fill="midnightblue" stroke="midnightblue" points="157.43,-141.125 162.522,-131.834 152.748,-135.922 157.43,-141.125"/>
</g>
<!-- Node6&#45;&gt;Node2 -->
<g id="edge7" class="edge"><title>Node6&#45;&gt;Node2</title>
<path fill="none" stroke="midnightblue" d="M157.498,-112.452C143.705,-104.122 122.992,-90.6073 107.337,-76 91.7128,-61.4208 76.7884,-41.9964 66.9686,-28.1889"/>
<polygon fill="midnightblue" stroke="midnightblue" points="69.6202,-25.8711 61.04,-19.6558 63.8715,-29.8652 69.6202,-25.8711"/>
</g>
<!-- Node7 -->
<g id="node7" class="node"><title>Node7</title>
<g id="a_node7"><a xlink:href="IComponent_8hpp.html" target="_top" xlink:title="IComponent.hpp">
<polygon fill="none" stroke="black" points="116.337,-56.5 116.337,-75.5 212.337,-75.5 212.337,-56.5 116.337,-56.5"/>
<text text-anchor="middle" x="164.337" y="-63.5" font-family="Helvetica,sans-Serif" font-size="10.00">IComponent.hpp</text>
</a>
</g>
</g>
<!-- Node6&#45;&gt;Node7 -->
<g id="edge8" class="edge"><title>Node6&#45;&gt;Node7</title>
<path fill="none" stroke="midnightblue" d="M171.016,-112.083C169.956,-104.927 168.432,-94.6353 167.107,-85.6911"/>
<polygon fill="midnightblue" stroke="midnightblue" points="170.562,-85.1302 165.634,-75.7511 163.637,-86.1561 170.562,-85.1302"/>
</g>
<!-- Node7&#45;&gt;Node2 -->
<g id="edge9" class="edge"><title>Node7&#45;&gt;Node2</title>
<path fill="none" stroke="midnightblue" d="M146.825,-56.324C129.265,-47.6247 102.006,-34.1202 81.8062,-24.113"/>
<polygon fill="midnightblue" stroke="midnightblue" points="83.3212,-20.9575 72.8067,-19.6545 80.2137,-27.23 83.3212,-20.9575"/>
</g>
</g>
</svg>
