<?xml version="1.0" encoding="UTF-8" standalone="no"?>
<!DOCTYPE svg PUBLIC "-//W3C//DTD SVG 1.1//EN"
 "http://www.w3.org/Graphics/SVG/1.1/DTD/svg11.dtd">
<!-- Generated by graphviz version 2.38.0 (20140413.2041)
 -->
<!-- Title: src/Entities/EntityConstructor/EnemyBulletEntity/EnemyBulletEntity.cpp Pages: 1 -->
<!--zoomable 319 -->
<svg id="main" version="1.1" xmlns="http://www.w3.org/2000/svg" xmlns:xlink="http://www.w3.org/1999/xlink" xml:space="preserve" onload="init(evt)">
<style type="text/css"><![CDATA[
.edge:hover path { stroke: red; }
.edge:hover polygon { stroke: red; fill: red; }
]]></style>
<script type="text/javascript"><![CDATA[
var edges = document.getElementsByTagName('g');
if (edges && edges.length) {
  for (var i=0;i<edges.length;i++) {
    if (edges[i].id.substr(0,4)=='edge') {
      edges[i].setAttribute('class','edge');
    }
  }
}
]]></script>
        <defs>
                <circle id="rim" cx="0" cy="0" r="7"/>
                <circle id="rim2" cx="0" cy="0" r="3.5"/>
                <g id="zoomPlus">
                        <use xlink:href="#rim" fill="#404040">
                                <set attributeName="fill" to="#808080" begin="zoomplus.mouseover" end="zoomplus.mouseout"/>
                        </use>
                        <path d="M-4,0h8M0,-4v8" fill="none" stroke="white" stroke-width="1.5" pointer-events="none"/>
                </g>
                <g id="zoomMin">
                        <use xlink:href="#rim" fill="#404040">
                                <set attributeName="fill" to="#808080" begin="zoomminus.mouseover" end="zoomminus.mouseout"/>
                        </use>
                        <path d="M-4,0h8" fill="none" stroke="white" stroke-width="1.5" pointer-events="none"/>
                </g>
                <g id="dirArrow">
                        <path fill="none" stroke="white" stroke-width="1.5" d="M0,-3.0v7 M-2.5,-0.5L0,-3.0L2.5,-0.5"/>
                </g>
               <g id="resetDef">
                       <use xlink:href="#rim2" fill="#404040">
                               <set attributeName="fill" to="#808080" begin="reset.mouseover" end="reset.mouseout"/>
                       </use>
               </g>
        </defs>

<script type="text/javascript">
var viewWidth = 1202;
var viewHeight = 319;
var sectionId = 'dynsection-0';
</script>
<script xlink:href="svgpan.js"/>
<svg id="graph" class="graph">
<g id="viewport">
<title>src/Entities/EntityConstructor/EnemyBulletEntity/EnemyBulletEntity.cpp</title>
<!-- Node1 -->
<g id="node1" class="node"><title>Node1</title>
<polygon fill="#bfbfbf" stroke="black" points="363,-280.5 363,-310.5 578,-310.5 578,-280.5 363,-280.5"/>
<text text-anchor="start" x="371" y="-298.5" font-family="Helvetica,sans-Serif" font-size="10.00">src/Entities/EntityConstructor</text>
<text text-anchor="middle" x="470.5" y="-287.5" font-family="Helvetica,sans-Serif" font-size="10.00">/EnemyBulletEntity/EnemyBulletEntity.cpp</text>
</g>
<!-- Node2 -->
<g id="node2" class="node"><title>Node2</title>
<g id="a_node2"><a xlink:href="Animator_8hpp.html" target="_top" xlink:title="Animator.hpp">
<polygon fill="none" stroke="black" points="203,-224.5 203,-243.5 284,-243.5 284,-224.5 203,-224.5"/>
<text text-anchor="middle" x="243.5" y="-231.5" font-family="Helvetica,sans-Serif" font-size="10.00">Animator.hpp</text>
</a>
</g>
</g>
<!-- Node1&#45;&gt;Node2 -->
<g id="edge1" class="edge"><title>Node1&#45;&gt;Node2</title>
<path fill="none" stroke="midnightblue" d="M416.992,-280.475C376.974,-269.986 322.995,-255.837 285.932,-246.122"/>
<polygon fill="midnightblue" stroke="midnightblue" points="286.514,-242.656 275.953,-243.506 284.739,-249.428 286.514,-242.656"/>
</g>
<!-- Node9 -->
<g id="node9" class="node"><title>Node9</title>
<g id="a_node9"><a xlink:href="Rect_8hpp.html" target="_top" xlink:title="Rect.hpp">
<polygon fill="none" stroke="black" points="290.5,-168.5 290.5,-187.5 348.5,-187.5 348.5,-168.5 290.5,-168.5"/>
<text text-anchor="middle" x="319.5" y="-175.5" font-family="Helvetica,sans-Serif" font-size="10.00">Rect.hpp</text>
</a>
</g>
</g>
<!-- Node1&#45;&gt;Node9 -->
<g id="edge53" class="edge"><title>Node1&#45;&gt;Node9</title>
<path fill="none" stroke="midnightblue" d="M389.43,-280.459C367.802,-272.987 346.346,-261.539 331.5,-244 320.736,-231.283 318.321,-212.084 318.248,-197.845"/>
<polygon fill="midnightblue" stroke="midnightblue" points="321.751,-197.816 318.576,-187.708 314.754,-197.59 321.751,-197.816"/>
</g>
<!-- Node10 -->
<g id="node10" class="node"><title>Node10</title>
<g id="a_node10"><a xlink:href="EnemyBulletEntity_8hpp.html" target="_top" xlink:title="EnemyBulletEntity.hpp">
<polygon fill="none" stroke="black" points="803,-224.5 803,-243.5 926,-243.5 926,-224.5 803,-224.5"/>
<text text-anchor="middle" x="864.5" y="-231.5" font-family="Helvetica,sans-Serif" font-size="10.00">EnemyBulletEntity.hpp</text>
</a>
</g>
</g>
<!-- Node1&#45;&gt;Node10 -->
<g id="edge14" class="edge"><title>Node1&#45;&gt;Node10</title>
<path fill="none" stroke="midnightblue" d="M563.374,-280.475C635.502,-269.582 733.765,-254.743 798.14,-245.021"/>
<polygon fill="midnightblue" stroke="midnightblue" points="798.807,-248.46 808.172,-243.506 797.762,-241.539 798.807,-248.46"/>
</g>
<!-- Node21 -->
<g id="node21" class="node"><title>Node21</title>
<g id="a_node21"><a xlink:href="Rotation_8hpp.html" target="_top" xlink:title="Rotation.hpp">
<polygon fill="none" stroke="black" points="432,-224.5 432,-243.5 509,-243.5 509,-224.5 432,-224.5"/>
<text text-anchor="middle" x="470.5" y="-231.5" font-family="Helvetica,sans-Serif" font-size="10.00">Rotation.hpp</text>
</a>
</g>
</g>
<!-- Node1&#45;&gt;Node21 -->
<g id="edge32" class="edge"><title>Node1&#45;&gt;Node21</title>
<path fill="none" stroke="midnightblue" d="M470.5,-280.399C470.5,-272.466 470.5,-262.458 470.5,-253.858"/>
<polygon fill="midnightblue" stroke="midnightblue" points="474,-253.658 470.5,-243.658 467,-253.658 474,-253.658"/>
</g>
<!-- Node23 -->
<g id="node23" class="node"><title>Node23</title>
<g id="a_node23"><a xlink:href="Position_8hpp.html" target="_top" xlink:title="Position.hpp">
<polygon fill="none" stroke="black" points="612,-224.5 612,-243.5 687,-243.5 687,-224.5 612,-224.5"/>
<text text-anchor="middle" x="649.5" y="-231.5" font-family="Helvetica,sans-Serif" font-size="10.00">Position.hpp</text>
</a>
</g>
</g>
<!-- Node1&#45;&gt;Node23 -->
<g id="edge35" class="edge"><title>Node1&#45;&gt;Node23</title>
<path fill="none" stroke="midnightblue" d="M512.921,-280.399C543.716,-270.163 584.909,-256.47 613.976,-246.808"/>
<polygon fill="midnightblue" stroke="midnightblue" points="615.33,-250.047 623.715,-243.571 613.122,-243.404 615.33,-250.047"/>
</g>
<!-- Node25 -->
<g id="node25" class="node"><title>Node25</title>
<g id="a_node25"><a xlink:href="Velocity_8hpp.html" target="_top" xlink:title="Velocity.hpp">
<polygon fill="none" stroke="black" points="341,-224.5 341,-243.5 414,-243.5 414,-224.5 341,-224.5"/>
<text text-anchor="middle" x="377.5" y="-231.5" font-family="Helvetica,sans-Serif" font-size="10.00">Velocity.hpp</text>
</a>
</g>
</g>
<!-- Node1&#45;&gt;Node25 -->
<g id="edge38" class="edge"><title>Node1&#45;&gt;Node25</title>
<path fill="none" stroke="midnightblue" d="M448.46,-280.399C433.692,-270.951 414.323,-258.559 399.553,-249.109"/>
<polygon fill="midnightblue" stroke="midnightblue" points="401.342,-246.099 391.032,-243.658 397.57,-251.995 401.342,-246.099"/>
</g>
<!-- Node27 -->
<g id="node27" class="node"><title>Node27</title>
<g id="a_node27"><a xlink:href="Collision_8hpp.html" target="_top" xlink:title="Collision.hpp">
<polygon fill="none" stroke="black" points="705,-168.5 705,-187.5 782,-187.5 782,-168.5 705,-168.5"/>
<text text-anchor="middle" x="743.5" y="-175.5" font-family="Helvetica,sans-Serif" font-size="10.00">Collision.hpp</text>
</a>
</g>
</g>
<!-- Node1&#45;&gt;Node27 -->
<g id="edge41" class="edge"><title>Node1&#45;&gt;Node27</title>
<path fill="none" stroke="midnightblue" d="M578.239,-286.13C617.578,-279.155 660.874,-266.575 695.5,-244 713.259,-232.422 726.778,-211.862 734.875,-196.959"/>
<polygon fill="midnightblue" stroke="midnightblue" points="738.16,-198.222 739.599,-187.726 731.928,-195.034 738.16,-198.222"/>
</g>
<!-- Node29 -->
<g id="node29" class="node"><title>Node29</title>
<g id="a_node29"><a xlink:href="Sprite_8hpp.html" target="_top" xlink:title="Sprite.hpp">
<polygon fill="none" stroke="black" points="527.5,-224.5 527.5,-243.5 593.5,-243.5 593.5,-224.5 527.5,-224.5"/>
<text text-anchor="middle" x="560.5" y="-231.5" font-family="Helvetica,sans-Serif" font-size="10.00">Sprite.hpp</text>
</a>
</g>
</g>
<!-- Node1&#45;&gt;Node29 -->
<g id="edge45" class="edge"><title>Node1&#45;&gt;Node29</title>
<path fill="none" stroke="midnightblue" d="M491.829,-280.399C505.985,-271.04 524.511,-258.792 538.753,-249.377"/>
<polygon fill="midnightblue" stroke="midnightblue" points="540.993,-252.092 547.404,-243.658 537.132,-246.253 540.993,-252.092"/>
</g>
<!-- Node30 -->
<g id="node30" class="node"><title>Node30</title>
<g id="a_node30"><a xlink:href="Damage_8hpp.html" target="_top" xlink:title="Damage.hpp">
<polygon fill="none" stroke="black" points="0,-168.5 0,-187.5 79,-187.5 79,-168.5 0,-168.5"/>
<text text-anchor="middle" x="39.5" y="-175.5" font-family="Helvetica,sans-Serif" font-size="10.00">Damage.hpp</text>
</a>
</g>
</g>
<!-- Node1&#45;&gt;Node30 -->
<g id="edge50" class="edge"><title>Node1&#45;&gt;Node30</title>
<path fill="none" stroke="midnightblue" d="M362.996,-280.513C311.144,-272.351 248.424,-260.382 193.5,-244 147.077,-230.154 95.7142,-206.726 65.594,-192.101"/>
<polygon fill="midnightblue" stroke="midnightblue" points="67.1136,-188.948 56.5943,-187.685 64.03,-195.232 67.1136,-188.948"/>
</g>
<!-- Node3 -->
<g id="node3" class="node"><title>Node3</title>
<polygon fill="none" stroke="#bfbfbf" points="181,-0.5 181,-19.5 244,-19.5 244,-0.5 181,-0.5"/>
<text text-anchor="middle" x="212.5" y="-7.5" font-family="Helvetica,sans-Serif" font-size="10.00">typeindex</text>
</g>
<!-- Node2&#45;&gt;Node3 -->
<g id="edge2" class="edge"><title>Node2&#45;&gt;Node3</title>
<path fill="none" stroke="midnightblue" d="M214.932,-224.358C196.864,-217.413 174.537,-205.827 161.5,-188 146.527,-167.526 152.956,-157.245 150.5,-132 147.149,-97.5501 149.703,-85.6863 167.5,-56 174.198,-44.8271 184.272,-34.4004 193.191,-26.4026"/>
<polygon fill="midnightblue" stroke="midnightblue" points="195.601,-28.9472 200.928,-19.7887 191.053,-23.6264 195.601,-28.9472"/>
</g>
<!-- Node4 -->
<g id="node4" class="node"><title>Node4</title>
<g id="a_node4"><a xlink:href="IDisplay_8hpp.html" target="_top" xlink:title="IDisplay.hpp">
<polygon fill="none" stroke="black" points="346,-112.5 346,-131.5 419,-131.5 419,-112.5 346,-112.5"/>
<text text-anchor="middle" x="382.5" y="-119.5" font-family="Helvetica,sans-Serif" font-size="10.00">IDisplay.hpp</text>
</a>
</g>
</g>
<!-- Node2&#45;&gt;Node4 -->
<g id="edge3" class="edge"><title>Node2&#45;&gt;Node4</title>
<path fill="none" stroke="midnightblue" d="M246.575,-224.276C251.792,-210.606 263.584,-184.048 281.5,-168 298.38,-152.88 321.171,-142.135 340.83,-134.946"/>
<polygon fill="midnightblue" stroke="midnightblue" points="342.179,-138.183 350.483,-131.603 339.888,-131.568 342.179,-138.183"/>
</g>
<!-- Node6 -->
<g id="node6" class="node"><title>Node6</title>
<g id="a_node6"><a xlink:href="Timer_8hpp.html" target="_top" xlink:title="Timer.hpp">
<polygon fill="none" stroke="black" points="170.5,-168.5 170.5,-187.5 234.5,-187.5 234.5,-168.5 170.5,-168.5"/>
<text text-anchor="middle" x="202.5" y="-175.5" font-family="Helvetica,sans-Serif" font-size="10.00">Timer.hpp</text>
</a>
</g>
</g>
<!-- Node2&#45;&gt;Node6 -->
<g id="edge7" class="edge"><title>Node2&#45;&gt;Node6</title>
<path fill="none" stroke="midnightblue" d="M236.73,-224.083C230.938,-216.455 222.442,-205.264 215.362,-195.941"/>
<polygon fill="midnightblue" stroke="midnightblue" points="217.979,-193.599 209.144,-187.751 212.404,-197.832 217.979,-193.599"/>
</g>
<!-- Node2&#45;&gt;Node9 -->
<g id="edge13" class="edge"><title>Node2&#45;&gt;Node9</title>
<path fill="none" stroke="midnightblue" d="M255.711,-224.324C267.276,-216.107 284.875,-203.602 298.661,-193.807"/>
<polygon fill="midnightblue" stroke="midnightblue" points="300.943,-196.479 307.067,-187.834 296.888,-190.773 300.943,-196.479"/>
</g>
<!-- Node4&#45;&gt;Node3 -->
<g id="edge4" class="edge"><title>Node4&#45;&gt;Node3</title>
<path fill="none" stroke="midnightblue" d="M369.16,-112.368C339.988,-93.4924 270.277,-48.385 234.502,-25.2367"/>
<polygon fill="midnightblue" stroke="midnightblue" points="236.075,-22.0855 225.778,-19.5914 232.272,-27.9625 236.075,-22.0855"/>
</g>
<!-- Node5 -->
<g id="node5" class="node"><title>Node5</title>
<g id="a_node5"><a xlink:href="IComponent_8hpp.html" target="_top" xlink:title="IComponent.hpp">
<polygon fill="none" stroke="black" points="334.5,-56.5 334.5,-75.5 430.5,-75.5 430.5,-56.5 334.5,-56.5"/>
<text text-anchor="middle" x="382.5" y="-63.5" font-family="Helvetica,sans-Serif" font-size="10.00">IComponent.hpp</text>
</a>
</g>
</g>
<!-- Node4&#45;&gt;Node5 -->
<g id="edge5" class="edge"><title>Node4&#45;&gt;Node5</title>
<path fill="none" stroke="midnightblue" d="M382.5,-112.083C382.5,-105.006 382.5,-94.8611 382.5,-85.9865"/>
<polygon fill="midnightblue" stroke="midnightblue" points="386,-85.751 382.5,-75.7511 379,-85.7511 386,-85.751"/>
</g>
<!-- Node5&#45;&gt;Node3 -->
<g id="edge6" class="edge"><title>Node5&#45;&gt;Node3</title>
<path fill="none" stroke="midnightblue" d="M355.563,-56.4435C326.84,-47.3196 281.171,-32.8133 249.179,-22.6509"/>
<polygon fill="midnightblue" stroke="midnightblue" points="249.901,-19.2081 239.311,-19.5164 247.782,-25.8797 249.901,-19.2081"/>
</g>
<!-- Node6&#45;&gt;Node3 -->
<g id="edge9" class="edge"><title>Node6&#45;&gt;Node3</title>
<path fill="none" stroke="midnightblue" d="M188.713,-168.189C177.674,-160.241 162.998,-147.447 156.5,-132 153.053,-123.807 154.274,-120.606 156.5,-112 164.828,-79.8055 185.871,-46.9322 199.658,-27.7736"/>
<polygon fill="midnightblue" stroke="midnightblue" points="202.621,-29.6537 205.755,-19.5333 196.994,-25.4899 202.621,-29.6537"/>
</g>
<!-- Node7 -->
<g id="node7" class="node"><title>Node7</title>
<polygon fill="none" stroke="#bfbfbf" points="277.5,-112.5 277.5,-131.5 327.5,-131.5 327.5,-112.5 277.5,-112.5"/>
<text text-anchor="middle" x="302.5" y="-119.5" font-family="Helvetica,sans-Serif" font-size="10.00">chrono</text>
</g>
<!-- Node6&#45;&gt;Node7 -->
<g id="edge8" class="edge"><title>Node6&#45;&gt;Node7</title>
<path fill="none" stroke="midnightblue" d="M218.567,-168.324C234.458,-159.743 259.007,-146.486 277.458,-136.522"/>
<polygon fill="midnightblue" stroke="midnightblue" points="279.337,-139.486 286.473,-131.655 276.011,-133.326 279.337,-139.486"/>
</g>
<!-- Node8 -->
<g id="node8" class="node"><title>Node8</title>
<g id="a_node8"><a xlink:href="IGameLogic_8hpp.html" target="_top" xlink:title="IGameLogic.hpp">
<polygon fill="none" stroke="black" points="165.5,-112.5 165.5,-131.5 259.5,-131.5 259.5,-112.5 165.5,-112.5"/>
<text text-anchor="middle" x="212.5" y="-119.5" font-family="Helvetica,sans-Serif" font-size="10.00">IGameLogic.hpp</text>
</a>
</g>
</g>
<!-- Node6&#45;&gt;Node8 -->
<g id="edge10" class="edge"><title>Node6&#45;&gt;Node8</title>
<path fill="none" stroke="midnightblue" d="M204.151,-168.083C205.476,-160.927 207.382,-150.635 209.039,-141.691"/>
<polygon fill="midnightblue" stroke="midnightblue" points="212.5,-142.221 210.879,-131.751 205.617,-140.947 212.5,-142.221"/>
</g>
<!-- Node8&#45;&gt;Node3 -->
<g id="edge11" class="edge"><title>Node8&#45;&gt;Node3</title>
<path fill="none" stroke="midnightblue" d="M212.5,-112.368C212.5,-94.617 212.5,-53.6664 212.5,-29.5974"/>
<polygon fill="midnightblue" stroke="midnightblue" points="216,-29.5914 212.5,-19.5914 209,-29.5915 216,-29.5914"/>
</g>
<!-- Node8&#45;&gt;Node5 -->
<g id="edge12" class="edge"><title>Node8&#45;&gt;Node5</title>
<path fill="none" stroke="midnightblue" d="M239.437,-112.444C268.16,-103.32 313.829,-88.8133 345.821,-78.6509"/>
<polygon fill="midnightblue" stroke="midnightblue" points="347.218,-81.8797 355.689,-75.5164 345.099,-75.2081 347.218,-81.8797"/>
</g>
<!-- Node11 -->
<g id="node11" class="node"><title>Node11</title>
<g id="a_node11"><a xlink:href="IEntityConstructor_8hpp.html" target="_top" xlink:title="IEntityConstructor.hpp">
<polygon fill="none" stroke="black" points="840.5,-168.5 840.5,-187.5 962.5,-187.5 962.5,-168.5 840.5,-168.5"/>
<text text-anchor="middle" x="901.5" y="-175.5" font-family="Helvetica,sans-Serif" font-size="10.00">IEntityConstructor.hpp</text>
</a>
</g>
</g>
<!-- Node10&#45;&gt;Node11 -->
<g id="edge15" class="edge"><title>Node10&#45;&gt;Node11</title>
<path fill="none" stroke="midnightblue" d="M870.61,-224.083C875.782,-216.534 883.346,-205.495 889.694,-196.23"/>
<polygon fill="midnightblue" stroke="midnightblue" points="892.739,-197.979 895.504,-187.751 886.964,-194.022 892.739,-197.979"/>
</g>
<!-- Node12 -->
<g id="node12" class="node"><title>Node12</title>
<polygon fill="none" stroke="#bfbfbf" points="862,-56.5 862,-75.5 919,-75.5 919,-56.5 862,-56.5"/>
<text text-anchor="middle" x="890.5" y="-63.5" font-family="Helvetica,sans-Serif" font-size="10.00">memory</text>
</g>
<!-- Node11&#45;&gt;Node12 -->
<g id="edge16" class="edge"><title>Node11&#45;&gt;Node12</title>
<path fill="none" stroke="midnightblue" d="M908.22,-168.187C916.884,-155.706 930.098,-132.154 923.5,-112 920.01,-101.34 912.927,-91.1174 906.214,-83.1175"/>
<polygon fill="midnightblue" stroke="midnightblue" points="908.805,-80.7633 899.52,-75.66 903.596,-85.4395 908.805,-80.7633"/>
</g>
<!-- Node13 -->
<g id="node13" class="node"><title>Node13</title>
<polygon fill="none" stroke="#bfbfbf" points="679.5,-0.5 679.5,-19.5 723.5,-19.5 723.5,-0.5 679.5,-0.5"/>
<text text-anchor="middle" x="701.5" y="-7.5" font-family="Helvetica,sans-Serif" font-size="10.00">string</text>
</g>
<!-- Node11&#45;&gt;Node13 -->
<g id="edge17" class="edge"><title>Node11&#45;&gt;Node13</title>
<path fill="none" stroke="midnightblue" d="M847.664,-168.493C821.178,-162.082 790.161,-150.999 767.5,-132 734.608,-104.424 715.407,-56.0861 706.859,-29.6201"/>
<polygon fill="midnightblue" stroke="midnightblue" points="710.109,-28.2809 703.839,-19.741 703.415,-30.3273 710.109,-28.2809"/>
</g>
<!-- Node14 -->
<g id="node14" class="node"><title>Node14</title>
<g id="a_node14"><a xlink:href="Entity_8hpp.html" target="_top" xlink:title="Entity.hpp">
<polygon fill="none" stroke="black" points="937,-56.5 937,-75.5 1000,-75.5 1000,-56.5 937,-56.5"/>
<text text-anchor="middle" x="968.5" y="-63.5" font-family="Helvetica,sans-Serif" font-size="10.00">Entity.hpp</text>
</a>
</g>
</g>
<!-- Node11&#45;&gt;Node14 -->
<g id="edge18" class="edge"><title>Node11&#45;&gt;Node14</title>
<path fill="none" stroke="midnightblue" d="M909.304,-168.484C917.061,-159.751 928.999,-145.564 937.5,-132 946.931,-116.954 955.439,-98.5953 961.146,-85.2313"/>
<polygon fill="midnightblue" stroke="midnightblue" points="964.483,-86.3208 965.086,-75.7431 958.018,-83.6362 964.483,-86.3208"/>
</g>
<!-- Node15 -->
<g id="node15" class="node"><title>Node15</title>
<g id="a_node15"><a xlink:href="IEntityManager_8hpp.html" target="_top" xlink:title="IEntityManager.hpp">
<polygon fill="none" stroke="black" points="1008.5,-112.5 1008.5,-131.5 1116.5,-131.5 1116.5,-112.5 1008.5,-112.5"/>
<text text-anchor="middle" x="1062.5" y="-119.5" font-family="Helvetica,sans-Serif" font-size="10.00">IEntityManager.hpp</text>
</a>
</g>
</g>
<!-- Node11&#45;&gt;Node15 -->
<g id="edge19" class="edge"><title>Node11&#45;&gt;Node15</title>
<path fill="none" stroke="midnightblue" d="M927.011,-168.444C954.096,-159.359 997.09,-144.939 1027.37,-134.783"/>
<polygon fill="midnightblue" stroke="midnightblue" points="1028.74,-138.015 1037.11,-131.516 1026.51,-131.378 1028.74,-138.015"/>
</g>
<!-- Node20 -->
<g id="node20" class="node"><title>Node20</title>
<g id="a_node20"><a xlink:href="IComponentManager_8hpp.html" target="_top" xlink:title="IComponentManager.hpp">
<polygon fill="none" stroke="black" points="777,-112.5 777,-131.5 914,-131.5 914,-112.5 777,-112.5"/>
<text text-anchor="middle" x="845.5" y="-119.5" font-family="Helvetica,sans-Serif" font-size="10.00">IComponentManager.hpp</text>
</a>
</g>
</g>
<!-- Node11&#45;&gt;Node20 -->
<g id="edge27" class="edge"><title>Node11&#45;&gt;Node20</title>
<path fill="none" stroke="midnightblue" d="M892.503,-168.324C884.306,-160.42 871.994,-148.548 862.028,-138.938"/>
<polygon fill="midnightblue" stroke="midnightblue" points="864.289,-136.256 854.661,-131.834 859.43,-141.295 864.289,-136.256"/>
</g>
<!-- Node15&#45;&gt;Node12 -->
<g id="edge20" class="edge"><title>Node15&#45;&gt;Node12</title>
<path fill="none" stroke="midnightblue" d="M1035.25,-112.444C1006.06,-103.28 959.579,-88.6876 927.191,-78.5192"/>
<polygon fill="midnightblue" stroke="midnightblue" points="928.216,-75.1726 917.626,-75.5164 926.119,-81.8512 928.216,-75.1726"/>
</g>
<!-- Node15&#45;&gt;Node14 -->
<g id="edge22" class="edge"><title>Node15&#45;&gt;Node14</title>
<path fill="none" stroke="midnightblue" d="M1047.4,-112.324C1032.6,-103.822 1009.81,-90.7288 992.518,-80.7975"/>
<polygon fill="midnightblue" stroke="midnightblue" points="993.98,-77.6009 983.565,-75.6545 990.493,-83.6707 993.98,-77.6009"/>
</g>
<!-- Node16 -->
<g id="node16" class="node"><title>Node16</title>
<polygon fill="none" stroke="#bfbfbf" points="1147,-56.5 1147,-75.5 1194,-75.5 1194,-56.5 1147,-56.5"/>
<text text-anchor="middle" x="1170.5" y="-63.5" font-family="Helvetica,sans-Serif" font-size="10.00">vector</text>
</g>
<!-- Node15&#45;&gt;Node16 -->
<g id="edge21" class="edge"><title>Node15&#45;&gt;Node16</title>
<path fill="none" stroke="midnightblue" d="M1079.85,-112.324C1097.17,-103.664 1124.02,-90.2424 1144,-80.249"/>
<polygon fill="midnightblue" stroke="midnightblue" points="1145.81,-83.2572 1153.19,-75.6545 1142.68,-76.9962 1145.81,-83.2572"/>
</g>
<!-- Node17 -->
<g id="node17" class="node"><title>Node17</title>
<g id="a_node17"><a xlink:href="PacketManager_8hpp.html" target="_top" xlink:title="PacketManager.hpp">
<polygon fill="none" stroke="black" points="1018.5,-56.5 1018.5,-75.5 1128.5,-75.5 1128.5,-56.5 1018.5,-56.5"/>
<text text-anchor="middle" x="1073.5" y="-63.5" font-family="Helvetica,sans-Serif" font-size="10.00">PacketManager.hpp</text>
</a>
</g>
</g>
<!-- Node15&#45;&gt;Node17 -->
<g id="edge23" class="edge"><title>Node15&#45;&gt;Node17</title>
<path fill="none" stroke="midnightblue" d="M1064.32,-112.083C1065.77,-104.927 1067.87,-94.6353 1069.69,-85.6911"/>
<polygon fill="midnightblue" stroke="midnightblue" points="1073.15,-86.2485 1071.72,-75.7511 1066.29,-84.8512 1073.15,-86.2485"/>
</g>
<!-- Node17&#45;&gt;Node13 -->
<g id="edge24" class="edge"><title>Node17&#45;&gt;Node13</title>
<path fill="none" stroke="midnightblue" d="M1018.21,-56.974C939.573,-45.559 797.91,-24.995 734.155,-15.7402"/>
<polygon fill="midnightblue" stroke="midnightblue" points="734.299,-12.2245 723.9,-14.2515 733.293,-19.1519 734.299,-12.2245"/>
</g>
<!-- Node18 -->
<g id="node18" class="node"><title>Node18</title>
<polygon fill="none" stroke="#bfbfbf" points="897.5,-0.5 897.5,-19.5 927.5,-19.5 927.5,-0.5 897.5,-0.5"/>
<text text-anchor="middle" x="912.5" y="-7.5" font-family="Helvetica,sans-Serif" font-size="10.00">list</text>
</g>
<!-- Node17&#45;&gt;Node18 -->
<g id="edge25" class="edge"><title>Node17&#45;&gt;Node18</title>
<path fill="none" stroke="midnightblue" d="M1047.99,-56.4435C1017.69,-46.2813 967.484,-29.4419 937.439,-19.3646"/>
<polygon fill="midnightblue" stroke="midnightblue" points="938.312,-15.9658 927.718,-16.1041 936.086,-22.6025 938.312,-15.9658"/>
</g>
<!-- Node19 -->
<g id="node19" class="node"><title>Node19</title>
<g id="a_node19"><a xlink:href="Input_8hpp.html" target="_top" xlink:title="Render/Input.hpp">
<polygon fill="none" stroke="black" points="1024.5,-0.5 1024.5,-19.5 1122.5,-19.5 1122.5,-0.5 1024.5,-0.5"/>
<text text-anchor="middle" x="1073.5" y="-7.5" font-family="Helvetica,sans-Serif" font-size="10.00">Render/Input.hpp</text>
</a>
</g>
</g>
<!-- Node17&#45;&gt;Node19 -->
<g id="edge26" class="edge"><title>Node17&#45;&gt;Node19</title>
<path fill="none" stroke="midnightblue" d="M1073.5,-56.083C1073.5,-49.0059 1073.5,-38.8611 1073.5,-29.9865"/>
<polygon fill="midnightblue" stroke="midnightblue" points="1077,-29.751 1073.5,-19.7511 1070,-29.7511 1077,-29.751"/>
</g>
<!-- Node20&#45;&gt;Node5 -->
<g id="edge30" class="edge"><title>Node20&#45;&gt;Node5</title>
<path fill="none" stroke="midnightblue" d="M776.684,-112.974C685.545,-102.344 526.384,-83.7813 440.841,-73.8044"/>
<polygon fill="midnightblue" stroke="midnightblue" points="441.122,-70.3134 430.783,-72.6313 440.311,-77.2663 441.122,-70.3134"/>
</g>
<!-- Node20&#45;&gt;Node12 -->
<g id="edge29" class="edge"><title>Node20&#45;&gt;Node12</title>
<path fill="none" stroke="midnightblue" d="M852.931,-112.083C859.353,-104.377 868.806,-93.0333 876.622,-83.6531"/>
<polygon fill="midnightblue" stroke="midnightblue" points="879.494,-85.674 883.207,-75.7511 874.117,-81.1927 879.494,-85.674"/>
</g>
<!-- Node20&#45;&gt;Node14 -->
<g id="edge31" class="edge"><title>Node20&#45;&gt;Node14</title>
<path fill="none" stroke="midnightblue" d="M864.99,-112.444C885.142,-103.596 916.823,-89.6875 939.831,-79.5865"/>
<polygon fill="midnightblue" stroke="midnightblue" points="941.352,-82.7411 949.101,-75.5164 938.538,-76.3316 941.352,-82.7411"/>
</g>
<!-- Node20&#45;&gt;Node18 -->
<g id="edge28" class="edge"><title>Node20&#45;&gt;Node18</title>
<path fill="none" stroke="midnightblue" d="M844.356,-112.347C843.056,-99.2329 842.285,-73.9543 852.5,-56 860.687,-41.6112 875.541,-30.4151 888.421,-22.7896"/>
<polygon fill="midnightblue" stroke="midnightblue" points="890.263,-25.7703 897.327,-17.8734 886.88,-19.642 890.263,-25.7703"/>
</g>
<!-- Node22 -->
<g id="node22" class="node"><title>Node22</title>
<g id="a_node22"><a xlink:href="IPhysics_8hpp.html" target="_top" xlink:title="IPhysics.hpp">
<polygon fill="none" stroke="black" points="437,-112.5 437,-131.5 512,-131.5 512,-112.5 437,-112.5"/>
<text text-anchor="middle" x="474.5" y="-119.5" font-family="Helvetica,sans-Serif" font-size="10.00">IPhysics.hpp</text>
</a>
</g>
</g>
<!-- Node21&#45;&gt;Node22 -->
<g id="edge33" class="edge"><title>Node21&#45;&gt;Node22</title>
<path fill="none" stroke="midnightblue" d="M470.814,-224.368C471.459,-206.617 472.948,-165.666 473.824,-141.597"/>
<polygon fill="midnightblue" stroke="midnightblue" points="477.322,-141.712 474.188,-131.591 470.326,-141.458 477.322,-141.712"/>
</g>
<!-- Node22&#45;&gt;Node5 -->
<g id="edge34" class="edge"><title>Node22&#45;&gt;Node5</title>
<path fill="none" stroke="midnightblue" d="M459.719,-112.324C445.233,-103.822 422.927,-90.7288 406.007,-80.7975"/>
<polygon fill="midnightblue" stroke="midnightblue" points="407.641,-77.6981 397.245,-75.6545 404.097,-83.735 407.641,-77.6981"/>
</g>
<!-- Node23&#45;&gt;Node22 -->
<g id="edge37" class="edge"><title>Node23&#45;&gt;Node22</title>
<path fill="none" stroke="midnightblue" d="M635.768,-224.368C605.61,-205.412 533.365,-160.001 496.681,-136.942"/>
<polygon fill="midnightblue" stroke="midnightblue" points="498.497,-133.95 488.168,-131.591 494.772,-139.876 498.497,-133.95"/>
</g>
<!-- Node24 -->
<g id="node24" class="node"><title>Node24</title>
<polygon fill="none" stroke="#bfbfbf" points="644.5,-168.5 644.5,-187.5 686.5,-187.5 686.5,-168.5 644.5,-168.5"/>
<text text-anchor="middle" x="665.5" y="-175.5" font-family="Helvetica,sans-Serif" font-size="10.00">utility</text>
</g>
<!-- Node23&#45;&gt;Node24 -->
<g id="edge36" class="edge"><title>Node23&#45;&gt;Node24</title>
<path fill="none" stroke="midnightblue" d="M652.142,-224.083C654.286,-216.849 657.379,-206.409 660.049,-197.397"/>
<polygon fill="midnightblue" stroke="midnightblue" points="663.422,-198.333 662.907,-187.751 656.71,-196.345 663.422,-198.333"/>
</g>
<!-- Node26 -->
<g id="node26" class="node"><title>Node26</title>
<g id="a_node26"><a xlink:href="Motion_8hpp.html" target="_top" xlink:title="Motion.hpp">
<polygon fill="none" stroke="black" points="366.5,-168.5 366.5,-187.5 436.5,-187.5 436.5,-168.5 366.5,-168.5"/>
<text text-anchor="middle" x="401.5" y="-175.5" font-family="Helvetica,sans-Serif" font-size="10.00">Motion.hpp</text>
</a>
</g>
</g>
<!-- Node25&#45;&gt;Node26 -->
<g id="edge39" class="edge"><title>Node25&#45;&gt;Node26</title>
<path fill="none" stroke="midnightblue" d="M381.463,-224.083C384.713,-216.77 389.419,-206.181 393.454,-197.103"/>
<polygon fill="midnightblue" stroke="midnightblue" points="396.748,-198.311 397.611,-187.751 390.351,-195.468 396.748,-198.311"/>
</g>
<!-- Node26&#45;&gt;Node22 -->
<g id="edge40" class="edge"><title>Node26&#45;&gt;Node22</title>
<path fill="none" stroke="midnightblue" d="M413.229,-168.324C424.337,-160.107 441.242,-147.602 454.483,-137.807"/>
<polygon fill="midnightblue" stroke="midnightblue" points="456.6,-140.595 462.558,-131.834 452.437,-134.967 456.6,-140.595"/>
</g>
<!-- Node27&#45;&gt;Node13 -->
<g id="edge42" class="edge"><title>Node27&#45;&gt;Node13</title>
<path fill="none" stroke="midnightblue" d="M719.031,-168.438C702.933,-161.378 683.123,-149.626 673.5,-132 655.075,-98.2509 675.906,-52.8062 690.243,-28.3366"/>
<polygon fill="midnightblue" stroke="midnightblue" points="693.249,-30.1298 695.502,-19.7773 687.285,-26.4652 693.249,-30.1298"/>
</g>
<!-- Node27&#45;&gt;Node22 -->
<g id="edge44" class="edge"><title>Node27&#45;&gt;Node22</title>
<path fill="none" stroke="midnightblue" d="M704.959,-169.263C656.746,-159.585 574.207,-143.016 522.099,-132.555"/>
<polygon fill="midnightblue" stroke="midnightblue" points="522.596,-129.085 512.102,-130.548 521.218,-135.948 522.596,-129.085"/>
</g>
<!-- Node28 -->
<g id="node28" class="node"><title>Node28</title>
<polygon fill="none" stroke="#bfbfbf" points="682.5,-112.5 682.5,-131.5 720.5,-131.5 720.5,-112.5 682.5,-112.5"/>
<text text-anchor="middle" x="701.5" y="-119.5" font-family="Helvetica,sans-Serif" font-size="10.00">map</text>
</g>
<!-- Node27&#45;&gt;Node28 -->
<g id="edge43" class="edge"><title>Node27&#45;&gt;Node28</title>
<path fill="none" stroke="midnightblue" d="M736.565,-168.083C730.571,-160.377 721.748,-149.033 714.452,-139.653"/>
<polygon fill="midnightblue" stroke="midnightblue" points="717.209,-137.496 708.306,-131.751 711.683,-141.793 717.209,-137.496"/>
</g>
<!-- Node29&#45;&gt;Node3 -->
<g id="edge47" class="edge"><title>Node29&#45;&gt;Node3</title>
<path fill="none" stroke="midnightblue" d="M559.527,-224.212C556.797,-202.973 547.415,-147.956 520.5,-112 494.273,-76.9631 479.806,-73.0554 439.5,-56 378.098,-30.0179 300.914,-18.8114 254.211,-14.1423"/>
<polygon fill="midnightblue" stroke="midnightblue" points="254.442,-10.6487 244.157,-13.1915 253.783,-17.6176 254.442,-10.6487"/>
</g>
<!-- Node29&#45;&gt;Node4 -->
<g id="edge49" class="edge"><title>Node29&#45;&gt;Node4</title>
<path fill="none" stroke="midnightblue" d="M546.533,-224.368C515.858,-205.412 442.374,-160.001 405.061,-136.942"/>
<polygon fill="midnightblue" stroke="midnightblue" points="406.749,-133.871 396.402,-131.591 403.069,-139.826 406.749,-133.871"/>
</g>
<!-- Node29&#45;&gt;Node9 -->
<g id="edge48" class="edge"><title>Node29&#45;&gt;Node9</title>
<path fill="none" stroke="midnightblue" d="M527.416,-225.819C489.171,-217.485 424.071,-203.195 358.616,-188.232"/>
<polygon fill="midnightblue" stroke="midnightblue" points="359.065,-184.744 348.536,-185.922 357.502,-191.567 359.065,-184.744"/>
</g>
<!-- Node29&#45;&gt;Node13 -->
<g id="edge46" class="edge"><title>Node29&#45;&gt;Node13</title>
<path fill="none" stroke="midnightblue" d="M565.217,-224.296C579.481,-198.167 623.807,-118.362 666.5,-56 673.139,-46.3018 681.15,-35.9182 687.832,-27.5718"/>
<polygon fill="midnightblue" stroke="midnightblue" points="690.615,-29.6958 694.2,-19.7256 685.18,-25.2845 690.615,-29.6958"/>
</g>
<!-- Node30&#45;&gt;Node3 -->
<g id="edge51" class="edge"><title>Node30&#45;&gt;Node3</title>
<path fill="none" stroke="midnightblue" d="M40.3269,-168.341C42.8756,-146.423 52.5541,-88.2044 85.5,-56 108.491,-33.5267 143.402,-22.2135 170.806,-16.5549"/>
<polygon fill="midnightblue" stroke="midnightblue" points="171.723,-19.9438 180.901,-14.6515 170.426,-13.065 171.723,-19.9438"/>
</g>
<!-- Node30&#45;&gt;Node8 -->
<g id="edge52" class="edge"><title>Node30&#45;&gt;Node8</title>
<path fill="none" stroke="midnightblue" d="M66.9124,-168.444C96.2693,-159.28 143.019,-144.688 175.596,-134.519"/>
<polygon fill="midnightblue" stroke="midnightblue" points="176.713,-137.837 185.216,-131.516 174.627,-131.155 176.713,-137.837"/>
</g>
</g>
</svg>
        <g id="navigator" transform="translate(0 0)" fill="#404254">
                <rect fill="#f2f5e9" fill-opacity="0.5" stroke="#606060" stroke-width=".5" x="0" y="0" width="60" height="60"/>
                <use id="zoomplus" xlink:href="#zoomPlus" x="17" y="9" onmousedown="handleZoom(evt,'in')"/>
                <use id="zoomminus" xlink:href="#zoomMin" x="42" y="9" onmousedown="handleZoom(evt,'out')"/>
                <use id="reset" xlink:href="#resetDef" x="30" y="36" onmousedown="handleReset()"/>
                <g id="arrowUp" xlink:href="#dirArrow" transform="translate(30 24)" onmousedown="handlePan(0,-1)">
                  <use xlink:href="#rim" fill="#404040">
                        <set attributeName="fill" to="#808080" begin="arrowUp.mouseover" end="arrowUp.mouseout"/>
                  </use>
                  <path fill="none" stroke="white" stroke-width="1.5" d="M0,-3.0v7 M-2.5,-0.5L0,-3.0L2.5,-0.5"/>
                </g>
                <g id="arrowRight" xlink:href="#dirArrow" transform="rotate(90) translate(36 -43)" onmousedown="handlePan(1,0)">
                  <use xlink:href="#rim" fill="#404040">
                        <set attributeName="fill" to="#808080" begin="arrowRight.mouseover" end="arrowRight.mouseout"/>
                  </use>
                  <path fill="none" stroke="white" stroke-width="1.5" d="M0,-3.0v7 M-2.5,-0.5L0,-3.0L2.5,-0.5"/>
                </g>
                <g id="arrowDown" xlink:href="#dirArrow" transform="rotate(180) translate(-30 -48)" onmousedown="handlePan(0,1)">
                  <use xlink:href="#rim" fill="#404040">
                        <set attributeName="fill" to="#808080" begin="arrowDown.mouseover" end="arrowDown.mouseout"/>
                  </use>
                  <path fill="none" stroke="white" stroke-width="1.5" d="M0,-3.0v7 M-2.5,-0.5L0,-3.0L2.5,-0.5"/>
                </g>
                <g id="arrowLeft" xlink:href="#dirArrow" transform="rotate(270) translate(-36 17)" onmousedown="handlePan(-1,0)">
                  <use xlink:href="#rim" fill="#404040">
                        <set attributeName="fill" to="#808080" begin="arrowLeft.mouseover" end="arrowLeft.mouseout"/>
                  </use>
                  <path fill="none" stroke="white" stroke-width="1.5" d="M0,-3.0v7 M-2.5,-0.5L0,-3.0L2.5,-0.5"/>
                </g>
        </g>
        <svg viewBox="0 0 15 15" width="100%" height="30px" preserveAspectRatio="xMaxYMin meet">
         <g id="arrow_out" transform="scale(0.3 0.3)">
          <a xlink:href="EnemyBulletEntity_8cpp__incl_org.svg" target="_base">
           <rect id="button" ry="5" rx="5" y="6" x="6" height="38" width="38"
                fill="#f2f5e9" fill-opacity="0.5" stroke="#606060" stroke-width="1.0"/>
           <path id="arrow"
             d="M 11.500037,31.436501 C 11.940474,20.09759 22.043105,11.32322 32.158766,21.979434 L 37.068811,17.246167 C 37.068811,17.246167 37.088388,32 37.088388,32 L 22.160133,31.978069 C 22.160133,31.978069 26.997745,27.140456 26.997745,27.140456 C 18.528582,18.264221 13.291696,25.230495 11.500037,31.436501 z"
             style="fill:#404040;"/>
          </a>
         </g>
        </svg>
</svg>
