<?xml version="1.0" encoding="UTF-8" standalone="no"?>
<!DOCTYPE svg PUBLIC "-//W3C//DTD SVG 1.1//EN"
 "http://www.w3.org/Graphics/SVG/1.1/DTD/svg11.dtd">
<!-- Generated by graphviz version 2.38.0 (20140413.2041)
 -->
<!-- Title: src/Components/GameLogic/EnemiesController.cpp Pages: 1 -->
<svg width="291pt" height="319pt"
 viewBox="0.00 0.00 290.50 319.00" xmlns="http://www.w3.org/2000/svg" xmlns:xlink="http://www.w3.org/1999/xlink">
<g id="graph0" class="graph" transform="scale(1 1) rotate(0) translate(4 315)">
<title>src/Components/GameLogic/EnemiesController.cpp</title>
<!-- Node1 -->
<g id="node1" class="node"><title>Node1</title>
<polygon fill="#bfbfbf" stroke="black" points="8.5,-280.5 8.5,-310.5 160.5,-310.5 160.5,-280.5 8.5,-280.5"/>
<text text-anchor="start" x="16.5" y="-298.5" font-family="Helvetica,sans-Serif" font-size="10.00">src/Components/GameLogic</text>
<text text-anchor="middle" x="84.5" y="-287.5" font-family="Helvetica,sans-Serif" font-size="10.00">/EnemiesController.cpp</text>
</g>
<!-- Node2 -->
<g id="node2" class="node"><title>Node2</title>
<polygon fill="none" stroke="#bfbfbf" points="0,-224.5 0,-243.5 59,-243.5 59,-224.5 0,-224.5"/>
<text text-anchor="middle" x="29.5" y="-231.5" font-family="Helvetica,sans-Serif" font-size="10.00">iostream</text>
</g>
<!-- Node1&#45;&gt;Node2 -->
<g id="edge1" class="edge"><title>Node1&#45;&gt;Node2</title>
<path fill="none" stroke="midnightblue" d="M71.4658,-280.399C63.3088,-271.575 52.7781,-260.183 44.3064,-251.018"/>
<polygon fill="midnightblue" stroke="midnightblue" points="46.8611,-248.625 37.503,-243.658 41.7208,-253.377 46.8611,-248.625"/>
</g>
<!-- Node3 -->
<g id="node3" class="node"><title>Node3</title>
<g id="a_node3"><a xlink:href="EnemiesController_8hpp.html" target="_top" xlink:title="EnemiesController.hpp">
<polygon fill="none" stroke="black" points="77,-224.5 77,-243.5 202,-243.5 202,-224.5 77,-224.5"/>
<text text-anchor="middle" x="139.5" y="-231.5" font-family="Helvetica,sans-Serif" font-size="10.00">EnemiesController.hpp</text>
</a>
</g>
</g>
<!-- Node1&#45;&gt;Node3 -->
<g id="edge2" class="edge"><title>Node1&#45;&gt;Node3</title>
<path fill="none" stroke="midnightblue" d="M97.5342,-280.399C105.691,-271.575 116.222,-260.183 124.694,-251.018"/>
<polygon fill="midnightblue" stroke="midnightblue" points="127.279,-253.377 131.497,-243.658 122.139,-248.625 127.279,-253.377"/>
</g>
<!-- Node4 -->
<g id="node4" class="node"><title>Node4</title>
<polygon fill="none" stroke="#bfbfbf" points="87,-0.5 87,-19.5 150,-19.5 150,-0.5 87,-0.5"/>
<text text-anchor="middle" x="118.5" y="-7.5" font-family="Helvetica,sans-Serif" font-size="10.00">typeindex</text>
</g>
<!-- Node3&#45;&gt;Node4 -->
<g id="edge3" class="edge"><title>Node3&#45;&gt;Node4</title>
<path fill="none" stroke="midnightblue" d="M116.712,-224.471C101.174,-217.316 81.7925,-205.435 72.5,-188 43.6856,-133.937 84.4399,-60.8175 106.261,-28.0814"/>
<polygon fill="midnightblue" stroke="midnightblue" points="109.296,-29.8459 112.085,-19.6247 103.53,-25.8757 109.296,-29.8459"/>
</g>
<!-- Node5 -->
<g id="node5" class="node"><title>Node5</title>
<polygon fill="none" stroke="#bfbfbf" points="81.5,-168.5 81.5,-187.5 125.5,-187.5 125.5,-168.5 81.5,-168.5"/>
<text text-anchor="middle" x="103.5" y="-175.5" font-family="Helvetica,sans-Serif" font-size="10.00">string</text>
</g>
<!-- Node3&#45;&gt;Node5 -->
<g id="edge4" class="edge"><title>Node3&#45;&gt;Node5</title>
<path fill="none" stroke="midnightblue" d="M133.555,-224.083C128.523,-216.534 121.163,-205.495 114.987,-196.23"/>
<polygon fill="midnightblue" stroke="midnightblue" points="117.793,-194.13 109.334,-187.751 111.969,-198.013 117.793,-194.13"/>
</g>
<!-- Node6 -->
<g id="node6" class="node"><title>Node6</title>
<g id="a_node6"><a xlink:href="Timer_8hpp.html" target="_top" xlink:title="Timer.hpp">
<polygon fill="none" stroke="black" points="143.5,-168.5 143.5,-187.5 207.5,-187.5 207.5,-168.5 143.5,-168.5"/>
<text text-anchor="middle" x="175.5" y="-175.5" font-family="Helvetica,sans-Serif" font-size="10.00">Timer.hpp</text>
</a>
</g>
</g>
<!-- Node3&#45;&gt;Node6 -->
<g id="edge5" class="edge"><title>Node3&#45;&gt;Node6</title>
<path fill="none" stroke="midnightblue" d="M145.445,-224.083C150.477,-216.534 157.837,-205.495 164.013,-196.23"/>
<polygon fill="midnightblue" stroke="midnightblue" points="167.031,-198.013 169.666,-187.751 161.207,-194.13 167.031,-198.013"/>
</g>
<!-- Node8 -->
<g id="node8" class="node"><title>Node8</title>
<g id="a_node8"><a xlink:href="IGameLogic_8hpp.html" target="_top" xlink:title="IGameLogic.hpp">
<polygon fill="none" stroke="black" points="188.5,-112.5 188.5,-131.5 282.5,-131.5 282.5,-112.5 188.5,-112.5"/>
<text text-anchor="middle" x="235.5" y="-119.5" font-family="Helvetica,sans-Serif" font-size="10.00">IGameLogic.hpp</text>
</a>
</g>
</g>
<!-- Node3&#45;&gt;Node8 -->
<g id="edge12" class="edge"><title>Node3&#45;&gt;Node8</title>
<path fill="none" stroke="midnightblue" d="M163.657,-224.485C180.754,-217.277 202.965,-205.327 216.5,-188 226.894,-174.694 231.606,-155.862 233.739,-141.891"/>
<polygon fill="midnightblue" stroke="midnightblue" points="237.218,-142.278 234.957,-131.927 230.27,-141.428 237.218,-142.278"/>
</g>
<!-- Node6&#45;&gt;Node4 -->
<g id="edge7" class="edge"><title>Node6&#45;&gt;Node4</title>
<path fill="none" stroke="midnightblue" d="M154.017,-168.36C139.108,-161.09 120.389,-149.117 111.5,-132 94.351,-98.9783 104.233,-53.8427 111.986,-29.0843"/>
<polygon fill="midnightblue" stroke="midnightblue" points="115.326,-30.131 115.193,-19.537 108.69,-27.9019 115.326,-30.131"/>
</g>
<!-- Node7 -->
<g id="node7" class="node"><title>Node7</title>
<polygon fill="none" stroke="#bfbfbf" points="120.5,-112.5 120.5,-131.5 170.5,-131.5 170.5,-112.5 120.5,-112.5"/>
<text text-anchor="middle" x="145.5" y="-119.5" font-family="Helvetica,sans-Serif" font-size="10.00">chrono</text>
</g>
<!-- Node6&#45;&gt;Node7 -->
<g id="edge6" class="edge"><title>Node6&#45;&gt;Node7</title>
<path fill="none" stroke="midnightblue" d="M170.546,-168.083C166.396,-160.613 160.347,-149.724 155.233,-140.52"/>
<polygon fill="midnightblue" stroke="midnightblue" points="158.278,-138.793 150.362,-131.751 152.159,-142.192 158.278,-138.793"/>
</g>
<!-- Node6&#45;&gt;Node8 -->
<g id="edge8" class="edge"><title>Node6&#45;&gt;Node8</title>
<path fill="none" stroke="midnightblue" d="M185.14,-168.324C194.01,-160.341 207.375,-148.313 218.108,-138.653"/>
<polygon fill="midnightblue" stroke="midnightblue" points="220.593,-141.125 225.685,-131.834 215.91,-135.922 220.593,-141.125"/>
</g>
<!-- Node8&#45;&gt;Node4 -->
<g id="edge9" class="edge"><title>Node8&#45;&gt;Node4</title>
<path fill="none" stroke="midnightblue" d="M220.66,-112.452C206.867,-104.122 186.155,-90.6073 170.5,-76 154.875,-61.4208 139.951,-41.9964 130.131,-28.1889"/>
<polygon fill="midnightblue" stroke="midnightblue" points="132.783,-25.8711 124.202,-19.6558 127.034,-29.8652 132.783,-25.8711"/>
</g>
<!-- Node9 -->
<g id="node9" class="node"><title>Node9</title>
<g id="a_node9"><a xlink:href="IComponent_8hpp.html" target="_top" xlink:title="IComponent.hpp">
<polygon fill="none" stroke="black" points="179.5,-56.5 179.5,-75.5 275.5,-75.5 275.5,-56.5 179.5,-56.5"/>
<text text-anchor="middle" x="227.5" y="-63.5" font-family="Helvetica,sans-Serif" font-size="10.00">IComponent.hpp</text>
</a>
</g>
</g>
<!-- Node8&#45;&gt;Node9 -->
<g id="edge10" class="edge"><title>Node8&#45;&gt;Node9</title>
<path fill="none" stroke="midnightblue" d="M234.179,-112.083C233.119,-104.927 231.594,-94.6353 230.269,-85.6911"/>
<polygon fill="midnightblue" stroke="midnightblue" points="233.724,-85.1302 228.796,-75.7511 226.8,-86.1561 233.724,-85.1302"/>
</g>
<!-- Node9&#45;&gt;Node4 -->
<g id="edge11" class="edge"><title>Node9&#45;&gt;Node4</title>
<path fill="none" stroke="midnightblue" d="M209.987,-56.324C192.428,-47.6247 165.169,-34.1202 144.969,-24.113"/>
<polygon fill="midnightblue" stroke="midnightblue" points="146.484,-20.9575 135.969,-19.6545 143.376,-27.23 146.484,-20.9575"/>
</g>
</g>
</svg>
