<?xml version="1.0" encoding="UTF-8" standalone="no"?>
<!DOCTYPE svg PUBLIC "-//W3C//DTD SVG 1.1//EN"
 "http://www.w3.org/Graphics/SVG/1.1/DTD/svg11.dtd">
<!-- Generated by graphviz version 2.38.0 (20140413.2041)
 -->
<!-- Title: src/Components/GameLogic/EnemyShoot.hpp Pages: 1 -->
<svg width="1337pt" height="117pt"
 viewBox="0.00 0.00 1337.00 117.00" xmlns="http://www.w3.org/2000/svg" xmlns:xlink="http://www.w3.org/1999/xlink">
<g id="graph0" class="graph" transform="scale(1 1) rotate(0) translate(4 113)">
<title>src/Components/GameLogic/EnemyShoot.hpp</title>
<!-- Node1 -->
<g id="node1" class="node"><title>Node1</title>
<polygon fill="#bfbfbf" stroke="black" points="509,-78.5 509,-108.5 661,-108.5 661,-78.5 509,-78.5"/>
<text text-anchor="start" x="517" y="-96.5" font-family="Helvetica,sans-Serif" font-size="10.00">src/Components/GameLogic</text>
<text text-anchor="middle" x="585" y="-85.5" font-family="Helvetica,sans-Serif" font-size="10.00">/EnemyShoot.hpp</text>
</g>
<!-- Node2 -->
<g id="node2" class="node"><title>Node2</title>
<g id="a_node2"><a xlink:href="EnemyShoot_8cpp.html" target="_top" xlink:title="src/Components/GameLogic\l/EnemyShoot.cpp">
<polygon fill="none" stroke="black" points="0,-6 0,-36 152,-36 152,-6 0,-6"/>
<text text-anchor="start" x="8" y="-24" font-family="Helvetica,sans-Serif" font-size="10.00">src/Components/GameLogic</text>
<text text-anchor="middle" x="76" y="-13" font-family="Helvetica,sans-Serif" font-size="10.00">/EnemyShoot.cpp</text>
</a>
</g>
</g>
<!-- Node1&#45;&gt;Node2 -->
<g id="edge1" class="edge"><title>Node1&#45;&gt;Node2</title>
<path fill="none" stroke="midnightblue" d="M498.822,-85.1033C412.858,-77.0524 277.216,-62.5262 161,-42 151.446,-40.3125 141.356,-38.2187 131.596,-36.0273"/>
<polygon fill="midnightblue" stroke="midnightblue" points="498.515,-88.5897 508.795,-86.0291 499.162,-81.6197 498.515,-88.5897"/>
</g>
<!-- Node3 -->
<g id="node3" class="node"><title>Node3</title>
<g id="a_node3"><a xlink:href="EnemyEntity_8cpp.html" target="_top" xlink:title="src/Entities/EntityConstructor\l/EnemyEntity/EnemyEntity.cpp">
<polygon fill="none" stroke="black" points="170.5,-6 170.5,-36 331.5,-36 331.5,-6 170.5,-6"/>
<text text-anchor="start" x="178.5" y="-24" font-family="Helvetica,sans-Serif" font-size="10.00">src/Entities/EntityConstructor</text>
<text text-anchor="middle" x="251" y="-13" font-family="Helvetica,sans-Serif" font-size="10.00">/EnemyEntity/EnemyEntity.cpp</text>
</a>
</g>
</g>
<!-- Node1&#45;&gt;Node3 -->
<g id="edge2" class="edge"><title>Node1&#45;&gt;Node3</title>
<path fill="none" stroke="midnightblue" d="M505.226,-76.4297C457.287,-66.6798 395.094,-53.8674 340,-42 331.175,-40.0992 321.868,-38.0533 312.731,-36.0212"/>
<polygon fill="midnightblue" stroke="midnightblue" points="504.735,-79.9014 515.231,-78.4623 506.128,-73.0415 504.735,-79.9014"/>
</g>
<!-- Node4 -->
<g id="node4" class="node"><title>Node4</title>
<g id="a_node4"><a xlink:href="EnemyType01Entity_8cpp.html" target="_top" xlink:title="src/Entities/EntityConstructor\l/EnemyType01Entity/EnemyType01Entity.cpp">
<polygon fill="none" stroke="black" points="349.5,-6 349.5,-36 576.5,-36 576.5,-6 349.5,-6"/>
<text text-anchor="start" x="357.5" y="-24" font-family="Helvetica,sans-Serif" font-size="10.00">src/Entities/EntityConstructor</text>
<text text-anchor="middle" x="463" y="-13" font-family="Helvetica,sans-Serif" font-size="10.00">/EnemyType01Entity/EnemyType01Entity.cpp</text>
</a>
</g>
</g>
<!-- Node1&#45;&gt;Node4 -->
<g id="edge3" class="edge"><title>Node1&#45;&gt;Node4</title>
<path fill="none" stroke="midnightblue" d="M551.946,-73.3993C531.567,-61.6225 505.877,-46.7775 487.353,-36.0729"/>
<polygon fill="midnightblue" stroke="midnightblue" points="550.195,-76.4297 560.605,-78.4027 553.698,-70.3689 550.195,-76.4297"/>
</g>
<!-- Node5 -->
<g id="node5" class="node"><title>Node5</title>
<g id="a_node5"><a xlink:href="EnemyType02Entity_8cpp.html" target="_top" xlink:title="src/Entities/EntityConstructor\l/EnemyType02Entity/EnemyType02Entity.cpp">
<polygon fill="none" stroke="black" points="594.5,-6 594.5,-36 821.5,-36 821.5,-6 594.5,-6"/>
<text text-anchor="start" x="602.5" y="-24" font-family="Helvetica,sans-Serif" font-size="10.00">src/Entities/EntityConstructor</text>
<text text-anchor="middle" x="708" y="-13" font-family="Helvetica,sans-Serif" font-size="10.00">/EnemyType02Entity/EnemyType02Entity.cpp</text>
</a>
</g>
</g>
<!-- Node1&#45;&gt;Node5 -->
<g id="edge4" class="edge"><title>Node1&#45;&gt;Node5</title>
<path fill="none" stroke="midnightblue" d="M618.325,-73.3993C638.871,-61.6225 664.771,-46.7775 683.447,-36.0729"/>
<polygon fill="midnightblue" stroke="midnightblue" points="616.531,-70.3933 609.595,-78.4027 620.012,-76.4665 616.531,-70.3933"/>
</g>
<!-- Node6 -->
<g id="node6" class="node"><title>Node6</title>
<g id="a_node6"><a xlink:href="EnemyType03Entity_8cpp.html" target="_top" xlink:title="src/Entities/EntityConstructor\l/EnemyType03Entity/EnemyType03Entity.cpp">
<polygon fill="none" stroke="black" points="839.5,-6 839.5,-36 1066.5,-36 1066.5,-6 839.5,-6"/>
<text text-anchor="start" x="847.5" y="-24" font-family="Helvetica,sans-Serif" font-size="10.00">src/Entities/EntityConstructor</text>
<text text-anchor="middle" x="953" y="-13" font-family="Helvetica,sans-Serif" font-size="10.00">/EnemyType03Entity/EnemyType03Entity.cpp</text>
</a>
</g>
</g>
<!-- Node1&#45;&gt;Node6 -->
<g id="edge5" class="edge"><title>Node1&#45;&gt;Node6</title>
<path fill="none" stroke="midnightblue" d="M668.147,-76.571C731.761,-64.3842 818.647,-47.7389 879.679,-36.0465"/>
<polygon fill="midnightblue" stroke="midnightblue" points="667.308,-73.1681 658.145,-78.4872 668.625,-80.043 667.308,-73.1681"/>
</g>
<!-- Node7 -->
<g id="node7" class="node"><title>Node7</title>
<g id="a_node7"><a xlink:href="EnemiesMovementSystem_8cpp.html" target="_top" xlink:title="src/Systems/SystemConstructor\l/EnemiesMovementSystem/EnemiesMovement\lSystem.cpp">
<polygon fill="none" stroke="black" points="1085,-0.5 1085,-41.5 1329,-41.5 1329,-0.5 1085,-0.5"/>
<text text-anchor="start" x="1093" y="-29.5" font-family="Helvetica,sans-Serif" font-size="10.00">src/Systems/SystemConstructor</text>
<text text-anchor="start" x="1093" y="-18.5" font-family="Helvetica,sans-Serif" font-size="10.00">/EnemiesMovementSystem/EnemiesMovement</text>
<text text-anchor="middle" x="1207" y="-7.5" font-family="Helvetica,sans-Serif" font-size="10.00">System.cpp</text>
</a>
</g>
</g>
<!-- Node1&#45;&gt;Node7 -->
<g id="edge6" class="edge"><title>Node1&#45;&gt;Node7</title>
<path fill="none" stroke="midnightblue" d="M671.425,-84.9027C769.616,-75.9712 934.587,-60.0561 1076,-42 1078.97,-41.6212 1081.97,-41.2293 1085,-40.8266"/>
<polygon fill="midnightblue" stroke="midnightblue" points="670.898,-81.436 661.255,-85.8245 671.53,-88.4074 670.898,-81.436"/>
</g>
</g>
</svg>
