<?xml version="1.0" encoding="UTF-8" standalone="no"?>
<!DOCTYPE svg PUBLIC "-//W3C//DTD SVG 1.1//EN"
 "http://www.w3.org/Graphics/SVG/1.1/DTD/svg11.dtd">
<!-- Generated by graphviz version 2.38.0 (20140413.2041)
 -->
<!-- Title: src/Entities/EntityManager/EntityManager.cpp Pages: 1 -->
<svg width="816pt" height="263pt"
 viewBox="0.00 0.00 816.12 263.00" xmlns="http://www.w3.org/2000/svg" xmlns:xlink="http://www.w3.org/1999/xlink">
<g id="graph0" class="graph" transform="scale(1 1) rotate(0) translate(4 259)">
<title>src/Entities/EntityManager/EntityManager.cpp</title>
<!-- Node1 -->
<g id="node1" class="node"><title>Node1</title>
<polygon fill="#bfbfbf" stroke="black" points="318.615,-224.5 318.615,-254.5 459.615,-254.5 459.615,-224.5 318.615,-224.5"/>
<text text-anchor="start" x="326.615" y="-242.5" font-family="Helvetica,sans-Serif" font-size="10.00">src/Entities/EntityManager</text>
<text text-anchor="middle" x="389.115" y="-231.5" font-family="Helvetica,sans-Serif" font-size="10.00">/EntityManager.cpp</text>
</g>
<!-- Node2 -->
<g id="node2" class="node"><title>Node2</title>
<g id="a_node2"><a xlink:href="EntityExceptions_8hpp.html" target="_top" xlink:title="EntityExceptions.hpp">
<polygon fill="none" stroke="black" points="184.115,-168.5 184.115,-187.5 300.115,-187.5 300.115,-168.5 184.115,-168.5"/>
<text text-anchor="middle" x="242.115" y="-175.5" font-family="Helvetica,sans-Serif" font-size="10.00">EntityExceptions.hpp</text>
</a>
</g>
</g>
<!-- Node1&#45;&gt;Node2 -->
<g id="edge1" class="edge"><title>Node1&#45;&gt;Node2</title>
<path fill="none" stroke="midnightblue" d="M354.279,-224.399C329.614,-214.416 296.83,-201.147 273.081,-191.534"/>
<polygon fill="midnightblue" stroke="midnightblue" points="274.088,-188.165 263.505,-187.658 271.462,-194.654 274.088,-188.165"/>
</g>
<!-- Node6 -->
<g id="node6" class="node"><title>Node6</title>
<g id="a_node6"><a xlink:href="Position_8hpp.html" target="_top" xlink:title="Position.hpp">
<polygon fill="none" stroke="black" points="673.615,-168.5 673.615,-187.5 748.615,-187.5 748.615,-168.5 673.615,-168.5"/>
<text text-anchor="middle" x="711.115" y="-175.5" font-family="Helvetica,sans-Serif" font-size="10.00">Position.hpp</text>
</a>
</g>
</g>
<!-- Node1&#45;&gt;Node6 -->
<g id="edge7" class="edge"><title>Node1&#45;&gt;Node6</title>
<path fill="none" stroke="midnightblue" d="M459.78,-225.442C521.521,-214.034 609.469,-197.783 663.286,-187.838"/>
<polygon fill="midnightblue" stroke="midnightblue" points="664.052,-191.256 673.25,-185.997 662.78,-184.372 664.052,-191.256"/>
</g>
<!-- Node11 -->
<g id="node11" class="node"><title>Node11</title>
<g id="a_node11"><a xlink:href="Rotation_8hpp.html" target="_top" xlink:title="Rotation.hpp">
<polygon fill="none" stroke="black" points="519.615,-168.5 519.615,-187.5 596.615,-187.5 596.615,-168.5 519.615,-168.5"/>
<text text-anchor="middle" x="558.115" y="-175.5" font-family="Helvetica,sans-Serif" font-size="10.00">Rotation.hpp</text>
</a>
</g>
</g>
<!-- Node1&#45;&gt;Node11 -->
<g id="edge12" class="edge"><title>Node1&#45;&gt;Node11</title>
<path fill="none" stroke="midnightblue" d="M429.166,-224.399C458.028,-214.238 496.561,-200.672 523.969,-191.022"/>
<polygon fill="midnightblue" stroke="midnightblue" points="525.254,-194.28 533.524,-187.658 522.93,-187.677 525.254,-194.28"/>
</g>
<!-- Node12 -->
<g id="node12" class="node"><title>Node12</title>
<g id="a_node12"><a xlink:href="EntityManager_8hpp.html" target="_top" xlink:title="EntityManager.hpp">
<polygon fill="none" stroke="black" points="336.115,-168.5 336.115,-187.5 442.115,-187.5 442.115,-168.5 336.115,-168.5"/>
<text text-anchor="middle" x="389.115" y="-175.5" font-family="Helvetica,sans-Serif" font-size="10.00">EntityManager.hpp</text>
</a>
</g>
</g>
<!-- Node1&#45;&gt;Node12 -->
<g id="edge14" class="edge"><title>Node1&#45;&gt;Node12</title>
<path fill="none" stroke="midnightblue" d="M389.115,-224.399C389.115,-216.466 389.115,-206.458 389.115,-197.858"/>
<polygon fill="midnightblue" stroke="midnightblue" points="392.616,-197.658 389.115,-187.658 385.616,-197.658 392.616,-197.658"/>
</g>
<!-- Node22 -->
<g id="node22" class="node"><title>Node22</title>
<g id="a_node22"><a xlink:href="ComponentExceptions_8hpp.html" target="_top" xlink:title="ComponentExceptions.hpp">
<polygon fill="none" stroke="black" points="20.1155,-168.5 20.1155,-187.5 166.115,-187.5 166.115,-168.5 20.1155,-168.5"/>
<text text-anchor="middle" x="93.1155" y="-175.5" font-family="Helvetica,sans-Serif" font-size="10.00">ComponentExceptions.hpp</text>
</a>
</g>
</g>
<!-- Node1&#45;&gt;Node22 -->
<g id="edge31" class="edge"><title>Node1&#45;&gt;Node22</title>
<path fill="none" stroke="midnightblue" d="M319.342,-224.475C266.046,-213.761 193.758,-199.23 145.378,-189.506"/>
<polygon fill="midnightblue" stroke="midnightblue" points="145.927,-186.046 135.433,-187.506 144.547,-192.909 145.927,-186.046"/>
</g>
<!-- Node3 -->
<g id="node3" class="node"><title>Node3</title>
<polygon fill="none" stroke="#bfbfbf" points="139.115,-0.5 139.115,-19.5 183.115,-19.5 183.115,-0.5 139.115,-0.5"/>
<text text-anchor="middle" x="161.115" y="-7.5" font-family="Helvetica,sans-Serif" font-size="10.00">string</text>
</g>
<!-- Node2&#45;&gt;Node3 -->
<g id="edge2" class="edge"><title>Node2&#45;&gt;Node3</title>
<path fill="none" stroke="midnightblue" d="M237.761,-168.075C224.9,-141.719 186.917,-63.878 169.733,-28.6608"/>
<polygon fill="midnightblue" stroke="midnightblue" points="172.827,-27.0204 165.296,-19.5681 166.536,-30.0902 172.827,-27.0204"/>
</g>
<!-- Node4 -->
<g id="node4" class="node"><title>Node4</title>
<g id="a_node4"><a xlink:href="ECSExceptions_8hpp.html" target="_top" xlink:title="ECSExceptions.hpp">
<polygon fill="none" stroke="black" points="49.6155,-112.5 49.6155,-131.5 158.615,-131.5 158.615,-112.5 49.6155,-112.5"/>
<text text-anchor="middle" x="104.115" y="-119.5" font-family="Helvetica,sans-Serif" font-size="10.00">ECSExceptions.hpp</text>
</a>
</g>
</g>
<!-- Node2&#45;&gt;Node4 -->
<g id="edge3" class="edge"><title>Node2&#45;&gt;Node4</title>
<path fill="none" stroke="midnightblue" d="M220.249,-168.444C197.336,-159.478 161.14,-145.314 135.249,-135.183"/>
<polygon fill="midnightblue" stroke="midnightblue" points="136.468,-131.901 125.88,-131.516 133.917,-138.42 136.468,-131.901"/>
</g>
<!-- Node4&#45;&gt;Node3 -->
<g id="edge4" class="edge"><title>Node4&#45;&gt;Node3</title>
<path fill="none" stroke="midnightblue" d="M113.526,-112.198C122.109,-103.689 134.569,-90.0534 142.115,-76 149.938,-61.4342 154.899,-43.2572 157.783,-29.8316"/>
<polygon fill="midnightblue" stroke="midnightblue" points="161.249,-30.341 159.733,-19.8552 154.379,-28.9978 161.249,-30.341"/>
</g>
<!-- Node5 -->
<g id="node5" class="node"><title>Node5</title>
<g id="a_node5"><a xlink:href="RTypeExceptions_8hpp.html" target="_top" xlink:title="RTypeExceptions.hpp">
<polygon fill="none" stroke="black" points="17.1155,-56.5 17.1155,-75.5 133.115,-75.5 133.115,-56.5 17.1155,-56.5"/>
<text text-anchor="middle" x="75.1155" y="-63.5" font-family="Helvetica,sans-Serif" font-size="10.00">RTypeExceptions.hpp</text>
</a>
</g>
</g>
<!-- Node4&#45;&gt;Node5 -->
<g id="edge5" class="edge"><title>Node4&#45;&gt;Node5</title>
<path fill="none" stroke="midnightblue" d="M99.3267,-112.083C95.3571,-104.691 89.5904,-93.9533 84.6807,-84.8111"/>
<polygon fill="midnightblue" stroke="midnightblue" points="87.6299,-82.9051 79.8151,-75.7511 81.4629,-86.217 87.6299,-82.9051"/>
</g>
<!-- Node5&#45;&gt;Node3 -->
<g id="edge6" class="edge"><title>Node5&#45;&gt;Node3</title>
<path fill="none" stroke="midnightblue" d="M88.9328,-56.324C102.348,-47.9002 122.94,-34.9709 138.701,-25.0741"/>
<polygon fill="midnightblue" stroke="midnightblue" points="140.725,-27.9364 147.332,-19.6545 137.002,-22.0081 140.725,-27.9364"/>
</g>
<!-- Node7 -->
<g id="node7" class="node"><title>Node7</title>
<polygon fill="none" stroke="#bfbfbf" points="766.115,-112.5 766.115,-131.5 808.115,-131.5 808.115,-112.5 766.115,-112.5"/>
<text text-anchor="middle" x="787.115" y="-119.5" font-family="Helvetica,sans-Serif" font-size="10.00">utility</text>
</g>
<!-- Node6&#45;&gt;Node7 -->
<g id="edge8" class="edge"><title>Node6&#45;&gt;Node7</title>
<path fill="none" stroke="midnightblue" d="M723.326,-168.324C734.891,-160.107 752.491,-147.602 766.276,-137.807"/>
<polygon fill="midnightblue" stroke="midnightblue" points="768.558,-140.479 774.683,-131.834 764.504,-134.773 768.558,-140.479"/>
</g>
<!-- Node8 -->
<g id="node8" class="node"><title>Node8</title>
<g id="a_node8"><a xlink:href="IPhysics_8hpp.html" target="_top" xlink:title="IPhysics.hpp">
<polygon fill="none" stroke="black" points="673.615,-112.5 673.615,-131.5 748.615,-131.5 748.615,-112.5 673.615,-112.5"/>
<text text-anchor="middle" x="711.115" y="-119.5" font-family="Helvetica,sans-Serif" font-size="10.00">IPhysics.hpp</text>
</a>
</g>
</g>
<!-- Node6&#45;&gt;Node8 -->
<g id="edge9" class="edge"><title>Node6&#45;&gt;Node8</title>
<path fill="none" stroke="midnightblue" d="M711.115,-168.083C711.115,-161.006 711.115,-150.861 711.115,-141.986"/>
<polygon fill="midnightblue" stroke="midnightblue" points="714.616,-141.751 711.115,-131.751 707.616,-141.751 714.616,-141.751"/>
</g>
<!-- Node9 -->
<g id="node9" class="node"><title>Node9</title>
<g id="a_node9"><a xlink:href="IComponent_8hpp.html" target="_top" xlink:title="IComponent.hpp">
<polygon fill="none" stroke="black" points="639.115,-56.5 639.115,-75.5 735.115,-75.5 735.115,-56.5 639.115,-56.5"/>
<text text-anchor="middle" x="687.115" y="-63.5" font-family="Helvetica,sans-Serif" font-size="10.00">IComponent.hpp</text>
</a>
</g>
</g>
<!-- Node8&#45;&gt;Node9 -->
<g id="edge10" class="edge"><title>Node8&#45;&gt;Node9</title>
<path fill="none" stroke="midnightblue" d="M707.152,-112.083C703.902,-104.77 699.196,-94.1814 695.161,-85.1034"/>
<polygon fill="midnightblue" stroke="midnightblue" points="698.265,-83.4677 691.005,-75.7511 691.868,-86.3107 698.265,-83.4677"/>
</g>
<!-- Node10 -->
<g id="node10" class="node"><title>Node10</title>
<polygon fill="none" stroke="#bfbfbf" points="655.615,-0.5 655.615,-19.5 718.615,-19.5 718.615,-0.5 655.615,-0.5"/>
<text text-anchor="middle" x="687.115" y="-7.5" font-family="Helvetica,sans-Serif" font-size="10.00">typeindex</text>
</g>
<!-- Node9&#45;&gt;Node10 -->
<g id="edge11" class="edge"><title>Node9&#45;&gt;Node10</title>
<path fill="none" stroke="midnightblue" d="M687.115,-56.083C687.115,-49.0059 687.115,-38.8611 687.115,-29.9865"/>
<polygon fill="midnightblue" stroke="midnightblue" points="690.616,-29.751 687.115,-19.7511 683.616,-29.7511 690.616,-29.751"/>
</g>
<!-- Node11&#45;&gt;Node8 -->
<g id="edge13" class="edge"><title>Node11&#45;&gt;Node8</title>
<path fill="none" stroke="midnightblue" d="M582.359,-168.444C607.986,-159.399 648.601,-145.064 677.354,-134.916"/>
<polygon fill="midnightblue" stroke="midnightblue" points="678.721,-138.145 686.986,-131.516 676.391,-131.544 678.721,-138.145"/>
</g>
<!-- Node13 -->
<g id="node13" class="node"><title>Node13</title>
<polygon fill="none" stroke="#bfbfbf" points="617.115,-112.5 617.115,-131.5 655.115,-131.5 655.115,-112.5 617.115,-112.5"/>
<text text-anchor="middle" x="636.115" y="-119.5" font-family="Helvetica,sans-Serif" font-size="10.00">map</text>
</g>
<!-- Node12&#45;&gt;Node13 -->
<g id="edge15" class="edge"><title>Node12&#45;&gt;Node13</title>
<path fill="none" stroke="midnightblue" d="M437.053,-168.494C481.429,-160.293 549.111,-146.95 607.115,-132 607.214,-131.975 607.313,-131.949 607.413,-131.923"/>
<polygon fill="midnightblue" stroke="midnightblue" points="608.17,-135.346 616.847,-129.267 606.273,-128.608 608.17,-135.346"/>
</g>
<!-- Node14 -->
<g id="node14" class="node"><title>Node14</title>
<polygon fill="none" stroke="#bfbfbf" points="355.615,-56.5 355.615,-75.5 402.615,-75.5 402.615,-56.5 355.615,-56.5"/>
<text text-anchor="middle" x="379.115" y="-63.5" font-family="Helvetica,sans-Serif" font-size="10.00">vector</text>
</g>
<!-- Node12&#45;&gt;Node14 -->
<g id="edge16" class="edge"><title>Node12&#45;&gt;Node14</title>
<path fill="none" stroke="midnightblue" d="M368.268,-168.427C353.538,-161.129 334.911,-149.091 326.115,-132 316.095,-112.529 336.139,-93.5028 354.382,-81.1183"/>
<polygon fill="midnightblue" stroke="midnightblue" points="356.496,-83.9214 363.053,-75.5993 352.738,-78.0161 356.496,-83.9214"/>
</g>
<!-- Node15 -->
<g id="node15" class="node"><title>Node15</title>
<g id="a_node15"><a xlink:href="PacketManager_8hpp.html" target="_top" xlink:title="PacketManager.hpp">
<polygon fill="none" stroke="black" points="227.115,-56.5 227.115,-75.5 337.115,-75.5 337.115,-56.5 227.115,-56.5"/>
<text text-anchor="middle" x="282.115" y="-63.5" font-family="Helvetica,sans-Serif" font-size="10.00">PacketManager.hpp</text>
</a>
</g>
</g>
<!-- Node12&#45;&gt;Node15 -->
<g id="edge17" class="edge"><title>Node12&#45;&gt;Node15</title>
<path fill="none" stroke="midnightblue" d="M371.33,-168.392C356.338,-160.485 335.008,-147.639 320.115,-132 307.042,-118.271 296.585,-99.2358 289.976,-85.3129"/>
<polygon fill="midnightblue" stroke="midnightblue" points="293.001,-83.5062 285.693,-75.8351 286.622,-86.3891 293.001,-83.5062"/>
</g>
<!-- Node18 -->
<g id="node18" class="node"><title>Node18</title>
<g id="a_node18"><a xlink:href="IComponentManager_8hpp.html" target="_top" xlink:title="IComponentManager.hpp">
<polygon fill="none" stroke="black" points="461.615,-112.5 461.615,-131.5 598.615,-131.5 598.615,-112.5 461.615,-112.5"/>
<text text-anchor="middle" x="530.115" y="-119.5" font-family="Helvetica,sans-Serif" font-size="10.00">IComponentManager.hpp</text>
</a>
</g>
</g>
<!-- Node12&#45;&gt;Node18 -->
<g id="edge21" class="edge"><title>Node12&#45;&gt;Node18</title>
<path fill="none" stroke="midnightblue" d="M411.457,-168.444C434.868,-159.478 471.851,-145.314 498.305,-135.183"/>
<polygon fill="midnightblue" stroke="midnightblue" points="499.791,-138.361 507.878,-131.516 497.288,-131.824 499.791,-138.361"/>
</g>
<!-- Node21 -->
<g id="node21" class="node"><title>Node21</title>
<g id="a_node21"><a xlink:href="IEntityManager_8hpp.html" target="_top" xlink:title="IEntityManager.hpp">
<polygon fill="none" stroke="black" points="335.115,-112.5 335.115,-131.5 443.115,-131.5 443.115,-112.5 335.115,-112.5"/>
<text text-anchor="middle" x="389.115" y="-119.5" font-family="Helvetica,sans-Serif" font-size="10.00">IEntityManager.hpp</text>
</a>
</g>
</g>
<!-- Node12&#45;&gt;Node21 -->
<g id="edge26" class="edge"><title>Node12&#45;&gt;Node21</title>
<path fill="none" stroke="midnightblue" d="M389.115,-168.083C389.115,-161.006 389.115,-150.861 389.115,-141.986"/>
<polygon fill="midnightblue" stroke="midnightblue" points="392.616,-141.751 389.115,-131.751 385.616,-141.751 392.616,-141.751"/>
</g>
<!-- Node15&#45;&gt;Node3 -->
<g id="edge18" class="edge"><title>Node15&#45;&gt;Node3</title>
<path fill="none" stroke="midnightblue" d="M262.943,-56.4435C243.206,-47.6356 212.23,-33.8116 189.622,-23.722"/>
<polygon fill="midnightblue" stroke="midnightblue" points="190.757,-20.3957 180.199,-19.5164 187.904,-26.788 190.757,-20.3957"/>
</g>
<!-- Node16 -->
<g id="node16" class="node"><title>Node16</title>
<polygon fill="none" stroke="#bfbfbf" points="461.115,-0.5 461.115,-19.5 491.115,-19.5 491.115,-0.5 461.115,-0.5"/>
<text text-anchor="middle" x="476.115" y="-7.5" font-family="Helvetica,sans-Serif" font-size="10.00">list</text>
</g>
<!-- Node15&#45;&gt;Node16 -->
<g id="edge19" class="edge"><title>Node15&#45;&gt;Node16</title>
<path fill="none" stroke="midnightblue" d="M312.855,-56.4435C351.004,-45.8247 415.346,-27.9153 450.793,-18.0485"/>
<polygon fill="midnightblue" stroke="midnightblue" points="452.11,-21.315 460.805,-15.2616 450.233,-14.5714 452.11,-21.315"/>
</g>
<!-- Node17 -->
<g id="node17" class="node"><title>Node17</title>
<g id="a_node17"><a xlink:href="Input_8hpp.html" target="_top" xlink:title="Render/Input.hpp">
<polygon fill="none" stroke="black" points="233.115,-0.5 233.115,-19.5 331.115,-19.5 331.115,-0.5 233.115,-0.5"/>
<text text-anchor="middle" x="282.115" y="-7.5" font-family="Helvetica,sans-Serif" font-size="10.00">Render/Input.hpp</text>
</a>
</g>
</g>
<!-- Node15&#45;&gt;Node17 -->
<g id="edge20" class="edge"><title>Node15&#45;&gt;Node17</title>
<path fill="none" stroke="midnightblue" d="M282.115,-56.083C282.115,-49.0059 282.115,-38.8611 282.115,-29.9865"/>
<polygon fill="midnightblue" stroke="midnightblue" points="285.616,-29.751 282.115,-19.7511 278.616,-29.7511 285.616,-29.751"/>
</g>
<!-- Node18&#45;&gt;Node9 -->
<g id="edge24" class="edge"><title>Node18&#45;&gt;Node9</title>
<path fill="none" stroke="midnightblue" d="M554.993,-112.444C581.405,-103.359 623.331,-88.9388 652.857,-78.7831"/>
<polygon fill="midnightblue" stroke="midnightblue" points="654.037,-82.0787 662.355,-75.5164 651.76,-75.4593 654.037,-82.0787"/>
</g>
<!-- Node18&#45;&gt;Node16 -->
<g id="edge22" class="edge"><title>Node18&#45;&gt;Node16</title>
<path fill="none" stroke="midnightblue" d="M541.223,-112.465C556.145,-99.9239 579.447,-75.855 567.115,-56 552.811,-32.9688 522.84,-21.3679 501.195,-15.7765"/>
<polygon fill="midnightblue" stroke="midnightblue" points="501.876,-12.3415 491.344,-13.4906 500.294,-19.1604 501.876,-12.3415"/>
</g>
<!-- Node19 -->
<g id="node19" class="node"><title>Node19</title>
<polygon fill="none" stroke="#bfbfbf" points="501.615,-56.5 501.615,-75.5 558.615,-75.5 558.615,-56.5 501.615,-56.5"/>
<text text-anchor="middle" x="530.115" y="-63.5" font-family="Helvetica,sans-Serif" font-size="10.00">memory</text>
</g>
<!-- Node18&#45;&gt;Node19 -->
<g id="edge23" class="edge"><title>Node18&#45;&gt;Node19</title>
<path fill="none" stroke="midnightblue" d="M530.115,-112.083C530.115,-105.006 530.115,-94.8611 530.115,-85.9865"/>
<polygon fill="midnightblue" stroke="midnightblue" points="533.616,-85.751 530.115,-75.7511 526.616,-85.7511 533.616,-85.751"/>
</g>
<!-- Node20 -->
<g id="node20" class="node"><title>Node20</title>
<g id="a_node20"><a xlink:href="Entity_8hpp.html" target="_top" xlink:title="Entity.hpp">
<polygon fill="none" stroke="black" points="420.615,-56.5 420.615,-75.5 483.615,-75.5 483.615,-56.5 420.615,-56.5"/>
<text text-anchor="middle" x="452.115" y="-63.5" font-family="Helvetica,sans-Serif" font-size="10.00">Entity.hpp</text>
</a>
</g>
</g>
<!-- Node18&#45;&gt;Node20 -->
<g id="edge25" class="edge"><title>Node18&#45;&gt;Node20</title>
<path fill="none" stroke="midnightblue" d="M517.583,-112.324C505.53,-103.979 487.089,-91.2122 472.847,-81.3524"/>
<polygon fill="midnightblue" stroke="midnightblue" points="474.831,-78.469 464.616,-75.6545 470.846,-84.2243 474.831,-78.469"/>
</g>
<!-- Node21&#45;&gt;Node14 -->
<g id="edge28" class="edge"><title>Node21&#45;&gt;Node14</title>
<path fill="none" stroke="midnightblue" d="M387.464,-112.083C386.139,-104.927 384.233,-94.6353 382.577,-85.6911"/>
<polygon fill="midnightblue" stroke="midnightblue" points="385.998,-84.9466 380.736,-75.7511 379.116,-86.2212 385.998,-84.9466"/>
</g>
<!-- Node21&#45;&gt;Node15 -->
<g id="edge30" class="edge"><title>Node21&#45;&gt;Node15</title>
<path fill="none" stroke="midnightblue" d="M371.924,-112.324C354.765,-103.664 328.17,-90.2424 308.368,-80.249"/>
<polygon fill="midnightblue" stroke="midnightblue" points="309.769,-77.0354 299.264,-75.6545 306.615,-83.2847 309.769,-77.0354"/>
</g>
<!-- Node21&#45;&gt;Node19 -->
<g id="edge27" class="edge"><title>Node21&#45;&gt;Node19</title>
<path fill="none" stroke="midnightblue" d="M411.457,-112.444C434.868,-103.478 471.851,-89.314 498.305,-79.1827"/>
<polygon fill="midnightblue" stroke="midnightblue" points="499.791,-82.3615 507.878,-75.5164 497.288,-75.8245 499.791,-82.3615"/>
</g>
<!-- Node21&#45;&gt;Node20 -->
<g id="edge29" class="edge"><title>Node21&#45;&gt;Node20</title>
<path fill="none" stroke="midnightblue" d="M399.237,-112.324C408.642,-104.263 422.86,-92.0765 434.184,-82.3695"/>
<polygon fill="midnightblue" stroke="midnightblue" points="436.494,-84.9993 441.809,-75.8339 431.939,-79.6844 436.494,-84.9993"/>
</g>
<!-- Node22&#45;&gt;Node3 -->
<g id="edge32" class="edge"><title>Node22&#45;&gt;Node3</title>
<path fill="none" stroke="midnightblue" d="M78.7503,-168.366C47.2321,-148.346 -22.7985,-97.3157 8.11545,-56 22.6117,-36.6261 88.6347,-22.7305 129.067,-15.8638"/>
<polygon fill="midnightblue" stroke="midnightblue" points="129.693,-19.3078 138.993,-14.2314 128.557,-12.4006 129.693,-19.3078"/>
</g>
<!-- Node22&#45;&gt;Node4 -->
<g id="edge33" class="edge"><title>Node22&#45;&gt;Node4</title>
<path fill="none" stroke="midnightblue" d="M94.9319,-168.083C96.3895,-160.927 98.486,-150.635 100.308,-141.691"/>
<polygon fill="midnightblue" stroke="midnightblue" points="103.766,-142.248 102.333,-131.751 96.9071,-140.851 103.766,-142.248"/>
</g>
</g>
</svg>
