<?xml version="1.0" encoding="UTF-8" standalone="no"?>
<!DOCTYPE svg PUBLIC "-//W3C//DTD SVG 1.1//EN"
 "http://www.w3.org/Graphics/SVG/1.1/DTD/svg11.dtd">
<!-- Generated by graphviz version 2.38.0 (20140413.2041)
 -->
<!-- Title: src/Exceptions/EntityExceptions.hpp Pages: 1 -->
<svg width="243pt" height="196pt"
 viewBox="0.00 0.00 243.00 196.00" xmlns="http://www.w3.org/2000/svg" xmlns:xlink="http://www.w3.org/1999/xlink">
<g id="graph0" class="graph" transform="scale(1 1) rotate(0) translate(4 192)">
<title>src/Exceptions/EntityExceptions.hpp</title>
<!-- Node1 -->
<g id="node1" class="node"><title>Node1</title>
<polygon fill="#bfbfbf" stroke="black" points="0,-168.5 0,-187.5 188,-187.5 188,-168.5 0,-168.5"/>
<text text-anchor="middle" x="94" y="-175.5" font-family="Helvetica,sans-Serif" font-size="10.00">src/Exceptions/EntityExceptions.hpp</text>
</g>
<!-- Node2 -->
<g id="node2" class="node"><title>Node2</title>
<polygon fill="none" stroke="#bfbfbf" points="69,-0.5 69,-19.5 113,-19.5 113,-0.5 69,-0.5"/>
<text text-anchor="middle" x="91" y="-7.5" font-family="Helvetica,sans-Serif" font-size="10.00">string</text>
</g>
<!-- Node1&#45;&gt;Node2 -->
<g id="edge1" class="edge"><title>Node1&#45;&gt;Node2</title>
<path fill="none" stroke="midnightblue" d="M88.3622,-168.481C82.946,-159.745 75.1363,-145.556 72,-132 63.6454,-95.8891 75.476,-52.8575 83.8777,-29.0703"/>
<polygon fill="midnightblue" stroke="midnightblue" points="87.1985,-30.1819 87.4118,-19.5892 80.6394,-27.7369 87.1985,-30.1819"/>
</g>
<!-- Node3 -->
<g id="node3" class="node"><title>Node3</title>
<g id="a_node3"><a xlink:href="ECSExceptions_8hpp.html" target="_top" xlink:title="ECSExceptions.hpp">
<polygon fill="none" stroke="black" points="81.5,-112.5 81.5,-131.5 190.5,-131.5 190.5,-112.5 81.5,-112.5"/>
<text text-anchor="middle" x="136" y="-119.5" font-family="Helvetica,sans-Serif" font-size="10.00">ECSExceptions.hpp</text>
</a>
</g>
</g>
<!-- Node1&#45;&gt;Node3 -->
<g id="edge2" class="edge"><title>Node1&#45;&gt;Node3</title>
<path fill="none" stroke="midnightblue" d="M100.935,-168.083C106.929,-160.377 115.752,-149.033 123.048,-139.653"/>
<polygon fill="midnightblue" stroke="midnightblue" points="125.817,-141.793 129.194,-131.751 120.291,-137.496 125.817,-141.793"/>
</g>
<!-- Node3&#45;&gt;Node2 -->
<g id="edge3" class="edge"><title>Node3&#45;&gt;Node2</title>
<path fill="none" stroke="midnightblue" d="M130.168,-112.361C124.414,-103.533 115.677,-89.2734 110,-76 103.498,-60.7988 98.4065,-42.6845 95.1374,-29.4444"/>
<polygon fill="midnightblue" stroke="midnightblue" points="98.5277,-28.5719 92.8291,-19.6402 91.714,-30.1762 98.5277,-28.5719"/>
</g>
<!-- Node4 -->
<g id="node4" class="node"><title>Node4</title>
<g id="a_node4"><a xlink:href="RTypeExceptions_8hpp.html" target="_top" xlink:title="RTypeExceptions.hpp">
<polygon fill="none" stroke="black" points="119,-56.5 119,-75.5 235,-75.5 235,-56.5 119,-56.5"/>
<text text-anchor="middle" x="177" y="-63.5" font-family="Helvetica,sans-Serif" font-size="10.00">RTypeExceptions.hpp</text>
</a>
</g>
</g>
<!-- Node3&#45;&gt;Node4 -->
<g id="edge4" class="edge"><title>Node3&#45;&gt;Node4</title>
<path fill="none" stroke="midnightblue" d="M142.77,-112.083C148.562,-104.455 157.058,-93.2645 164.138,-83.9408"/>
<polygon fill="midnightblue" stroke="midnightblue" points="167.096,-85.8321 170.356,-75.7511 161.521,-81.5991 167.096,-85.8321"/>
</g>
<!-- Node4&#45;&gt;Node2 -->
<g id="edge5" class="edge"><title>Node4&#45;&gt;Node2</title>
<path fill="none" stroke="midnightblue" d="M163.183,-56.324C149.767,-47.9002 129.176,-34.9709 113.414,-25.0741"/>
<polygon fill="midnightblue" stroke="midnightblue" points="115.113,-22.0081 104.783,-19.6545 111.391,-27.9364 115.113,-22.0081"/>
</g>
</g>
</svg>
