<?xml version="1.0" encoding="UTF-8" standalone="no"?>
<!DOCTYPE svg PUBLIC "-//W3C//DTD SVG 1.1//EN"
 "http://www.w3.org/Graphics/SVG/1.1/DTD/svg11.dtd">
<!-- Generated by graphviz version 2.38.0 (20140413.2041)
 -->
<!-- Title: src/Exceptions/EntityExceptions.hpp Pages: 1 -->
<svg width="489pt" height="95pt"
 viewBox="0.00 0.00 488.50 95.00" xmlns="http://www.w3.org/2000/svg" xmlns:xlink="http://www.w3.org/1999/xlink">
<g id="graph0" class="graph" transform="scale(1 1) rotate(0) translate(4 91)">
<title>src/Exceptions/EntityExceptions.hpp</title>
<!-- Node1 -->
<g id="node1" class="node"><title>Node1</title>
<polygon fill="#bfbfbf" stroke="black" points="122.5,-67.5 122.5,-86.5 310.5,-86.5 310.5,-67.5 122.5,-67.5"/>
<text text-anchor="middle" x="216.5" y="-74.5" font-family="Helvetica,sans-Serif" font-size="10.00">src/Exceptions/EntityExceptions.hpp</text>
</g>
<!-- Node2 -->
<g id="node2" class="node"><title>Node2</title>
<g id="a_node2"><a xlink:href="EntityManager_8cpp.html" target="_top" xlink:title="src/Entities/EntityManager\l/EntityManager.cpp">
<polygon fill="none" stroke="black" points="0,-0.5 0,-30.5 141,-30.5 141,-0.5 0,-0.5"/>
<text text-anchor="start" x="8" y="-18.5" font-family="Helvetica,sans-Serif" font-size="10.00">src/Entities/EntityManager</text>
<text text-anchor="middle" x="70.5" y="-7.5" font-family="Helvetica,sans-Serif" font-size="10.00">/EntityManager.cpp</text>
</a>
</g>
</g>
<!-- Node1&#45;&gt;Node2 -->
<g id="edge1" class="edge"><title>Node1&#45;&gt;Node2</title>
<path fill="none" stroke="midnightblue" d="M186.048,-63.5899C162.376,-53.9425 129.532,-40.5575 104.909,-30.523"/>
<polygon fill="midnightblue" stroke="midnightblue" points="185,-66.9422 195.582,-67.4751 187.642,-60.4599 185,-66.9422"/>
</g>
<!-- Node3 -->
<g id="node3" class="node"><title>Node3</title>
<g id="a_node3"><a xlink:href="EntityFactory_8cpp.html" target="_top" xlink:title="src/Entities/Factories\l/EntityFactory.cpp">
<polygon fill="none" stroke="black" points="159,-0.5 159,-30.5 274,-30.5 274,-0.5 159,-0.5"/>
<text text-anchor="start" x="167" y="-18.5" font-family="Helvetica,sans-Serif" font-size="10.00">src/Entities/Factories</text>
<text text-anchor="middle" x="216.5" y="-7.5" font-family="Helvetica,sans-Serif" font-size="10.00">/EntityFactory.cpp</text>
</a>
</g>
</g>
<!-- Node1&#45;&gt;Node3 -->
<g id="edge2" class="edge"><title>Node1&#45;&gt;Node3</title>
<path fill="none" stroke="midnightblue" d="M216.5,-57.2349C216.5,-48.5864 216.5,-38.4969 216.5,-30.523"/>
<polygon fill="midnightblue" stroke="midnightblue" points="213,-57.4751 216.5,-67.4751 220,-57.4751 213,-57.4751"/>
</g>
<!-- Node4 -->
<g id="node4" class="node"><title>Node4</title>
<g id="a_node4"><a xlink:href="EntityExceptions_8cpp.html" target="_top" xlink:title="src/Exceptions/EntityExceptions.cpp">
<polygon fill="none" stroke="black" points="292.5,-6 292.5,-25 480.5,-25 480.5,-6 292.5,-6"/>
<text text-anchor="middle" x="386.5" y="-13" font-family="Helvetica,sans-Serif" font-size="10.00">src/Exceptions/EntityExceptions.cpp</text>
</a>
</g>
</g>
<!-- Node1&#45;&gt;Node4 -->
<g id="edge3" class="edge"><title>Node1&#45;&gt;Node4</title>
<path fill="none" stroke="midnightblue" d="M250.549,-64.0828C283.594,-52.517 332.922,-35.2524 362.188,-25.0091"/>
<polygon fill="midnightblue" stroke="midnightblue" points="249.139,-60.868 240.857,-67.4751 251.452,-67.475 249.139,-60.868"/>
</g>
</g>
</svg>
