<?xml version="1.0" encoding="UTF-8" standalone="no"?>
<!DOCTYPE svg PUBLIC "-//W3C//DTD SVG 1.1//EN"
 "http://www.w3.org/Graphics/SVG/1.1/DTD/svg11.dtd">
<!-- Generated by graphviz version 2.38.0 (20140413.2041)
 -->
<!-- Title: src/Entities/Factories/EntityFactory.hpp Pages: 1 -->
<!--zoomable 397 -->
<svg id="main" version="1.1" xmlns="http://www.w3.org/2000/svg" xmlns:xlink="http://www.w3.org/1999/xlink" xml:space="preserve" onload="init(evt)">
<style type="text/css"><![CDATA[
.edge:hover path { stroke: red; }
.edge:hover polygon { stroke: red; fill: red; }
]]></style>
<script type="text/javascript"><![CDATA[
var edges = document.getElementsByTagName('g');
if (edges && edges.length) {
  for (var i=0;i<edges.length;i++) {
    if (edges[i].id.substr(0,4)=='edge') {
      edges[i].setAttribute('class','edge');
    }
  }
}
]]></script>
        <defs>
                <circle id="rim" cx="0" cy="0" r="7"/>
                <circle id="rim2" cx="0" cy="0" r="3.5"/>
                <g id="zoomPlus">
                        <use xlink:href="#rim" fill="#404040">
                                <set attributeName="fill" to="#808080" begin="zoomplus.mouseover" end="zoomplus.mouseout"/>
                        </use>
                        <path d="M-4,0h8M0,-4v8" fill="none" stroke="white" stroke-width="1.5" pointer-events="none"/>
                </g>
                <g id="zoomMin">
                        <use xlink:href="#rim" fill="#404040">
                                <set attributeName="fill" to="#808080" begin="zoomminus.mouseover" end="zoomminus.mouseout"/>
                        </use>
                        <path d="M-4,0h8" fill="none" stroke="white" stroke-width="1.5" pointer-events="none"/>
                </g>
                <g id="dirArrow">
                        <path fill="none" stroke="white" stroke-width="1.5" d="M0,-3.0v7 M-2.5,-0.5L0,-3.0L2.5,-0.5"/>
                </g>
               <g id="resetDef">
                       <use xlink:href="#rim2" fill="#404040">
                               <set attributeName="fill" to="#808080" begin="reset.mouseover" end="reset.mouseout"/>
                       </use>
               </g>
        </defs>

<script type="text/javascript">
var viewWidth = 1016;
var viewHeight = 397;
var sectionId = 'dynsection-1';
</script>
<script xlink:href="svgpan.js"/>
<svg id="graph" class="graph">
<g id="viewport">
<title>src/Entities/Factories/EntityFactory.hpp</title>
<!-- Node1 -->
<g id="node1" class="node"><title>Node1</title>
<polygon fill="#bfbfbf" stroke="black" points="683.5,-358.5 683.5,-388.5 798.5,-388.5 798.5,-358.5 683.5,-358.5"/>
<text text-anchor="start" x="691.5" y="-376.5" font-family="Helvetica,sans-Serif" font-size="10.00">src/Entities/Factories</text>
<text text-anchor="middle" x="741" y="-365.5" font-family="Helvetica,sans-Serif" font-size="10.00">/EntityFactory.hpp</text>
</g>
<!-- Node2 -->
<g id="node2" class="node"><title>Node2</title>
<g id="a_node2"><a xlink:href="EntityFactory_8cpp.html" target="_top" xlink:title="src/Entities/Factories\l/EntityFactory.cpp">
<polygon fill="none" stroke="black" points="546.5,-291.5 546.5,-321.5 661.5,-321.5 661.5,-291.5 546.5,-291.5"/>
<text text-anchor="start" x="554.5" y="-309.5" font-family="Helvetica,sans-Serif" font-size="10.00">src/Entities/Factories</text>
<text text-anchor="middle" x="604" y="-298.5" font-family="Helvetica,sans-Serif" font-size="10.00">/EntityFactory.cpp</text>
</a>
</g>
</g>
<!-- Node1&#45;&gt;Node2 -->
<g id="edge1" class="edge"><title>Node1&#45;&gt;Node2</title>
<path fill="none" stroke="midnightblue" d="M701.991,-353.992C680.276,-343.689 653.673,-331.068 633.669,-321.577"/>
<polygon fill="midnightblue" stroke="midnightblue" points="700.738,-357.272 711.273,-358.396 703.739,-350.947 700.738,-357.272"/>
</g>
<!-- Node3 -->
<g id="node3" class="node"><title>Node3</title>
<g id="a_node3"><a xlink:href="FactoriesWrapper_8hpp.html" target="_top" xlink:title="src/FactoriesWrapper\l/FactoriesWrapper.hpp">
<polygon fill="none" stroke="black" points="680,-291.5 680,-321.5 802,-321.5 802,-291.5 680,-291.5"/>
<text text-anchor="start" x="688" y="-309.5" font-family="Helvetica,sans-Serif" font-size="10.00">src/FactoriesWrapper</text>
<text text-anchor="middle" x="741" y="-298.5" font-family="Helvetica,sans-Serif" font-size="10.00">/FactoriesWrapper.hpp</text>
</a>
</g>
</g>
<!-- Node1&#45;&gt;Node3 -->
<g id="edge2" class="edge"><title>Node1&#45;&gt;Node3</title>
<path fill="none" stroke="midnightblue" d="M741,-348.108C741,-339.154 741,-329.323 741,-321.577"/>
<polygon fill="midnightblue" stroke="midnightblue" points="737.5,-348.396 741,-358.396 744.5,-348.396 737.5,-348.396"/>
</g>
<!-- Node19 -->
<g id="node19" class="node"><title>Node19</title>
<g id="a_node19"><a xlink:href="Rtype_8cpp.html" target="_top" xlink:title="src/Rtype.cpp">
<polygon fill="none" stroke="black" points="799.5,-0.5 799.5,-19.5 880.5,-19.5 880.5,-0.5 799.5,-0.5"/>
<text text-anchor="middle" x="840" y="-7.5" font-family="Helvetica,sans-Serif" font-size="10.00">src/Rtype.cpp</text>
</a>
</g>
</g>
<!-- Node1&#45;&gt;Node19 -->
<g id="edge24" class="edge"><title>Node1&#45;&gt;Node19</title>
<path fill="none" stroke="midnightblue" d="M809.075,-367.716C887.887,-358.044 1007,-328.816 1007,-240.5 1007,-240.5 1007,-240.5 1007,-121 1007,-90.9022 1009.17,-77.3968 988,-56 959.669,-27.3618 913.727,-16.8345 880.538,-13.0265"/>
<polygon fill="midnightblue" stroke="midnightblue" points="808.254,-364.287 798.718,-368.904 809.052,-371.241 808.254,-364.287"/>
</g>
<!-- Node4 -->
<g id="node4" class="node"><title>Node4</title>
<g id="a_node4"><a xlink:href="IEcs_8hpp.html" target="_top" xlink:title="src/IEcs.hpp">
<polygon fill="none" stroke="black" points="704,-230 704,-249 778,-249 778,-230 704,-230"/>
<text text-anchor="middle" x="741" y="-237" font-family="Helvetica,sans-Serif" font-size="10.00">src/IEcs.hpp</text>
</a>
</g>
</g>
<!-- Node3&#45;&gt;Node4 -->
<g id="edge3" class="edge"><title>Node3&#45;&gt;Node4</title>
<path fill="none" stroke="midnightblue" d="M741,-281.25C741,-270.017 741,-257.377 741,-249.195"/>
<polygon fill="midnightblue" stroke="midnightblue" points="737.5,-281.396 741,-291.396 744.5,-281.396 737.5,-281.396"/>
</g>
<!-- Node20 -->
<g id="node20" class="node"><title>Node20</title>
<g id="a_node20"><a xlink:href="FactoriesWrapper_8cpp.html" target="_top" xlink:title="src/FactoriesWrapper\l/FactoriesWrapper.cpp">
<polygon fill="none" stroke="black" points="564.5,-224.5 564.5,-254.5 685.5,-254.5 685.5,-224.5 564.5,-224.5"/>
<text text-anchor="start" x="572.5" y="-242.5" font-family="Helvetica,sans-Serif" font-size="10.00">src/FactoriesWrapper</text>
<text text-anchor="middle" x="625" y="-231.5" font-family="Helvetica,sans-Serif" font-size="10.00">/FactoriesWrapper.cpp</text>
</a>
</g>
</g>
<!-- Node3&#45;&gt;Node20 -->
<g id="edge23" class="edge"><title>Node3&#45;&gt;Node20</title>
<path fill="none" stroke="midnightblue" d="M706.728,-286.296C688.577,-276.125 666.68,-263.855 650.121,-254.577"/>
<polygon fill="midnightblue" stroke="midnightblue" points="705.395,-289.561 715.83,-291.396 708.817,-283.454 705.395,-289.561"/>
</g>
<!-- Node5 -->
<g id="node5" class="node"><title>Node5</title>
<g id="a_node5"><a xlink:href="Ecs_8hpp.html" target="_top" xlink:title="src/Ecs.hpp">
<polygon fill="none" stroke="black" points="529.5,-168.5 529.5,-187.5 600.5,-187.5 600.5,-168.5 529.5,-168.5"/>
<text text-anchor="middle" x="565" y="-175.5" font-family="Helvetica,sans-Serif" font-size="10.00">src/Ecs.hpp</text>
</a>
</g>
</g>
<!-- Node4&#45;&gt;Node5 -->
<g id="edge4" class="edge"><title>Node4&#45;&gt;Node5</title>
<path fill="none" stroke="midnightblue" d="M706.19,-226.732C671.978,-215.166 620.6,-197.797 590.17,-187.509"/>
<polygon fill="midnightblue" stroke="midnightblue" points="705.189,-230.088 715.783,-229.975 707.431,-223.457 705.189,-230.088"/>
</g>
<!-- Node6 -->
<g id="node6" class="node"><title>Node6</title>
<g id="a_node6"><a xlink:href="Ecs_8cpp.html" target="_top" xlink:title="src/Ecs.cpp">
<polygon fill="none" stroke="black" points="529.5,-112.5 529.5,-131.5 600.5,-131.5 600.5,-112.5 529.5,-112.5"/>
<text text-anchor="middle" x="565" y="-119.5" font-family="Helvetica,sans-Serif" font-size="10.00">src/Ecs.cpp</text>
</a>
</g>
</g>
<!-- Node5&#45;&gt;Node6 -->
<g id="edge5" class="edge"><title>Node5&#45;&gt;Node6</title>
<path fill="none" stroke="midnightblue" d="M565,-157.805C565,-148.91 565,-138.78 565,-131.751"/>
<polygon fill="midnightblue" stroke="midnightblue" points="561.5,-158.083 565,-168.083 568.5,-158.083 561.5,-158.083"/>
</g>
<!-- Node7 -->
<g id="node7" class="node"><title>Node7</title>
<g id="a_node7"><a xlink:href="ChooseRoomScene_8hpp.html" target="_top" xlink:title="src/Scenes/ChooseRoomScene.hpp">
<polygon fill="none" stroke="black" points="619,-112.5 619,-131.5 805,-131.5 805,-112.5 619,-112.5"/>
<text text-anchor="middle" x="712" y="-119.5" font-family="Helvetica,sans-Serif" font-size="10.00">src/Scenes/ChooseRoomScene.hpp</text>
</a>
</g>
</g>
<!-- Node5&#45;&gt;Node7 -->
<g id="edge6" class="edge"><title>Node5&#45;&gt;Node7</title>
<path fill="none" stroke="midnightblue" d="M597.923,-164.906C625.56,-154.754 664.344,-140.506 688.816,-131.516"/>
<polygon fill="midnightblue" stroke="midnightblue" points="596.472,-161.71 588.293,-168.444 598.886,-168.281 596.472,-161.71"/>
</g>
<!-- Node10 -->
<g id="node10" class="node"><title>Node10</title>
<g id="a_node10"><a xlink:href="DefeatScene_8hpp.html" target="_top" xlink:title="src/Scenes/DefeatScene.hpp">
<polygon fill="none" stroke="black" points="823.5,-112.5 823.5,-131.5 978.5,-131.5 978.5,-112.5 823.5,-112.5"/>
<text text-anchor="middle" x="901" y="-119.5" font-family="Helvetica,sans-Serif" font-size="10.00">src/Scenes/DefeatScene.hpp</text>
</a>
</g>
</g>
<!-- Node5&#45;&gt;Node10 -->
<g id="edge9" class="edge"><title>Node5&#45;&gt;Node10</title>
<path fill="none" stroke="midnightblue" d="M610.87,-169.628C672.694,-159.692 782.525,-142.041 847.869,-131.539"/>
<polygon fill="midnightblue" stroke="midnightblue" points="609.958,-166.23 600.64,-171.272 611.068,-173.141 609.958,-166.23"/>
</g>
<!-- Node12 -->
<g id="node12" class="node"><title>Node12</title>
<g id="a_node12"><a xlink:href="GameScene_8hpp.html" target="_top" xlink:title="src/Scenes/GameScene.hpp">
<polygon fill="none" stroke="black" points="9,-112.5 9,-131.5 161,-131.5 161,-112.5 9,-112.5"/>
<text text-anchor="middle" x="85" y="-119.5" font-family="Helvetica,sans-Serif" font-size="10.00">src/Scenes/GameScene.hpp</text>
</a>
</g>
</g>
<!-- Node5&#45;&gt;Node12 -->
<g id="edge12" class="edge"><title>Node5&#45;&gt;Node12</title>
<path fill="none" stroke="midnightblue" d="M519.224,-171.85C436.533,-162.547 261.505,-142.857 160.739,-131.521"/>
<polygon fill="midnightblue" stroke="midnightblue" points="518.986,-175.345 529.314,-172.985 519.768,-168.389 518.986,-175.345"/>
</g>
<!-- Node14 -->
<g id="node14" class="node"><title>Node14</title>
<g id="a_node14"><a xlink:href="MenuScene_8hpp.html" target="_top" xlink:title="src/Scenes/MenuScene.hpp">
<polygon fill="none" stroke="black" points="179.5,-112.5 179.5,-131.5 328.5,-131.5 328.5,-112.5 179.5,-112.5"/>
<text text-anchor="middle" x="254" y="-119.5" font-family="Helvetica,sans-Serif" font-size="10.00">src/Scenes/MenuScene.hpp</text>
</a>
</g>
</g>
<!-- Node5&#45;&gt;Node14 -->
<g id="edge15" class="edge"><title>Node5&#45;&gt;Node14</title>
<path fill="none" stroke="midnightblue" d="M519.38,-169.079C461.585,-159.044 362.381,-141.818 303.016,-131.511"/>
<polygon fill="midnightblue" stroke="midnightblue" points="518.873,-172.543 529.324,-170.806 520.071,-165.646 518.873,-172.543"/>
</g>
<!-- Node16 -->
<g id="node16" class="node"><title>Node16</title>
<g id="a_node16"><a xlink:href="SceneManager_8hpp.html" target="_top" xlink:title="src/Scenes/SceneManager.hpp">
<polygon fill="none" stroke="black" points="347,-112.5 347,-131.5 511,-131.5 511,-112.5 347,-112.5"/>
<text text-anchor="middle" x="429" y="-119.5" font-family="Helvetica,sans-Serif" font-size="10.00">src/Scenes/SceneManager.hpp</text>
</a>
</g>
</g>
<!-- Node5&#45;&gt;Node16 -->
<g id="edge18" class="edge"><title>Node5&#45;&gt;Node16</title>
<path fill="none" stroke="midnightblue" d="M533.865,-164.638C508.343,-154.504 472.891,-140.427 450.449,-131.516"/>
<polygon fill="midnightblue" stroke="midnightblue" points="532.865,-168.006 543.45,-168.444 535.448,-161.5 532.865,-168.006"/>
</g>
<!-- Node8 -->
<g id="node8" class="node"><title>Node8</title>
<g id="a_node8"><a xlink:href="ChooseRoomScene_8cpp.html" target="_top" xlink:title="src/Scenes/ChooseRoomScene.cpp">
<polygon fill="none" stroke="black" points="620.5,-56.5 620.5,-75.5 805.5,-75.5 805.5,-56.5 620.5,-56.5"/>
<text text-anchor="middle" x="713" y="-63.5" font-family="Helvetica,sans-Serif" font-size="10.00">src/Scenes/ChooseRoomScene.cpp</text>
</a>
</g>
</g>
<!-- Node7&#45;&gt;Node8 -->
<g id="edge7" class="edge"><title>Node7&#45;&gt;Node8</title>
<path fill="none" stroke="midnightblue" d="M712.355,-101.805C712.52,-92.9102 712.708,-82.7798 712.838,-75.7511"/>
<polygon fill="midnightblue" stroke="midnightblue" points="708.851,-102.02 712.165,-112.083 715.85,-102.15 708.851,-102.02"/>
</g>
<!-- Node9 -->
<g id="node9" class="node"><title>Node9</title>
<g id="a_node9"><a xlink:href="SceneManager_8cpp.html" target="_top" xlink:title="src/Scenes/SceneManager.cpp">
<polygon fill="none" stroke="black" points="338,-56.5 338,-75.5 502,-75.5 502,-56.5 338,-56.5"/>
<text text-anchor="middle" x="420" y="-63.5" font-family="Helvetica,sans-Serif" font-size="10.00">src/Scenes/SceneManager.cpp</text>
</a>
</g>
</g>
<!-- Node7&#45;&gt;Node9 -->
<g id="edge8" class="edge"><title>Node7&#45;&gt;Node9</title>
<path fill="none" stroke="midnightblue" d="M655.767,-110.601C600.582,-100.395 517.435,-85.0189 466.052,-75.5164"/>
<polygon fill="midnightblue" stroke="midnightblue" points="655.262,-114.067 665.732,-112.444 656.535,-107.183 655.262,-114.067"/>
</g>
<!-- Node10&#45;&gt;Node9 -->
<g id="edge11" class="edge"><title>Node10&#45;&gt;Node9</title>
<path fill="none" stroke="midnightblue" d="M815.067,-111.353C724.344,-101.168 582.704,-85.2662 495.948,-75.5264"/>
<polygon fill="midnightblue" stroke="midnightblue" points="814.721,-114.836 825.05,-112.473 815.502,-107.879 814.721,-114.836"/>
</g>
<!-- Node11 -->
<g id="node11" class="node"><title>Node11</title>
<g id="a_node11"><a xlink:href="DefeatScene_8cpp.html" target="_top" xlink:title="src/Scenes/DefeatScene.cpp">
<polygon fill="none" stroke="black" points="823.5,-56.5 823.5,-75.5 978.5,-75.5 978.5,-56.5 823.5,-56.5"/>
<text text-anchor="middle" x="901" y="-63.5" font-family="Helvetica,sans-Serif" font-size="10.00">src/Scenes/DefeatScene.cpp</text>
</a>
</g>
</g>
<!-- Node10&#45;&gt;Node11 -->
<g id="edge10" class="edge"><title>Node10&#45;&gt;Node11</title>
<path fill="none" stroke="midnightblue" d="M901,-101.805C901,-92.9102 901,-82.7798 901,-75.7511"/>
<polygon fill="midnightblue" stroke="midnightblue" points="897.5,-102.083 901,-112.083 904.5,-102.083 897.5,-102.083"/>
</g>
<!-- Node12&#45;&gt;Node9 -->
<g id="edge14" class="edge"><title>Node12&#45;&gt;Node9</title>
<path fill="none" stroke="midnightblue" d="M148.336,-110.791C211.636,-100.587 307.849,-85.078 367.167,-75.5164"/>
<polygon fill="midnightblue" stroke="midnightblue" points="147.397,-107.397 138.082,-112.444 148.511,-114.307 147.397,-107.397"/>
</g>
<!-- Node13 -->
<g id="node13" class="node"><title>Node13</title>
<g id="a_node13"><a xlink:href="GameScene_8cpp.html" target="_top" xlink:title="src/Scenes/GameScene.cpp">
<polygon fill="none" stroke="black" points="0,-56.5 0,-75.5 152,-75.5 152,-56.5 0,-56.5"/>
<text text-anchor="middle" x="76" y="-63.5" font-family="Helvetica,sans-Serif" font-size="10.00">src/Scenes/GameScene.cpp</text>
</a>
</g>
</g>
<!-- Node12&#45;&gt;Node13 -->
<g id="edge13" class="edge"><title>Node12&#45;&gt;Node13</title>
<path fill="none" stroke="midnightblue" d="M81.8501,-102.101C80.356,-93.1357 78.643,-82.8579 77.4585,-75.7511"/>
<polygon fill="midnightblue" stroke="midnightblue" points="78.4174,-102.794 83.5138,-112.083 85.3221,-101.644 78.4174,-102.794"/>
</g>
<!-- Node14&#45;&gt;Node9 -->
<g id="edge17" class="edge"><title>Node14&#45;&gt;Node9</title>
<path fill="none" stroke="midnightblue" d="M289.953,-109.304C321.232,-99.1294 365.821,-84.6246 393.82,-75.5164"/>
<polygon fill="midnightblue" stroke="midnightblue" points="288.73,-106.022 280.303,-112.444 290.895,-112.678 288.73,-106.022"/>
</g>
<!-- Node15 -->
<g id="node15" class="node"><title>Node15</title>
<g id="a_node15"><a xlink:href="MenuScene_8cpp.html" target="_top" xlink:title="src/Scenes/MenuScene.cpp">
<polygon fill="none" stroke="black" points="170.5,-56.5 170.5,-75.5 319.5,-75.5 319.5,-56.5 170.5,-56.5"/>
<text text-anchor="middle" x="245" y="-63.5" font-family="Helvetica,sans-Serif" font-size="10.00">src/Scenes/MenuScene.cpp</text>
</a>
</g>
</g>
<!-- Node14&#45;&gt;Node15 -->
<g id="edge16" class="edge"><title>Node14&#45;&gt;Node15</title>
<path fill="none" stroke="midnightblue" d="M250.85,-102.101C249.356,-93.1357 247.643,-82.8579 246.459,-75.7511"/>
<polygon fill="midnightblue" stroke="midnightblue" points="247.417,-102.794 252.514,-112.083 254.322,-101.644 247.417,-102.794"/>
</g>
<!-- Node16&#45;&gt;Node9 -->
<g id="edge22" class="edge"><title>Node16&#45;&gt;Node9</title>
<path fill="none" stroke="midnightblue" d="M425.85,-102.101C424.356,-93.1357 422.643,-82.8579 421.459,-75.7511"/>
<polygon fill="midnightblue" stroke="midnightblue" points="422.417,-102.794 427.514,-112.083 429.322,-101.644 422.417,-102.794"/>
</g>
<!-- Node17 -->
<g id="node17" class="node"><title>Node17</title>
<g id="a_node17"><a xlink:href="Rtype_8hpp.html" target="_top" xlink:title="src/Rtype.hpp">
<polygon fill="none" stroke="black" points="520,-56.5 520,-75.5 602,-75.5 602,-56.5 520,-56.5"/>
<text text-anchor="middle" x="561" y="-63.5" font-family="Helvetica,sans-Serif" font-size="10.00">src/Rtype.hpp</text>
</a>
</g>
</g>
<!-- Node16&#45;&gt;Node17 -->
<g id="edge19" class="edge"><title>Node16&#45;&gt;Node17</title>
<path fill="none" stroke="midnightblue" d="M459.219,-108.638C483.99,-98.504 518.4,-84.4274 540.182,-75.5164"/>
<polygon fill="midnightblue" stroke="midnightblue" points="457.846,-105.418 449.916,-112.444 460.497,-111.897 457.846,-105.418"/>
</g>
<!-- Node18 -->
<g id="node18" class="node"><title>Node18</title>
<g id="a_node18"><a xlink:href="main__client_8cpp.html" target="_top" xlink:title="src/main_client.cpp">
<polygon fill="none" stroke="black" points="506.5,-0.5 506.5,-19.5 615.5,-19.5 615.5,-0.5 506.5,-0.5"/>
<text text-anchor="middle" x="561" y="-7.5" font-family="Helvetica,sans-Serif" font-size="10.00">src/main_client.cpp</text>
</a>
</g>
</g>
<!-- Node17&#45;&gt;Node18 -->
<g id="edge20" class="edge"><title>Node17&#45;&gt;Node18</title>
<path fill="none" stroke="midnightblue" d="M561,-45.8045C561,-36.9102 561,-26.7798 561,-19.7511"/>
<polygon fill="midnightblue" stroke="midnightblue" points="557.5,-46.083 561,-56.083 564.5,-46.083 557.5,-46.083"/>
</g>
<!-- Node17&#45;&gt;Node19 -->
<g id="edge21" class="edge"><title>Node17&#45;&gt;Node19</title>
<path fill="none" stroke="midnightblue" d="M612.181,-55.0939C665.982,-44.681 749.55,-28.5064 799.118,-18.9126"/>
<polygon fill="midnightblue" stroke="midnightblue" points="611.32,-51.6956 602.167,-57.0321 612.65,-58.568 611.32,-51.6956"/>
</g>
</g>
</svg>
        <g id="navigator" transform="translate(0 0)" fill="#404254">
                <rect fill="#f2f5e9" fill-opacity="0.5" stroke="#606060" stroke-width=".5" x="0" y="0" width="60" height="60"/>
                <use id="zoomplus" xlink:href="#zoomPlus" x="17" y="9" onmousedown="handleZoom(evt,'in')"/>
                <use id="zoomminus" xlink:href="#zoomMin" x="42" y="9" onmousedown="handleZoom(evt,'out')"/>
                <use id="reset" xlink:href="#resetDef" x="30" y="36" onmousedown="handleReset()"/>
                <g id="arrowUp" xlink:href="#dirArrow" transform="translate(30 24)" onmousedown="handlePan(0,-1)">
                  <use xlink:href="#rim" fill="#404040">
                        <set attributeName="fill" to="#808080" begin="arrowUp.mouseover" end="arrowUp.mouseout"/>
                  </use>
                  <path fill="none" stroke="white" stroke-width="1.5" d="M0,-3.0v7 M-2.5,-0.5L0,-3.0L2.5,-0.5"/>
                </g>
                <g id="arrowRight" xlink:href="#dirArrow" transform="rotate(90) translate(36 -43)" onmousedown="handlePan(1,0)">
                  <use xlink:href="#rim" fill="#404040">
                        <set attributeName="fill" to="#808080" begin="arrowRight.mouseover" end="arrowRight.mouseout"/>
                  </use>
                  <path fill="none" stroke="white" stroke-width="1.5" d="M0,-3.0v7 M-2.5,-0.5L0,-3.0L2.5,-0.5"/>
                </g>
                <g id="arrowDown" xlink:href="#dirArrow" transform="rotate(180) translate(-30 -48)" onmousedown="handlePan(0,1)">
                  <use xlink:href="#rim" fill="#404040">
                        <set attributeName="fill" to="#808080" begin="arrowDown.mouseover" end="arrowDown.mouseout"/>
                  </use>
                  <path fill="none" stroke="white" stroke-width="1.5" d="M0,-3.0v7 M-2.5,-0.5L0,-3.0L2.5,-0.5"/>
                </g>
                <g id="arrowLeft" xlink:href="#dirArrow" transform="rotate(270) translate(-36 17)" onmousedown="handlePan(-1,0)">
                  <use xlink:href="#rim" fill="#404040">
                        <set attributeName="fill" to="#808080" begin="arrowLeft.mouseover" end="arrowLeft.mouseout"/>
                  </use>
                  <path fill="none" stroke="white" stroke-width="1.5" d="M0,-3.0v7 M-2.5,-0.5L0,-3.0L2.5,-0.5"/>
                </g>
        </g>
        <svg viewBox="0 0 15 15" width="100%" height="30px" preserveAspectRatio="xMaxYMin meet">
         <g id="arrow_out" transform="scale(0.3 0.3)">
          <a xlink:href="EntityFactory_8hpp__dep__incl_org.svg" target="_base">
           <rect id="button" ry="5" rx="5" y="6" x="6" height="38" width="38"
                fill="#f2f5e9" fill-opacity="0.5" stroke="#606060" stroke-width="1.0"/>
           <path id="arrow"
             d="M 11.500037,31.436501 C 11.940474,20.09759 22.043105,11.32322 32.158766,21.979434 L 37.068811,17.246167 C 37.068811,17.246167 37.088388,32 37.088388,32 L 22.160133,31.978069 C 22.160133,31.978069 26.997745,27.140456 26.997745,27.140456 C 18.528582,18.264221 13.291696,25.230495 11.500037,31.436501 z"
             style="fill:#404040;"/>
          </a>
         </g>
        </svg>
</svg>
