<?xml version="1.0" encoding="UTF-8" standalone="no"?>
<!DOCTYPE svg PUBLIC "-//W3C//DTD SVG 1.1//EN"
 "http://www.w3.org/Graphics/SVG/1.1/DTD/svg11.dtd">
<!-- Generated by graphviz version 2.38.0 (20140413.2041)
 -->
<!-- Title: src/Entities/EntityManager/EntityManager.hpp Pages: 1 -->
<svg width="498pt" height="207pt"
 viewBox="0.00 0.00 498.00 207.00" xmlns="http://www.w3.org/2000/svg" xmlns:xlink="http://www.w3.org/1999/xlink">
<g id="graph0" class="graph" transform="scale(1 1) rotate(0) translate(4 203)">
<title>src/Entities/EntityManager/EntityManager.hpp</title>
<!-- Node1 -->
<g id="node1" class="node"><title>Node1</title>
<polygon fill="#bfbfbf" stroke="black" points="33.5,-168.5 33.5,-198.5 174.5,-198.5 174.5,-168.5 33.5,-168.5"/>
<text text-anchor="start" x="41.5" y="-186.5" font-family="Helvetica,sans-Serif" font-size="10.00">src/Entities/EntityManager</text>
<text text-anchor="middle" x="104" y="-175.5" font-family="Helvetica,sans-Serif" font-size="10.00">/EntityManager.hpp</text>
</g>
<!-- Node2 -->
<g id="node2" class="node"><title>Node2</title>
<polygon fill="none" stroke="#bfbfbf" points="0,-112.5 0,-131.5 38,-131.5 38,-112.5 0,-112.5"/>
<text text-anchor="middle" x="19" y="-119.5" font-family="Helvetica,sans-Serif" font-size="10.00">map</text>
</g>
<!-- Node1&#45;&gt;Node2 -->
<g id="edge1" class="edge"><title>Node1&#45;&gt;Node2</title>
<path fill="none" stroke="midnightblue" d="M83.8562,-168.399C70.6133,-159.129 53.3221,-147.025 39.9241,-137.647"/>
<polygon fill="midnightblue" stroke="midnightblue" points="41.5677,-134.525 31.3683,-131.658 37.5535,-140.26 41.5677,-134.525"/>
</g>
<!-- Node3 -->
<g id="node3" class="node"><title>Node3</title>
<polygon fill="none" stroke="#bfbfbf" points="5.5,-56.5 5.5,-75.5 52.5,-75.5 52.5,-56.5 5.5,-56.5"/>
<text text-anchor="middle" x="29" y="-63.5" font-family="Helvetica,sans-Serif" font-size="10.00">vector</text>
</g>
<!-- Node1&#45;&gt;Node3 -->
<g id="edge2" class="edge"><title>Node1&#45;&gt;Node3</title>
<path fill="none" stroke="midnightblue" d="M94.8035,-168.337C81.0446,-147.149 55.1325,-107.244 40.26,-84.3403"/>
<polygon fill="midnightblue" stroke="midnightblue" points="43.011,-82.1503 34.6295,-75.6695 37.1402,-85.9625 43.011,-82.1503"/>
</g>
<!-- Node4 -->
<g id="node4" class="node"><title>Node4</title>
<g id="a_node4"><a xlink:href="PacketManager_8hpp.html" target="_top" xlink:title="PacketManager.hpp">
<polygon fill="none" stroke="black" points="71,-56.5 71,-75.5 181,-75.5 181,-56.5 71,-56.5"/>
<text text-anchor="middle" x="126" y="-63.5" font-family="Helvetica,sans-Serif" font-size="10.00">PacketManager.hpp</text>
</a>
</g>
</g>
<!-- Node1&#45;&gt;Node4 -->
<g id="edge3" class="edge"><title>Node1&#45;&gt;Node4</title>
<path fill="none" stroke="midnightblue" d="M106.698,-168.337C110.662,-147.527 118.064,-108.663 122.46,-85.5834"/>
<polygon fill="midnightblue" stroke="midnightblue" points="125.916,-86.1478 124.349,-75.6695 119.039,-84.8379 125.916,-86.1478"/>
</g>
<!-- Node8 -->
<g id="node8" class="node"><title>Node8</title>
<g id="a_node8"><a xlink:href="IComponentManager_8hpp.html" target="_top" xlink:title="IComponentManager.hpp">
<polygon fill="none" stroke="black" points="258.5,-112.5 258.5,-131.5 395.5,-131.5 395.5,-112.5 258.5,-112.5"/>
<text text-anchor="middle" x="327" y="-119.5" font-family="Helvetica,sans-Serif" font-size="10.00">IComponentManager.hpp</text>
</a>
</g>
</g>
<!-- Node1&#45;&gt;Node8 -->
<g id="edge7" class="edge"><title>Node1&#45;&gt;Node8</title>
<path fill="none" stroke="midnightblue" d="M156.566,-168.475C195.878,-157.986 248.906,-143.837 285.316,-134.122"/>
<polygon fill="midnightblue" stroke="midnightblue" points="286.359,-137.466 295.119,-131.506 284.555,-130.703 286.359,-137.466"/>
</g>
<!-- Node13 -->
<g id="node13" class="node"><title>Node13</title>
<g id="a_node13"><a xlink:href="IEntityManager_8hpp.html" target="_top" xlink:title="IEntityManager.hpp">
<polygon fill="none" stroke="black" points="132,-112.5 132,-131.5 240,-131.5 240,-112.5 132,-112.5"/>
<text text-anchor="middle" x="186" y="-119.5" font-family="Helvetica,sans-Serif" font-size="10.00">IEntityManager.hpp</text>
</a>
</g>
</g>
<!-- Node1&#45;&gt;Node13 -->
<g id="edge13" class="edge"><title>Node1&#45;&gt;Node13</title>
<path fill="none" stroke="midnightblue" d="M123.433,-168.399C136.208,-159.129 152.889,-147.025 165.814,-137.647"/>
<polygon fill="midnightblue" stroke="midnightblue" points="168.03,-140.364 174.068,-131.658 163.919,-134.698 168.03,-140.364"/>
</g>
<!-- Node5 -->
<g id="node5" class="node"><title>Node5</title>
<polygon fill="none" stroke="#bfbfbf" points="54,-0.5 54,-19.5 98,-19.5 98,-0.5 54,-0.5"/>
<text text-anchor="middle" x="76" y="-7.5" font-family="Helvetica,sans-Serif" font-size="10.00">string</text>
</g>
<!-- Node4&#45;&gt;Node5 -->
<g id="edge4" class="edge"><title>Node4&#45;&gt;Node5</title>
<path fill="none" stroke="midnightblue" d="M117.744,-56.083C110.535,-48.2982 99.8902,-36.8015 91.1542,-27.3665"/>
<polygon fill="midnightblue" stroke="midnightblue" points="93.4651,-24.7108 84.1028,-19.7511 88.3288,-29.4666 93.4651,-24.7108"/>
</g>
<!-- Node6 -->
<g id="node6" class="node"><title>Node6</title>
<polygon fill="none" stroke="#bfbfbf" points="311,-0.5 311,-19.5 341,-19.5 341,-0.5 311,-0.5"/>
<text text-anchor="middle" x="326" y="-7.5" font-family="Helvetica,sans-Serif" font-size="10.00">list</text>
</g>
<!-- Node4&#45;&gt;Node6 -->
<g id="edge5" class="edge"><title>Node4&#45;&gt;Node6</title>
<path fill="none" stroke="midnightblue" d="M157.691,-56.4435C197.39,-45.7248 264.601,-27.5777 300.918,-17.7722"/>
<polygon fill="midnightblue" stroke="midnightblue" points="301.971,-21.1132 310.713,-15.1274 300.147,-14.3552 301.971,-21.1132"/>
</g>
<!-- Node7 -->
<g id="node7" class="node"><title>Node7</title>
<g id="a_node7"><a xlink:href="Input_8hpp.html" target="_top" xlink:title="Render/Input.hpp">
<polygon fill="none" stroke="black" points="116,-0.5 116,-19.5 214,-19.5 214,-0.5 116,-0.5"/>
<text text-anchor="middle" x="165" y="-7.5" font-family="Helvetica,sans-Serif" font-size="10.00">Render/Input.hpp</text>
</a>
</g>
</g>
<!-- Node4&#45;&gt;Node7 -->
<g id="edge6" class="edge"><title>Node4&#45;&gt;Node7</title>
<path fill="none" stroke="midnightblue" d="M132.44,-56.083C137.949,-48.4554 146.031,-37.2645 152.765,-27.9408"/>
<polygon fill="midnightblue" stroke="midnightblue" points="155.662,-29.9071 158.68,-19.7511 149.987,-25.8087 155.662,-29.9071"/>
</g>
<!-- Node8&#45;&gt;Node6 -->
<g id="edge8" class="edge"><title>Node8&#45;&gt;Node6</title>
<path fill="none" stroke="midnightblue" d="M332.706,-112.289C340.105,-99.9276 351.552,-76.5173 347,-56 344.876,-46.426 340.493,-36.4756 336.279,-28.3735"/>
<polygon fill="midnightblue" stroke="midnightblue" points="339.298,-26.6012 331.384,-19.557 333.178,-29.9989 339.298,-26.6012"/>
</g>
<!-- Node9 -->
<g id="node9" class="node"><title>Node9</title>
<polygon fill="none" stroke="#bfbfbf" points="199.5,-56.5 199.5,-75.5 256.5,-75.5 256.5,-56.5 199.5,-56.5"/>
<text text-anchor="middle" x="228" y="-63.5" font-family="Helvetica,sans-Serif" font-size="10.00">memory</text>
</g>
<!-- Node8&#45;&gt;Node9 -->
<g id="edge9" class="edge"><title>Node8&#45;&gt;Node9</title>
<path fill="none" stroke="midnightblue" d="M311.094,-112.324C295.362,-103.743 271.058,-90.486 252.791,-80.5224"/>
<polygon fill="midnightblue" stroke="midnightblue" points="254.322,-77.3704 243.867,-75.6545 250.97,-83.5157 254.322,-77.3704"/>
</g>
<!-- Node10 -->
<g id="node10" class="node"><title>Node10</title>
<g id="a_node10"><a xlink:href="IComponent_8hpp.html" target="_top" xlink:title="IComponent.hpp">
<polygon fill="none" stroke="black" points="394,-56.5 394,-75.5 490,-75.5 490,-56.5 394,-56.5"/>
<text text-anchor="middle" x="442" y="-63.5" font-family="Helvetica,sans-Serif" font-size="10.00">IComponent.hpp</text>
</a>
</g>
</g>
<!-- Node8&#45;&gt;Node10 -->
<g id="edge10" class="edge"><title>Node8&#45;&gt;Node10</title>
<path fill="none" stroke="midnightblue" d="M345.222,-112.444C363.896,-103.675 393.156,-89.9355 414.617,-79.8579"/>
<polygon fill="midnightblue" stroke="midnightblue" points="416.299,-82.935 423.863,-75.5164 413.324,-76.5988 416.299,-82.935"/>
</g>
<!-- Node12 -->
<g id="node12" class="node"><title>Node12</title>
<g id="a_node12"><a xlink:href="Entity_8hpp.html" target="_top" xlink:title="Entity.hpp">
<polygon fill="none" stroke="black" points="274.5,-56.5 274.5,-75.5 337.5,-75.5 337.5,-56.5 274.5,-56.5"/>
<text text-anchor="middle" x="306" y="-63.5" font-family="Helvetica,sans-Serif" font-size="10.00">Entity.hpp</text>
</a>
</g>
</g>
<!-- Node8&#45;&gt;Node12 -->
<g id="edge12" class="edge"><title>Node8&#45;&gt;Node12</title>
<path fill="none" stroke="midnightblue" d="M323.532,-112.083C320.688,-104.77 316.571,-94.1814 313.04,-85.1034"/>
<polygon fill="midnightblue" stroke="midnightblue" points="316.29,-83.8025 309.403,-75.7511 309.766,-86.3397 316.29,-83.8025"/>
</g>
<!-- Node11 -->
<g id="node11" class="node"><title>Node11</title>
<polygon fill="none" stroke="#bfbfbf" points="410.5,-0.5 410.5,-19.5 473.5,-19.5 473.5,-0.5 410.5,-0.5"/>
<text text-anchor="middle" x="442" y="-7.5" font-family="Helvetica,sans-Serif" font-size="10.00">typeindex</text>
</g>
<!-- Node10&#45;&gt;Node11 -->
<g id="edge11" class="edge"><title>Node10&#45;&gt;Node11</title>
<path fill="none" stroke="midnightblue" d="M442,-56.083C442,-49.0059 442,-38.8611 442,-29.9865"/>
<polygon fill="midnightblue" stroke="midnightblue" points="445.5,-29.751 442,-19.7511 438.5,-29.7511 445.5,-29.751"/>
</g>
<!-- Node13&#45;&gt;Node3 -->
<g id="edge15" class="edge"><title>Node13&#45;&gt;Node3</title>
<path fill="none" stroke="midnightblue" d="M161.123,-112.444C134.4,-103.252 91.7963,-88.5987 62.2215,-78.4265"/>
<polygon fill="midnightblue" stroke="midnightblue" points="63.3277,-75.1058 52.733,-75.1629 61.0509,-81.7252 63.3277,-75.1058"/>
</g>
<!-- Node13&#45;&gt;Node4 -->
<g id="edge17" class="edge"><title>Node13&#45;&gt;Node4</title>
<path fill="none" stroke="midnightblue" d="M176.36,-112.324C167.49,-104.341 154.125,-92.3128 143.392,-82.6529"/>
<polygon fill="midnightblue" stroke="midnightblue" points="145.59,-79.922 135.815,-75.8339 140.907,-85.1251 145.59,-79.922"/>
</g>
<!-- Node13&#45;&gt;Node9 -->
<g id="edge14" class="edge"><title>Node13&#45;&gt;Node9</title>
<path fill="none" stroke="midnightblue" d="M192.935,-112.083C198.929,-104.377 207.752,-93.0333 215.048,-83.6531"/>
<polygon fill="midnightblue" stroke="midnightblue" points="217.817,-85.7934 221.194,-75.7511 212.291,-81.4958 217.817,-85.7934"/>
</g>
<!-- Node13&#45;&gt;Node12 -->
<g id="edge16" class="edge"><title>Node13&#45;&gt;Node12</title>
<path fill="none" stroke="midnightblue" d="M205.014,-112.444C224.588,-103.636 255.308,-89.8116 277.729,-79.722"/>
<polygon fill="midnightblue" stroke="midnightblue" points="279.392,-82.8119 287.075,-75.5164 276.519,-76.4284 279.392,-82.8119"/>
</g>
</g>
</svg>
