<?xml version="1.0" encoding="UTF-8" standalone="no"?>
<!DOCTYPE svg PUBLIC "-//W3C//DTD SVG 1.1//EN"
 "http://www.w3.org/Graphics/SVG/1.1/DTD/svg11.dtd">
<!-- Generated by graphviz version 2.38.0 (20140413.2041)
 -->
<!-- Title: src/Entities/Factories/EntityFactory.cpp Pages: 1 -->
<!--zoomable 375 -->
<svg id="main" version="1.1" xmlns="http://www.w3.org/2000/svg" xmlns:xlink="http://www.w3.org/1999/xlink" xml:space="preserve" onload="init(evt)">
<style type="text/css"><![CDATA[
.edge:hover path { stroke: red; }
.edge:hover polygon { stroke: red; fill: red; }
]]></style>
<script type="text/javascript"><![CDATA[
var edges = document.getElementsByTagName('g');
if (edges && edges.length) {
  for (var i=0;i<edges.length;i++) {
    if (edges[i].id.substr(0,4)=='edge') {
      edges[i].setAttribute('class','edge');
    }
  }
}
]]></script>
        <defs>
                <circle id="rim" cx="0" cy="0" r="7"/>
                <circle id="rim2" cx="0" cy="0" r="3.5"/>
                <g id="zoomPlus">
                        <use xlink:href="#rim" fill="#404040">
                                <set attributeName="fill" to="#808080" begin="zoomplus.mouseover" end="zoomplus.mouseout"/>
                        </use>
                        <path d="M-4,0h8M0,-4v8" fill="none" stroke="white" stroke-width="1.5" pointer-events="none"/>
                </g>
                <g id="zoomMin">
                        <use xlink:href="#rim" fill="#404040">
                                <set attributeName="fill" to="#808080" begin="zoomminus.mouseover" end="zoomminus.mouseout"/>
                        </use>
                        <path d="M-4,0h8" fill="none" stroke="white" stroke-width="1.5" pointer-events="none"/>
                </g>
                <g id="dirArrow">
                        <path fill="none" stroke="white" stroke-width="1.5" d="M0,-3.0v7 M-2.5,-0.5L0,-3.0L2.5,-0.5"/>
                </g>
               <g id="resetDef">
                       <use xlink:href="#rim2" fill="#404040">
                               <set attributeName="fill" to="#808080" begin="reset.mouseover" end="reset.mouseout"/>
                       </use>
               </g>
        </defs>

<script type="text/javascript">
var viewWidth = 893;
var viewHeight = 375;
var sectionId = 'dynsection-0';
</script>
<script xlink:href="svgpan.js"/>
<svg id="graph" class="graph">
<g id="viewport">
<title>src/Entities/Factories/EntityFactory.cpp</title>
<!-- Node1 -->
<g id="node1" class="node"><title>Node1</title>
<polygon fill="#bfbfbf" stroke="black" points="142,-336.5 142,-366.5 257,-366.5 257,-336.5 142,-336.5"/>
<text text-anchor="start" x="150" y="-354.5" font-family="Helvetica,sans-Serif" font-size="10.00">src/Entities/Factories</text>
<text text-anchor="middle" x="199.5" y="-343.5" font-family="Helvetica,sans-Serif" font-size="10.00">/EntityFactory.cpp</text>
</g>
<!-- Node2 -->
<g id="node2" class="node"><title>Node2</title>
<polygon fill="none" stroke="#bfbfbf" points="0,-280.5 0,-299.5 59,-299.5 59,-280.5 0,-280.5"/>
<text text-anchor="middle" x="29.5" y="-287.5" font-family="Helvetica,sans-Serif" font-size="10.00">iostream</text>
</g>
<!-- Node1&#45;&gt;Node2 -->
<g id="edge1" class="edge"><title>Node1&#45;&gt;Node2</title>
<path fill="none" stroke="midnightblue" d="M159.212,-336.399C130.18,-326.238 91.4188,-312.672 63.8488,-303.022"/>
<polygon fill="midnightblue" stroke="midnightblue" points="64.8313,-299.658 54.2365,-299.658 62.5188,-306.265 64.8313,-299.658"/>
</g>
<!-- Node3 -->
<g id="node3" class="node"><title>Node3</title>
<g id="a_node3"><a xlink:href="Position_8hpp.html" target="_top" xlink:title="Position.hpp">
<polygon fill="none" stroke="black" points="116,-280.5 116,-299.5 191,-299.5 191,-280.5 116,-280.5"/>
<text text-anchor="middle" x="153.5" y="-287.5" font-family="Helvetica,sans-Serif" font-size="10.00">Position.hpp</text>
</a>
</g>
</g>
<!-- Node1&#45;&gt;Node3 -->
<g id="edge2" class="edge"><title>Node1&#45;&gt;Node3</title>
<path fill="none" stroke="midnightblue" d="M188.599,-336.399C181.914,-327.753 173.324,-316.642 166.315,-307.576"/>
<polygon fill="midnightblue" stroke="midnightblue" points="169.079,-305.428 160.193,-299.658 163.541,-309.71 169.079,-305.428"/>
</g>
<!-- Node8 -->
<g id="node8" class="node"><title>Node8</title>
<g id="a_node8"><a xlink:href="Velocity_8hpp.html" target="_top" xlink:title="Velocity.hpp">
<polygon fill="none" stroke="black" points="209,-280.5 209,-299.5 282,-299.5 282,-280.5 209,-280.5"/>
<text text-anchor="middle" x="245.5" y="-287.5" font-family="Helvetica,sans-Serif" font-size="10.00">Velocity.hpp</text>
</a>
</g>
</g>
<!-- Node1&#45;&gt;Node8 -->
<g id="edge7" class="edge"><title>Node1&#45;&gt;Node8</title>
<path fill="none" stroke="midnightblue" d="M210.401,-336.399C217.086,-327.753 225.676,-316.642 232.685,-307.576"/>
<polygon fill="midnightblue" stroke="midnightblue" points="235.459,-309.71 238.807,-299.658 229.921,-305.428 235.459,-309.71"/>
</g>
<!-- Node10 -->
<g id="node10" class="node"><title>Node10</title>
<g id="a_node10"><a xlink:href="Rotation_8hpp.html" target="_top" xlink:title="Rotation.hpp">
<polygon fill="none" stroke="black" points="3,-224.5 3,-243.5 80,-243.5 80,-224.5 3,-224.5"/>
<text text-anchor="middle" x="41.5" y="-231.5" font-family="Helvetica,sans-Serif" font-size="10.00">Rotation.hpp</text>
</a>
</g>
</g>
<!-- Node1&#45;&gt;Node10 -->
<g id="edge10" class="edge"><title>Node1&#45;&gt;Node10</title>
<path fill="none" stroke="midnightblue" d="M168.428,-336.438C149.685,-327.287 125.784,-314.401 106.5,-300 87.2276,-285.608 68.1179,-265.632 55.6595,-251.636"/>
<polygon fill="midnightblue" stroke="midnightblue" points="58.0319,-249.031 48.82,-243.797 52.7574,-253.633 58.0319,-249.031"/>
</g>
<!-- Node11 -->
<g id="node11" class="node"><title>Node11</title>
<g id="a_node11"><a xlink:href="EntityFactory_8hpp.html" target="_top" xlink:title="EntityFactory.hpp">
<polygon fill="none" stroke="black" points="315.5,-280.5 315.5,-299.5 413.5,-299.5 413.5,-280.5 315.5,-280.5"/>
<text text-anchor="middle" x="364.5" y="-287.5" font-family="Helvetica,sans-Serif" font-size="10.00">EntityFactory.hpp</text>
</a>
</g>
</g>
<!-- Node1&#45;&gt;Node11 -->
<g id="edge12" class="edge"><title>Node1&#45;&gt;Node11</title>
<path fill="none" stroke="midnightblue" d="M238.603,-336.399C266.658,-326.283 304.073,-312.791 330.809,-303.149"/>
<polygon fill="midnightblue" stroke="midnightblue" points="332.271,-306.343 340.491,-299.658 329.897,-299.758 332.271,-306.343"/>
</g>
<!-- Node24 -->
<g id="node24" class="node"><title>Node24</title>
<g id="a_node24"><a xlink:href="EntityExceptions_8hpp.html" target="_top" xlink:title="EntityExceptions.hpp">
<polygon fill="none" stroke="black" points="717.5,-168.5 717.5,-187.5 833.5,-187.5 833.5,-168.5 717.5,-168.5"/>
<text text-anchor="middle" x="775.5" y="-175.5" font-family="Helvetica,sans-Serif" font-size="10.00">EntityExceptions.hpp</text>
</a>
</g>
</g>
<!-- Node1&#45;&gt;Node24 -->
<g id="edge39" class="edge"><title>Node1&#45;&gt;Node24</title>
<path fill="none" stroke="midnightblue" d="M257.008,-339.709C339.81,-323.37 496.808,-289.384 625.5,-244 669.507,-228.481 718.859,-206.085 748.539,-192.047"/>
<polygon fill="midnightblue" stroke="midnightblue" points="750.291,-195.089 757.814,-187.628 747.28,-188.769 750.291,-195.089"/>
</g>
<!-- Node4 -->
<g id="node4" class="node"><title>Node4</title>
<polygon fill="none" stroke="#bfbfbf" points="98.5,-224.5 98.5,-243.5 140.5,-243.5 140.5,-224.5 98.5,-224.5"/>
<text text-anchor="middle" x="119.5" y="-231.5" font-family="Helvetica,sans-Serif" font-size="10.00">utility</text>
</g>
<!-- Node3&#45;&gt;Node4 -->
<g id="edge3" class="edge"><title>Node3&#45;&gt;Node4</title>
<path fill="none" stroke="midnightblue" d="M147.886,-280.083C143.133,-272.534 136.182,-261.495 130.348,-252.23"/>
<polygon fill="midnightblue" stroke="midnightblue" points="133.3,-250.349 125.01,-243.751 127.376,-254.078 133.3,-250.349"/>
</g>
<!-- Node5 -->
<g id="node5" class="node"><title>Node5</title>
<g id="a_node5"><a xlink:href="IPhysics_8hpp.html" target="_top" xlink:title="IPhysics.hpp">
<polygon fill="none" stroke="black" points="117,-168.5 117,-187.5 192,-187.5 192,-168.5 117,-168.5"/>
<text text-anchor="middle" x="154.5" y="-175.5" font-family="Helvetica,sans-Serif" font-size="10.00">IPhysics.hpp</text>
</a>
</g>
</g>
<!-- Node3&#45;&gt;Node5 -->
<g id="edge4" class="edge"><title>Node3&#45;&gt;Node5</title>
<path fill="none" stroke="midnightblue" d="M153.578,-280.368C153.74,-262.617 154.112,-221.666 154.331,-197.597"/>
<polygon fill="midnightblue" stroke="midnightblue" points="157.831,-197.623 154.422,-187.591 150.831,-197.559 157.831,-197.623"/>
</g>
<!-- Node6 -->
<g id="node6" class="node"><title>Node6</title>
<g id="a_node6"><a xlink:href="IComponent_8hpp.html" target="_top" xlink:title="IComponent.hpp">
<polygon fill="none" stroke="black" points="101.5,-56.5 101.5,-75.5 197.5,-75.5 197.5,-56.5 101.5,-56.5"/>
<text text-anchor="middle" x="149.5" y="-63.5" font-family="Helvetica,sans-Serif" font-size="10.00">IComponent.hpp</text>
</a>
</g>
</g>
<!-- Node5&#45;&gt;Node6 -->
<g id="edge5" class="edge"><title>Node5&#45;&gt;Node6</title>
<path fill="none" stroke="midnightblue" d="M154.108,-168.368C153.301,-150.617 151.439,-109.666 150.345,-85.5974"/>
<polygon fill="midnightblue" stroke="midnightblue" points="153.841,-85.4221 149.891,-75.5914 146.848,-85.7401 153.841,-85.4221"/>
</g>
<!-- Node7 -->
<g id="node7" class="node"><title>Node7</title>
<polygon fill="none" stroke="#bfbfbf" points="118,-0.5 118,-19.5 181,-19.5 181,-0.5 118,-0.5"/>
<text text-anchor="middle" x="149.5" y="-7.5" font-family="Helvetica,sans-Serif" font-size="10.00">typeindex</text>
</g>
<!-- Node6&#45;&gt;Node7 -->
<g id="edge6" class="edge"><title>Node6&#45;&gt;Node7</title>
<path fill="none" stroke="midnightblue" d="M149.5,-56.083C149.5,-49.0059 149.5,-38.8611 149.5,-29.9865"/>
<polygon fill="midnightblue" stroke="midnightblue" points="153,-29.751 149.5,-19.7511 146,-29.7511 153,-29.751"/>
</g>
<!-- Node9 -->
<g id="node9" class="node"><title>Node9</title>
<g id="a_node9"><a xlink:href="Motion_8hpp.html" target="_top" xlink:title="Motion.hpp">
<polygon fill="none" stroke="black" points="196.5,-224.5 196.5,-243.5 266.5,-243.5 266.5,-224.5 196.5,-224.5"/>
<text text-anchor="middle" x="231.5" y="-231.5" font-family="Helvetica,sans-Serif" font-size="10.00">Motion.hpp</text>
</a>
</g>
</g>
<!-- Node8&#45;&gt;Node9 -->
<g id="edge8" class="edge"><title>Node8&#45;&gt;Node9</title>
<path fill="none" stroke="midnightblue" d="M243.188,-280.083C241.333,-272.927 238.665,-262.635 236.346,-253.691"/>
<polygon fill="midnightblue" stroke="midnightblue" points="239.666,-252.553 233.769,-243.751 232.891,-254.309 239.666,-252.553"/>
</g>
<!-- Node9&#45;&gt;Node5 -->
<g id="edge9" class="edge"><title>Node9&#45;&gt;Node5</title>
<path fill="none" stroke="midnightblue" d="M219.129,-224.324C207.342,-216.058 189.368,-203.453 175.364,-193.632"/>
<polygon fill="midnightblue" stroke="midnightblue" points="177.038,-190.531 166.841,-187.655 173.018,-196.262 177.038,-190.531"/>
</g>
<!-- Node10&#45;&gt;Node5 -->
<g id="edge11" class="edge"><title>Node10&#45;&gt;Node5</title>
<path fill="none" stroke="midnightblue" d="M59.4052,-224.444C77.754,-215.675 106.505,-201.935 127.594,-191.858"/>
<polygon fill="midnightblue" stroke="midnightblue" points="129.165,-194.986 136.679,-187.516 126.147,-188.67 129.165,-194.986"/>
</g>
<!-- Node12 -->
<g id="node12" class="node"><title>Node12</title>
<polygon fill="none" stroke="#bfbfbf" points="578.5,-224.5 578.5,-243.5 616.5,-243.5 616.5,-224.5 578.5,-224.5"/>
<text text-anchor="middle" x="597.5" y="-231.5" font-family="Helvetica,sans-Serif" font-size="10.00">map</text>
</g>
<!-- Node11&#45;&gt;Node12 -->
<g id="edge13" class="edge"><title>Node11&#45;&gt;Node12</title>
<path fill="none" stroke="midnightblue" d="M409.183,-280.464C448.793,-272.612 508.365,-260.111 568.619,-244.047"/>
<polygon fill="midnightblue" stroke="midnightblue" points="569.548,-247.422 578.292,-241.439 567.725,-240.663 569.548,-247.422"/>
</g>
<!-- Node13 -->
<g id="node13" class="node"><title>Node13</title>
<g id="a_node13"><a xlink:href="IEntityConstructor_8hpp.html" target="_top" xlink:title="IEntityConstructor.hpp">
<polygon fill="none" stroke="black" points="360.5,-168.5 360.5,-187.5 482.5,-187.5 482.5,-168.5 360.5,-168.5"/>
<text text-anchor="middle" x="421.5" y="-175.5" font-family="Helvetica,sans-Serif" font-size="10.00">IEntityConstructor.hpp</text>
</a>
</g>
</g>
<!-- Node11&#45;&gt;Node13 -->
<g id="edge14" class="edge"><title>Node11&#45;&gt;Node13</title>
<path fill="none" stroke="midnightblue" d="M368.973,-280.368C378.296,-262.376 399.969,-220.55 412.366,-196.627"/>
<polygon fill="midnightblue" stroke="midnightblue" points="415.555,-198.081 417.048,-187.591 409.34,-194.86 415.555,-198.081"/>
</g>
<!-- Node17 -->
<g id="node17" class="node"><title>Node17</title>
<g id="a_node17"><a xlink:href="IEntityManager_8hpp.html" target="_top" xlink:title="IEntityManager.hpp">
<polygon fill="none" stroke="black" points="401.5,-112.5 401.5,-131.5 509.5,-131.5 509.5,-112.5 401.5,-112.5"/>
<text text-anchor="middle" x="455.5" y="-119.5" font-family="Helvetica,sans-Serif" font-size="10.00">IEntityManager.hpp</text>
</a>
</g>
</g>
<!-- Node11&#45;&gt;Node17 -->
<g id="edge37" class="edge"><title>Node11&#45;&gt;Node17</title>
<path fill="none" stroke="midnightblue" d="M360.031,-280.198C349.924,-258.928 327.952,-203.847 351.5,-168 362.072,-151.907 379.762,-141.541 397.582,-134.876"/>
<polygon fill="midnightblue" stroke="midnightblue" points="399.097,-138.059 407.451,-131.542 396.856,-131.427 399.097,-138.059"/>
</g>
<!-- Node22 -->
<g id="node22" class="node"><title>Node22</title>
<g id="a_node22"><a xlink:href="IComponentManager_8hpp.html" target="_top" xlink:title="IComponentManager.hpp">
<polygon fill="none" stroke="black" points="170,-112.5 170,-131.5 307,-131.5 307,-112.5 170,-112.5"/>
<text text-anchor="middle" x="238.5" y="-119.5" font-family="Helvetica,sans-Serif" font-size="10.00">IComponentManager.hpp</text>
</a>
</g>
</g>
<!-- Node11&#45;&gt;Node22 -->
<g id="edge38" class="edge"><title>Node11&#45;&gt;Node22</title>
<path fill="none" stroke="midnightblue" d="M357.726,-280.075C337.549,-253.493 277.619,-174.538 251.224,-139.763"/>
<polygon fill="midnightblue" stroke="midnightblue" points="253.837,-137.417 245.004,-131.568 248.262,-141.65 253.837,-137.417"/>
</g>
<!-- Node23 -->
<g id="node23" class="node"><title>Node23</title>
<g id="a_node23"><a xlink:href="IEntityFactory_8hpp.html" target="_top" xlink:title="IEntityFactory.hpp">
<polygon fill="none" stroke="black" points="460.5,-224.5 460.5,-243.5 560.5,-243.5 560.5,-224.5 460.5,-224.5"/>
<text text-anchor="middle" x="510.5" y="-231.5" font-family="Helvetica,sans-Serif" font-size="10.00">IEntityFactory.hpp</text>
</a>
</g>
</g>
<!-- Node11&#45;&gt;Node23 -->
<g id="edge31" class="edge"><title>Node11&#45;&gt;Node23</title>
<path fill="none" stroke="midnightblue" d="M387.634,-280.444C411.982,-271.438 450.507,-257.189 477.923,-247.049"/>
<polygon fill="midnightblue" stroke="midnightblue" points="479.309,-250.268 487.474,-243.516 476.881,-243.703 479.309,-250.268"/>
</g>
<!-- Node14 -->
<g id="node14" class="node"><title>Node14</title>
<polygon fill="none" stroke="#bfbfbf" points="288,-56.5 288,-75.5 345,-75.5 345,-56.5 288,-56.5"/>
<text text-anchor="middle" x="316.5" y="-63.5" font-family="Helvetica,sans-Serif" font-size="10.00">memory</text>
</g>
<!-- Node13&#45;&gt;Node14 -->
<g id="edge15" class="edge"><title>Node13&#45;&gt;Node14</title>
<path fill="none" stroke="midnightblue" d="M406.821,-168.467C393.479,-160.246 373.758,-146.89 359.5,-132 345.795,-117.687 333.698,-98.4776 325.854,-84.6581"/>
<polygon fill="midnightblue" stroke="midnightblue" points="328.814,-82.7758 320.932,-75.6951 322.678,-86.1452 328.814,-82.7758"/>
</g>
<!-- Node15 -->
<g id="node15" class="node"><title>Node15</title>
<polygon fill="none" stroke="#bfbfbf" points="686.5,-0.5 686.5,-19.5 730.5,-19.5 730.5,-0.5 686.5,-0.5"/>
<text text-anchor="middle" x="708.5" y="-7.5" font-family="Helvetica,sans-Serif" font-size="10.00">string</text>
</g>
<!-- Node13&#45;&gt;Node15 -->
<g id="edge16" class="edge"><title>Node13&#45;&gt;Node15</title>
<path fill="none" stroke="midnightblue" d="M446.232,-168.434C469.457,-160.092 504.955,-146.569 534.5,-132 578.115,-110.492 588.635,-103.85 628.5,-76 650.78,-60.4347 674.781,-40.4606 690.619,-26.7872"/>
<polygon fill="midnightblue" stroke="midnightblue" points="693.275,-29.1152 698.516,-19.9071 688.677,-23.8374 693.275,-29.1152"/>
</g>
<!-- Node16 -->
<g id="node16" class="node"><title>Node16</title>
<g id="a_node16"><a xlink:href="Entity_8hpp.html" target="_top" xlink:title="Entity.hpp">
<polygon fill="none" stroke="black" points="428,-56.5 428,-75.5 491,-75.5 491,-56.5 428,-56.5"/>
<text text-anchor="middle" x="459.5" y="-63.5" font-family="Helvetica,sans-Serif" font-size="10.00">Entity.hpp</text>
</a>
</g>
</g>
<!-- Node13&#45;&gt;Node16 -->
<g id="edge17" class="edge"><title>Node13&#45;&gt;Node16</title>
<path fill="none" stroke="midnightblue" d="M463.89,-168.451C484.081,-162.022 506.412,-150.933 518.5,-132 531.002,-112.418 507.694,-93.109 486.791,-80.6912"/>
<polygon fill="midnightblue" stroke="midnightblue" points="488.228,-77.4847 477.793,-75.6526 484.808,-83.5923 488.228,-77.4847"/>
</g>
<!-- Node13&#45;&gt;Node17 -->
<g id="edge18" class="edge"><title>Node13&#45;&gt;Node17</title>
<path fill="none" stroke="midnightblue" d="M427.114,-168.083C431.867,-160.534 438.818,-149.495 444.652,-140.23"/>
<polygon fill="midnightblue" stroke="midnightblue" points="447.624,-142.078 449.99,-131.751 441.7,-138.349 447.624,-142.078"/>
</g>
<!-- Node13&#45;&gt;Node22 -->
<g id="edge26" class="edge"><title>Node13&#45;&gt;Node22</title>
<path fill="none" stroke="midnightblue" d="M392.503,-168.444C361.315,-159.241 311.57,-144.562 277.092,-134.388"/>
<polygon fill="midnightblue" stroke="midnightblue" points="277.943,-130.99 267.361,-131.516 275.962,-137.704 277.943,-130.99"/>
</g>
<!-- Node17&#45;&gt;Node14 -->
<g id="edge19" class="edge"><title>Node17&#45;&gt;Node14</title>
<path fill="none" stroke="midnightblue" d="M433.475,-112.444C410.396,-103.478 373.938,-89.314 347.859,-79.1827"/>
<polygon fill="midnightblue" stroke="midnightblue" points="349.011,-75.8753 338.422,-75.5164 346.476,-82.4002 349.011,-75.8753"/>
</g>
<!-- Node17&#45;&gt;Node16 -->
<g id="edge21" class="edge"><title>Node17&#45;&gt;Node16</title>
<path fill="none" stroke="midnightblue" d="M456.161,-112.083C456.685,-105.006 457.436,-94.8611 458.094,-85.9865"/>
<polygon fill="midnightblue" stroke="midnightblue" points="461.603,-85.9823 458.852,-75.7511 454.623,-85.4652 461.603,-85.9823"/>
</g>
<!-- Node18 -->
<g id="node18" class="node"><title>Node18</title>
<polygon fill="none" stroke="#bfbfbf" points="363,-56.5 363,-75.5 410,-75.5 410,-56.5 363,-56.5"/>
<text text-anchor="middle" x="386.5" y="-63.5" font-family="Helvetica,sans-Serif" font-size="10.00">vector</text>
</g>
<!-- Node17&#45;&gt;Node18 -->
<g id="edge20" class="edge"><title>Node17&#45;&gt;Node18</title>
<path fill="none" stroke="midnightblue" d="M444.414,-112.324C434.014,-104.185 418.239,-91.8395 405.778,-82.0874"/>
<polygon fill="midnightblue" stroke="midnightblue" points="407.82,-79.2407 397.788,-75.8339 403.506,-84.7533 407.82,-79.2407"/>
</g>
<!-- Node19 -->
<g id="node19" class="node"><title>Node19</title>
<g id="a_node19"><a xlink:href="PacketManager_8hpp.html" target="_top" xlink:title="PacketManager.hpp">
<polygon fill="none" stroke="black" points="509.5,-56.5 509.5,-75.5 619.5,-75.5 619.5,-56.5 509.5,-56.5"/>
<text text-anchor="middle" x="564.5" y="-63.5" font-family="Helvetica,sans-Serif" font-size="10.00">PacketManager.hpp</text>
</a>
</g>
</g>
<!-- Node17&#45;&gt;Node19 -->
<g id="edge22" class="edge"><title>Node17&#45;&gt;Node19</title>
<path fill="none" stroke="midnightblue" d="M473.013,-112.324C490.572,-103.625 517.831,-90.1202 538.031,-80.113"/>
<polygon fill="midnightblue" stroke="midnightblue" points="539.624,-83.23 547.031,-75.6545 536.516,-76.9575 539.624,-83.23"/>
</g>
<!-- Node19&#45;&gt;Node15 -->
<g id="edge23" class="edge"><title>Node19&#45;&gt;Node15</title>
<path fill="none" stroke="midnightblue" d="M587.317,-56.4435C611.473,-47.3851 649.776,-33.0213 676.845,-22.8705"/>
<polygon fill="midnightblue" stroke="midnightblue" points="678.128,-26.1274 686.263,-19.339 675.67,-19.5731 678.128,-26.1274"/>
</g>
<!-- Node20 -->
<g id="node20" class="node"><title>Node20</title>
<polygon fill="none" stroke="#bfbfbf" points="350.5,-0.5 350.5,-19.5 380.5,-19.5 380.5,-0.5 350.5,-0.5"/>
<text text-anchor="middle" x="365.5" y="-7.5" font-family="Helvetica,sans-Serif" font-size="10.00">list</text>
</g>
<!-- Node19&#45;&gt;Node20 -->
<g id="edge24" class="edge"><title>Node19&#45;&gt;Node20</title>
<path fill="none" stroke="midnightblue" d="M532.968,-56.4435C493.467,-45.7248 426.592,-27.5777 390.457,-17.7722"/>
<polygon fill="midnightblue" stroke="midnightblue" points="391.278,-14.3685 380.71,-15.1274 389.445,-21.1242 391.278,-14.3685"/>
</g>
<!-- Node21 -->
<g id="node21" class="node"><title>Node21</title>
<g id="a_node21"><a xlink:href="Input_8hpp.html" target="_top" xlink:title="Render/Input.hpp">
<polygon fill="none" stroke="black" points="515.5,-0.5 515.5,-19.5 613.5,-19.5 613.5,-0.5 515.5,-0.5"/>
<text text-anchor="middle" x="564.5" y="-7.5" font-family="Helvetica,sans-Serif" font-size="10.00">Render/Input.hpp</text>
</a>
</g>
</g>
<!-- Node19&#45;&gt;Node21 -->
<g id="edge25" class="edge"><title>Node19&#45;&gt;Node21</title>
<path fill="none" stroke="midnightblue" d="M564.5,-56.083C564.5,-49.0059 564.5,-38.8611 564.5,-29.9865"/>
<polygon fill="midnightblue" stroke="midnightblue" points="568,-29.751 564.5,-19.7511 561,-29.7511 568,-29.751"/>
</g>
<!-- Node22&#45;&gt;Node6 -->
<g id="edge29" class="edge"><title>Node22&#45;&gt;Node6</title>
<path fill="none" stroke="midnightblue" d="M224.201,-112.324C210.317,-103.9 189.008,-90.9709 172.696,-81.0741"/>
<polygon fill="midnightblue" stroke="midnightblue" points="174.129,-77.8495 163.764,-75.6545 170.498,-83.8341 174.129,-77.8495"/>
</g>
<!-- Node22&#45;&gt;Node14 -->
<g id="edge28" class="edge"><title>Node22&#45;&gt;Node14</title>
<path fill="none" stroke="midnightblue" d="M251.032,-112.324C263.086,-103.979 281.527,-91.2122 295.769,-81.3524"/>
<polygon fill="midnightblue" stroke="midnightblue" points="297.769,-84.2243 303.999,-75.6545 293.785,-78.469 297.769,-84.2243"/>
</g>
<!-- Node22&#45;&gt;Node16 -->
<g id="edge30" class="edge"><title>Node22&#45;&gt;Node16</title>
<path fill="none" stroke="midnightblue" d="M273.518,-112.444C312.76,-102.855 376.329,-87.3223 418.026,-77.1339"/>
<polygon fill="midnightblue" stroke="midnightblue" points="418.985,-80.5027 427.868,-74.729 417.323,-73.7027 418.985,-80.5027"/>
</g>
<!-- Node22&#45;&gt;Node20 -->
<g id="edge27" class="edge"><title>Node22&#45;&gt;Node20</title>
<path fill="none" stroke="midnightblue" d="M241.972,-112.404C247.785,-98.9095 260.632,-72.5874 278.5,-56 296.587,-39.2099 322.126,-26.9946 340.856,-19.5631"/>
<polygon fill="midnightblue" stroke="midnightblue" points="342.354,-22.7384 350.47,-15.9279 339.878,-16.1908 342.354,-22.7384"/>
</g>
<!-- Node23&#45;&gt;Node13 -->
<g id="edge35" class="edge"><title>Node23&#45;&gt;Node13</title>
<path fill="none" stroke="midnightblue" d="M496.201,-224.324C482.317,-215.9 461.008,-202.971 444.696,-193.074"/>
<polygon fill="midnightblue" stroke="midnightblue" points="446.129,-189.85 435.764,-187.655 442.498,-195.834 446.129,-189.85"/>
</g>
<!-- Node23&#45;&gt;Node14 -->
<g id="edge33" class="edge"><title>Node23&#45;&gt;Node14</title>
<path fill="none" stroke="midnightblue" d="M510.348,-224.212C509.638,-210.456 506.296,-183.781 491.5,-168 459.477,-133.846 432.939,-155.594 392.5,-132 369.218,-118.417 346.224,-97.4029 331.731,-82.9667"/>
<polygon fill="midnightblue" stroke="midnightblue" points="334.11,-80.3942 324.606,-75.7123 329.116,-85.2993 334.11,-80.3942"/>
</g>
<!-- Node23&#45;&gt;Node15 -->
<g id="edge32" class="edge"><title>Node23&#45;&gt;Node15</title>
<path fill="none" stroke="midnightblue" d="M523.924,-224.224C536.411,-215.733 555.19,-202.11 569.5,-188 623.185,-135.069 674.908,-61.375 697.129,-28.2873"/>
<polygon fill="midnightblue" stroke="midnightblue" points="700.194,-29.9991 702.82,-19.7349 694.366,-26.121 700.194,-29.9991"/>
</g>
<!-- Node23&#45;&gt;Node16 -->
<g id="edge36" class="edge"><title>Node23&#45;&gt;Node16</title>
<path fill="none" stroke="midnightblue" d="M515.914,-224.453C528.278,-203.749 555.92,-149.832 534.5,-112 526.153,-97.2584 510.838,-86.8192 496.213,-79.7321"/>
<polygon fill="midnightblue" stroke="midnightblue" points="497.342,-76.4041 486.782,-75.5474 494.503,-82.8025 497.342,-76.4041"/>
</g>
<!-- Node23&#45;&gt;Node19 -->
<g id="edge34" class="edge"><title>Node23&#45;&gt;Node19</title>
<path fill="none" stroke="midnightblue" d="M521.658,-224.33C531.339,-216.112 544.819,-202.842 551.5,-188 566.623,-154.404 567.175,-110.433 565.99,-85.81"/>
<polygon fill="midnightblue" stroke="midnightblue" points="569.474,-85.4435 565.347,-75.6854 562.488,-85.8872 569.474,-85.4435"/>
</g>
<!-- Node24&#45;&gt;Node15 -->
<g id="edge40" class="edge"><title>Node24&#45;&gt;Node15</title>
<path fill="none" stroke="midnightblue" d="M770.053,-168.269C764.645,-159.368 756.339,-145.053 750.5,-132 734.746,-96.7782 721.052,-53.7131 713.864,-29.6191"/>
<polygon fill="midnightblue" stroke="midnightblue" points="717.129,-28.3161 710.956,-19.7057 710.412,-30.2866 717.129,-28.3161"/>
</g>
<!-- Node25 -->
<g id="node25" class="node"><title>Node25</title>
<g id="a_node25"><a xlink:href="ECSExceptions_8hpp.html" target="_top" xlink:title="ECSExceptions.hpp">
<polygon fill="none" stroke="black" points="759,-112.5 759,-131.5 868,-131.5 868,-112.5 759,-112.5"/>
<text text-anchor="middle" x="813.5" y="-119.5" font-family="Helvetica,sans-Serif" font-size="10.00">ECSExceptions.hpp</text>
</a>
</g>
</g>
<!-- Node24&#45;&gt;Node25 -->
<g id="edge41" class="edge"><title>Node24&#45;&gt;Node25</title>
<path fill="none" stroke="midnightblue" d="M781.775,-168.083C787.142,-160.455 795.018,-149.264 801.579,-139.941"/>
<polygon fill="midnightblue" stroke="midnightblue" points="804.449,-141.943 807.342,-131.751 798.725,-137.915 804.449,-141.943"/>
</g>
<!-- Node25&#45;&gt;Node15 -->
<g id="edge42" class="edge"><title>Node25&#45;&gt;Node15</title>
<path fill="none" stroke="midnightblue" d="M834.583,-112.338C860.159,-100.581 897.832,-78.4493 880.5,-56 863.561,-34.0597 785.732,-20.7557 740.787,-14.7691"/>
<polygon fill="midnightblue" stroke="midnightblue" points="741.024,-11.2709 730.66,-13.4697 740.133,-18.214 741.024,-11.2709"/>
</g>
<!-- Node26 -->
<g id="node26" class="node"><title>Node26</title>
<g id="a_node26"><a xlink:href="RTypeExceptions_8hpp.html" target="_top" xlink:title="RTypeExceptions.hpp">
<polygon fill="none" stroke="black" points="755.5,-56.5 755.5,-75.5 871.5,-75.5 871.5,-56.5 755.5,-56.5"/>
<text text-anchor="middle" x="813.5" y="-63.5" font-family="Helvetica,sans-Serif" font-size="10.00">RTypeExceptions.hpp</text>
</a>
</g>
</g>
<!-- Node25&#45;&gt;Node26 -->
<g id="edge43" class="edge"><title>Node25&#45;&gt;Node26</title>
<path fill="none" stroke="midnightblue" d="M813.5,-112.083C813.5,-105.006 813.5,-94.8611 813.5,-85.9865"/>
<polygon fill="midnightblue" stroke="midnightblue" points="817,-85.751 813.5,-75.7511 810,-85.7511 817,-85.751"/>
</g>
<!-- Node26&#45;&gt;Node15 -->
<g id="edge44" class="edge"><title>Node26&#45;&gt;Node15</title>
<path fill="none" stroke="midnightblue" d="M796.63,-56.324C779.791,-47.6641 753.693,-34.2424 734.262,-24.249"/>
<polygon fill="midnightblue" stroke="midnightblue" points="735.822,-21.1155 725.328,-19.6545 732.62,-27.3405 735.822,-21.1155"/>
</g>
</g>
</svg>
        <g id="navigator" transform="translate(0 0)" fill="#404254">
                <rect fill="#f2f5e9" fill-opacity="0.5" stroke="#606060" stroke-width=".5" x="0" y="0" width="60" height="60"/>
                <use id="zoomplus" xlink:href="#zoomPlus" x="17" y="9" onmousedown="handleZoom(evt,'in')"/>
                <use id="zoomminus" xlink:href="#zoomMin" x="42" y="9" onmousedown="handleZoom(evt,'out')"/>
                <use id="reset" xlink:href="#resetDef" x="30" y="36" onmousedown="handleReset()"/>
                <g id="arrowUp" xlink:href="#dirArrow" transform="translate(30 24)" onmousedown="handlePan(0,-1)">
                  <use xlink:href="#rim" fill="#404040">
                        <set attributeName="fill" to="#808080" begin="arrowUp.mouseover" end="arrowUp.mouseout"/>
                  </use>
                  <path fill="none" stroke="white" stroke-width="1.5" d="M0,-3.0v7 M-2.5,-0.5L0,-3.0L2.5,-0.5"/>
                </g>
                <g id="arrowRight" xlink:href="#dirArrow" transform="rotate(90) translate(36 -43)" onmousedown="handlePan(1,0)">
                  <use xlink:href="#rim" fill="#404040">
                        <set attributeName="fill" to="#808080" begin="arrowRight.mouseover" end="arrowRight.mouseout"/>
                  </use>
                  <path fill="none" stroke="white" stroke-width="1.5" d="M0,-3.0v7 M-2.5,-0.5L0,-3.0L2.5,-0.5"/>
                </g>
                <g id="arrowDown" xlink:href="#dirArrow" transform="rotate(180) translate(-30 -48)" onmousedown="handlePan(0,1)">
                  <use xlink:href="#rim" fill="#404040">
                        <set attributeName="fill" to="#808080" begin="arrowDown.mouseover" end="arrowDown.mouseout"/>
                  </use>
                  <path fill="none" stroke="white" stroke-width="1.5" d="M0,-3.0v7 M-2.5,-0.5L0,-3.0L2.5,-0.5"/>
                </g>
                <g id="arrowLeft" xlink:href="#dirArrow" transform="rotate(270) translate(-36 17)" onmousedown="handlePan(-1,0)">
                  <use xlink:href="#rim" fill="#404040">
                        <set attributeName="fill" to="#808080" begin="arrowLeft.mouseover" end="arrowLeft.mouseout"/>
                  </use>
                  <path fill="none" stroke="white" stroke-width="1.5" d="M0,-3.0v7 M-2.5,-0.5L0,-3.0L2.5,-0.5"/>
                </g>
        </g>
        <svg viewBox="0 0 15 15" width="100%" height="30px" preserveAspectRatio="xMaxYMin meet">
         <g id="arrow_out" transform="scale(0.3 0.3)">
          <a xlink:href="EntityFactory_8cpp__incl_org.svg" target="_base">
           <rect id="button" ry="5" rx="5" y="6" x="6" height="38" width="38"
                fill="#f2f5e9" fill-opacity="0.5" stroke="#606060" stroke-width="1.0"/>
           <path id="arrow"
             d="M 11.500037,31.436501 C 11.940474,20.09759 22.043105,11.32322 32.158766,21.979434 L 37.068811,17.246167 C 37.068811,17.246167 37.088388,32 37.088388,32 L 22.160133,31.978069 C 22.160133,31.978069 26.997745,27.140456 26.997745,27.140456 C 18.528582,18.264221 13.291696,25.230495 11.500037,31.436501 z"
             style="fill:#404040;"/>
          </a>
         </g>
        </svg>
</svg>
