<?xml version="1.0" encoding="UTF-8" standalone="no"?>
<!DOCTYPE svg PUBLIC "-//W3C//DTD SVG 1.1//EN"
 "http://www.w3.org/Graphics/SVG/1.1/DTD/svg11.dtd">
<!-- Generated by graphviz version 2.38.0 (20140413.2041)
 -->
<!-- Title: src/Entities/Factories/EntityFactory.hpp Pages: 1 -->
<svg width="545pt" height="319pt"
 viewBox="0.00 0.00 545.00 319.00" xmlns="http://www.w3.org/2000/svg" xmlns:xlink="http://www.w3.org/1999/xlink">
<g id="graph0" class="graph" transform="scale(1 1) rotate(0) translate(4 315)">
<title>src/Entities/Factories/EntityFactory.hpp</title>
<!-- Node1 -->
<g id="node1" class="node"><title>Node1</title>
<polygon fill="#bfbfbf" stroke="black" points="153.5,-280.5 153.5,-310.5 268.5,-310.5 268.5,-280.5 153.5,-280.5"/>
<text text-anchor="start" x="161.5" y="-298.5" font-family="Helvetica,sans-Serif" font-size="10.00">src/Entities/Factories</text>
<text text-anchor="middle" x="211" y="-287.5" font-family="Helvetica,sans-Serif" font-size="10.00">/EntityFactory.hpp</text>
</g>
<!-- Node2 -->
<g id="node2" class="node"><title>Node2</title>
<polygon fill="none" stroke="#bfbfbf" points="27,-224.5 27,-243.5 65,-243.5 65,-224.5 27,-224.5"/>
<text text-anchor="middle" x="46" y="-231.5" font-family="Helvetica,sans-Serif" font-size="10.00">map</text>
</g>
<!-- Node1&#45;&gt;Node2 -->
<g id="edge1" class="edge"><title>Node1&#45;&gt;Node2</title>
<path fill="none" stroke="midnightblue" d="M171.897,-280.399C142.152,-269.673 101.886,-255.153 74.98,-245.45"/>
<polygon fill="midnightblue" stroke="midnightblue" points="75.9665,-242.086 65.3722,-241.986 73.5919,-248.671 75.9665,-242.086"/>
</g>
<!-- Node3 -->
<g id="node3" class="node"><title>Node3</title>
<g id="a_node3"><a xlink:href="IEntityConstructor_8hpp.html" target="_top" xlink:title="IEntityConstructor.hpp">
<polygon fill="none" stroke="black" points="124,-168.5 124,-187.5 246,-187.5 246,-168.5 124,-168.5"/>
<text text-anchor="middle" x="185" y="-175.5" font-family="Helvetica,sans-Serif" font-size="10.00">IEntityConstructor.hpp</text>
</a>
</g>
</g>
<!-- Node1&#45;&gt;Node3 -->
<g id="edge2" class="edge"><title>Node1&#45;&gt;Node3</title>
<path fill="none" stroke="midnightblue" d="M207.812,-280.337C203.127,-259.527 194.379,-220.663 189.183,-197.583"/>
<polygon fill="midnightblue" stroke="midnightblue" points="192.562,-196.657 186.952,-187.669 185.733,-198.194 192.562,-196.657"/>
</g>
<!-- Node7 -->
<g id="node7" class="node"><title>Node7</title>
<g id="a_node7"><a xlink:href="IEntityManager_8hpp.html" target="_top" xlink:title="IEntityManager.hpp">
<polygon fill="none" stroke="black" points="162,-112.5 162,-131.5 270,-131.5 270,-112.5 162,-112.5"/>
<text text-anchor="middle" x="216" y="-119.5" font-family="Helvetica,sans-Serif" font-size="10.00">IEntityManager.hpp</text>
</a>
</g>
</g>
<!-- Node1&#45;&gt;Node7 -->
<g id="edge26" class="edge"><title>Node1&#45;&gt;Node7</title>
<path fill="none" stroke="midnightblue" d="M219.015,-280.256C229.712,-260.348 248.108,-222.732 255,-188 256.73,-179.281 258.107,-176.328 255,-168 250.827,-156.812 242.48,-146.56 234.576,-138.676"/>
<polygon fill="midnightblue" stroke="midnightblue" points="236.701,-135.872 226.99,-131.635 231.938,-141.003 236.701,-135.872"/>
</g>
<!-- Node12 -->
<g id="node12" class="node"><title>Node12</title>
<g id="a_node12"><a xlink:href="IComponentManager_8hpp.html" target="_top" xlink:title="IComponentManager.hpp">
<polygon fill="none" stroke="black" points="364.5,-112.5 364.5,-131.5 501.5,-131.5 501.5,-112.5 364.5,-112.5"/>
<text text-anchor="middle" x="433" y="-119.5" font-family="Helvetica,sans-Serif" font-size="10.00">IComponentManager.hpp</text>
</a>
</g>
</g>
<!-- Node1&#45;&gt;Node12 -->
<g id="edge27" class="edge"><title>Node1&#45;&gt;Node12</title>
<path fill="none" stroke="midnightblue" d="M229.167,-280.465C270.545,-248.5 371.486,-170.521 413.819,-137.818"/>
<polygon fill="midnightblue" stroke="midnightblue" points="416.146,-140.443 421.92,-131.56 411.866,-134.903 416.146,-140.443"/>
</g>
<!-- Node15 -->
<g id="node15" class="node"><title>Node15</title>
<g id="a_node15"><a xlink:href="IEntityFactory_8hpp.html" target="_top" xlink:title="IEntityFactory.hpp">
<polygon fill="none" stroke="black" points="83,-224.5 83,-243.5 183,-243.5 183,-224.5 83,-224.5"/>
<text text-anchor="middle" x="133" y="-231.5" font-family="Helvetica,sans-Serif" font-size="10.00">IEntityFactory.hpp</text>
</a>
</g>
</g>
<!-- Node1&#45;&gt;Node15 -->
<g id="edge20" class="edge"><title>Node1&#45;&gt;Node15</title>
<path fill="none" stroke="midnightblue" d="M192.515,-280.399C180.48,-271.218 164.8,-259.258 152.557,-249.918"/>
<polygon fill="midnightblue" stroke="midnightblue" points="154.423,-246.94 144.35,-243.658 150.178,-252.506 154.423,-246.94"/>
</g>
<!-- Node4 -->
<g id="node4" class="node"><title>Node4</title>
<polygon fill="none" stroke="#bfbfbf" points="181.5,-56.5 181.5,-75.5 238.5,-75.5 238.5,-56.5 181.5,-56.5"/>
<text text-anchor="middle" x="210" y="-63.5" font-family="Helvetica,sans-Serif" font-size="10.00">memory</text>
</g>
<!-- Node3&#45;&gt;Node4 -->
<g id="edge3" class="edge"><title>Node3&#45;&gt;Node4</title>
<path fill="none" stroke="midnightblue" d="M175.179,-168.186C162.521,-155.703 143.236,-132.148 153,-112 159.397,-98.7996 171.752,-88.3032 183.329,-80.7794"/>
<polygon fill="midnightblue" stroke="midnightblue" points="185.155,-83.7653 191.918,-75.6099 181.546,-77.7678 185.155,-83.7653"/>
</g>
<!-- Node5 -->
<g id="node5" class="node"><title>Node5</title>
<polygon fill="none" stroke="#bfbfbf" points="0,-0.5 0,-19.5 44,-19.5 44,-0.5 0,-0.5"/>
<text text-anchor="middle" x="22" y="-7.5" font-family="Helvetica,sans-Serif" font-size="10.00">string</text>
</g>
<!-- Node3&#45;&gt;Node5 -->
<g id="edge4" class="edge"><title>Node3&#45;&gt;Node5</title>
<path fill="none" stroke="midnightblue" d="M166.133,-168.33C136.033,-153.571 77.1683,-120.755 44,-76 33.813,-62.2543 28.1321,-43.4756 25.1074,-29.6363"/>
<polygon fill="midnightblue" stroke="midnightblue" points="28.5391,-28.9473 23.2158,-19.787 21.6648,-30.2676 28.5391,-28.9473"/>
</g>
<!-- Node6 -->
<g id="node6" class="node"><title>Node6</title>
<g id="a_node6"><a xlink:href="Entity_8hpp.html" target="_top" xlink:title="Entity.hpp">
<polygon fill="none" stroke="black" points="321.5,-56.5 321.5,-75.5 384.5,-75.5 384.5,-56.5 321.5,-56.5"/>
<text text-anchor="middle" x="353" y="-63.5" font-family="Helvetica,sans-Serif" font-size="10.00">Entity.hpp</text>
</a>
</g>
</g>
<!-- Node3&#45;&gt;Node6 -->
<g id="edge5" class="edge"><title>Node3&#45;&gt;Node6</title>
<path fill="none" stroke="midnightblue" d="M207.187,-168.416C226.835,-160.348 255.9,-147.254 279,-132 300.912,-117.53 323.163,-97.0316 337.462,-82.9432"/>
<polygon fill="midnightblue" stroke="midnightblue" points="339.949,-85.4059 344.535,-75.8549 334.994,-80.4615 339.949,-85.4059"/>
</g>
<!-- Node3&#45;&gt;Node7 -->
<g id="edge6" class="edge"><title>Node3&#45;&gt;Node7</title>
<path fill="none" stroke="midnightblue" d="M190.119,-168.083C194.408,-160.613 200.658,-149.724 205.942,-140.52"/>
<polygon fill="midnightblue" stroke="midnightblue" points="209.033,-142.166 210.976,-131.751 202.962,-138.681 209.033,-142.166"/>
</g>
<!-- Node3&#45;&gt;Node12 -->
<g id="edge14" class="edge"><title>Node3&#45;&gt;Node12</title>
<path fill="none" stroke="midnightblue" d="M224.296,-168.444C267.559,-159.023 337.173,-143.866 383.973,-133.675"/>
<polygon fill="midnightblue" stroke="midnightblue" points="384.861,-137.064 393.888,-131.516 383.372,-130.224 384.861,-137.064"/>
</g>
<!-- Node7&#45;&gt;Node4 -->
<g id="edge7" class="edge"><title>Node7&#45;&gt;Node4</title>
<path fill="none" stroke="midnightblue" d="M215.009,-112.083C214.214,-104.927 213.071,-94.6353 212.077,-85.6911"/>
<polygon fill="midnightblue" stroke="midnightblue" points="215.555,-85.3034 210.972,-75.7511 208.598,-86.0765 215.555,-85.3034"/>
</g>
<!-- Node7&#45;&gt;Node6 -->
<g id="edge9" class="edge"><title>Node7&#45;&gt;Node6</title>
<path fill="none" stroke="midnightblue" d="M237.708,-112.444C260.355,-103.517 296.072,-89.4387 321.752,-79.3168"/>
<polygon fill="midnightblue" stroke="midnightblue" points="323.374,-82.4397 331.394,-75.5164 320.807,-75.9273 323.374,-82.4397"/>
</g>
<!-- Node8 -->
<g id="node8" class="node"><title>Node8</title>
<polygon fill="none" stroke="#bfbfbf" points="256.5,-56.5 256.5,-75.5 303.5,-75.5 303.5,-56.5 256.5,-56.5"/>
<text text-anchor="middle" x="280" y="-63.5" font-family="Helvetica,sans-Serif" font-size="10.00">vector</text>
</g>
<!-- Node7&#45;&gt;Node8 -->
<g id="edge8" class="edge"><title>Node7&#45;&gt;Node8</title>
<path fill="none" stroke="midnightblue" d="M226.283,-112.324C235.836,-104.263 250.28,-92.0765 261.784,-82.3695"/>
<polygon fill="midnightblue" stroke="midnightblue" points="264.144,-84.9577 269.53,-75.8339 259.63,-79.6076 264.144,-84.9577"/>
</g>
<!-- Node9 -->
<g id="node9" class="node"><title>Node9</title>
<g id="a_node9"><a xlink:href="PacketManager_8hpp.html" target="_top" xlink:title="PacketManager.hpp">
<polygon fill="none" stroke="black" points="53,-56.5 53,-75.5 163,-75.5 163,-56.5 53,-56.5"/>
<text text-anchor="middle" x="108" y="-63.5" font-family="Helvetica,sans-Serif" font-size="10.00">PacketManager.hpp</text>
</a>
</g>
</g>
<!-- Node7&#45;&gt;Node9 -->
<g id="edge10" class="edge"><title>Node7&#45;&gt;Node9</title>
<path fill="none" stroke="midnightblue" d="M198.648,-112.324C181.328,-103.664 154.485,-90.2424 134.498,-80.249"/>
<polygon fill="midnightblue" stroke="midnightblue" points="135.819,-76.9962 125.309,-75.6545 132.688,-83.2572 135.819,-76.9962"/>
</g>
<!-- Node9&#45;&gt;Node5 -->
<g id="edge11" class="edge"><title>Node9&#45;&gt;Node5</title>
<path fill="none" stroke="midnightblue" d="M94.1826,-56.324C80.767,-47.9002 60.1759,-34.9709 44.4144,-25.0741"/>
<polygon fill="midnightblue" stroke="midnightblue" points="46.1132,-22.0081 35.7831,-19.6545 42.3908,-27.9364 46.1132,-22.0081"/>
</g>
<!-- Node10 -->
<g id="node10" class="node"><title>Node10</title>
<polygon fill="none" stroke="#bfbfbf" points="287,-0.5 287,-19.5 317,-19.5 317,-0.5 287,-0.5"/>
<text text-anchor="middle" x="302" y="-7.5" font-family="Helvetica,sans-Serif" font-size="10.00">list</text>
</g>
<!-- Node9&#45;&gt;Node10 -->
<g id="edge12" class="edge"><title>Node9&#45;&gt;Node10</title>
<path fill="none" stroke="midnightblue" d="M138.74,-56.4435C176.889,-45.8247 241.23,-27.9153 276.678,-18.0485"/>
<polygon fill="midnightblue" stroke="midnightblue" points="277.995,-21.315 286.69,-15.2616 276.117,-14.5714 277.995,-21.315"/>
</g>
<!-- Node11 -->
<g id="node11" class="node"><title>Node11</title>
<g id="a_node11"><a xlink:href="Input_8hpp.html" target="_top" xlink:title="Render/Input.hpp">
<polygon fill="none" stroke="black" points="62,-0.5 62,-19.5 160,-19.5 160,-0.5 62,-0.5"/>
<text text-anchor="middle" x="111" y="-7.5" font-family="Helvetica,sans-Serif" font-size="10.00">Render/Input.hpp</text>
</a>
</g>
</g>
<!-- Node9&#45;&gt;Node11 -->
<g id="edge13" class="edge"><title>Node9&#45;&gt;Node11</title>
<path fill="none" stroke="midnightblue" d="M108.495,-56.083C108.889,-49.0059 109.452,-38.8611 109.945,-29.9865"/>
<polygon fill="midnightblue" stroke="midnightblue" points="113.454,-29.9299 110.514,-19.7511 106.464,-29.5415 113.454,-29.9299"/>
</g>
<!-- Node12&#45;&gt;Node4 -->
<g id="edge16" class="edge"><title>Node12&#45;&gt;Node4</title>
<path fill="none" stroke="midnightblue" d="M397.665,-112.444C357.047,-102.608 290.599,-86.5172 248.639,-76.3565"/>
<polygon fill="midnightblue" stroke="midnightblue" points="249.33,-72.9229 238.788,-73.971 247.683,-79.7262 249.33,-72.9229"/>
</g>
<!-- Node12&#45;&gt;Node6 -->
<g id="edge19" class="edge"><title>Node12&#45;&gt;Node6</title>
<path fill="none" stroke="midnightblue" d="M420.147,-112.324C407.784,-103.979 388.87,-91.2122 374.263,-81.3524"/>
<polygon fill="midnightblue" stroke="midnightblue" points="376.068,-78.3483 365.821,-75.6545 372.152,-84.1503 376.068,-78.3483"/>
</g>
<!-- Node12&#45;&gt;Node10 -->
<g id="edge15" class="edge"><title>Node12&#45;&gt;Node10</title>
<path fill="none" stroke="midnightblue" d="M429.714,-112.353C424.182,-98.79 411.838,-72.3749 394,-56 374.592,-38.184 346.83,-25.9164 326.886,-18.7429"/>
<polygon fill="midnightblue" stroke="midnightblue" points="327.85,-15.3736 317.255,-15.4536 325.587,-21.9979 327.85,-15.3736"/>
</g>
<!-- Node13 -->
<g id="node13" class="node"><title>Node13</title>
<g id="a_node13"><a xlink:href="IComponent_8hpp.html" target="_top" xlink:title="IComponent.hpp">
<polygon fill="none" stroke="black" points="441,-56.5 441,-75.5 537,-75.5 537,-56.5 441,-56.5"/>
<text text-anchor="middle" x="489" y="-63.5" font-family="Helvetica,sans-Serif" font-size="10.00">IComponent.hpp</text>
</a>
</g>
</g>
<!-- Node12&#45;&gt;Node13 -->
<g id="edge17" class="edge"><title>Node12&#45;&gt;Node13</title>
<path fill="none" stroke="midnightblue" d="M441.997,-112.324C450.194,-104.42 462.506,-92.5482 472.472,-82.9377"/>
<polygon fill="midnightblue" stroke="midnightblue" points="475.07,-85.2947 479.839,-75.8339 470.211,-80.2558 475.07,-85.2947"/>
</g>
<!-- Node14 -->
<g id="node14" class="node"><title>Node14</title>
<polygon fill="none" stroke="#bfbfbf" points="457.5,-0.5 457.5,-19.5 520.5,-19.5 520.5,-0.5 457.5,-0.5"/>
<text text-anchor="middle" x="489" y="-7.5" font-family="Helvetica,sans-Serif" font-size="10.00">typeindex</text>
</g>
<!-- Node13&#45;&gt;Node14 -->
<g id="edge18" class="edge"><title>Node13&#45;&gt;Node14</title>
<path fill="none" stroke="midnightblue" d="M489,-56.083C489,-49.0059 489,-38.8611 489,-29.9865"/>
<polygon fill="midnightblue" stroke="midnightblue" points="492.5,-29.751 489,-19.7511 485.5,-29.7511 492.5,-29.751"/>
</g>
<!-- Node15&#45;&gt;Node3 -->
<g id="edge24" class="edge"><title>Node15&#45;&gt;Node3</title>
<path fill="none" stroke="midnightblue" d="M141.587,-224.083C149.159,-216.22 160.378,-204.569 169.514,-195.081"/>
<polygon fill="midnightblue" stroke="midnightblue" points="172.158,-197.382 176.573,-187.751 167.115,-192.527 172.158,-197.382"/>
</g>
<!-- Node15&#45;&gt;Node4 -->
<g id="edge22" class="edge"><title>Node15&#45;&gt;Node4</title>
<path fill="none" stroke="midnightblue" d="M127.515,-224.185C120.442,-211.7 109.65,-188.145 115,-168 122.358,-140.295 127.78,-133.268 147,-112 158.095,-99.7222 173.09,-88.8458 185.667,-80.8626"/>
<polygon fill="midnightblue" stroke="midnightblue" points="187.6,-83.7833 194.307,-75.5822 183.949,-77.8103 187.6,-83.7833"/>
</g>
<!-- Node15&#45;&gt;Node5 -->
<g id="edge21" class="edge"><title>Node15&#45;&gt;Node5</title>
<path fill="none" stroke="midnightblue" d="M116.406,-224.345C102.797,-216.493 83.8992,-203.751 72,-188 35.1656,-139.243 25.4608,-64.4731 22.9083,-29.8264"/>
<polygon fill="midnightblue" stroke="midnightblue" points="26.3936,-29.4774 22.288,-19.7104 19.4067,-29.9059 26.3936,-29.4774"/>
</g>
<!-- Node15&#45;&gt;Node6 -->
<g id="edge25" class="edge"><title>Node15&#45;&gt;Node6</title>
<path fill="none" stroke="midnightblue" d="M169.901,-224.458C195.321,-217.407 229.06,-205.658 255,-188 295.621,-160.349 327.966,-110.958 343.307,-84.643"/>
<polygon fill="midnightblue" stroke="midnightblue" points="346.445,-86.2052 348.336,-75.7805 340.357,-82.7506 346.445,-86.2052"/>
</g>
<!-- Node15&#45;&gt;Node9 -->
<g id="edge23" class="edge"><title>Node15&#45;&gt;Node9</title>
<path fill="none" stroke="midnightblue" d="M117.266,-224.236C105.111,-216.481 89.1883,-203.929 82,-188 68.1063,-157.212 73.2524,-144.625 82,-112 84.6536,-102.103 90.0693,-92.1315 95.2743,-84.099"/>
<polygon fill="midnightblue" stroke="midnightblue" points="98.2891,-85.8935 101.11,-75.6811 92.5361,-81.9055 98.2891,-85.8935"/>
</g>
</g>
</svg>
