<?xml version="1.0" encoding="UTF-8" standalone="no"?>
<!DOCTYPE svg PUBLIC "-//W3C//DTD SVG 1.1//EN"
 "http://www.w3.org/Graphics/SVG/1.1/DTD/svg11.dtd">
<!-- Generated by graphviz version 2.38.0 (20140413.2041)
 -->
<!-- Title: src/ResourceManager/Font.cpp Pages: 1 -->
<svg width="389pt" height="207pt"
 viewBox="0.00 0.00 389.00 207.00" xmlns="http://www.w3.org/2000/svg" xmlns:xlink="http://www.w3.org/1999/xlink">
<g id="graph0" class="graph" transform="scale(1 1) rotate(0) translate(4 203)">
<title>src/ResourceManager/Font.cpp</title>
<!-- Node1 -->
<g id="node1" class="node"><title>Node1</title>
<polygon fill="#bfbfbf" stroke="black" points="137.5,-168.5 137.5,-198.5 256.5,-198.5 256.5,-168.5 137.5,-168.5"/>
<text text-anchor="start" x="145.5" y="-186.5" font-family="Helvetica,sans-Serif" font-size="10.00">src/ResourceManager</text>
<text text-anchor="middle" x="197" y="-175.5" font-family="Helvetica,sans-Serif" font-size="10.00">/Font.cpp</text>
</g>
<!-- Node2 -->
<g id="node2" class="node"><title>Node2</title>
<g id="a_node2"><a xlink:href="Font_8hpp.html" target="_top" xlink:title="Font.hpp">
<polygon fill="none" stroke="black" points="116.5,-112.5 116.5,-131.5 175.5,-131.5 175.5,-112.5 116.5,-112.5"/>
<text text-anchor="middle" x="146" y="-119.5" font-family="Helvetica,sans-Serif" font-size="10.00">Font.hpp</text>
</a>
</g>
</g>
<!-- Node1&#45;&gt;Node2 -->
<g id="edge1" class="edge"><title>Node1&#45;&gt;Node2</title>
<path fill="none" stroke="midnightblue" d="M184.914,-168.399C177.426,-159.664 167.782,-148.413 159.968,-139.296"/>
<polygon fill="midnightblue" stroke="midnightblue" points="162.586,-136.973 153.421,-131.658 157.271,-141.528 162.586,-136.973"/>
</g>
<!-- Node5 -->
<g id="node5" class="node"><title>Node5</title>
<g id="a_node5"><a xlink:href="ECSExceptions_8hpp.html" target="_top" xlink:title="ECSExceptions.hpp">
<polygon fill="none" stroke="black" points="193.5,-112.5 193.5,-131.5 302.5,-131.5 302.5,-112.5 193.5,-112.5"/>
<text text-anchor="middle" x="248" y="-119.5" font-family="Helvetica,sans-Serif" font-size="10.00">ECSExceptions.hpp</text>
</a>
</g>
</g>
<!-- Node1&#45;&gt;Node5 -->
<g id="edge4" class="edge"><title>Node1&#45;&gt;Node5</title>
<path fill="none" stroke="midnightblue" d="M209.086,-168.399C216.574,-159.664 226.218,-148.413 234.032,-139.296"/>
<polygon fill="midnightblue" stroke="midnightblue" points="236.729,-141.528 240.579,-131.658 231.414,-136.973 236.729,-141.528"/>
</g>
<!-- Node3 -->
<g id="node3" class="node"><title>Node3</title>
<polygon fill="none" stroke="#bfbfbf" points="0,-56.5 0,-75.5 108,-75.5 108,-56.5 0,-56.5"/>
<text text-anchor="middle" x="54" y="-63.5" font-family="Helvetica,sans-Serif" font-size="10.00">SFML/Graphics.hpp</text>
</g>
<!-- Node2&#45;&gt;Node3 -->
<g id="edge2" class="edge"><title>Node2&#45;&gt;Node3</title>
<path fill="none" stroke="midnightblue" d="M131.219,-112.324C116.733,-103.822 94.4269,-90.7288 77.5068,-80.7975"/>
<polygon fill="midnightblue" stroke="midnightblue" points="79.1406,-77.6981 68.7447,-75.6545 75.5972,-83.735 79.1406,-77.6981"/>
</g>
<!-- Node4 -->
<g id="node4" class="node"><title>Node4</title>
<g id="a_node4"><a xlink:href="IFont_8hpp.html" target="_top" xlink:title="IFont.hpp">
<polygon fill="none" stroke="black" points="126.5,-56.5 126.5,-75.5 187.5,-75.5 187.5,-56.5 126.5,-56.5"/>
<text text-anchor="middle" x="157" y="-63.5" font-family="Helvetica,sans-Serif" font-size="10.00">IFont.hpp</text>
</a>
</g>
</g>
<!-- Node2&#45;&gt;Node4 -->
<g id="edge3" class="edge"><title>Node2&#45;&gt;Node4</title>
<path fill="none" stroke="midnightblue" d="M147.816,-112.083C149.274,-104.927 151.371,-94.6353 153.193,-85.6911"/>
<polygon fill="midnightblue" stroke="midnightblue" points="156.651,-86.2485 155.217,-75.7511 149.792,-84.8512 156.651,-86.2485"/>
</g>
<!-- Node6 -->
<g id="node6" class="node"><title>Node6</title>
<polygon fill="none" stroke="#bfbfbf" points="258,-0.5 258,-19.5 302,-19.5 302,-0.5 258,-0.5"/>
<text text-anchor="middle" x="280" y="-7.5" font-family="Helvetica,sans-Serif" font-size="10.00">string</text>
</g>
<!-- Node5&#45;&gt;Node6 -->
<g id="edge5" class="edge"><title>Node5&#45;&gt;Node6</title>
<path fill="none" stroke="midnightblue" d="M248.065,-112.375C248.382,-99.7213 249.831,-75.5138 256,-56 259.069,-46.2914 264.224,-36.2244 268.972,-28.0803"/>
<polygon fill="midnightblue" stroke="midnightblue" points="271.965,-29.8944 274.208,-19.5397 265.997,-26.2356 271.965,-29.8944"/>
</g>
<!-- Node7 -->
<g id="node7" class="node"><title>Node7</title>
<g id="a_node7"><a xlink:href="RTypeExceptions_8hpp.html" target="_top" xlink:title="RTypeExceptions.hpp">
<polygon fill="none" stroke="black" points="265,-56.5 265,-75.5 381,-75.5 381,-56.5 265,-56.5"/>
<text text-anchor="middle" x="323" y="-63.5" font-family="Helvetica,sans-Serif" font-size="10.00">RTypeExceptions.hpp</text>
</a>
</g>
</g>
<!-- Node5&#45;&gt;Node7 -->
<g id="edge6" class="edge"><title>Node5&#45;&gt;Node7</title>
<path fill="none" stroke="midnightblue" d="M260.05,-112.324C271.463,-104.107 288.831,-91.6017 302.435,-81.8069"/>
<polygon fill="midnightblue" stroke="midnightblue" points="304.66,-84.5174 310.731,-75.8339 300.57,-78.8366 304.66,-84.5174"/>
</g>
<!-- Node7&#45;&gt;Node6 -->
<g id="edge7" class="edge"><title>Node7&#45;&gt;Node6</title>
<path fill="none" stroke="midnightblue" d="M315.899,-56.083C309.763,-48.3768 300.73,-37.0333 293.261,-27.6531"/>
<polygon fill="midnightblue" stroke="midnightblue" points="295.936,-25.3936 286.968,-19.7511 290.46,-29.7542 295.936,-25.3936"/>
</g>
</g>
</svg>
