<?xml version="1.0" encoding="UTF-8" standalone="no"?>
<!DOCTYPE svg PUBLIC "-//W3C//DTD SVG 1.1//EN"
 "http://www.w3.org/Graphics/SVG/1.1/DTD/svg11.dtd">
<!-- Generated by graphviz version 2.38.0 (20140413.2041)
 -->
<!-- Title: src/Components/IO/GameController.hpp Pages: 1 -->
<svg width="215pt" height="84pt"
 viewBox="0.00 0.00 215.00 84.00" xmlns="http://www.w3.org/2000/svg" xmlns:xlink="http://www.w3.org/1999/xlink">
<g id="graph0" class="graph" transform="scale(1 1) rotate(0) translate(4 80)">
<title>src/Components/IO/GameController.hpp</title>
<!-- Node1 -->
<g id="node1" class="node"><title>Node1</title>
<polygon fill="#bfbfbf" stroke="black" points="0,-56.5 0,-75.5 207,-75.5 207,-56.5 0,-56.5"/>
<text text-anchor="middle" x="103.5" y="-63.5" font-family="Helvetica,sans-Serif" font-size="10.00">src/Components/IO/GameController.hpp</text>
</g>
<!-- Node2 -->
<g id="node2" class="node"><title>Node2</title>
<polygon fill="none" stroke="#bfbfbf" points="38,-0.5 38,-19.5 101,-19.5 101,-0.5 38,-0.5"/>
<text text-anchor="middle" x="69.5" y="-7.5" font-family="Helvetica,sans-Serif" font-size="10.00">typeindex</text>
</g>
<!-- Node1&#45;&gt;Node2 -->
<g id="edge1" class="edge"><title>Node1&#45;&gt;Node2</title>
<path fill="none" stroke="midnightblue" d="M97.8856,-56.083C93.1326,-48.5341 86.1819,-37.4948 80.3484,-28.2298"/>
<polygon fill="midnightblue" stroke="midnightblue" points="83.2999,-26.3486 75.0099,-19.7511 77.3763,-30.0783 83.2999,-26.3486"/>
</g>
<!-- Node3 -->
<g id="node3" class="node"><title>Node3</title>
<polygon fill="none" stroke="#bfbfbf" points="119.5,-0.5 119.5,-19.5 157.5,-19.5 157.5,-0.5 119.5,-0.5"/>
<text text-anchor="middle" x="138.5" y="-7.5" font-family="Helvetica,sans-Serif" font-size="10.00">map</text>
</g>
<!-- Node1&#45;&gt;Node3 -->
<g id="edge2" class="edge"><title>Node1&#45;&gt;Node3</title>
<path fill="none" stroke="midnightblue" d="M109.28,-56.083C114.172,-48.5341 121.327,-37.4948 127.333,-28.2298"/>
<polygon fill="midnightblue" stroke="midnightblue" points="130.326,-30.0463 132.828,-19.7511 124.452,-26.239 130.326,-30.0463"/>
</g>
</g>
</svg>
