<?xml version="1.0" encoding="UTF-8" standalone="no"?>
<!DOCTYPE svg PUBLIC "-//W3C//DTD SVG 1.1//EN"
 "http://www.w3.org/Graphics/SVG/1.1/DTD/svg11.dtd">
<!-- Generated by graphviz version 2.38.0 (20140413.2041)
 -->
<!-- Title: src/Components/IO/GameController.cpp Pages: 1 -->
<svg width="214pt" height="140pt"
 viewBox="0.00 0.00 214.00 140.00" xmlns="http://www.w3.org/2000/svg" xmlns:xlink="http://www.w3.org/1999/xlink">
<g id="graph0" class="graph" transform="scale(1 1) rotate(0) translate(4 136)">
<title>src/Components/IO/GameController.cpp</title>
<!-- Node1 -->
<g id="node1" class="node"><title>Node1</title>
<polygon fill="#bfbfbf" stroke="black" points="0,-112.5 0,-131.5 206,-131.5 206,-112.5 0,-112.5"/>
<text text-anchor="middle" x="103" y="-119.5" font-family="Helvetica,sans-Serif" font-size="10.00">src/Components/IO/GameController.cpp</text>
</g>
<!-- Node2 -->
<g id="node2" class="node"><title>Node2</title>
<g id="a_node2"><a xlink:href="GameController_8hpp.html" target="_top" xlink:title="GameController.hpp">
<polygon fill="none" stroke="black" points="46.5,-56.5 46.5,-75.5 159.5,-75.5 159.5,-56.5 46.5,-56.5"/>
<text text-anchor="middle" x="103" y="-63.5" font-family="Helvetica,sans-Serif" font-size="10.00">GameController.hpp</text>
</a>
</g>
</g>
<!-- Node1&#45;&gt;Node2 -->
<g id="edge1" class="edge"><title>Node1&#45;&gt;Node2</title>
<path fill="none" stroke="midnightblue" d="M103,-112.083C103,-105.006 103,-94.8611 103,-85.9865"/>
<polygon fill="midnightblue" stroke="midnightblue" points="106.5,-85.751 103,-75.7511 99.5001,-85.7511 106.5,-85.751"/>
</g>
<!-- Node3 -->
<g id="node3" class="node"><title>Node3</title>
<polygon fill="none" stroke="#bfbfbf" points="37.5,-0.5 37.5,-19.5 100.5,-19.5 100.5,-0.5 37.5,-0.5"/>
<text text-anchor="middle" x="69" y="-7.5" font-family="Helvetica,sans-Serif" font-size="10.00">typeindex</text>
</g>
<!-- Node2&#45;&gt;Node3 -->
<g id="edge2" class="edge"><title>Node2&#45;&gt;Node3</title>
<path fill="none" stroke="midnightblue" d="M97.3856,-56.083C92.6326,-48.5341 85.6819,-37.4948 79.8484,-28.2298"/>
<polygon fill="midnightblue" stroke="midnightblue" points="82.7999,-26.3486 74.5099,-19.7511 76.8763,-30.0783 82.7999,-26.3486"/>
</g>
<!-- Node4 -->
<g id="node4" class="node"><title>Node4</title>
<polygon fill="none" stroke="#bfbfbf" points="119,-0.5 119,-19.5 157,-19.5 157,-0.5 119,-0.5"/>
<text text-anchor="middle" x="138" y="-7.5" font-family="Helvetica,sans-Serif" font-size="10.00">map</text>
</g>
<!-- Node2&#45;&gt;Node4 -->
<g id="edge3" class="edge"><title>Node2&#45;&gt;Node4</title>
<path fill="none" stroke="midnightblue" d="M108.78,-56.083C113.672,-48.5341 120.827,-37.4948 126.833,-28.2298"/>
<polygon fill="midnightblue" stroke="midnightblue" points="129.826,-30.0463 132.328,-19.7511 123.952,-26.239 129.826,-30.0463"/>
</g>
</g>
</svg>
