<?xml version="1.0" encoding="UTF-8" standalone="no"?>
<!DOCTYPE svg PUBLIC "-//W3C//DTD SVG 1.1//EN"
 "http://www.w3.org/Graphics/SVG/1.1/DTD/svg11.dtd">
<!-- Generated by graphviz version 2.38.0 (20140413.2041)
 -->
<!-- Title: src/Entities/EntityConstructor/GameBackgroundEntity/GameBackgroundEntity.cpp Pages: 1 -->
<svg width="997pt" height="330pt"
 viewBox="0.00 0.00 997.12 330.00" xmlns="http://www.w3.org/2000/svg" xmlns:xlink="http://www.w3.org/1999/xlink">
<g id="graph0" class="graph" transform="scale(1 1) rotate(0) translate(4 326)">
<title>src/Entities/EntityConstructor/GameBackgroundEntity/GameBackgroundEntity.cpp</title>
<!-- Node1 -->
<g id="node1" class="node"><title>Node1</title>
<polygon fill="#bfbfbf" stroke="black" points="410.656,-280.5 410.656,-321.5 632.656,-321.5 632.656,-280.5 410.656,-280.5"/>
<text text-anchor="start" x="418.656" y="-309.5" font-family="Helvetica,sans-Serif" font-size="10.00">src/Entities/EntityConstructor</text>
<text text-anchor="start" x="418.656" y="-298.5" font-family="Helvetica,sans-Serif" font-size="10.00">/GameBackgroundEntity/GameBackground</text>
<text text-anchor="middle" x="521.656" y="-287.5" font-family="Helvetica,sans-Serif" font-size="10.00">Entity.cpp</text>
</g>
<!-- Node2 -->
<g id="node2" class="node"><title>Node2</title>
<g id="a_node2"><a xlink:href="GameBackgroundEntity_8hpp.html" target="_top" xlink:title="GameBackgroundEntity.hpp">
<polygon fill="none" stroke="black" points="160.156,-224.5 160.156,-243.5 309.156,-243.5 309.156,-224.5 160.156,-224.5"/>
<text text-anchor="middle" x="234.656" y="-231.5" font-family="Helvetica,sans-Serif" font-size="10.00">GameBackgroundEntity.hpp</text>
</a>
</g>
</g>
<!-- Node1&#45;&gt;Node2 -->
<g id="edge1" class="edge"><title>Node1&#45;&gt;Node2</title>
<path fill="none" stroke="midnightblue" d="M435.546,-280.498C385.362,-269.132 323.966,-255.227 282.355,-245.803"/>
<polygon fill="midnightblue" stroke="midnightblue" points="283.009,-242.362 272.483,-243.567 281.462,-249.19 283.009,-242.362"/>
</g>
<!-- Node15 -->
<g id="node15" class="node"><title>Node15</title>
<g id="a_node15"><a xlink:href="Position_8hpp.html" target="_top" xlink:title="Position.hpp">
<polygon fill="none" stroke="black" points="437.156,-224.5 437.156,-243.5 512.156,-243.5 512.156,-224.5 437.156,-224.5"/>
<text text-anchor="middle" x="474.656" y="-231.5" font-family="Helvetica,sans-Serif" font-size="10.00">Position.hpp</text>
</a>
</g>
</g>
<!-- Node1&#45;&gt;Node15 -->
<g id="edge20" class="edge"><title>Node1&#45;&gt;Node15</title>
<path fill="none" stroke="midnightblue" d="M507.554,-280.498C500.972,-271.395 493.211,-260.662 486.881,-251.908"/>
<polygon fill="midnightblue" stroke="midnightblue" points="489.608,-249.705 480.912,-243.652 483.935,-253.807 489.608,-249.705"/>
</g>
<!-- Node18 -->
<g id="node18" class="node"><title>Node18</title>
<g id="a_node18"><a xlink:href="Sprite_8hpp.html" target="_top" xlink:title="Sprite.hpp">
<polygon fill="none" stroke="black" points="599.656,-168.5 599.656,-187.5 665.656,-187.5 665.656,-168.5 599.656,-168.5"/>
<text text-anchor="middle" x="632.656" y="-175.5" font-family="Helvetica,sans-Serif" font-size="10.00">Sprite.hpp</text>
</a>
</g>
</g>
<!-- Node1&#45;&gt;Node18 -->
<g id="edge24" class="edge"><title>Node1&#45;&gt;Node18</title>
<path fill="none" stroke="midnightblue" d="M570.138,-280.399C586.724,-271.523 604.012,-259.487 615.656,-244 625.622,-230.743 629.762,-212.161 631.473,-198.258"/>
<polygon fill="midnightblue" stroke="midnightblue" points="634.994,-198.176 632.413,-187.9 628.023,-197.543 634.994,-198.176"/>
</g>
<!-- Node21 -->
<g id="node21" class="node"><title>Node21</title>
<g id="a_node21"><a xlink:href="Velocity_8hpp.html" target="_top" xlink:title="Velocity.hpp">
<polygon fill="none" stroke="black" points="346.156,-224.5 346.156,-243.5 419.156,-243.5 419.156,-224.5 346.156,-224.5"/>
<text text-anchor="middle" x="382.656" y="-231.5" font-family="Helvetica,sans-Serif" font-size="10.00">Velocity.hpp</text>
</a>
</g>
</g>
<!-- Node1&#45;&gt;Node21 -->
<g id="edge31" class="edge"><title>Node1&#45;&gt;Node21</title>
<path fill="none" stroke="midnightblue" d="M479.951,-280.498C457.41,-269.957 430.199,-257.233 410.292,-247.923"/>
<polygon fill="midnightblue" stroke="midnightblue" points="411.7,-244.718 401.159,-243.652 408.735,-251.059 411.7,-244.718"/>
</g>
<!-- Node23 -->
<g id="node23" class="node"><title>Node23</title>
<g id="a_node23"><a xlink:href="Rotation_8hpp.html" target="_top" xlink:title="Rotation.hpp">
<polygon fill="none" stroke="black" points="530.156,-224.5 530.156,-243.5 607.156,-243.5 607.156,-224.5 530.156,-224.5"/>
<text text-anchor="middle" x="568.656" y="-231.5" font-family="Helvetica,sans-Serif" font-size="10.00">Rotation.hpp</text>
</a>
</g>
</g>
<!-- Node1&#45;&gt;Node23 -->
<g id="edge34" class="edge"><title>Node1&#45;&gt;Node23</title>
<path fill="none" stroke="midnightblue" d="M535.757,-280.498C542.34,-271.395 550.1,-260.662 556.43,-251.908"/>
<polygon fill="midnightblue" stroke="midnightblue" points="559.376,-253.807 562.399,-243.652 553.703,-249.705 559.376,-253.807"/>
</g>
<!-- Node24 -->
<g id="node24" class="node"><title>Node24</title>
<g id="a_node24"><a xlink:href="Animator_8hpp.html" target="_top" xlink:title="Animator.hpp">
<polygon fill="none" stroke="black" points="691.156,-224.5 691.156,-243.5 772.156,-243.5 772.156,-224.5 691.156,-224.5"/>
<text text-anchor="middle" x="731.656" y="-231.5" font-family="Helvetica,sans-Serif" font-size="10.00">Animator.hpp</text>
</a>
</g>
</g>
<!-- Node1&#45;&gt;Node24 -->
<g id="edge36" class="edge"><title>Node1&#45;&gt;Node24</title>
<path fill="none" stroke="midnightblue" d="M584.663,-280.498C620.373,-269.444 663.843,-255.99 694.211,-246.59"/>
<polygon fill="midnightblue" stroke="midnightblue" points="695.459,-249.867 703.977,-243.567 693.39,-243.18 695.459,-249.867"/>
</g>
<!-- Node3 -->
<g id="node3" class="node"><title>Node3</title>
<g id="a_node3"><a xlink:href="IEntityConstructor_8hpp.html" target="_top" xlink:title="IEntityConstructor.hpp">
<polygon fill="none" stroke="black" points="163.656,-168.5 163.656,-187.5 285.656,-187.5 285.656,-168.5 163.656,-168.5"/>
<text text-anchor="middle" x="224.656" y="-175.5" font-family="Helvetica,sans-Serif" font-size="10.00">IEntityConstructor.hpp</text>
</a>
</g>
</g>
<!-- Node2&#45;&gt;Node3 -->
<g id="edge2" class="edge"><title>Node2&#45;&gt;Node3</title>
<path fill="none" stroke="midnightblue" d="M233.004,-224.083C231.679,-216.927 229.773,-206.635 228.117,-197.691"/>
<polygon fill="midnightblue" stroke="midnightblue" points="231.539,-196.947 226.276,-187.751 224.656,-198.221 231.539,-196.947"/>
</g>
<!-- Node4 -->
<g id="node4" class="node"><title>Node4</title>
<polygon fill="none" stroke="#bfbfbf" points="206.156,-56.5 206.156,-75.5 263.156,-75.5 263.156,-56.5 206.156,-56.5"/>
<text text-anchor="middle" x="234.656" y="-63.5" font-family="Helvetica,sans-Serif" font-size="10.00">memory</text>
</g>
<!-- Node3&#45;&gt;Node4 -->
<g id="edge3" class="edge"><title>Node3&#45;&gt;Node4</title>
<path fill="none" stroke="midnightblue" d="M225.44,-168.368C227.054,-150.617 230.777,-109.666 232.965,-85.5974"/>
<polygon fill="midnightblue" stroke="midnightblue" points="236.455,-85.8673 233.875,-75.5914 229.483,-85.2334 236.455,-85.8673"/>
</g>
<!-- Node5 -->
<g id="node5" class="node"><title>Node5</title>
<polygon fill="none" stroke="#bfbfbf" points="60.6556,-0.5 60.6556,-19.5 104.656,-19.5 104.656,-0.5 60.6556,-0.5"/>
<text text-anchor="middle" x="82.6556" y="-7.5" font-family="Helvetica,sans-Serif" font-size="10.00">string</text>
</g>
<!-- Node3&#45;&gt;Node5 -->
<g id="edge4" class="edge"><title>Node3&#45;&gt;Node5</title>
<path fill="none" stroke="midnightblue" d="M163.628,-170.434C108.173,-160.644 30.8535,-136.319 2.6556,-76 -9.22379,-50.5885 23.4378,-31.9266 50.5488,-21.2758"/>
<polygon fill="midnightblue" stroke="midnightblue" points="52.0235,-24.4624 60.1932,-17.7166 49.5999,-17.8953 52.0235,-24.4624"/>
</g>
<!-- Node6 -->
<g id="node6" class="node"><title>Node6</title>
<g id="a_node6"><a xlink:href="Entity_8hpp.html" target="_top" xlink:title="Entity.hpp">
<polygon fill="none" stroke="black" points="281.156,-56.5 281.156,-75.5 344.156,-75.5 344.156,-56.5 281.156,-56.5"/>
<text text-anchor="middle" x="312.656" y="-63.5" font-family="Helvetica,sans-Serif" font-size="10.00">Entity.hpp</text>
</a>
</g>
</g>
<!-- Node3&#45;&gt;Node6 -->
<g id="edge5" class="edge"><title>Node3&#45;&gt;Node6</title>
<path fill="none" stroke="midnightblue" d="M230.443,-168.358C239.032,-155.684 255.846,-131.452 271.656,-112 279.738,-102.056 289.362,-91.4364 297.254,-83.0125"/>
<polygon fill="midnightblue" stroke="midnightblue" points="299.844,-85.3678 304.183,-75.7022 294.763,-80.5524 299.844,-85.3678"/>
</g>
<!-- Node7 -->
<g id="node7" class="node"><title>Node7</title>
<g id="a_node7"><a xlink:href="IEntityManager_8hpp.html" target="_top" xlink:title="IEntityManager.hpp">
<polygon fill="none" stroke="black" points="78.6556,-112.5 78.6556,-131.5 186.656,-131.5 186.656,-112.5 78.6556,-112.5"/>
<text text-anchor="middle" x="132.656" y="-119.5" font-family="Helvetica,sans-Serif" font-size="10.00">IEntityManager.hpp</text>
</a>
</g>
</g>
<!-- Node3&#45;&gt;Node7 -->
<g id="edge6" class="edge"><title>Node3&#45;&gt;Node7</title>
<path fill="none" stroke="midnightblue" d="M209.874,-168.324C195.389,-159.822 173.083,-146.729 156.162,-136.797"/>
<polygon fill="midnightblue" stroke="midnightblue" points="157.796,-133.698 147.4,-131.655 154.253,-139.735 157.796,-133.698"/>
</g>
<!-- Node12 -->
<g id="node12" class="node"><title>Node12</title>
<g id="a_node12"><a xlink:href="IComponentManager_8hpp.html" target="_top" xlink:title="IComponentManager.hpp">
<polygon fill="none" stroke="black" points="281.156,-112.5 281.156,-131.5 418.156,-131.5 418.156,-112.5 281.156,-112.5"/>
<text text-anchor="middle" x="349.656" y="-119.5" font-family="Helvetica,sans-Serif" font-size="10.00">IComponentManager.hpp</text>
</a>
</g>
</g>
<!-- Node3&#45;&gt;Node12 -->
<g id="edge14" class="edge"><title>Node3&#45;&gt;Node12</title>
<path fill="none" stroke="midnightblue" d="M244.462,-168.444C264.942,-159.596 297.138,-145.687 320.52,-135.586"/>
<polygon fill="midnightblue" stroke="midnightblue" points="322.15,-138.695 329.942,-131.516 319.374,-132.269 322.15,-138.695"/>
</g>
<!-- Node7&#45;&gt;Node4 -->
<g id="edge7" class="edge"><title>Node7&#45;&gt;Node4</title>
<path fill="none" stroke="midnightblue" d="M149.044,-112.324C165.327,-103.703 190.523,-90.3643 209.372,-80.3855"/>
<polygon fill="midnightblue" stroke="midnightblue" points="211.108,-83.4267 218.308,-75.6545 207.833,-77.2402 211.108,-83.4267"/>
</g>
<!-- Node7&#45;&gt;Node6 -->
<g id="edge9" class="edge"><title>Node7&#45;&gt;Node6</title>
<path fill="none" stroke="midnightblue" d="M161.177,-112.444C191.722,-103.28 240.364,-88.6876 274.258,-78.5192"/>
<polygon fill="midnightblue" stroke="midnightblue" points="275.695,-81.7424 284.268,-75.5164 273.683,-75.0376 275.695,-81.7424"/>
</g>
<!-- Node8 -->
<g id="node8" class="node"><title>Node8</title>
<polygon fill="none" stroke="#bfbfbf" points="12.1556,-56.5 12.1556,-75.5 59.1556,-75.5 59.1556,-56.5 12.1556,-56.5"/>
<text text-anchor="middle" x="35.6556" y="-63.5" font-family="Helvetica,sans-Serif" font-size="10.00">vector</text>
</g>
<!-- Node7&#45;&gt;Node8 -->
<g id="edge8" class="edge"><title>Node7&#45;&gt;Node8</title>
<path fill="none" stroke="midnightblue" d="M117.071,-112.324C101.657,-103.743 77.8434,-90.486 59.9459,-80.5224"/>
<polygon fill="midnightblue" stroke="midnightblue" points="61.6414,-77.4606 51.2017,-75.6545 58.2365,-83.5767 61.6414,-77.4606"/>
</g>
<!-- Node9 -->
<g id="node9" class="node"><title>Node9</title>
<g id="a_node9"><a xlink:href="PacketManager_8hpp.html" target="_top" xlink:title="PacketManager.hpp">
<polygon fill="none" stroke="black" points="77.6556,-56.5 77.6556,-75.5 187.656,-75.5 187.656,-56.5 77.6556,-56.5"/>
<text text-anchor="middle" x="132.656" y="-63.5" font-family="Helvetica,sans-Serif" font-size="10.00">PacketManager.hpp</text>
</a>
</g>
</g>
<!-- Node7&#45;&gt;Node9 -->
<g id="edge10" class="edge"><title>Node7&#45;&gt;Node9</title>
<path fill="none" stroke="midnightblue" d="M132.656,-112.083C132.656,-105.006 132.656,-94.8611 132.656,-85.9865"/>
<polygon fill="midnightblue" stroke="midnightblue" points="136.156,-85.751 132.656,-75.7511 129.156,-85.7511 136.156,-85.751"/>
</g>
<!-- Node9&#45;&gt;Node5 -->
<g id="edge11" class="edge"><title>Node9&#45;&gt;Node5</title>
<path fill="none" stroke="midnightblue" d="M124.399,-56.083C117.191,-48.2982 106.546,-36.8015 97.8098,-27.3665"/>
<polygon fill="midnightblue" stroke="midnightblue" points="100.121,-24.7108 90.7584,-19.7511 94.9844,-29.4666 100.121,-24.7108"/>
</g>
<!-- Node10 -->
<g id="node10" class="node"><title>Node10</title>
<polygon fill="none" stroke="#bfbfbf" points="278.656,-0.5 278.656,-19.5 308.656,-19.5 308.656,-0.5 278.656,-0.5"/>
<text text-anchor="middle" x="293.656" y="-7.5" font-family="Helvetica,sans-Serif" font-size="10.00">list</text>
</g>
<!-- Node9&#45;&gt;Node10 -->
<g id="edge12" class="edge"><title>Node9&#45;&gt;Node10</title>
<path fill="none" stroke="midnightblue" d="M158.167,-56.4435C188.465,-46.2813 238.672,-29.4419 268.717,-19.3646"/>
<polygon fill="midnightblue" stroke="midnightblue" points="270.07,-22.6025 278.438,-16.1041 267.844,-15.9658 270.07,-22.6025"/>
</g>
<!-- Node11 -->
<g id="node11" class="node"><title>Node11</title>
<g id="a_node11"><a xlink:href="Input_8hpp.html" target="_top" xlink:title="Render/Input.hpp">
<polygon fill="none" stroke="black" points="122.656,-0.5 122.656,-19.5 220.656,-19.5 220.656,-0.5 122.656,-0.5"/>
<text text-anchor="middle" x="171.656" y="-7.5" font-family="Helvetica,sans-Serif" font-size="10.00">Render/Input.hpp</text>
</a>
</g>
</g>
<!-- Node9&#45;&gt;Node11 -->
<g id="edge13" class="edge"><title>Node9&#45;&gt;Node11</title>
<path fill="none" stroke="midnightblue" d="M139.096,-56.083C144.604,-48.4554 152.687,-37.2645 159.421,-27.9408"/>
<polygon fill="midnightblue" stroke="midnightblue" points="162.318,-29.9071 165.335,-19.7511 156.643,-25.8087 162.318,-29.9071"/>
</g>
<!-- Node12&#45;&gt;Node4 -->
<g id="edge16" class="edge"><title>Node12&#45;&gt;Node4</title>
<path fill="none" stroke="midnightblue" d="M331.434,-112.444C312.76,-103.675 283.5,-89.9355 262.038,-79.8579"/>
<polygon fill="midnightblue" stroke="midnightblue" points="263.332,-76.5988 252.792,-75.5164 260.357,-82.935 263.332,-76.5988"/>
</g>
<!-- Node12&#45;&gt;Node6 -->
<g id="edge19" class="edge"><title>Node12&#45;&gt;Node6</title>
<path fill="none" stroke="midnightblue" d="M343.546,-112.083C338.373,-104.534 330.809,-93.4948 324.461,-84.2298"/>
<polygon fill="midnightblue" stroke="midnightblue" points="327.191,-82.0221 318.652,-75.7511 321.417,-85.9787 327.191,-82.0221"/>
</g>
<!-- Node12&#45;&gt;Node10 -->
<g id="edge15" class="edge"><title>Node12&#45;&gt;Node10</title>
<path fill="none" stroke="midnightblue" d="M352.549,-112.465C356.412,-99.5059 361.776,-74.4265 352.656,-56 345.344,-41.228 330.604,-29.9813 317.686,-22.426"/>
<polygon fill="midnightblue" stroke="midnightblue" points="319.195,-19.2629 308.735,-17.5793 315.862,-25.4185 319.195,-19.2629"/>
</g>
<!-- Node13 -->
<g id="node13" class="node"><title>Node13</title>
<g id="a_node13"><a xlink:href="IComponent_8hpp.html" target="_top" xlink:title="IComponent.hpp">
<polygon fill="none" stroke="black" points="567.656,-56.5 567.656,-75.5 663.656,-75.5 663.656,-56.5 567.656,-56.5"/>
<text text-anchor="middle" x="615.656" y="-63.5" font-family="Helvetica,sans-Serif" font-size="10.00">IComponent.hpp</text>
</a>
</g>
</g>
<!-- Node12&#45;&gt;Node13 -->
<g id="edge17" class="edge"><title>Node12&#45;&gt;Node13</title>
<path fill="none" stroke="midnightblue" d="M391.804,-112.444C438.402,-102.984 513.5,-87.7384 563.701,-77.5472"/>
<polygon fill="midnightblue" stroke="midnightblue" points="564.601,-80.936 573.704,-75.5164 563.208,-74.076 564.601,-80.936"/>
</g>
<!-- Node14 -->
<g id="node14" class="node"><title>Node14</title>
<polygon fill="none" stroke="#bfbfbf" points="750.156,-0.5 750.156,-19.5 813.156,-19.5 813.156,-0.5 750.156,-0.5"/>
<text text-anchor="middle" x="781.656" y="-7.5" font-family="Helvetica,sans-Serif" font-size="10.00">typeindex</text>
</g>
<!-- Node13&#45;&gt;Node14 -->
<g id="edge18" class="edge"><title>Node13&#45;&gt;Node14</title>
<path fill="none" stroke="midnightblue" d="M641.959,-56.4435C670.006,-47.3196 714.6,-32.8133 745.84,-22.6509"/>
<polygon fill="midnightblue" stroke="midnightblue" points="747.049,-25.9383 755.475,-19.5164 744.883,-19.2816 747.049,-25.9383"/>
</g>
<!-- Node16 -->
<g id="node16" class="node"><title>Node16</title>
<polygon fill="none" stroke="#bfbfbf" points="498.656,-168.5 498.656,-187.5 540.656,-187.5 540.656,-168.5 498.656,-168.5"/>
<text text-anchor="middle" x="519.656" y="-175.5" font-family="Helvetica,sans-Serif" font-size="10.00">utility</text>
</g>
<!-- Node15&#45;&gt;Node16 -->
<g id="edge21" class="edge"><title>Node15&#45;&gt;Node16</title>
<path fill="none" stroke="midnightblue" d="M482.086,-224.083C488.508,-216.377 497.961,-205.033 505.778,-195.653"/>
<polygon fill="midnightblue" stroke="midnightblue" points="508.65,-197.674 512.363,-187.751 503.272,-193.193 508.65,-197.674"/>
</g>
<!-- Node17 -->
<g id="node17" class="node"><title>Node17</title>
<g id="a_node17"><a xlink:href="IPhysics_8hpp.html" target="_top" xlink:title="IPhysics.hpp">
<polygon fill="none" stroke="black" points="436.156,-112.5 436.156,-131.5 511.156,-131.5 511.156,-112.5 436.156,-112.5"/>
<text text-anchor="middle" x="473.656" y="-119.5" font-family="Helvetica,sans-Serif" font-size="10.00">IPhysics.hpp</text>
</a>
</g>
</g>
<!-- Node15&#45;&gt;Node17 -->
<g id="edge22" class="edge"><title>Node15&#45;&gt;Node17</title>
<path fill="none" stroke="midnightblue" d="M474.577,-224.368C474.416,-206.617 474.043,-165.666 473.825,-141.597"/>
<polygon fill="midnightblue" stroke="midnightblue" points="477.325,-141.559 473.734,-131.591 470.325,-141.623 477.325,-141.559"/>
</g>
<!-- Node17&#45;&gt;Node13 -->
<g id="edge23" class="edge"><title>Node17&#45;&gt;Node13</title>
<path fill="none" stroke="midnightblue" d="M496.156,-112.444C519.733,-103.478 556.978,-89.314 583.62,-79.1827"/>
<polygon fill="midnightblue" stroke="midnightblue" points="585.158,-82.3424 593.261,-75.5164 582.669,-75.7995 585.158,-82.3424"/>
</g>
<!-- Node18&#45;&gt;Node5 -->
<g id="edge25" class="edge"><title>Node18&#45;&gt;Node5</title>
<path fill="none" stroke="midnightblue" d="M619.544,-168.303C598.94,-154.906 557.426,-128.993 519.656,-112 448.264,-79.8807 428.76,-74.344 352.656,-56 251.285,-31.5661 220.381,-42.3433 114.693,-19.9655"/>
<polygon fill="midnightblue" stroke="midnightblue" points="115.43,-16.544 104.916,-17.8468 113.948,-23.3852 115.43,-16.544"/>
</g>
<!-- Node18&#45;&gt;Node14 -->
<g id="edge26" class="edge"><title>Node18&#45;&gt;Node14</title>
<path fill="none" stroke="midnightblue" d="M621.738,-168.403C607.081,-155.785 584.239,-131.621 596.656,-112 616.642,-80.4172 639.742,-93.7092 672.656,-76 687.758,-67.874 690.943,-64.8135 705.656,-56 723.303,-45.4283 743.326,-33.5786 758.388,-24.6936"/>
<polygon fill="midnightblue" stroke="midnightblue" points="760.222,-27.6754 767.059,-19.5825 756.667,-21.6449 760.222,-27.6754"/>
</g>
<!-- Node19 -->
<g id="node19" class="node"><title>Node19</title>
<g id="a_node19"><a xlink:href="Rect_8hpp.html" target="_top" xlink:title="Rect.hpp">
<polygon fill="none" stroke="black" points="697.656,-112.5 697.656,-131.5 755.656,-131.5 755.656,-112.5 697.656,-112.5"/>
<text text-anchor="middle" x="726.656" y="-119.5" font-family="Helvetica,sans-Serif" font-size="10.00">Rect.hpp</text>
</a>
</g>
</g>
<!-- Node18&#45;&gt;Node19 -->
<g id="edge27" class="edge"><title>Node18&#45;&gt;Node19</title>
<path fill="none" stroke="midnightblue" d="M647.758,-168.324C662.559,-159.822 685.35,-146.729 702.638,-136.797"/>
<polygon fill="midnightblue" stroke="midnightblue" points="704.663,-139.671 711.59,-131.655 701.176,-133.601 704.663,-139.671"/>
</g>
<!-- Node20 -->
<g id="node20" class="node"><title>Node20</title>
<g id="a_node20"><a xlink:href="IDisplay_8hpp.html" target="_top" xlink:title="IDisplay.hpp">
<polygon fill="none" stroke="black" points="606.156,-112.5 606.156,-131.5 679.156,-131.5 679.156,-112.5 606.156,-112.5"/>
<text text-anchor="middle" x="642.656" y="-119.5" font-family="Helvetica,sans-Serif" font-size="10.00">IDisplay.hpp</text>
</a>
</g>
</g>
<!-- Node18&#45;&gt;Node20 -->
<g id="edge28" class="edge"><title>Node18&#45;&gt;Node20</title>
<path fill="none" stroke="midnightblue" d="M634.307,-168.083C635.632,-160.927 637.538,-150.635 639.194,-141.691"/>
<polygon fill="midnightblue" stroke="midnightblue" points="642.656,-142.221 641.035,-131.751 635.773,-140.947 642.656,-142.221"/>
</g>
<!-- Node20&#45;&gt;Node13 -->
<g id="edge30" class="edge"><title>Node20&#45;&gt;Node13</title>
<path fill="none" stroke="midnightblue" d="M638.197,-112.083C634.501,-104.691 629.132,-93.9533 624.561,-84.8111"/>
<polygon fill="midnightblue" stroke="midnightblue" points="627.634,-83.1301 620.031,-75.7511 621.373,-86.2606 627.634,-83.1301"/>
</g>
<!-- Node20&#45;&gt;Node14 -->
<g id="edge29" class="edge"><title>Node20&#45;&gt;Node14</title>
<path fill="none" stroke="midnightblue" d="M655.444,-112.352C668.343,-103.517 688.718,-89.2517 705.656,-76 726.423,-59.752 749.299,-39.9053 764.471,-26.4484"/>
<polygon fill="midnightblue" stroke="midnightblue" points="766.912,-28.9613 772.046,-19.6932 762.253,-23.737 766.912,-28.9613"/>
</g>
<!-- Node22 -->
<g id="node22" class="node"><title>Node22</title>
<g id="a_node22"><a xlink:href="Motion_8hpp.html" target="_top" xlink:title="Motion.hpp">
<polygon fill="none" stroke="black" points="359.656,-168.5 359.656,-187.5 429.656,-187.5 429.656,-168.5 359.656,-168.5"/>
<text text-anchor="middle" x="394.656" y="-175.5" font-family="Helvetica,sans-Serif" font-size="10.00">Motion.hpp</text>
</a>
</g>
</g>
<!-- Node21&#45;&gt;Node22 -->
<g id="edge32" class="edge"><title>Node21&#45;&gt;Node22</title>
<path fill="none" stroke="midnightblue" d="M384.637,-224.083C386.227,-216.927 388.514,-206.635 390.502,-197.691"/>
<polygon fill="midnightblue" stroke="midnightblue" points="393.958,-198.272 392.711,-187.751 387.125,-196.754 393.958,-198.272"/>
</g>
<!-- Node22&#45;&gt;Node17 -->
<g id="edge33" class="edge"><title>Node22&#45;&gt;Node17</title>
<path fill="none" stroke="midnightblue" d="M407.348,-168.324C419.557,-159.979 438.234,-147.212 452.659,-137.352"/>
<polygon fill="midnightblue" stroke="midnightblue" points="454.714,-140.187 460.994,-131.655 450.764,-134.408 454.714,-140.187"/>
</g>
<!-- Node23&#45;&gt;Node17 -->
<g id="edge35" class="edge"><title>Node23&#45;&gt;Node17</title>
<path fill="none" stroke="midnightblue" d="M568.101,-224.083C566.846,-210.623 562.78,-184.9 549.656,-168 538.7,-153.893 521.98,-143.307 507.008,-135.958"/>
<polygon fill="midnightblue" stroke="midnightblue" points="508.049,-132.585 497.501,-131.592 505.128,-138.946 508.049,-132.585"/>
</g>
<!-- Node24&#45;&gt;Node14 -->
<g id="edge37" class="edge"><title>Node24&#45;&gt;Node14</title>
<path fill="none" stroke="midnightblue" d="M772.337,-231.455C832.471,-226.624 942.317,-207.374 982.656,-132 1018.94,-64.1964 892.37,-30.5892 823.427,-17.6184"/>
<polygon fill="midnightblue" stroke="midnightblue" points="823.759,-14.1216 813.295,-15.7822 822.511,-21.0094 823.759,-14.1216"/>
</g>
<!-- Node24&#45;&gt;Node19 -->
<g id="edge45" class="edge"><title>Node24&#45;&gt;Node19</title>
<path fill="none" stroke="midnightblue" d="M731.263,-224.368C730.456,-206.617 728.595,-165.666 727.501,-141.597"/>
<polygon fill="midnightblue" stroke="midnightblue" points="730.997,-141.422 727.046,-131.591 724.004,-141.74 730.997,-141.422"/>
</g>
<!-- Node24&#45;&gt;Node20 -->
<g id="edge38" class="edge"><title>Node24&#45;&gt;Node20</title>
<path fill="none" stroke="midnightblue" d="M724.672,-224.368C709.919,-206.135 675.364,-163.426 656.147,-139.675"/>
<polygon fill="midnightblue" stroke="midnightblue" points="658.618,-137.164 649.607,-131.591 653.176,-141.567 658.618,-137.164"/>
</g>
<!-- Node25 -->
<g id="node25" class="node"><title>Node25</title>
<g id="a_node25"><a xlink:href="Timer_8hpp.html" target="_top" xlink:title="Timer.hpp">
<polygon fill="none" stroke="black" points="825.656,-168.5 825.656,-187.5 889.656,-187.5 889.656,-168.5 825.656,-168.5"/>
<text text-anchor="middle" x="857.656" y="-175.5" font-family="Helvetica,sans-Serif" font-size="10.00">Timer.hpp</text>
</a>
</g>
</g>
<!-- Node24&#45;&gt;Node25 -->
<g id="edge39" class="edge"><title>Node24&#45;&gt;Node25</title>
<path fill="none" stroke="midnightblue" d="M751.621,-224.444C772.265,-215.596 804.718,-201.687 828.287,-191.586"/>
<polygon fill="midnightblue" stroke="midnightblue" points="829.971,-194.673 837.784,-187.516 827.214,-188.239 829.971,-194.673"/>
</g>
<!-- Node25&#45;&gt;Node14 -->
<g id="edge41" class="edge"><title>Node25&#45;&gt;Node14</title>
<path fill="none" stroke="midnightblue" d="M863.747,-168.417C871.893,-155.816 884.454,-131.673 876.656,-112 861.868,-74.6944 826.055,-43.1463 802.871,-25.6764"/>
<polygon fill="midnightblue" stroke="midnightblue" points="804.813,-22.7607 794.673,-19.6876 800.683,-28.413 804.813,-22.7607"/>
</g>
<!-- Node26 -->
<g id="node26" class="node"><title>Node26</title>
<polygon fill="none" stroke="#bfbfbf" points="923.656,-112.5 923.656,-131.5 973.656,-131.5 973.656,-112.5 923.656,-112.5"/>
<text text-anchor="middle" x="948.656" y="-119.5" font-family="Helvetica,sans-Serif" font-size="10.00">chrono</text>
</g>
<!-- Node25&#45;&gt;Node26 -->
<g id="edge40" class="edge"><title>Node25&#45;&gt;Node26</title>
<path fill="none" stroke="midnightblue" d="M872.276,-168.324C886.605,-159.822 908.668,-146.729 925.404,-136.797"/>
<polygon fill="midnightblue" stroke="midnightblue" points="927.257,-139.768 934.071,-131.655 923.685,-133.748 927.257,-139.768"/>
</g>
<!-- Node27 -->
<g id="node27" class="node"><title>Node27</title>
<g id="a_node27"><a xlink:href="IGameLogic_8hpp.html" target="_top" xlink:title="IGameLogic.hpp">
<polygon fill="none" stroke="black" points="773.656,-112.5 773.656,-131.5 867.656,-131.5 867.656,-112.5 773.656,-112.5"/>
<text text-anchor="middle" x="820.656" y="-119.5" font-family="Helvetica,sans-Serif" font-size="10.00">IGameLogic.hpp</text>
</a>
</g>
</g>
<!-- Node25&#45;&gt;Node27 -->
<g id="edge42" class="edge"><title>Node25&#45;&gt;Node27</title>
<path fill="none" stroke="midnightblue" d="M851.546,-168.083C846.373,-160.534 838.809,-149.495 832.461,-140.23"/>
<polygon fill="midnightblue" stroke="midnightblue" points="835.191,-138.022 826.652,-131.751 829.417,-141.979 835.191,-138.022"/>
</g>
<!-- Node27&#45;&gt;Node13 -->
<g id="edge44" class="edge"><title>Node27&#45;&gt;Node13</title>
<path fill="none" stroke="midnightblue" d="M788.173,-112.444C752.936,-103.162 696.552,-88.3093 657.897,-78.127"/>
<polygon fill="midnightblue" stroke="midnightblue" points="658.548,-74.6792 647.986,-75.5164 656.765,-81.4483 658.548,-74.6792"/>
</g>
<!-- Node27&#45;&gt;Node14 -->
<g id="edge43" class="edge"><title>Node27&#45;&gt;Node14</title>
<path fill="none" stroke="midnightblue" d="M817.595,-112.368C811.273,-94.5366 796.651,-53.2953 788.134,-29.2717"/>
<polygon fill="midnightblue" stroke="midnightblue" points="791.342,-27.847 784.702,-19.5914 784.745,-30.1862 791.342,-27.847"/>
</g>
</g>
</svg>
