<?xml version="1.0" encoding="UTF-8" standalone="no"?>
<!DOCTYPE svg PUBLIC "-//W3C//DTD SVG 1.1//EN"
 "http://www.w3.org/Graphics/SVG/1.1/DTD/svg11.dtd">
<!-- Generated by graphviz version 2.38.0 (20140413.2041)
 -->
<!-- Title: src/Components/GameLogic/Health.hpp Pages: 1 -->
<!--zoomable 117 -->
<svg id="main" version="1.1" xmlns="http://www.w3.org/2000/svg" xmlns:xlink="http://www.w3.org/1999/xlink" xml:space="preserve" onload="init(evt)">
<style type="text/css"><![CDATA[
.edge:hover path { stroke: red; }
.edge:hover polygon { stroke: red; fill: red; }
]]></style>
<script type="text/javascript"><![CDATA[
var edges = document.getElementsByTagName('g');
if (edges && edges.length) {
  for (var i=0;i<edges.length;i++) {
    if (edges[i].id.substr(0,4)=='edge') {
      edges[i].setAttribute('class','edge');
    }
  }
}
]]></script>
        <defs>
                <circle id="rim" cx="0" cy="0" r="7"/>
                <circle id="rim2" cx="0" cy="0" r="3.5"/>
                <g id="zoomPlus">
                        <use xlink:href="#rim" fill="#404040">
                                <set attributeName="fill" to="#808080" begin="zoomplus.mouseover" end="zoomplus.mouseout"/>
                        </use>
                        <path d="M-4,0h8M0,-4v8" fill="none" stroke="white" stroke-width="1.5" pointer-events="none"/>
                </g>
                <g id="zoomMin">
                        <use xlink:href="#rim" fill="#404040">
                                <set attributeName="fill" to="#808080" begin="zoomminus.mouseover" end="zoomminus.mouseout"/>
                        </use>
                        <path d="M-4,0h8" fill="none" stroke="white" stroke-width="1.5" pointer-events="none"/>
                </g>
                <g id="dirArrow">
                        <path fill="none" stroke="white" stroke-width="1.5" d="M0,-3.0v7 M-2.5,-0.5L0,-3.0L2.5,-0.5"/>
                </g>
               <g id="resetDef">
                       <use xlink:href="#rim2" fill="#404040">
                               <set attributeName="fill" to="#808080" begin="reset.mouseover" end="reset.mouseout"/>
                       </use>
               </g>
        </defs>

<script type="text/javascript">
var viewWidth = 2164;
var viewHeight = 117;
var sectionId = 'dynsection-1';
</script>
<script xlink:href="svgpan.js"/>
<svg id="graph" class="graph">
<g id="viewport">
<title>src/Components/GameLogic/Health.hpp</title>
<!-- Node1 -->
<g id="node1" class="node"><title>Node1</title>
<polygon fill="#bfbfbf" stroke="black" points="981,-78.5 981,-108.5 1133,-108.5 1133,-78.5 981,-78.5"/>
<text text-anchor="start" x="989" y="-96.5" font-family="Helvetica,sans-Serif" font-size="10.00">src/Components/GameLogic</text>
<text text-anchor="middle" x="1057" y="-85.5" font-family="Helvetica,sans-Serif" font-size="10.00">/Health.hpp</text>
</g>
<!-- Node2 -->
<g id="node2" class="node"><title>Node2</title>
<g id="a_node2"><a xlink:href="Health_8cpp.html" target="_top" xlink:title="src/Components/GameLogic\l/Health.cpp">
<polygon fill="none" stroke="black" points="0,-6 0,-36 152,-36 152,-6 0,-6"/>
<text text-anchor="start" x="8" y="-24" font-family="Helvetica,sans-Serif" font-size="10.00">src/Components/GameLogic</text>
<text text-anchor="middle" x="76" y="-13" font-family="Helvetica,sans-Serif" font-size="10.00">/Health.cpp</text>
</a>
</g>
</g>
<!-- Node1&#45;&gt;Node2 -->
<g id="edge1" class="edge"><title>Node1&#45;&gt;Node2</title>
<path fill="none" stroke="midnightblue" d="M970.45,-92.6306C809.98,-91.7645 455.789,-84.6541 161,-42 150.647,-40.5021 139.701,-38.3587 129.232,-36.0266"/>
<polygon fill="midnightblue" stroke="midnightblue" points="970.721,-96.1318 980.737,-92.6789 970.754,-89.1319 970.721,-96.1318"/>
</g>
<!-- Node3 -->
<g id="node3" class="node"><title>Node3</title>
<g id="a_node3"><a xlink:href="EnemyEntity_8cpp.html" target="_top" xlink:title="src/Entities/EntityConstructor\l/EnemyEntity/EnemyEntity.cpp">
<polygon fill="none" stroke="black" points="170.5,-6 170.5,-36 331.5,-36 331.5,-6 170.5,-6"/>
<text text-anchor="start" x="178.5" y="-24" font-family="Helvetica,sans-Serif" font-size="10.00">src/Entities/EntityConstructor</text>
<text text-anchor="middle" x="251" y="-13" font-family="Helvetica,sans-Serif" font-size="10.00">/EnemyEntity/EnemyEntity.cpp</text>
</a>
</g>
</g>
<!-- Node1&#45;&gt;Node3 -->
<g id="edge2" class="edge"><title>Node1&#45;&gt;Node3</title>
<path fill="none" stroke="midnightblue" d="M970.693,-90.6163C835.554,-86.7249 566.072,-75.1695 340,-42 329.502,-40.4597 318.403,-38.3557 307.736,-36.0886"/>
<polygon fill="midnightblue" stroke="midnightblue" points="970.884,-94.123 980.978,-90.9051 971.08,-87.1257 970.884,-94.123"/>
</g>
<!-- Node4 -->
<g id="node4" class="node"><title>Node4</title>
<g id="a_node4"><a xlink:href="EnemyType01Entity_8cpp.html" target="_top" xlink:title="src/Entities/EntityConstructor\l/EnemyType01Entity/EnemyType01Entity.cpp">
<polygon fill="none" stroke="black" points="349.5,-6 349.5,-36 576.5,-36 576.5,-6 349.5,-6"/>
<text text-anchor="start" x="357.5" y="-24" font-family="Helvetica,sans-Serif" font-size="10.00">src/Entities/EntityConstructor</text>
<text text-anchor="middle" x="463" y="-13" font-family="Helvetica,sans-Serif" font-size="10.00">/EnemyType01Entity/EnemyType01Entity.cpp</text>
</a>
</g>
</g>
<!-- Node1&#45;&gt;Node4 -->
<g id="edge3" class="edge"><title>Node1&#45;&gt;Node4</title>
<path fill="none" stroke="midnightblue" d="M970.706,-84.7275C875.937,-75.8516 719.348,-60.1847 585,-42 571.919,-40.2295 558.083,-38.1554 544.608,-36.0257"/>
<polygon fill="midnightblue" stroke="midnightblue" points="970.534,-88.2265 980.815,-85.6705 971.184,-81.2568 970.534,-88.2265"/>
</g>
<!-- Node5 -->
<g id="node5" class="node"><title>Node5</title>
<g id="a_node5"><a xlink:href="EnemyType02Entity_8cpp.html" target="_top" xlink:title="src/Entities/EntityConstructor\l/EnemyType02Entity/EnemyType02Entity.cpp">
<polygon fill="none" stroke="black" points="594.5,-6 594.5,-36 821.5,-36 821.5,-6 594.5,-6"/>
<text text-anchor="start" x="602.5" y="-24" font-family="Helvetica,sans-Serif" font-size="10.00">src/Entities/EntityConstructor</text>
<text text-anchor="middle" x="708" y="-13" font-family="Helvetica,sans-Serif" font-size="10.00">/EnemyType02Entity/EnemyType02Entity.cpp</text>
</a>
</g>
</g>
<!-- Node1&#45;&gt;Node5 -->
<g id="edge4" class="edge"><title>Node1&#45;&gt;Node5</title>
<path fill="none" stroke="midnightblue" d="M977.773,-76.4957C917.478,-64.3157 835.298,-47.7149 777.535,-36.0465"/>
<polygon fill="midnightblue" stroke="midnightblue" points="977.137,-79.9377 987.632,-78.4872 978.523,-73.0763 977.137,-79.9377"/>
</g>
<!-- Node6 -->
<g id="node6" class="node"><title>Node6</title>
<g id="a_node6"><a xlink:href="EnemyType03Entity_8cpp.html" target="_top" xlink:title="src/Entities/EntityConstructor\l/EnemyType03Entity/EnemyType03Entity.cpp">
<polygon fill="none" stroke="black" points="839.5,-6 839.5,-36 1066.5,-36 1066.5,-6 839.5,-6"/>
<text text-anchor="start" x="847.5" y="-24" font-family="Helvetica,sans-Serif" font-size="10.00">src/Entities/EntityConstructor</text>
<text text-anchor="middle" x="953" y="-13" font-family="Helvetica,sans-Serif" font-size="10.00">/EnemyType03Entity/EnemyType03Entity.cpp</text>
</a>
</g>
</g>
<!-- Node1&#45;&gt;Node6 -->
<g id="edge5" class="edge"><title>Node1&#45;&gt;Node6</title>
<path fill="none" stroke="midnightblue" d="M1027.39,-72.4311C1010.23,-60.7922 989.029,-46.4238 973.66,-36.0049"/>
<polygon fill="midnightblue" stroke="midnightblue" points="1025.71,-75.5192 1035.95,-78.2333 1029.64,-69.725 1025.71,-75.5192"/>
</g>
<!-- Node7 -->
<g id="node7" class="node"><title>Node7</title>
<g id="a_node7"><a xlink:href="PlayerEntity_8cpp.html" target="_top" xlink:title="src/Entities/EntityConstructor\l/PlayerEntity/PlayerEntity.cpp">
<polygon fill="none" stroke="black" points="1084.5,-6 1084.5,-36 1239.5,-36 1239.5,-6 1084.5,-6"/>
<text text-anchor="start" x="1092.5" y="-24" font-family="Helvetica,sans-Serif" font-size="10.00">src/Entities/EntityConstructor</text>
<text text-anchor="middle" x="1162" y="-13" font-family="Helvetica,sans-Serif" font-size="10.00">/PlayerEntity/PlayerEntity.cpp</text>
</a>
</g>
</g>
<!-- Node1&#45;&gt;Node7 -->
<g id="edge6" class="edge"><title>Node1&#45;&gt;Node7</title>
<path fill="none" stroke="midnightblue" d="M1086.63,-72.6026C1103.98,-60.9589 1125.45,-46.5375 1141.04,-36.0729"/>
<polygon fill="midnightblue" stroke="midnightblue" points="1084.35,-69.9226 1078,-78.4027 1088.25,-75.7341 1084.35,-69.9226"/>
</g>
<!-- Node8 -->
<g id="node8" class="node"><title>Node8</title>
<g id="a_node8"><a xlink:href="PlayerTwoEntity_8cpp.html" target="_top" xlink:title="src/Entities/EntityConstructor\l/PlayerTwoEntity/PlayerTwoEntity.cpp">
<polygon fill="none" stroke="black" points="1257.5,-6 1257.5,-36 1444.5,-36 1444.5,-6 1257.5,-6"/>
<text text-anchor="start" x="1265.5" y="-24" font-family="Helvetica,sans-Serif" font-size="10.00">src/Entities/EntityConstructor</text>
<text text-anchor="middle" x="1351" y="-13" font-family="Helvetica,sans-Serif" font-size="10.00">/PlayerTwoEntity/PlayerTwoEntity.cpp</text>
</a>
</g>
</g>
<!-- Node1&#45;&gt;Node8 -->
<g id="edge7" class="edge"><title>Node1&#45;&gt;Node8</title>
<path fill="none" stroke="midnightblue" d="M1125.32,-76.1176C1175.96,-63.9739 1244.27,-47.5946 1292.42,-36.0465"/>
<polygon fill="midnightblue" stroke="midnightblue" points="1124.34,-72.7517 1115.44,-78.4872 1125.98,-79.5588 1124.34,-72.7517"/>
</g>
<!-- Node9 -->
<g id="node9" class="node"><title>Node9</title>
<g id="a_node9"><a xlink:href="TestBackground_8cpp.html" target="_top" xlink:title="src/Entities/EntityConstructor\l/TestBackground/TestBackground.cpp">
<polygon fill="none" stroke="black" points="1462,-6 1462,-36 1656,-36 1656,-6 1462,-6"/>
<text text-anchor="start" x="1470" y="-24" font-family="Helvetica,sans-Serif" font-size="10.00">src/Entities/EntityConstructor</text>
<text text-anchor="middle" x="1559" y="-13" font-family="Helvetica,sans-Serif" font-size="10.00">/TestBackground/TestBackground.cpp</text>
</a>
</g>
</g>
<!-- Node1&#45;&gt;Node9 -->
<g id="edge8" class="edge"><title>Node1&#45;&gt;Node9</title>
<path fill="none" stroke="midnightblue" d="M1143.4,-83.0652C1223.97,-73.8993 1347.39,-58.9167 1454,-42 1465.18,-40.2259 1476.99,-38.1618 1488.5,-36.0465"/>
<polygon fill="midnightblue" stroke="midnightblue" points="1142.85,-79.6056 1133.31,-84.2091 1143.64,-86.5612 1142.85,-79.6056"/>
</g>
<!-- Node10 -->
<g id="node10" class="node"><title>Node10</title>
<g id="a_node10"><a xlink:href="EnemiesMovementSystem_8cpp.html" target="_top" xlink:title="src/Systems/SystemConstructor\l/EnemiesMovementSystem/EnemiesMovement\lSystem.cpp">
<polygon fill="none" stroke="black" points="1674,-0.5 1674,-41.5 1918,-41.5 1918,-0.5 1674,-0.5"/>
<text text-anchor="start" x="1682" y="-29.5" font-family="Helvetica,sans-Serif" font-size="10.00">src/Systems/SystemConstructor</text>
<text text-anchor="start" x="1682" y="-18.5" font-family="Helvetica,sans-Serif" font-size="10.00">/EnemiesMovementSystem/EnemiesMovement</text>
<text text-anchor="middle" x="1796" y="-7.5" font-family="Helvetica,sans-Serif" font-size="10.00">System.cpp</text>
</a>
</g>
</g>
<!-- Node1&#45;&gt;Node10 -->
<g id="edge9" class="edge"><title>Node1&#45;&gt;Node10</title>
<path fill="none" stroke="midnightblue" d="M1143.54,-87.188C1261.62,-79.5122 1479.74,-63.8099 1665,-42 1667.86,-41.6638 1670.75,-41.3127 1673.66,-40.949"/>
<polygon fill="midnightblue" stroke="midnightblue" points="1143.23,-83.7009 1133.47,-87.8387 1143.68,-90.6863 1143.23,-83.7009"/>
</g>
<!-- Node11 -->
<g id="node11" class="node"><title>Node11</title>
<g id="a_node11"><a xlink:href="PlayerMovementSystem_8cpp.html" target="_top" xlink:title="src/Systems/SystemConstructor\l/PlayerMovementSystem/PlayerMovement\lSystem.cpp">
<polygon fill="none" stroke="black" points="1936,-0.5 1936,-41.5 2156,-41.5 2156,-0.5 1936,-0.5"/>
<text text-anchor="start" x="1944" y="-29.5" font-family="Helvetica,sans-Serif" font-size="10.00">src/Systems/SystemConstructor</text>
<text text-anchor="start" x="1944" y="-18.5" font-family="Helvetica,sans-Serif" font-size="10.00">/PlayerMovementSystem/PlayerMovement</text>
<text text-anchor="middle" x="2046" y="-7.5" font-family="Helvetica,sans-Serif" font-size="10.00">System.cpp</text>
</a>
</g>
</g>
<!-- Node1&#45;&gt;Node11 -->
<g id="edge10" class="edge"><title>Node1&#45;&gt;Node11</title>
<path fill="none" stroke="midnightblue" d="M1143.21,-90.5945C1299.76,-86.4456 1641.05,-74.2325 1927,-42 1929.91,-41.6715 1932.87,-41.3191 1935.84,-40.9464"/>
<polygon fill="midnightblue" stroke="midnightblue" points="1143.07,-87.0968 1133.17,-90.8562 1143.26,-94.0944 1143.07,-87.0968"/>
</g>
</g>
</svg>
        <g id="navigator" transform="translate(0 0)" fill="#404254">
                <rect fill="#f2f5e9" fill-opacity="0.5" stroke="#606060" stroke-width=".5" x="0" y="0" width="60" height="60"/>
                <use id="zoomplus" xlink:href="#zoomPlus" x="17" y="9" onmousedown="handleZoom(evt,'in')"/>
                <use id="zoomminus" xlink:href="#zoomMin" x="42" y="9" onmousedown="handleZoom(evt,'out')"/>
                <use id="reset" xlink:href="#resetDef" x="30" y="36" onmousedown="handleReset()"/>
                <g id="arrowUp" xlink:href="#dirArrow" transform="translate(30 24)" onmousedown="handlePan(0,-1)">
                  <use xlink:href="#rim" fill="#404040">
                        <set attributeName="fill" to="#808080" begin="arrowUp.mouseover" end="arrowUp.mouseout"/>
                  </use>
                  <path fill="none" stroke="white" stroke-width="1.5" d="M0,-3.0v7 M-2.5,-0.5L0,-3.0L2.5,-0.5"/>
                </g>
                <g id="arrowRight" xlink:href="#dirArrow" transform="rotate(90) translate(36 -43)" onmousedown="handlePan(1,0)">
                  <use xlink:href="#rim" fill="#404040">
                        <set attributeName="fill" to="#808080" begin="arrowRight.mouseover" end="arrowRight.mouseout"/>
                  </use>
                  <path fill="none" stroke="white" stroke-width="1.5" d="M0,-3.0v7 M-2.5,-0.5L0,-3.0L2.5,-0.5"/>
                </g>
                <g id="arrowDown" xlink:href="#dirArrow" transform="rotate(180) translate(-30 -48)" onmousedown="handlePan(0,1)">
                  <use xlink:href="#rim" fill="#404040">
                        <set attributeName="fill" to="#808080" begin="arrowDown.mouseover" end="arrowDown.mouseout"/>
                  </use>
                  <path fill="none" stroke="white" stroke-width="1.5" d="M0,-3.0v7 M-2.5,-0.5L0,-3.0L2.5,-0.5"/>
                </g>
                <g id="arrowLeft" xlink:href="#dirArrow" transform="rotate(270) translate(-36 17)" onmousedown="handlePan(-1,0)">
                  <use xlink:href="#rim" fill="#404040">
                        <set attributeName="fill" to="#808080" begin="arrowLeft.mouseover" end="arrowLeft.mouseout"/>
                  </use>
                  <path fill="none" stroke="white" stroke-width="1.5" d="M0,-3.0v7 M-2.5,-0.5L0,-3.0L2.5,-0.5"/>
                </g>
        </g>
        <svg viewBox="0 0 15 15" width="100%" height="30px" preserveAspectRatio="xMaxYMin meet">
         <g id="arrow_out" transform="scale(0.3 0.3)">
          <a xlink:href="Health_8hpp__dep__incl_org.svg" target="_base">
           <rect id="button" ry="5" rx="5" y="6" x="6" height="38" width="38"
                fill="#f2f5e9" fill-opacity="0.5" stroke="#606060" stroke-width="1.0"/>
           <path id="arrow"
             d="M 11.500037,31.436501 C 11.940474,20.09759 22.043105,11.32322 32.158766,21.979434 L 37.068811,17.246167 C 37.068811,17.246167 37.088388,32 37.088388,32 L 22.160133,31.978069 C 22.160133,31.978069 26.997745,27.140456 26.997745,27.140456 C 18.528582,18.264221 13.291696,25.230495 11.500037,31.436501 z"
             style="fill:#404040;"/>
          </a>
         </g>
        </svg>
</svg>
