<?xml version="1.0" encoding="UTF-8" standalone="no"?>
<!DOCTYPE svg PUBLIC "-//W3C//DTD SVG 1.1//EN"
 "http://www.w3.org/Graphics/SVG/1.1/DTD/svg11.dtd">
<!-- Generated by graphviz version 2.38.0 (20140413.2041)
 -->
<!-- Title: src/Components/ComponentManager/IComponentManager.hpp Pages: 1 -->
<svg width="310pt" height="151pt"
 viewBox="0.00 0.00 309.50 151.00" xmlns="http://www.w3.org/2000/svg" xmlns:xlink="http://www.w3.org/1999/xlink">
<g id="graph0" class="graph" transform="scale(1 1) rotate(0) translate(4 147)">
<title>src/Components/ComponentManager/IComponentManager.hpp</title>
<!-- Node1 -->
<g id="node1" class="node"><title>Node1</title>
<polygon fill="#bfbfbf" stroke="black" points="33,-112.5 33,-142.5 215,-142.5 215,-112.5 33,-112.5"/>
<text text-anchor="start" x="41" y="-130.5" font-family="Helvetica,sans-Serif" font-size="10.00">src/Components/Component</text>
<text text-anchor="middle" x="124" y="-119.5" font-family="Helvetica,sans-Serif" font-size="10.00">Manager/IComponentManager.hpp</text>
</g>
<!-- Node2 -->
<g id="node2" class="node"><title>Node2</title>
<polygon fill="none" stroke="#bfbfbf" points="-1.77636e-15,-56.5 -1.77636e-15,-75.5 30,-75.5 30,-56.5 -1.77636e-15,-56.5"/>
<text text-anchor="middle" x="15" y="-63.5" font-family="Helvetica,sans-Serif" font-size="10.00">list</text>
</g>
<!-- Node1&#45;&gt;Node2 -->
<g id="edge1" class="edge"><title>Node1&#45;&gt;Node2</title>
<path fill="none" stroke="midnightblue" d="M98.1685,-112.399C80.3209,-102.657 56.739,-89.7841 39.2451,-80.2347"/>
<polygon fill="midnightblue" stroke="midnightblue" points="40.6821,-77.0316 30.2277,-75.3124 37.3281,-83.1758 40.6821,-77.0316"/>
</g>
<!-- Node3 -->
<g id="node3" class="node"><title>Node3</title>
<polygon fill="none" stroke="#bfbfbf" points="48.5,-56.5 48.5,-75.5 105.5,-75.5 105.5,-56.5 48.5,-56.5"/>
<text text-anchor="middle" x="77" y="-63.5" font-family="Helvetica,sans-Serif" font-size="10.00">memory</text>
</g>
<!-- Node1&#45;&gt;Node3 -->
<g id="edge2" class="edge"><title>Node1&#45;&gt;Node3</title>
<path fill="none" stroke="midnightblue" d="M112.862,-112.399C106.032,-103.753 97.255,-92.642 90.0936,-83.576"/>
<polygon fill="midnightblue" stroke="midnightblue" points="92.784,-81.3354 83.8389,-75.6578 87.291,-85.6745 92.784,-81.3354"/>
</g>
<!-- Node4 -->
<g id="node4" class="node"><title>Node4</title>
<g id="a_node4"><a xlink:href="IComponent_8hpp.html" target="_top" xlink:title="IComponent.hpp">
<polygon fill="none" stroke="black" points="124,-56.5 124,-75.5 220,-75.5 220,-56.5 124,-56.5"/>
<text text-anchor="middle" x="172" y="-63.5" font-family="Helvetica,sans-Serif" font-size="10.00">IComponent.hpp</text>
</a>
</g>
</g>
<!-- Node1&#45;&gt;Node4 -->
<g id="edge3" class="edge"><title>Node1&#45;&gt;Node4</title>
<path fill="none" stroke="midnightblue" d="M135.375,-112.399C142.35,-103.753 151.314,-92.642 158.628,-83.576"/>
<polygon fill="midnightblue" stroke="midnightblue" points="161.461,-85.6385 165.016,-75.6578 156.013,-81.2433 161.461,-85.6385"/>
</g>
<!-- Node6 -->
<g id="node6" class="node"><title>Node6</title>
<g id="a_node6"><a xlink:href="Entity_8hpp.html" target="_top" xlink:title="Entity.hpp">
<polygon fill="none" stroke="black" points="238.5,-56.5 238.5,-75.5 301.5,-75.5 301.5,-56.5 238.5,-56.5"/>
<text text-anchor="middle" x="270" y="-63.5" font-family="Helvetica,sans-Serif" font-size="10.00">Entity.hpp</text>
</a>
</g>
</g>
<!-- Node1&#45;&gt;Node6 -->
<g id="edge5" class="edge"><title>Node1&#45;&gt;Node6</title>
<path fill="none" stroke="midnightblue" d="M158.6,-112.399C183.096,-102.416 215.657,-89.1465 239.245,-79.5335"/>
<polygon fill="midnightblue" stroke="midnightblue" points="240.816,-82.673 248.756,-75.6578 238.174,-76.1906 240.816,-82.673"/>
</g>
<!-- Node5 -->
<g id="node5" class="node"><title>Node5</title>
<polygon fill="none" stroke="#bfbfbf" points="140.5,-0.5 140.5,-19.5 203.5,-19.5 203.5,-0.5 140.5,-0.5"/>
<text text-anchor="middle" x="172" y="-7.5" font-family="Helvetica,sans-Serif" font-size="10.00">typeindex</text>
</g>
<!-- Node4&#45;&gt;Node5 -->
<g id="edge4" class="edge"><title>Node4&#45;&gt;Node5</title>
<path fill="none" stroke="midnightblue" d="M172,-56.083C172,-49.0059 172,-38.8611 172,-29.9865"/>
<polygon fill="midnightblue" stroke="midnightblue" points="175.5,-29.751 172,-19.7511 168.5,-29.7511 175.5,-29.751"/>
</g>
</g>
</svg>
