<?xml version="1.0" encoding="UTF-8" standalone="no"?>
<!DOCTYPE svg PUBLIC "-//W3C//DTD SVG 1.1//EN"
 "http://www.w3.org/Graphics/SVG/1.1/DTD/svg11.dtd">
<!-- Generated by graphviz version 2.38.0 (20140413.2041)
 -->
<!-- Title: src/Components/Display/IDisplay.hpp Pages: 1 -->
<svg width="161pt" height="151pt"
 viewBox="0.00 0.00 160.50 151.00" xmlns="http://www.w3.org/2000/svg" xmlns:xlink="http://www.w3.org/1999/xlink">
<g id="graph0" class="graph" transform="scale(1 1) rotate(0) translate(4 147)">
<title>src/Components/Display/IDisplay.hpp</title>
<!-- Node1 -->
<g id="node1" class="node"><title>Node1</title>
<polygon fill="#bfbfbf" stroke="black" points="0,-112.5 0,-142.5 133,-142.5 133,-112.5 0,-112.5"/>
<text text-anchor="start" x="8" y="-130.5" font-family="Helvetica,sans-Serif" font-size="10.00">src/Components/Display</text>
<text text-anchor="middle" x="66.5" y="-119.5" font-family="Helvetica,sans-Serif" font-size="10.00">/IDisplay.hpp</text>
</g>
<!-- Node2 -->
<g id="node2" class="node"><title>Node2</title>
<polygon fill="none" stroke="#bfbfbf" points="35,-0.5 35,-19.5 98,-19.5 98,-0.5 35,-0.5"/>
<text text-anchor="middle" x="66.5" y="-7.5" font-family="Helvetica,sans-Serif" font-size="10.00">typeindex</text>
</g>
<!-- Node1&#45;&gt;Node2 -->
<g id="edge1" class="edge"><title>Node1&#45;&gt;Node2</title>
<path fill="none" stroke="midnightblue" d="M58.6611,-112.314C51.7986,-98.1661 43.5005,-75.7545 47.5,-56 49.3931,-46.6493 53.2916,-36.8267 57.0674,-28.7526"/>
<polygon fill="midnightblue" stroke="midnightblue" points="60.2876,-30.1381 61.6241,-19.6279 54.0251,-27.0106 60.2876,-30.1381"/>
</g>
<!-- Node3 -->
<g id="node3" class="node"><title>Node3</title>
<g id="a_node3"><a xlink:href="IComponent_8hpp.html" target="_top" xlink:title="IComponent.hpp">
<polygon fill="none" stroke="black" points="56.5,-56.5 56.5,-75.5 152.5,-75.5 152.5,-56.5 56.5,-56.5"/>
<text text-anchor="middle" x="104.5" y="-63.5" font-family="Helvetica,sans-Serif" font-size="10.00">IComponent.hpp</text>
</a>
</g>
</g>
<!-- Node1&#45;&gt;Node3 -->
<g id="edge2" class="edge"><title>Node1&#45;&gt;Node3</title>
<path fill="none" stroke="midnightblue" d="M75.5055,-112.399C80.9135,-103.932 87.8317,-93.0991 93.5539,-84.1393"/>
<polygon fill="midnightblue" stroke="midnightblue" points="96.5379,-85.9695 98.9707,-75.6578 90.6384,-82.2018 96.5379,-85.9695"/>
</g>
<!-- Node3&#45;&gt;Node2 -->
<g id="edge3" class="edge"><title>Node3&#45;&gt;Node2</title>
<path fill="none" stroke="midnightblue" d="M98.2251,-56.083C92.8575,-48.4554 84.9824,-37.2645 78.4213,-27.9408"/>
<polygon fill="midnightblue" stroke="midnightblue" points="81.2755,-25.9149 72.6582,-19.7511 75.5508,-29.9434 81.2755,-25.9149"/>
</g>
</g>
</svg>
