<?xml version="1.0" encoding="UTF-8" standalone="no"?>
<!DOCTYPE svg PUBLIC "-//W3C//DTD SVG 1.1//EN"
 "http://www.w3.org/Graphics/SVG/1.1/DTD/svg11.dtd">
<!-- Generated by graphviz version 2.38.0 (20140413.2041)
 -->
<!-- Title: src/IEcs.hpp Pages: 1 -->
<svg width="1060pt" height="252pt"
 viewBox="0.00 0.00 1060.00 252.00" xmlns="http://www.w3.org/2000/svg" xmlns:xlink="http://www.w3.org/1999/xlink">
<g id="graph0" class="graph" transform="scale(1 1) rotate(0) translate(4 248)">
<title>src/IEcs.hpp</title>
<!-- Node1 -->
<g id="node1" class="node"><title>Node1</title>
<polygon fill="#bfbfbf" stroke="black" points="420.5,-224.5 420.5,-243.5 494.5,-243.5 494.5,-224.5 420.5,-224.5"/>
<text text-anchor="middle" x="457.5" y="-231.5" font-family="Helvetica,sans-Serif" font-size="10.00">src/IEcs.hpp</text>
</g>
<!-- Node2 -->
<g id="node2" class="node"><title>Node2</title>
<g id="a_node2"><a xlink:href="Ecs_8hpp.html" target="_top" xlink:title="src/Ecs.hpp">
<polygon fill="none" stroke="black" points="422,-168.5 422,-187.5 493,-187.5 493,-168.5 422,-168.5"/>
<text text-anchor="middle" x="457.5" y="-175.5" font-family="Helvetica,sans-Serif" font-size="10.00">src/Ecs.hpp</text>
</a>
</g>
</g>
<!-- Node1&#45;&gt;Node2 -->
<g id="edge1" class="edge"><title>Node1&#45;&gt;Node2</title>
<path fill="none" stroke="midnightblue" d="M457.5,-213.805C457.5,-204.91 457.5,-194.78 457.5,-187.751"/>
<polygon fill="midnightblue" stroke="midnightblue" points="454,-214.083 457.5,-224.083 461,-214.083 454,-214.083"/>
</g>
<!-- Node3 -->
<g id="node3" class="node"><title>Node3</title>
<g id="a_node3"><a xlink:href="Ecs_8cpp.html" target="_top" xlink:title="src/Ecs.cpp">
<polygon fill="none" stroke="black" points="0,-112.5 0,-131.5 71,-131.5 71,-112.5 0,-112.5"/>
<text text-anchor="middle" x="35.5" y="-119.5" font-family="Helvetica,sans-Serif" font-size="10.00">src/Ecs.cpp</text>
</a>
</g>
</g>
<!-- Node2&#45;&gt;Node3 -->
<g id="edge2" class="edge"><title>Node2&#45;&gt;Node3</title>
<path fill="none" stroke="midnightblue" d="M411.798,-172.715C340.716,-165.788 199.467,-150.967 80.5,-132 77.5102,-131.523 74.4165,-130.99 71.3156,-130.427"/>
<polygon fill="midnightblue" stroke="midnightblue" points="411.475,-176.2 421.766,-173.68 412.149,-169.233 411.475,-176.2"/>
</g>
<!-- Node4 -->
<g id="node4" class="node"><title>Node4</title>
<g id="a_node4"><a xlink:href="ChooseRoomScene_8hpp.html" target="_top" xlink:title="src/Scenes/ChooseRoomScene.hpp">
<polygon fill="none" stroke="black" points="89.5,-112.5 89.5,-131.5 275.5,-131.5 275.5,-112.5 89.5,-112.5"/>
<text text-anchor="middle" x="182.5" y="-119.5" font-family="Helvetica,sans-Serif" font-size="10.00">src/Scenes/ChooseRoomScene.hpp</text>
</a>
</g>
</g>
<!-- Node2&#45;&gt;Node4 -->
<g id="edge3" class="edge"><title>Node2&#45;&gt;Node4</title>
<path fill="none" stroke="midnightblue" d="M411.937,-168.053C360.241,-157.902 276.544,-141.467 225.803,-131.503"/>
<polygon fill="midnightblue" stroke="midnightblue" points="411.343,-171.503 421.83,-169.996 412.692,-164.634 411.343,-171.503"/>
</g>
<!-- Node7 -->
<g id="node7" class="node"><title>Node7</title>
<g id="a_node7"><a xlink:href="DefeatScene_8hpp.html" target="_top" xlink:title="src/Scenes/DefeatScene.hpp">
<polygon fill="none" stroke="black" points="294,-112.5 294,-131.5 449,-131.5 449,-112.5 294,-112.5"/>
<text text-anchor="middle" x="371.5" y="-119.5" font-family="Helvetica,sans-Serif" font-size="10.00">src/Scenes/DefeatScene.hpp</text>
</a>
</g>
</g>
<!-- Node2&#45;&gt;Node7 -->
<g id="edge6" class="edge"><title>Node2&#45;&gt;Node7</title>
<path fill="none" stroke="midnightblue" d="M435.045,-162.901C419.276,-152.999 398.686,-140.071 385.283,-131.655"/>
<polygon fill="midnightblue" stroke="midnightblue" points="433.352,-165.97 443.683,-168.324 437.075,-160.042 433.352,-165.97"/>
</g>
<!-- Node9 -->
<g id="node9" class="node"><title>Node9</title>
<g id="a_node9"><a xlink:href="GameScene_8hpp.html" target="_top" xlink:title="src/Scenes/GameScene.hpp">
<polygon fill="none" stroke="black" points="467.5,-112.5 467.5,-131.5 619.5,-131.5 619.5,-112.5 467.5,-112.5"/>
<text text-anchor="middle" x="543.5" y="-119.5" font-family="Helvetica,sans-Serif" font-size="10.00">src/Scenes/GameScene.hpp</text>
</a>
</g>
</g>
<!-- Node2&#45;&gt;Node9 -->
<g id="edge9" class="edge"><title>Node2&#45;&gt;Node9</title>
<path fill="none" stroke="midnightblue" d="M479.955,-162.901C495.724,-152.999 516.314,-140.071 529.717,-131.655"/>
<polygon fill="midnightblue" stroke="midnightblue" points="477.925,-160.042 471.317,-168.324 481.648,-165.97 477.925,-160.042"/>
</g>
<!-- Node11 -->
<g id="node11" class="node"><title>Node11</title>
<g id="a_node11"><a xlink:href="MenuScene_8hpp.html" target="_top" xlink:title="src/Scenes/MenuScene.hpp">
<polygon fill="none" stroke="black" points="638,-112.5 638,-131.5 787,-131.5 787,-112.5 638,-112.5"/>
<text text-anchor="middle" x="712.5" y="-119.5" font-family="Helvetica,sans-Serif" font-size="10.00">src/Scenes/MenuScene.hpp</text>
</a>
</g>
</g>
<!-- Node2&#45;&gt;Node11 -->
<g id="edge12" class="edge"><title>Node2&#45;&gt;Node11</title>
<path fill="none" stroke="midnightblue" d="M503.04,-167.356C551.042,-157.191 625.945,-141.329 671.967,-131.583"/>
<polygon fill="midnightblue" stroke="midnightblue" points="502.283,-163.939 493.225,-169.435 503.733,-170.787 502.283,-163.939"/>
</g>
<!-- Node13 -->
<g id="node13" class="node"><title>Node13</title>
<g id="a_node13"><a xlink:href="SceneManager_8hpp.html" target="_top" xlink:title="src/Scenes/SceneManager.hpp">
<polygon fill="none" stroke="black" points="805.5,-112.5 805.5,-131.5 969.5,-131.5 969.5,-112.5 805.5,-112.5"/>
<text text-anchor="middle" x="887.5" y="-119.5" font-family="Helvetica,sans-Serif" font-size="10.00">src/Scenes/SceneManager.hpp</text>
</a>
</g>
</g>
<!-- Node2&#45;&gt;Node13 -->
<g id="edge15" class="edge"><title>Node2&#45;&gt;Node13</title>
<path fill="none" stroke="midnightblue" d="M503.23,-171.257C579.033,-161.738 731.106,-142.64 819.52,-131.537"/>
<polygon fill="midnightblue" stroke="midnightblue" points="502.54,-167.816 493.055,-172.535 503.413,-174.762 502.54,-167.816"/>
</g>
<!-- Node5 -->
<g id="node5" class="node"><title>Node5</title>
<g id="a_node5"><a xlink:href="ChooseRoomScene_8cpp.html" target="_top" xlink:title="src/Scenes/ChooseRoomScene.cpp">
<polygon fill="none" stroke="black" points="18,-56.5 18,-75.5 203,-75.5 203,-56.5 18,-56.5"/>
<text text-anchor="middle" x="110.5" y="-63.5" font-family="Helvetica,sans-Serif" font-size="10.00">src/Scenes/ChooseRoomScene.cpp</text>
</a>
</g>
</g>
<!-- Node4&#45;&gt;Node5 -->
<g id="edge4" class="edge"><title>Node4&#45;&gt;Node5</title>
<path fill="none" stroke="midnightblue" d="M162.634,-106.101C149.677,-96.3824 133.203,-84.0269 122.279,-75.8339"/>
<polygon fill="midnightblue" stroke="midnightblue" points="160.832,-109.124 170.932,-112.324 165.032,-103.524 160.832,-109.124"/>
</g>
<!-- Node6 -->
<g id="node6" class="node"><title>Node6</title>
<g id="a_node6"><a xlink:href="SceneManager_8cpp.html" target="_top" xlink:title="src/Scenes/SceneManager.cpp">
<polygon fill="none" stroke="black" points="394.5,-56.5 394.5,-75.5 558.5,-75.5 558.5,-56.5 394.5,-56.5"/>
<text text-anchor="middle" x="476.5" y="-63.5" font-family="Helvetica,sans-Serif" font-size="10.00">src/Scenes/SceneManager.cpp</text>
</a>
</g>
</g>
<!-- Node4&#45;&gt;Node6 -->
<g id="edge5" class="edge"><title>Node4&#45;&gt;Node6</title>
<path fill="none" stroke="midnightblue" d="M239.118,-110.601C294.681,-100.395 378.397,-85.0189 430.133,-75.5164"/>
<polygon fill="midnightblue" stroke="midnightblue" points="238.288,-107.195 229.085,-112.444 239.553,-114.079 238.288,-107.195"/>
</g>
<!-- Node7&#45;&gt;Node6 -->
<g id="edge8" class="edge"><title>Node7&#45;&gt;Node6</title>
<path fill="none" stroke="midnightblue" d="M397.31,-107.726C416.753,-97.7271 442.848,-84.3065 459.672,-75.6545"/>
<polygon fill="midnightblue" stroke="midnightblue" points="395.662,-104.638 388.37,-112.324 398.864,-110.863 395.662,-104.638"/>
</g>
<!-- Node8 -->
<g id="node8" class="node"><title>Node8</title>
<g id="a_node8"><a xlink:href="DefeatScene_8cpp.html" target="_top" xlink:title="src/Scenes/DefeatScene.cpp">
<polygon fill="none" stroke="black" points="221,-56.5 221,-75.5 376,-75.5 376,-56.5 221,-56.5"/>
<text text-anchor="middle" x="298.5" y="-63.5" font-family="Helvetica,sans-Serif" font-size="10.00">src/Scenes/DefeatScene.cpp</text>
</a>
</g>
</g>
<!-- Node7&#45;&gt;Node8 -->
<g id="edge7" class="edge"><title>Node7&#45;&gt;Node8</title>
<path fill="none" stroke="midnightblue" d="M351.358,-106.101C338.221,-96.3824 321.518,-84.0269 310.442,-75.8339"/>
<polygon fill="midnightblue" stroke="midnightblue" points="349.65,-109.191 359.771,-112.324 353.813,-103.563 349.65,-109.191"/>
</g>
<!-- Node9&#45;&gt;Node6 -->
<g id="edge11" class="edge"><title>Node9&#45;&gt;Node6</title>
<path fill="none" stroke="midnightblue" d="M524.665,-105.82C512.662,-96.1452 497.528,-83.9481 487.461,-75.8339"/>
<polygon fill="midnightblue" stroke="midnightblue" points="522.753,-108.774 532.735,-112.324 527.146,-103.324 522.753,-108.774"/>
</g>
<!-- Node10 -->
<g id="node10" class="node"><title>Node10</title>
<g id="a_node10"><a xlink:href="GameScene_8cpp.html" target="_top" xlink:title="src/Scenes/GameScene.cpp">
<polygon fill="none" stroke="black" points="576.5,-56.5 576.5,-75.5 728.5,-75.5 728.5,-56.5 576.5,-56.5"/>
<text text-anchor="middle" x="652.5" y="-63.5" font-family="Helvetica,sans-Serif" font-size="10.00">src/Scenes/GameScene.cpp</text>
</a>
</g>
</g>
<!-- Node9&#45;&gt;Node10 -->
<g id="edge10" class="edge"><title>Node9&#45;&gt;Node10</title>
<path fill="none" stroke="midnightblue" d="M570.019,-107.862C590.23,-97.8492 617.487,-84.3458 635.031,-75.6545"/>
<polygon fill="midnightblue" stroke="midnightblue" points="568.42,-104.748 561.013,-112.324 571.527,-111.021 568.42,-104.748"/>
</g>
<!-- Node11&#45;&gt;Node6 -->
<g id="edge14" class="edge"><title>Node11&#45;&gt;Node6</title>
<path fill="none" stroke="midnightblue" d="M665.094,-110.153C620.503,-99.95 554.646,-84.8809 513.72,-75.5164"/>
<polygon fill="midnightblue" stroke="midnightblue" points="664.576,-113.625 675.105,-112.444 666.138,-106.801 664.576,-113.625"/>
</g>
<!-- Node12 -->
<g id="node12" class="node"><title>Node12</title>
<g id="a_node12"><a xlink:href="MenuScene_8cpp.html" target="_top" xlink:title="src/Scenes/MenuScene.cpp">
<polygon fill="none" stroke="black" points="747,-56.5 747,-75.5 896,-75.5 896,-56.5 747,-56.5"/>
<text text-anchor="middle" x="821.5" y="-63.5" font-family="Helvetica,sans-Serif" font-size="10.00">src/Scenes/MenuScene.cpp</text>
</a>
</g>
</g>
<!-- Node11&#45;&gt;Node12 -->
<g id="edge13" class="edge"><title>Node11&#45;&gt;Node12</title>
<path fill="none" stroke="midnightblue" d="M739.019,-107.862C759.23,-97.8492 786.487,-84.3458 804.031,-75.6545"/>
<polygon fill="midnightblue" stroke="midnightblue" points="737.42,-104.748 730.013,-112.324 740.527,-111.021 737.42,-104.748"/>
</g>
<!-- Node13&#45;&gt;Node6 -->
<g id="edge19" class="edge"><title>Node13&#45;&gt;Node6</title>
<path fill="none" stroke="midnightblue" d="M812.185,-111.105C734.573,-100.907 614.844,-85.1766 541.319,-75.5164"/>
<polygon fill="midnightblue" stroke="midnightblue" points="812.005,-114.611 822.376,-112.444 812.917,-107.671 812.005,-114.611"/>
</g>
<!-- Node14 -->
<g id="node14" class="node"><title>Node14</title>
<g id="a_node14"><a xlink:href="Rtype_8hpp.html" target="_top" xlink:title="src/Rtype.hpp">
<polygon fill="none" stroke="black" points="914.5,-56.5 914.5,-75.5 996.5,-75.5 996.5,-56.5 914.5,-56.5"/>
<text text-anchor="middle" x="955.5" y="-63.5" font-family="Helvetica,sans-Serif" font-size="10.00">src/Rtype.hpp</text>
</a>
</g>
</g>
<!-- Node13&#45;&gt;Node14 -->
<g id="edge16" class="edge"><title>Node13&#45;&gt;Node14</title>
<path fill="none" stroke="midnightblue" d="M906.262,-106.101C918.5,-96.3824 934.059,-84.0269 944.376,-75.8339"/>
<polygon fill="midnightblue" stroke="midnightblue" points="904.08,-103.364 898.425,-112.324 908.433,-108.846 904.08,-103.364"/>
</g>
<!-- Node15 -->
<g id="node15" class="node"><title>Node15</title>
<g id="a_node15"><a xlink:href="main__client_8cpp.html" target="_top" xlink:title="src/main_client.cpp">
<polygon fill="none" stroke="black" points="844,-0.5 844,-19.5 953,-19.5 953,-0.5 844,-0.5"/>
<text text-anchor="middle" x="898.5" y="-7.5" font-family="Helvetica,sans-Serif" font-size="10.00">src/main_client.cpp</text>
</a>
</g>
</g>
<!-- Node14&#45;&gt;Node15 -->
<g id="edge17" class="edge"><title>Node14&#45;&gt;Node15</title>
<path fill="none" stroke="midnightblue" d="M938.879,-49.2533C928.766,-39.6731 916.223,-27.7906 907.825,-19.8339"/>
<polygon fill="midnightblue" stroke="midnightblue" points="936.675,-51.9873 946.342,-56.324 941.49,-46.9056 936.675,-51.9873"/>
</g>
<!-- Node16 -->
<g id="node16" class="node"><title>Node16</title>
<g id="a_node16"><a xlink:href="Rtype_8cpp.html" target="_top" xlink:title="src/Rtype.cpp">
<polygon fill="none" stroke="black" points="971,-0.5 971,-19.5 1052,-19.5 1052,-0.5 971,-0.5"/>
<text text-anchor="middle" x="1011.5" y="-7.5" font-family="Helvetica,sans-Serif" font-size="10.00">src/Rtype.cpp</text>
</a>
</g>
</g>
<!-- Node14&#45;&gt;Node16 -->
<g id="edge18" class="edge"><title>Node14&#45;&gt;Node16</title>
<path fill="none" stroke="midnightblue" d="M971.83,-49.2533C981.765,-39.6731 994.088,-27.7906 1002.34,-19.8339"/>
<polygon fill="midnightblue" stroke="midnightblue" points="969.266,-46.8631 964.497,-56.324 974.125,-51.902 969.266,-46.8631"/>
</g>
</g>
</svg>
