<?xml version="1.0" encoding="UTF-8" standalone="no"?>
<!DOCTYPE svg PUBLIC "-//W3C//DTD SVG 1.1//EN"
 "http://www.w3.org/Graphics/SVG/1.1/DTD/svg11.dtd">
<!-- Generated by graphviz version 2.38.0 (20140413.2041)
 -->
<!-- Title: src/Entities/Factories/IEntityFactory.hpp Pages: 1 -->
<svg width="546pt" height="263pt"
 viewBox="0.00 0.00 545.50 263.00" xmlns="http://www.w3.org/2000/svg" xmlns:xlink="http://www.w3.org/1999/xlink">
<g id="graph0" class="graph" transform="scale(1 1) rotate(0) translate(4 259)">
<title>src/Entities/Factories/IEntityFactory.hpp</title>
<!-- Node1 -->
<g id="node1" class="node"><title>Node1</title>
<polygon fill="#bfbfbf" stroke="black" points="128.5,-224.5 128.5,-254.5 243.5,-254.5 243.5,-224.5 128.5,-224.5"/>
<text text-anchor="start" x="136.5" y="-242.5" font-family="Helvetica,sans-Serif" font-size="10.00">src/Entities/Factories</text>
<text text-anchor="middle" x="186" y="-231.5" font-family="Helvetica,sans-Serif" font-size="10.00">/IEntityFactory.hpp</text>
</g>
<!-- Node2 -->
<g id="node2" class="node"><title>Node2</title>
<polygon fill="none" stroke="#bfbfbf" points="0,-0.5 0,-19.5 44,-19.5 44,-0.5 0,-0.5"/>
<text text-anchor="middle" x="22" y="-7.5" font-family="Helvetica,sans-Serif" font-size="10.00">string</text>
</g>
<!-- Node1&#45;&gt;Node2 -->
<g id="edge1" class="edge"><title>Node1&#45;&gt;Node2</title>
<path fill="none" stroke="midnightblue" d="M152.795,-224.482C135.059,-215.829 113.71,-203.428 98,-188 56.6145,-147.358 50.2533,-130.716 31,-76 25.7355,-61.0389 23.5352,-43.1268 22.6233,-29.8981"/>
<polygon fill="midnightblue" stroke="midnightblue" points="26.1069,-29.4818 22.109,-19.6703 19.1158,-29.8335 26.1069,-29.4818"/>
</g>
<!-- Node3 -->
<g id="node3" class="node"><title>Node3</title>
<polygon fill="none" stroke="#bfbfbf" points="246.5,-56.5 246.5,-75.5 303.5,-75.5 303.5,-56.5 246.5,-56.5"/>
<text text-anchor="middle" x="275" y="-63.5" font-family="Helvetica,sans-Serif" font-size="10.00">memory</text>
</g>
<!-- Node1&#45;&gt;Node3 -->
<g id="edge2" class="edge"><title>Node1&#45;&gt;Node3</title>
<path fill="none" stroke="midnightblue" d="M215.239,-224.489C229.817,-215.977 246.353,-203.706 256,-188 275.591,-156.102 277.223,-110.857 276.331,-85.7043"/>
<polygon fill="midnightblue" stroke="midnightblue" points="279.824,-85.4821 275.799,-75.6817 272.834,-85.8532 279.824,-85.4821"/>
</g>
<!-- Node4 -->
<g id="node4" class="node"><title>Node4</title>
<g id="a_node4"><a xlink:href="PacketManager_8hpp.html" target="_top" xlink:title="PacketManager.hpp">
<polygon fill="none" stroke="black" points="53,-56.5 53,-75.5 163,-75.5 163,-56.5 53,-56.5"/>
<text text-anchor="middle" x="108" y="-63.5" font-family="Helvetica,sans-Serif" font-size="10.00">PacketManager.hpp</text>
</a>
</g>
</g>
<!-- Node1&#45;&gt;Node4 -->
<g id="edge3" class="edge"><title>Node1&#45;&gt;Node4</title>
<path fill="none" stroke="midnightblue" d="M159.994,-224.478C145.492,-215.595 127.992,-202.97 116,-188 93.8549,-160.354 85.979,-146.907 92,-112 93.568,-102.91 96.7948,-93.2219 99.9425,-85.1726"/>
<polygon fill="midnightblue" stroke="midnightblue" points="103.265,-86.2993 103.889,-75.7229 96.8055,-83.6018 103.265,-86.2993"/>
</g>
<!-- Node7 -->
<g id="node7" class="node"><title>Node7</title>
<g id="a_node7"><a xlink:href="IEntityConstructor_8hpp.html" target="_top" xlink:title="IEntityConstructor.hpp">
<polygon fill="none" stroke="black" points="125,-168.5 125,-187.5 247,-187.5 247,-168.5 125,-168.5"/>
<text text-anchor="middle" x="186" y="-175.5" font-family="Helvetica,sans-Serif" font-size="10.00">IEntityConstructor.hpp</text>
</a>
</g>
</g>
<!-- Node1&#45;&gt;Node7 -->
<g id="edge7" class="edge"><title>Node1&#45;&gt;Node7</title>
<path fill="none" stroke="midnightblue" d="M186,-224.399C186,-216.466 186,-206.458 186,-197.858"/>
<polygon fill="midnightblue" stroke="midnightblue" points="189.5,-197.658 186,-187.658 182.5,-197.658 189.5,-197.658"/>
</g>
<!-- Node8 -->
<g id="node8" class="node"><title>Node8</title>
<g id="a_node8"><a xlink:href="Entity_8hpp.html" target="_top" xlink:title="Entity.hpp">
<polygon fill="none" stroke="black" points="474.5,-56.5 474.5,-75.5 537.5,-75.5 537.5,-56.5 474.5,-56.5"/>
<text text-anchor="middle" x="506" y="-63.5" font-family="Helvetica,sans-Serif" font-size="10.00">Entity.hpp</text>
</a>
</g>
</g>
<!-- Node1&#45;&gt;Node8 -->
<g id="edge22" class="edge"><title>Node1&#45;&gt;Node8</title>
<path fill="none" stroke="midnightblue" d="M243.725,-230.445C307.37,-218.837 409.417,-191.815 475,-132 488.544,-119.647 496.743,-100.121 501.276,-85.6918"/>
<polygon fill="midnightblue" stroke="midnightblue" points="504.705,-86.4289 504.056,-75.854 497.969,-84.5254 504.705,-86.4289"/>
</g>
<!-- Node4&#45;&gt;Node2 -->
<g id="edge4" class="edge"><title>Node4&#45;&gt;Node2</title>
<path fill="none" stroke="midnightblue" d="M94.1826,-56.324C80.767,-47.9002 60.1759,-34.9709 44.4144,-25.0741"/>
<polygon fill="midnightblue" stroke="midnightblue" points="46.1132,-22.0081 35.7831,-19.6545 42.3908,-27.9364 46.1132,-22.0081"/>
</g>
<!-- Node5 -->
<g id="node5" class="node"><title>Node5</title>
<polygon fill="none" stroke="#bfbfbf" points="246,-0.5 246,-19.5 276,-19.5 276,-0.5 246,-0.5"/>
<text text-anchor="middle" x="261" y="-7.5" font-family="Helvetica,sans-Serif" font-size="10.00">list</text>
</g>
<!-- Node4&#45;&gt;Node5 -->
<g id="edge5" class="edge"><title>Node4&#45;&gt;Node5</title>
<path fill="none" stroke="midnightblue" d="M132.243,-56.4435C160.61,-46.4316 207.341,-29.9386 236.021,-19.8161"/>
<polygon fill="midnightblue" stroke="midnightblue" points="237.438,-23.0276 245.703,-16.3989 235.108,-16.4267 237.438,-23.0276"/>
</g>
<!-- Node6 -->
<g id="node6" class="node"><title>Node6</title>
<g id="a_node6"><a xlink:href="Input_8hpp.html" target="_top" xlink:title="Render/Input.hpp">
<polygon fill="none" stroke="black" points="62,-0.5 62,-19.5 160,-19.5 160,-0.5 62,-0.5"/>
<text text-anchor="middle" x="111" y="-7.5" font-family="Helvetica,sans-Serif" font-size="10.00">Render/Input.hpp</text>
</a>
</g>
</g>
<!-- Node4&#45;&gt;Node6 -->
<g id="edge6" class="edge"><title>Node4&#45;&gt;Node6</title>
<path fill="none" stroke="midnightblue" d="M108.495,-56.083C108.889,-49.0059 109.452,-38.8611 109.945,-29.9865"/>
<polygon fill="midnightblue" stroke="midnightblue" points="113.454,-29.9299 110.514,-19.7511 106.464,-29.5415 113.454,-29.9299"/>
</g>
<!-- Node7&#45;&gt;Node2 -->
<g id="edge9" class="edge"><title>Node7&#45;&gt;Node2</title>
<path fill="none" stroke="midnightblue" d="M161.271,-168.432C141.345,-160.791 113.247,-148.298 92,-132 65.99,-112.049 60.2166,-104.488 44,-76 35.712,-61.4402 29.891,-43.2626 26.3276,-29.8353"/>
<polygon fill="midnightblue" stroke="midnightblue" points="29.6585,-28.7249 23.8607,-19.8572 22.8631,-30.405 29.6585,-28.7249"/>
</g>
<!-- Node7&#45;&gt;Node3 -->
<g id="edge8" class="edge"><title>Node7&#45;&gt;Node3</title>
<path fill="none" stroke="midnightblue" d="M192.984,-168.368C207.736,-150.135 242.292,-107.426 261.508,-83.6752"/>
<polygon fill="midnightblue" stroke="midnightblue" points="264.48,-85.567 268.049,-75.5914 259.038,-81.164 264.48,-85.567"/>
</g>
<!-- Node7&#45;&gt;Node8 -->
<g id="edge10" class="edge"><title>Node7&#45;&gt;Node8</title>
<path fill="none" stroke="midnightblue" d="M247.021,-171.314C313.61,-164.283 415.246,-150.888 449,-132 469.175,-120.711 485.707,-99.4749 495.677,-84.3491"/>
<polygon fill="midnightblue" stroke="midnightblue" points="498.651,-86.1932 501.01,-75.8642 492.725,-82.4681 498.651,-86.1932"/>
</g>
<!-- Node9 -->
<g id="node9" class="node"><title>Node9</title>
<g id="a_node9"><a xlink:href="IEntityManager_8hpp.html" target="_top" xlink:title="IEntityManager.hpp">
<polygon fill="none" stroke="black" points="101,-112.5 101,-131.5 209,-131.5 209,-112.5 101,-112.5"/>
<text text-anchor="middle" x="155" y="-119.5" font-family="Helvetica,sans-Serif" font-size="10.00">IEntityManager.hpp</text>
</a>
</g>
</g>
<!-- Node7&#45;&gt;Node9 -->
<g id="edge11" class="edge"><title>Node7&#45;&gt;Node9</title>
<path fill="none" stroke="midnightblue" d="M180.881,-168.083C176.592,-160.613 170.342,-149.724 165.058,-140.52"/>
<polygon fill="midnightblue" stroke="midnightblue" points="168.038,-138.681 160.024,-131.751 161.967,-142.166 168.038,-138.681"/>
</g>
<!-- Node11 -->
<g id="node11" class="node"><title>Node11</title>
<g id="a_node11"><a xlink:href="IComponentManager_8hpp.html" target="_top" xlink:title="IComponentManager.hpp">
<polygon fill="none" stroke="black" points="303.5,-112.5 303.5,-131.5 440.5,-131.5 440.5,-112.5 303.5,-112.5"/>
<text text-anchor="middle" x="372" y="-119.5" font-family="Helvetica,sans-Serif" font-size="10.00">IComponentManager.hpp</text>
</a>
</g>
</g>
<!-- Node7&#45;&gt;Node11 -->
<g id="edge16" class="edge"><title>Node7&#45;&gt;Node11</title>
<path fill="none" stroke="midnightblue" d="M215.472,-168.444C247.171,-159.241 297.732,-144.562 332.775,-134.388"/>
<polygon fill="midnightblue" stroke="midnightblue" points="334.038,-137.666 342.666,-131.516 332.086,-130.943 334.038,-137.666"/>
</g>
<!-- Node9&#45;&gt;Node3 -->
<g id="edge12" class="edge"><title>Node9&#45;&gt;Node3</title>
<path fill="none" stroke="midnightblue" d="M174.014,-112.444C193.588,-103.636 224.308,-89.8116 246.729,-79.722"/>
<polygon fill="midnightblue" stroke="midnightblue" points="248.392,-82.8119 256.075,-75.5164 245.519,-76.4284 248.392,-82.8119"/>
</g>
<!-- Node9&#45;&gt;Node4 -->
<g id="edge15" class="edge"><title>Node9&#45;&gt;Node4</title>
<path fill="none" stroke="midnightblue" d="M147.239,-112.083C140.463,-104.298 130.457,-92.8015 122.245,-83.3665"/>
<polygon fill="midnightblue" stroke="midnightblue" points="124.822,-80.9963 115.617,-75.7511 119.542,-85.592 124.822,-80.9963"/>
</g>
<!-- Node9&#45;&gt;Node8 -->
<g id="edge14" class="edge"><title>Node9&#45;&gt;Node8</title>
<path fill="none" stroke="midnightblue" d="M209.233,-114.329C269.145,-106.691 368.687,-93.2075 464.144,-76.0397"/>
<polygon fill="midnightblue" stroke="midnightblue" points="465.047,-79.433 474.261,-74.2032 463.797,-72.5456 465.047,-79.433"/>
</g>
<!-- Node10 -->
<g id="node10" class="node"><title>Node10</title>
<polygon fill="none" stroke="#bfbfbf" points="181.5,-56.5 181.5,-75.5 228.5,-75.5 228.5,-56.5 181.5,-56.5"/>
<text text-anchor="middle" x="205" y="-63.5" font-family="Helvetica,sans-Serif" font-size="10.00">vector</text>
</g>
<!-- Node9&#45;&gt;Node10 -->
<g id="edge13" class="edge"><title>Node9&#45;&gt;Node10</title>
<path fill="none" stroke="midnightblue" d="M163.256,-112.083C170.465,-104.298 181.11,-92.8015 189.846,-83.3665"/>
<polygon fill="midnightblue" stroke="midnightblue" points="192.671,-85.4666 196.897,-75.7511 187.535,-80.7108 192.671,-85.4666"/>
</g>
<!-- Node11&#45;&gt;Node3 -->
<g id="edge18" class="edge"><title>Node11&#45;&gt;Node3</title>
<path fill="none" stroke="midnightblue" d="M356.415,-112.324C341.001,-103.743 317.188,-90.486 299.29,-80.5224"/>
<polygon fill="midnightblue" stroke="midnightblue" points="300.986,-77.4606 290.546,-75.6545 297.581,-83.5767 300.986,-77.4606"/>
</g>
<!-- Node11&#45;&gt;Node5 -->
<g id="edge17" class="edge"><title>Node11&#45;&gt;Node5</title>
<path fill="none" stroke="midnightblue" d="M364.501,-112.325C353.399,-99.61 331.765,-75.3263 312,-56 301.447,-45.6808 289.04,-34.7101 279.106,-26.1844"/>
<polygon fill="midnightblue" stroke="midnightblue" points="281.324,-23.4761 271.438,-19.6659 276.79,-28.8095 281.324,-23.4761"/>
</g>
<!-- Node11&#45;&gt;Node8 -->
<g id="edge21" class="edge"><title>Node11&#45;&gt;Node8</title>
<path fill="none" stroke="midnightblue" d="M393.233,-112.444C415.384,-103.517 450.319,-89.4387 475.436,-79.3168"/>
<polygon fill="midnightblue" stroke="midnightblue" points="476.9,-82.5006 484.867,-75.5164 474.283,-76.0079 476.9,-82.5006"/>
</g>
<!-- Node12 -->
<g id="node12" class="node"><title>Node12</title>
<g id="a_node12"><a xlink:href="IComponent_8hpp.html" target="_top" xlink:title="IComponent.hpp">
<polygon fill="none" stroke="black" points="360,-56.5 360,-75.5 456,-75.5 456,-56.5 360,-56.5"/>
<text text-anchor="middle" x="408" y="-63.5" font-family="Helvetica,sans-Serif" font-size="10.00">IComponent.hpp</text>
</a>
</g>
</g>
<!-- Node11&#45;&gt;Node12 -->
<g id="edge19" class="edge"><title>Node11&#45;&gt;Node12</title>
<path fill="none" stroke="midnightblue" d="M377.945,-112.083C382.977,-104.534 390.337,-93.4948 396.513,-84.2298"/>
<polygon fill="midnightblue" stroke="midnightblue" points="399.531,-86.0131 402.166,-75.7511 393.707,-82.1301 399.531,-86.0131"/>
</g>
<!-- Node13 -->
<g id="node13" class="node"><title>Node13</title>
<polygon fill="none" stroke="#bfbfbf" points="376.5,-0.5 376.5,-19.5 439.5,-19.5 439.5,-0.5 376.5,-0.5"/>
<text text-anchor="middle" x="408" y="-7.5" font-family="Helvetica,sans-Serif" font-size="10.00">typeindex</text>
</g>
<!-- Node12&#45;&gt;Node13 -->
<g id="edge20" class="edge"><title>Node12&#45;&gt;Node13</title>
<path fill="none" stroke="midnightblue" d="M408,-56.083C408,-49.0059 408,-38.8611 408,-29.9865"/>
<polygon fill="midnightblue" stroke="midnightblue" points="411.5,-29.751 408,-19.7511 404.5,-29.7511 411.5,-29.751"/>
</g>
</g>
</svg>
