<?xml version="1.0" encoding="UTF-8" standalone="no"?>
<!DOCTYPE svg PUBLIC "-//W3C//DTD SVG 1.1//EN"
 "http://www.w3.org/Graphics/SVG/1.1/DTD/svg11.dtd">
<!-- Generated by graphviz version 2.38.0 (20140413.2041)
 -->
<!-- Title: src/Entities/EntityManager/IEntityManager.hpp Pages: 1 -->
<svg width="416pt" height="151pt"
 viewBox="0.00 0.00 415.50 151.00" xmlns="http://www.w3.org/2000/svg" xmlns:xlink="http://www.w3.org/1999/xlink">
<g id="graph0" class="graph" transform="scale(1 1) rotate(0) translate(4 147)">
<title>src/Entities/EntityManager/IEntityManager.hpp</title>
<!-- Node1 -->
<g id="node1" class="node"><title>Node1</title>
<polygon fill="#bfbfbf" stroke="black" points="64,-112.5 64,-142.5 205,-142.5 205,-112.5 64,-112.5"/>
<text text-anchor="start" x="72" y="-130.5" font-family="Helvetica,sans-Serif" font-size="10.00">src/Entities/EntityManager</text>
<text text-anchor="middle" x="134.5" y="-119.5" font-family="Helvetica,sans-Serif" font-size="10.00">/IEntityManager.hpp</text>
</g>
<!-- Node2 -->
<g id="node2" class="node"><title>Node2</title>
<polygon fill="none" stroke="#bfbfbf" points="0,-56.5 0,-75.5 57,-75.5 57,-56.5 0,-56.5"/>
<text text-anchor="middle" x="28.5" y="-63.5" font-family="Helvetica,sans-Serif" font-size="10.00">memory</text>
</g>
<!-- Node1&#45;&gt;Node2 -->
<g id="edge1" class="edge"><title>Node1&#45;&gt;Node2</title>
<path fill="none" stroke="midnightblue" d="M109.379,-112.399C92.2297,-102.773 69.6354,-90.0902 52.6879,-80.5772"/>
<polygon fill="midnightblue" stroke="midnightblue" points="54.3573,-77.5006 43.9239,-75.6578 50.9309,-83.6047 54.3573,-77.5006"/>
</g>
<!-- Node3 -->
<g id="node3" class="node"><title>Node3</title>
<polygon fill="none" stroke="#bfbfbf" points="75,-56.5 75,-75.5 122,-75.5 122,-56.5 75,-56.5"/>
<text text-anchor="middle" x="98.5" y="-63.5" font-family="Helvetica,sans-Serif" font-size="10.00">vector</text>
</g>
<!-- Node1&#45;&gt;Node3 -->
<g id="edge2" class="edge"><title>Node1&#45;&gt;Node3</title>
<path fill="none" stroke="midnightblue" d="M125.969,-112.399C120.899,-104.021 114.429,-93.3269 109.042,-84.4229"/>
<polygon fill="midnightblue" stroke="midnightblue" points="111.91,-82.4018 103.738,-75.6578 105.92,-86.0255 111.91,-82.4018"/>
</g>
<!-- Node4 -->
<g id="node4" class="node"><title>Node4</title>
<g id="a_node4"><a xlink:href="Entity_8hpp.html" target="_top" xlink:title="Entity.hpp">
<polygon fill="none" stroke="black" points="140,-56.5 140,-75.5 203,-75.5 203,-56.5 140,-56.5"/>
<text text-anchor="middle" x="171.5" y="-63.5" font-family="Helvetica,sans-Serif" font-size="10.00">Entity.hpp</text>
</a>
</g>
</g>
<!-- Node1&#45;&gt;Node4 -->
<g id="edge3" class="edge"><title>Node1&#45;&gt;Node4</title>
<path fill="none" stroke="midnightblue" d="M143.268,-112.399C148.479,-104.021 155.129,-93.3269 160.666,-84.4229"/>
<polygon fill="midnightblue" stroke="midnightblue" points="163.808,-85.9981 166.116,-75.6578 157.863,-82.3015 163.808,-85.9981"/>
</g>
<!-- Node5 -->
<g id="node5" class="node"><title>Node5</title>
<g id="a_node5"><a xlink:href="PacketManager_8hpp.html" target="_top" xlink:title="PacketManager.hpp">
<polygon fill="none" stroke="black" points="221.5,-56.5 221.5,-75.5 331.5,-75.5 331.5,-56.5 221.5,-56.5"/>
<text text-anchor="middle" x="276.5" y="-63.5" font-family="Helvetica,sans-Serif" font-size="10.00">PacketManager.hpp</text>
</a>
</g>
</g>
<!-- Node1&#45;&gt;Node5 -->
<g id="edge4" class="edge"><title>Node1&#45;&gt;Node5</title>
<path fill="none" stroke="midnightblue" d="M168.152,-112.399C191.977,-102.416 223.646,-89.1465 246.588,-79.5335"/>
<polygon fill="midnightblue" stroke="midnightblue" points="247.967,-82.7505 255.838,-75.6578 245.262,-76.2944 247.967,-82.7505"/>
</g>
<!-- Node6 -->
<g id="node6" class="node"><title>Node6</title>
<polygon fill="none" stroke="#bfbfbf" points="199.5,-0.5 199.5,-19.5 243.5,-19.5 243.5,-0.5 199.5,-0.5"/>
<text text-anchor="middle" x="221.5" y="-7.5" font-family="Helvetica,sans-Serif" font-size="10.00">string</text>
</g>
<!-- Node5&#45;&gt;Node6 -->
<g id="edge5" class="edge"><title>Node5&#45;&gt;Node6</title>
<path fill="none" stroke="midnightblue" d="M267.418,-56.083C259.329,-48.1409 247.305,-36.3354 237.59,-26.7973"/>
<polygon fill="midnightblue" stroke="midnightblue" points="240.001,-24.2595 230.413,-19.7511 235.097,-29.2545 240.001,-24.2595"/>
</g>
<!-- Node7 -->
<g id="node7" class="node"><title>Node7</title>
<polygon fill="none" stroke="#bfbfbf" points="261.5,-0.5 261.5,-19.5 291.5,-19.5 291.5,-0.5 261.5,-0.5"/>
<text text-anchor="middle" x="276.5" y="-7.5" font-family="Helvetica,sans-Serif" font-size="10.00">list</text>
</g>
<!-- Node5&#45;&gt;Node7 -->
<g id="edge6" class="edge"><title>Node5&#45;&gt;Node7</title>
<path fill="none" stroke="midnightblue" d="M276.5,-56.083C276.5,-49.0059 276.5,-38.8611 276.5,-29.9865"/>
<polygon fill="midnightblue" stroke="midnightblue" points="280,-29.751 276.5,-19.7511 273,-29.7511 280,-29.751"/>
</g>
<!-- Node8 -->
<g id="node8" class="node"><title>Node8</title>
<g id="a_node8"><a xlink:href="Input_8hpp.html" target="_top" xlink:title="Render/Input.hpp">
<polygon fill="none" stroke="black" points="309.5,-0.5 309.5,-19.5 407.5,-19.5 407.5,-0.5 309.5,-0.5"/>
<text text-anchor="middle" x="358.5" y="-7.5" font-family="Helvetica,sans-Serif" font-size="10.00">Render/Input.hpp</text>
</a>
</g>
</g>
<!-- Node5&#45;&gt;Node8 -->
<g id="edge7" class="edge"><title>Node5&#45;&gt;Node8</title>
<path fill="none" stroke="midnightblue" d="M289.675,-56.324C302.347,-47.979 321.733,-35.2122 336.706,-25.3524"/>
<polygon fill="midnightblue" stroke="midnightblue" points="338.931,-28.0776 345.358,-19.6545 335.081,-22.2313 338.931,-28.0776"/>
</g>
</g>
</svg>
