<?xml version="1.0" encoding="UTF-8" standalone="no"?>
<!DOCTYPE svg PUBLIC "-//W3C//DTD SVG 1.1//EN"
 "http://www.w3.org/Graphics/SVG/1.1/DTD/svg11.dtd">
<!-- Generated by graphviz version 2.38.0 (20140413.2041)
 -->
<!-- Title: src/Components/GameLogic/IGameLogic.hpp Pages: 1 -->
<svg width="170pt" height="151pt"
 viewBox="0.00 0.00 170.00 151.00" xmlns="http://www.w3.org/2000/svg" xmlns:xlink="http://www.w3.org/1999/xlink">
<g id="graph0" class="graph" transform="scale(1 1) rotate(0) translate(4 147)">
<title>src/Components/GameLogic/IGameLogic.hpp</title>
<!-- Node1 -->
<g id="node1" class="node"><title>Node1</title>
<polygon fill="#bfbfbf" stroke="black" points="0,-112.5 0,-142.5 152,-142.5 152,-112.5 0,-112.5"/>
<text text-anchor="start" x="8" y="-130.5" font-family="Helvetica,sans-Serif" font-size="10.00">src/Components/GameLogic</text>
<text text-anchor="middle" x="76" y="-119.5" font-family="Helvetica,sans-Serif" font-size="10.00">/IGameLogic.hpp</text>
</g>
<!-- Node2 -->
<g id="node2" class="node"><title>Node2</title>
<polygon fill="none" stroke="#bfbfbf" points="44.5,-0.5 44.5,-19.5 107.5,-19.5 107.5,-0.5 44.5,-0.5"/>
<text text-anchor="middle" x="76" y="-7.5" font-family="Helvetica,sans-Serif" font-size="10.00">typeindex</text>
</g>
<!-- Node1&#45;&gt;Node2 -->
<g id="edge1" class="edge"><title>Node1&#45;&gt;Node2</title>
<path fill="none" stroke="midnightblue" d="M68.1611,-112.314C61.2986,-98.1661 53.0005,-75.7545 57,-56 58.8931,-46.6493 62.7916,-36.8267 66.5674,-28.7526"/>
<polygon fill="midnightblue" stroke="midnightblue" points="69.7876,-30.1381 71.1241,-19.6279 63.5251,-27.0106 69.7876,-30.1381"/>
</g>
<!-- Node3 -->
<g id="node3" class="node"><title>Node3</title>
<g id="a_node3"><a xlink:href="IComponent_8hpp.html" target="_top" xlink:title="IComponent.hpp">
<polygon fill="none" stroke="black" points="66,-56.5 66,-75.5 162,-75.5 162,-56.5 66,-56.5"/>
<text text-anchor="middle" x="114" y="-63.5" font-family="Helvetica,sans-Serif" font-size="10.00">IComponent.hpp</text>
</a>
</g>
</g>
<!-- Node1&#45;&gt;Node3 -->
<g id="edge2" class="edge"><title>Node1&#45;&gt;Node3</title>
<path fill="none" stroke="midnightblue" d="M85.0055,-112.399C90.4135,-103.932 97.3317,-93.0991 103.054,-84.1393"/>
<polygon fill="midnightblue" stroke="midnightblue" points="106.038,-85.9695 108.471,-75.6578 100.138,-82.2018 106.038,-85.9695"/>
</g>
<!-- Node3&#45;&gt;Node2 -->
<g id="edge3" class="edge"><title>Node3&#45;&gt;Node2</title>
<path fill="none" stroke="midnightblue" d="M107.725,-56.083C102.358,-48.4554 94.4824,-37.2645 87.9213,-27.9408"/>
<polygon fill="midnightblue" stroke="midnightblue" points="90.7755,-25.9149 82.1582,-19.7511 85.0508,-29.9434 90.7755,-25.9149"/>
</g>
</g>
</svg>
