<?xml version="1.0" encoding="UTF-8" standalone="no"?>
<!DOCTYPE svg PUBLIC "-//W3C//DTD SVG 1.1//EN"
 "http://www.w3.org/Graphics/SVG/1.1/DTD/svg11.dtd">
<!-- Generated by graphviz version 2.38.0 (20140413.2041)
 -->
<!-- Title: src/Components/IO/IIO.hpp Pages: 1 -->
<svg width="151pt" height="140pt"
 viewBox="0.00 0.00 151.00 140.00" xmlns="http://www.w3.org/2000/svg" xmlns:xlink="http://www.w3.org/1999/xlink">
<g id="graph0" class="graph" transform="scale(1 1) rotate(0) translate(4 136)">
<title>src/Components/IO/IIO.hpp</title>
<!-- Node1 -->
<g id="node1" class="node"><title>Node1</title>
<polygon fill="#bfbfbf" stroke="black" points="0,-112.5 0,-131.5 143,-131.5 143,-112.5 0,-112.5"/>
<text text-anchor="middle" x="71.5" y="-119.5" font-family="Helvetica,sans-Serif" font-size="10.00">src/Components/IO/IIO.hpp</text>
</g>
<!-- Node2 -->
<g id="node2" class="node"><title>Node2</title>
<g id="a_node2"><a xlink:href="IComponent_8hpp.html" target="_top" xlink:title="IComponent.hpp">
<polygon fill="none" stroke="black" points="23.5,-56.5 23.5,-75.5 119.5,-75.5 119.5,-56.5 23.5,-56.5"/>
<text text-anchor="middle" x="71.5" y="-63.5" font-family="Helvetica,sans-Serif" font-size="10.00">IComponent.hpp</text>
</a>
</g>
</g>
<!-- Node1&#45;&gt;Node2 -->
<g id="edge1" class="edge"><title>Node1&#45;&gt;Node2</title>
<path fill="none" stroke="midnightblue" d="M71.5,-112.083C71.5,-105.006 71.5,-94.8611 71.5,-85.9865"/>
<polygon fill="midnightblue" stroke="midnightblue" points="75.0001,-85.751 71.5,-75.7511 68.0001,-85.7511 75.0001,-85.751"/>
</g>
<!-- Node3 -->
<g id="node3" class="node"><title>Node3</title>
<polygon fill="none" stroke="#bfbfbf" points="40,-0.5 40,-19.5 103,-19.5 103,-0.5 40,-0.5"/>
<text text-anchor="middle" x="71.5" y="-7.5" font-family="Helvetica,sans-Serif" font-size="10.00">typeindex</text>
</g>
<!-- Node2&#45;&gt;Node3 -->
<g id="edge2" class="edge"><title>Node2&#45;&gt;Node3</title>
<path fill="none" stroke="midnightblue" d="M71.5,-56.083C71.5,-49.0059 71.5,-38.8611 71.5,-29.9865"/>
<polygon fill="midnightblue" stroke="midnightblue" points="75.0001,-29.751 71.5,-19.7511 68.0001,-29.7511 75.0001,-29.751"/>
</g>
</g>
</svg>
