<?xml version="1.0" encoding="UTF-8" standalone="no"?>
<!DOCTYPE svg PUBLIC "-//W3C//DTD SVG 1.1//EN"
 "http://www.w3.org/Graphics/SVG/1.1/DTD/svg11.dtd">
<!-- Generated by graphviz version 2.38.0 (20140413.2041)
 -->
<!-- Title: Graphical Class Hierarchy Pages: 1 -->
<svg width="503pt" height="406pt"
 viewBox="0.00 0.00 503.00 405.50" xmlns="http://www.w3.org/2000/svg" xmlns:xlink="http://www.w3.org/1999/xlink">
<g id="graph0" class="graph" transform="scale(1 1) rotate(0) translate(4 401.5)">
<title>Graphical Class Hierarchy</title>
<!-- Node1 -->
<g id="node1" class="node"><title>Node1</title>
<g id="a_node1"><a xlink:href="classecs_1_1system_1_1ISystem.html" target="_top" xlink:title="ecs::system::ISystem">
<polygon fill="none" stroke="black" points="0,-192 0,-211 119,-211 119,-192 0,-192"/>
<text text-anchor="middle" x="59.5" y="-199" font-family="Helvetica,sans-Serif" font-size="10.00">ecs::system::ISystem</text>
</a>
</g>
</g>
<!-- Node2 -->
<g id="node2" class="node"><title>Node2</title>
<g id="a_node2"><a xlink:href="classecs_1_1system_1_1ASystem.html" target="_top" xlink:title="ecs::system::ASystem">
<polygon fill="none" stroke="black" points="155,-192 155,-211 279,-211 279,-192 155,-192"/>
<text text-anchor="middle" x="217" y="-199" font-family="Helvetica,sans-Serif" font-size="10.00">ecs::system::ASystem</text>
</a>
</g>
</g>
<!-- Node1&#45;&gt;Node2 -->
<g id="edge1" class="edge"><title>Node1&#45;&gt;Node2</title>
<path fill="none" stroke="midnightblue" d="M129.48,-201.5C137.915,-201.5 146.489,-201.5 154.799,-201.5"/>
<polygon fill="midnightblue" stroke="midnightblue" points="129.288,-198 119.288,-201.5 129.288,-205 129.288,-198"/>
</g>
<!-- Node3 -->
<g id="node3" class="node"><title>Node3</title>
<g id="a_node3"><a xlink:href="classecs_1_1system_1_1AnimationSystem.html" target="_top" xlink:title="ecs::system::AnimationSystem">
<polygon fill="none" stroke="black" points="322,-378 322,-397 488,-397 488,-378 322,-378"/>
<text text-anchor="middle" x="405" y="-385" font-family="Helvetica,sans-Serif" font-size="10.00">ecs::system::AnimationSystem</text>
</a>
</g>
</g>
<!-- Node2&#45;&gt;Node3 -->
<g id="edge2" class="edge"><title>Node2&#45;&gt;Node3</title>
<path fill="none" stroke="midnightblue" d="M223.52,-220.939C234.613,-256.276 263.098,-330.86 315,-368.5 320.244,-372.303 326.091,-375.375 332.214,-377.853"/>
<polygon fill="midnightblue" stroke="midnightblue" points="226.859,-219.886 220.629,-211.316 220.155,-221.9 226.859,-219.886"/>
</g>
<!-- Node4 -->
<g id="node4" class="node"><title>Node4</title>
<g id="a_node4"><a xlink:href="classecs_1_1system_1_1ButtonColorSystem.html" target="_top" xlink:title="ecs::system::ButtonColor\lSystem">
<polygon fill="none" stroke="black" points="336.5,-328.5 336.5,-358.5 473.5,-358.5 473.5,-328.5 336.5,-328.5"/>
<text text-anchor="start" x="344.5" y="-346.5" font-family="Helvetica,sans-Serif" font-size="10.00">ecs::system::ButtonColor</text>
<text text-anchor="middle" x="405" y="-335.5" font-family="Helvetica,sans-Serif" font-size="10.00">System</text>
</a>
</g>
</g>
<!-- Node2&#45;&gt;Node4 -->
<g id="edge3" class="edge"><title>Node2&#45;&gt;Node4</title>
<path fill="none" stroke="midnightblue" d="M228.268,-219.852C243.71,-245.756 275.37,-292.75 315,-318.5 321.594,-322.785 328.925,-326.345 336.468,-329.302"/>
<polygon fill="midnightblue" stroke="midnightblue" points="231.206,-217.94 223.161,-211.045 225.15,-221.452 231.206,-217.94"/>
</g>
<!-- Node5 -->
<g id="node5" class="node"><title>Node5</title>
<g id="a_node5"><a xlink:href="classecs_1_1system_1_1ChooseRoomSystem.html" target="_top" xlink:title="ecs::system::ChooseRoomSystem">
<polygon fill="none" stroke="black" points="315,-290 315,-309 495,-309 495,-290 315,-290"/>
<text text-anchor="middle" x="405" y="-297" font-family="Helvetica,sans-Serif" font-size="10.00">ecs::system::ChooseRoomSystem</text>
</a>
</g>
</g>
<!-- Node2&#45;&gt;Node5 -->
<g id="edge4" class="edge"><title>Node2&#45;&gt;Node5</title>
<path fill="none" stroke="midnightblue" d="M234.167,-218.845C252.143,-237.049 282.899,-265.116 315,-280.5 323.121,-284.392 332.038,-287.493 340.994,-289.962"/>
<polygon fill="midnightblue" stroke="midnightblue" points="236.309,-216.024 226.848,-211.256 231.27,-220.884 236.309,-216.024"/>
</g>
<!-- Node6 -->
<g id="node6" class="node"><title>Node6</title>
<g id="a_node6"><a xlink:href="classecs_1_1system_1_1DefeatSystem.html" target="_top" xlink:title="ecs::system::DefeatSystem">
<polygon fill="none" stroke="black" points="330.5,-252 330.5,-271 479.5,-271 479.5,-252 330.5,-252"/>
<text text-anchor="middle" x="405" y="-259" font-family="Helvetica,sans-Serif" font-size="10.00">ecs::system::DefeatSystem</text>
</a>
</g>
</g>
<!-- Node2&#45;&gt;Node6 -->
<g id="edge5" class="edge"><title>Node2&#45;&gt;Node6</title>
<path fill="none" stroke="midnightblue" d="M246.939,-215.439C265.943,-224.163 291.537,-235.11 315,-242.5 326.604,-246.155 339.279,-249.33 351.331,-251.983"/>
<polygon fill="midnightblue" stroke="midnightblue" points="248.191,-212.161 237.648,-211.11 245.234,-218.506 248.191,-212.161"/>
</g>
<!-- Node7 -->
<g id="node7" class="node"><title>Node7</title>
<g id="a_node7"><a xlink:href="classecs_1_1system_1_1DisplaySystem.html" target="_top" xlink:title="ecs::system::DisplaySystem">
<polygon fill="none" stroke="black" points="329,-214 329,-233 481,-233 481,-214 329,-214"/>
<text text-anchor="middle" x="405" y="-221" font-family="Helvetica,sans-Serif" font-size="10.00">ecs::system::DisplaySystem</text>
</a>
</g>
</g>
<!-- Node2&#45;&gt;Node7 -->
<g id="edge6" class="edge"><title>Node2&#45;&gt;Node7</title>
<path fill="none" stroke="midnightblue" d="M289.379,-209.943C302.303,-211.471 315.818,-213.07 328.846,-214.611"/>
<polygon fill="midnightblue" stroke="midnightblue" points="289.503,-206.433 279.161,-208.734 288.681,-213.385 289.503,-206.433"/>
</g>
<!-- Node8 -->
<g id="node8" class="node"><title>Node8</title>
<g id="a_node8"><a xlink:href="classecs_1_1system_1_1EnemiesMovementSystem.html" target="_top" xlink:title="ecs::system::EnemiesMovement\lSystem">
<polygon fill="none" stroke="black" points="318.5,-164.5 318.5,-194.5 491.5,-194.5 491.5,-164.5 318.5,-164.5"/>
<text text-anchor="start" x="326.5" y="-182.5" font-family="Helvetica,sans-Serif" font-size="10.00">ecs::system::EnemiesMovement</text>
<text text-anchor="middle" x="405" y="-171.5" font-family="Helvetica,sans-Serif" font-size="10.00">System</text>
</a>
</g>
</g>
<!-- Node2&#45;&gt;Node8 -->
<g id="edge7" class="edge"><title>Node2&#45;&gt;Node8</title>
<path fill="none" stroke="midnightblue" d="M289.282,-193.069C298.742,-191.95 308.52,-190.793 318.194,-189.649"/>
<polygon fill="midnightblue" stroke="midnightblue" points="288.681,-189.615 279.161,-194.266 289.503,-196.567 288.681,-189.615"/>
</g>
<!-- Node9 -->
<g id="node9" class="node"><title>Node9</title>
<g id="a_node9"><a xlink:href="classecs_1_1system_1_1MenuSystem.html" target="_top" xlink:title="ecs::system::MenuSystem">
<polygon fill="none" stroke="black" points="333.5,-126 333.5,-145 476.5,-145 476.5,-126 333.5,-126"/>
<text text-anchor="middle" x="405" y="-133" font-family="Helvetica,sans-Serif" font-size="10.00">ecs::system::MenuSystem</text>
</a>
</g>
</g>
<!-- Node2&#45;&gt;Node9 -->
<g id="edge8" class="edge"><title>Node2&#45;&gt;Node9</title>
<path fill="none" stroke="midnightblue" d="M244.034,-187.209C263.194,-177.177 290.128,-164.073 315,-155.5 326.978,-151.371 340.161,-147.87 352.626,-145.007"/>
<polygon fill="midnightblue" stroke="midnightblue" points="242.221,-184.208 235.035,-191.994 245.508,-190.389 242.221,-184.208"/>
</g>
<!-- Node10 -->
<g id="node10" class="node"><title>Node10</title>
<g id="a_node10"><a xlink:href="classecs_1_1system_1_1MovementSystem.html" target="_top" xlink:title="ecs::system::MovementSystem">
<polygon fill="none" stroke="black" points="321,-88 321,-107 489,-107 489,-88 321,-88"/>
<text text-anchor="middle" x="405" y="-95" font-family="Helvetica,sans-Serif" font-size="10.00">ecs::system::MovementSystem</text>
</a>
</g>
</g>
<!-- Node2&#45;&gt;Node10 -->
<g id="edge9" class="edge"><title>Node2&#45;&gt;Node10</title>
<path fill="none" stroke="midnightblue" d="M232.586,-184.252C250.109,-164.702 281.376,-133.366 315,-116.5 322.767,-112.604 331.305,-109.505 339.924,-107.04"/>
<polygon fill="midnightblue" stroke="midnightblue" points="229.904,-182.003 225.951,-191.833 235.171,-186.613 229.904,-182.003"/>
</g>
<!-- Node11 -->
<g id="node11" class="node"><title>Node11</title>
<g id="a_node11"><a xlink:href="classecs_1_1system_1_1ParallaxSystem.html" target="_top" xlink:title="ecs::system::ParallaxSystem">
<polygon fill="none" stroke="black" points="328,-50 328,-69 482,-69 482,-50 328,-50"/>
<text text-anchor="middle" x="405" y="-57" font-family="Helvetica,sans-Serif" font-size="10.00">ecs::system::ParallaxSystem</text>
</a>
</g>
</g>
<!-- Node2&#45;&gt;Node11 -->
<g id="edge10" class="edge"><title>Node2&#45;&gt;Node11</title>
<path fill="none" stroke="midnightblue" d="M227.171,-183.023C241.786,-155.612 273.05,-104.607 315,-78.5 321.17,-74.6599 327.997,-71.5864 335.045,-69.1279"/>
<polygon fill="midnightblue" stroke="midnightblue" points="224.032,-181.474 222.55,-191.965 230.25,-184.688 224.032,-181.474"/>
</g>
<!-- Node12 -->
<g id="node12" class="node"><title>Node12</title>
<g id="a_node12"><a xlink:href="classecs_1_1system_1_1PlayerMovementSystem.html" target="_top" xlink:title="ecs::system::PlayerMovement\lSystem">
<polygon fill="none" stroke="black" points="324.5,-0.5 324.5,-30.5 485.5,-30.5 485.5,-0.5 324.5,-0.5"/>
<text text-anchor="start" x="332.5" y="-18.5" font-family="Helvetica,sans-Serif" font-size="10.00">ecs::system::PlayerMovement</text>
<text text-anchor="middle" x="405" y="-7.5" font-family="Helvetica,sans-Serif" font-size="10.00">System</text>
</a>
</g>
</g>
<!-- Node2&#45;&gt;Node12 -->
<g id="edge11" class="edge"><title>Node2&#45;&gt;Node12</title>
<path fill="none" stroke="midnightblue" d="M224.281,-182.136C236.299,-148.187 265.818,-77.9811 315,-40.5 320.106,-36.6087 325.789,-33.3231 331.745,-30.5489"/>
<polygon fill="midnightblue" stroke="midnightblue" points="220.901,-181.202 220.991,-191.797 227.528,-183.459 220.901,-181.202"/>
</g>
</g>
</svg>
