<?xml version="1.0" encoding="UTF-8" standalone="no"?>
<!DOCTYPE svg PUBLIC "-//W3C//DTD SVG 1.1//EN"
 "http://www.w3.org/Graphics/SVG/1.1/DTD/svg11.dtd">
<!-- Generated by graphviz version 2.38.0 (20140413.2041)
 -->
<!-- Title: Graphical Class Hierarchy Pages: 1 -->
<svg width="328pt" height="66pt"
 viewBox="0.00 0.00 328.00 66.00" xmlns="http://www.w3.org/2000/svg" xmlns:xlink="http://www.w3.org/1999/xlink">
<g id="graph0" class="graph" transform="scale(1 1) rotate(0) translate(4 62)">
<title>Graphical Class Hierarchy</title>
<!-- Node1 -->
<g id="node1" class="node"><title>Node1</title>
<g id="a_node1"><a xlink:href="classecs_1_1network_1_1AUDPNetwork.html" target="_top" xlink:title="ecs::network::AUDPNetwork">
<polygon fill="none" stroke="black" points="0,-19.5 0,-38.5 149,-38.5 149,-19.5 0,-19.5"/>
<text text-anchor="middle" x="74.5" y="-26.5" font-family="Helvetica,sans-Serif" font-size="10.00">ecs::network::AUDPNetwork</text>
</a>
</g>
</g>
<!-- Node2 -->
<g id="node2" class="node"><title>Node2</title>
<g id="a_node2"><a xlink:href="classecs_1_1network_1_1UDPClient.html" target="_top" xlink:title="ecs::network::UDPClient">
<polygon fill="none" stroke="black" points="187,-38.5 187,-57.5 318,-57.5 318,-38.5 187,-38.5"/>
<text text-anchor="middle" x="252.5" y="-45.5" font-family="Helvetica,sans-Serif" font-size="10.00">ecs::network::UDPClient</text>
</a>
</g>
</g>
<!-- Node1&#45;&gt;Node2 -->
<g id="edge1" class="edge"><title>Node1&#45;&gt;Node2</title>
<path fill="none" stroke="midnightblue" d="M159.168,-38.0324C168.47,-39.0365 177.836,-40.0477 186.85,-41.0208"/>
<polygon fill="midnightblue" stroke="midnightblue" points="159.438,-34.5412 149.12,-36.9476 158.687,-41.5008 159.438,-34.5412"/>
</g>
<!-- Node3 -->
<g id="node3" class="node"><title>Node3</title>
<g id="a_node3"><a xlink:href="classecs_1_1network_1_1UDPServer.html" target="_top" xlink:title="ecs::network::UDPServer">
<polygon fill="none" stroke="black" points="185,-0.5 185,-19.5 320,-19.5 320,-0.5 185,-0.5"/>
<text text-anchor="middle" x="252.5" y="-7.5" font-family="Helvetica,sans-Serif" font-size="10.00">ecs::network::UDPServer</text>
</a>
</g>
</g>
<!-- Node1&#45;&gt;Node3 -->
<g id="edge2" class="edge"><title>Node1&#45;&gt;Node3</title>
<path fill="none" stroke="midnightblue" d="M159.2,-19.9643C167.824,-19.0332 176.504,-18.0961 184.907,-17.189"/>
<polygon fill="midnightblue" stroke="midnightblue" points="158.687,-16.4992 149.12,-21.0524 159.438,-23.4588 158.687,-16.4992"/>
</g>
</g>
</svg>
