<?xml version="1.0" encoding="UTF-8" standalone="no"?>
<!DOCTYPE svg PUBLIC "-//W3C//DTD SVG 1.1//EN"
 "http://www.w3.org/Graphics/SVG/1.1/DTD/svg11.dtd">
<!-- Generated by graphviz version 2.38.0 (20140413.2041)
 -->
<!-- Title: Graphical Class Hierarchy Pages: 1 -->
<svg width="377pt" height="1056pt"
 viewBox="0.00 0.00 377.00 1056.00" xmlns="http://www.w3.org/2000/svg" xmlns:xlink="http://www.w3.org/1999/xlink">
<g id="graph0" class="graph" transform="scale(1 1) rotate(0) translate(4 1052)">
<title>Graphical Class Hierarchy</title>
<!-- Node1 -->
<g id="node1" class="node"><title>Node1</title>
<g id="a_node1"><a xlink:href="classecs_1_1entities_1_1IEntityConstructor.html" target="_top" xlink:title="ecs::entities::IEntityConstructor">
<polygon fill="none" stroke="black" points="0,-492.5 0,-511.5 166,-511.5 166,-492.5 0,-492.5"/>
<text text-anchor="middle" x="83" y="-499.5" font-family="Helvetica,sans-Serif" font-size="10.00">ecs::entities::IEntityConstructor</text>
</a>
</g>
</g>
<!-- Node2 -->
<g id="node2" class="node"><title>Node2</title>
<g id="a_node2"><a xlink:href="classecs_1_1entities_1_1BackEntity.html" target="_top" xlink:title="ecs::entities::BackEntity">
<polygon fill="none" stroke="black" points="220,-1028.5 220,-1047.5 351,-1047.5 351,-1028.5 220,-1028.5"/>
<text text-anchor="middle" x="285.5" y="-1035.5" font-family="Helvetica,sans-Serif" font-size="10.00">ecs::entities::BackEntity</text>
</a>
</g>
</g>
<!-- Node1&#45;&gt;Node2 -->
<g id="edge1" class="edge"><title>Node1&#45;&gt;Node2</title>
<path fill="none" stroke="midnightblue" d="M85.7363,-521.66C93.6893,-607.241 129.407,-946.265 202,-1019 207.088,-1024.1 213.25,-1027.94 219.89,-1030.82"/>
<polygon fill="midnightblue" stroke="midnightblue" points="89.2052,-521.158 84.8147,-511.516 82.2339,-521.792 89.2052,-521.158"/>
</g>
<!-- Node3 -->
<g id="node3" class="node"><title>Node3</title>
<g id="a_node3"><a xlink:href="classecs_1_1entities_1_1BackgroundMenuEntity.html" target="_top" xlink:title="ecs::entities::Background\lMenuEntity">
<polygon fill="none" stroke="black" points="217,-979 217,-1009 354,-1009 354,-979 217,-979"/>
<text text-anchor="start" x="225" y="-997" font-family="Helvetica,sans-Serif" font-size="10.00">ecs::entities::Background</text>
<text text-anchor="middle" x="285.5" y="-986" font-family="Helvetica,sans-Serif" font-size="10.00">MenuEntity</text>
</a>
</g>
</g>
<!-- Node1&#45;&gt;Node3 -->
<g id="edge2" class="edge"><title>Node1&#45;&gt;Node3</title>
<path fill="none" stroke="midnightblue" d="M86.3923,-521.977C96.437,-602.658 137.684,-903.319 202,-970 206.246,-974.402 211.248,-978.009 216.655,-980.964"/>
<polygon fill="midnightblue" stroke="midnightblue" points="89.8264,-521.225 85.1376,-511.724 82.8782,-522.075 89.8264,-521.225"/>
</g>
<!-- Node4 -->
<g id="node4" class="node"><title>Node4</title>
<g id="a_node4"><a xlink:href="classecs_1_1entities_1_1BackgroundWithoutTitleEntity.html" target="_top" xlink:title="ecs::entities::Background\lWithoutTitleEntity">
<polygon fill="none" stroke="black" points="217,-930 217,-960 354,-960 354,-930 217,-930"/>
<text text-anchor="start" x="225" y="-948" font-family="Helvetica,sans-Serif" font-size="10.00">ecs::entities::Background</text>
<text text-anchor="middle" x="285.5" y="-937" font-family="Helvetica,sans-Serif" font-size="10.00">WithoutTitleEntity</text>
</a>
</g>
</g>
<!-- Node1&#45;&gt;Node4 -->
<g id="edge3" class="edge"><title>Node1&#45;&gt;Node4</title>
<path fill="none" stroke="midnightblue" d="M83.375,-521.746C82.3978,-587.927 88.4169,-804.227 202,-920 206.297,-924.38 211.334,-927.998 216.764,-930.987"/>
<polygon fill="midnightblue" stroke="midnightblue" points="86.8796,-521.579 83.605,-511.503 79.8813,-521.422 86.8796,-521.579"/>
</g>
<!-- Node5 -->
<g id="node5" class="node"><title>Node5</title>
<g id="a_node5"><a xlink:href="classecs_1_1entities_1_1BulletEntity.html" target="_top" xlink:title="ecs::entities::BulletEntity">
<polygon fill="none" stroke="black" points="218.5,-891.5 218.5,-910.5 352.5,-910.5 352.5,-891.5 218.5,-891.5"/>
<text text-anchor="middle" x="285.5" y="-898.5" font-family="Helvetica,sans-Serif" font-size="10.00">ecs::entities::BulletEntity</text>
</a>
</g>
</g>
<!-- Node1&#45;&gt;Node5 -->
<g id="edge4" class="edge"><title>Node1&#45;&gt;Node5</title>
<path fill="none" stroke="midnightblue" d="M83.739,-521.888C84.0565,-584.891 94.0266,-781.808 202,-882 206.741,-886.399 212.289,-889.847 218.227,-892.541"/>
<polygon fill="midnightblue" stroke="midnightblue" points="87.2394,-521.746 83.7706,-511.735 80.2394,-521.724 87.2394,-521.746"/>
</g>
<!-- Node6 -->
<g id="node6" class="node"><title>Node6</title>
<g id="a_node6"><a xlink:href="classecs_1_1entities_1_1DefeatEntity.html" target="_top" xlink:title="ecs::entities::DefeatEntity">
<polygon fill="none" stroke="black" points="215.5,-853.5 215.5,-872.5 355.5,-872.5 355.5,-853.5 215.5,-853.5"/>
<text text-anchor="middle" x="285.5" y="-860.5" font-family="Helvetica,sans-Serif" font-size="10.00">ecs::entities::DefeatEntity</text>
</a>
</g>
</g>
<!-- Node1&#45;&gt;Node6 -->
<g id="edge5" class="edge"><title>Node1&#45;&gt;Node6</title>
<path fill="none" stroke="midnightblue" d="M84.5245,-521.825C87.2051,-580.614 103.49,-755.405 202,-844 206.262,-847.833 211.14,-850.939 216.348,-853.451"/>
<polygon fill="midnightblue" stroke="midnightblue" points="88.0163,-521.537 84.1494,-511.673 81.0211,-521.796 88.0163,-521.537"/>
</g>
<!-- Node7 -->
<g id="node7" class="node"><title>Node7</title>
<g id="a_node7"><a xlink:href="classecs_1_1entities_1_1EnemyBulletEntity.html" target="_top" xlink:title="ecs::entities::EnemyBullet\lEntity">
<polygon fill="none" stroke="black" points="215.5,-804 215.5,-834 355.5,-834 355.5,-804 215.5,-804"/>
<text text-anchor="start" x="223.5" y="-822" font-family="Helvetica,sans-Serif" font-size="10.00">ecs::entities::EnemyBullet</text>
<text text-anchor="middle" x="285.5" y="-811" font-family="Helvetica,sans-Serif" font-size="10.00">Entity</text>
</a>
</g>
</g>
<!-- Node1&#45;&gt;Node7 -->
<g id="edge6" class="edge"><title>Node1&#45;&gt;Node7</title>
<path fill="none" stroke="midnightblue" d="M86.1493,-521.739C92.9107,-574.097 118.527,-717.706 202,-794 206.198,-797.837 210.967,-801.085 216.046,-803.836"/>
<polygon fill="midnightblue" stroke="midnightblue" points="89.6173,-521.262 84.9501,-511.75 82.6672,-522.096 89.6173,-521.262"/>
</g>
<!-- Node8 -->
<g id="node8" class="node"><title>Node8</title>
<g id="a_node8"><a xlink:href="classecs_1_1entities_1_1EnemyEntity.html" target="_top" xlink:title="ecs::entities::EnemyEntity">
<polygon fill="none" stroke="black" points="215.5,-765.5 215.5,-784.5 355.5,-784.5 355.5,-765.5 215.5,-765.5"/>
<text text-anchor="middle" x="285.5" y="-772.5" font-family="Helvetica,sans-Serif" font-size="10.00">ecs::entities::EnemyEntity</text>
</a>
</g>
</g>
<!-- Node1&#45;&gt;Node8 -->
<g id="edge7" class="edge"><title>Node1&#45;&gt;Node8</title>
<path fill="none" stroke="midnightblue" d="M87.1318,-521.683C95.8577,-569.733 125.065,-693.642 202,-756 206.681,-759.794 211.98,-762.861 217.577,-765.335"/>
<polygon fill="midnightblue" stroke="midnightblue" points="90.553,-520.925 85.414,-511.66 83.6536,-522.108 90.553,-520.925"/>
</g>
<!-- Node9 -->
<g id="node9" class="node"><title>Node9</title>
<g id="a_node9"><a xlink:href="classecs_1_1entities_1_1EnemyType01Entity.html" target="_top" xlink:title="ecs::entities::EnemyType01\lEntity">
<polygon fill="none" stroke="black" points="212.5,-716 212.5,-746 358.5,-746 358.5,-716 212.5,-716"/>
<text text-anchor="start" x="220.5" y="-734" font-family="Helvetica,sans-Serif" font-size="10.00">ecs::entities::EnemyType01</text>
<text text-anchor="middle" x="285.5" y="-723" font-family="Helvetica,sans-Serif" font-size="10.00">Entity</text>
</a>
</g>
</g>
<!-- Node1&#45;&gt;Node9 -->
<g id="edge8" class="edge"><title>Node1&#45;&gt;Node9</title>
<path fill="none" stroke="midnightblue" d="M89.7044,-521.459C102.667,-562.222 138.262,-656.938 202,-707 206.34,-710.409 211.15,-713.334 216.201,-715.844"/>
<polygon fill="midnightblue" stroke="midnightblue" points="93.0487,-520.426 86.7677,-511.894 86.357,-522.481 93.0487,-520.426"/>
</g>
<!-- Node10 -->
<g id="node10" class="node"><title>Node10</title>
<g id="a_node10"><a xlink:href="classecs_1_1entities_1_1EnemyType02Entity.html" target="_top" xlink:title="ecs::entities::EnemyType02\lEntity">
<polygon fill="none" stroke="black" points="212.5,-667 212.5,-697 358.5,-697 358.5,-667 212.5,-667"/>
<text text-anchor="start" x="220.5" y="-685" font-family="Helvetica,sans-Serif" font-size="10.00">ecs::entities::EnemyType02</text>
<text text-anchor="middle" x="285.5" y="-674" font-family="Helvetica,sans-Serif" font-size="10.00">Entity</text>
</a>
</g>
</g>
<!-- Node1&#45;&gt;Node10 -->
<g id="edge9" class="edge"><title>Node1&#45;&gt;Node10</title>
<path fill="none" stroke="midnightblue" d="M93.0471,-520.77C109.847,-553.623 149.029,-621.515 202,-658 207.037,-661.469 212.576,-664.443 218.328,-666.99"/>
<polygon fill="midnightblue" stroke="midnightblue" points="96.1555,-519.161 88.5612,-511.773 89.891,-522.284 96.1555,-519.161"/>
</g>
<!-- Node11 -->
<g id="node11" class="node"><title>Node11</title>
<g id="a_node11"><a xlink:href="classecs_1_1entities_1_1EnemyType03Entity.html" target="_top" xlink:title="ecs::entities::EnemyType03\lEntity">
<polygon fill="none" stroke="black" points="212.5,-618 212.5,-648 358.5,-648 358.5,-618 212.5,-618"/>
<text text-anchor="start" x="220.5" y="-636" font-family="Helvetica,sans-Serif" font-size="10.00">ecs::entities::EnemyType03</text>
<text text-anchor="middle" x="285.5" y="-625" font-family="Helvetica,sans-Serif" font-size="10.00">Entity</text>
</a>
</g>
</g>
<!-- Node1&#45;&gt;Node11 -->
<g id="edge10" class="edge"><title>Node1&#45;&gt;Node11</title>
<path fill="none" stroke="midnightblue" d="M98.4884,-519.362C119.116,-542.995 159.22,-585.081 202,-609 208.119,-612.421 214.772,-615.396 221.557,-617.971"/>
<polygon fill="midnightblue" stroke="midnightblue" points="100.965,-516.873 91.8008,-511.557 95.65,-521.428 100.965,-516.873"/>
</g>
<!-- Node12 -->
<g id="node12" class="node"><title>Node12</title>
<g id="a_node12"><a xlink:href="classecs_1_1entities_1_1GameBackgroundEntity.html" target="_top" xlink:title="ecs::entities::GameBackground\lEntity">
<polygon fill="none" stroke="black" points="202,-569 202,-599 369,-599 369,-569 202,-569"/>
<text text-anchor="start" x="210" y="-587" font-family="Helvetica,sans-Serif" font-size="10.00">ecs::entities::GameBackground</text>
<text text-anchor="middle" x="285.5" y="-576" font-family="Helvetica,sans-Serif" font-size="10.00">Entity</text>
</a>
</g>
</g>
<!-- Node1&#45;&gt;Node12 -->
<g id="edge11" class="edge"><title>Node1&#45;&gt;Node12</title>
<path fill="none" stroke="midnightblue" d="M110.627,-516.341C134.202,-528.678 169.774,-546.422 202,-559 211.062,-562.537 220.841,-565.89 230.389,-568.923"/>
<polygon fill="midnightblue" stroke="midnightblue" points="112.083,-513.152 101.606,-511.577 108.814,-519.342 112.083,-513.152"/>
</g>
<!-- Node13 -->
<g id="node13" class="node"><title>Node13</title>
<g id="a_node13"><a xlink:href="classecs_1_1entities_1_1MenuEntity.html" target="_top" xlink:title="ecs::entities::MenuEntity">
<polygon fill="none" stroke="black" points="218.5,-530.5 218.5,-549.5 352.5,-549.5 352.5,-530.5 218.5,-530.5"/>
<text text-anchor="middle" x="285.5" y="-537.5" font-family="Helvetica,sans-Serif" font-size="10.00">ecs::entities::MenuEntity</text>
</a>
</g>
</g>
<!-- Node1&#45;&gt;Node13 -->
<g id="edge12" class="edge"><title>Node1&#45;&gt;Node13</title>
<path fill="none" stroke="midnightblue" d="M144.246,-513.418C172.934,-518.855 206.85,-525.283 234.143,-530.456"/>
<polygon fill="midnightblue" stroke="midnightblue" points="144.813,-509.963 134.336,-511.54 143.509,-516.841 144.813,-509.963"/>
</g>
<!-- Node14 -->
<g id="node14" class="node"><title>Node14</title>
<g id="a_node14"><a xlink:href="classecs_1_1entities_1_1NameRoomEntity.html" target="_top" xlink:title="ecs::entities::NameRoomEntity">
<polygon fill="none" stroke="black" points="203.5,-492.5 203.5,-511.5 367.5,-511.5 367.5,-492.5 203.5,-492.5"/>
<text text-anchor="middle" x="285.5" y="-499.5" font-family="Helvetica,sans-Serif" font-size="10.00">ecs::entities::NameRoomEntity</text>
</a>
</g>
</g>
<!-- Node1&#45;&gt;Node14 -->
<g id="edge13" class="edge"><title>Node1&#45;&gt;Node14</title>
<path fill="none" stroke="midnightblue" d="M176.312,-502C185.377,-502 194.53,-502 203.47,-502"/>
<polygon fill="midnightblue" stroke="midnightblue" points="176.13,-498.5 166.13,-502 176.129,-505.5 176.13,-498.5"/>
</g>
<!-- Node15 -->
<g id="node15" class="node"><title>Node15</title>
<g id="a_node15"><a xlink:href="classecs_1_1entities_1_1NumberPlayersEntity.html" target="_top" xlink:title="ecs::entities::NumberPlayers\lEntity">
<polygon fill="none" stroke="black" points="208.5,-443 208.5,-473 362.5,-473 362.5,-443 208.5,-443"/>
<text text-anchor="start" x="216.5" y="-461" font-family="Helvetica,sans-Serif" font-size="10.00">ecs::entities::NumberPlayers</text>
<text text-anchor="middle" x="285.5" y="-450" font-family="Helvetica,sans-Serif" font-size="10.00">Entity</text>
</a>
</g>
</g>
<!-- Node1&#45;&gt;Node15 -->
<g id="edge14" class="edge"><title>Node1&#45;&gt;Node15</title>
<path fill="none" stroke="midnightblue" d="M137.508,-490.258C161.56,-484.979 190.238,-478.686 215.85,-473.065"/>
<polygon fill="midnightblue" stroke="midnightblue" points="136.523,-486.89 127.506,-492.453 138.023,-493.728 136.523,-486.89"/>
</g>
<!-- Node16 -->
<g id="node16" class="node"><title>Node16</title>
<g id="a_node16"><a xlink:href="classecs_1_1entities_1_1PlanetEntity.html" target="_top" xlink:title="ecs::entities::PlanetEntity">
<polygon fill="none" stroke="black" points="217,-404.5 217,-423.5 354,-423.5 354,-404.5 217,-404.5"/>
<text text-anchor="middle" x="285.5" y="-411.5" font-family="Helvetica,sans-Serif" font-size="10.00">ecs::entities::PlanetEntity</text>
</a>
</g>
</g>
<!-- Node1&#45;&gt;Node16 -->
<g id="edge15" class="edge"><title>Node1&#45;&gt;Node16</title>
<path fill="none" stroke="midnightblue" d="M105.849,-486.853C128.835,-471.544 166.531,-448.18 202,-434 212.4,-429.842 223.897,-426.39 234.922,-423.592"/>
<polygon fill="midnightblue" stroke="midnightblue" points="103.84,-483.986 97.512,-492.484 107.758,-489.787 103.84,-483.986"/>
</g>
<!-- Node17 -->
<g id="node17" class="node"><title>Node17</title>
<g id="a_node17"><a xlink:href="classecs_1_1entities_1_1PlanetRingEntity.html" target="_top" xlink:title="ecs::entities::PlanetRing\lEntity">
<polygon fill="none" stroke="black" points="220,-355 220,-385 351,-385 351,-355 220,-355"/>
<text text-anchor="start" x="228" y="-373" font-family="Helvetica,sans-Serif" font-size="10.00">ecs::entities::PlanetRing</text>
<text text-anchor="middle" x="285.5" y="-362" font-family="Helvetica,sans-Serif" font-size="10.00">Entity</text>
</a>
</g>
</g>
<!-- Node1&#45;&gt;Node17 -->
<g id="edge16" class="edge"><title>Node1&#45;&gt;Node17</title>
<path fill="none" stroke="midnightblue" d="M98.5264,-484.706C119.199,-461.151 159.354,-419.157 202,-395 208.771,-391.164 216.196,-387.855 223.729,-385.017"/>
<polygon fill="midnightblue" stroke="midnightblue" points="95.7012,-482.623 91.8232,-492.482 101.003,-487.193 95.7012,-482.623"/>
</g>
<!-- Node18 -->
<g id="node18" class="node"><title>Node18</title>
<g id="a_node18"><a xlink:href="classecs_1_1entities_1_1PlayEntity.html" target="_top" xlink:title="ecs::entities::PlayEntity">
<polygon fill="none" stroke="black" points="222,-316.5 222,-335.5 349,-335.5 349,-316.5 222,-316.5"/>
<text text-anchor="middle" x="285.5" y="-323.5" font-family="Helvetica,sans-Serif" font-size="10.00">ecs::entities::PlayEntity</text>
</a>
</g>
</g>
<!-- Node1&#45;&gt;Node18 -->
<g id="edge17" class="edge"><title>Node1&#45;&gt;Node18</title>
<path fill="none" stroke="midnightblue" d="M92.6463,-483.459C109.054,-450.404 147.96,-381.446 202,-346 208.655,-341.635 216.173,-338.222 223.894,-335.553"/>
<polygon fill="midnightblue" stroke="midnightblue" points="89.483,-481.961 88.2846,-492.488 95.7861,-485.006 89.483,-481.961"/>
</g>
<!-- Node19 -->
<g id="node19" class="node"><title>Node19</title>
<g id="a_node19"><a xlink:href="classecs_1_1entities_1_1PlayerEntity.html" target="_top" xlink:title="ecs::entities::PlayerEntity">
<polygon fill="none" stroke="black" points="217,-278.5 217,-297.5 354,-297.5 354,-278.5 217,-278.5"/>
<text text-anchor="middle" x="285.5" y="-285.5" font-family="Helvetica,sans-Serif" font-size="10.00">ecs::entities::PlayerEntity</text>
</a>
</g>
</g>
<!-- Node1&#45;&gt;Node19 -->
<g id="edge18" class="edge"><title>Node1&#45;&gt;Node19</title>
<path fill="none" stroke="midnightblue" d="M89.9473,-482.697C103.189,-443.102 139.004,-352.593 202,-307 207.358,-303.122 213.381,-300.021 219.671,-297.542"/>
<polygon fill="midnightblue" stroke="midnightblue" points="86.5451,-481.844 86.8073,-492.435 93.2073,-483.992 86.5451,-481.844"/>
</g>
<!-- Node20 -->
<g id="node20" class="node"><title>Node20</title>
<g id="a_node20"><a xlink:href="classecs_1_1entities_1_1PlayerTwoEntity.html" target="_top" xlink:title="ecs::entities::PlayerTwo\lEntity">
<polygon fill="none" stroke="black" points="222.5,-229 222.5,-259 348.5,-259 348.5,-229 222.5,-229"/>
<text text-anchor="start" x="230.5" y="-247" font-family="Helvetica,sans-Serif" font-size="10.00">ecs::entities::PlayerTwo</text>
<text text-anchor="middle" x="285.5" y="-236" font-family="Helvetica,sans-Serif" font-size="10.00">Entity</text>
</a>
</g>
</g>
<!-- Node1&#45;&gt;Node20 -->
<g id="edge19" class="edge"><title>Node1&#45;&gt;Node20</title>
<path fill="none" stroke="midnightblue" d="M88.3368,-482.448C99.267,-437.776 132.193,-327.574 202,-269 207.962,-263.998 214.905,-259.996 222.186,-256.795"/>
<polygon fill="midnightblue" stroke="midnightblue" points="84.8968,-481.788 86.0227,-492.322 91.7122,-483.385 84.8968,-481.788"/>
</g>
<!-- Node21 -->
<g id="node21" class="node"><title>Node21</title>
<g id="a_node21"><a xlink:href="classecs_1_1entities_1_1StarsEntity.html" target="_top" xlink:title="ecs::entities::StarsEntity">
<polygon fill="none" stroke="black" points="219,-190.5 219,-209.5 352,-209.5 352,-190.5 219,-190.5"/>
<text text-anchor="middle" x="285.5" y="-197.5" font-family="Helvetica,sans-Serif" font-size="10.00">ecs::entities::StarsEntity</text>
</a>
</g>
</g>
<!-- Node1&#45;&gt;Node21 -->
<g id="edge20" class="edge"><title>Node1&#45;&gt;Node21</title>
<path fill="none" stroke="midnightblue" d="M86.1873,-482.342C93.0019,-430.843 118.66,-291.08 202,-220 207.046,-215.696 212.867,-212.288 219.035,-209.592"/>
<polygon fill="midnightblue" stroke="midnightblue" points="82.6918,-482.093 84.9477,-492.444 89.6397,-482.945 82.6918,-482.093"/>
</g>
<!-- Node22 -->
<g id="node22" class="node"><title>Node22</title>
<g id="a_node22"><a xlink:href="classecs_1_1entities_1_1StopEntity.html" target="_top" xlink:title="ecs::entities::StopEntity">
<polygon fill="none" stroke="black" points="220.5,-152.5 220.5,-171.5 350.5,-171.5 350.5,-152.5 220.5,-152.5"/>
<text text-anchor="middle" x="285.5" y="-159.5" font-family="Helvetica,sans-Serif" font-size="10.00">ecs::entities::StopEntity</text>
</a>
</g>
</g>
<!-- Node1&#45;&gt;Node22 -->
<g id="edge21" class="edge"><title>Node1&#45;&gt;Node22</title>
<path fill="none" stroke="midnightblue" d="M85.0251,-482.266C89.0618,-425.954 108.655,-263.274 202,-181 207.293,-176.335 213.501,-172.752 220.095,-170.008"/>
<polygon fill="midnightblue" stroke="midnightblue" points="81.5269,-482.13 84.3933,-492.329 88.5132,-482.568 81.5269,-482.13"/>
</g>
<!-- Node23 -->
<g id="node23" class="node"><title>Node23</title>
<g id="a_node23"><a xlink:href="classecs_1_1entities_1_1TestBackground.html" target="_top" xlink:title="ecs::entities::TestBackground">
<polygon fill="none" stroke="black" points="207.5,-114.5 207.5,-133.5 363.5,-133.5 363.5,-114.5 207.5,-114.5"/>
<text text-anchor="middle" x="285.5" y="-121.5" font-family="Helvetica,sans-Serif" font-size="10.00">ecs::entities::TestBackground</text>
</a>
</g>
</g>
<!-- Node1&#45;&gt;Node23 -->
<g id="edge22" class="edge"><title>Node1&#45;&gt;Node23</title>
<path fill="none" stroke="midnightblue" d="M84.1479,-482.41C85.723,-421.981 99.1162,-236.903 202,-143 206.125,-139.235 210.844,-136.169 215.888,-133.677"/>
<polygon fill="midnightblue" stroke="midnightblue" points="80.6472,-482.423 83.9698,-492.483 87.6461,-482.547 80.6472,-482.423"/>
</g>
<!-- Node24 -->
<g id="node24" class="node"><title>Node24</title>
<g id="a_node24"><a xlink:href="classecs_1_1entities_1_1TestEntity.html" target="_top" xlink:title="ecs::entities::TestEntity">
<polygon fill="none" stroke="black" points="222.5,-76.5 222.5,-95.5 348.5,-95.5 348.5,-76.5 222.5,-76.5"/>
<text text-anchor="middle" x="285.5" y="-83.5" font-family="Helvetica,sans-Serif" font-size="10.00">ecs::entities::TestEntity</text>
</a>
</g>
</g>
<!-- Node1&#45;&gt;Node24 -->
<g id="edge23" class="edge"><title>Node1&#45;&gt;Node24</title>
<path fill="none" stroke="midnightblue" d="M83.4315,-482.11C82.7306,-417.316 89.7561,-210.433 202,-105 207.785,-99.5661 214.8,-95.5792 222.269,-92.6706"/>
<polygon fill="midnightblue" stroke="midnightblue" points="79.9394,-482.567 83.6286,-492.499 86.9382,-482.434 79.9394,-482.567"/>
</g>
<!-- Node25 -->
<g id="node25" class="node"><title>Node25</title>
<g id="a_node25"><a xlink:href="classecs_1_1entities_1_1TestEntity2.html" target="_top" xlink:title="ecs::entities::TestEntity2">
<polygon fill="none" stroke="black" points="219.5,-38.5 219.5,-57.5 351.5,-57.5 351.5,-38.5 219.5,-38.5"/>
<text text-anchor="middle" x="285.5" y="-45.5" font-family="Helvetica,sans-Serif" font-size="10.00">ecs::entities::TestEntity2</text>
</a>
</g>
</g>
<!-- Node1&#45;&gt;Node25 -->
<g id="edge24" class="edge"><title>Node1&#45;&gt;Node25</title>
<path fill="none" stroke="midnightblue" d="M86.7055,-481.858C97.5174,-404.337 140.053,-126.605 202,-67 206.978,-62.2103 212.909,-58.5389 219.275,-55.7367"/>
<polygon fill="midnightblue" stroke="midnightblue" points="83.1843,-481.775 85.2929,-492.158 90.1194,-482.726 83.1843,-481.775"/>
</g>
<!-- Node26 -->
<g id="node26" class="node"><title>Node26</title>
<g id="a_node26"><a xlink:href="classecs_1_1entities_1_1WallSideEntity.html" target="_top" xlink:title="ecs::entities::WallSideEntity">
<polygon fill="none" stroke="black" points="212.5,-0.5 212.5,-19.5 358.5,-19.5 358.5,-0.5 212.5,-0.5"/>
<text text-anchor="middle" x="285.5" y="-7.5" font-family="Helvetica,sans-Serif" font-size="10.00">ecs::entities::WallSideEntity</text>
</a>
</g>
</g>
<!-- Node1&#45;&gt;Node26 -->
<g id="edge25" class="edge"><title>Node1&#45;&gt;Node26</title>
<path fill="none" stroke="midnightblue" d="M86.256,-481.707C95.7699,-399.768 135.236,-94.5647 202,-29 205.88,-25.1896 210.362,-22.0838 215.191,-19.5584"/>
<polygon fill="midnightblue" stroke="midnightblue" points="82.724,-481.79 85.0699,-492.122 89.6791,-482.582 82.724,-481.79"/>
</g>
</g>
</svg>
