<?xml version="1.0" encoding="UTF-8" standalone="no"?>
<!DOCTYPE svg PUBLIC "-//W3C//DTD SVG 1.1//EN"
 "http://www.w3.org/Graphics/SVG/1.1/DTD/svg11.dtd">
<!-- Generated by graphviz version 2.38.0 (20140413.2041)
 -->
<!-- Title: Graphical Class Hierarchy Pages: 1 -->
<svg width="499pt" height="104pt"
 viewBox="0.00 0.00 499.00 104.00" xmlns="http://www.w3.org/2000/svg" xmlns:xlink="http://www.w3.org/1999/xlink">
<g id="graph0" class="graph" transform="scale(1 1) rotate(0) translate(4 100)">
<title>Graphical Class Hierarchy</title>
<!-- Node1 -->
<g id="node1" class="node"><title>Node1</title>
<polygon fill="none" stroke="#bfbfbf" points="0,-19.5 0,-38.5 63,-38.5 63,-19.5 0,-19.5"/>
<text text-anchor="middle" x="31.5" y="-26.5" font-family="Helvetica,sans-Serif" font-size="10.00">exception</text>
</g>
<!-- Node2 -->
<g id="node2" class="node"><title>Node2</title>
<g id="a_node2"><a xlink:href="classRTypeExceptions.html" target="_top" xlink:title="Rtype Class Exception which regroup all Exceptions. ">
<polygon fill="none" stroke="black" points="99,-19.5 99,-38.5 194,-38.5 194,-19.5 99,-19.5"/>
<text text-anchor="middle" x="146.5" y="-26.5" font-family="Helvetica,sans-Serif" font-size="10.00">RTypeExceptions</text>
</a>
</g>
</g>
<!-- Node1&#45;&gt;Node2 -->
<g id="edge1" class="edge"><title>Node1&#45;&gt;Node2</title>
<path fill="none" stroke="midnightblue" d="M73.2406,-29C81.5167,-29 90.2831,-29 98.7484,-29"/>
<polygon fill="midnightblue" stroke="midnightblue" points="73.0795,-25.5001 63.0794,-29 73.0794,-32.5001 73.0795,-25.5001"/>
</g>
<!-- Node3 -->
<g id="node3" class="node"><title>Node3</title>
<g id="a_node3"><a xlink:href="classECSExceptions.html" target="_top" xlink:title="ECS Class Esception which manage exceptions of Entity, Components and System. ">
<polygon fill="none" stroke="black" points="236,-38.5 236,-57.5 324,-57.5 324,-38.5 236,-38.5"/>
<text text-anchor="middle" x="280" y="-45.5" font-family="Helvetica,sans-Serif" font-size="10.00">ECSExceptions</text>
</a>
</g>
</g>
<!-- Node2&#45;&gt;Node3 -->
<g id="edge2" class="edge"><title>Node2&#45;&gt;Node3</title>
<path fill="none" stroke="midnightblue" d="M204.273,-37.2029C214.885,-38.7363 225.816,-40.3156 235.931,-41.777"/>
<polygon fill="midnightblue" stroke="midnightblue" points="204.63,-33.7183 194.232,-35.7522 203.629,-40.6463 204.63,-33.7183"/>
</g>
<!-- Node7 -->
<g id="node7" class="node"><title>Node7</title>
<g id="a_node7"><a xlink:href="classServerExceptions.html" target="_top" xlink:title="Server class Exception. ">
<polygon fill="none" stroke="black" points="230,-0.5 230,-19.5 330,-19.5 330,-0.5 230,-0.5"/>
<text text-anchor="middle" x="280" y="-7.5" font-family="Helvetica,sans-Serif" font-size="10.00">ServerExceptions</text>
</a>
</g>
</g>
<!-- Node2&#45;&gt;Node7 -->
<g id="edge6" class="edge"><title>Node2&#45;&gt;Node7</title>
<path fill="none" stroke="midnightblue" d="M204.394,-20.7796C212.837,-19.5597 221.479,-18.3111 229.748,-17.1163"/>
<polygon fill="midnightblue" stroke="midnightblue" points="203.629,-17.3537 194.232,-22.2478 204.63,-24.2817 203.629,-17.3537"/>
</g>
<!-- Node4 -->
<g id="node4" class="node"><title>Node4</title>
<g id="a_node4"><a xlink:href="classComponentExceptions.html" target="_top" xlink:title="Component Class Exceptions. ">
<polygon fill="none" stroke="black" points="366,-76.5 366,-95.5 491,-95.5 491,-76.5 366,-76.5"/>
<text text-anchor="middle" x="428.5" y="-83.5" font-family="Helvetica,sans-Serif" font-size="10.00">ComponentExceptions</text>
</a>
</g>
</g>
<!-- Node3&#45;&gt;Node4 -->
<g id="edge3" class="edge"><title>Node3&#45;&gt;Node4</title>
<path fill="none" stroke="midnightblue" d="M327.695,-60.1121C348.099,-65.4044 371.681,-71.5213 390.798,-76.4799"/>
<polygon fill="midnightblue" stroke="midnightblue" points="328.527,-56.712 317.968,-57.589 326.769,-63.4877 328.527,-56.712"/>
</g>
<!-- Node5 -->
<g id="node5" class="node"><title>Node5</title>
<g id="a_node5"><a xlink:href="classEntityExceptions.html" target="_top" xlink:title="Entity Class Exceptions. ">
<polygon fill="none" stroke="black" points="381,-38.5 381,-57.5 476,-57.5 476,-38.5 381,-38.5"/>
<text text-anchor="middle" x="428.5" y="-45.5" font-family="Helvetica,sans-Serif" font-size="10.00">EntityExceptions</text>
</a>
</g>
</g>
<!-- Node3&#45;&gt;Node5 -->
<g id="edge4" class="edge"><title>Node3&#45;&gt;Node5</title>
<path fill="none" stroke="midnightblue" d="M334.447,-48C349.638,-48 366.057,-48 380.813,-48"/>
<polygon fill="midnightblue" stroke="midnightblue" points="334.162,-44.5001 324.162,-48 334.162,-51.5001 334.162,-44.5001"/>
</g>
<!-- Node6 -->
<g id="node6" class="node"><title>Node6</title>
<g id="a_node6"><a xlink:href="classSystemExceptions.html" target="_top" xlink:title="System class Exception. ">
<polygon fill="none" stroke="black" points="376,-0.5 376,-19.5 481,-19.5 481,-0.5 376,-0.5"/>
<text text-anchor="middle" x="428.5" y="-7.5" font-family="Helvetica,sans-Serif" font-size="10.00">SystemExceptions</text>
</a>
</g>
</g>
<!-- Node3&#45;&gt;Node6 -->
<g id="edge5" class="edge"><title>Node3&#45;&gt;Node6</title>
<path fill="none" stroke="midnightblue" d="M327.695,-35.8879C348.099,-30.5956 371.681,-24.4787 390.798,-19.5201"/>
<polygon fill="midnightblue" stroke="midnightblue" points="326.769,-32.5123 317.968,-38.411 328.527,-39.288 326.769,-32.5123"/>
</g>
</g>
</svg>
