<?xml version="1.0" encoding="UTF-8" standalone="no"?>
<!DOCTYPE svg PUBLIC "-//W3C//DTD SVG 1.1//EN"
 "http://www.w3.org/Graphics/SVG/1.1/DTD/svg11.dtd">
<!-- Generated by graphviz version 2.38.0 (20140413.2041)
 -->
<!-- Title: Graphical Class Hierarchy Pages: 1 -->
<svg width="182pt" height="66pt"
 viewBox="0.00 0.00 182.00 66.00" xmlns="http://www.w3.org/2000/svg" xmlns:xlink="http://www.w3.org/1999/xlink">
<g id="graph0" class="graph" transform="scale(1 1) rotate(0) translate(4 62)">
<title>Graphical Class Hierarchy</title>
<!-- Node1 -->
<g id="node1" class="node"><title>Node1</title>
<g id="a_node1"><a xlink:href="classecs_1_1IAudio.html" target="_top" xlink:title="Audio for the game. ">
<polygon fill="none" stroke="black" points="0,-19.5 0,-38.5 68,-38.5 68,-19.5 0,-19.5"/>
<text text-anchor="middle" x="34" y="-26.5" font-family="Helvetica,sans-Serif" font-size="10.00">ecs::IAudio</text>
</a>
</g>
</g>
<!-- Node2 -->
<g id="node2" class="node"><title>Node2</title>
<g id="a_node2"><a xlink:href="classecs_1_1Music.html" target="_top" xlink:title="Music for the game. ">
<polygon fill="none" stroke="black" points="106,-38.5 106,-57.5 172,-57.5 172,-38.5 106,-38.5"/>
<text text-anchor="middle" x="139" y="-45.5" font-family="Helvetica,sans-Serif" font-size="10.00">ecs::Music</text>
</a>
</g>
</g>
<!-- Node1&#45;&gt;Node2 -->
<g id="edge1" class="edge"><title>Node1&#45;&gt;Node2</title>
<path fill="none" stroke="midnightblue" d="M78.0801,-36.9468C87.418,-38.6693 97.1355,-40.4619 105.959,-42.0896"/>
<polygon fill="midnightblue" stroke="midnightblue" points="78.6258,-33.4885 68.1568,-35.1163 77.3559,-40.3724 78.6258,-33.4885"/>
</g>
<!-- Node3 -->
<g id="node3" class="node"><title>Node3</title>
<g id="a_node3"><a xlink:href="classecs_1_1Sound.html" target="_top" xlink:title="Sound for the game. ">
<polygon fill="none" stroke="black" points="104,-0.5 104,-19.5 174,-19.5 174,-0.5 104,-0.5"/>
<text text-anchor="middle" x="139" y="-7.5" font-family="Helvetica,sans-Serif" font-size="10.00">ecs::Sound</text>
</a>
</g>
</g>
<!-- Node1&#45;&gt;Node3 -->
<g id="edge2" class="edge"><title>Node1&#45;&gt;Node3</title>
<path fill="none" stroke="midnightblue" d="M78.0512,-21.0585C86.6573,-19.471 95.587,-17.8238 103.843,-16.3007"/>
<polygon fill="midnightblue" stroke="midnightblue" points="77.3559,-17.6276 68.1568,-22.8837 78.6258,-24.5115 77.3559,-17.6276"/>
</g>
</g>
</svg>
