<?xml version="1.0" encoding="UTF-8" standalone="no"?>
<!DOCTYPE svg PUBLIC "-//W3C//DTD SVG 1.1//EN"
 "http://www.w3.org/Graphics/SVG/1.1/DTD/svg11.dtd">
<!-- Generated by graphviz version 2.38.0 (20140413.2041)
 -->
<!-- Title: Graphical Class Hierarchy Pages: 1 -->
<svg width="247pt" height="142pt"
 viewBox="0.00 0.00 247.00 142.00" xmlns="http://www.w3.org/2000/svg" xmlns:xlink="http://www.w3.org/1999/xlink">
<g id="graph0" class="graph" transform="scale(1 1) rotate(0) translate(4 138)">
<title>Graphical Class Hierarchy</title>
<!-- Node1 -->
<g id="node1" class="node"><title>Node1</title>
<g id="a_node1"><a xlink:href="classecs_1_1IScene.html" target="_top" xlink:title="Scene for the game. ">
<polygon fill="none" stroke="black" points="0,-57.5 0,-76.5 71,-76.5 71,-57.5 0,-57.5"/>
<text text-anchor="middle" x="35.5" y="-64.5" font-family="Helvetica,sans-Serif" font-size="10.00">ecs::IScene</text>
</a>
</g>
</g>
<!-- Node2 -->
<g id="node2" class="node"><title>Node2</title>
<g id="a_node2"><a xlink:href="classecs_1_1ChooseRoomScene.html" target="_top" xlink:title="ecs::ChooseRoomScene">
<polygon fill="none" stroke="black" points="107,-114.5 107,-133.5 239,-133.5 239,-114.5 107,-114.5"/>
<text text-anchor="middle" x="173" y="-121.5" font-family="Helvetica,sans-Serif" font-size="10.00">ecs::ChooseRoomScene</text>
</a>
</g>
</g>
<!-- Node1&#45;&gt;Node2 -->
<g id="edge1" class="edge"><title>Node1&#45;&gt;Node2</title>
<path fill="none" stroke="midnightblue" d="M60.9646,-81.8339C74.2526,-89.4647 91.1628,-98.5016 107,-105 115.702,-108.57 125.312,-111.765 134.414,-114.47"/>
<polygon fill="midnightblue" stroke="midnightblue" points="62.3942,-78.6152 51.9961,-76.5825 58.8571,-84.6558 62.3942,-78.6152"/>
</g>
<!-- Node3 -->
<g id="node3" class="node"><title>Node3</title>
<g id="a_node3"><a xlink:href="classecs_1_1DefeatScene.html" target="_top" xlink:title="ecs::DefeatScene">
<polygon fill="none" stroke="black" points="122.5,-76.5 122.5,-95.5 223.5,-95.5 223.5,-76.5 122.5,-76.5"/>
<text text-anchor="middle" x="173" y="-83.5" font-family="Helvetica,sans-Serif" font-size="10.00">ecs::DefeatScene</text>
</a>
</g>
</g>
<!-- Node1&#45;&gt;Node3 -->
<g id="edge2" class="edge"><title>Node1&#45;&gt;Node3</title>
<path fill="none" stroke="midnightblue" d="M81.2888,-73.2803C94.4721,-75.1289 108.971,-77.162 122.435,-79.0499"/>
<polygon fill="midnightblue" stroke="midnightblue" points="81.4321,-69.7663 71.043,-71.8437 80.46,-76.6985 81.4321,-69.7663"/>
</g>
<!-- Node4 -->
<g id="node4" class="node"><title>Node4</title>
<g id="a_node4"><a xlink:href="classecs_1_1GameScene.html" target="_top" xlink:title="ecs::GameScene">
<polygon fill="none" stroke="black" points="124,-38.5 124,-57.5 222,-57.5 222,-38.5 124,-38.5"/>
<text text-anchor="middle" x="173" y="-45.5" font-family="Helvetica,sans-Serif" font-size="10.00">ecs::GameScene</text>
</a>
</g>
</g>
<!-- Node1&#45;&gt;Node4 -->
<g id="edge3" class="edge"><title>Node1&#45;&gt;Node4</title>
<path fill="none" stroke="midnightblue" d="M81.2042,-60.7315C94.9136,-58.8092 110.052,-56.6864 123.974,-54.7343"/>
<polygon fill="midnightblue" stroke="midnightblue" points="80.46,-57.3015 71.043,-62.1563 81.4321,-64.2337 80.46,-57.3015"/>
</g>
<!-- Node5 -->
<g id="node5" class="node"><title>Node5</title>
<g id="a_node5"><a xlink:href="classecs_1_1MenuScene.html" target="_top" xlink:title="ecs::MenuScene">
<polygon fill="none" stroke="black" points="125.5,-0.5 125.5,-19.5 220.5,-19.5 220.5,-0.5 125.5,-0.5"/>
<text text-anchor="middle" x="173" y="-7.5" font-family="Helvetica,sans-Serif" font-size="10.00">ecs::MenuScene</text>
</a>
</g>
</g>
<!-- Node1&#45;&gt;Node5 -->
<g id="edge4" class="edge"><title>Node1&#45;&gt;Node5</title>
<path fill="none" stroke="midnightblue" d="M60.9646,-52.1661C74.2526,-44.5353 91.1628,-35.4984 107,-29 115.702,-25.4296 125.312,-22.2352 134.414,-19.5305"/>
<polygon fill="midnightblue" stroke="midnightblue" points="58.8571,-49.3442 51.9961,-57.4175 62.3942,-55.3848 58.8571,-49.3442"/>
</g>
</g>
</svg>
