<?xml version="1.0" encoding="UTF-8" standalone="no"?>
<!DOCTYPE svg PUBLIC "-//W3C//DTD SVG 1.1//EN"
 "http://www.w3.org/Graphics/SVG/1.1/DTD/svg11.dtd">
<!-- Generated by graphviz version 2.38.0 (20140413.2041)
 -->
<!-- Title: Graphical Class Hierarchy Pages: 1 -->
<svg width="974pt" height="819pt"
 viewBox="0.00 0.00 974.00 819.00" xmlns="http://www.w3.org/2000/svg" xmlns:xlink="http://www.w3.org/1999/xlink">
<g id="graph0" class="graph" transform="scale(1 1) rotate(0) translate(4 815)">
<title>Graphical Class Hierarchy</title>
<!-- Node1 -->
<g id="node1" class="node"><title>Node1</title>
<g id="a_node1"><a xlink:href="classecs_1_1components_1_1IComponent.html" target="_top" xlink:title="Icomponent describes an attribute of an Entity. ">
<polygon fill="none" stroke="black" points="0,-361.5 0,-380.5 164,-380.5 164,-361.5 0,-361.5"/>
<text text-anchor="middle" x="82" y="-368.5" font-family="Helvetica,sans-Serif" font-size="10.00">ecs::components::IComponent</text>
</a>
</g>
</g>
<!-- Node2 -->
<g id="node2" class="node"><title>Node2</title>
<g id="a_node2"><a xlink:href="classecs_1_1components_1_1IDisplay.html" target="_top" xlink:title="IDisplay describes an attribute of an Entity that is displayable. ">
<polygon fill="none" stroke="black" points="209.5,-696.5 209.5,-715.5 351.5,-715.5 351.5,-696.5 209.5,-696.5"/>
<text text-anchor="middle" x="280.5" y="-703.5" font-family="Helvetica,sans-Serif" font-size="10.00">ecs::components::IDisplay</text>
</a>
</g>
</g>
<!-- Node1&#45;&gt;Node2 -->
<g id="edge1" class="edge"><title>Node1&#45;&gt;Node2</title>
<path fill="none" stroke="midnightblue" d="M93.764,-389.351C129.976,-451.087 246.64,-649.979 273.808,-696.296"/>
<polygon fill="midnightblue" stroke="midnightblue" points="96.7475,-387.519 88.6689,-380.665 90.7095,-391.061 96.7475,-387.519"/>
</g>
<!-- Node12 -->
<g id="node12" class="node"><title>Node12</title>
<g id="a_node12"><a xlink:href="classecs_1_1components_1_1IGameLogic.html" target="_top" xlink:title="IGameLogic describes an attribute of an Entity that represent an ingame value. ">
<polygon fill="none" stroke="black" points="200,-418.5 200,-437.5 361,-437.5 361,-418.5 200,-418.5"/>
<text text-anchor="middle" x="280.5" y="-425.5" font-family="Helvetica,sans-Serif" font-size="10.00">ecs::components::IGameLogic</text>
</a>
</g>
</g>
<!-- Node1&#45;&gt;Node12 -->
<g id="edge11" class="edge"><title>Node1&#45;&gt;Node12</title>
<path fill="none" stroke="midnightblue" d="M125.696,-383.385C161.975,-393.909 213.308,-408.799 246.503,-418.428"/>
<polygon fill="midnightblue" stroke="midnightblue" points="126.469,-379.965 115.89,-380.541 124.519,-386.688 126.469,-379.965"/>
</g>
<!-- Node23 -->
<g id="node23" class="node"><title>Node23</title>
<g id="a_node23"><a xlink:href="classecs_1_1components_1_1IIO.html" target="_top" xlink:title="IIsO describes the input output of an Component. ">
<polygon fill="none" stroke="black" points="222,-304.5 222,-323.5 339,-323.5 339,-304.5 222,-304.5"/>
<text text-anchor="middle" x="280.5" y="-311.5" font-family="Helvetica,sans-Serif" font-size="10.00">ecs::components::IIO</text>
</a>
</g>
</g>
<!-- Node1&#45;&gt;Node23 -->
<g id="edge22" class="edge"><title>Node1&#45;&gt;Node23</title>
<path fill="none" stroke="midnightblue" d="M125.696,-358.615C161.975,-348.091 213.308,-333.201 246.503,-323.572"/>
<polygon fill="midnightblue" stroke="midnightblue" points="124.519,-355.312 115.89,-361.459 126.469,-362.035 124.519,-355.312"/>
</g>
<!-- Node26 -->
<g id="node26" class="node"><title>Node26</title>
<g id="a_node26"><a xlink:href="classecs_1_1components_1_1IPhysics.html" target="_top" xlink:title="IPhysics describes the physics of an Entity. ">
<polygon fill="none" stroke="black" points="209,-114.5 209,-133.5 352,-133.5 352,-114.5 209,-114.5"/>
<text text-anchor="middle" x="280.5" y="-121.5" font-family="Helvetica,sans-Serif" font-size="10.00">ecs::components::IPhysics</text>
</a>
</g>
</g>
<!-- Node1&#45;&gt;Node26 -->
<g id="edge25" class="edge"><title>Node1&#45;&gt;Node26</title>
<path fill="none" stroke="midnightblue" d="M97.089,-353.29C135.711,-304.743 242.351,-170.697 271.85,-133.616"/>
<polygon fill="midnightblue" stroke="midnightblue" points="94.1898,-351.313 90.703,-361.317 99.6677,-355.671 94.1898,-351.313"/>
</g>
<!-- Node3 -->
<g id="node3" class="node"><title>Node3</title>
<g id="a_node3"><a xlink:href="classecs_1_1components_1_1Animator.html" target="_top" xlink:title="Animator describes that the entity is animated. ">
<polygon fill="none" stroke="black" points="413,-772.5 413,-791.5 562,-791.5 562,-772.5 413,-772.5"/>
<text text-anchor="middle" x="487.5" y="-779.5" font-family="Helvetica,sans-Serif" font-size="10.00">ecs::components::Animator</text>
</a>
</g>
</g>
<!-- Node2&#45;&gt;Node3 -->
<g id="edge2" class="edge"><title>Node2&#45;&gt;Node3</title>
<path fill="none" stroke="midnightblue" d="M306.487,-720.61C329.364,-733.428 364.505,-751.731 397,-763 407.806,-766.747 419.613,-769.89 431.003,-772.471"/>
<polygon fill="midnightblue" stroke="midnightblue" points="308.192,-717.553 297.768,-715.657 304.734,-723.64 308.192,-717.553"/>
</g>
<!-- Node4 -->
<g id="node4" class="node"><title>Node4</title>
<g id="a_node4"><a xlink:href="classecs_1_1components_1_1IUserInterface.html" target="_top" xlink:title="UserInterface describes an attribute that is part of the User Interface. ">
<polygon fill="none" stroke="black" points="401.5,-734.5 401.5,-753.5 573.5,-753.5 573.5,-734.5 401.5,-734.5"/>
<text text-anchor="middle" x="487.5" y="-741.5" font-family="Helvetica,sans-Serif" font-size="10.00">ecs::components::IUserInterface</text>
</a>
</g>
</g>
<!-- Node2&#45;&gt;Node4 -->
<g id="edge3" class="edge"><title>Node2&#45;&gt;Node4</title>
<path fill="none" stroke="midnightblue" d="M343.098,-717.418C372.43,-722.855 407.107,-729.283 435.013,-734.456"/>
<polygon fill="midnightblue" stroke="midnightblue" points="343.436,-713.921 332.966,-715.54 342.16,-720.804 343.436,-713.921"/>
</g>
<!-- Node10 -->
<g id="node10" class="node"><title>Node10</title>
<g id="a_node10"><a xlink:href="classecs_1_1components_1_1Parallax.html" target="_top" xlink:title="Parallax describes that the entity is animated. ">
<polygon fill="none" stroke="black" points="416.5,-696.5 416.5,-715.5 558.5,-715.5 558.5,-696.5 416.5,-696.5"/>
<text text-anchor="middle" x="487.5" y="-703.5" font-family="Helvetica,sans-Serif" font-size="10.00">ecs::components::Parallax</text>
</a>
</g>
</g>
<!-- Node2&#45;&gt;Node10 -->
<g id="edge9" class="edge"><title>Node2&#45;&gt;Node10</title>
<path fill="none" stroke="midnightblue" d="M361.923,-706C379.893,-706 398.813,-706 416.329,-706"/>
<polygon fill="midnightblue" stroke="midnightblue" points="361.763,-702.5 351.763,-706 361.763,-709.5 361.763,-702.5"/>
</g>
<!-- Node11 -->
<g id="node11" class="node"><title>Node11</title>
<g id="a_node11"><a xlink:href="classecs_1_1components_1_1Sprite.html" target="_top" xlink:title="Sprite describes an attribute that contains an image id. ">
<polygon fill="none" stroke="black" points="420.5,-658.5 420.5,-677.5 554.5,-677.5 554.5,-658.5 420.5,-658.5"/>
<text text-anchor="middle" x="487.5" y="-665.5" font-family="Helvetica,sans-Serif" font-size="10.00">ecs::components::Sprite</text>
</a>
</g>
</g>
<!-- Node2&#45;&gt;Node11 -->
<g id="edge10" class="edge"><title>Node2&#45;&gt;Node11</title>
<path fill="none" stroke="midnightblue" d="M343.098,-694.582C372.43,-689.145 407.107,-682.717 435.013,-677.544"/>
<polygon fill="midnightblue" stroke="midnightblue" points="342.16,-691.196 332.966,-696.46 343.436,-698.079 342.16,-691.196"/>
</g>
<!-- Node5 -->
<g id="node5" class="node"><title>Node5</title>
<g id="a_node5"><a xlink:href="classecs_1_1components_1_1Button.html" target="_top" xlink:title="Button describes an attribute that is button. ">
<polygon fill="none" stroke="black" points="627.5,-791.5 627.5,-810.5 764.5,-810.5 764.5,-791.5 627.5,-791.5"/>
<text text-anchor="middle" x="696" y="-798.5" font-family="Helvetica,sans-Serif" font-size="10.00">ecs::components::Button</text>
</a>
</g>
</g>
<!-- Node4&#45;&gt;Node5 -->
<g id="edge4" class="edge"><title>Node4&#45;&gt;Node5</title>
<path fill="none" stroke="midnightblue" d="M554.959,-755.953C562.816,-757.998 570.649,-760.338 578,-763 595.011,-769.159 597.055,-775.66 614,-782 623.876,-785.695 634.706,-788.827 645.142,-791.418"/>
<polygon fill="midnightblue" stroke="midnightblue" points="555.573,-752.5 545.027,-753.52 553.907,-759.299 555.573,-752.5"/>
</g>
<!-- Node6 -->
<g id="node6" class="node"><title>Node6</title>
<g id="a_node6"><a xlink:href="classecs_1_1components_1_1Image.html" target="_top" xlink:title="Image describes an attribute that is an Image. ">
<polygon fill="none" stroke="black" points="628.5,-753.5 628.5,-772.5 763.5,-772.5 763.5,-753.5 628.5,-753.5"/>
<text text-anchor="middle" x="696" y="-760.5" font-family="Helvetica,sans-Serif" font-size="10.00">ecs::components::Image</text>
</a>
</g>
</g>
<!-- Node4&#45;&gt;Node6 -->
<g id="edge5" class="edge"><title>Node4&#45;&gt;Node6</title>
<path fill="none" stroke="midnightblue" d="M583.999,-752.787C598.971,-754.164 614.162,-755.562 628.303,-756.863"/>
<polygon fill="midnightblue" stroke="midnightblue" points="583.962,-749.269 573.684,-751.838 583.321,-756.239 583.962,-749.269"/>
</g>
<!-- Node7 -->
<g id="node7" class="node"><title>Node7</title>
<g id="a_node7"><a xlink:href="classecs_1_1components_1_1PopUp.html" target="_top" xlink:title="PopUp describes an attribute that is a popUp. ">
<polygon fill="none" stroke="black" points="627.5,-715.5 627.5,-734.5 764.5,-734.5 764.5,-715.5 627.5,-715.5"/>
<text text-anchor="middle" x="696" y="-722.5" font-family="Helvetica,sans-Serif" font-size="10.00">ecs::components::PopUp</text>
</a>
</g>
</g>
<!-- Node4&#45;&gt;Node7 -->
<g id="edge6" class="edge"><title>Node4&#45;&gt;Node7</title>
<path fill="none" stroke="midnightblue" d="M583.809,-735.231C598.506,-733.878 613.418,-732.506 627.346,-731.225"/>
<polygon fill="midnightblue" stroke="midnightblue" points="583.321,-731.761 573.684,-736.162 583.962,-738.731 583.321,-731.761"/>
</g>
<!-- Node8 -->
<g id="node8" class="node"><title>Node8</title>
<g id="a_node8"><a xlink:href="classecs_1_1components_1_1Text.html" target="_top" xlink:title="Text describes an attribute that is a Text. ">
<polygon fill="none" stroke="black" points="634,-677.5 634,-696.5 758,-696.5 758,-677.5 634,-677.5"/>
<text text-anchor="middle" x="696" y="-684.5" font-family="Helvetica,sans-Serif" font-size="10.00">ecs::components::Text</text>
</a>
</g>
</g>
<!-- Node4&#45;&gt;Node8 -->
<g id="edge7" class="edge"><title>Node4&#45;&gt;Node8</title>
<path fill="none" stroke="midnightblue" d="M554.959,-732.047C562.816,-730.002 570.649,-727.662 578,-725 595.011,-718.841 597.055,-712.34 614,-706 623.876,-702.305 634.706,-699.173 645.142,-696.582"/>
<polygon fill="midnightblue" stroke="midnightblue" points="553.907,-728.701 545.027,-734.48 555.573,-735.5 553.907,-728.701"/>
</g>
<!-- Node9 -->
<g id="node9" class="node"><title>Node9</title>
<g id="a_node9"><a xlink:href="classecs_1_1components_1_1StaticText.html" target="_top" xlink:title="StaticText describes an attribute that is a StaticText. ">
<polygon fill="none" stroke="black" points="814,-677.5 814,-696.5 966,-696.5 966,-677.5 814,-677.5"/>
<text text-anchor="middle" x="890" y="-684.5" font-family="Helvetica,sans-Serif" font-size="10.00">ecs::components::StaticText</text>
</a>
</g>
</g>
<!-- Node8&#45;&gt;Node9 -->
<g id="edge8" class="edge"><title>Node8&#45;&gt;Node9</title>
<path fill="none" stroke="midnightblue" d="M768.196,-687C783.131,-687 798.925,-687 813.993,-687"/>
<polygon fill="midnightblue" stroke="midnightblue" points="768.014,-683.5 758.014,-687 768.014,-690.5 768.014,-683.5"/>
</g>
<!-- Node13 -->
<g id="node13" class="node"><title>Node13</title>
<g id="a_node13"><a xlink:href="classecs_1_1components_1_1Damage.html" target="_top" xlink:title="Damage describes an attribute that stores a numeric value representing Damage points. ">
<polygon fill="none" stroke="black" points="414.5,-620.5 414.5,-639.5 560.5,-639.5 560.5,-620.5 414.5,-620.5"/>
<text text-anchor="middle" x="487.5" y="-627.5" font-family="Helvetica,sans-Serif" font-size="10.00">ecs::components::Damage</text>
</a>
</g>
</g>
<!-- Node12&#45;&gt;Node13 -->
<g id="edge12" class="edge"><title>Node12&#45;&gt;Node13</title>
<path fill="none" stroke="midnightblue" d="M288.048,-447.752C301.754,-485.844 337.239,-569.366 397,-611 402.474,-614.814 408.561,-617.887 414.912,-620.361"/>
<polygon fill="midnightblue" stroke="midnightblue" points="291.209,-446.183 284.624,-437.883 284.595,-448.478 291.209,-446.183"/>
</g>
<!-- Node14 -->
<g id="node14" class="node"><title>Node14</title>
<g id="a_node14"><a xlink:href="classecs_1_1components_1_1EnemiesController.html" target="_top" xlink:title="EnemiesController is used to recognize player entity. ">
<polygon fill="none" stroke="black" points="414.5,-571 414.5,-601 560.5,-601 560.5,-571 414.5,-571"/>
<text text-anchor="start" x="422.5" y="-589" font-family="Helvetica,sans-Serif" font-size="10.00">ecs::components::Enemies</text>
<text text-anchor="middle" x="487.5" y="-578" font-family="Helvetica,sans-Serif" font-size="10.00">Controller</text>
</a>
</g>
</g>
<!-- Node12&#45;&gt;Node14 -->
<g id="edge13" class="edge"><title>Node12&#45;&gt;Node14</title>
<path fill="none" stroke="midnightblue" d="M292.432,-446.42C310.507,-475.262 349.399,-530.888 397,-561 403.135,-564.881 409.879,-568.17 416.828,-570.956"/>
<polygon fill="midnightblue" stroke="midnightblue" points="295.324,-444.442 287.117,-437.742 289.355,-448.098 295.324,-444.442"/>
</g>
<!-- Node15 -->
<g id="node15" class="node"><title>Node15</title>
<g id="a_node15"><a xlink:href="classecs_1_1components_1_1EnemyShoot.html" target="_top" xlink:title="Damage describes an attribute that stores a numeric value representing Damage points. ">
<polygon fill="none" stroke="black" points="404,-532.5 404,-551.5 571,-551.5 571,-532.5 404,-532.5"/>
<text text-anchor="middle" x="487.5" y="-539.5" font-family="Helvetica,sans-Serif" font-size="10.00">ecs::components::EnemyShoot</text>
</a>
</g>
</g>
<!-- Node12&#45;&gt;Node15 -->
<g id="edge14" class="edge"><title>Node12&#45;&gt;Node15</title>
<path fill="none" stroke="midnightblue" d="M297.003,-445.04C317.657,-466.642 356.344,-503.423 397,-523 405.015,-526.859 413.805,-529.939 422.65,-532.396"/>
<polygon fill="midnightblue" stroke="midnightblue" points="299.396,-442.475 290.004,-437.571 294.288,-447.261 299.396,-442.475"/>
</g>
<!-- Node16 -->
<g id="node16" class="node"><title>Node16</title>
<g id="a_node16"><a xlink:href="classecs_1_1components_1_1Health.html" target="_top" xlink:title="Health describes an attribute that stores a numeric value representing Health points. ">
<polygon fill="none" stroke="black" points="419,-494.5 419,-513.5 556,-513.5 556,-494.5 419,-494.5"/>
<text text-anchor="middle" x="487.5" y="-501.5" font-family="Helvetica,sans-Serif" font-size="10.00">ecs::components::Health</text>
</a>
</g>
</g>
<!-- Node12&#45;&gt;Node16 -->
<g id="edge15" class="edge"><title>Node12&#45;&gt;Node16</title>
<path fill="none" stroke="midnightblue" d="M306.487,-442.61C329.364,-455.428 364.505,-473.731 397,-485 407.806,-488.747 419.613,-491.89 431.003,-494.471"/>
<polygon fill="midnightblue" stroke="midnightblue" points="308.192,-439.553 297.768,-437.657 304.734,-445.64 308.192,-439.553"/>
</g>
<!-- Node17 -->
<g id="node17" class="node"><title>Node17</title>
<g id="a_node17"><a xlink:href="classecs_1_1components_1_1Item.html" target="_top" xlink:title="Item describes an attribute that stores a numeric value representing Item points. ...">
<polygon fill="none" stroke="black" points="424,-456.5 424,-475.5 551,-475.5 551,-456.5 424,-456.5"/>
<text text-anchor="middle" x="487.5" y="-463.5" font-family="Helvetica,sans-Serif" font-size="10.00">ecs::components::Item</text>
</a>
</g>
</g>
<!-- Node12&#45;&gt;Node17 -->
<g id="edge16" class="edge"><title>Node12&#45;&gt;Node17</title>
<path fill="none" stroke="midnightblue" d="M343.098,-439.418C372.43,-444.855 407.107,-451.283 435.013,-456.456"/>
<polygon fill="midnightblue" stroke="midnightblue" points="343.436,-435.921 332.966,-437.54 342.16,-442.804 343.436,-435.921"/>
</g>
<!-- Node18 -->
<g id="node18" class="node"><title>Node18</title>
<g id="a_node18"><a xlink:href="classecs_1_1components_1_1Level.html" target="_top" xlink:title="Level describes an attribute that stores a numeric value representing Level points. ">
<polygon fill="none" stroke="black" points="422.5,-418.5 422.5,-437.5 552.5,-437.5 552.5,-418.5 422.5,-418.5"/>
<text text-anchor="middle" x="487.5" y="-425.5" font-family="Helvetica,sans-Serif" font-size="10.00">ecs::components::Level</text>
</a>
</g>
</g>
<!-- Node12&#45;&gt;Node18 -->
<g id="edge17" class="edge"><title>Node12&#45;&gt;Node18</title>
<path fill="none" stroke="midnightblue" d="M371.11,-428C388.314,-428 406.01,-428 422.219,-428"/>
<polygon fill="midnightblue" stroke="midnightblue" points="371.052,-424.5 361.052,-428 371.052,-431.5 371.052,-424.5"/>
</g>
<!-- Node19 -->
<g id="node19" class="node"><title>Node19</title>
<g id="a_node19"><a xlink:href="classecs_1_1components_1_1PlayerController.html" target="_top" xlink:title="PlayerController is used to recognize player entity. ">
<polygon fill="none" stroke="black" points="397,-380.5 397,-399.5 578,-399.5 578,-380.5 397,-380.5"/>
<text text-anchor="middle" x="487.5" y="-387.5" font-family="Helvetica,sans-Serif" font-size="10.00">ecs::components::PlayerController</text>
</a>
</g>
</g>
<!-- Node12&#45;&gt;Node19 -->
<g id="edge18" class="edge"><title>Node12&#45;&gt;Node19</title>
<path fill="none" stroke="midnightblue" d="M343.098,-416.582C372.43,-411.145 407.107,-404.717 435.013,-399.544"/>
<polygon fill="midnightblue" stroke="midnightblue" points="342.16,-413.196 332.966,-418.46 343.436,-420.079 342.16,-413.196"/>
</g>
<!-- Node20 -->
<g id="node20" class="node"><title>Node20</title>
<g id="a_node20"><a xlink:href="classecs_1_1components_1_1Power.html" target="_top" xlink:title="Power describes an attribute that stores a numeric value representing Power points. ">
<polygon fill="none" stroke="black" points="420.5,-342.5 420.5,-361.5 554.5,-361.5 554.5,-342.5 420.5,-342.5"/>
<text text-anchor="middle" x="487.5" y="-349.5" font-family="Helvetica,sans-Serif" font-size="10.00">ecs::components::Power</text>
</a>
</g>
</g>
<!-- Node12&#45;&gt;Node20 -->
<g id="edge19" class="edge"><title>Node12&#45;&gt;Node20</title>
<path fill="none" stroke="midnightblue" d="M306.487,-413.39C329.364,-400.572 364.505,-382.269 397,-371 407.806,-367.253 419.613,-364.11 431.003,-361.529"/>
<polygon fill="midnightblue" stroke="midnightblue" points="304.734,-410.36 297.768,-418.343 308.192,-416.447 304.734,-410.36"/>
</g>
<!-- Node21 -->
<g id="node21" class="node"><title>Node21</title>
<g id="a_node21"><a xlink:href="classecs_1_1components_1_1Scale.html" target="_top" xlink:title="Scale describes an attribute that stores a numeric value representing Scale points. ">
<polygon fill="none" stroke="black" points="422,-304.5 422,-323.5 553,-323.5 553,-304.5 422,-304.5"/>
<text text-anchor="middle" x="487.5" y="-311.5" font-family="Helvetica,sans-Serif" font-size="10.00">ecs::components::Scale</text>
</a>
</g>
</g>
<!-- Node12&#45;&gt;Node21 -->
<g id="edge20" class="edge"><title>Node12&#45;&gt;Node21</title>
<path fill="none" stroke="midnightblue" d="M297.003,-410.96C317.657,-389.358 356.344,-352.577 397,-333 405.015,-329.141 413.805,-326.061 422.65,-323.604"/>
<polygon fill="midnightblue" stroke="midnightblue" points="294.288,-408.739 290.004,-418.429 299.396,-413.525 294.288,-408.739"/>
</g>
<!-- Node22 -->
<g id="node22" class="node"><title>Node22</title>
<g id="a_node22"><a xlink:href="classecs_1_1components_1_1Timer.html" target="_top" xlink:title="Timer for all the game. ">
<polygon fill="none" stroke="black" points="421.5,-266.5 421.5,-285.5 553.5,-285.5 553.5,-266.5 421.5,-266.5"/>
<text text-anchor="middle" x="487.5" y="-273.5" font-family="Helvetica,sans-Serif" font-size="10.00">ecs::components::Timer</text>
</a>
</g>
</g>
<!-- Node12&#45;&gt;Node22 -->
<g id="edge21" class="edge"><title>Node12&#45;&gt;Node22</title>
<path fill="none" stroke="midnightblue" d="M296.333,-410.328C326.034,-375.024 390.533,-298.81 397,-295 404.39,-290.646 412.645,-287.283 421.071,-284.687"/>
<polygon fill="midnightblue" stroke="midnightblue" points="293.342,-408.446 289.587,-418.353 298.701,-412.95 293.342,-408.446"/>
</g>
<!-- Node24 -->
<g id="node24" class="node"><title>Node24</title>
<g id="a_node24"><a xlink:href="classecs_1_1components_1_1Output.html" target="_top" xlink:title="Output describes the Output of an Component. ">
<polygon fill="none" stroke="black" points="418.5,-228.5 418.5,-247.5 556.5,-247.5 556.5,-228.5 418.5,-228.5"/>
<text text-anchor="middle" x="487.5" y="-235.5" font-family="Helvetica,sans-Serif" font-size="10.00">ecs::components::Output</text>
</a>
</g>
</g>
<!-- Node23&#45;&gt;Node24 -->
<g id="edge23" class="edge"><title>Node23&#45;&gt;Node24</title>
<path fill="none" stroke="midnightblue" d="M306.487,-299.39C329.364,-286.572 364.505,-268.269 397,-257 407.806,-253.253 419.613,-250.11 431.003,-247.529"/>
<polygon fill="midnightblue" stroke="midnightblue" points="304.734,-296.36 297.768,-304.343 308.192,-302.447 304.734,-296.36"/>
</g>
<!-- Node25 -->
<g id="node25" class="node"><title>Node25</title>
<g id="a_node25"><a xlink:href="classecs_1_1components_1_1Sound.html" target="_top" xlink:title="ecs::components::Sound">
<polygon fill="none" stroke="black" points="628,-228.5 628,-247.5 764,-247.5 764,-228.5 628,-228.5"/>
<text text-anchor="middle" x="696" y="-235.5" font-family="Helvetica,sans-Serif" font-size="10.00">ecs::components::Sound</text>
</a>
</g>
</g>
<!-- Node24&#45;&gt;Node25 -->
<g id="edge24" class="edge"><title>Node24&#45;&gt;Node25</title>
<path fill="none" stroke="midnightblue" d="M566.769,-238C586.917,-238 608.416,-238 627.939,-238"/>
<polygon fill="midnightblue" stroke="midnightblue" points="566.688,-234.5 556.688,-238 566.688,-241.5 566.688,-234.5"/>
</g>
<!-- Node27 -->
<g id="node27" class="node"><title>Node27</title>
<g id="a_node27"><a xlink:href="classecs_1_1components_1_1Collision.html" target="_top" xlink:title="Collision describes the collision of an Entity and an other Entity. ">
<polygon fill="none" stroke="black" points="415.5,-190.5 415.5,-209.5 559.5,-209.5 559.5,-190.5 415.5,-190.5"/>
<text text-anchor="middle" x="487.5" y="-197.5" font-family="Helvetica,sans-Serif" font-size="10.00">ecs::components::Collision</text>
</a>
</g>
</g>
<!-- Node26&#45;&gt;Node27 -->
<g id="edge26" class="edge"><title>Node26&#45;&gt;Node27</title>
<path fill="none" stroke="midnightblue" d="M306.487,-138.61C329.364,-151.428 364.505,-169.731 397,-181 407.806,-184.747 419.613,-187.89 431.003,-190.471"/>
<polygon fill="midnightblue" stroke="midnightblue" points="308.192,-135.553 297.768,-133.657 304.734,-141.64 308.192,-135.553"/>
</g>
<!-- Node28 -->
<g id="node28" class="node"><title>Node28</title>
<g id="a_node28"><a xlink:href="classecs_1_1components_1_1Gravity.html" target="_top" xlink:title="Gravity describes the gravity of an Entity. ">
<polygon fill="none" stroke="black" points="418,-152.5 418,-171.5 557,-171.5 557,-152.5 418,-152.5"/>
<text text-anchor="middle" x="487.5" y="-159.5" font-family="Helvetica,sans-Serif" font-size="10.00">ecs::components::Gravity</text>
</a>
</g>
</g>
<!-- Node26&#45;&gt;Node28 -->
<g id="edge27" class="edge"><title>Node26&#45;&gt;Node28</title>
<path fill="none" stroke="midnightblue" d="M343.098,-135.418C372.43,-140.855 407.107,-147.283 435.013,-152.456"/>
<polygon fill="midnightblue" stroke="midnightblue" points="343.436,-131.921 332.966,-133.54 342.16,-138.804 343.436,-131.921"/>
</g>
<!-- Node29 -->
<g id="node29" class="node"><title>Node29</title>
<g id="a_node29"><a xlink:href="classecs_1_1components_1_1Motion.html" target="_top" xlink:title="Motion describes the Motion like the Velocity and the Acceleration of an Entity. ">
<polygon fill="none" stroke="black" points="419,-114.5 419,-133.5 556,-133.5 556,-114.5 419,-114.5"/>
<text text-anchor="middle" x="487.5" y="-121.5" font-family="Helvetica,sans-Serif" font-size="10.00">ecs::components::Motion</text>
</a>
</g>
</g>
<!-- Node26&#45;&gt;Node29 -->
<g id="edge28" class="edge"><title>Node26&#45;&gt;Node29</title>
<path fill="none" stroke="midnightblue" d="M362.079,-124C380.897,-124 400.749,-124 418.934,-124"/>
<polygon fill="midnightblue" stroke="midnightblue" points="362.049,-120.5 352.049,-124 362.049,-127.5 362.049,-120.5"/>
</g>
<!-- Node32 -->
<g id="node32" class="node"><title>Node32</title>
<g id="a_node32"><a xlink:href="classecs_1_1components_1_1Position.html" target="_top" xlink:title="ecs::components::Position">
<polygon fill="none" stroke="black" points="416,-76.5 416,-95.5 559,-95.5 559,-76.5 416,-76.5"/>
<text text-anchor="middle" x="487.5" y="-83.5" font-family="Helvetica,sans-Serif" font-size="10.00">ecs::components::Position</text>
</a>
</g>
</g>
<!-- Node26&#45;&gt;Node32 -->
<g id="edge31" class="edge"><title>Node26&#45;&gt;Node32</title>
<path fill="none" stroke="midnightblue" d="M343.098,-112.582C372.43,-107.145 407.107,-100.717 435.013,-95.5439"/>
<polygon fill="midnightblue" stroke="midnightblue" points="342.16,-109.196 332.966,-114.46 343.436,-116.079 342.16,-109.196"/>
</g>
<!-- Node33 -->
<g id="node33" class="node"><title>Node33</title>
<g id="a_node33"><a xlink:href="classecs_1_1components_1_1Rotation.html" target="_top" xlink:title="Rotation describes the Rotation of an Entity. ">
<polygon fill="none" stroke="black" points="415.5,-38.5 415.5,-57.5 559.5,-57.5 559.5,-38.5 415.5,-38.5"/>
<text text-anchor="middle" x="487.5" y="-45.5" font-family="Helvetica,sans-Serif" font-size="10.00">ecs::components::Rotation</text>
</a>
</g>
</g>
<!-- Node26&#45;&gt;Node33 -->
<g id="edge32" class="edge"><title>Node26&#45;&gt;Node33</title>
<path fill="none" stroke="midnightblue" d="M306.487,-109.39C329.364,-96.5725 364.505,-78.2688 397,-67 407.806,-63.2528 419.613,-60.1104 431.003,-57.5291"/>
<polygon fill="midnightblue" stroke="midnightblue" points="304.734,-106.36 297.768,-114.343 308.192,-112.447 304.734,-106.36"/>
</g>
<!-- Node34 -->
<g id="node34" class="node"><title>Node34</title>
<g id="a_node34"><a xlink:href="classecs_1_1components_1_1Transform.html" target="_top" xlink:title="Transform describes the Transform of an Entity. ">
<polygon fill="none" stroke="black" points="411.5,-0.5 411.5,-19.5 563.5,-19.5 563.5,-0.5 411.5,-0.5"/>
<text text-anchor="middle" x="487.5" y="-7.5" font-family="Helvetica,sans-Serif" font-size="10.00">ecs::components::Transform</text>
</a>
</g>
</g>
<!-- Node26&#45;&gt;Node34 -->
<g id="edge33" class="edge"><title>Node26&#45;&gt;Node34</title>
<path fill="none" stroke="midnightblue" d="M297.003,-106.96C317.657,-85.3575 356.344,-48.5766 397,-29 405.015,-25.1409 413.805,-22.0609 422.65,-19.6039"/>
<polygon fill="midnightblue" stroke="midnightblue" points="294.288,-104.739 290.004,-114.429 299.396,-109.525 294.288,-104.739"/>
</g>
<!-- Node30 -->
<g id="node30" class="node"><title>Node30</title>
<g id="a_node30"><a xlink:href="classecs_1_1components_1_1Acceleration.html" target="_top" xlink:title="Acceleration describes the Acceleration of an Entity. ">
<polygon fill="none" stroke="black" points="614,-133.5 614,-152.5 778,-152.5 778,-133.5 614,-133.5"/>
<text text-anchor="middle" x="696" y="-140.5" font-family="Helvetica,sans-Serif" font-size="10.00">ecs::components::Acceleration</text>
</a>
</g>
</g>
<!-- Node29&#45;&gt;Node30 -->
<g id="edge29" class="edge"><title>Node29&#45;&gt;Node30</title>
<path fill="none" stroke="midnightblue" d="M566.222,-131.151C581.808,-132.585 598.222,-134.095 613.918,-135.54"/>
<polygon fill="midnightblue" stroke="midnightblue" points="566.394,-127.652 556.116,-130.221 565.753,-134.623 566.394,-127.652"/>
</g>
<!-- Node31 -->
<g id="node31" class="node"><title>Node31</title>
<g id="a_node31"><a xlink:href="classecs_1_1components_1_1Velocity.html" target="_top" xlink:title="Velocity describes the Velocity of an Entity. ">
<polygon fill="none" stroke="black" points="625,-95.5 625,-114.5 767,-114.5 767,-95.5 625,-95.5"/>
<text text-anchor="middle" x="696" y="-102.5" font-family="Helvetica,sans-Serif" font-size="10.00">ecs::components::Velocity</text>
</a>
</g>
</g>
<!-- Node29&#45;&gt;Node31 -->
<g id="edge30" class="edge"><title>Node29&#45;&gt;Node31</title>
<path fill="none" stroke="midnightblue" d="M566.323,-116.84C585.51,-115.074 605.947,-113.194 624.751,-111.464"/>
<polygon fill="midnightblue" stroke="midnightblue" points="565.753,-113.377 556.116,-117.779 566.394,-120.348 565.753,-113.377"/>
</g>
</g>
</svg>
