<?xml version="1.0" encoding="UTF-8" standalone="no"?>
<!DOCTYPE svg PUBLIC "-//W3C//DTD SVG 1.1//EN"
 "http://www.w3.org/Graphics/SVG/1.1/DTD/svg11.dtd">
<!-- Generated by graphviz version 2.38.0 (20140413.2041)
 -->
<!-- Title: Graphical Class Hierarchy Pages: 1 -->
<svg width="333pt" height="104pt"
 viewBox="0.00 0.00 333.00 104.00" xmlns="http://www.w3.org/2000/svg" xmlns:xlink="http://www.w3.org/1999/xlink">
<g id="graph0" class="graph" transform="scale(1 1) rotate(0) translate(4 100)">
<title>Graphical Class Hierarchy</title>
<!-- Node1 -->
<g id="node1" class="node"><title>Node1</title>
<polygon fill="none" stroke="#bfbfbf" points="0,-38.5 0,-57.5 137,-57.5 137,-38.5 0,-38.5"/>
<text text-anchor="middle" x="68.5" y="-45.5" font-family="Helvetica,sans-Serif" font-size="10.00">enable_shared_from_this</text>
</g>
<!-- Node2 -->
<g id="node2" class="node"><title>Node2</title>
<g id="a_node2"><a xlink:href="classecs_1_1network_1_1ClientSession.html" target="_top" xlink:title="ecs::network::ClientSession">
<polygon fill="none" stroke="black" points="175.5,-38.5 175.5,-57.5 322.5,-57.5 322.5,-38.5 175.5,-38.5"/>
<text text-anchor="middle" x="249" y="-45.5" font-family="Helvetica,sans-Serif" font-size="10.00">ecs::network::ClientSession</text>
</a>
</g>
</g>
<!-- Node1&#45;&gt;Node2 -->
<g id="edge1" class="edge"><title>Node1&#45;&gt;Node2</title>
<path fill="none" stroke="midnightblue" d="M147.246,-48C156.549,-48 166.021,-48 175.249,-48"/>
<polygon fill="midnightblue" stroke="midnightblue" points="147.238,-44.5001 137.238,-48 147.238,-51.5001 147.238,-44.5001"/>
</g>
<!-- Node3 -->
<g id="node3" class="node"><title>Node3</title>
<g id="a_node3"><a xlink:href="classecs_1_1network_1_1ServerSession.html" target="_top" xlink:title="ecs::network::ServerSession">
<polygon fill="none" stroke="black" points="173,-76.5 173,-95.5 325,-95.5 325,-76.5 173,-76.5"/>
<text text-anchor="middle" x="249" y="-83.5" font-family="Helvetica,sans-Serif" font-size="10.00">ecs::network::ServerSession</text>
</a>
</g>
</g>
<!-- Node1&#45;&gt;Node3 -->
<g id="edge2" class="edge"><title>Node1&#45;&gt;Node3</title>
<path fill="none" stroke="midnightblue" d="M124.37,-59.681C149.684,-65.0699 179.353,-71.3861 203.281,-76.4799"/>
<polygon fill="midnightblue" stroke="midnightblue" points="125.053,-56.248 114.543,-57.589 123.595,-63.0946 125.053,-56.248"/>
</g>
<!-- Node4 -->
<g id="node4" class="node"><title>Node4</title>
<g id="a_node4"><a xlink:href="classTestNetwork.html" target="_top" xlink:title="TestNetwork">
<polygon fill="none" stroke="black" points="212,-0.5 212,-19.5 286,-19.5 286,-0.5 212,-0.5"/>
<text text-anchor="middle" x="249" y="-7.5" font-family="Helvetica,sans-Serif" font-size="10.00">TestNetwork</text>
</a>
</g>
</g>
<!-- Node1&#45;&gt;Node4 -->
<g id="edge3" class="edge"><title>Node1&#45;&gt;Node4</title>
<path fill="none" stroke="midnightblue" d="M124.362,-36.3206C152.839,-30.2583 186.83,-23.0221 211.958,-17.6727"/>
<polygon fill="midnightblue" stroke="midnightblue" points="123.595,-32.9054 114.543,-38.411 125.053,-39.752 123.595,-32.9054"/>
</g>
<!-- Node5 -->
<g id="node5" class="node"><title>Node5</title>
<g id="a_node5"><a xlink:href="classecs_1_1network_1_1ISession.html" target="_top" xlink:title="ecs::network::ISession">
<polygon fill="none" stroke="black" points="7.5,-76.5 7.5,-95.5 129.5,-95.5 129.5,-76.5 7.5,-76.5"/>
<text text-anchor="middle" x="68.5" y="-83.5" font-family="Helvetica,sans-Serif" font-size="10.00">ecs::network::ISession</text>
</a>
</g>
</g>
<!-- Node5&#45;&gt;Node2 -->
<g id="edge4" class="edge"><title>Node5&#45;&gt;Node2</title>
<path fill="none" stroke="midnightblue" d="M124.37,-74.319C149.684,-68.9301 179.353,-62.6139 203.281,-57.5201"/>
<polygon fill="midnightblue" stroke="midnightblue" points="123.595,-70.9054 114.543,-76.411 125.053,-77.752 123.595,-70.9054"/>
</g>
<!-- Node5&#45;&gt;Node3 -->
<g id="edge5" class="edge"><title>Node5&#45;&gt;Node3</title>
<path fill="none" stroke="midnightblue" d="M140.084,-86C150.817,-86 161.926,-86 172.753,-86"/>
<polygon fill="midnightblue" stroke="midnightblue" points="139.932,-82.5001 129.932,-86 139.932,-89.5001 139.932,-82.5001"/>
</g>
</g>
</svg>
