<?xml version="1.0" encoding="UTF-8" standalone="no"?>
<!DOCTYPE svg PUBLIC "-//W3C//DTD SVG 1.1//EN"
 "http://www.w3.org/Graphics/SVG/1.1/DTD/svg11.dtd">
<!-- Generated by graphviz version 2.38.0 (20140413.2041)
 -->
<!-- Title: src/Render/IRenderManager.hpp Pages: 1 -->
<!--zoomable 308 -->
<svg id="main" version="1.1" xmlns="http://www.w3.org/2000/svg" xmlns:xlink="http://www.w3.org/1999/xlink" xml:space="preserve" onload="init(evt)">
<style type="text/css"><![CDATA[
.edge:hover path { stroke: red; }
.edge:hover polygon { stroke: red; fill: red; }
]]></style>
<script type="text/javascript"><![CDATA[
var edges = document.getElementsByTagName('g');
if (edges && edges.length) {
  for (var i=0;i<edges.length;i++) {
    if (edges[i].id.substr(0,4)=='edge') {
      edges[i].setAttribute('class','edge');
    }
  }
}
]]></script>
        <defs>
                <circle id="rim" cx="0" cy="0" r="7"/>
                <circle id="rim2" cx="0" cy="0" r="3.5"/>
                <g id="zoomPlus">
                        <use xlink:href="#rim" fill="#404040">
                                <set attributeName="fill" to="#808080" begin="zoomplus.mouseover" end="zoomplus.mouseout"/>
                        </use>
                        <path d="M-4,0h8M0,-4v8" fill="none" stroke="white" stroke-width="1.5" pointer-events="none"/>
                </g>
                <g id="zoomMin">
                        <use xlink:href="#rim" fill="#404040">
                                <set attributeName="fill" to="#808080" begin="zoomminus.mouseover" end="zoomminus.mouseout"/>
                        </use>
                        <path d="M-4,0h8" fill="none" stroke="white" stroke-width="1.5" pointer-events="none"/>
                </g>
                <g id="dirArrow">
                        <path fill="none" stroke="white" stroke-width="1.5" d="M0,-3.0v7 M-2.5,-0.5L0,-3.0L2.5,-0.5"/>
                </g>
               <g id="resetDef">
                       <use xlink:href="#rim2" fill="#404040">
                               <set attributeName="fill" to="#808080" begin="reset.mouseover" end="reset.mouseout"/>
                       </use>
               </g>
        </defs>

<script type="text/javascript">
var viewWidth = 1387;
var viewHeight = 308;
var sectionId = 'dynsection-0';
</script>
<script xlink:href="svgpan.js"/>
<svg id="graph" class="graph">
<g id="viewport">
<title>src/Render/IRenderManager.hpp</title>
<!-- Node1 -->
<g id="node1" class="node"><title>Node1</title>
<polygon fill="#bfbfbf" stroke="black" points="424.5,-280.5 424.5,-299.5 591.5,-299.5 591.5,-280.5 424.5,-280.5"/>
<text text-anchor="middle" x="508" y="-287.5" font-family="Helvetica,sans-Serif" font-size="10.00">src/Render/IRenderManager.hpp</text>
</g>
<!-- Node2 -->
<g id="node2" class="node"><title>Node2</title>
<polygon fill="none" stroke="#bfbfbf" points="422.5,-112.5 422.5,-131.5 479.5,-131.5 479.5,-112.5 422.5,-112.5"/>
<text text-anchor="middle" x="451" y="-119.5" font-family="Helvetica,sans-Serif" font-size="10.00">memory</text>
</g>
<!-- Node1&#45;&gt;Node2 -->
<g id="edge1" class="edge"><title>Node1&#45;&gt;Node2</title>
<path fill="none" stroke="midnightblue" d="M509.889,-280.226C513.896,-259.475 521.449,-206.254 503,-168 497.003,-155.566 485.816,-145.184 475.35,-137.537"/>
<polygon fill="midnightblue" stroke="midnightblue" points="477.097,-134.493 466.858,-131.772 473.165,-140.284 477.097,-134.493"/>
</g>
<!-- Node3 -->
<g id="node3" class="node"><title>Node3</title>
<polygon fill="none" stroke="#bfbfbf" points="13.5,-112.5 13.5,-131.5 60.5,-131.5 60.5,-112.5 13.5,-112.5"/>
<text text-anchor="middle" x="37" y="-119.5" font-family="Helvetica,sans-Serif" font-size="10.00">vector</text>
</g>
<!-- Node1&#45;&gt;Node3 -->
<g id="edge2" class="edge"><title>Node1&#45;&gt;Node3</title>
<path fill="none" stroke="midnightblue" d="M424.06,-284.652C308.702,-277.982 112.362,-263.88 86,-244 53.3829,-219.403 42.4051,-169.457 38.7643,-142.052"/>
<polygon fill="midnightblue" stroke="midnightblue" points="42.2099,-141.372 37.6115,-131.827 35.254,-142.156 42.2099,-141.372"/>
</g>
<!-- Node4 -->
<g id="node4" class="node"><title>Node4</title>
<polygon fill="none" stroke="#bfbfbf" points="581,-56.5 581,-75.5 625,-75.5 625,-56.5 581,-56.5"/>
<text text-anchor="middle" x="603" y="-63.5" font-family="Helvetica,sans-Serif" font-size="10.00">string</text>
</g>
<!-- Node1&#45;&gt;Node4 -->
<g id="edge3" class="edge"><title>Node1&#45;&gt;Node4</title>
<path fill="none" stroke="midnightblue" d="M512.13,-280.421C516.443,-271.401 523.352,-256.774 529,-244 554.533,-186.253 582.829,-116.972 595.795,-84.9046"/>
<polygon fill="midnightblue" stroke="midnightblue" points="599.083,-86.1098 599.579,-75.5266 592.591,-83.4909 599.083,-86.1098"/>
</g>
<!-- Node5 -->
<g id="node5" class="node"><title>Node5</title>
<polygon fill="none" stroke="#bfbfbf" points="229,-168.5 229,-187.5 267,-187.5 267,-168.5 229,-168.5"/>
<text text-anchor="middle" x="248" y="-175.5" font-family="Helvetica,sans-Serif" font-size="10.00">map</text>
</g>
<!-- Node1&#45;&gt;Node5 -->
<g id="edge4" class="edge"><title>Node1&#45;&gt;Node5</title>
<path fill="none" stroke="midnightblue" d="M430.805,-280.484C394.351,-274.122 351.22,-263.082 316,-244 293.674,-231.903 273.383,-210.523 260.892,-195.599"/>
<polygon fill="midnightblue" stroke="midnightblue" points="263.492,-193.249 254.481,-187.676 258.051,-197.652 263.492,-193.249"/>
</g>
<!-- Node6 -->
<g id="node6" class="node"><title>Node6</title>
<g id="a_node6"><a xlink:href="IComponent_8hpp.html" target="_top" xlink:title="IComponent.hpp">
<polygon fill="none" stroke="black" points="825,-56.5 825,-75.5 921,-75.5 921,-56.5 825,-56.5"/>
<text text-anchor="middle" x="873" y="-63.5" font-family="Helvetica,sans-Serif" font-size="10.00">IComponent.hpp</text>
</a>
</g>
</g>
<!-- Node1&#45;&gt;Node6 -->
<g id="edge5" class="edge"><title>Node1&#45;&gt;Node6</title>
<path fill="none" stroke="midnightblue" d="M591.796,-288.036C677.698,-285.274 803.578,-275.73 839,-244 884.217,-203.496 880.427,-122.73 875.939,-85.9876"/>
<polygon fill="midnightblue" stroke="midnightblue" points="879.355,-85.1384 874.519,-75.7118 872.421,-86.0969 879.355,-85.1384"/>
</g>
<!-- Node8 -->
<g id="node8" class="node"><title>Node8</title>
<g id="a_node8"><a xlink:href="ComponentManager_8hpp.html" target="_top" xlink:title="ComponentManager.hpp">
<polygon fill="none" stroke="black" points="325.5,-224.5 325.5,-243.5 460.5,-243.5 460.5,-224.5 325.5,-224.5"/>
<text text-anchor="middle" x="393" y="-231.5" font-family="Helvetica,sans-Serif" font-size="10.00">ComponentManager.hpp</text>
</a>
</g>
</g>
<!-- Node1&#45;&gt;Node8 -->
<g id="edge7" class="edge"><title>Node1&#45;&gt;Node8</title>
<path fill="none" stroke="midnightblue" d="M489.778,-280.444C471.104,-271.675 441.844,-257.935 420.383,-247.858"/>
<polygon fill="midnightblue" stroke="midnightblue" points="421.676,-244.599 411.137,-243.516 418.701,-250.935 421.676,-244.599"/>
</g>
<!-- Node11 -->
<g id="node11" class="node"><title>Node11</title>
<g id="a_node11"><a xlink:href="Entity_8hpp.html" target="_top" xlink:title="Entity.hpp">
<polygon fill="none" stroke="black" points="302.5,-112.5 302.5,-131.5 365.5,-131.5 365.5,-112.5 302.5,-112.5"/>
<text text-anchor="middle" x="334" y="-119.5" font-family="Helvetica,sans-Serif" font-size="10.00">Entity.hpp</text>
</a>
</g>
</g>
<!-- Node1&#45;&gt;Node11 -->
<g id="edge16" class="edge"><title>Node1&#45;&gt;Node11</title>
<path fill="none" stroke="midnightblue" d="M504.68,-280.443C495.873,-258.763 469.893,-201.058 431,-168 413.775,-153.359 390.989,-142.465 371.83,-135.066"/>
<polygon fill="midnightblue" stroke="midnightblue" points="372.784,-131.687 362.19,-131.514 370.363,-138.255 372.784,-131.687"/>
</g>
<!-- Node12 -->
<g id="node12" class="node"><title>Node12</title>
<g id="a_node12"><a xlink:href="EntityManager_8hpp.html" target="_top" xlink:title="EntityManager.hpp">
<polygon fill="none" stroke="black" points="119,-224.5 119,-243.5 225,-243.5 225,-224.5 119,-224.5"/>
<text text-anchor="middle" x="172" y="-231.5" font-family="Helvetica,sans-Serif" font-size="10.00">EntityManager.hpp</text>
</a>
</g>
</g>
<!-- Node1&#45;&gt;Node12 -->
<g id="edge17" class="edge"><title>Node1&#45;&gt;Node12</title>
<path fill="none" stroke="midnightblue" d="M454.76,-280.444C395.04,-270.846 298.259,-255.292 234.868,-245.104"/>
<polygon fill="midnightblue" stroke="midnightblue" points="235.42,-241.648 224.991,-243.516 234.309,-248.559 235.42,-241.648"/>
</g>
<!-- Node13 -->
<g id="node13" class="node"><title>Node13</title>
<g id="a_node13"><a xlink:href="PacketManager_8hpp.html" target="_top" xlink:title="PacketManager.hpp">
<polygon fill="none" stroke="black" points="91,-112.5 91,-131.5 201,-131.5 201,-112.5 91,-112.5"/>
<text text-anchor="middle" x="146" y="-119.5" font-family="Helvetica,sans-Serif" font-size="10.00">PacketManager.hpp</text>
</a>
</g>
</g>
<!-- Node1&#45;&gt;Node13 -->
<g id="edge49" class="edge"><title>Node1&#45;&gt;Node13</title>
<path fill="none" stroke="midnightblue" d="M424.313,-289.303C322.407,-288.034 157.93,-280.198 110,-244 81.8383,-222.732 71.3453,-199.628 87,-168 93.603,-154.659 106.265,-144.194 118.171,-136.726"/>
<polygon fill="midnightblue" stroke="midnightblue" points="120.118,-139.643 127.016,-131.602 116.609,-133.587 120.118,-139.643"/>
</g>
<!-- Node14 -->
<g id="node14" class="node"><title>Node14</title>
<g id="a_node14"><a xlink:href="Input_8hpp.html" target="_top" xlink:title="Render/Input.hpp">
<polygon fill="none" stroke="black" points="0,-56.5 0,-75.5 98,-75.5 98,-56.5 0,-56.5"/>
<text text-anchor="middle" x="49" y="-63.5" font-family="Helvetica,sans-Serif" font-size="10.00">Render/Input.hpp</text>
</a>
</g>
</g>
<!-- Node1&#45;&gt;Node14 -->
<g id="edge48" class="edge"><title>Node1&#45;&gt;Node14</title>
<path fill="none" stroke="midnightblue" d="M424.475,-289.693C312.493,-289.095 121.137,-282.256 64,-244 17.0761,-212.582 17.7469,-186.772 4,-132 1.83614,-123.379 0.598369,-120.212 4,-112 8.92045,-100.121 18.6667,-89.7428 27.8343,-81.9557"/>
<polygon fill="midnightblue" stroke="midnightblue" points="30.2529,-84.5058 35.9359,-75.5641 25.9172,-79.0101 30.2529,-84.5058"/>
</g>
<!-- Node16 -->
<g id="node16" class="node"><title>Node16</title>
<g id="a_node16"><a xlink:href="Sprite_8hpp.html" target="_top" xlink:title="Display/Sprite.hpp">
<polygon fill="none" stroke="black" points="631,-168.5 631,-187.5 735,-187.5 735,-168.5 631,-168.5"/>
<text text-anchor="middle" x="683" y="-175.5" font-family="Helvetica,sans-Serif" font-size="10.00">Display/Sprite.hpp</text>
</a>
</g>
</g>
<!-- Node1&#45;&gt;Node16 -->
<g id="edge30" class="edge"><title>Node1&#45;&gt;Node16</title>
<path fill="none" stroke="midnightblue" d="M521.732,-280.368C551.89,-261.412 624.135,-216.001 660.819,-192.942"/>
<polygon fill="midnightblue" stroke="midnightblue" points="662.728,-195.876 669.332,-187.591 659.003,-189.95 662.728,-195.876"/>
</g>
<!-- Node19 -->
<g id="node19" class="node"><title>Node19</title>
<g id="a_node19"><a xlink:href="Position_8hpp.html" target="_top" xlink:title="Physics/Position.hpp">
<polygon fill="none" stroke="black" points="717.5,-224.5 717.5,-243.5 830.5,-243.5 830.5,-224.5 717.5,-224.5"/>
<text text-anchor="middle" x="774" y="-231.5" font-family="Helvetica,sans-Serif" font-size="10.00">Physics/Position.hpp</text>
</a>
</g>
</g>
<!-- Node1&#45;&gt;Node19 -->
<g id="edge37" class="edge"><title>Node1&#45;&gt;Node19</title>
<path fill="none" stroke="midnightblue" d="M550.148,-280.444C596.746,-270.984 671.844,-255.738 722.045,-245.547"/>
<polygon fill="midnightblue" stroke="midnightblue" points="722.945,-248.936 732.049,-243.516 721.552,-242.076 722.945,-248.936"/>
</g>
<!-- Node22 -->
<g id="node22" class="node"><title>Node22</title>
<g id="a_node22"><a xlink:href="Text_8hpp.html" target="_top" xlink:title="Display/Text.hpp">
<polygon fill="none" stroke="black" points="958,-224.5 958,-243.5 1052,-243.5 1052,-224.5 958,-224.5"/>
<text text-anchor="middle" x="1005" y="-231.5" font-family="Helvetica,sans-Serif" font-size="10.00">Display/Text.hpp</text>
</a>
</g>
</g>
<!-- Node1&#45;&gt;Node22 -->
<g id="edge41" class="edge"><title>Node1&#45;&gt;Node22</title>
<path fill="none" stroke="midnightblue" d="M586.477,-280.473C686.989,-269.553 858.796,-250.885 947.794,-241.216"/>
<polygon fill="midnightblue" stroke="midnightblue" points="948.403,-244.67 957.966,-240.11 947.647,-237.711 948.403,-244.67"/>
</g>
<!-- Node25 -->
<g id="node25" class="node"><title>Node25</title>
<g id="a_node25"><a xlink:href="Music_8hpp.html" target="_top" xlink:title="Music.hpp">
<polygon fill="none" stroke="black" points="1214.5,-224.5 1214.5,-243.5 1279.5,-243.5 1279.5,-224.5 1214.5,-224.5"/>
<text text-anchor="middle" x="1247" y="-231.5" font-family="Helvetica,sans-Serif" font-size="10.00">Music.hpp</text>
</a>
</g>
</g>
<!-- Node1&#45;&gt;Node25 -->
<g id="edge50" class="edge"><title>Node1&#45;&gt;Node25</title>
<path fill="none" stroke="midnightblue" d="M591.694,-282.884C749.427,-271.359 1085.51,-246.801 1204.31,-238.119"/>
<polygon fill="midnightblue" stroke="midnightblue" points="1204.74,-241.597 1214.46,-237.378 1204.23,-234.616 1204.74,-241.597"/>
</g>
<!-- Node7 -->
<g id="node7" class="node"><title>Node7</title>
<polygon fill="none" stroke="#bfbfbf" points="958.5,-0.5 958.5,-19.5 1021.5,-19.5 1021.5,-0.5 958.5,-0.5"/>
<text text-anchor="middle" x="990" y="-7.5" font-family="Helvetica,sans-Serif" font-size="10.00">typeindex</text>
</g>
<!-- Node6&#45;&gt;Node7 -->
<g id="edge6" class="edge"><title>Node6&#45;&gt;Node7</title>
<path fill="none" stroke="midnightblue" d="M891.539,-56.4435C910.623,-47.6356 940.575,-33.8116 962.436,-23.722"/>
<polygon fill="midnightblue" stroke="midnightblue" points="963.935,-26.8849 971.548,-19.5164 961.001,-20.5292 963.935,-26.8849"/>
</g>
<!-- Node8&#45;&gt;Node2 -->
<g id="edge9" class="edge"><title>Node8&#45;&gt;Node2</title>
<path fill="none" stroke="midnightblue" d="M402.038,-224.499C410.596,-215.997 423.256,-202.179 431,-188 438.958,-173.428 444.208,-155.252 447.324,-141.828"/>
<polygon fill="midnightblue" stroke="midnightblue" points="450.789,-142.363 449.452,-131.853 443.943,-140.903 450.789,-142.363"/>
</g>
<!-- Node8&#45;&gt;Node5 -->
<g id="edge8" class="edge"><title>Node8&#45;&gt;Node5</title>
<path fill="none" stroke="midnightblue" d="M370.024,-224.444C344.705,-215.014 303.95,-199.836 276.586,-189.646"/>
<polygon fill="midnightblue" stroke="midnightblue" points="277.756,-186.347 267.164,-186.137 275.313,-192.907 277.756,-186.347"/>
</g>
<!-- Node8&#45;&gt;Node6 -->
<g id="edge10" class="edge"><title>Node8&#45;&gt;Node6</title>
<path fill="none" stroke="midnightblue" d="M408.765,-224.377C449.287,-202.543 560.865,-144.506 660,-112 711.203,-95.2107 771.437,-83.1648 814.763,-75.7864"/>
<polygon fill="midnightblue" stroke="midnightblue" points="815.557,-79.2022 824.844,-74.1017 814.403,-72.298 815.557,-79.2022"/>
</g>
<!-- Node9 -->
<g id="node9" class="node"><title>Node9</title>
<g id="a_node9"><a xlink:href="IComponentManager_8hpp.html" target="_top" xlink:title="IComponentManager.hpp">
<polygon fill="none" stroke="black" points="285.5,-168.5 285.5,-187.5 422.5,-187.5 422.5,-168.5 285.5,-168.5"/>
<text text-anchor="middle" x="354" y="-175.5" font-family="Helvetica,sans-Serif" font-size="10.00">IComponentManager.hpp</text>
</a>
</g>
</g>
<!-- Node8&#45;&gt;Node9 -->
<g id="edge11" class="edge"><title>Node8&#45;&gt;Node9</title>
<path fill="none" stroke="midnightblue" d="M386.56,-224.083C381.051,-216.455 372.969,-205.264 366.235,-195.941"/>
<polygon fill="midnightblue" stroke="midnightblue" points="369.013,-193.809 360.32,-187.751 363.338,-197.907 369.013,-193.809"/>
</g>
<!-- Node9&#45;&gt;Node2 -->
<g id="edge13" class="edge"><title>Node9&#45;&gt;Node2</title>
<path fill="none" stroke="midnightblue" d="M369.585,-168.324C384.999,-159.743 408.812,-146.486 426.71,-136.522"/>
<polygon fill="midnightblue" stroke="midnightblue" points="428.419,-139.577 435.454,-131.655 425.014,-133.461 428.419,-139.577"/>
</g>
<!-- Node9&#45;&gt;Node6 -->
<g id="edge14" class="edge"><title>Node9&#45;&gt;Node6</title>
<path fill="none" stroke="midnightblue" d="M358.858,-168.401C367.58,-153.889 387.399,-124.864 413,-112 448.104,-94.3609 698.701,-77.3746 814.544,-70.3651"/>
<polygon fill="midnightblue" stroke="midnightblue" points="814.883,-73.8511 824.655,-69.7579 814.463,-66.8637 814.883,-73.8511"/>
</g>
<!-- Node10 -->
<g id="node10" class="node"><title>Node10</title>
<polygon fill="none" stroke="#bfbfbf" points="186,-56.5 186,-75.5 216,-75.5 216,-56.5 186,-56.5"/>
<text text-anchor="middle" x="201" y="-63.5" font-family="Helvetica,sans-Serif" font-size="10.00">list</text>
</g>
<!-- Node9&#45;&gt;Node10 -->
<g id="edge12" class="edge"><title>Node9&#45;&gt;Node10</title>
<path fill="none" stroke="midnightblue" d="M341.994,-168.368C315.851,-149.573 253.532,-104.768 221.215,-81.5334"/>
<polygon fill="midnightblue" stroke="midnightblue" points="223.112,-78.5871 212.95,-75.5914 219.026,-84.2707 223.112,-78.5871"/>
</g>
<!-- Node9&#45;&gt;Node11 -->
<g id="edge15" class="edge"><title>Node9&#45;&gt;Node11</title>
<path fill="none" stroke="midnightblue" d="M350.697,-168.083C348.018,-160.849 344.151,-150.409 340.814,-141.397"/>
<polygon fill="midnightblue" stroke="midnightblue" points="343.996,-139.913 337.241,-131.751 337.432,-142.344 343.996,-139.913"/>
</g>
<!-- Node12&#45;&gt;Node3 -->
<g id="edge19" class="edge"><title>Node12&#45;&gt;Node3</title>
<path fill="none" stroke="midnightblue" d="M149.829,-224.397C131.688,-216.658 106.013,-204.047 87,-188 70.7344,-174.272 56.4146,-154.41 47.3152,-140.261"/>
<polygon fill="midnightblue" stroke="midnightblue" points="50.1383,-138.172 41.8898,-131.523 44.1915,-141.865 50.1383,-138.172"/>
</g>
<!-- Node12&#45;&gt;Node5 -->
<g id="edge18" class="edge"><title>Node12&#45;&gt;Node5</title>
<path fill="none" stroke="midnightblue" d="M184.211,-224.324C195.776,-216.107 213.375,-203.602 227.161,-193.807"/>
<polygon fill="midnightblue" stroke="midnightblue" points="229.443,-196.479 235.567,-187.834 225.388,-190.773 229.443,-196.479"/>
</g>
<!-- Node12&#45;&gt;Node9 -->
<g id="edge24" class="edge"><title>Node12&#45;&gt;Node9</title>
<path fill="none" stroke="midnightblue" d="M200.838,-224.444C231.856,-215.241 281.329,-200.562 315.618,-190.388"/>
<polygon fill="midnightblue" stroke="midnightblue" points="316.705,-193.716 325.296,-187.516 314.714,-187.006 316.705,-193.716"/>
</g>
<!-- Node12&#45;&gt;Node13 -->
<g id="edge20" class="edge"><title>Node12&#45;&gt;Node13</title>
<path fill="none" stroke="midnightblue" d="M142.879,-224.441C125.357,-217.62 104.477,-206.141 94,-188 83.068,-169.072 103.205,-149.821 121.515,-137.235"/>
<polygon fill="midnightblue" stroke="midnightblue" points="123.708,-139.986 130.213,-131.623 119.912,-134.104 123.708,-139.986"/>
</g>
<!-- Node15 -->
<g id="node15" class="node"><title>Node15</title>
<g id="a_node15"><a xlink:href="IEntityManager_8hpp.html" target="_top" xlink:title="IEntityManager.hpp">
<polygon fill="none" stroke="black" points="103,-168.5 103,-187.5 211,-187.5 211,-168.5 103,-168.5"/>
<text text-anchor="middle" x="157" y="-175.5" font-family="Helvetica,sans-Serif" font-size="10.00">IEntityManager.hpp</text>
</a>
</g>
</g>
<!-- Node12&#45;&gt;Node15 -->
<g id="edge25" class="edge"><title>Node12&#45;&gt;Node15</title>
<path fill="none" stroke="midnightblue" d="M169.523,-224.083C167.514,-216.849 164.614,-206.409 162.11,-197.397"/>
<polygon fill="midnightblue" stroke="midnightblue" points="165.48,-196.449 159.431,-187.751 158.735,-198.323 165.48,-196.449"/>
</g>
<!-- Node13&#45;&gt;Node4 -->
<g id="edge21" class="edge"><title>Node13&#45;&gt;Node4</title>
<path fill="none" stroke="midnightblue" d="M201.125,-114.486C297.487,-103.1 493.644,-79.9217 570.798,-70.805"/>
<polygon fill="midnightblue" stroke="midnightblue" points="571.352,-74.264 580.872,-69.6146 570.531,-67.3124 571.352,-74.264"/>
</g>
<!-- Node13&#45;&gt;Node10 -->
<g id="edge22" class="edge"><title>Node13&#45;&gt;Node10</title>
<path fill="none" stroke="midnightblue" d="M155.082,-112.083C163.171,-104.141 175.195,-92.3354 184.91,-82.7973"/>
<polygon fill="midnightblue" stroke="midnightblue" points="187.403,-85.2545 192.087,-75.7511 182.499,-80.2595 187.403,-85.2545"/>
</g>
<!-- Node13&#45;&gt;Node14 -->
<g id="edge23" class="edge"><title>Node13&#45;&gt;Node14</title>
<path fill="none" stroke="midnightblue" d="M130.415,-112.324C115.001,-103.743 91.1878,-90.486 73.2903,-80.5224"/>
<polygon fill="midnightblue" stroke="midnightblue" points="74.9858,-77.4606 64.5461,-75.6545 71.5809,-83.5767 74.9858,-77.4606"/>
</g>
<!-- Node15&#45;&gt;Node2 -->
<g id="edge26" class="edge"><title>Node15&#45;&gt;Node2</title>
<path fill="none" stroke="midnightblue" d="M203.585,-168.444C261.267,-157.849 358.462,-139.997 412.257,-130.116"/>
<polygon fill="midnightblue" stroke="midnightblue" points="413.21,-133.5 422.413,-128.251 411.945,-126.615 413.21,-133.5"/>
</g>
<!-- Node15&#45;&gt;Node3 -->
<g id="edge27" class="edge"><title>Node15&#45;&gt;Node3</title>
<path fill="none" stroke="midnightblue" d="M137.986,-168.444C118.412,-159.636 87.6924,-145.812 65.2711,-135.722"/>
<polygon fill="midnightblue" stroke="midnightblue" points="66.4809,-132.428 55.9254,-131.516 63.6083,-138.812 66.4809,-132.428"/>
</g>
<!-- Node15&#45;&gt;Node11 -->
<g id="edge28" class="edge"><title>Node15&#45;&gt;Node11</title>
<path fill="none" stroke="midnightblue" d="M185.046,-168.444C215.082,-159.28 262.913,-144.688 296.243,-134.519"/>
<polygon fill="midnightblue" stroke="midnightblue" points="297.542,-137.782 306.085,-131.516 295.499,-131.087 297.542,-137.782"/>
</g>
<!-- Node15&#45;&gt;Node13 -->
<g id="edge29" class="edge"><title>Node15&#45;&gt;Node13</title>
<path fill="none" stroke="midnightblue" d="M155.184,-168.083C153.726,-160.927 151.629,-150.635 149.807,-141.691"/>
<polygon fill="midnightblue" stroke="midnightblue" points="153.208,-140.851 147.783,-131.751 146.349,-142.248 153.208,-140.851"/>
</g>
<!-- Node16&#45;&gt;Node4 -->
<g id="edge31" class="edge"><title>Node16&#45;&gt;Node4</title>
<path fill="none" stroke="midnightblue" d="M676.723,-168.368C663.52,-150.215 632.674,-107.802 615.356,-83.9902"/>
<polygon fill="midnightblue" stroke="midnightblue" points="617.961,-81.6202 609.248,-75.5914 612.299,-85.7374 617.961,-81.6202"/>
</g>
<!-- Node16&#45;&gt;Node7 -->
<g id="edge32" class="edge"><title>Node16&#45;&gt;Node7</title>
<path fill="none" stroke="midnightblue" d="M693.708,-168.206C704.521,-159.258 721.632,-144.906 736,-132 772.484,-99.2275 773.113,-79.7879 816,-56 857.598,-32.9271 911.358,-21.376 948.043,-15.8065"/>
<polygon fill="midnightblue" stroke="midnightblue" points="948.976,-19.2086 958.379,-14.3266 947.984,-12.2792 948.976,-19.2086"/>
</g>
<!-- Node17 -->
<g id="node17" class="node"><title>Node17</title>
<g id="a_node17"><a xlink:href="Rect_8hpp.html" target="_top" xlink:title="Rect.hpp">
<polygon fill="none" stroke="black" points="669,-112.5 669,-131.5 727,-131.5 727,-112.5 669,-112.5"/>
<text text-anchor="middle" x="698" y="-119.5" font-family="Helvetica,sans-Serif" font-size="10.00">Rect.hpp</text>
</a>
</g>
</g>
<!-- Node16&#45;&gt;Node17 -->
<g id="edge33" class="edge"><title>Node16&#45;&gt;Node17</title>
<path fill="none" stroke="midnightblue" d="M685.477,-168.083C687.486,-160.849 690.386,-150.409 692.89,-141.397"/>
<polygon fill="midnightblue" stroke="midnightblue" points="696.265,-142.323 695.569,-131.751 689.52,-140.449 696.265,-142.323"/>
</g>
<!-- Node18 -->
<g id="node18" class="node"><title>Node18</title>
<g id="a_node18"><a xlink:href="IDisplay_8hpp.html" target="_top" xlink:title="IDisplay.hpp">
<polygon fill="none" stroke="black" points="953.5,-112.5 953.5,-131.5 1026.5,-131.5 1026.5,-112.5 953.5,-112.5"/>
<text text-anchor="middle" x="990" y="-119.5" font-family="Helvetica,sans-Serif" font-size="10.00">IDisplay.hpp</text>
</a>
</g>
</g>
<!-- Node16&#45;&gt;Node18 -->
<g id="edge34" class="edge"><title>Node16&#45;&gt;Node18</title>
<path fill="none" stroke="midnightblue" d="M731.645,-168.444C789.702,-158.232 886.092,-141.277 943.284,-131.217"/>
<polygon fill="midnightblue" stroke="midnightblue" points="943.903,-134.662 953.145,-129.483 942.69,-127.768 943.903,-134.662"/>
</g>
<!-- Node18&#45;&gt;Node6 -->
<g id="edge36" class="edge"><title>Node18&#45;&gt;Node6</title>
<path fill="none" stroke="midnightblue" d="M971.461,-112.444C952.377,-103.636 922.425,-89.8116 900.564,-79.722"/>
<polygon fill="midnightblue" stroke="midnightblue" points="901.999,-76.5292 891.452,-75.5164 899.065,-82.8849 901.999,-76.5292"/>
</g>
<!-- Node18&#45;&gt;Node7 -->
<g id="edge35" class="edge"><title>Node18&#45;&gt;Node7</title>
<path fill="none" stroke="midnightblue" d="M990,-112.368C990,-94.617 990,-53.6664 990,-29.5974"/>
<polygon fill="midnightblue" stroke="midnightblue" points="993.5,-29.5914 990,-19.5914 986.5,-29.5915 993.5,-29.5914"/>
</g>
<!-- Node20 -->
<g id="node20" class="node"><title>Node20</title>
<polygon fill="none" stroke="#bfbfbf" points="753,-168.5 753,-187.5 795,-187.5 795,-168.5 753,-168.5"/>
<text text-anchor="middle" x="774" y="-175.5" font-family="Helvetica,sans-Serif" font-size="10.00">utility</text>
</g>
<!-- Node19&#45;&gt;Node20 -->
<g id="edge38" class="edge"><title>Node19&#45;&gt;Node20</title>
<path fill="none" stroke="midnightblue" d="M774,-224.083C774,-217.006 774,-206.861 774,-197.986"/>
<polygon fill="midnightblue" stroke="midnightblue" points="777.5,-197.751 774,-187.751 770.5,-197.751 777.5,-197.751"/>
</g>
<!-- Node21 -->
<g id="node21" class="node"><title>Node21</title>
<g id="a_node21"><a xlink:href="IPhysics_8hpp.html" target="_top" xlink:title="IPhysics.hpp">
<polygon fill="none" stroke="black" points="783.5,-112.5 783.5,-131.5 858.5,-131.5 858.5,-112.5 783.5,-112.5"/>
<text text-anchor="middle" x="821" y="-119.5" font-family="Helvetica,sans-Serif" font-size="10.00">IPhysics.hpp</text>
</a>
</g>
</g>
<!-- Node19&#45;&gt;Node21 -->
<g id="edge39" class="edge"><title>Node19&#45;&gt;Node21</title>
<path fill="none" stroke="midnightblue" d="M781.152,-224.216C787.921,-215.504 797.925,-201.534 804,-188 810.717,-173.035 815.184,-154.898 817.846,-141.589"/>
<polygon fill="midnightblue" stroke="midnightblue" points="821.295,-142.189 819.668,-131.72 814.411,-140.919 821.295,-142.189"/>
</g>
<!-- Node21&#45;&gt;Node6 -->
<g id="edge40" class="edge"><title>Node21&#45;&gt;Node6</title>
<path fill="none" stroke="midnightblue" d="M829.587,-112.083C837.159,-104.22 848.378,-92.5688 857.514,-83.0813"/>
<polygon fill="midnightblue" stroke="midnightblue" points="860.158,-85.3821 864.573,-75.7511 855.115,-80.5266 860.158,-85.3821"/>
</g>
<!-- Node22&#45;&gt;Node4 -->
<g id="edge43" class="edge"><title>Node22&#45;&gt;Node4</title>
<path fill="none" stroke="midnightblue" d="M991.975,-224.205C979.338,-215.485 959.806,-201.51 944,-188 907.448,-156.758 909.786,-133.941 867,-112 790.717,-72.8809 687.366,-66.7687 635.512,-66.4104"/>
<polygon fill="midnightblue" stroke="midnightblue" points="635.256,-62.9103 625.257,-66.4114 635.257,-69.9103 635.256,-62.9103"/>
</g>
<!-- Node22&#45;&gt;Node7 -->
<g id="edge42" class="edge"><title>Node22&#45;&gt;Node7</title>
<path fill="none" stroke="midnightblue" d="M1024.91,-224.41C1039.22,-217.04 1057.46,-204.916 1066,-188 1070.01,-180.065 1067.23,-176.803 1066,-168 1058.82,-116.731 1060,-100.766 1034,-56 1027.53,-44.86 1017.69,-34.4359 1008.95,-26.4313"/>
<polygon fill="midnightblue" stroke="midnightblue" points="1011.2,-23.7498 1001.36,-19.8092 1006.59,-29.0227 1011.2,-23.7498"/>
</g>
<!-- Node23 -->
<g id="node23" class="node"><title>Node23</title>
<g id="a_node23"><a xlink:href="Color_8hpp.html" target="_top" xlink:title="Color.hpp">
<polygon fill="none" stroke="black" points="1121,-168.5 1121,-187.5 1183,-187.5 1183,-168.5 1121,-168.5"/>
<text text-anchor="middle" x="1152" y="-175.5" font-family="Helvetica,sans-Serif" font-size="10.00">Color.hpp</text>
</a>
</g>
</g>
<!-- Node22&#45;&gt;Node23 -->
<g id="edge44" class="edge"><title>Node22&#45;&gt;Node23</title>
<path fill="none" stroke="midnightblue" d="M1028.29,-224.444C1052.81,-215.438 1091.6,-201.189 1119.2,-191.049"/>
<polygon fill="midnightblue" stroke="midnightblue" points="1120.64,-194.25 1128.82,-187.516 1118.22,-187.679 1120.64,-194.25"/>
</g>
<!-- Node24 -->
<g id="node24" class="node"><title>Node24</title>
<g id="a_node24"><a xlink:href="IUserInterface_8hpp.html" target="_top" xlink:title="IUserInterface.hpp">
<polygon fill="none" stroke="black" points="953,-168.5 953,-187.5 1057,-187.5 1057,-168.5 953,-168.5"/>
<text text-anchor="middle" x="1005" y="-175.5" font-family="Helvetica,sans-Serif" font-size="10.00">IUserInterface.hpp</text>
</a>
</g>
</g>
<!-- Node22&#45;&gt;Node24 -->
<g id="edge45" class="edge"><title>Node22&#45;&gt;Node24</title>
<path fill="none" stroke="midnightblue" d="M1005,-224.083C1005,-217.006 1005,-206.861 1005,-197.986"/>
<polygon fill="midnightblue" stroke="midnightblue" points="1008.5,-197.751 1005,-187.751 1001.5,-197.751 1008.5,-197.751"/>
</g>
<!-- Node24&#45;&gt;Node7 -->
<g id="edge46" class="edge"><title>Node24&#45;&gt;Node7</title>
<path fill="none" stroke="midnightblue" d="M1013.21,-168.182C1020.54,-159.663 1030.76,-146.019 1035,-132 1037.58,-123.493 1036.85,-120.694 1035,-112 1028.41,-80.9992 1011.6,-47.9748 1000.5,-28.4318"/>
<polygon fill="midnightblue" stroke="midnightblue" points="1003.5,-26.6289 995.434,-19.7557 997.451,-30.1568 1003.5,-26.6289"/>
</g>
<!-- Node24&#45;&gt;Node18 -->
<g id="edge47" class="edge"><title>Node24&#45;&gt;Node18</title>
<path fill="none" stroke="midnightblue" d="M1002.52,-168.083C1000.51,-160.849 997.614,-150.409 995.11,-141.397"/>
<polygon fill="midnightblue" stroke="midnightblue" points="998.48,-140.449 992.431,-131.751 991.735,-142.323 998.48,-140.449"/>
</g>
<!-- Node26 -->
<g id="node26" class="node"><title>Node26</title>
<polygon fill="none" stroke="#bfbfbf" points="1200.5,-168.5 1200.5,-187.5 1293.5,-187.5 1293.5,-168.5 1200.5,-168.5"/>
<text text-anchor="middle" x="1247" y="-175.5" font-family="Helvetica,sans-Serif" font-size="10.00">SFML/Audio.hpp</text>
</g>
<!-- Node25&#45;&gt;Node26 -->
<g id="edge51" class="edge"><title>Node25&#45;&gt;Node26</title>
<path fill="none" stroke="midnightblue" d="M1247,-224.083C1247,-217.006 1247,-206.861 1247,-197.986"/>
<polygon fill="midnightblue" stroke="midnightblue" points="1250.5,-197.751 1247,-187.751 1243.5,-197.751 1250.5,-197.751"/>
</g>
<!-- Node27 -->
<g id="node27" class="node"><title>Node27</title>
<g id="a_node27"><a xlink:href="IAudio_8hpp.html" target="_top" xlink:title="IAudio.hpp">
<polygon fill="none" stroke="black" points="1311.5,-168.5 1311.5,-187.5 1378.5,-187.5 1378.5,-168.5 1311.5,-168.5"/>
<text text-anchor="middle" x="1345" y="-175.5" font-family="Helvetica,sans-Serif" font-size="10.00">IAudio.hpp</text>
</a>
</g>
</g>
<!-- Node25&#45;&gt;Node27 -->
<g id="edge52" class="edge"><title>Node25&#45;&gt;Node27</title>
<path fill="none" stroke="midnightblue" d="M1262.75,-224.324C1278.32,-215.743 1302.38,-202.486 1320.46,-192.522"/>
<polygon fill="midnightblue" stroke="midnightblue" points="1322.22,-195.546 1329.29,-187.655 1318.85,-189.415 1322.22,-195.546"/>
</g>
</g>
</svg>
        <g id="navigator" transform="translate(0 0)" fill="#404254">
                <rect fill="#f2f5e9" fill-opacity="0.5" stroke="#606060" stroke-width=".5" x="0" y="0" width="60" height="60"/>
                <use id="zoomplus" xlink:href="#zoomPlus" x="17" y="9" onmousedown="handleZoom(evt,'in')"/>
                <use id="zoomminus" xlink:href="#zoomMin" x="42" y="9" onmousedown="handleZoom(evt,'out')"/>
                <use id="reset" xlink:href="#resetDef" x="30" y="36" onmousedown="handleReset()"/>
                <g id="arrowUp" xlink:href="#dirArrow" transform="translate(30 24)" onmousedown="handlePan(0,-1)">
                  <use xlink:href="#rim" fill="#404040">
                        <set attributeName="fill" to="#808080" begin="arrowUp.mouseover" end="arrowUp.mouseout"/>
                  </use>
                  <path fill="none" stroke="white" stroke-width="1.5" d="M0,-3.0v7 M-2.5,-0.5L0,-3.0L2.5,-0.5"/>
                </g>
                <g id="arrowRight" xlink:href="#dirArrow" transform="rotate(90) translate(36 -43)" onmousedown="handlePan(1,0)">
                  <use xlink:href="#rim" fill="#404040">
                        <set attributeName="fill" to="#808080" begin="arrowRight.mouseover" end="arrowRight.mouseout"/>
                  </use>
                  <path fill="none" stroke="white" stroke-width="1.5" d="M0,-3.0v7 M-2.5,-0.5L0,-3.0L2.5,-0.5"/>
                </g>
                <g id="arrowDown" xlink:href="#dirArrow" transform="rotate(180) translate(-30 -48)" onmousedown="handlePan(0,1)">
                  <use xlink:href="#rim" fill="#404040">
                        <set attributeName="fill" to="#808080" begin="arrowDown.mouseover" end="arrowDown.mouseout"/>
                  </use>
                  <path fill="none" stroke="white" stroke-width="1.5" d="M0,-3.0v7 M-2.5,-0.5L0,-3.0L2.5,-0.5"/>
                </g>
                <g id="arrowLeft" xlink:href="#dirArrow" transform="rotate(270) translate(-36 17)" onmousedown="handlePan(-1,0)">
                  <use xlink:href="#rim" fill="#404040">
                        <set attributeName="fill" to="#808080" begin="arrowLeft.mouseover" end="arrowLeft.mouseout"/>
                  </use>
                  <path fill="none" stroke="white" stroke-width="1.5" d="M0,-3.0v7 M-2.5,-0.5L0,-3.0L2.5,-0.5"/>
                </g>
        </g>
        <svg viewBox="0 0 15 15" width="100%" height="30px" preserveAspectRatio="xMaxYMin meet">
         <g id="arrow_out" transform="scale(0.3 0.3)">
          <a xlink:href="IRenderManager_8hpp__incl_org.svg" target="_base">
           <rect id="button" ry="5" rx="5" y="6" x="6" height="38" width="38"
                fill="#f2f5e9" fill-opacity="0.5" stroke="#606060" stroke-width="1.0"/>
           <path id="arrow"
             d="M 11.500037,31.436501 C 11.940474,20.09759 22.043105,11.32322 32.158766,21.979434 L 37.068811,17.246167 C 37.068811,17.246167 37.088388,32 37.088388,32 L 22.160133,31.978069 C 22.160133,31.978069 26.997745,27.140456 26.997745,27.140456 C 18.528582,18.264221 13.291696,25.230495 11.500037,31.436501 z"
             style="fill:#404040;"/>
          </a>
         </g>
        </svg>
</svg>
