<?xml version="1.0" encoding="UTF-8" standalone="no"?>
<!DOCTYPE svg PUBLIC "-//W3C//DTD SVG 1.1//EN"
 "http://www.w3.org/Graphics/SVG/1.1/DTD/svg11.dtd">
<!-- Generated by graphviz version 2.38.0 (20140413.2041)
 -->
<!-- Title: src/Scenes/IScene.hpp Pages: 1 -->
<svg width="1042pt" height="196pt"
 viewBox="0.00 0.00 1042.00 196.00" xmlns="http://www.w3.org/2000/svg" xmlns:xlink="http://www.w3.org/1999/xlink">
<g id="graph0" class="graph" transform="scale(1 1) rotate(0) translate(4 192)">
<title>src/Scenes/IScene.hpp</title>
<!-- Node1 -->
<g id="node1" class="node"><title>Node1</title>
<polygon fill="#bfbfbf" stroke="black" points="463,-168.5 463,-187.5 588,-187.5 588,-168.5 463,-168.5"/>
<text text-anchor="middle" x="525.5" y="-175.5" font-family="Helvetica,sans-Serif" font-size="10.00">src/Scenes/IScene.hpp</text>
</g>
<!-- Node2 -->
<g id="node2" class="node"><title>Node2</title>
<g id="a_node2"><a xlink:href="ChooseRoomScene_8hpp.html" target="_top" xlink:title="src/Scenes/ChooseRoomScene.hpp">
<polygon fill="none" stroke="black" points="71.5,-112.5 71.5,-131.5 257.5,-131.5 257.5,-112.5 71.5,-112.5"/>
<text text-anchor="middle" x="164.5" y="-119.5" font-family="Helvetica,sans-Serif" font-size="10.00">src/Scenes/ChooseRoomScene.hpp</text>
</a>
</g>
</g>
<!-- Node1&#45;&gt;Node2 -->
<g id="edge1" class="edge"><title>Node1&#45;&gt;Node2</title>
<path fill="none" stroke="midnightblue" d="M458.091,-166.917C389.891,-156.715 285.619,-141.117 221.434,-131.516"/>
<polygon fill="midnightblue" stroke="midnightblue" points="457.891,-170.426 468.298,-168.444 458.926,-163.503 457.891,-170.426"/>
</g>
<!-- Node5 -->
<g id="node5" class="node"><title>Node5</title>
<g id="a_node5"><a xlink:href="DefeatScene_8hpp.html" target="_top" xlink:title="src/Scenes/DefeatScene.hpp">
<polygon fill="none" stroke="black" points="276,-112.5 276,-131.5 431,-131.5 431,-112.5 276,-112.5"/>
<text text-anchor="middle" x="353.5" y="-119.5" font-family="Helvetica,sans-Serif" font-size="10.00">src/Scenes/DefeatScene.hpp</text>
</a>
</g>
</g>
<!-- Node1&#45;&gt;Node5 -->
<g id="edge4" class="edge"><title>Node1&#45;&gt;Node5</title>
<path fill="none" stroke="midnightblue" d="M488.668,-165.436C456.238,-155.255 409.763,-140.664 380.626,-131.516"/>
<polygon fill="midnightblue" stroke="midnightblue" points="487.657,-168.787 498.246,-168.444 489.754,-162.109 487.657,-168.787"/>
</g>
<!-- Node7 -->
<g id="node7" class="node"><title>Node7</title>
<g id="a_node7"><a xlink:href="GameScene_8hpp.html" target="_top" xlink:title="src/Scenes/GameScene.hpp">
<polygon fill="none" stroke="black" points="449.5,-112.5 449.5,-131.5 601.5,-131.5 601.5,-112.5 449.5,-112.5"/>
<text text-anchor="middle" x="525.5" y="-119.5" font-family="Helvetica,sans-Serif" font-size="10.00">src/Scenes/GameScene.hpp</text>
</a>
</g>
</g>
<!-- Node1&#45;&gt;Node7 -->
<g id="edge7" class="edge"><title>Node1&#45;&gt;Node7</title>
<path fill="none" stroke="midnightblue" d="M525.5,-157.805C525.5,-148.91 525.5,-138.78 525.5,-131.751"/>
<polygon fill="midnightblue" stroke="midnightblue" points="522,-158.083 525.5,-168.083 529,-158.083 522,-158.083"/>
</g>
<!-- Node9 -->
<g id="node9" class="node"><title>Node9</title>
<g id="a_node9"><a xlink:href="MenuScene_8hpp.html" target="_top" xlink:title="src/Scenes/MenuScene.hpp">
<polygon fill="none" stroke="black" points="620,-112.5 620,-131.5 769,-131.5 769,-112.5 620,-112.5"/>
<text text-anchor="middle" x="694.5" y="-119.5" font-family="Helvetica,sans-Serif" font-size="10.00">src/Scenes/MenuScene.hpp</text>
</a>
</g>
</g>
<!-- Node1&#45;&gt;Node9 -->
<g id="edge10" class="edge"><title>Node1&#45;&gt;Node9</title>
<path fill="none" stroke="midnightblue" d="M562.103,-165.304C593.947,-155.129 639.342,-140.625 667.847,-131.516"/>
<polygon fill="midnightblue" stroke="midnightblue" points="560.739,-162.066 552.279,-168.444 562.869,-168.734 560.739,-162.066"/>
</g>
<!-- Node11 -->
<g id="node11" class="node"><title>Node11</title>
<g id="a_node11"><a xlink:href="SceneManager_8hpp.html" target="_top" xlink:title="src/Scenes/SceneManager.hpp">
<polygon fill="none" stroke="black" points="787.5,-112.5 787.5,-131.5 951.5,-131.5 951.5,-112.5 787.5,-112.5"/>
<text text-anchor="middle" x="869.5" y="-119.5" font-family="Helvetica,sans-Serif" font-size="10.00">src/Scenes/SceneManager.hpp</text>
</a>
</g>
</g>
<!-- Node1&#45;&gt;Node11 -->
<g id="edge13" class="edge"><title>Node1&#45;&gt;Node11</title>
<path fill="none" stroke="midnightblue" d="M590.136,-166.854C655.131,-156.651 754.211,-141.098 815.247,-131.516"/>
<polygon fill="midnightblue" stroke="midnightblue" points="589.344,-163.435 580.008,-168.444 590.43,-170.35 589.344,-163.435"/>
</g>
<!-- Node3 -->
<g id="node3" class="node"><title>Node3</title>
<g id="a_node3"><a xlink:href="ChooseRoomScene_8cpp.html" target="_top" xlink:title="src/Scenes/ChooseRoomScene.cpp">
<polygon fill="none" stroke="black" points="0,-56.5 0,-75.5 185,-75.5 185,-56.5 0,-56.5"/>
<text text-anchor="middle" x="92.5" y="-63.5" font-family="Helvetica,sans-Serif" font-size="10.00">src/Scenes/ChooseRoomScene.cpp</text>
</a>
</g>
</g>
<!-- Node2&#45;&gt;Node3 -->
<g id="edge2" class="edge"><title>Node2&#45;&gt;Node3</title>
<path fill="none" stroke="midnightblue" d="M144.634,-106.101C131.677,-96.3824 115.203,-84.0269 104.279,-75.8339"/>
<polygon fill="midnightblue" stroke="midnightblue" points="142.832,-109.124 152.932,-112.324 147.032,-103.524 142.832,-109.124"/>
</g>
<!-- Node4 -->
<g id="node4" class="node"><title>Node4</title>
<g id="a_node4"><a xlink:href="SceneManager_8cpp.html" target="_top" xlink:title="src/Scenes/SceneManager.cpp">
<polygon fill="none" stroke="black" points="376.5,-56.5 376.5,-75.5 540.5,-75.5 540.5,-56.5 376.5,-56.5"/>
<text text-anchor="middle" x="458.5" y="-63.5" font-family="Helvetica,sans-Serif" font-size="10.00">src/Scenes/SceneManager.cpp</text>
</a>
</g>
</g>
<!-- Node2&#45;&gt;Node4 -->
<g id="edge3" class="edge"><title>Node2&#45;&gt;Node4</title>
<path fill="none" stroke="midnightblue" d="M221.118,-110.601C276.681,-100.395 360.397,-85.0189 412.133,-75.5164"/>
<polygon fill="midnightblue" stroke="midnightblue" points="220.288,-107.195 211.085,-112.444 221.553,-114.079 220.288,-107.195"/>
</g>
<!-- Node5&#45;&gt;Node4 -->
<g id="edge6" class="edge"><title>Node5&#45;&gt;Node4</title>
<path fill="none" stroke="midnightblue" d="M379.31,-107.726C398.753,-97.7271 424.848,-84.3065 441.672,-75.6545"/>
<polygon fill="midnightblue" stroke="midnightblue" points="377.662,-104.638 370.37,-112.324 380.864,-110.863 377.662,-104.638"/>
</g>
<!-- Node6 -->
<g id="node6" class="node"><title>Node6</title>
<g id="a_node6"><a xlink:href="DefeatScene_8cpp.html" target="_top" xlink:title="src/Scenes/DefeatScene.cpp">
<polygon fill="none" stroke="black" points="203,-56.5 203,-75.5 358,-75.5 358,-56.5 203,-56.5"/>
<text text-anchor="middle" x="280.5" y="-63.5" font-family="Helvetica,sans-Serif" font-size="10.00">src/Scenes/DefeatScene.cpp</text>
</a>
</g>
</g>
<!-- Node5&#45;&gt;Node6 -->
<g id="edge5" class="edge"><title>Node5&#45;&gt;Node6</title>
<path fill="none" stroke="midnightblue" d="M333.358,-106.101C320.221,-96.3824 303.518,-84.0269 292.442,-75.8339"/>
<polygon fill="midnightblue" stroke="midnightblue" points="331.65,-109.191 341.771,-112.324 335.813,-103.563 331.65,-109.191"/>
</g>
<!-- Node7&#45;&gt;Node4 -->
<g id="edge9" class="edge"><title>Node7&#45;&gt;Node4</title>
<path fill="none" stroke="midnightblue" d="M506.665,-105.82C494.662,-96.1452 479.528,-83.9481 469.461,-75.8339"/>
<polygon fill="midnightblue" stroke="midnightblue" points="504.753,-108.774 514.735,-112.324 509.146,-103.324 504.753,-108.774"/>
</g>
<!-- Node8 -->
<g id="node8" class="node"><title>Node8</title>
<g id="a_node8"><a xlink:href="GameScene_8cpp.html" target="_top" xlink:title="src/Scenes/GameScene.cpp">
<polygon fill="none" stroke="black" points="558.5,-56.5 558.5,-75.5 710.5,-75.5 710.5,-56.5 558.5,-56.5"/>
<text text-anchor="middle" x="634.5" y="-63.5" font-family="Helvetica,sans-Serif" font-size="10.00">src/Scenes/GameScene.cpp</text>
</a>
</g>
</g>
<!-- Node7&#45;&gt;Node8 -->
<g id="edge8" class="edge"><title>Node7&#45;&gt;Node8</title>
<path fill="none" stroke="midnightblue" d="M552.019,-107.862C572.23,-97.8492 599.487,-84.3458 617.031,-75.6545"/>
<polygon fill="midnightblue" stroke="midnightblue" points="550.42,-104.748 543.013,-112.324 553.527,-111.021 550.42,-104.748"/>
</g>
<!-- Node9&#45;&gt;Node4 -->
<g id="edge12" class="edge"><title>Node9&#45;&gt;Node4</title>
<path fill="none" stroke="midnightblue" d="M647.094,-110.153C602.503,-99.95 536.646,-84.8809 495.72,-75.5164"/>
<polygon fill="midnightblue" stroke="midnightblue" points="646.576,-113.625 657.105,-112.444 648.138,-106.801 646.576,-113.625"/>
</g>
<!-- Node10 -->
<g id="node10" class="node"><title>Node10</title>
<g id="a_node10"><a xlink:href="MenuScene_8cpp.html" target="_top" xlink:title="src/Scenes/MenuScene.cpp">
<polygon fill="none" stroke="black" points="729,-56.5 729,-75.5 878,-75.5 878,-56.5 729,-56.5"/>
<text text-anchor="middle" x="803.5" y="-63.5" font-family="Helvetica,sans-Serif" font-size="10.00">src/Scenes/MenuScene.cpp</text>
</a>
</g>
</g>
<!-- Node9&#45;&gt;Node10 -->
<g id="edge11" class="edge"><title>Node9&#45;&gt;Node10</title>
<path fill="none" stroke="midnightblue" d="M721.019,-107.862C741.23,-97.8492 768.487,-84.3458 786.031,-75.6545"/>
<polygon fill="midnightblue" stroke="midnightblue" points="719.42,-104.748 712.013,-112.324 722.527,-111.021 719.42,-104.748"/>
</g>
<!-- Node11&#45;&gt;Node4 -->
<g id="edge17" class="edge"><title>Node11&#45;&gt;Node4</title>
<path fill="none" stroke="midnightblue" d="M794.185,-111.105C716.573,-100.907 596.844,-85.1766 523.319,-75.5164"/>
<polygon fill="midnightblue" stroke="midnightblue" points="794.005,-114.611 804.376,-112.444 794.917,-107.671 794.005,-114.611"/>
</g>
<!-- Node12 -->
<g id="node12" class="node"><title>Node12</title>
<g id="a_node12"><a xlink:href="Rtype_8hpp.html" target="_top" xlink:title="src/Rtype.hpp">
<polygon fill="none" stroke="black" points="896.5,-56.5 896.5,-75.5 978.5,-75.5 978.5,-56.5 896.5,-56.5"/>
<text text-anchor="middle" x="937.5" y="-63.5" font-family="Helvetica,sans-Serif" font-size="10.00">src/Rtype.hpp</text>
</a>
</g>
</g>
<!-- Node11&#45;&gt;Node12 -->
<g id="edge14" class="edge"><title>Node11&#45;&gt;Node12</title>
<path fill="none" stroke="midnightblue" d="M888.262,-106.101C900.5,-96.3824 916.059,-84.0269 926.376,-75.8339"/>
<polygon fill="midnightblue" stroke="midnightblue" points="886.08,-103.364 880.425,-112.324 890.433,-108.846 886.08,-103.364"/>
</g>
<!-- Node13 -->
<g id="node13" class="node"><title>Node13</title>
<g id="a_node13"><a xlink:href="main__client_8cpp.html" target="_top" xlink:title="src/main_client.cpp">
<polygon fill="none" stroke="black" points="826,-0.5 826,-19.5 935,-19.5 935,-0.5 826,-0.5"/>
<text text-anchor="middle" x="880.5" y="-7.5" font-family="Helvetica,sans-Serif" font-size="10.00">src/main_client.cpp</text>
</a>
</g>
</g>
<!-- Node12&#45;&gt;Node13 -->
<g id="edge15" class="edge"><title>Node12&#45;&gt;Node13</title>
<path fill="none" stroke="midnightblue" d="M920.879,-49.2533C910.766,-39.6731 898.223,-27.7906 889.825,-19.8339"/>
<polygon fill="midnightblue" stroke="midnightblue" points="918.675,-51.9873 928.342,-56.324 923.49,-46.9056 918.675,-51.9873"/>
</g>
<!-- Node14 -->
<g id="node14" class="node"><title>Node14</title>
<g id="a_node14"><a xlink:href="Rtype_8cpp.html" target="_top" xlink:title="src/Rtype.cpp">
<polygon fill="none" stroke="black" points="953,-0.5 953,-19.5 1034,-19.5 1034,-0.5 953,-0.5"/>
<text text-anchor="middle" x="993.5" y="-7.5" font-family="Helvetica,sans-Serif" font-size="10.00">src/Rtype.cpp</text>
</a>
</g>
</g>
<!-- Node12&#45;&gt;Node14 -->
<g id="edge16" class="edge"><title>Node12&#45;&gt;Node14</title>
<path fill="none" stroke="midnightblue" d="M953.83,-49.2533C963.765,-39.6731 976.088,-27.7906 984.339,-19.8339"/>
<polygon fill="midnightblue" stroke="midnightblue" points="951.266,-46.8631 946.497,-56.324 956.125,-51.902 951.266,-46.8631"/>
</g>
</g>
</svg>
