<?xml version="1.0" encoding="UTF-8" standalone="no"?>
<!DOCTYPE svg PUBLIC "-//W3C//DTD SVG 1.1//EN"
 "http://www.w3.org/Graphics/SVG/1.1/DTD/svg11.dtd">
<!-- Generated by graphviz version 2.38.0 (20140413.2041)
 -->
<!-- Title: src/Network/Session/ISession.hpp Pages: 1 -->
<svg width="664pt" height="240pt"
 viewBox="0.00 0.00 664.00 240.00" xmlns="http://www.w3.org/2000/svg" xmlns:xlink="http://www.w3.org/1999/xlink">
<g id="graph0" class="graph" transform="scale(1 1) rotate(0) translate(4 236)">
<title>src/Network/Session/ISession.hpp</title>
<!-- Node1 -->
<g id="node1" class="node"><title>Node1</title>
<polygon fill="#bfbfbf" stroke="black" points="248,-201.5 248,-231.5 361,-231.5 361,-201.5 248,-201.5"/>
<text text-anchor="start" x="256" y="-219.5" font-family="Helvetica,sans-Serif" font-size="10.00">src/Network/Session</text>
<text text-anchor="middle" x="304.5" y="-208.5" font-family="Helvetica,sans-Serif" font-size="10.00">/ISession.hpp</text>
</g>
<!-- Node2 -->
<g id="node2" class="node"><title>Node2</title>
<g id="a_node2"><a xlink:href="UDPClient_8hpp.html" target="_top" xlink:title="src/Network/Client\l/UDPClient.hpp">
<polygon fill="none" stroke="black" points="127,-134.5 127,-164.5 230,-164.5 230,-134.5 127,-134.5"/>
<text text-anchor="start" x="135" y="-152.5" font-family="Helvetica,sans-Serif" font-size="10.00">src/Network/Client</text>
<text text-anchor="middle" x="178.5" y="-141.5" font-family="Helvetica,sans-Serif" font-size="10.00">/UDPClient.hpp</text>
</a>
</g>
</g>
<!-- Node1&#45;&gt;Node2 -->
<g id="edge1" class="edge"><title>Node1&#45;&gt;Node2</title>
<path fill="none" stroke="midnightblue" d="M268.085,-196.714C248.213,-186.463 224.02,-173.983 205.787,-164.577"/>
<polygon fill="midnightblue" stroke="midnightblue" points="266.668,-199.922 277.16,-201.396 269.877,-193.701 266.668,-199.922"/>
</g>
<!-- Node5 -->
<g id="node5" class="node"><title>Node5</title>
<g id="a_node5"><a xlink:href="ClientSession_8hpp.html" target="_top" xlink:title="src/Network/Session\l/ClientSession.hpp">
<polygon fill="none" stroke="black" points="248,-134.5 248,-164.5 361,-164.5 361,-134.5 248,-134.5"/>
<text text-anchor="start" x="256" y="-152.5" font-family="Helvetica,sans-Serif" font-size="10.00">src/Network/Session</text>
<text text-anchor="middle" x="304.5" y="-141.5" font-family="Helvetica,sans-Serif" font-size="10.00">/ClientSession.hpp</text>
</a>
</g>
</g>
<!-- Node1&#45;&gt;Node5 -->
<g id="edge4" class="edge"><title>Node1&#45;&gt;Node5</title>
<path fill="none" stroke="midnightblue" d="M304.5,-191.108C304.5,-182.154 304.5,-172.323 304.5,-164.577"/>
<polygon fill="midnightblue" stroke="midnightblue" points="301,-191.396 304.5,-201.396 308,-191.396 301,-191.396"/>
</g>
<!-- Node7 -->
<g id="node7" class="node"><title>Node7</title>
<g id="a_node7"><a xlink:href="ServerSession_8hpp.html" target="_top" xlink:title="src/Network/Session\l/ServerSession.hpp">
<polygon fill="none" stroke="black" points="397,-134.5 397,-164.5 510,-164.5 510,-134.5 397,-134.5"/>
<text text-anchor="start" x="405" y="-152.5" font-family="Helvetica,sans-Serif" font-size="10.00">src/Network/Session</text>
<text text-anchor="middle" x="453.5" y="-141.5" font-family="Helvetica,sans-Serif" font-size="10.00">/ServerSession.hpp</text>
</a>
</g>
</g>
<!-- Node1&#45;&gt;Node7 -->
<g id="edge7" class="edge"><title>Node1&#45;&gt;Node7</title>
<path fill="none" stroke="midnightblue" d="M346.292,-197.269C370.024,-186.916 399.28,-174.153 421.232,-164.577"/>
<polygon fill="midnightblue" stroke="midnightblue" points="344.597,-194.189 336.831,-201.396 347.396,-200.605 344.597,-194.189"/>
</g>
<!-- Node3 -->
<g id="node3" class="node"><title>Node3</title>
<g id="a_node3"><a xlink:href="main__client_8cpp.html" target="_top" xlink:title="src/main_client.cpp">
<polygon fill="none" stroke="black" points="0,-73 0,-92 109,-92 109,-73 0,-73"/>
<text text-anchor="middle" x="54.5" y="-80" font-family="Helvetica,sans-Serif" font-size="10.00">src/main_client.cpp</text>
</a>
</g>
</g>
<!-- Node2&#45;&gt;Node3 -->
<g id="edge2" class="edge"><title>Node2&#45;&gt;Node3</title>
<path fill="none" stroke="midnightblue" d="M142.517,-129.638C118.795,-117.203 88.8646,-101.514 70.7287,-92.007"/>
<polygon fill="midnightblue" stroke="midnightblue" points="141.112,-132.853 151.594,-134.396 144.362,-126.653 141.112,-132.853"/>
</g>
<!-- Node4 -->
<g id="node4" class="node"><title>Node4</title>
<g id="a_node4"><a xlink:href="UDPClient_8cpp.html" target="_top" xlink:title="src/Network/Client\l/UDPClient.cpp">
<polygon fill="none" stroke="black" points="127,-67.5 127,-97.5 230,-97.5 230,-67.5 127,-67.5"/>
<text text-anchor="start" x="135" y="-85.5" font-family="Helvetica,sans-Serif" font-size="10.00">src/Network/Client</text>
<text text-anchor="middle" x="178.5" y="-74.5" font-family="Helvetica,sans-Serif" font-size="10.00">/UDPClient.cpp</text>
</a>
</g>
</g>
<!-- Node2&#45;&gt;Node4 -->
<g id="edge3" class="edge"><title>Node2&#45;&gt;Node4</title>
<path fill="none" stroke="midnightblue" d="M178.5,-124.108C178.5,-115.154 178.5,-105.323 178.5,-97.5765"/>
<polygon fill="midnightblue" stroke="midnightblue" points="175,-124.396 178.5,-134.396 182,-124.396 175,-124.396"/>
</g>
<!-- Node5&#45;&gt;Node4 -->
<g id="edge5" class="edge"><title>Node5&#45;&gt;Node4</title>
<path fill="none" stroke="midnightblue" d="M268.085,-129.714C248.213,-119.463 224.02,-106.983 205.787,-97.5765"/>
<polygon fill="midnightblue" stroke="midnightblue" points="266.668,-132.922 277.16,-134.396 269.877,-126.701 266.668,-132.922"/>
</g>
<!-- Node6 -->
<g id="node6" class="node"><title>Node6</title>
<g id="a_node6"><a xlink:href="ClientSession_8cpp.html" target="_top" xlink:title="src/Network/Session\l/ClientSession.cpp">
<polygon fill="none" stroke="black" points="248,-67.5 248,-97.5 361,-97.5 361,-67.5 248,-67.5"/>
<text text-anchor="start" x="256" y="-85.5" font-family="Helvetica,sans-Serif" font-size="10.00">src/Network/Session</text>
<text text-anchor="middle" x="304.5" y="-74.5" font-family="Helvetica,sans-Serif" font-size="10.00">/ClientSession.cpp</text>
</a>
</g>
</g>
<!-- Node5&#45;&gt;Node6 -->
<g id="edge6" class="edge"><title>Node5&#45;&gt;Node6</title>
<path fill="none" stroke="midnightblue" d="M304.5,-124.108C304.5,-115.154 304.5,-105.323 304.5,-97.5765"/>
<polygon fill="midnightblue" stroke="midnightblue" points="301,-124.396 304.5,-134.396 308,-124.396 301,-124.396"/>
</g>
<!-- Node8 -->
<g id="node8" class="node"><title>Node8</title>
<g id="a_node8"><a xlink:href="main__server_8cpp.html" target="_top" xlink:title="src/main_server.cpp">
<polygon fill="none" stroke="black" points="333,-6 333,-25 446,-25 446,-6 333,-6"/>
<text text-anchor="middle" x="389.5" y="-13" font-family="Helvetica,sans-Serif" font-size="10.00">src/main_server.cpp</text>
</a>
</g>
</g>
<!-- Node7&#45;&gt;Node8 -->
<g id="edge8" class="edge"><title>Node7&#45;&gt;Node8</title>
<path fill="none" stroke="midnightblue" d="M430.956,-127.238C423.152,-118.801 414.995,-108.589 409.5,-98 396.75,-73.43 391.909,-40.4374 390.26,-25.0588"/>
<polygon fill="midnightblue" stroke="midnightblue" points="428.465,-129.698 437.936,-134.447 433.494,-124.829 428.465,-129.698"/>
</g>
<!-- Node9 -->
<g id="node9" class="node"><title>Node9</title>
<g id="a_node9"><a xlink:href="UDPServer_8hpp.html" target="_top" xlink:title="src/Network/Server\l/UDPServer.hpp">
<polygon fill="none" stroke="black" points="418,-67.5 418,-97.5 525,-97.5 525,-67.5 418,-67.5"/>
<text text-anchor="start" x="426" y="-85.5" font-family="Helvetica,sans-Serif" font-size="10.00">src/Network/Server</text>
<text text-anchor="middle" x="471.5" y="-74.5" font-family="Helvetica,sans-Serif" font-size="10.00">/UDPServer.hpp</text>
</a>
</g>
</g>
<!-- Node7&#45;&gt;Node9 -->
<g id="edge9" class="edge"><title>Node7&#45;&gt;Node9</title>
<path fill="none" stroke="midnightblue" d="M460.092,-124.697C462.614,-115.587 465.41,-105.493 467.602,-97.5765"/>
<polygon fill="midnightblue" stroke="midnightblue" points="456.702,-123.825 457.406,-134.396 463.448,-125.693 456.702,-123.825"/>
</g>
<!-- Node11 -->
<g id="node11" class="node"><title>Node11</title>
<g id="a_node11"><a xlink:href="ServerSession_8cpp.html" target="_top" xlink:title="src/Network/Session\l/ServerSession.cpp">
<polygon fill="none" stroke="black" points="543,-67.5 543,-97.5 656,-97.5 656,-67.5 543,-67.5"/>
<text text-anchor="start" x="551" y="-85.5" font-family="Helvetica,sans-Serif" font-size="10.00">src/Network/Session</text>
<text text-anchor="middle" x="599.5" y="-74.5" font-family="Helvetica,sans-Serif" font-size="10.00">/ServerSession.cpp</text>
</a>
</g>
</g>
<!-- Node7&#45;&gt;Node11 -->
<g id="edge12" class="edge"><title>Node7&#45;&gt;Node11</title>
<path fill="none" stroke="midnightblue" d="M494.45,-130.269C517.704,-119.916 546.372,-107.153 567.882,-97.5765"/>
<polygon fill="midnightblue" stroke="midnightblue" points="492.892,-127.131 485.18,-134.396 495.739,-133.526 492.892,-127.131"/>
</g>
<!-- Node9&#45;&gt;Node8 -->
<g id="edge10" class="edge"><title>Node9&#45;&gt;Node8</title>
<path fill="none" stroke="midnightblue" d="M445.649,-61.008C430.426,-48.9412 411.961,-34.3046 400.468,-25.1945"/>
<polygon fill="midnightblue" stroke="midnightblue" points="443.696,-63.9268 453.707,-67.396 448.045,-58.4412 443.696,-63.9268"/>
</g>
<!-- Node10 -->
<g id="node10" class="node"><title>Node10</title>
<g id="a_node10"><a xlink:href="UDPServer_8cpp.html" target="_top" xlink:title="src/Network/Server\l/UDPServer.cpp">
<polygon fill="none" stroke="black" points="464,-0.5 464,-30.5 571,-30.5 571,-0.5 464,-0.5"/>
<text text-anchor="start" x="472" y="-18.5" font-family="Helvetica,sans-Serif" font-size="10.00">src/Network/Server</text>
<text text-anchor="middle" x="517.5" y="-7.5" font-family="Helvetica,sans-Serif" font-size="10.00">/UDPServer.cpp</text>
</a>
</g>
</g>
<!-- Node9&#45;&gt;Node10 -->
<g id="edge11" class="edge"><title>Node9&#45;&gt;Node10</title>
<path fill="none" stroke="midnightblue" d="M487.312,-59.1575C494.02,-49.6788 501.635,-38.9186 507.538,-30.5765"/>
<polygon fill="midnightblue" stroke="midnightblue" points="484.401,-57.2114 481.481,-67.396 490.115,-61.2551 484.401,-57.2114"/>
</g>
</g>
</svg>
