<?xml version="1.0" encoding="UTF-8" standalone="no"?>
<!DOCTYPE svg PUBLIC "-//W3C//DTD SVG 1.1//EN"
 "http://www.w3.org/Graphics/SVG/1.1/DTD/svg11.dtd">
<!-- Generated by graphviz version 2.38.0 (20140413.2041)
 -->
<!-- Title: src/Systems/SystemConstructor/ISystemConstructor.hpp Pages: 1 -->
<!--zoomable 531 -->
<svg id="main" version="1.1" xmlns="http://www.w3.org/2000/svg" xmlns:xlink="http://www.w3.org/1999/xlink" xml:space="preserve" onload="init(evt)">
<style type="text/css"><![CDATA[
.edge:hover path { stroke: red; }
.edge:hover polygon { stroke: red; fill: red; }
]]></style>
<script type="text/javascript"><![CDATA[
var edges = document.getElementsByTagName('g');
if (edges && edges.length) {
  for (var i=0;i<edges.length;i++) {
    if (edges[i].id.substr(0,4)=='edge') {
      edges[i].setAttribute('class','edge');
    }
  }
}
]]></script>
        <defs>
                <circle id="rim" cx="0" cy="0" r="7"/>
                <circle id="rim2" cx="0" cy="0" r="3.5"/>
                <g id="zoomPlus">
                        <use xlink:href="#rim" fill="#404040">
                                <set attributeName="fill" to="#808080" begin="zoomplus.mouseover" end="zoomplus.mouseout"/>
                        </use>
                        <path d="M-4,0h8M0,-4v8" fill="none" stroke="white" stroke-width="1.5" pointer-events="none"/>
                </g>
                <g id="zoomMin">
                        <use xlink:href="#rim" fill="#404040">
                                <set attributeName="fill" to="#808080" begin="zoomminus.mouseover" end="zoomminus.mouseout"/>
                        </use>
                        <path d="M-4,0h8" fill="none" stroke="white" stroke-width="1.5" pointer-events="none"/>
                </g>
                <g id="dirArrow">
                        <path fill="none" stroke="white" stroke-width="1.5" d="M0,-3.0v7 M-2.5,-0.5L0,-3.0L2.5,-0.5"/>
                </g>
               <g id="resetDef">
                       <use xlink:href="#rim2" fill="#404040">
                               <set attributeName="fill" to="#808080" begin="reset.mouseover" end="reset.mouseout"/>
                       </use>
               </g>
        </defs>

<script type="text/javascript">
var viewWidth = 1061;
var viewHeight = 531;
var sectionId = 'dynsection-1';
</script>
<script xlink:href="svgpan.js"/>
<svg id="graph" class="graph">
<g id="viewport">
<title>src/Systems/SystemConstructor/ISystemConstructor.hpp</title>
<!-- Node1 -->
<g id="node1" class="node"><title>Node1</title>
<polygon fill="#bfbfbf" stroke="black" points="569.5,-492.5 569.5,-522.5 741.5,-522.5 741.5,-492.5 569.5,-492.5"/>
<text text-anchor="start" x="577.5" y="-510.5" font-family="Helvetica,sans-Serif" font-size="10.00">src/Systems/SystemConstructor</text>
<text text-anchor="middle" x="655.5" y="-499.5" font-family="Helvetica,sans-Serif" font-size="10.00">/ISystemConstructor.hpp</text>
</g>
<!-- Node2 -->
<g id="node2" class="node"><title>Node2</title>
<g id="a_node2"><a xlink:href="ISystemFactory_8hpp.html" target="_top" xlink:title="src/Systems/Factories\l/ISystemFactory.hpp">
<polygon fill="none" stroke="black" points="505.5,-425.5 505.5,-455.5 627.5,-455.5 627.5,-425.5 505.5,-425.5"/>
<text text-anchor="start" x="513.5" y="-443.5" font-family="Helvetica,sans-Serif" font-size="10.00">src/Systems/Factories</text>
<text text-anchor="middle" x="566.5" y="-432.5" font-family="Helvetica,sans-Serif" font-size="10.00">/ISystemFactory.hpp</text>
</a>
</g>
</g>
<!-- Node1&#45;&gt;Node2 -->
<g id="edge1" class="edge"><title>Node1&#45;&gt;Node2</title>
<path fill="none" stroke="midnightblue" d="M628.048,-486.451C614.357,-476.452 598.129,-464.6 585.774,-455.577"/>
<polygon fill="midnightblue" stroke="midnightblue" points="626.048,-489.324 636.188,-492.396 630.177,-483.672 626.048,-489.324"/>
</g>
<!-- Node3 -->
<g id="node3" class="node"><title>Node3</title>
<g id="a_node3"><a xlink:href="SystemFactory_8hpp.html" target="_top" xlink:title="src/Systems/Factories\l/SystemFactory.hpp">
<polygon fill="none" stroke="black" points="524.5,-358.5 524.5,-388.5 646.5,-388.5 646.5,-358.5 524.5,-358.5"/>
<text text-anchor="start" x="532.5" y="-376.5" font-family="Helvetica,sans-Serif" font-size="10.00">src/Systems/Factories</text>
<text text-anchor="middle" x="585.5" y="-365.5" font-family="Helvetica,sans-Serif" font-size="10.00">/SystemFactory.hpp</text>
</a>
</g>
</g>
<!-- Node1&#45;&gt;Node3 -->
<g id="edge26" class="edge"><title>Node1&#45;&gt;Node3</title>
<path fill="none" stroke="midnightblue" d="M653.418,-482.201C651.139,-465.287 646.385,-442.686 636.5,-425 628.536,-410.751 615.368,-397.862 604.407,-388.671"/>
<polygon fill="midnightblue" stroke="midnightblue" points="649.97,-482.851 654.588,-492.386 656.924,-482.052 649.97,-482.851"/>
</g>
<!-- Node23 -->
<g id="node23" class="node"><title>Node23</title>
<g id="a_node23"><a xlink:href="testSystem_8hpp.html" target="_top" xlink:title="src/Systems/SystemConstructor\l/testSystem/testSystem.hpp">
<polygon fill="none" stroke="black" points="683.5,-425.5 683.5,-455.5 855.5,-455.5 855.5,-425.5 683.5,-425.5"/>
<text text-anchor="start" x="691.5" y="-443.5" font-family="Helvetica,sans-Serif" font-size="10.00">src/Systems/SystemConstructor</text>
<text text-anchor="middle" x="769.5" y="-432.5" font-family="Helvetica,sans-Serif" font-size="10.00">/testSystem/testSystem.hpp</text>
</a>
</g>
</g>
<!-- Node1&#45;&gt;Node23 -->
<g id="edge27" class="edge"><title>Node1&#45;&gt;Node23</title>
<path fill="none" stroke="midnightblue" d="M689.182,-487.296C707.02,-477.125 728.539,-464.855 744.812,-455.577"/>
<polygon fill="midnightblue" stroke="midnightblue" points="687.19,-484.402 680.236,-492.396 690.657,-490.483 687.19,-484.402"/>
</g>
<!-- Node2&#45;&gt;Node3 -->
<g id="edge2" class="edge"><title>Node2&#45;&gt;Node3</title>
<path fill="none" stroke="midnightblue" d="M573.458,-415.697C576.121,-406.587 579.071,-396.493 581.385,-388.577"/>
<polygon fill="midnightblue" stroke="midnightblue" points="570.069,-414.816 570.623,-425.396 576.788,-416.78 570.069,-414.816"/>
</g>
<!-- Node4 -->
<g id="node4" class="node"><title>Node4</title>
<g id="a_node4"><a xlink:href="FactoriesWrapper_8hpp.html" target="_top" xlink:title="src/FactoriesWrapper\l/FactoriesWrapper.hpp">
<polygon fill="none" stroke="black" points="454.5,-291.5 454.5,-321.5 576.5,-321.5 576.5,-291.5 454.5,-291.5"/>
<text text-anchor="start" x="462.5" y="-309.5" font-family="Helvetica,sans-Serif" font-size="10.00">src/FactoriesWrapper</text>
<text text-anchor="middle" x="515.5" y="-298.5" font-family="Helvetica,sans-Serif" font-size="10.00">/FactoriesWrapper.hpp</text>
</a>
</g>
</g>
<!-- Node3&#45;&gt;Node4 -->
<g id="edge3" class="edge"><title>Node3&#45;&gt;Node4</title>
<path fill="none" stroke="midnightblue" d="M562.682,-351.311C552.181,-341.561 540.01,-330.259 530.659,-321.577"/>
<polygon fill="midnightblue" stroke="midnightblue" points="560.601,-354.156 570.311,-358.396 565.365,-349.027 560.601,-354.156"/>
</g>
<!-- Node22 -->
<g id="node22" class="node"><title>Node22</title>
<g id="a_node22"><a xlink:href="SystemFactory_8cpp.html" target="_top" xlink:title="src/Systems/Factories\l/SystemFactory.cpp">
<polygon fill="none" stroke="black" points="594.5,-291.5 594.5,-321.5 716.5,-321.5 716.5,-291.5 594.5,-291.5"/>
<text text-anchor="start" x="602.5" y="-309.5" font-family="Helvetica,sans-Serif" font-size="10.00">src/Systems/Factories</text>
<text text-anchor="middle" x="655.5" y="-298.5" font-family="Helvetica,sans-Serif" font-size="10.00">/SystemFactory.cpp</text>
</a>
</g>
</g>
<!-- Node3&#45;&gt;Node22 -->
<g id="edge25" class="edge"><title>Node3&#45;&gt;Node22</title>
<path fill="none" stroke="midnightblue" d="M608.318,-351.311C618.819,-341.561 630.99,-330.259 640.341,-321.577"/>
<polygon fill="midnightblue" stroke="midnightblue" points="605.635,-349.027 600.689,-358.396 610.399,-354.156 605.635,-349.027"/>
</g>
<!-- Node5 -->
<g id="node5" class="node"><title>Node5</title>
<g id="a_node5"><a xlink:href="IEcs_8hpp.html" target="_top" xlink:title="src/IEcs.hpp">
<polygon fill="none" stroke="black" points="420.5,-230 420.5,-249 494.5,-249 494.5,-230 420.5,-230"/>
<text text-anchor="middle" x="457.5" y="-237" font-family="Helvetica,sans-Serif" font-size="10.00">src/IEcs.hpp</text>
</a>
</g>
</g>
<!-- Node4&#45;&gt;Node5 -->
<g id="edge4" class="edge"><title>Node4&#45;&gt;Node5</title>
<path fill="none" stroke="midnightblue" d="M496.009,-283.657C485.487,-271.865 473.086,-257.967 465.258,-249.195"/>
<polygon fill="midnightblue" stroke="midnightblue" points="493.645,-286.265 502.915,-291.396 498.868,-281.604 493.645,-286.265"/>
</g>
<!-- Node21 -->
<g id="node21" class="node"><title>Node21</title>
<g id="a_node21"><a xlink:href="FactoriesWrapper_8cpp.html" target="_top" xlink:title="src/FactoriesWrapper\l/FactoriesWrapper.cpp">
<polygon fill="none" stroke="black" points="513,-224.5 513,-254.5 634,-254.5 634,-224.5 513,-224.5"/>
<text text-anchor="start" x="521" y="-242.5" font-family="Helvetica,sans-Serif" font-size="10.00">src/FactoriesWrapper</text>
<text text-anchor="middle" x="573.5" y="-231.5" font-family="Helvetica,sans-Serif" font-size="10.00">/FactoriesWrapper.cpp</text>
</a>
</g>
</g>
<!-- Node4&#45;&gt;Node21 -->
<g id="edge24" class="edge"><title>Node4&#45;&gt;Node21</title>
<path fill="none" stroke="midnightblue" d="M534.92,-283.736C543.502,-274.119 553.344,-263.089 560.939,-254.577"/>
<polygon fill="midnightblue" stroke="midnightblue" points="532.132,-281.604 528.085,-291.396 537.355,-286.265 532.132,-281.604"/>
</g>
<!-- Node6 -->
<g id="node6" class="node"><title>Node6</title>
<g id="a_node6"><a xlink:href="Ecs_8hpp.html" target="_top" xlink:title="src/Ecs.hpp">
<polygon fill="none" stroke="black" points="422,-168.5 422,-187.5 493,-187.5 493,-168.5 422,-168.5"/>
<text text-anchor="middle" x="457.5" y="-175.5" font-family="Helvetica,sans-Serif" font-size="10.00">src/Ecs.hpp</text>
</a>
</g>
</g>
<!-- Node5&#45;&gt;Node6 -->
<g id="edge5" class="edge"><title>Node5&#45;&gt;Node6</title>
<path fill="none" stroke="midnightblue" d="M457.5,-219.817C457.5,-208.996 457.5,-195.898 457.5,-187.509"/>
<polygon fill="midnightblue" stroke="midnightblue" points="454,-219.975 457.5,-229.975 461,-219.975 454,-219.975"/>
</g>
<!-- Node7 -->
<g id="node7" class="node"><title>Node7</title>
<g id="a_node7"><a xlink:href="Ecs_8cpp.html" target="_top" xlink:title="src/Ecs.cpp">
<polygon fill="none" stroke="black" points="0,-112.5 0,-131.5 71,-131.5 71,-112.5 0,-112.5"/>
<text text-anchor="middle" x="35.5" y="-119.5" font-family="Helvetica,sans-Serif" font-size="10.00">src/Ecs.cpp</text>
</a>
</g>
</g>
<!-- Node6&#45;&gt;Node7 -->
<g id="edge6" class="edge"><title>Node6&#45;&gt;Node7</title>
<path fill="none" stroke="midnightblue" d="M411.798,-172.715C340.716,-165.788 199.467,-150.967 80.5,-132 77.5102,-131.523 74.4165,-130.99 71.3156,-130.427"/>
<polygon fill="midnightblue" stroke="midnightblue" points="411.475,-176.2 421.766,-173.68 412.149,-169.233 411.475,-176.2"/>
</g>
<!-- Node8 -->
<g id="node8" class="node"><title>Node8</title>
<g id="a_node8"><a xlink:href="ChooseRoomScene_8hpp.html" target="_top" xlink:title="src/Scenes/ChooseRoomScene.hpp">
<polygon fill="none" stroke="black" points="89.5,-112.5 89.5,-131.5 275.5,-131.5 275.5,-112.5 89.5,-112.5"/>
<text text-anchor="middle" x="182.5" y="-119.5" font-family="Helvetica,sans-Serif" font-size="10.00">src/Scenes/ChooseRoomScene.hpp</text>
</a>
</g>
</g>
<!-- Node6&#45;&gt;Node8 -->
<g id="edge7" class="edge"><title>Node6&#45;&gt;Node8</title>
<path fill="none" stroke="midnightblue" d="M411.937,-168.053C360.241,-157.902 276.544,-141.467 225.803,-131.503"/>
<polygon fill="midnightblue" stroke="midnightblue" points="411.343,-171.503 421.83,-169.996 412.692,-164.634 411.343,-171.503"/>
</g>
<!-- Node11 -->
<g id="node11" class="node"><title>Node11</title>
<g id="a_node11"><a xlink:href="DefeatScene_8hpp.html" target="_top" xlink:title="src/Scenes/DefeatScene.hpp">
<polygon fill="none" stroke="black" points="294,-112.5 294,-131.5 449,-131.5 449,-112.5 294,-112.5"/>
<text text-anchor="middle" x="371.5" y="-119.5" font-family="Helvetica,sans-Serif" font-size="10.00">src/Scenes/DefeatScene.hpp</text>
</a>
</g>
</g>
<!-- Node6&#45;&gt;Node11 -->
<g id="edge10" class="edge"><title>Node6&#45;&gt;Node11</title>
<path fill="none" stroke="midnightblue" d="M435.045,-162.901C419.276,-152.999 398.686,-140.071 385.283,-131.655"/>
<polygon fill="midnightblue" stroke="midnightblue" points="433.352,-165.97 443.683,-168.324 437.075,-160.042 433.352,-165.97"/>
</g>
<!-- Node13 -->
<g id="node13" class="node"><title>Node13</title>
<g id="a_node13"><a xlink:href="GameScene_8hpp.html" target="_top" xlink:title="src/Scenes/GameScene.hpp">
<polygon fill="none" stroke="black" points="467.5,-112.5 467.5,-131.5 619.5,-131.5 619.5,-112.5 467.5,-112.5"/>
<text text-anchor="middle" x="543.5" y="-119.5" font-family="Helvetica,sans-Serif" font-size="10.00">src/Scenes/GameScene.hpp</text>
</a>
</g>
</g>
<!-- Node6&#45;&gt;Node13 -->
<g id="edge13" class="edge"><title>Node6&#45;&gt;Node13</title>
<path fill="none" stroke="midnightblue" d="M479.955,-162.901C495.724,-152.999 516.314,-140.071 529.717,-131.655"/>
<polygon fill="midnightblue" stroke="midnightblue" points="477.925,-160.042 471.317,-168.324 481.648,-165.97 477.925,-160.042"/>
</g>
<!-- Node15 -->
<g id="node15" class="node"><title>Node15</title>
<g id="a_node15"><a xlink:href="MenuScene_8hpp.html" target="_top" xlink:title="src/Scenes/MenuScene.hpp">
<polygon fill="none" stroke="black" points="638,-112.5 638,-131.5 787,-131.5 787,-112.5 638,-112.5"/>
<text text-anchor="middle" x="712.5" y="-119.5" font-family="Helvetica,sans-Serif" font-size="10.00">src/Scenes/MenuScene.hpp</text>
</a>
</g>
</g>
<!-- Node6&#45;&gt;Node15 -->
<g id="edge16" class="edge"><title>Node6&#45;&gt;Node15</title>
<path fill="none" stroke="midnightblue" d="M503.04,-167.356C551.042,-157.191 625.945,-141.329 671.967,-131.583"/>
<polygon fill="midnightblue" stroke="midnightblue" points="502.283,-163.939 493.225,-169.435 503.733,-170.787 502.283,-163.939"/>
</g>
<!-- Node17 -->
<g id="node17" class="node"><title>Node17</title>
<g id="a_node17"><a xlink:href="SceneManager_8hpp.html" target="_top" xlink:title="src/Scenes/SceneManager.hpp">
<polygon fill="none" stroke="black" points="805.5,-112.5 805.5,-131.5 969.5,-131.5 969.5,-112.5 805.5,-112.5"/>
<text text-anchor="middle" x="887.5" y="-119.5" font-family="Helvetica,sans-Serif" font-size="10.00">src/Scenes/SceneManager.hpp</text>
</a>
</g>
</g>
<!-- Node6&#45;&gt;Node17 -->
<g id="edge19" class="edge"><title>Node6&#45;&gt;Node17</title>
<path fill="none" stroke="midnightblue" d="M503.23,-171.257C579.033,-161.738 731.106,-142.64 819.52,-131.537"/>
<polygon fill="midnightblue" stroke="midnightblue" points="502.54,-167.816 493.055,-172.535 503.413,-174.762 502.54,-167.816"/>
</g>
<!-- Node9 -->
<g id="node9" class="node"><title>Node9</title>
<g id="a_node9"><a xlink:href="ChooseRoomScene_8cpp.html" target="_top" xlink:title="src/Scenes/ChooseRoomScene.cpp">
<polygon fill="none" stroke="black" points="18,-56.5 18,-75.5 203,-75.5 203,-56.5 18,-56.5"/>
<text text-anchor="middle" x="110.5" y="-63.5" font-family="Helvetica,sans-Serif" font-size="10.00">src/Scenes/ChooseRoomScene.cpp</text>
</a>
</g>
</g>
<!-- Node8&#45;&gt;Node9 -->
<g id="edge8" class="edge"><title>Node8&#45;&gt;Node9</title>
<path fill="none" stroke="midnightblue" d="M162.634,-106.101C149.677,-96.3824 133.203,-84.0269 122.279,-75.8339"/>
<polygon fill="midnightblue" stroke="midnightblue" points="160.832,-109.124 170.932,-112.324 165.032,-103.524 160.832,-109.124"/>
</g>
<!-- Node10 -->
<g id="node10" class="node"><title>Node10</title>
<g id="a_node10"><a xlink:href="SceneManager_8cpp.html" target="_top" xlink:title="src/Scenes/SceneManager.cpp">
<polygon fill="none" stroke="black" points="394.5,-56.5 394.5,-75.5 558.5,-75.5 558.5,-56.5 394.5,-56.5"/>
<text text-anchor="middle" x="476.5" y="-63.5" font-family="Helvetica,sans-Serif" font-size="10.00">src/Scenes/SceneManager.cpp</text>
</a>
</g>
</g>
<!-- Node8&#45;&gt;Node10 -->
<g id="edge9" class="edge"><title>Node8&#45;&gt;Node10</title>
<path fill="none" stroke="midnightblue" d="M239.118,-110.601C294.681,-100.395 378.397,-85.0189 430.133,-75.5164"/>
<polygon fill="midnightblue" stroke="midnightblue" points="238.288,-107.195 229.085,-112.444 239.553,-114.079 238.288,-107.195"/>
</g>
<!-- Node11&#45;&gt;Node10 -->
<g id="edge12" class="edge"><title>Node11&#45;&gt;Node10</title>
<path fill="none" stroke="midnightblue" d="M397.31,-107.726C416.753,-97.7271 442.848,-84.3065 459.672,-75.6545"/>
<polygon fill="midnightblue" stroke="midnightblue" points="395.662,-104.638 388.37,-112.324 398.864,-110.863 395.662,-104.638"/>
</g>
<!-- Node12 -->
<g id="node12" class="node"><title>Node12</title>
<g id="a_node12"><a xlink:href="DefeatScene_8cpp.html" target="_top" xlink:title="src/Scenes/DefeatScene.cpp">
<polygon fill="none" stroke="black" points="221,-56.5 221,-75.5 376,-75.5 376,-56.5 221,-56.5"/>
<text text-anchor="middle" x="298.5" y="-63.5" font-family="Helvetica,sans-Serif" font-size="10.00">src/Scenes/DefeatScene.cpp</text>
</a>
</g>
</g>
<!-- Node11&#45;&gt;Node12 -->
<g id="edge11" class="edge"><title>Node11&#45;&gt;Node12</title>
<path fill="none" stroke="midnightblue" d="M351.358,-106.101C338.221,-96.3824 321.518,-84.0269 310.442,-75.8339"/>
<polygon fill="midnightblue" stroke="midnightblue" points="349.65,-109.191 359.771,-112.324 353.813,-103.563 349.65,-109.191"/>
</g>
<!-- Node13&#45;&gt;Node10 -->
<g id="edge15" class="edge"><title>Node13&#45;&gt;Node10</title>
<path fill="none" stroke="midnightblue" d="M524.665,-105.82C512.662,-96.1452 497.528,-83.9481 487.461,-75.8339"/>
<polygon fill="midnightblue" stroke="midnightblue" points="522.753,-108.774 532.735,-112.324 527.146,-103.324 522.753,-108.774"/>
</g>
<!-- Node14 -->
<g id="node14" class="node"><title>Node14</title>
<g id="a_node14"><a xlink:href="GameScene_8cpp.html" target="_top" xlink:title="src/Scenes/GameScene.cpp">
<polygon fill="none" stroke="black" points="576.5,-56.5 576.5,-75.5 728.5,-75.5 728.5,-56.5 576.5,-56.5"/>
<text text-anchor="middle" x="652.5" y="-63.5" font-family="Helvetica,sans-Serif" font-size="10.00">src/Scenes/GameScene.cpp</text>
</a>
</g>
</g>
<!-- Node13&#45;&gt;Node14 -->
<g id="edge14" class="edge"><title>Node13&#45;&gt;Node14</title>
<path fill="none" stroke="midnightblue" d="M570.019,-107.862C590.23,-97.8492 617.487,-84.3458 635.031,-75.6545"/>
<polygon fill="midnightblue" stroke="midnightblue" points="568.42,-104.748 561.013,-112.324 571.527,-111.021 568.42,-104.748"/>
</g>
<!-- Node15&#45;&gt;Node10 -->
<g id="edge18" class="edge"><title>Node15&#45;&gt;Node10</title>
<path fill="none" stroke="midnightblue" d="M665.094,-110.153C620.503,-99.95 554.646,-84.8809 513.72,-75.5164"/>
<polygon fill="midnightblue" stroke="midnightblue" points="664.576,-113.625 675.105,-112.444 666.138,-106.801 664.576,-113.625"/>
</g>
<!-- Node16 -->
<g id="node16" class="node"><title>Node16</title>
<g id="a_node16"><a xlink:href="MenuScene_8cpp.html" target="_top" xlink:title="src/Scenes/MenuScene.cpp">
<polygon fill="none" stroke="black" points="747,-56.5 747,-75.5 896,-75.5 896,-56.5 747,-56.5"/>
<text text-anchor="middle" x="821.5" y="-63.5" font-family="Helvetica,sans-Serif" font-size="10.00">src/Scenes/MenuScene.cpp</text>
</a>
</g>
</g>
<!-- Node15&#45;&gt;Node16 -->
<g id="edge17" class="edge"><title>Node15&#45;&gt;Node16</title>
<path fill="none" stroke="midnightblue" d="M739.019,-107.862C759.23,-97.8492 786.487,-84.3458 804.031,-75.6545"/>
<polygon fill="midnightblue" stroke="midnightblue" points="737.42,-104.748 730.013,-112.324 740.527,-111.021 737.42,-104.748"/>
</g>
<!-- Node17&#45;&gt;Node10 -->
<g id="edge23" class="edge"><title>Node17&#45;&gt;Node10</title>
<path fill="none" stroke="midnightblue" d="M812.185,-111.105C734.573,-100.907 614.844,-85.1766 541.319,-75.5164"/>
<polygon fill="midnightblue" stroke="midnightblue" points="812.005,-114.611 822.376,-112.444 812.917,-107.671 812.005,-114.611"/>
</g>
<!-- Node18 -->
<g id="node18" class="node"><title>Node18</title>
<g id="a_node18"><a xlink:href="Rtype_8hpp.html" target="_top" xlink:title="src/Rtype.hpp">
<polygon fill="none" stroke="black" points="914.5,-56.5 914.5,-75.5 996.5,-75.5 996.5,-56.5 914.5,-56.5"/>
<text text-anchor="middle" x="955.5" y="-63.5" font-family="Helvetica,sans-Serif" font-size="10.00">src/Rtype.hpp</text>
</a>
</g>
</g>
<!-- Node17&#45;&gt;Node18 -->
<g id="edge20" class="edge"><title>Node17&#45;&gt;Node18</title>
<path fill="none" stroke="midnightblue" d="M906.262,-106.101C918.5,-96.3824 934.059,-84.0269 944.376,-75.8339"/>
<polygon fill="midnightblue" stroke="midnightblue" points="904.08,-103.364 898.425,-112.324 908.433,-108.846 904.08,-103.364"/>
</g>
<!-- Node19 -->
<g id="node19" class="node"><title>Node19</title>
<g id="a_node19"><a xlink:href="main__client_8cpp.html" target="_top" xlink:title="src/main_client.cpp">
<polygon fill="none" stroke="black" points="845,-0.5 845,-19.5 954,-19.5 954,-0.5 845,-0.5"/>
<text text-anchor="middle" x="899.5" y="-7.5" font-family="Helvetica,sans-Serif" font-size="10.00">src/main_client.cpp</text>
</a>
</g>
</g>
<!-- Node18&#45;&gt;Node19 -->
<g id="edge21" class="edge"><title>Node18&#45;&gt;Node19</title>
<path fill="none" stroke="midnightblue" d="M939.17,-49.2533C929.235,-39.6731 916.912,-27.7906 908.661,-19.8339"/>
<polygon fill="midnightblue" stroke="midnightblue" points="936.875,-51.902 946.503,-56.324 941.734,-46.8631 936.875,-51.902"/>
</g>
<!-- Node20 -->
<g id="node20" class="node"><title>Node20</title>
<g id="a_node20"><a xlink:href="Rtype_8cpp.html" target="_top" xlink:title="src/Rtype.cpp">
<polygon fill="none" stroke="black" points="972,-0.5 972,-19.5 1053,-19.5 1053,-0.5 972,-0.5"/>
<text text-anchor="middle" x="1012.5" y="-7.5" font-family="Helvetica,sans-Serif" font-size="10.00">src/Rtype.cpp</text>
</a>
</g>
</g>
<!-- Node18&#45;&gt;Node20 -->
<g id="edge22" class="edge"><title>Node18&#45;&gt;Node20</title>
<path fill="none" stroke="midnightblue" d="M972.121,-49.2533C982.234,-39.6731 994.777,-27.7906 1003.18,-19.8339"/>
<polygon fill="midnightblue" stroke="midnightblue" points="969.51,-46.9056 964.658,-56.324 974.325,-51.9873 969.51,-46.9056"/>
</g>
<!-- Node24 -->
<g id="node24" class="node"><title>Node24</title>
<g id="a_node24"><a xlink:href="testSystem_8cpp.html" target="_top" xlink:title="src/Systems/SystemConstructor\l/testSystem/testSystem.cpp">
<polygon fill="none" stroke="black" points="683.5,-358.5 683.5,-388.5 855.5,-388.5 855.5,-358.5 683.5,-358.5"/>
<text text-anchor="start" x="691.5" y="-376.5" font-family="Helvetica,sans-Serif" font-size="10.00">src/Systems/SystemConstructor</text>
<text text-anchor="middle" x="769.5" y="-365.5" font-family="Helvetica,sans-Serif" font-size="10.00">/testSystem/testSystem.cpp</text>
</a>
</g>
</g>
<!-- Node23&#45;&gt;Node24 -->
<g id="edge28" class="edge"><title>Node23&#45;&gt;Node24</title>
<path fill="none" stroke="midnightblue" d="M769.5,-415.108C769.5,-406.154 769.5,-396.323 769.5,-388.577"/>
<polygon fill="midnightblue" stroke="midnightblue" points="766,-415.396 769.5,-425.396 773,-415.396 766,-415.396"/>
</g>
</g>
</svg>
        <g id="navigator" transform="translate(0 0)" fill="#404254">
                <rect fill="#f2f5e9" fill-opacity="0.5" stroke="#606060" stroke-width=".5" x="0" y="0" width="60" height="60"/>
                <use id="zoomplus" xlink:href="#zoomPlus" x="17" y="9" onmousedown="handleZoom(evt,'in')"/>
                <use id="zoomminus" xlink:href="#zoomMin" x="42" y="9" onmousedown="handleZoom(evt,'out')"/>
                <use id="reset" xlink:href="#resetDef" x="30" y="36" onmousedown="handleReset()"/>
                <g id="arrowUp" xlink:href="#dirArrow" transform="translate(30 24)" onmousedown="handlePan(0,-1)">
                  <use xlink:href="#rim" fill="#404040">
                        <set attributeName="fill" to="#808080" begin="arrowUp.mouseover" end="arrowUp.mouseout"/>
                  </use>
                  <path fill="none" stroke="white" stroke-width="1.5" d="M0,-3.0v7 M-2.5,-0.5L0,-3.0L2.5,-0.5"/>
                </g>
                <g id="arrowRight" xlink:href="#dirArrow" transform="rotate(90) translate(36 -43)" onmousedown="handlePan(1,0)">
                  <use xlink:href="#rim" fill="#404040">
                        <set attributeName="fill" to="#808080" begin="arrowRight.mouseover" end="arrowRight.mouseout"/>
                  </use>
                  <path fill="none" stroke="white" stroke-width="1.5" d="M0,-3.0v7 M-2.5,-0.5L0,-3.0L2.5,-0.5"/>
                </g>
                <g id="arrowDown" xlink:href="#dirArrow" transform="rotate(180) translate(-30 -48)" onmousedown="handlePan(0,1)">
                  <use xlink:href="#rim" fill="#404040">
                        <set attributeName="fill" to="#808080" begin="arrowDown.mouseover" end="arrowDown.mouseout"/>
                  </use>
                  <path fill="none" stroke="white" stroke-width="1.5" d="M0,-3.0v7 M-2.5,-0.5L0,-3.0L2.5,-0.5"/>
                </g>
                <g id="arrowLeft" xlink:href="#dirArrow" transform="rotate(270) translate(-36 17)" onmousedown="handlePan(-1,0)">
                  <use xlink:href="#rim" fill="#404040">
                        <set attributeName="fill" to="#808080" begin="arrowLeft.mouseover" end="arrowLeft.mouseout"/>
                  </use>
                  <path fill="none" stroke="white" stroke-width="1.5" d="M0,-3.0v7 M-2.5,-0.5L0,-3.0L2.5,-0.5"/>
                </g>
        </g>
        <svg viewBox="0 0 15 15" width="100%" height="30px" preserveAspectRatio="xMaxYMin meet">
         <g id="arrow_out" transform="scale(0.3 0.3)">
          <a xlink:href="ISystemConstructor_8hpp__dep__incl_org.svg" target="_base">
           <rect id="button" ry="5" rx="5" y="6" x="6" height="38" width="38"
                fill="#f2f5e9" fill-opacity="0.5" stroke="#606060" stroke-width="1.0"/>
           <path id="arrow"
             d="M 11.500037,31.436501 C 11.940474,20.09759 22.043105,11.32322 32.158766,21.979434 L 37.068811,17.246167 C 37.068811,17.246167 37.088388,32 37.088388,32 L 22.160133,31.978069 C 22.160133,31.978069 26.997745,27.140456 26.997745,27.140456 C 18.528582,18.264221 13.291696,25.230495 11.500037,31.436501 z"
             style="fill:#404040;"/>
          </a>
         </g>
        </svg>
</svg>
