<?xml version="1.0" encoding="UTF-8" standalone="no"?>
<!DOCTYPE svg PUBLIC "-//W3C//DTD SVG 1.1//EN"
 "http://www.w3.org/Graphics/SVG/1.1/DTD/svg11.dtd">
<!-- Generated by graphviz version 2.38.0 (20140413.2041)
 -->
<!-- Title: src/Systems/SystemManager/ISystemManager.hpp Pages: 1 -->
<svg width="732pt" height="319pt"
 viewBox="0.00 0.00 732.00 319.00" xmlns="http://www.w3.org/2000/svg" xmlns:xlink="http://www.w3.org/1999/xlink">
<g id="graph0" class="graph" transform="scale(1 1) rotate(0) translate(4 315)">
<title>src/Systems/SystemManager/ISystemManager.hpp</title>
<!-- Node1 -->
<g id="node1" class="node"><title>Node1</title>
<polygon fill="#bfbfbf" stroke="black" points="459,-280.5 459,-310.5 617,-310.5 617,-280.5 459,-280.5"/>
<text text-anchor="start" x="467" y="-298.5" font-family="Helvetica,sans-Serif" font-size="10.00">src/Systems/SystemManager</text>
<text text-anchor="middle" x="538" y="-287.5" font-family="Helvetica,sans-Serif" font-size="10.00">/ISystemManager.hpp</text>
</g>
<!-- Node2 -->
<g id="node2" class="node"><title>Node2</title>
<g id="a_node2"><a xlink:href="IEntityFactory_8hpp.html" target="_top" xlink:title="IEntityFactory.hpp">
<polygon fill="none" stroke="black" points="391,-224.5 391,-243.5 491,-243.5 491,-224.5 391,-224.5"/>
<text text-anchor="middle" x="441" y="-231.5" font-family="Helvetica,sans-Serif" font-size="10.00">IEntityFactory.hpp</text>
</a>
</g>
</g>
<!-- Node1&#45;&gt;Node2 -->
<g id="edge1" class="edge"><title>Node1&#45;&gt;Node2</title>
<path fill="none" stroke="midnightblue" d="M515.012,-280.399C499.609,-270.951 479.407,-258.559 464.001,-249.109"/>
<polygon fill="midnightblue" stroke="midnightblue" points="465.469,-245.903 455.114,-243.658 461.808,-251.87 465.469,-245.903"/>
</g>
<!-- Node15 -->
<g id="node15" class="node"><title>Node15</title>
<g id="a_node15"><a xlink:href="ISystem_8hpp.html" target="_top" xlink:title="ISystem.hpp">
<polygon fill="none" stroke="black" points="597.5,-224.5 597.5,-243.5 674.5,-243.5 674.5,-224.5 597.5,-224.5"/>
<text text-anchor="middle" x="636" y="-231.5" font-family="Helvetica,sans-Serif" font-size="10.00">ISystem.hpp</text>
</a>
</g>
</g>
<!-- Node1&#45;&gt;Node15 -->
<g id="edge24" class="edge"><title>Node1&#45;&gt;Node15</title>
<path fill="none" stroke="midnightblue" d="M561.225,-280.399C576.786,-270.951 597.197,-258.559 612.762,-249.109"/>
<polygon fill="midnightblue" stroke="midnightblue" points="615.009,-251.839 621.74,-243.658 611.376,-245.856 615.009,-251.839"/>
</g>
<!-- Node3 -->
<g id="node3" class="node"><title>Node3</title>
<polygon fill="none" stroke="#bfbfbf" points="522,-0.5 522,-19.5 566,-19.5 566,-0.5 522,-0.5"/>
<text text-anchor="middle" x="544" y="-7.5" font-family="Helvetica,sans-Serif" font-size="10.00">string</text>
</g>
<!-- Node2&#45;&gt;Node3 -->
<g id="edge2" class="edge"><title>Node2&#45;&gt;Node3</title>
<path fill="none" stroke="midnightblue" d="M458.087,-224.477C471.748,-216.785 490.322,-204.198 501,-188 534.161,-137.694 541.78,-64.222 543.508,-29.9351"/>
<polygon fill="midnightblue" stroke="midnightblue" points="547.021,-29.6704 543.906,-19.5438 540.026,-29.4026 547.021,-29.6704"/>
</g>
<!-- Node4 -->
<g id="node4" class="node"><title>Node4</title>
<polygon fill="none" stroke="#bfbfbf" points="152.5,-56.5 152.5,-75.5 209.5,-75.5 209.5,-56.5 152.5,-56.5"/>
<text text-anchor="middle" x="181" y="-63.5" font-family="Helvetica,sans-Serif" font-size="10.00">memory</text>
</g>
<!-- Node2&#45;&gt;Node4 -->
<g id="edge3" class="edge"><title>Node2&#45;&gt;Node4</title>
<path fill="none" stroke="midnightblue" d="M390.957,-226.239C301.955,-213.078 121.992,-180.947 85,-132 65.5601,-106.278 108.037,-87.2958 142.555,-76.6902"/>
<polygon fill="midnightblue" stroke="midnightblue" points="143.857,-79.9563 152.477,-73.796 141.897,-73.2363 143.857,-79.9563"/>
</g>
<!-- Node5 -->
<g id="node5" class="node"><title>Node5</title>
<g id="a_node5"><a xlink:href="PacketManager_8hpp.html" target="_top" xlink:title="PacketManager.hpp">
<polygon fill="none" stroke="black" points="228,-56.5 228,-75.5 338,-75.5 338,-56.5 228,-56.5"/>
<text text-anchor="middle" x="283" y="-63.5" font-family="Helvetica,sans-Serif" font-size="10.00">PacketManager.hpp</text>
</a>
</g>
</g>
<!-- Node2&#45;&gt;Node5 -->
<g id="edge4" class="edge"><title>Node2&#45;&gt;Node5</title>
<path fill="none" stroke="midnightblue" d="M409.905,-224.488C389.157,-217.502 362.408,-205.818 344,-188 313.827,-158.794 296.074,-111.489 288.091,-85.524"/>
<polygon fill="midnightblue" stroke="midnightblue" points="291.42,-84.4376 285.26,-75.8176 284.7,-86.3976 291.42,-84.4376"/>
</g>
<!-- Node8 -->
<g id="node8" class="node"><title>Node8</title>
<g id="a_node8"><a xlink:href="IEntityConstructor_8hpp.html" target="_top" xlink:title="IEntityConstructor.hpp">
<polygon fill="none" stroke="black" points="353,-168.5 353,-187.5 475,-187.5 475,-168.5 353,-168.5"/>
<text text-anchor="middle" x="414" y="-175.5" font-family="Helvetica,sans-Serif" font-size="10.00">IEntityConstructor.hpp</text>
</a>
</g>
</g>
<!-- Node2&#45;&gt;Node8 -->
<g id="edge8" class="edge"><title>Node2&#45;&gt;Node8</title>
<path fill="none" stroke="midnightblue" d="M436.541,-224.083C432.846,-216.691 427.477,-205.953 422.906,-196.811"/>
<polygon fill="midnightblue" stroke="midnightblue" points="425.978,-195.13 418.376,-187.751 419.717,-198.261 425.978,-195.13"/>
</g>
<!-- Node9 -->
<g id="node9" class="node"><title>Node9</title>
<g id="a_node9"><a xlink:href="Entity_8hpp.html" target="_top" xlink:title="Entity.hpp">
<polygon fill="none" stroke="black" points="421.5,-56.5 421.5,-75.5 484.5,-75.5 484.5,-56.5 421.5,-56.5"/>
<text text-anchor="middle" x="453" y="-63.5" font-family="Helvetica,sans-Serif" font-size="10.00">Entity.hpp</text>
</a>
</g>
</g>
<!-- Node2&#45;&gt;Node9 -->
<g id="edge23" class="edge"><title>Node2&#45;&gt;Node9</title>
<path fill="none" stroke="midnightblue" d="M453.497,-224.302C463.874,-216.251 477.887,-203.245 484,-188 498.257,-152.442 478.075,-108.339 464.195,-84.4166"/>
<polygon fill="midnightblue" stroke="midnightblue" points="467.112,-82.4768 458.924,-75.7533 461.132,-86.1155 467.112,-82.4768"/>
</g>
<!-- Node5&#45;&gt;Node3 -->
<g id="edge5" class="edge"><title>Node5&#45;&gt;Node3</title>
<path fill="none" stroke="midnightblue" d="M324.356,-56.4435C376.34,-45.6884 464.472,-27.4541 511.75,-17.6724"/>
<polygon fill="midnightblue" stroke="midnightblue" points="512.659,-21.0585 521.743,-15.6049 511.241,-14.2036 512.659,-21.0585"/>
</g>
<!-- Node6 -->
<g id="node6" class="node"><title>Node6</title>
<polygon fill="none" stroke="#bfbfbf" points="147,-0.5 147,-19.5 177,-19.5 177,-0.5 147,-0.5"/>
<text text-anchor="middle" x="162" y="-7.5" font-family="Helvetica,sans-Serif" font-size="10.00">list</text>
</g>
<!-- Node5&#45;&gt;Node6 -->
<g id="edge6" class="edge"><title>Node5&#45;&gt;Node6</title>
<path fill="none" stroke="midnightblue" d="M263.827,-56.4435C242.93,-47.1175 209.432,-32.1679 186.608,-21.982"/>
<polygon fill="midnightblue" stroke="midnightblue" points="187.81,-18.6859 177.252,-17.8067 184.957,-25.0783 187.81,-18.6859"/>
</g>
<!-- Node7 -->
<g id="node7" class="node"><title>Node7</title>
<g id="a_node7"><a xlink:href="Input_8hpp.html" target="_top" xlink:title="Render/Input.hpp">
<polygon fill="none" stroke="black" points="234,-0.5 234,-19.5 332,-19.5 332,-0.5 234,-0.5"/>
<text text-anchor="middle" x="283" y="-7.5" font-family="Helvetica,sans-Serif" font-size="10.00">Render/Input.hpp</text>
</a>
</g>
</g>
<!-- Node5&#45;&gt;Node7 -->
<g id="edge7" class="edge"><title>Node5&#45;&gt;Node7</title>
<path fill="none" stroke="midnightblue" d="M283,-56.083C283,-49.0059 283,-38.8611 283,-29.9865"/>
<polygon fill="midnightblue" stroke="midnightblue" points="286.5,-29.751 283,-19.7511 279.5,-29.7511 286.5,-29.751"/>
</g>
<!-- Node8&#45;&gt;Node3 -->
<g id="edge10" class="edge"><title>Node8&#45;&gt;Node3</title>
<path fill="none" stroke="midnightblue" d="M424.053,-168.193C433.755,-159.464 448.607,-145.482 460,-132 489.304,-97.3221 518.363,-52.5472 533.423,-28.3588"/>
<polygon fill="midnightblue" stroke="midnightblue" points="536.546,-29.9626 538.815,-19.6135 530.587,-26.2891 536.546,-29.9626"/>
</g>
<!-- Node8&#45;&gt;Node4 -->
<g id="edge9" class="edge"><title>Node8&#45;&gt;Node4</title>
<path fill="none" stroke="midnightblue" d="M395.375,-168.436C375.825,-159.43 344.208,-144.813 317,-132 279.256,-114.226 235.78,-93.3818 208.348,-80.1841"/>
<polygon fill="midnightblue" stroke="midnightblue" points="209.536,-76.8717 199.008,-75.6876 206.5,-83.1789 209.536,-76.8717"/>
</g>
<!-- Node8&#45;&gt;Node9 -->
<g id="edge11" class="edge"><title>Node8&#45;&gt;Node9</title>
<path fill="none" stroke="midnightblue" d="M421.206,-168.302C427.966,-159.654 437.792,-145.73 443,-132 448.637,-117.138 451.101,-99.2173 452.175,-85.96"/>
<polygon fill="midnightblue" stroke="midnightblue" points="455.685,-85.9004 452.806,-75.7042 448.699,-85.4702 455.685,-85.9004"/>
</g>
<!-- Node10 -->
<g id="node10" class="node"><title>Node10</title>
<g id="a_node10"><a xlink:href="IEntityManager_8hpp.html" target="_top" xlink:title="IEntityManager.hpp">
<polygon fill="none" stroke="black" points="326,-112.5 326,-131.5 434,-131.5 434,-112.5 326,-112.5"/>
<text text-anchor="middle" x="380" y="-119.5" font-family="Helvetica,sans-Serif" font-size="10.00">IEntityManager.hpp</text>
</a>
</g>
</g>
<!-- Node8&#45;&gt;Node10 -->
<g id="edge12" class="edge"><title>Node8&#45;&gt;Node10</title>
<path fill="none" stroke="midnightblue" d="M408.386,-168.083C403.633,-160.534 396.682,-149.495 390.848,-140.23"/>
<polygon fill="midnightblue" stroke="midnightblue" points="393.8,-138.349 385.51,-131.751 387.876,-142.078 393.8,-138.349"/>
</g>
<!-- Node12 -->
<g id="node12" class="node"><title>Node12</title>
<g id="a_node12"><a xlink:href="IComponentManager_8hpp.html" target="_top" xlink:title="IComponentManager.hpp">
<polygon fill="none" stroke="black" points="94.5,-112.5 94.5,-131.5 231.5,-131.5 231.5,-112.5 94.5,-112.5"/>
<text text-anchor="middle" x="163" y="-119.5" font-family="Helvetica,sans-Serif" font-size="10.00">IComponentManager.hpp</text>
</a>
</g>
</g>
<!-- Node8&#45;&gt;Node12 -->
<g id="edge17" class="edge"><title>Node8&#45;&gt;Node12</title>
<path fill="none" stroke="midnightblue" d="M374.228,-168.444C330.442,-159.023 259.986,-143.866 212.62,-133.675"/>
<polygon fill="midnightblue" stroke="midnightblue" points="213.098,-130.198 202.586,-131.516 211.626,-137.041 213.098,-130.198"/>
</g>
<!-- Node10&#45;&gt;Node4 -->
<g id="edge13" class="edge"><title>Node10&#45;&gt;Node4</title>
<path fill="none" stroke="midnightblue" d="M348.468,-112.444C313.606,-102.984 257.422,-87.7377 219.866,-77.5465"/>
<polygon fill="midnightblue" stroke="midnightblue" points="220.368,-74.0562 209.8,-74.8151 218.534,-80.8119 220.368,-74.0562"/>
</g>
<!-- Node10&#45;&gt;Node5 -->
<g id="edge16" class="edge"><title>Node10&#45;&gt;Node5</title>
<path fill="none" stroke="midnightblue" d="M364.415,-112.324C349.001,-103.743 325.188,-90.486 307.29,-80.5224"/>
<polygon fill="midnightblue" stroke="midnightblue" points="308.986,-77.4606 298.546,-75.6545 305.581,-83.5767 308.986,-77.4606"/>
</g>
<!-- Node10&#45;&gt;Node9 -->
<g id="edge15" class="edge"><title>Node10&#45;&gt;Node9</title>
<path fill="none" stroke="midnightblue" d="M391.729,-112.324C402.837,-104.107 419.742,-91.6017 432.983,-81.8069"/>
<polygon fill="midnightblue" stroke="midnightblue" points="435.1,-84.5948 441.058,-75.8339 430.937,-78.9671 435.1,-84.5948"/>
</g>
<!-- Node11 -->
<g id="node11" class="node"><title>Node11</title>
<polygon fill="none" stroke="#bfbfbf" points="356.5,-56.5 356.5,-75.5 403.5,-75.5 403.5,-56.5 356.5,-56.5"/>
<text text-anchor="middle" x="380" y="-63.5" font-family="Helvetica,sans-Serif" font-size="10.00">vector</text>
</g>
<!-- Node10&#45;&gt;Node11 -->
<g id="edge14" class="edge"><title>Node10&#45;&gt;Node11</title>
<path fill="none" stroke="midnightblue" d="M380,-112.083C380,-105.006 380,-94.8611 380,-85.9865"/>
<polygon fill="midnightblue" stroke="midnightblue" points="383.5,-85.751 380,-75.7511 376.5,-85.7511 383.5,-85.751"/>
</g>
<!-- Node12&#45;&gt;Node4 -->
<g id="edge19" class="edge"><title>Node12&#45;&gt;Node4</title>
<path fill="none" stroke="midnightblue" d="M165.972,-112.083C168.384,-104.849 171.864,-94.4087 174.868,-85.3968"/>
<polygon fill="midnightblue" stroke="midnightblue" points="178.241,-86.3447 178.083,-75.7511 171.6,-84.1311 178.241,-86.3447"/>
</g>
<!-- Node12&#45;&gt;Node6 -->
<g id="edge18" class="edge"><title>Node12&#45;&gt;Node6</title>
<path fill="none" stroke="midnightblue" d="M157.87,-112.407C152.942,-103.614 145.84,-89.381 143,-76 139.572,-59.8467 145.625,-41.8525 151.787,-28.8998"/>
<polygon fill="midnightblue" stroke="midnightblue" points="155.051,-30.2092 156.573,-19.7242 148.845,-26.9716 155.051,-30.2092"/>
</g>
<!-- Node12&#45;&gt;Node9 -->
<g id="edge22" class="edge"><title>Node12&#45;&gt;Node9</title>
<path fill="none" stroke="midnightblue" d="M213.182,-112.497C261.379,-104.203 336.495,-90.9449 411.185,-76.1025"/>
<polygon fill="midnightblue" stroke="midnightblue" points="412.12,-79.4851 421.24,-74.0941 410.749,-72.6207 412.12,-79.4851"/>
</g>
<!-- Node13 -->
<g id="node13" class="node"><title>Node13</title>
<g id="a_node13"><a xlink:href="IComponent_8hpp.html" target="_top" xlink:title="IComponent.hpp">
<polygon fill="none" stroke="black" points="0,-56.5 0,-75.5 96,-75.5 96,-56.5 0,-56.5"/>
<text text-anchor="middle" x="48" y="-63.5" font-family="Helvetica,sans-Serif" font-size="10.00">IComponent.hpp</text>
</a>
</g>
</g>
<!-- Node12&#45;&gt;Node13 -->
<g id="edge20" class="edge"><title>Node12&#45;&gt;Node13</title>
<path fill="none" stroke="midnightblue" d="M144.778,-112.444C126.104,-103.675 96.844,-89.9355 75.3826,-79.8579"/>
<polygon fill="midnightblue" stroke="midnightblue" points="76.6763,-76.5988 66.1368,-75.5164 73.7009,-82.935 76.6763,-76.5988"/>
</g>
<!-- Node14 -->
<g id="node14" class="node"><title>Node14</title>
<polygon fill="none" stroke="#bfbfbf" points="16.5,-0.5 16.5,-19.5 79.5,-19.5 79.5,-0.5 16.5,-0.5"/>
<text text-anchor="middle" x="48" y="-7.5" font-family="Helvetica,sans-Serif" font-size="10.00">typeindex</text>
</g>
<!-- Node13&#45;&gt;Node14 -->
<g id="edge21" class="edge"><title>Node13&#45;&gt;Node14</title>
<path fill="none" stroke="midnightblue" d="M48,-56.083C48,-49.0059 48,-38.8611 48,-29.9865"/>
<polygon fill="midnightblue" stroke="midnightblue" points="51.5001,-29.751 48,-19.7511 44.5001,-29.7511 51.5001,-29.751"/>
</g>
<!-- Node16 -->
<g id="node16" class="node"><title>Node16</title>
<g id="a_node16"><a xlink:href="SystemResponse_8hpp.html" target="_top" xlink:title="SystemResponse.hpp">
<polygon fill="none" stroke="black" points="604,-168.5 604,-187.5 724,-187.5 724,-168.5 604,-168.5"/>
<text text-anchor="middle" x="664" y="-175.5" font-family="Helvetica,sans-Serif" font-size="10.00">SystemResponse.hpp</text>
</a>
</g>
</g>
<!-- Node15&#45;&gt;Node16 -->
<g id="edge25" class="edge"><title>Node15&#45;&gt;Node16</title>
<path fill="none" stroke="midnightblue" d="M640.624,-224.083C644.456,-216.691 650.024,-205.953 654.765,-196.811"/>
<polygon fill="midnightblue" stroke="midnightblue" points="657.966,-198.24 659.462,-187.751 651.752,-195.018 657.966,-198.24"/>
</g>
<!-- Node16&#45;&gt;Node3 -->
<g id="edge26" class="edge"><title>Node16&#45;&gt;Node3</title>
<path fill="none" stroke="midnightblue" d="M659.648,-168.313C649.148,-147.751 620.991,-94.9062 590,-56 581.58,-45.4291 570.846,-34.8005 561.865,-26.529"/>
<polygon fill="midnightblue" stroke="midnightblue" points="564.004,-23.7457 554.227,-19.6647 559.325,-28.9522 564.004,-23.7457"/>
</g>
</g>
</svg>
