<?xml version="1.0" encoding="UTF-8" standalone="no"?>
<!DOCTYPE svg PUBLIC "-//W3C//DTD SVG 1.1//EN"
 "http://www.w3.org/Graphics/SVG/1.1/DTD/svg11.dtd">
<!-- Generated by graphviz version 2.38.0 (20140413.2041)
 -->
<!-- Title: src/Components/GameLogic/Item.hpp Pages: 1 -->
<svg width="209pt" height="207pt"
 viewBox="0.00 0.00 209.00 207.00" xmlns="http://www.w3.org/2000/svg" xmlns:xlink="http://www.w3.org/1999/xlink">
<g id="graph0" class="graph" transform="scale(1 1) rotate(0) translate(4 203)">
<title>src/Components/GameLogic/Item.hpp</title>
<!-- Node1 -->
<g id="node1" class="node"><title>Node1</title>
<polygon fill="#bfbfbf" stroke="black" points="0,-168.5 0,-198.5 152,-198.5 152,-168.5 0,-168.5"/>
<text text-anchor="start" x="8" y="-186.5" font-family="Helvetica,sans-Serif" font-size="10.00">src/Components/GameLogic</text>
<text text-anchor="middle" x="76" y="-175.5" font-family="Helvetica,sans-Serif" font-size="10.00">/Item.hpp</text>
</g>
<!-- Node2 -->
<g id="node2" class="node"><title>Node2</title>
<polygon fill="none" stroke="#bfbfbf" points="45.5,-0.5 45.5,-19.5 108.5,-19.5 108.5,-0.5 45.5,-0.5"/>
<text text-anchor="middle" x="77" y="-7.5" font-family="Helvetica,sans-Serif" font-size="10.00">typeindex</text>
</g>
<!-- Node1&#45;&gt;Node2 -->
<g id="edge1" class="edge"><title>Node1&#45;&gt;Node2</title>
<path fill="none" stroke="midnightblue" d="M69.4473,-168.27C65.2479,-158.343 60.1882,-144.657 58,-132 51.714,-95.6416 62.6785,-52.9807 70.3964,-29.2652"/>
<polygon fill="midnightblue" stroke="midnightblue" points="73.804,-30.1181 73.7375,-19.5234 67.1826,-27.8471 73.804,-30.1181"/>
</g>
<!-- Node3 -->
<g id="node3" class="node"><title>Node3</title>
<g id="a_node3"><a xlink:href="IGameLogic_8hpp.html" target="_top" xlink:title="IGameLogic.hpp">
<polygon fill="none" stroke="black" points="67,-112.5 67,-131.5 161,-131.5 161,-112.5 67,-112.5"/>
<text text-anchor="middle" x="114" y="-119.5" font-family="Helvetica,sans-Serif" font-size="10.00">IGameLogic.hpp</text>
</a>
</g>
</g>
<!-- Node1&#45;&gt;Node3 -->
<g id="edge2" class="edge"><title>Node1&#45;&gt;Node3</title>
<path fill="none" stroke="midnightblue" d="M85.0055,-168.399C90.4135,-159.932 97.3317,-149.099 103.054,-140.139"/>
<polygon fill="midnightblue" stroke="midnightblue" points="106.038,-141.97 108.471,-131.658 100.138,-138.202 106.038,-141.97"/>
</g>
<!-- Node3&#45;&gt;Node2 -->
<g id="edge3" class="edge"><title>Node3&#45;&gt;Node2</title>
<path fill="none" stroke="midnightblue" d="M110.301,-112.466C106.475,-103.483 100.449,-88.8848 96,-76 90.6642,-60.5457 85.5189,-42.7011 81.9315,-29.6234"/>
<polygon fill="midnightblue" stroke="midnightblue" points="85.297,-28.6606 79.3146,-19.9164 78.5383,-30.4827 85.297,-28.6606"/>
</g>
<!-- Node4 -->
<g id="node4" class="node"><title>Node4</title>
<g id="a_node4"><a xlink:href="IComponent_8hpp.html" target="_top" xlink:title="IComponent.hpp">
<polygon fill="none" stroke="black" points="105,-56.5 105,-75.5 201,-75.5 201,-56.5 105,-56.5"/>
<text text-anchor="middle" x="153" y="-63.5" font-family="Helvetica,sans-Serif" font-size="10.00">IComponent.hpp</text>
</a>
</g>
</g>
<!-- Node3&#45;&gt;Node4 -->
<g id="edge4" class="edge"><title>Node3&#45;&gt;Node4</title>
<path fill="none" stroke="midnightblue" d="M120.44,-112.083C125.949,-104.455 134.031,-93.2645 140.765,-83.9408"/>
<polygon fill="midnightblue" stroke="midnightblue" points="143.662,-85.9071 146.68,-75.7511 137.987,-81.8087 143.662,-85.9071"/>
</g>
<!-- Node4&#45;&gt;Node2 -->
<g id="edge5" class="edge"><title>Node4&#45;&gt;Node2</title>
<path fill="none" stroke="midnightblue" d="M140.789,-56.324C129.224,-48.1066 111.625,-35.6017 97.8393,-25.8069"/>
<polygon fill="midnightblue" stroke="midnightblue" points="99.612,-22.7729 89.4329,-19.8339 95.5575,-28.4791 99.612,-22.7729"/>
</g>
</g>
</svg>
