<?xml version="1.0" encoding="UTF-8" standalone="no"?>
<!DOCTYPE svg PUBLIC "-//W3C//DTD SVG 1.1//EN"
 "http://www.w3.org/Graphics/SVG/1.1/DTD/svg11.dtd">
<!-- Generated by graphviz version 2.38.0 (20140413.2041)
 -->
<!-- Title: src/Components/Display/IUserInterface.hpp Pages: 1 -->
<svg width="205pt" height="207pt"
 viewBox="0.00 0.00 204.50 207.00" xmlns="http://www.w3.org/2000/svg" xmlns:xlink="http://www.w3.org/1999/xlink">
<g id="graph0" class="graph" transform="scale(1 1) rotate(0) translate(4 203)">
<title>src/Components/Display/IUserInterface.hpp</title>
<!-- Node1 -->
<g id="node1" class="node"><title>Node1</title>
<polygon fill="#bfbfbf" stroke="black" points="0,-168.5 0,-198.5 133,-198.5 133,-168.5 0,-168.5"/>
<text text-anchor="start" x="8" y="-186.5" font-family="Helvetica,sans-Serif" font-size="10.00">src/Components/Display</text>
<text text-anchor="middle" x="66.5" y="-175.5" font-family="Helvetica,sans-Serif" font-size="10.00">/IUserInterface.hpp</text>
</g>
<!-- Node2 -->
<g id="node2" class="node"><title>Node2</title>
<polygon fill="none" stroke="#bfbfbf" points="41,-0.5 41,-19.5 104,-19.5 104,-0.5 41,-0.5"/>
<text text-anchor="middle" x="72.5" y="-7.5" font-family="Helvetica,sans-Serif" font-size="10.00">typeindex</text>
</g>
<!-- Node1&#45;&gt;Node2 -->
<g id="edge1" class="edge"><title>Node1&#45;&gt;Node2</title>
<path fill="none" stroke="midnightblue" d="M61.7607,-168.103C58.7247,-158.101 55.0697,-144.394 53.5,-132 48.8871,-95.5767 59.1389,-53.245 66.303,-29.5424"/>
<polygon fill="midnightblue" stroke="midnightblue" points="69.7122,-30.3705 69.4031,-19.7802 63.0406,-28.2518 69.7122,-30.3705"/>
</g>
<!-- Node3 -->
<g id="node3" class="node"><title>Node3</title>
<g id="a_node3"><a xlink:href="IDisplay_8hpp.html" target="_top" xlink:title="IDisplay.hpp">
<polygon fill="none" stroke="black" points="63,-112.5 63,-131.5 136,-131.5 136,-112.5 63,-112.5"/>
<text text-anchor="middle" x="99.5" y="-119.5" font-family="Helvetica,sans-Serif" font-size="10.00">IDisplay.hpp</text>
</a>
</g>
</g>
<!-- Node1&#45;&gt;Node3 -->
<g id="edge2" class="edge"><title>Node1&#45;&gt;Node3</title>
<path fill="none" stroke="midnightblue" d="M74.3205,-168.399C78.9675,-160.021 84.8985,-149.327 89.8369,-140.423"/>
<polygon fill="midnightblue" stroke="midnightblue" points="92.9087,-142.1 94.6982,-131.658 86.7872,-138.705 92.9087,-142.1"/>
</g>
<!-- Node3&#45;&gt;Node2 -->
<g id="edge3" class="edge"><title>Node3&#45;&gt;Node2</title>
<path fill="none" stroke="midnightblue" d="M97.3814,-112.368C93.0242,-94.617 82.9727,-53.6664 77.0648,-29.5974"/>
<polygon fill="midnightblue" stroke="midnightblue" points="80.3918,-28.4688 74.6088,-19.5914 73.5936,-30.1375 80.3918,-28.4688"/>
</g>
<!-- Node4 -->
<g id="node4" class="node"><title>Node4</title>
<g id="a_node4"><a xlink:href="IComponent_8hpp.html" target="_top" xlink:title="IComponent.hpp">
<polygon fill="none" stroke="black" points="100.5,-56.5 100.5,-75.5 196.5,-75.5 196.5,-56.5 100.5,-56.5"/>
<text text-anchor="middle" x="148.5" y="-63.5" font-family="Helvetica,sans-Serif" font-size="10.00">IComponent.hpp</text>
</a>
</g>
</g>
<!-- Node3&#45;&gt;Node4 -->
<g id="edge4" class="edge"><title>Node3&#45;&gt;Node4</title>
<path fill="none" stroke="midnightblue" d="M107.591,-112.083C114.655,-104.298 125.088,-92.8015 133.649,-83.3665"/>
<polygon fill="midnightblue" stroke="midnightblue" points="136.431,-85.5087 140.559,-75.7511 131.247,-80.8047 136.431,-85.5087"/>
</g>
<!-- Node4&#45;&gt;Node2 -->
<g id="edge5" class="edge"><title>Node4&#45;&gt;Node2</title>
<path fill="none" stroke="midnightblue" d="M136.289,-56.324C124.724,-48.1066 107.125,-35.6017 93.3393,-25.8069"/>
<polygon fill="midnightblue" stroke="midnightblue" points="95.112,-22.7729 84.9329,-19.8339 91.0575,-28.4791 95.112,-22.7729"/>
</g>
</g>
</svg>
