<?xml version="1.0" encoding="UTF-8" standalone="no"?>
<!DOCTYPE svg PUBLIC "-//W3C//DTD SVG 1.1//EN"
 "http://www.w3.org/Graphics/SVG/1.1/DTD/svg11.dtd">
<!-- Generated by graphviz version 2.38.0 (20140413.2041)
 -->
<!-- Title: src/Components/IO/Keyboard.cpp Pages: 1 -->
<svg width="184pt" height="140pt"
 viewBox="0.00 0.00 184.00 140.00" xmlns="http://www.w3.org/2000/svg" xmlns:xlink="http://www.w3.org/1999/xlink">
<g id="graph0" class="graph" transform="scale(1 1) rotate(0) translate(4 136)">
<title>src/Components/IO/Keyboard.cpp</title>
<!-- Node1 -->
<g id="node1" class="node"><title>Node1</title>
<polygon fill="#bfbfbf" stroke="black" points="-1.42109e-14,-112.5 -1.42109e-14,-131.5 176,-131.5 176,-112.5 -1.42109e-14,-112.5"/>
<text text-anchor="middle" x="88" y="-119.5" font-family="Helvetica,sans-Serif" font-size="10.00">src/Components/IO/Keyboard.cpp</text>
</g>
<!-- Node2 -->
<g id="node2" class="node"><title>Node2</title>
<g id="a_node2"><a xlink:href="Keyboard_8hpp.html" target="_top" xlink:title="Keyboard.hpp">
<polygon fill="none" stroke="black" points="47,-56.5 47,-75.5 129,-75.5 129,-56.5 47,-56.5"/>
<text text-anchor="middle" x="88" y="-63.5" font-family="Helvetica,sans-Serif" font-size="10.00">Keyboard.hpp</text>
</a>
</g>
</g>
<!-- Node1&#45;&gt;Node2 -->
<g id="edge1" class="edge"><title>Node1&#45;&gt;Node2</title>
<path fill="none" stroke="midnightblue" d="M88,-112.083C88,-105.006 88,-94.8611 88,-85.9865"/>
<polygon fill="midnightblue" stroke="midnightblue" points="91.5001,-85.751 88,-75.7511 84.5001,-85.7511 91.5001,-85.751"/>
</g>
<!-- Node3 -->
<g id="node3" class="node"><title>Node3</title>
<polygon fill="none" stroke="#bfbfbf" points="35,-0.5 35,-19.5 73,-19.5 73,-0.5 35,-0.5"/>
<text text-anchor="middle" x="54" y="-7.5" font-family="Helvetica,sans-Serif" font-size="10.00">map</text>
</g>
<!-- Node2&#45;&gt;Node3 -->
<g id="edge2" class="edge"><title>Node2&#45;&gt;Node3</title>
<path fill="none" stroke="midnightblue" d="M82.3856,-56.083C77.6326,-48.5341 70.6819,-37.4948 64.8484,-28.2298"/>
<polygon fill="midnightblue" stroke="midnightblue" points="67.7999,-26.3486 59.5099,-19.7511 61.8763,-30.0783 67.7999,-26.3486"/>
</g>
<!-- Node4 -->
<g id="node4" class="node"><title>Node4</title>
<polygon fill="none" stroke="#bfbfbf" points="91.5,-0.5 91.5,-19.5 154.5,-19.5 154.5,-0.5 91.5,-0.5"/>
<text text-anchor="middle" x="123" y="-7.5" font-family="Helvetica,sans-Serif" font-size="10.00">typeindex</text>
</g>
<!-- Node2&#45;&gt;Node4 -->
<g id="edge3" class="edge"><title>Node2&#45;&gt;Node4</title>
<path fill="none" stroke="midnightblue" d="M93.7795,-56.083C98.6724,-48.5341 105.827,-37.4948 111.833,-28.2298"/>
<polygon fill="midnightblue" stroke="midnightblue" points="114.826,-30.0463 117.328,-19.7511 108.952,-26.239 114.826,-30.0463"/>
</g>
</g>
</svg>
