<?xml version="1.0" encoding="UTF-8" standalone="no"?>
<!DOCTYPE svg PUBLIC "-//W3C//DTD SVG 1.1//EN"
 "http://www.w3.org/Graphics/SVG/1.1/DTD/svg11.dtd">
<!-- Generated by graphviz version 2.38.0 (20140413.2041)
 -->
<!-- Title: src/main_server.cpp Pages: 1 -->
<!--zoomable 308 -->
<svg id="main" version="1.1" xmlns="http://www.w3.org/2000/svg" xmlns:xlink="http://www.w3.org/1999/xlink" xml:space="preserve" onload="init(evt)">
<style type="text/css"><![CDATA[
.edge:hover path { stroke: red; }
.edge:hover polygon { stroke: red; fill: red; }
]]></style>
<script type="text/javascript"><![CDATA[
var edges = document.getElementsByTagName('g');
if (edges && edges.length) {
  for (var i=0;i<edges.length;i++) {
    if (edges[i].id.substr(0,4)=='edge') {
      edges[i].setAttribute('class','edge');
    }
  }
}
]]></script>
        <defs>
                <circle id="rim" cx="0" cy="0" r="7"/>
                <circle id="rim2" cx="0" cy="0" r="3.5"/>
                <g id="zoomPlus">
                        <use xlink:href="#rim" fill="#404040">
                                <set attributeName="fill" to="#808080" begin="zoomplus.mouseover" end="zoomplus.mouseout"/>
                        </use>
                        <path d="M-4,0h8M0,-4v8" fill="none" stroke="white" stroke-width="1.5" pointer-events="none"/>
                </g>
                <g id="zoomMin">
                        <use xlink:href="#rim" fill="#404040">
                                <set attributeName="fill" to="#808080" begin="zoomminus.mouseover" end="zoomminus.mouseout"/>
                        </use>
                        <path d="M-4,0h8" fill="none" stroke="white" stroke-width="1.5" pointer-events="none"/>
                </g>
                <g id="dirArrow">
                        <path fill="none" stroke="white" stroke-width="1.5" d="M0,-3.0v7 M-2.5,-0.5L0,-3.0L2.5,-0.5"/>
                </g>
               <g id="resetDef">
                       <use xlink:href="#rim2" fill="#404040">
                               <set attributeName="fill" to="#808080" begin="reset.mouseover" end="reset.mouseout"/>
                       </use>
               </g>
        </defs>

<script type="text/javascript">
var viewWidth = 903;
var viewHeight = 308;
var sectionId = 'dynsection-0';
</script>
<script xlink:href="svgpan.js"/>
<svg id="graph" class="graph">
<g id="viewport">
<title>src/main_server.cpp</title>
<!-- Node1 -->
<g id="node1" class="node"><title>Node1</title>
<polygon fill="#bfbfbf" stroke="black" points="419.5,-280.5 419.5,-299.5 532.5,-299.5 532.5,-280.5 419.5,-280.5"/>
<text text-anchor="middle" x="476" y="-287.5" font-family="Helvetica,sans-Serif" font-size="10.00">src/main_server.cpp</text>
</g>
<!-- Node2 -->
<g id="node2" class="node"><title>Node2</title>
<polygon fill="none" stroke="#bfbfbf" points="144.5,-224.5 144.5,-243.5 191.5,-243.5 191.5,-224.5 144.5,-224.5"/>
<text text-anchor="middle" x="168" y="-231.5" font-family="Helvetica,sans-Serif" font-size="10.00">cstdlib</text>
</g>
<!-- Node1&#45;&gt;Node2 -->
<g id="edge1" class="edge"><title>Node1&#45;&gt;Node2</title>
<path fill="none" stroke="midnightblue" d="M419.43,-280.707C364.66,-272.411 279.372,-258.786 206,-244 204.546,-243.707 203.063,-243.398 201.567,-243.079"/>
<polygon fill="midnightblue" stroke="midnightblue" points="202.185,-239.631 191.662,-240.865 200.658,-246.462 202.185,-239.631"/>
</g>
<!-- Node3 -->
<g id="node3" class="node"><title>Node3</title>
<polygon fill="none" stroke="#bfbfbf" points="248.5,-112.5 248.5,-131.5 307.5,-131.5 307.5,-112.5 248.5,-112.5"/>
<text text-anchor="middle" x="278" y="-119.5" font-family="Helvetica,sans-Serif" font-size="10.00">iostream</text>
</g>
<!-- Node1&#45;&gt;Node3 -->
<g id="edge2" class="edge"><title>Node1&#45;&gt;Node3</title>
<path fill="none" stroke="midnightblue" d="M461.014,-280.477C433.536,-264.452 373.971,-227.837 331,-188 315.21,-173.362 299.978,-153.946 289.927,-140.157"/>
<polygon fill="midnightblue" stroke="midnightblue" points="292.509,-137.749 283.854,-131.637 286.809,-141.812 292.509,-137.749"/>
</g>
<!-- Node4 -->
<g id="node4" class="node"><title>Node4</title>
<polygon fill="none" stroke="#bfbfbf" points="448.5,-56.5 448.5,-75.5 535.5,-75.5 535.5,-56.5 448.5,-56.5"/>
<text text-anchor="middle" x="492" y="-63.5" font-family="Helvetica,sans-Serif" font-size="10.00">boost/asio.hpp</text>
</g>
<!-- Node1&#45;&gt;Node4 -->
<g id="edge3" class="edge"><title>Node1&#45;&gt;Node4</title>
<path fill="none" stroke="midnightblue" d="M476.627,-280.297C478.981,-247.633 487.325,-131.866 490.634,-85.9573"/>
<polygon fill="midnightblue" stroke="midnightblue" points="494.132,-86.1095 491.36,-75.8837 487.15,-85.6062 494.132,-86.1095"/>
</g>
<!-- Node5 -->
<g id="node5" class="node"><title>Node5</title>
<polygon fill="none" stroke="#bfbfbf" points="435,-0.5 435,-19.5 473,-19.5 473,-0.5 435,-0.5"/>
<text text-anchor="middle" x="454" y="-7.5" font-family="Helvetica,sans-Serif" font-size="10.00">map</text>
</g>
<!-- Node1&#45;&gt;Node5 -->
<g id="edge4" class="edge"><title>Node1&#45;&gt;Node5</title>
<path fill="none" stroke="midnightblue" d="M419.185,-288.568C343.766,-284.651 220,-265.105 220,-179 220,-179 220,-179 220,-121 220,-31.4624 362.053,-14.673 424.8,-11.6243"/>
<polygon fill="midnightblue" stroke="midnightblue" points="424.999,-15.1192 434.851,-11.2217 424.719,-8.12484 424.999,-15.1192"/>
</g>
<!-- Node6 -->
<g id="node6" class="node"><title>Node6</title>
<g id="a_node6"><a xlink:href="UDPServer_8hpp.html" target="_top" xlink:title="Server/UDPServer.hpp">
<polygon fill="none" stroke="black" points="504,-224.5 504,-243.5 628,-243.5 628,-224.5 504,-224.5"/>
<text text-anchor="middle" x="566" y="-231.5" font-family="Helvetica,sans-Serif" font-size="10.00">Server/UDPServer.hpp</text>
</a>
</g>
</g>
<!-- Node1&#45;&gt;Node6 -->
<g id="edge5" class="edge"><title>Node1&#45;&gt;Node6</title>
<path fill="none" stroke="midnightblue" d="M490.46,-280.324C504.5,-271.9 526.048,-258.971 542.543,-249.074"/>
<polygon fill="midnightblue" stroke="midnightblue" points="544.802,-251.801 551.576,-243.655 541.2,-245.798 544.802,-251.801"/>
</g>
<!-- Node7 -->
<g id="node7" class="node"><title>Node7</title>
<g id="a_node7"><a xlink:href="ServerSession_8hpp.html" target="_top" xlink:title="ServerSession.hpp">
<polygon fill="none" stroke="black" points="515.5,-168.5 515.5,-187.5 622.5,-187.5 622.5,-168.5 515.5,-168.5"/>
<text text-anchor="middle" x="569" y="-175.5" font-family="Helvetica,sans-Serif" font-size="10.00">ServerSession.hpp</text>
</a>
</g>
</g>
<!-- Node1&#45;&gt;Node7 -->
<g id="edge34" class="edge"><title>Node1&#45;&gt;Node7</title>
<path fill="none" stroke="midnightblue" d="M532.538,-280.563C573.628,-273.141 624.193,-260.877 637,-244 652.319,-223.812 624.082,-204.215 599.464,-191.911"/>
<polygon fill="midnightblue" stroke="midnightblue" points="600.839,-188.69 590.304,-187.566 597.839,-195.014 600.839,-188.69"/>
</g>
<!-- Node12 -->
<g id="node12" class="node"><title>Node12</title>
<g id="a_node12"><a xlink:href="RoomManager_8hpp.html" target="_top" xlink:title="Room/RoomManager.hpp">
<polygon fill="none" stroke="black" points="626,-112.5 626,-131.5 762,-131.5 762,-112.5 626,-112.5"/>
<text text-anchor="middle" x="694" y="-119.5" font-family="Helvetica,sans-Serif" font-size="10.00">Room/RoomManager.hpp</text>
</a>
</g>
</g>
<!-- Node1&#45;&gt;Node12 -->
<g id="edge33" class="edge"><title>Node1&#45;&gt;Node12</title>
<path fill="none" stroke="midnightblue" d="M532.847,-288.148C571.247,-284.624 620.649,-273.929 653,-244 682.074,-217.102 690.537,-168.853 692.996,-142.128"/>
<polygon fill="midnightblue" stroke="midnightblue" points="696.511,-142.043 693.741,-131.817 689.529,-141.539 696.511,-142.043"/>
</g>
<!-- Node6&#45;&gt;Node7 -->
<g id="edge6" class="edge"><title>Node6&#45;&gt;Node7</title>
<path fill="none" stroke="midnightblue" d="M566.495,-224.083C566.889,-217.006 567.452,-206.861 567.945,-197.986"/>
<polygon fill="midnightblue" stroke="midnightblue" points="571.454,-197.93 568.514,-187.751 564.464,-197.542 571.454,-197.93"/>
</g>
<!-- Node6&#45;&gt;Node12 -->
<g id="edge32" class="edge"><title>Node6&#45;&gt;Node12</title>
<path fill="none" stroke="midnightblue" d="M580.266,-224.499C594.068,-215.997 615.293,-202.178 632,-188 649.921,-172.791 668.231,-152.96 680.26,-139.221"/>
<polygon fill="midnightblue" stroke="midnightblue" points="682.996,-141.408 686.878,-131.55 677.696,-136.835 682.996,-141.408"/>
</g>
<!-- Node20 -->
<g id="node20" class="node"><title>Node20</title>
<g id="a_node20"><a xlink:href="ServerExceptions_8hpp.html" target="_top" xlink:title="ServerExceptions.hpp">
<polygon fill="none" stroke="black" points="70.5,-112.5 70.5,-131.5 191.5,-131.5 191.5,-112.5 70.5,-112.5"/>
<text text-anchor="middle" x="131" y="-119.5" font-family="Helvetica,sans-Serif" font-size="10.00">ServerExceptions.hpp</text>
</a>
</g>
</g>
<!-- Node6&#45;&gt;Node20 -->
<g id="edge24" class="edge"><title>Node6&#45;&gt;Node20</title>
<path fill="none" stroke="midnightblue" d="M510.963,-224.462C463.062,-216.557 391.95,-203.674 331,-188 271.149,-172.608 203.009,-149.154 163.706,-135.028"/>
<polygon fill="midnightblue" stroke="midnightblue" points="164.717,-131.671 154.123,-131.562 162.337,-138.254 164.717,-131.671"/>
</g>
<!-- Node22 -->
<g id="node22" class="node"><title>Node22</title>
<g id="a_node22"><a xlink:href="AUDPNetwork_8hpp.html" target="_top" xlink:title="AUDPNetwork.hpp">
<polygon fill="none" stroke="black" points="340,-168.5 340,-187.5 444,-187.5 444,-168.5 340,-168.5"/>
<text text-anchor="middle" x="392" y="-175.5" font-family="Helvetica,sans-Serif" font-size="10.00">AUDPNetwork.hpp</text>
</a>
</g>
</g>
<!-- Node6&#45;&gt;Node22 -->
<g id="edge28" class="edge"><title>Node6&#45;&gt;Node22</title>
<path fill="none" stroke="midnightblue" d="M538.429,-224.444C508.903,-215.28 461.882,-200.688 429.117,-190.519"/>
<polygon fill="midnightblue" stroke="midnightblue" points="430.03,-187.138 419.442,-187.516 427.955,-193.823 430.03,-187.138"/>
</g>
<!-- Node8 -->
<g id="node8" class="node"><title>Node8</title>
<g id="a_node8"><a xlink:href="PacketManager_8hpp.html" target="_top" xlink:title="PacketManager.hpp">
<polygon fill="none" stroke="black" points="326,-112.5 326,-131.5 436,-131.5 436,-112.5 326,-112.5"/>
<text text-anchor="middle" x="381" y="-119.5" font-family="Helvetica,sans-Serif" font-size="10.00">PacketManager.hpp</text>
</a>
</g>
</g>
<!-- Node7&#45;&gt;Node8 -->
<g id="edge7" class="edge"><title>Node7&#45;&gt;Node8</title>
<path fill="none" stroke="midnightblue" d="M539.211,-168.444C507.171,-159.241 456.067,-144.562 420.647,-134.388"/>
<polygon fill="midnightblue" stroke="midnightblue" points="421.227,-130.913 410.65,-131.516 419.295,-137.641 421.227,-130.913"/>
</g>
<!-- Node7&#45;&gt;Node12 -->
<g id="edge11" class="edge"><title>Node7&#45;&gt;Node12</title>
<path fill="none" stroke="midnightblue" d="M588.807,-168.444C609.287,-159.596 641.483,-145.687 664.865,-135.586"/>
<polygon fill="midnightblue" stroke="midnightblue" points="666.494,-138.695 674.286,-131.516 663.718,-132.269 666.494,-138.695"/>
</g>
<!-- Node19 -->
<g id="node19" class="node"><title>Node19</title>
<g id="a_node19"><a xlink:href="ISession_8hpp.html" target="_top" xlink:title="ISession.hpp">
<polygon fill="none" stroke="black" points="530.5,-112.5 530.5,-131.5 607.5,-131.5 607.5,-112.5 530.5,-112.5"/>
<text text-anchor="middle" x="569" y="-119.5" font-family="Helvetica,sans-Serif" font-size="10.00">ISession.hpp</text>
</a>
</g>
</g>
<!-- Node7&#45;&gt;Node19 -->
<g id="edge21" class="edge"><title>Node7&#45;&gt;Node19</title>
<path fill="none" stroke="midnightblue" d="M569,-168.083C569,-161.006 569,-150.861 569,-141.986"/>
<polygon fill="midnightblue" stroke="midnightblue" points="572.5,-141.751 569,-131.751 565.5,-141.751 572.5,-141.751"/>
</g>
<!-- Node9 -->
<g id="node9" class="node"><title>Node9</title>
<polygon fill="none" stroke="#bfbfbf" points="141,-0.5 141,-19.5 185,-19.5 185,-0.5 141,-0.5"/>
<text text-anchor="middle" x="163" y="-7.5" font-family="Helvetica,sans-Serif" font-size="10.00">string</text>
</g>
<!-- Node8&#45;&gt;Node9 -->
<g id="edge8" class="edge"><title>Node8&#45;&gt;Node9</title>
<path fill="none" stroke="midnightblue" d="M358.713,-112.476C337.009,-103.957 303.253,-90.127 275,-76 242.978,-59.9883 207.455,-38.7443 185.178,-24.9737"/>
<polygon fill="midnightblue" stroke="midnightblue" points="186.83,-21.8794 176.491,-19.5667 183.131,-27.8223 186.83,-21.8794"/>
</g>
<!-- Node10 -->
<g id="node10" class="node"><title>Node10</title>
<polygon fill="none" stroke="#bfbfbf" points="284,-56.5 284,-75.5 314,-75.5 314,-56.5 284,-56.5"/>
<text text-anchor="middle" x="299" y="-63.5" font-family="Helvetica,sans-Serif" font-size="10.00">list</text>
</g>
<!-- Node8&#45;&gt;Node10 -->
<g id="edge9" class="edge"><title>Node8&#45;&gt;Node10</title>
<path fill="none" stroke="midnightblue" d="M367.825,-112.324C355.153,-103.979 335.767,-91.2122 320.794,-81.3524"/>
<polygon fill="midnightblue" stroke="midnightblue" points="322.419,-78.2313 312.142,-75.6545 318.569,-84.0776 322.419,-78.2313"/>
</g>
<!-- Node11 -->
<g id="node11" class="node"><title>Node11</title>
<g id="a_node11"><a xlink:href="Input_8hpp.html" target="_top" xlink:title="Render/Input.hpp">
<polygon fill="none" stroke="black" points="332,-56.5 332,-75.5 430,-75.5 430,-56.5 332,-56.5"/>
<text text-anchor="middle" x="381" y="-63.5" font-family="Helvetica,sans-Serif" font-size="10.00">Render/Input.hpp</text>
</a>
</g>
</g>
<!-- Node8&#45;&gt;Node11 -->
<g id="edge10" class="edge"><title>Node8&#45;&gt;Node11</title>
<path fill="none" stroke="midnightblue" d="M381,-112.083C381,-105.006 381,-94.8611 381,-85.9865"/>
<polygon fill="midnightblue" stroke="midnightblue" points="384.5,-85.751 381,-75.7511 377.5,-85.7511 384.5,-85.751"/>
</g>
<!-- Node12&#45;&gt;Node4 -->
<g id="edge20" class="edge"><title>Node12&#45;&gt;Node4</title>
<path fill="none" stroke="midnightblue" d="M661.992,-112.444C627.271,-103.162 571.712,-88.3093 533.623,-78.127"/>
<polygon fill="midnightblue" stroke="midnightblue" points="534.422,-74.7178 523.858,-75.5164 532.615,-81.4803 534.422,-74.7178"/>
</g>
<!-- Node13 -->
<g id="node13" class="node"><title>Node13</title>
<polygon fill="none" stroke="#bfbfbf" points="629,-56.5 629,-75.5 681,-75.5 681,-56.5 629,-56.5"/>
<text text-anchor="middle" x="655" y="-63.5" font-family="Helvetica,sans-Serif" font-size="10.00">cstddef</text>
</g>
<!-- Node12&#45;&gt;Node13 -->
<g id="edge12" class="edge"><title>Node12&#45;&gt;Node13</title>
<path fill="none" stroke="midnightblue" d="M687.56,-112.083C682.051,-104.455 673.969,-93.2645 667.235,-83.9408"/>
<polygon fill="midnightblue" stroke="midnightblue" points="670.013,-81.8087 661.32,-75.7511 664.338,-85.9071 670.013,-81.8087"/>
</g>
<!-- Node14 -->
<g id="node14" class="node"><title>Node14</title>
<polygon fill="none" stroke="#bfbfbf" points="699.5,-56.5 699.5,-75.5 746.5,-75.5 746.5,-56.5 699.5,-56.5"/>
<text text-anchor="middle" x="723" y="-63.5" font-family="Helvetica,sans-Serif" font-size="10.00">vector</text>
</g>
<!-- Node12&#45;&gt;Node14 -->
<g id="edge13" class="edge"><title>Node12&#45;&gt;Node14</title>
<path fill="none" stroke="midnightblue" d="M698.789,-112.083C702.758,-104.691 708.525,-93.9533 713.435,-84.8111"/>
<polygon fill="midnightblue" stroke="midnightblue" points="716.653,-86.217 718.3,-75.7511 710.486,-82.9051 716.653,-86.217"/>
</g>
<!-- Node15 -->
<g id="node15" class="node"><title>Node15</title>
<polygon fill="none" stroke="#bfbfbf" points="553.5,-56.5 553.5,-75.5 610.5,-75.5 610.5,-56.5 553.5,-56.5"/>
<text text-anchor="middle" x="582" y="-63.5" font-family="Helvetica,sans-Serif" font-size="10.00">memory</text>
</g>
<!-- Node12&#45;&gt;Node15 -->
<g id="edge14" class="edge"><title>Node12&#45;&gt;Node15</title>
<path fill="none" stroke="midnightblue" d="M676.005,-112.324C657.962,-103.625 629.953,-90.1202 609.197,-80.113"/>
<polygon fill="midnightblue" stroke="midnightblue" points="610.478,-76.8449 599.95,-75.6545 607.438,-83.1502 610.478,-76.8449"/>
</g>
<!-- Node16 -->
<g id="node16" class="node"><title>Node16</title>
<g id="a_node16"><a xlink:href="Room_8hpp.html" target="_top" xlink:title="Room.hpp">
<polygon fill="none" stroke="black" points="764.5,-56.5 764.5,-75.5 829.5,-75.5 829.5,-56.5 764.5,-56.5"/>
<text text-anchor="middle" x="797" y="-63.5" font-family="Helvetica,sans-Serif" font-size="10.00">Room.hpp</text>
</a>
</g>
</g>
<!-- Node12&#45;&gt;Node16 -->
<g id="edge15" class="edge"><title>Node12&#45;&gt;Node16</title>
<path fill="none" stroke="midnightblue" d="M710.549,-112.324C726.992,-103.703 752.435,-90.3643 771.468,-80.3855"/>
<polygon fill="midnightblue" stroke="midnightblue" points="773.261,-83.3977 780.492,-75.6545 770.011,-77.198 773.261,-83.3977"/>
</g>
<!-- Node16&#45;&gt;Node5 -->
<g id="edge16" class="edge"><title>Node16&#45;&gt;Node5</title>
<path fill="none" stroke="midnightblue" d="M764.367,-57.6265C761.542,-57.052 758.724,-56.5012 756,-56 656.502,-37.6885 537.509,-21.6694 483.389,-14.702"/>
<polygon fill="midnightblue" stroke="midnightblue" points="483.518,-11.19 473.155,-13.3931 482.63,-18.1335 483.518,-11.19"/>
</g>
<!-- Node16&#45;&gt;Node9 -->
<g id="edge17" class="edge"><title>Node16&#45;&gt;Node9</title>
<path fill="none" stroke="midnightblue" d="M764.402,-57.412C761.57,-56.884 758.74,-56.4026 756,-56 543.484,-24.7692 284.743,-14.5796 195.26,-11.858"/>
<polygon fill="midnightblue" stroke="midnightblue" points="195.3,-8.3577 185.201,-11.5622 195.094,-15.3547 195.3,-8.3577"/>
</g>
<!-- Node17 -->
<g id="node17" class="node"><title>Node17</title>
<polygon fill="none" stroke="#bfbfbf" points="726.5,-0.5 726.5,-19.5 773.5,-19.5 773.5,-0.5 726.5,-0.5"/>
<text text-anchor="middle" x="750" y="-7.5" font-family="Helvetica,sans-Serif" font-size="10.00">mutex</text>
</g>
<!-- Node16&#45;&gt;Node17 -->
<g id="edge18" class="edge"><title>Node16&#45;&gt;Node17</title>
<path fill="none" stroke="midnightblue" d="M789.239,-56.083C782.463,-48.2982 772.457,-36.8015 764.245,-27.3665"/>
<polygon fill="midnightblue" stroke="midnightblue" points="766.822,-24.9963 757.617,-19.7511 761.542,-29.592 766.822,-24.9963"/>
</g>
<!-- Node18 -->
<g id="node18" class="node"><title>Node18</title>
<polygon fill="none" stroke="#bfbfbf" points="791.5,-0.5 791.5,-19.5 894.5,-19.5 894.5,-0.5 791.5,-0.5"/>
<text text-anchor="middle" x="843" y="-7.5" font-family="Helvetica,sans-Serif" font-size="10.00">condition_variable</text>
</g>
<!-- Node16&#45;&gt;Node18 -->
<g id="edge19" class="edge"><title>Node16&#45;&gt;Node18</title>
<path fill="none" stroke="midnightblue" d="M804.596,-56.083C811.227,-48.2982 821.021,-36.8015 829.058,-27.3665"/>
<polygon fill="midnightblue" stroke="midnightblue" points="831.725,-29.6332 835.545,-19.7511 826.396,-25.0939 831.725,-29.6332"/>
</g>
<!-- Node19&#45;&gt;Node4 -->
<g id="edge23" class="edge"><title>Node19&#45;&gt;Node4</title>
<path fill="none" stroke="midnightblue" d="M556.629,-112.324C544.842,-104.058 526.868,-91.4527 512.864,-81.6322"/>
<polygon fill="midnightblue" stroke="midnightblue" points="514.538,-78.5307 504.341,-75.6545 510.518,-84.2619 514.538,-78.5307"/>
</g>
<!-- Node19&#45;&gt;Node15 -->
<g id="edge22" class="edge"><title>Node19&#45;&gt;Node15</title>
<path fill="none" stroke="midnightblue" d="M571.147,-112.083C572.869,-104.927 575.347,-94.6353 577.5,-85.6911"/>
<polygon fill="midnightblue" stroke="midnightblue" points="580.955,-86.2925 579.893,-75.7511 574.15,-84.6541 580.955,-86.2925"/>
</g>
<!-- Node20&#45;&gt;Node9 -->
<g id="edge25" class="edge"><title>Node20&#45;&gt;Node9</title>
<path fill="none" stroke="midnightblue" d="M133.511,-112.368C138.698,-94.5366 150.696,-53.2953 157.685,-29.2717"/>
<polygon fill="midnightblue" stroke="midnightblue" points="161.068,-30.1711 160.501,-19.5914 154.347,-28.2157 161.068,-30.1711"/>
</g>
<!-- Node21 -->
<g id="node21" class="node"><title>Node21</title>
<g id="a_node21"><a xlink:href="RTypeExceptions_8hpp.html" target="_top" xlink:title="RTypeExceptions.hpp">
<polygon fill="none" stroke="black" points="0,-56.5 0,-75.5 116,-75.5 116,-56.5 0,-56.5"/>
<text text-anchor="middle" x="58" y="-63.5" font-family="Helvetica,sans-Serif" font-size="10.00">RTypeExceptions.hpp</text>
</a>
</g>
</g>
<!-- Node20&#45;&gt;Node21 -->
<g id="edge26" class="edge"><title>Node20&#45;&gt;Node21</title>
<path fill="none" stroke="midnightblue" d="M119.271,-112.324C108.163,-104.107 91.2578,-91.6017 78.0167,-81.8069"/>
<polygon fill="midnightblue" stroke="midnightblue" points="80.0631,-78.9671 69.9421,-75.8339 75.9001,-84.5948 80.0631,-78.9671"/>
</g>
<!-- Node21&#45;&gt;Node9 -->
<g id="edge27" class="edge"><title>Node21&#45;&gt;Node9</title>
<path fill="none" stroke="midnightblue" d="M74.8701,-56.324C91.7088,-47.6641 117.807,-34.2424 137.238,-24.249"/>
<polygon fill="midnightblue" stroke="midnightblue" points="138.88,-27.3405 146.172,-19.6545 135.678,-21.1155 138.88,-27.3405"/>
</g>
<!-- Node22&#45;&gt;Node3 -->
<g id="edge30" class="edge"><title>Node22&#45;&gt;Node3</title>
<path fill="none" stroke="midnightblue" d="M373.936,-168.444C355.425,-159.675 326.419,-145.935 305.145,-135.858"/>
<polygon fill="midnightblue" stroke="midnightblue" points="306.515,-132.634 295.979,-131.516 303.518,-138.96 306.515,-132.634"/>
</g>
<!-- Node22&#45;&gt;Node4 -->
<g id="edge29" class="edge"><title>Node22&#45;&gt;Node4</title>
<path fill="none" stroke="midnightblue" d="M403.661,-168.42C414.896,-159.861 432.05,-146.001 445,-132 458.83,-117.049 472.197,-97.9665 481.117,-84.3527"/>
<polygon fill="midnightblue" stroke="midnightblue" points="484.074,-86.2251 486.533,-75.9194 478.184,-82.4425 484.074,-86.2251"/>
</g>
<!-- Node22&#45;&gt;Node8 -->
<g id="edge31" class="edge"><title>Node22&#45;&gt;Node8</title>
<path fill="none" stroke="midnightblue" d="M390.184,-168.083C388.726,-160.927 386.629,-150.635 384.807,-141.691"/>
<polygon fill="midnightblue" stroke="midnightblue" points="388.208,-140.851 382.783,-131.751 381.349,-142.248 388.208,-140.851"/>
</g>
</g>
</svg>
        <g id="navigator" transform="translate(0 0)" fill="#404254">
                <rect fill="#f2f5e9" fill-opacity="0.5" stroke="#606060" stroke-width=".5" x="0" y="0" width="60" height="60"/>
                <use id="zoomplus" xlink:href="#zoomPlus" x="17" y="9" onmousedown="handleZoom(evt,'in')"/>
                <use id="zoomminus" xlink:href="#zoomMin" x="42" y="9" onmousedown="handleZoom(evt,'out')"/>
                <use id="reset" xlink:href="#resetDef" x="30" y="36" onmousedown="handleReset()"/>
                <g id="arrowUp" xlink:href="#dirArrow" transform="translate(30 24)" onmousedown="handlePan(0,-1)">
                  <use xlink:href="#rim" fill="#404040">
                        <set attributeName="fill" to="#808080" begin="arrowUp.mouseover" end="arrowUp.mouseout"/>
                  </use>
                  <path fill="none" stroke="white" stroke-width="1.5" d="M0,-3.0v7 M-2.5,-0.5L0,-3.0L2.5,-0.5"/>
                </g>
                <g id="arrowRight" xlink:href="#dirArrow" transform="rotate(90) translate(36 -43)" onmousedown="handlePan(1,0)">
                  <use xlink:href="#rim" fill="#404040">
                        <set attributeName="fill" to="#808080" begin="arrowRight.mouseover" end="arrowRight.mouseout"/>
                  </use>
                  <path fill="none" stroke="white" stroke-width="1.5" d="M0,-3.0v7 M-2.5,-0.5L0,-3.0L2.5,-0.5"/>
                </g>
                <g id="arrowDown" xlink:href="#dirArrow" transform="rotate(180) translate(-30 -48)" onmousedown="handlePan(0,1)">
                  <use xlink:href="#rim" fill="#404040">
                        <set attributeName="fill" to="#808080" begin="arrowDown.mouseover" end="arrowDown.mouseout"/>
                  </use>
                  <path fill="none" stroke="white" stroke-width="1.5" d="M0,-3.0v7 M-2.5,-0.5L0,-3.0L2.5,-0.5"/>
                </g>
                <g id="arrowLeft" xlink:href="#dirArrow" transform="rotate(270) translate(-36 17)" onmousedown="handlePan(-1,0)">
                  <use xlink:href="#rim" fill="#404040">
                        <set attributeName="fill" to="#808080" begin="arrowLeft.mouseover" end="arrowLeft.mouseout"/>
                  </use>
                  <path fill="none" stroke="white" stroke-width="1.5" d="M0,-3.0v7 M-2.5,-0.5L0,-3.0L2.5,-0.5"/>
                </g>
        </g>
        <svg viewBox="0 0 15 15" width="100%" height="30px" preserveAspectRatio="xMaxYMin meet">
         <g id="arrow_out" transform="scale(0.3 0.3)">
          <a xlink:href="main__server_8cpp__incl_org.svg" target="_base">
           <rect id="button" ry="5" rx="5" y="6" x="6" height="38" width="38"
                fill="#f2f5e9" fill-opacity="0.5" stroke="#606060" stroke-width="1.0"/>
           <path id="arrow"
             d="M 11.500037,31.436501 C 11.940474,20.09759 22.043105,11.32322 32.158766,21.979434 L 37.068811,17.246167 C 37.068811,17.246167 37.088388,32 37.088388,32 L 22.160133,31.978069 C 22.160133,31.978069 26.997745,27.140456 26.997745,27.140456 C 18.528582,18.264221 13.291696,25.230495 11.500037,31.436501 z"
             style="fill:#404040;"/>
          </a>
         </g>
        </svg>
</svg>
