<?xml version="1.0" encoding="UTF-8" standalone="no"?>
<!DOCTYPE svg PUBLIC "-//W3C//DTD SVG 1.1//EN"
 "http://www.w3.org/Graphics/SVG/1.1/DTD/svg11.dtd">
<!-- Generated by graphviz version 2.38.0 (20140413.2041)
 -->
<!-- Title: src/ManagerWrapper/ManagerWrapper.hpp Pages: 1 -->
<svg width="2167pt" height="487pt"
 viewBox="0.00 0.00 2167.00 487.00" xmlns="http://www.w3.org/2000/svg" xmlns:xlink="http://www.w3.org/1999/xlink">
<g id="graph0" class="graph" transform="scale(1 1) rotate(0) translate(4 483)">
<title>src/ManagerWrapper/ManagerWrapper.hpp</title>
<!-- Node1 -->
<g id="node1" class="node"><title>Node1</title>
<polygon fill="#bfbfbf" stroke="black" points="993.5,-448.5 993.5,-478.5 1114.5,-478.5 1114.5,-448.5 993.5,-448.5"/>
<text text-anchor="start" x="1001.5" y="-466.5" font-family="Helvetica,sans-Serif" font-size="10.00">src/ManagerWrapper</text>
<text text-anchor="middle" x="1054" y="-455.5" font-family="Helvetica,sans-Serif" font-size="10.00">/ManagerWrapper.hpp</text>
</g>
<!-- Node2 -->
<g id="node2" class="node"><title>Node2</title>
<g id="a_node2"><a xlink:href="IManagerWrapper_8hpp.html" target="_top" xlink:title="IManagerWrapper.hpp">
<polygon fill="none" stroke="black" points="835,-392.5 835,-411.5 955,-411.5 955,-392.5 835,-392.5"/>
<text text-anchor="middle" x="895" y="-399.5" font-family="Helvetica,sans-Serif" font-size="10.00">IManagerWrapper.hpp</text>
</a>
</g>
</g>
<!-- Node1&#45;&gt;Node2 -->
<g id="edge1" class="edge"><title>Node1&#45;&gt;Node2</title>
<path fill="none" stroke="midnightblue" d="M1016.32,-448.399C989.404,-438.327 953.548,-424.909 927.807,-415.277"/>
<polygon fill="midnightblue" stroke="midnightblue" points="928.728,-411.885 918.136,-411.658 926.275,-418.441 928.728,-411.885"/>
</g>
<!-- Node42 -->
<g id="node42" class="node"><title>Node42</title>
<g id="a_node42"><a xlink:href="RtypeResources_8hpp.html" target="_top" xlink:title="RtypeResources.hpp">
<polygon fill="none" stroke="black" points="1157.5,-392.5 1157.5,-411.5 1270.5,-411.5 1270.5,-392.5 1157.5,-392.5"/>
<text text-anchor="middle" x="1214" y="-399.5" font-family="Helvetica,sans-Serif" font-size="10.00">RtypeResources.hpp</text>
</a>
</g>
</g>
<!-- Node1&#45;&gt;Node42 -->
<g id="edge87" class="edge"><title>Node1&#45;&gt;Node42</title>
<path fill="none" stroke="midnightblue" d="M1091.92,-448.399C1119.12,-438.283 1155.4,-424.791 1181.33,-415.149"/>
<polygon fill="midnightblue" stroke="midnightblue" points="1182.57,-418.424 1190.72,-411.658 1180.13,-411.863 1182.57,-418.424"/>
</g>
<!-- Node3 -->
<g id="node3" class="node"><title>Node3</title>
<g id="a_node3"><a xlink:href="IRenderManager_8hpp.html" target="_top" xlink:title="IRenderManager.hpp">
<polygon fill="none" stroke="black" points="838,-280.5 838,-299.5 952,-299.5 952,-280.5 838,-280.5"/>
<text text-anchor="middle" x="895" y="-287.5" font-family="Helvetica,sans-Serif" font-size="10.00">IRenderManager.hpp</text>
</a>
</g>
</g>
<!-- Node2&#45;&gt;Node3 -->
<g id="edge2" class="edge"><title>Node2&#45;&gt;Node3</title>
<path fill="none" stroke="midnightblue" d="M895,-392.368C895,-374.617 895,-333.666 895,-309.597"/>
<polygon fill="midnightblue" stroke="midnightblue" points="898.5,-309.591 895,-299.591 891.5,-309.591 898.5,-309.591"/>
</g>
<!-- Node4 -->
<g id="node4" class="node"><title>Node4</title>
<polygon fill="none" stroke="#bfbfbf" points="673.5,-112.5 673.5,-131.5 730.5,-131.5 730.5,-112.5 673.5,-112.5"/>
<text text-anchor="middle" x="702" y="-119.5" font-family="Helvetica,sans-Serif" font-size="10.00">memory</text>
</g>
<!-- Node2&#45;&gt;Node4 -->
<g id="edge86" class="edge"><title>Node2&#45;&gt;Node4</title>
<path fill="none" stroke="midnightblue" d="M914.413,-392.464C945.991,-377.108 1005,-341.639 1005,-291 1005,-291 1005,-291 1005,-233 1005,-186.145 964.529,-187.663 922,-168 862.415,-140.452 786.035,-129.675 740.732,-125.525"/>
<polygon fill="midnightblue" stroke="midnightblue" points="740.995,-122.034 730.733,-124.671 740.399,-129.009 740.995,-122.034"/>
</g>
<!-- Node11 -->
<g id="node11" class="node"><title>Node11</title>
<g id="a_node11"><a xlink:href="IComponentManager_8hpp.html" target="_top" xlink:title="IComponentManager.hpp">
<polygon fill="none" stroke="black" points="555.5,-168.5 555.5,-187.5 692.5,-187.5 692.5,-168.5 555.5,-168.5"/>
<text text-anchor="middle" x="624" y="-175.5" font-family="Helvetica,sans-Serif" font-size="10.00">IComponentManager.hpp</text>
</a>
</g>
</g>
<!-- Node2&#45;&gt;Node11 -->
<g id="edge71" class="edge"><title>Node2&#45;&gt;Node11</title>
<path fill="none" stroke="midnightblue" d="M849.172,-392.481C779.701,-376.828 649.916,-336.231 594,-244 584.395,-228.158 596.147,-208.727 607.641,-195.257"/>
<polygon fill="midnightblue" stroke="midnightblue" points="610.375,-197.455 614.571,-187.727 605.224,-192.715 610.375,-197.455"/>
</g>
<!-- Node17 -->
<g id="node17" class="node"><title>Node17</title>
<g id="a_node17"><a xlink:href="IEntityManager_8hpp.html" target="_top" xlink:title="IEntityManager.hpp">
<polygon fill="none" stroke="black" points="429,-168.5 429,-187.5 537,-187.5 537,-168.5 429,-168.5"/>
<text text-anchor="middle" x="483" y="-175.5" font-family="Helvetica,sans-Serif" font-size="10.00">IEntityManager.hpp</text>
</a>
</g>
</g>
<!-- Node2&#45;&gt;Node17 -->
<g id="edge55" class="edge"><title>Node2&#45;&gt;Node17</title>
<path fill="none" stroke="midnightblue" d="M834.748,-394.452C793.62,-388.343 738.704,-376.899 694,-356 607.786,-315.695 528.082,-231.064 496.883,-195.401"/>
<polygon fill="midnightblue" stroke="midnightblue" points="499.52,-193.099 490.337,-187.816 494.221,-197.673 499.52,-193.099"/>
</g>
<!-- Node30 -->
<g id="node30" class="node"><title>Node30</title>
<g id="a_node30"><a xlink:href="ISystemManager_8hpp.html" target="_top" xlink:title="ISystemManager.hpp">
<polygon fill="none" stroke="black" points="368,-336.5 368,-355.5 486,-355.5 486,-336.5 368,-336.5"/>
<text text-anchor="middle" x="427" y="-343.5" font-family="Helvetica,sans-Serif" font-size="10.00">ISystemManager.hpp</text>
</a>
</g>
</g>
<!-- Node2&#45;&gt;Node30 -->
<g id="edge56" class="edge"><title>Node2&#45;&gt;Node30</title>
<path fill="none" stroke="midnightblue" d="M834.775,-394.051C747.922,-384.029 587.897,-365.565 496.265,-354.992"/>
<polygon fill="midnightblue" stroke="midnightblue" points="496.591,-351.507 486.256,-353.837 495.789,-358.46 496.591,-351.507"/>
</g>
<!-- Node35 -->
<g id="node35" class="node"><title>Node35</title>
<g id="a_node35"><a xlink:href="ResourceManager_8hpp.html" target="_top" xlink:title="ResourceManager.hpp">
<polygon fill="none" stroke="black" points="1413,-280.5 1413,-299.5 1535,-299.5 1535,-280.5 1413,-280.5"/>
<text text-anchor="middle" x="1474" y="-287.5" font-family="Helvetica,sans-Serif" font-size="10.00">ResourceManager.hpp</text>
</a>
</g>
</g>
<!-- Node2&#45;&gt;Node35 -->
<g id="edge72" class="edge"><title>Node2&#45;&gt;Node35</title>
<path fill="none" stroke="midnightblue" d="M939.951,-392.46C1044.79,-372.542 1305.24,-323.062 1419.17,-301.417"/>
<polygon fill="midnightblue" stroke="midnightblue" points="1419.91,-304.84 1429.08,-299.535 1418.6,-297.963 1419.91,-304.84"/>
</g>
<!-- Node3&#45;&gt;Node4 -->
<g id="edge3" class="edge"><title>Node3&#45;&gt;Node4</title>
<path fill="none" stroke="midnightblue" d="M910.783,-280.467C923.203,-272.769 939.605,-260.179 947,-244 964.552,-205.599 926.937,-188.455 890,-168 842.701,-141.806 780.479,-130.759 740.849,-126.168"/>
<polygon fill="midnightblue" stroke="midnightblue" points="741.11,-122.676 730.793,-125.086 740.361,-129.636 741.11,-122.676"/>
</g>
<!-- Node5 -->
<g id="node5" class="node"><title>Node5</title>
<polygon fill="none" stroke="#bfbfbf" points="820.5,-112.5 820.5,-131.5 867.5,-131.5 867.5,-112.5 820.5,-112.5"/>
<text text-anchor="middle" x="844" y="-119.5" font-family="Helvetica,sans-Serif" font-size="10.00">vector</text>
</g>
<!-- Node3&#45;&gt;Node5 -->
<g id="edge4" class="edge"><title>Node3&#45;&gt;Node5</title>
<path fill="none" stroke="midnightblue" d="M929.184,-280.493C947.993,-273.877 969.743,-262.596 981,-244 998.492,-215.104 1000.81,-195.359 981,-168 957.651,-135.754 910.446,-126.206 878.032,-123.598"/>
<polygon fill="midnightblue" stroke="midnightblue" points="877.86,-120.081 867.663,-122.958 877.428,-127.068 877.86,-120.081"/>
</g>
<!-- Node6 -->
<g id="node6" class="node"><title>Node6</title>
<polygon fill="none" stroke="#bfbfbf" points="397,-56.5 397,-75.5 441,-75.5 441,-56.5 397,-56.5"/>
<text text-anchor="middle" x="419" y="-63.5" font-family="Helvetica,sans-Serif" font-size="10.00">string</text>
</g>
<!-- Node3&#45;&gt;Node6 -->
<g id="edge5" class="edge"><title>Node3&#45;&gt;Node6</title>
<path fill="none" stroke="midnightblue" d="M853.939,-280.448C831.536,-273.877 804.817,-262.656 787,-244 743.886,-198.855 787.506,-151.295 739,-112 695.359,-76.6464 524.237,-69.0673 451.739,-67.4429"/>
<polygon fill="midnightblue" stroke="midnightblue" points="451.452,-63.9366 441.384,-67.2369 451.313,-70.9352 451.452,-63.9366"/>
</g>
<!-- Node7 -->
<g id="node7" class="node"><title>Node7</title>
<polygon fill="none" stroke="#bfbfbf" points="825,-168.5 825,-187.5 863,-187.5 863,-168.5 825,-168.5"/>
<text text-anchor="middle" x="844" y="-175.5" font-family="Helvetica,sans-Serif" font-size="10.00">map</text>
</g>
<!-- Node3&#45;&gt;Node7 -->
<g id="edge6" class="edge"><title>Node3&#45;&gt;Node7</title>
<path fill="none" stroke="midnightblue" d="M849.347,-280.431C828.757,-274.044 806.335,-262.999 794,-244 782.141,-225.734 802.307,-206.089 820.46,-193.235"/>
<polygon fill="midnightblue" stroke="midnightblue" points="822.678,-195.963 829.06,-187.506 818.797,-190.137 822.678,-195.963"/>
</g>
<!-- Node8 -->
<g id="node8" class="node"><title>Node8</title>
<g id="a_node8"><a xlink:href="IComponent_8hpp.html" target="_top" xlink:title="IComponent.hpp">
<polygon fill="none" stroke="black" points="1156,-56.5 1156,-75.5 1252,-75.5 1252,-56.5 1156,-56.5"/>
<text text-anchor="middle" x="1204" y="-63.5" font-family="Helvetica,sans-Serif" font-size="10.00">IComponent.hpp</text>
</a>
</g>
</g>
<!-- Node3&#45;&gt;Node8 -->
<g id="edge7" class="edge"><title>Node3&#45;&gt;Node8</title>
<path fill="none" stroke="midnightblue" d="M952.026,-289.995C1038.22,-290.139 1195.44,-284.638 1231,-244 1270.87,-198.436 1234.44,-119.745 1214.74,-84.7117"/>
<polygon fill="midnightblue" stroke="midnightblue" points="1217.54,-82.566 1209.48,-75.6869 1211.49,-86.0895 1217.54,-82.566"/>
</g>
<!-- Node10 -->
<g id="node10" class="node"><title>Node10</title>
<g id="a_node10"><a xlink:href="ComponentManager_8hpp.html" target="_top" xlink:title="ComponentManager.hpp">
<polygon fill="none" stroke="black" points="803.5,-224.5 803.5,-243.5 938.5,-243.5 938.5,-224.5 803.5,-224.5"/>
<text text-anchor="middle" x="871" y="-231.5" font-family="Helvetica,sans-Serif" font-size="10.00">ComponentManager.hpp</text>
</a>
</g>
</g>
<!-- Node3&#45;&gt;Node10 -->
<g id="edge9" class="edge"><title>Node3&#45;&gt;Node10</title>
<path fill="none" stroke="midnightblue" d="M891.037,-280.083C887.787,-272.77 883.081,-262.181 879.046,-253.103"/>
<polygon fill="midnightblue" stroke="midnightblue" points="882.149,-251.468 874.889,-243.751 875.752,-254.311 882.149,-251.468"/>
</g>
<!-- Node13 -->
<g id="node13" class="node"><title>Node13</title>
<g id="a_node13"><a xlink:href="Entity_8hpp.html" target="_top" xlink:title="Entity.hpp">
<polygon fill="none" stroke="black" points="201.5,-112.5 201.5,-131.5 264.5,-131.5 264.5,-112.5 201.5,-112.5"/>
<text text-anchor="middle" x="233" y="-119.5" font-family="Helvetica,sans-Serif" font-size="10.00">Entity.hpp</text>
</a>
</g>
</g>
<!-- Node3&#45;&gt;Node13 -->
<g id="edge18" class="edge"><title>Node3&#45;&gt;Node13</title>
<path fill="none" stroke="midnightblue" d="M837.791,-287.231C680.3,-282.084 250.63,-266.073 230,-244 204.148,-216.339 216.172,-167.677 225.562,-141.277"/>
<polygon fill="midnightblue" stroke="midnightblue" points="228.904,-142.337 229.188,-131.746 222.361,-139.848 228.904,-142.337"/>
</g>
<!-- Node14 -->
<g id="node14" class="node"><title>Node14</title>
<g id="a_node14"><a xlink:href="EntityManager_8hpp.html" target="_top" xlink:title="EntityManager.hpp">
<polygon fill="none" stroke="black" points="603,-224.5 603,-243.5 709,-243.5 709,-224.5 603,-224.5"/>
<text text-anchor="middle" x="656" y="-231.5" font-family="Helvetica,sans-Serif" font-size="10.00">EntityManager.hpp</text>
</a>
</g>
</g>
<!-- Node3&#45;&gt;Node14 -->
<g id="edge19" class="edge"><title>Node3&#45;&gt;Node14</title>
<path fill="none" stroke="midnightblue" d="M857.13,-280.444C815.524,-271.043 748.631,-255.929 703.531,-245.739"/>
<polygon fill="midnightblue" stroke="midnightblue" points="704.219,-242.306 693.693,-243.516 702.676,-249.134 704.219,-242.306"/>
</g>
<!-- Node15 -->
<g id="node15" class="node"><title>Node15</title>
<g id="a_node15"><a xlink:href="PacketManager_8hpp.html" target="_top" xlink:title="PacketManager.hpp">
<polygon fill="none" stroke="black" points="35,-112.5 35,-131.5 145,-131.5 145,-112.5 35,-112.5"/>
<text text-anchor="middle" x="90" y="-119.5" font-family="Helvetica,sans-Serif" font-size="10.00">PacketManager.hpp</text>
</a>
</g>
</g>
<!-- Node3&#45;&gt;Node15 -->
<g id="edge51" class="edge"><title>Node3&#45;&gt;Node15</title>
<path fill="none" stroke="midnightblue" d="M837.901,-287.471C684.498,-283.047 271.202,-268.937 215,-244 163.656,-221.218 120.942,-167.678 101.416,-140.093"/>
<polygon fill="midnightblue" stroke="midnightblue" points="104.265,-138.058 95.7044,-131.815 98.5029,-142.034 104.265,-138.058"/>
</g>
<!-- Node16 -->
<g id="node16" class="node"><title>Node16</title>
<g id="a_node16"><a xlink:href="Input_8hpp.html" target="_top" xlink:title="Render/Input.hpp">
<polygon fill="none" stroke="black" points="0,-56.5 0,-75.5 98,-75.5 98,-56.5 0,-56.5"/>
<text text-anchor="middle" x="49" y="-63.5" font-family="Helvetica,sans-Serif" font-size="10.00">Render/Input.hpp</text>
</a>
</g>
</g>
<!-- Node3&#45;&gt;Node16 -->
<g id="edge50" class="edge"><title>Node3&#45;&gt;Node16</title>
<path fill="none" stroke="midnightblue" d="M837.731,-287.234C679.011,-282.082 241.14,-266.029 180,-244 100.379,-215.312 64.4038,-207.416 26,-132 18.0559,-116.4 26.6951,-97.4097 35.5626,-83.9947"/>
<polygon fill="midnightblue" stroke="midnightblue" points="38.5278,-85.8666 41.5371,-75.7081 32.8497,-81.7727 38.5278,-85.8666"/>
</g>
<!-- Node18 -->
<g id="node18" class="node"><title>Node18</title>
<g id="a_node18"><a xlink:href="Sprite_8hpp.html" target="_top" xlink:title="Display/Sprite.hpp">
<polygon fill="none" stroke="black" points="1321,-168.5 1321,-187.5 1425,-187.5 1425,-168.5 1321,-168.5"/>
<text text-anchor="middle" x="1373" y="-175.5" font-family="Helvetica,sans-Serif" font-size="10.00">Display/Sprite.hpp</text>
</a>
</g>
</g>
<!-- Node3&#45;&gt;Node18 -->
<g id="edge32" class="edge"><title>Node3&#45;&gt;Node18</title>
<path fill="none" stroke="midnightblue" d="M952.149,-289.569C1026.67,-288.645 1160.11,-281.239 1267,-244 1300.21,-232.431 1334.07,-209.268 1354.31,-193.949"/>
<polygon fill="midnightblue" stroke="midnightblue" points="1356.59,-196.613 1362.36,-187.726 1352.31,-191.076 1356.59,-196.613"/>
</g>
<!-- Node21 -->
<g id="node21" class="node"><title>Node21</title>
<g id="a_node21"><a xlink:href="Position_8hpp.html" target="_top" xlink:title="Physics/Position.hpp">
<polygon fill="none" stroke="black" points="1109.5,-224.5 1109.5,-243.5 1222.5,-243.5 1222.5,-224.5 1109.5,-224.5"/>
<text text-anchor="middle" x="1166" y="-231.5" font-family="Helvetica,sans-Serif" font-size="10.00">Physics/Position.hpp</text>
</a>
</g>
</g>
<!-- Node3&#45;&gt;Node21 -->
<g id="edge39" class="edge"><title>Node3&#45;&gt;Node21</title>
<path fill="none" stroke="midnightblue" d="M937.941,-280.444C985.513,-270.964 1062.24,-255.675 1113.39,-245.483"/>
<polygon fill="midnightblue" stroke="midnightblue" points="1114.14,-248.903 1123.26,-243.516 1112.77,-242.038 1114.14,-248.903"/>
</g>
<!-- Node24 -->
<g id="node24" class="node"><title>Node24</title>
<g id="a_node24"><a xlink:href="Text_8hpp.html" target="_top" xlink:title="Display/Text.hpp">
<polygon fill="none" stroke="black" points="1427,-224.5 1427,-243.5 1521,-243.5 1521,-224.5 1427,-224.5"/>
<text text-anchor="middle" x="1474" y="-231.5" font-family="Helvetica,sans-Serif" font-size="10.00">Display/Text.hpp</text>
</a>
</g>
</g>
<!-- Node3&#45;&gt;Node24 -->
<g id="edge43" class="edge"><title>Node3&#45;&gt;Node24</title>
<path fill="none" stroke="midnightblue" d="M952.101,-283.674C1062.9,-273.341 1305.91,-250.677 1416.79,-240.335"/>
<polygon fill="midnightblue" stroke="midnightblue" points="1417.15,-243.817 1426.78,-239.404 1416.5,-236.847 1417.15,-243.817"/>
</g>
<!-- Node27 -->
<g id="node27" class="node"><title>Node27</title>
<g id="a_node27"><a xlink:href="Music_8hpp.html" target="_top" xlink:title="Music.hpp">
<polygon fill="none" stroke="black" points="1576.5,-224.5 1576.5,-243.5 1641.5,-243.5 1641.5,-224.5 1576.5,-224.5"/>
<text text-anchor="middle" x="1609" y="-231.5" font-family="Helvetica,sans-Serif" font-size="10.00">Music.hpp</text>
</a>
</g>
</g>
<!-- Node3&#45;&gt;Node27 -->
<g id="edge52" class="edge"><title>Node3&#45;&gt;Node27</title>
<path fill="none" stroke="midnightblue" d="M952.42,-285.755C1063.89,-279.272 1317.33,-263.641 1530,-244 1541.8,-242.91 1554.57,-241.539 1566.33,-240.198"/>
<polygon fill="midnightblue" stroke="midnightblue" points="1566.83,-243.664 1576.36,-239.035 1566.03,-236.71 1566.83,-243.664"/>
</g>
<!-- Node9 -->
<g id="node9" class="node"><title>Node9</title>
<polygon fill="none" stroke="#bfbfbf" points="1424.5,-0.5 1424.5,-19.5 1487.5,-19.5 1487.5,-0.5 1424.5,-0.5"/>
<text text-anchor="middle" x="1456" y="-7.5" font-family="Helvetica,sans-Serif" font-size="10.00">typeindex</text>
</g>
<!-- Node8&#45;&gt;Node9 -->
<g id="edge8" class="edge"><title>Node8&#45;&gt;Node9</title>
<path fill="none" stroke="midnightblue" d="M1243.93,-56.4435C1290.48,-46.4692 1367.04,-30.0625 1414.32,-19.9306"/>
<polygon fill="midnightblue" stroke="midnightblue" points="1415.19,-23.3243 1424.24,-17.8067 1413.72,-16.4797 1415.19,-23.3243"/>
</g>
<!-- Node10&#45;&gt;Node4 -->
<g id="edge11" class="edge"><title>Node10&#45;&gt;Node4</title>
<path fill="none" stroke="midnightblue" d="M874.199,-224.372C878.608,-210.836 884.667,-184.456 872,-168 856.106,-147.351 785.82,-134.231 740.748,-127.781"/>
<polygon fill="midnightblue" stroke="midnightblue" points="741.097,-124.296 730.712,-126.395 740.139,-131.23 741.097,-124.296"/>
</g>
<!-- Node10&#45;&gt;Node7 -->
<g id="edge10" class="edge"><title>Node10&#45;&gt;Node7</title>
<path fill="none" stroke="midnightblue" d="M866.541,-224.083C862.846,-216.691 857.477,-205.953 852.906,-196.811"/>
<polygon fill="midnightblue" stroke="midnightblue" points="855.978,-195.13 848.376,-187.751 849.717,-198.261 855.978,-195.13"/>
</g>
<!-- Node10&#45;&gt;Node8 -->
<g id="edge12" class="edge"><title>Node10&#45;&gt;Node8</title>
<path fill="none" stroke="midnightblue" d="M884.708,-224.335C918.212,-203.37 1007.28,-148.914 1086,-112 1113.1,-99.2939 1144.85,-87.3439 1168.58,-78.9562"/>
<polygon fill="midnightblue" stroke="midnightblue" points="1169.94,-82.1892 1178.23,-75.5877 1167.63,-75.5806 1169.94,-82.1892"/>
</g>
<!-- Node10&#45;&gt;Node11 -->
<g id="edge13" class="edge"><title>Node10&#45;&gt;Node11</title>
<path fill="none" stroke="midnightblue" d="M831.862,-224.444C788.774,-215.023 719.441,-199.866 672.829,-189.675"/>
<polygon fill="midnightblue" stroke="midnightblue" points="673.472,-186.233 662.955,-187.516 671.976,-193.072 673.472,-186.233"/>
</g>
<!-- Node11&#45;&gt;Node4 -->
<g id="edge15" class="edge"><title>Node11&#45;&gt;Node4</title>
<path fill="none" stroke="midnightblue" d="M636.532,-168.324C648.586,-159.979 667.027,-147.212 681.269,-137.352"/>
<polygon fill="midnightblue" stroke="midnightblue" points="683.269,-140.224 689.499,-131.655 679.285,-134.469 683.269,-140.224"/>
</g>
<!-- Node11&#45;&gt;Node8 -->
<g id="edge16" class="edge"><title>Node11&#45;&gt;Node8</title>
<path fill="none" stroke="midnightblue" d="M626.475,-168.439C631.154,-153.985 642.778,-125.045 664,-112 704.284,-87.2384 1014.37,-73.6145 1145.62,-68.907"/>
<polygon fill="midnightblue" stroke="midnightblue" points="1146.01,-72.3955 1155.88,-68.5442 1145.76,-65.3999 1146.01,-72.3955"/>
</g>
<!-- Node12 -->
<g id="node12" class="node"><title>Node12</title>
<polygon fill="none" stroke="#bfbfbf" points="197,-56.5 197,-75.5 227,-75.5 227,-56.5 197,-56.5"/>
<text text-anchor="middle" x="212" y="-63.5" font-family="Helvetica,sans-Serif" font-size="10.00">list</text>
</g>
<!-- Node11&#45;&gt;Node12 -->
<g id="edge14" class="edge"><title>Node11&#45;&gt;Node12</title>
<path fill="none" stroke="midnightblue" d="M559.144,-168.461C490.824,-159.09 387.977,-143.809 350,-132 308.108,-118.973 262.647,-95.5879 235.778,-80.7048"/>
<polygon fill="midnightblue" stroke="midnightblue" points="237.194,-77.4859 226.761,-75.6412 233.766,-83.5894 237.194,-77.4859"/>
</g>
<!-- Node11&#45;&gt;Node13 -->
<g id="edge17" class="edge"><title>Node11&#45;&gt;Node13</title>
<path fill="none" stroke="midnightblue" d="M555.35,-168.571C470.397,-158.048 330.644,-140.411 279,-132 277.544,-131.763 276.064,-131.514 274.57,-131.257"/>
<polygon fill="midnightblue" stroke="midnightblue" points="275.089,-127.794 264.626,-129.462 273.845,-134.683 275.089,-127.794"/>
</g>
<!-- Node14&#45;&gt;Node5 -->
<g id="edge21" class="edge"><title>Node14&#45;&gt;Node5</title>
<path fill="none" stroke="midnightblue" d="M671.196,-224.463C687.141,-215.477 712.909,-200.877 735,-188 764.98,-170.525 799.329,-149.949 821.323,-136.702"/>
<polygon fill="midnightblue" stroke="midnightblue" points="823.187,-139.665 829.943,-131.504 819.572,-133.67 823.187,-139.665"/>
</g>
<!-- Node14&#45;&gt;Node7 -->
<g id="edge20" class="edge"><title>Node14&#45;&gt;Node7</title>
<path fill="none" stroke="midnightblue" d="M685.789,-224.444C721.316,-214.239 780.282,-197.302 815.315,-187.239"/>
<polygon fill="midnightblue" stroke="midnightblue" points="816.299,-190.598 824.944,-184.474 814.366,-183.87 816.299,-190.598"/>
</g>
<!-- Node14&#45;&gt;Node11 -->
<g id="edge26" class="edge"><title>Node14&#45;&gt;Node11</title>
<path fill="none" stroke="midnightblue" d="M650.716,-224.083C646.289,-216.613 639.837,-205.724 634.382,-196.52"/>
<polygon fill="midnightblue" stroke="midnightblue" points="637.295,-194.57 629.186,-187.751 631.273,-198.138 637.295,-194.57"/>
</g>
<!-- Node14&#45;&gt;Node15 -->
<g id="edge22" class="edge"><title>Node14&#45;&gt;Node15</title>
<path fill="none" stroke="midnightblue" d="M610.742,-224.455C563.222,-215.463 486.336,-200.857 420,-188 322.19,-169.042 208.169,-146.481 142.995,-133.541"/>
<polygon fill="midnightblue" stroke="midnightblue" points="143.454,-130.064 132.964,-131.549 142.091,-136.93 143.454,-130.064"/>
</g>
<!-- Node14&#45;&gt;Node17 -->
<g id="edge27" class="edge"><title>Node14&#45;&gt;Node17</title>
<path fill="none" stroke="midnightblue" d="M628.588,-224.444C599.231,-215.28 552.481,-200.688 519.904,-190.519"/>
<polygon fill="midnightblue" stroke="midnightblue" points="520.873,-187.155 510.284,-187.516 518.787,-193.837 520.873,-187.155"/>
</g>
<!-- Node15&#45;&gt;Node6 -->
<g id="edge23" class="edge"><title>Node15&#45;&gt;Node6</title>
<path fill="none" stroke="midnightblue" d="M142.131,-112.444C210.872,-101.161 329.76,-81.6474 386.734,-72.2959"/>
<polygon fill="midnightblue" stroke="midnightblue" points="387.325,-75.7459 396.626,-70.6723 386.191,-68.8383 387.325,-75.7459"/>
</g>
<!-- Node15&#45;&gt;Node12 -->
<g id="edge24" class="edge"><title>Node15&#45;&gt;Node12</title>
<path fill="none" stroke="midnightblue" d="M109.331,-112.444C130.518,-103.066 164.552,-88.0016 187.571,-77.8127"/>
<polygon fill="midnightblue" stroke="midnightblue" points="189.262,-80.8919 196.99,-73.6439 186.429,-74.4909 189.262,-80.8919"/>
</g>
<!-- Node15&#45;&gt;Node16 -->
<g id="edge25" class="edge"><title>Node15&#45;&gt;Node16</title>
<path fill="none" stroke="midnightblue" d="M83.2297,-112.083C77.4384,-104.455 68.9415,-93.2645 61.8625,-83.9408"/>
<polygon fill="midnightblue" stroke="midnightblue" points="64.479,-81.5991 55.6443,-75.7511 58.9039,-85.8321 64.479,-81.5991"/>
</g>
<!-- Node17&#45;&gt;Node4 -->
<g id="edge28" class="edge"><title>Node17&#45;&gt;Node4</title>
<path fill="none" stroke="midnightblue" d="M517.701,-168.444C557.395,-158.656 622.208,-142.675 663.446,-132.506"/>
<polygon fill="midnightblue" stroke="midnightblue" points="664.522,-135.846 673.393,-130.054 662.846,-129.05 664.522,-135.846"/>
</g>
<!-- Node17&#45;&gt;Node5 -->
<g id="edge29" class="edge"><title>Node17&#45;&gt;Node5</title>
<path fill="none" stroke="midnightblue" d="M537.045,-168.916C612.536,-157.623 747.33,-137.46 810.101,-128.071"/>
<polygon fill="midnightblue" stroke="midnightblue" points="810.874,-131.494 820.246,-126.553 809.838,-124.571 810.874,-131.494"/>
</g>
<!-- Node17&#45;&gt;Node13 -->
<g id="edge30" class="edge"><title>Node17&#45;&gt;Node13</title>
<path fill="none" stroke="midnightblue" d="M443.387,-168.444C397.209,-158.469 321.252,-142.062 274.345,-131.931"/>
<polygon fill="midnightblue" stroke="midnightblue" points="275.026,-128.497 264.512,-129.807 273.548,-135.339 275.026,-128.497"/>
</g>
<!-- Node17&#45;&gt;Node15 -->
<g id="edge31" class="edge"><title>Node17&#45;&gt;Node15</title>
<path fill="none" stroke="midnightblue" d="M428.768,-169.548C357.329,-159.732 231.819,-142.487 155.264,-131.968"/>
<polygon fill="midnightblue" stroke="midnightblue" points="155.641,-128.487 145.258,-130.593 154.688,-135.421 155.641,-128.487"/>
</g>
<!-- Node18&#45;&gt;Node6 -->
<g id="edge33" class="edge"><title>Node18&#45;&gt;Node6</title>
<path fill="none" stroke="midnightblue" d="M1356.77,-168.296C1328.5,-153.626 1267.99,-124.37 1213,-112 1064.13,-78.5143 580.41,-69.3058 451.056,-67.4151"/>
<polygon fill="midnightblue" stroke="midnightblue" points="451.051,-63.9147 441.002,-67.2726 450.951,-70.914 451.051,-63.9147"/>
</g>
<!-- Node18&#45;&gt;Node9 -->
<g id="edge34" class="edge"><title>Node18&#45;&gt;Node9</title>
<path fill="none" stroke="midnightblue" d="M1377.46,-168.075C1390.64,-141.719 1429.56,-63.878 1447.17,-28.6608"/>
<polygon fill="midnightblue" stroke="midnightblue" points="1450.37,-30.0777 1451.72,-19.5681 1444.11,-26.9471 1450.37,-30.0777"/>
</g>
<!-- Node19 -->
<g id="node19" class="node"><title>Node19</title>
<g id="a_node19"><a xlink:href="Rect_8hpp.html" target="_top" xlink:title="Rect.hpp">
<polygon fill="none" stroke="black" points="1305,-112.5 1305,-131.5 1363,-131.5 1363,-112.5 1305,-112.5"/>
<text text-anchor="middle" x="1334" y="-119.5" font-family="Helvetica,sans-Serif" font-size="10.00">Rect.hpp</text>
</a>
</g>
</g>
<!-- Node18&#45;&gt;Node19 -->
<g id="edge35" class="edge"><title>Node18&#45;&gt;Node19</title>
<path fill="none" stroke="midnightblue" d="M1366.56,-168.083C1361.05,-160.455 1352.97,-149.264 1346.24,-139.941"/>
<polygon fill="midnightblue" stroke="midnightblue" points="1349.01,-137.809 1340.32,-131.751 1343.34,-141.907 1349.01,-137.809"/>
</g>
<!-- Node20 -->
<g id="node20" class="node"><title>Node20</title>
<g id="a_node20"><a xlink:href="IDisplay_8hpp.html" target="_top" xlink:title="IDisplay.hpp">
<polygon fill="none" stroke="black" points="1419.5,-112.5 1419.5,-131.5 1492.5,-131.5 1492.5,-112.5 1419.5,-112.5"/>
<text text-anchor="middle" x="1456" y="-119.5" font-family="Helvetica,sans-Serif" font-size="10.00">IDisplay.hpp</text>
</a>
</g>
</g>
<!-- Node18&#45;&gt;Node20 -->
<g id="edge36" class="edge"><title>Node18&#45;&gt;Node20</title>
<path fill="none" stroke="midnightblue" d="M1386.34,-168.324C1399.16,-159.979 1418.78,-147.212 1433.94,-137.352"/>
<polygon fill="midnightblue" stroke="midnightblue" points="1436.22,-140.042 1442.7,-131.655 1432.41,-134.174 1436.22,-140.042"/>
</g>
<!-- Node20&#45;&gt;Node8 -->
<g id="edge38" class="edge"><title>Node20&#45;&gt;Node8</title>
<path fill="none" stroke="midnightblue" d="M1419.36,-113.148C1375.77,-103.808 1302.8,-88.1707 1254.04,-77.7223"/>
<polygon fill="midnightblue" stroke="midnightblue" points="1254.53,-74.2486 1244.02,-75.5756 1253.06,-81.0932 1254.53,-74.2486"/>
</g>
<!-- Node20&#45;&gt;Node9 -->
<g id="edge37" class="edge"><title>Node20&#45;&gt;Node9</title>
<path fill="none" stroke="midnightblue" d="M1456,-112.368C1456,-94.617 1456,-53.6664 1456,-29.5974"/>
<polygon fill="midnightblue" stroke="midnightblue" points="1459.5,-29.5914 1456,-19.5914 1452.5,-29.5915 1459.5,-29.5914"/>
</g>
<!-- Node22 -->
<g id="node22" class="node"><title>Node22</title>
<polygon fill="none" stroke="#bfbfbf" points="1109,-168.5 1109,-187.5 1151,-187.5 1151,-168.5 1109,-168.5"/>
<text text-anchor="middle" x="1130" y="-175.5" font-family="Helvetica,sans-Serif" font-size="10.00">utility</text>
</g>
<!-- Node21&#45;&gt;Node22 -->
<g id="edge40" class="edge"><title>Node21&#45;&gt;Node22</title>
<path fill="none" stroke="midnightblue" d="M1160.06,-224.083C1155.02,-216.534 1147.66,-205.495 1141.49,-196.23"/>
<polygon fill="midnightblue" stroke="midnightblue" points="1144.29,-194.13 1135.83,-187.751 1138.47,-198.013 1144.29,-194.13"/>
</g>
<!-- Node23 -->
<g id="node23" class="node"><title>Node23</title>
<g id="a_node23"><a xlink:href="IPhysics_8hpp.html" target="_top" xlink:title="IPhysics.hpp">
<polygon fill="none" stroke="black" points="1095.5,-112.5 1095.5,-131.5 1170.5,-131.5 1170.5,-112.5 1095.5,-112.5"/>
<text text-anchor="middle" x="1133" y="-119.5" font-family="Helvetica,sans-Serif" font-size="10.00">IPhysics.hpp</text>
</a>
</g>
</g>
<!-- Node21&#45;&gt;Node23 -->
<g id="edge41" class="edge"><title>Node21&#45;&gt;Node23</title>
<path fill="none" stroke="midnightblue" d="M1166.4,-224.341C1166.73,-211.646 1166.34,-187.387 1160,-168 1156.78,-158.167 1151.11,-148.202 1145.79,-140.158"/>
<polygon fill="midnightblue" stroke="midnightblue" points="1148.48,-137.9 1139.87,-131.72 1142.75,-141.918 1148.48,-137.9"/>
</g>
<!-- Node23&#45;&gt;Node8 -->
<g id="edge42" class="edge"><title>Node23&#45;&gt;Node8</title>
<path fill="none" stroke="midnightblue" d="M1144.41,-112.324C1155.11,-104.185 1171.34,-91.8395 1184.16,-82.0874"/>
<polygon fill="midnightblue" stroke="midnightblue" points="1186.54,-84.6734 1192.39,-75.8339 1182.31,-79.1018 1186.54,-84.6734"/>
</g>
<!-- Node24&#45;&gt;Node6 -->
<g id="edge45" class="edge"><title>Node24&#45;&gt;Node6</title>
<path fill="none" stroke="midnightblue" d="M1432.8,-224.484C1399.5,-216.911 1351.77,-204.483 1312,-188 1265.3,-168.647 1256.79,-157.261 1213,-132 1197.81,-123.239 1195.77,-117.104 1179,-112 1039.85,-69.6518 578.242,-66.8584 451.461,-66.9081"/>
<polygon fill="midnightblue" stroke="midnightblue" points="451.242,-63.4082 441.245,-66.9188 451.249,-70.4082 451.242,-63.4082"/>
</g>
<!-- Node24&#45;&gt;Node9 -->
<g id="edge44" class="edge"><title>Node24&#45;&gt;Node9</title>
<path fill="none" stroke="midnightblue" d="M1521.32,-226.269C1563.98,-219.116 1622.09,-206.301 1636,-188 1641.38,-180.923 1639.66,-176.102 1636,-168 1604.42,-98.049 1524.42,-47.1804 1482.52,-24.3652"/>
<polygon fill="midnightblue" stroke="midnightblue" points="1483.93,-21.1537 1473.46,-19.5486 1480.65,-27.3341 1483.93,-21.1537"/>
</g>
<!-- Node25 -->
<g id="node25" class="node"><title>Node25</title>
<g id="a_node25"><a xlink:href="Color_8hpp.html" target="_top" xlink:title="Color.hpp">
<polygon fill="none" stroke="black" points="1443,-168.5 1443,-187.5 1505,-187.5 1505,-168.5 1443,-168.5"/>
<text text-anchor="middle" x="1474" y="-175.5" font-family="Helvetica,sans-Serif" font-size="10.00">Color.hpp</text>
</a>
</g>
</g>
<!-- Node24&#45;&gt;Node25 -->
<g id="edge46" class="edge"><title>Node24&#45;&gt;Node25</title>
<path fill="none" stroke="midnightblue" d="M1474,-224.083C1474,-217.006 1474,-206.861 1474,-197.986"/>
<polygon fill="midnightblue" stroke="midnightblue" points="1477.5,-197.751 1474,-187.751 1470.5,-197.751 1477.5,-197.751"/>
</g>
<!-- Node26 -->
<g id="node26" class="node"><title>Node26</title>
<g id="a_node26"><a xlink:href="IUserInterface_8hpp.html" target="_top" xlink:title="IUserInterface.hpp">
<polygon fill="none" stroke="black" points="1523,-168.5 1523,-187.5 1627,-187.5 1627,-168.5 1523,-168.5"/>
<text text-anchor="middle" x="1575" y="-175.5" font-family="Helvetica,sans-Serif" font-size="10.00">IUserInterface.hpp</text>
</a>
</g>
</g>
<!-- Node24&#45;&gt;Node26 -->
<g id="edge47" class="edge"><title>Node24&#45;&gt;Node26</title>
<path fill="none" stroke="midnightblue" d="M1490.23,-224.324C1506.35,-215.703 1531.3,-202.364 1549.96,-192.386"/>
<polygon fill="midnightblue" stroke="midnightblue" points="1551.64,-195.456 1558.81,-187.655 1548.34,-189.283 1551.64,-195.456"/>
</g>
<!-- Node26&#45;&gt;Node9 -->
<g id="edge48" class="edge"><title>Node26&#45;&gt;Node9</title>
<path fill="none" stroke="midnightblue" d="M1568.6,-168.075C1549.55,-141.493 1492.95,-62.5379 1468.02,-27.7633"/>
<polygon fill="midnightblue" stroke="midnightblue" points="1470.81,-25.6563 1462.14,-19.5681 1465.12,-29.7347 1470.81,-25.6563"/>
</g>
<!-- Node26&#45;&gt;Node20 -->
<g id="edge49" class="edge"><title>Node26&#45;&gt;Node20</title>
<path fill="none" stroke="midnightblue" d="M1556.14,-168.444C1536.73,-159.636 1506.27,-145.812 1484.04,-135.722"/>
<polygon fill="midnightblue" stroke="midnightblue" points="1485.32,-132.462 1474.77,-131.516 1482.43,-138.836 1485.32,-132.462"/>
</g>
<!-- Node28 -->
<g id="node28" class="node"><title>Node28</title>
<polygon fill="none" stroke="#bfbfbf" points="1683.5,-168.5 1683.5,-187.5 1776.5,-187.5 1776.5,-168.5 1683.5,-168.5"/>
<text text-anchor="middle" x="1730" y="-175.5" font-family="Helvetica,sans-Serif" font-size="10.00">SFML/Audio.hpp</text>
</g>
<!-- Node27&#45;&gt;Node28 -->
<g id="edge53" class="edge"><title>Node27&#45;&gt;Node28</title>
<path fill="none" stroke="midnightblue" d="M1628.17,-224.444C1647.91,-215.636 1678.89,-201.812 1701.49,-191.722"/>
<polygon fill="midnightblue" stroke="midnightblue" points="1703.21,-194.788 1710.92,-187.516 1700.36,-188.396 1703.21,-194.788"/>
</g>
<!-- Node29 -->
<g id="node29" class="node"><title>Node29</title>
<g id="a_node29"><a xlink:href="IAudio_8hpp.html" target="_top" xlink:title="IAudio.hpp">
<polygon fill="none" stroke="black" points="1794.5,-168.5 1794.5,-187.5 1861.5,-187.5 1861.5,-168.5 1794.5,-168.5"/>
<text text-anchor="middle" x="1828" y="-175.5" font-family="Helvetica,sans-Serif" font-size="10.00">IAudio.hpp</text>
</a>
</g>
</g>
<!-- Node27&#45;&gt;Node29 -->
<g id="edge54" class="edge"><title>Node27&#45;&gt;Node29</title>
<path fill="none" stroke="midnightblue" d="M1641.79,-224.916C1679.71,-215.565 1742.29,-200.133 1784.32,-189.771"/>
<polygon fill="midnightblue" stroke="midnightblue" points="1785.4,-193.11 1794.27,-187.317 1783.72,-186.313 1785.4,-193.11"/>
</g>
<!-- Node31 -->
<g id="node31" class="node"><title>Node31</title>
<g id="a_node31"><a xlink:href="IEntityFactory_8hpp.html" target="_top" xlink:title="IEntityFactory.hpp">
<polygon fill="none" stroke="black" points="187,-280.5 187,-299.5 287,-299.5 287,-280.5 187,-280.5"/>
<text text-anchor="middle" x="237" y="-287.5" font-family="Helvetica,sans-Serif" font-size="10.00">IEntityFactory.hpp</text>
</a>
</g>
</g>
<!-- Node30&#45;&gt;Node31 -->
<g id="edge57" class="edge"><title>Node30&#45;&gt;Node31</title>
<path fill="none" stroke="midnightblue" d="M396.894,-336.444C364.374,-327.201 312.421,-312.436 276.609,-302.257"/>
<polygon fill="midnightblue" stroke="midnightblue" points="277.541,-298.884 266.965,-299.516 275.627,-305.617 277.541,-298.884"/>
</g>
<!-- Node33 -->
<g id="node33" class="node"><title>Node33</title>
<g id="a_node33"><a xlink:href="ISystem_8hpp.html" target="_top" xlink:title="ISystem.hpp">
<polygon fill="none" stroke="black" points="388.5,-280.5 388.5,-299.5 465.5,-299.5 465.5,-280.5 388.5,-280.5"/>
<text text-anchor="middle" x="427" y="-287.5" font-family="Helvetica,sans-Serif" font-size="10.00">ISystem.hpp</text>
</a>
</g>
</g>
<!-- Node30&#45;&gt;Node33 -->
<g id="edge68" class="edge"><title>Node30&#45;&gt;Node33</title>
<path fill="none" stroke="midnightblue" d="M427,-336.083C427,-329.006 427,-318.861 427,-309.986"/>
<polygon fill="midnightblue" stroke="midnightblue" points="430.5,-309.751 427,-299.751 423.5,-309.751 430.5,-309.751"/>
</g>
<!-- Node31&#45;&gt;Node4 -->
<g id="edge59" class="edge"><title>Node31&#45;&gt;Node4</title>
<path fill="none" stroke="midnightblue" d="M283.736,-280.44C398.834,-259.146 687.636,-204.328 701,-188 711.481,-175.194 710.284,-155.735 707.348,-141.444"/>
<polygon fill="midnightblue" stroke="midnightblue" points="710.74,-140.578 704.929,-131.719 703.947,-142.268 710.74,-140.578"/>
</g>
<!-- Node31&#45;&gt;Node6 -->
<g id="edge58" class="edge"><title>Node31&#45;&gt;Node6</title>
<path fill="none" stroke="midnightblue" d="M229.99,-280.114C208.754,-252.066 149.139,-164.192 192,-112 216.253,-82.4666 329.817,-71.9767 386.56,-68.5362"/>
<polygon fill="midnightblue" stroke="midnightblue" points="386.999,-72.017 396.784,-67.9556 386.602,-65.0283 386.999,-72.017"/>
</g>
<!-- Node31&#45;&gt;Node13 -->
<g id="edge67" class="edge"><title>Node31&#45;&gt;Node13</title>
<path fill="none" stroke="midnightblue" d="M225.734,-280.427C216.034,-272.275 202.721,-259.046 197,-244 184.996,-212.427 185.819,-199.874 197,-168 200.785,-157.209 208.367,-147.084 215.6,-139.181"/>
<polygon fill="midnightblue" stroke="midnightblue" points="218.326,-141.4 222.838,-131.815 213.333,-136.494 218.326,-141.4"/>
</g>
<!-- Node31&#45;&gt;Node15 -->
<g id="edge60" class="edge"><title>Node31&#45;&gt;Node15</title>
<path fill="none" stroke="midnightblue" d="M226.593,-280.493C216.154,-271.766 199.83,-257.584 187,-244 153.887,-208.941 119.624,-163.707 102.032,-139.699"/>
<polygon fill="midnightblue" stroke="midnightblue" points="104.855,-137.631 96.1423,-131.603 99.1943,-141.748 104.855,-137.631"/>
</g>
<!-- Node32 -->
<g id="node32" class="node"><title>Node32</title>
<g id="a_node32"><a xlink:href="IEntityConstructor_8hpp.html" target="_top" xlink:title="IEntityConstructor.hpp">
<polygon fill="none" stroke="black" points="239,-224.5 239,-243.5 361,-243.5 361,-224.5 239,-224.5"/>
<text text-anchor="middle" x="300" y="-231.5" font-family="Helvetica,sans-Serif" font-size="10.00">IEntityConstructor.hpp</text>
</a>
</g>
</g>
<!-- Node31&#45;&gt;Node32 -->
<g id="edge61" class="edge"><title>Node31&#45;&gt;Node32</title>
<path fill="none" stroke="midnightblue" d="M247.122,-280.324C256.526,-272.263 270.744,-260.077 282.069,-250.369"/>
<polygon fill="midnightblue" stroke="midnightblue" points="284.379,-252.999 289.694,-243.834 279.823,-247.684 284.379,-252.999"/>
</g>
<!-- Node32&#45;&gt;Node4 -->
<g id="edge62" class="edge"><title>Node32&#45;&gt;Node4</title>
<path fill="none" stroke="midnightblue" d="M312.31,-224.484C333.354,-210.362 378.046,-182.245 420,-168 503.796,-139.548 607.835,-128.895 663.15,-125.053"/>
<polygon fill="midnightblue" stroke="midnightblue" points="663.47,-128.539 673.219,-124.392 663.012,-121.554 663.47,-128.539"/>
</g>
<!-- Node32&#45;&gt;Node6 -->
<g id="edge63" class="edge"><title>Node32&#45;&gt;Node6</title>
<path fill="none" stroke="midnightblue" d="M301.687,-224.469C306.224,-203.336 320.4,-147.692 350,-112 360.978,-98.7624 376.867,-88.032 390.632,-80.3741"/>
<polygon fill="midnightblue" stroke="midnightblue" points="392.524,-83.333 399.735,-75.5704 389.257,-77.1421 392.524,-83.333"/>
</g>
<!-- Node32&#45;&gt;Node11 -->
<g id="edge66" class="edge"><title>Node32&#45;&gt;Node11</title>
<path fill="none" stroke="midnightblue" d="M351.339,-224.444C408.808,-214.865 501.867,-199.356 563,-189.167"/>
<polygon fill="midnightblue" stroke="midnightblue" points="563.613,-192.613 572.901,-187.516 562.462,-185.708 563.613,-192.613"/>
</g>
<!-- Node32&#45;&gt;Node13 -->
<g id="edge64" class="edge"><title>Node32&#45;&gt;Node13</title>
<path fill="none" stroke="midnightblue" d="M294.743,-224.368C283.735,-206.296 258.08,-164.176 243.542,-140.307"/>
<polygon fill="midnightblue" stroke="midnightblue" points="246.424,-138.311 238.233,-131.591 240.446,-141.953 246.424,-138.311"/>
</g>
<!-- Node32&#45;&gt;Node17 -->
<g id="edge65" class="edge"><title>Node32&#45;&gt;Node17</title>
<path fill="none" stroke="midnightblue" d="M328.997,-224.444C360.185,-215.241 409.93,-200.562 444.408,-190.388"/>
<polygon fill="midnightblue" stroke="midnightblue" points="445.538,-193.704 454.139,-187.516 443.557,-186.99 445.538,-193.704"/>
</g>
<!-- Node34 -->
<g id="node34" class="node"><title>Node34</title>
<g id="a_node34"><a xlink:href="SystemResponse_8hpp.html" target="_top" xlink:title="SystemResponse.hpp">
<polygon fill="none" stroke="black" points="359,-112.5 359,-131.5 479,-131.5 479,-112.5 359,-112.5"/>
<text text-anchor="middle" x="419" y="-119.5" font-family="Helvetica,sans-Serif" font-size="10.00">SystemResponse.hpp</text>
</a>
</g>
</g>
<!-- Node33&#45;&gt;Node34 -->
<g id="edge69" class="edge"><title>Node33&#45;&gt;Node34</title>
<path fill="none" stroke="midnightblue" d="M426.244,-280.362C424.752,-262.921 421.449,-222.244 420,-188 419.343,-172.476 419.104,-154.851 419.022,-141.874"/>
<polygon fill="midnightblue" stroke="midnightblue" points="422.522,-141.823 418.985,-131.836 415.522,-141.849 422.522,-141.823"/>
</g>
<!-- Node34&#45;&gt;Node6 -->
<g id="edge70" class="edge"><title>Node34&#45;&gt;Node6</title>
<path fill="none" stroke="midnightblue" d="M419,-112.083C419,-105.006 419,-94.8611 419,-85.9865"/>
<polygon fill="midnightblue" stroke="midnightblue" points="422.5,-85.751 419,-75.7511 415.5,-85.7511 422.5,-85.751"/>
</g>
<!-- Node35&#45;&gt;Node4 -->
<g id="edge73" class="edge"><title>Node35&#45;&gt;Node4</title>
<path fill="none" stroke="midnightblue" d="M1412.96,-286.263C1321.58,-281.395 1154.15,-269.272 1100,-244 1055.27,-223.123 1063.51,-189.352 1019,-168 994.298,-156.15 819.639,-135.864 740.64,-127.162"/>
<polygon fill="midnightblue" stroke="midnightblue" points="740.922,-123.672 730.6,-126.062 740.16,-130.631 740.922,-123.672"/>
</g>
<!-- Node35&#45;&gt;Node5 -->
<g id="edge74" class="edge"><title>Node35&#45;&gt;Node5</title>
<path fill="none" stroke="midnightblue" d="M1456.07,-280.425C1408.82,-258.192 1276.47,-198.315 1160,-168 1059.28,-141.785 936.267,-129.814 877.879,-125.297"/>
<polygon fill="midnightblue" stroke="midnightblue" points="877.982,-121.795 867.749,-124.539 877.459,-128.776 877.982,-121.795"/>
</g>
<!-- Node35&#45;&gt;Node24 -->
<g id="edge85" class="edge"><title>Node35&#45;&gt;Node24</title>
<path fill="none" stroke="midnightblue" d="M1474,-280.083C1474,-273.006 1474,-262.861 1474,-253.986"/>
<polygon fill="midnightblue" stroke="midnightblue" points="1477.5,-253.751 1474,-243.751 1470.5,-253.751 1477.5,-253.751"/>
</g>
<!-- Node35&#45;&gt;Node27 -->
<g id="edge75" class="edge"><title>Node35&#45;&gt;Node27</title>
<path fill="none" stroke="midnightblue" d="M1495.39,-280.444C1517.71,-271.517 1552.9,-257.439 1578.21,-247.317"/>
<polygon fill="midnightblue" stroke="midnightblue" points="1579.72,-250.48 1587.71,-243.516 1577.12,-243.981 1579.72,-250.48"/>
</g>
<!-- Node36 -->
<g id="node36" class="node"><title>Node36</title>
<g id="a_node36"><a xlink:href="ResourceManager_2Sound_8hpp.html" target="_top" xlink:title="Sound.hpp">
<polygon fill="none" stroke="black" points="1696,-224.5 1696,-243.5 1764,-243.5 1764,-224.5 1696,-224.5"/>
<text text-anchor="middle" x="1730" y="-231.5" font-family="Helvetica,sans-Serif" font-size="10.00">Sound.hpp</text>
</a>
</g>
</g>
<!-- Node35&#45;&gt;Node36 -->
<g id="edge76" class="edge"><title>Node35&#45;&gt;Node36</title>
<path fill="none" stroke="midnightblue" d="M1514.56,-280.444C1561.29,-270.587 1637.79,-254.45 1685.95,-244.293"/>
<polygon fill="midnightblue" stroke="midnightblue" points="1686.71,-247.709 1695.77,-242.22 1685.26,-240.86 1686.71,-247.709"/>
</g>
<!-- Node37 -->
<g id="node37" class="node"><title>Node37</title>
<g id="a_node37"><a xlink:href="Texture_8hpp.html" target="_top" xlink:title="Texture.hpp">
<polygon fill="none" stroke="black" points="1977,-224.5 1977,-243.5 2049,-243.5 2049,-224.5 1977,-224.5"/>
<text text-anchor="middle" x="2013" y="-231.5" font-family="Helvetica,sans-Serif" font-size="10.00">Texture.hpp</text>
</a>
</g>
</g>
<!-- Node35&#45;&gt;Node37 -->
<g id="edge79" class="edge"><title>Node35&#45;&gt;Node37</title>
<path fill="none" stroke="midnightblue" d="M1535.07,-284.046C1625.43,-276.525 1800.01,-261.263 1948,-244 1954.02,-243.298 1960.34,-242.5 1966.58,-241.675"/>
<polygon fill="midnightblue" stroke="midnightblue" points="1967.49,-245.083 1976.93,-240.274 1966.56,-238.146 1967.49,-245.083"/>
</g>
<!-- Node40 -->
<g id="node40" class="node"><title>Node40</title>
<g id="a_node40"><a xlink:href="Font_8hpp.html" target="_top" xlink:title="Font.hpp">
<polygon fill="none" stroke="black" points="1880.5,-224.5 1880.5,-243.5 1939.5,-243.5 1939.5,-224.5 1880.5,-224.5"/>
<text text-anchor="middle" x="1910" y="-231.5" font-family="Helvetica,sans-Serif" font-size="10.00">Font.hpp</text>
</a>
</g>
</g>
<!-- Node35&#45;&gt;Node40 -->
<g id="edge82" class="edge"><title>Node35&#45;&gt;Node40</title>
<path fill="none" stroke="midnightblue" d="M1535.08,-281.435C1625.85,-270.193 1793.81,-249.39 1870.26,-239.922"/>
<polygon fill="midnightblue" stroke="midnightblue" points="1870.93,-243.366 1880.42,-238.664 1870.06,-236.419 1870.93,-243.366"/>
</g>
<!-- Node36&#45;&gt;Node28 -->
<g id="edge77" class="edge"><title>Node36&#45;&gt;Node28</title>
<path fill="none" stroke="midnightblue" d="M1730,-224.083C1730,-217.006 1730,-206.861 1730,-197.986"/>
<polygon fill="midnightblue" stroke="midnightblue" points="1733.5,-197.751 1730,-187.751 1726.5,-197.751 1733.5,-197.751"/>
</g>
<!-- Node36&#45;&gt;Node29 -->
<g id="edge78" class="edge"><title>Node36&#45;&gt;Node29</title>
<path fill="none" stroke="midnightblue" d="M1745.75,-224.324C1761.32,-215.743 1785.38,-202.486 1803.46,-192.522"/>
<polygon fill="midnightblue" stroke="midnightblue" points="1805.22,-195.546 1812.29,-187.655 1801.85,-189.415 1805.22,-195.546"/>
</g>
<!-- Node38 -->
<g id="node38" class="node"><title>Node38</title>
<polygon fill="none" stroke="#bfbfbf" points="1959,-168.5 1959,-187.5 2067,-187.5 2067,-168.5 1959,-168.5"/>
<text text-anchor="middle" x="2013" y="-175.5" font-family="Helvetica,sans-Serif" font-size="10.00">SFML/Graphics.hpp</text>
</g>
<!-- Node37&#45;&gt;Node38 -->
<g id="edge80" class="edge"><title>Node37&#45;&gt;Node38</title>
<path fill="none" stroke="midnightblue" d="M2013,-224.083C2013,-217.006 2013,-206.861 2013,-197.986"/>
<polygon fill="midnightblue" stroke="midnightblue" points="2016.5,-197.751 2013,-187.751 2009.5,-197.751 2016.5,-197.751"/>
</g>
<!-- Node39 -->
<g id="node39" class="node"><title>Node39</title>
<g id="a_node39"><a xlink:href="ITexture_8hpp.html" target="_top" xlink:title="ITexture.hpp">
<polygon fill="none" stroke="black" points="2085,-168.5 2085,-187.5 2159,-187.5 2159,-168.5 2085,-168.5"/>
<text text-anchor="middle" x="2122" y="-175.5" font-family="Helvetica,sans-Serif" font-size="10.00">ITexture.hpp</text>
</a>
</g>
</g>
<!-- Node37&#45;&gt;Node39 -->
<g id="edge81" class="edge"><title>Node37&#45;&gt;Node39</title>
<path fill="none" stroke="midnightblue" d="M2030.51,-224.324C2048.07,-215.625 2075.33,-202.12 2095.53,-192.113"/>
<polygon fill="midnightblue" stroke="midnightblue" points="2097.12,-195.23 2104.53,-187.655 2094.02,-188.958 2097.12,-195.23"/>
</g>
<!-- Node40&#45;&gt;Node38 -->
<g id="edge83" class="edge"><title>Node40&#45;&gt;Node38</title>
<path fill="none" stroke="midnightblue" d="M1926.55,-224.324C1942.99,-215.703 1968.43,-202.364 1987.47,-192.386"/>
<polygon fill="midnightblue" stroke="midnightblue" points="1989.26,-195.398 1996.49,-187.655 1986.01,-189.198 1989.26,-195.398"/>
</g>
<!-- Node41 -->
<g id="node41" class="node"><title>Node41</title>
<g id="a_node41"><a xlink:href="IFont_8hpp.html" target="_top" xlink:title="IFont.hpp">
<polygon fill="none" stroke="black" points="1879.5,-168.5 1879.5,-187.5 1940.5,-187.5 1940.5,-168.5 1879.5,-168.5"/>
<text text-anchor="middle" x="1910" y="-175.5" font-family="Helvetica,sans-Serif" font-size="10.00">IFont.hpp</text>
</a>
</g>
</g>
<!-- Node40&#45;&gt;Node41 -->
<g id="edge84" class="edge"><title>Node40&#45;&gt;Node41</title>
<path fill="none" stroke="midnightblue" d="M1910,-224.083C1910,-217.006 1910,-206.861 1910,-197.986"/>
<polygon fill="midnightblue" stroke="midnightblue" points="1913.5,-197.751 1910,-187.751 1906.5,-197.751 1913.5,-197.751"/>
</g>
<!-- Node42&#45;&gt;Node35 -->
<g id="edge88" class="edge"><title>Node42&#45;&gt;Node35</title>
<path fill="none" stroke="midnightblue" d="M1234.4,-392.368C1280.16,-373.01 1391.12,-326.065 1444.44,-303.507"/>
<polygon fill="midnightblue" stroke="midnightblue" points="1445.85,-306.711 1453.69,-299.591 1443.12,-300.264 1445.85,-306.711"/>
</g>
</g>
</svg>
