<?xml version="1.0" encoding="UTF-8" standalone="no"?>
<!DOCTYPE svg PUBLIC "-//W3C//DTD SVG 1.1//EN"
 "http://www.w3.org/Graphics/SVG/1.1/DTD/svg11.dtd">
<!-- Generated by graphviz version 2.38.0 (20140413.2041)
 -->
<!-- Title: src/Entities/EntityConstructor/MenuEntity/MenuEntity.cpp Pages: 1 -->
<!--zoomable 319 -->
<svg id="main" version="1.1" xmlns="http://www.w3.org/2000/svg" xmlns:xlink="http://www.w3.org/1999/xlink" xml:space="preserve" onload="init(evt)">
<style type="text/css"><![CDATA[
.edge:hover path { stroke: red; }
.edge:hover polygon { stroke: red; fill: red; }
]]></style>
<script type="text/javascript"><![CDATA[
var edges = document.getElementsByTagName('g');
if (edges && edges.length) {
  for (var i=0;i<edges.length;i++) {
    if (edges[i].id.substr(0,4)=='edge') {
      edges[i].setAttribute('class','edge');
    }
  }
}
]]></script>
        <defs>
                <circle id="rim" cx="0" cy="0" r="7"/>
                <circle id="rim2" cx="0" cy="0" r="3.5"/>
                <g id="zoomPlus">
                        <use xlink:href="#rim" fill="#404040">
                                <set attributeName="fill" to="#808080" begin="zoomplus.mouseover" end="zoomplus.mouseout"/>
                        </use>
                        <path d="M-4,0h8M0,-4v8" fill="none" stroke="white" stroke-width="1.5" pointer-events="none"/>
                </g>
                <g id="zoomMin">
                        <use xlink:href="#rim" fill="#404040">
                                <set attributeName="fill" to="#808080" begin="zoomminus.mouseover" end="zoomminus.mouseout"/>
                        </use>
                        <path d="M-4,0h8" fill="none" stroke="white" stroke-width="1.5" pointer-events="none"/>
                </g>
                <g id="dirArrow">
                        <path fill="none" stroke="white" stroke-width="1.5" d="M0,-3.0v7 M-2.5,-0.5L0,-3.0L2.5,-0.5"/>
                </g>
               <g id="resetDef">
                       <use xlink:href="#rim2" fill="#404040">
                               <set attributeName="fill" to="#808080" begin="reset.mouseover" end="reset.mouseout"/>
                       </use>
               </g>
        </defs>

<script type="text/javascript">
var viewWidth = 955;
var viewHeight = 319;
var sectionId = 'dynsection-0';
</script>
<script xlink:href="svgpan.js"/>
<svg id="graph" class="graph">
<g id="viewport">
<title>src/Entities/EntityConstructor/MenuEntity/MenuEntity.cpp</title>
<!-- Node1 -->
<g id="node1" class="node"><title>Node1</title>
<polygon fill="#bfbfbf" stroke="black" points="573.5,-280.5 573.5,-310.5 728.5,-310.5 728.5,-280.5 573.5,-280.5"/>
<text text-anchor="start" x="581.5" y="-298.5" font-family="Helvetica,sans-Serif" font-size="10.00">src/Entities/EntityConstructor</text>
<text text-anchor="middle" x="651" y="-287.5" font-family="Helvetica,sans-Serif" font-size="10.00">/MenuEntity/MenuEntity.cpp</text>
</g>
<!-- Node2 -->
<g id="node2" class="node"><title>Node2</title>
<g id="a_node2"><a xlink:href="Button_8hpp.html" target="_top" xlink:title="Button.hpp">
<polygon fill="none" stroke="black" points="752,-224.5 752,-243.5 822,-243.5 822,-224.5 752,-224.5"/>
<text text-anchor="middle" x="787" y="-231.5" font-family="Helvetica,sans-Serif" font-size="10.00">Button.hpp</text>
</a>
</g>
</g>
<!-- Node1&#45;&gt;Node2 -->
<g id="edge1" class="edge"><title>Node1&#45;&gt;Node2</title>
<path fill="none" stroke="midnightblue" d="M683.23,-280.399C705.845,-270.505 735.838,-257.383 757.761,-247.792"/>
<polygon fill="midnightblue" stroke="midnightblue" points="759.452,-250.873 767.211,-243.658 756.646,-244.459 759.452,-250.873"/>
</g>
<!-- Node9 -->
<g id="node9" class="node"><title>Node9</title>
<g id="a_node9"><a xlink:href="MenuEntity_8hpp.html" target="_top" xlink:title="MenuEntity.hpp">
<polygon fill="none" stroke="black" points="395.5,-224.5 395.5,-243.5 484.5,-243.5 484.5,-224.5 395.5,-224.5"/>
<text text-anchor="middle" x="440" y="-231.5" font-family="Helvetica,sans-Serif" font-size="10.00">MenuEntity.hpp</text>
</a>
</g>
</g>
<!-- Node1&#45;&gt;Node9 -->
<g id="edge11" class="edge"><title>Node1&#45;&gt;Node9</title>
<path fill="none" stroke="midnightblue" d="M601.263,-280.475C564.225,-270.03 514.32,-255.958 479.884,-246.247"/>
<polygon fill="midnightblue" stroke="midnightblue" points="480.74,-242.852 470.165,-243.506 478.84,-249.589 480.74,-242.852"/>
</g>
<!-- Node19 -->
<g id="node19" class="node"><title>Node19</title>
<g id="a_node19"><a xlink:href="Position_8hpp.html" target="_top" xlink:title="Position.hpp">
<polygon fill="none" stroke="black" points="655.5,-224.5 655.5,-243.5 730.5,-243.5 730.5,-224.5 655.5,-224.5"/>
<text text-anchor="middle" x="693" y="-231.5" font-family="Helvetica,sans-Serif" font-size="10.00">Position.hpp</text>
</a>
</g>
</g>
<!-- Node1&#45;&gt;Node19 -->
<g id="edge29" class="edge"><title>Node1&#45;&gt;Node19</title>
<path fill="none" stroke="midnightblue" d="M660.953,-280.399C666.994,-271.842 674.738,-260.871 681.101,-251.857"/>
<polygon fill="midnightblue" stroke="midnightblue" points="683.981,-253.846 686.889,-243.658 678.262,-249.809 683.981,-253.846"/>
</g>
<!-- Node22 -->
<g id="node22" class="node"><title>Node22</title>
<g id="a_node22"><a xlink:href="Text_8hpp.html" target="_top" xlink:title="Text.hpp">
<polygon fill="none" stroke="black" points="582,-224.5 582,-243.5 638,-243.5 638,-224.5 582,-224.5"/>
<text text-anchor="middle" x="610" y="-231.5" font-family="Helvetica,sans-Serif" font-size="10.00">Text.hpp</text>
</a>
</g>
</g>
<!-- Node1&#45;&gt;Node22 -->
<g id="edge33" class="edge"><title>Node1&#45;&gt;Node22</title>
<path fill="none" stroke="midnightblue" d="M641.284,-280.399C635.449,-271.932 627.984,-261.099 621.81,-252.139"/>
<polygon fill="midnightblue" stroke="midnightblue" points="624.522,-249.906 615.966,-243.658 618.758,-253.878 624.522,-249.906"/>
</g>
<!-- Node3 -->
<g id="node3" class="node"><title>Node3</title>
<polygon fill="none" stroke="#bfbfbf" points="833.5,-0.5 833.5,-19.5 896.5,-19.5 896.5,-0.5 833.5,-0.5"/>
<text text-anchor="middle" x="865" y="-7.5" font-family="Helvetica,sans-Serif" font-size="10.00">typeindex</text>
</g>
<!-- Node2&#45;&gt;Node3 -->
<g id="edge2" class="edge"><title>Node2&#45;&gt;Node3</title>
<path fill="none" stroke="midnightblue" d="M822.023,-232.421C854.783,-229.793 902.138,-220.198 926,-188 960.995,-140.78 946.851,-107.206 918,-56 911.056,-43.6762 899.364,-33.2056 888.725,-25.4739"/>
<polygon fill="midnightblue" stroke="midnightblue" points="890.399,-22.3794 880.164,-19.6429 886.459,-28.165 890.399,-22.3794"/>
</g>
<!-- Node4 -->
<g id="node4" class="node"><title>Node4</title>
<g id="a_node4"><a xlink:href="IUserInterface_8hpp.html" target="_top" xlink:title="IUserInterface.hpp">
<polygon fill="none" stroke="black" points="813,-168.5 813,-187.5 917,-187.5 917,-168.5 813,-168.5"/>
<text text-anchor="middle" x="865" y="-175.5" font-family="Helvetica,sans-Serif" font-size="10.00">IUserInterface.hpp</text>
</a>
</g>
</g>
<!-- Node2&#45;&gt;Node4 -->
<g id="edge3" class="edge"><title>Node2&#45;&gt;Node4</title>
<path fill="none" stroke="midnightblue" d="M799.532,-224.324C811.586,-215.979 830.027,-203.212 844.269,-193.352"/>
<polygon fill="midnightblue" stroke="midnightblue" points="846.269,-196.224 852.499,-187.655 842.285,-190.469 846.269,-196.224"/>
</g>
<!-- Node7 -->
<g id="node7" class="node"><title>Node7</title>
<g id="a_node7"><a xlink:href="SystemResponse_8hpp.html" target="_top" xlink:title="SystemResponse.hpp">
<polygon fill="none" stroke="black" points="598,-112.5 598,-131.5 718,-131.5 718,-112.5 598,-112.5"/>
<text text-anchor="middle" x="658" y="-119.5" font-family="Helvetica,sans-Serif" font-size="10.00">SystemResponse.hpp</text>
</a>
</g>
</g>
<!-- Node2&#45;&gt;Node7 -->
<g id="edge9" class="edge"><title>Node2&#45;&gt;Node7</title>
<path fill="none" stroke="midnightblue" d="M786.459,-224.276C785.163,-210.608 780.782,-184.051 766,-168 751.16,-151.885 729.655,-141.361 709.735,-134.578"/>
<polygon fill="midnightblue" stroke="midnightblue" points="710.709,-131.215 700.119,-131.54 708.6,-137.89 710.709,-131.215"/>
</g>
<!-- Node4&#45;&gt;Node3 -->
<g id="edge4" class="edge"><title>Node4&#45;&gt;Node3</title>
<path fill="none" stroke="midnightblue" d="M878.064,-168.436C888.914,-160.471 903.573,-147.515 910,-132 925.287,-95.0946 897.476,-50.927 879.168,-27.4978"/>
<polygon fill="midnightblue" stroke="midnightblue" points="881.756,-25.1336 872.726,-19.5921 876.33,-29.5554 881.756,-25.1336"/>
</g>
<!-- Node5 -->
<g id="node5" class="node"><title>Node5</title>
<g id="a_node5"><a xlink:href="IDisplay_8hpp.html" target="_top" xlink:title="IDisplay.hpp">
<polygon fill="none" stroke="black" points="828.5,-112.5 828.5,-131.5 901.5,-131.5 901.5,-112.5 828.5,-112.5"/>
<text text-anchor="middle" x="865" y="-119.5" font-family="Helvetica,sans-Serif" font-size="10.00">IDisplay.hpp</text>
</a>
</g>
</g>
<!-- Node4&#45;&gt;Node5 -->
<g id="edge5" class="edge"><title>Node4&#45;&gt;Node5</title>
<path fill="none" stroke="midnightblue" d="M865,-168.083C865,-161.006 865,-150.861 865,-141.986"/>
<polygon fill="midnightblue" stroke="midnightblue" points="868.5,-141.751 865,-131.751 861.5,-141.751 868.5,-141.751"/>
</g>
<!-- Node5&#45;&gt;Node3 -->
<g id="edge6" class="edge"><title>Node5&#45;&gt;Node3</title>
<path fill="none" stroke="midnightblue" d="M865,-112.368C865,-94.617 865,-53.6664 865,-29.5974"/>
<polygon fill="midnightblue" stroke="midnightblue" points="868.5,-29.5914 865,-19.5914 861.5,-29.5915 868.5,-29.5914"/>
</g>
<!-- Node6 -->
<g id="node6" class="node"><title>Node6</title>
<g id="a_node6"><a xlink:href="IComponent_8hpp.html" target="_top" xlink:title="IComponent.hpp">
<polygon fill="none" stroke="black" points="733,-56.5 733,-75.5 829,-75.5 829,-56.5 733,-56.5"/>
<text text-anchor="middle" x="781" y="-63.5" font-family="Helvetica,sans-Serif" font-size="10.00">IComponent.hpp</text>
</a>
</g>
</g>
<!-- Node5&#45;&gt;Node6 -->
<g id="edge7" class="edge"><title>Node5&#45;&gt;Node6</title>
<path fill="none" stroke="midnightblue" d="M851.504,-112.324C838.4,-103.9 818.288,-90.9709 802.893,-81.0741"/>
<polygon fill="midnightblue" stroke="midnightblue" points="804.767,-78.118 794.463,-75.6545 800.982,-84.0063 804.767,-78.118"/>
</g>
<!-- Node6&#45;&gt;Node3 -->
<g id="edge8" class="edge"><title>Node6&#45;&gt;Node3</title>
<path fill="none" stroke="midnightblue" d="M794.496,-56.324C807.6,-47.9002 827.712,-34.9709 843.107,-25.0741"/>
<polygon fill="midnightblue" stroke="midnightblue" points="845.018,-28.0063 851.537,-19.6545 841.233,-22.118 845.018,-28.0063"/>
</g>
<!-- Node8 -->
<g id="node8" class="node"><title>Node8</title>
<polygon fill="none" stroke="#bfbfbf" points="452,-0.5 452,-19.5 496,-19.5 496,-0.5 452,-0.5"/>
<text text-anchor="middle" x="474" y="-7.5" font-family="Helvetica,sans-Serif" font-size="10.00">string</text>
</g>
<!-- Node7&#45;&gt;Node8 -->
<g id="edge10" class="edge"><title>Node7&#45;&gt;Node8</title>
<path fill="none" stroke="midnightblue" d="M643.562,-112.368C611.853,-93.4121 535.892,-48.0006 497.322,-24.9424"/>
<polygon fill="midnightblue" stroke="midnightblue" points="498.75,-21.7186 488.371,-19.5914 495.158,-27.7268 498.75,-21.7186"/>
</g>
<!-- Node10 -->
<g id="node10" class="node"><title>Node10</title>
<g id="a_node10"><a xlink:href="IEntityConstructor_8hpp.html" target="_top" xlink:title="IEntityConstructor.hpp">
<polygon fill="none" stroke="black" points="249,-168.5 249,-187.5 371,-187.5 371,-168.5 249,-168.5"/>
<text text-anchor="middle" x="310" y="-175.5" font-family="Helvetica,sans-Serif" font-size="10.00">IEntityConstructor.hpp</text>
</a>
</g>
</g>
<!-- Node9&#45;&gt;Node10 -->
<g id="edge12" class="edge"><title>Node9&#45;&gt;Node10</title>
<path fill="none" stroke="midnightblue" d="M419.401,-224.444C398.007,-215.557 364.319,-201.563 339.976,-191.451"/>
<polygon fill="midnightblue" stroke="midnightblue" points="341.08,-188.12 330.503,-187.516 338.395,-194.585 341.08,-188.12"/>
</g>
<!-- Node10&#45;&gt;Node8 -->
<g id="edge14" class="edge"><title>Node10&#45;&gt;Node8</title>
<path fill="none" stroke="midnightblue" d="M365.21,-168.439C389.466,-162.087 416.564,-151.07 435,-132 462.395,-103.664 470.548,-55.9833 472.973,-29.7337"/>
<polygon fill="midnightblue" stroke="midnightblue" points="476.474,-29.8503 473.718,-19.6203 469.493,-29.3364 476.474,-29.8503"/>
</g>
<!-- Node11 -->
<g id="node11" class="node"><title>Node11</title>
<polygon fill="none" stroke="#bfbfbf" points="193.5,-56.5 193.5,-75.5 250.5,-75.5 250.5,-56.5 193.5,-56.5"/>
<text text-anchor="middle" x="222" y="-63.5" font-family="Helvetica,sans-Serif" font-size="10.00">memory</text>
</g>
<!-- Node10&#45;&gt;Node11 -->
<g id="edge13" class="edge"><title>Node10&#45;&gt;Node11</title>
<path fill="none" stroke="midnightblue" d="M303.095,-168.368C288.508,-150.135 254.341,-107.426 235.34,-83.6752"/>
<polygon fill="midnightblue" stroke="midnightblue" points="237.853,-81.2137 228.873,-75.5914 232.387,-85.5866 237.853,-81.2137"/>
</g>
<!-- Node12 -->
<g id="node12" class="node"><title>Node12</title>
<g id="a_node12"><a xlink:href="Entity_8hpp.html" target="_top" xlink:title="Entity.hpp">
<polygon fill="none" stroke="black" points="268.5,-56.5 268.5,-75.5 331.5,-75.5 331.5,-56.5 268.5,-56.5"/>
<text text-anchor="middle" x="300" y="-63.5" font-family="Helvetica,sans-Serif" font-size="10.00">Entity.hpp</text>
</a>
</g>
</g>
<!-- Node10&#45;&gt;Node12 -->
<g id="edge15" class="edge"><title>Node10&#45;&gt;Node12</title>
<path fill="none" stroke="midnightblue" d="M301.786,-168.182C294.456,-159.663 284.245,-146.019 280,-132 275.147,-115.971 281.812,-97.7498 288.721,-84.6863"/>
<polygon fill="midnightblue" stroke="midnightblue" points="291.872,-86.2294 293.865,-75.8237 285.818,-82.7153 291.872,-86.2294"/>
</g>
<!-- Node13 -->
<g id="node13" class="node"><title>Node13</title>
<g id="a_node13"><a xlink:href="IEntityManager_8hpp.html" target="_top" xlink:title="IEntityManager.hpp">
<polygon fill="none" stroke="black" points="87,-112.5 87,-131.5 195,-131.5 195,-112.5 87,-112.5"/>
<text text-anchor="middle" x="141" y="-119.5" font-family="Helvetica,sans-Serif" font-size="10.00">IEntityManager.hpp</text>
</a>
</g>
</g>
<!-- Node10&#45;&gt;Node13 -->
<g id="edge16" class="edge"><title>Node10&#45;&gt;Node13</title>
<path fill="none" stroke="midnightblue" d="M283.221,-168.444C254.667,-159.32 209.267,-144.813 177.463,-134.651"/>
<polygon fill="midnightblue" stroke="midnightblue" points="178.244,-131.226 167.653,-131.516 176.114,-137.894 178.244,-131.226"/>
</g>
<!-- Node18 -->
<g id="node18" class="node"><title>Node18</title>
<g id="a_node18"><a xlink:href="IComponentManager_8hpp.html" target="_top" xlink:title="IComponentManager.hpp">
<polygon fill="none" stroke="black" points="289.5,-112.5 289.5,-131.5 426.5,-131.5 426.5,-112.5 289.5,-112.5"/>
<text text-anchor="middle" x="358" y="-119.5" font-family="Helvetica,sans-Serif" font-size="10.00">IComponentManager.hpp</text>
</a>
</g>
</g>
<!-- Node10&#45;&gt;Node18 -->
<g id="edge24" class="edge"><title>Node10&#45;&gt;Node18</title>
<path fill="none" stroke="midnightblue" d="M317.926,-168.083C324.846,-160.298 335.065,-148.801 343.452,-139.367"/>
<polygon fill="midnightblue" stroke="midnightblue" points="346.194,-141.55 350.221,-131.751 340.962,-136.9 346.194,-141.55"/>
</g>
<!-- Node13&#45;&gt;Node11 -->
<g id="edge17" class="edge"><title>Node13&#45;&gt;Node11</title>
<path fill="none" stroke="midnightblue" d="M154.014,-112.324C166.532,-103.979 185.682,-91.2122 200.471,-81.3524"/>
<polygon fill="midnightblue" stroke="midnightblue" points="202.639,-84.1137 209.018,-75.6545 198.756,-78.2894 202.639,-84.1137"/>
</g>
<!-- Node13&#45;&gt;Node12 -->
<g id="edge19" class="edge"><title>Node13&#45;&gt;Node12</title>
<path fill="none" stroke="midnightblue" d="M166.194,-112.444C192.943,-103.359 235.403,-88.9388 265.305,-78.7831"/>
<polygon fill="midnightblue" stroke="midnightblue" points="266.581,-82.0464 274.924,-75.5164 264.329,-75.4182 266.581,-82.0464"/>
</g>
<!-- Node14 -->
<g id="node14" class="node"><title>Node14</title>
<polygon fill="none" stroke="#bfbfbf" points="128.5,-56.5 128.5,-75.5 175.5,-75.5 175.5,-56.5 128.5,-56.5"/>
<text text-anchor="middle" x="152" y="-63.5" font-family="Helvetica,sans-Serif" font-size="10.00">vector</text>
</g>
<!-- Node13&#45;&gt;Node14 -->
<g id="edge18" class="edge"><title>Node13&#45;&gt;Node14</title>
<path fill="none" stroke="midnightblue" d="M142.816,-112.083C144.274,-104.927 146.371,-94.6353 148.193,-85.6911"/>
<polygon fill="midnightblue" stroke="midnightblue" points="151.651,-86.2485 150.217,-75.7511 144.792,-84.8512 151.651,-86.2485"/>
</g>
<!-- Node15 -->
<g id="node15" class="node"><title>Node15</title>
<g id="a_node15"><a xlink:href="PacketManager_8hpp.html" target="_top" xlink:title="PacketManager.hpp">
<polygon fill="none" stroke="black" points="0,-56.5 0,-75.5 110,-75.5 110,-56.5 0,-56.5"/>
<text text-anchor="middle" x="55" y="-63.5" font-family="Helvetica,sans-Serif" font-size="10.00">PacketManager.hpp</text>
</a>
</g>
</g>
<!-- Node13&#45;&gt;Node15 -->
<g id="edge20" class="edge"><title>Node13&#45;&gt;Node15</title>
<path fill="none" stroke="midnightblue" d="M127.183,-112.324C113.767,-103.9 93.1759,-90.9709 77.4144,-81.0741"/>
<polygon fill="midnightblue" stroke="midnightblue" points="79.1132,-78.0081 68.7831,-75.6545 75.3908,-83.9364 79.1132,-78.0081"/>
</g>
<!-- Node15&#45;&gt;Node8 -->
<g id="edge21" class="edge"><title>Node15&#45;&gt;Node8</title>
<path fill="none" stroke="midnightblue" d="M110.151,-57.1957C113.144,-56.7874 116.108,-56.3866 119,-56 238.039,-40.0861 379.73,-22.5459 441.982,-14.9104"/>
<polygon fill="midnightblue" stroke="midnightblue" points="442.468,-18.377 451.968,-13.6868 441.617,-11.429 442.468,-18.377"/>
</g>
<!-- Node16 -->
<g id="node16" class="node"><title>Node16</title>
<polygon fill="none" stroke="#bfbfbf" points="234,-0.5 234,-19.5 264,-19.5 264,-0.5 234,-0.5"/>
<text text-anchor="middle" x="249" y="-7.5" font-family="Helvetica,sans-Serif" font-size="10.00">list</text>
</g>
<!-- Node15&#45;&gt;Node16 -->
<g id="edge22" class="edge"><title>Node15&#45;&gt;Node16</title>
<path fill="none" stroke="midnightblue" d="M85.7399,-56.4435C123.889,-45.8247 188.23,-27.9153 223.678,-18.0485"/>
<polygon fill="midnightblue" stroke="midnightblue" points="224.995,-21.315 233.69,-15.2616 223.117,-14.5714 224.995,-21.315"/>
</g>
<!-- Node17 -->
<g id="node17" class="node"><title>Node17</title>
<g id="a_node17"><a xlink:href="Input_8hpp.html" target="_top" xlink:title="Render/Input.hpp">
<polygon fill="none" stroke="black" points="6,-0.5 6,-19.5 104,-19.5 104,-0.5 6,-0.5"/>
<text text-anchor="middle" x="55" y="-7.5" font-family="Helvetica,sans-Serif" font-size="10.00">Render/Input.hpp</text>
</a>
</g>
</g>
<!-- Node15&#45;&gt;Node17 -->
<g id="edge23" class="edge"><title>Node15&#45;&gt;Node17</title>
<path fill="none" stroke="midnightblue" d="M55,-56.083C55,-49.0059 55,-38.8611 55,-29.9865"/>
<polygon fill="midnightblue" stroke="midnightblue" points="58.5001,-29.751 55,-19.7511 51.5001,-29.7511 58.5001,-29.751"/>
</g>
<!-- Node18&#45;&gt;Node6 -->
<g id="edge27" class="edge"><title>Node18&#45;&gt;Node6</title>
<path fill="none" stroke="midnightblue" d="M425.026,-112.444C507.071,-101.97 644.676,-84.403 722.586,-74.4571"/>
<polygon fill="midnightblue" stroke="midnightblue" points="723.232,-77.9031 732.708,-73.1649 722.346,-70.9595 723.232,-77.9031"/>
</g>
<!-- Node18&#45;&gt;Node11 -->
<g id="edge26" class="edge"><title>Node18&#45;&gt;Node11</title>
<path fill="none" stroke="midnightblue" d="M336.45,-112.444C313.969,-103.517 278.512,-89.4387 253.02,-79.3168"/>
<polygon fill="midnightblue" stroke="midnightblue" points="254.035,-75.9539 243.449,-75.5164 251.451,-82.4598 254.035,-75.9539"/>
</g>
<!-- Node18&#45;&gt;Node12 -->
<g id="edge28" class="edge"><title>Node18&#45;&gt;Node12</title>
<path fill="none" stroke="midnightblue" d="M348.681,-112.324C340.107,-104.341 327.188,-92.3128 316.812,-82.6529"/>
<polygon fill="midnightblue" stroke="midnightblue" points="319.192,-80.0865 309.488,-75.8339 314.422,-85.2098 319.192,-80.0865"/>
</g>
<!-- Node18&#45;&gt;Node16 -->
<g id="edge25" class="edge"><title>Node18&#45;&gt;Node16</title>
<path fill="none" stroke="midnightblue" d="M357.787,-112.408C357.021,-98.9194 353.729,-72.605 340,-56 323.091,-35.5485 294.595,-23.5878 273.989,-17.2047"/>
<polygon fill="midnightblue" stroke="midnightblue" points="274.893,-13.8228 264.315,-14.4331 272.964,-20.552 274.893,-13.8228"/>
</g>
<!-- Node20 -->
<g id="node20" class="node"><title>Node20</title>
<polygon fill="none" stroke="#bfbfbf" points="715,-168.5 715,-187.5 757,-187.5 757,-168.5 715,-168.5"/>
<text text-anchor="middle" x="736" y="-175.5" font-family="Helvetica,sans-Serif" font-size="10.00">utility</text>
</g>
<!-- Node19&#45;&gt;Node20 -->
<g id="edge30" class="edge"><title>Node19&#45;&gt;Node20</title>
<path fill="none" stroke="midnightblue" d="M700.101,-224.083C706.237,-216.377 715.27,-205.033 722.739,-195.653"/>
<polygon fill="midnightblue" stroke="midnightblue" points="725.54,-197.754 729.032,-187.751 720.064,-193.394 725.54,-197.754"/>
</g>
<!-- Node21 -->
<g id="node21" class="node"><title>Node21</title>
<g id="a_node21"><a xlink:href="IPhysics_8hpp.html" target="_top" xlink:title="IPhysics.hpp">
<polygon fill="none" stroke="black" points="735.5,-112.5 735.5,-131.5 810.5,-131.5 810.5,-112.5 735.5,-112.5"/>
<text text-anchor="middle" x="773" y="-119.5" font-family="Helvetica,sans-Serif" font-size="10.00">IPhysics.hpp</text>
</a>
</g>
</g>
<!-- Node19&#45;&gt;Node21 -->
<g id="edge31" class="edge"><title>Node19&#45;&gt;Node21</title>
<path fill="none" stroke="midnightblue" d="M692.717,-224.214C692.709,-210.926 694.375,-185.423 706,-168 715.162,-154.268 730.081,-143.645 743.518,-136.177"/>
<polygon fill="midnightblue" stroke="midnightblue" points="745.235,-139.229 752.495,-131.512 742.007,-133.018 745.235,-139.229"/>
</g>
<!-- Node21&#45;&gt;Node6 -->
<g id="edge32" class="edge"><title>Node21&#45;&gt;Node6</title>
<path fill="none" stroke="midnightblue" d="M774.321,-112.083C775.381,-104.927 776.906,-94.6353 778.231,-85.6911"/>
<polygon fill="midnightblue" stroke="midnightblue" points="781.7,-86.1561 779.704,-75.7511 774.776,-85.1302 781.7,-86.1561"/>
</g>
<!-- Node22&#45;&gt;Node3 -->
<g id="edge34" class="edge"><title>Node22&#45;&gt;Node3</title>
<path fill="none" stroke="midnightblue" d="M607.796,-224.338C601.244,-198.211 582.724,-121.397 589,-112 640.94,-34.2232 759.995,-16.0445 823.429,-11.9922"/>
<polygon fill="midnightblue" stroke="midnightblue" points="823.692,-15.4831 833.485,-11.4389 823.307,-8.49367 823.692,-15.4831"/>
</g>
<!-- Node22&#45;&gt;Node4 -->
<g id="edge37" class="edge"><title>Node22&#45;&gt;Node4</title>
<path fill="none" stroke="midnightblue" d="M638.272,-225.812C640.881,-225.185 643.487,-224.572 646,-224 702.004,-211.252 766.435,-198.206 810.839,-189.466"/>
<polygon fill="midnightblue" stroke="midnightblue" points="811.699,-192.864 820.838,-187.504 810.351,-185.995 811.699,-192.864"/>
</g>
<!-- Node22&#45;&gt;Node8 -->
<g id="edge35" class="edge"><title>Node22&#45;&gt;Node8</title>
<path fill="none" stroke="midnightblue" d="M581.646,-227.272C559.38,-221.279 529.334,-209.616 512,-188 492.452,-163.623 480.345,-70.3316 475.914,-29.8863"/>
<polygon fill="midnightblue" stroke="midnightblue" points="479.377,-29.3528 474.847,-19.7755 472.416,-30.0876 479.377,-29.3528"/>
</g>
<!-- Node23 -->
<g id="node23" class="node"><title>Node23</title>
<g id="a_node23"><a xlink:href="Color_8hpp.html" target="_top" xlink:title="Color.hpp">
<polygon fill="none" stroke="black" points="521,-168.5 521,-187.5 583,-187.5 583,-168.5 521,-168.5"/>
<text text-anchor="middle" x="552" y="-175.5" font-family="Helvetica,sans-Serif" font-size="10.00">Color.hpp</text>
</a>
</g>
</g>
<!-- Node22&#45;&gt;Node23 -->
<g id="edge36" class="edge"><title>Node22&#45;&gt;Node23</title>
<path fill="none" stroke="midnightblue" d="M600.681,-224.324C592.107,-216.341 579.188,-204.313 568.812,-194.653"/>
<polygon fill="midnightblue" stroke="midnightblue" points="571.192,-192.086 561.488,-187.834 566.422,-197.21 571.192,-192.086"/>
</g>
</g>
</svg>
        <g id="navigator" transform="translate(0 0)" fill="#404254">
                <rect fill="#f2f5e9" fill-opacity="0.5" stroke="#606060" stroke-width=".5" x="0" y="0" width="60" height="60"/>
                <use id="zoomplus" xlink:href="#zoomPlus" x="17" y="9" onmousedown="handleZoom(evt,'in')"/>
                <use id="zoomminus" xlink:href="#zoomMin" x="42" y="9" onmousedown="handleZoom(evt,'out')"/>
                <use id="reset" xlink:href="#resetDef" x="30" y="36" onmousedown="handleReset()"/>
                <g id="arrowUp" xlink:href="#dirArrow" transform="translate(30 24)" onmousedown="handlePan(0,-1)">
                  <use xlink:href="#rim" fill="#404040">
                        <set attributeName="fill" to="#808080" begin="arrowUp.mouseover" end="arrowUp.mouseout"/>
                  </use>
                  <path fill="none" stroke="white" stroke-width="1.5" d="M0,-3.0v7 M-2.5,-0.5L0,-3.0L2.5,-0.5"/>
                </g>
                <g id="arrowRight" xlink:href="#dirArrow" transform="rotate(90) translate(36 -43)" onmousedown="handlePan(1,0)">
                  <use xlink:href="#rim" fill="#404040">
                        <set attributeName="fill" to="#808080" begin="arrowRight.mouseover" end="arrowRight.mouseout"/>
                  </use>
                  <path fill="none" stroke="white" stroke-width="1.5" d="M0,-3.0v7 M-2.5,-0.5L0,-3.0L2.5,-0.5"/>
                </g>
                <g id="arrowDown" xlink:href="#dirArrow" transform="rotate(180) translate(-30 -48)" onmousedown="handlePan(0,1)">
                  <use xlink:href="#rim" fill="#404040">
                        <set attributeName="fill" to="#808080" begin="arrowDown.mouseover" end="arrowDown.mouseout"/>
                  </use>
                  <path fill="none" stroke="white" stroke-width="1.5" d="M0,-3.0v7 M-2.5,-0.5L0,-3.0L2.5,-0.5"/>
                </g>
                <g id="arrowLeft" xlink:href="#dirArrow" transform="rotate(270) translate(-36 17)" onmousedown="handlePan(-1,0)">
                  <use xlink:href="#rim" fill="#404040">
                        <set attributeName="fill" to="#808080" begin="arrowLeft.mouseover" end="arrowLeft.mouseout"/>
                  </use>
                  <path fill="none" stroke="white" stroke-width="1.5" d="M0,-3.0v7 M-2.5,-0.5L0,-3.0L2.5,-0.5"/>
                </g>
        </g>
        <svg viewBox="0 0 15 15" width="100%" height="30px" preserveAspectRatio="xMaxYMin meet">
         <g id="arrow_out" transform="scale(0.3 0.3)">
          <a xlink:href="MenuEntity_8cpp__incl_org.svg" target="_base">
           <rect id="button" ry="5" rx="5" y="6" x="6" height="38" width="38"
                fill="#f2f5e9" fill-opacity="0.5" stroke="#606060" stroke-width="1.0"/>
           <path id="arrow"
             d="M 11.500037,31.436501 C 11.940474,20.09759 22.043105,11.32322 32.158766,21.979434 L 37.068811,17.246167 C 37.068811,17.246167 37.088388,32 37.088388,32 L 22.160133,31.978069 C 22.160133,31.978069 26.997745,27.140456 26.997745,27.140456 C 18.528582,18.264221 13.291696,25.230495 11.500037,31.436501 z"
             style="fill:#404040;"/>
          </a>
         </g>
        </svg>
</svg>
