<?xml version="1.0" encoding="UTF-8" standalone="no"?>
<!DOCTYPE svg PUBLIC "-//W3C//DTD SVG 1.1//EN"
 "http://www.w3.org/Graphics/SVG/1.1/DTD/svg11.dtd">
<!-- Generated by graphviz version 2.38.0 (20140413.2041)
 -->
<!-- Title: src/Scenes/MenuScene.hpp Pages: 1 -->
<svg width="340pt" height="84pt"
 viewBox="0.00 0.00 339.50 84.00" xmlns="http://www.w3.org/2000/svg" xmlns:xlink="http://www.w3.org/1999/xlink">
<g id="graph0" class="graph" transform="scale(1 1) rotate(0) translate(4 80)">
<title>src/Scenes/MenuScene.hpp</title>
<!-- Node1 -->
<g id="node1" class="node"><title>Node1</title>
<polygon fill="#bfbfbf" stroke="black" points="87,-56.5 87,-75.5 236,-75.5 236,-56.5 87,-56.5"/>
<text text-anchor="middle" x="161.5" y="-63.5" font-family="Helvetica,sans-Serif" font-size="10.00">src/Scenes/MenuScene.hpp</text>
</g>
<!-- Node2 -->
<g id="node2" class="node"><title>Node2</title>
<g id="a_node2"><a xlink:href="MenuScene_8cpp.html" target="_top" xlink:title="src/Scenes/MenuScene.cpp">
<polygon fill="none" stroke="black" points="0,-0.5 0,-19.5 149,-19.5 149,-0.5 0,-0.5"/>
<text text-anchor="middle" x="74.5" y="-7.5" font-family="Helvetica,sans-Serif" font-size="10.00">src/Scenes/MenuScene.cpp</text>
</a>
</g>
</g>
<!-- Node1&#45;&gt;Node2 -->
<g id="edge1" class="edge"><title>Node1&#45;&gt;Node2</title>
<path fill="none" stroke="midnightblue" d="M138.784,-50.9005C122.831,-40.9986 102.003,-28.0705 88.4434,-19.6545"/>
<polygon fill="midnightblue" stroke="midnightblue" points="137.18,-54.024 147.522,-56.324 140.871,-48.0765 137.18,-54.024"/>
</g>
<!-- Node3 -->
<g id="node3" class="node"><title>Node3</title>
<g id="a_node3"><a xlink:href="SceneManager_8cpp.html" target="_top" xlink:title="src/Scenes/SceneManager.cpp">
<polygon fill="none" stroke="black" points="167.5,-0.5 167.5,-19.5 331.5,-19.5 331.5,-0.5 167.5,-0.5"/>
<text text-anchor="middle" x="249.5" y="-7.5" font-family="Helvetica,sans-Serif" font-size="10.00">src/Scenes/SceneManager.cpp</text>
</a>
</g>
</g>
<!-- Node1&#45;&gt;Node3 -->
<g id="edge2" class="edge"><title>Node1&#45;&gt;Node3</title>
<path fill="none" stroke="midnightblue" d="M184.477,-50.9005C200.613,-40.9986 221.681,-28.0705 235.396,-19.6545"/>
<polygon fill="midnightblue" stroke="midnightblue" points="182.331,-48.1106 175.639,-56.324 185.993,-54.0769 182.331,-48.1106"/>
</g>
</g>
</svg>
