<?xml version="1.0" encoding="UTF-8" standalone="no"?>
<!DOCTYPE svg PUBLIC "-//W3C//DTD SVG 1.1//EN"
 "http://www.w3.org/Graphics/SVG/1.1/DTD/svg11.dtd">
<!-- Generated by graphviz version 2.38.0 (20140413.2041)
 -->
<!-- Title: src/Systems/SystemConstructor/MenuSystem/MenuSystem.hpp Pages: 1 -->
<svg width="348pt" height="106pt"
 viewBox="0.00 0.00 347.50 106.00" xmlns="http://www.w3.org/2000/svg" xmlns:xlink="http://www.w3.org/1999/xlink">
<g id="graph0" class="graph" transform="scale(1 1) rotate(0) translate(4 102)">
<title>src/Systems/SystemConstructor/MenuSystem/MenuSystem.hpp</title>
<!-- Node1 -->
<g id="node1" class="node"><title>Node1</title>
<polygon fill="#bfbfbf" stroke="black" points="77.5,-67.5 77.5,-97.5 249.5,-97.5 249.5,-67.5 77.5,-67.5"/>
<text text-anchor="start" x="85.5" y="-85.5" font-family="Helvetica,sans-Serif" font-size="10.00">src/Systems/SystemConstructor</text>
<text text-anchor="middle" x="163.5" y="-74.5" font-family="Helvetica,sans-Serif" font-size="10.00">/MenuSystem/MenuSystem.hpp</text>
</g>
<!-- Node2 -->
<g id="node2" class="node"><title>Node2</title>
<g id="a_node2"><a xlink:href="MenuScene_8cpp.html" target="_top" xlink:title="src/Scenes/MenuScene.cpp">
<polygon fill="none" stroke="black" points="0,-6 0,-25 149,-25 149,-6 0,-6"/>
<text text-anchor="middle" x="74.5" y="-13" font-family="Helvetica,sans-Serif" font-size="10.00">src/Scenes/MenuScene.cpp</text>
</a>
</g>
</g>
<!-- Node1&#45;&gt;Node2 -->
<g id="edge1" class="edge"><title>Node1&#45;&gt;Node2</title>
<path fill="none" stroke="midnightblue" d="M135.849,-61.3056C119.137,-49.0999 98.7042,-34.1772 86.148,-25.007"/>
<polygon fill="midnightblue" stroke="midnightblue" points="134.048,-64.3245 144.188,-67.396 138.177,-58.6716 134.048,-64.3245"/>
</g>
<!-- Node3 -->
<g id="node3" class="node"><title>Node3</title>
<g id="a_node3"><a xlink:href="MenuSystem_8cpp.html" target="_top" xlink:title="src/Systems/SystemConstructor\l/MenuSystem/MenuSystem.cpp">
<polygon fill="none" stroke="black" points="167.5,-0.5 167.5,-30.5 339.5,-30.5 339.5,-0.5 167.5,-0.5"/>
<text text-anchor="start" x="175.5" y="-18.5" font-family="Helvetica,sans-Serif" font-size="10.00">src/Systems/SystemConstructor</text>
<text text-anchor="middle" x="253.5" y="-7.5" font-family="Helvetica,sans-Serif" font-size="10.00">/MenuSystem/MenuSystem.cpp</text>
</a>
</g>
</g>
<!-- Node1&#45;&gt;Node3 -->
<g id="edge2" class="edge"><title>Node1&#45;&gt;Node3</title>
<path fill="none" stroke="midnightblue" d="M191.26,-61.4511C205.105,-51.4517 221.516,-39.5995 234.009,-30.5765"/>
<polygon fill="midnightblue" stroke="midnightblue" points="189.086,-58.7036 183.029,-67.396 193.185,-64.3784 189.086,-58.7036"/>
</g>
</g>
</svg>
