<?xml version="1.0" encoding="UTF-8" standalone="no"?>
<!DOCTYPE svg PUBLIC "-//W3C//DTD SVG 1.1//EN"
 "http://www.w3.org/Graphics/SVG/1.1/DTD/svg11.dtd">
<!-- Generated by graphviz version 2.38.0 (20140413.2041)
 -->
<!-- Title: src/Components/Physics/Motion.hpp Pages: 1 -->
<!--zoomable 262 -->
<svg id="main" version="1.1" xmlns="http://www.w3.org/2000/svg" xmlns:xlink="http://www.w3.org/1999/xlink" xml:space="preserve" onload="init(evt)">
<style type="text/css"><![CDATA[
.edge:hover path { stroke: red; }
.edge:hover polygon { stroke: red; fill: red; }
]]></style>
<script type="text/javascript"><![CDATA[
var edges = document.getElementsByTagName('g');
if (edges && edges.length) {
  for (var i=0;i<edges.length;i++) {
    if (edges[i].id.substr(0,4)=='edge') {
      edges[i].setAttribute('class','edge');
    }
  }
}
]]></script>
        <defs>
                <circle id="rim" cx="0" cy="0" r="7"/>
                <circle id="rim2" cx="0" cy="0" r="3.5"/>
                <g id="zoomPlus">
                        <use xlink:href="#rim" fill="#404040">
                                <set attributeName="fill" to="#808080" begin="zoomplus.mouseover" end="zoomplus.mouseout"/>
                        </use>
                        <path d="M-4,0h8M0,-4v8" fill="none" stroke="white" stroke-width="1.5" pointer-events="none"/>
                </g>
                <g id="zoomMin">
                        <use xlink:href="#rim" fill="#404040">
                                <set attributeName="fill" to="#808080" begin="zoomminus.mouseover" end="zoomminus.mouseout"/>
                        </use>
                        <path d="M-4,0h8" fill="none" stroke="white" stroke-width="1.5" pointer-events="none"/>
                </g>
                <g id="dirArrow">
                        <path fill="none" stroke="white" stroke-width="1.5" d="M0,-3.0v7 M-2.5,-0.5L0,-3.0L2.5,-0.5"/>
                </g>
               <g id="resetDef">
                       <use xlink:href="#rim2" fill="#404040">
                               <set attributeName="fill" to="#808080" begin="reset.mouseover" end="reset.mouseout"/>
                       </use>
               </g>
        </defs>

<script type="text/javascript">
var viewWidth = 5606;
var viewHeight = 262;
var sectionId = 'dynsection-1';
</script>
<script xlink:href="svgpan.js"/>
<svg id="graph" class="graph">
<g id="viewport">
<title>src/Components/Physics/Motion.hpp</title>
<!-- Node1 -->
<g id="node1" class="node"><title>Node1</title>
<polygon fill="#bfbfbf" stroke="black" points="2167,-223.5 2167,-253.5 2301,-253.5 2301,-223.5 2167,-223.5"/>
<text text-anchor="start" x="2175" y="-241.5" font-family="Helvetica,sans-Serif" font-size="10.00">src/Components/Physics</text>
<text text-anchor="middle" x="2234" y="-230.5" font-family="Helvetica,sans-Serif" font-size="10.00">/Motion.hpp</text>
</g>
<!-- Node2 -->
<g id="node2" class="node"><title>Node2</title>
<g id="a_node2"><a xlink:href="Acceleration_8hpp.html" target="_top" xlink:title="src/Components/Physics\l/Acceleration.hpp">
<polygon fill="none" stroke="black" points="729,-156.5 729,-186.5 863,-186.5 863,-156.5 729,-156.5"/>
<text text-anchor="start" x="737" y="-174.5" font-family="Helvetica,sans-Serif" font-size="10.00">src/Components/Physics</text>
<text text-anchor="middle" x="796" y="-163.5" font-family="Helvetica,sans-Serif" font-size="10.00">/Acceleration.hpp</text>
</a>
</g>
</g>
<!-- Node1&#45;&gt;Node2 -->
<g id="edge1" class="edge"><title>Node1&#45;&gt;Node2</title>
<path fill="none" stroke="midnightblue" d="M2156.34,-233.99C1902.7,-222.525 1101.29,-186.3 863.283,-175.541"/>
<polygon fill="midnightblue" stroke="midnightblue" points="2156.42,-237.497 2166.57,-234.452 2156.74,-230.504 2156.42,-237.497"/>
</g>
<!-- Node4 -->
<g id="node4" class="node"><title>Node4</title>
<g id="a_node4"><a xlink:href="Motion_8cpp.html" target="_top" xlink:title="src/Components/Physics\l/Motion.cpp">
<polygon fill="none" stroke="black" points="2167,-156.5 2167,-186.5 2301,-186.5 2301,-156.5 2167,-156.5"/>
<text text-anchor="start" x="2175" y="-174.5" font-family="Helvetica,sans-Serif" font-size="10.00">src/Components/Physics</text>
<text text-anchor="middle" x="2234" y="-163.5" font-family="Helvetica,sans-Serif" font-size="10.00">/Motion.cpp</text>
</a>
</g>
</g>
<!-- Node1&#45;&gt;Node4 -->
<g id="edge3" class="edge"><title>Node1&#45;&gt;Node4</title>
<path fill="none" stroke="midnightblue" d="M2234,-213.108C2234,-204.154 2234,-194.323 2234,-186.577"/>
<polygon fill="midnightblue" stroke="midnightblue" points="2230.5,-213.396 2234,-223.396 2237.5,-213.396 2230.5,-213.396"/>
</g>
<!-- Node5 -->
<g id="node5" class="node"><title>Node5</title>
<g id="a_node5"><a xlink:href="Velocity_8hpp.html" target="_top" xlink:title="src/Components/Physics\l/Velocity.hpp">
<polygon fill="none" stroke="black" points="2962,-156.5 2962,-186.5 3096,-186.5 3096,-156.5 2962,-156.5"/>
<text text-anchor="start" x="2970" y="-174.5" font-family="Helvetica,sans-Serif" font-size="10.00">src/Components/Physics</text>
<text text-anchor="middle" x="3029" y="-163.5" font-family="Helvetica,sans-Serif" font-size="10.00">/Velocity.hpp</text>
</a>
</g>
</g>
<!-- Node1&#45;&gt;Node5 -->
<g id="edge4" class="edge"><title>Node1&#45;&gt;Node5</title>
<path fill="none" stroke="midnightblue" d="M2311.51,-231.162C2467.12,-218.44 2815.15,-189.984 2961.8,-177.994"/>
<polygon fill="midnightblue" stroke="midnightblue" points="2310.78,-227.711 2301.1,-232.014 2311.35,-234.688 2310.78,-227.711"/>
</g>
<!-- Node3 -->
<g id="node3" class="node"><title>Node3</title>
<g id="a_node3"><a xlink:href="Acceleration_8cpp.html" target="_top" xlink:title="src/Components/Physics\l/Acceleration.cpp">
<polygon fill="none" stroke="black" points="0,-84 0,-114 134,-114 134,-84 0,-84"/>
<text text-anchor="start" x="8" y="-102" font-family="Helvetica,sans-Serif" font-size="10.00">src/Components/Physics</text>
<text text-anchor="middle" x="67" y="-91" font-family="Helvetica,sans-Serif" font-size="10.00">/Acceleration.cpp</text>
</a>
</g>
</g>
<!-- Node2&#45;&gt;Node3 -->
<g id="edge2" class="edge"><title>Node2&#45;&gt;Node3</title>
<path fill="none" stroke="midnightblue" d="M718.715,-169.019C595.934,-165.66 349.112,-154.798 143,-120 133.852,-118.456 124.201,-116.32 114.961,-114.017"/>
<polygon fill="midnightblue" stroke="midnightblue" points="718.683,-172.519 728.772,-169.285 718.868,-165.522 718.683,-172.519"/>
</g>
<!-- Node6 -->
<g id="node6" class="node"><title>Node6</title>
<g id="a_node6"><a xlink:href="Velocity_8cpp.html" target="_top" xlink:title="src/Components/Physics\l/Velocity.cpp">
<polygon fill="none" stroke="black" points="5034,-84 5034,-114 5168,-114 5168,-84 5034,-84"/>
<text text-anchor="start" x="5042" y="-102" font-family="Helvetica,sans-Serif" font-size="10.00">src/Components/Physics</text>
<text text-anchor="middle" x="5101" y="-91" font-family="Helvetica,sans-Serif" font-size="10.00">/Velocity.cpp</text>
</a>
</g>
</g>
<!-- Node5&#45;&gt;Node6 -->
<g id="edge5" class="edge"><title>Node5&#45;&gt;Node6</title>
<path fill="none" stroke="midnightblue" d="M3106.33,-170.937C3425.9,-172.376 4644.55,-174.122 5025,-120 5034.59,-118.636 5044.71,-116.49 5054.32,-114.101"/>
<polygon fill="midnightblue" stroke="midnightblue" points="3106.26,-167.437 3096.24,-170.891 3106.22,-174.437 3106.26,-167.437"/>
</g>
<!-- Node7 -->
<g id="node7" class="node"><title>Node7</title>
<g id="a_node7"><a xlink:href="BackgroundMenuEntity_8cpp.html" target="_top" xlink:title="src/Entities/EntityConstructor\l/BackgroundMenuEntity/BackgroundMenu\lEntity.cpp">
<polygon fill="none" stroke="black" points="5186,-78.5 5186,-119.5 5402,-119.5 5402,-78.5 5186,-78.5"/>
<text text-anchor="start" x="5194" y="-107.5" font-family="Helvetica,sans-Serif" font-size="10.00">src/Entities/EntityConstructor</text>
<text text-anchor="start" x="5194" y="-96.5" font-family="Helvetica,sans-Serif" font-size="10.00">/BackgroundMenuEntity/BackgroundMenu</text>
<text text-anchor="middle" x="5294" y="-85.5" font-family="Helvetica,sans-Serif" font-size="10.00">Entity.cpp</text>
</a>
</g>
</g>
<!-- Node5&#45;&gt;Node7 -->
<g id="edge6" class="edge"><title>Node5&#45;&gt;Node7</title>
<path fill="none" stroke="midnightblue" d="M3106.23,-170.195C3440.33,-168.641 4763.01,-160.035 5177,-120 5179.87,-119.722 5182.78,-119.415 5185.71,-119.083"/>
<polygon fill="midnightblue" stroke="midnightblue" points="3106.15,-166.695 3096.17,-170.241 3106.18,-173.695 3106.15,-166.695"/>
</g>
<!-- Node8 -->
<g id="node8" class="node"><title>Node8</title>
<g id="a_node8"><a xlink:href="BackgroundWithoutTitleEntity_8cpp.html" target="_top" xlink:title="src/Entities/EntityConstructor\l/BackgroundWithoutTitleEntity\l/BackgroundWithoutTitleEntity.cpp">
<polygon fill="none" stroke="black" points="5420,-78.5 5420,-119.5 5598,-119.5 5598,-78.5 5420,-78.5"/>
<text text-anchor="start" x="5428" y="-107.5" font-family="Helvetica,sans-Serif" font-size="10.00">src/Entities/EntityConstructor</text>
<text text-anchor="start" x="5428" y="-96.5" font-family="Helvetica,sans-Serif" font-size="10.00">/BackgroundWithoutTitleEntity</text>
<text text-anchor="middle" x="5509" y="-85.5" font-family="Helvetica,sans-Serif" font-size="10.00">/BackgroundWithoutTitleEntity.cpp</text>
</a>
</g>
</g>
<!-- Node5&#45;&gt;Node8 -->
<g id="edge7" class="edge"><title>Node5&#45;&gt;Node8</title>
<path fill="none" stroke="midnightblue" d="M3106.3,-170.734C3462.65,-171.523 4949.11,-171.602 5411,-120 5413.93,-119.672 5416.91,-119.3 5419.91,-118.89"/>
<polygon fill="midnightblue" stroke="midnightblue" points="3106.1,-167.233 3096.09,-170.71 3106.08,-174.233 3106.1,-167.233"/>
</g>
<!-- Node9 -->
<g id="node9" class="node"><title>Node9</title>
<g id="a_node9"><a xlink:href="BulletEntity_8cpp.html" target="_top" xlink:title="src/Entities/EntityConstructor\l/BulletEntity/BulletEntity.cpp">
<polygon fill="none" stroke="black" points="152.5,-84 152.5,-114 307.5,-114 307.5,-84 152.5,-84"/>
<text text-anchor="start" x="160.5" y="-102" font-family="Helvetica,sans-Serif" font-size="10.00">src/Entities/EntityConstructor</text>
<text text-anchor="middle" x="230" y="-91" font-family="Helvetica,sans-Serif" font-size="10.00">/BulletEntity/BulletEntity.cpp</text>
</a>
</g>
</g>
<!-- Node5&#45;&gt;Node9 -->
<g id="edge8" class="edge"><title>Node5&#45;&gt;Node9</title>
<path fill="none" stroke="midnightblue" d="M2951.6,-168.885C2819.85,-166.149 2543.59,-160.464 2310,-156 1866.9,-147.532 755.82,-174.495 316,-120 305.047,-118.643 293.452,-116.467 282.443,-114.041"/>
<polygon fill="midnightblue" stroke="midnightblue" points="2951.52,-172.385 2961.59,-169.093 2951.67,-165.386 2951.52,-172.385"/>
</g>
<!-- Node10 -->
<g id="node10" class="node"><title>Node10</title>
<g id="a_node10"><a xlink:href="EnemyBulletEntity_8cpp.html" target="_top" xlink:title="src/Entities/EntityConstructor\l/EnemyBulletEntity/EnemyBulletEntity.cpp">
<polygon fill="none" stroke="black" points="325.5,-84 325.5,-114 540.5,-114 540.5,-84 325.5,-84"/>
<text text-anchor="start" x="333.5" y="-102" font-family="Helvetica,sans-Serif" font-size="10.00">src/Entities/EntityConstructor</text>
<text text-anchor="middle" x="433" y="-91" font-family="Helvetica,sans-Serif" font-size="10.00">/EnemyBulletEntity/EnemyBulletEntity.cpp</text>
</a>
</g>
</g>
<!-- Node5&#45;&gt;Node10 -->
<g id="edge9" class="edge"><title>Node5&#45;&gt;Node10</title>
<path fill="none" stroke="midnightblue" d="M2951.65,-168.934C2532.68,-160.45 553.832,-120.364 550,-120 535.332,-118.605 519.731,-116.429 504.862,-114.017"/>
<polygon fill="midnightblue" stroke="midnightblue" points="2951.77,-172.437 2961.84,-169.14 2951.91,-165.438 2951.77,-172.437"/>
</g>
<!-- Node11 -->
<g id="node11" class="node"><title>Node11</title>
<g id="a_node11"><a xlink:href="EnemyEntity_8cpp.html" target="_top" xlink:title="src/Entities/EntityConstructor\l/EnemyEntity/EnemyEntity.cpp">
<polygon fill="none" stroke="black" points="558.5,-84 558.5,-114 719.5,-114 719.5,-84 558.5,-84"/>
<text text-anchor="start" x="566.5" y="-102" font-family="Helvetica,sans-Serif" font-size="10.00">src/Entities/EntityConstructor</text>
<text text-anchor="middle" x="639" y="-91" font-family="Helvetica,sans-Serif" font-size="10.00">/EnemyEntity/EnemyEntity.cpp</text>
</a>
</g>
</g>
<!-- Node5&#45;&gt;Node11 -->
<g id="edge10" class="edge"><title>Node5&#45;&gt;Node11</title>
<path fill="none" stroke="midnightblue" d="M2951.44,-168.9C2553.36,-160.676 757.203,-123.41 729,-120 717.559,-118.617 705.434,-116.43 693.916,-114"/>
<polygon fill="midnightblue" stroke="midnightblue" points="2951.63,-172.405 2961.7,-169.112 2951.77,-165.406 2951.63,-172.405"/>
</g>
<!-- Node12 -->
<g id="node12" class="node"><title>Node12</title>
<g id="a_node12"><a xlink:href="EnemyType01Entity_8cpp.html" target="_top" xlink:title="src/Entities/EntityConstructor\l/EnemyType01Entity/EnemyType01Entity.cpp">
<polygon fill="none" stroke="black" points="737.5,-84 737.5,-114 964.5,-114 964.5,-84 737.5,-84"/>
<text text-anchor="start" x="745.5" y="-102" font-family="Helvetica,sans-Serif" font-size="10.00">src/Entities/EntityConstructor</text>
<text text-anchor="middle" x="851" y="-91" font-family="Helvetica,sans-Serif" font-size="10.00">/EnemyType01Entity/EnemyType01Entity.cpp</text>
</a>
</g>
</g>
<!-- Node5&#45;&gt;Node12 -->
<g id="edge11" class="edge"><title>Node5&#45;&gt;Node12</title>
<path fill="none" stroke="midnightblue" d="M2951.61,-168.895C2589.3,-161.342 1074.06,-129.32 974,-120 958.706,-118.575 942.434,-116.403 926.903,-114.006"/>
<polygon fill="midnightblue" stroke="midnightblue" points="2951.67,-172.397 2961.74,-169.106 2951.81,-165.398 2951.67,-172.397"/>
</g>
<!-- Node13 -->
<g id="node13" class="node"><title>Node13</title>
<g id="a_node13"><a xlink:href="EnemyType02Entity_8cpp.html" target="_top" xlink:title="src/Entities/EntityConstructor\l/EnemyType02Entity/EnemyType02Entity.cpp">
<polygon fill="none" stroke="black" points="982.5,-84 982.5,-114 1209.5,-114 1209.5,-84 982.5,-84"/>
<text text-anchor="start" x="990.5" y="-102" font-family="Helvetica,sans-Serif" font-size="10.00">src/Entities/EntityConstructor</text>
<text text-anchor="middle" x="1096" y="-91" font-family="Helvetica,sans-Serif" font-size="10.00">/EnemyType02Entity/EnemyType02Entity.cpp</text>
</a>
</g>
</g>
<!-- Node5&#45;&gt;Node13 -->
<g id="edge12" class="edge"><title>Node5&#45;&gt;Node13</title>
<path fill="none" stroke="midnightblue" d="M2951.55,-168.949C2627.95,-162.387 1392.81,-136.481 1219,-120 1203.82,-118.56 1187.67,-116.397 1172.23,-114.017"/>
<polygon fill="midnightblue" stroke="midnightblue" points="2951.7,-172.453 2961.77,-169.156 2951.84,-165.454 2951.7,-172.453"/>
</g>
<!-- Node14 -->
<g id="node14" class="node"><title>Node14</title>
<g id="a_node14"><a xlink:href="EnemyType03Entity_8cpp.html" target="_top" xlink:title="src/Entities/EntityConstructor\l/EnemyType03Entity/EnemyType03Entity.cpp">
<polygon fill="none" stroke="black" points="1227.5,-84 1227.5,-114 1454.5,-114 1454.5,-84 1227.5,-84"/>
<text text-anchor="start" x="1235.5" y="-102" font-family="Helvetica,sans-Serif" font-size="10.00">src/Entities/EntityConstructor</text>
<text text-anchor="middle" x="1341" y="-91" font-family="Helvetica,sans-Serif" font-size="10.00">/EnemyType03Entity/EnemyType03Entity.cpp</text>
</a>
</g>
</g>
<!-- Node5&#45;&gt;Node14 -->
<g id="edge13" class="edge"><title>Node5&#45;&gt;Node14</title>
<path fill="none" stroke="midnightblue" d="M2951.77,-168.594C2657.09,-161.24 1612.49,-134.408 1464,-120 1448.93,-118.537 1432.9,-116.379 1417.57,-114.016"/>
<polygon fill="midnightblue" stroke="midnightblue" points="2951.85,-172.097 2961.94,-168.847 2952.03,-165.099 2951.85,-172.097"/>
</g>
<!-- Node15 -->
<g id="node15" class="node"><title>Node15</title>
<g id="a_node15"><a xlink:href="GameBackgroundEntity_8cpp.html" target="_top" xlink:title="src/Entities/EntityConstructor\l/GameBackgroundEntity/GameBackground\lEntity.cpp">
<polygon fill="none" stroke="black" points="1473,-78.5 1473,-119.5 1695,-119.5 1695,-78.5 1473,-78.5"/>
<text text-anchor="start" x="1481" y="-107.5" font-family="Helvetica,sans-Serif" font-size="10.00">src/Entities/EntityConstructor</text>
<text text-anchor="start" x="1481" y="-96.5" font-family="Helvetica,sans-Serif" font-size="10.00">/GameBackgroundEntity/GameBackground</text>
<text text-anchor="middle" x="1584" y="-85.5" font-family="Helvetica,sans-Serif" font-size="10.00">Entity.cpp</text>
</a>
</g>
</g>
<!-- Node5&#45;&gt;Node15 -->
<g id="edge14" class="edge"><title>Node5&#45;&gt;Node15</title>
<path fill="none" stroke="midnightblue" d="M2951.62,-168.828C2706.53,-163.331 1949.23,-144.743 1705,-120 1701.72,-119.667 1698.39,-119.302 1695.03,-118.908"/>
<polygon fill="midnightblue" stroke="midnightblue" points="2951.78,-172.332 2961.86,-169.057 2951.94,-165.334 2951.78,-172.332"/>
</g>
<!-- Node16 -->
<g id="node16" class="node"><title>Node16</title>
<g id="a_node16"><a xlink:href="PlanetEntity_8cpp.html" target="_top" xlink:title="src/Entities/EntityConstructor\l/PlanetEntity/PlanetEntity.cpp">
<polygon fill="none" stroke="black" points="1713.5,-84 1713.5,-114 1868.5,-114 1868.5,-84 1713.5,-84"/>
<text text-anchor="start" x="1721.5" y="-102" font-family="Helvetica,sans-Serif" font-size="10.00">src/Entities/EntityConstructor</text>
<text text-anchor="middle" x="1791" y="-91" font-family="Helvetica,sans-Serif" font-size="10.00">/PlanetEntity/PlanetEntity.cpp</text>
</a>
</g>
</g>
<!-- Node5&#45;&gt;Node16 -->
<g id="edge15" class="edge"><title>Node5&#45;&gt;Node16</title>
<path fill="none" stroke="midnightblue" d="M2951.55,-168.942C2728.31,-164.158 2086.27,-148.268 1878,-120 1867.25,-118.541 1855.87,-116.384 1845.02,-114.021"/>
<polygon fill="midnightblue" stroke="midnightblue" points="2951.79,-172.447 2961.86,-169.161 2951.94,-165.449 2951.79,-172.447"/>
</g>
<!-- Node17 -->
<g id="node17" class="node"><title>Node17</title>
<g id="a_node17"><a xlink:href="PlanetRingEntity_8cpp.html" target="_top" xlink:title="src/Entities/EntityConstructor\l/PlanetRingEntity/PlanetRingEntity.cpp">
<polygon fill="none" stroke="black" points="1887,-84 1887,-114 2083,-114 2083,-84 1887,-84"/>
<text text-anchor="start" x="1895" y="-102" font-family="Helvetica,sans-Serif" font-size="10.00">src/Entities/EntityConstructor</text>
<text text-anchor="middle" x="1985" y="-91" font-family="Helvetica,sans-Serif" font-size="10.00">/PlanetRingEntity/PlanetRingEntity.cpp</text>
</a>
</g>
</g>
<!-- Node5&#45;&gt;Node17 -->
<g id="edge16" class="edge"><title>Node5&#45;&gt;Node17</title>
<path fill="none" stroke="midnightblue" d="M2951.52,-169.7C2790.88,-167.298 2410.04,-157.748 2093,-120 2080.12,-118.467 2066.47,-116.337 2053.36,-114.036"/>
<polygon fill="midnightblue" stroke="midnightblue" points="2951.73,-173.203 2961.78,-169.848 2951.83,-166.204 2951.73,-173.203"/>
</g>
<!-- Node18 -->
<g id="node18" class="node"><title>Node18</title>
<g id="a_node18"><a xlink:href="PlayerEntity_8cpp.html" target="_top" xlink:title="src/Entities/EntityConstructor\l/PlayerEntity/PlayerEntity.cpp">
<polygon fill="none" stroke="black" points="2101.5,-84 2101.5,-114 2256.5,-114 2256.5,-84 2101.5,-84"/>
<text text-anchor="start" x="2109.5" y="-102" font-family="Helvetica,sans-Serif" font-size="10.00">src/Entities/EntityConstructor</text>
<text text-anchor="middle" x="2179" y="-91" font-family="Helvetica,sans-Serif" font-size="10.00">/PlayerEntity/PlayerEntity.cpp</text>
</a>
</g>
</g>
<!-- Node5&#45;&gt;Node18 -->
<g id="edge17" class="edge"><title>Node5&#45;&gt;Node18</title>
<path fill="none" stroke="midnightblue" d="M2951.69,-169.458C2813.42,-166.69 2514.9,-156.607 2266,-120 2255.57,-118.467 2244.55,-116.337 2233.98,-114.035"/>
<polygon fill="midnightblue" stroke="midnightblue" points="2951.7,-172.959 2961.77,-169.652 2951.84,-165.96 2951.7,-172.959"/>
</g>
<!-- Node19 -->
<g id="node19" class="node"><title>Node19</title>
<g id="a_node19"><a xlink:href="PlayerTwoEntity_8cpp.html" target="_top" xlink:title="src/Entities/EntityConstructor\l/PlayerTwoEntity/PlayerTwoEntity.cpp">
<polygon fill="none" stroke="black" points="2274.5,-84 2274.5,-114 2461.5,-114 2461.5,-84 2274.5,-84"/>
<text text-anchor="start" x="2282.5" y="-102" font-family="Helvetica,sans-Serif" font-size="10.00">src/Entities/EntityConstructor</text>
<text text-anchor="middle" x="2368" y="-91" font-family="Helvetica,sans-Serif" font-size="10.00">/PlayerTwoEntity/PlayerTwoEntity.cpp</text>
</a>
</g>
</g>
<!-- Node5&#45;&gt;Node19 -->
<g id="edge18" class="edge"><title>Node5&#45;&gt;Node19</title>
<path fill="none" stroke="midnightblue" d="M2951.59,-165.987C2843.59,-159.124 2641.73,-144.238 2471,-120 2459.28,-118.336 2446.87,-116.227 2434.87,-114.007"/>
<polygon fill="midnightblue" stroke="midnightblue" points="2951.55,-169.491 2961.75,-166.626 2951.99,-162.505 2951.55,-169.491"/>
</g>
<!-- Node20 -->
<g id="node20" class="node"><title>Node20</title>
<g id="a_node20"><a xlink:href="StarsEntity_8cpp.html" target="_top" xlink:title="src/Entities/EntityConstructor\l/StarsEntity/StarsEntity.cpp">
<polygon fill="none" stroke="black" points="2479.5,-84 2479.5,-114 2634.5,-114 2634.5,-84 2479.5,-84"/>
<text text-anchor="start" x="2487.5" y="-102" font-family="Helvetica,sans-Serif" font-size="10.00">src/Entities/EntityConstructor</text>
<text text-anchor="middle" x="2557" y="-91" font-family="Helvetica,sans-Serif" font-size="10.00">/StarsEntity/StarsEntity.cpp</text>
</a>
</g>
</g>
<!-- Node5&#45;&gt;Node20 -->
<g id="edge19" class="edge"><title>Node5&#45;&gt;Node20</title>
<path fill="none" stroke="midnightblue" d="M2951.71,-162.559C2873.73,-154.032 2750.04,-139.097 2644,-120 2634.39,-118.269 2624.24,-116.179 2614.4,-114.011"/>
<polygon fill="midnightblue" stroke="midnightblue" points="2951.61,-166.069 2961.93,-163.668 2952.37,-159.11 2951.61,-166.069"/>
</g>
<!-- Node21 -->
<g id="node21" class="node"><title>Node21</title>
<g id="a_node21"><a xlink:href="TestBackground_8cpp.html" target="_top" xlink:title="src/Entities/EntityConstructor\l/TestBackground/TestBackground.cpp">
<polygon fill="none" stroke="black" points="2653,-84 2653,-114 2847,-114 2847,-84 2653,-84"/>
<text text-anchor="start" x="2661" y="-102" font-family="Helvetica,sans-Serif" font-size="10.00">src/Entities/EntityConstructor</text>
<text text-anchor="middle" x="2750" y="-91" font-family="Helvetica,sans-Serif" font-size="10.00">/TestBackground/TestBackground.cpp</text>
</a>
</g>
</g>
<!-- Node5&#45;&gt;Node21 -->
<g id="edge20" class="edge"><title>Node5&#45;&gt;Node21</title>
<path fill="none" stroke="midnightblue" d="M2963.58,-153.97C2915.67,-141.862 2851.33,-125.605 2805.83,-114.107"/>
<polygon fill="midnightblue" stroke="midnightblue" points="2962.99,-157.431 2973.55,-156.487 2964.71,-150.644 2962.99,-157.431"/>
</g>
<!-- Node22 -->
<g id="node22" class="node"><title>Node22</title>
<g id="a_node22"><a xlink:href="TestEntity_8cpp.html" target="_top" xlink:title="src/Entities/EntityConstructor\l/TestEntity/TestEntity.cpp">
<polygon fill="none" stroke="black" points="2865.5,-84 2865.5,-114 3020.5,-114 3020.5,-84 2865.5,-84"/>
<text text-anchor="start" x="2873.5" y="-102" font-family="Helvetica,sans-Serif" font-size="10.00">src/Entities/EntityConstructor</text>
<text text-anchor="middle" x="2943" y="-91" font-family="Helvetica,sans-Serif" font-size="10.00">/TestEntity/TestEntity.cpp</text>
</a>
</g>
</g>
<!-- Node5&#45;&gt;Node22 -->
<g id="edge21" class="edge"><title>Node5&#45;&gt;Node22</title>
<path fill="none" stroke="midnightblue" d="M3003.73,-149.788C2989.68,-138.266 2972.56,-124.233 2960.08,-114.005"/>
<polygon fill="midnightblue" stroke="midnightblue" points="3001.64,-152.6 3011.6,-156.233 3006.08,-147.187 3001.64,-152.6"/>
</g>
<!-- Node23 -->
<g id="node23" class="node"><title>Node23</title>
<g id="a_node23"><a xlink:href="TestEntity2_8cpp.html" target="_top" xlink:title="src/Entities/EntityConstructor\l/TestEntity2/TestEntity2.cpp">
<polygon fill="none" stroke="black" points="3038.5,-84 3038.5,-114 3193.5,-114 3193.5,-84 3038.5,-84"/>
<text text-anchor="start" x="3046.5" y="-102" font-family="Helvetica,sans-Serif" font-size="10.00">src/Entities/EntityConstructor</text>
<text text-anchor="middle" x="3116" y="-91" font-family="Helvetica,sans-Serif" font-size="10.00">/TestEntity2/TestEntity2.cpp</text>
</a>
</g>
</g>
<!-- Node5&#45;&gt;Node23 -->
<g id="edge22" class="edge"><title>Node5&#45;&gt;Node23</title>
<path fill="none" stroke="midnightblue" d="M3054.56,-149.788C3068.78,-138.266 3086.1,-124.233 3098.72,-114.005"/>
<polygon fill="midnightblue" stroke="midnightblue" points="3052.17,-147.218 3046.61,-156.233 3056.58,-152.657 3052.17,-147.218"/>
</g>
<!-- Node24 -->
<g id="node24" class="node"><title>Node24</title>
<g id="a_node24"><a xlink:href="WallSideEntity_8cpp.html" target="_top" xlink:title="src/Entities/EntityConstructor\l/WallSideEntity/WallSideEntity.cpp">
<polygon fill="none" stroke="black" points="3211.5,-84 3211.5,-114 3384.5,-114 3384.5,-84 3211.5,-84"/>
<text text-anchor="start" x="3219.5" y="-102" font-family="Helvetica,sans-Serif" font-size="10.00">src/Entities/EntityConstructor</text>
<text text-anchor="middle" x="3298" y="-91" font-family="Helvetica,sans-Serif" font-size="10.00">/WallSideEntity/WallSideEntity.cpp</text>
</a>
</g>
</g>
<!-- Node5&#45;&gt;Node24 -->
<g id="edge23" class="edge"><title>Node5&#45;&gt;Node24</title>
<path fill="none" stroke="midnightblue" d="M3092.36,-153.894C3138.53,-141.794 3200.39,-125.581 3244.17,-114.107"/>
<polygon fill="midnightblue" stroke="midnightblue" points="3091.25,-150.566 3082.47,-156.487 3093.03,-157.338 3091.25,-150.566"/>
</g>
<!-- Node25 -->
<g id="node25" class="node"><title>Node25</title>
<g id="a_node25"><a xlink:href="EntityFactory_8cpp.html" target="_top" xlink:title="src/Entities/Factories\l/EntityFactory.cpp">
<polygon fill="none" stroke="black" points="3402.5,-84 3402.5,-114 3517.5,-114 3517.5,-84 3402.5,-84"/>
<text text-anchor="start" x="3410.5" y="-102" font-family="Helvetica,sans-Serif" font-size="10.00">src/Entities/Factories</text>
<text text-anchor="middle" x="3460" y="-91" font-family="Helvetica,sans-Serif" font-size="10.00">/EntityFactory.cpp</text>
</a>
</g>
</g>
<!-- Node5&#45;&gt;Node25 -->
<g id="edge24" class="edge"><title>Node5&#45;&gt;Node25</title>
<path fill="none" stroke="midnightblue" d="M3106.37,-163.352C3180.68,-155.652 3295.83,-141.527 3394,-120 3401.6,-118.333 3409.6,-116.223 3417.3,-114.003"/>
<polygon fill="midnightblue" stroke="midnightblue" points="3105.75,-159.897 3096.16,-164.396 3106.46,-166.86 3105.75,-159.897"/>
</g>
<!-- Node26 -->
<g id="node26" class="node"><title>Node26</title>
<g id="a_node26"><a xlink:href="AnimationSystem_8hpp.html" target="_top" xlink:title="src/Systems/SystemConstructor\l/AnimationSystem/AnimationSystem.hpp">
<polygon fill="none" stroke="black" points="4597.5,-84 4597.5,-114 4812.5,-114 4812.5,-84 4597.5,-84"/>
<text text-anchor="start" x="4605.5" y="-102" font-family="Helvetica,sans-Serif" font-size="10.00">src/Systems/SystemConstructor</text>
<text text-anchor="middle" x="4705" y="-91" font-family="Helvetica,sans-Serif" font-size="10.00">/AnimationSystem/AnimationSystem.hpp</text>
</a>
</g>
</g>
<!-- Node5&#45;&gt;Node26 -->
<g id="edge25" class="edge"><title>Node5&#45;&gt;Node26</title>
<path fill="none" stroke="midnightblue" d="M3106.37,-169.414C3379.32,-165.361 4296.56,-149.799 4589,-120 4603.23,-118.55 4618.35,-116.397 4632.81,-114.035"/>
<polygon fill="midnightblue" stroke="midnightblue" points="3106.11,-165.917 3096.16,-169.565 3106.21,-172.917 3106.11,-165.917"/>
</g>
<!-- Node29 -->
<g id="node29" class="node"><title>Node29</title>
<g id="a_node29"><a xlink:href="DisplaySystem_8cpp.html" target="_top" xlink:title="src/Systems/SystemConstructor\l/DisplaySystem/DisplaySystem.cpp">
<polygon fill="none" stroke="black" points="4830.5,-84 4830.5,-114 5015.5,-114 5015.5,-84 4830.5,-84"/>
<text text-anchor="start" x="4838.5" y="-102" font-family="Helvetica,sans-Serif" font-size="10.00">src/Systems/SystemConstructor</text>
<text text-anchor="middle" x="4923" y="-91" font-family="Helvetica,sans-Serif" font-size="10.00">/DisplaySystem/DisplaySystem.cpp</text>
</a>
</g>
</g>
<!-- Node5&#45;&gt;Node29 -->
<g id="edge28" class="edge"><title>Node5&#45;&gt;Node29</title>
<path fill="none" stroke="midnightblue" d="M3106.65,-170.043C3405.56,-168.015 4482.14,-158.164 4822,-120 4834.61,-118.584 4848,-116.415 4860.76,-114.019"/>
<polygon fill="midnightblue" stroke="midnightblue" points="3106.32,-166.545 3096.34,-170.112 3106.37,-173.545 3106.32,-166.545"/>
</g>
<!-- Node30 -->
<g id="node30" class="node"><title>Node30</title>
<g id="a_node30"><a xlink:href="EnemiesMovementSystem_8cpp.html" target="_top" xlink:title="src/Systems/SystemConstructor\l/EnemiesMovementSystem/EnemiesMovement\lSystem.cpp">
<polygon fill="none" stroke="black" points="4139,-0.5 4139,-41.5 4383,-41.5 4383,-0.5 4139,-0.5"/>
<text text-anchor="start" x="4147" y="-29.5" font-family="Helvetica,sans-Serif" font-size="10.00">src/Systems/SystemConstructor</text>
<text text-anchor="start" x="4147" y="-18.5" font-family="Helvetica,sans-Serif" font-size="10.00">/EnemiesMovementSystem/EnemiesMovement</text>
<text text-anchor="middle" x="4261" y="-7.5" font-family="Helvetica,sans-Serif" font-size="10.00">System.cpp</text>
</a>
</g>
</g>
<!-- Node5&#45;&gt;Node30 -->
<g id="edge29" class="edge"><title>Node5&#45;&gt;Node30</title>
<path fill="none" stroke="midnightblue" d="M3106.36,-170.447C3381.42,-169.882 4298.04,-164.647 4341,-120 4353.94,-106.549 4349.62,-94.5569 4341,-78 4332.94,-62.5114 4318.41,-50.421 4303.93,-41.5016"/>
<polygon fill="midnightblue" stroke="midnightblue" points="3106.06,-166.947 3096.07,-170.466 3106.07,-173.947 3106.06,-166.947"/>
</g>
<!-- Node31 -->
<g id="node31" class="node"><title>Node31</title>
<g id="a_node31"><a xlink:href="EnemiesMovementSystem_8hpp.html" target="_top" xlink:title="src/Systems/SystemConstructor\l/EnemiesMovementSystem/EnemiesMovement\lSystem.hpp">
<polygon fill="none" stroke="black" points="4088,-78.5 4088,-119.5 4332,-119.5 4332,-78.5 4088,-78.5"/>
<text text-anchor="start" x="4096" y="-107.5" font-family="Helvetica,sans-Serif" font-size="10.00">src/Systems/SystemConstructor</text>
<text text-anchor="start" x="4096" y="-96.5" font-family="Helvetica,sans-Serif" font-size="10.00">/EnemiesMovementSystem/EnemiesMovement</text>
<text text-anchor="middle" x="4210" y="-85.5" font-family="Helvetica,sans-Serif" font-size="10.00">System.hpp</text>
</a>
</g>
</g>
<!-- Node5&#45;&gt;Node31 -->
<g id="edge30" class="edge"><title>Node5&#45;&gt;Node31</title>
<path fill="none" stroke="midnightblue" d="M3106.21,-169.518C3280.24,-166.706 3716.23,-156.318 4079,-120 4081.86,-119.714 4084.76,-119.407 4087.67,-119.084"/>
<polygon fill="midnightblue" stroke="midnightblue" points="3106.07,-166.019 3096.13,-169.677 3106.18,-173.019 3106.07,-166.019"/>
</g>
<!-- Node32 -->
<g id="node32" class="node"><title>Node32</title>
<g id="a_node32"><a xlink:href="MovementSystem_8hpp.html" target="_top" xlink:title="src/Systems/SystemConstructor\l/MovementSystem/MovementSystem.hpp">
<polygon fill="none" stroke="black" points="3850.5,-84 3850.5,-114 4069.5,-114 4069.5,-84 3850.5,-84"/>
<text text-anchor="start" x="3858.5" y="-102" font-family="Helvetica,sans-Serif" font-size="10.00">src/Systems/SystemConstructor</text>
<text text-anchor="middle" x="3960" y="-91" font-family="Helvetica,sans-Serif" font-size="10.00">/MovementSystem/MovementSystem.hpp</text>
</a>
</g>
</g>
<!-- Node5&#45;&gt;Node32 -->
<g id="edge33" class="edge"><title>Node5&#45;&gt;Node32</title>
<path fill="none" stroke="midnightblue" d="M3106.2,-168.172C3250.11,-163.278 3568.97,-149.818 3836,-120 3850.41,-118.391 3865.7,-116.268 3880.44,-114.007"/>
<polygon fill="midnightblue" stroke="midnightblue" points="3106.02,-164.676 3096.15,-168.51 3106.26,-171.672 3106.02,-164.676"/>
</g>
<!-- Node34 -->
<g id="node34" class="node"><title>Node34</title>
<g id="a_node34"><a xlink:href="MovementSystem_8cpp.html" target="_top" xlink:title="src/Systems/SystemConstructor\l/MovementSystem/MovementSystem.cpp">
<polygon fill="none" stroke="black" points="3733,-6 3733,-36 3951,-36 3951,-6 3733,-6"/>
<text text-anchor="start" x="3741" y="-24" font-family="Helvetica,sans-Serif" font-size="10.00">src/Systems/SystemConstructor</text>
<text text-anchor="middle" x="3842" y="-13" font-family="Helvetica,sans-Serif" font-size="10.00">/MovementSystem/MovementSystem.cpp</text>
</a>
</g>
</g>
<!-- Node5&#45;&gt;Node34 -->
<g id="edge37" class="edge"><title>Node5&#45;&gt;Node34</title>
<path fill="none" stroke="midnightblue" d="M3106.24,-170.083C3291.06,-168.436 3747.58,-160.289 3803,-120 3830.25,-100.188 3838.48,-58.2287 3840.95,-36.1939"/>
<polygon fill="midnightblue" stroke="midnightblue" points="3106.02,-166.584 3096.05,-170.169 3106.08,-173.584 3106.02,-166.584"/>
</g>
<!-- Node35 -->
<g id="node35" class="node"><title>Node35</title>
<g id="a_node35"><a xlink:href="ParallaxSystem_8hpp.html" target="_top" xlink:title="src/Systems/SystemConstructor\l/ParallaxSystem/ParallaxSystem.hpp">
<polygon fill="none" stroke="black" points="4388.5,-84 4388.5,-114 4579.5,-114 4579.5,-84 4388.5,-84"/>
<text text-anchor="start" x="4396.5" y="-102" font-family="Helvetica,sans-Serif" font-size="10.00">src/Systems/SystemConstructor</text>
<text text-anchor="middle" x="4484" y="-91" font-family="Helvetica,sans-Serif" font-size="10.00">/ParallaxSystem/ParallaxSystem.hpp</text>
</a>
</g>
</g>
<!-- Node5&#45;&gt;Node35 -->
<g id="edge38" class="edge"><title>Node5&#45;&gt;Node35</title>
<path fill="none" stroke="midnightblue" d="M3106.77,-169.036C3354.87,-164.138 4125.82,-147.082 4374,-120 4387.41,-118.537 4401.65,-116.394 4415.27,-114.048"/>
<polygon fill="midnightblue" stroke="midnightblue" points="3106.33,-165.544 3096.4,-169.24 3106.47,-172.543 3106.33,-165.544"/>
</g>
<!-- Node40 -->
<g id="node40" class="node"><title>Node40</title>
<g id="a_node40"><a xlink:href="PlayerMovementSystem_8cpp.html" target="_top" xlink:title="src/Systems/SystemConstructor\l/PlayerMovementSystem/PlayerMovement\lSystem.cpp">
<polygon fill="none" stroke="black" points="3395,-0.5 3395,-41.5 3615,-41.5 3615,-0.5 3395,-0.5"/>
<text text-anchor="start" x="3403" y="-29.5" font-family="Helvetica,sans-Serif" font-size="10.00">src/Systems/SystemConstructor</text>
<text text-anchor="start" x="3403" y="-18.5" font-family="Helvetica,sans-Serif" font-size="10.00">/PlayerMovementSystem/PlayerMovement</text>
<text text-anchor="middle" x="3505" y="-7.5" font-family="Helvetica,sans-Serif" font-size="10.00">System.cpp</text>
</a>
</g>
</g>
<!-- Node5&#45;&gt;Node40 -->
<g id="edge44" class="edge"><title>Node5&#45;&gt;Node40</title>
<path fill="none" stroke="midnightblue" d="M3106.12,-168.253C3238.94,-163.582 3499.35,-150.594 3527,-120 3546.41,-98.5244 3531.4,-63.6938 3518.44,-41.8578"/>
<polygon fill="midnightblue" stroke="midnightblue" points="3105.88,-164.759 3096.01,-168.602 3106.12,-171.755 3105.88,-164.759"/>
</g>
<!-- Node41 -->
<g id="node41" class="node"><title>Node41</title>
<g id="a_node41"><a xlink:href="PlayerMovementSystem_8hpp.html" target="_top" xlink:title="src/Systems/SystemConstructor\l/PlayerMovementSystem/PlayerMovement\lSystem.hpp">
<polygon fill="none" stroke="black" points="3574,-78.5 3574,-119.5 3794,-119.5 3794,-78.5 3574,-78.5"/>
<text text-anchor="start" x="3582" y="-107.5" font-family="Helvetica,sans-Serif" font-size="10.00">src/Systems/SystemConstructor</text>
<text text-anchor="start" x="3582" y="-96.5" font-family="Helvetica,sans-Serif" font-size="10.00">/PlayerMovementSystem/PlayerMovement</text>
<text text-anchor="middle" x="3684" y="-85.5" font-family="Helvetica,sans-Serif" font-size="10.00">System.hpp</text>
</a>
</g>
</g>
<!-- Node5&#45;&gt;Node41 -->
<g id="edge45" class="edge"><title>Node5&#45;&gt;Node41</title>
<path fill="none" stroke="midnightblue" d="M3106.27,-164.738C3209.78,-156.655 3399.1,-140.604 3560,-120 3564.54,-119.418 3569.17,-118.798 3573.85,-118.148"/>
<polygon fill="midnightblue" stroke="midnightblue" points="3105.91,-161.254 3096.21,-165.518 3106.46,-168.233 3105.91,-161.254"/>
</g>
<!-- Node27 -->
<g id="node27" class="node"><title>Node27</title>
<g id="a_node27"><a xlink:href="GameScene_8cpp.html" target="_top" xlink:title="src/Scenes/GameScene.cpp">
<polygon fill="none" stroke="black" points="3969,-11.5 3969,-30.5 4121,-30.5 4121,-11.5 3969,-11.5"/>
<text text-anchor="middle" x="4045" y="-18.5" font-family="Helvetica,sans-Serif" font-size="10.00">src/Scenes/GameScene.cpp</text>
</a>
</g>
</g>
<!-- Node26&#45;&gt;Node27 -->
<g id="edge26" class="edge"><title>Node26&#45;&gt;Node27</title>
<path fill="none" stroke="midnightblue" d="M4619.77,-82.3823C4609.43,-80.7595 4598.99,-79.2501 4589,-78 4385.96,-52.5891 4332.18,-73.5257 4130,-42 4112.03,-39.1973 4092.23,-34.6276 4076.26,-30.5633"/>
<polygon fill="midnightblue" stroke="midnightblue" points="4619.22,-85.838 4629.65,-83.9681 4620.33,-78.9266 4619.22,-85.838"/>
</g>
<!-- Node28 -->
<g id="node28" class="node"><title>Node28</title>
<g id="a_node28"><a xlink:href="AnimationSystem_8cpp.html" target="_top" xlink:title="src/Systems/SystemConstructor\l/AnimationSystem/AnimationSystem.cpp">
<polygon fill="none" stroke="black" points="5153,-6 5153,-36 5367,-36 5367,-6 5153,-6"/>
<text text-anchor="start" x="5161" y="-24" font-family="Helvetica,sans-Serif" font-size="10.00">src/Systems/SystemConstructor</text>
<text text-anchor="middle" x="5260" y="-13" font-family="Helvetica,sans-Serif" font-size="10.00">/AnimationSystem/AnimationSystem.cpp</text>
</a>
</g>
</g>
<!-- Node26&#45;&gt;Node28 -->
<g id="edge27" class="edge"><title>Node26&#45;&gt;Node28</title>
<path fill="none" stroke="midnightblue" d="M4793.3,-82.3454C4802.97,-80.7978 4812.69,-79.3155 4822,-78 4964.59,-57.8596 5001.43,-62.2425 5144,-42 5156.44,-40.2333 5169.6,-38.1612 5182.42,-36.0324"/>
<polygon fill="midnightblue" stroke="midnightblue" points="4792.57,-78.9192 4783.26,-83.9777 4793.69,-85.8286 4792.57,-78.9192"/>
</g>
<!-- Node31&#45;&gt;Node27 -->
<g id="edge31" class="edge"><title>Node31&#45;&gt;Node27</title>
<path fill="none" stroke="midnightblue" d="M4158.19,-74.1357C4125.92,-59.2729 4086.35,-41.0454 4063.57,-30.552"/>
<polygon fill="midnightblue" stroke="midnightblue" points="4156.96,-77.4234 4167.51,-78.4281 4159.89,-71.0655 4156.96,-77.4234"/>
</g>
<!-- Node31&#45;&gt;Node30 -->
<g id="edge32" class="edge"><title>Node31&#45;&gt;Node30</title>
<path fill="none" stroke="midnightblue" d="M4228.76,-70.0476C4235.12,-60.5657 4242.09,-50.1845 4247.91,-41.5056"/>
<polygon fill="midnightblue" stroke="midnightblue" points="4225.8,-68.1742 4223.13,-78.4281 4231.61,-72.0747 4225.8,-68.1742"/>
</g>
<!-- Node32&#45;&gt;Node27 -->
<g id="edge35" class="edge"><title>Node32&#45;&gt;Node27</title>
<path fill="none" stroke="midnightblue" d="M3983.9,-76.6293C4000.97,-61.37 4023.02,-41.654 4035.42,-30.5635"/>
<polygon fill="midnightblue" stroke="midnightblue" points="3981.11,-74.4304 3975.99,-83.705 3985.78,-79.6487 3981.11,-74.4304"/>
</g>
<!-- Node33 -->
<g id="node33" class="node"><title>Node33</title>
<g id="a_node33"><a xlink:href="Rtype_8cpp.html" target="_top" xlink:title="src/Rtype.cpp">
<polygon fill="none" stroke="black" points="3633.5,-11.5 3633.5,-30.5 3714.5,-30.5 3714.5,-11.5 3633.5,-11.5"/>
<text text-anchor="middle" x="3674" y="-18.5" font-family="Helvetica,sans-Serif" font-size="10.00">src/Rtype.cpp</text>
</a>
</g>
</g>
<!-- Node32&#45;&gt;Node33 -->
<g id="edge34" class="edge"><title>Node32&#45;&gt;Node33</title>
<path fill="none" stroke="midnightblue" d="M3878.88,-81.8489C3832.98,-71.9406 3774.77,-58.0811 3724,-42 3713.84,-38.7817 3702.81,-34.4637 3693.71,-30.6635"/>
<polygon fill="midnightblue" stroke="midnightblue" points="3878.27,-85.2969 3888.78,-83.9654 3879.73,-78.4516 3878.27,-85.2969"/>
</g>
<!-- Node32&#45;&gt;Node34 -->
<g id="edge36" class="edge"><title>Node32&#45;&gt;Node34</title>
<path fill="none" stroke="midnightblue" d="M3929.67,-78.467C3909.07,-65.1993 3882.31,-47.9633 3863.8,-36.0413"/>
<polygon fill="midnightblue" stroke="midnightblue" points="3927.78,-81.4108 3938.08,-83.8831 3931.57,-75.5258 3927.78,-81.4108"/>
</g>
<!-- Node35&#45;&gt;Node27 -->
<g id="edge41" class="edge"><title>Node35&#45;&gt;Node27</title>
<path fill="none" stroke="midnightblue" d="M4378.03,-83.3342C4307.5,-73.0593 4212.93,-58.2917 4130,-42 4113.04,-38.6684 4094.33,-34.3379 4078.79,-30.5589"/>
<polygon fill="midnightblue" stroke="midnightblue" points="4377.86,-86.8457 4388.25,-84.8172 4378.86,-79.9182 4377.86,-86.8457"/>
</g>
<!-- Node36 -->
<g id="node36" class="node"><title>Node36</title>
<g id="a_node36"><a xlink:href="ChooseRoomScene_8cpp.html" target="_top" xlink:title="src/Scenes/ChooseRoomScene.cpp">
<polygon fill="none" stroke="black" points="4401.5,-11.5 4401.5,-30.5 4586.5,-30.5 4586.5,-11.5 4401.5,-11.5"/>
<text text-anchor="middle" x="4494" y="-18.5" font-family="Helvetica,sans-Serif" font-size="10.00">src/Scenes/ChooseRoomScene.cpp</text>
</a>
</g>
</g>
<!-- Node35&#45;&gt;Node36 -->
<g id="edge39" class="edge"><title>Node35&#45;&gt;Node36</title>
<path fill="none" stroke="midnightblue" d="M4487.2,-73.6654C4489.15,-58.8956 4491.51,-40.9482 4492.87,-30.5635"/>
<polygon fill="midnightblue" stroke="midnightblue" points="4483.72,-73.3338 4485.88,-83.705 4490.66,-74.2471 4483.72,-73.3338"/>
</g>
<!-- Node37 -->
<g id="node37" class="node"><title>Node37</title>
<g id="a_node37"><a xlink:href="DefeatScene_8cpp.html" target="_top" xlink:title="src/Scenes/DefeatScene.cpp">
<polygon fill="none" stroke="black" points="4604.5,-11.5 4604.5,-30.5 4759.5,-30.5 4759.5,-11.5 4604.5,-11.5"/>
<text text-anchor="middle" x="4682" y="-18.5" font-family="Helvetica,sans-Serif" font-size="10.00">src/Scenes/DefeatScene.cpp</text>
</a>
</g>
</g>
<!-- Node35&#45;&gt;Node37 -->
<g id="edge40" class="edge"><title>Node35&#45;&gt;Node37</title>
<path fill="none" stroke="midnightblue" d="M4530.21,-80.2628C4570.86,-64.6579 4628.31,-42.6096 4659.58,-30.6061"/>
<polygon fill="midnightblue" stroke="midnightblue" points="4528.86,-77.032 4520.78,-83.8831 4531.37,-83.5671 4528.86,-77.032"/>
</g>
<!-- Node38 -->
<g id="node38" class="node"><title>Node38</title>
<g id="a_node38"><a xlink:href="MenuScene_8cpp.html" target="_top" xlink:title="src/Scenes/MenuScene.cpp">
<polygon fill="none" stroke="black" points="4777.5,-11.5 4777.5,-30.5 4926.5,-30.5 4926.5,-11.5 4777.5,-11.5"/>
<text text-anchor="middle" x="4852" y="-18.5" font-family="Helvetica,sans-Serif" font-size="10.00">src/Scenes/MenuScene.cpp</text>
</a>
</g>
</g>
<!-- Node35&#45;&gt;Node38 -->
<g id="edge42" class="edge"><title>Node35&#45;&gt;Node38</title>
<path fill="none" stroke="midnightblue" d="M4567.34,-82.0308C4637.2,-68.5697 4731.38,-50.2248 4769,-42 4785.07,-38.4861 4802.81,-34.2593 4817.75,-30.5985"/>
<polygon fill="midnightblue" stroke="midnightblue" points="4566.38,-78.6519 4557.22,-83.9797 4567.7,-85.5256 4566.38,-78.6519"/>
</g>
<!-- Node39 -->
<g id="node39" class="node"><title>Node39</title>
<g id="a_node39"><a xlink:href="ParallaxSystem_8cpp.html" target="_top" xlink:title="src/Systems/SystemConstructor\l/ParallaxSystem/ParallaxSystem.cpp">
<polygon fill="none" stroke="black" points="4945,-6 4945,-36 5135,-36 5135,-6 4945,-6"/>
<text text-anchor="start" x="4953" y="-24" font-family="Helvetica,sans-Serif" font-size="10.00">src/Systems/SystemConstructor</text>
<text text-anchor="middle" x="5040" y="-13" font-family="Helvetica,sans-Serif" font-size="10.00">/ParallaxSystem/ParallaxSystem.cpp</text>
</a>
</g>
</g>
<!-- Node35&#45;&gt;Node39 -->
<g id="edge43" class="edge"><title>Node35&#45;&gt;Node39</title>
<path fill="none" stroke="midnightblue" d="M4562.92,-82.2224C4571.7,-80.689 4580.53,-79.2438 4589,-78 4742.4,-55.4739 4782.62,-64.6616 4936,-42 4947.55,-40.2936 4959.77,-38.2031 4971.61,-36.0242"/>
<polygon fill="midnightblue" stroke="midnightblue" points="4562.28,-78.7819 4553.05,-83.9852 4563.51,-85.6729 4562.28,-78.7819"/>
</g>
<!-- Node41&#45;&gt;Node27 -->
<g id="edge47" class="edge"><title>Node41&#45;&gt;Node27</title>
<path fill="none" stroke="midnightblue" d="M3794.11,-76.4702C3844.72,-66.3662 3905.49,-53.9409 3960,-42 3976.44,-38.3994 3994.6,-34.1612 4009.9,-30.5151"/>
<polygon fill="midnightblue" stroke="midnightblue" points="3793.25,-73.0724 3784.12,-78.4592 3794.62,-79.9374 3793.25,-73.0724"/>
</g>
<!-- Node41&#45;&gt;Node33 -->
<g id="edge46" class="edge"><title>Node41&#45;&gt;Node33</title>
<path fill="none" stroke="midnightblue" d="M3680.11,-68.4511C3678.32,-54.8554 3676.33,-39.7393 3675.13,-30.552"/>
<polygon fill="midnightblue" stroke="midnightblue" points="3676.65,-68.9702 3681.42,-78.4281 3683.59,-68.0569 3676.65,-68.9702"/>
</g>
<!-- Node41&#45;&gt;Node40 -->
<g id="edge48" class="edge"><title>Node41&#45;&gt;Node40</title>
<path fill="none" stroke="midnightblue" d="M3628.58,-74.4689C3603.67,-63.8921 3574.62,-51.5572 3550.94,-41.5056"/>
<polygon fill="midnightblue" stroke="midnightblue" points="3627.33,-77.7416 3637.9,-78.4281 3630.07,-71.2983 3627.33,-77.7416"/>
</g>
</g>
</svg>
        <g id="navigator" transform="translate(0 0)" fill="#404254">
                <rect fill="#f2f5e9" fill-opacity="0.5" stroke="#606060" stroke-width=".5" x="0" y="0" width="60" height="60"/>
                <use id="zoomplus" xlink:href="#zoomPlus" x="17" y="9" onmousedown="handleZoom(evt,'in')"/>
                <use id="zoomminus" xlink:href="#zoomMin" x="42" y="9" onmousedown="handleZoom(evt,'out')"/>
                <use id="reset" xlink:href="#resetDef" x="30" y="36" onmousedown="handleReset()"/>
                <g id="arrowUp" xlink:href="#dirArrow" transform="translate(30 24)" onmousedown="handlePan(0,-1)">
                  <use xlink:href="#rim" fill="#404040">
                        <set attributeName="fill" to="#808080" begin="arrowUp.mouseover" end="arrowUp.mouseout"/>
                  </use>
                  <path fill="none" stroke="white" stroke-width="1.5" d="M0,-3.0v7 M-2.5,-0.5L0,-3.0L2.5,-0.5"/>
                </g>
                <g id="arrowRight" xlink:href="#dirArrow" transform="rotate(90) translate(36 -43)" onmousedown="handlePan(1,0)">
                  <use xlink:href="#rim" fill="#404040">
                        <set attributeName="fill" to="#808080" begin="arrowRight.mouseover" end="arrowRight.mouseout"/>
                  </use>
                  <path fill="none" stroke="white" stroke-width="1.5" d="M0,-3.0v7 M-2.5,-0.5L0,-3.0L2.5,-0.5"/>
                </g>
                <g id="arrowDown" xlink:href="#dirArrow" transform="rotate(180) translate(-30 -48)" onmousedown="handlePan(0,1)">
                  <use xlink:href="#rim" fill="#404040">
                        <set attributeName="fill" to="#808080" begin="arrowDown.mouseover" end="arrowDown.mouseout"/>
                  </use>
                  <path fill="none" stroke="white" stroke-width="1.5" d="M0,-3.0v7 M-2.5,-0.5L0,-3.0L2.5,-0.5"/>
                </g>
                <g id="arrowLeft" xlink:href="#dirArrow" transform="rotate(270) translate(-36 17)" onmousedown="handlePan(-1,0)">
                  <use xlink:href="#rim" fill="#404040">
                        <set attributeName="fill" to="#808080" begin="arrowLeft.mouseover" end="arrowLeft.mouseout"/>
                  </use>
                  <path fill="none" stroke="white" stroke-width="1.5" d="M0,-3.0v7 M-2.5,-0.5L0,-3.0L2.5,-0.5"/>
                </g>
        </g>
        <svg viewBox="0 0 15 15" width="100%" height="30px" preserveAspectRatio="xMaxYMin meet">
         <g id="arrow_out" transform="scale(0.3 0.3)">
          <a xlink:href="Motion_8hpp__dep__incl_org.svg" target="_base">
           <rect id="button" ry="5" rx="5" y="6" x="6" height="38" width="38"
                fill="#f2f5e9" fill-opacity="0.5" stroke="#606060" stroke-width="1.0"/>
           <path id="arrow"
             d="M 11.500037,31.436501 C 11.940474,20.09759 22.043105,11.32322 32.158766,21.979434 L 37.068811,17.246167 C 37.068811,17.246167 37.088388,32 37.088388,32 L 22.160133,31.978069 C 22.160133,31.978069 26.997745,27.140456 26.997745,27.140456 C 18.528582,18.264221 13.291696,25.230495 11.500037,31.436501 z"
             style="fill:#404040;"/>
          </a>
         </g>
        </svg>
</svg>
