<?xml version="1.0" encoding="UTF-8" standalone="no"?>
<!DOCTYPE svg PUBLIC "-//W3C//DTD SVG 1.1//EN"
 "http://www.w3.org/Graphics/SVG/1.1/DTD/svg11.dtd">
<!-- Generated by graphviz version 2.38.0 (20140413.2041)
 -->
<!-- Title: src/ResourceManager/Music.cpp Pages: 1 -->
<svg width="380pt" height="207pt"
 viewBox="0.00 0.00 379.50 207.00" xmlns="http://www.w3.org/2000/svg" xmlns:xlink="http://www.w3.org/1999/xlink">
<g id="graph0" class="graph" transform="scale(1 1) rotate(0) translate(4 203)">
<title>src/ResourceManager/Music.cpp</title>
<!-- Node1 -->
<g id="node1" class="node"><title>Node1</title>
<polygon fill="#bfbfbf" stroke="black" points="126,-168.5 126,-198.5 245,-198.5 245,-168.5 126,-168.5"/>
<text text-anchor="start" x="134" y="-186.5" font-family="Helvetica,sans-Serif" font-size="10.00">src/ResourceManager</text>
<text text-anchor="middle" x="185.5" y="-175.5" font-family="Helvetica,sans-Serif" font-size="10.00">/Music.cpp</text>
</g>
<!-- Node2 -->
<g id="node2" class="node"><title>Node2</title>
<g id="a_node2"><a xlink:href="Music_8hpp.html" target="_top" xlink:title="Music.hpp">
<polygon fill="none" stroke="black" points="101,-112.5 101,-131.5 166,-131.5 166,-112.5 101,-112.5"/>
<text text-anchor="middle" x="133.5" y="-119.5" font-family="Helvetica,sans-Serif" font-size="10.00">Music.hpp</text>
</a>
</g>
</g>
<!-- Node1&#45;&gt;Node2 -->
<g id="edge1" class="edge"><title>Node1&#45;&gt;Node2</title>
<path fill="none" stroke="midnightblue" d="M173.177,-168.399C165.543,-159.664 155.709,-148.413 147.742,-139.296"/>
<polygon fill="midnightblue" stroke="midnightblue" points="150.282,-136.884 141.066,-131.658 145.012,-141.491 150.282,-136.884"/>
</g>
<!-- Node5 -->
<g id="node5" class="node"><title>Node5</title>
<g id="a_node5"><a xlink:href="ECSExceptions_8hpp.html" target="_top" xlink:title="ECSExceptions.hpp">
<polygon fill="none" stroke="black" points="184,-112.5 184,-131.5 293,-131.5 293,-112.5 184,-112.5"/>
<text text-anchor="middle" x="238.5" y="-119.5" font-family="Helvetica,sans-Serif" font-size="10.00">ECSExceptions.hpp</text>
</a>
</g>
</g>
<!-- Node1&#45;&gt;Node5 -->
<g id="edge4" class="edge"><title>Node1&#45;&gt;Node5</title>
<path fill="none" stroke="midnightblue" d="M198.06,-168.399C205.841,-159.664 215.864,-148.413 223.984,-139.296"/>
<polygon fill="midnightblue" stroke="midnightblue" points="226.75,-141.453 230.788,-131.658 221.523,-136.797 226.75,-141.453"/>
</g>
<!-- Node3 -->
<g id="node3" class="node"><title>Node3</title>
<polygon fill="none" stroke="#bfbfbf" points="0,-56.5 0,-75.5 93,-75.5 93,-56.5 0,-56.5"/>
<text text-anchor="middle" x="46.5" y="-63.5" font-family="Helvetica,sans-Serif" font-size="10.00">SFML/Audio.hpp</text>
</g>
<!-- Node2&#45;&gt;Node3 -->
<g id="edge2" class="edge"><title>Node2&#45;&gt;Node3</title>
<path fill="none" stroke="midnightblue" d="M119.522,-112.324C105.95,-103.9 85.1198,-90.9709 69.175,-81.0741"/>
<polygon fill="midnightblue" stroke="midnightblue" points="70.7856,-77.9544 60.4434,-75.6545 67.094,-83.9019 70.7856,-77.9544"/>
</g>
<!-- Node4 -->
<g id="node4" class="node"><title>Node4</title>
<g id="a_node4"><a xlink:href="IAudio_8hpp.html" target="_top" xlink:title="IAudio.hpp">
<polygon fill="none" stroke="black" points="111,-56.5 111,-75.5 178,-75.5 178,-56.5 111,-56.5"/>
<text text-anchor="middle" x="144.5" y="-63.5" font-family="Helvetica,sans-Serif" font-size="10.00">IAudio.hpp</text>
</a>
</g>
</g>
<!-- Node2&#45;&gt;Node4 -->
<g id="edge3" class="edge"><title>Node2&#45;&gt;Node4</title>
<path fill="none" stroke="midnightblue" d="M135.316,-112.083C136.774,-104.927 138.871,-94.6353 140.693,-85.6911"/>
<polygon fill="midnightblue" stroke="midnightblue" points="144.151,-86.2485 142.717,-75.7511 137.292,-84.8512 144.151,-86.2485"/>
</g>
<!-- Node6 -->
<g id="node6" class="node"><title>Node6</title>
<polygon fill="none" stroke="#bfbfbf" points="248.5,-0.5 248.5,-19.5 292.5,-19.5 292.5,-0.5 248.5,-0.5"/>
<text text-anchor="middle" x="270.5" y="-7.5" font-family="Helvetica,sans-Serif" font-size="10.00">string</text>
</g>
<!-- Node5&#45;&gt;Node6 -->
<g id="edge5" class="edge"><title>Node5&#45;&gt;Node6</title>
<path fill="none" stroke="midnightblue" d="M238.565,-112.375C238.882,-99.7213 240.331,-75.5138 246.5,-56 249.569,-46.2914 254.724,-36.2244 259.472,-28.0803"/>
<polygon fill="midnightblue" stroke="midnightblue" points="262.465,-29.8944 264.708,-19.5397 256.497,-26.2356 262.465,-29.8944"/>
</g>
<!-- Node7 -->
<g id="node7" class="node"><title>Node7</title>
<g id="a_node7"><a xlink:href="RTypeExceptions_8hpp.html" target="_top" xlink:title="RTypeExceptions.hpp">
<polygon fill="none" stroke="black" points="255.5,-56.5 255.5,-75.5 371.5,-75.5 371.5,-56.5 255.5,-56.5"/>
<text text-anchor="middle" x="313.5" y="-63.5" font-family="Helvetica,sans-Serif" font-size="10.00">RTypeExceptions.hpp</text>
</a>
</g>
</g>
<!-- Node5&#45;&gt;Node7 -->
<g id="edge6" class="edge"><title>Node5&#45;&gt;Node7</title>
<path fill="none" stroke="midnightblue" d="M250.55,-112.324C261.963,-104.107 279.331,-91.6017 292.935,-81.8069"/>
<polygon fill="midnightblue" stroke="midnightblue" points="295.16,-84.5174 301.231,-75.8339 291.07,-78.8366 295.16,-84.5174"/>
</g>
<!-- Node7&#45;&gt;Node6 -->
<g id="edge7" class="edge"><title>Node7&#45;&gt;Node6</title>
<path fill="none" stroke="midnightblue" d="M306.399,-56.083C300.263,-48.3768 291.23,-37.0333 283.761,-27.6531"/>
<polygon fill="midnightblue" stroke="midnightblue" points="286.436,-25.3936 277.468,-19.7511 280.96,-29.7542 286.436,-25.3936"/>
</g>
</g>
</svg>
