<?xml version="1.0" encoding="UTF-8" standalone="no"?>
<!DOCTYPE svg PUBLIC "-//W3C//DTD SVG 1.1//EN"
 "http://www.w3.org/Graphics/SVG/1.1/DTD/svg11.dtd">
<!-- Generated by graphviz version 2.38.0 (20140413.2041)
 -->
<!-- Title: src/Entities/EntityConstructor/NameRoomEntity/NameRoomEntity.cpp Pages: 1 -->
<svg width="1025pt" height="319pt"
 viewBox="0.00 0.00 1025.00 319.00" xmlns="http://www.w3.org/2000/svg" xmlns:xlink="http://www.w3.org/1999/xlink">
<g id="graph0" class="graph" transform="scale(1 1) rotate(0) translate(4 315)">
<title>src/Entities/EntityConstructor/NameRoomEntity/NameRoomEntity.cpp</title>
<!-- Node1 -->
<g id="node1" class="node"><title>Node1</title>
<polygon fill="#bfbfbf" stroke="black" points="222,-280.5 222,-310.5 430,-310.5 430,-280.5 222,-280.5"/>
<text text-anchor="start" x="230" y="-298.5" font-family="Helvetica,sans-Serif" font-size="10.00">src/Entities/EntityConstructor</text>
<text text-anchor="middle" x="326" y="-287.5" font-family="Helvetica,sans-Serif" font-size="10.00">/NameRoomEntity/NameRoomEntity.cpp</text>
</g>
<!-- Node2 -->
<g id="node2" class="node"><title>Node2</title>
<g id="a_node2"><a xlink:href="Text_8hpp.html" target="_top" xlink:title="Display/Text.hpp">
<polygon fill="none" stroke="black" points="220,-224.5 220,-243.5 314,-243.5 314,-224.5 220,-224.5"/>
<text text-anchor="middle" x="267" y="-231.5" font-family="Helvetica,sans-Serif" font-size="10.00">Display/Text.hpp</text>
</a>
</g>
</g>
<!-- Node1&#45;&gt;Node2 -->
<g id="edge1" class="edge"><title>Node1&#45;&gt;Node2</title>
<path fill="none" stroke="midnightblue" d="M312.018,-280.399C303.268,-271.575 291.971,-260.183 282.883,-251.018"/>
<polygon fill="midnightblue" stroke="midnightblue" points="285.112,-248.294 275.585,-243.658 280.141,-253.223 285.112,-248.294"/>
</g>
<!-- Node9 -->
<g id="node9" class="node"><title>Node9</title>
<g id="a_node9"><a xlink:href="Position_8hpp.html" target="_top" xlink:title="Physics/Position.hpp">
<polygon fill="none" stroke="black" points="51.5,-224.5 51.5,-243.5 164.5,-243.5 164.5,-224.5 51.5,-224.5"/>
<text text-anchor="middle" x="108" y="-231.5" font-family="Helvetica,sans-Serif" font-size="10.00">Physics/Position.hpp</text>
</a>
</g>
</g>
<!-- Node1&#45;&gt;Node9 -->
<g id="edge11" class="edge"><title>Node1&#45;&gt;Node9</title>
<path fill="none" stroke="midnightblue" d="M274.613,-280.475C236.347,-270.03 184.786,-255.958 149.207,-246.247"/>
<polygon fill="midnightblue" stroke="midnightblue" points="149.735,-242.763 139.166,-243.506 147.892,-249.516 149.735,-242.763"/>
</g>
<!-- Node12 -->
<g id="node12" class="node"><title>Node12</title>
<g id="a_node12"><a xlink:href="Button_8hpp.html" target="_top" xlink:title="Display/Button.hpp">
<polygon fill="none" stroke="black" points="332.5,-224.5 332.5,-243.5 439.5,-243.5 439.5,-224.5 332.5,-224.5"/>
<text text-anchor="middle" x="386" y="-231.5" font-family="Helvetica,sans-Serif" font-size="10.00">Display/Button.hpp</text>
</a>
</g>
</g>
<!-- Node1&#45;&gt;Node12 -->
<g id="edge15" class="edge"><title>Node1&#45;&gt;Node12</title>
<path fill="none" stroke="midnightblue" d="M340.219,-280.399C349.208,-271.486 360.838,-259.952 370.127,-250.741"/>
<polygon fill="midnightblue" stroke="midnightblue" points="372.633,-253.184 377.269,-243.658 367.704,-248.214 372.633,-253.184"/>
</g>
<!-- Node14 -->
<g id="node14" class="node"><title>Node14</title>
<g id="a_node14"><a xlink:href="NameRoomEntity_8hpp.html" target="_top" xlink:title="NameRoomEntity.hpp">
<polygon fill="none" stroke="black" points="576.5,-224.5 576.5,-243.5 695.5,-243.5 695.5,-224.5 576.5,-224.5"/>
<text text-anchor="middle" x="636" y="-231.5" font-family="Helvetica,sans-Serif" font-size="10.00">NameRoomEntity.hpp</text>
</a>
</g>
</g>
<!-- Node1&#45;&gt;Node14 -->
<g id="edge20" class="edge"><title>Node1&#45;&gt;Node14</title>
<path fill="none" stroke="midnightblue" d="M399.073,-280.475C455.007,-269.739 530.915,-255.17 581.583,-245.445"/>
<polygon fill="midnightblue" stroke="midnightblue" points="582.52,-248.829 591.681,-243.506 581.201,-241.954 582.52,-248.829"/>
</g>
<!-- Node3 -->
<g id="node3" class="node"><title>Node3</title>
<polygon fill="none" stroke="#bfbfbf" points="200.5,-0.5 200.5,-19.5 263.5,-19.5 263.5,-0.5 200.5,-0.5"/>
<text text-anchor="middle" x="232" y="-7.5" font-family="Helvetica,sans-Serif" font-size="10.00">typeindex</text>
</g>
<!-- Node2&#45;&gt;Node3 -->
<g id="edge2" class="edge"><title>Node2&#45;&gt;Node3</title>
<path fill="none" stroke="midnightblue" d="M219.835,-226.03C190.784,-219.866 154.053,-208.521 127,-188 103.233,-169.971 98.5855,-160.569 90,-132 73.5953,-77.4127 146.849,-40.6954 194.245,-23.0753"/>
<polygon fill="midnightblue" stroke="midnightblue" points="195.692,-26.2746 203.924,-19.6056 193.33,-19.6852 195.692,-26.2746"/>
</g>
<!-- Node4 -->
<g id="node4" class="node"><title>Node4</title>
<polygon fill="none" stroke="#bfbfbf" points="508,-0.5 508,-19.5 552,-19.5 552,-0.5 508,-0.5"/>
<text text-anchor="middle" x="530" y="-7.5" font-family="Helvetica,sans-Serif" font-size="10.00">string</text>
</g>
<!-- Node2&#45;&gt;Node4 -->
<g id="edge3" class="edge"><title>Node2&#45;&gt;Node4</title>
<path fill="none" stroke="midnightblue" d="M280.275,-224.264C293.146,-215.588 313.017,-201.644 329,-188 365.331,-156.985 369.483,-143.945 405,-112 440.999,-79.6217 485.633,-44.7285 510.652,-25.6088"/>
<polygon fill="midnightblue" stroke="midnightblue" points="512.798,-28.3741 518.637,-19.5337 508.559,-22.803 512.798,-28.3741"/>
</g>
<!-- Node5 -->
<g id="node5" class="node"><title>Node5</title>
<g id="a_node5"><a xlink:href="Color_8hpp.html" target="_top" xlink:title="Color.hpp">
<polygon fill="none" stroke="black" points="136,-168.5 136,-187.5 198,-187.5 198,-168.5 136,-168.5"/>
<text text-anchor="middle" x="167" y="-175.5" font-family="Helvetica,sans-Serif" font-size="10.00">Color.hpp</text>
</a>
</g>
</g>
<!-- Node2&#45;&gt;Node5 -->
<g id="edge4" class="edge"><title>Node2&#45;&gt;Node5</title>
<path fill="none" stroke="midnightblue" d="M250.933,-224.324C235.042,-215.743 210.493,-202.486 192.042,-192.522"/>
<polygon fill="midnightblue" stroke="midnightblue" points="193.489,-189.326 183.027,-187.655 190.163,-195.486 193.489,-189.326"/>
</g>
<!-- Node6 -->
<g id="node6" class="node"><title>Node6</title>
<g id="a_node6"><a xlink:href="IUserInterface_8hpp.html" target="_top" xlink:title="IUserInterface.hpp">
<polygon fill="none" stroke="black" points="216,-168.5 216,-187.5 320,-187.5 320,-168.5 216,-168.5"/>
<text text-anchor="middle" x="268" y="-175.5" font-family="Helvetica,sans-Serif" font-size="10.00">IUserInterface.hpp</text>
</a>
</g>
</g>
<!-- Node2&#45;&gt;Node6 -->
<g id="edge5" class="edge"><title>Node2&#45;&gt;Node6</title>
<path fill="none" stroke="midnightblue" d="M267.165,-224.083C267.296,-217.006 267.484,-206.861 267.648,-197.986"/>
<polygon fill="midnightblue" stroke="midnightblue" points="271.152,-197.814 267.838,-187.751 264.153,-197.685 271.152,-197.814"/>
</g>
<!-- Node6&#45;&gt;Node3 -->
<g id="edge6" class="edge"><title>Node6&#45;&gt;Node3</title>
<path fill="none" stroke="midnightblue" d="M272.916,-168.293C283.849,-147.688 307.782,-94.7573 289,-56 282.603,-42.7996 270.248,-32.3032 258.671,-24.7794"/>
<polygon fill="midnightblue" stroke="midnightblue" points="260.454,-21.7678 250.082,-19.6099 256.845,-27.7653 260.454,-21.7678"/>
</g>
<!-- Node7 -->
<g id="node7" class="node"><title>Node7</title>
<g id="a_node7"><a xlink:href="IDisplay_8hpp.html" target="_top" xlink:title="IDisplay.hpp">
<polygon fill="none" stroke="black" points="195.5,-112.5 195.5,-131.5 268.5,-131.5 268.5,-112.5 195.5,-112.5"/>
<text text-anchor="middle" x="232" y="-119.5" font-family="Helvetica,sans-Serif" font-size="10.00">IDisplay.hpp</text>
</a>
</g>
</g>
<!-- Node6&#45;&gt;Node7 -->
<g id="edge7" class="edge"><title>Node6&#45;&gt;Node7</title>
<path fill="none" stroke="midnightblue" d="M262.055,-168.083C257.023,-160.534 249.663,-149.495 243.487,-140.23"/>
<polygon fill="midnightblue" stroke="midnightblue" points="246.293,-138.13 237.834,-131.751 240.469,-142.013 246.293,-138.13"/>
</g>
<!-- Node7&#45;&gt;Node3 -->
<g id="edge8" class="edge"><title>Node7&#45;&gt;Node3</title>
<path fill="none" stroke="midnightblue" d="M214.696,-112.499C194.037,-101.084 163.611,-79.5016 175,-56 181.397,-42.7996 193.752,-32.3032 205.329,-24.7794"/>
<polygon fill="midnightblue" stroke="midnightblue" points="207.155,-27.7653 213.918,-19.6099 203.546,-21.7678 207.155,-27.7653"/>
</g>
<!-- Node8 -->
<g id="node8" class="node"><title>Node8</title>
<g id="a_node8"><a xlink:href="IComponent_8hpp.html" target="_top" xlink:title="IComponent.hpp">
<polygon fill="none" stroke="black" points="184,-56.5 184,-75.5 280,-75.5 280,-56.5 184,-56.5"/>
<text text-anchor="middle" x="232" y="-63.5" font-family="Helvetica,sans-Serif" font-size="10.00">IComponent.hpp</text>
</a>
</g>
</g>
<!-- Node7&#45;&gt;Node8 -->
<g id="edge9" class="edge"><title>Node7&#45;&gt;Node8</title>
<path fill="none" stroke="midnightblue" d="M232,-112.083C232,-105.006 232,-94.8611 232,-85.9865"/>
<polygon fill="midnightblue" stroke="midnightblue" points="235.5,-85.751 232,-75.7511 228.5,-85.7511 235.5,-85.751"/>
</g>
<!-- Node8&#45;&gt;Node3 -->
<g id="edge10" class="edge"><title>Node8&#45;&gt;Node3</title>
<path fill="none" stroke="midnightblue" d="M232,-56.083C232,-49.0059 232,-38.8611 232,-29.9865"/>
<polygon fill="midnightblue" stroke="midnightblue" points="235.5,-29.751 232,-19.7511 228.5,-29.7511 235.5,-29.751"/>
</g>
<!-- Node10 -->
<g id="node10" class="node"><title>Node10</title>
<polygon fill="none" stroke="#bfbfbf" points="0,-168.5 0,-187.5 42,-187.5 42,-168.5 0,-168.5"/>
<text text-anchor="middle" x="21" y="-175.5" font-family="Helvetica,sans-Serif" font-size="10.00">utility</text>
</g>
<!-- Node9&#45;&gt;Node10 -->
<g id="edge12" class="edge"><title>Node9&#45;&gt;Node10</title>
<path fill="none" stroke="midnightblue" d="M94.0219,-224.324C80.4504,-215.9 59.6198,-202.971 43.675,-193.074"/>
<polygon fill="midnightblue" stroke="midnightblue" points="45.2856,-189.954 34.9434,-187.655 41.594,-195.902 45.2856,-189.954"/>
</g>
<!-- Node11 -->
<g id="node11" class="node"><title>Node11</title>
<g id="a_node11"><a xlink:href="IPhysics_8hpp.html" target="_top" xlink:title="IPhysics.hpp">
<polygon fill="none" stroke="black" points="99.5,-112.5 99.5,-131.5 174.5,-131.5 174.5,-112.5 99.5,-112.5"/>
<text text-anchor="middle" x="137" y="-119.5" font-family="Helvetica,sans-Serif" font-size="10.00">IPhysics.hpp</text>
</a>
</g>
</g>
<!-- Node9&#45;&gt;Node11 -->
<g id="edge13" class="edge"><title>Node9&#45;&gt;Node11</title>
<path fill="none" stroke="midnightblue" d="M110.276,-224.368C114.977,-206.537 125.849,-165.295 132.183,-141.272"/>
<polygon fill="midnightblue" stroke="midnightblue" points="135.57,-142.153 134.735,-131.591 128.801,-140.369 135.57,-142.153"/>
</g>
<!-- Node11&#45;&gt;Node8 -->
<g id="edge14" class="edge"><title>Node11&#45;&gt;Node8</title>
<path fill="none" stroke="midnightblue" d="M152.263,-112.324C167.221,-103.822 190.255,-90.7288 207.727,-80.7975"/>
<polygon fill="midnightblue" stroke="midnightblue" points="209.81,-83.639 216.774,-75.6545 206.351,-77.5534 209.81,-83.639"/>
</g>
<!-- Node12&#45;&gt;Node3 -->
<g id="edge16" class="edge"><title>Node12&#45;&gt;Node3</title>
<path fill="none" stroke="midnightblue" d="M384.086,-224.237C377.659,-196.554 354.536,-109.646 307,-56 294.939,-42.3887 277.748,-31.664 262.867,-24.104"/>
<polygon fill="midnightblue" stroke="midnightblue" points="264.027,-20.7781 253.498,-19.5945 260.991,-27.0855 264.027,-20.7781"/>
</g>
<!-- Node12&#45;&gt;Node6 -->
<g id="edge17" class="edge"><title>Node12&#45;&gt;Node6</title>
<path fill="none" stroke="midnightblue" d="M367.303,-224.444C348.056,-215.636 317.848,-201.812 295.8,-191.722"/>
<polygon fill="midnightblue" stroke="midnightblue" points="297.16,-188.495 286.61,-187.516 294.247,-194.86 297.16,-188.495"/>
</g>
<!-- Node13 -->
<g id="node13" class="node"><title>Node13</title>
<g id="a_node13"><a xlink:href="SystemResponse_8hpp.html" target="_top" xlink:title="SystemResponse.hpp">
<polygon fill="none" stroke="black" points="414,-112.5 414,-131.5 534,-131.5 534,-112.5 414,-112.5"/>
<text text-anchor="middle" x="474" y="-119.5" font-family="Helvetica,sans-Serif" font-size="10.00">SystemResponse.hpp</text>
</a>
</g>
</g>
<!-- Node12&#45;&gt;Node13 -->
<g id="edge18" class="edge"><title>Node12&#45;&gt;Node13</title>
<path fill="none" stroke="midnightblue" d="M392.905,-224.368C407.492,-206.135 441.659,-163.426 460.66,-139.675"/>
<polygon fill="midnightblue" stroke="midnightblue" points="463.613,-141.587 467.127,-131.591 458.147,-137.214 463.613,-141.587"/>
</g>
<!-- Node13&#45;&gt;Node4 -->
<g id="edge19" class="edge"><title>Node13&#45;&gt;Node4</title>
<path fill="none" stroke="midnightblue" d="M478.394,-112.368C487.554,-94.376 508.847,-52.5503 521.026,-28.6267"/>
<polygon fill="midnightblue" stroke="midnightblue" points="524.208,-30.091 525.626,-19.5914 517.97,-26.9152 524.208,-30.091"/>
</g>
<!-- Node15 -->
<g id="node15" class="node"><title>Node15</title>
<g id="a_node15"><a xlink:href="IEntityConstructor_8hpp.html" target="_top" xlink:title="IEntityConstructor.hpp">
<polygon fill="none" stroke="black" points="647,-168.5 647,-187.5 769,-187.5 769,-168.5 647,-168.5"/>
<text text-anchor="middle" x="708" y="-175.5" font-family="Helvetica,sans-Serif" font-size="10.00">IEntityConstructor.hpp</text>
</a>
</g>
</g>
<!-- Node14&#45;&gt;Node15 -->
<g id="edge21" class="edge"><title>Node14&#45;&gt;Node15</title>
<path fill="none" stroke="midnightblue" d="M647.568,-224.324C658.42,-216.185 674.881,-203.839 687.883,-194.087"/>
<polygon fill="midnightblue" stroke="midnightblue" points="690.321,-196.634 696.221,-187.834 686.121,-191.034 690.321,-196.634"/>
</g>
<!-- Node15&#45;&gt;Node4 -->
<g id="edge23" class="edge"><title>Node15&#45;&gt;Node4</title>
<path fill="none" stroke="midnightblue" d="M654.895,-168.461C629.873,-162.074 601.164,-151.02 581,-132 551.387,-104.067 538.272,-56.2267 533.047,-29.8441"/>
<polygon fill="midnightblue" stroke="midnightblue" points="536.433,-28.8979 531.218,-19.6753 529.544,-30.137 536.433,-28.8979"/>
</g>
<!-- Node16 -->
<g id="node16" class="node"><title>Node16</title>
<polygon fill="none" stroke="#bfbfbf" points="766.5,-56.5 766.5,-75.5 823.5,-75.5 823.5,-56.5 766.5,-56.5"/>
<text text-anchor="middle" x="795" y="-63.5" font-family="Helvetica,sans-Serif" font-size="10.00">memory</text>
</g>
<!-- Node15&#45;&gt;Node16 -->
<g id="edge22" class="edge"><title>Node15&#45;&gt;Node16</title>
<path fill="none" stroke="midnightblue" d="M717.026,-168.438C726.061,-159.67 740.144,-145.456 751,-132 763.394,-116.638 775.848,-97.8516 784.327,-84.4334"/>
<polygon fill="midnightblue" stroke="midnightblue" points="787.427,-86.0764 789.741,-75.7373 781.485,-82.3769 787.427,-86.0764"/>
</g>
<!-- Node17 -->
<g id="node17" class="node"><title>Node17</title>
<g id="a_node17"><a xlink:href="Entity_8hpp.html" target="_top" xlink:title="Entity.hpp">
<polygon fill="none" stroke="black" points="685.5,-56.5 685.5,-75.5 748.5,-75.5 748.5,-56.5 685.5,-56.5"/>
<text text-anchor="middle" x="717" y="-63.5" font-family="Helvetica,sans-Serif" font-size="10.00">Entity.hpp</text>
</a>
</g>
</g>
<!-- Node15&#45;&gt;Node17 -->
<g id="edge24" class="edge"><title>Node15&#45;&gt;Node17</title>
<path fill="none" stroke="midnightblue" d="M715.673,-168.459C722.779,-159.927 732.854,-146.088 737,-132 741.728,-115.934 735.077,-97.7166 728.205,-84.6641"/>
<polygon fill="midnightblue" stroke="midnightblue" points="731.123,-82.7196 723.091,-75.8107 725.062,-86.2206 731.123,-82.7196"/>
</g>
<!-- Node18 -->
<g id="node18" class="node"><title>Node18</title>
<g id="a_node18"><a xlink:href="IEntityManager_8hpp.html" target="_top" xlink:title="IEntityManager.hpp">
<polygon fill="none" stroke="black" points="822,-112.5 822,-131.5 930,-131.5 930,-112.5 822,-112.5"/>
<text text-anchor="middle" x="876" y="-119.5" font-family="Helvetica,sans-Serif" font-size="10.00">IEntityManager.hpp</text>
</a>
</g>
</g>
<!-- Node15&#45;&gt;Node18 -->
<g id="edge25" class="edge"><title>Node15&#45;&gt;Node18</title>
<path fill="none" stroke="midnightblue" d="M734.62,-168.444C763.006,-159.32 808.137,-144.813 839.753,-134.651"/>
<polygon fill="midnightblue" stroke="midnightblue" points="841.055,-137.909 849.504,-131.516 838.913,-131.244 841.055,-137.909"/>
</g>
<!-- Node23 -->
<g id="node23" class="node"><title>Node23</title>
<g id="a_node23"><a xlink:href="IComponentManager_8hpp.html" target="_top" xlink:title="IComponentManager.hpp">
<polygon fill="none" stroke="black" points="590.5,-112.5 590.5,-131.5 727.5,-131.5 727.5,-112.5 590.5,-112.5"/>
<text text-anchor="middle" x="659" y="-119.5" font-family="Helvetica,sans-Serif" font-size="10.00">IComponentManager.hpp</text>
</a>
</g>
</g>
<!-- Node15&#45;&gt;Node23 -->
<g id="edge33" class="edge"><title>Node15&#45;&gt;Node23</title>
<path fill="none" stroke="midnightblue" d="M699.909,-168.083C692.845,-160.298 682.412,-148.801 673.851,-139.367"/>
<polygon fill="midnightblue" stroke="midnightblue" points="676.253,-136.805 666.941,-131.751 671.069,-141.509 676.253,-136.805"/>
</g>
<!-- Node18&#45;&gt;Node16 -->
<g id="edge26" class="edge"><title>Node18&#45;&gt;Node16</title>
<path fill="none" stroke="midnightblue" d="M862.986,-112.324C850.468,-103.979 831.318,-91.2122 816.529,-81.3524"/>
<polygon fill="midnightblue" stroke="midnightblue" points="818.244,-78.2894 807.982,-75.6545 814.361,-84.1137 818.244,-78.2894"/>
</g>
<!-- Node18&#45;&gt;Node17 -->
<g id="edge28" class="edge"><title>Node18&#45;&gt;Node17</title>
<path fill="none" stroke="midnightblue" d="M850.806,-112.444C824.057,-103.359 781.597,-88.9388 751.695,-78.7831"/>
<polygon fill="midnightblue" stroke="midnightblue" points="752.671,-75.4182 742.076,-75.5164 750.419,-82.0464 752.671,-75.4182"/>
</g>
<!-- Node19 -->
<g id="node19" class="node"><title>Node19</title>
<polygon fill="none" stroke="#bfbfbf" points="841.5,-56.5 841.5,-75.5 888.5,-75.5 888.5,-56.5 841.5,-56.5"/>
<text text-anchor="middle" x="865" y="-63.5" font-family="Helvetica,sans-Serif" font-size="10.00">vector</text>
</g>
<!-- Node18&#45;&gt;Node19 -->
<g id="edge27" class="edge"><title>Node18&#45;&gt;Node19</title>
<path fill="none" stroke="midnightblue" d="M874.184,-112.083C872.726,-104.927 870.629,-94.6353 868.807,-85.6911"/>
<polygon fill="midnightblue" stroke="midnightblue" points="872.208,-84.8512 866.783,-75.7511 865.349,-86.2485 872.208,-84.8512"/>
</g>
<!-- Node20 -->
<g id="node20" class="node"><title>Node20</title>
<g id="a_node20"><a xlink:href="PacketManager_8hpp.html" target="_top" xlink:title="PacketManager.hpp">
<polygon fill="none" stroke="black" points="907,-56.5 907,-75.5 1017,-75.5 1017,-56.5 907,-56.5"/>
<text text-anchor="middle" x="962" y="-63.5" font-family="Helvetica,sans-Serif" font-size="10.00">PacketManager.hpp</text>
</a>
</g>
</g>
<!-- Node18&#45;&gt;Node20 -->
<g id="edge29" class="edge"><title>Node18&#45;&gt;Node20</title>
<path fill="none" stroke="midnightblue" d="M889.817,-112.324C903.233,-103.9 923.824,-90.9709 939.586,-81.0741"/>
<polygon fill="midnightblue" stroke="midnightblue" points="941.609,-83.9364 948.217,-75.6545 937.887,-78.0081 941.609,-83.9364"/>
</g>
<!-- Node20&#45;&gt;Node4 -->
<g id="edge30" class="edge"><title>Node20&#45;&gt;Node4</title>
<path fill="none" stroke="midnightblue" d="M906.851,-57.1803C903.857,-56.776 900.892,-56.3802 898,-56 774.03,-39.705 626.3,-22.2281 562.255,-14.7461"/>
<polygon fill="midnightblue" stroke="midnightblue" points="562.34,-11.2323 552.001,-13.5501 561.529,-18.1852 562.34,-11.2323"/>
</g>
<!-- Node21 -->
<g id="node21" class="node"><title>Node21</title>
<polygon fill="none" stroke="#bfbfbf" points="753,-0.5 753,-19.5 783,-19.5 783,-0.5 753,-0.5"/>
<text text-anchor="middle" x="768" y="-7.5" font-family="Helvetica,sans-Serif" font-size="10.00">list</text>
</g>
<!-- Node20&#45;&gt;Node21 -->
<g id="edge31" class="edge"><title>Node20&#45;&gt;Node21</title>
<path fill="none" stroke="midnightblue" d="M931.26,-56.4435C893.111,-45.8247 828.77,-27.9153 793.322,-18.0485"/>
<polygon fill="midnightblue" stroke="midnightblue" points="793.883,-14.5714 783.31,-15.2616 792.005,-21.315 793.883,-14.5714"/>
</g>
<!-- Node22 -->
<g id="node22" class="node"><title>Node22</title>
<g id="a_node22"><a xlink:href="Input_8hpp.html" target="_top" xlink:title="Render/Input.hpp">
<polygon fill="none" stroke="black" points="913,-0.5 913,-19.5 1011,-19.5 1011,-0.5 913,-0.5"/>
<text text-anchor="middle" x="962" y="-7.5" font-family="Helvetica,sans-Serif" font-size="10.00">Render/Input.hpp</text>
</a>
</g>
</g>
<!-- Node20&#45;&gt;Node22 -->
<g id="edge32" class="edge"><title>Node20&#45;&gt;Node22</title>
<path fill="none" stroke="midnightblue" d="M962,-56.083C962,-49.0059 962,-38.8611 962,-29.9865"/>
<polygon fill="midnightblue" stroke="midnightblue" points="965.5,-29.751 962,-19.7511 958.5,-29.7511 965.5,-29.751"/>
</g>
<!-- Node23&#45;&gt;Node8 -->
<g id="edge36" class="edge"><title>Node23&#45;&gt;Node8</title>
<path fill="none" stroke="midnightblue" d="M591.341,-112.444C508.295,-101.941 368.857,-84.3075 290.327,-74.3762"/>
<polygon fill="midnightblue" stroke="midnightblue" points="290.488,-70.8688 280.128,-73.0865 289.61,-77.8135 290.488,-70.8688"/>
</g>
<!-- Node23&#45;&gt;Node16 -->
<g id="edge35" class="edge"><title>Node23&#45;&gt;Node16</title>
<path fill="none" stroke="midnightblue" d="M680.55,-112.444C703.031,-103.517 738.488,-89.4387 763.98,-79.3168"/>
<polygon fill="midnightblue" stroke="midnightblue" points="765.549,-82.4598 773.551,-75.5164 762.965,-75.9539 765.549,-82.4598"/>
</g>
<!-- Node23&#45;&gt;Node17 -->
<g id="edge37" class="edge"><title>Node23&#45;&gt;Node17</title>
<path fill="none" stroke="midnightblue" d="M668.319,-112.324C676.893,-104.341 689.812,-92.3128 700.188,-82.6529"/>
<polygon fill="midnightblue" stroke="midnightblue" points="702.578,-85.2098 707.512,-75.8339 697.808,-80.0865 702.578,-85.2098"/>
</g>
<!-- Node23&#45;&gt;Node21 -->
<g id="edge34" class="edge"><title>Node23&#45;&gt;Node21</title>
<path fill="none" stroke="midnightblue" d="M659.213,-112.408C659.979,-98.9194 663.271,-72.605 677,-56 693.909,-35.5485 722.405,-23.5878 743.011,-17.2047"/>
<polygon fill="midnightblue" stroke="midnightblue" points="744.036,-20.552 752.685,-14.4331 742.107,-13.8228 744.036,-20.552"/>
</g>
</g>
</svg>
