<?xml version="1.0" encoding="UTF-8" standalone="no"?>
<!DOCTYPE svg PUBLIC "-//W3C//DTD SVG 1.1//EN"
 "http://www.w3.org/Graphics/SVG/1.1/DTD/svg11.dtd">
<!-- Generated by graphviz version 2.38.0 (20140413.2041)
 -->
<!-- Title: src/Entities/EntityConstructor/NameRoomEntity/NameRoomEntity.hpp Pages: 1 -->
<svg width="398pt" height="106pt"
 viewBox="0.00 0.00 398.00 106.00" xmlns="http://www.w3.org/2000/svg" xmlns:xlink="http://www.w3.org/1999/xlink">
<g id="graph0" class="graph" transform="scale(1 1) rotate(0) translate(4 102)">
<title>src/Entities/EntityConstructor/NameRoomEntity/NameRoomEntity.hpp</title>
<!-- Node1 -->
<g id="node1" class="node"><title>Node1</title>
<polygon fill="#bfbfbf" stroke="black" points="101.5,-67.5 101.5,-97.5 310.5,-97.5 310.5,-67.5 101.5,-67.5"/>
<text text-anchor="start" x="109.5" y="-85.5" font-family="Helvetica,sans-Serif" font-size="10.00">src/Entities/EntityConstructor</text>
<text text-anchor="middle" x="206" y="-74.5" font-family="Helvetica,sans-Serif" font-size="10.00">/NameRoomEntity/NameRoomEntity.hpp</text>
</g>
<!-- Node2 -->
<g id="node2" class="node"><title>Node2</title>
<g id="a_node2"><a xlink:href="NameRoomEntity_8cpp.html" target="_top" xlink:title="src/Entities/EntityConstructor\l/NameRoomEntity/NameRoomEntity.cpp">
<polygon fill="none" stroke="black" points="0,-0.5 0,-30.5 208,-30.5 208,-0.5 0,-0.5"/>
<text text-anchor="start" x="8" y="-18.5" font-family="Helvetica,sans-Serif" font-size="10.00">src/Entities/EntityConstructor</text>
<text text-anchor="middle" x="104" y="-7.5" font-family="Helvetica,sans-Serif" font-size="10.00">/NameRoomEntity/NameRoomEntity.cpp</text>
</a>
</g>
</g>
<!-- Node1&#45;&gt;Node2 -->
<g id="edge1" class="edge"><title>Node1&#45;&gt;Node2</title>
<path fill="none" stroke="midnightblue" d="M175.424,-62.0151C159.551,-51.8999 140.516,-39.7698 126.089,-30.5765"/>
<polygon fill="midnightblue" stroke="midnightblue" points="173.553,-64.9734 183.868,-67.396 177.315,-59.0702 173.553,-64.9734"/>
</g>
<!-- Node3 -->
<g id="node3" class="node"><title>Node3</title>
<g id="a_node3"><a xlink:href="SceneManager_8cpp.html" target="_top" xlink:title="src/Scenes/SceneManager.cpp">
<polygon fill="none" stroke="black" points="226,-6 226,-25 390,-25 390,-6 226,-6"/>
<text text-anchor="middle" x="308" y="-13" font-family="Helvetica,sans-Serif" font-size="10.00">src/Scenes/SceneManager.cpp</text>
</a>
</g>
</g>
<!-- Node1&#45;&gt;Node3 -->
<g id="edge2" class="edge"><title>Node1&#45;&gt;Node3</title>
<path fill="none" stroke="midnightblue" d="M236.64,-61.9747C255.981,-49.6494 279.996,-34.3455 294.651,-25.007"/>
<polygon fill="midnightblue" stroke="midnightblue" points="234.685,-59.0702 228.132,-67.396 238.447,-64.9734 234.685,-59.0702"/>
</g>
</g>
</svg>
