<?xml version="1.0" encoding="UTF-8" standalone="no"?>
<!DOCTYPE svg PUBLIC "-//W3C//DTD SVG 1.1//EN"
 "http://www.w3.org/Graphics/SVG/1.1/DTD/svg11.dtd">
<!-- Generated by graphviz version 2.38.0 (20140413.2041)
 -->
<!-- Title: src/Entities/EntityConstructor/NumberPlayersEntity/NumberPlayersEntity.hpp Pages: 1 -->
<svg width="388pt" height="128pt"
 viewBox="0.00 0.00 387.50 128.00" xmlns="http://www.w3.org/2000/svg" xmlns:xlink="http://www.w3.org/1999/xlink">
<g id="graph0" class="graph" transform="scale(1 1) rotate(0) translate(4 124)">
<title>src/Entities/EntityConstructor/NumberPlayersEntity/NumberPlayersEntity.hpp</title>
<!-- Node1 -->
<g id="node1" class="node"><title>Node1</title>
<polygon fill="#bfbfbf" stroke="black" points="99,-78.5 99,-119.5 296,-119.5 296,-78.5 99,-78.5"/>
<text text-anchor="start" x="107" y="-107.5" font-family="Helvetica,sans-Serif" font-size="10.00">src/Entities/EntityConstructor</text>
<text text-anchor="start" x="107" y="-96.5" font-family="Helvetica,sans-Serif" font-size="10.00">/NumberPlayersEntity/NumberPlayers</text>
<text text-anchor="middle" x="197.5" y="-85.5" font-family="Helvetica,sans-Serif" font-size="10.00">Entity.hpp</text>
</g>
<!-- Node2 -->
<g id="node2" class="node"><title>Node2</title>
<g id="a_node2"><a xlink:href="NumberPlayersEntity_8cpp.html" target="_top" xlink:title="src/Entities/EntityConstructor\l/NumberPlayersEntity/NumberPlayers\lEntity.cpp">
<polygon fill="none" stroke="black" points="0,-0.5 0,-41.5 197,-41.5 197,-0.5 0,-0.5"/>
<text text-anchor="start" x="8" y="-29.5" font-family="Helvetica,sans-Serif" font-size="10.00">src/Entities/EntityConstructor</text>
<text text-anchor="start" x="8" y="-18.5" font-family="Helvetica,sans-Serif" font-size="10.00">/NumberPlayersEntity/NumberPlayers</text>
<text text-anchor="middle" x="98.5" y="-7.5" font-family="Helvetica,sans-Serif" font-size="10.00">Entity.cpp</text>
</a>
</g>
</g>
<!-- Node1&#45;&gt;Node2 -->
<g id="edge1" class="edge"><title>Node1&#45;&gt;Node2</title>
<path fill="none" stroke="midnightblue" d="M163.716,-72.0648C150.68,-62.0574 136.022,-50.8045 123.909,-41.5056"/>
<polygon fill="midnightblue" stroke="midnightblue" points="161.942,-75.115 172.005,-78.4281 166.204,-69.5624 161.942,-75.115"/>
</g>
<!-- Node3 -->
<g id="node3" class="node"><title>Node3</title>
<g id="a_node3"><a xlink:href="SceneManager_8cpp.html" target="_top" xlink:title="src/Scenes/SceneManager.cpp">
<polygon fill="none" stroke="black" points="215.5,-11.5 215.5,-30.5 379.5,-30.5 379.5,-11.5 215.5,-11.5"/>
<text text-anchor="middle" x="297.5" y="-18.5" font-family="Helvetica,sans-Serif" font-size="10.00">src/Scenes/SceneManager.cpp</text>
</a>
</g>
</g>
<!-- Node1&#45;&gt;Node3 -->
<g id="edge2" class="edge"><title>Node1&#45;&gt;Node3</title>
<path fill="none" stroke="midnightblue" d="M231.442,-72.2043C250.497,-57.7225 273.033,-40.595 286.247,-30.552"/>
<polygon fill="midnightblue" stroke="midnightblue" points="229.096,-69.5907 223.252,-78.4281 233.332,-75.1638 229.096,-69.5907"/>
</g>
</g>
</svg>
