<?xml version="1.0" encoding="UTF-8" standalone="no"?>
<!DOCTYPE svg PUBLIC "-//W3C//DTD SVG 1.1//EN"
 "http://www.w3.org/Graphics/SVG/1.1/DTD/svg11.dtd">
<!-- Generated by graphviz version 2.38.0 (20140413.2041)
 -->
<!-- Title: src/Entities/EntityConstructor/NumberPlayersEntity/NumberPlayersEntity.cpp Pages: 1 -->
<svg width="838pt" height="330pt"
 viewBox="0.00 0.00 838.06 330.00" xmlns="http://www.w3.org/2000/svg" xmlns:xlink="http://www.w3.org/1999/xlink">
<g id="graph0" class="graph" transform="scale(1 1) rotate(0) translate(4 326)">
<title>src/Entities/EntityConstructor/NumberPlayersEntity/NumberPlayersEntity.cpp</title>
<!-- Node1 -->
<g id="node1" class="node"><title>Node1</title>
<polygon fill="#bfbfbf" stroke="black" points="234.062,-280.5 234.062,-321.5 431.062,-321.5 431.062,-280.5 234.062,-280.5"/>
<text text-anchor="start" x="242.062" y="-309.5" font-family="Helvetica,sans-Serif" font-size="10.00">src/Entities/EntityConstructor</text>
<text text-anchor="start" x="242.062" y="-298.5" font-family="Helvetica,sans-Serif" font-size="10.00">/NumberPlayersEntity/NumberPlayers</text>
<text text-anchor="middle" x="332.562" y="-287.5" font-family="Helvetica,sans-Serif" font-size="10.00">Entity.cpp</text>
</g>
<!-- Node2 -->
<g id="node2" class="node"><title>Node2</title>
<g id="a_node2"><a xlink:href="Text_8hpp.html" target="_top" xlink:title="Display/Text.hpp">
<polygon fill="none" stroke="black" points="105.562,-224.5 105.562,-243.5 199.562,-243.5 199.562,-224.5 105.562,-224.5"/>
<text text-anchor="middle" x="152.562" y="-231.5" font-family="Helvetica,sans-Serif" font-size="10.00">Display/Text.hpp</text>
</a>
</g>
</g>
<!-- Node1&#45;&gt;Node2 -->
<g id="edge1" class="edge"><title>Node1&#45;&gt;Node2</title>
<path fill="none" stroke="midnightblue" d="M278.556,-280.498C248.57,-269.67 212.203,-256.537 186.262,-247.17"/>
<polygon fill="midnightblue" stroke="midnightblue" points="187.117,-243.757 176.523,-243.652 184.74,-250.341 187.117,-243.757"/>
</g>
<!-- Node9 -->
<g id="node9" class="node"><title>Node9</title>
<g id="a_node9"><a xlink:href="Position_8hpp.html" target="_top" xlink:title="Physics/Position.hpp">
<polygon fill="none" stroke="black" points="276.062,-224.5 276.062,-243.5 389.062,-243.5 389.062,-224.5 276.062,-224.5"/>
<text text-anchor="middle" x="332.562" y="-231.5" font-family="Helvetica,sans-Serif" font-size="10.00">Physics/Position.hpp</text>
</a>
</g>
</g>
<!-- Node1&#45;&gt;Node9 -->
<g id="edge11" class="edge"><title>Node1&#45;&gt;Node9</title>
<path fill="none" stroke="midnightblue" d="M332.562,-280.498C332.562,-272.065 332.562,-262.235 332.562,-253.874"/>
<polygon fill="midnightblue" stroke="midnightblue" points="336.062,-253.652 332.562,-243.652 329.062,-253.653 336.062,-253.652"/>
</g>
<!-- Node12 -->
<g id="node12" class="node"><title>Node12</title>
<g id="a_node12"><a xlink:href="NumberPlayersEntity_8hpp.html" target="_top" xlink:title="NumberPlayersEntity.hpp">
<polygon fill="none" stroke="black" points="422.062,-224.5 422.062,-243.5 559.062,-243.5 559.062,-224.5 422.062,-224.5"/>
<text text-anchor="middle" x="490.562" y="-231.5" font-family="Helvetica,sans-Serif" font-size="10.00">NumberPlayersEntity.hpp</text>
</a>
</g>
</g>
<!-- Node1&#45;&gt;Node12 -->
<g id="edge15" class="edge"><title>Node1&#45;&gt;Node12</title>
<path fill="none" stroke="midnightblue" d="M379.967,-280.498C405.939,-269.813 437.364,-256.885 460.069,-247.545"/>
<polygon fill="midnightblue" stroke="midnightblue" points="461.613,-250.694 469.53,-243.652 458.95,-244.22 461.613,-250.694"/>
</g>
<!-- Node3 -->
<g id="node3" class="node"><title>Node3</title>
<polygon fill="none" stroke="#bfbfbf" points="97.062,-0.5 97.062,-19.5 160.062,-19.5 160.062,-0.5 97.062,-0.5"/>
<text text-anchor="middle" x="128.562" y="-7.5" font-family="Helvetica,sans-Serif" font-size="10.00">typeindex</text>
</g>
<!-- Node2&#45;&gt;Node3 -->
<g id="edge2" class="edge"><title>Node2&#45;&gt;Node3</title>
<path fill="none" stroke="midnightblue" d="M105.362,-231.588C73.2499,-227.86 32.8587,-217.152 11.562,-188 -31.3319,-129.285 61.4915,-55.8777 106.235,-25.3476"/>
<polygon fill="midnightblue" stroke="midnightblue" points="108.367,-28.1325 114.737,-19.667 104.478,-22.3119 108.367,-28.1325"/>
</g>
<!-- Node4 -->
<g id="node4" class="node"><title>Node4</title>
<polygon fill="none" stroke="#bfbfbf" points="362.562,-0.5 362.562,-19.5 406.562,-19.5 406.562,-0.5 362.562,-0.5"/>
<text text-anchor="middle" x="384.562" y="-7.5" font-family="Helvetica,sans-Serif" font-size="10.00">string</text>
</g>
<!-- Node2&#45;&gt;Node4 -->
<g id="edge3" class="edge"><title>Node2&#45;&gt;Node4</title>
<path fill="none" stroke="midnightblue" d="M169.755,-224.424C183.538,-216.701 202.365,-204.097 213.562,-188 248.423,-137.883 209.397,-100.149 251.562,-56 278.068,-28.2469 322.275,-17.61 352.385,-13.5333"/>
<polygon fill="midnightblue" stroke="midnightblue" points="352.877,-16.9996 362.396,-12.3476 352.054,-10.0482 352.877,-16.9996"/>
</g>
<!-- Node5 -->
<g id="node5" class="node"><title>Node5</title>
<g id="a_node5"><a xlink:href="Color_8hpp.html" target="_top" xlink:title="Color.hpp">
<polygon fill="none" stroke="black" points="20.562,-168.5 20.562,-187.5 82.562,-187.5 82.562,-168.5 20.562,-168.5"/>
<text text-anchor="middle" x="51.562" y="-175.5" font-family="Helvetica,sans-Serif" font-size="10.00">Color.hpp</text>
</a>
</g>
</g>
<!-- Node2&#45;&gt;Node5 -->
<g id="edge4" class="edge"><title>Node2&#45;&gt;Node5</title>
<path fill="none" stroke="midnightblue" d="M136.335,-224.324C120.211,-215.703 95.2618,-202.364 76.5979,-192.386"/>
<polygon fill="midnightblue" stroke="midnightblue" points="78.2181,-189.283 67.7491,-187.655 74.9176,-195.456 78.2181,-189.283"/>
</g>
<!-- Node6 -->
<g id="node6" class="node"><title>Node6</title>
<g id="a_node6"><a xlink:href="IUserInterface_8hpp.html" target="_top" xlink:title="IUserInterface.hpp">
<polygon fill="none" stroke="black" points="100.562,-168.5 100.562,-187.5 204.562,-187.5 204.562,-168.5 100.562,-168.5"/>
<text text-anchor="middle" x="152.562" y="-175.5" font-family="Helvetica,sans-Serif" font-size="10.00">IUserInterface.hpp</text>
</a>
</g>
</g>
<!-- Node2&#45;&gt;Node6 -->
<g id="edge5" class="edge"><title>Node2&#45;&gt;Node6</title>
<path fill="none" stroke="midnightblue" d="M152.562,-224.083C152.562,-217.006 152.562,-206.861 152.562,-197.986"/>
<polygon fill="midnightblue" stroke="midnightblue" points="156.062,-197.751 152.562,-187.751 149.062,-197.751 156.062,-197.751"/>
</g>
<!-- Node6&#45;&gt;Node3 -->
<g id="edge6" class="edge"><title>Node6&#45;&gt;Node3</title>
<path fill="none" stroke="midnightblue" d="M144.079,-168.234C136.508,-159.75 125.958,-146.131 121.562,-132 110.716,-97.1361 117.789,-53.9438 123.473,-29.7306"/>
<polygon fill="midnightblue" stroke="midnightblue" points="126.935,-30.3159 125.992,-19.7632 120.148,-28.6007 126.935,-30.3159"/>
</g>
<!-- Node7 -->
<g id="node7" class="node"><title>Node7</title>
<g id="a_node7"><a xlink:href="IDisplay_8hpp.html" target="_top" xlink:title="IDisplay.hpp">
<polygon fill="none" stroke="black" points="131.062,-112.5 131.062,-131.5 204.062,-131.5 204.062,-112.5 131.062,-112.5"/>
<text text-anchor="middle" x="167.562" y="-119.5" font-family="Helvetica,sans-Serif" font-size="10.00">IDisplay.hpp</text>
</a>
</g>
</g>
<!-- Node6&#45;&gt;Node7 -->
<g id="edge7" class="edge"><title>Node6&#45;&gt;Node7</title>
<path fill="none" stroke="midnightblue" d="M155.039,-168.083C157.048,-160.849 159.948,-150.409 162.452,-141.397"/>
<polygon fill="midnightblue" stroke="midnightblue" points="165.827,-142.323 165.131,-131.751 159.082,-140.449 165.827,-142.323"/>
</g>
<!-- Node7&#45;&gt;Node3 -->
<g id="edge8" class="edge"><title>Node7&#45;&gt;Node3</title>
<path fill="none" stroke="midnightblue" d="M164.502,-112.368C158.18,-94.5366 143.558,-53.2953 135.04,-29.2717"/>
<polygon fill="midnightblue" stroke="midnightblue" points="138.249,-27.847 131.608,-19.5914 131.651,-30.1862 138.249,-27.847"/>
</g>
<!-- Node8 -->
<g id="node8" class="node"><title>Node8</title>
<g id="a_node8"><a xlink:href="IComponent_8hpp.html" target="_top" xlink:title="IComponent.hpp">
<polygon fill="none" stroke="black" points="260.562,-56.5 260.562,-75.5 356.562,-75.5 356.562,-56.5 260.562,-56.5"/>
<text text-anchor="middle" x="308.562" y="-63.5" font-family="Helvetica,sans-Serif" font-size="10.00">IComponent.hpp</text>
</a>
</g>
</g>
<!-- Node7&#45;&gt;Node8 -->
<g id="edge9" class="edge"><title>Node7&#45;&gt;Node8</title>
<path fill="none" stroke="midnightblue" d="M189.904,-112.444C213.315,-103.478 250.298,-89.314 276.752,-79.1827"/>
<polygon fill="midnightblue" stroke="midnightblue" points="278.238,-82.3615 286.325,-75.5164 275.734,-75.8245 278.238,-82.3615"/>
</g>
<!-- Node8&#45;&gt;Node3 -->
<g id="edge10" class="edge"><title>Node8&#45;&gt;Node3</title>
<path fill="none" stroke="midnightblue" d="M280.04,-56.4435C249.496,-47.2801 200.854,-32.6876 166.959,-22.5192"/>
<polygon fill="midnightblue" stroke="midnightblue" points="167.534,-19.0376 156.95,-19.5164 165.523,-25.7424 167.534,-19.0376"/>
</g>
<!-- Node10 -->
<g id="node10" class="node"><title>Node10</title>
<polygon fill="none" stroke="#bfbfbf" points="336.562,-168.5 336.562,-187.5 378.562,-187.5 378.562,-168.5 336.562,-168.5"/>
<text text-anchor="middle" x="357.562" y="-175.5" font-family="Helvetica,sans-Serif" font-size="10.00">utility</text>
</g>
<!-- Node9&#45;&gt;Node10 -->
<g id="edge12" class="edge"><title>Node9&#45;&gt;Node10</title>
<path fill="none" stroke="midnightblue" d="M336.69,-224.083C340.076,-216.77 344.978,-206.181 349.181,-197.103"/>
<polygon fill="midnightblue" stroke="midnightblue" points="352.485,-198.296 353.511,-187.751 346.133,-195.355 352.485,-198.296"/>
</g>
<!-- Node11 -->
<g id="node11" class="node"><title>Node11</title>
<g id="a_node11"><a xlink:href="IPhysics_8hpp.html" target="_top" xlink:title="IPhysics.hpp">
<polygon fill="none" stroke="black" points="271.062,-112.5 271.062,-131.5 346.062,-131.5 346.062,-112.5 271.062,-112.5"/>
<text text-anchor="middle" x="308.562" y="-119.5" font-family="Helvetica,sans-Serif" font-size="10.00">IPhysics.hpp</text>
</a>
</g>
</g>
<!-- Node9&#45;&gt;Node11 -->
<g id="edge13" class="edge"><title>Node9&#45;&gt;Node11</title>
<path fill="none" stroke="midnightblue" d="M330.679,-224.368C326.806,-206.617 317.871,-165.666 312.62,-141.597"/>
<polygon fill="midnightblue" stroke="midnightblue" points="315.988,-140.615 310.436,-131.591 309.149,-142.108 315.988,-140.615"/>
</g>
<!-- Node11&#45;&gt;Node8 -->
<g id="edge14" class="edge"><title>Node11&#45;&gt;Node8</title>
<path fill="none" stroke="midnightblue" d="M308.562,-112.083C308.562,-105.006 308.562,-94.8611 308.562,-85.9865"/>
<polygon fill="midnightblue" stroke="midnightblue" points="312.062,-85.751 308.562,-75.7511 305.062,-85.7511 312.062,-85.751"/>
</g>
<!-- Node13 -->
<g id="node13" class="node"><title>Node13</title>
<g id="a_node13"><a xlink:href="IEntityConstructor_8hpp.html" target="_top" xlink:title="IEntityConstructor.hpp">
<polygon fill="none" stroke="black" points="468.562,-168.5 468.562,-187.5 590.562,-187.5 590.562,-168.5 468.562,-168.5"/>
<text text-anchor="middle" x="529.562" y="-175.5" font-family="Helvetica,sans-Serif" font-size="10.00">IEntityConstructor.hpp</text>
</a>
</g>
</g>
<!-- Node12&#45;&gt;Node13 -->
<g id="edge16" class="edge"><title>Node12&#45;&gt;Node13</title>
<path fill="none" stroke="midnightblue" d="M497.002,-224.083C502.511,-216.455 510.593,-205.264 517.327,-195.941"/>
<polygon fill="midnightblue" stroke="midnightblue" points="520.224,-197.907 523.242,-187.751 514.549,-193.809 520.224,-197.907"/>
</g>
<!-- Node13&#45;&gt;Node4 -->
<g id="edge18" class="edge"><title>Node13&#45;&gt;Node4</title>
<path fill="none" stroke="midnightblue" d="M468.288,-168.728C444.721,-162.449 419.639,-151.409 403.562,-132 379.458,-102.899 379.662,-55.8955 382.042,-29.8658"/>
<polygon fill="midnightblue" stroke="midnightblue" points="385.533,-30.1419 383.17,-19.814 378.577,-29.3614 385.533,-30.1419"/>
</g>
<!-- Node14 -->
<g id="node14" class="node"><title>Node14</title>
<polygon fill="none" stroke="#bfbfbf" points="498.062,-56.5 498.062,-75.5 555.062,-75.5 555.062,-56.5 498.062,-56.5"/>
<text text-anchor="middle" x="526.562" y="-63.5" font-family="Helvetica,sans-Serif" font-size="10.00">memory</text>
</g>
<!-- Node13&#45;&gt;Node14 -->
<g id="edge17" class="edge"><title>Node13&#45;&gt;Node14</title>
<path fill="none" stroke="midnightblue" d="M537.861,-168.41C548.619,-156.193 565.252,-132.953 558.562,-112 555.221,-101.538 548.462,-91.4277 542.013,-83.4496"/>
<polygon fill="midnightblue" stroke="midnightblue" points="544.506,-80.9815 535.313,-75.7136 539.214,-85.5641 544.506,-80.9815"/>
</g>
<!-- Node15 -->
<g id="node15" class="node"><title>Node15</title>
<g id="a_node15"><a xlink:href="Entity_8hpp.html" target="_top" xlink:title="Entity.hpp">
<polygon fill="none" stroke="black" points="573.062,-56.5 573.062,-75.5 636.062,-75.5 636.062,-56.5 573.062,-56.5"/>
<text text-anchor="middle" x="604.562" y="-63.5" font-family="Helvetica,sans-Serif" font-size="10.00">Entity.hpp</text>
</a>
</g>
</g>
<!-- Node13&#45;&gt;Node15 -->
<g id="edge19" class="edge"><title>Node13&#45;&gt;Node15</title>
<path fill="none" stroke="midnightblue" d="M539.624,-168.488C549.234,-159.978 563.678,-146.154 573.562,-132 583.729,-117.441 592.156,-99.0291 597.645,-85.521"/>
<polygon fill="midnightblue" stroke="midnightblue" points="601.022,-86.4946 601.394,-75.9063 594.501,-83.9516 601.022,-86.4946"/>
</g>
<!-- Node16 -->
<g id="node16" class="node"><title>Node16</title>
<g id="a_node16"><a xlink:href="IEntityManager_8hpp.html" target="_top" xlink:title="IEntityManager.hpp">
<polygon fill="none" stroke="black" points="644.562,-112.5 644.562,-131.5 752.562,-131.5 752.562,-112.5 644.562,-112.5"/>
<text text-anchor="middle" x="698.562" y="-119.5" font-family="Helvetica,sans-Serif" font-size="10.00">IEntityManager.hpp</text>
</a>
</g>
</g>
<!-- Node13&#45;&gt;Node16 -->
<g id="edge20" class="edge"><title>Node13&#45;&gt;Node16</title>
<path fill="none" stroke="midnightblue" d="M556.341,-168.444C584.895,-159.32 630.295,-144.813 662.099,-134.651"/>
<polygon fill="midnightblue" stroke="midnightblue" points="663.448,-137.894 671.909,-131.516 661.318,-131.226 663.448,-137.894"/>
</g>
<!-- Node21 -->
<g id="node21" class="node"><title>Node21</title>
<g id="a_node21"><a xlink:href="IComponentManager_8hpp.html" target="_top" xlink:title="IComponentManager.hpp">
<polygon fill="none" stroke="black" points="413.062,-112.5 413.062,-131.5 550.062,-131.5 550.062,-112.5 413.062,-112.5"/>
<text text-anchor="middle" x="481.562" y="-119.5" font-family="Helvetica,sans-Serif" font-size="10.00">IComponentManager.hpp</text>
</a>
</g>
</g>
<!-- Node13&#45;&gt;Node21 -->
<g id="edge28" class="edge"><title>Node13&#45;&gt;Node21</title>
<path fill="none" stroke="midnightblue" d="M521.636,-168.083C514.716,-160.298 504.497,-148.801 496.11,-139.367"/>
<polygon fill="midnightblue" stroke="midnightblue" points="498.6,-136.9 489.341,-131.751 493.368,-141.55 498.6,-136.9"/>
</g>
<!-- Node16&#45;&gt;Node14 -->
<g id="edge21" class="edge"><title>Node16&#45;&gt;Node14</title>
<path fill="none" stroke="midnightblue" d="M671.308,-112.444C642.121,-103.28 595.641,-88.6876 563.253,-78.5192"/>
<polygon fill="midnightblue" stroke="midnightblue" points="564.278,-75.1726 553.688,-75.5164 562.181,-81.8512 564.278,-75.1726"/>
</g>
<!-- Node16&#45;&gt;Node15 -->
<g id="edge23" class="edge"><title>Node16&#45;&gt;Node15</title>
<path fill="none" stroke="midnightblue" d="M683.459,-112.324C668.659,-103.822 645.868,-90.7288 628.58,-80.7975"/>
<polygon fill="midnightblue" stroke="midnightblue" points="630.042,-77.6009 619.627,-75.6545 626.555,-83.6707 630.042,-77.6009"/>
</g>
<!-- Node17 -->
<g id="node17" class="node"><title>Node17</title>
<polygon fill="none" stroke="#bfbfbf" points="783.062,-56.5 783.062,-75.5 830.062,-75.5 830.062,-56.5 783.062,-56.5"/>
<text text-anchor="middle" x="806.562" y="-63.5" font-family="Helvetica,sans-Serif" font-size="10.00">vector</text>
</g>
<!-- Node16&#45;&gt;Node17 -->
<g id="edge22" class="edge"><title>Node16&#45;&gt;Node17</title>
<path fill="none" stroke="midnightblue" d="M715.914,-112.324C733.234,-103.664 760.077,-90.2424 780.064,-80.249"/>
<polygon fill="midnightblue" stroke="midnightblue" points="781.874,-83.2572 789.253,-75.6545 778.743,-76.9962 781.874,-83.2572"/>
</g>
<!-- Node18 -->
<g id="node18" class="node"><title>Node18</title>
<g id="a_node18"><a xlink:href="PacketManager_8hpp.html" target="_top" xlink:title="PacketManager.hpp">
<polygon fill="none" stroke="black" points="654.562,-56.5 654.562,-75.5 764.562,-75.5 764.562,-56.5 654.562,-56.5"/>
<text text-anchor="middle" x="709.562" y="-63.5" font-family="Helvetica,sans-Serif" font-size="10.00">PacketManager.hpp</text>
</a>
</g>
</g>
<!-- Node16&#45;&gt;Node18 -->
<g id="edge24" class="edge"><title>Node16&#45;&gt;Node18</title>
<path fill="none" stroke="midnightblue" d="M700.378,-112.083C701.836,-104.927 703.933,-94.6353 705.755,-85.6911"/>
<polygon fill="midnightblue" stroke="midnightblue" points="709.213,-86.2485 707.779,-75.7511 702.354,-84.8512 709.213,-86.2485"/>
</g>
<!-- Node18&#45;&gt;Node4 -->
<g id="edge25" class="edge"><title>Node18&#45;&gt;Node4</title>
<path fill="none" stroke="midnightblue" d="M658.065,-56.4435C590.3,-45.1842 473.205,-25.7283 416.787,-16.3543"/>
<polygon fill="midnightblue" stroke="midnightblue" points="417.102,-12.8588 406.664,-14.6723 415.955,-19.7641 417.102,-12.8588"/>
</g>
<!-- Node19 -->
<g id="node19" class="node"><title>Node19</title>
<polygon fill="none" stroke="#bfbfbf" points="533.562,-0.5 533.562,-19.5 563.562,-19.5 563.562,-0.5 533.562,-0.5"/>
<text text-anchor="middle" x="548.562" y="-7.5" font-family="Helvetica,sans-Serif" font-size="10.00">list</text>
</g>
<!-- Node18&#45;&gt;Node19 -->
<g id="edge26" class="edge"><title>Node18&#45;&gt;Node19</title>
<path fill="none" stroke="midnightblue" d="M684.051,-56.4435C653.752,-46.2813 603.546,-29.4419 573.501,-19.3646"/>
<polygon fill="midnightblue" stroke="midnightblue" points="574.374,-15.9658 563.78,-16.1041 572.148,-22.6025 574.374,-15.9658"/>
</g>
<!-- Node20 -->
<g id="node20" class="node"><title>Node20</title>
<g id="a_node20"><a xlink:href="Input_8hpp.html" target="_top" xlink:title="Render/Input.hpp">
<polygon fill="none" stroke="black" points="660.562,-0.5 660.562,-19.5 758.562,-19.5 758.562,-0.5 660.562,-0.5"/>
<text text-anchor="middle" x="709.562" y="-7.5" font-family="Helvetica,sans-Serif" font-size="10.00">Render/Input.hpp</text>
</a>
</g>
</g>
<!-- Node18&#45;&gt;Node20 -->
<g id="edge27" class="edge"><title>Node18&#45;&gt;Node20</title>
<path fill="none" stroke="midnightblue" d="M709.562,-56.083C709.562,-49.0059 709.562,-38.8611 709.562,-29.9865"/>
<polygon fill="midnightblue" stroke="midnightblue" points="713.062,-29.751 709.562,-19.7511 706.062,-29.7511 713.062,-29.751"/>
</g>
<!-- Node21&#45;&gt;Node8 -->
<g id="edge31" class="edge"><title>Node21&#45;&gt;Node8</title>
<path fill="none" stroke="midnightblue" d="M454.15,-112.444C424.793,-103.28 378.043,-88.6876 345.466,-78.5192"/>
<polygon fill="midnightblue" stroke="midnightblue" points="346.435,-75.1551 335.846,-75.5164 344.349,-81.8371 346.435,-75.1551"/>
</g>
<!-- Node21&#45;&gt;Node14 -->
<g id="edge30" class="edge"><title>Node21&#45;&gt;Node14</title>
<path fill="none" stroke="midnightblue" d="M488.993,-112.083C495.415,-104.377 504.868,-93.0333 512.684,-83.6531"/>
<polygon fill="midnightblue" stroke="midnightblue" points="515.556,-85.674 519.269,-75.7511 510.179,-81.1927 515.556,-85.674"/>
</g>
<!-- Node21&#45;&gt;Node15 -->
<g id="edge32" class="edge"><title>Node21&#45;&gt;Node15</title>
<path fill="none" stroke="midnightblue" d="M501.052,-112.444C521.204,-103.596 552.885,-89.6875 575.893,-79.5865"/>
<polygon fill="midnightblue" stroke="midnightblue" points="577.414,-82.7411 585.163,-75.5164 574.6,-76.3316 577.414,-82.7411"/>
</g>
<!-- Node21&#45;&gt;Node19 -->
<g id="edge29" class="edge"><title>Node21&#45;&gt;Node19</title>
<path fill="none" stroke="midnightblue" d="M480.418,-112.347C479.118,-99.2329 478.347,-73.9543 488.562,-56 496.749,-41.6112 511.603,-30.4151 524.483,-22.7896"/>
<polygon fill="midnightblue" stroke="midnightblue" points="526.325,-25.7703 533.389,-17.8734 522.942,-19.642 526.325,-25.7703"/>
</g>
</g>
</svg>
