<?xml version="1.0" encoding="UTF-8" standalone="no"?>
<!DOCTYPE svg PUBLIC "-//W3C//DTD SVG 1.1//EN"
 "http://www.w3.org/Graphics/SVG/1.1/DTD/svg11.dtd">
<!-- Generated by graphviz version 2.38.0 (20140413.2041)
 -->
<!-- Title: src/Components/IO/Output.hpp Pages: 1 -->
<svg width="787pt" height="162pt"
 viewBox="0.00 0.00 787.00 162.00" xmlns="http://www.w3.org/2000/svg" xmlns:xlink="http://www.w3.org/1999/xlink">
<g id="graph0" class="graph" transform="scale(1 1) rotate(0) translate(4 158)">
<title>src/Components/IO/Output.hpp</title>
<!-- Node1 -->
<g id="node1" class="node"><title>Node1</title>
<polygon fill="#bfbfbf" stroke="black" points="178.5,-134.5 178.5,-153.5 343.5,-153.5 343.5,-134.5 178.5,-134.5"/>
<text text-anchor="middle" x="261" y="-141.5" font-family="Helvetica,sans-Serif" font-size="10.00">src/Components/IO/Output.hpp</text>
</g>
<!-- Node2 -->
<g id="node2" class="node"><title>Node2</title>
<g id="a_node2"><a xlink:href="Output_8cpp.html" target="_top" xlink:title="src/Components/IO/Output.cpp">
<polygon fill="none" stroke="black" points="88,-78.5 88,-97.5 252,-97.5 252,-78.5 88,-78.5"/>
<text text-anchor="middle" x="170" y="-85.5" font-family="Helvetica,sans-Serif" font-size="10.00">src/Components/IO/Output.cpp</text>
</a>
</g>
</g>
<!-- Node1&#45;&gt;Node2 -->
<g id="edge1" class="edge"><title>Node1&#45;&gt;Node2</title>
<path fill="none" stroke="midnightblue" d="M237.706,-129.177C220.961,-119.241 198.9,-106.149 184.584,-97.6545"/>
<polygon fill="midnightblue" stroke="midnightblue" points="235.993,-132.231 246.379,-134.324 239.566,-126.211 235.993,-132.231"/>
</g>
<!-- Node3 -->
<g id="node3" class="node"><title>Node3</title>
<g id="a_node3"><a xlink:href="Components_2IO_2Sound_8hpp.html" target="_top" xlink:title="src/Components/IO/Sound.hpp">
<polygon fill="none" stroke="black" points="270.5,-78.5 270.5,-97.5 433.5,-97.5 433.5,-78.5 270.5,-78.5"/>
<text text-anchor="middle" x="352" y="-85.5" font-family="Helvetica,sans-Serif" font-size="10.00">src/Components/IO/Sound.hpp</text>
</a>
</g>
</g>
<!-- Node1&#45;&gt;Node3 -->
<g id="edge2" class="edge"><title>Node1&#45;&gt;Node3</title>
<path fill="none" stroke="midnightblue" d="M284.294,-129.177C301.039,-119.241 323.1,-106.149 337.416,-97.6545"/>
<polygon fill="midnightblue" stroke="midnightblue" points="282.434,-126.211 275.621,-134.324 286.007,-132.231 282.434,-126.211"/>
</g>
<!-- Node4 -->
<g id="node4" class="node"><title>Node4</title>
<g id="a_node4"><a xlink:href="Components_2IO_2Sound_8cpp.html" target="_top" xlink:title="src/Components/IO/Sound.cpp">
<polygon fill="none" stroke="black" points="0,-11.5 0,-30.5 162,-30.5 162,-11.5 0,-11.5"/>
<text text-anchor="middle" x="81" y="-18.5" font-family="Helvetica,sans-Serif" font-size="10.00">src/Components/IO/Sound.cpp</text>
</a>
</g>
</g>
<!-- Node3&#45;&gt;Node4 -->
<g id="edge3" class="edge"><title>Node3&#45;&gt;Node4</title>
<path fill="none" stroke="midnightblue" d="M306.406,-76.0642C252.98,-63.2499 165.572,-42.2848 116.786,-30.5834"/>
<polygon fill="midnightblue" stroke="midnightblue" points="305.752,-79.5066 316.293,-78.4355 307.385,-72.6996 305.752,-79.5066"/>
</g>
<!-- Node5 -->
<g id="node5" class="node"><title>Node5</title>
<g id="a_node5"><a xlink:href="PlayerEntity_8cpp.html" target="_top" xlink:title="src/Entities/EntityConstructor\l/PlayerEntity/PlayerEntity.cpp">
<polygon fill="none" stroke="black" points="180.5,-6 180.5,-36 335.5,-36 335.5,-6 180.5,-6"/>
<text text-anchor="start" x="188.5" y="-24" font-family="Helvetica,sans-Serif" font-size="10.00">src/Entities/EntityConstructor</text>
<text text-anchor="middle" x="258" y="-13" font-family="Helvetica,sans-Serif" font-size="10.00">/PlayerEntity/PlayerEntity.cpp</text>
</a>
</g>
</g>
<!-- Node3&#45;&gt;Node5 -->
<g id="edge4" class="edge"><title>Node3&#45;&gt;Node5</title>
<path fill="none" stroke="midnightblue" d="M330.813,-72.3495C315.123,-61.4998 293.869,-46.8028 278.375,-36.089"/>
<polygon fill="midnightblue" stroke="midnightblue" points="329.107,-75.425 339.323,-78.2338 333.088,-69.6674 329.107,-75.425"/>
</g>
<!-- Node6 -->
<g id="node6" class="node"><title>Node6</title>
<g id="a_node6"><a xlink:href="PlayerTwoEntity_8cpp.html" target="_top" xlink:title="src/Entities/EntityConstructor\l/PlayerTwoEntity/PlayerTwoEntity.cpp">
<polygon fill="none" stroke="black" points="353.5,-6 353.5,-36 540.5,-36 540.5,-6 353.5,-6"/>
<text text-anchor="start" x="361.5" y="-24" font-family="Helvetica,sans-Serif" font-size="10.00">src/Entities/EntityConstructor</text>
<text text-anchor="middle" x="447" y="-13" font-family="Helvetica,sans-Serif" font-size="10.00">/PlayerTwoEntity/PlayerTwoEntity.cpp</text>
</a>
</g>
</g>
<!-- Node3&#45;&gt;Node6 -->
<g id="edge5" class="edge"><title>Node3&#45;&gt;Node6</title>
<path fill="none" stroke="midnightblue" d="M373.412,-72.3495C389.27,-61.4998 410.75,-46.8028 426.408,-36.089"/>
<polygon fill="midnightblue" stroke="midnightblue" points="371.089,-69.6983 364.812,-78.2338 375.042,-75.4755 371.089,-69.6983"/>
</g>
<!-- Node7 -->
<g id="node7" class="node"><title>Node7</title>
<g id="a_node7"><a xlink:href="PlayerMovementSystem_8cpp.html" target="_top" xlink:title="src/Systems/SystemConstructor\l/PlayerMovementSystem/PlayerMovement\lSystem.cpp">
<polygon fill="none" stroke="black" points="559,-0.5 559,-41.5 779,-41.5 779,-0.5 559,-0.5"/>
<text text-anchor="start" x="567" y="-29.5" font-family="Helvetica,sans-Serif" font-size="10.00">src/Systems/SystemConstructor</text>
<text text-anchor="start" x="567" y="-18.5" font-family="Helvetica,sans-Serif" font-size="10.00">/PlayerMovementSystem/PlayerMovement</text>
<text text-anchor="middle" x="669" y="-7.5" font-family="Helvetica,sans-Serif" font-size="10.00">System.cpp</text>
</a>
</g>
</g>
<!-- Node3&#45;&gt;Node7 -->
<g id="edge6" class="edge"><title>Node3&#45;&gt;Node7</title>
<path fill="none" stroke="midnightblue" d="M403.792,-76.3802C449.726,-66.9615 517.985,-52.9652 573.749,-41.5309"/>
<polygon fill="midnightblue" stroke="midnightblue" points="402.861,-72.9981 393.768,-78.4355 404.267,-79.8555 402.861,-72.9981"/>
</g>
</g>
</svg>
