<?xml version="1.0" encoding="UTF-8" standalone="no"?>
<!DOCTYPE svg PUBLIC "-//W3C//DTD SVG 1.1//EN"
 "http://www.w3.org/Graphics/SVG/1.1/DTD/svg11.dtd">
<!-- Generated by graphviz version 2.38.0 (20140413.2041)
 -->
<!-- Title: src/Network/PacketManager.cpp Pages: 1 -->
<svg width="273pt" height="140pt"
 viewBox="0.00 0.00 272.50 140.00" xmlns="http://www.w3.org/2000/svg" xmlns:xlink="http://www.w3.org/1999/xlink">
<g id="graph0" class="graph" transform="scale(1 1) rotate(0) translate(4 136)">
<title>src/Network/PacketManager.cpp</title>
<!-- Node1 -->
<g id="node1" class="node"><title>Node1</title>
<polygon fill="#bfbfbf" stroke="black" points="-1.42109e-14,-112.5 -1.42109e-14,-131.5 169,-131.5 169,-112.5 -1.42109e-14,-112.5"/>
<text text-anchor="middle" x="84.5" y="-119.5" font-family="Helvetica,sans-Serif" font-size="10.00">src/Network/PacketManager.cpp</text>
</g>
<!-- Node2 -->
<g id="node2" class="node"><title>Node2</title>
<polygon fill="none" stroke="#bfbfbf" points="11,-56.5 11,-75.5 60,-75.5 60,-56.5 11,-56.5"/>
<text text-anchor="middle" x="35.5" y="-63.5" font-family="Helvetica,sans-Serif" font-size="10.00">cstring</text>
</g>
<!-- Node1&#45;&gt;Node2 -->
<g id="edge1" class="edge"><title>Node1&#45;&gt;Node2</title>
<path fill="none" stroke="midnightblue" d="M76.4086,-112.083C69.3446,-104.298 58.9124,-92.8015 50.3511,-83.3665"/>
<polygon fill="midnightblue" stroke="midnightblue" points="52.7527,-80.8047 43.4408,-75.7511 47.5688,-85.5087 52.7527,-80.8047"/>
</g>
<!-- Node3 -->
<g id="node3" class="node"><title>Node3</title>
<g id="a_node3"><a xlink:href="PacketManager_8hpp.html" target="_top" xlink:title="PacketManager.hpp">
<polygon fill="none" stroke="black" points="78.5,-56.5 78.5,-75.5 188.5,-75.5 188.5,-56.5 78.5,-56.5"/>
<text text-anchor="middle" x="133.5" y="-63.5" font-family="Helvetica,sans-Serif" font-size="10.00">PacketManager.hpp</text>
</a>
</g>
</g>
<!-- Node1&#45;&gt;Node3 -->
<g id="edge2" class="edge"><title>Node1&#45;&gt;Node3</title>
<path fill="none" stroke="midnightblue" d="M92.5914,-112.083C99.6554,-104.298 110.088,-92.8015 118.649,-83.3665"/>
<polygon fill="midnightblue" stroke="midnightblue" points="121.431,-85.5087 125.559,-75.7511 116.247,-80.8047 121.431,-85.5087"/>
</g>
<!-- Node4 -->
<g id="node4" class="node"><title>Node4</title>
<polygon fill="none" stroke="#bfbfbf" points="56.5,-0.5 56.5,-19.5 100.5,-19.5 100.5,-0.5 56.5,-0.5"/>
<text text-anchor="middle" x="78.5" y="-7.5" font-family="Helvetica,sans-Serif" font-size="10.00">string</text>
</g>
<!-- Node3&#45;&gt;Node4 -->
<g id="edge3" class="edge"><title>Node3&#45;&gt;Node4</title>
<path fill="none" stroke="midnightblue" d="M124.418,-56.083C116.329,-48.1409 104.305,-36.3354 94.5898,-26.7973"/>
<polygon fill="midnightblue" stroke="midnightblue" points="97.0009,-24.2595 87.4131,-19.7511 92.0967,-29.2545 97.0009,-24.2595"/>
</g>
<!-- Node5 -->
<g id="node5" class="node"><title>Node5</title>
<polygon fill="none" stroke="#bfbfbf" points="118.5,-0.5 118.5,-19.5 148.5,-19.5 148.5,-0.5 118.5,-0.5"/>
<text text-anchor="middle" x="133.5" y="-7.5" font-family="Helvetica,sans-Serif" font-size="10.00">list</text>
</g>
<!-- Node3&#45;&gt;Node5 -->
<g id="edge4" class="edge"><title>Node3&#45;&gt;Node5</title>
<path fill="none" stroke="midnightblue" d="M133.5,-56.083C133.5,-49.0059 133.5,-38.8611 133.5,-29.9865"/>
<polygon fill="midnightblue" stroke="midnightblue" points="137,-29.751 133.5,-19.7511 130,-29.7511 137,-29.751"/>
</g>
<!-- Node6 -->
<g id="node6" class="node"><title>Node6</title>
<g id="a_node6"><a xlink:href="Input_8hpp.html" target="_top" xlink:title="Render/Input.hpp">
<polygon fill="none" stroke="black" points="166.5,-0.5 166.5,-19.5 264.5,-19.5 264.5,-0.5 166.5,-0.5"/>
<text text-anchor="middle" x="215.5" y="-7.5" font-family="Helvetica,sans-Serif" font-size="10.00">Render/Input.hpp</text>
</a>
</g>
</g>
<!-- Node3&#45;&gt;Node6 -->
<g id="edge5" class="edge"><title>Node3&#45;&gt;Node6</title>
<path fill="none" stroke="midnightblue" d="M146.675,-56.324C159.347,-47.979 178.733,-35.2122 193.706,-25.3524"/>
<polygon fill="midnightblue" stroke="midnightblue" points="195.931,-28.0776 202.358,-19.6545 192.081,-22.2313 195.931,-28.0776"/>
</g>
</g>
</svg>
