<?xml version="1.0" encoding="UTF-8" standalone="no"?>
<!DOCTYPE svg PUBLIC "-//W3C//DTD SVG 1.1//EN"
 "http://www.w3.org/Graphics/SVG/1.1/DTD/svg11.dtd">
<!-- Generated by graphviz version 2.38.0 (20140413.2041)
 -->
<!-- Title: src/Components/Display/Parallax.cpp Pages: 1 -->
<svg width="418pt" height="319pt"
 viewBox="0.00 0.00 418.00 319.00" xmlns="http://www.w3.org/2000/svg" xmlns:xlink="http://www.w3.org/1999/xlink">
<g id="graph0" class="graph" transform="scale(1 1) rotate(0) translate(4 315)">
<title>src/Components/Display/Parallax.cpp</title>
<!-- Node1 -->
<g id="node1" class="node"><title>Node1</title>
<polygon fill="#bfbfbf" stroke="black" points="277,-280.5 277,-310.5 410,-310.5 410,-280.5 277,-280.5"/>
<text text-anchor="start" x="285" y="-298.5" font-family="Helvetica,sans-Serif" font-size="10.00">src/Components/Display</text>
<text text-anchor="middle" x="343.5" y="-287.5" font-family="Helvetica,sans-Serif" font-size="10.00">/Parallax.cpp</text>
</g>
<!-- Node2 -->
<g id="node2" class="node"><title>Node2</title>
<g id="a_node2"><a xlink:href="Parallax_8hpp.html" target="_top" xlink:title="Parallax.hpp">
<polygon fill="none" stroke="black" points="274.5,-224.5 274.5,-243.5 348.5,-243.5 348.5,-224.5 274.5,-224.5"/>
<text text-anchor="middle" x="311.5" y="-231.5" font-family="Helvetica,sans-Serif" font-size="10.00">Parallax.hpp</text>
</a>
</g>
</g>
<!-- Node1&#45;&gt;Node2 -->
<g id="edge1" class="edge"><title>Node1&#45;&gt;Node2</title>
<path fill="none" stroke="midnightblue" d="M335.916,-280.399C331.458,-272.11 325.781,-261.554 321.023,-252.708"/>
<polygon fill="midnightblue" stroke="midnightblue" points="323.975,-250.807 316.156,-243.658 317.81,-254.123 323.975,-250.807"/>
</g>
<!-- Node9 -->
<g id="node9" class="node"><title>Node9</title>
<g id="a_node9"><a xlink:href="Rect_8hpp.html" target="_top" xlink:title="Rect.hpp">
<polygon fill="none" stroke="black" points="347.5,-168.5 347.5,-187.5 405.5,-187.5 405.5,-168.5 347.5,-168.5"/>
<text text-anchor="middle" x="376.5" y="-175.5" font-family="Helvetica,sans-Serif" font-size="10.00">Rect.hpp</text>
</a>
</g>
</g>
<!-- Node1&#45;&gt;Node9 -->
<g id="edge14" class="edge"><title>Node1&#45;&gt;Node9</title>
<path fill="none" stroke="midnightblue" d="M347.546,-280.337C353.492,-259.527 364.596,-220.663 371.19,-197.583"/>
<polygon fill="midnightblue" stroke="midnightblue" points="374.641,-198.246 374.023,-187.669 367.91,-196.323 374.641,-198.246"/>
</g>
<!-- Node3 -->
<g id="node3" class="node"><title>Node3</title>
<polygon fill="none" stroke="#bfbfbf" points="193,-0.5 193,-19.5 256,-19.5 256,-0.5 193,-0.5"/>
<text text-anchor="middle" x="224.5" y="-7.5" font-family="Helvetica,sans-Serif" font-size="10.00">typeindex</text>
</g>
<!-- Node2&#45;&gt;Node3 -->
<g id="edge2" class="edge"><title>Node2&#45;&gt;Node3</title>
<path fill="none" stroke="midnightblue" d="M310.546,-224.391C307.327,-197.863 295.234,-115.574 263.5,-56 257.813,-45.3244 249.178,-35.0075 241.478,-26.9513"/>
<polygon fill="midnightblue" stroke="midnightblue" points="243.783,-24.3067 234.233,-19.7191 238.837,-29.2609 243.783,-24.3067"/>
</g>
<!-- Node4 -->
<g id="node4" class="node"><title>Node4</title>
<g id="a_node4"><a xlink:href="IDisplay_8hpp.html" target="_top" xlink:title="IDisplay.hpp">
<polygon fill="none" stroke="black" points="0,-112.5 0,-131.5 73,-131.5 73,-112.5 0,-112.5"/>
<text text-anchor="middle" x="36.5" y="-119.5" font-family="Helvetica,sans-Serif" font-size="10.00">IDisplay.hpp</text>
</a>
</g>
</g>
<!-- Node2&#45;&gt;Node4 -->
<g id="edge3" class="edge"><title>Node2&#45;&gt;Node4</title>
<path fill="none" stroke="midnightblue" d="M288.153,-224.433C264.095,-215.543 225.548,-201.13 192.5,-188 148.212,-170.405 97.3257,-148.972 66.0416,-135.653"/>
<polygon fill="midnightblue" stroke="midnightblue" points="67.1778,-132.333 56.6063,-131.629 64.4317,-138.772 67.1778,-132.333"/>
</g>
<!-- Node6 -->
<g id="node6" class="node"><title>Node6</title>
<g id="a_node6"><a xlink:href="Timer_8hpp.html" target="_top" xlink:title="Timer.hpp">
<polygon fill="none" stroke="black" points="201.5,-168.5 201.5,-187.5 265.5,-187.5 265.5,-168.5 201.5,-168.5"/>
<text text-anchor="middle" x="233.5" y="-175.5" font-family="Helvetica,sans-Serif" font-size="10.00">Timer.hpp</text>
</a>
</g>
</g>
<!-- Node2&#45;&gt;Node6 -->
<g id="edge7" class="edge"><title>Node2&#45;&gt;Node6</title>
<path fill="none" stroke="midnightblue" d="M298.968,-224.324C286.914,-215.979 268.473,-203.212 254.231,-193.352"/>
<polygon fill="midnightblue" stroke="midnightblue" points="256.215,-190.469 246.001,-187.655 252.231,-196.224 256.215,-190.469"/>
</g>
<!-- Node2&#45;&gt;Node9 -->
<g id="edge13" class="edge"><title>Node2&#45;&gt;Node9</title>
<path fill="none" stroke="midnightblue" d="M321.943,-224.324C331.646,-216.263 346.315,-204.077 358,-194.369"/>
<polygon fill="midnightblue" stroke="midnightblue" points="360.411,-196.916 365.867,-187.834 355.938,-191.532 360.411,-196.916"/>
</g>
<!-- Node4&#45;&gt;Node3 -->
<g id="edge4" class="edge"><title>Node4&#45;&gt;Node3</title>
<path fill="none" stroke="midnightblue" d="M41.7679,-112.098C50.437,-98.1851 69.0112,-71.2996 91.5,-56 119.143,-37.194 155.343,-25.6222 182.995,-18.9311"/>
<polygon fill="midnightblue" stroke="midnightblue" points="183.805,-22.3364 192.765,-16.6824 182.235,-15.5147 183.805,-22.3364"/>
</g>
<!-- Node5 -->
<g id="node5" class="node"><title>Node5</title>
<g id="a_node5"><a xlink:href="IComponent_8hpp.html" target="_top" xlink:title="IComponent.hpp">
<polygon fill="none" stroke="black" points="100.5,-56.5 100.5,-75.5 196.5,-75.5 196.5,-56.5 100.5,-56.5"/>
<text text-anchor="middle" x="148.5" y="-63.5" font-family="Helvetica,sans-Serif" font-size="10.00">IComponent.hpp</text>
</a>
</g>
</g>
<!-- Node4&#45;&gt;Node5 -->
<g id="edge5" class="edge"><title>Node4&#45;&gt;Node5</title>
<path fill="none" stroke="midnightblue" d="M54.4947,-112.324C72.5377,-103.625 100.547,-90.1202 121.303,-80.113"/>
<polygon fill="midnightblue" stroke="midnightblue" points="123.062,-83.1502 130.55,-75.6545 120.022,-76.8449 123.062,-83.1502"/>
</g>
<!-- Node5&#45;&gt;Node3 -->
<g id="edge6" class="edge"><title>Node5&#45;&gt;Node3</title>
<path fill="none" stroke="midnightblue" d="M160.711,-56.324C172.276,-48.1066 189.875,-35.6017 203.661,-25.8069"/>
<polygon fill="midnightblue" stroke="midnightblue" points="205.943,-28.4791 212.067,-19.8339 201.888,-22.7729 205.943,-28.4791"/>
</g>
<!-- Node6&#45;&gt;Node3 -->
<g id="edge9" class="edge"><title>Node6&#45;&gt;Node3</title>
<path fill="none" stroke="midnightblue" d="M241.173,-168.459C248.279,-159.927 258.354,-146.088 262.5,-132 265.01,-123.473 264.091,-120.745 262.5,-112 256.961,-81.5493 242.746,-48.3389 233.359,-28.6117"/>
<polygon fill="midnightblue" stroke="midnightblue" points="236.497,-27.0596 228.963,-19.6107 230.207,-30.1322 236.497,-27.0596"/>
</g>
<!-- Node7 -->
<g id="node7" class="node"><title>Node7</title>
<polygon fill="none" stroke="#bfbfbf" points="91.5,-112.5 91.5,-131.5 141.5,-131.5 141.5,-112.5 91.5,-112.5"/>
<text text-anchor="middle" x="116.5" y="-119.5" font-family="Helvetica,sans-Serif" font-size="10.00">chrono</text>
</g>
<!-- Node6&#45;&gt;Node7 -->
<g id="edge8" class="edge"><title>Node6&#45;&gt;Node7</title>
<path fill="none" stroke="midnightblue" d="M214.961,-168.444C195.877,-159.636 165.925,-145.812 144.064,-135.722"/>
<polygon fill="midnightblue" stroke="midnightblue" points="145.499,-132.529 134.952,-131.516 142.565,-138.885 145.499,-132.529"/>
</g>
<!-- Node8 -->
<g id="node8" class="node"><title>Node8</title>
<g id="a_node8"><a xlink:href="IGameLogic_8hpp.html" target="_top" xlink:title="IGameLogic.hpp">
<polygon fill="none" stroke="black" points="159.5,-112.5 159.5,-131.5 253.5,-131.5 253.5,-112.5 159.5,-112.5"/>
<text text-anchor="middle" x="206.5" y="-119.5" font-family="Helvetica,sans-Serif" font-size="10.00">IGameLogic.hpp</text>
</a>
</g>
</g>
<!-- Node6&#45;&gt;Node8 -->
<g id="edge10" class="edge"><title>Node6&#45;&gt;Node8</title>
<path fill="none" stroke="midnightblue" d="M229.041,-168.083C225.346,-160.691 219.977,-149.953 215.406,-140.811"/>
<polygon fill="midnightblue" stroke="midnightblue" points="218.478,-139.13 210.876,-131.751 212.217,-142.261 218.478,-139.13"/>
</g>
<!-- Node8&#45;&gt;Node3 -->
<g id="edge11" class="edge"><title>Node8&#45;&gt;Node3</title>
<path fill="none" stroke="midnightblue" d="M207.912,-112.368C210.817,-94.617 217.518,-53.6664 221.457,-29.5974"/>
<polygon fill="midnightblue" stroke="midnightblue" points="224.933,-30.0254 223.094,-19.5914 218.025,-28.8949 224.933,-30.0254"/>
</g>
<!-- Node8&#45;&gt;Node5 -->
<g id="edge12" class="edge"><title>Node8&#45;&gt;Node5</title>
<path fill="none" stroke="midnightblue" d="M197.181,-112.324C188.607,-104.341 175.688,-92.3128 165.312,-82.6529"/>
<polygon fill="midnightblue" stroke="midnightblue" points="167.692,-80.0865 157.988,-75.8339 162.922,-85.2098 167.692,-80.0865"/>
</g>
</g>
</svg>
