<?xml version="1.0" encoding="UTF-8" standalone="no"?>
<!DOCTYPE svg PUBLIC "-//W3C//DTD SVG 1.1//EN"
 "http://www.w3.org/Graphics/SVG/1.1/DTD/svg11.dtd">
<!-- Generated by graphviz version 2.38.0 (20140413.2041)
 -->
<!-- Title: src/Systems/SystemConstructor/ParallaxSystem/ParallaxSystem.hpp Pages: 1 -->
<!--zoomable 106 -->
<svg id="main" version="1.1" xmlns="http://www.w3.org/2000/svg" xmlns:xlink="http://www.w3.org/1999/xlink" xml:space="preserve" onload="init(evt)">
<style type="text/css"><![CDATA[
.edge:hover path { stroke: red; }
.edge:hover polygon { stroke: red; fill: red; }
]]></style>
<script type="text/javascript"><![CDATA[
var edges = document.getElementsByTagName('g');
if (edges && edges.length) {
  for (var i=0;i<edges.length;i++) {
    if (edges[i].id.substr(0,4)=='edge') {
      edges[i].setAttribute('class','edge');
    }
  }
}
]]></script>
        <defs>
                <circle id="rim" cx="0" cy="0" r="7"/>
                <circle id="rim2" cx="0" cy="0" r="3.5"/>
                <g id="zoomPlus">
                        <use xlink:href="#rim" fill="#404040">
                                <set attributeName="fill" to="#808080" begin="zoomplus.mouseover" end="zoomplus.mouseout"/>
                        </use>
                        <path d="M-4,0h8M0,-4v8" fill="none" stroke="white" stroke-width="1.5" pointer-events="none"/>
                </g>
                <g id="zoomMin">
                        <use xlink:href="#rim" fill="#404040">
                                <set attributeName="fill" to="#808080" begin="zoomminus.mouseover" end="zoomminus.mouseout"/>
                        </use>
                        <path d="M-4,0h8" fill="none" stroke="white" stroke-width="1.5" pointer-events="none"/>
                </g>
                <g id="dirArrow">
                        <path fill="none" stroke="white" stroke-width="1.5" d="M0,-3.0v7 M-2.5,-0.5L0,-3.0L2.5,-0.5"/>
                </g>
               <g id="resetDef">
                       <use xlink:href="#rim2" fill="#404040">
                               <set attributeName="fill" to="#808080" begin="reset.mouseover" end="reset.mouseout"/>
                       </use>
               </g>
        </defs>

<script type="text/javascript">
var viewWidth = 913;
var viewHeight = 106;
var sectionId = 'dynsection-1';
</script>
<script xlink:href="svgpan.js"/>
<svg id="graph" class="graph">
<g id="viewport">
<title>src/Systems/SystemConstructor/ParallaxSystem/ParallaxSystem.hpp</title>
<!-- Node1 -->
<g id="node1" class="node"><title>Node1</title>
<polygon fill="#bfbfbf" stroke="black" points="357,-67.5 357,-97.5 548,-97.5 548,-67.5 357,-67.5"/>
<text text-anchor="start" x="365" y="-85.5" font-family="Helvetica,sans-Serif" font-size="10.00">src/Systems/SystemConstructor</text>
<text text-anchor="middle" x="452.5" y="-74.5" font-family="Helvetica,sans-Serif" font-size="10.00">/ParallaxSystem/ParallaxSystem.hpp</text>
</g>
<!-- Node2 -->
<g id="node2" class="node"><title>Node2</title>
<g id="a_node2"><a xlink:href="ChooseRoomScene_8cpp.html" target="_top" xlink:title="src/Scenes/ChooseRoomScene.cpp">
<polygon fill="none" stroke="black" points="0,-6 0,-25 185,-25 185,-6 0,-6"/>
<text text-anchor="middle" x="92.5" y="-13" font-family="Helvetica,sans-Serif" font-size="10.00">src/Scenes/ChooseRoomScene.cpp</text>
</a>
</g>
</g>
<!-- Node1&#45;&gt;Node2 -->
<g id="edge1" class="edge"><title>Node1&#45;&gt;Node2</title>
<path fill="none" stroke="midnightblue" d="M364.566,-65.6231C293.677,-52.8236 196.717,-35.317 139.736,-25.0287"/>
<polygon fill="midnightblue" stroke="midnightblue" points="364.366,-69.1434 374.829,-67.476 365.61,-62.2548 364.366,-69.1434"/>
</g>
<!-- Node3 -->
<g id="node3" class="node"><title>Node3</title>
<g id="a_node3"><a xlink:href="DefeatScene_8cpp.html" target="_top" xlink:title="src/Scenes/DefeatScene.cpp">
<polygon fill="none" stroke="black" points="203,-6 203,-25 358,-25 358,-6 203,-6"/>
<text text-anchor="middle" x="280.5" y="-13" font-family="Helvetica,sans-Serif" font-size="10.00">src/Scenes/DefeatScene.cpp</text>
</a>
</g>
</g>
<!-- Node1&#45;&gt;Node3 -->
<g id="edge2" class="edge"><title>Node1&#45;&gt;Node3</title>
<path fill="none" stroke="midnightblue" d="M405.62,-63.7838C372.27,-51.1807 328.946,-34.8082 303.011,-25.007"/>
<polygon fill="midnightblue" stroke="midnightblue" points="404.587,-67.1349 415.179,-67.396 407.062,-60.5868 404.587,-67.1349"/>
</g>
<!-- Node4 -->
<g id="node4" class="node"><title>Node4</title>
<g id="a_node4"><a xlink:href="GameScene_8cpp.html" target="_top" xlink:title="src/Scenes/GameScene.cpp">
<polygon fill="none" stroke="black" points="376.5,-6 376.5,-25 528.5,-25 528.5,-6 376.5,-6"/>
<text text-anchor="middle" x="452.5" y="-13" font-family="Helvetica,sans-Serif" font-size="10.00">src/Scenes/GameScene.cpp</text>
</a>
</g>
</g>
<!-- Node1&#45;&gt;Node4 -->
<g id="edge3" class="edge"><title>Node1&#45;&gt;Node4</title>
<path fill="none" stroke="midnightblue" d="M452.5,-57.2495C452.5,-46.017 452.5,-33.3767 452.5,-25.1945"/>
<polygon fill="midnightblue" stroke="midnightblue" points="449,-57.3959 452.5,-67.396 456,-57.396 449,-57.3959"/>
</g>
<!-- Node5 -->
<g id="node5" class="node"><title>Node5</title>
<g id="a_node5"><a xlink:href="MenuScene_8cpp.html" target="_top" xlink:title="src/Scenes/MenuScene.cpp">
<polygon fill="none" stroke="black" points="547,-6 547,-25 696,-25 696,-6 547,-6"/>
<text text-anchor="middle" x="621.5" y="-13" font-family="Helvetica,sans-Serif" font-size="10.00">src/Scenes/MenuScene.cpp</text>
</a>
</g>
</g>
<!-- Node1&#45;&gt;Node5 -->
<g id="edge4" class="edge"><title>Node1&#45;&gt;Node5</title>
<path fill="none" stroke="midnightblue" d="M498.562,-63.7838C531.33,-51.1807 573.899,-34.8082 599.382,-25.007"/>
<polygon fill="midnightblue" stroke="midnightblue" points="497.247,-60.5394 489.17,-67.396 499.76,-67.0728 497.247,-60.5394"/>
</g>
<!-- Node6 -->
<g id="node6" class="node"><title>Node6</title>
<g id="a_node6"><a xlink:href="ParallaxSystem_8cpp.html" target="_top" xlink:title="src/Systems/SystemConstructor\l/ParallaxSystem/ParallaxSystem.cpp">
<polygon fill="none" stroke="black" points="714.5,-0.5 714.5,-30.5 904.5,-30.5 904.5,-0.5 714.5,-0.5"/>
<text text-anchor="start" x="722.5" y="-18.5" font-family="Helvetica,sans-Serif" font-size="10.00">src/Systems/SystemConstructor</text>
<text text-anchor="middle" x="809.5" y="-7.5" font-family="Helvetica,sans-Serif" font-size="10.00">/ParallaxSystem/ParallaxSystem.cpp</text>
</a>
</g>
</g>
<!-- Node1&#45;&gt;Node6 -->
<g id="edge5" class="edge"><title>Node1&#45;&gt;Node6</title>
<path fill="none" stroke="midnightblue" d="M539.558,-65.649C598.471,-54.9227 675.589,-40.8816 732.306,-30.5549"/>
<polygon fill="midnightblue" stroke="midnightblue" points="538.735,-62.2412 529.524,-67.476 539.989,-69.128 538.735,-62.2412"/>
</g>
</g>
</svg>
        <g id="navigator" transform="translate(0 0)" fill="#404254">
                <rect fill="#f2f5e9" fill-opacity="0.5" stroke="#606060" stroke-width=".5" x="0" y="0" width="60" height="60"/>
                <use id="zoomplus" xlink:href="#zoomPlus" x="17" y="9" onmousedown="handleZoom(evt,'in')"/>
                <use id="zoomminus" xlink:href="#zoomMin" x="42" y="9" onmousedown="handleZoom(evt,'out')"/>
                <use id="reset" xlink:href="#resetDef" x="30" y="36" onmousedown="handleReset()"/>
                <g id="arrowUp" xlink:href="#dirArrow" transform="translate(30 24)" onmousedown="handlePan(0,-1)">
                  <use xlink:href="#rim" fill="#404040">
                        <set attributeName="fill" to="#808080" begin="arrowUp.mouseover" end="arrowUp.mouseout"/>
                  </use>
                  <path fill="none" stroke="white" stroke-width="1.5" d="M0,-3.0v7 M-2.5,-0.5L0,-3.0L2.5,-0.5"/>
                </g>
                <g id="arrowRight" xlink:href="#dirArrow" transform="rotate(90) translate(36 -43)" onmousedown="handlePan(1,0)">
                  <use xlink:href="#rim" fill="#404040">
                        <set attributeName="fill" to="#808080" begin="arrowRight.mouseover" end="arrowRight.mouseout"/>
                  </use>
                  <path fill="none" stroke="white" stroke-width="1.5" d="M0,-3.0v7 M-2.5,-0.5L0,-3.0L2.5,-0.5"/>
                </g>
                <g id="arrowDown" xlink:href="#dirArrow" transform="rotate(180) translate(-30 -48)" onmousedown="handlePan(0,1)">
                  <use xlink:href="#rim" fill="#404040">
                        <set attributeName="fill" to="#808080" begin="arrowDown.mouseover" end="arrowDown.mouseout"/>
                  </use>
                  <path fill="none" stroke="white" stroke-width="1.5" d="M0,-3.0v7 M-2.5,-0.5L0,-3.0L2.5,-0.5"/>
                </g>
                <g id="arrowLeft" xlink:href="#dirArrow" transform="rotate(270) translate(-36 17)" onmousedown="handlePan(-1,0)">
                  <use xlink:href="#rim" fill="#404040">
                        <set attributeName="fill" to="#808080" begin="arrowLeft.mouseover" end="arrowLeft.mouseout"/>
                  </use>
                  <path fill="none" stroke="white" stroke-width="1.5" d="M0,-3.0v7 M-2.5,-0.5L0,-3.0L2.5,-0.5"/>
                </g>
        </g>
        <svg viewBox="0 0 15 15" width="100%" height="30px" preserveAspectRatio="xMaxYMin meet">
         <g id="arrow_out" transform="scale(0.3 0.3)">
          <a xlink:href="ParallaxSystem_8hpp__dep__incl_org.svg" target="_base">
           <rect id="button" ry="5" rx="5" y="6" x="6" height="38" width="38"
                fill="#f2f5e9" fill-opacity="0.5" stroke="#606060" stroke-width="1.0"/>
           <path id="arrow"
             d="M 11.500037,31.436501 C 11.940474,20.09759 22.043105,11.32322 32.158766,21.979434 L 37.068811,17.246167 C 37.068811,17.246167 37.088388,32 37.088388,32 L 22.160133,31.978069 C 22.160133,31.978069 26.997745,27.140456 26.997745,27.140456 C 18.528582,18.264221 13.291696,25.230495 11.500037,31.436501 z"
             style="fill:#404040;"/>
          </a>
         </g>
        </svg>
</svg>
