<?xml version="1.0" encoding="UTF-8" standalone="no"?>
<!DOCTYPE svg PUBLIC "-//W3C//DTD SVG 1.1//EN"
 "http://www.w3.org/Graphics/SVG/1.1/DTD/svg11.dtd">
<!-- Generated by graphviz version 2.38.0 (20140413.2041)
 -->
<!-- Title: src/Components/Display/Parallax.hpp Pages: 1 -->
<svg width="313pt" height="263pt"
 viewBox="0.00 0.00 312.85 263.00" xmlns="http://www.w3.org/2000/svg" xmlns:xlink="http://www.w3.org/1999/xlink">
<g id="graph0" class="graph" transform="scale(1 1) rotate(0) translate(4 259)">
<title>src/Components/Display/Parallax.hpp</title>
<!-- Node1 -->
<g id="node1" class="node"><title>Node1</title>
<polygon fill="#bfbfbf" stroke="black" points="44.3524,-224.5 44.3524,-254.5 177.352,-254.5 177.352,-224.5 44.3524,-224.5"/>
<text text-anchor="start" x="52.3524" y="-242.5" font-family="Helvetica,sans-Serif" font-size="10.00">src/Components/Display</text>
<text text-anchor="middle" x="110.852" y="-231.5" font-family="Helvetica,sans-Serif" font-size="10.00">/Parallax.hpp</text>
</g>
<!-- Node2 -->
<g id="node2" class="node"><title>Node2</title>
<polygon fill="none" stroke="#bfbfbf" points="74.3524,-0.5 74.3524,-19.5 137.352,-19.5 137.352,-0.5 74.3524,-0.5"/>
<text text-anchor="middle" x="105.852" y="-7.5" font-family="Helvetica,sans-Serif" font-size="10.00">typeindex</text>
</g>
<!-- Node1&#45;&gt;Node2 -->
<g id="edge1" class="edge"><title>Node1&#45;&gt;Node2</title>
<path fill="none" stroke="midnightblue" d="M88.5285,-224.448C62.5257,-206.608 20.9516,-173.145 3.85239,-132 -15.1185,-86.3515 42.9603,-45.0997 79.1555,-24.6128"/>
<polygon fill="midnightblue" stroke="midnightblue" points="81.1709,-27.4998 88.264,-19.6297 77.8112,-21.3587 81.1709,-27.4998"/>
</g>
<!-- Node3 -->
<g id="node3" class="node"><title>Node3</title>
<g id="a_node3"><a xlink:href="IDisplay_8hpp.html" target="_top" xlink:title="IDisplay.hpp">
<polygon fill="none" stroke="black" points="13.3524,-112.5 13.3524,-131.5 86.3524,-131.5 86.3524,-112.5 13.3524,-112.5"/>
<text text-anchor="middle" x="49.8524" y="-119.5" font-family="Helvetica,sans-Serif" font-size="10.00">IDisplay.hpp</text>
</a>
</g>
</g>
<!-- Node1&#45;&gt;Node3 -->
<g id="edge2" class="edge"><title>Node1&#45;&gt;Node3</title>
<path fill="none" stroke="midnightblue" d="M103.373,-224.337C92.232,-203.243 71.2948,-163.6 59.173,-140.648"/>
<polygon fill="midnightblue" stroke="midnightblue" points="62.1961,-138.877 54.4311,-131.669 56.0063,-142.147 62.1961,-138.877"/>
</g>
<!-- Node5 -->
<g id="node5" class="node"><title>Node5</title>
<g id="a_node5"><a xlink:href="Timer_8hpp.html" target="_top" xlink:title="Timer.hpp">
<polygon fill="none" stroke="black" points="119.852,-168.5 119.852,-187.5 183.852,-187.5 183.852,-168.5 119.852,-168.5"/>
<text text-anchor="middle" x="151.852" y="-175.5" font-family="Helvetica,sans-Serif" font-size="10.00">Timer.hpp</text>
</a>
</g>
</g>
<!-- Node1&#45;&gt;Node5 -->
<g id="edge6" class="edge"><title>Node1&#45;&gt;Node5</title>
<path fill="none" stroke="midnightblue" d="M120.569,-224.399C126.404,-215.932 133.868,-205.099 140.042,-196.139"/>
<polygon fill="midnightblue" stroke="midnightblue" points="143.094,-197.878 145.887,-187.658 137.33,-193.906 143.094,-197.878"/>
</g>
<!-- Node8 -->
<g id="node8" class="node"><title>Node8</title>
<g id="a_node8"><a xlink:href="Rect_8hpp.html" target="_top" xlink:title="Rect.hpp">
<polygon fill="none" stroke="black" points="201.852,-168.5 201.852,-187.5 259.852,-187.5 259.852,-168.5 201.852,-168.5"/>
<text text-anchor="middle" x="230.852" y="-175.5" font-family="Helvetica,sans-Serif" font-size="10.00">Rect.hpp</text>
</a>
</g>
</g>
<!-- Node1&#45;&gt;Node8 -->
<g id="edge12" class="edge"><title>Node1&#45;&gt;Node8</title>
<path fill="none" stroke="midnightblue" d="M139.291,-224.399C158.975,-214.639 184.996,-201.737 204.266,-192.183"/>
<polygon fill="midnightblue" stroke="midnightblue" points="205.987,-195.236 213.391,-187.658 202.877,-188.964 205.987,-195.236"/>
</g>
<!-- Node3&#45;&gt;Node2 -->
<g id="edge3" class="edge"><title>Node3&#45;&gt;Node2</title>
<path fill="none" stroke="midnightblue" d="M47.4046,-112.48C44.1792,-99.5395 39.8947,-74.4845 48.8524,-56 55.2493,-42.7996 67.6047,-32.3032 79.1814,-24.7794"/>
<polygon fill="midnightblue" stroke="midnightblue" points="81.0078,-27.7653 87.7709,-19.6099 77.3981,-21.7678 81.0078,-27.7653"/>
</g>
<!-- Node4 -->
<g id="node4" class="node"><title>Node4</title>
<g id="a_node4"><a xlink:href="IComponent_8hpp.html" target="_top" xlink:title="IComponent.hpp">
<polygon fill="none" stroke="black" points="57.8524,-56.5 57.8524,-75.5 153.852,-75.5 153.852,-56.5 57.8524,-56.5"/>
<text text-anchor="middle" x="105.852" y="-63.5" font-family="Helvetica,sans-Serif" font-size="10.00">IComponent.hpp</text>
</a>
</g>
</g>
<!-- Node3&#45;&gt;Node4 -->
<g id="edge4" class="edge"><title>Node3&#45;&gt;Node4</title>
<path fill="none" stroke="midnightblue" d="M58.8498,-112.324C67.0468,-104.42 79.3579,-92.5482 89.3244,-82.9377"/>
<polygon fill="midnightblue" stroke="midnightblue" points="91.9223,-85.2947 96.6913,-75.8339 87.0634,-80.2558 91.9223,-85.2947"/>
</g>
<!-- Node4&#45;&gt;Node2 -->
<g id="edge5" class="edge"><title>Node4&#45;&gt;Node2</title>
<path fill="none" stroke="midnightblue" d="M105.852,-56.083C105.852,-49.0059 105.852,-38.8611 105.852,-29.9865"/>
<polygon fill="midnightblue" stroke="midnightblue" points="109.352,-29.751 105.852,-19.7511 102.352,-29.7511 109.352,-29.751"/>
</g>
<!-- Node5&#45;&gt;Node2 -->
<g id="edge8" class="edge"><title>Node5&#45;&gt;Node2</title>
<path fill="none" stroke="midnightblue" d="M169.354,-168.465C182.64,-160.917 199.928,-148.533 207.852,-132 211.694,-123.984 209.956,-120.636 207.852,-112 201.22,-84.7679 197.919,-76.5441 178.852,-56 166.557,-42.7513 149.505,-31.948 134.974,-24.2504"/>
<polygon fill="midnightblue" stroke="midnightblue" points="136.368,-21.0333 125.864,-19.646 133.21,-27.2807 136.368,-21.0333"/>
</g>
<!-- Node6 -->
<g id="node6" class="node"><title>Node6</title>
<polygon fill="none" stroke="#bfbfbf" points="254.852,-112.5 254.852,-131.5 304.852,-131.5 304.852,-112.5 254.852,-112.5"/>
<text text-anchor="middle" x="279.852" y="-119.5" font-family="Helvetica,sans-Serif" font-size="10.00">chrono</text>
</g>
<!-- Node5&#45;&gt;Node6 -->
<g id="edge7" class="edge"><title>Node5&#45;&gt;Node6</title>
<path fill="none" stroke="midnightblue" d="M172.134,-168.444C193.2,-159.557 226.369,-145.563 250.338,-135.451"/>
<polygon fill="midnightblue" stroke="midnightblue" points="251.812,-138.628 259.665,-131.516 249.091,-132.179 251.812,-138.628"/>
</g>
<!-- Node7 -->
<g id="node7" class="node"><title>Node7</title>
<g id="a_node7"><a xlink:href="IGameLogic_8hpp.html" target="_top" xlink:title="IGameLogic.hpp">
<polygon fill="none" stroke="black" points="104.852,-112.5 104.852,-131.5 198.852,-131.5 198.852,-112.5 104.852,-112.5"/>
<text text-anchor="middle" x="151.852" y="-119.5" font-family="Helvetica,sans-Serif" font-size="10.00">IGameLogic.hpp</text>
</a>
</g>
</g>
<!-- Node5&#45;&gt;Node7 -->
<g id="edge9" class="edge"><title>Node5&#45;&gt;Node7</title>
<path fill="none" stroke="midnightblue" d="M151.852,-168.083C151.852,-161.006 151.852,-150.861 151.852,-141.986"/>
<polygon fill="midnightblue" stroke="midnightblue" points="155.352,-141.751 151.852,-131.751 148.352,-141.751 155.352,-141.751"/>
</g>
<!-- Node7&#45;&gt;Node2 -->
<g id="edge10" class="edge"><title>Node7&#45;&gt;Node2</title>
<path fill="none" stroke="midnightblue" d="M156.561,-112.117C162.748,-99.1426 171.836,-74.5391 162.852,-56 156.455,-42.7996 144.1,-32.3032 132.523,-24.7794"/>
<polygon fill="midnightblue" stroke="midnightblue" points="134.307,-21.7678 123.934,-19.6099 130.697,-27.7653 134.307,-21.7678"/>
</g>
<!-- Node7&#45;&gt;Node4 -->
<g id="edge11" class="edge"><title>Node7&#45;&gt;Node4</title>
<path fill="none" stroke="midnightblue" d="M144.256,-112.083C137.625,-104.298 127.831,-92.8015 119.794,-83.3665"/>
<polygon fill="midnightblue" stroke="midnightblue" points="122.456,-81.0939 113.307,-75.7511 117.127,-85.6332 122.456,-81.0939"/>
</g>
</g>
</svg>
