<?xml version="1.0" encoding="UTF-8" standalone="no"?>
<!DOCTYPE svg PUBLIC "-//W3C//DTD SVG 1.1//EN"
 "http://www.w3.org/Graphics/SVG/1.1/DTD/svg11.dtd">
<!-- Generated by graphviz version 2.38.0 (20140413.2041)
 -->
<!-- Title: src/Entities/EntityConstructor/PlanetRingEntity/PlanetRingEntity.cpp Pages: 1 -->
<svg width="990pt" height="319pt"
 viewBox="0.00 0.00 989.99 319.00" xmlns="http://www.w3.org/2000/svg" xmlns:xlink="http://www.w3.org/1999/xlink">
<g id="graph0" class="graph" transform="scale(1 1) rotate(0) translate(4 315)">
<title>src/Entities/EntityConstructor/PlanetRingEntity/PlanetRingEntity.cpp</title>
<!-- Node1 -->
<g id="node1" class="node"><title>Node1</title>
<polygon fill="#bfbfbf" stroke="black" points="419.5,-280.5 419.5,-310.5 615.5,-310.5 615.5,-280.5 419.5,-280.5"/>
<text text-anchor="start" x="427.5" y="-298.5" font-family="Helvetica,sans-Serif" font-size="10.00">src/Entities/EntityConstructor</text>
<text text-anchor="middle" x="517.5" y="-287.5" font-family="Helvetica,sans-Serif" font-size="10.00">/PlanetRingEntity/PlanetRingEntity.cpp</text>
</g>
<!-- Node2 -->
<g id="node2" class="node"><title>Node2</title>
<g id="a_node2"><a xlink:href="PlanetRingEntity_8hpp.html" target="_top" xlink:title="PlanetRingEntity.hpp">
<polygon fill="none" stroke="black" points="175,-224.5 175,-243.5 288,-243.5 288,-224.5 175,-224.5"/>
<text text-anchor="middle" x="231.5" y="-231.5" font-family="Helvetica,sans-Serif" font-size="10.00">PlanetRingEntity.hpp</text>
</a>
</g>
</g>
<!-- Node1&#45;&gt;Node2 -->
<g id="edge1" class="edge"><title>Node1&#45;&gt;Node2</title>
<path fill="none" stroke="midnightblue" d="M450.084,-280.475C398.696,-269.784 329.034,-255.291 282.291,-245.567"/>
<polygon fill="midnightblue" stroke="midnightblue" points="282.891,-242.117 272.388,-243.506 281.465,-248.97 282.891,-242.117"/>
</g>
<!-- Node15 -->
<g id="node15" class="node"><title>Node15</title>
<g id="a_node15"><a xlink:href="Position_8hpp.html" target="_top" xlink:title="Position.hpp">
<polygon fill="none" stroke="black" points="323,-224.5 323,-243.5 398,-243.5 398,-224.5 323,-224.5"/>
<text text-anchor="middle" x="360.5" y="-231.5" font-family="Helvetica,sans-Serif" font-size="10.00">Position.hpp</text>
</a>
</g>
</g>
<!-- Node1&#45;&gt;Node15 -->
<g id="edge20" class="edge"><title>Node1&#45;&gt;Node15</title>
<path fill="none" stroke="midnightblue" d="M480.293,-280.399C453.716,-270.327 418.311,-256.909 392.895,-247.277"/>
<polygon fill="midnightblue" stroke="midnightblue" points="393.936,-243.929 383.345,-243.658 391.456,-250.475 393.936,-243.929"/>
</g>
<!-- Node18 -->
<g id="node18" class="node"><title>Node18</title>
<g id="a_node18"><a xlink:href="Sprite_8hpp.html" target="_top" xlink:title="Sprite.hpp">
<polygon fill="none" stroke="black" points="588.5,-224.5 588.5,-243.5 654.5,-243.5 654.5,-224.5 588.5,-224.5"/>
<text text-anchor="middle" x="621.5" y="-231.5" font-family="Helvetica,sans-Serif" font-size="10.00">Sprite.hpp</text>
</a>
</g>
</g>
<!-- Node1&#45;&gt;Node18 -->
<g id="edge24" class="edge"><title>Node1&#45;&gt;Node18</title>
<path fill="none" stroke="midnightblue" d="M542.147,-280.399C558.817,-270.862 580.731,-258.325 597.305,-248.842"/>
<polygon fill="midnightblue" stroke="midnightblue" points="599.425,-251.662 606.367,-243.658 595.949,-245.586 599.425,-251.662"/>
</g>
<!-- Node21 -->
<g id="node21" class="node"><title>Node21</title>
<g id="a_node21"><a xlink:href="Velocity_8hpp.html" target="_top" xlink:title="Velocity.hpp">
<polygon fill="none" stroke="black" points="416,-224.5 416,-243.5 489,-243.5 489,-224.5 416,-224.5"/>
<text text-anchor="middle" x="452.5" y="-231.5" font-family="Helvetica,sans-Serif" font-size="10.00">Velocity.hpp</text>
</a>
</g>
</g>
<!-- Node1&#45;&gt;Node21 -->
<g id="edge31" class="edge"><title>Node1&#45;&gt;Node21</title>
<path fill="none" stroke="midnightblue" d="M502.096,-280.399C492.261,-271.397 479.507,-259.721 469.395,-250.465"/>
<polygon fill="midnightblue" stroke="midnightblue" points="471.698,-247.828 461.958,-243.658 466.971,-252.992 471.698,-247.828"/>
</g>
<!-- Node23 -->
<g id="node23" class="node"><title>Node23</title>
<g id="a_node23"><a xlink:href="Rotation_8hpp.html" target="_top" xlink:title="Rotation.hpp">
<polygon fill="none" stroke="black" points="478,-168.5 478,-187.5 555,-187.5 555,-168.5 478,-168.5"/>
<text text-anchor="middle" x="516.5" y="-175.5" font-family="Helvetica,sans-Serif" font-size="10.00">Rotation.hpp</text>
</a>
</g>
</g>
<!-- Node1&#45;&gt;Node23 -->
<g id="edge34" class="edge"><title>Node1&#45;&gt;Node23</title>
<path fill="none" stroke="midnightblue" d="M517.377,-280.337C517.198,-259.622 516.864,-221.016 516.664,-197.899"/>
<polygon fill="midnightblue" stroke="midnightblue" points="520.162,-197.639 516.575,-187.669 513.162,-197.699 520.162,-197.639"/>
</g>
<!-- Node24 -->
<g id="node24" class="node"><title>Node24</title>
<g id="a_node24"><a xlink:href="Animator_8hpp.html" target="_top" xlink:title="Animator.hpp">
<polygon fill="none" stroke="black" points="701,-224.5 701,-243.5 782,-243.5 782,-224.5 701,-224.5"/>
<text text-anchor="middle" x="741.5" y="-231.5" font-family="Helvetica,sans-Serif" font-size="10.00">Animator.hpp</text>
</a>
</g>
</g>
<!-- Node1&#45;&gt;Node24 -->
<g id="edge36" class="edge"><title>Node1&#45;&gt;Node24</title>
<path fill="none" stroke="midnightblue" d="M570.301,-280.475C609.79,-269.986 663.056,-255.837 699.629,-246.122"/>
<polygon fill="midnightblue" stroke="midnightblue" points="700.71,-249.456 709.476,-243.506 698.913,-242.691 700.71,-249.456"/>
</g>
<!-- Node28 -->
<g id="node28" class="node"><title>Node28</title>
<g id="a_node28"><a xlink:href="Parallax_8hpp.html" target="_top" xlink:title="Parallax.hpp">
<polygon fill="none" stroke="black" points="800.5,-224.5 800.5,-243.5 874.5,-243.5 874.5,-224.5 800.5,-224.5"/>
<text text-anchor="middle" x="837.5" y="-231.5" font-family="Helvetica,sans-Serif" font-size="10.00">Parallax.hpp</text>
</a>
</g>
</g>
<!-- Node1&#45;&gt;Node28 -->
<g id="edge46" class="edge"><title>Node1&#45;&gt;Node28</title>
<path fill="none" stroke="midnightblue" d="M594.013,-280.479C646.296,-270.868 717.45,-257.727 790.052,-244.074"/>
<polygon fill="midnightblue" stroke="midnightblue" points="791.124,-247.434 800.304,-242.145 789.829,-240.555 791.124,-247.434"/>
</g>
<!-- Node3 -->
<g id="node3" class="node"><title>Node3</title>
<g id="a_node3"><a xlink:href="IEntityConstructor_8hpp.html" target="_top" xlink:title="IEntityConstructor.hpp">
<polygon fill="none" stroke="black" points="151.5,-168.5 151.5,-187.5 273.5,-187.5 273.5,-168.5 151.5,-168.5"/>
<text text-anchor="middle" x="212.5" y="-175.5" font-family="Helvetica,sans-Serif" font-size="10.00">IEntityConstructor.hpp</text>
</a>
</g>
</g>
<!-- Node2&#45;&gt;Node3 -->
<g id="edge2" class="edge"><title>Node2&#45;&gt;Node3</title>
<path fill="none" stroke="midnightblue" d="M228.363,-224.083C225.817,-216.849 222.144,-206.409 218.973,-197.397"/>
<polygon fill="midnightblue" stroke="midnightblue" points="222.2,-196.023 215.579,-187.751 215.597,-198.346 222.2,-196.023"/>
</g>
<!-- Node4 -->
<g id="node4" class="node"><title>Node4</title>
<polygon fill="none" stroke="#bfbfbf" points="194,-56.5 194,-75.5 251,-75.5 251,-56.5 194,-56.5"/>
<text text-anchor="middle" x="222.5" y="-63.5" font-family="Helvetica,sans-Serif" font-size="10.00">memory</text>
</g>
<!-- Node3&#45;&gt;Node4 -->
<g id="edge3" class="edge"><title>Node3&#45;&gt;Node4</title>
<path fill="none" stroke="midnightblue" d="M213.285,-168.368C214.898,-150.617 218.621,-109.666 220.809,-85.5974"/>
<polygon fill="midnightblue" stroke="midnightblue" points="224.299,-85.8673 221.719,-75.5914 217.328,-85.2334 224.299,-85.8673"/>
</g>
<!-- Node5 -->
<g id="node5" class="node"><title>Node5</title>
<polygon fill="none" stroke="#bfbfbf" points="422.5,-0.5 422.5,-19.5 466.5,-19.5 466.5,-0.5 422.5,-0.5"/>
<text text-anchor="middle" x="444.5" y="-7.5" font-family="Helvetica,sans-Serif" font-size="10.00">string</text>
</g>
<!-- Node3&#45;&gt;Node5 -->
<g id="edge4" class="edge"><title>Node3&#45;&gt;Node5</title>
<path fill="none" stroke="midnightblue" d="M268.15,-168.497C327.256,-158.952 413.679,-143.323 424.5,-132 450.769,-104.512 450.122,-56.496 447.327,-29.9663"/>
<polygon fill="midnightblue" stroke="midnightblue" points="450.76,-29.2145 446.026,-19.7362 443.816,-30.098 450.76,-29.2145"/>
</g>
<!-- Node6 -->
<g id="node6" class="node"><title>Node6</title>
<g id="a_node6"><a xlink:href="Entity_8hpp.html" target="_top" xlink:title="Entity.hpp">
<polygon fill="none" stroke="black" points="269,-56.5 269,-75.5 332,-75.5 332,-56.5 269,-56.5"/>
<text text-anchor="middle" x="300.5" y="-63.5" font-family="Helvetica,sans-Serif" font-size="10.00">Entity.hpp</text>
</a>
</g>
</g>
<!-- Node3&#45;&gt;Node6 -->
<g id="edge5" class="edge"><title>Node3&#45;&gt;Node6</title>
<path fill="none" stroke="midnightblue" d="M219.405,-168.368C233.992,-150.135 268.159,-107.426 287.16,-83.6752"/>
<polygon fill="midnightblue" stroke="midnightblue" points="290.113,-85.5866 293.627,-75.5914 284.647,-81.2137 290.113,-85.5866"/>
</g>
<!-- Node7 -->
<g id="node7" class="node"><title>Node7</title>
<g id="a_node7"><a xlink:href="IEntityManager_8hpp.html" target="_top" xlink:title="IEntityManager.hpp">
<polygon fill="none" stroke="black" points="76.5,-112.5 76.5,-131.5 184.5,-131.5 184.5,-112.5 76.5,-112.5"/>
<text text-anchor="middle" x="130.5" y="-119.5" font-family="Helvetica,sans-Serif" font-size="10.00">IEntityManager.hpp</text>
</a>
</g>
</g>
<!-- Node3&#45;&gt;Node7 -->
<g id="edge6" class="edge"><title>Node3&#45;&gt;Node7</title>
<path fill="none" stroke="midnightblue" d="M199.325,-168.324C186.653,-159.979 167.267,-147.212 152.294,-137.352"/>
<polygon fill="midnightblue" stroke="midnightblue" points="153.919,-134.231 143.642,-131.655 150.069,-140.078 153.919,-134.231"/>
</g>
<!-- Node12 -->
<g id="node12" class="node"><title>Node12</title>
<g id="a_node12"><a xlink:href="IComponentManager_8hpp.html" target="_top" xlink:title="IComponentManager.hpp">
<polygon fill="none" stroke="black" points="279,-112.5 279,-131.5 416,-131.5 416,-112.5 279,-112.5"/>
<text text-anchor="middle" x="347.5" y="-119.5" font-family="Helvetica,sans-Serif" font-size="10.00">IComponentManager.hpp</text>
</a>
</g>
</g>
<!-- Node3&#45;&gt;Node12 -->
<g id="edge14" class="edge"><title>Node3&#45;&gt;Node12</title>
<path fill="none" stroke="midnightblue" d="M233.891,-168.444C256.207,-159.517 291.403,-145.439 316.708,-135.317"/>
<polygon fill="midnightblue" stroke="midnightblue" points="318.224,-138.48 326.209,-131.516 315.624,-131.981 318.224,-138.48"/>
</g>
<!-- Node7&#45;&gt;Node4 -->
<g id="edge7" class="edge"><title>Node7&#45;&gt;Node4</title>
<path fill="none" stroke="midnightblue" d="M145.281,-112.324C159.767,-103.822 182.073,-90.7288 198.993,-80.7975"/>
<polygon fill="midnightblue" stroke="midnightblue" points="200.903,-83.735 207.755,-75.6545 197.359,-77.6981 200.903,-83.735"/>
</g>
<!-- Node7&#45;&gt;Node6 -->
<g id="edge9" class="edge"><title>Node7&#45;&gt;Node6</title>
<path fill="none" stroke="midnightblue" d="M157.437,-112.444C186.16,-103.32 231.829,-88.8133 263.821,-78.6509"/>
<polygon fill="midnightblue" stroke="midnightblue" points="265.218,-81.8797 273.689,-75.5164 263.099,-75.2081 265.218,-81.8797"/>
</g>
<!-- Node8 -->
<g id="node8" class="node"><title>Node8</title>
<polygon fill="none" stroke="#bfbfbf" points="0,-56.5 0,-75.5 47,-75.5 47,-56.5 0,-56.5"/>
<text text-anchor="middle" x="23.5" y="-63.5" font-family="Helvetica,sans-Serif" font-size="10.00">vector</text>
</g>
<!-- Node7&#45;&gt;Node8 -->
<g id="edge8" class="edge"><title>Node7&#45;&gt;Node8</title>
<path fill="none" stroke="midnightblue" d="M113.309,-112.324C96.1491,-103.664 69.5543,-90.2424 49.7527,-80.249"/>
<polygon fill="midnightblue" stroke="midnightblue" points="51.1532,-77.0354 40.6487,-75.6545 47.9993,-83.2847 51.1532,-77.0354"/>
</g>
<!-- Node9 -->
<g id="node9" class="node"><title>Node9</title>
<g id="a_node9"><a xlink:href="PacketManager_8hpp.html" target="_top" xlink:title="PacketManager.hpp">
<polygon fill="none" stroke="black" points="65.5,-56.5 65.5,-75.5 175.5,-75.5 175.5,-56.5 65.5,-56.5"/>
<text text-anchor="middle" x="120.5" y="-63.5" font-family="Helvetica,sans-Serif" font-size="10.00">PacketManager.hpp</text>
</a>
</g>
</g>
<!-- Node7&#45;&gt;Node9 -->
<g id="edge10" class="edge"><title>Node7&#45;&gt;Node9</title>
<path fill="none" stroke="midnightblue" d="M128.849,-112.083C127.524,-104.927 125.618,-94.6353 123.961,-85.6911"/>
<polygon fill="midnightblue" stroke="midnightblue" points="127.383,-84.9466 122.121,-75.7511 120.5,-86.2212 127.383,-84.9466"/>
</g>
<!-- Node9&#45;&gt;Node5 -->
<g id="edge11" class="edge"><title>Node9&#45;&gt;Node5</title>
<path fill="none" stroke="midnightblue" d="M171.839,-56.4435C239.395,-45.1842 356.13,-25.7283 412.374,-16.3543"/>
<polygon fill="midnightblue" stroke="midnightblue" points="413.178,-19.7688 422.466,-14.6723 412.027,-12.864 413.178,-19.7688"/>
</g>
<!-- Node10 -->
<g id="node10" class="node"><title>Node10</title>
<polygon fill="none" stroke="#bfbfbf" points="266.5,-0.5 266.5,-19.5 296.5,-19.5 296.5,-0.5 266.5,-0.5"/>
<text text-anchor="middle" x="281.5" y="-7.5" font-family="Helvetica,sans-Serif" font-size="10.00">list</text>
</g>
<!-- Node9&#45;&gt;Node10 -->
<g id="edge12" class="edge"><title>Node9&#45;&gt;Node10</title>
<path fill="none" stroke="midnightblue" d="M146.011,-56.4435C176.31,-46.2813 226.516,-29.4419 256.561,-19.3646"/>
<polygon fill="midnightblue" stroke="midnightblue" points="257.914,-22.6025 266.282,-16.1041 255.688,-15.9658 257.914,-22.6025"/>
</g>
<!-- Node11 -->
<g id="node11" class="node"><title>Node11</title>
<g id="a_node11"><a xlink:href="Input_8hpp.html" target="_top" xlink:title="Render/Input.hpp">
<polygon fill="none" stroke="black" points="71.5,-0.5 71.5,-19.5 169.5,-19.5 169.5,-0.5 71.5,-0.5"/>
<text text-anchor="middle" x="120.5" y="-7.5" font-family="Helvetica,sans-Serif" font-size="10.00">Render/Input.hpp</text>
</a>
</g>
</g>
<!-- Node9&#45;&gt;Node11 -->
<g id="edge13" class="edge"><title>Node9&#45;&gt;Node11</title>
<path fill="none" stroke="midnightblue" d="M120.5,-56.083C120.5,-49.0059 120.5,-38.8611 120.5,-29.9865"/>
<polygon fill="midnightblue" stroke="midnightblue" points="124,-29.751 120.5,-19.7511 117,-29.7511 124,-29.751"/>
</g>
<!-- Node12&#45;&gt;Node4 -->
<g id="edge16" class="edge"><title>Node12&#45;&gt;Node4</title>
<path fill="none" stroke="midnightblue" d="M327.693,-112.444C307.213,-103.596 275.017,-89.6875 251.635,-79.5865"/>
<polygon fill="midnightblue" stroke="midnightblue" points="252.782,-76.2692 242.214,-75.5164 250.006,-82.6953 252.782,-76.2692"/>
</g>
<!-- Node12&#45;&gt;Node6 -->
<g id="edge19" class="edge"><title>Node12&#45;&gt;Node6</title>
<path fill="none" stroke="midnightblue" d="M339.739,-112.083C332.963,-104.298 322.957,-92.8015 314.745,-83.3665"/>
<polygon fill="midnightblue" stroke="midnightblue" points="317.322,-80.9963 308.117,-75.7511 312.042,-85.592 317.322,-80.9963"/>
</g>
<!-- Node12&#45;&gt;Node10 -->
<g id="edge15" class="edge"><title>Node12&#45;&gt;Node10</title>
<path fill="none" stroke="midnightblue" d="M348.626,-112.357C349.902,-99.2567 350.643,-73.9954 340.5,-56 332.509,-41.8219 318.036,-30.6782 305.425,-23.0269"/>
<polygon fill="midnightblue" stroke="midnightblue" points="307.117,-19.9627 296.691,-18.0793 303.667,-26.0534 307.117,-19.9627"/>
</g>
<!-- Node13 -->
<g id="node13" class="node"><title>Node13</title>
<g id="a_node13"><a xlink:href="IComponent_8hpp.html" target="_top" xlink:title="IComponent.hpp">
<polygon fill="none" stroke="black" points="537.5,-56.5 537.5,-75.5 633.5,-75.5 633.5,-56.5 537.5,-56.5"/>
<text text-anchor="middle" x="585.5" y="-63.5" font-family="Helvetica,sans-Serif" font-size="10.00">IComponent.hpp</text>
</a>
</g>
</g>
<!-- Node12&#45;&gt;Node13 -->
<g id="edge17" class="edge"><title>Node12&#45;&gt;Node13</title>
<path fill="none" stroke="midnightblue" d="M385.212,-112.444C426.643,-103.043 493.257,-87.9291 538.167,-77.7393"/>
<polygon fill="midnightblue" stroke="midnightblue" points="538.987,-81.1424 547.965,-75.5164 537.438,-74.3159 538.987,-81.1424"/>
</g>
<!-- Node14 -->
<g id="node14" class="node"><title>Node14</title>
<polygon fill="none" stroke="#bfbfbf" points="706,-0.5 706,-19.5 769,-19.5 769,-0.5 706,-0.5"/>
<text text-anchor="middle" x="737.5" y="-7.5" font-family="Helvetica,sans-Serif" font-size="10.00">typeindex</text>
</g>
<!-- Node13&#45;&gt;Node14 -->
<g id="edge18" class="edge"><title>Node13&#45;&gt;Node14</title>
<path fill="none" stroke="midnightblue" d="M609.585,-56.4435C635.045,-47.3986 675.394,-33.064 703.959,-22.9158"/>
<polygon fill="midnightblue" stroke="midnightblue" points="705.277,-26.1622 713.528,-19.5164 702.933,-19.5661 705.277,-26.1622"/>
</g>
<!-- Node16 -->
<g id="node16" class="node"><title>Node16</title>
<polygon fill="none" stroke="#bfbfbf" points="291.5,-168.5 291.5,-187.5 333.5,-187.5 333.5,-168.5 291.5,-168.5"/>
<text text-anchor="middle" x="312.5" y="-175.5" font-family="Helvetica,sans-Serif" font-size="10.00">utility</text>
</g>
<!-- Node15&#45;&gt;Node16 -->
<g id="edge21" class="edge"><title>Node15&#45;&gt;Node16</title>
<path fill="none" stroke="midnightblue" d="M352.574,-224.083C345.654,-216.298 335.435,-204.801 327.048,-195.367"/>
<polygon fill="midnightblue" stroke="midnightblue" points="329.538,-192.9 320.279,-187.751 324.306,-197.55 329.538,-192.9"/>
</g>
<!-- Node17 -->
<g id="node17" class="node"><title>Node17</title>
<g id="a_node17"><a xlink:href="IPhysics_8hpp.html" target="_top" xlink:title="IPhysics.hpp">
<polygon fill="none" stroke="black" points="476,-112.5 476,-131.5 551,-131.5 551,-112.5 476,-112.5"/>
<text text-anchor="middle" x="513.5" y="-119.5" font-family="Helvetica,sans-Serif" font-size="10.00">IPhysics.hpp</text>
</a>
</g>
</g>
<!-- Node15&#45;&gt;Node17 -->
<g id="edge22" class="edge"><title>Node15&#45;&gt;Node17</title>
<path fill="none" stroke="midnightblue" d="M360.762,-224.163C361.648,-210.339 365.353,-183.573 380.5,-168 392.745,-155.41 433.342,-142.737 466.495,-134.062"/>
<polygon fill="midnightblue" stroke="midnightblue" points="467.684,-137.371 476.505,-131.503 465.95,-130.589 467.684,-137.371"/>
</g>
<!-- Node17&#45;&gt;Node13 -->
<g id="edge23" class="edge"><title>Node17&#45;&gt;Node13</title>
<path fill="none" stroke="midnightblue" d="M525.068,-112.324C535.92,-104.185 552.381,-91.8395 565.383,-82.0874"/>
<polygon fill="midnightblue" stroke="midnightblue" points="567.821,-84.6339 573.721,-75.8339 563.621,-79.0339 567.821,-84.6339"/>
</g>
<!-- Node18&#45;&gt;Node5 -->
<g id="edge25" class="edge"><title>Node18&#45;&gt;Node5</title>
<path fill="none" stroke="midnightblue" d="M618.415,-224.449C610.679,-203.736 588.947,-149.8 559.5,-112 531.867,-76.5282 490.518,-43.8204 465.659,-25.7214"/>
<polygon fill="midnightblue" stroke="midnightblue" points="467.471,-22.7139 457.303,-19.7363 463.395,-28.4047 467.471,-22.7139"/>
</g>
<!-- Node18&#45;&gt;Node14 -->
<g id="edge26" class="edge"><title>Node18&#45;&gt;Node14</title>
<path fill="none" stroke="midnightblue" d="M623.253,-224.327C625.996,-211.614 631.892,-187.333 640.5,-168 664.62,-113.829 704.564,-55.9254 724.844,-28"/>
<polygon fill="midnightblue" stroke="midnightblue" points="727.821,-29.8599 730.917,-19.7276 722.178,-25.7176 727.821,-29.8599"/>
</g>
<!-- Node19 -->
<g id="node19" class="node"><title>Node19</title>
<g id="a_node19"><a xlink:href="Rect_8hpp.html" target="_top" xlink:title="Rect.hpp">
<polygon fill="none" stroke="black" points="741.5,-168.5 741.5,-187.5 799.5,-187.5 799.5,-168.5 741.5,-168.5"/>
<text text-anchor="middle" x="770.5" y="-175.5" font-family="Helvetica,sans-Serif" font-size="10.00">Rect.hpp</text>
</a>
</g>
</g>
<!-- Node18&#45;&gt;Node19 -->
<g id="edge27" class="edge"><title>Node18&#45;&gt;Node19</title>
<path fill="none" stroke="midnightblue" d="M645.109,-224.444C669.958,-215.438 709.274,-201.189 737.254,-191.049"/>
<polygon fill="midnightblue" stroke="midnightblue" points="738.792,-194.214 747.001,-187.516 736.407,-187.633 738.792,-194.214"/>
</g>
<!-- Node20 -->
<g id="node20" class="node"><title>Node20</title>
<g id="a_node20"><a xlink:href="IDisplay_8hpp.html" target="_top" xlink:title="IDisplay.hpp">
<polygon fill="none" stroke="black" points="650,-168.5 650,-187.5 723,-187.5 723,-168.5 650,-168.5"/>
<text text-anchor="middle" x="686.5" y="-175.5" font-family="Helvetica,sans-Serif" font-size="10.00">IDisplay.hpp</text>
</a>
</g>
</g>
<!-- Node18&#45;&gt;Node20 -->
<g id="edge28" class="edge"><title>Node18&#45;&gt;Node20</title>
<path fill="none" stroke="midnightblue" d="M631.943,-224.324C641.646,-216.263 656.315,-204.077 668,-194.369"/>
<polygon fill="midnightblue" stroke="midnightblue" points="670.411,-196.916 675.867,-187.834 665.938,-191.532 670.411,-196.916"/>
</g>
<!-- Node20&#45;&gt;Node13 -->
<g id="edge30" class="edge"><title>Node20&#45;&gt;Node13</title>
<path fill="none" stroke="midnightblue" d="M678.575,-168.368C661.686,-149.974 621.925,-106.671 600.239,-83.0519"/>
<polygon fill="midnightblue" stroke="midnightblue" points="602.73,-80.5903 593.388,-75.5914 597.574,-85.3246 602.73,-80.5903"/>
</g>
<!-- Node20&#45;&gt;Node14 -->
<g id="edge29" class="edge"><title>Node20&#45;&gt;Node14</title>
<path fill="none" stroke="midnightblue" d="M689.088,-168.487C695.099,-148.722 710.486,-98.1924 723.5,-56 726.216,-47.1933 729.253,-37.4245 731.802,-29.2451"/>
<polygon fill="midnightblue" stroke="midnightblue" points="735.166,-30.2116 734.804,-19.6229 728.484,-28.1267 735.166,-30.2116"/>
</g>
<!-- Node22 -->
<g id="node22" class="node"><title>Node22</title>
<g id="a_node22"><a xlink:href="Motion_8hpp.html" target="_top" xlink:title="Motion.hpp">
<polygon fill="none" stroke="black" points="389.5,-168.5 389.5,-187.5 459.5,-187.5 459.5,-168.5 389.5,-168.5"/>
<text text-anchor="middle" x="424.5" y="-175.5" font-family="Helvetica,sans-Serif" font-size="10.00">Motion.hpp</text>
</a>
</g>
</g>
<!-- Node21&#45;&gt;Node22 -->
<g id="edge32" class="edge"><title>Node21&#45;&gt;Node22</title>
<path fill="none" stroke="midnightblue" d="M447.876,-224.083C444.044,-216.691 438.476,-205.953 433.735,-196.811"/>
<polygon fill="midnightblue" stroke="midnightblue" points="436.748,-195.018 429.038,-187.751 430.534,-198.24 436.748,-195.018"/>
</g>
<!-- Node22&#45;&gt;Node17 -->
<g id="edge33" class="edge"><title>Node22&#45;&gt;Node17</title>
<path fill="none" stroke="midnightblue" d="M438.799,-168.324C452.683,-159.9 473.992,-146.971 490.304,-137.074"/>
<polygon fill="midnightblue" stroke="midnightblue" points="492.502,-139.834 499.236,-131.655 488.871,-133.85 492.502,-139.834"/>
</g>
<!-- Node23&#45;&gt;Node17 -->
<g id="edge35" class="edge"><title>Node23&#45;&gt;Node17</title>
<path fill="none" stroke="midnightblue" d="M516.005,-168.083C515.611,-161.006 515.048,-150.861 514.555,-141.986"/>
<polygon fill="midnightblue" stroke="midnightblue" points="518.036,-141.542 513.986,-131.751 511.046,-141.93 518.036,-141.542"/>
</g>
<!-- Node24&#45;&gt;Node14 -->
<g id="edge37" class="edge"><title>Node24&#45;&gt;Node14</title>
<path fill="none" stroke="midnightblue" d="M763.008,-224.38C787.147,-213.303 821.362,-192.548 808.5,-168 795.454,-143.102 771.443,-155.808 756.5,-132 736.6,-100.294 735.084,-54.9768 736.079,-29.7604"/>
<polygon fill="midnightblue" stroke="midnightblue" points="739.577,-29.8942 736.655,-19.7101 732.588,-29.4932 739.577,-29.8942"/>
</g>
<!-- Node24&#45;&gt;Node19 -->
<g id="edge45" class="edge"><title>Node24&#45;&gt;Node19</title>
<path fill="none" stroke="midnightblue" d="M746.289,-224.083C750.258,-216.691 756.025,-205.953 760.935,-196.811"/>
<polygon fill="midnightblue" stroke="midnightblue" points="764.153,-198.217 765.8,-187.751 757.986,-194.905 764.153,-198.217"/>
</g>
<!-- Node24&#45;&gt;Node20 -->
<g id="edge38" class="edge"><title>Node24&#45;&gt;Node20</title>
<path fill="none" stroke="midnightblue" d="M732.418,-224.083C724.329,-216.141 712.305,-204.335 702.59,-194.797"/>
<polygon fill="midnightblue" stroke="midnightblue" points="705.001,-192.26 695.413,-187.751 700.097,-197.254 705.001,-192.26"/>
</g>
<!-- Node25 -->
<g id="node25" class="node"><title>Node25</title>
<g id="a_node25"><a xlink:href="Timer_8hpp.html" target="_top" xlink:title="Timer.hpp">
<polygon fill="none" stroke="black" points="855.5,-168.5 855.5,-187.5 919.5,-187.5 919.5,-168.5 855.5,-168.5"/>
<text text-anchor="middle" x="887.5" y="-175.5" font-family="Helvetica,sans-Serif" font-size="10.00">Timer.hpp</text>
</a>
</g>
</g>
<!-- Node24&#45;&gt;Node25 -->
<g id="edge39" class="edge"><title>Node24&#45;&gt;Node25</title>
<path fill="none" stroke="midnightblue" d="M764.634,-224.444C788.982,-215.438 827.507,-201.189 854.923,-191.049"/>
<polygon fill="midnightblue" stroke="midnightblue" points="856.309,-194.268 864.474,-187.516 853.881,-187.703 856.309,-194.268"/>
</g>
<!-- Node25&#45;&gt;Node14 -->
<g id="edge41" class="edge"><title>Node25&#45;&gt;Node14</title>
<path fill="none" stroke="midnightblue" d="M886.68,-168.276C885.08,-155.069 880.568,-129.67 868.5,-112 841.317,-72.1978 793.47,-41.1728 763.738,-24.5241"/>
<polygon fill="midnightblue" stroke="midnightblue" points="765.225,-21.3484 754.77,-19.6309 761.872,-27.4932 765.225,-21.3484"/>
</g>
<!-- Node26 -->
<g id="node26" class="node"><title>Node26</title>
<polygon fill="none" stroke="#bfbfbf" points="915.5,-112.5 915.5,-131.5 965.5,-131.5 965.5,-112.5 915.5,-112.5"/>
<text text-anchor="middle" x="940.5" y="-119.5" font-family="Helvetica,sans-Serif" font-size="10.00">chrono</text>
</g>
<!-- Node25&#45;&gt;Node26 -->
<g id="edge40" class="edge"><title>Node25&#45;&gt;Node26</title>
<path fill="none" stroke="midnightblue" d="M896.252,-168.083C903.97,-160.22 915.405,-148.569 924.717,-139.081"/>
<polygon fill="midnightblue" stroke="midnightblue" points="927.404,-141.34 931.911,-131.751 922.408,-136.436 927.404,-141.34"/>
</g>
<!-- Node27 -->
<g id="node27" class="node"><title>Node27</title>
<g id="a_node27"><a xlink:href="IGameLogic_8hpp.html" target="_top" xlink:title="IGameLogic.hpp">
<polygon fill="none" stroke="black" points="765.5,-112.5 765.5,-131.5 859.5,-131.5 859.5,-112.5 765.5,-112.5"/>
<text text-anchor="middle" x="812.5" y="-119.5" font-family="Helvetica,sans-Serif" font-size="10.00">IGameLogic.hpp</text>
</a>
</g>
</g>
<!-- Node25&#45;&gt;Node27 -->
<g id="edge42" class="edge"><title>Node25&#45;&gt;Node27</title>
<path fill="none" stroke="midnightblue" d="M875.45,-168.324C864.037,-160.107 846.669,-147.602 833.065,-137.807"/>
<polygon fill="midnightblue" stroke="midnightblue" points="834.93,-134.837 824.769,-131.834 830.84,-140.517 834.93,-134.837"/>
</g>
<!-- Node27&#45;&gt;Node13 -->
<g id="edge44" class="edge"><title>Node27&#45;&gt;Node13</title>
<path fill="none" stroke="midnightblue" d="M776.531,-112.444C737.181,-103.083 674.013,-88.0561 631.186,-77.868"/>
<polygon fill="midnightblue" stroke="midnightblue" points="631.839,-74.4258 621.301,-75.5164 630.219,-81.2358 631.839,-74.4258"/>
</g>
<!-- Node27&#45;&gt;Node14 -->
<g id="edge43" class="edge"><title>Node27&#45;&gt;Node14</title>
<path fill="none" stroke="midnightblue" d="M806.615,-112.368C794.238,-94.2153 765.319,-51.8015 749.084,-27.9902"/>
<polygon fill="midnightblue" stroke="midnightblue" points="751.883,-25.882 743.358,-19.5914 746.099,-29.8254 751.883,-25.882"/>
</g>
<!-- Node28&#45;&gt;Node14 -->
<g id="edge47" class="edge"><title>Node28&#45;&gt;Node14</title>
<path fill="none" stroke="midnightblue" d="M862.94,-224.457C911.269,-206.809 1008.62,-163.625 974.5,-112 931.063,-46.2719 835.195,-23.1773 779.614,-15.165"/>
<polygon fill="midnightblue" stroke="midnightblue" points="779.77,-11.6548 769.394,-13.7964 778.841,-18.5928 779.77,-11.6548"/>
</g>
<!-- Node28&#45;&gt;Node19 -->
<g id="edge50" class="edge"><title>Node28&#45;&gt;Node19</title>
<path fill="none" stroke="midnightblue" d="M826.735,-224.324C816.734,-216.263 801.613,-204.077 789.57,-194.369"/>
<polygon fill="midnightblue" stroke="midnightblue" points="791.443,-191.384 781.461,-187.834 787.05,-196.834 791.443,-191.384"/>
</g>
<!-- Node28&#45;&gt;Node20 -->
<g id="edge48" class="edge"><title>Node28&#45;&gt;Node20</title>
<path fill="none" stroke="midnightblue" d="M813.574,-224.444C788.281,-215.399 748.198,-201.064 719.82,-190.916"/>
<polygon fill="midnightblue" stroke="midnightblue" points="720.909,-187.588 710.314,-187.516 718.552,-194.179 720.909,-187.588"/>
</g>
<!-- Node28&#45;&gt;Node25 -->
<g id="edge49" class="edge"><title>Node28&#45;&gt;Node25</title>
<path fill="none" stroke="midnightblue" d="M845.756,-224.083C852.965,-216.298 863.61,-204.801 872.346,-195.367"/>
<polygon fill="midnightblue" stroke="midnightblue" points="875.171,-197.467 879.397,-187.751 870.035,-192.711 875.171,-197.467"/>
</g>
</g>
</svg>
