<?xml version="1.0" encoding="UTF-8" standalone="no"?>
<!DOCTYPE svg PUBLIC "-//W3C//DTD SVG 1.1//EN"
 "http://www.w3.org/Graphics/SVG/1.1/DTD/svg11.dtd">
<!-- Generated by graphviz version 2.38.0 (20140413.2041)
 -->
<!-- Title: src/Entities/EntityConstructor/PlanetEntity/PlanetEntity.cpp Pages: 1 -->
<!--zoomable 319 -->
<svg id="main" version="1.1" xmlns="http://www.w3.org/2000/svg" xmlns:xlink="http://www.w3.org/1999/xlink" xml:space="preserve" onload="init(evt)">
<style type="text/css"><![CDATA[
.edge:hover path { stroke: red; }
.edge:hover polygon { stroke: red; fill: red; }
]]></style>
<script type="text/javascript"><![CDATA[
var edges = document.getElementsByTagName('g');
if (edges && edges.length) {
  for (var i=0;i<edges.length;i++) {
    if (edges[i].id.substr(0,4)=='edge') {
      edges[i].setAttribute('class','edge');
    }
  }
}
]]></script>
        <defs>
                <circle id="rim" cx="0" cy="0" r="7"/>
                <circle id="rim2" cx="0" cy="0" r="3.5"/>
                <g id="zoomPlus">
                        <use xlink:href="#rim" fill="#404040">
                                <set attributeName="fill" to="#808080" begin="zoomplus.mouseover" end="zoomplus.mouseout"/>
                        </use>
                        <path d="M-4,0h8M0,-4v8" fill="none" stroke="white" stroke-width="1.5" pointer-events="none"/>
                </g>
                <g id="zoomMin">
                        <use xlink:href="#rim" fill="#404040">
                                <set attributeName="fill" to="#808080" begin="zoomminus.mouseover" end="zoomminus.mouseout"/>
                        </use>
                        <path d="M-4,0h8" fill="none" stroke="white" stroke-width="1.5" pointer-events="none"/>
                </g>
                <g id="dirArrow">
                        <path fill="none" stroke="white" stroke-width="1.5" d="M0,-3.0v7 M-2.5,-0.5L0,-3.0L2.5,-0.5"/>
                </g>
               <g id="resetDef">
                       <use xlink:href="#rim2" fill="#404040">
                               <set attributeName="fill" to="#808080" begin="reset.mouseover" end="reset.mouseout"/>
                       </use>
               </g>
        </defs>

<script type="text/javascript">
var viewWidth = 997;
var viewHeight = 319;
var sectionId = 'dynsection-0';
</script>
<script xlink:href="svgpan.js"/>
<svg id="graph" class="graph">
<g id="viewport">
<title>src/Entities/EntityConstructor/PlanetEntity/PlanetEntity.cpp</title>
<!-- Node1 -->
<g id="node1" class="node"><title>Node1</title>
<polygon fill="#bfbfbf" stroke="black" points="441.156,-280.5 441.156,-310.5 596.156,-310.5 596.156,-280.5 441.156,-280.5"/>
<text text-anchor="start" x="449.156" y="-298.5" font-family="Helvetica,sans-Serif" font-size="10.00">src/Entities/EntityConstructor</text>
<text text-anchor="middle" x="518.656" y="-287.5" font-family="Helvetica,sans-Serif" font-size="10.00">/PlanetEntity/PlanetEntity.cpp</text>
</g>
<!-- Node2 -->
<g id="node2" class="node"><title>Node2</title>
<g id="a_node2"><a xlink:href="PlanetEntity_8hpp.html" target="_top" xlink:title="PlanetEntity.hpp">
<polygon fill="none" stroke="black" points="200.156,-224.5 200.156,-243.5 293.156,-243.5 293.156,-224.5 200.156,-224.5"/>
<text text-anchor="middle" x="246.656" y="-231.5" font-family="Helvetica,sans-Serif" font-size="10.00">PlanetEntity.hpp</text>
</a>
</g>
</g>
<!-- Node1&#45;&gt;Node2 -->
<g id="edge1" class="edge"><title>Node1&#45;&gt;Node2</title>
<path fill="none" stroke="midnightblue" d="M454.54,-280.475C405.872,-269.829 339.971,-255.413 295.52,-245.689"/>
<polygon fill="midnightblue" stroke="midnightblue" points="296.059,-242.224 285.542,-243.506 294.563,-249.063 296.059,-242.224"/>
</g>
<!-- Node15 -->
<g id="node15" class="node"><title>Node15</title>
<g id="a_node15"><a xlink:href="Position_8hpp.html" target="_top" xlink:title="Position.hpp">
<polygon fill="none" stroke="black" points="434.156,-224.5 434.156,-243.5 509.156,-243.5 509.156,-224.5 434.156,-224.5"/>
<text text-anchor="middle" x="471.656" y="-231.5" font-family="Helvetica,sans-Serif" font-size="10.00">Position.hpp</text>
</a>
</g>
</g>
<!-- Node1&#45;&gt;Node15 -->
<g id="edge20" class="edge"><title>Node1&#45;&gt;Node15</title>
<path fill="none" stroke="midnightblue" d="M507.517,-280.399C500.688,-271.753 491.911,-260.642 484.749,-251.576"/>
<polygon fill="midnightblue" stroke="midnightblue" points="487.44,-249.335 478.495,-243.658 481.947,-253.674 487.44,-249.335"/>
</g>
<!-- Node18 -->
<g id="node18" class="node"><title>Node18</title>
<g id="a_node18"><a xlink:href="Sprite_8hpp.html" target="_top" xlink:title="Sprite.hpp">
<polygon fill="none" stroke="black" points="596.656,-168.5 596.656,-187.5 662.656,-187.5 662.656,-168.5 596.656,-168.5"/>
<text text-anchor="middle" x="629.656" y="-175.5" font-family="Helvetica,sans-Serif" font-size="10.00">Sprite.hpp</text>
</a>
</g>
</g>
<!-- Node1&#45;&gt;Node18 -->
<g id="edge24" class="edge"><title>Node1&#45;&gt;Node18</title>
<path fill="none" stroke="midnightblue" d="M561.279,-280.442C579.525,-272.425 599.594,-260.595 612.656,-244 623.13,-230.692 627.191,-211.572 628.745,-197.513"/>
<polygon fill="midnightblue" stroke="midnightblue" points="632.235,-197.774 629.528,-187.53 625.257,-197.226 632.235,-197.774"/>
</g>
<!-- Node21 -->
<g id="node21" class="node"><title>Node21</title>
<g id="a_node21"><a xlink:href="Velocity_8hpp.html" target="_top" xlink:title="Velocity.hpp">
<polygon fill="none" stroke="black" points="343.156,-224.5 343.156,-243.5 416.156,-243.5 416.156,-224.5 343.156,-224.5"/>
<text text-anchor="middle" x="379.656" y="-231.5" font-family="Helvetica,sans-Serif" font-size="10.00">Velocity.hpp</text>
</a>
</g>
</g>
<!-- Node1&#45;&gt;Node21 -->
<g id="edge31" class="edge"><title>Node1&#45;&gt;Node21</title>
<path fill="none" stroke="midnightblue" d="M485.715,-280.399C462.497,-270.461 431.67,-257.265 409.237,-247.662"/>
<polygon fill="midnightblue" stroke="midnightblue" points="410.452,-244.375 399.881,-243.658 407.697,-250.811 410.452,-244.375"/>
</g>
<!-- Node23 -->
<g id="node23" class="node"><title>Node23</title>
<g id="a_node23"><a xlink:href="Rotation_8hpp.html" target="_top" xlink:title="Rotation.hpp">
<polygon fill="none" stroke="black" points="527.156,-224.5 527.156,-243.5 604.156,-243.5 604.156,-224.5 527.156,-224.5"/>
<text text-anchor="middle" x="565.656" y="-231.5" font-family="Helvetica,sans-Serif" font-size="10.00">Rotation.hpp</text>
</a>
</g>
</g>
<!-- Node1&#45;&gt;Node23 -->
<g id="edge34" class="edge"><title>Node1&#45;&gt;Node23</title>
<path fill="none" stroke="midnightblue" d="M529.794,-280.399C536.624,-271.753 545.401,-260.642 552.562,-251.576"/>
<polygon fill="midnightblue" stroke="midnightblue" points="555.365,-253.674 558.817,-243.658 549.872,-249.335 555.365,-253.674"/>
</g>
<!-- Node24 -->
<g id="node24" class="node"><title>Node24</title>
<g id="a_node24"><a xlink:href="Parallax_8hpp.html" target="_top" xlink:title="Parallax.hpp">
<polygon fill="none" stroke="black" points="691.656,-224.5 691.656,-243.5 765.656,-243.5 765.656,-224.5 691.656,-224.5"/>
<text text-anchor="middle" x="728.656" y="-231.5" font-family="Helvetica,sans-Serif" font-size="10.00">Parallax.hpp</text>
</a>
</g>
</g>
<!-- Node1&#45;&gt;Node24 -->
<g id="edge36" class="edge"><title>Node1&#45;&gt;Node24</title>
<path fill="none" stroke="midnightblue" d="M568.157,-280.475C605.019,-270.03 654.688,-255.958 688.961,-246.247"/>
<polygon fill="midnightblue" stroke="midnightblue" points="689.966,-249.6 698.633,-243.506 688.058,-242.865 689.966,-249.6"/>
</g>
<!-- Node3 -->
<g id="node3" class="node"><title>Node3</title>
<g id="a_node3"><a xlink:href="IEntityConstructor_8hpp.html" target="_top" xlink:title="IEntityConstructor.hpp">
<polygon fill="none" stroke="black" points="169.656,-168.5 169.656,-187.5 291.656,-187.5 291.656,-168.5 169.656,-168.5"/>
<text text-anchor="middle" x="230.656" y="-175.5" font-family="Helvetica,sans-Serif" font-size="10.00">IEntityConstructor.hpp</text>
</a>
</g>
</g>
<!-- Node2&#45;&gt;Node3 -->
<g id="edge2" class="edge"><title>Node2&#45;&gt;Node3</title>
<path fill="none" stroke="midnightblue" d="M244.014,-224.083C241.87,-216.849 238.777,-206.409 236.106,-197.397"/>
<polygon fill="midnightblue" stroke="midnightblue" points="239.445,-196.345 233.249,-187.751 232.734,-198.333 239.445,-196.345"/>
</g>
<!-- Node4 -->
<g id="node4" class="node"><title>Node4</title>
<polygon fill="none" stroke="#bfbfbf" points="206.156,-56.5 206.156,-75.5 263.156,-75.5 263.156,-56.5 206.156,-56.5"/>
<text text-anchor="middle" x="234.656" y="-63.5" font-family="Helvetica,sans-Serif" font-size="10.00">memory</text>
</g>
<!-- Node3&#45;&gt;Node4 -->
<g id="edge3" class="edge"><title>Node3&#45;&gt;Node4</title>
<path fill="none" stroke="midnightblue" d="M230.969,-168.368C231.615,-150.617 233.104,-109.666 233.979,-85.5974"/>
<polygon fill="midnightblue" stroke="midnightblue" points="237.477,-85.712 234.343,-75.5914 230.482,-85.4576 237.477,-85.712"/>
</g>
<!-- Node5 -->
<g id="node5" class="node"><title>Node5</title>
<polygon fill="none" stroke="#bfbfbf" points="60.6556,-0.5 60.6556,-19.5 104.656,-19.5 104.656,-0.5 60.6556,-0.5"/>
<text text-anchor="middle" x="82.6556" y="-7.5" font-family="Helvetica,sans-Serif" font-size="10.00">string</text>
</g>
<!-- Node3&#45;&gt;Node5 -->
<g id="edge4" class="edge"><title>Node3&#45;&gt;Node5</title>
<path fill="none" stroke="midnightblue" d="M169.546,-171.302C112.445,-162.143 31.7613,-138.261 2.6556,-76 -9.22379,-50.5885 23.4378,-31.9266 50.5488,-21.2758"/>
<polygon fill="midnightblue" stroke="midnightblue" points="52.0235,-24.4624 60.1932,-17.7166 49.5999,-17.8953 52.0235,-24.4624"/>
</g>
<!-- Node6 -->
<g id="node6" class="node"><title>Node6</title>
<g id="a_node6"><a xlink:href="Entity_8hpp.html" target="_top" xlink:title="Entity.hpp">
<polygon fill="none" stroke="black" points="281.156,-56.5 281.156,-75.5 344.156,-75.5 344.156,-56.5 281.156,-56.5"/>
<text text-anchor="middle" x="312.656" y="-63.5" font-family="Helvetica,sans-Serif" font-size="10.00">Entity.hpp</text>
</a>
</g>
</g>
<!-- Node3&#45;&gt;Node6 -->
<g id="edge5" class="edge"><title>Node3&#45;&gt;Node6</title>
<path fill="none" stroke="midnightblue" d="M235.504,-168.267C242.747,-155.48 257.106,-131.107 271.656,-112 279.419,-101.805 289.026,-91.1724 296.989,-82.804"/>
<polygon fill="midnightblue" stroke="midnightblue" points="299.56,-85.1799 304.005,-75.5626 294.533,-80.3089 299.56,-85.1799"/>
</g>
<!-- Node7 -->
<g id="node7" class="node"><title>Node7</title>
<g id="a_node7"><a xlink:href="IEntityManager_8hpp.html" target="_top" xlink:title="IEntityManager.hpp">
<polygon fill="none" stroke="black" points="78.6556,-112.5 78.6556,-131.5 186.656,-131.5 186.656,-112.5 78.6556,-112.5"/>
<text text-anchor="middle" x="132.656" y="-119.5" font-family="Helvetica,sans-Serif" font-size="10.00">IEntityManager.hpp</text>
</a>
</g>
</g>
<!-- Node3&#45;&gt;Node7 -->
<g id="edge6" class="edge"><title>Node3&#45;&gt;Node7</title>
<path fill="none" stroke="midnightblue" d="M214.91,-168.324C199.337,-159.743 175.278,-146.486 157.196,-136.522"/>
<polygon fill="midnightblue" stroke="midnightblue" points="158.809,-133.415 148.362,-131.655 155.431,-139.546 158.809,-133.415"/>
</g>
<!-- Node12 -->
<g id="node12" class="node"><title>Node12</title>
<g id="a_node12"><a xlink:href="IComponentManager_8hpp.html" target="_top" xlink:title="IComponentManager.hpp">
<polygon fill="none" stroke="black" points="281.156,-112.5 281.156,-131.5 418.156,-131.5 418.156,-112.5 281.156,-112.5"/>
<text text-anchor="middle" x="349.656" y="-119.5" font-family="Helvetica,sans-Serif" font-size="10.00">IComponentManager.hpp</text>
</a>
</g>
</g>
<!-- Node3&#45;&gt;Node12 -->
<g id="edge14" class="edge"><title>Node3&#45;&gt;Node12</title>
<path fill="none" stroke="midnightblue" d="M249.512,-168.444C268.922,-159.636 299.386,-145.812 321.62,-135.722"/>
<polygon fill="midnightblue" stroke="midnightblue" points="323.228,-138.836 330.888,-131.516 320.335,-132.462 323.228,-138.836"/>
</g>
<!-- Node7&#45;&gt;Node4 -->
<g id="edge7" class="edge"><title>Node7&#45;&gt;Node4</title>
<path fill="none" stroke="midnightblue" d="M149.044,-112.324C165.327,-103.703 190.523,-90.3643 209.372,-80.3855"/>
<polygon fill="midnightblue" stroke="midnightblue" points="211.108,-83.4267 218.308,-75.6545 207.833,-77.2402 211.108,-83.4267"/>
</g>
<!-- Node7&#45;&gt;Node6 -->
<g id="edge9" class="edge"><title>Node7&#45;&gt;Node6</title>
<path fill="none" stroke="midnightblue" d="M161.177,-112.444C191.722,-103.28 240.364,-88.6876 274.258,-78.5192"/>
<polygon fill="midnightblue" stroke="midnightblue" points="275.695,-81.7424 284.268,-75.5164 273.683,-75.0376 275.695,-81.7424"/>
</g>
<!-- Node8 -->
<g id="node8" class="node"><title>Node8</title>
<polygon fill="none" stroke="#bfbfbf" points="12.1556,-56.5 12.1556,-75.5 59.1556,-75.5 59.1556,-56.5 12.1556,-56.5"/>
<text text-anchor="middle" x="35.6556" y="-63.5" font-family="Helvetica,sans-Serif" font-size="10.00">vector</text>
</g>
<!-- Node7&#45;&gt;Node8 -->
<g id="edge8" class="edge"><title>Node7&#45;&gt;Node8</title>
<path fill="none" stroke="midnightblue" d="M117.071,-112.324C101.657,-103.743 77.8434,-90.486 59.9459,-80.5224"/>
<polygon fill="midnightblue" stroke="midnightblue" points="61.6414,-77.4606 51.2017,-75.6545 58.2365,-83.5767 61.6414,-77.4606"/>
</g>
<!-- Node9 -->
<g id="node9" class="node"><title>Node9</title>
<g id="a_node9"><a xlink:href="PacketManager_8hpp.html" target="_top" xlink:title="PacketManager.hpp">
<polygon fill="none" stroke="black" points="77.6556,-56.5 77.6556,-75.5 187.656,-75.5 187.656,-56.5 77.6556,-56.5"/>
<text text-anchor="middle" x="132.656" y="-63.5" font-family="Helvetica,sans-Serif" font-size="10.00">PacketManager.hpp</text>
</a>
</g>
</g>
<!-- Node7&#45;&gt;Node9 -->
<g id="edge10" class="edge"><title>Node7&#45;&gt;Node9</title>
<path fill="none" stroke="midnightblue" d="M132.656,-112.083C132.656,-105.006 132.656,-94.8611 132.656,-85.9865"/>
<polygon fill="midnightblue" stroke="midnightblue" points="136.156,-85.751 132.656,-75.7511 129.156,-85.7511 136.156,-85.751"/>
</g>
<!-- Node9&#45;&gt;Node5 -->
<g id="edge11" class="edge"><title>Node9&#45;&gt;Node5</title>
<path fill="none" stroke="midnightblue" d="M124.399,-56.083C117.191,-48.2982 106.546,-36.8015 97.8098,-27.3665"/>
<polygon fill="midnightblue" stroke="midnightblue" points="100.121,-24.7108 90.7584,-19.7511 94.9844,-29.4666 100.121,-24.7108"/>
</g>
<!-- Node10 -->
<g id="node10" class="node"><title>Node10</title>
<polygon fill="none" stroke="#bfbfbf" points="278.656,-0.5 278.656,-19.5 308.656,-19.5 308.656,-0.5 278.656,-0.5"/>
<text text-anchor="middle" x="293.656" y="-7.5" font-family="Helvetica,sans-Serif" font-size="10.00">list</text>
</g>
<!-- Node9&#45;&gt;Node10 -->
<g id="edge12" class="edge"><title>Node9&#45;&gt;Node10</title>
<path fill="none" stroke="midnightblue" d="M158.167,-56.4435C188.465,-46.2813 238.672,-29.4419 268.717,-19.3646"/>
<polygon fill="midnightblue" stroke="midnightblue" points="270.07,-22.6025 278.438,-16.1041 267.844,-15.9658 270.07,-22.6025"/>
</g>
<!-- Node11 -->
<g id="node11" class="node"><title>Node11</title>
<g id="a_node11"><a xlink:href="Input_8hpp.html" target="_top" xlink:title="Render/Input.hpp">
<polygon fill="none" stroke="black" points="122.656,-0.5 122.656,-19.5 220.656,-19.5 220.656,-0.5 122.656,-0.5"/>
<text text-anchor="middle" x="171.656" y="-7.5" font-family="Helvetica,sans-Serif" font-size="10.00">Render/Input.hpp</text>
</a>
</g>
</g>
<!-- Node9&#45;&gt;Node11 -->
<g id="edge13" class="edge"><title>Node9&#45;&gt;Node11</title>
<path fill="none" stroke="midnightblue" d="M139.096,-56.083C144.604,-48.4554 152.687,-37.2645 159.421,-27.9408"/>
<polygon fill="midnightblue" stroke="midnightblue" points="162.318,-29.9071 165.335,-19.7511 156.643,-25.8087 162.318,-29.9071"/>
</g>
<!-- Node12&#45;&gt;Node4 -->
<g id="edge16" class="edge"><title>Node12&#45;&gt;Node4</title>
<path fill="none" stroke="midnightblue" d="M331.434,-112.444C312.76,-103.675 283.5,-89.9355 262.038,-79.8579"/>
<polygon fill="midnightblue" stroke="midnightblue" points="263.332,-76.5988 252.792,-75.5164 260.357,-82.935 263.332,-76.5988"/>
</g>
<!-- Node12&#45;&gt;Node6 -->
<g id="edge19" class="edge"><title>Node12&#45;&gt;Node6</title>
<path fill="none" stroke="midnightblue" d="M343.546,-112.083C338.373,-104.534 330.809,-93.4948 324.461,-84.2298"/>
<polygon fill="midnightblue" stroke="midnightblue" points="327.191,-82.0221 318.652,-75.7511 321.417,-85.9787 327.191,-82.0221"/>
</g>
<!-- Node12&#45;&gt;Node10 -->
<g id="edge15" class="edge"><title>Node12&#45;&gt;Node10</title>
<path fill="none" stroke="midnightblue" d="M352.549,-112.465C356.412,-99.5059 361.776,-74.4265 352.656,-56 345.344,-41.228 330.604,-29.9813 317.686,-22.426"/>
<polygon fill="midnightblue" stroke="midnightblue" points="319.195,-19.2629 308.735,-17.5793 315.862,-25.4185 319.195,-19.2629"/>
</g>
<!-- Node13 -->
<g id="node13" class="node"><title>Node13</title>
<g id="a_node13"><a xlink:href="IComponent_8hpp.html" target="_top" xlink:title="IComponent.hpp">
<polygon fill="none" stroke="black" points="567.656,-56.5 567.656,-75.5 663.656,-75.5 663.656,-56.5 567.656,-56.5"/>
<text text-anchor="middle" x="615.656" y="-63.5" font-family="Helvetica,sans-Serif" font-size="10.00">IComponent.hpp</text>
</a>
</g>
</g>
<!-- Node12&#45;&gt;Node13 -->
<g id="edge17" class="edge"><title>Node12&#45;&gt;Node13</title>
<path fill="none" stroke="midnightblue" d="M391.804,-112.444C438.402,-102.984 513.5,-87.7384 563.701,-77.5472"/>
<polygon fill="midnightblue" stroke="midnightblue" points="564.601,-80.936 573.704,-75.5164 563.208,-74.076 564.601,-80.936"/>
</g>
<!-- Node14 -->
<g id="node14" class="node"><title>Node14</title>
<polygon fill="none" stroke="#bfbfbf" points="750.156,-0.5 750.156,-19.5 813.156,-19.5 813.156,-0.5 750.156,-0.5"/>
<text text-anchor="middle" x="781.656" y="-7.5" font-family="Helvetica,sans-Serif" font-size="10.00">typeindex</text>
</g>
<!-- Node13&#45;&gt;Node14 -->
<g id="edge18" class="edge"><title>Node13&#45;&gt;Node14</title>
<path fill="none" stroke="midnightblue" d="M641.959,-56.4435C670.006,-47.3196 714.6,-32.8133 745.84,-22.6509"/>
<polygon fill="midnightblue" stroke="midnightblue" points="747.049,-25.9383 755.475,-19.5164 744.883,-19.2816 747.049,-25.9383"/>
</g>
<!-- Node16 -->
<g id="node16" class="node"><title>Node16</title>
<polygon fill="none" stroke="#bfbfbf" points="495.656,-168.5 495.656,-187.5 537.656,-187.5 537.656,-168.5 495.656,-168.5"/>
<text text-anchor="middle" x="516.656" y="-175.5" font-family="Helvetica,sans-Serif" font-size="10.00">utility</text>
</g>
<!-- Node15&#45;&gt;Node16 -->
<g id="edge21" class="edge"><title>Node15&#45;&gt;Node16</title>
<path fill="none" stroke="midnightblue" d="M479.086,-224.083C485.508,-216.377 494.961,-205.033 502.778,-195.653"/>
<polygon fill="midnightblue" stroke="midnightblue" points="505.65,-197.674 509.363,-187.751 500.272,-193.193 505.65,-197.674"/>
</g>
<!-- Node17 -->
<g id="node17" class="node"><title>Node17</title>
<g id="a_node17"><a xlink:href="IPhysics_8hpp.html" target="_top" xlink:title="IPhysics.hpp">
<polygon fill="none" stroke="black" points="436.156,-112.5 436.156,-131.5 511.156,-131.5 511.156,-112.5 436.156,-112.5"/>
<text text-anchor="middle" x="473.656" y="-119.5" font-family="Helvetica,sans-Serif" font-size="10.00">IPhysics.hpp</text>
</a>
</g>
</g>
<!-- Node15&#45;&gt;Node17 -->
<g id="edge22" class="edge"><title>Node15&#45;&gt;Node17</title>
<path fill="none" stroke="midnightblue" d="M471.813,-224.368C472.135,-206.617 472.88,-165.666 473.317,-141.597"/>
<polygon fill="midnightblue" stroke="midnightblue" points="476.817,-141.653 473.499,-131.591 469.818,-141.526 476.817,-141.653"/>
</g>
<!-- Node17&#45;&gt;Node13 -->
<g id="edge23" class="edge"><title>Node17&#45;&gt;Node13</title>
<path fill="none" stroke="midnightblue" d="M496.156,-112.444C519.733,-103.478 556.978,-89.314 583.62,-79.1827"/>
<polygon fill="midnightblue" stroke="midnightblue" points="585.158,-82.3424 593.261,-75.5164 582.669,-75.7995 585.158,-82.3424"/>
</g>
<!-- Node18&#45;&gt;Node5 -->
<g id="edge25" class="edge"><title>Node18&#45;&gt;Node5</title>
<path fill="none" stroke="midnightblue" d="M617.256,-168.493C597.363,-155.121 556.779,-128.964 519.656,-112 448.453,-79.4634 428.76,-74.344 352.656,-56 251.285,-31.5661 220.381,-42.3433 114.693,-19.9655"/>
<polygon fill="midnightblue" stroke="midnightblue" points="115.43,-16.544 104.916,-17.8468 113.948,-23.3852 115.43,-16.544"/>
</g>
<!-- Node18&#45;&gt;Node14 -->
<g id="edge26" class="edge"><title>Node18&#45;&gt;Node14</title>
<path fill="none" stroke="midnightblue" d="M619.436,-168.305C605.737,-155.564 584.474,-131.25 596.656,-112 616.642,-80.4172 639.742,-93.7092 672.656,-76 687.758,-67.874 690.943,-64.8135 705.656,-56 723.303,-45.4283 743.326,-33.5786 758.388,-24.6936"/>
<polygon fill="midnightblue" stroke="midnightblue" points="760.222,-27.6754 767.059,-19.5825 756.667,-21.6449 760.222,-27.6754"/>
</g>
<!-- Node19 -->
<g id="node19" class="node"><title>Node19</title>
<g id="a_node19"><a xlink:href="Rect_8hpp.html" target="_top" xlink:title="Rect.hpp">
<polygon fill="none" stroke="black" points="697.656,-112.5 697.656,-131.5 755.656,-131.5 755.656,-112.5 697.656,-112.5"/>
<text text-anchor="middle" x="726.656" y="-119.5" font-family="Helvetica,sans-Serif" font-size="10.00">Rect.hpp</text>
</a>
</g>
</g>
<!-- Node18&#45;&gt;Node19 -->
<g id="edge27" class="edge"><title>Node18&#45;&gt;Node19</title>
<path fill="none" stroke="midnightblue" d="M645.24,-168.324C660.655,-159.743 684.468,-146.486 702.365,-136.522"/>
<polygon fill="midnightblue" stroke="midnightblue" points="704.075,-139.577 711.11,-131.655 700.67,-133.461 704.075,-139.577"/>
</g>
<!-- Node20 -->
<g id="node20" class="node"><title>Node20</title>
<g id="a_node20"><a xlink:href="IDisplay_8hpp.html" target="_top" xlink:title="IDisplay.hpp">
<polygon fill="none" stroke="black" points="606.156,-112.5 606.156,-131.5 679.156,-131.5 679.156,-112.5 606.156,-112.5"/>
<text text-anchor="middle" x="642.656" y="-119.5" font-family="Helvetica,sans-Serif" font-size="10.00">IDisplay.hpp</text>
</a>
</g>
</g>
<!-- Node18&#45;&gt;Node20 -->
<g id="edge28" class="edge"><title>Node18&#45;&gt;Node20</title>
<path fill="none" stroke="midnightblue" d="M631.802,-168.083C633.525,-160.927 636.003,-150.635 638.156,-141.691"/>
<polygon fill="midnightblue" stroke="midnightblue" points="641.611,-142.293 640.549,-131.751 634.805,-140.654 641.611,-142.293"/>
</g>
<!-- Node20&#45;&gt;Node13 -->
<g id="edge30" class="edge"><title>Node20&#45;&gt;Node13</title>
<path fill="none" stroke="midnightblue" d="M638.197,-112.083C634.501,-104.691 629.132,-93.9533 624.561,-84.8111"/>
<polygon fill="midnightblue" stroke="midnightblue" points="627.634,-83.1301 620.031,-75.7511 621.373,-86.2606 627.634,-83.1301"/>
</g>
<!-- Node20&#45;&gt;Node14 -->
<g id="edge29" class="edge"><title>Node20&#45;&gt;Node14</title>
<path fill="none" stroke="midnightblue" d="M655.444,-112.352C668.343,-103.517 688.718,-89.2517 705.656,-76 726.423,-59.752 749.299,-39.9053 764.471,-26.4484"/>
<polygon fill="midnightblue" stroke="midnightblue" points="766.912,-28.9613 772.046,-19.6932 762.253,-23.737 766.912,-28.9613"/>
</g>
<!-- Node22 -->
<g id="node22" class="node"><title>Node22</title>
<g id="a_node22"><a xlink:href="Motion_8hpp.html" target="_top" xlink:title="Motion.hpp">
<polygon fill="none" stroke="black" points="356.656,-168.5 356.656,-187.5 426.656,-187.5 426.656,-168.5 356.656,-168.5"/>
<text text-anchor="middle" x="391.656" y="-175.5" font-family="Helvetica,sans-Serif" font-size="10.00">Motion.hpp</text>
</a>
</g>
</g>
<!-- Node21&#45;&gt;Node22 -->
<g id="edge32" class="edge"><title>Node21&#45;&gt;Node22</title>
<path fill="none" stroke="midnightblue" d="M381.637,-224.083C383.227,-216.927 385.514,-206.635 387.502,-197.691"/>
<polygon fill="midnightblue" stroke="midnightblue" points="390.958,-198.272 389.711,-187.751 384.125,-196.754 390.958,-198.272"/>
</g>
<!-- Node22&#45;&gt;Node17 -->
<g id="edge33" class="edge"><title>Node22&#45;&gt;Node17</title>
<path fill="none" stroke="midnightblue" d="M404.83,-168.324C417.502,-159.979 436.889,-147.212 451.861,-137.352"/>
<polygon fill="midnightblue" stroke="midnightblue" points="454.087,-140.078 460.514,-131.655 450.237,-134.231 454.087,-140.078"/>
</g>
<!-- Node23&#45;&gt;Node17 -->
<g id="edge35" class="edge"><title>Node23&#45;&gt;Node17</title>
<path fill="none" stroke="midnightblue" d="M565.063,-224.112C563.759,-210.691 559.629,-185.016 546.656,-168 535.993,-154.014 519.628,-143.354 505.093,-135.928"/>
<polygon fill="midnightblue" stroke="midnightblue" points="506.414,-132.681 495.884,-131.513 503.388,-138.993 506.414,-132.681"/>
</g>
<!-- Node24&#45;&gt;Node14 -->
<g id="edge37" class="edge"><title>Node24&#45;&gt;Node14</title>
<path fill="none" stroke="midnightblue" d="M765.901,-231.931C825.794,-227.877 941.006,-209.823 982.656,-132 1018.94,-64.1964 892.37,-30.5892 823.427,-17.6184"/>
<polygon fill="midnightblue" stroke="midnightblue" points="823.759,-14.1216 813.295,-15.7822 822.511,-21.0094 823.759,-14.1216"/>
</g>
<!-- Node24&#45;&gt;Node19 -->
<g id="edge45" class="edge"><title>Node24&#45;&gt;Node19</title>
<path fill="none" stroke="midnightblue" d="M728.499,-224.368C728.176,-206.617 727.431,-165.666 726.994,-141.597"/>
<polygon fill="midnightblue" stroke="midnightblue" points="730.493,-141.526 726.812,-131.591 723.494,-141.653 730.493,-141.526"/>
</g>
<!-- Node24&#45;&gt;Node20 -->
<g id="edge38" class="edge"><title>Node24&#45;&gt;Node20</title>
<path fill="none" stroke="midnightblue" d="M721.907,-224.368C707.652,-206.135 674.261,-163.426 655.693,-139.675"/>
<polygon fill="midnightblue" stroke="midnightblue" points="658.289,-137.314 649.373,-131.591 652.774,-141.625 658.289,-137.314"/>
</g>
<!-- Node25 -->
<g id="node25" class="node"><title>Node25</title>
<g id="a_node25"><a xlink:href="Timer_8hpp.html" target="_top" xlink:title="Timer.hpp">
<polygon fill="none" stroke="black" points="825.656,-168.5 825.656,-187.5 889.656,-187.5 889.656,-168.5 825.656,-168.5"/>
<text text-anchor="middle" x="857.656" y="-175.5" font-family="Helvetica,sans-Serif" font-size="10.00">Timer.hpp</text>
</a>
</g>
</g>
<!-- Node24&#45;&gt;Node25 -->
<g id="edge39" class="edge"><title>Node24&#45;&gt;Node25</title>
<path fill="none" stroke="midnightblue" d="M749.096,-224.444C770.326,-215.557 803.755,-201.563 827.911,-191.451"/>
<polygon fill="midnightblue" stroke="midnightblue" points="829.438,-194.606 837.311,-187.516 826.735,-188.149 829.438,-194.606"/>
</g>
<!-- Node25&#45;&gt;Node14 -->
<g id="edge41" class="edge"><title>Node25&#45;&gt;Node14</title>
<path fill="none" stroke="midnightblue" d="M863.747,-168.417C871.893,-155.816 884.454,-131.673 876.656,-112 861.868,-74.6944 826.055,-43.1463 802.871,-25.6764"/>
<polygon fill="midnightblue" stroke="midnightblue" points="804.813,-22.7607 794.673,-19.6876 800.683,-28.413 804.813,-22.7607"/>
</g>
<!-- Node26 -->
<g id="node26" class="node"><title>Node26</title>
<polygon fill="none" stroke="#bfbfbf" points="923.656,-112.5 923.656,-131.5 973.656,-131.5 973.656,-112.5 923.656,-112.5"/>
<text text-anchor="middle" x="948.656" y="-119.5" font-family="Helvetica,sans-Serif" font-size="10.00">chrono</text>
</g>
<!-- Node25&#45;&gt;Node26 -->
<g id="edge40" class="edge"><title>Node25&#45;&gt;Node26</title>
<path fill="none" stroke="midnightblue" d="M872.276,-168.324C886.605,-159.822 908.668,-146.729 925.404,-136.797"/>
<polygon fill="midnightblue" stroke="midnightblue" points="927.257,-139.768 934.071,-131.655 923.685,-133.748 927.257,-139.768"/>
</g>
<!-- Node27 -->
<g id="node27" class="node"><title>Node27</title>
<g id="a_node27"><a xlink:href="IGameLogic_8hpp.html" target="_top" xlink:title="IGameLogic.hpp">
<polygon fill="none" stroke="black" points="773.656,-112.5 773.656,-131.5 867.656,-131.5 867.656,-112.5 773.656,-112.5"/>
<text text-anchor="middle" x="820.656" y="-119.5" font-family="Helvetica,sans-Serif" font-size="10.00">IGameLogic.hpp</text>
</a>
</g>
</g>
<!-- Node25&#45;&gt;Node27 -->
<g id="edge42" class="edge"><title>Node25&#45;&gt;Node27</title>
<path fill="none" stroke="midnightblue" d="M851.546,-168.083C846.373,-160.534 838.809,-149.495 832.461,-140.23"/>
<polygon fill="midnightblue" stroke="midnightblue" points="835.191,-138.022 826.652,-131.751 829.417,-141.979 835.191,-138.022"/>
</g>
<!-- Node27&#45;&gt;Node13 -->
<g id="edge44" class="edge"><title>Node27&#45;&gt;Node13</title>
<path fill="none" stroke="midnightblue" d="M788.173,-112.444C752.936,-103.162 696.552,-88.3093 657.897,-78.127"/>
<polygon fill="midnightblue" stroke="midnightblue" points="658.548,-74.6792 647.986,-75.5164 656.765,-81.4483 658.548,-74.6792"/>
</g>
<!-- Node27&#45;&gt;Node14 -->
<g id="edge43" class="edge"><title>Node27&#45;&gt;Node14</title>
<path fill="none" stroke="midnightblue" d="M817.595,-112.368C811.273,-94.5366 796.651,-53.2953 788.134,-29.2717"/>
<polygon fill="midnightblue" stroke="midnightblue" points="791.342,-27.847 784.702,-19.5914 784.745,-30.1862 791.342,-27.847"/>
</g>
</g>
</svg>
        <g id="navigator" transform="translate(0 0)" fill="#404254">
                <rect fill="#f2f5e9" fill-opacity="0.5" stroke="#606060" stroke-width=".5" x="0" y="0" width="60" height="60"/>
                <use id="zoomplus" xlink:href="#zoomPlus" x="17" y="9" onmousedown="handleZoom(evt,'in')"/>
                <use id="zoomminus" xlink:href="#zoomMin" x="42" y="9" onmousedown="handleZoom(evt,'out')"/>
                <use id="reset" xlink:href="#resetDef" x="30" y="36" onmousedown="handleReset()"/>
                <g id="arrowUp" xlink:href="#dirArrow" transform="translate(30 24)" onmousedown="handlePan(0,-1)">
                  <use xlink:href="#rim" fill="#404040">
                        <set attributeName="fill" to="#808080" begin="arrowUp.mouseover" end="arrowUp.mouseout"/>
                  </use>
                  <path fill="none" stroke="white" stroke-width="1.5" d="M0,-3.0v7 M-2.5,-0.5L0,-3.0L2.5,-0.5"/>
                </g>
                <g id="arrowRight" xlink:href="#dirArrow" transform="rotate(90) translate(36 -43)" onmousedown="handlePan(1,0)">
                  <use xlink:href="#rim" fill="#404040">
                        <set attributeName="fill" to="#808080" begin="arrowRight.mouseover" end="arrowRight.mouseout"/>
                  </use>
                  <path fill="none" stroke="white" stroke-width="1.5" d="M0,-3.0v7 M-2.5,-0.5L0,-3.0L2.5,-0.5"/>
                </g>
                <g id="arrowDown" xlink:href="#dirArrow" transform="rotate(180) translate(-30 -48)" onmousedown="handlePan(0,1)">
                  <use xlink:href="#rim" fill="#404040">
                        <set attributeName="fill" to="#808080" begin="arrowDown.mouseover" end="arrowDown.mouseout"/>
                  </use>
                  <path fill="none" stroke="white" stroke-width="1.5" d="M0,-3.0v7 M-2.5,-0.5L0,-3.0L2.5,-0.5"/>
                </g>
                <g id="arrowLeft" xlink:href="#dirArrow" transform="rotate(270) translate(-36 17)" onmousedown="handlePan(-1,0)">
                  <use xlink:href="#rim" fill="#404040">
                        <set attributeName="fill" to="#808080" begin="arrowLeft.mouseover" end="arrowLeft.mouseout"/>
                  </use>
                  <path fill="none" stroke="white" stroke-width="1.5" d="M0,-3.0v7 M-2.5,-0.5L0,-3.0L2.5,-0.5"/>
                </g>
        </g>
        <svg viewBox="0 0 15 15" width="100%" height="30px" preserveAspectRatio="xMaxYMin meet">
         <g id="arrow_out" transform="scale(0.3 0.3)">
          <a xlink:href="PlanetEntity_8cpp__incl_org.svg" target="_base">
           <rect id="button" ry="5" rx="5" y="6" x="6" height="38" width="38"
                fill="#f2f5e9" fill-opacity="0.5" stroke="#606060" stroke-width="1.0"/>
           <path id="arrow"
             d="M 11.500037,31.436501 C 11.940474,20.09759 22.043105,11.32322 32.158766,21.979434 L 37.068811,17.246167 C 37.068811,17.246167 37.088388,32 37.088388,32 L 22.160133,31.978069 C 22.160133,31.978069 26.997745,27.140456 26.997745,27.140456 C 18.528582,18.264221 13.291696,25.230495 11.500037,31.436501 z"
             style="fill:#404040;"/>
          </a>
         </g>
        </svg>
</svg>
