<?xml version="1.0" encoding="UTF-8" standalone="no"?>
<!DOCTYPE svg PUBLIC "-//W3C//DTD SVG 1.1//EN"
 "http://www.w3.org/Graphics/SVG/1.1/DTD/svg11.dtd">
<!-- Generated by graphviz version 2.38.0 (20140413.2041)
 -->
<!-- Title: src/Systems/SystemConstructor/PlayerMovementSystem/PlayerMovementSystem.hpp Pages: 1 -->
<svg width="498pt" height="128pt"
 viewBox="0.00 0.00 497.50 128.00" xmlns="http://www.w3.org/2000/svg" xmlns:xlink="http://www.w3.org/1999/xlink">
<g id="graph0" class="graph" transform="scale(1 1) rotate(0) translate(4 124)">
<title>src/Systems/SystemConstructor/PlayerMovementSystem/PlayerMovementSystem.hpp</title>
<!-- Node1 -->
<g id="node1" class="node"><title>Node1</title>
<polygon fill="#bfbfbf" stroke="black" points="65.5,-78.5 65.5,-119.5 285.5,-119.5 285.5,-78.5 65.5,-78.5"/>
<text text-anchor="start" x="73.5" y="-107.5" font-family="Helvetica,sans-Serif" font-size="10.00">src/Systems/SystemConstructor</text>
<text text-anchor="start" x="73.5" y="-96.5" font-family="Helvetica,sans-Serif" font-size="10.00">/PlayerMovementSystem/PlayerMovement</text>
<text text-anchor="middle" x="175.5" y="-85.5" font-family="Helvetica,sans-Serif" font-size="10.00">System.hpp</text>
</g>
<!-- Node2 -->
<g id="node2" class="node"><title>Node2</title>
<g id="a_node2"><a xlink:href="Rtype_8cpp.html" target="_top" xlink:title="src/Rtype.cpp">
<polygon fill="none" stroke="black" points="0,-11.5 0,-30.5 81,-30.5 81,-11.5 0,-11.5"/>
<text text-anchor="middle" x="40.5" y="-18.5" font-family="Helvetica,sans-Serif" font-size="10.00">src/Rtype.cpp</text>
</a>
</g>
</g>
<!-- Node1&#45;&gt;Node2 -->
<g id="edge1" class="edge"><title>Node1&#45;&gt;Node2</title>
<path fill="none" stroke="midnightblue" d="M131.745,-73.3673C105.601,-58.6493 74.0106,-40.8652 55.6911,-30.552"/>
<polygon fill="midnightblue" stroke="midnightblue" points="130.303,-76.5723 140.734,-78.4281 133.737,-70.4725 130.303,-76.5723"/>
</g>
<!-- Node3 -->
<g id="node3" class="node"><title>Node3</title>
<g id="a_node3"><a xlink:href="GameScene_8cpp.html" target="_top" xlink:title="src/Scenes/GameScene.cpp">
<polygon fill="none" stroke="black" points="99.5,-11.5 99.5,-30.5 251.5,-30.5 251.5,-11.5 99.5,-11.5"/>
<text text-anchor="middle" x="175.5" y="-18.5" font-family="Helvetica,sans-Serif" font-size="10.00">src/Scenes/GameScene.cpp</text>
</a>
</g>
</g>
<!-- Node1&#45;&gt;Node3 -->
<g id="edge2" class="edge"><title>Node1&#45;&gt;Node3</title>
<path fill="none" stroke="midnightblue" d="M175.5,-68.0508C175.5,-54.5595 175.5,-39.6493 175.5,-30.552"/>
<polygon fill="midnightblue" stroke="midnightblue" points="172,-68.4281 175.5,-78.4281 179,-68.4281 172,-68.4281"/>
</g>
<!-- Node4 -->
<g id="node4" class="node"><title>Node4</title>
<g id="a_node4"><a xlink:href="PlayerMovementSystem_8cpp.html" target="_top" xlink:title="src/Systems/SystemConstructor\l/PlayerMovementSystem/PlayerMovement\lSystem.cpp">
<polygon fill="none" stroke="black" points="269.5,-0.5 269.5,-41.5 489.5,-41.5 489.5,-0.5 269.5,-0.5"/>
<text text-anchor="start" x="277.5" y="-29.5" font-family="Helvetica,sans-Serif" font-size="10.00">src/Systems/SystemConstructor</text>
<text text-anchor="start" x="277.5" y="-18.5" font-family="Helvetica,sans-Serif" font-size="10.00">/PlayerMovementSystem/PlayerMovement</text>
<text text-anchor="middle" x="379.5" y="-7.5" font-family="Helvetica,sans-Serif" font-size="10.00">System.cpp</text>
</a>
</g>
</g>
<!-- Node1&#45;&gt;Node4 -->
<g id="edge3" class="edge"><title>Node1&#45;&gt;Node4</title>
<path fill="none" stroke="midnightblue" d="M237.539,-74.8874C266.177,-64.2185 299.806,-51.6901 327.143,-41.5056"/>
<polygon fill="midnightblue" stroke="midnightblue" points="236.184,-71.6572 228.035,-78.4281 238.628,-78.2167 236.184,-71.6572"/>
</g>
</g>
</svg>
