<?xml version="1.0" encoding="UTF-8" standalone="no"?>
<!DOCTYPE svg PUBLIC "-//W3C//DTD SVG 1.1//EN"
 "http://www.w3.org/Graphics/SVG/1.1/DTD/svg11.dtd">
<!-- Generated by graphviz version 2.38.0 (20140413.2041)
 -->
<!-- Title: src/Components/GameLogic/PlayerController.hpp Pages: 1 -->
<svg width="1454pt" height="195pt"
 viewBox="0.00 0.00 1454.00 195.00" xmlns="http://www.w3.org/2000/svg" xmlns:xlink="http://www.w3.org/1999/xlink">
<g id="graph0" class="graph" transform="scale(1 1) rotate(0) translate(4 191)">
<title>src/Components/GameLogic/PlayerController.hpp</title>
<!-- Node1 -->
<g id="node1" class="node"><title>Node1</title>
<polygon fill="#bfbfbf" stroke="black" points="465,-156.5 465,-186.5 617,-186.5 617,-156.5 465,-156.5"/>
<text text-anchor="start" x="473" y="-174.5" font-family="Helvetica,sans-Serif" font-size="10.00">src/Components/GameLogic</text>
<text text-anchor="middle" x="541" y="-163.5" font-family="Helvetica,sans-Serif" font-size="10.00">/PlayerController.hpp</text>
</g>
<!-- Node2 -->
<g id="node2" class="node"><title>Node2</title>
<g id="a_node2"><a xlink:href="PlayerController_8cpp.html" target="_top" xlink:title="src/Components/GameLogic\l/PlayerController.cpp">
<polygon fill="none" stroke="black" points="0,-84 0,-114 152,-114 152,-84 0,-84"/>
<text text-anchor="start" x="8" y="-102" font-family="Helvetica,sans-Serif" font-size="10.00">src/Components/GameLogic</text>
<text text-anchor="middle" x="76" y="-91" font-family="Helvetica,sans-Serif" font-size="10.00">/PlayerController.cpp</text>
</a>
</g>
</g>
<!-- Node1&#45;&gt;Node2 -->
<g id="edge1" class="edge"><title>Node1&#45;&gt;Node2</title>
<path fill="none" stroke="midnightblue" d="M454.66,-161.387C377.601,-152.687 261.837,-138.217 162,-120 152.5,-118.266 142.467,-116.175 132.739,-114.007"/>
<polygon fill="midnightblue" stroke="midnightblue" points="454.473,-164.888 464.801,-162.524 455.253,-157.932 454.473,-164.888"/>
</g>
<!-- Node3 -->
<g id="node3" class="node"><title>Node3</title>
<g id="a_node3"><a xlink:href="PlayerEntity_8cpp.html" target="_top" xlink:title="src/Entities/EntityConstructor\l/PlayerEntity/PlayerEntity.cpp">
<polygon fill="none" stroke="black" points="170.5,-84 170.5,-114 325.5,-114 325.5,-84 170.5,-84"/>
<text text-anchor="start" x="178.5" y="-102" font-family="Helvetica,sans-Serif" font-size="10.00">src/Entities/EntityConstructor</text>
<text text-anchor="middle" x="248" y="-91" font-family="Helvetica,sans-Serif" font-size="10.00">/PlayerEntity/PlayerEntity.cpp</text>
</a>
</g>
</g>
<!-- Node1&#45;&gt;Node3 -->
<g id="edge2" class="edge"><title>Node1&#45;&gt;Node3</title>
<path fill="none" stroke="midnightblue" d="M472.914,-154.118C422.445,-141.974 354.372,-125.595 306.378,-114.047"/>
<polygon fill="midnightblue" stroke="midnightblue" points="472.221,-157.551 482.762,-156.487 473.859,-150.745 472.221,-157.551"/>
</g>
<!-- Node4 -->
<g id="node4" class="node"><title>Node4</title>
<g id="a_node4"><a xlink:href="PlayerTwoEntity_8cpp.html" target="_top" xlink:title="src/Entities/EntityConstructor\l/PlayerTwoEntity/PlayerTwoEntity.cpp">
<polygon fill="none" stroke="black" points="343.5,-84 343.5,-114 530.5,-114 530.5,-84 343.5,-84"/>
<text text-anchor="start" x="351.5" y="-102" font-family="Helvetica,sans-Serif" font-size="10.00">src/Entities/EntityConstructor</text>
<text text-anchor="middle" x="437" y="-91" font-family="Helvetica,sans-Serif" font-size="10.00">/PlayerTwoEntity/PlayerTwoEntity.cpp</text>
</a>
</g>
</g>
<!-- Node1&#45;&gt;Node4 -->
<g id="edge3" class="edge"><title>Node1&#45;&gt;Node4</title>
<path fill="none" stroke="midnightblue" d="M511.395,-150.431C494.225,-138.792 473.029,-124.424 457.66,-114.005"/>
<polygon fill="midnightblue" stroke="midnightblue" points="509.713,-153.519 519.954,-156.233 513.641,-147.725 509.713,-153.519"/>
</g>
<!-- Node5 -->
<g id="node5" class="node"><title>Node5</title>
<g id="a_node5"><a xlink:href="TestBackground_8cpp.html" target="_top" xlink:title="src/Entities/EntityConstructor\l/TestBackground/TestBackground.cpp">
<polygon fill="none" stroke="black" points="548,-84 548,-114 742,-114 742,-84 548,-84"/>
<text text-anchor="start" x="556" y="-102" font-family="Helvetica,sans-Serif" font-size="10.00">src/Entities/EntityConstructor</text>
<text text-anchor="middle" x="645" y="-91" font-family="Helvetica,sans-Serif" font-size="10.00">/TestBackground/TestBackground.cpp</text>
</a>
</g>
</g>
<!-- Node1&#45;&gt;Node5 -->
<g id="edge4" class="edge"><title>Node1&#45;&gt;Node5</title>
<path fill="none" stroke="midnightblue" d="M570.605,-150.431C587.775,-138.792 608.971,-124.424 624.34,-114.005"/>
<polygon fill="midnightblue" stroke="midnightblue" points="568.359,-147.725 562.046,-156.233 572.287,-153.519 568.359,-147.725"/>
</g>
<!-- Node6 -->
<g id="node6" class="node"><title>Node6</title>
<g id="a_node6"><a xlink:href="EnemiesMovementSystem_8cpp.html" target="_top" xlink:title="src/Systems/SystemConstructor\l/EnemiesMovementSystem/EnemiesMovement\lSystem.cpp">
<polygon fill="none" stroke="black" points="760,-78.5 760,-119.5 1004,-119.5 1004,-78.5 760,-78.5"/>
<text text-anchor="start" x="768" y="-107.5" font-family="Helvetica,sans-Serif" font-size="10.00">src/Systems/SystemConstructor</text>
<text text-anchor="start" x="768" y="-96.5" font-family="Helvetica,sans-Serif" font-size="10.00">/EnemiesMovementSystem/EnemiesMovement</text>
<text text-anchor="middle" x="882" y="-85.5" font-family="Helvetica,sans-Serif" font-size="10.00">System.cpp</text>
</a>
</g>
</g>
<!-- Node1&#45;&gt;Node6 -->
<g id="edge5" class="edge"><title>Node1&#45;&gt;Node6</title>
<path fill="none" stroke="midnightblue" d="M618.597,-154.457C668.761,-144.086 734.371,-130.522 787.559,-119.525"/>
<polygon fill="midnightblue" stroke="midnightblue" points="617.863,-151.035 608.778,-156.487 619.28,-157.89 617.863,-151.035"/>
</g>
<!-- Node7 -->
<g id="node7" class="node"><title>Node7</title>
<g id="a_node7"><a xlink:href="PlayerMovementSystem_8hpp.html" target="_top" xlink:title="src/Systems/SystemConstructor\l/PlayerMovementSystem/PlayerMovement\lSystem.hpp">
<polygon fill="none" stroke="black" points="1022,-78.5 1022,-119.5 1242,-119.5 1242,-78.5 1022,-78.5"/>
<text text-anchor="start" x="1030" y="-107.5" font-family="Helvetica,sans-Serif" font-size="10.00">src/Systems/SystemConstructor</text>
<text text-anchor="start" x="1030" y="-96.5" font-family="Helvetica,sans-Serif" font-size="10.00">/PlayerMovementSystem/PlayerMovement</text>
<text text-anchor="middle" x="1132" y="-85.5" font-family="Helvetica,sans-Serif" font-size="10.00">System.hpp</text>
</a>
</g>
</g>
<!-- Node1&#45;&gt;Node7 -->
<g id="edge6" class="edge"><title>Node1&#45;&gt;Node7</title>
<path fill="none" stroke="midnightblue" d="M627.308,-162.831C722.089,-154.045 878.689,-138.455 1013,-120 1015.91,-119.601 1018.85,-119.185 1021.82,-118.757"/>
<polygon fill="midnightblue" stroke="midnightblue" points="626.833,-159.36 617.197,-163.764 627.477,-166.33 626.833,-159.36"/>
</g>
<!-- Node8 -->
<g id="node8" class="node"><title>Node8</title>
<g id="a_node8"><a xlink:href="Rtype_8cpp.html" target="_top" xlink:title="src/Rtype.cpp">
<polygon fill="none" stroke="black" points="956.5,-11.5 956.5,-30.5 1037.5,-30.5 1037.5,-11.5 956.5,-11.5"/>
<text text-anchor="middle" x="997" y="-18.5" font-family="Helvetica,sans-Serif" font-size="10.00">src/Rtype.cpp</text>
</a>
</g>
</g>
<!-- Node7&#45;&gt;Node8 -->
<g id="edge7" class="edge"><title>Node7&#45;&gt;Node8</title>
<path fill="none" stroke="midnightblue" d="M1088.24,-73.3673C1062.1,-58.6493 1030.51,-40.8652 1012.19,-30.552"/>
<polygon fill="midnightblue" stroke="midnightblue" points="1086.8,-76.5723 1097.23,-78.4281 1090.24,-70.4725 1086.8,-76.5723"/>
</g>
<!-- Node9 -->
<g id="node9" class="node"><title>Node9</title>
<g id="a_node9"><a xlink:href="GameScene_8cpp.html" target="_top" xlink:title="src/Scenes/GameScene.cpp">
<polygon fill="none" stroke="black" points="1056,-11.5 1056,-30.5 1208,-30.5 1208,-11.5 1056,-11.5"/>
<text text-anchor="middle" x="1132" y="-18.5" font-family="Helvetica,sans-Serif" font-size="10.00">src/Scenes/GameScene.cpp</text>
</a>
</g>
</g>
<!-- Node7&#45;&gt;Node9 -->
<g id="edge8" class="edge"><title>Node7&#45;&gt;Node9</title>
<path fill="none" stroke="midnightblue" d="M1132,-68.0508C1132,-54.5595 1132,-39.6493 1132,-30.552"/>
<polygon fill="midnightblue" stroke="midnightblue" points="1128.5,-68.4281 1132,-78.4281 1135.5,-68.4281 1128.5,-68.4281"/>
</g>
<!-- Node10 -->
<g id="node10" class="node"><title>Node10</title>
<g id="a_node10"><a xlink:href="PlayerMovementSystem_8cpp.html" target="_top" xlink:title="src/Systems/SystemConstructor\l/PlayerMovementSystem/PlayerMovement\lSystem.cpp">
<polygon fill="none" stroke="black" points="1226,-0.5 1226,-41.5 1446,-41.5 1446,-0.5 1226,-0.5"/>
<text text-anchor="start" x="1234" y="-29.5" font-family="Helvetica,sans-Serif" font-size="10.00">src/Systems/SystemConstructor</text>
<text text-anchor="start" x="1234" y="-18.5" font-family="Helvetica,sans-Serif" font-size="10.00">/PlayerMovementSystem/PlayerMovement</text>
<text text-anchor="middle" x="1336" y="-7.5" font-family="Helvetica,sans-Serif" font-size="10.00">System.cpp</text>
</a>
</g>
</g>
<!-- Node7&#45;&gt;Node10 -->
<g id="edge9" class="edge"><title>Node7&#45;&gt;Node10</title>
<path fill="none" stroke="midnightblue" d="M1194.04,-74.8874C1222.68,-64.2185 1256.31,-51.6901 1283.64,-41.5056"/>
<polygon fill="midnightblue" stroke="midnightblue" points="1192.68,-71.6572 1184.54,-78.4281 1195.13,-78.2167 1192.68,-71.6572"/>
</g>
</g>
</svg>
