<?xml version="1.0" encoding="UTF-8" standalone="no"?>
<!DOCTYPE svg PUBLIC "-//W3C//DTD SVG 1.1//EN"
 "http://www.w3.org/Graphics/SVG/1.1/DTD/svg11.dtd">
<!-- Generated by graphviz version 2.38.0 (20140413.2041)
 -->
<!-- Title: src/Components/GameLogic/PlayerController.hpp Pages: 1 -->
<svg width="397pt" height="263pt"
 viewBox="0.00 0.00 397.30 263.00" xmlns="http://www.w3.org/2000/svg" xmlns:xlink="http://www.w3.org/1999/xlink">
<g id="graph0" class="graph" transform="scale(1 1) rotate(0) translate(4 259)">
<title>src/Components/GameLogic/PlayerController.hpp</title>
<!-- Node1 -->
<g id="node1" class="node"><title>Node1</title>
<polygon fill="#bfbfbf" stroke="black" points="87.7965,-224.5 87.7965,-254.5 239.796,-254.5 239.796,-224.5 87.7965,-224.5"/>
<text text-anchor="start" x="95.7965" y="-242.5" font-family="Helvetica,sans-Serif" font-size="10.00">src/Components/GameLogic</text>
<text text-anchor="middle" x="163.796" y="-231.5" font-family="Helvetica,sans-Serif" font-size="10.00">/PlayerController.hpp</text>
</g>
<!-- Node2 -->
<g id="node2" class="node"><title>Node2</title>
<polygon fill="none" stroke="#bfbfbf" points="0.296499,-0.5 0.296499,-19.5 63.2965,-19.5 63.2965,-0.5 0.296499,-0.5"/>
<text text-anchor="middle" x="31.7965" y="-7.5" font-family="Helvetica,sans-Serif" font-size="10.00">typeindex</text>
</g>
<!-- Node1&#45;&gt;Node2 -->
<g id="edge1" class="edge"><title>Node1&#45;&gt;Node2</title>
<path fill="none" stroke="midnightblue" d="M127.733,-224.482C91.5785,-208.262 37.918,-177.773 13.7965,-132 -2.03805,-101.953 -2.99939,-88.8057 5.7965,-56 8.45007,-46.1031 13.8658,-36.1315 19.0708,-28.099"/>
<polygon fill="midnightblue" stroke="midnightblue" points="22.0856,-29.8935 24.9062,-19.6811 16.3326,-25.9055 22.0856,-29.8935"/>
</g>
<!-- Node3 -->
<g id="node3" class="node"><title>Node3</title>
<g id="a_node3"><a xlink:href="IGameLogic_8hpp.html" target="_top" xlink:title="IGameLogic.hpp">
<polygon fill="none" stroke="black" points="22.7965,-112.5 22.7965,-131.5 116.796,-131.5 116.796,-112.5 22.7965,-112.5"/>
<text text-anchor="middle" x="69.7965" y="-119.5" font-family="Helvetica,sans-Serif" font-size="10.00">IGameLogic.hpp</text>
</a>
</g>
</g>
<!-- Node1&#45;&gt;Node3 -->
<g id="edge2" class="edge"><title>Node1&#45;&gt;Node3</title>
<path fill="none" stroke="midnightblue" d="M133.327,-224.392C117.951,-215.853 100.192,-203.587 88.7965,-188 78.9304,-174.505 74.1626,-155.949 71.8734,-142.117"/>
<polygon fill="midnightblue" stroke="midnightblue" points="75.2895,-141.262 70.4758,-131.824 68.3531,-142.204 75.2895,-141.262"/>
</g>
<!-- Node5 -->
<g id="node5" class="node"><title>Node5</title>
<g id="a_node5"><a xlink:href="Timer_8hpp.html" target="_top" xlink:title="Timer.hpp">
<polygon fill="none" stroke="black" points="97.7965,-168.5 97.7965,-187.5 161.796,-187.5 161.796,-168.5 97.7965,-168.5"/>
<text text-anchor="middle" x="129.796" y="-175.5" font-family="Helvetica,sans-Serif" font-size="10.00">Timer.hpp</text>
</a>
</g>
</g>
<!-- Node1&#45;&gt;Node5 -->
<g id="edge6" class="edge"><title>Node1&#45;&gt;Node5</title>
<path fill="none" stroke="midnightblue" d="M155.739,-224.399C150.951,-216.021 144.84,-205.327 139.752,-196.423"/>
<polygon fill="midnightblue" stroke="midnightblue" points="142.744,-194.604 134.744,-187.658 136.666,-198.077 142.744,-194.604"/>
</g>
<!-- Node7 -->
<g id="node7" class="node"><title>Node7</title>
<polygon fill="none" stroke="#bfbfbf" points="179.796,-168.5 179.796,-187.5 217.796,-187.5 217.796,-168.5 179.796,-168.5"/>
<text text-anchor="middle" x="198.796" y="-175.5" font-family="Helvetica,sans-Serif" font-size="10.00">map</text>
</g>
<!-- Node1&#45;&gt;Node7 -->
<g id="edge10" class="edge"><title>Node1&#45;&gt;Node7</title>
<path fill="none" stroke="midnightblue" d="M172.091,-224.399C177.02,-216.021 183.31,-205.327 188.548,-196.423"/>
<polygon fill="midnightblue" stroke="midnightblue" points="191.65,-198.052 193.704,-187.658 185.617,-194.503 191.65,-198.052"/>
</g>
<!-- Node8 -->
<g id="node8" class="node"><title>Node8</title>
<g id="a_node8"><a xlink:href="Input_8hpp.html" target="_top" xlink:title="Input.hpp">
<polygon fill="none" stroke="black" points="235.796,-168.5 235.796,-187.5 297.796,-187.5 297.796,-168.5 235.796,-168.5"/>
<text text-anchor="middle" x="266.796" y="-175.5" font-family="Helvetica,sans-Serif" font-size="10.00">Input.hpp</text>
</a>
</g>
</g>
<!-- Node1&#45;&gt;Node8 -->
<g id="edge11" class="edge"><title>Node1&#45;&gt;Node8</title>
<path fill="none" stroke="midnightblue" d="M188.206,-224.399C204.716,-214.862 226.419,-202.325 242.834,-192.842"/>
<polygon fill="midnightblue" stroke="midnightblue" points="244.901,-195.691 251.809,-187.658 241.399,-189.629 244.901,-195.691"/>
</g>
<!-- Node9 -->
<g id="node9" class="node"><title>Node9</title>
<g id="a_node9"><a xlink:href="Actions_8hpp.html" target="_top" xlink:title="Actions.hpp">
<polygon fill="none" stroke="black" points="316.296,-168.5 316.296,-187.5 389.296,-187.5 389.296,-168.5 316.296,-168.5"/>
<text text-anchor="middle" x="352.796" y="-175.5" font-family="Helvetica,sans-Serif" font-size="10.00">Actions.hpp</text>
</a>
</g>
</g>
<!-- Node1&#45;&gt;Node9 -->
<g id="edge12" class="edge"><title>Node1&#45;&gt;Node9</title>
<path fill="none" stroke="midnightblue" d="M208.587,-224.399C241.245,-214.118 284.977,-200.351 315.69,-190.682"/>
<polygon fill="midnightblue" stroke="midnightblue" points="317.084,-193.912 325.571,-187.571 314.982,-187.235 317.084,-193.912"/>
</g>
<!-- Node3&#45;&gt;Node2 -->
<g id="edge3" class="edge"><title>Node3&#45;&gt;Node2</title>
<path fill="none" stroke="midnightblue" d="M51.715,-112.39C38.2347,-104.872 20.824,-92.5651 12.7965,-76 5.37017,-60.6754 12.4298,-41.8839 19.9605,-28.4543"/>
<polygon fill="midnightblue" stroke="midnightblue" points="23.0585,-30.0986 25.3269,-19.7495 17.0998,-26.4252 23.0585,-30.0986"/>
</g>
<!-- Node4 -->
<g id="node4" class="node"><title>Node4</title>
<g id="a_node4"><a xlink:href="IComponent_8hpp.html" target="_top" xlink:title="IComponent.hpp">
<polygon fill="none" stroke="black" points="21.7965,-56.5 21.7965,-75.5 117.796,-75.5 117.796,-56.5 21.7965,-56.5"/>
<text text-anchor="middle" x="69.7965" y="-63.5" font-family="Helvetica,sans-Serif" font-size="10.00">IComponent.hpp</text>
</a>
</g>
</g>
<!-- Node3&#45;&gt;Node4 -->
<g id="edge4" class="edge"><title>Node3&#45;&gt;Node4</title>
<path fill="none" stroke="midnightblue" d="M69.7965,-112.083C69.7965,-105.006 69.7965,-94.8611 69.7965,-85.9865"/>
<polygon fill="midnightblue" stroke="midnightblue" points="73.2966,-85.751 69.7965,-75.7511 66.2966,-85.7511 73.2966,-85.751"/>
</g>
<!-- Node4&#45;&gt;Node2 -->
<g id="edge5" class="edge"><title>Node4&#45;&gt;Node2</title>
<path fill="none" stroke="midnightblue" d="M63.5216,-56.083C58.154,-48.4554 50.2789,-37.2645 43.7178,-27.9408"/>
<polygon fill="midnightblue" stroke="midnightblue" points="46.572,-25.9149 37.9547,-19.7511 40.8473,-29.9434 46.572,-25.9149"/>
</g>
<!-- Node5&#45;&gt;Node2 -->
<g id="edge8" class="edge"><title>Node5&#45;&gt;Node2</title>
<path fill="none" stroke="midnightblue" d="M132.368,-168.499C138.196,-147.435 150.167,-91.9365 126.796,-56 114.795,-37.546 93.0129,-26.4918 73.3308,-19.9612"/>
<polygon fill="midnightblue" stroke="midnightblue" points="74.1768,-16.5607 63.5922,-17.0246 72.1559,-23.2627 74.1768,-16.5607"/>
</g>
<!-- Node5&#45;&gt;Node3 -->
<g id="edge9" class="edge"><title>Node5&#45;&gt;Node3</title>
<path fill="none" stroke="midnightblue" d="M120.156,-168.324C111.287,-160.341 97.9218,-148.313 87.1886,-138.653"/>
<polygon fill="midnightblue" stroke="midnightblue" points="89.3863,-135.922 79.6119,-131.834 84.7035,-141.125 89.3863,-135.922"/>
</g>
<!-- Node6 -->
<g id="node6" class="node"><title>Node6</title>
<polygon fill="none" stroke="#bfbfbf" points="173.796,-112.5 173.796,-131.5 223.796,-131.5 223.796,-112.5 173.796,-112.5"/>
<text text-anchor="middle" x="198.796" y="-119.5" font-family="Helvetica,sans-Serif" font-size="10.00">chrono</text>
</g>
<!-- Node5&#45;&gt;Node6 -->
<g id="edge7" class="edge"><title>Node5&#45;&gt;Node6</title>
<path fill="none" stroke="midnightblue" d="M140.883,-168.324C151.283,-160.185 167.057,-147.839 179.518,-138.087"/>
<polygon fill="midnightblue" stroke="midnightblue" points="181.791,-140.753 187.509,-131.834 177.477,-135.241 181.791,-140.753"/>
</g>
</g>
</svg>
