<?xml version="1.0" encoding="UTF-8" standalone="no"?>
<!DOCTYPE svg PUBLIC "-//W3C//DTD SVG 1.1//EN"
 "http://www.w3.org/Graphics/SVG/1.1/DTD/svg11.dtd">
<!-- Generated by graphviz version 2.38.0 (20140413.2041)
 -->
<!-- Title: src/Entities/EntityConstructor/PlayerEntity/PlayerEntity.cpp Pages: 1 -->
<!--zoomable 319 -->
<svg id="main" version="1.1" xmlns="http://www.w3.org/2000/svg" xmlns:xlink="http://www.w3.org/1999/xlink" xml:space="preserve" onload="init(evt)">
<style type="text/css"><![CDATA[
.edge:hover path { stroke: red; }
.edge:hover polygon { stroke: red; fill: red; }
]]></style>
<script type="text/javascript"><![CDATA[
var edges = document.getElementsByTagName('g');
if (edges && edges.length) {
  for (var i=0;i<edges.length;i++) {
    if (edges[i].id.substr(0,4)=='edge') {
      edges[i].setAttribute('class','edge');
    }
  }
}
]]></script>
        <defs>
                <circle id="rim" cx="0" cy="0" r="7"/>
                <circle id="rim2" cx="0" cy="0" r="3.5"/>
                <g id="zoomPlus">
                        <use xlink:href="#rim" fill="#404040">
                                <set attributeName="fill" to="#808080" begin="zoomplus.mouseover" end="zoomplus.mouseout"/>
                        </use>
                        <path d="M-4,0h8M0,-4v8" fill="none" stroke="white" stroke-width="1.5" pointer-events="none"/>
                </g>
                <g id="zoomMin">
                        <use xlink:href="#rim" fill="#404040">
                                <set attributeName="fill" to="#808080" begin="zoomminus.mouseover" end="zoomminus.mouseout"/>
                        </use>
                        <path d="M-4,0h8" fill="none" stroke="white" stroke-width="1.5" pointer-events="none"/>
                </g>
                <g id="dirArrow">
                        <path fill="none" stroke="white" stroke-width="1.5" d="M0,-3.0v7 M-2.5,-0.5L0,-3.0L2.5,-0.5"/>
                </g>
               <g id="resetDef">
                       <use xlink:href="#rim2" fill="#404040">
                               <set attributeName="fill" to="#808080" begin="reset.mouseover" end="reset.mouseout"/>
                       </use>
               </g>
        </defs>

<script type="text/javascript">
var viewWidth = 1743;
var viewHeight = 319;
var sectionId = 'dynsection-0';
</script>
<script xlink:href="svgpan.js"/>
<svg id="graph" class="graph">
<g id="viewport">
<title>src/Entities/EntityConstructor/PlayerEntity/PlayerEntity.cpp</title>
<!-- Node1 -->
<g id="node1" class="node"><title>Node1</title>
<polygon fill="#bfbfbf" stroke="black" points="832.108,-280.5 832.108,-310.5 987.108,-310.5 987.108,-280.5 832.108,-280.5"/>
<text text-anchor="start" x="840.108" y="-298.5" font-family="Helvetica,sans-Serif" font-size="10.00">src/Entities/EntityConstructor</text>
<text text-anchor="middle" x="909.608" y="-287.5" font-family="Helvetica,sans-Serif" font-size="10.00">/PlayerEntity/PlayerEntity.cpp</text>
</g>
<!-- Node2 -->
<g id="node2" class="node"><title>Node2</title>
<g id="a_node2"><a xlink:href="Components_2IO_2Sound_8hpp.html" target="_top" xlink:title="IO/Sound.hpp">
<polygon fill="none" stroke="black" points="298.108,-224.5 298.108,-243.5 379.108,-243.5 379.108,-224.5 298.108,-224.5"/>
<text text-anchor="middle" x="338.608" y="-231.5" font-family="Helvetica,sans-Serif" font-size="10.00">IO/Sound.hpp</text>
</a>
</g>
</g>
<!-- Node1&#45;&gt;Node2 -->
<g id="edge1" class="edge"><title>Node1&#45;&gt;Node2</title>
<path fill="none" stroke="midnightblue" d="M831.979,-289.067C731.896,-281.597 552.284,-266.619 389.414,-244.153"/>
<polygon fill="midnightblue" stroke="midnightblue" points="389.594,-240.645 379.206,-242.732 388.628,-247.578 389.594,-240.645"/>
</g>
<!-- Node8 -->
<g id="node8" class="node"><title>Node8</title>
<g id="a_node8"><a xlink:href="PlayerEntity_8hpp.html" target="_top" xlink:title="PlayerEntity.hpp">
<polygon fill="none" stroke="black" points="182.608,-224.5 182.608,-243.5 274.608,-243.5 274.608,-224.5 182.608,-224.5"/>
<text text-anchor="middle" x="228.608" y="-231.5" font-family="Helvetica,sans-Serif" font-size="10.00">PlayerEntity.hpp</text>
</a>
</g>
</g>
<!-- Node1&#45;&gt;Node8 -->
<g id="edge7" class="edge"><title>Node1&#45;&gt;Node8</title>
<path fill="none" stroke="midnightblue" d="M831.992,-289.883C714.272,-282.498 483.636,-266.531 288.608,-244 287.342,-243.854 286.063,-243.701 284.773,-243.544"/>
<polygon fill="midnightblue" stroke="midnightblue" points="285.121,-240.059 274.754,-242.244 284.22,-247.001 285.121,-240.059"/>
</g>
<!-- Node18 -->
<g id="node18" class="node"><title>Node18</title>
<g id="a_node18"><a xlink:href="Rotation_8hpp.html" target="_top" xlink:title="Physics/Rotation.hpp">
<polygon fill="none" stroke="black" points="659.108,-224.5 659.108,-243.5 774.108,-243.5 774.108,-224.5 659.108,-224.5"/>
<text text-anchor="middle" x="716.608" y="-231.5" font-family="Helvetica,sans-Serif" font-size="10.00">Physics/Rotation.hpp</text>
</a>
</g>
</g>
<!-- Node1&#45;&gt;Node18 -->
<g id="edge25" class="edge"><title>Node1&#45;&gt;Node18</title>
<path fill="none" stroke="midnightblue" d="M863.869,-280.399C830.375,-270.073 785.474,-256.231 754.092,-246.556"/>
<polygon fill="midnightblue" stroke="midnightblue" points="754.997,-243.172 744.409,-243.571 752.934,-249.862 754.997,-243.172"/>
</g>
<!-- Node20 -->
<g id="node20" class="node"><title>Node20</title>
<g id="a_node20"><a xlink:href="Position_8hpp.html" target="_top" xlink:title="Physics/Position.hpp">
<polygon fill="none" stroke="black" points="792.108,-224.5 792.108,-243.5 905.108,-243.5 905.108,-224.5 792.108,-224.5"/>
<text text-anchor="middle" x="848.608" y="-231.5" font-family="Helvetica,sans-Serif" font-size="10.00">Physics/Position.hpp</text>
</a>
</g>
</g>
<!-- Node1&#45;&gt;Node20 -->
<g id="edge28" class="edge"><title>Node1&#45;&gt;Node20</title>
<path fill="none" stroke="midnightblue" d="M895.152,-280.399C886.013,-271.486 874.189,-259.952 864.745,-250.741"/>
<polygon fill="midnightblue" stroke="midnightblue" points="867.086,-248.135 857.484,-243.658 862.198,-253.146 867.086,-248.135"/>
</g>
<!-- Node22 -->
<g id="node22" class="node"><title>Node22</title>
<g id="a_node22"><a xlink:href="Velocity_8hpp.html" target="_top" xlink:title="Physics/Velocity.hpp">
<polygon fill="none" stroke="black" points="530.108,-224.5 530.108,-243.5 641.108,-243.5 641.108,-224.5 530.108,-224.5"/>
<text text-anchor="middle" x="585.608" y="-231.5" font-family="Helvetica,sans-Serif" font-size="10.00">Physics/Velocity.hpp</text>
</a>
</g>
</g>
<!-- Node1&#45;&gt;Node22 -->
<g id="edge31" class="edge"><title>Node1&#45;&gt;Node22</title>
<path fill="none" stroke="midnightblue" d="M833.235,-280.475C774.531,-269.694 694.776,-255.048 641.82,-245.323"/>
<polygon fill="midnightblue" stroke="midnightblue" points="642.396,-241.87 631.928,-243.506 641.131,-248.755 642.396,-241.87"/>
</g>
<!-- Node24 -->
<g id="node24" class="node"><title>Node24</title>
<g id="a_node24"><a xlink:href="Collision_8hpp.html" target="_top" xlink:title="Physics/Collision.hpp">
<polygon fill="none" stroke="black" points="397.108,-224.5 397.108,-243.5 512.108,-243.5 512.108,-224.5 397.108,-224.5"/>
<text text-anchor="middle" x="454.608" y="-231.5" font-family="Helvetica,sans-Serif" font-size="10.00">Physics/Collision.hpp</text>
</a>
</g>
</g>
<!-- Node1&#45;&gt;Node24 -->
<g id="edge34" class="edge"><title>Node1&#45;&gt;Node24</title>
<path fill="none" stroke="midnightblue" d="M832.092,-284.586C755.869,-274.803 635.899,-259.315 522.451,-244.239"/>
<polygon fill="midnightblue" stroke="midnightblue" points="522.572,-240.725 512.198,-242.875 521.649,-247.663 522.572,-240.725"/>
</g>
<!-- Node26 -->
<g id="node26" class="node"><title>Node26</title>
<g id="a_node26"><a xlink:href="Sprite_8hpp.html" target="_top" xlink:title="Display/Sprite.hpp">
<polygon fill="none" stroke="black" points="1066.61,-224.5 1066.61,-243.5 1170.61,-243.5 1170.61,-224.5 1066.61,-224.5"/>
<text text-anchor="middle" x="1118.61" y="-231.5" font-family="Helvetica,sans-Serif" font-size="10.00">Display/Sprite.hpp</text>
</a>
</g>
</g>
<!-- Node1&#45;&gt;Node26 -->
<g id="edge38" class="edge"><title>Node1&#45;&gt;Node26</title>
<path fill="none" stroke="midnightblue" d="M958.873,-280.475C995.56,-270.03 1044.99,-255.958 1079.1,-246.247"/>
<polygon fill="midnightblue" stroke="midnightblue" points="1080.07,-249.611 1088.73,-243.506 1078.15,-242.878 1080.07,-249.611"/>
</g>
<!-- Node27 -->
<g id="node27" class="node"><title>Node27</title>
<g id="a_node27"><a xlink:href="Rect_8hpp.html" target="_top" xlink:title="Rect.hpp">
<polygon fill="none" stroke="black" points="1192.61,-168.5 1192.61,-187.5 1250.61,-187.5 1250.61,-168.5 1192.61,-168.5"/>
<text text-anchor="middle" x="1221.61" y="-175.5" font-family="Helvetica,sans-Serif" font-size="10.00">Rect.hpp</text>
</a>
</g>
</g>
<!-- Node1&#45;&gt;Node27 -->
<g id="edge72" class="edge"><title>Node1&#45;&gt;Node27</title>
<path fill="none" stroke="midnightblue" d="M987.207,-286.852C1055.52,-278.899 1148.77,-264.693 1179.61,-244 1196.47,-232.686 1208.06,-212.078 1214.73,-197.092"/>
<polygon fill="midnightblue" stroke="midnightblue" points="1217.98,-198.378 1218.56,-187.799 1211.51,-195.709 1217.98,-198.378"/>
</g>
<!-- Node29 -->
<g id="node29" class="node"><title>Node29</title>
<g id="a_node29"><a xlink:href="Animator_8hpp.html" target="_top" xlink:title="Display/Animator.hpp">
<polygon fill="none" stroke="black" points="1227.11,-224.5 1227.11,-243.5 1346.11,-243.5 1346.11,-224.5 1227.11,-224.5"/>
<text text-anchor="middle" x="1286.61" y="-231.5" font-family="Helvetica,sans-Serif" font-size="10.00">Display/Animator.hpp</text>
</a>
</g>
</g>
<!-- Node1&#45;&gt;Node29 -->
<g id="edge45" class="edge"><title>Node1&#45;&gt;Node29</title>
<path fill="none" stroke="midnightblue" d="M987.265,-282.244C1056.73,-271.281 1157.34,-255.402 1222.37,-245.139"/>
<polygon fill="midnightblue" stroke="midnightblue" points="1223.16,-248.558 1232.49,-243.542 1222.06,-241.643 1223.16,-248.558"/>
</g>
<!-- Node33 -->
<g id="node33" class="node"><title>Node33</title>
<g id="a_node33"><a xlink:href="Text_8hpp.html" target="_top" xlink:title="Display/Text.hpp">
<polygon fill="none" stroke="black" points="923.608,-224.5 923.608,-243.5 1017.61,-243.5 1017.61,-224.5 923.608,-224.5"/>
<text text-anchor="middle" x="970.608" y="-231.5" font-family="Helvetica,sans-Serif" font-size="10.00">Display/Text.hpp</text>
</a>
</g>
</g>
<!-- Node1&#45;&gt;Node33 -->
<g id="edge55" class="edge"><title>Node1&#45;&gt;Node33</title>
<path fill="none" stroke="midnightblue" d="M924.064,-280.399C933.202,-271.486 945.026,-259.952 954.47,-250.741"/>
<polygon fill="midnightblue" stroke="midnightblue" points="957.017,-253.146 961.732,-243.658 952.129,-248.135 957.017,-253.146"/>
</g>
<!-- Node36 -->
<g id="node36" class="node"><title>Node36</title>
<g id="a_node36"><a xlink:href="Health_8hpp.html" target="_top" xlink:title="GameLogic/Health.hpp">
<polygon fill="none" stroke="black" points="1344.61,-168.5 1344.61,-187.5 1470.61,-187.5 1470.61,-168.5 1344.61,-168.5"/>
<text text-anchor="middle" x="1407.61" y="-175.5" font-family="Helvetica,sans-Serif" font-size="10.00">GameLogic/Health.hpp</text>
</a>
</g>
</g>
<!-- Node1&#45;&gt;Node36 -->
<g id="edge62" class="edge"><title>Node1&#45;&gt;Node36</title>
<path fill="none" stroke="midnightblue" d="M987.283,-292.674C1097.6,-288.913 1293.11,-277.588 1354.61,-244 1374.32,-233.237 1389.51,-211.853 1398.48,-196.55"/>
<polygon fill="midnightblue" stroke="midnightblue" points="1401.68,-197.99 1403.46,-187.545 1395.56,-194.602 1401.68,-197.99"/>
</g>
<!-- Node37 -->
<g id="node37" class="node"><title>Node37</title>
<g id="a_node37"><a xlink:href="PlayerController_8hpp.html" target="_top" xlink:title="PlayerController.hpp">
<polygon fill="none" stroke="black" points="1502.11,-224.5 1502.11,-243.5 1615.11,-243.5 1615.11,-224.5 1502.11,-224.5"/>
<text text-anchor="middle" x="1558.61" y="-231.5" font-family="Helvetica,sans-Serif" font-size="10.00">PlayerController.hpp</text>
</a>
</g>
</g>
<!-- Node1&#45;&gt;Node37 -->
<g id="edge65" class="edge"><title>Node1&#45;&gt;Node37</title>
<path fill="none" stroke="midnightblue" d="M987.248,-287.382C1115.73,-275.603 1370.39,-252.255 1491.54,-241.148"/>
<polygon fill="midnightblue" stroke="midnightblue" points="1492.15,-244.608 1501.79,-240.209 1491.51,-237.637 1492.15,-244.608"/>
</g>
<!-- Node3 -->
<g id="node3" class="node"><title>Node3</title>
<polygon fill="none" stroke="#bfbfbf" points="413.608,-0.5 413.608,-19.5 457.608,-19.5 457.608,-0.5 413.608,-0.5"/>
<text text-anchor="middle" x="435.608" y="-7.5" font-family="Helvetica,sans-Serif" font-size="10.00">string</text>
</g>
<!-- Node2&#45;&gt;Node3 -->
<g id="edge2" class="edge"><title>Node2&#45;&gt;Node3</title>
<path fill="none" stroke="midnightblue" d="M338.337,-224.324C338.205,-211.607 338.969,-187.321 345.608,-168 361.239,-122.51 379.032,-117.927 402.608,-76 411.418,-60.3319 420.61,-42.0416 427.048,-28.8615"/>
<polygon fill="midnightblue" stroke="midnightblue" points="430.356,-30.0607 431.561,-19.5347 424.055,-27.0117 430.356,-30.0607"/>
</g>
<!-- Node4 -->
<g id="node4" class="node"><title>Node4</title>
<g id="a_node4"><a xlink:href="Output_8hpp.html" target="_top" xlink:title="Output.hpp">
<polygon fill="none" stroke="black" points="355.108,-168.5 355.108,-187.5 426.108,-187.5 426.108,-168.5 355.108,-168.5"/>
<text text-anchor="middle" x="390.608" y="-175.5" font-family="Helvetica,sans-Serif" font-size="10.00">Output.hpp</text>
</a>
</g>
</g>
<!-- Node2&#45;&gt;Node4 -->
<g id="edge3" class="edge"><title>Node2&#45;&gt;Node4</title>
<path fill="none" stroke="midnightblue" d="M347.195,-224.083C354.767,-216.22 365.986,-204.569 375.122,-195.081"/>
<polygon fill="midnightblue" stroke="midnightblue" points="377.765,-197.382 382.181,-187.751 372.723,-192.527 377.765,-197.382"/>
</g>
<!-- Node5 -->
<g id="node5" class="node"><title>Node5</title>
<g id="a_node5"><a xlink:href="IIO_8hpp.html" target="_top" xlink:title="IIO.hpp">
<polygon fill="none" stroke="black" points="499.108,-112.5 499.108,-131.5 548.108,-131.5 548.108,-112.5 499.108,-112.5"/>
<text text-anchor="middle" x="523.608" y="-119.5" font-family="Helvetica,sans-Serif" font-size="10.00">IIO.hpp</text>
</a>
</g>
</g>
<!-- Node4&#45;&gt;Node5 -->
<g id="edge4" class="edge"><title>Node4&#45;&gt;Node5</title>
<path fill="none" stroke="midnightblue" d="M411.682,-168.444C433.668,-159.517 468.342,-145.439 493.272,-135.317"/>
<polygon fill="midnightblue" stroke="midnightblue" points="494.683,-138.521 502.632,-131.516 492.05,-132.035 494.683,-138.521"/>
</g>
<!-- Node6 -->
<g id="node6" class="node"><title>Node6</title>
<g id="a_node6"><a xlink:href="IComponent_8hpp.html" target="_top" xlink:title="IComponent.hpp">
<polygon fill="none" stroke="black" points="804.608,-56.5 804.608,-75.5 900.608,-75.5 900.608,-56.5 804.608,-56.5"/>
<text text-anchor="middle" x="852.608" y="-63.5" font-family="Helvetica,sans-Serif" font-size="10.00">IComponent.hpp</text>
</a>
</g>
</g>
<!-- Node5&#45;&gt;Node6 -->
<g id="edge5" class="edge"><title>Node5&#45;&gt;Node6</title>
<path fill="none" stroke="midnightblue" d="M548.498,-116.203C555.925,-114.807 564.09,-113.307 571.608,-112 648.638,-98.613 737.81,-84.5812 794.678,-75.8172"/>
<polygon fill="midnightblue" stroke="midnightblue" points="795.211,-79.2765 804.562,-74.2968 794.147,-72.3578 795.211,-79.2765"/>
</g>
<!-- Node7 -->
<g id="node7" class="node"><title>Node7</title>
<polygon fill="none" stroke="#bfbfbf" points="1212.11,-0.5 1212.11,-19.5 1275.11,-19.5 1275.11,-0.5 1212.11,-0.5"/>
<text text-anchor="middle" x="1243.61" y="-7.5" font-family="Helvetica,sans-Serif" font-size="10.00">typeindex</text>
</g>
<!-- Node6&#45;&gt;Node7 -->
<g id="edge6" class="edge"><title>Node6&#45;&gt;Node7</title>
<path fill="none" stroke="midnightblue" d="M900.944,-58.3244C978.355,-47.6334 1128.83,-26.8515 1201.85,-16.7667"/>
<polygon fill="midnightblue" stroke="midnightblue" points="1202.62,-20.1941 1212.05,-15.3588 1201.66,-13.2599 1202.62,-20.1941"/>
</g>
<!-- Node9 -->
<g id="node9" class="node"><title>Node9</title>
<g id="a_node9"><a xlink:href="IEntityConstructor_8hpp.html" target="_top" xlink:title="IEntityConstructor.hpp">
<polygon fill="none" stroke="black" points="157.608,-168.5 157.608,-187.5 279.608,-187.5 279.608,-168.5 157.608,-168.5"/>
<text text-anchor="middle" x="218.608" y="-175.5" font-family="Helvetica,sans-Serif" font-size="10.00">IEntityConstructor.hpp</text>
</a>
</g>
</g>
<!-- Node8&#45;&gt;Node9 -->
<g id="edge8" class="edge"><title>Node8&#45;&gt;Node9</title>
<path fill="none" stroke="midnightblue" d="M226.956,-224.083C225.631,-216.927 223.725,-206.635 222.069,-197.691"/>
<polygon fill="midnightblue" stroke="midnightblue" points="225.491,-196.947 220.228,-187.751 218.608,-198.221 225.491,-196.947"/>
</g>
<!-- Node9&#45;&gt;Node3 -->
<g id="edge10" class="edge"><title>Node9&#45;&gt;Node3</title>
<path fill="none" stroke="midnightblue" d="M247.757,-168.389C270.068,-160.94 300.93,-148.725 324.608,-132 366.912,-102.118 405.079,-53.7042 423.672,-28.1146"/>
<polygon fill="midnightblue" stroke="midnightblue" points="426.649,-29.9692 429.608,-19.7961 420.951,-25.9031 426.649,-29.9692"/>
</g>
<!-- Node10 -->
<g id="node10" class="node"><title>Node10</title>
<polygon fill="none" stroke="#bfbfbf" points="19.1078,-56.5 19.1078,-75.5 76.1078,-75.5 76.1078,-56.5 19.1078,-56.5"/>
<text text-anchor="middle" x="47.6078" y="-63.5" font-family="Helvetica,sans-Serif" font-size="10.00">memory</text>
</g>
<!-- Node9&#45;&gt;Node10 -->
<g id="edge9" class="edge"><title>Node9&#45;&gt;Node10</title>
<path fill="none" stroke="midnightblue" d="M157.379,-172.556C101.084,-167.045 23.5679,-155.362 4.60776,-132 -8.53436,-115.807 9.73635,-95.5503 26.3578,-81.9934"/>
<polygon fill="midnightblue" stroke="midnightblue" points="28.9226,-84.4369 34.7243,-75.5716 24.6605,-78.884 28.9226,-84.4369"/>
</g>
<!-- Node11 -->
<g id="node11" class="node"><title>Node11</title>
<g id="a_node11"><a xlink:href="Entity_8hpp.html" target="_top" xlink:title="Entity.hpp">
<polygon fill="none" stroke="black" points="94.1078,-56.5 94.1078,-75.5 157.108,-75.5 157.108,-56.5 94.1078,-56.5"/>
<text text-anchor="middle" x="125.608" y="-63.5" font-family="Helvetica,sans-Serif" font-size="10.00">Entity.hpp</text>
</a>
</g>
</g>
<!-- Node9&#45;&gt;Node11 -->
<g id="edge11" class="edge"><title>Node9&#45;&gt;Node11</title>
<path fill="none" stroke="midnightblue" d="M211.31,-168.368C195.827,-150.055 159.467,-107.049 139.441,-83.3624"/>
<polygon fill="midnightblue" stroke="midnightblue" points="142.001,-80.9682 132.871,-75.5914 136.655,-85.4877 142.001,-80.9682"/>
</g>
<!-- Node12 -->
<g id="node12" class="node"><title>Node12</title>
<g id="a_node12"><a xlink:href="IEntityManager_8hpp.html" target="_top" xlink:title="IEntityManager.hpp">
<polygon fill="none" stroke="black" points="207.608,-112.5 207.608,-131.5 315.608,-131.5 315.608,-112.5 207.608,-112.5"/>
<text text-anchor="middle" x="261.608" y="-119.5" font-family="Helvetica,sans-Serif" font-size="10.00">IEntityManager.hpp</text>
</a>
</g>
</g>
<!-- Node9&#45;&gt;Node12 -->
<g id="edge12" class="edge"><title>Node9&#45;&gt;Node12</title>
<path fill="none" stroke="midnightblue" d="M225.708,-168.083C231.845,-160.377 240.878,-149.033 248.347,-139.653"/>
<polygon fill="midnightblue" stroke="midnightblue" points="251.148,-141.754 254.639,-131.751 245.672,-137.394 251.148,-141.754"/>
</g>
<!-- Node17 -->
<g id="node17" class="node"><title>Node17</title>
<g id="a_node17"><a xlink:href="IComponentManager_8hpp.html" target="_top" xlink:title="IComponentManager.hpp">
<polygon fill="none" stroke="black" points="14.1078,-112.5 14.1078,-131.5 151.108,-131.5 151.108,-112.5 14.1078,-112.5"/>
<text text-anchor="middle" x="82.6078" y="-119.5" font-family="Helvetica,sans-Serif" font-size="10.00">IComponentManager.hpp</text>
</a>
</g>
</g>
<!-- Node9&#45;&gt;Node17 -->
<g id="edge20" class="edge"><title>Node9&#45;&gt;Node17</title>
<path fill="none" stroke="midnightblue" d="M197.058,-168.444C174.577,-159.517 139.12,-145.439 113.628,-135.317"/>
<polygon fill="midnightblue" stroke="midnightblue" points="114.642,-131.954 104.057,-131.516 112.059,-138.46 114.642,-131.954"/>
</g>
<!-- Node12&#45;&gt;Node10 -->
<g id="edge13" class="edge"><title>Node12&#45;&gt;Node10</title>
<path fill="none" stroke="midnightblue" d="M227.699,-112.444C189.129,-102.711 126.287,-86.8536 85.9605,-76.6778"/>
<polygon fill="midnightblue" stroke="midnightblue" points="86.774,-73.2734 76.2216,-74.2203 85.0613,-80.0607 86.774,-73.2734"/>
</g>
<!-- Node12&#45;&gt;Node11 -->
<g id="edge15" class="edge"><title>Node12&#45;&gt;Node11</title>
<path fill="none" stroke="midnightblue" d="M240.058,-112.444C217.577,-103.517 182.12,-89.4387 156.628,-79.3168"/>
<polygon fill="midnightblue" stroke="midnightblue" points="157.642,-75.9539 147.057,-75.5164 155.059,-82.4598 157.642,-75.9539"/>
</g>
<!-- Node13 -->
<g id="node13" class="node"><title>Node13</title>
<polygon fill="none" stroke="#bfbfbf" points="175.108,-56.5 175.108,-75.5 222.108,-75.5 222.108,-56.5 175.108,-56.5"/>
<text text-anchor="middle" x="198.608" y="-63.5" font-family="Helvetica,sans-Serif" font-size="10.00">vector</text>
</g>
<!-- Node12&#45;&gt;Node13 -->
<g id="edge14" class="edge"><title>Node12&#45;&gt;Node13</title>
<path fill="none" stroke="midnightblue" d="M251.486,-112.324C242.081,-104.263 227.864,-92.0765 216.539,-82.3695"/>
<polygon fill="midnightblue" stroke="midnightblue" points="218.784,-79.6844 208.914,-75.8339 214.229,-84.9993 218.784,-79.6844"/>
</g>
<!-- Node14 -->
<g id="node14" class="node"><title>Node14</title>
<g id="a_node14"><a xlink:href="PacketManager_8hpp.html" target="_top" xlink:title="PacketManager.hpp">
<polygon fill="none" stroke="black" points="240.608,-56.5 240.608,-75.5 350.608,-75.5 350.608,-56.5 240.608,-56.5"/>
<text text-anchor="middle" x="295.608" y="-63.5" font-family="Helvetica,sans-Serif" font-size="10.00">PacketManager.hpp</text>
</a>
</g>
</g>
<!-- Node12&#45;&gt;Node14 -->
<g id="edge16" class="edge"><title>Node12&#45;&gt;Node14</title>
<path fill="none" stroke="midnightblue" d="M267.222,-112.083C271.975,-104.534 278.926,-93.4948 284.759,-84.2298"/>
<polygon fill="midnightblue" stroke="midnightblue" points="287.731,-86.0783 290.098,-75.7511 281.808,-82.3486 287.731,-86.0783"/>
</g>
<!-- Node14&#45;&gt;Node3 -->
<g id="edge17" class="edge"><title>Node14&#45;&gt;Node3</title>
<path fill="none" stroke="midnightblue" d="M317.791,-56.4435C341.036,-47.4776 377.757,-33.314 404.023,-23.1827"/>
<polygon fill="midnightblue" stroke="midnightblue" points="405.458,-26.3807 413.528,-19.5164 402.939,-19.8497 405.458,-26.3807"/>
</g>
<!-- Node15 -->
<g id="node15" class="node"><title>Node15</title>
<polygon fill="none" stroke="#bfbfbf" points="128.608,-0.5 128.608,-19.5 158.608,-19.5 158.608,-0.5 128.608,-0.5"/>
<text text-anchor="middle" x="143.608" y="-7.5" font-family="Helvetica,sans-Serif" font-size="10.00">list</text>
</g>
<!-- Node14&#45;&gt;Node15 -->
<g id="edge18" class="edge"><title>Node14&#45;&gt;Node15</title>
<path fill="none" stroke="midnightblue" d="M271.523,-56.4435C243.341,-46.4316 196.916,-29.9386 168.424,-19.8161"/>
<polygon fill="midnightblue" stroke="midnightblue" points="169.399,-16.4485 158.805,-16.3989 167.056,-23.0446 169.399,-16.4485"/>
</g>
<!-- Node16 -->
<g id="node16" class="node"><title>Node16</title>
<g id="a_node16"><a xlink:href="Input_8hpp.html" target="_top" xlink:title="Render/Input.hpp">
<polygon fill="none" stroke="black" points="812.608,-0.5 812.608,-19.5 910.608,-19.5 910.608,-0.5 812.608,-0.5"/>
<text text-anchor="middle" x="861.608" y="-7.5" font-family="Helvetica,sans-Serif" font-size="10.00">Render/Input.hpp</text>
</a>
</g>
</g>
<!-- Node14&#45;&gt;Node16 -->
<g id="edge19" class="edge"><title>Node14&#45;&gt;Node16</title>
<path fill="none" stroke="midnightblue" d="M350.65,-59.7486C457.49,-49.5554 692.125,-27.1697 802.283,-16.6599"/>
<polygon fill="midnightblue" stroke="midnightblue" points="802.924,-20.1148 812.547,-15.6807 802.259,-13.1464 802.924,-20.1148"/>
</g>
<!-- Node17&#45;&gt;Node6 -->
<g id="edge23" class="edge"><title>Node17&#45;&gt;Node6</title>
<path fill="none" stroke="midnightblue" d="M151.299,-115.571C166.854,-114.369 183.297,-113.121 198.608,-112 418.473,-95.9069 680.045,-78.404 794.331,-70.8385"/>
<polygon fill="midnightblue" stroke="midnightblue" points="794.851,-74.3118 804.598,-70.1593 794.389,-67.3271 794.851,-74.3118"/>
</g>
<!-- Node17&#45;&gt;Node10 -->
<g id="edge22" class="edge"><title>Node17&#45;&gt;Node10</title>
<path fill="none" stroke="midnightblue" d="M76.8282,-112.083C71.9354,-104.534 64.7803,-93.4948 58.7752,-84.2298"/>
<polygon fill="midnightblue" stroke="midnightblue" points="61.6558,-82.239 53.2798,-75.7511 55.7817,-86.0463 61.6558,-82.239"/>
</g>
<!-- Node17&#45;&gt;Node11 -->
<g id="edge24" class="edge"><title>Node17&#45;&gt;Node11</title>
<path fill="none" stroke="midnightblue" d="M89.7083,-112.083C95.8448,-104.377 104.878,-93.0333 112.347,-83.6531"/>
<polygon fill="midnightblue" stroke="midnightblue" points="115.148,-85.7542 118.639,-75.7511 109.672,-81.3936 115.148,-85.7542"/>
</g>
<!-- Node17&#45;&gt;Node15 -->
<g id="edge21" class="edge"><title>Node17&#45;&gt;Node15</title>
<path fill="none" stroke="midnightblue" d="M59.158,-112.449C31.8319,-101.14 -7.53111,-79.8351 9.60776,-56 34.3424,-21.6015 86.6592,-13.133 118.106,-11.265"/>
<polygon fill="midnightblue" stroke="midnightblue" points="118.432,-14.7547 128.28,-10.8479 118.145,-7.76062 118.432,-14.7547"/>
</g>
<!-- Node19 -->
<g id="node19" class="node"><title>Node19</title>
<g id="a_node19"><a xlink:href="IPhysics_8hpp.html" target="_top" xlink:title="IPhysics.hpp">
<polygon fill="none" stroke="black" points="581.108,-112.5 581.108,-131.5 656.108,-131.5 656.108,-112.5 581.108,-112.5"/>
<text text-anchor="middle" x="618.608" y="-119.5" font-family="Helvetica,sans-Serif" font-size="10.00">IPhysics.hpp</text>
</a>
</g>
</g>
<!-- Node18&#45;&gt;Node19 -->
<g id="edge26" class="edge"><title>Node18&#45;&gt;Node19</title>
<path fill="none" stroke="midnightblue" d="M694.754,-224.447C678.369,-217.03 656.47,-204.828 642.608,-188 631.624,-174.666 625.411,-155.837 622.072,-141.875"/>
<polygon fill="midnightblue" stroke="midnightblue" points="625.461,-140.982 619.975,-131.918 618.611,-142.425 625.461,-140.982"/>
</g>
<!-- Node19&#45;&gt;Node6 -->
<g id="edge27" class="edge"><title>Node19&#45;&gt;Node6</title>
<path fill="none" stroke="midnightblue" d="M655.686,-112.444C696.335,-103.063 761.64,-87.9926 805.792,-77.8036"/>
<polygon fill="midnightblue" stroke="midnightblue" points="806.746,-81.1755 815.703,-75.5164 805.172,-74.3547 806.746,-81.1755"/>
</g>
<!-- Node20&#45;&gt;Node19 -->
<g id="edge30" class="edge"><title>Node20&#45;&gt;Node19</title>
<path fill="none" stroke="midnightblue" d="M803.602,-224.427C759.815,-215.532 696.871,-201.115 675.608,-188 656.117,-175.978 639.611,-155.197 629.457,-140.368"/>
<polygon fill="midnightblue" stroke="midnightblue" points="632.142,-138.08 623.733,-131.635 626.287,-141.917 632.142,-138.08"/>
</g>
<!-- Node21 -->
<g id="node21" class="node"><title>Node21</title>
<polygon fill="none" stroke="#bfbfbf" points="684.608,-168.5 684.608,-187.5 726.608,-187.5 726.608,-168.5 684.608,-168.5"/>
<text text-anchor="middle" x="705.608" y="-175.5" font-family="Helvetica,sans-Serif" font-size="10.00">utility</text>
</g>
<!-- Node20&#45;&gt;Node21 -->
<g id="edge29" class="edge"><title>Node20&#45;&gt;Node21</title>
<path fill="none" stroke="midnightblue" d="M825.949,-224.444C801.787,-215.319 763.371,-200.813 736.459,-190.65"/>
<polygon fill="midnightblue" stroke="midnightblue" points="737.354,-187.247 726.762,-186.988 734.881,-193.795 737.354,-187.247"/>
</g>
<!-- Node23 -->
<g id="node23" class="node"><title>Node23</title>
<g id="a_node23"><a xlink:href="Motion_8hpp.html" target="_top" xlink:title="Motion.hpp">
<polygon fill="none" stroke="black" points="520.608,-168.5 520.608,-187.5 590.608,-187.5 590.608,-168.5 520.608,-168.5"/>
<text text-anchor="middle" x="555.608" y="-175.5" font-family="Helvetica,sans-Serif" font-size="10.00">Motion.hpp</text>
</a>
</g>
</g>
<!-- Node22&#45;&gt;Node23 -->
<g id="edge32" class="edge"><title>Node22&#45;&gt;Node23</title>
<path fill="none" stroke="midnightblue" d="M580.654,-224.083C576.504,-216.613 570.455,-205.724 565.341,-196.52"/>
<polygon fill="midnightblue" stroke="midnightblue" points="568.386,-194.793 560.469,-187.751 562.266,-198.192 568.386,-194.793"/>
</g>
<!-- Node23&#45;&gt;Node19 -->
<g id="edge33" class="edge"><title>Node23&#45;&gt;Node19</title>
<path fill="none" stroke="midnightblue" d="M565.73,-168.324C575.134,-160.263 589.352,-148.077 600.677,-138.369"/>
<polygon fill="midnightblue" stroke="midnightblue" points="602.987,-140.999 608.302,-131.834 598.431,-135.684 602.987,-140.999"/>
</g>
<!-- Node24&#45;&gt;Node3 -->
<g id="edge35" class="edge"><title>Node24&#45;&gt;Node3</title>
<path fill="none" stroke="midnightblue" d="M453.863,-224.297C451.067,-191.633 441.159,-75.8661 437.23,-29.9573"/>
<polygon fill="midnightblue" stroke="midnightblue" points="440.708,-29.5488 436.368,-19.8837 433.734,-30.1458 440.708,-29.5488"/>
</g>
<!-- Node24&#45;&gt;Node19 -->
<g id="edge37" class="edge"><title>Node24&#45;&gt;Node19</title>
<path fill="none" stroke="midnightblue" d="M460.281,-224.299C469.559,-210.662 489.203,-184.147 511.608,-168 531.931,-153.353 557.748,-142.319 578.93,-134.844"/>
<polygon fill="midnightblue" stroke="midnightblue" points="580.261,-138.089 588.605,-131.56 578.011,-131.46 580.261,-138.089"/>
</g>
<!-- Node25 -->
<g id="node25" class="node"><title>Node25</title>
<polygon fill="none" stroke="#bfbfbf" points="744.608,-168.5 744.608,-187.5 782.608,-187.5 782.608,-168.5 744.608,-168.5"/>
<text text-anchor="middle" x="763.608" y="-175.5" font-family="Helvetica,sans-Serif" font-size="10.00">map</text>
</g>
<!-- Node24&#45;&gt;Node25 -->
<g id="edge36" class="edge"><title>Node24&#45;&gt;Node25</title>
<path fill="none" stroke="midnightblue" d="M512.169,-224.839C577.436,-215.411 680.803,-199.912 734.664,-187.869"/>
<polygon fill="midnightblue" stroke="midnightblue" points="735.495,-191.269 744.437,-185.586 733.903,-184.453 735.495,-191.269"/>
</g>
<!-- Node26&#45;&gt;Node3 -->
<g id="edge39" class="edge"><title>Node26&#45;&gt;Node3</title>
<path fill="none" stroke="midnightblue" d="M1066.33,-224.428C1039.88,-217.973 1008.59,-206.868 985.608,-188 933.283,-145.049 966.545,-92.6176 909.608,-56 872.546,-32.1647 568.375,-16.8159 467.774,-12.3525"/>
<polygon fill="midnightblue" stroke="midnightblue" points="467.755,-8.84843 457.611,-11.9081 467.449,-15.8417 467.755,-8.84843"/>
</g>
<!-- Node26&#45;&gt;Node7 -->
<g id="edge40" class="edge"><title>Node26&#45;&gt;Node7</title>
<path fill="none" stroke="midnightblue" d="M1123.51,-224.297C1142.06,-191.356 1208.19,-73.898 1233.58,-28.8052"/>
<polygon fill="midnightblue" stroke="midnightblue" points="1236.75,-30.3147 1238.61,-19.8837 1230.65,-26.8802 1236.75,-30.3147"/>
</g>
<!-- Node26&#45;&gt;Node27 -->
<g id="edge41" class="edge"><title>Node26&#45;&gt;Node27</title>
<path fill="none" stroke="midnightblue" d="M1135.16,-224.324C1151.6,-215.703 1177.04,-202.364 1196.08,-192.386"/>
<polygon fill="midnightblue" stroke="midnightblue" points="1197.87,-195.398 1205.1,-187.655 1194.62,-189.198 1197.87,-195.398"/>
</g>
<!-- Node28 -->
<g id="node28" class="node"><title>Node28</title>
<g id="a_node28"><a xlink:href="IDisplay_8hpp.html" target="_top" xlink:title="IDisplay.hpp">
<polygon fill="none" stroke="black" points="1069.11,-112.5 1069.11,-131.5 1142.11,-131.5 1142.11,-112.5 1069.11,-112.5"/>
<text text-anchor="middle" x="1105.61" y="-119.5" font-family="Helvetica,sans-Serif" font-size="10.00">IDisplay.hpp</text>
</a>
</g>
</g>
<!-- Node26&#45;&gt;Node28 -->
<g id="edge42" class="edge"><title>Node26&#45;&gt;Node28</title>
<path fill="none" stroke="midnightblue" d="M1117.59,-224.368C1115.49,-206.617 1110.65,-165.666 1107.81,-141.597"/>
<polygon fill="midnightblue" stroke="midnightblue" points="1111.27,-141.112 1106.62,-131.591 1104.32,-141.933 1111.27,-141.112"/>
</g>
<!-- Node28&#45;&gt;Node6 -->
<g id="edge44" class="edge"><title>Node28&#45;&gt;Node6</title>
<path fill="none" stroke="midnightblue" d="M1069.09,-113.206C1025.27,-103.853 951.582,-88.1249 902.528,-77.6549"/>
<polygon fill="midnightblue" stroke="midnightblue" points="902.964,-74.1692 892.454,-75.5047 901.503,-81.015 902.964,-74.1692"/>
</g>
<!-- Node28&#45;&gt;Node7 -->
<g id="edge43" class="edge"><title>Node28&#45;&gt;Node7</title>
<path fill="none" stroke="midnightblue" d="M1110.62,-112.461C1118.82,-99.0453 1136.28,-72.8287 1156.61,-56 1173.08,-42.3683 1194.35,-31.2728 1211.74,-23.51"/>
<polygon fill="midnightblue" stroke="midnightblue" points="1213.15,-26.7155 1220.95,-19.5453 1210.38,-20.2864 1213.15,-26.7155"/>
</g>
<!-- Node29&#45;&gt;Node7 -->
<g id="edge46" class="edge"><title>Node29&#45;&gt;Node7</title>
<path fill="none" stroke="midnightblue" d="M1286.38,-224.116C1285.95,-211.55 1284.76,-187.898 1281.61,-168 1273.55,-117.159 1257.51,-58.5127 1249.08,-29.3902"/>
<polygon fill="midnightblue" stroke="midnightblue" points="1252.43,-28.3625 1246.25,-19.7521 1245.71,-30.333 1252.43,-28.3625"/>
</g>
<!-- Node29&#45;&gt;Node27 -->
<g id="edge54" class="edge"><title>Node29&#45;&gt;Node27</title>
<path fill="none" stroke="midnightblue" d="M1276.16,-224.324C1266.46,-216.263 1251.79,-204.077 1240.11,-194.369"/>
<polygon fill="midnightblue" stroke="midnightblue" points="1242.17,-191.532 1232.24,-187.834 1237.7,-196.916 1242.17,-191.532"/>
</g>
<!-- Node29&#45;&gt;Node28 -->
<g id="edge47" class="edge"><title>Node29&#45;&gt;Node28</title>
<path fill="none" stroke="midnightblue" d="M1285.45,-224.48C1283.12,-210.608 1276.53,-183.169 1259.61,-168 1230.09,-141.551 1185.82,-130.601 1152.3,-126.093"/>
<polygon fill="midnightblue" stroke="midnightblue" points="1152.62,-122.606 1142.28,-124.89 1151.79,-129.556 1152.62,-122.606"/>
</g>
<!-- Node30 -->
<g id="node30" class="node"><title>Node30</title>
<g id="a_node30"><a xlink:href="Timer_8hpp.html" target="_top" xlink:title="Timer.hpp">
<polygon fill="none" stroke="black" points="1526.61,-168.5 1526.61,-187.5 1590.61,-187.5 1590.61,-168.5 1526.61,-168.5"/>
<text text-anchor="middle" x="1558.61" y="-175.5" font-family="Helvetica,sans-Serif" font-size="10.00">Timer.hpp</text>
</a>
</g>
</g>
<!-- Node29&#45;&gt;Node30 -->
<g id="edge48" class="edge"><title>Node29&#45;&gt;Node30</title>
<path fill="none" stroke="midnightblue" d="M1329.71,-224.444C1380.86,-214.288 1465.6,-197.465 1516.37,-187.385"/>
<polygon fill="midnightblue" stroke="midnightblue" points="1517.23,-190.783 1526.36,-185.403 1515.87,-183.917 1517.23,-190.783"/>
</g>
<!-- Node30&#45;&gt;Node7 -->
<g id="edge50" class="edge"><title>Node30&#45;&gt;Node7</title>
<path fill="none" stroke="midnightblue" d="M1560.65,-168.388C1563.32,-154.873 1566.28,-128.522 1553.61,-112 1489.37,-28.2782 1354.29,-12.9319 1285.62,-10.774"/>
<polygon fill="midnightblue" stroke="midnightblue" points="1285.66,-7.27419 1275.58,-10.5384 1285.5,-14.2723 1285.66,-7.27419"/>
</g>
<!-- Node31 -->
<g id="node31" class="node"><title>Node31</title>
<polygon fill="none" stroke="#bfbfbf" points="1494.61,-112.5 1494.61,-131.5 1544.61,-131.5 1544.61,-112.5 1494.61,-112.5"/>
<text text-anchor="middle" x="1519.61" y="-119.5" font-family="Helvetica,sans-Serif" font-size="10.00">chrono</text>
</g>
<!-- Node30&#45;&gt;Node31 -->
<g id="edge49" class="edge"><title>Node30&#45;&gt;Node31</title>
<path fill="none" stroke="midnightblue" d="M1552.17,-168.083C1546.66,-160.455 1538.58,-149.264 1531.84,-139.941"/>
<polygon fill="midnightblue" stroke="midnightblue" points="1534.62,-137.809 1525.93,-131.751 1528.95,-141.907 1534.62,-137.809"/>
</g>
<!-- Node32 -->
<g id="node32" class="node"><title>Node32</title>
<g id="a_node32"><a xlink:href="IGameLogic_8hpp.html" target="_top" xlink:title="IGameLogic.hpp">
<polygon fill="none" stroke="black" points="1382.61,-112.5 1382.61,-131.5 1476.61,-131.5 1476.61,-112.5 1382.61,-112.5"/>
<text text-anchor="middle" x="1429.61" y="-119.5" font-family="Helvetica,sans-Serif" font-size="10.00">IGameLogic.hpp</text>
</a>
</g>
</g>
<!-- Node30&#45;&gt;Node32 -->
<g id="edge51" class="edge"><title>Node30&#45;&gt;Node32</title>
<path fill="none" stroke="midnightblue" d="M1538.17,-168.444C1516.94,-159.557 1483.51,-145.563 1459.35,-135.451"/>
<polygon fill="midnightblue" stroke="midnightblue" points="1460.53,-132.149 1449.95,-131.516 1457.83,-138.606 1460.53,-132.149"/>
</g>
<!-- Node32&#45;&gt;Node6 -->
<g id="edge53" class="edge"><title>Node32&#45;&gt;Node6</title>
<path fill="none" stroke="midnightblue" d="M1382.39,-116.581C1277.49,-106.764 1025.32,-83.1635 910.864,-72.4521"/>
<polygon fill="midnightblue" stroke="midnightblue" points="911.168,-68.9653 900.885,-71.5182 910.516,-75.9348 911.168,-68.9653"/>
</g>
<!-- Node32&#45;&gt;Node7 -->
<g id="edge52" class="edge"><title>Node32&#45;&gt;Node7</title>
<path fill="none" stroke="midnightblue" d="M1423.49,-112.178C1413.51,-98.375 1392.41,-71.6372 1368.61,-56 1343.08,-39.2274 1310.52,-27.7662 1285.03,-20.6092"/>
<polygon fill="midnightblue" stroke="midnightblue" points="1285.85,-17.2059 1275.28,-17.9843 1284.03,-23.9649 1285.85,-17.2059"/>
</g>
<!-- Node33&#45;&gt;Node3 -->
<g id="edge57" class="edge"><title>Node33&#45;&gt;Node3</title>
<path fill="none" stroke="midnightblue" d="M938.393,-224.464C909.434,-216.383 865.987,-203.24 829.608,-188 812.005,-180.626 808.794,-176.3 791.608,-168 672.624,-110.537 527.62,-49.2242 465.829,-23.495"/>
<polygon fill="midnightblue" stroke="midnightblue" points="466.88,-20.1413 456.302,-19.5356 464.193,-26.6053 466.88,-20.1413"/>
</g>
<!-- Node33&#45;&gt;Node7 -->
<g id="edge56" class="edge"><title>Node33&#45;&gt;Node7</title>
<path fill="none" stroke="midnightblue" d="M971.195,-224.079C972.367,-211.056 975.797,-186.394 985.608,-168 1017.72,-107.796 1032.5,-91.7714 1090.61,-56 1124.97,-34.8467 1169.79,-23.1944 1202.02,-17.0808"/>
<polygon fill="midnightblue" stroke="midnightblue" points="1202.8,-20.4983 1212.02,-15.2855 1201.56,-13.6085 1202.8,-20.4983"/>
</g>
<!-- Node34 -->
<g id="node34" class="node"><title>Node34</title>
<g id="a_node34"><a xlink:href="Color_8hpp.html" target="_top" xlink:title="Color.hpp">
<polygon fill="none" stroke="black" points="838.608,-168.5 838.608,-187.5 900.608,-187.5 900.608,-168.5 838.608,-168.5"/>
<text text-anchor="middle" x="869.608" y="-175.5" font-family="Helvetica,sans-Serif" font-size="10.00">Color.hpp</text>
</a>
</g>
</g>
<!-- Node33&#45;&gt;Node34 -->
<g id="edge58" class="edge"><title>Node33&#45;&gt;Node34</title>
<path fill="none" stroke="midnightblue" d="M954.38,-224.324C938.257,-215.703 913.308,-202.364 894.644,-192.386"/>
<polygon fill="midnightblue" stroke="midnightblue" points="896.264,-189.283 885.795,-187.655 892.963,-195.456 896.264,-189.283"/>
</g>
<!-- Node35 -->
<g id="node35" class="node"><title>Node35</title>
<g id="a_node35"><a xlink:href="IUserInterface_8hpp.html" target="_top" xlink:title="IUserInterface.hpp">
<polygon fill="none" stroke="black" points="994.608,-168.5 994.608,-187.5 1098.61,-187.5 1098.61,-168.5 994.608,-168.5"/>
<text text-anchor="middle" x="1046.61" y="-175.5" font-family="Helvetica,sans-Serif" font-size="10.00">IUserInterface.hpp</text>
</a>
</g>
</g>
<!-- Node33&#45;&gt;Node35 -->
<g id="edge59" class="edge"><title>Node33&#45;&gt;Node35</title>
<path fill="none" stroke="midnightblue" d="M982.818,-224.324C994.384,-216.107 1011.98,-203.602 1025.77,-193.807"/>
<polygon fill="midnightblue" stroke="midnightblue" points="1028.05,-196.479 1034.17,-187.834 1024,-190.773 1028.05,-196.479"/>
</g>
<!-- Node35&#45;&gt;Node7 -->
<g id="edge60" class="edge"><title>Node35&#45;&gt;Node7</title>
<path fill="none" stroke="midnightblue" d="M1046.45,-168.294C1046.6,-155.111 1048.48,-129.744 1059.61,-112 1091.49,-61.1642 1158.49,-33.9378 1202.24,-20.9816"/>
<polygon fill="midnightblue" stroke="midnightblue" points="1203.34,-24.3058 1212.01,-18.2093 1201.43,-17.5716 1203.34,-24.3058"/>
</g>
<!-- Node35&#45;&gt;Node28 -->
<g id="edge61" class="edge"><title>Node35&#45;&gt;Node28</title>
<path fill="none" stroke="midnightblue" d="M1056.09,-168.324C1064.81,-160.341 1077.95,-148.313 1088.51,-138.653"/>
<polygon fill="midnightblue" stroke="midnightblue" points="1090.94,-141.167 1095.96,-131.834 1086.22,-136.004 1090.94,-141.167"/>
</g>
<!-- Node36&#45;&gt;Node7 -->
<g id="edge63" class="edge"><title>Node36&#45;&gt;Node7</title>
<path fill="none" stroke="midnightblue" d="M1400.48,-168.287C1393.34,-159.4 1382.21,-145.096 1373.61,-132 1352.31,-99.5579 1358.56,-82.9225 1330.61,-56 1315.86,-41.7999 1295.75,-31.0044 1278.58,-23.5514"/>
<polygon fill="midnightblue" stroke="midnightblue" points="1279.45,-20.1243 1268.87,-19.5489 1276.78,-26.596 1279.45,-20.1243"/>
</g>
<!-- Node36&#45;&gt;Node32 -->
<g id="edge64" class="edge"><title>Node36&#45;&gt;Node32</title>
<path fill="none" stroke="midnightblue" d="M1411.24,-168.083C1414.22,-160.77 1418.53,-150.181 1422.23,-141.103"/>
<polygon fill="midnightblue" stroke="midnightblue" points="1425.51,-142.333 1426.04,-131.751 1419.03,-139.691 1425.51,-142.333"/>
</g>
<!-- Node37&#45;&gt;Node7 -->
<g id="edge66" class="edge"><title>Node37&#45;&gt;Node7</title>
<path fill="none" stroke="midnightblue" d="M1615.16,-231.401C1675.02,-227.338 1757.32,-213.593 1729.61,-168 1673.43,-75.5968 1616.2,-90.1962 1513.61,-56 1435.42,-29.9364 1339.25,-18.5338 1285.35,-13.8898"/>
<polygon fill="midnightblue" stroke="midnightblue" points="1285.4,-10.3826 1275.15,-13.0488 1284.83,-17.3589 1285.4,-10.3826"/>
</g>
<!-- Node37&#45;&gt;Node16 -->
<g id="edge70" class="edge"><title>Node37&#45;&gt;Node16</title>
<path fill="none" stroke="midnightblue" d="M1570.15,-224.49C1580.09,-216.379 1593.73,-203.178 1599.61,-188 1613.87,-151.181 1587.99,-131.413 1553.61,-112 1445.46,-50.9332 1068.2,-22.9656 921.037,-14.1954"/>
<polygon fill="midnightblue" stroke="midnightblue" points="921.034,-10.6893 910.846,-13.597 920.624,-17.6773 921.034,-10.6893"/>
</g>
<!-- Node37&#45;&gt;Node25 -->
<g id="edge69" class="edge"><title>Node37&#45;&gt;Node25</title>
<path fill="none" stroke="midnightblue" d="M1501.99,-230.049C1354.33,-222.264 959.897,-200.887 829.608,-188 817.449,-186.797 804.084,-185.054 792.58,-183.422"/>
<polygon fill="midnightblue" stroke="midnightblue" points="793.026,-179.95 782.626,-181.973 792.017,-186.877 793.026,-179.95"/>
</g>
<!-- Node37&#45;&gt;Node30 -->
<g id="edge68" class="edge"><title>Node37&#45;&gt;Node30</title>
<path fill="none" stroke="midnightblue" d="M1558.61,-224.083C1558.61,-217.006 1558.61,-206.861 1558.61,-197.986"/>
<polygon fill="midnightblue" stroke="midnightblue" points="1562.11,-197.751 1558.61,-187.751 1555.11,-197.751 1562.11,-197.751"/>
</g>
<!-- Node37&#45;&gt;Node32 -->
<g id="edge67" class="edge"><title>Node37&#45;&gt;Node32</title>
<path fill="none" stroke="midnightblue" d="M1548.49,-224.368C1526.63,-205.733 1474.8,-161.532 1447.36,-138.134"/>
<polygon fill="midnightblue" stroke="midnightblue" points="1449.56,-135.417 1439.68,-131.591 1445.02,-140.743 1449.56,-135.417"/>
</g>
<!-- Node38 -->
<g id="node38" class="node"><title>Node38</title>
<g id="a_node38"><a xlink:href="Actions_8hpp.html" target="_top" xlink:title="Actions.hpp">
<polygon fill="none" stroke="black" points="1647.11,-168.5 1647.11,-187.5 1720.11,-187.5 1720.11,-168.5 1647.11,-168.5"/>
<text text-anchor="middle" x="1683.61" y="-175.5" font-family="Helvetica,sans-Serif" font-size="10.00">Actions.hpp</text>
</a>
</g>
</g>
<!-- Node37&#45;&gt;Node38 -->
<g id="edge71" class="edge"><title>Node37&#45;&gt;Node38</title>
<path fill="none" stroke="midnightblue" d="M1578.41,-224.444C1598.89,-215.596 1631.09,-201.687 1654.47,-191.586"/>
<polygon fill="midnightblue" stroke="midnightblue" points="1656.1,-194.695 1663.89,-187.516 1653.33,-188.269 1656.1,-194.695"/>
</g>
</g>
</svg>
        <g id="navigator" transform="translate(0 0)" fill="#404254">
                <rect fill="#f2f5e9" fill-opacity="0.5" stroke="#606060" stroke-width=".5" x="0" y="0" width="60" height="60"/>
                <use id="zoomplus" xlink:href="#zoomPlus" x="17" y="9" onmousedown="handleZoom(evt,'in')"/>
                <use id="zoomminus" xlink:href="#zoomMin" x="42" y="9" onmousedown="handleZoom(evt,'out')"/>
                <use id="reset" xlink:href="#resetDef" x="30" y="36" onmousedown="handleReset()"/>
                <g id="arrowUp" xlink:href="#dirArrow" transform="translate(30 24)" onmousedown="handlePan(0,-1)">
                  <use xlink:href="#rim" fill="#404040">
                        <set attributeName="fill" to="#808080" begin="arrowUp.mouseover" end="arrowUp.mouseout"/>
                  </use>
                  <path fill="none" stroke="white" stroke-width="1.5" d="M0,-3.0v7 M-2.5,-0.5L0,-3.0L2.5,-0.5"/>
                </g>
                <g id="arrowRight" xlink:href="#dirArrow" transform="rotate(90) translate(36 -43)" onmousedown="handlePan(1,0)">
                  <use xlink:href="#rim" fill="#404040">
                        <set attributeName="fill" to="#808080" begin="arrowRight.mouseover" end="arrowRight.mouseout"/>
                  </use>
                  <path fill="none" stroke="white" stroke-width="1.5" d="M0,-3.0v7 M-2.5,-0.5L0,-3.0L2.5,-0.5"/>
                </g>
                <g id="arrowDown" xlink:href="#dirArrow" transform="rotate(180) translate(-30 -48)" onmousedown="handlePan(0,1)">
                  <use xlink:href="#rim" fill="#404040">
                        <set attributeName="fill" to="#808080" begin="arrowDown.mouseover" end="arrowDown.mouseout"/>
                  </use>
                  <path fill="none" stroke="white" stroke-width="1.5" d="M0,-3.0v7 M-2.5,-0.5L0,-3.0L2.5,-0.5"/>
                </g>
                <g id="arrowLeft" xlink:href="#dirArrow" transform="rotate(270) translate(-36 17)" onmousedown="handlePan(-1,0)">
                  <use xlink:href="#rim" fill="#404040">
                        <set attributeName="fill" to="#808080" begin="arrowLeft.mouseover" end="arrowLeft.mouseout"/>
                  </use>
                  <path fill="none" stroke="white" stroke-width="1.5" d="M0,-3.0v7 M-2.5,-0.5L0,-3.0L2.5,-0.5"/>
                </g>
        </g>
        <svg viewBox="0 0 15 15" width="100%" height="30px" preserveAspectRatio="xMaxYMin meet">
         <g id="arrow_out" transform="scale(0.3 0.3)">
          <a xlink:href="PlayerEntity_8cpp__incl_org.svg" target="_base">
           <rect id="button" ry="5" rx="5" y="6" x="6" height="38" width="38"
                fill="#f2f5e9" fill-opacity="0.5" stroke="#606060" stroke-width="1.0"/>
           <path id="arrow"
             d="M 11.500037,31.436501 C 11.940474,20.09759 22.043105,11.32322 32.158766,21.979434 L 37.068811,17.246167 C 37.068811,17.246167 37.088388,32 37.088388,32 L 22.160133,31.978069 C 22.160133,31.978069 26.997745,27.140456 26.997745,27.140456 C 18.528582,18.264221 13.291696,25.230495 11.500037,31.436501 z"
             style="fill:#404040;"/>
          </a>
         </g>
        </svg>
</svg>
