<?xml version="1.0" encoding="UTF-8" standalone="no"?>
<!DOCTYPE svg PUBLIC "-//W3C//DTD SVG 1.1//EN"
 "http://www.w3.org/Graphics/SVG/1.1/DTD/svg11.dtd">
<!-- Generated by graphviz version 2.38.0 (20140413.2041)
 -->
<!-- Title: src/Components/GameLogic/PlayerController.cpp Pages: 1 -->
<svg width="397pt" height="319pt"
 viewBox="0.00 0.00 397.30 319.00" xmlns="http://www.w3.org/2000/svg" xmlns:xlink="http://www.w3.org/1999/xlink">
<g id="graph0" class="graph" transform="scale(1 1) rotate(0) translate(4 315)">
<title>src/Components/GameLogic/PlayerController.cpp</title>
<!-- Node1 -->
<g id="node1" class="node"><title>Node1</title>
<polygon fill="#bfbfbf" stroke="black" points="87.7965,-280.5 87.7965,-310.5 239.796,-310.5 239.796,-280.5 87.7965,-280.5"/>
<text text-anchor="start" x="95.7965" y="-298.5" font-family="Helvetica,sans-Serif" font-size="10.00">src/Components/GameLogic</text>
<text text-anchor="middle" x="163.796" y="-287.5" font-family="Helvetica,sans-Serif" font-size="10.00">/PlayerController.cpp</text>
</g>
<!-- Node2 -->
<g id="node2" class="node"><title>Node2</title>
<g id="a_node2"><a xlink:href="PlayerController_8hpp.html" target="_top" xlink:title="PlayerController.hpp">
<polygon fill="none" stroke="black" points="107.296,-224.5 107.296,-243.5 220.296,-243.5 220.296,-224.5 107.296,-224.5"/>
<text text-anchor="middle" x="163.796" y="-231.5" font-family="Helvetica,sans-Serif" font-size="10.00">PlayerController.hpp</text>
</a>
</g>
</g>
<!-- Node1&#45;&gt;Node2 -->
<g id="edge1" class="edge"><title>Node1&#45;&gt;Node2</title>
<path fill="none" stroke="midnightblue" d="M163.796,-280.399C163.796,-272.466 163.796,-262.458 163.796,-253.858"/>
<polygon fill="midnightblue" stroke="midnightblue" points="167.297,-253.658 163.796,-243.658 160.297,-253.658 167.297,-253.658"/>
</g>
<!-- Node3 -->
<g id="node3" class="node"><title>Node3</title>
<polygon fill="none" stroke="#bfbfbf" points="0.296499,-0.5 0.296499,-19.5 63.2965,-19.5 63.2965,-0.5 0.296499,-0.5"/>
<text text-anchor="middle" x="31.7965" y="-7.5" font-family="Helvetica,sans-Serif" font-size="10.00">typeindex</text>
</g>
<!-- Node2&#45;&gt;Node3 -->
<g id="edge2" class="edge"><title>Node2&#45;&gt;Node3</title>
<path fill="none" stroke="midnightblue" d="M138.062,-224.466C102.542,-211.121 39.9228,-181.577 13.7965,-132 -2.03805,-101.953 -2.99939,-88.8057 5.7965,-56 8.45007,-46.1031 13.8658,-36.1315 19.0708,-28.099"/>
<polygon fill="midnightblue" stroke="midnightblue" points="22.0856,-29.8935 24.9062,-19.6811 16.3326,-25.9055 22.0856,-29.8935"/>
</g>
<!-- Node4 -->
<g id="node4" class="node"><title>Node4</title>
<g id="a_node4"><a xlink:href="IGameLogic_8hpp.html" target="_top" xlink:title="IGameLogic.hpp">
<polygon fill="none" stroke="black" points="22.7965,-112.5 22.7965,-131.5 116.796,-131.5 116.796,-112.5 22.7965,-112.5"/>
<text text-anchor="middle" x="69.7965" y="-119.5" font-family="Helvetica,sans-Serif" font-size="10.00">IGameLogic.hpp</text>
</a>
</g>
</g>
<!-- Node2&#45;&gt;Node4 -->
<g id="edge3" class="edge"><title>Node2&#45;&gt;Node4</title>
<path fill="none" stroke="midnightblue" d="M140.614,-224.484C123.912,-217.216 102.065,-205.189 88.7965,-188 78.4796,-174.635 73.7585,-155.81 71.6018,-141.856"/>
<polygon fill="midnightblue" stroke="midnightblue" points="75.072,-141.399 70.3639,-131.908 68.1255,-142.263 75.072,-141.399"/>
</g>
<!-- Node6 -->
<g id="node6" class="node"><title>Node6</title>
<g id="a_node6"><a xlink:href="Timer_8hpp.html" target="_top" xlink:title="Timer.hpp">
<polygon fill="none" stroke="black" points="97.7965,-168.5 97.7965,-187.5 161.796,-187.5 161.796,-168.5 97.7965,-168.5"/>
<text text-anchor="middle" x="129.796" y="-175.5" font-family="Helvetica,sans-Serif" font-size="10.00">Timer.hpp</text>
</a>
</g>
</g>
<!-- Node2&#45;&gt;Node6 -->
<g id="edge7" class="edge"><title>Node2&#45;&gt;Node6</title>
<path fill="none" stroke="midnightblue" d="M158.182,-224.083C153.429,-216.534 146.478,-205.495 140.645,-196.23"/>
<polygon fill="midnightblue" stroke="midnightblue" points="143.596,-194.349 135.306,-187.751 137.673,-198.078 143.596,-194.349"/>
</g>
<!-- Node8 -->
<g id="node8" class="node"><title>Node8</title>
<polygon fill="none" stroke="#bfbfbf" points="179.796,-168.5 179.796,-187.5 217.796,-187.5 217.796,-168.5 179.796,-168.5"/>
<text text-anchor="middle" x="198.796" y="-175.5" font-family="Helvetica,sans-Serif" font-size="10.00">map</text>
</g>
<!-- Node2&#45;&gt;Node8 -->
<g id="edge11" class="edge"><title>Node2&#45;&gt;Node8</title>
<path fill="none" stroke="midnightblue" d="M169.576,-224.083C174.469,-216.534 181.624,-205.495 187.629,-196.23"/>
<polygon fill="midnightblue" stroke="midnightblue" points="190.623,-198.046 193.125,-187.751 184.748,-194.239 190.623,-198.046"/>
</g>
<!-- Node9 -->
<g id="node9" class="node"><title>Node9</title>
<g id="a_node9"><a xlink:href="Input_8hpp.html" target="_top" xlink:title="Input.hpp">
<polygon fill="none" stroke="black" points="235.796,-168.5 235.796,-187.5 297.796,-187.5 297.796,-168.5 235.796,-168.5"/>
<text text-anchor="middle" x="266.796" y="-175.5" font-family="Helvetica,sans-Serif" font-size="10.00">Input.hpp</text>
</a>
</g>
</g>
<!-- Node2&#45;&gt;Node9 -->
<g id="edge12" class="edge"><title>Node2&#45;&gt;Node9</title>
<path fill="none" stroke="midnightblue" d="M180.345,-224.324C196.788,-215.703 222.231,-202.364 241.265,-192.386"/>
<polygon fill="midnightblue" stroke="midnightblue" points="243.057,-195.398 250.289,-187.655 239.807,-189.198 243.057,-195.398"/>
</g>
<!-- Node10 -->
<g id="node10" class="node"><title>Node10</title>
<g id="a_node10"><a xlink:href="Actions_8hpp.html" target="_top" xlink:title="Actions.hpp">
<polygon fill="none" stroke="black" points="316.296,-168.5 316.296,-187.5 389.296,-187.5 389.296,-168.5 316.296,-168.5"/>
<text text-anchor="middle" x="352.796" y="-175.5" font-family="Helvetica,sans-Serif" font-size="10.00">Actions.hpp</text>
</a>
</g>
</g>
<!-- Node2&#45;&gt;Node10 -->
<g id="edge13" class="edge"><title>Node2&#45;&gt;Node10</title>
<path fill="none" stroke="midnightblue" d="M193.744,-224.444C225.954,-215.241 277.331,-200.562 312.939,-190.388"/>
<polygon fill="midnightblue" stroke="midnightblue" points="314.335,-193.629 322.989,-187.516 312.412,-186.898 314.335,-193.629"/>
</g>
<!-- Node4&#45;&gt;Node3 -->
<g id="edge4" class="edge"><title>Node4&#45;&gt;Node3</title>
<path fill="none" stroke="midnightblue" d="M51.715,-112.39C38.2347,-104.872 20.824,-92.5651 12.7965,-76 5.37017,-60.6754 12.4298,-41.8839 19.9605,-28.4543"/>
<polygon fill="midnightblue" stroke="midnightblue" points="23.0585,-30.0986 25.3269,-19.7495 17.0998,-26.4252 23.0585,-30.0986"/>
</g>
<!-- Node5 -->
<g id="node5" class="node"><title>Node5</title>
<g id="a_node5"><a xlink:href="IComponent_8hpp.html" target="_top" xlink:title="IComponent.hpp">
<polygon fill="none" stroke="black" points="21.7965,-56.5 21.7965,-75.5 117.796,-75.5 117.796,-56.5 21.7965,-56.5"/>
<text text-anchor="middle" x="69.7965" y="-63.5" font-family="Helvetica,sans-Serif" font-size="10.00">IComponent.hpp</text>
</a>
</g>
</g>
<!-- Node4&#45;&gt;Node5 -->
<g id="edge5" class="edge"><title>Node4&#45;&gt;Node5</title>
<path fill="none" stroke="midnightblue" d="M69.7965,-112.083C69.7965,-105.006 69.7965,-94.8611 69.7965,-85.9865"/>
<polygon fill="midnightblue" stroke="midnightblue" points="73.2966,-85.751 69.7965,-75.7511 66.2966,-85.7511 73.2966,-85.751"/>
</g>
<!-- Node5&#45;&gt;Node3 -->
<g id="edge6" class="edge"><title>Node5&#45;&gt;Node3</title>
<path fill="none" stroke="midnightblue" d="M63.5216,-56.083C58.154,-48.4554 50.2789,-37.2645 43.7178,-27.9408"/>
<polygon fill="midnightblue" stroke="midnightblue" points="46.572,-25.9149 37.9547,-19.7511 40.8473,-29.9434 46.572,-25.9149"/>
</g>
<!-- Node6&#45;&gt;Node3 -->
<g id="edge9" class="edge"><title>Node6&#45;&gt;Node3</title>
<path fill="none" stroke="midnightblue" d="M132.368,-168.499C138.196,-147.435 150.167,-91.9365 126.796,-56 114.795,-37.546 93.0129,-26.4918 73.3308,-19.9612"/>
<polygon fill="midnightblue" stroke="midnightblue" points="74.1768,-16.5607 63.5922,-17.0246 72.1559,-23.2627 74.1768,-16.5607"/>
</g>
<!-- Node6&#45;&gt;Node4 -->
<g id="edge10" class="edge"><title>Node6&#45;&gt;Node4</title>
<path fill="none" stroke="midnightblue" d="M120.156,-168.324C111.287,-160.341 97.9218,-148.313 87.1886,-138.653"/>
<polygon fill="midnightblue" stroke="midnightblue" points="89.3863,-135.922 79.6119,-131.834 84.7035,-141.125 89.3863,-135.922"/>
</g>
<!-- Node7 -->
<g id="node7" class="node"><title>Node7</title>
<polygon fill="none" stroke="#bfbfbf" points="173.796,-112.5 173.796,-131.5 223.796,-131.5 223.796,-112.5 173.796,-112.5"/>
<text text-anchor="middle" x="198.796" y="-119.5" font-family="Helvetica,sans-Serif" font-size="10.00">chrono</text>
</g>
<!-- Node6&#45;&gt;Node7 -->
<g id="edge8" class="edge"><title>Node6&#45;&gt;Node7</title>
<path fill="none" stroke="midnightblue" d="M140.883,-168.324C151.283,-160.185 167.057,-147.839 179.518,-138.087"/>
<polygon fill="midnightblue" stroke="midnightblue" points="181.791,-140.753 187.509,-131.834 177.477,-135.241 181.791,-140.753"/>
</g>
</g>
</svg>
