<?xml version="1.0" encoding="UTF-8" standalone="no"?>
<!DOCTYPE svg PUBLIC "-//W3C//DTD SVG 1.1//EN"
 "http://www.w3.org/Graphics/SVG/1.1/DTD/svg11.dtd">
<!-- Generated by graphviz version 2.38.0 (20140413.2041)
 -->
<!-- Title: src/Entities/EntityConstructor/PlayerTwoEntity/PlayerTwoEntity.cpp Pages: 1 -->
<!--zoomable 319 -->
<svg id="main" version="1.1" xmlns="http://www.w3.org/2000/svg" xmlns:xlink="http://www.w3.org/1999/xlink" xml:space="preserve" onload="init(evt)">
<style type="text/css"><![CDATA[
.edge:hover path { stroke: red; }
.edge:hover polygon { stroke: red; fill: red; }
]]></style>
<script type="text/javascript"><![CDATA[
var edges = document.getElementsByTagName('g');
if (edges && edges.length) {
  for (var i=0;i<edges.length;i++) {
    if (edges[i].id.substr(0,4)=='edge') {
      edges[i].setAttribute('class','edge');
    }
  }
}
]]></script>
        <defs>
                <circle id="rim" cx="0" cy="0" r="7"/>
                <circle id="rim2" cx="0" cy="0" r="3.5"/>
                <g id="zoomPlus">
                        <use xlink:href="#rim" fill="#404040">
                                <set attributeName="fill" to="#808080" begin="zoomplus.mouseover" end="zoomplus.mouseout"/>
                        </use>
                        <path d="M-4,0h8M0,-4v8" fill="none" stroke="white" stroke-width="1.5" pointer-events="none"/>
                </g>
                <g id="zoomMin">
                        <use xlink:href="#rim" fill="#404040">
                                <set attributeName="fill" to="#808080" begin="zoomminus.mouseover" end="zoomminus.mouseout"/>
                        </use>
                        <path d="M-4,0h8" fill="none" stroke="white" stroke-width="1.5" pointer-events="none"/>
                </g>
                <g id="dirArrow">
                        <path fill="none" stroke="white" stroke-width="1.5" d="M0,-3.0v7 M-2.5,-0.5L0,-3.0L2.5,-0.5"/>
                </g>
               <g id="resetDef">
                       <use xlink:href="#rim2" fill="#404040">
                               <set attributeName="fill" to="#808080" begin="reset.mouseover" end="reset.mouseout"/>
                       </use>
               </g>
        </defs>

<script type="text/javascript">
var viewWidth = 1743;
var viewHeight = 319;
var sectionId = 'dynsection-0';
</script>
<script xlink:href="svgpan.js"/>
<svg id="graph" class="graph">
<g id="viewport">
<title>src/Entities/EntityConstructor/PlayerTwoEntity/PlayerTwoEntity.cpp</title>
<!-- Node1 -->
<g id="node1" class="node"><title>Node1</title>
<polygon fill="#bfbfbf" stroke="black" points="816.101,-280.5 816.101,-310.5 1003.1,-310.5 1003.1,-280.5 816.101,-280.5"/>
<text text-anchor="start" x="824.101" y="-298.5" font-family="Helvetica,sans-Serif" font-size="10.00">src/Entities/EntityConstructor</text>
<text text-anchor="middle" x="909.601" y="-287.5" font-family="Helvetica,sans-Serif" font-size="10.00">/PlayerTwoEntity/PlayerTwoEntity.cpp</text>
</g>
<!-- Node2 -->
<g id="node2" class="node"><title>Node2</title>
<g id="a_node2"><a xlink:href="Components_2IO_2Sound_8hpp.html" target="_top" xlink:title="IO/Sound.hpp">
<polygon fill="none" stroke="black" points="298.101,-224.5 298.101,-243.5 379.101,-243.5 379.101,-224.5 298.101,-224.5"/>
<text text-anchor="middle" x="338.601" y="-231.5" font-family="Helvetica,sans-Serif" font-size="10.00">IO/Sound.hpp</text>
</a>
</g>
</g>
<!-- Node1&#45;&gt;Node2 -->
<g id="edge1" class="edge"><title>Node1&#45;&gt;Node2</title>
<path fill="none" stroke="midnightblue" d="M815.966,-287.859C713.527,-280.044 544.295,-265.525 389.382,-244.15"/>
<polygon fill="midnightblue" stroke="midnightblue" points="389.587,-240.645 379.2,-242.732 388.622,-247.578 389.587,-240.645"/>
</g>
<!-- Node8 -->
<g id="node8" class="node"><title>Node8</title>
<g id="a_node8"><a xlink:href="PlayerTwoEntity_8hpp.html" target="_top" xlink:title="PlayerTwoEntity.hpp">
<polygon fill="none" stroke="black" points="168.101,-224.5 168.101,-243.5 277.101,-243.5 277.101,-224.5 168.101,-224.5"/>
<text text-anchor="middle" x="222.601" y="-231.5" font-family="Helvetica,sans-Serif" font-size="10.00">PlayerTwoEntity.hpp</text>
</a>
</g>
</g>
<!-- Node1&#45;&gt;Node8 -->
<g id="edge7" class="edge"><title>Node1&#45;&gt;Node8</title>
<path fill="none" stroke="midnightblue" d="M816.08,-288.486C694.408,-280.298 475.308,-264.306 288.601,-244 288.256,-243.962 287.91,-243.925 287.564,-243.886"/>
<polygon fill="midnightblue" stroke="midnightblue" points="287.653,-240.373 277.315,-242.694 286.844,-247.326 287.653,-240.373"/>
</g>
<!-- Node18 -->
<g id="node18" class="node"><title>Node18</title>
<g id="a_node18"><a xlink:href="Rotation_8hpp.html" target="_top" xlink:title="Physics/Rotation.hpp">
<polygon fill="none" stroke="black" points="659.101,-224.5 659.101,-243.5 774.101,-243.5 774.101,-224.5 659.101,-224.5"/>
<text text-anchor="middle" x="716.601" y="-231.5" font-family="Helvetica,sans-Serif" font-size="10.00">Physics/Rotation.hpp</text>
</a>
</g>
</g>
<!-- Node1&#45;&gt;Node18 -->
<g id="edge25" class="edge"><title>Node1&#45;&gt;Node18</title>
<path fill="none" stroke="midnightblue" d="M863.863,-280.399C830.368,-270.073 785.468,-256.231 754.085,-246.556"/>
<polygon fill="midnightblue" stroke="midnightblue" points="754.99,-243.172 744.403,-243.571 752.928,-249.862 754.99,-243.172"/>
</g>
<!-- Node20 -->
<g id="node20" class="node"><title>Node20</title>
<g id="a_node20"><a xlink:href="Position_8hpp.html" target="_top" xlink:title="Physics/Position.hpp">
<polygon fill="none" stroke="black" points="792.101,-224.5 792.101,-243.5 905.101,-243.5 905.101,-224.5 792.101,-224.5"/>
<text text-anchor="middle" x="848.601" y="-231.5" font-family="Helvetica,sans-Serif" font-size="10.00">Physics/Position.hpp</text>
</a>
</g>
</g>
<!-- Node1&#45;&gt;Node20 -->
<g id="edge28" class="edge"><title>Node1&#45;&gt;Node20</title>
<path fill="none" stroke="midnightblue" d="M895.145,-280.399C886.007,-271.486 874.183,-259.952 864.739,-250.741"/>
<polygon fill="midnightblue" stroke="midnightblue" points="867.08,-248.135 857.477,-243.658 862.192,-253.146 867.08,-248.135"/>
</g>
<!-- Node22 -->
<g id="node22" class="node"><title>Node22</title>
<g id="a_node22"><a xlink:href="Velocity_8hpp.html" target="_top" xlink:title="Physics/Velocity.hpp">
<polygon fill="none" stroke="black" points="530.101,-224.5 530.101,-243.5 641.101,-243.5 641.101,-224.5 530.101,-224.5"/>
<text text-anchor="middle" x="585.601" y="-231.5" font-family="Helvetica,sans-Serif" font-size="10.00">Physics/Velocity.hpp</text>
</a>
</g>
</g>
<!-- Node1&#45;&gt;Node22 -->
<g id="edge31" class="edge"><title>Node1&#45;&gt;Node22</title>
<path fill="none" stroke="midnightblue" d="M833.228,-280.475C774.524,-269.694 694.77,-255.048 641.814,-245.323"/>
<polygon fill="midnightblue" stroke="midnightblue" points="642.389,-241.87 631.922,-243.506 641.125,-248.755 642.389,-241.87"/>
</g>
<!-- Node24 -->
<g id="node24" class="node"><title>Node24</title>
<g id="a_node24"><a xlink:href="Collision_8hpp.html" target="_top" xlink:title="Physics/Collision.hpp">
<polygon fill="none" stroke="black" points="397.101,-224.5 397.101,-243.5 512.101,-243.5 512.101,-224.5 397.101,-224.5"/>
<text text-anchor="middle" x="454.601" y="-231.5" font-family="Helvetica,sans-Serif" font-size="10.00">Physics/Collision.hpp</text>
</a>
</g>
</g>
<!-- Node1&#45;&gt;Node24 -->
<g id="edge34" class="edge"><title>Node1&#45;&gt;Node24</title>
<path fill="none" stroke="midnightblue" d="M816.045,-282.526C739.621,-272.705 628.495,-258.333 522.137,-244.198"/>
<polygon fill="midnightblue" stroke="midnightblue" points="522.565,-240.725 512.191,-242.875 521.642,-247.663 522.565,-240.725"/>
</g>
<!-- Node26 -->
<g id="node26" class="node"><title>Node26</title>
<g id="a_node26"><a xlink:href="Sprite_8hpp.html" target="_top" xlink:title="Display/Sprite.hpp">
<polygon fill="none" stroke="black" points="1066.6,-224.5 1066.6,-243.5 1170.6,-243.5 1170.6,-224.5 1066.6,-224.5"/>
<text text-anchor="middle" x="1118.6" y="-231.5" font-family="Helvetica,sans-Serif" font-size="10.00">Display/Sprite.hpp</text>
</a>
</g>
</g>
<!-- Node1&#45;&gt;Node26 -->
<g id="edge38" class="edge"><title>Node1&#45;&gt;Node26</title>
<path fill="none" stroke="midnightblue" d="M958.867,-280.475C995.553,-270.03 1044.99,-255.958 1079.1,-246.247"/>
<polygon fill="midnightblue" stroke="midnightblue" points="1080.06,-249.611 1088.72,-243.506 1078.15,-242.878 1080.06,-249.611"/>
</g>
<!-- Node27 -->
<g id="node27" class="node"><title>Node27</title>
<g id="a_node27"><a xlink:href="Rect_8hpp.html" target="_top" xlink:title="Rect.hpp">
<polygon fill="none" stroke="black" points="1192.6,-168.5 1192.6,-187.5 1250.6,-187.5 1250.6,-168.5 1192.6,-168.5"/>
<text text-anchor="middle" x="1221.6" y="-175.5" font-family="Helvetica,sans-Serif" font-size="10.00">Rect.hpp</text>
</a>
</g>
</g>
<!-- Node1&#45;&gt;Node27 -->
<g id="edge72" class="edge"><title>Node1&#45;&gt;Node27</title>
<path fill="none" stroke="midnightblue" d="M1003.39,-284.903C1069.51,-276.672 1151.14,-263.099 1179.6,-244 1196.46,-232.686 1208.05,-212.078 1214.72,-197.092"/>
<polygon fill="midnightblue" stroke="midnightblue" points="1217.97,-198.378 1218.55,-187.799 1211.5,-195.709 1217.97,-198.378"/>
</g>
<!-- Node29 -->
<g id="node29" class="node"><title>Node29</title>
<g id="a_node29"><a xlink:href="Animator_8hpp.html" target="_top" xlink:title="Display/Animator.hpp">
<polygon fill="none" stroke="black" points="1227.1,-224.5 1227.1,-243.5 1346.1,-243.5 1346.1,-224.5 1227.1,-224.5"/>
<text text-anchor="middle" x="1286.6" y="-231.5" font-family="Helvetica,sans-Serif" font-size="10.00">Display/Animator.hpp</text>
</a>
</g>
</g>
<!-- Node1&#45;&gt;Node29 -->
<g id="edge45" class="edge"><title>Node1&#45;&gt;Node29</title>
<path fill="none" stroke="midnightblue" d="M998.468,-280.475C1067.34,-269.605 1161.12,-254.804 1222.72,-245.081"/>
<polygon fill="midnightblue" stroke="midnightblue" points="1223.37,-248.523 1232.7,-243.506 1222.28,-241.608 1223.37,-248.523"/>
</g>
<!-- Node33 -->
<g id="node33" class="node"><title>Node33</title>
<g id="a_node33"><a xlink:href="Text_8hpp.html" target="_top" xlink:title="Display/Text.hpp">
<polygon fill="none" stroke="black" points="923.601,-224.5 923.601,-243.5 1017.6,-243.5 1017.6,-224.5 923.601,-224.5"/>
<text text-anchor="middle" x="970.601" y="-231.5" font-family="Helvetica,sans-Serif" font-size="10.00">Display/Text.hpp</text>
</a>
</g>
</g>
<!-- Node1&#45;&gt;Node33 -->
<g id="edge55" class="edge"><title>Node1&#45;&gt;Node33</title>
<path fill="none" stroke="midnightblue" d="M924.057,-280.399C933.196,-271.486 945.02,-259.952 954.464,-250.741"/>
<polygon fill="midnightblue" stroke="midnightblue" points="957.011,-253.146 961.725,-243.658 952.123,-248.135 957.011,-253.146"/>
</g>
<!-- Node36 -->
<g id="node36" class="node"><title>Node36</title>
<g id="a_node36"><a xlink:href="Health_8hpp.html" target="_top" xlink:title="GameLogic/Health.hpp">
<polygon fill="none" stroke="black" points="1344.6,-168.5 1344.6,-187.5 1470.6,-187.5 1470.6,-168.5 1344.6,-168.5"/>
<text text-anchor="middle" x="1407.6" y="-175.5" font-family="Helvetica,sans-Serif" font-size="10.00">GameLogic/Health.hpp</text>
</a>
</g>
</g>
<!-- Node1&#45;&gt;Node36 -->
<g id="edge62" class="edge"><title>Node1&#45;&gt;Node36</title>
<path fill="none" stroke="midnightblue" d="M1003.43,-292.09C1115.73,-287.795 1296,-276.004 1354.6,-244 1374.31,-233.237 1389.51,-211.853 1398.48,-196.55"/>
<polygon fill="midnightblue" stroke="midnightblue" points="1401.68,-197.99 1403.45,-187.545 1395.55,-194.602 1401.68,-197.99"/>
</g>
<!-- Node37 -->
<g id="node37" class="node"><title>Node37</title>
<g id="a_node37"><a xlink:href="PlayerController_8hpp.html" target="_top" xlink:title="PlayerController.hpp">
<polygon fill="none" stroke="black" points="1502.1,-224.5 1502.1,-243.5 1615.1,-243.5 1615.1,-224.5 1502.1,-224.5"/>
<text text-anchor="middle" x="1558.6" y="-231.5" font-family="Helvetica,sans-Serif" font-size="10.00">PlayerController.hpp</text>
</a>
</g>
</g>
<!-- Node1&#45;&gt;Node37 -->
<g id="edge65" class="edge"><title>Node1&#45;&gt;Node37</title>
<path fill="none" stroke="midnightblue" d="M1003.28,-285.912C1136,-273.744 1375.53,-251.784 1491.75,-241.129"/>
<polygon fill="midnightblue" stroke="midnightblue" points="1492.29,-244.594 1501.93,-240.196 1491.65,-237.624 1492.29,-244.594"/>
</g>
<!-- Node3 -->
<g id="node3" class="node"><title>Node3</title>
<polygon fill="none" stroke="#bfbfbf" points="413.601,-0.5 413.601,-19.5 457.601,-19.5 457.601,-0.5 413.601,-0.5"/>
<text text-anchor="middle" x="435.601" y="-7.5" font-family="Helvetica,sans-Serif" font-size="10.00">string</text>
</g>
<!-- Node2&#45;&gt;Node3 -->
<g id="edge2" class="edge"><title>Node2&#45;&gt;Node3</title>
<path fill="none" stroke="midnightblue" d="M338.33,-224.324C338.199,-211.607 338.962,-187.321 345.601,-168 361.233,-122.51 379.026,-117.927 402.601,-76 411.411,-60.3319 420.603,-42.0416 427.042,-28.8615"/>
<polygon fill="midnightblue" stroke="midnightblue" points="430.35,-30.0607 431.555,-19.5347 424.049,-27.0117 430.35,-30.0607"/>
</g>
<!-- Node4 -->
<g id="node4" class="node"><title>Node4</title>
<g id="a_node4"><a xlink:href="Output_8hpp.html" target="_top" xlink:title="Output.hpp">
<polygon fill="none" stroke="black" points="355.101,-168.5 355.101,-187.5 426.101,-187.5 426.101,-168.5 355.101,-168.5"/>
<text text-anchor="middle" x="390.601" y="-175.5" font-family="Helvetica,sans-Serif" font-size="10.00">Output.hpp</text>
</a>
</g>
</g>
<!-- Node2&#45;&gt;Node4 -->
<g id="edge3" class="edge"><title>Node2&#45;&gt;Node4</title>
<path fill="none" stroke="midnightblue" d="M347.188,-224.083C354.76,-216.22 365.979,-204.569 375.116,-195.081"/>
<polygon fill="midnightblue" stroke="midnightblue" points="377.759,-197.382 382.174,-187.751 372.717,-192.527 377.759,-197.382"/>
</g>
<!-- Node5 -->
<g id="node5" class="node"><title>Node5</title>
<g id="a_node5"><a xlink:href="IIO_8hpp.html" target="_top" xlink:title="IIO.hpp">
<polygon fill="none" stroke="black" points="499.101,-112.5 499.101,-131.5 548.101,-131.5 548.101,-112.5 499.101,-112.5"/>
<text text-anchor="middle" x="523.601" y="-119.5" font-family="Helvetica,sans-Serif" font-size="10.00">IIO.hpp</text>
</a>
</g>
</g>
<!-- Node4&#45;&gt;Node5 -->
<g id="edge4" class="edge"><title>Node4&#45;&gt;Node5</title>
<path fill="none" stroke="midnightblue" d="M411.675,-168.444C433.661,-159.517 468.335,-145.439 493.265,-135.317"/>
<polygon fill="midnightblue" stroke="midnightblue" points="494.677,-138.521 502.626,-131.516 492.043,-132.035 494.677,-138.521"/>
</g>
<!-- Node6 -->
<g id="node6" class="node"><title>Node6</title>
<g id="a_node6"><a xlink:href="IComponent_8hpp.html" target="_top" xlink:title="IComponent.hpp">
<polygon fill="none" stroke="black" points="804.601,-56.5 804.601,-75.5 900.601,-75.5 900.601,-56.5 804.601,-56.5"/>
<text text-anchor="middle" x="852.601" y="-63.5" font-family="Helvetica,sans-Serif" font-size="10.00">IComponent.hpp</text>
</a>
</g>
</g>
<!-- Node5&#45;&gt;Node6 -->
<g id="edge5" class="edge"><title>Node5&#45;&gt;Node6</title>
<path fill="none" stroke="midnightblue" d="M548.491,-116.203C555.919,-114.807 564.083,-113.307 571.601,-112 648.631,-98.613 737.804,-84.5812 794.672,-75.8172"/>
<polygon fill="midnightblue" stroke="midnightblue" points="795.204,-79.2765 804.556,-74.2968 794.14,-72.3578 795.204,-79.2765"/>
</g>
<!-- Node7 -->
<g id="node7" class="node"><title>Node7</title>
<polygon fill="none" stroke="#bfbfbf" points="1212.1,-0.5 1212.1,-19.5 1275.1,-19.5 1275.1,-0.5 1212.1,-0.5"/>
<text text-anchor="middle" x="1243.6" y="-7.5" font-family="Helvetica,sans-Serif" font-size="10.00">typeindex</text>
</g>
<!-- Node6&#45;&gt;Node7 -->
<g id="edge6" class="edge"><title>Node6&#45;&gt;Node7</title>
<path fill="none" stroke="midnightblue" d="M900.938,-58.3244C978.348,-47.6334 1128.82,-26.8515 1201.85,-16.7667"/>
<polygon fill="midnightblue" stroke="midnightblue" points="1202.61,-20.1941 1212.04,-15.3588 1201.66,-13.2599 1202.61,-20.1941"/>
</g>
<!-- Node9 -->
<g id="node9" class="node"><title>Node9</title>
<g id="a_node9"><a xlink:href="IEntityConstructor_8hpp.html" target="_top" xlink:title="IEntityConstructor.hpp">
<polygon fill="none" stroke="black" points="155.601,-168.5 155.601,-187.5 277.601,-187.5 277.601,-168.5 155.601,-168.5"/>
<text text-anchor="middle" x="216.601" y="-175.5" font-family="Helvetica,sans-Serif" font-size="10.00">IEntityConstructor.hpp</text>
</a>
</g>
</g>
<!-- Node8&#45;&gt;Node9 -->
<g id="edge8" class="edge"><title>Node8&#45;&gt;Node9</title>
<path fill="none" stroke="midnightblue" d="M221.61,-224.083C220.815,-216.927 219.672,-206.635 218.678,-197.691"/>
<polygon fill="midnightblue" stroke="midnightblue" points="222.157,-197.303 217.574,-187.751 215.199,-198.076 222.157,-197.303"/>
</g>
<!-- Node9&#45;&gt;Node3 -->
<g id="edge10" class="edge"><title>Node9&#45;&gt;Node3</title>
<path fill="none" stroke="midnightblue" d="M246.306,-168.495C269.042,-161.103 300.488,-148.912 324.601,-132 367.005,-102.26 405.13,-53.7863 423.691,-28.1504"/>
<polygon fill="midnightblue" stroke="midnightblue" points="426.674,-29.9942 429.616,-19.8158 420.969,-25.9385 426.674,-29.9942"/>
</g>
<!-- Node10 -->
<g id="node10" class="node"><title>Node10</title>
<polygon fill="none" stroke="#bfbfbf" points="19.1012,-56.5 19.1012,-75.5 76.1012,-75.5 76.1012,-56.5 19.1012,-56.5"/>
<text text-anchor="middle" x="47.6012" y="-63.5" font-family="Helvetica,sans-Serif" font-size="10.00">memory</text>
</g>
<!-- Node9&#45;&gt;Node10 -->
<g id="edge9" class="edge"><title>Node9&#45;&gt;Node10</title>
<path fill="none" stroke="midnightblue" d="M155.41,-172.42C99.6806,-166.825 23.3105,-155.097 4.60122,-132 -8.52551,-115.794 9.74206,-95.5404 26.3586,-81.9874"/>
<polygon fill="midnightblue" stroke="midnightblue" points="28.9207,-84.433 34.7224,-75.5679 24.6586,-78.8801 28.9207,-84.433"/>
</g>
<!-- Node11 -->
<g id="node11" class="node"><title>Node11</title>
<g id="a_node11"><a xlink:href="Entity_8hpp.html" target="_top" xlink:title="Entity.hpp">
<polygon fill="none" stroke="black" points="94.1012,-56.5 94.1012,-75.5 157.101,-75.5 157.101,-56.5 94.1012,-56.5"/>
<text text-anchor="middle" x="125.601" y="-63.5" font-family="Helvetica,sans-Serif" font-size="10.00">Entity.hpp</text>
</a>
</g>
</g>
<!-- Node9&#45;&gt;Node11 -->
<g id="edge11" class="edge"><title>Node9&#45;&gt;Node11</title>
<path fill="none" stroke="midnightblue" d="M209.461,-168.368C194.31,-150.055 158.733,-107.049 139.137,-83.3624"/>
<polygon fill="midnightblue" stroke="midnightblue" points="141.78,-81.0656 132.709,-75.5914 136.386,-85.5276 141.78,-81.0656"/>
</g>
<!-- Node12 -->
<g id="node12" class="node"><title>Node12</title>
<g id="a_node12"><a xlink:href="IEntityManager_8hpp.html" target="_top" xlink:title="IEntityManager.hpp">
<polygon fill="none" stroke="black" points="207.601,-112.5 207.601,-131.5 315.601,-131.5 315.601,-112.5 207.601,-112.5"/>
<text text-anchor="middle" x="261.601" y="-119.5" font-family="Helvetica,sans-Serif" font-size="10.00">IEntityManager.hpp</text>
</a>
</g>
</g>
<!-- Node9&#45;&gt;Node12 -->
<g id="edge12" class="edge"><title>Node9&#45;&gt;Node12</title>
<path fill="none" stroke="midnightblue" d="M224.032,-168.083C230.454,-160.377 239.907,-149.033 247.724,-139.653"/>
<polygon fill="midnightblue" stroke="midnightblue" points="250.596,-141.674 254.309,-131.751 245.218,-137.193 250.596,-141.674"/>
</g>
<!-- Node17 -->
<g id="node17" class="node"><title>Node17</title>
<g id="a_node17"><a xlink:href="IComponentManager_8hpp.html" target="_top" xlink:title="IComponentManager.hpp">
<polygon fill="none" stroke="black" points="14.1012,-112.5 14.1012,-131.5 151.101,-131.5 151.101,-112.5 14.1012,-112.5"/>
<text text-anchor="middle" x="82.6012" y="-119.5" font-family="Helvetica,sans-Serif" font-size="10.00">IComponentManager.hpp</text>
</a>
</g>
</g>
<!-- Node9&#45;&gt;Node17 -->
<g id="edge20" class="edge"><title>Node9&#45;&gt;Node17</title>
<path fill="none" stroke="midnightblue" d="M195.369,-168.444C173.218,-159.517 138.282,-145.439 113.165,-135.317"/>
<polygon fill="midnightblue" stroke="midnightblue" points="114.318,-132.008 103.735,-131.516 111.702,-138.501 114.318,-132.008"/>
</g>
<!-- Node12&#45;&gt;Node10 -->
<g id="edge13" class="edge"><title>Node12&#45;&gt;Node10</title>
<path fill="none" stroke="midnightblue" d="M227.692,-112.444C189.122,-102.711 126.28,-86.8536 85.954,-76.6778"/>
<polygon fill="midnightblue" stroke="midnightblue" points="86.7675,-73.2734 76.2151,-74.2203 85.0548,-80.0607 86.7675,-73.2734"/>
</g>
<!-- Node12&#45;&gt;Node11 -->
<g id="edge15" class="edge"><title>Node12&#45;&gt;Node11</title>
<path fill="none" stroke="midnightblue" d="M240.052,-112.444C217.57,-103.517 182.114,-89.4387 156.621,-79.3168"/>
<polygon fill="midnightblue" stroke="midnightblue" points="157.636,-75.9539 147.05,-75.5164 155.053,-82.4598 157.636,-75.9539"/>
</g>
<!-- Node13 -->
<g id="node13" class="node"><title>Node13</title>
<polygon fill="none" stroke="#bfbfbf" points="175.101,-56.5 175.101,-75.5 222.101,-75.5 222.101,-56.5 175.101,-56.5"/>
<text text-anchor="middle" x="198.601" y="-63.5" font-family="Helvetica,sans-Serif" font-size="10.00">vector</text>
</g>
<!-- Node12&#45;&gt;Node13 -->
<g id="edge14" class="edge"><title>Node12&#45;&gt;Node13</title>
<path fill="none" stroke="midnightblue" d="M251.479,-112.324C242.075,-104.263 227.857,-92.0765 216.532,-82.3695"/>
<polygon fill="midnightblue" stroke="midnightblue" points="218.778,-79.6844 208.907,-75.8339 214.222,-84.9993 218.778,-79.6844"/>
</g>
<!-- Node14 -->
<g id="node14" class="node"><title>Node14</title>
<g id="a_node14"><a xlink:href="PacketManager_8hpp.html" target="_top" xlink:title="PacketManager.hpp">
<polygon fill="none" stroke="black" points="240.601,-56.5 240.601,-75.5 350.601,-75.5 350.601,-56.5 240.601,-56.5"/>
<text text-anchor="middle" x="295.601" y="-63.5" font-family="Helvetica,sans-Serif" font-size="10.00">PacketManager.hpp</text>
</a>
</g>
</g>
<!-- Node12&#45;&gt;Node14 -->
<g id="edge16" class="edge"><title>Node12&#45;&gt;Node14</title>
<path fill="none" stroke="midnightblue" d="M267.216,-112.083C271.969,-104.534 278.919,-93.4948 284.753,-84.2298"/>
<polygon fill="midnightblue" stroke="midnightblue" points="287.725,-86.0783 290.091,-75.7511 281.801,-82.3486 287.725,-86.0783"/>
</g>
<!-- Node14&#45;&gt;Node3 -->
<g id="edge17" class="edge"><title>Node14&#45;&gt;Node3</title>
<path fill="none" stroke="midnightblue" d="M317.785,-56.4435C341.03,-47.4776 377.75,-33.314 404.016,-23.1827"/>
<polygon fill="midnightblue" stroke="midnightblue" points="405.451,-26.3807 413.522,-19.5164 402.932,-19.8497 405.451,-26.3807"/>
</g>
<!-- Node15 -->
<g id="node15" class="node"><title>Node15</title>
<polygon fill="none" stroke="#bfbfbf" points="128.601,-0.5 128.601,-19.5 158.601,-19.5 158.601,-0.5 128.601,-0.5"/>
<text text-anchor="middle" x="143.601" y="-7.5" font-family="Helvetica,sans-Serif" font-size="10.00">list</text>
</g>
<!-- Node14&#45;&gt;Node15 -->
<g id="edge18" class="edge"><title>Node14&#45;&gt;Node15</title>
<path fill="none" stroke="midnightblue" d="M271.516,-56.4435C243.335,-46.4316 196.91,-29.9386 168.417,-19.8161"/>
<polygon fill="midnightblue" stroke="midnightblue" points="169.393,-16.4485 158.798,-16.3989 167.049,-23.0446 169.393,-16.4485"/>
</g>
<!-- Node16 -->
<g id="node16" class="node"><title>Node16</title>
<g id="a_node16"><a xlink:href="Input_8hpp.html" target="_top" xlink:title="Render/Input.hpp">
<polygon fill="none" stroke="black" points="812.601,-0.5 812.601,-19.5 910.601,-19.5 910.601,-0.5 812.601,-0.5"/>
<text text-anchor="middle" x="861.601" y="-7.5" font-family="Helvetica,sans-Serif" font-size="10.00">Render/Input.hpp</text>
</a>
</g>
</g>
<!-- Node14&#45;&gt;Node16 -->
<g id="edge19" class="edge"><title>Node14&#45;&gt;Node16</title>
<path fill="none" stroke="midnightblue" d="M350.644,-59.7486C457.483,-49.5554 692.119,-27.1697 802.277,-16.6599"/>
<polygon fill="midnightblue" stroke="midnightblue" points="802.918,-20.1148 812.54,-15.6807 802.253,-13.1464 802.918,-20.1148"/>
</g>
<!-- Node17&#45;&gt;Node6 -->
<g id="edge23" class="edge"><title>Node17&#45;&gt;Node6</title>
<path fill="none" stroke="midnightblue" d="M151.293,-115.571C166.847,-114.369 183.291,-113.121 198.601,-112 418.467,-95.9069 680.038,-78.404 794.324,-70.8385"/>
<polygon fill="midnightblue" stroke="midnightblue" points="794.844,-74.3118 804.591,-70.1593 794.382,-67.3271 794.844,-74.3118"/>
</g>
<!-- Node17&#45;&gt;Node10 -->
<g id="edge22" class="edge"><title>Node17&#45;&gt;Node10</title>
<path fill="none" stroke="midnightblue" d="M76.8217,-112.083C71.9289,-104.534 64.7738,-93.4948 58.7687,-84.2298"/>
<polygon fill="midnightblue" stroke="midnightblue" points="61.6493,-82.239 53.2732,-75.7511 55.7752,-86.0463 61.6493,-82.239"/>
</g>
<!-- Node17&#45;&gt;Node11 -->
<g id="edge24" class="edge"><title>Node17&#45;&gt;Node11</title>
<path fill="none" stroke="midnightblue" d="M89.7018,-112.083C95.8382,-104.377 104.871,-93.0333 112.34,-83.6531"/>
<polygon fill="midnightblue" stroke="midnightblue" points="115.141,-85.7542 118.633,-75.7511 109.665,-81.3936 115.141,-85.7542"/>
</g>
<!-- Node17&#45;&gt;Node15 -->
<g id="edge21" class="edge"><title>Node17&#45;&gt;Node15</title>
<path fill="none" stroke="midnightblue" d="M59.1515,-112.449C31.8254,-101.14 -7.53764,-79.8351 9.60122,-56 34.3358,-21.6015 86.6527,-13.133 118.1,-11.265"/>
<polygon fill="midnightblue" stroke="midnightblue" points="118.425,-14.7547 128.273,-10.8479 118.138,-7.76062 118.425,-14.7547"/>
</g>
<!-- Node19 -->
<g id="node19" class="node"><title>Node19</title>
<g id="a_node19"><a xlink:href="IPhysics_8hpp.html" target="_top" xlink:title="IPhysics.hpp">
<polygon fill="none" stroke="black" points="581.101,-112.5 581.101,-131.5 656.101,-131.5 656.101,-112.5 581.101,-112.5"/>
<text text-anchor="middle" x="618.601" y="-119.5" font-family="Helvetica,sans-Serif" font-size="10.00">IPhysics.hpp</text>
</a>
</g>
</g>
<!-- Node18&#45;&gt;Node19 -->
<g id="edge26" class="edge"><title>Node18&#45;&gt;Node19</title>
<path fill="none" stroke="midnightblue" d="M694.748,-224.447C678.363,-217.03 656.464,-204.828 642.601,-188 631.617,-174.666 625.404,-155.837 622.066,-141.875"/>
<polygon fill="midnightblue" stroke="midnightblue" points="625.455,-140.982 619.969,-131.918 618.605,-142.425 625.455,-140.982"/>
</g>
<!-- Node19&#45;&gt;Node6 -->
<g id="edge27" class="edge"><title>Node19&#45;&gt;Node6</title>
<path fill="none" stroke="midnightblue" d="M655.679,-112.444C696.329,-103.063 761.633,-87.9926 805.786,-77.8036"/>
<polygon fill="midnightblue" stroke="midnightblue" points="806.74,-81.1755 815.697,-75.5164 805.166,-74.3547 806.74,-81.1755"/>
</g>
<!-- Node20&#45;&gt;Node19 -->
<g id="edge30" class="edge"><title>Node20&#45;&gt;Node19</title>
<path fill="none" stroke="midnightblue" d="M803.596,-224.427C759.808,-215.532 696.864,-201.115 675.601,-188 656.11,-175.978 639.605,-155.197 629.45,-140.368"/>
<polygon fill="midnightblue" stroke="midnightblue" points="632.135,-138.08 623.726,-131.635 626.281,-141.917 632.135,-138.08"/>
</g>
<!-- Node21 -->
<g id="node21" class="node"><title>Node21</title>
<polygon fill="none" stroke="#bfbfbf" points="684.601,-168.5 684.601,-187.5 726.601,-187.5 726.601,-168.5 684.601,-168.5"/>
<text text-anchor="middle" x="705.601" y="-175.5" font-family="Helvetica,sans-Serif" font-size="10.00">utility</text>
</g>
<!-- Node20&#45;&gt;Node21 -->
<g id="edge29" class="edge"><title>Node20&#45;&gt;Node21</title>
<path fill="none" stroke="midnightblue" d="M825.942,-224.444C801.78,-215.319 763.364,-200.813 736.453,-190.65"/>
<polygon fill="midnightblue" stroke="midnightblue" points="737.347,-187.247 726.755,-186.988 734.874,-193.795 737.347,-187.247"/>
</g>
<!-- Node23 -->
<g id="node23" class="node"><title>Node23</title>
<g id="a_node23"><a xlink:href="Motion_8hpp.html" target="_top" xlink:title="Motion.hpp">
<polygon fill="none" stroke="black" points="520.601,-168.5 520.601,-187.5 590.601,-187.5 590.601,-168.5 520.601,-168.5"/>
<text text-anchor="middle" x="555.601" y="-175.5" font-family="Helvetica,sans-Serif" font-size="10.00">Motion.hpp</text>
</a>
</g>
</g>
<!-- Node22&#45;&gt;Node23 -->
<g id="edge32" class="edge"><title>Node22&#45;&gt;Node23</title>
<path fill="none" stroke="midnightblue" d="M580.647,-224.083C576.497,-216.613 570.448,-205.724 565.334,-196.52"/>
<polygon fill="midnightblue" stroke="midnightblue" points="568.379,-194.793 560.463,-187.751 562.26,-198.192 568.379,-194.793"/>
</g>
<!-- Node23&#45;&gt;Node19 -->
<g id="edge33" class="edge"><title>Node23&#45;&gt;Node19</title>
<path fill="none" stroke="midnightblue" d="M565.723,-168.324C575.128,-160.263 589.345,-148.077 600.67,-138.369"/>
<polygon fill="midnightblue" stroke="midnightblue" points="602.98,-140.999 608.295,-131.834 598.425,-135.684 602.98,-140.999"/>
</g>
<!-- Node24&#45;&gt;Node3 -->
<g id="edge35" class="edge"><title>Node24&#45;&gt;Node3</title>
<path fill="none" stroke="midnightblue" d="M453.856,-224.297C451.061,-191.633 441.153,-75.8661 437.224,-29.9573"/>
<polygon fill="midnightblue" stroke="midnightblue" points="440.702,-29.5488 436.362,-19.8837 433.727,-30.1458 440.702,-29.5488"/>
</g>
<!-- Node24&#45;&gt;Node19 -->
<g id="edge37" class="edge"><title>Node24&#45;&gt;Node19</title>
<path fill="none" stroke="midnightblue" d="M460.275,-224.299C469.552,-210.662 489.197,-184.147 511.601,-168 531.925,-153.353 557.741,-142.319 578.924,-134.844"/>
<polygon fill="midnightblue" stroke="midnightblue" points="580.254,-138.089 588.599,-131.56 578.004,-131.46 580.254,-138.089"/>
</g>
<!-- Node25 -->
<g id="node25" class="node"><title>Node25</title>
<polygon fill="none" stroke="#bfbfbf" points="744.601,-168.5 744.601,-187.5 782.601,-187.5 782.601,-168.5 744.601,-168.5"/>
<text text-anchor="middle" x="763.601" y="-175.5" font-family="Helvetica,sans-Serif" font-size="10.00">map</text>
</g>
<!-- Node24&#45;&gt;Node25 -->
<g id="edge36" class="edge"><title>Node24&#45;&gt;Node25</title>
<path fill="none" stroke="midnightblue" d="M512.162,-224.839C577.429,-215.411 680.796,-199.912 734.657,-187.869"/>
<polygon fill="midnightblue" stroke="midnightblue" points="735.489,-191.269 744.431,-185.586 733.897,-184.453 735.489,-191.269"/>
</g>
<!-- Node26&#45;&gt;Node3 -->
<g id="edge39" class="edge"><title>Node26&#45;&gt;Node3</title>
<path fill="none" stroke="midnightblue" d="M1066.32,-224.428C1039.87,-217.973 1008.59,-206.868 985.601,-188 933.276,-145.049 966.539,-92.6176 909.601,-56 872.539,-32.1647 568.368,-16.8159 467.768,-12.3525"/>
<polygon fill="midnightblue" stroke="midnightblue" points="467.748,-8.84843 457.605,-11.9081 467.442,-15.8417 467.748,-8.84843"/>
</g>
<!-- Node26&#45;&gt;Node7 -->
<g id="edge40" class="edge"><title>Node26&#45;&gt;Node7</title>
<path fill="none" stroke="midnightblue" d="M1123.5,-224.297C1142.05,-191.356 1208.19,-73.898 1233.58,-28.8052"/>
<polygon fill="midnightblue" stroke="midnightblue" points="1236.74,-30.3147 1238.6,-19.8837 1230.64,-26.8802 1236.74,-30.3147"/>
</g>
<!-- Node26&#45;&gt;Node27 -->
<g id="edge41" class="edge"><title>Node26&#45;&gt;Node27</title>
<path fill="none" stroke="midnightblue" d="M1135.15,-224.324C1151.59,-215.703 1177.04,-202.364 1196.07,-192.386"/>
<polygon fill="midnightblue" stroke="midnightblue" points="1197.86,-195.398 1205.09,-187.655 1194.61,-189.198 1197.86,-195.398"/>
</g>
<!-- Node28 -->
<g id="node28" class="node"><title>Node28</title>
<g id="a_node28"><a xlink:href="IDisplay_8hpp.html" target="_top" xlink:title="IDisplay.hpp">
<polygon fill="none" stroke="black" points="1069.1,-112.5 1069.1,-131.5 1142.1,-131.5 1142.1,-112.5 1069.1,-112.5"/>
<text text-anchor="middle" x="1105.6" y="-119.5" font-family="Helvetica,sans-Serif" font-size="10.00">IDisplay.hpp</text>
</a>
</g>
</g>
<!-- Node26&#45;&gt;Node28 -->
<g id="edge42" class="edge"><title>Node26&#45;&gt;Node28</title>
<path fill="none" stroke="midnightblue" d="M1117.58,-224.368C1115.48,-206.617 1110.64,-165.666 1107.8,-141.597"/>
<polygon fill="midnightblue" stroke="midnightblue" points="1111.27,-141.112 1106.62,-131.591 1104.31,-141.933 1111.27,-141.112"/>
</g>
<!-- Node28&#45;&gt;Node6 -->
<g id="edge44" class="edge"><title>Node28&#45;&gt;Node6</title>
<path fill="none" stroke="midnightblue" d="M1069.08,-113.206C1025.26,-103.853 951.575,-88.1249 902.521,-77.6549"/>
<polygon fill="midnightblue" stroke="midnightblue" points="902.958,-74.1692 892.447,-75.5047 901.496,-81.015 902.958,-74.1692"/>
</g>
<!-- Node28&#45;&gt;Node7 -->
<g id="edge43" class="edge"><title>Node28&#45;&gt;Node7</title>
<path fill="none" stroke="midnightblue" d="M1110.61,-112.461C1118.82,-99.0453 1136.27,-72.8287 1156.6,-56 1173.07,-42.3683 1194.35,-31.2728 1211.73,-23.51"/>
<polygon fill="midnightblue" stroke="midnightblue" points="1213.14,-26.7155 1220.94,-19.5453 1210.37,-20.2864 1213.14,-26.7155"/>
</g>
<!-- Node29&#45;&gt;Node7 -->
<g id="edge46" class="edge"><title>Node29&#45;&gt;Node7</title>
<path fill="none" stroke="midnightblue" d="M1286.37,-224.116C1285.94,-211.55 1284.75,-187.898 1281.6,-168 1273.55,-117.159 1257.51,-58.5127 1249.07,-29.3902"/>
<polygon fill="midnightblue" stroke="midnightblue" points="1252.42,-28.3625 1246.25,-19.7521 1245.7,-30.333 1252.42,-28.3625"/>
</g>
<!-- Node29&#45;&gt;Node27 -->
<g id="edge54" class="edge"><title>Node29&#45;&gt;Node27</title>
<path fill="none" stroke="midnightblue" d="M1276.16,-224.324C1266.45,-216.263 1251.79,-204.077 1240.1,-194.369"/>
<polygon fill="midnightblue" stroke="midnightblue" points="1242.16,-191.532 1232.23,-187.834 1237.69,-196.916 1242.16,-191.532"/>
</g>
<!-- Node29&#45;&gt;Node28 -->
<g id="edge47" class="edge"><title>Node29&#45;&gt;Node28</title>
<path fill="none" stroke="midnightblue" d="M1285.45,-224.48C1283.11,-210.608 1276.53,-183.169 1259.6,-168 1230.09,-141.551 1185.81,-130.601 1152.3,-126.093"/>
<polygon fill="midnightblue" stroke="midnightblue" points="1152.62,-122.606 1142.27,-124.89 1151.78,-129.556 1152.62,-122.606"/>
</g>
<!-- Node30 -->
<g id="node30" class="node"><title>Node30</title>
<g id="a_node30"><a xlink:href="Timer_8hpp.html" target="_top" xlink:title="Timer.hpp">
<polygon fill="none" stroke="black" points="1526.6,-168.5 1526.6,-187.5 1590.6,-187.5 1590.6,-168.5 1526.6,-168.5"/>
<text text-anchor="middle" x="1558.6" y="-175.5" font-family="Helvetica,sans-Serif" font-size="10.00">Timer.hpp</text>
</a>
</g>
</g>
<!-- Node29&#45;&gt;Node30 -->
<g id="edge48" class="edge"><title>Node29&#45;&gt;Node30</title>
<path fill="none" stroke="midnightblue" d="M1329.7,-224.444C1380.85,-214.288 1465.59,-197.465 1516.36,-187.385"/>
<polygon fill="midnightblue" stroke="midnightblue" points="1517.22,-190.783 1526.35,-185.403 1515.86,-183.917 1517.22,-190.783"/>
</g>
<!-- Node30&#45;&gt;Node7 -->
<g id="edge50" class="edge"><title>Node30&#45;&gt;Node7</title>
<path fill="none" stroke="midnightblue" d="M1560.65,-168.388C1563.32,-154.873 1566.28,-128.522 1553.6,-112 1489.36,-28.2782 1354.28,-12.9319 1285.61,-10.774"/>
<polygon fill="midnightblue" stroke="midnightblue" points="1285.66,-7.27419 1275.58,-10.5384 1285.49,-14.2723 1285.66,-7.27419"/>
</g>
<!-- Node31 -->
<g id="node31" class="node"><title>Node31</title>
<polygon fill="none" stroke="#bfbfbf" points="1494.6,-112.5 1494.6,-131.5 1544.6,-131.5 1544.6,-112.5 1494.6,-112.5"/>
<text text-anchor="middle" x="1519.6" y="-119.5" font-family="Helvetica,sans-Serif" font-size="10.00">chrono</text>
</g>
<!-- Node30&#45;&gt;Node31 -->
<g id="edge49" class="edge"><title>Node30&#45;&gt;Node31</title>
<path fill="none" stroke="midnightblue" d="M1552.16,-168.083C1546.65,-160.455 1538.57,-149.264 1531.84,-139.941"/>
<polygon fill="midnightblue" stroke="midnightblue" points="1534.61,-137.809 1525.92,-131.751 1528.94,-141.907 1534.61,-137.809"/>
</g>
<!-- Node32 -->
<g id="node32" class="node"><title>Node32</title>
<g id="a_node32"><a xlink:href="IGameLogic_8hpp.html" target="_top" xlink:title="IGameLogic.hpp">
<polygon fill="none" stroke="black" points="1382.6,-112.5 1382.6,-131.5 1476.6,-131.5 1476.6,-112.5 1382.6,-112.5"/>
<text text-anchor="middle" x="1429.6" y="-119.5" font-family="Helvetica,sans-Serif" font-size="10.00">IGameLogic.hpp</text>
</a>
</g>
</g>
<!-- Node30&#45;&gt;Node32 -->
<g id="edge51" class="edge"><title>Node30&#45;&gt;Node32</title>
<path fill="none" stroke="midnightblue" d="M1538.16,-168.444C1516.93,-159.557 1483.5,-145.563 1459.35,-135.451"/>
<polygon fill="midnightblue" stroke="midnightblue" points="1460.52,-132.149 1449.95,-131.516 1457.82,-138.606 1460.52,-132.149"/>
</g>
<!-- Node32&#45;&gt;Node6 -->
<g id="edge53" class="edge"><title>Node32&#45;&gt;Node6</title>
<path fill="none" stroke="midnightblue" d="M1382.38,-116.581C1277.49,-106.764 1025.31,-83.1635 910.858,-72.4521"/>
<polygon fill="midnightblue" stroke="midnightblue" points="911.161,-68.9653 900.879,-71.5182 910.509,-75.9348 911.161,-68.9653"/>
</g>
<!-- Node32&#45;&gt;Node7 -->
<g id="edge52" class="edge"><title>Node32&#45;&gt;Node7</title>
<path fill="none" stroke="midnightblue" d="M1423.49,-112.178C1413.5,-98.375 1392.4,-71.6372 1368.6,-56 1343.08,-39.2274 1310.51,-27.7662 1285.02,-20.6092"/>
<polygon fill="midnightblue" stroke="midnightblue" points="1285.84,-17.2059 1275.28,-17.9843 1284.02,-23.9649 1285.84,-17.2059"/>
</g>
<!-- Node33&#45;&gt;Node3 -->
<g id="edge57" class="edge"><title>Node33&#45;&gt;Node3</title>
<path fill="none" stroke="midnightblue" d="M938.386,-224.464C909.427,-216.383 865.981,-203.24 829.601,-188 811.998,-180.626 808.787,-176.3 791.601,-168 672.618,-110.537 527.614,-49.2242 465.823,-23.495"/>
<polygon fill="midnightblue" stroke="midnightblue" points="466.873,-20.1413 456.296,-19.5356 464.187,-26.6053 466.873,-20.1413"/>
</g>
<!-- Node33&#45;&gt;Node7 -->
<g id="edge56" class="edge"><title>Node33&#45;&gt;Node7</title>
<path fill="none" stroke="midnightblue" d="M971.188,-224.079C972.361,-211.056 975.791,-186.394 985.601,-168 1017.71,-107.796 1032.5,-91.7714 1090.6,-56 1124.96,-34.8467 1169.78,-23.1944 1202.02,-17.0808"/>
<polygon fill="midnightblue" stroke="midnightblue" points="1202.79,-20.4983 1212.01,-15.2855 1201.55,-13.6085 1202.79,-20.4983"/>
</g>
<!-- Node34 -->
<g id="node34" class="node"><title>Node34</title>
<g id="a_node34"><a xlink:href="Color_8hpp.html" target="_top" xlink:title="Color.hpp">
<polygon fill="none" stroke="black" points="838.601,-168.5 838.601,-187.5 900.601,-187.5 900.601,-168.5 838.601,-168.5"/>
<text text-anchor="middle" x="869.601" y="-175.5" font-family="Helvetica,sans-Serif" font-size="10.00">Color.hpp</text>
</a>
</g>
</g>
<!-- Node33&#45;&gt;Node34 -->
<g id="edge58" class="edge"><title>Node33&#45;&gt;Node34</title>
<path fill="none" stroke="midnightblue" d="M954.374,-224.324C938.25,-215.703 913.301,-202.364 894.637,-192.386"/>
<polygon fill="midnightblue" stroke="midnightblue" points="896.257,-189.283 885.788,-187.655 892.957,-195.456 896.257,-189.283"/>
</g>
<!-- Node35 -->
<g id="node35" class="node"><title>Node35</title>
<g id="a_node35"><a xlink:href="IUserInterface_8hpp.html" target="_top" xlink:title="IUserInterface.hpp">
<polygon fill="none" stroke="black" points="994.601,-168.5 994.601,-187.5 1098.6,-187.5 1098.6,-168.5 994.601,-168.5"/>
<text text-anchor="middle" x="1046.6" y="-175.5" font-family="Helvetica,sans-Serif" font-size="10.00">IUserInterface.hpp</text>
</a>
</g>
</g>
<!-- Node33&#45;&gt;Node35 -->
<g id="edge59" class="edge"><title>Node33&#45;&gt;Node35</title>
<path fill="none" stroke="midnightblue" d="M982.812,-224.324C994.377,-216.107 1011.98,-203.602 1025.76,-193.807"/>
<polygon fill="midnightblue" stroke="midnightblue" points="1028.04,-196.479 1034.17,-187.834 1023.99,-190.773 1028.04,-196.479"/>
</g>
<!-- Node35&#45;&gt;Node7 -->
<g id="edge60" class="edge"><title>Node35&#45;&gt;Node7</title>
<path fill="none" stroke="midnightblue" d="M1046.44,-168.294C1046.6,-155.111 1048.47,-129.744 1059.6,-112 1091.49,-61.1642 1158.49,-33.9378 1202.23,-20.9816"/>
<polygon fill="midnightblue" stroke="midnightblue" points="1203.34,-24.3058 1212,-18.2093 1201.43,-17.5716 1203.34,-24.3058"/>
</g>
<!-- Node35&#45;&gt;Node28 -->
<g id="edge61" class="edge"><title>Node35&#45;&gt;Node28</title>
<path fill="none" stroke="midnightblue" d="M1056.08,-168.324C1064.8,-160.341 1077.94,-148.313 1088.5,-138.653"/>
<polygon fill="midnightblue" stroke="midnightblue" points="1090.94,-141.167 1095.95,-131.834 1086.21,-136.004 1090.94,-141.167"/>
</g>
<!-- Node36&#45;&gt;Node7 -->
<g id="edge63" class="edge"><title>Node36&#45;&gt;Node7</title>
<path fill="none" stroke="midnightblue" d="M1400.47,-168.287C1393.33,-159.4 1382.2,-145.096 1373.6,-132 1352.3,-99.5579 1358.55,-82.9225 1330.6,-56 1315.86,-41.7999 1295.74,-31.0044 1278.57,-23.5514"/>
<polygon fill="midnightblue" stroke="midnightblue" points="1279.44,-20.1243 1268.86,-19.5489 1276.77,-26.596 1279.44,-20.1243"/>
</g>
<!-- Node36&#45;&gt;Node32 -->
<g id="edge64" class="edge"><title>Node36&#45;&gt;Node32</title>
<path fill="none" stroke="midnightblue" d="M1411.23,-168.083C1414.21,-160.77 1418.53,-150.181 1422.23,-141.103"/>
<polygon fill="midnightblue" stroke="midnightblue" points="1425.5,-142.333 1426.04,-131.751 1419.02,-139.691 1425.5,-142.333"/>
</g>
<!-- Node37&#45;&gt;Node7 -->
<g id="edge66" class="edge"><title>Node37&#45;&gt;Node7</title>
<path fill="none" stroke="midnightblue" d="M1615.15,-231.401C1675.01,-227.338 1757.32,-213.593 1729.6,-168 1673.43,-75.5968 1616.19,-90.1962 1513.6,-56 1435.41,-29.9364 1339.24,-18.5338 1285.34,-13.8898"/>
<polygon fill="midnightblue" stroke="midnightblue" points="1285.39,-10.3826 1275.14,-13.0488 1284.82,-17.3589 1285.39,-10.3826"/>
</g>
<!-- Node37&#45;&gt;Node16 -->
<g id="edge70" class="edge"><title>Node37&#45;&gt;Node16</title>
<path fill="none" stroke="midnightblue" d="M1570.14,-224.49C1580.08,-216.379 1593.72,-203.178 1599.6,-188 1613.86,-151.181 1587.98,-131.413 1553.6,-112 1445.45,-50.9332 1068.19,-22.9656 921.031,-14.1954"/>
<polygon fill="midnightblue" stroke="midnightblue" points="921.028,-10.6893 910.84,-13.597 920.617,-17.6773 921.028,-10.6893"/>
</g>
<!-- Node37&#45;&gt;Node25 -->
<g id="edge69" class="edge"><title>Node37&#45;&gt;Node25</title>
<path fill="none" stroke="midnightblue" d="M1501.99,-230.049C1354.32,-222.264 959.89,-200.887 829.601,-188 817.442,-186.797 804.077,-185.054 792.573,-183.422"/>
<polygon fill="midnightblue" stroke="midnightblue" points="793.019,-179.95 782.619,-181.973 792.011,-186.877 793.019,-179.95"/>
</g>
<!-- Node37&#45;&gt;Node30 -->
<g id="edge68" class="edge"><title>Node37&#45;&gt;Node30</title>
<path fill="none" stroke="midnightblue" d="M1558.6,-224.083C1558.6,-217.006 1558.6,-206.861 1558.6,-197.986"/>
<polygon fill="midnightblue" stroke="midnightblue" points="1562.1,-197.751 1558.6,-187.751 1555.1,-197.751 1562.1,-197.751"/>
</g>
<!-- Node37&#45;&gt;Node32 -->
<g id="edge67" class="edge"><title>Node37&#45;&gt;Node32</title>
<path fill="none" stroke="midnightblue" d="M1548.48,-224.368C1526.62,-205.733 1474.79,-161.532 1447.35,-138.134"/>
<polygon fill="midnightblue" stroke="midnightblue" points="1449.56,-135.417 1439.68,-131.591 1445.01,-140.743 1449.56,-135.417"/>
</g>
<!-- Node38 -->
<g id="node38" class="node"><title>Node38</title>
<g id="a_node38"><a xlink:href="Actions_8hpp.html" target="_top" xlink:title="Actions.hpp">
<polygon fill="none" stroke="black" points="1647.1,-168.5 1647.1,-187.5 1720.1,-187.5 1720.1,-168.5 1647.1,-168.5"/>
<text text-anchor="middle" x="1683.6" y="-175.5" font-family="Helvetica,sans-Serif" font-size="10.00">Actions.hpp</text>
</a>
</g>
</g>
<!-- Node37&#45;&gt;Node38 -->
<g id="edge71" class="edge"><title>Node37&#45;&gt;Node38</title>
<path fill="none" stroke="midnightblue" d="M1578.41,-224.444C1598.89,-215.596 1631.08,-201.687 1654.47,-191.586"/>
<polygon fill="midnightblue" stroke="midnightblue" points="1656.1,-194.695 1663.89,-187.516 1653.32,-188.269 1656.1,-194.695"/>
</g>
</g>
</svg>
        <g id="navigator" transform="translate(0 0)" fill="#404254">
                <rect fill="#f2f5e9" fill-opacity="0.5" stroke="#606060" stroke-width=".5" x="0" y="0" width="60" height="60"/>
                <use id="zoomplus" xlink:href="#zoomPlus" x="17" y="9" onmousedown="handleZoom(evt,'in')"/>
                <use id="zoomminus" xlink:href="#zoomMin" x="42" y="9" onmousedown="handleZoom(evt,'out')"/>
                <use id="reset" xlink:href="#resetDef" x="30" y="36" onmousedown="handleReset()"/>
                <g id="arrowUp" xlink:href="#dirArrow" transform="translate(30 24)" onmousedown="handlePan(0,-1)">
                  <use xlink:href="#rim" fill="#404040">
                        <set attributeName="fill" to="#808080" begin="arrowUp.mouseover" end="arrowUp.mouseout"/>
                  </use>
                  <path fill="none" stroke="white" stroke-width="1.5" d="M0,-3.0v7 M-2.5,-0.5L0,-3.0L2.5,-0.5"/>
                </g>
                <g id="arrowRight" xlink:href="#dirArrow" transform="rotate(90) translate(36 -43)" onmousedown="handlePan(1,0)">
                  <use xlink:href="#rim" fill="#404040">
                        <set attributeName="fill" to="#808080" begin="arrowRight.mouseover" end="arrowRight.mouseout"/>
                  </use>
                  <path fill="none" stroke="white" stroke-width="1.5" d="M0,-3.0v7 M-2.5,-0.5L0,-3.0L2.5,-0.5"/>
                </g>
                <g id="arrowDown" xlink:href="#dirArrow" transform="rotate(180) translate(-30 -48)" onmousedown="handlePan(0,1)">
                  <use xlink:href="#rim" fill="#404040">
                        <set attributeName="fill" to="#808080" begin="arrowDown.mouseover" end="arrowDown.mouseout"/>
                  </use>
                  <path fill="none" stroke="white" stroke-width="1.5" d="M0,-3.0v7 M-2.5,-0.5L0,-3.0L2.5,-0.5"/>
                </g>
                <g id="arrowLeft" xlink:href="#dirArrow" transform="rotate(270) translate(-36 17)" onmousedown="handlePan(-1,0)">
                  <use xlink:href="#rim" fill="#404040">
                        <set attributeName="fill" to="#808080" begin="arrowLeft.mouseover" end="arrowLeft.mouseout"/>
                  </use>
                  <path fill="none" stroke="white" stroke-width="1.5" d="M0,-3.0v7 M-2.5,-0.5L0,-3.0L2.5,-0.5"/>
                </g>
        </g>
        <svg viewBox="0 0 15 15" width="100%" height="30px" preserveAspectRatio="xMaxYMin meet">
         <g id="arrow_out" transform="scale(0.3 0.3)">
          <a xlink:href="PlayerTwoEntity_8cpp__incl_org.svg" target="_base">
           <rect id="button" ry="5" rx="5" y="6" x="6" height="38" width="38"
                fill="#f2f5e9" fill-opacity="0.5" stroke="#606060" stroke-width="1.0"/>
           <path id="arrow"
             d="M 11.500037,31.436501 C 11.940474,20.09759 22.043105,11.32322 32.158766,21.979434 L 37.068811,17.246167 C 37.068811,17.246167 37.088388,32 37.088388,32 L 22.160133,31.978069 C 22.160133,31.978069 26.997745,27.140456 26.997745,27.140456 C 18.528582,18.264221 13.291696,25.230495 11.500037,31.436501 z"
             style="fill:#404040;"/>
          </a>
         </g>
        </svg>
</svg>
