<?xml version="1.0" encoding="UTF-8" standalone="no"?>
<!DOCTYPE svg PUBLIC "-//W3C//DTD SVG 1.1//EN"
 "http://www.w3.org/Graphics/SVG/1.1/DTD/svg11.dtd">
<!-- Generated by graphviz version 2.38.0 (20140413.2041)
 -->
<!-- Title: src/Components/Display/PopUp.hpp Pages: 1 -->
<svg width="235pt" height="263pt"
 viewBox="0.00 0.00 234.50 263.00" xmlns="http://www.w3.org/2000/svg" xmlns:xlink="http://www.w3.org/1999/xlink">
<g id="graph0" class="graph" transform="scale(1 1) rotate(0) translate(4 259)">
<title>src/Components/Display/PopUp.hpp</title>
<!-- Node1 -->
<g id="node1" class="node"><title>Node1</title>
<polygon fill="#bfbfbf" stroke="black" points="0,-224.5 0,-254.5 133,-254.5 133,-224.5 0,-224.5"/>
<text text-anchor="start" x="8" y="-242.5" font-family="Helvetica,sans-Serif" font-size="10.00">src/Components/Display</text>
<text text-anchor="middle" x="66.5" y="-231.5" font-family="Helvetica,sans-Serif" font-size="10.00">/PopUp.hpp</text>
</g>
<!-- Node2 -->
<g id="node2" class="node"><title>Node2</title>
<polygon fill="none" stroke="#bfbfbf" points="52,-0.5 52,-19.5 115,-19.5 115,-0.5 52,-0.5"/>
<text text-anchor="middle" x="83.5" y="-7.5" font-family="Helvetica,sans-Serif" font-size="10.00">typeindex</text>
</g>
<!-- Node1&#45;&gt;Node2 -->
<g id="edge1" class="edge"><title>Node1&#45;&gt;Node2</title>
<path fill="none" stroke="midnightblue" d="M58.863,-224.393C53.9672,-214.521 48.0653,-200.85 45.5,-188 33.8911,-129.849 60.0341,-61.2718 74.5883,-29.2223"/>
<polygon fill="midnightblue" stroke="midnightblue" points="77.9208,-30.3604 79.0086,-19.8215 71.5861,-27.3818 77.9208,-30.3604"/>
</g>
<!-- Node3 -->
<g id="node3" class="node"><title>Node3</title>
<g id="a_node3"><a xlink:href="IUserInterface_8hpp.html" target="_top" xlink:title="IUserInterface.hpp">
<polygon fill="none" stroke="black" points="54.5,-168.5 54.5,-187.5 158.5,-187.5 158.5,-168.5 54.5,-168.5"/>
<text text-anchor="middle" x="106.5" y="-175.5" font-family="Helvetica,sans-Serif" font-size="10.00">IUserInterface.hpp</text>
</a>
</g>
</g>
<!-- Node1&#45;&gt;Node3 -->
<g id="edge2" class="edge"><title>Node1&#45;&gt;Node3</title>
<path fill="none" stroke="midnightblue" d="M75.9794,-224.399C81.6721,-215.932 88.9544,-205.099 94.9778,-196.139"/>
<polygon fill="midnightblue" stroke="midnightblue" points="98.0051,-197.909 100.68,-187.658 92.1958,-194.004 98.0051,-197.909"/>
</g>
<!-- Node3&#45;&gt;Node2 -->
<g id="edge3" class="edge"><title>Node3&#45;&gt;Node2</title>
<path fill="none" stroke="midnightblue" d="M100.395,-168.191C94.7453,-159.46 86.7446,-145.478 83.5,-132 75.007,-96.7217 77.9752,-53.9623 80.8045,-29.8789"/>
<polygon fill="midnightblue" stroke="midnightblue" points="84.3131,-30.0387 82.1315,-19.671 77.3715,-29.1363 84.3131,-30.0387"/>
</g>
<!-- Node4 -->
<g id="node4" class="node"><title>Node4</title>
<g id="a_node4"><a xlink:href="IDisplay_8hpp.html" target="_top" xlink:title="IDisplay.hpp">
<polygon fill="none" stroke="black" points="93,-112.5 93,-131.5 166,-131.5 166,-112.5 93,-112.5"/>
<text text-anchor="middle" x="129.5" y="-119.5" font-family="Helvetica,sans-Serif" font-size="10.00">IDisplay.hpp</text>
</a>
</g>
</g>
<!-- Node3&#45;&gt;Node4 -->
<g id="edge4" class="edge"><title>Node3&#45;&gt;Node4</title>
<path fill="none" stroke="midnightblue" d="M110.298,-168.083C113.413,-160.77 117.923,-150.181 121.789,-141.103"/>
<polygon fill="midnightblue" stroke="midnightblue" points="125.074,-142.323 125.773,-131.751 118.634,-139.58 125.074,-142.323"/>
</g>
<!-- Node4&#45;&gt;Node2 -->
<g id="edge5" class="edge"><title>Node4&#45;&gt;Node2</title>
<path fill="none" stroke="midnightblue" d="M125.89,-112.368C118.4,-94.4563 101.032,-52.9233 91.0056,-28.9482"/>
<polygon fill="midnightblue" stroke="midnightblue" points="94.1799,-27.4669 87.0928,-19.5914 87.7219,-30.1676 94.1799,-27.4669"/>
</g>
<!-- Node5 -->
<g id="node5" class="node"><title>Node5</title>
<g id="a_node5"><a xlink:href="IComponent_8hpp.html" target="_top" xlink:title="IComponent.hpp">
<polygon fill="none" stroke="black" points="130.5,-56.5 130.5,-75.5 226.5,-75.5 226.5,-56.5 130.5,-56.5"/>
<text text-anchor="middle" x="178.5" y="-63.5" font-family="Helvetica,sans-Serif" font-size="10.00">IComponent.hpp</text>
</a>
</g>
</g>
<!-- Node4&#45;&gt;Node5 -->
<g id="edge6" class="edge"><title>Node4&#45;&gt;Node5</title>
<path fill="none" stroke="midnightblue" d="M137.591,-112.083C144.655,-104.298 155.088,-92.8015 163.649,-83.3665"/>
<polygon fill="midnightblue" stroke="midnightblue" points="166.431,-85.5087 170.559,-75.7511 161.247,-80.8047 166.431,-85.5087"/>
</g>
<!-- Node5&#45;&gt;Node2 -->
<g id="edge7" class="edge"><title>Node5&#45;&gt;Node2</title>
<path fill="none" stroke="midnightblue" d="M163.237,-56.324C148.279,-47.8215 125.245,-34.7288 107.773,-24.7975"/>
<polygon fill="midnightblue" stroke="midnightblue" points="109.149,-21.5534 98.7255,-19.6545 105.69,-27.639 109.149,-21.5534"/>
</g>
</g>
</svg>
