<?xml version="1.0" encoding="UTF-8" standalone="no"?>
<!DOCTYPE svg PUBLIC "-//W3C//DTD SVG 1.1//EN"
 "http://www.w3.org/Graphics/SVG/1.1/DTD/svg11.dtd">
<!-- Generated by graphviz version 2.38.0 (20140413.2041)
 -->
<!-- Title: src/Components/Physics/Position.hpp Pages: 1 -->
<svg width="161pt" height="207pt"
 viewBox="0.00 0.00 161.00 207.00" xmlns="http://www.w3.org/2000/svg" xmlns:xlink="http://www.w3.org/1999/xlink">
<g id="graph0" class="graph" transform="scale(1 1) rotate(0) translate(4 203)">
<title>src/Components/Physics/Position.hpp</title>
<!-- Node1 -->
<g id="node1" class="node"><title>Node1</title>
<polygon fill="#bfbfbf" stroke="black" points="0,-168.5 0,-198.5 134,-198.5 134,-168.5 0,-168.5"/>
<text text-anchor="start" x="8" y="-186.5" font-family="Helvetica,sans-Serif" font-size="10.00">src/Components/Physics</text>
<text text-anchor="middle" x="67" y="-175.5" font-family="Helvetica,sans-Serif" font-size="10.00">/Position.hpp</text>
</g>
<!-- Node2 -->
<g id="node2" class="node"><title>Node2</title>
<polygon fill="none" stroke="#bfbfbf" points="8,-112.5 8,-131.5 50,-131.5 50,-112.5 8,-112.5"/>
<text text-anchor="middle" x="29" y="-119.5" font-family="Helvetica,sans-Serif" font-size="10.00">utility</text>
</g>
<!-- Node1&#45;&gt;Node2 -->
<g id="edge1" class="edge"><title>Node1&#45;&gt;Node2</title>
<path fill="none" stroke="midnightblue" d="M57.9945,-168.399C52.5865,-159.932 45.6683,-149.099 39.9461,-140.139"/>
<polygon fill="midnightblue" stroke="midnightblue" points="42.8616,-138.202 34.5293,-131.658 36.9621,-141.97 42.8616,-138.202"/>
</g>
<!-- Node3 -->
<g id="node3" class="node"><title>Node3</title>
<g id="a_node3"><a xlink:href="IPhysics_8hpp.html" target="_top" xlink:title="IPhysics.hpp">
<polygon fill="none" stroke="black" points="67.5,-112.5 67.5,-131.5 142.5,-131.5 142.5,-112.5 67.5,-112.5"/>
<text text-anchor="middle" x="105" y="-119.5" font-family="Helvetica,sans-Serif" font-size="10.00">IPhysics.hpp</text>
</a>
</g>
</g>
<!-- Node1&#45;&gt;Node3 -->
<g id="edge2" class="edge"><title>Node1&#45;&gt;Node3</title>
<path fill="none" stroke="midnightblue" d="M76.0055,-168.399C81.4135,-159.932 88.3317,-149.099 94.0539,-140.139"/>
<polygon fill="midnightblue" stroke="midnightblue" points="97.0379,-141.97 99.4707,-131.658 91.1384,-138.202 97.0379,-141.97"/>
</g>
<!-- Node4 -->
<g id="node4" class="node"><title>Node4</title>
<g id="a_node4"><a xlink:href="IComponent_8hpp.html" target="_top" xlink:title="IComponent.hpp">
<polygon fill="none" stroke="black" points="57,-56.5 57,-75.5 153,-75.5 153,-56.5 57,-56.5"/>
<text text-anchor="middle" x="105" y="-63.5" font-family="Helvetica,sans-Serif" font-size="10.00">IComponent.hpp</text>
</a>
</g>
</g>
<!-- Node3&#45;&gt;Node4 -->
<g id="edge3" class="edge"><title>Node3&#45;&gt;Node4</title>
<path fill="none" stroke="midnightblue" d="M105,-112.083C105,-105.006 105,-94.8611 105,-85.9865"/>
<polygon fill="midnightblue" stroke="midnightblue" points="108.5,-85.751 105,-75.7511 101.5,-85.7511 108.5,-85.751"/>
</g>
<!-- Node5 -->
<g id="node5" class="node"><title>Node5</title>
<polygon fill="none" stroke="#bfbfbf" points="73.5,-0.5 73.5,-19.5 136.5,-19.5 136.5,-0.5 73.5,-0.5"/>
<text text-anchor="middle" x="105" y="-7.5" font-family="Helvetica,sans-Serif" font-size="10.00">typeindex</text>
</g>
<!-- Node4&#45;&gt;Node5 -->
<g id="edge4" class="edge"><title>Node4&#45;&gt;Node5</title>
<path fill="none" stroke="midnightblue" d="M105,-56.083C105,-49.0059 105,-38.8611 105,-29.9865"/>
<polygon fill="midnightblue" stroke="midnightblue" points="108.5,-29.751 105,-19.7511 101.5,-29.7511 108.5,-29.751"/>
</g>
</g>
</svg>
