<?xml version="1.0" encoding="UTF-8" standalone="no"?>
<!DOCTYPE svg PUBLIC "-//W3C//DTD SVG 1.1//EN"
 "http://www.w3.org/Graphics/SVG/1.1/DTD/svg11.dtd">
<!-- Generated by graphviz version 2.38.0 (20140413.2041)
 -->
<!-- Title: src/Components/GameLogic/Power.cpp Pages: 1 -->
<svg width="209pt" height="263pt"
 viewBox="0.00 0.00 209.00 263.00" xmlns="http://www.w3.org/2000/svg" xmlns:xlink="http://www.w3.org/1999/xlink">
<g id="graph0" class="graph" transform="scale(1 1) rotate(0) translate(4 259)">
<title>src/Components/GameLogic/Power.cpp</title>
<!-- Node1 -->
<g id="node1" class="node"><title>Node1</title>
<polygon fill="#bfbfbf" stroke="black" points="0,-224.5 0,-254.5 152,-254.5 152,-224.5 0,-224.5"/>
<text text-anchor="start" x="8" y="-242.5" font-family="Helvetica,sans-Serif" font-size="10.00">src/Components/GameLogic</text>
<text text-anchor="middle" x="76" y="-231.5" font-family="Helvetica,sans-Serif" font-size="10.00">/Power.cpp</text>
</g>
<!-- Node2 -->
<g id="node2" class="node"><title>Node2</title>
<g id="a_node2"><a xlink:href="Power_8hpp.html" target="_top" xlink:title="Power.hpp">
<polygon fill="none" stroke="black" points="43.5,-168.5 43.5,-187.5 108.5,-187.5 108.5,-168.5 43.5,-168.5"/>
<text text-anchor="middle" x="76" y="-175.5" font-family="Helvetica,sans-Serif" font-size="10.00">Power.hpp</text>
</a>
</g>
</g>
<!-- Node1&#45;&gt;Node2 -->
<g id="edge1" class="edge"><title>Node1&#45;&gt;Node2</title>
<path fill="none" stroke="midnightblue" d="M76,-224.399C76,-216.466 76,-206.458 76,-197.858"/>
<polygon fill="midnightblue" stroke="midnightblue" points="79.5001,-197.658 76,-187.658 72.5001,-197.658 79.5001,-197.658"/>
</g>
<!-- Node3 -->
<g id="node3" class="node"><title>Node3</title>
<polygon fill="none" stroke="#bfbfbf" points="45.5,-0.5 45.5,-19.5 108.5,-19.5 108.5,-0.5 45.5,-0.5"/>
<text text-anchor="middle" x="77" y="-7.5" font-family="Helvetica,sans-Serif" font-size="10.00">typeindex</text>
</g>
<!-- Node2&#45;&gt;Node3 -->
<g id="edge2" class="edge"><title>Node2&#45;&gt;Node3</title>
<path fill="none" stroke="midnightblue" d="M71.3788,-168.339C66.9407,-159.493 60.5459,-145.22 58,-132 50.9908,-95.604 62.3347,-52.6755 70.2887,-28.9832"/>
<polygon fill="midnightblue" stroke="midnightblue" points="73.5925,-30.1385 73.6266,-19.5437 66.993,-27.8048 73.5925,-30.1385"/>
</g>
<!-- Node4 -->
<g id="node4" class="node"><title>Node4</title>
<g id="a_node4"><a xlink:href="IGameLogic_8hpp.html" target="_top" xlink:title="IGameLogic.hpp">
<polygon fill="none" stroke="black" points="67,-112.5 67,-131.5 161,-131.5 161,-112.5 67,-112.5"/>
<text text-anchor="middle" x="114" y="-119.5" font-family="Helvetica,sans-Serif" font-size="10.00">IGameLogic.hpp</text>
</a>
</g>
</g>
<!-- Node2&#45;&gt;Node4 -->
<g id="edge3" class="edge"><title>Node2&#45;&gt;Node4</title>
<path fill="none" stroke="midnightblue" d="M82.2749,-168.083C87.6425,-160.455 95.5176,-149.264 102.079,-139.941"/>
<polygon fill="midnightblue" stroke="midnightblue" points="104.949,-141.943 107.842,-131.751 99.2245,-137.915 104.949,-141.943"/>
</g>
<!-- Node4&#45;&gt;Node3 -->
<g id="edge4" class="edge"><title>Node4&#45;&gt;Node3</title>
<path fill="none" stroke="midnightblue" d="M110.301,-112.466C106.475,-103.483 100.449,-88.8848 96,-76 90.6642,-60.5457 85.5189,-42.7011 81.9315,-29.6234"/>
<polygon fill="midnightblue" stroke="midnightblue" points="85.297,-28.6606 79.3146,-19.9164 78.5383,-30.4827 85.297,-28.6606"/>
</g>
<!-- Node5 -->
<g id="node5" class="node"><title>Node5</title>
<g id="a_node5"><a xlink:href="IComponent_8hpp.html" target="_top" xlink:title="IComponent.hpp">
<polygon fill="none" stroke="black" points="105,-56.5 105,-75.5 201,-75.5 201,-56.5 105,-56.5"/>
<text text-anchor="middle" x="153" y="-63.5" font-family="Helvetica,sans-Serif" font-size="10.00">IComponent.hpp</text>
</a>
</g>
</g>
<!-- Node4&#45;&gt;Node5 -->
<g id="edge5" class="edge"><title>Node4&#45;&gt;Node5</title>
<path fill="none" stroke="midnightblue" d="M120.44,-112.083C125.949,-104.455 134.031,-93.2645 140.765,-83.9408"/>
<polygon fill="midnightblue" stroke="midnightblue" points="143.662,-85.9071 146.68,-75.7511 137.987,-81.8087 143.662,-85.9071"/>
</g>
<!-- Node5&#45;&gt;Node3 -->
<g id="edge6" class="edge"><title>Node5&#45;&gt;Node3</title>
<path fill="none" stroke="midnightblue" d="M140.789,-56.324C129.224,-48.1066 111.625,-35.6017 97.8393,-25.8069"/>
<polygon fill="midnightblue" stroke="midnightblue" points="99.612,-22.7729 89.4329,-19.8339 95.5575,-28.4791 99.612,-22.7729"/>
</g>
</g>
</svg>
