<?xml version="1.0" encoding="UTF-8" standalone="no"?>
<!DOCTYPE svg PUBLIC "-//W3C//DTD SVG 1.1//EN"
 "http://www.w3.org/Graphics/SVG/1.1/DTD/svg11.dtd">
<!-- Generated by graphviz version 2.38.0 (20140413.2041)
 -->
<!-- Title: src/ResourceManager/Sound.cpp Pages: 1 -->
<svg width="381pt" height="207pt"
 viewBox="0.00 0.00 380.50 207.00" xmlns="http://www.w3.org/2000/svg" xmlns:xlink="http://www.w3.org/1999/xlink">
<g id="graph0" class="graph" transform="scale(1 1) rotate(0) translate(4 203)">
<title>src/ResourceManager/Sound.cpp</title>
<!-- Node1 -->
<g id="node1" class="node"><title>Node1</title>
<polygon fill="#bfbfbf" stroke="black" points="126,-168.5 126,-198.5 245,-198.5 245,-168.5 126,-168.5"/>
<text text-anchor="start" x="134" y="-186.5" font-family="Helvetica,sans-Serif" font-size="10.00">src/ResourceManager</text>
<text text-anchor="middle" x="185.5" y="-175.5" font-family="Helvetica,sans-Serif" font-size="10.00">/Sound.cpp</text>
</g>
<!-- Node2 -->
<g id="node2" class="node"><title>Node2</title>
<g id="a_node2"><a xlink:href="ResourceManager_2Sound_8hpp.html" target="_top" xlink:title="Sound.hpp">
<polygon fill="none" stroke="black" points="98.5,-112.5 98.5,-131.5 166.5,-131.5 166.5,-112.5 98.5,-112.5"/>
<text text-anchor="middle" x="132.5" y="-119.5" font-family="Helvetica,sans-Serif" font-size="10.00">Sound.hpp</text>
</a>
</g>
</g>
<!-- Node1&#45;&gt;Node2 -->
<g id="edge1" class="edge"><title>Node1&#45;&gt;Node2</title>
<path fill="none" stroke="midnightblue" d="M172.94,-168.399C165.159,-159.664 155.136,-148.413 147.016,-139.296"/>
<polygon fill="midnightblue" stroke="midnightblue" points="149.477,-136.797 140.212,-131.658 144.25,-141.453 149.477,-136.797"/>
</g>
<!-- Node5 -->
<g id="node5" class="node"><title>Node5</title>
<g id="a_node5"><a xlink:href="ECSExceptions_8hpp.html" target="_top" xlink:title="ECSExceptions.hpp">
<polygon fill="none" stroke="black" points="185,-112.5 185,-131.5 294,-131.5 294,-112.5 185,-112.5"/>
<text text-anchor="middle" x="239.5" y="-119.5" font-family="Helvetica,sans-Serif" font-size="10.00">ECSExceptions.hpp</text>
</a>
</g>
</g>
<!-- Node1&#45;&gt;Node5 -->
<g id="edge4" class="edge"><title>Node1&#45;&gt;Node5</title>
<path fill="none" stroke="midnightblue" d="M198.297,-168.399C206.225,-159.664 216.436,-148.413 224.71,-139.296"/>
<polygon fill="midnightblue" stroke="midnightblue" points="227.514,-141.415 231.643,-131.658 222.33,-136.711 227.514,-141.415"/>
</g>
<!-- Node3 -->
<g id="node3" class="node"><title>Node3</title>
<polygon fill="none" stroke="#bfbfbf" points="0,-56.5 0,-75.5 93,-75.5 93,-56.5 0,-56.5"/>
<text text-anchor="middle" x="46.5" y="-63.5" font-family="Helvetica,sans-Serif" font-size="10.00">SFML/Audio.hpp</text>
</g>
<!-- Node2&#45;&gt;Node3 -->
<g id="edge2" class="edge"><title>Node2&#45;&gt;Node3</title>
<path fill="none" stroke="midnightblue" d="M118.683,-112.324C105.267,-103.9 84.6759,-90.9709 68.9144,-81.0741"/>
<polygon fill="midnightblue" stroke="midnightblue" points="70.6132,-78.0081 60.2831,-75.6545 66.8908,-83.9364 70.6132,-78.0081"/>
</g>
<!-- Node4 -->
<g id="node4" class="node"><title>Node4</title>
<g id="a_node4"><a xlink:href="IAudio_8hpp.html" target="_top" xlink:title="IAudio.hpp">
<polygon fill="none" stroke="black" points="111,-56.5 111,-75.5 178,-75.5 178,-56.5 111,-56.5"/>
<text text-anchor="middle" x="144.5" y="-63.5" font-family="Helvetica,sans-Serif" font-size="10.00">IAudio.hpp</text>
</a>
</g>
</g>
<!-- Node2&#45;&gt;Node4 -->
<g id="edge3" class="edge"><title>Node2&#45;&gt;Node4</title>
<path fill="none" stroke="midnightblue" d="M134.482,-112.083C136.072,-104.927 138.359,-94.6353 140.346,-85.6911"/>
<polygon fill="midnightblue" stroke="midnightblue" points="143.803,-86.2722 142.555,-75.7511 136.969,-84.7537 143.803,-86.2722"/>
</g>
<!-- Node6 -->
<g id="node6" class="node"><title>Node6</title>
<polygon fill="none" stroke="#bfbfbf" points="249.5,-0.5 249.5,-19.5 293.5,-19.5 293.5,-0.5 249.5,-0.5"/>
<text text-anchor="middle" x="271.5" y="-7.5" font-family="Helvetica,sans-Serif" font-size="10.00">string</text>
</g>
<!-- Node5&#45;&gt;Node6 -->
<g id="edge5" class="edge"><title>Node5&#45;&gt;Node6</title>
<path fill="none" stroke="midnightblue" d="M239.565,-112.375C239.882,-99.7213 241.331,-75.5138 247.5,-56 250.569,-46.2914 255.724,-36.2244 260.472,-28.0803"/>
<polygon fill="midnightblue" stroke="midnightblue" points="263.465,-29.8944 265.708,-19.5397 257.497,-26.2356 263.465,-29.8944"/>
</g>
<!-- Node7 -->
<g id="node7" class="node"><title>Node7</title>
<g id="a_node7"><a xlink:href="RTypeExceptions_8hpp.html" target="_top" xlink:title="RTypeExceptions.hpp">
<polygon fill="none" stroke="black" points="256.5,-56.5 256.5,-75.5 372.5,-75.5 372.5,-56.5 256.5,-56.5"/>
<text text-anchor="middle" x="314.5" y="-63.5" font-family="Helvetica,sans-Serif" font-size="10.00">RTypeExceptions.hpp</text>
</a>
</g>
</g>
<!-- Node5&#45;&gt;Node7 -->
<g id="edge6" class="edge"><title>Node5&#45;&gt;Node7</title>
<path fill="none" stroke="midnightblue" d="M251.55,-112.324C262.963,-104.107 280.331,-91.6017 293.935,-81.8069"/>
<polygon fill="midnightblue" stroke="midnightblue" points="296.16,-84.5174 302.231,-75.8339 292.07,-78.8366 296.16,-84.5174"/>
</g>
<!-- Node7&#45;&gt;Node6 -->
<g id="edge7" class="edge"><title>Node7&#45;&gt;Node6</title>
<path fill="none" stroke="midnightblue" d="M307.399,-56.083C301.263,-48.3768 292.23,-37.0333 284.761,-27.6531"/>
<polygon fill="midnightblue" stroke="midnightblue" points="287.436,-25.3936 278.468,-19.7511 281.96,-29.7542 287.436,-25.3936"/>
</g>
</g>
</svg>
