<?xml version="1.0" encoding="UTF-8" standalone="no"?>
<!DOCTYPE svg PUBLIC "-//W3C//DTD SVG 1.1//EN"
 "http://www.w3.org/Graphics/SVG/1.1/DTD/svg11.dtd">
<!-- Generated by graphviz version 2.38.0 (20140413.2041)
 -->
<!-- Title: src/ResourceManager/ResourceManager.hpp Pages: 1 -->
<svg width="895pt" height="319pt"
 viewBox="0.00 0.00 894.50 319.00" xmlns="http://www.w3.org/2000/svg" xmlns:xlink="http://www.w3.org/1999/xlink">
<g id="graph0" class="graph" transform="scale(1 1) rotate(0) translate(4 315)">
<title>src/ResourceManager/ResourceManager.hpp</title>
<!-- Node1 -->
<g id="node1" class="node"><title>Node1</title>
<polygon fill="#bfbfbf" stroke="black" points="197,-280.5 197,-310.5 322,-310.5 322,-280.5 197,-280.5"/>
<text text-anchor="start" x="205" y="-298.5" font-family="Helvetica,sans-Serif" font-size="10.00">src/ResourceManager</text>
<text text-anchor="middle" x="259.5" y="-287.5" font-family="Helvetica,sans-Serif" font-size="10.00">/ResourceManager.hpp</text>
</g>
<!-- Node2 -->
<g id="node2" class="node"><title>Node2</title>
<polygon fill="none" stroke="#bfbfbf" points="0,-224.5 0,-243.5 57,-243.5 57,-224.5 0,-224.5"/>
<text text-anchor="middle" x="28.5" y="-231.5" font-family="Helvetica,sans-Serif" font-size="10.00">memory</text>
</g>
<!-- Node1&#45;&gt;Node2 -->
<g id="edge1" class="edge"><title>Node1&#45;&gt;Node2</title>
<path fill="none" stroke="midnightblue" d="M205.049,-280.475C162.741,-269.577 105.098,-254.73 67.356,-245.008"/>
<polygon fill="midnightblue" stroke="midnightblue" points="67.8248,-241.515 57.2679,-242.41 66.0788,-248.294 67.8248,-241.515"/>
</g>
<!-- Node3 -->
<g id="node3" class="node"><title>Node3</title>
<polygon fill="none" stroke="#bfbfbf" points="75,-224.5 75,-243.5 122,-243.5 122,-224.5 75,-224.5"/>
<text text-anchor="middle" x="98.5" y="-231.5" font-family="Helvetica,sans-Serif" font-size="10.00">vector</text>
</g>
<!-- Node1&#45;&gt;Node3 -->
<g id="edge2" class="edge"><title>Node1&#45;&gt;Node3</title>
<path fill="none" stroke="midnightblue" d="M221.345,-280.399C193.97,-270.283 157.463,-256.791 131.374,-247.149"/>
<polygon fill="midnightblue" stroke="midnightblue" points="132.52,-243.841 121.927,-243.658 130.094,-250.407 132.52,-243.841"/>
</g>
<!-- Node4 -->
<g id="node4" class="node"><title>Node4</title>
<g id="a_node4"><a xlink:href="Music_8hpp.html" target="_top" xlink:title="Music.hpp">
<polygon fill="none" stroke="black" points="227,-224.5 227,-243.5 292,-243.5 292,-224.5 227,-224.5"/>
<text text-anchor="middle" x="259.5" y="-231.5" font-family="Helvetica,sans-Serif" font-size="10.00">Music.hpp</text>
</a>
</g>
</g>
<!-- Node1&#45;&gt;Node4 -->
<g id="edge3" class="edge"><title>Node1&#45;&gt;Node4</title>
<path fill="none" stroke="midnightblue" d="M259.5,-280.399C259.5,-272.466 259.5,-262.458 259.5,-253.858"/>
<polygon fill="midnightblue" stroke="midnightblue" points="263,-253.658 259.5,-243.658 256,-253.658 263,-253.658"/>
</g>
<!-- Node7 -->
<g id="node7" class="node"><title>Node7</title>
<g id="a_node7"><a xlink:href="ResourceManager_2Sound_8hpp.html" target="_top" xlink:title="Sound.hpp">
<polygon fill="none" stroke="black" points="140.5,-224.5 140.5,-243.5 208.5,-243.5 208.5,-224.5 140.5,-224.5"/>
<text text-anchor="middle" x="174.5" y="-231.5" font-family="Helvetica,sans-Serif" font-size="10.00">Sound.hpp</text>
</a>
</g>
</g>
<!-- Node1&#45;&gt;Node7 -->
<g id="edge6" class="edge"><title>Node1&#45;&gt;Node7</title>
<path fill="none" stroke="midnightblue" d="M239.356,-280.399C226.113,-271.129 208.822,-259.025 195.424,-249.647"/>
<polygon fill="midnightblue" stroke="midnightblue" points="197.068,-246.525 186.868,-243.658 193.053,-252.26 197.068,-246.525"/>
</g>
<!-- Node8 -->
<g id="node8" class="node"><title>Node8</title>
<g id="a_node8"><a xlink:href="Texture_8hpp.html" target="_top" xlink:title="Texture.hpp">
<polygon fill="none" stroke="black" points="396.5,-224.5 396.5,-243.5 468.5,-243.5 468.5,-224.5 396.5,-224.5"/>
<text text-anchor="middle" x="432.5" y="-231.5" font-family="Helvetica,sans-Serif" font-size="10.00">Texture.hpp</text>
</a>
</g>
</g>
<!-- Node1&#45;&gt;Node8 -->
<g id="edge9" class="edge"><title>Node1&#45;&gt;Node8</title>
<path fill="none" stroke="midnightblue" d="M300.499,-280.399C330.132,-270.207 369.726,-256.59 397.798,-246.935"/>
<polygon fill="midnightblue" stroke="midnightblue" points="399.261,-250.133 407.58,-243.571 396.985,-243.514 399.261,-250.133"/>
</g>
<!-- Node11 -->
<g id="node11" class="node"><title>Node11</title>
<g id="a_node11"><a xlink:href="Font_8hpp.html" target="_top" xlink:title="Font.hpp">
<polygon fill="none" stroke="black" points="310,-224.5 310,-243.5 369,-243.5 369,-224.5 310,-224.5"/>
<text text-anchor="middle" x="339.5" y="-231.5" font-family="Helvetica,sans-Serif" font-size="10.00">Font.hpp</text>
</a>
</g>
</g>
<!-- Node1&#45;&gt;Node11 -->
<g id="edge12" class="edge"><title>Node1&#45;&gt;Node11</title>
<path fill="none" stroke="midnightblue" d="M278.459,-280.399C290.923,-271.129 307.197,-259.025 319.807,-249.647"/>
<polygon fill="midnightblue" stroke="midnightblue" points="321.924,-252.434 327.859,-243.658 317.747,-246.817 321.924,-252.434"/>
</g>
<!-- Node13 -->
<g id="node13" class="node"><title>Node13</title>
<g id="a_node13"><a xlink:href="Text_8hpp.html" target="_top" xlink:title="Text.hpp">
<polygon fill="none" stroke="black" points="658.5,-224.5 658.5,-243.5 714.5,-243.5 714.5,-224.5 658.5,-224.5"/>
<text text-anchor="middle" x="686.5" y="-231.5" font-family="Helvetica,sans-Serif" font-size="10.00">Text.hpp</text>
</a>
</g>
</g>
<!-- Node1&#45;&gt;Node13 -->
<g id="edge15" class="edge"><title>Node1&#45;&gt;Node13</title>
<path fill="none" stroke="midnightblue" d="M322.047,-285.784C411.797,-273.278 574.414,-250.618 648.223,-240.334"/>
<polygon fill="midnightblue" stroke="midnightblue" points="649.028,-243.755 658.449,-238.909 648.061,-236.822 649.028,-243.755"/>
</g>
<!-- Node5 -->
<g id="node5" class="node"><title>Node5</title>
<polygon fill="none" stroke="#bfbfbf" points="188,-168.5 188,-187.5 281,-187.5 281,-168.5 188,-168.5"/>
<text text-anchor="middle" x="234.5" y="-175.5" font-family="Helvetica,sans-Serif" font-size="10.00">SFML/Audio.hpp</text>
</g>
<!-- Node4&#45;&gt;Node5 -->
<g id="edge4" class="edge"><title>Node4&#45;&gt;Node5</title>
<path fill="none" stroke="midnightblue" d="M255.372,-224.083C251.986,-216.77 247.084,-206.181 242.881,-197.103"/>
<polygon fill="midnightblue" stroke="midnightblue" points="245.929,-195.355 238.551,-187.751 239.577,-198.296 245.929,-195.355"/>
</g>
<!-- Node6 -->
<g id="node6" class="node"><title>Node6</title>
<g id="a_node6"><a xlink:href="IAudio_8hpp.html" target="_top" xlink:title="IAudio.hpp">
<polygon fill="none" stroke="black" points="103,-168.5 103,-187.5 170,-187.5 170,-168.5 103,-168.5"/>
<text text-anchor="middle" x="136.5" y="-175.5" font-family="Helvetica,sans-Serif" font-size="10.00">IAudio.hpp</text>
</a>
</g>
</g>
<!-- Node4&#45;&gt;Node6 -->
<g id="edge5" class="edge"><title>Node4&#45;&gt;Node6</title>
<path fill="none" stroke="midnightblue" d="M240.01,-224.444C219.858,-215.596 188.177,-201.687 165.169,-191.586"/>
<polygon fill="midnightblue" stroke="midnightblue" points="166.462,-188.332 155.899,-187.516 163.648,-194.741 166.462,-188.332"/>
</g>
<!-- Node7&#45;&gt;Node5 -->
<g id="edge7" class="edge"><title>Node7&#45;&gt;Node5</title>
<path fill="none" stroke="midnightblue" d="M184.14,-224.324C193.01,-216.341 206.375,-204.313 217.108,-194.653"/>
<polygon fill="midnightblue" stroke="midnightblue" points="219.593,-197.125 224.685,-187.834 214.91,-191.922 219.593,-197.125"/>
</g>
<!-- Node7&#45;&gt;Node6 -->
<g id="edge8" class="edge"><title>Node7&#45;&gt;Node6</title>
<path fill="none" stroke="midnightblue" d="M168.225,-224.083C162.858,-216.455 154.982,-205.264 148.421,-195.941"/>
<polygon fill="midnightblue" stroke="midnightblue" points="151.275,-193.915 142.658,-187.751 145.551,-197.943 151.275,-193.915"/>
</g>
<!-- Node9 -->
<g id="node9" class="node"><title>Node9</title>
<polygon fill="none" stroke="#bfbfbf" points="378.5,-168.5 378.5,-187.5 486.5,-187.5 486.5,-168.5 378.5,-168.5"/>
<text text-anchor="middle" x="432.5" y="-175.5" font-family="Helvetica,sans-Serif" font-size="10.00">SFML/Graphics.hpp</text>
</g>
<!-- Node8&#45;&gt;Node9 -->
<g id="edge10" class="edge"><title>Node8&#45;&gt;Node9</title>
<path fill="none" stroke="midnightblue" d="M432.5,-224.083C432.5,-217.006 432.5,-206.861 432.5,-197.986"/>
<polygon fill="midnightblue" stroke="midnightblue" points="436,-197.751 432.5,-187.751 429,-197.751 436,-197.751"/>
</g>
<!-- Node10 -->
<g id="node10" class="node"><title>Node10</title>
<g id="a_node10"><a xlink:href="ITexture_8hpp.html" target="_top" xlink:title="ITexture.hpp">
<polygon fill="none" stroke="black" points="504.5,-168.5 504.5,-187.5 578.5,-187.5 578.5,-168.5 504.5,-168.5"/>
<text text-anchor="middle" x="541.5" y="-175.5" font-family="Helvetica,sans-Serif" font-size="10.00">ITexture.hpp</text>
</a>
</g>
</g>
<!-- Node8&#45;&gt;Node10 -->
<g id="edge11" class="edge"><title>Node8&#45;&gt;Node10</title>
<path fill="none" stroke="midnightblue" d="M450.013,-224.324C467.572,-215.625 494.831,-202.12 515.031,-192.113"/>
<polygon fill="midnightblue" stroke="midnightblue" points="516.624,-195.23 524.031,-187.655 513.516,-188.958 516.624,-195.23"/>
</g>
<!-- Node11&#45;&gt;Node9 -->
<g id="edge13" class="edge"><title>Node11&#45;&gt;Node9</title>
<path fill="none" stroke="midnightblue" d="M354.442,-224.324C369.085,-215.822 391.634,-202.729 408.738,-192.797"/>
<polygon fill="midnightblue" stroke="midnightblue" points="410.705,-195.703 417.595,-187.655 407.19,-189.649 410.705,-195.703"/>
</g>
<!-- Node12 -->
<g id="node12" class="node"><title>Node12</title>
<g id="a_node12"><a xlink:href="IFont_8hpp.html" target="_top" xlink:title="IFont.hpp">
<polygon fill="none" stroke="black" points="299,-168.5 299,-187.5 360,-187.5 360,-168.5 299,-168.5"/>
<text text-anchor="middle" x="329.5" y="-175.5" font-family="Helvetica,sans-Serif" font-size="10.00">IFont.hpp</text>
</a>
</g>
</g>
<!-- Node11&#45;&gt;Node12 -->
<g id="edge14" class="edge"><title>Node11&#45;&gt;Node12</title>
<path fill="none" stroke="midnightblue" d="M337.849,-224.083C336.524,-216.927 334.618,-206.635 332.961,-197.691"/>
<polygon fill="midnightblue" stroke="midnightblue" points="336.383,-196.947 331.121,-187.751 329.5,-198.221 336.383,-196.947"/>
</g>
<!-- Node14 -->
<g id="node14" class="node"><title>Node14</title>
<polygon fill="none" stroke="#bfbfbf" points="712,-0.5 712,-19.5 775,-19.5 775,-0.5 712,-0.5"/>
<text text-anchor="middle" x="743.5" y="-7.5" font-family="Helvetica,sans-Serif" font-size="10.00">typeindex</text>
</g>
<!-- Node13&#45;&gt;Node14 -->
<g id="edge16" class="edge"><title>Node13&#45;&gt;Node14</title>
<path fill="none" stroke="midnightblue" d="M688.734,-224.297C697.139,-191.563 726.971,-75.3752 738.707,-29.6664"/>
<polygon fill="midnightblue" stroke="midnightblue" points="742.122,-30.44 741.219,-19.8837 735.342,-28.6991 742.122,-30.44"/>
</g>
<!-- Node15 -->
<g id="node15" class="node"><title>Node15</title>
<polygon fill="none" stroke="#bfbfbf" points="836.5,-168.5 836.5,-187.5 880.5,-187.5 880.5,-168.5 836.5,-168.5"/>
<text text-anchor="middle" x="858.5" y="-175.5" font-family="Helvetica,sans-Serif" font-size="10.00">string</text>
</g>
<!-- Node13&#45;&gt;Node15 -->
<g id="edge17" class="edge"><title>Node13&#45;&gt;Node15</title>
<path fill="none" stroke="midnightblue" d="M713.754,-224.444C744.354,-214.837 793.961,-199.262 826.41,-189.075"/>
<polygon fill="midnightblue" stroke="midnightblue" points="827.804,-192.306 836.296,-185.971 825.707,-185.627 827.804,-192.306"/>
</g>
<!-- Node16 -->
<g id="node16" class="node"><title>Node16</title>
<g id="a_node16"><a xlink:href="Color_8hpp.html" target="_top" xlink:title="Color.hpp">
<polygon fill="none" stroke="black" points="596.5,-168.5 596.5,-187.5 658.5,-187.5 658.5,-168.5 596.5,-168.5"/>
<text text-anchor="middle" x="627.5" y="-175.5" font-family="Helvetica,sans-Serif" font-size="10.00">Color.hpp</text>
</a>
</g>
</g>
<!-- Node13&#45;&gt;Node16 -->
<g id="edge18" class="edge"><title>Node13&#45;&gt;Node16</title>
<path fill="none" stroke="midnightblue" d="M677.021,-224.324C668.299,-216.341 655.157,-204.313 644.602,-194.653"/>
<polygon fill="midnightblue" stroke="midnightblue" points="646.892,-192.004 637.152,-187.834 642.166,-197.167 646.892,-192.004"/>
</g>
<!-- Node17 -->
<g id="node17" class="node"><title>Node17</title>
<g id="a_node17"><a xlink:href="IUserInterface_8hpp.html" target="_top" xlink:title="IUserInterface.hpp">
<polygon fill="none" stroke="black" points="714.5,-168.5 714.5,-187.5 818.5,-187.5 818.5,-168.5 714.5,-168.5"/>
<text text-anchor="middle" x="766.5" y="-175.5" font-family="Helvetica,sans-Serif" font-size="10.00">IUserInterface.hpp</text>
</a>
</g>
</g>
<!-- Node13&#45;&gt;Node17 -->
<g id="edge19" class="edge"><title>Node13&#45;&gt;Node17</title>
<path fill="none" stroke="midnightblue" d="M699.353,-224.324C711.716,-215.979 730.63,-203.212 745.237,-193.352"/>
<polygon fill="midnightblue" stroke="midnightblue" points="747.348,-196.15 753.679,-187.655 743.432,-190.348 747.348,-196.15"/>
</g>
<!-- Node17&#45;&gt;Node14 -->
<g id="edge20" class="edge"><title>Node17&#45;&gt;Node14</title>
<path fill="none" stroke="midnightblue" d="M760.886,-168.475C755.488,-159.735 747.692,-145.543 744.5,-132 736.175,-96.6805 738.629,-53.9355 741.106,-29.8658"/>
<polygon fill="midnightblue" stroke="midnightblue" points="744.614,-29.9982 742.277,-19.6643 737.66,-29.2 744.614,-29.9982"/>
</g>
<!-- Node18 -->
<g id="node18" class="node"><title>Node18</title>
<g id="a_node18"><a xlink:href="IDisplay_8hpp.html" target="_top" xlink:title="IDisplay.hpp">
<polygon fill="none" stroke="black" points="753,-112.5 753,-131.5 826,-131.5 826,-112.5 753,-112.5"/>
<text text-anchor="middle" x="789.5" y="-119.5" font-family="Helvetica,sans-Serif" font-size="10.00">IDisplay.hpp</text>
</a>
</g>
</g>
<!-- Node17&#45;&gt;Node18 -->
<g id="edge21" class="edge"><title>Node17&#45;&gt;Node18</title>
<path fill="none" stroke="midnightblue" d="M770.298,-168.083C773.413,-160.77 777.923,-150.181 781.789,-141.103"/>
<polygon fill="midnightblue" stroke="midnightblue" points="785.074,-142.323 785.773,-131.751 778.634,-139.58 785.074,-142.323"/>
</g>
<!-- Node18&#45;&gt;Node14 -->
<g id="edge22" class="edge"><title>Node18&#45;&gt;Node14</title>
<path fill="none" stroke="midnightblue" d="M785.89,-112.368C778.4,-94.4563 761.032,-52.9233 751.006,-28.9482"/>
<polygon fill="midnightblue" stroke="midnightblue" points="754.18,-27.4669 747.093,-19.5914 747.722,-30.1676 754.18,-27.4669"/>
</g>
<!-- Node19 -->
<g id="node19" class="node"><title>Node19</title>
<g id="a_node19"><a xlink:href="IComponent_8hpp.html" target="_top" xlink:title="IComponent.hpp">
<polygon fill="none" stroke="black" points="790.5,-56.5 790.5,-75.5 886.5,-75.5 886.5,-56.5 790.5,-56.5"/>
<text text-anchor="middle" x="838.5" y="-63.5" font-family="Helvetica,sans-Serif" font-size="10.00">IComponent.hpp</text>
</a>
</g>
</g>
<!-- Node18&#45;&gt;Node19 -->
<g id="edge23" class="edge"><title>Node18&#45;&gt;Node19</title>
<path fill="none" stroke="midnightblue" d="M797.591,-112.083C804.655,-104.298 815.088,-92.8015 823.649,-83.3665"/>
<polygon fill="midnightblue" stroke="midnightblue" points="826.431,-85.5087 830.559,-75.7511 821.247,-80.8047 826.431,-85.5087"/>
</g>
<!-- Node19&#45;&gt;Node14 -->
<g id="edge24" class="edge"><title>Node19&#45;&gt;Node14</title>
<path fill="none" stroke="midnightblue" d="M823.237,-56.324C808.279,-47.8215 785.245,-34.7288 767.773,-24.7975"/>
<polygon fill="midnightblue" stroke="midnightblue" points="769.149,-21.5534 758.726,-19.6545 765.69,-27.639 769.149,-21.5534"/>
</g>
</g>
</svg>
