<?xml version="1.0" encoding="UTF-8" standalone="no"?>
<!DOCTYPE svg PUBLIC "-//W3C//DTD SVG 1.1//EN"
 "http://www.w3.org/Graphics/SVG/1.1/DTD/svg11.dtd">
<!-- Generated by graphviz version 2.38.0 (20140413.2041)
 -->
<!-- Title: src/ResourceManager/ResourceManager.cpp Pages: 1 -->
<!--zoomable 375 -->
<svg id="main" version="1.1" xmlns="http://www.w3.org/2000/svg" xmlns:xlink="http://www.w3.org/1999/xlink" xml:space="preserve" onload="init(evt)">
<style type="text/css"><![CDATA[
.edge:hover path { stroke: red; }
.edge:hover polygon { stroke: red; fill: red; }
]]></style>
<script type="text/javascript"><![CDATA[
var edges = document.getElementsByTagName('g');
if (edges && edges.length) {
  for (var i=0;i<edges.length;i++) {
    if (edges[i].id.substr(0,4)=='edge') {
      edges[i].setAttribute('class','edge');
    }
  }
}
]]></script>
        <defs>
                <circle id="rim" cx="0" cy="0" r="7"/>
                <circle id="rim2" cx="0" cy="0" r="3.5"/>
                <g id="zoomPlus">
                        <use xlink:href="#rim" fill="#404040">
                                <set attributeName="fill" to="#808080" begin="zoomplus.mouseover" end="zoomplus.mouseout"/>
                        </use>
                        <path d="M-4,0h8M0,-4v8" fill="none" stroke="white" stroke-width="1.5" pointer-events="none"/>
                </g>
                <g id="zoomMin">
                        <use xlink:href="#rim" fill="#404040">
                                <set attributeName="fill" to="#808080" begin="zoomminus.mouseover" end="zoomminus.mouseout"/>
                        </use>
                        <path d="M-4,0h8" fill="none" stroke="white" stroke-width="1.5" pointer-events="none"/>
                </g>
                <g id="dirArrow">
                        <path fill="none" stroke="white" stroke-width="1.5" d="M0,-3.0v7 M-2.5,-0.5L0,-3.0L2.5,-0.5"/>
                </g>
               <g id="resetDef">
                       <use xlink:href="#rim2" fill="#404040">
                               <set attributeName="fill" to="#808080" begin="reset.mouseover" end="reset.mouseout"/>
                       </use>
               </g>
        </defs>

<script type="text/javascript">
var viewWidth = 899;
var viewHeight = 375;
var sectionId = 'dynsection-0';
</script>
<script xlink:href="svgpan.js"/>
<svg id="graph" class="graph">
<g id="viewport">
<title>src/ResourceManager/ResourceManager.cpp</title>
<!-- Node1 -->
<g id="node1" class="node"><title>Node1</title>
<polygon fill="#bfbfbf" stroke="black" points="150,-336.5 150,-366.5 275,-366.5 275,-336.5 150,-336.5"/>
<text text-anchor="start" x="158" y="-354.5" font-family="Helvetica,sans-Serif" font-size="10.00">src/ResourceManager</text>
<text text-anchor="middle" x="212.5" y="-343.5" font-family="Helvetica,sans-Serif" font-size="10.00">/ResourceManager.cpp</text>
</g>
<!-- Node2 -->
<g id="node2" class="node"><title>Node2</title>
<polygon fill="none" stroke="#bfbfbf" points="81,-280.5 81,-299.5 140,-299.5 140,-280.5 81,-280.5"/>
<text text-anchor="middle" x="110.5" y="-287.5" font-family="Helvetica,sans-Serif" font-size="10.00">iostream</text>
</g>
<!-- Node1&#45;&gt;Node2 -->
<g id="edge1" class="edge"><title>Node1&#45;&gt;Node2</title>
<path fill="none" stroke="midnightblue" d="M188.327,-336.399C171.978,-326.862 150.485,-314.325 134.23,-304.842"/>
<polygon fill="midnightblue" stroke="midnightblue" points="135.743,-301.673 125.342,-299.658 132.216,-307.72 135.743,-301.673"/>
</g>
<!-- Node3 -->
<g id="node3" class="node"><title>Node3</title>
<polygon fill="none" stroke="#bfbfbf" points="0,-224.5 0,-243.5 57,-243.5 57,-224.5 0,-224.5"/>
<text text-anchor="middle" x="28.5" y="-231.5" font-family="Helvetica,sans-Serif" font-size="10.00">memory</text>
</g>
<!-- Node1&#45;&gt;Node3 -->
<g id="edge2" class="edge"><title>Node1&#45;&gt;Node3</title>
<path fill="none" stroke="midnightblue" d="M202.955,-336.483C191.618,-320.78 171.343,-295.502 148.5,-280 134.605,-270.571 95.38,-256.617 65.524,-246.752"/>
<polygon fill="midnightblue" stroke="midnightblue" points="66.4008,-243.357 55.8082,-243.576 64.2256,-250.01 66.4008,-243.357"/>
</g>
<!-- Node4 -->
<g id="node4" class="node"><title>Node4</title>
<g id="a_node4"><a xlink:href="ResourceManager_8hpp.html" target="_top" xlink:title="ResourceManager.hpp">
<polygon fill="none" stroke="black" points="196.5,-280.5 196.5,-299.5 318.5,-299.5 318.5,-280.5 196.5,-280.5"/>
<text text-anchor="middle" x="257.5" y="-287.5" font-family="Helvetica,sans-Serif" font-size="10.00">ResourceManager.hpp</text>
</a>
</g>
</g>
<!-- Node1&#45;&gt;Node4 -->
<g id="edge3" class="edge"><title>Node1&#45;&gt;Node4</title>
<path fill="none" stroke="midnightblue" d="M223.164,-336.399C229.636,-327.842 237.934,-316.871 244.751,-307.857"/>
<polygon fill="midnightblue" stroke="midnightblue" points="247.711,-309.745 250.952,-299.658 242.128,-305.522 247.711,-309.745"/>
</g>
<!-- Node22 -->
<g id="node22" class="node"><title>Node22</title>
<g id="a_node22"><a xlink:href="ECSExceptions_8hpp.html" target="_top" xlink:title="ECSExceptions.hpp">
<polygon fill="none" stroke="black" points="692,-280.5 692,-299.5 801,-299.5 801,-280.5 692,-280.5"/>
<text text-anchor="middle" x="746.5" y="-287.5" font-family="Helvetica,sans-Serif" font-size="10.00">ECSExceptions.hpp</text>
</a>
</g>
</g>
<!-- Node1&#45;&gt;Node22 -->
<g id="edge28" class="edge"><title>Node1&#45;&gt;Node22</title>
<path fill="none" stroke="midnightblue" d="M275.064,-343.529C377.148,-332.154 578.501,-309.719 681.892,-298.199"/>
<polygon fill="midnightblue" stroke="midnightblue" points="682.337,-301.671 691.888,-297.085 681.562,-294.714 682.337,-301.671"/>
</g>
<!-- Node4&#45;&gt;Node3 -->
<g id="edge4" class="edge"><title>Node4&#45;&gt;Node3</title>
<path fill="none" stroke="midnightblue" d="M220.671,-280.465C184.043,-271.955 125.978,-258.407 67.0275,-244.352"/>
<polygon fill="midnightblue" stroke="midnightblue" points="67.7169,-240.918 57.1775,-242.001 66.0916,-247.727 67.7169,-240.918"/>
</g>
<!-- Node5 -->
<g id="node5" class="node"><title>Node5</title>
<polygon fill="none" stroke="#bfbfbf" points="75,-224.5 75,-243.5 122,-243.5 122,-224.5 75,-224.5"/>
<text text-anchor="middle" x="98.5" y="-231.5" font-family="Helvetica,sans-Serif" font-size="10.00">vector</text>
</g>
<!-- Node4&#45;&gt;Node5 -->
<g id="edge5" class="edge"><title>Node4&#45;&gt;Node5</title>
<path fill="none" stroke="midnightblue" d="M232.306,-280.444C205.085,-271.199 161.594,-256.428 131.624,-246.25"/>
<polygon fill="midnightblue" stroke="midnightblue" points="132.616,-242.89 122.021,-242.988 130.364,-249.518 132.616,-242.89"/>
</g>
<!-- Node6 -->
<g id="node6" class="node"><title>Node6</title>
<g id="a_node6"><a xlink:href="Music_8hpp.html" target="_top" xlink:title="Music.hpp">
<polygon fill="none" stroke="black" points="140,-224.5 140,-243.5 205,-243.5 205,-224.5 140,-224.5"/>
<text text-anchor="middle" x="172.5" y="-231.5" font-family="Helvetica,sans-Serif" font-size="10.00">Music.hpp</text>
</a>
</g>
</g>
<!-- Node4&#45;&gt;Node6 -->
<g id="edge6" class="edge"><title>Node4&#45;&gt;Node6</title>
<path fill="none" stroke="midnightblue" d="M243.843,-280.324C230.584,-271.9 210.232,-258.971 194.654,-249.074"/>
<polygon fill="midnightblue" stroke="midnightblue" points="196.44,-246.063 186.123,-243.655 192.687,-251.971 196.44,-246.063"/>
</g>
<!-- Node9 -->
<g id="node9" class="node"><title>Node9</title>
<g id="a_node9"><a xlink:href="ResourceManager_2Sound_8hpp.html" target="_top" xlink:title="Sound.hpp">
<polygon fill="none" stroke="black" points="223.5,-224.5 223.5,-243.5 291.5,-243.5 291.5,-224.5 223.5,-224.5"/>
<text text-anchor="middle" x="257.5" y="-231.5" font-family="Helvetica,sans-Serif" font-size="10.00">Sound.hpp</text>
</a>
</g>
</g>
<!-- Node4&#45;&gt;Node9 -->
<g id="edge9" class="edge"><title>Node4&#45;&gt;Node9</title>
<path fill="none" stroke="midnightblue" d="M257.5,-280.083C257.5,-273.006 257.5,-262.861 257.5,-253.986"/>
<polygon fill="midnightblue" stroke="midnightblue" points="261,-253.751 257.5,-243.751 254,-253.751 261,-253.751"/>
</g>
<!-- Node10 -->
<g id="node10" class="node"><title>Node10</title>
<g id="a_node10"><a xlink:href="Texture_8hpp.html" target="_top" xlink:title="Texture.hpp">
<polygon fill="none" stroke="black" points="387.5,-224.5 387.5,-243.5 459.5,-243.5 459.5,-224.5 387.5,-224.5"/>
<text text-anchor="middle" x="423.5" y="-231.5" font-family="Helvetica,sans-Serif" font-size="10.00">Texture.hpp</text>
</a>
</g>
</g>
<!-- Node4&#45;&gt;Node10 -->
<g id="edge12" class="edge"><title>Node4&#45;&gt;Node10</title>
<path fill="none" stroke="midnightblue" d="M283.803,-280.444C311.851,-271.32 356.444,-256.813 387.684,-246.651"/>
<polygon fill="midnightblue" stroke="midnightblue" points="388.893,-249.938 397.32,-243.516 386.728,-243.282 388.893,-249.938"/>
</g>
<!-- Node13 -->
<g id="node13" class="node"><title>Node13</title>
<g id="a_node13"><a xlink:href="Font_8hpp.html" target="_top" xlink:title="Font.hpp">
<polygon fill="none" stroke="black" points="310,-224.5 310,-243.5 369,-243.5 369,-224.5 310,-224.5"/>
<text text-anchor="middle" x="339.5" y="-231.5" font-family="Helvetica,sans-Serif" font-size="10.00">Font.hpp</text>
</a>
</g>
</g>
<!-- Node4&#45;&gt;Node13 -->
<g id="edge15" class="edge"><title>Node4&#45;&gt;Node13</title>
<path fill="none" stroke="midnightblue" d="M270.675,-280.324C283.347,-271.979 302.733,-259.212 317.706,-249.352"/>
<polygon fill="midnightblue" stroke="midnightblue" points="319.931,-252.078 326.358,-243.655 316.081,-246.231 319.931,-252.078"/>
</g>
<!-- Node15 -->
<g id="node15" class="node"><title>Node15</title>
<g id="a_node15"><a xlink:href="Text_8hpp.html" target="_top" xlink:title="Text.hpp">
<polygon fill="none" stroke="black" points="662.5,-224.5 662.5,-243.5 718.5,-243.5 718.5,-224.5 662.5,-224.5"/>
<text text-anchor="middle" x="690.5" y="-231.5" font-family="Helvetica,sans-Serif" font-size="10.00">Text.hpp</text>
</a>
</g>
</g>
<!-- Node4&#45;&gt;Node15 -->
<g id="edge18" class="edge"><title>Node4&#45;&gt;Node15</title>
<path fill="none" stroke="midnightblue" d="M318.62,-281.378C409.46,-270.049 577.435,-249.101 652.515,-239.737"/>
<polygon fill="midnightblue" stroke="midnightblue" points="652.985,-243.206 662.475,-238.495 652.119,-236.26 652.985,-243.206"/>
</g>
<!-- Node7 -->
<g id="node7" class="node"><title>Node7</title>
<polygon fill="none" stroke="#bfbfbf" points="61,-168.5 61,-187.5 154,-187.5 154,-168.5 61,-168.5"/>
<text text-anchor="middle" x="107.5" y="-175.5" font-family="Helvetica,sans-Serif" font-size="10.00">SFML/Audio.hpp</text>
</g>
<!-- Node6&#45;&gt;Node7 -->
<g id="edge7" class="edge"><title>Node6&#45;&gt;Node7</title>
<path fill="none" stroke="midnightblue" d="M162.057,-224.324C152.354,-216.263 137.685,-204.077 126,-194.369"/>
<polygon fill="midnightblue" stroke="midnightblue" points="128.062,-191.532 118.133,-187.834 123.589,-196.916 128.062,-191.532"/>
</g>
<!-- Node8 -->
<g id="node8" class="node"><title>Node8</title>
<g id="a_node8"><a xlink:href="IAudio_8hpp.html" target="_top" xlink:title="IAudio.hpp">
<polygon fill="none" stroke="black" points="172,-168.5 172,-187.5 239,-187.5 239,-168.5 172,-168.5"/>
<text text-anchor="middle" x="205.5" y="-175.5" font-family="Helvetica,sans-Serif" font-size="10.00">IAudio.hpp</text>
</a>
</g>
</g>
<!-- Node6&#45;&gt;Node8 -->
<g id="edge8" class="edge"><title>Node6&#45;&gt;Node8</title>
<path fill="none" stroke="midnightblue" d="M177.949,-224.083C182.514,-216.613 189.168,-205.724 194.793,-196.52"/>
<polygon fill="midnightblue" stroke="midnightblue" points="197.924,-198.109 200.152,-187.751 191.951,-194.459 197.924,-198.109"/>
</g>
<!-- Node9&#45;&gt;Node7 -->
<g id="edge10" class="edge"><title>Node9&#45;&gt;Node7</title>
<path fill="none" stroke="midnightblue" d="M233.732,-224.444C208.607,-215.399 168.789,-201.064 140.6,-190.916"/>
<polygon fill="midnightblue" stroke="midnightblue" points="141.751,-187.611 131.157,-187.516 139.38,-194.197 141.751,-187.611"/>
</g>
<!-- Node9&#45;&gt;Node8 -->
<g id="edge11" class="edge"><title>Node9&#45;&gt;Node8</title>
<path fill="none" stroke="midnightblue" d="M248.913,-224.083C241.341,-216.22 230.122,-204.569 220.986,-195.081"/>
<polygon fill="midnightblue" stroke="midnightblue" points="223.385,-192.527 213.927,-187.751 218.342,-197.382 223.385,-192.527"/>
</g>
<!-- Node11 -->
<g id="node11" class="node"><title>Node11</title>
<polygon fill="none" stroke="#bfbfbf" points="336.5,-168.5 336.5,-187.5 444.5,-187.5 444.5,-168.5 336.5,-168.5"/>
<text text-anchor="middle" x="390.5" y="-175.5" font-family="Helvetica,sans-Serif" font-size="10.00">SFML/Graphics.hpp</text>
</g>
<!-- Node10&#45;&gt;Node11 -->
<g id="edge13" class="edge"><title>Node10&#45;&gt;Node11</title>
<path fill="none" stroke="midnightblue" d="M418.051,-224.083C413.486,-216.613 406.832,-205.724 401.207,-196.52"/>
<polygon fill="midnightblue" stroke="midnightblue" points="404.049,-194.459 395.848,-187.751 398.076,-198.109 404.049,-194.459"/>
</g>
<!-- Node12 -->
<g id="node12" class="node"><title>Node12</title>
<g id="a_node12"><a xlink:href="ITexture_8hpp.html" target="_top" xlink:title="ITexture.hpp">
<polygon fill="none" stroke="black" points="462.5,-168.5 462.5,-187.5 536.5,-187.5 536.5,-168.5 462.5,-168.5"/>
<text text-anchor="middle" x="499.5" y="-175.5" font-family="Helvetica,sans-Serif" font-size="10.00">ITexture.hpp</text>
</a>
</g>
</g>
<!-- Node10&#45;&gt;Node12 -->
<g id="edge14" class="edge"><title>Node10&#45;&gt;Node12</title>
<path fill="none" stroke="midnightblue" d="M435.711,-224.324C447.276,-216.107 464.875,-203.602 478.661,-193.807"/>
<polygon fill="midnightblue" stroke="midnightblue" points="480.943,-196.479 487.067,-187.834 476.888,-190.773 480.943,-196.479"/>
</g>
<!-- Node13&#45;&gt;Node11 -->
<g id="edge16" class="edge"><title>Node13&#45;&gt;Node11</title>
<path fill="none" stroke="midnightblue" d="M347.922,-224.083C355.348,-216.22 366.352,-204.569 375.312,-195.081"/>
<polygon fill="midnightblue" stroke="midnightblue" points="377.913,-197.424 382.235,-187.751 372.824,-192.618 377.913,-197.424"/>
</g>
<!-- Node14 -->
<g id="node14" class="node"><title>Node14</title>
<g id="a_node14"><a xlink:href="IFont_8hpp.html" target="_top" xlink:title="IFont.hpp">
<polygon fill="none" stroke="black" points="257,-168.5 257,-187.5 318,-187.5 318,-168.5 257,-168.5"/>
<text text-anchor="middle" x="287.5" y="-175.5" font-family="Helvetica,sans-Serif" font-size="10.00">IFont.hpp</text>
</a>
</g>
</g>
<!-- Node13&#45;&gt;Node14 -->
<g id="edge17" class="edge"><title>Node13&#45;&gt;Node14</title>
<path fill="none" stroke="midnightblue" d="M330.913,-224.083C323.341,-216.22 312.122,-204.569 302.986,-195.081"/>
<polygon fill="midnightblue" stroke="midnightblue" points="305.385,-192.527 295.927,-187.751 300.342,-197.382 305.385,-192.527"/>
</g>
<!-- Node16 -->
<g id="node16" class="node"><title>Node16</title>
<polygon fill="none" stroke="#bfbfbf" points="636,-0.5 636,-19.5 699,-19.5 699,-0.5 636,-0.5"/>
<text text-anchor="middle" x="667.5" y="-7.5" font-family="Helvetica,sans-Serif" font-size="10.00">typeindex</text>
</g>
<!-- Node15&#45;&gt;Node16 -->
<g id="edge19" class="edge"><title>Node15&#45;&gt;Node16</title>
<path fill="none" stroke="midnightblue" d="M708.582,-224.39C722.062,-216.872 739.472,-204.565 747.5,-188 751.376,-180.001 749.254,-176.714 747.5,-168 736.846,-115.079 727.09,-102.98 700.5,-56 694.893,-46.0933 687.481,-35.8006 681.102,-27.5633"/>
<polygon fill="midnightblue" stroke="midnightblue" points="683.687,-25.1907 674.72,-19.5472 678.211,-29.5506 683.687,-25.1907"/>
</g>
<!-- Node17 -->
<g id="node17" class="node"><title>Node17</title>
<polygon fill="none" stroke="#bfbfbf" points="794.5,-168.5 794.5,-187.5 838.5,-187.5 838.5,-168.5 794.5,-168.5"/>
<text text-anchor="middle" x="816.5" y="-175.5" font-family="Helvetica,sans-Serif" font-size="10.00">string</text>
</g>
<!-- Node15&#45;&gt;Node17 -->
<g id="edge20" class="edge"><title>Node15&#45;&gt;Node17</title>
<path fill="none" stroke="midnightblue" d="M710.465,-224.444C731.109,-215.596 763.563,-201.687 787.132,-191.586"/>
<polygon fill="midnightblue" stroke="midnightblue" points="788.816,-194.673 796.628,-187.516 786.058,-188.239 788.816,-194.673"/>
</g>
<!-- Node18 -->
<g id="node18" class="node"><title>Node18</title>
<g id="a_node18"><a xlink:href="Color_8hpp.html" target="_top" xlink:title="Color.hpp">
<polygon fill="none" stroke="black" points="676.5,-168.5 676.5,-187.5 738.5,-187.5 738.5,-168.5 676.5,-168.5"/>
<text text-anchor="middle" x="707.5" y="-175.5" font-family="Helvetica,sans-Serif" font-size="10.00">Color.hpp</text>
</a>
</g>
</g>
<!-- Node15&#45;&gt;Node18 -->
<g id="edge21" class="edge"><title>Node15&#45;&gt;Node18</title>
<path fill="none" stroke="midnightblue" d="M693.307,-224.083C695.585,-216.849 698.871,-206.409 701.708,-197.397"/>
<polygon fill="midnightblue" stroke="midnightblue" points="705.081,-198.341 704.745,-187.751 698.404,-196.239 705.081,-198.341"/>
</g>
<!-- Node19 -->
<g id="node19" class="node"><title>Node19</title>
<g id="a_node19"><a xlink:href="IUserInterface_8hpp.html" target="_top" xlink:title="IUserInterface.hpp">
<polygon fill="none" stroke="black" points="554.5,-168.5 554.5,-187.5 658.5,-187.5 658.5,-168.5 554.5,-168.5"/>
<text text-anchor="middle" x="606.5" y="-175.5" font-family="Helvetica,sans-Serif" font-size="10.00">IUserInterface.hpp</text>
</a>
</g>
</g>
<!-- Node15&#45;&gt;Node19 -->
<g id="edge22" class="edge"><title>Node15&#45;&gt;Node19</title>
<path fill="none" stroke="midnightblue" d="M677.004,-224.324C663.9,-215.9 643.788,-202.971 628.393,-193.074"/>
<polygon fill="midnightblue" stroke="midnightblue" points="630.267,-190.118 619.963,-187.655 626.482,-196.006 630.267,-190.118"/>
</g>
<!-- Node19&#45;&gt;Node16 -->
<g id="edge23" class="edge"><title>Node19&#45;&gt;Node16</title>
<path fill="none" stroke="midnightblue" d="M617.427,-168.483C636.528,-152.739 675.048,-116.929 686.5,-76 690.994,-59.9403 684.675,-41.7221 678.145,-28.6678"/>
<polygon fill="midnightblue" stroke="midnightblue" points="681.166,-26.8965 673.287,-19.8128 675.029,-30.2636 681.166,-26.8965"/>
</g>
<!-- Node20 -->
<g id="node20" class="node"><title>Node20</title>
<g id="a_node20"><a xlink:href="IDisplay_8hpp.html" target="_top" xlink:title="IDisplay.hpp">
<polygon fill="none" stroke="black" points="570,-112.5 570,-131.5 643,-131.5 643,-112.5 570,-112.5"/>
<text text-anchor="middle" x="606.5" y="-119.5" font-family="Helvetica,sans-Serif" font-size="10.00">IDisplay.hpp</text>
</a>
</g>
</g>
<!-- Node19&#45;&gt;Node20 -->
<g id="edge24" class="edge"><title>Node19&#45;&gt;Node20</title>
<path fill="none" stroke="midnightblue" d="M606.5,-168.083C606.5,-161.006 606.5,-150.861 606.5,-141.986"/>
<polygon fill="midnightblue" stroke="midnightblue" points="610,-141.751 606.5,-131.751 603,-141.751 610,-141.751"/>
</g>
<!-- Node20&#45;&gt;Node16 -->
<g id="edge25" class="edge"><title>Node20&#45;&gt;Node16</title>
<path fill="none" stroke="midnightblue" d="M596.048,-112.337C582.031,-99.6363 560.242,-75.3706 572.5,-56 584.272,-37.3987 606.041,-26.336 625.773,-19.8376"/>
<polygon fill="midnightblue" stroke="midnightblue" points="626.961,-23.1355 635.542,-16.9204 624.958,-16.4282 626.961,-23.1355"/>
</g>
<!-- Node21 -->
<g id="node21" class="node"><title>Node21</title>
<g id="a_node21"><a xlink:href="IComponent_8hpp.html" target="_top" xlink:title="IComponent.hpp">
<polygon fill="none" stroke="black" points="581.5,-56.5 581.5,-75.5 677.5,-75.5 677.5,-56.5 581.5,-56.5"/>
<text text-anchor="middle" x="629.5" y="-63.5" font-family="Helvetica,sans-Serif" font-size="10.00">IComponent.hpp</text>
</a>
</g>
</g>
<!-- Node20&#45;&gt;Node21 -->
<g id="edge26" class="edge"><title>Node20&#45;&gt;Node21</title>
<path fill="none" stroke="midnightblue" d="M610.298,-112.083C613.413,-104.77 617.923,-94.1814 621.789,-85.1034"/>
<polygon fill="midnightblue" stroke="midnightblue" points="625.074,-86.3229 625.773,-75.7511 618.634,-83.5798 625.074,-86.3229"/>
</g>
<!-- Node21&#45;&gt;Node16 -->
<g id="edge27" class="edge"><title>Node21&#45;&gt;Node16</title>
<path fill="none" stroke="midnightblue" d="M635.775,-56.083C641.142,-48.4554 649.018,-37.2645 655.579,-27.9408"/>
<polygon fill="midnightblue" stroke="midnightblue" points="658.449,-29.9434 661.342,-19.7511 652.725,-25.9149 658.449,-29.9434"/>
</g>
<!-- Node22&#45;&gt;Node17 -->
<g id="edge29" class="edge"><title>Node22&#45;&gt;Node17</title>
<path fill="none" stroke="midnightblue" d="M747.468,-280.373C749.262,-267.294 754.023,-242.06 765.5,-224 773.021,-212.165 784.538,-201.627 794.726,-193.73"/>
<polygon fill="midnightblue" stroke="midnightblue" points="796.876,-196.493 802.854,-187.746 792.726,-190.856 796.876,-196.493"/>
</g>
<!-- Node23 -->
<g id="node23" class="node"><title>Node23</title>
<g id="a_node23"><a xlink:href="RTypeExceptions_8hpp.html" target="_top" xlink:title="RTypeExceptions.hpp">
<polygon fill="none" stroke="black" points="774.5,-224.5 774.5,-243.5 890.5,-243.5 890.5,-224.5 774.5,-224.5"/>
<text text-anchor="middle" x="832.5" y="-231.5" font-family="Helvetica,sans-Serif" font-size="10.00">RTypeExceptions.hpp</text>
</a>
</g>
</g>
<!-- Node22&#45;&gt;Node23 -->
<g id="edge30" class="edge"><title>Node22&#45;&gt;Node23</title>
<path fill="none" stroke="midnightblue" d="M760.317,-280.324C773.733,-271.9 794.324,-258.971 810.086,-249.074"/>
<polygon fill="midnightblue" stroke="midnightblue" points="812.109,-251.936 818.717,-243.655 808.387,-246.008 812.109,-251.936"/>
</g>
<!-- Node23&#45;&gt;Node17 -->
<g id="edge31" class="edge"><title>Node23&#45;&gt;Node17</title>
<path fill="none" stroke="midnightblue" d="M829.858,-224.083C827.714,-216.849 824.621,-206.409 821.951,-197.397"/>
<polygon fill="midnightblue" stroke="midnightblue" points="825.29,-196.345 819.093,-187.751 818.578,-198.333 825.29,-196.345"/>
</g>
</g>
</svg>
        <g id="navigator" transform="translate(0 0)" fill="#404254">
                <rect fill="#f2f5e9" fill-opacity="0.5" stroke="#606060" stroke-width=".5" x="0" y="0" width="60" height="60"/>
                <use id="zoomplus" xlink:href="#zoomPlus" x="17" y="9" onmousedown="handleZoom(evt,'in')"/>
                <use id="zoomminus" xlink:href="#zoomMin" x="42" y="9" onmousedown="handleZoom(evt,'out')"/>
                <use id="reset" xlink:href="#resetDef" x="30" y="36" onmousedown="handleReset()"/>
                <g id="arrowUp" xlink:href="#dirArrow" transform="translate(30 24)" onmousedown="handlePan(0,-1)">
                  <use xlink:href="#rim" fill="#404040">
                        <set attributeName="fill" to="#808080" begin="arrowUp.mouseover" end="arrowUp.mouseout"/>
                  </use>
                  <path fill="none" stroke="white" stroke-width="1.5" d="M0,-3.0v7 M-2.5,-0.5L0,-3.0L2.5,-0.5"/>
                </g>
                <g id="arrowRight" xlink:href="#dirArrow" transform="rotate(90) translate(36 -43)" onmousedown="handlePan(1,0)">
                  <use xlink:href="#rim" fill="#404040">
                        <set attributeName="fill" to="#808080" begin="arrowRight.mouseover" end="arrowRight.mouseout"/>
                  </use>
                  <path fill="none" stroke="white" stroke-width="1.5" d="M0,-3.0v7 M-2.5,-0.5L0,-3.0L2.5,-0.5"/>
                </g>
                <g id="arrowDown" xlink:href="#dirArrow" transform="rotate(180) translate(-30 -48)" onmousedown="handlePan(0,1)">
                  <use xlink:href="#rim" fill="#404040">
                        <set attributeName="fill" to="#808080" begin="arrowDown.mouseover" end="arrowDown.mouseout"/>
                  </use>
                  <path fill="none" stroke="white" stroke-width="1.5" d="M0,-3.0v7 M-2.5,-0.5L0,-3.0L2.5,-0.5"/>
                </g>
                <g id="arrowLeft" xlink:href="#dirArrow" transform="rotate(270) translate(-36 17)" onmousedown="handlePan(-1,0)">
                  <use xlink:href="#rim" fill="#404040">
                        <set attributeName="fill" to="#808080" begin="arrowLeft.mouseover" end="arrowLeft.mouseout"/>
                  </use>
                  <path fill="none" stroke="white" stroke-width="1.5" d="M0,-3.0v7 M-2.5,-0.5L0,-3.0L2.5,-0.5"/>
                </g>
        </g>
        <svg viewBox="0 0 15 15" width="100%" height="30px" preserveAspectRatio="xMaxYMin meet">
         <g id="arrow_out" transform="scale(0.3 0.3)">
          <a xlink:href="ResourceManager_8cpp__incl_org.svg" target="_base">
           <rect id="button" ry="5" rx="5" y="6" x="6" height="38" width="38"
                fill="#f2f5e9" fill-opacity="0.5" stroke="#606060" stroke-width="1.0"/>
           <path id="arrow"
             d="M 11.500037,31.436501 C 11.940474,20.09759 22.043105,11.32322 32.158766,21.979434 L 37.068811,17.246167 C 37.068811,17.246167 37.088388,32 37.088388,32 L 22.160133,31.978069 C 22.160133,31.978069 26.997745,27.140456 26.997745,27.140456 C 18.528582,18.264221 13.291696,25.230495 11.500037,31.436501 z"
             style="fill:#404040;"/>
          </a>
         </g>
        </svg>
</svg>
