<?xml version="1.0" encoding="UTF-8" standalone="no"?>
<!DOCTYPE svg PUBLIC "-//W3C//DTD SVG 1.1//EN"
 "http://www.w3.org/Graphics/SVG/1.1/DTD/svg11.dtd">
<!-- Generated by graphviz version 2.38.0 (20140413.2041)
 -->
<!-- Title: src/Room/RoomManager.hpp Pages: 1 -->
<svg width="415pt" height="229pt"
 viewBox="0.00 0.00 414.50 229.00" xmlns="http://www.w3.org/2000/svg" xmlns:xlink="http://www.w3.org/1999/xlink">
<g id="graph0" class="graph" transform="scale(1 1) rotate(0) translate(4 225)">
<title>src/Room/RoomManager.hpp</title>
<!-- Node1 -->
<g id="node1" class="node"><title>Node1</title>
<polygon fill="#bfbfbf" stroke="black" points="107,-201.5 107,-220.5 260,-220.5 260,-201.5 107,-201.5"/>
<text text-anchor="middle" x="183.5" y="-208.5" font-family="Helvetica,sans-Serif" font-size="10.00">src/Room/RoomManager.hpp</text>
</g>
<!-- Node2 -->
<g id="node2" class="node"><title>Node2</title>
<g id="a_node2"><a xlink:href="main__server_8cpp.html" target="_top" xlink:title="src/main_server.cpp">
<polygon fill="none" stroke="black" points="0,-6 0,-25 113,-25 113,-6 0,-6"/>
<text text-anchor="middle" x="56.5" y="-13" font-family="Helvetica,sans-Serif" font-size="10.00">src/main_server.cpp</text>
</a>
</g>
</g>
<!-- Node1&#45;&gt;Node2 -->
<g id="edge1" class="edge"><title>Node1&#45;&gt;Node2</title>
<path fill="none" stroke="midnightblue" d="M129.178,-198.33C109.729,-191.603 89.2414,-181.143 75.5,-165 40.1203,-123.437 50.0001,-50.1358 54.693,-25.1351"/>
<polygon fill="midnightblue" stroke="midnightblue" points="128.319,-201.73 138.909,-201.43 130.443,-195.06 128.319,-201.73"/>
</g>
<!-- Node3 -->
<g id="node3" class="node"><title>Node3</title>
<g id="a_node3"><a xlink:href="UDPServer_8hpp.html" target="_top" xlink:title="src/Network/Server\l/UDPServer.hpp">
<polygon fill="none" stroke="black" points="216,-67.5 216,-97.5 323,-97.5 323,-67.5 216,-67.5"/>
<text text-anchor="start" x="224" y="-85.5" font-family="Helvetica,sans-Serif" font-size="10.00">src/Network/Server</text>
<text text-anchor="middle" x="269.5" y="-74.5" font-family="Helvetica,sans-Serif" font-size="10.00">/UDPServer.hpp</text>
</a>
</g>
</g>
<!-- Node1&#45;&gt;Node3 -->
<g id="edge2" class="edge"><title>Node1&#45;&gt;Node3</title>
<path fill="none" stroke="midnightblue" d="M195.194,-192.799C212.285,-167.659 243.783,-121.328 259.718,-97.888"/>
<polygon fill="midnightblue" stroke="midnightblue" points="192.139,-191.067 189.411,-201.305 197.928,-195.003 192.139,-191.067"/>
</g>
<!-- Node5 -->
<g id="node5" class="node"><title>Node5</title>
<g id="a_node5"><a xlink:href="ServerSession_8hpp.html" target="_top" xlink:title="src/Network/Session\l/ServerSession.hpp">
<polygon fill="none" stroke="black" points="85,-134.5 85,-164.5 198,-164.5 198,-134.5 85,-134.5"/>
<text text-anchor="start" x="93" y="-152.5" font-family="Helvetica,sans-Serif" font-size="10.00">src/Network/Session</text>
<text text-anchor="middle" x="141.5" y="-141.5" font-family="Helvetica,sans-Serif" font-size="10.00">/ServerSession.hpp</text>
</a>
</g>
</g>
<!-- Node1&#45;&gt;Node5 -->
<g id="edge5" class="edge"><title>Node1&#45;&gt;Node5</title>
<path fill="none" stroke="midnightblue" d="M171.674,-193.247C165.279,-184.187 157.47,-173.124 151.399,-164.523"/>
<polygon fill="midnightblue" stroke="midnightblue" points="168.856,-195.324 177.482,-201.475 174.575,-191.287 168.856,-195.324"/>
</g>
<!-- Node7 -->
<g id="node7" class="node"><title>Node7</title>
<g id="a_node7"><a xlink:href="RoomManager_8cpp.html" target="_top" xlink:title="src/Room/RoomManager.cpp">
<polygon fill="none" stroke="black" points="254.5,-140 254.5,-159 406.5,-159 406.5,-140 254.5,-140"/>
<text text-anchor="middle" x="330.5" y="-147" font-family="Helvetica,sans-Serif" font-size="10.00">src/Room/RoomManager.cpp</text>
</a>
</g>
</g>
<!-- Node1&#45;&gt;Node7 -->
<g id="edge9" class="edge"><title>Node1&#45;&gt;Node7</title>
<path fill="none" stroke="midnightblue" d="M214.058,-197.631C242.617,-186.072 284.498,-169.12 309.478,-159.009"/>
<polygon fill="midnightblue" stroke="midnightblue" points="212.518,-194.479 204.562,-201.475 215.144,-200.967 212.518,-194.479"/>
</g>
<!-- Node3&#45;&gt;Node2 -->
<g id="edge3" class="edge"><title>Node3&#45;&gt;Node2</title>
<path fill="none" stroke="midnightblue" d="M213.826,-64.5102C172.258,-51.8251 117.195,-35.0219 84.4478,-25.0287"/>
<polygon fill="midnightblue" stroke="midnightblue" points="212.958,-67.9048 223.544,-67.476 215.001,-61.2096 212.958,-67.9048"/>
</g>
<!-- Node4 -->
<g id="node4" class="node"><title>Node4</title>
<g id="a_node4"><a xlink:href="UDPServer_8cpp.html" target="_top" xlink:title="src/Network/Server\l/UDPServer.cpp">
<polygon fill="none" stroke="black" points="216,-0.5 216,-30.5 323,-30.5 323,-0.5 216,-0.5"/>
<text text-anchor="start" x="224" y="-18.5" font-family="Helvetica,sans-Serif" font-size="10.00">src/Network/Server</text>
<text text-anchor="middle" x="269.5" y="-7.5" font-family="Helvetica,sans-Serif" font-size="10.00">/UDPServer.cpp</text>
</a>
</g>
</g>
<!-- Node3&#45;&gt;Node4 -->
<g id="edge4" class="edge"><title>Node3&#45;&gt;Node4</title>
<path fill="none" stroke="midnightblue" d="M269.5,-57.1081C269.5,-48.1539 269.5,-38.3227 269.5,-30.5765"/>
<polygon fill="midnightblue" stroke="midnightblue" points="266,-57.3959 269.5,-67.396 273,-57.396 266,-57.3959"/>
</g>
<!-- Node5&#45;&gt;Node2 -->
<g id="edge6" class="edge"><title>Node5&#45;&gt;Node2</title>
<path fill="none" stroke="midnightblue" d="M106.703,-128.698C95.205,-120.562 83.3582,-110.17 75.5,-98 60.447,-74.6877 57.2795,-40.7943 56.6414,-25.0857"/>
<polygon fill="midnightblue" stroke="midnightblue" points="105.095,-131.833 115.355,-134.473 108.981,-126.011 105.095,-131.833"/>
</g>
<!-- Node5&#45;&gt;Node3 -->
<g id="edge7" class="edge"><title>Node5&#45;&gt;Node3</title>
<path fill="none" stroke="midnightblue" d="M178.22,-129.853C198.458,-119.576 223.174,-107.025 241.78,-97.5765"/>
<polygon fill="midnightblue" stroke="midnightblue" points="176.606,-126.747 169.274,-134.396 179.775,-132.989 176.606,-126.747"/>
</g>
<!-- Node6 -->
<g id="node6" class="node"><title>Node6</title>
<g id="a_node6"><a xlink:href="ServerSession_8cpp.html" target="_top" xlink:title="src/Network/Session\l/ServerSession.cpp">
<polygon fill="none" stroke="black" points="85,-67.5 85,-97.5 198,-97.5 198,-67.5 85,-67.5"/>
<text text-anchor="start" x="93" y="-85.5" font-family="Helvetica,sans-Serif" font-size="10.00">src/Network/Session</text>
<text text-anchor="middle" x="141.5" y="-74.5" font-family="Helvetica,sans-Serif" font-size="10.00">/ServerSession.cpp</text>
</a>
</g>
</g>
<!-- Node5&#45;&gt;Node6 -->
<g id="edge8" class="edge"><title>Node5&#45;&gt;Node6</title>
<path fill="none" stroke="midnightblue" d="M141.5,-124.108C141.5,-115.154 141.5,-105.323 141.5,-97.5765"/>
<polygon fill="midnightblue" stroke="midnightblue" points="138,-124.396 141.5,-134.396 145,-124.396 138,-124.396"/>
</g>
</g>
</svg>
