<?xml version="1.0" encoding="UTF-8" standalone="no"?>
<!DOCTYPE svg PUBLIC "-//W3C//DTD SVG 1.1//EN"
 "http://www.w3.org/Graphics/SVG/1.1/DTD/svg11.dtd">
<!-- Generated by graphviz version 2.38.0 (20140413.2041)
 -->
<!-- Title: src/Room/RoomManager.hpp Pages: 1 -->
<svg width="428pt" height="140pt"
 viewBox="0.00 0.00 427.50 140.00" xmlns="http://www.w3.org/2000/svg" xmlns:xlink="http://www.w3.org/1999/xlink">
<g id="graph0" class="graph" transform="scale(1 1) rotate(0) translate(4 136)">
<title>src/Room/RoomManager.hpp</title>
<!-- Node1 -->
<g id="node1" class="node"><title>Node1</title>
<polygon fill="#bfbfbf" stroke="black" points="87.5,-112.5 87.5,-131.5 240.5,-131.5 240.5,-112.5 87.5,-112.5"/>
<text text-anchor="middle" x="164" y="-119.5" font-family="Helvetica,sans-Serif" font-size="10.00">src/Room/RoomManager.hpp</text>
</g>
<!-- Node2 -->
<g id="node2" class="node"><title>Node2</title>
<polygon fill="none" stroke="#bfbfbf" points="0,-56.5 0,-75.5 52,-75.5 52,-56.5 0,-56.5"/>
<text text-anchor="middle" x="26" y="-63.5" font-family="Helvetica,sans-Serif" font-size="10.00">cstddef</text>
</g>
<!-- Node1&#45;&gt;Node2 -->
<g id="edge1" class="edge"><title>Node1&#45;&gt;Node2</title>
<path fill="none" stroke="midnightblue" d="M142.133,-112.444C119.221,-103.478 83.0247,-89.314 57.1335,-79.1827"/>
<polygon fill="midnightblue" stroke="midnightblue" points="58.3521,-75.9011 47.7642,-75.5164 55.8012,-82.4198 58.3521,-75.9011"/>
</g>
<!-- Node3 -->
<g id="node3" class="node"><title>Node3</title>
<polygon fill="none" stroke="#bfbfbf" points="70.5,-56.5 70.5,-75.5 117.5,-75.5 117.5,-56.5 70.5,-56.5"/>
<text text-anchor="middle" x="94" y="-63.5" font-family="Helvetica,sans-Serif" font-size="10.00">vector</text>
</g>
<!-- Node1&#45;&gt;Node3 -->
<g id="edge2" class="edge"><title>Node1&#45;&gt;Node3</title>
<path fill="none" stroke="midnightblue" d="M152.753,-112.324C142.203,-104.185 126.199,-91.8395 113.558,-82.0874"/>
<polygon fill="midnightblue" stroke="midnightblue" points="115.507,-79.1707 105.451,-75.8339 111.231,-84.7132 115.507,-79.1707"/>
</g>
<!-- Node4 -->
<g id="node4" class="node"><title>Node4</title>
<polygon fill="none" stroke="#bfbfbf" points="135.5,-56.5 135.5,-75.5 192.5,-75.5 192.5,-56.5 135.5,-56.5"/>
<text text-anchor="middle" x="164" y="-63.5" font-family="Helvetica,sans-Serif" font-size="10.00">memory</text>
</g>
<!-- Node1&#45;&gt;Node4 -->
<g id="edge3" class="edge"><title>Node1&#45;&gt;Node4</title>
<path fill="none" stroke="midnightblue" d="M164,-112.083C164,-105.006 164,-94.8611 164,-85.9865"/>
<polygon fill="midnightblue" stroke="midnightblue" points="167.5,-85.751 164,-75.7511 160.5,-85.7511 167.5,-85.751"/>
</g>
<!-- Node5 -->
<g id="node5" class="node"><title>Node5</title>
<g id="a_node5"><a xlink:href="Room_8hpp.html" target="_top" xlink:title="Room.hpp">
<polygon fill="none" stroke="black" points="210.5,-56.5 210.5,-75.5 275.5,-75.5 275.5,-56.5 210.5,-56.5"/>
<text text-anchor="middle" x="243" y="-63.5" font-family="Helvetica,sans-Serif" font-size="10.00">Room.hpp</text>
</a>
</g>
</g>
<!-- Node1&#45;&gt;Node5 -->
<g id="edge4" class="edge"><title>Node1&#45;&gt;Node5</title>
<path fill="none" stroke="midnightblue" d="M176.693,-112.324C188.901,-103.979 207.578,-91.2122 222.003,-81.3524"/>
<polygon fill="midnightblue" stroke="midnightblue" points="224.058,-84.1871 230.339,-75.6545 220.108,-78.4082 224.058,-84.1871"/>
</g>
<!-- Node10 -->
<g id="node10" class="node"><title>Node10</title>
<polygon fill="none" stroke="#bfbfbf" points="293.5,-56.5 293.5,-75.5 380.5,-75.5 380.5,-56.5 293.5,-56.5"/>
<text text-anchor="middle" x="337" y="-63.5" font-family="Helvetica,sans-Serif" font-size="10.00">boost/asio.hpp</text>
</g>
<!-- Node1&#45;&gt;Node10 -->
<g id="edge9" class="edge"><title>Node1&#45;&gt;Node10</title>
<path fill="none" stroke="midnightblue" d="M191.412,-112.444C220.769,-103.28 267.519,-88.6876 300.096,-78.5192"/>
<polygon fill="midnightblue" stroke="midnightblue" points="301.213,-81.8371 309.716,-75.5164 299.127,-75.1551 301.213,-81.8371"/>
</g>
<!-- Node6 -->
<g id="node6" class="node"><title>Node6</title>
<polygon fill="none" stroke="#bfbfbf" points="133,-0.5 133,-19.5 171,-19.5 171,-0.5 133,-0.5"/>
<text text-anchor="middle" x="152" y="-7.5" font-family="Helvetica,sans-Serif" font-size="10.00">map</text>
</g>
<!-- Node5&#45;&gt;Node6 -->
<g id="edge5" class="edge"><title>Node5&#45;&gt;Node6</title>
<path fill="none" stroke="midnightblue" d="M228.379,-56.324C214.051,-47.8215 191.987,-34.7288 175.251,-24.7975"/>
<polygon fill="midnightblue" stroke="midnightblue" points="176.97,-21.7478 166.584,-19.6545 173.398,-27.7677 176.97,-21.7478"/>
</g>
<!-- Node7 -->
<g id="node7" class="node"><title>Node7</title>
<polygon fill="none" stroke="#bfbfbf" points="189,-0.5 189,-19.5 233,-19.5 233,-0.5 189,-0.5"/>
<text text-anchor="middle" x="211" y="-7.5" font-family="Helvetica,sans-Serif" font-size="10.00">string</text>
</g>
<!-- Node5&#45;&gt;Node7 -->
<g id="edge6" class="edge"><title>Node5&#45;&gt;Node7</title>
<path fill="none" stroke="midnightblue" d="M237.716,-56.083C233.289,-48.6127 226.837,-37.7244 221.382,-28.5199"/>
<polygon fill="midnightblue" stroke="midnightblue" points="224.295,-26.5697 216.186,-19.7511 218.273,-30.1383 224.295,-26.5697"/>
</g>
<!-- Node8 -->
<g id="node8" class="node"><title>Node8</title>
<polygon fill="none" stroke="#bfbfbf" points="251.5,-0.5 251.5,-19.5 298.5,-19.5 298.5,-0.5 251.5,-0.5"/>
<text text-anchor="middle" x="275" y="-7.5" font-family="Helvetica,sans-Serif" font-size="10.00">mutex</text>
</g>
<!-- Node5&#45;&gt;Node8 -->
<g id="edge7" class="edge"><title>Node5&#45;&gt;Node8</title>
<path fill="none" stroke="midnightblue" d="M248.284,-56.083C252.711,-48.6127 259.163,-37.7244 264.618,-28.5199"/>
<polygon fill="midnightblue" stroke="midnightblue" points="267.727,-30.1383 269.814,-19.7511 261.705,-26.5697 267.727,-30.1383"/>
</g>
<!-- Node9 -->
<g id="node9" class="node"><title>Node9</title>
<polygon fill="none" stroke="#bfbfbf" points="316.5,-0.5 316.5,-19.5 419.5,-19.5 419.5,-0.5 316.5,-0.5"/>
<text text-anchor="middle" x="368" y="-7.5" font-family="Helvetica,sans-Serif" font-size="10.00">condition_variable</text>
</g>
<!-- Node5&#45;&gt;Node9 -->
<g id="edge8" class="edge"><title>Node5&#45;&gt;Node9</title>
<path fill="none" stroke="midnightblue" d="M262.807,-56.4435C283.287,-47.5961 315.483,-33.6875 338.865,-23.5865"/>
<polygon fill="midnightblue" stroke="midnightblue" points="340.494,-26.6953 348.286,-19.5164 337.718,-20.2692 340.494,-26.6953"/>
</g>
</g>
</svg>
