<?xml version="1.0" encoding="UTF-8" standalone="no"?>
<!DOCTYPE svg PUBLIC "-//W3C//DTD SVG 1.1//EN"
 "http://www.w3.org/Graphics/SVG/1.1/DTD/svg11.dtd">
<!-- Generated by graphviz version 2.38.0 (20140413.2041)
 -->
<!-- Title: src/Room/RoomManager.cpp Pages: 1 -->
<!--zoomable 196 -->
<svg id="main" version="1.1" xmlns="http://www.w3.org/2000/svg" xmlns:xlink="http://www.w3.org/1999/xlink" xml:space="preserve" onload="init(evt)">
<style type="text/css"><![CDATA[
.edge:hover path { stroke: red; }
.edge:hover polygon { stroke: red; fill: red; }
]]></style>
<script type="text/javascript"><![CDATA[
var edges = document.getElementsByTagName('g');
if (edges && edges.length) {
  for (var i=0;i<edges.length;i++) {
    if (edges[i].id.substr(0,4)=='edge') {
      edges[i].setAttribute('class','edge');
    }
  }
}
]]></script>
        <defs>
                <circle id="rim" cx="0" cy="0" r="7"/>
                <circle id="rim2" cx="0" cy="0" r="3.5"/>
                <g id="zoomPlus">
                        <use xlink:href="#rim" fill="#404040">
                                <set attributeName="fill" to="#808080" begin="zoomplus.mouseover" end="zoomplus.mouseout"/>
                        </use>
                        <path d="M-4,0h8M0,-4v8" fill="none" stroke="white" stroke-width="1.5" pointer-events="none"/>
                </g>
                <g id="zoomMin">
                        <use xlink:href="#rim" fill="#404040">
                                <set attributeName="fill" to="#808080" begin="zoomminus.mouseover" end="zoomminus.mouseout"/>
                        </use>
                        <path d="M-4,0h8" fill="none" stroke="white" stroke-width="1.5" pointer-events="none"/>
                </g>
                <g id="dirArrow">
                        <path fill="none" stroke="white" stroke-width="1.5" d="M0,-3.0v7 M-2.5,-0.5L0,-3.0L2.5,-0.5"/>
                </g>
               <g id="resetDef">
                       <use xlink:href="#rim2" fill="#404040">
                               <set attributeName="fill" to="#808080" begin="reset.mouseover" end="reset.mouseout"/>
                       </use>
               </g>
        </defs>

<script type="text/javascript">
var viewWidth = 542;
var viewHeight = 196;
var sectionId = 'dynsection-0';
</script>
<script xlink:href="svgpan.js"/>
<svg id="graph" class="graph">
<g id="viewport">
<title>src/Room/RoomManager.cpp</title>
<!-- Node1 -->
<g id="node1" class="node"><title>Node1</title>
<polygon fill="#bfbfbf" stroke="black" points="79.0253,-168.5 79.0253,-187.5 231.025,-187.5 231.025,-168.5 79.0253,-168.5"/>
<text text-anchor="middle" x="155.025" y="-175.5" font-family="Helvetica,sans-Serif" font-size="10.00">src/Room/RoomManager.cpp</text>
</g>
<!-- Node2 -->
<g id="node2" class="node"><title>Node2</title>
<g id="a_node2"><a xlink:href="ServerExceptions_8hpp.html" target="_top" xlink:title="ServerExceptions.hpp">
<polygon fill="none" stroke="black" points="9.52527,-112.5 9.52527,-131.5 130.525,-131.5 130.525,-112.5 9.52527,-112.5"/>
<text text-anchor="middle" x="70.0253" y="-119.5" font-family="Helvetica,sans-Serif" font-size="10.00">ServerExceptions.hpp</text>
</a>
</g>
</g>
<!-- Node1&#45;&gt;Node2 -->
<g id="edge1" class="edge"><title>Node1&#45;&gt;Node2</title>
<path fill="none" stroke="midnightblue" d="M141.369,-168.324C128.109,-159.9 107.757,-146.971 92.179,-137.074"/>
<polygon fill="midnightblue" stroke="midnightblue" points="93.9656,-134.063 83.6481,-131.655 90.212,-139.971 93.9656,-134.063"/>
</g>
<!-- Node5 -->
<g id="node5" class="node"><title>Node5</title>
<g id="a_node5"><a xlink:href="RoomManager_8hpp.html" target="_top" xlink:title="RoomManager.hpp">
<polygon fill="none" stroke="black" points="222.025,-112.5 222.025,-131.5 328.025,-131.5 328.025,-112.5 222.025,-112.5"/>
<text text-anchor="middle" x="275.025" y="-119.5" font-family="Helvetica,sans-Serif" font-size="10.00">RoomManager.hpp</text>
</a>
</g>
</g>
<!-- Node1&#45;&gt;Node5 -->
<g id="edge5" class="edge"><title>Node1&#45;&gt;Node5</title>
<path fill="none" stroke="midnightblue" d="M174.04,-168.444C193.613,-159.636 224.333,-145.812 246.754,-135.722"/>
<polygon fill="midnightblue" stroke="midnightblue" points="248.417,-138.812 256.1,-131.516 245.544,-132.428 248.417,-138.812"/>
</g>
<!-- Node3 -->
<g id="node3" class="node"><title>Node3</title>
<polygon fill="none" stroke="#bfbfbf" points="48.0253,-0.5 48.0253,-19.5 92.0253,-19.5 92.0253,-0.5 48.0253,-0.5"/>
<text text-anchor="middle" x="70.0253" y="-7.5" font-family="Helvetica,sans-Serif" font-size="10.00">string</text>
</g>
<!-- Node2&#45;&gt;Node3 -->
<g id="edge2" class="edge"><title>Node2&#45;&gt;Node3</title>
<path fill="none" stroke="midnightblue" d="M47.2369,-112.471C31.6992,-105.316 12.3178,-93.4352 3.02527,-76 -8.43089,-54.5053 16.6569,-35.8456 39.3286,-24.1007"/>
<polygon fill="midnightblue" stroke="midnightblue" points="41.0041,-27.1778 48.4601,-19.6506 37.9375,-20.8852 41.0041,-27.1778"/>
</g>
<!-- Node4 -->
<g id="node4" class="node"><title>Node4</title>
<g id="a_node4"><a xlink:href="RTypeExceptions_8hpp.html" target="_top" xlink:title="RTypeExceptions.hpp">
<polygon fill="none" stroke="black" points="12.0253,-56.5 12.0253,-75.5 128.025,-75.5 128.025,-56.5 12.0253,-56.5"/>
<text text-anchor="middle" x="70.0253" y="-63.5" font-family="Helvetica,sans-Serif" font-size="10.00">RTypeExceptions.hpp</text>
</a>
</g>
</g>
<!-- Node2&#45;&gt;Node4 -->
<g id="edge3" class="edge"><title>Node2&#45;&gt;Node4</title>
<path fill="none" stroke="midnightblue" d="M70.0253,-112.083C70.0253,-105.006 70.0253,-94.8611 70.0253,-85.9865"/>
<polygon fill="midnightblue" stroke="midnightblue" points="73.5254,-85.751 70.0253,-75.7511 66.5254,-85.7511 73.5254,-85.751"/>
</g>
<!-- Node4&#45;&gt;Node3 -->
<g id="edge4" class="edge"><title>Node4&#45;&gt;Node3</title>
<path fill="none" stroke="midnightblue" d="M70.0253,-56.083C70.0253,-49.0059 70.0253,-38.8611 70.0253,-29.9865"/>
<polygon fill="midnightblue" stroke="midnightblue" points="73.5254,-29.751 70.0253,-19.7511 66.5254,-29.7511 73.5254,-29.751"/>
</g>
<!-- Node6 -->
<g id="node6" class="node"><title>Node6</title>
<polygon fill="none" stroke="#bfbfbf" points="146.025,-56.5 146.025,-75.5 198.025,-75.5 198.025,-56.5 146.025,-56.5"/>
<text text-anchor="middle" x="172.025" y="-63.5" font-family="Helvetica,sans-Serif" font-size="10.00">cstddef</text>
</g>
<!-- Node5&#45;&gt;Node6 -->
<g id="edge6" class="edge"><title>Node5&#45;&gt;Node6</title>
<path fill="none" stroke="midnightblue" d="M258.477,-112.324C242.034,-103.703 216.59,-90.3643 197.557,-80.3855"/>
<polygon fill="midnightblue" stroke="midnightblue" points="199.015,-77.198 188.533,-75.6545 195.764,-83.3977 199.015,-77.198"/>
</g>
<!-- Node7 -->
<g id="node7" class="node"><title>Node7</title>
<polygon fill="none" stroke="#bfbfbf" points="216.525,-56.5 216.525,-75.5 263.525,-75.5 263.525,-56.5 216.525,-56.5"/>
<text text-anchor="middle" x="240.025" y="-63.5" font-family="Helvetica,sans-Serif" font-size="10.00">vector</text>
</g>
<!-- Node5&#45;&gt;Node7 -->
<g id="edge7" class="edge"><title>Node5&#45;&gt;Node7</title>
<path fill="none" stroke="midnightblue" d="M269.246,-112.083C264.353,-104.534 257.198,-93.4948 251.193,-84.2298"/>
<polygon fill="midnightblue" stroke="midnightblue" points="254.073,-82.239 245.697,-75.7511 248.199,-86.0463 254.073,-82.239"/>
</g>
<!-- Node8 -->
<g id="node8" class="node"><title>Node8</title>
<polygon fill="none" stroke="#bfbfbf" points="281.525,-56.5 281.525,-75.5 338.525,-75.5 338.525,-56.5 281.525,-56.5"/>
<text text-anchor="middle" x="310.025" y="-63.5" font-family="Helvetica,sans-Serif" font-size="10.00">memory</text>
</g>
<!-- Node5&#45;&gt;Node8 -->
<g id="edge8" class="edge"><title>Node5&#45;&gt;Node8</title>
<path fill="none" stroke="midnightblue" d="M280.805,-112.083C285.698,-104.534 292.853,-93.4948 298.858,-84.2298"/>
<polygon fill="midnightblue" stroke="midnightblue" points="301.851,-86.0463 304.353,-75.7511 295.977,-82.239 301.851,-86.0463"/>
</g>
<!-- Node9 -->
<g id="node9" class="node"><title>Node9</title>
<g id="a_node9"><a xlink:href="Room_8hpp.html" target="_top" xlink:title="Room.hpp">
<polygon fill="none" stroke="black" points="356.525,-56.5 356.525,-75.5 421.525,-75.5 421.525,-56.5 356.525,-56.5"/>
<text text-anchor="middle" x="389.025" y="-63.5" font-family="Helvetica,sans-Serif" font-size="10.00">Room.hpp</text>
</a>
</g>
</g>
<!-- Node5&#45;&gt;Node9 -->
<g id="edge9" class="edge"><title>Node5&#45;&gt;Node9</title>
<path fill="none" stroke="midnightblue" d="M293.089,-112.444C311.6,-103.675 340.606,-89.9355 361.881,-79.8579"/>
<polygon fill="midnightblue" stroke="midnightblue" points="363.507,-82.9604 371.046,-75.5164 360.51,-76.6343 363.507,-82.9604"/>
</g>
<!-- Node13 -->
<g id="node13" class="node"><title>Node13</title>
<polygon fill="none" stroke="#bfbfbf" points="439.525,-56.5 439.525,-75.5 526.525,-75.5 526.525,-56.5 439.525,-56.5"/>
<text text-anchor="middle" x="483.025" y="-63.5" font-family="Helvetica,sans-Serif" font-size="10.00">boost/asio.hpp</text>
</g>
<!-- Node5&#45;&gt;Node13 -->
<g id="edge14" class="edge"><title>Node5&#45;&gt;Node13</title>
<path fill="none" stroke="midnightblue" d="M307.983,-112.444C343.812,-103.142 401.189,-88.246 440.416,-78.062"/>
<polygon fill="midnightblue" stroke="midnightblue" points="441.422,-81.4171 450.221,-75.5164 439.663,-74.6417 441.422,-81.4171"/>
</g>
<!-- Node9&#45;&gt;Node3 -->
<g id="edge11" class="edge"><title>Node9&#45;&gt;Node3</title>
<path fill="none" stroke="midnightblue" d="M356.498,-57.8619C353.302,-57.211 350.103,-56.5794 347.025,-56 258.782,-39.3883 154.027,-23.3716 102.272,-15.703"/>
<polygon fill="midnightblue" stroke="midnightblue" points="102.756,-12.2367 92.3526,-14.2395 101.735,-19.1617 102.756,-12.2367"/>
</g>
<!-- Node10 -->
<g id="node10" class="node"><title>Node10</title>
<polygon fill="none" stroke="#bfbfbf" points="309.025,-0.5 309.025,-19.5 347.025,-19.5 347.025,-0.5 309.025,-0.5"/>
<text text-anchor="middle" x="328.025" y="-7.5" font-family="Helvetica,sans-Serif" font-size="10.00">map</text>
</g>
<!-- Node9&#45;&gt;Node10 -->
<g id="edge10" class="edge"><title>Node9&#45;&gt;Node10</title>
<path fill="none" stroke="midnightblue" d="M379.225,-56.324C370.207,-48.3414 356.619,-36.3128 345.707,-26.6529"/>
<polygon fill="midnightblue" stroke="midnightblue" points="347.812,-23.8416 338.004,-19.8339 343.172,-29.083 347.812,-23.8416"/>
</g>
<!-- Node11 -->
<g id="node11" class="node"><title>Node11</title>
<polygon fill="none" stroke="#bfbfbf" points="365.525,-0.5 365.525,-19.5 412.525,-19.5 412.525,-0.5 365.525,-0.5"/>
<text text-anchor="middle" x="389.025" y="-7.5" font-family="Helvetica,sans-Serif" font-size="10.00">mutex</text>
</g>
<!-- Node9&#45;&gt;Node11 -->
<g id="edge12" class="edge"><title>Node9&#45;&gt;Node11</title>
<path fill="none" stroke="midnightblue" d="M389.025,-56.083C389.025,-49.0059 389.025,-38.8611 389.025,-29.9865"/>
<polygon fill="midnightblue" stroke="midnightblue" points="392.525,-29.751 389.025,-19.7511 385.525,-29.7511 392.525,-29.751"/>
</g>
<!-- Node12 -->
<g id="node12" class="node"><title>Node12</title>
<polygon fill="none" stroke="#bfbfbf" points="430.525,-0.5 430.525,-19.5 533.525,-19.5 533.525,-0.5 430.525,-0.5"/>
<text text-anchor="middle" x="482.025" y="-7.5" font-family="Helvetica,sans-Serif" font-size="10.00">condition_variable</text>
</g>
<!-- Node9&#45;&gt;Node12 -->
<g id="edge13" class="edge"><title>Node9&#45;&gt;Node12</title>
<path fill="none" stroke="midnightblue" d="M403.967,-56.324C418.61,-47.8215 441.159,-34.7288 458.263,-24.7975"/>
<polygon fill="midnightblue" stroke="midnightblue" points="460.23,-27.7027 467.12,-19.6545 456.715,-21.6491 460.23,-27.7027"/>
</g>
</g>
</svg>
        <g id="navigator" transform="translate(0 0)" fill="#404254">
                <rect fill="#f2f5e9" fill-opacity="0.5" stroke="#606060" stroke-width=".5" x="0" y="0" width="60" height="60"/>
                <use id="zoomplus" xlink:href="#zoomPlus" x="17" y="9" onmousedown="handleZoom(evt,'in')"/>
                <use id="zoomminus" xlink:href="#zoomMin" x="42" y="9" onmousedown="handleZoom(evt,'out')"/>
                <use id="reset" xlink:href="#resetDef" x="30" y="36" onmousedown="handleReset()"/>
                <g id="arrowUp" xlink:href="#dirArrow" transform="translate(30 24)" onmousedown="handlePan(0,-1)">
                  <use xlink:href="#rim" fill="#404040">
                        <set attributeName="fill" to="#808080" begin="arrowUp.mouseover" end="arrowUp.mouseout"/>
                  </use>
                  <path fill="none" stroke="white" stroke-width="1.5" d="M0,-3.0v7 M-2.5,-0.5L0,-3.0L2.5,-0.5"/>
                </g>
                <g id="arrowRight" xlink:href="#dirArrow" transform="rotate(90) translate(36 -43)" onmousedown="handlePan(1,0)">
                  <use xlink:href="#rim" fill="#404040">
                        <set attributeName="fill" to="#808080" begin="arrowRight.mouseover" end="arrowRight.mouseout"/>
                  </use>
                  <path fill="none" stroke="white" stroke-width="1.5" d="M0,-3.0v7 M-2.5,-0.5L0,-3.0L2.5,-0.5"/>
                </g>
                <g id="arrowDown" xlink:href="#dirArrow" transform="rotate(180) translate(-30 -48)" onmousedown="handlePan(0,1)">
                  <use xlink:href="#rim" fill="#404040">
                        <set attributeName="fill" to="#808080" begin="arrowDown.mouseover" end="arrowDown.mouseout"/>
                  </use>
                  <path fill="none" stroke="white" stroke-width="1.5" d="M0,-3.0v7 M-2.5,-0.5L0,-3.0L2.5,-0.5"/>
                </g>
                <g id="arrowLeft" xlink:href="#dirArrow" transform="rotate(270) translate(-36 17)" onmousedown="handlePan(-1,0)">
                  <use xlink:href="#rim" fill="#404040">
                        <set attributeName="fill" to="#808080" begin="arrowLeft.mouseover" end="arrowLeft.mouseout"/>
                  </use>
                  <path fill="none" stroke="white" stroke-width="1.5" d="M0,-3.0v7 M-2.5,-0.5L0,-3.0L2.5,-0.5"/>
                </g>
        </g>
        <svg viewBox="0 0 15 15" width="100%" height="30px" preserveAspectRatio="xMaxYMin meet">
         <g id="arrow_out" transform="scale(0.3 0.3)">
          <a xlink:href="RoomManager_8cpp__incl_org.svg" target="_base">
           <rect id="button" ry="5" rx="5" y="6" x="6" height="38" width="38"
                fill="#f2f5e9" fill-opacity="0.5" stroke="#606060" stroke-width="1.0"/>
           <path id="arrow"
             d="M 11.500037,31.436501 C 11.940474,20.09759 22.043105,11.32322 32.158766,21.979434 L 37.068811,17.246167 C 37.068811,17.246167 37.088388,32 37.088388,32 L 22.160133,31.978069 C 22.160133,31.978069 26.997745,27.140456 26.997745,27.140456 C 18.528582,18.264221 13.291696,25.230495 11.500037,31.436501 z"
             style="fill:#404040;"/>
          </a>
         </g>
        </svg>
</svg>
