<?xml version="1.0" encoding="UTF-8" standalone="no"?>
<!DOCTYPE svg PUBLIC "-//W3C//DTD SVG 1.1//EN"
 "http://www.w3.org/Graphics/SVG/1.1/DTD/svg11.dtd">
<!-- Generated by graphviz version 2.38.0 (20140413.2041)
 -->
<!-- Title: src/Room/Room.hpp Pages: 1 -->
<svg width="436pt" height="285pt"
 viewBox="0.00 0.00 435.50 285.00" xmlns="http://www.w3.org/2000/svg" xmlns:xlink="http://www.w3.org/1999/xlink">
<g id="graph0" class="graph" transform="scale(1 1) rotate(0) translate(4 281)">
<title>src/Room/Room.hpp</title>
<!-- Node1 -->
<g id="node1" class="node"><title>Node1</title>
<polygon fill="#bfbfbf" stroke="black" points="74.5,-257.5 74.5,-276.5 186.5,-276.5 186.5,-257.5 74.5,-257.5"/>
<text text-anchor="middle" x="130.5" y="-264.5" font-family="Helvetica,sans-Serif" font-size="10.00">src/Room/Room.hpp</text>
</g>
<!-- Node2 -->
<g id="node2" class="node"><title>Node2</title>
<g id="a_node2"><a xlink:href="Room_8cpp.html" target="_top" xlink:title="src/Room/Room.cpp">
<polygon fill="none" stroke="black" points="0,-201.5 0,-220.5 111,-220.5 111,-201.5 0,-201.5"/>
<text text-anchor="middle" x="55.5" y="-208.5" font-family="Helvetica,sans-Serif" font-size="10.00">src/Room/Room.cpp</text>
</a>
</g>
</g>
<!-- Node1&#45;&gt;Node2 -->
<g id="edge1" class="edge"><title>Node1&#45;&gt;Node2</title>
<path fill="none" stroke="midnightblue" d="M110.195,-251.38C96.6394,-241.62 79.2579,-229.106 67.7693,-220.834"/>
<polygon fill="midnightblue" stroke="midnightblue" points="108.29,-254.321 118.45,-257.324 112.38,-248.641 108.29,-254.321"/>
</g>
<!-- Node3 -->
<g id="node3" class="node"><title>Node3</title>
<g id="a_node3"><a xlink:href="RoomManager_8hpp.html" target="_top" xlink:title="src/Room/RoomManager.hpp">
<polygon fill="none" stroke="black" points="129,-201.5 129,-220.5 282,-220.5 282,-201.5 129,-201.5"/>
<text text-anchor="middle" x="205.5" y="-208.5" font-family="Helvetica,sans-Serif" font-size="10.00">src/Room/RoomManager.hpp</text>
</a>
</g>
</g>
<!-- Node1&#45;&gt;Node3 -->
<g id="edge2" class="edge"><title>Node1&#45;&gt;Node3</title>
<path fill="none" stroke="midnightblue" d="M150.805,-251.38C164.361,-241.62 181.742,-229.106 193.231,-220.834"/>
<polygon fill="midnightblue" stroke="midnightblue" points="148.62,-248.641 142.55,-257.324 152.71,-254.321 148.62,-248.641"/>
</g>
<!-- Node4 -->
<g id="node4" class="node"><title>Node4</title>
<g id="a_node4"><a xlink:href="main__server_8cpp.html" target="_top" xlink:title="src/main_server.cpp">
<polygon fill="none" stroke="black" points="21,-6 21,-25 134,-25 134,-6 21,-6"/>
<text text-anchor="middle" x="77.5" y="-13" font-family="Helvetica,sans-Serif" font-size="10.00">src/main_server.cpp</text>
</a>
</g>
</g>
<!-- Node3&#45;&gt;Node4 -->
<g id="edge3" class="edge"><title>Node3&#45;&gt;Node4</title>
<path fill="none" stroke="midnightblue" d="M150.442,-198.358C130.886,-191.641 110.32,-181.181 96.5,-165 61.0526,-123.495 70.9757,-50.1566 75.6864,-25.1407"/>
<polygon fill="midnightblue" stroke="midnightblue" points="149.64,-201.775 160.23,-201.451 151.749,-195.1 149.64,-201.775"/>
</g>
<!-- Node5 -->
<g id="node5" class="node"><title>Node5</title>
<g id="a_node5"><a xlink:href="UDPServer_8hpp.html" target="_top" xlink:title="src/Network/Server\l/UDPServer.hpp">
<polygon fill="none" stroke="black" points="237,-67.5 237,-97.5 344,-97.5 344,-67.5 237,-67.5"/>
<text text-anchor="start" x="245" y="-85.5" font-family="Helvetica,sans-Serif" font-size="10.00">src/Network/Server</text>
<text text-anchor="middle" x="290.5" y="-74.5" font-family="Helvetica,sans-Serif" font-size="10.00">/UDPServer.hpp</text>
</a>
</g>
</g>
<!-- Node3&#45;&gt;Node5 -->
<g id="edge4" class="edge"><title>Node3&#45;&gt;Node5</title>
<path fill="none" stroke="midnightblue" d="M217.058,-192.799C233.951,-167.659 265.082,-121.328 280.832,-97.888"/>
<polygon fill="midnightblue" stroke="midnightblue" points="214.015,-191.053 211.342,-201.305 219.825,-194.957 214.015,-191.053"/>
</g>
<!-- Node7 -->
<g id="node7" class="node"><title>Node7</title>
<g id="a_node7"><a xlink:href="ServerSession_8hpp.html" target="_top" xlink:title="src/Network/Session\l/ServerSession.hpp">
<polygon fill="none" stroke="black" points="106,-134.5 106,-164.5 219,-164.5 219,-134.5 106,-134.5"/>
<text text-anchor="start" x="114" y="-152.5" font-family="Helvetica,sans-Serif" font-size="10.00">src/Network/Session</text>
<text text-anchor="middle" x="162.5" y="-141.5" font-family="Helvetica,sans-Serif" font-size="10.00">/ServerSession.hpp</text>
</a>
</g>
</g>
<!-- Node3&#45;&gt;Node7 -->
<g id="edge7" class="edge"><title>Node3&#45;&gt;Node7</title>
<path fill="none" stroke="midnightblue" d="M193.393,-193.247C186.845,-184.187 178.85,-173.124 172.634,-164.523"/>
<polygon fill="midnightblue" stroke="midnightblue" points="190.645,-195.42 199.339,-201.475 196.318,-191.32 190.645,-195.42"/>
</g>
<!-- Node9 -->
<g id="node9" class="node"><title>Node9</title>
<g id="a_node9"><a xlink:href="RoomManager_8cpp.html" target="_top" xlink:title="src/Room/RoomManager.cpp">
<polygon fill="none" stroke="black" points="275.5,-140 275.5,-159 427.5,-159 427.5,-140 275.5,-140"/>
<text text-anchor="middle" x="351.5" y="-147" font-family="Helvetica,sans-Serif" font-size="10.00">src/Room/RoomManager.cpp</text>
</a>
</g>
</g>
<!-- Node3&#45;&gt;Node9 -->
<g id="edge11" class="edge"><title>Node3&#45;&gt;Node9</title>
<path fill="none" stroke="midnightblue" d="M235.85,-197.631C264.215,-186.072 305.811,-169.12 330.621,-159.009"/>
<polygon fill="midnightblue" stroke="midnightblue" points="234.358,-194.46 226.418,-201.475 237,-200.942 234.358,-194.46"/>
</g>
<!-- Node5&#45;&gt;Node4 -->
<g id="edge5" class="edge"><title>Node5&#45;&gt;Node4</title>
<path fill="none" stroke="midnightblue" d="M234.826,-64.5102C193.258,-51.8251 138.195,-35.0219 105.448,-25.0287"/>
<polygon fill="midnightblue" stroke="midnightblue" points="233.958,-67.9048 244.544,-67.476 236.001,-61.2096 233.958,-67.9048"/>
</g>
<!-- Node6 -->
<g id="node6" class="node"><title>Node6</title>
<g id="a_node6"><a xlink:href="UDPServer_8cpp.html" target="_top" xlink:title="src/Network/Server\l/UDPServer.cpp">
<polygon fill="none" stroke="black" points="237,-0.5 237,-30.5 344,-30.5 344,-0.5 237,-0.5"/>
<text text-anchor="start" x="245" y="-18.5" font-family="Helvetica,sans-Serif" font-size="10.00">src/Network/Server</text>
<text text-anchor="middle" x="290.5" y="-7.5" font-family="Helvetica,sans-Serif" font-size="10.00">/UDPServer.cpp</text>
</a>
</g>
</g>
<!-- Node5&#45;&gt;Node6 -->
<g id="edge6" class="edge"><title>Node5&#45;&gt;Node6</title>
<path fill="none" stroke="midnightblue" d="M290.5,-57.1081C290.5,-48.1539 290.5,-38.3227 290.5,-30.5765"/>
<polygon fill="midnightblue" stroke="midnightblue" points="287,-57.3959 290.5,-67.396 294,-57.396 287,-57.3959"/>
</g>
<!-- Node7&#45;&gt;Node4 -->
<g id="edge8" class="edge"><title>Node7&#45;&gt;Node4</title>
<path fill="none" stroke="midnightblue" d="M127.703,-128.698C116.205,-120.562 104.358,-110.17 96.5,-98 81.447,-74.6877 78.2795,-40.7943 77.6414,-25.0857"/>
<polygon fill="midnightblue" stroke="midnightblue" points="126.095,-131.833 136.355,-134.473 129.981,-126.011 126.095,-131.833"/>
</g>
<!-- Node7&#45;&gt;Node5 -->
<g id="edge9" class="edge"><title>Node7&#45;&gt;Node5</title>
<path fill="none" stroke="midnightblue" d="M199.22,-129.853C219.458,-119.576 244.174,-107.025 262.78,-97.5765"/>
<polygon fill="midnightblue" stroke="midnightblue" points="197.606,-126.747 190.274,-134.396 200.775,-132.989 197.606,-126.747"/>
</g>
<!-- Node8 -->
<g id="node8" class="node"><title>Node8</title>
<g id="a_node8"><a xlink:href="ServerSession_8cpp.html" target="_top" xlink:title="src/Network/Session\l/ServerSession.cpp">
<polygon fill="none" stroke="black" points="106,-67.5 106,-97.5 219,-97.5 219,-67.5 106,-67.5"/>
<text text-anchor="start" x="114" y="-85.5" font-family="Helvetica,sans-Serif" font-size="10.00">src/Network/Session</text>
<text text-anchor="middle" x="162.5" y="-74.5" font-family="Helvetica,sans-Serif" font-size="10.00">/ServerSession.cpp</text>
</a>
</g>
</g>
<!-- Node7&#45;&gt;Node8 -->
<g id="edge10" class="edge"><title>Node7&#45;&gt;Node8</title>
<path fill="none" stroke="midnightblue" d="M162.5,-124.108C162.5,-115.154 162.5,-105.323 162.5,-97.5765"/>
<polygon fill="midnightblue" stroke="midnightblue" points="159,-124.396 162.5,-134.396 166,-124.396 159,-124.396"/>
</g>
</g>
</svg>
