<?xml version="1.0" encoding="UTF-8" standalone="no"?>
<!DOCTYPE svg PUBLIC "-//W3C//DTD SVG 1.1//EN"
 "http://www.w3.org/Graphics/SVG/1.1/DTD/svg11.dtd">
<!-- Generated by graphviz version 2.38.0 (20140413.2041)
 -->
<!-- Title: src/Components/Physics/Rotation.hpp Pages: 1 -->
<!--zoomable 195 -->
<svg id="main" version="1.1" xmlns="http://www.w3.org/2000/svg" xmlns:xlink="http://www.w3.org/1999/xlink" xml:space="preserve" onload="init(evt)">
<style type="text/css"><![CDATA[
.edge:hover path { stroke: red; }
.edge:hover polygon { stroke: red; fill: red; }
]]></style>
<script type="text/javascript"><![CDATA[
var edges = document.getElementsByTagName('g');
if (edges && edges.length) {
  for (var i=0;i<edges.length;i++) {
    if (edges[i].id.substr(0,4)=='edge') {
      edges[i].setAttribute('class','edge');
    }
  }
}
]]></script>
        <defs>
                <circle id="rim" cx="0" cy="0" r="7"/>
                <circle id="rim2" cx="0" cy="0" r="3.5"/>
                <g id="zoomPlus">
                        <use xlink:href="#rim" fill="#404040">
                                <set attributeName="fill" to="#808080" begin="zoomplus.mouseover" end="zoomplus.mouseout"/>
                        </use>
                        <path d="M-4,0h8M0,-4v8" fill="none" stroke="white" stroke-width="1.5" pointer-events="none"/>
                </g>
                <g id="zoomMin">
                        <use xlink:href="#rim" fill="#404040">
                                <set attributeName="fill" to="#808080" begin="zoomminus.mouseover" end="zoomminus.mouseout"/>
                        </use>
                        <path d="M-4,0h8" fill="none" stroke="white" stroke-width="1.5" pointer-events="none"/>
                </g>
                <g id="dirArrow">
                        <path fill="none" stroke="white" stroke-width="1.5" d="M0,-3.0v7 M-2.5,-0.5L0,-3.0L2.5,-0.5"/>
                </g>
               <g id="resetDef">
                       <use xlink:href="#rim2" fill="#404040">
                               <set attributeName="fill" to="#808080" begin="reset.mouseover" end="reset.mouseout"/>
                       </use>
               </g>
        </defs>

<script type="text/javascript">
var viewWidth = 6044;
var viewHeight = 195;
var sectionId = 'dynsection-1';
</script>
<script xlink:href="svgpan.js"/>
<svg id="graph" class="graph">
<g id="viewport">
<title>src/Components/Physics/Rotation.hpp</title>
<!-- Node1 -->
<g id="node1" class="node"><title>Node1</title>
<polygon fill="#bfbfbf" stroke="black" points="2825,-156.5 2825,-186.5 2959,-186.5 2959,-156.5 2825,-156.5"/>
<text text-anchor="start" x="2833" y="-174.5" font-family="Helvetica,sans-Serif" font-size="10.00">src/Components/Physics</text>
<text text-anchor="middle" x="2892" y="-163.5" font-family="Helvetica,sans-Serif" font-size="10.00">/Rotation.hpp</text>
</g>
<!-- Node2 -->
<g id="node2" class="node"><title>Node2</title>
<g id="a_node2"><a xlink:href="Rotation_8cpp.html" target="_top" xlink:title="src/Components/Physics\l/Rotation.cpp">
<polygon fill="none" stroke="black" points="0,-84 0,-114 134,-114 134,-84 0,-84"/>
<text text-anchor="start" x="8" y="-102" font-family="Helvetica,sans-Serif" font-size="10.00">src/Components/Physics</text>
<text text-anchor="middle" x="67" y="-91" font-family="Helvetica,sans-Serif" font-size="10.00">/Rotation.cpp</text>
</a>
</g>
</g>
<!-- Node1&#45;&gt;Node2 -->
<g id="edge1" class="edge"><title>Node1&#45;&gt;Node2</title>
<path fill="none" stroke="midnightblue" d="M2814.5,-170.181C2395.87,-168.309 413.415,-157.513 143,-120 133.27,-118.65 123.001,-116.478 113.266,-114.052"/>
<polygon fill="midnightblue" stroke="midnightblue" points="2814.67,-173.681 2824.68,-170.226 2814.7,-166.682 2814.67,-173.681"/>
</g>
<!-- Node3 -->
<g id="node3" class="node"><title>Node3</title>
<g id="a_node3"><a xlink:href="BackgroundMenuEntity_8cpp.html" target="_top" xlink:title="src/Entities/EntityConstructor\l/BackgroundMenuEntity/BackgroundMenu\lEntity.cpp">
<polygon fill="none" stroke="black" points="152,-78.5 152,-119.5 368,-119.5 368,-78.5 152,-78.5"/>
<text text-anchor="start" x="160" y="-107.5" font-family="Helvetica,sans-Serif" font-size="10.00">src/Entities/EntityConstructor</text>
<text text-anchor="start" x="160" y="-96.5" font-family="Helvetica,sans-Serif" font-size="10.00">/BackgroundMenuEntity/BackgroundMenu</text>
<text text-anchor="middle" x="260" y="-85.5" font-family="Helvetica,sans-Serif" font-size="10.00">Entity.cpp</text>
</a>
</g>
</g>
<!-- Node1&#45;&gt;Node3 -->
<g id="edge2" class="edge"><title>Node1&#45;&gt;Node3</title>
<path fill="none" stroke="midnightblue" d="M2814.95,-170.503C2447.15,-170.282 867.494,-166.584 377,-120 374.128,-119.727 371.22,-119.424 368.289,-119.096"/>
<polygon fill="midnightblue" stroke="midnightblue" points="2814.97,-174.003 2824.97,-170.509 2814.97,-167.003 2814.97,-174.003"/>
</g>
<!-- Node4 -->
<g id="node4" class="node"><title>Node4</title>
<g id="a_node4"><a xlink:href="BackgroundWithoutTitleEntity_8cpp.html" target="_top" xlink:title="src/Entities/EntityConstructor\l/BackgroundWithoutTitleEntity\l/BackgroundWithoutTitleEntity.cpp">
<polygon fill="none" stroke="black" points="386,-78.5 386,-119.5 564,-119.5 564,-78.5 386,-78.5"/>
<text text-anchor="start" x="394" y="-107.5" font-family="Helvetica,sans-Serif" font-size="10.00">src/Entities/EntityConstructor</text>
<text text-anchor="start" x="394" y="-96.5" font-family="Helvetica,sans-Serif" font-size="10.00">/BackgroundWithoutTitleEntity</text>
<text text-anchor="middle" x="475" y="-85.5" font-family="Helvetica,sans-Serif" font-size="10.00">/BackgroundWithoutTitleEntity.cpp</text>
</a>
</g>
</g>
<!-- Node1&#45;&gt;Node4 -->
<g id="edge3" class="edge"><title>Node1&#45;&gt;Node4</title>
<path fill="none" stroke="midnightblue" d="M2814.76,-170.66C2464.44,-171.103 1022.65,-169.806 574,-120 570.776,-119.642 567.501,-119.231 564.199,-118.778"/>
<polygon fill="midnightblue" stroke="midnightblue" points="2814.81,-174.16 2824.8,-170.646 2814.8,-167.16 2814.81,-174.16"/>
</g>
<!-- Node5 -->
<g id="node5" class="node"><title>Node5</title>
<g id="a_node5"><a xlink:href="BulletEntity_8cpp.html" target="_top" xlink:title="src/Entities/EntityConstructor\l/BulletEntity/BulletEntity.cpp">
<polygon fill="none" stroke="black" points="582.5,-84 582.5,-114 737.5,-114 737.5,-84 582.5,-84"/>
<text text-anchor="start" x="590.5" y="-102" font-family="Helvetica,sans-Serif" font-size="10.00">src/Entities/EntityConstructor</text>
<text text-anchor="middle" x="660" y="-91" font-family="Helvetica,sans-Serif" font-size="10.00">/BulletEntity/BulletEntity.cpp</text>
</a>
</g>
</g>
<!-- Node1&#45;&gt;Node5 -->
<g id="edge4" class="edge"><title>Node1&#45;&gt;Node5</title>
<path fill="none" stroke="midnightblue" d="M2814.81,-170.775C2480.91,-171.643 1159.11,-171.679 747,-120 736.082,-118.631 724.528,-116.483 713.531,-114.093"/>
<polygon fill="midnightblue" stroke="midnightblue" points="2814.88,-174.275 2824.87,-170.748 2814.86,-167.275 2814.88,-174.275"/>
</g>
<!-- Node6 -->
<g id="node6" class="node"><title>Node6</title>
<g id="a_node6"><a xlink:href="EnemyBulletEntity_8cpp.html" target="_top" xlink:title="src/Entities/EntityConstructor\l/EnemyBulletEntity/EnemyBulletEntity.cpp">
<polygon fill="none" stroke="black" points="755.5,-84 755.5,-114 970.5,-114 970.5,-84 755.5,-84"/>
<text text-anchor="start" x="763.5" y="-102" font-family="Helvetica,sans-Serif" font-size="10.00">src/Entities/EntityConstructor</text>
<text text-anchor="middle" x="863" y="-91" font-family="Helvetica,sans-Serif" font-size="10.00">/EnemyBulletEntity/EnemyBulletEntity.cpp</text>
</a>
</g>
</g>
<!-- Node1&#45;&gt;Node6 -->
<g id="edge5" class="edge"><title>Node1&#45;&gt;Node6</title>
<path fill="none" stroke="midnightblue" d="M2814.47,-169.932C2503.38,-167.424 1344.95,-155.827 980,-120 965.541,-118.581 950.173,-116.426 935.493,-114.049"/>
<polygon fill="midnightblue" stroke="midnightblue" points="2814.71,-173.434 2824.74,-170.014 2814.77,-166.434 2814.71,-173.434"/>
</g>
<!-- Node7 -->
<g id="node7" class="node"><title>Node7</title>
<g id="a_node7"><a xlink:href="EnemyEntity_8cpp.html" target="_top" xlink:title="src/Entities/EntityConstructor\l/EnemyEntity/EnemyEntity.cpp">
<polygon fill="none" stroke="black" points="988.5,-84 988.5,-114 1149.5,-114 1149.5,-84 988.5,-84"/>
<text text-anchor="start" x="996.5" y="-102" font-family="Helvetica,sans-Serif" font-size="10.00">src/Entities/EntityConstructor</text>
<text text-anchor="middle" x="1069" y="-91" font-family="Helvetica,sans-Serif" font-size="10.00">/EnemyEntity/EnemyEntity.cpp</text>
</a>
</g>
</g>
<!-- Node1&#45;&gt;Node7 -->
<g id="edge6" class="edge"><title>Node1&#45;&gt;Node7</title>
<path fill="none" stroke="midnightblue" d="M2814.47,-170.193C2522.06,-168.733 1486.11,-160.737 1159,-120 1147.72,-118.596 1135.78,-116.432 1124.4,-114.038"/>
<polygon fill="midnightblue" stroke="midnightblue" points="2814.54,-173.694 2824.55,-170.243 2814.57,-166.694 2814.54,-173.694"/>
</g>
<!-- Node8 -->
<g id="node8" class="node"><title>Node8</title>
<g id="a_node8"><a xlink:href="EnemyType01Entity_8cpp.html" target="_top" xlink:title="src/Entities/EntityConstructor\l/EnemyType01Entity/EnemyType01Entity.cpp">
<polygon fill="none" stroke="black" points="1167.5,-84 1167.5,-114 1394.5,-114 1394.5,-84 1167.5,-84"/>
<text text-anchor="start" x="1175.5" y="-102" font-family="Helvetica,sans-Serif" font-size="10.00">src/Entities/EntityConstructor</text>
<text text-anchor="middle" x="1281" y="-91" font-family="Helvetica,sans-Serif" font-size="10.00">/EnemyType01Entity/EnemyType01Entity.cpp</text>
</a>
</g>
</g>
<!-- Node1&#45;&gt;Node8 -->
<g id="edge7" class="edge"><title>Node1&#45;&gt;Node8</title>
<path fill="none" stroke="midnightblue" d="M2814.68,-169.177C2550.07,-164.447 1681.82,-147.19 1404,-120 1389.04,-118.535 1373.13,-116.392 1357.9,-114.046"/>
<polygon fill="midnightblue" stroke="midnightblue" points="2814.9,-172.682 2824.96,-169.36 2815.02,-165.683 2814.9,-172.682"/>
</g>
<!-- Node9 -->
<g id="node9" class="node"><title>Node9</title>
<g id="a_node9"><a xlink:href="EnemyType02Entity_8cpp.html" target="_top" xlink:title="src/Entities/EntityConstructor\l/EnemyType02Entity/EnemyType02Entity.cpp">
<polygon fill="none" stroke="black" points="1412.5,-84 1412.5,-114 1639.5,-114 1639.5,-84 1412.5,-84"/>
<text text-anchor="start" x="1420.5" y="-102" font-family="Helvetica,sans-Serif" font-size="10.00">src/Entities/EntityConstructor</text>
<text text-anchor="middle" x="1526" y="-91" font-family="Helvetica,sans-Serif" font-size="10.00">/EnemyType02Entity/EnemyType02Entity.cpp</text>
</a>
</g>
</g>
<!-- Node1&#45;&gt;Node9 -->
<g id="edge8" class="edge"><title>Node1&#45;&gt;Node9</title>
<path fill="none" stroke="midnightblue" d="M2814.58,-170.592C2618.82,-170.123 2088.35,-164.481 1649,-120 1634.15,-118.496 1618.37,-116.35 1603.24,-114.017"/>
<polygon fill="midnightblue" stroke="midnightblue" points="2814.76,-174.092 2824.77,-170.613 2814.77,-167.092 2814.76,-174.092"/>
</g>
<!-- Node10 -->
<g id="node10" class="node"><title>Node10</title>
<g id="a_node10"><a xlink:href="EnemyType03Entity_8cpp.html" target="_top" xlink:title="src/Entities/EntityConstructor\l/EnemyType03Entity/EnemyType03Entity.cpp">
<polygon fill="none" stroke="black" points="1657.5,-84 1657.5,-114 1884.5,-114 1884.5,-84 1657.5,-84"/>
<text text-anchor="start" x="1665.5" y="-102" font-family="Helvetica,sans-Serif" font-size="10.00">src/Entities/EntityConstructor</text>
<text text-anchor="middle" x="1771" y="-91" font-family="Helvetica,sans-Serif" font-size="10.00">/EnemyType03Entity/EnemyType03Entity.cpp</text>
</a>
</g>
</g>
<!-- Node1&#45;&gt;Node10 -->
<g id="edge9" class="edge"><title>Node1&#45;&gt;Node10</title>
<path fill="none" stroke="midnightblue" d="M2814.7,-169.498C2646.72,-166.681 2235.97,-156.341 1894,-120 1879.37,-118.445 1863.83,-116.305 1848.91,-114.001"/>
<polygon fill="midnightblue" stroke="midnightblue" points="2814.87,-173.001 2824.93,-169.665 2814.99,-166.002 2814.87,-173.001"/>
</g>
<!-- Node11 -->
<g id="node11" class="node"><title>Node11</title>
<g id="a_node11"><a xlink:href="GameBackgroundEntity_8cpp.html" target="_top" xlink:title="src/Entities/EntityConstructor\l/GameBackgroundEntity/GameBackground\lEntity.cpp">
<polygon fill="none" stroke="black" points="1903,-78.5 1903,-119.5 2125,-119.5 2125,-78.5 1903,-78.5"/>
<text text-anchor="start" x="1911" y="-107.5" font-family="Helvetica,sans-Serif" font-size="10.00">src/Entities/EntityConstructor</text>
<text text-anchor="start" x="1911" y="-96.5" font-family="Helvetica,sans-Serif" font-size="10.00">/GameBackgroundEntity/GameBackground</text>
<text text-anchor="middle" x="2014" y="-85.5" font-family="Helvetica,sans-Serif" font-size="10.00">Entity.cpp</text>
</a>
</g>
</g>
<!-- Node1&#45;&gt;Node11 -->
<g id="edge10" class="edge"><title>Node1&#45;&gt;Node11</title>
<path fill="none" stroke="midnightblue" d="M2814.56,-167.82C2677.28,-162.516 2382.39,-148.629 2135,-120 2131.72,-119.621 2128.4,-119.214 2125.04,-118.784"/>
<polygon fill="midnightblue" stroke="midnightblue" points="2814.84,-171.333 2824.97,-168.217 2815.11,-164.338 2814.84,-171.333"/>
</g>
<!-- Node12 -->
<g id="node12" class="node"><title>Node12</title>
<g id="a_node12"><a xlink:href="PlanetEntity_8cpp.html" target="_top" xlink:title="src/Entities/EntityConstructor\l/PlanetEntity/PlanetEntity.cpp">
<polygon fill="none" stroke="black" points="2143.5,-84 2143.5,-114 2298.5,-114 2298.5,-84 2143.5,-84"/>
<text text-anchor="start" x="2151.5" y="-102" font-family="Helvetica,sans-Serif" font-size="10.00">src/Entities/EntityConstructor</text>
<text text-anchor="middle" x="2221" y="-91" font-family="Helvetica,sans-Serif" font-size="10.00">/PlanetEntity/PlanetEntity.cpp</text>
</a>
</g>
</g>
<!-- Node1&#45;&gt;Node12 -->
<g id="edge11" class="edge"><title>Node1&#45;&gt;Node12</title>
<path fill="none" stroke="midnightblue" d="M2814.42,-167.244C2702.15,-161.751 2488.11,-148.347 2308,-120 2297.9,-118.41 2287.22,-116.31 2276.94,-114.069"/>
<polygon fill="midnightblue" stroke="midnightblue" points="2814.47,-170.75 2824.63,-167.735 2814.81,-163.758 2814.47,-170.75"/>
</g>
<!-- Node13 -->
<g id="node13" class="node"><title>Node13</title>
<g id="a_node13"><a xlink:href="PlanetRingEntity_8cpp.html" target="_top" xlink:title="src/Entities/EntityConstructor\l/PlanetRingEntity/PlanetRingEntity.cpp">
<polygon fill="none" stroke="black" points="2317,-84 2317,-114 2513,-114 2513,-84 2317,-84"/>
<text text-anchor="start" x="2325" y="-102" font-family="Helvetica,sans-Serif" font-size="10.00">src/Entities/EntityConstructor</text>
<text text-anchor="middle" x="2415" y="-91" font-family="Helvetica,sans-Serif" font-size="10.00">/PlanetRingEntity/PlanetRingEntity.cpp</text>
</a>
</g>
</g>
<!-- Node1&#45;&gt;Node13 -->
<g id="edge12" class="edge"><title>Node1&#45;&gt;Node13</title>
<path fill="none" stroke="midnightblue" d="M2814.59,-160.984C2739.82,-151.537 2623.45,-136.165 2523,-120 2511.7,-118.182 2499.77,-116.118 2488.12,-114.022"/>
<polygon fill="midnightblue" stroke="midnightblue" points="2814.5,-164.5 2824.86,-162.277 2815.38,-157.555 2814.5,-164.5"/>
</g>
<!-- Node14 -->
<g id="node14" class="node"><title>Node14</title>
<g id="a_node14"><a xlink:href="PlayerEntity_8cpp.html" target="_top" xlink:title="src/Entities/EntityConstructor\l/PlayerEntity/PlayerEntity.cpp">
<polygon fill="none" stroke="black" points="2531.5,-84 2531.5,-114 2686.5,-114 2686.5,-84 2531.5,-84"/>
<text text-anchor="start" x="2539.5" y="-102" font-family="Helvetica,sans-Serif" font-size="10.00">src/Entities/EntityConstructor</text>
<text text-anchor="middle" x="2609" y="-91" font-family="Helvetica,sans-Serif" font-size="10.00">/PlayerEntity/PlayerEntity.cpp</text>
</a>
</g>
</g>
<!-- Node1&#45;&gt;Node14 -->
<g id="edge13" class="edge"><title>Node1&#45;&gt;Node14</title>
<path fill="none" stroke="midnightblue" d="M2825.95,-154.046C2777.32,-141.931 2711.88,-125.629 2665.63,-114.107"/>
<polygon fill="midnightblue" stroke="midnightblue" points="2825.2,-157.466 2835.75,-156.487 2826.89,-150.674 2825.2,-157.466"/>
</g>
<!-- Node15 -->
<g id="node15" class="node"><title>Node15</title>
<g id="a_node15"><a xlink:href="PlayerTwoEntity_8cpp.html" target="_top" xlink:title="src/Entities/EntityConstructor\l/PlayerTwoEntity/PlayerTwoEntity.cpp">
<polygon fill="none" stroke="black" points="2704.5,-84 2704.5,-114 2891.5,-114 2891.5,-84 2704.5,-84"/>
<text text-anchor="start" x="2712.5" y="-102" font-family="Helvetica,sans-Serif" font-size="10.00">src/Entities/EntityConstructor</text>
<text text-anchor="middle" x="2798" y="-91" font-family="Helvetica,sans-Serif" font-size="10.00">/PlayerTwoEntity/PlayerTwoEntity.cpp</text>
</a>
</g>
</g>
<!-- Node1&#45;&gt;Node15 -->
<g id="edge14" class="edge"><title>Node1&#45;&gt;Node15</title>
<path fill="none" stroke="midnightblue" d="M2864.81,-150.11C2849.37,-138.529 2830.44,-124.328 2816.67,-114.005"/>
<polygon fill="midnightblue" stroke="midnightblue" points="2862.88,-153.033 2872.98,-156.233 2867.08,-147.433 2862.88,-153.033"/>
</g>
<!-- Node16 -->
<g id="node16" class="node"><title>Node16</title>
<g id="a_node16"><a xlink:href="StarsEntity_8cpp.html" target="_top" xlink:title="src/Entities/EntityConstructor\l/StarsEntity/StarsEntity.cpp">
<polygon fill="none" stroke="black" points="2909.5,-84 2909.5,-114 3064.5,-114 3064.5,-84 2909.5,-84"/>
<text text-anchor="start" x="2917.5" y="-102" font-family="Helvetica,sans-Serif" font-size="10.00">src/Entities/EntityConstructor</text>
<text text-anchor="middle" x="2987" y="-91" font-family="Helvetica,sans-Serif" font-size="10.00">/StarsEntity/StarsEntity.cpp</text>
</a>
</g>
</g>
<!-- Node1&#45;&gt;Node16 -->
<g id="edge15" class="edge"><title>Node1&#45;&gt;Node16</title>
<path fill="none" stroke="midnightblue" d="M2919.48,-150.11C2935.08,-138.529 2954.22,-124.328 2968.13,-114.005"/>
<polygon fill="midnightblue" stroke="midnightblue" points="2917.17,-147.463 2911.22,-156.233 2921.34,-153.085 2917.17,-147.463"/>
</g>
<!-- Node17 -->
<g id="node17" class="node"><title>Node17</title>
<g id="a_node17"><a xlink:href="TestBackground_8cpp.html" target="_top" xlink:title="src/Entities/EntityConstructor\l/TestBackground/TestBackground.cpp">
<polygon fill="none" stroke="black" points="3083,-84 3083,-114 3277,-114 3277,-84 3083,-84"/>
<text text-anchor="start" x="3091" y="-102" font-family="Helvetica,sans-Serif" font-size="10.00">src/Entities/EntityConstructor</text>
<text text-anchor="middle" x="3180" y="-91" font-family="Helvetica,sans-Serif" font-size="10.00">/TestBackground/TestBackground.cpp</text>
</a>
</g>
</g>
<!-- Node1&#45;&gt;Node17 -->
<g id="edge16" class="edge"><title>Node1&#45;&gt;Node17</title>
<path fill="none" stroke="midnightblue" d="M2959.22,-154.046C3008.71,-141.931 3075.3,-125.629 3122.37,-114.107"/>
<polygon fill="midnightblue" stroke="midnightblue" points="2958.12,-150.71 2949.24,-156.487 2959.79,-157.509 2958.12,-150.71"/>
</g>
<!-- Node18 -->
<g id="node18" class="node"><title>Node18</title>
<g id="a_node18"><a xlink:href="TestEntity_8cpp.html" target="_top" xlink:title="src/Entities/EntityConstructor\l/TestEntity/TestEntity.cpp">
<polygon fill="none" stroke="black" points="3295.5,-84 3295.5,-114 3450.5,-114 3450.5,-84 3295.5,-84"/>
<text text-anchor="start" x="3303.5" y="-102" font-family="Helvetica,sans-Serif" font-size="10.00">src/Entities/EntityConstructor</text>
<text text-anchor="middle" x="3373" y="-91" font-family="Helvetica,sans-Serif" font-size="10.00">/TestEntity/TestEntity.cpp</text>
</a>
</g>
</g>
<!-- Node1&#45;&gt;Node18 -->
<g id="edge17" class="edge"><title>Node1&#45;&gt;Node18</title>
<path fill="none" stroke="midnightblue" d="M2969.19,-162.879C3048.87,-154.481 3176.63,-139.532 3286,-120 3295.61,-118.284 3305.76,-116.201 3315.6,-114.036"/>
<polygon fill="midnightblue" stroke="midnightblue" points="2968.81,-159.399 2959.23,-163.921 2969.54,-166.361 2968.81,-159.399"/>
</g>
<!-- Node19 -->
<g id="node19" class="node"><title>Node19</title>
<g id="a_node19"><a xlink:href="TestEntity2_8cpp.html" target="_top" xlink:title="src/Entities/EntityConstructor\l/TestEntity2/TestEntity2.cpp">
<polygon fill="none" stroke="black" points="3468.5,-84 3468.5,-114 3623.5,-114 3623.5,-84 3468.5,-84"/>
<text text-anchor="start" x="3476.5" y="-102" font-family="Helvetica,sans-Serif" font-size="10.00">src/Entities/EntityConstructor</text>
<text text-anchor="middle" x="3546" y="-91" font-family="Helvetica,sans-Serif" font-size="10.00">/TestEntity2/TestEntity2.cpp</text>
</a>
</g>
</g>
<!-- Node1&#45;&gt;Node19 -->
<g id="edge18" class="edge"><title>Node1&#45;&gt;Node19</title>
<path fill="none" stroke="midnightblue" d="M2969.58,-167.044C3079.34,-161.374 3285.98,-147.83 3460,-120 3469.99,-118.402 3480.55,-116.299 3490.71,-114.057"/>
<polygon fill="midnightblue" stroke="midnightblue" points="2969.08,-163.565 2959.27,-167.568 2969.43,-170.556 2969.08,-163.565"/>
</g>
<!-- Node20 -->
<g id="node20" class="node"><title>Node20</title>
<g id="a_node20"><a xlink:href="WallSideEntity_8cpp.html" target="_top" xlink:title="src/Entities/EntityConstructor\l/WallSideEntity/WallSideEntity.cpp">
<polygon fill="none" stroke="black" points="3641.5,-84 3641.5,-114 3814.5,-114 3814.5,-84 3641.5,-84"/>
<text text-anchor="start" x="3649.5" y="-102" font-family="Helvetica,sans-Serif" font-size="10.00">src/Entities/EntityConstructor</text>
<text text-anchor="middle" x="3728" y="-91" font-family="Helvetica,sans-Serif" font-size="10.00">/WallSideEntity/WallSideEntity.cpp</text>
</a>
</g>
</g>
<!-- Node1&#45;&gt;Node20 -->
<g id="edge19" class="edge"><title>Node1&#45;&gt;Node20</title>
<path fill="none" stroke="midnightblue" d="M2969.51,-168.771C3104.76,-164.964 3392.44,-153.353 3633,-120 3644.27,-118.438 3656.2,-116.309 3667.66,-114.02"/>
<polygon fill="midnightblue" stroke="midnightblue" points="2969.15,-165.28 2959.25,-169.053 2969.34,-172.277 2969.15,-165.28"/>
</g>
<!-- Node21 -->
<g id="node21" class="node"><title>Node21</title>
<g id="a_node21"><a xlink:href="EntityManager_8cpp.html" target="_top" xlink:title="src/Entities/EntityManager\l/EntityManager.cpp">
<polygon fill="none" stroke="black" points="3832.5,-84 3832.5,-114 3973.5,-114 3973.5,-84 3832.5,-84"/>
<text text-anchor="start" x="3840.5" y="-102" font-family="Helvetica,sans-Serif" font-size="10.00">src/Entities/EntityManager</text>
<text text-anchor="middle" x="3903" y="-91" font-family="Helvetica,sans-Serif" font-size="10.00">/EntityManager.cpp</text>
</a>
</g>
</g>
<!-- Node1&#45;&gt;Node21 -->
<g id="edge20" class="edge"><title>Node1&#45;&gt;Node21</title>
<path fill="none" stroke="midnightblue" d="M2969.37,-171.352C3129.75,-172.012 3509.7,-167.837 3824,-120 3833.65,-118.531 3843.84,-116.401 3853.57,-114.073"/>
<polygon fill="midnightblue" stroke="midnightblue" points="2969.15,-167.851 2959.13,-171.302 2969.11,-174.851 2969.15,-167.851"/>
</g>
<!-- Node22 -->
<g id="node22" class="node"><title>Node22</title>
<g id="a_node22"><a xlink:href="EntityFactory_8cpp.html" target="_top" xlink:title="src/Entities/Factories\l/EntityFactory.cpp">
<polygon fill="none" stroke="black" points="3991.5,-84 3991.5,-114 4106.5,-114 4106.5,-84 3991.5,-84"/>
<text text-anchor="start" x="3999.5" y="-102" font-family="Helvetica,sans-Serif" font-size="10.00">src/Entities/Factories</text>
<text text-anchor="middle" x="4049" y="-91" font-family="Helvetica,sans-Serif" font-size="10.00">/EntityFactory.cpp</text>
</a>
</g>
</g>
<!-- Node1&#45;&gt;Node22 -->
<g id="edge21" class="edge"><title>Node1&#45;&gt;Node22</title>
<path fill="none" stroke="midnightblue" d="M2969.6,-169.405C3185.1,-165.966 3787.88,-153.543 3983,-120 3991.26,-118.58 3999.94,-116.441 4008.19,-114.083"/>
<polygon fill="midnightblue" stroke="midnightblue" points="2969.27,-165.909 2959.32,-169.567 2969.38,-172.909 2969.27,-165.909"/>
</g>
<!-- Node23 -->
<g id="node23" class="node"><title>Node23</title>
<g id="a_node23"><a xlink:href="Serializer_8hpp.html" target="_top" xlink:title="src/Entities/Serializer\l/Serializer.hpp">
<polygon fill="none" stroke="black" points="4125,-84 4125,-114 4241,-114 4241,-84 4125,-84"/>
<text text-anchor="start" x="4133" y="-102" font-family="Helvetica,sans-Serif" font-size="10.00">src/Entities/Serializer</text>
<text text-anchor="middle" x="4183" y="-91" font-family="Helvetica,sans-Serif" font-size="10.00">/Serializer.hpp</text>
</a>
</g>
</g>
<!-- Node1&#45;&gt;Node23 -->
<g id="edge22" class="edge"><title>Node1&#45;&gt;Node23</title>
<path fill="none" stroke="midnightblue" d="M2969.24,-169.823C3201.94,-167.385 3893.93,-157.128 4116,-120 4124.5,-118.579 4133.44,-116.407 4141.92,-114.011"/>
<polygon fill="midnightblue" stroke="midnightblue" points="2969.13,-166.323 2959.17,-169.926 2969.2,-173.323 2969.13,-166.323"/>
</g>
<!-- Node25 -->
<g id="node25" class="node"><title>Node25</title>
<g id="a_node25"><a xlink:href="AnimationSystem_8hpp.html" target="_top" xlink:title="src/Systems/SystemConstructor\l/AnimationSystem/AnimationSystem.hpp">
<polygon fill="none" stroke="black" points="4297.5,-84 4297.5,-114 4512.5,-114 4512.5,-84 4297.5,-84"/>
<text text-anchor="start" x="4305.5" y="-102" font-family="Helvetica,sans-Serif" font-size="10.00">src/Systems/SystemConstructor</text>
<text text-anchor="middle" x="4405" y="-91" font-family="Helvetica,sans-Serif" font-size="10.00">/AnimationSystem/AnimationSystem.hpp</text>
</a>
</g>
</g>
<!-- Node1&#45;&gt;Node25 -->
<g id="edge24" class="edge"><title>Node1&#45;&gt;Node25</title>
<path fill="none" stroke="midnightblue" d="M2969.21,-171.107C3180.21,-172.03 3784.1,-169.749 4283,-120 4297.84,-118.52 4313.62,-116.369 4328.73,-114.021"/>
<polygon fill="midnightblue" stroke="midnightblue" points="2969.17,-167.607 2959.16,-171.059 2969.14,-174.607 2969.17,-167.607"/>
</g>
<!-- Node28 -->
<g id="node28" class="node"><title>Node28</title>
<g id="a_node28"><a xlink:href="EnemiesMovementSystem_8hpp.html" target="_top" xlink:title="src/Systems/SystemConstructor\l/EnemiesMovementSystem/EnemiesMovement\lSystem.hpp">
<polygon fill="none" stroke="black" points="4531,-78.5 4531,-119.5 4775,-119.5 4775,-78.5 4531,-78.5"/>
<text text-anchor="start" x="4539" y="-107.5" font-family="Helvetica,sans-Serif" font-size="10.00">src/Systems/SystemConstructor</text>
<text text-anchor="start" x="4539" y="-96.5" font-family="Helvetica,sans-Serif" font-size="10.00">/EnemiesMovementSystem/EnemiesMovement</text>
<text text-anchor="middle" x="4653" y="-85.5" font-family="Helvetica,sans-Serif" font-size="10.00">System.hpp</text>
</a>
</g>
</g>
<!-- Node1&#45;&gt;Node28 -->
<g id="edge27" class="edge"><title>Node1&#45;&gt;Node28</title>
<path fill="none" stroke="midnightblue" d="M2969.51,-169.339C3250.45,-164.938 4214.95,-148.092 4522,-120 4524.86,-119.738 4527.76,-119.454 4530.68,-119.15"/>
<polygon fill="midnightblue" stroke="midnightblue" points="2969.35,-165.841 2959.41,-169.497 2969.46,-172.84 2969.35,-165.841"/>
</g>
<!-- Node30 -->
<g id="node30" class="node"><title>Node30</title>
<g id="a_node30"><a xlink:href="MovementSystem_8hpp.html" target="_top" xlink:title="src/Systems/SystemConstructor\l/MovementSystem/MovementSystem.hpp">
<polygon fill="none" stroke="black" points="4793.5,-84 4793.5,-114 5012.5,-114 5012.5,-84 4793.5,-84"/>
<text text-anchor="start" x="4801.5" y="-102" font-family="Helvetica,sans-Serif" font-size="10.00">src/Systems/SystemConstructor</text>
<text text-anchor="middle" x="4903" y="-91" font-family="Helvetica,sans-Serif" font-size="10.00">/MovementSystem/MovementSystem.hpp</text>
</a>
</g>
</g>
<!-- Node1&#45;&gt;Node30 -->
<g id="edge30" class="edge"><title>Node1&#45;&gt;Node30</title>
<path fill="none" stroke="midnightblue" d="M2969.24,-169.881C3277.83,-167.183 4423.02,-154.979 4784,-120 4798.7,-118.576 4814.33,-116.419 4829.26,-114.041"/>
<polygon fill="midnightblue" stroke="midnightblue" points="2969.02,-166.382 2959.05,-169.969 2969.08,-173.382 2969.02,-166.382"/>
</g>
<!-- Node32 -->
<g id="node32" class="node"><title>Node32</title>
<g id="a_node32"><a xlink:href="MovementSystem_8cpp.html" target="_top" xlink:title="src/Systems/SystemConstructor\l/MovementSystem/MovementSystem.cpp">
<polygon fill="none" stroke="black" points="4295,-6 4295,-36 4513,-36 4513,-6 4295,-6"/>
<text text-anchor="start" x="4303" y="-24" font-family="Helvetica,sans-Serif" font-size="10.00">src/Systems/SystemConstructor</text>
<text text-anchor="middle" x="4404" y="-13" font-family="Helvetica,sans-Serif" font-size="10.00">/MovementSystem/MovementSystem.cpp</text>
</a>
</g>
</g>
<!-- Node1&#45;&gt;Node32 -->
<g id="edge34" class="edge"><title>Node1&#45;&gt;Node32</title>
<path fill="none" stroke="midnightblue" d="M2969.46,-171.058C3240.14,-172.536 4133.74,-173.291 4250,-120 4273.16,-109.386 4268.53,-93.1673 4289,-78 4312.82,-60.3483 4343.07,-45.8778 4366.57,-36.0709"/>
<polygon fill="midnightblue" stroke="midnightblue" points="2969.35,-167.557 2959.33,-171 2969.31,-174.557 2969.35,-167.557"/>
</g>
<!-- Node33 -->
<g id="node33" class="node"><title>Node33</title>
<g id="a_node33"><a xlink:href="ParallaxSystem_8hpp.html" target="_top" xlink:title="src/Systems/SystemConstructor\l/ParallaxSystem/ParallaxSystem.hpp">
<polygon fill="none" stroke="black" points="5368.5,-84 5368.5,-114 5559.5,-114 5559.5,-84 5368.5,-84"/>
<text text-anchor="start" x="5376.5" y="-102" font-family="Helvetica,sans-Serif" font-size="10.00">src/Systems/SystemConstructor</text>
<text text-anchor="middle" x="5464" y="-91" font-family="Helvetica,sans-Serif" font-size="10.00">/ParallaxSystem/ParallaxSystem.hpp</text>
</a>
</g>
</g>
<!-- Node1&#45;&gt;Node33 -->
<g id="edge35" class="edge"><title>Node1&#45;&gt;Node33</title>
<path fill="none" stroke="midnightblue" d="M2969.65,-170.997C3266.91,-172.443 4360.94,-173.58 5260,-120 5295.43,-117.888 5334.23,-114.386 5368.38,-110.897"/>
<polygon fill="midnightblue" stroke="midnightblue" points="2969.43,-167.496 2959.41,-170.945 2969.4,-174.496 2969.43,-167.496"/>
</g>
<!-- Node38 -->
<g id="node38" class="node"><title>Node38</title>
<g id="a_node38"><a xlink:href="PlayerMovementSystem_8hpp.html" target="_top" xlink:title="src/Systems/SystemConstructor\l/PlayerMovementSystem/PlayerMovement\lSystem.hpp">
<polygon fill="none" stroke="black" points="5031,-78.5 5031,-119.5 5251,-119.5 5251,-78.5 5031,-78.5"/>
<text text-anchor="start" x="5039" y="-107.5" font-family="Helvetica,sans-Serif" font-size="10.00">src/Systems/SystemConstructor</text>
<text text-anchor="start" x="5039" y="-96.5" font-family="Helvetica,sans-Serif" font-size="10.00">/PlayerMovementSystem/PlayerMovement</text>
<text text-anchor="middle" x="5141" y="-85.5" font-family="Helvetica,sans-Serif" font-size="10.00">System.hpp</text>
</a>
</g>
</g>
<!-- Node1&#45;&gt;Node38 -->
<g id="edge41" class="edge"><title>Node1&#45;&gt;Node38</title>
<path fill="none" stroke="midnightblue" d="M2969.13,-170.149C3301.33,-168.407 4611.65,-159.145 5022,-120 5024.92,-119.721 5027.88,-119.414 5030.86,-119.08"/>
<polygon fill="midnightblue" stroke="midnightblue" points="2969.11,-166.649 2959.12,-170.2 2969.14,-173.648 2969.11,-166.649"/>
</g>
<!-- Node24 -->
<g id="node24" class="node"><title>Node24</title>
<g id="a_node24"><a xlink:href="Serializer_8cpp.html" target="_top" xlink:title="src/Entities/Serializer\l/Serializer.cpp">
<polygon fill="none" stroke="black" points="3929,-6 3929,-36 4045,-36 4045,-6 3929,-6"/>
<text text-anchor="start" x="3937" y="-24" font-family="Helvetica,sans-Serif" font-size="10.00">src/Entities/Serializer</text>
<text text-anchor="middle" x="3987" y="-13" font-family="Helvetica,sans-Serif" font-size="10.00">/Serializer.cpp</text>
</a>
</g>
</g>
<!-- Node23&#45;&gt;Node24 -->
<g id="edge23" class="edge"><title>Node23&#45;&gt;Node24</title>
<path fill="none" stroke="midnightblue" d="M4137.14,-80.2193C4102.4,-66.7488 4055.33,-48.4956 4023.21,-36.0413"/>
<polygon fill="midnightblue" stroke="midnightblue" points="4136,-83.531 4146.59,-83.8831 4138.53,-77.0045 4136,-83.531"/>
</g>
<!-- Node26 -->
<g id="node26" class="node"><title>Node26</title>
<g id="a_node26"><a xlink:href="GameScene_8cpp.html" target="_top" xlink:title="src/Scenes/GameScene.cpp">
<polygon fill="none" stroke="black" points="4793,-11.5 4793,-30.5 4945,-30.5 4945,-11.5 4793,-11.5"/>
<text text-anchor="middle" x="4869" y="-18.5" font-family="Helvetica,sans-Serif" font-size="10.00">src/Scenes/GameScene.cpp</text>
</a>
</g>
</g>
<!-- Node25&#45;&gt;Node26 -->
<g id="edge25" class="edge"><title>Node25&#45;&gt;Node26</title>
<path fill="none" stroke="midnightblue" d="M4494.81,-82.3408C4503.99,-80.8327 4513.18,-79.3601 4522,-78 4638.17,-60.0952 4668.44,-63.4845 4784,-42 4801.29,-38.7856 4820.36,-34.3778 4836.05,-30.5181"/>
<polygon fill="midnightblue" stroke="midnightblue" points="4494.17,-78.8995 4484.87,-83.9876 4495.31,-85.8053 4494.17,-78.8995"/>
</g>
<!-- Node27 -->
<g id="node27" class="node"><title>Node27</title>
<g id="a_node27"><a xlink:href="AnimationSystem_8cpp.html" target="_top" xlink:title="src/Systems/SystemConstructor\l/AnimationSystem/AnimationSystem.cpp">
<polygon fill="none" stroke="black" points="4063,-6 4063,-36 4277,-36 4277,-6 4063,-6"/>
<text text-anchor="start" x="4071" y="-24" font-family="Helvetica,sans-Serif" font-size="10.00">src/Systems/SystemConstructor</text>
<text text-anchor="middle" x="4170" y="-13" font-family="Helvetica,sans-Serif" font-size="10.00">/AnimationSystem/AnimationSystem.cpp</text>
</a>
</g>
</g>
<!-- Node25&#45;&gt;Node27 -->
<g id="edge26" class="edge"><title>Node25&#45;&gt;Node27</title>
<path fill="none" stroke="midnightblue" d="M4351.9,-80.8256C4310.11,-67.3128 4252.61,-48.7164 4213.52,-36.0749"/>
<polygon fill="midnightblue" stroke="midnightblue" points="4351.03,-84.2248 4361.62,-83.9719 4353.19,-77.5645 4351.03,-84.2248"/>
</g>
<!-- Node28&#45;&gt;Node26 -->
<g id="edge28" class="edge"><title>Node28&#45;&gt;Node26</title>
<path fill="none" stroke="midnightblue" d="M4718.12,-75.0878C4760.83,-60.0587 4814.23,-41.2706 4844.69,-30.552"/>
<polygon fill="midnightblue" stroke="midnightblue" points="4716.9,-71.8074 4708.63,-78.4281 4719.22,-78.4106 4716.9,-71.8074"/>
</g>
<!-- Node29 -->
<g id="node29" class="node"><title>Node29</title>
<g id="a_node29"><a xlink:href="EnemiesMovementSystem_8cpp.html" target="_top" xlink:title="src/Systems/SystemConstructor\l/EnemiesMovementSystem/EnemiesMovement\lSystem.cpp">
<polygon fill="none" stroke="black" points="4531,-0.5 4531,-41.5 4775,-41.5 4775,-0.5 4531,-0.5"/>
<text text-anchor="start" x="4539" y="-29.5" font-family="Helvetica,sans-Serif" font-size="10.00">src/Systems/SystemConstructor</text>
<text text-anchor="start" x="4539" y="-18.5" font-family="Helvetica,sans-Serif" font-size="10.00">/EnemiesMovementSystem/EnemiesMovement</text>
<text text-anchor="middle" x="4653" y="-7.5" font-family="Helvetica,sans-Serif" font-size="10.00">System.cpp</text>
</a>
</g>
</g>
<!-- Node28&#45;&gt;Node29 -->
<g id="edge29" class="edge"><title>Node28&#45;&gt;Node29</title>
<path fill="none" stroke="midnightblue" d="M4653,-68.2965C4653,-59.3009 4653,-49.6532 4653,-41.5056"/>
<polygon fill="midnightblue" stroke="midnightblue" points="4649.5,-68.4281 4653,-78.4281 4656.5,-68.4281 4649.5,-68.4281"/>
</g>
<!-- Node30&#45;&gt;Node26 -->
<g id="edge32" class="edge"><title>Node30&#45;&gt;Node26</title>
<path fill="none" stroke="midnightblue" d="M4892.5,-74.5221C4885.82,-59.5954 4877.57,-41.1499 4872.83,-30.5635"/>
<polygon fill="midnightblue" stroke="midnightblue" points="4889.33,-76.0061 4896.6,-83.705 4895.72,-73.1475 4889.33,-76.0061"/>
</g>
<!-- Node31 -->
<g id="node31" class="node"><title>Node31</title>
<g id="a_node31"><a xlink:href="Rtype_8cpp.html" target="_top" xlink:title="src/Rtype.cpp">
<polygon fill="none" stroke="black" points="4963.5,-11.5 4963.5,-30.5 5044.5,-30.5 5044.5,-11.5 4963.5,-11.5"/>
<text text-anchor="middle" x="5004" y="-18.5" font-family="Helvetica,sans-Serif" font-size="10.00">src/Rtype.cpp</text>
</a>
</g>
</g>
<!-- Node30&#45;&gt;Node31 -->
<g id="edge31" class="edge"><title>Node30&#45;&gt;Node31</title>
<path fill="none" stroke="midnightblue" d="M4930.03,-77.6627C4950.48,-62.2706 4977.55,-41.906 4992.62,-30.5635"/>
<polygon fill="midnightblue" stroke="midnightblue" points="4927.88,-74.8956 4922,-83.705 4932.09,-80.489 4927.88,-74.8956"/>
</g>
<!-- Node30&#45;&gt;Node32 -->
<g id="edge33" class="edge"><title>Node30&#45;&gt;Node32</title>
<path fill="none" stroke="midnightblue" d="M4811.41,-82.3233C4802.16,-80.8244 4792.9,-79.3586 4784,-78 4667.81,-60.2574 4638.18,-59.823 4522,-42 4509.88,-40.1411 4497.08,-38.0767 4484.56,-36.0003"/>
<polygon fill="midnightblue" stroke="midnightblue" points="4811,-85.8022 4821.43,-83.9591 4812.13,-78.8937 4811,-85.8022"/>
</g>
<!-- Node33&#45;&gt;Node26 -->
<g id="edge38" class="edge"><title>Node33&#45;&gt;Node26</title>
<path fill="none" stroke="midnightblue" d="M5358.32,-87.0518C5220.86,-72.707 4993.66,-48.5979 4955,-42 4937.17,-38.957 4917.5,-34.4699 4901.48,-30.5167"/>
<polygon fill="midnightblue" stroke="midnightblue" points="5358.15,-90.5538 5368.46,-88.11 5358.88,-83.5915 5358.15,-90.5538"/>
</g>
<!-- Node34 -->
<g id="node34" class="node"><title>Node34</title>
<g id="a_node34"><a xlink:href="ChooseRoomScene_8cpp.html" target="_top" xlink:title="src/Scenes/ChooseRoomScene.cpp">
<polygon fill="none" stroke="black" points="5850.5,-11.5 5850.5,-30.5 6035.5,-30.5 6035.5,-11.5 5850.5,-11.5"/>
<text text-anchor="middle" x="5943" y="-18.5" font-family="Helvetica,sans-Serif" font-size="10.00">src/Scenes/ChooseRoomScene.cpp</text>
</a>
</g>
</g>
<!-- Node33&#45;&gt;Node34 -->
<g id="edge36" class="edge"><title>Node33&#45;&gt;Node34</title>
<path fill="none" stroke="midnightblue" d="M5569.89,-83.6025C5645.57,-72.9888 5749.73,-57.7183 5841,-42 5861.1,-38.5392 5883.32,-34.2369 5901.89,-30.5102"/>
<polygon fill="midnightblue" stroke="midnightblue" points="5569.29,-80.152 5559.87,-85.0036 5570.26,-87.0845 5569.29,-80.152"/>
</g>
<!-- Node35 -->
<g id="node35" class="node"><title>Node35</title>
<g id="a_node35"><a xlink:href="DefeatScene_8cpp.html" target="_top" xlink:title="src/Scenes/DefeatScene.cpp">
<polygon fill="none" stroke="black" points="5301.5,-11.5 5301.5,-30.5 5456.5,-30.5 5456.5,-11.5 5301.5,-11.5"/>
<text text-anchor="middle" x="5379" y="-18.5" font-family="Helvetica,sans-Serif" font-size="10.00">src/Scenes/DefeatScene.cpp</text>
</a>
</g>
</g>
<!-- Node33&#45;&gt;Node35 -->
<g id="edge37" class="edge"><title>Node33&#45;&gt;Node35</title>
<path fill="none" stroke="midnightblue" d="M5440.1,-76.6293C5423.03,-61.37 5400.98,-41.654 5388.58,-30.5635"/>
<polygon fill="midnightblue" stroke="midnightblue" points="5438.22,-79.6487 5448.01,-83.705 5442.89,-74.4304 5438.22,-79.6487"/>
</g>
<!-- Node36 -->
<g id="node36" class="node"><title>Node36</title>
<g id="a_node36"><a xlink:href="MenuScene_8cpp.html" target="_top" xlink:title="src/Scenes/MenuScene.cpp">
<polygon fill="none" stroke="black" points="5474.5,-11.5 5474.5,-30.5 5623.5,-30.5 5623.5,-11.5 5474.5,-11.5"/>
<text text-anchor="middle" x="5549" y="-18.5" font-family="Helvetica,sans-Serif" font-size="10.00">src/Scenes/MenuScene.cpp</text>
</a>
</g>
</g>
<!-- Node33&#45;&gt;Node36 -->
<g id="edge39" class="edge"><title>Node33&#45;&gt;Node36</title>
<path fill="none" stroke="midnightblue" d="M5487.9,-76.6293C5504.97,-61.37 5527.02,-41.654 5539.42,-30.5635"/>
<polygon fill="midnightblue" stroke="midnightblue" points="5485.11,-74.4304 5479.99,-83.705 5489.78,-79.6487 5485.11,-74.4304"/>
</g>
<!-- Node37 -->
<g id="node37" class="node"><title>Node37</title>
<g id="a_node37"><a xlink:href="ParallaxSystem_8cpp.html" target="_top" xlink:title="src/Systems/SystemConstructor\l/ParallaxSystem/ParallaxSystem.cpp">
<polygon fill="none" stroke="black" points="5642,-6 5642,-36 5832,-36 5832,-6 5642,-6"/>
<text text-anchor="start" x="5650" y="-24" font-family="Helvetica,sans-Serif" font-size="10.00">src/Systems/SystemConstructor</text>
<text text-anchor="middle" x="5737" y="-13" font-family="Helvetica,sans-Serif" font-size="10.00">/ParallaxSystem/ParallaxSystem.cpp</text>
</a>
</g>
</g>
<!-- Node33&#45;&gt;Node37 -->
<g id="edge40" class="edge"><title>Node33&#45;&gt;Node37</title>
<path fill="none" stroke="midnightblue" d="M5524.16,-81.2516C5572.82,-67.7058 5640.55,-48.8498 5686.44,-36.0749"/>
<polygon fill="midnightblue" stroke="midnightblue" points="5523.09,-77.9181 5514.39,-83.9719 5524.96,-84.6617 5523.09,-77.9181"/>
</g>
<!-- Node38&#45;&gt;Node26 -->
<g id="edge43" class="edge"><title>Node38&#45;&gt;Node26</title>
<path fill="none" stroke="midnightblue" d="M5061.03,-75.6543C5006.91,-60.5337 4938.45,-41.4057 4899.61,-30.552"/>
<polygon fill="midnightblue" stroke="midnightblue" points="5060.38,-79.1079 5070.95,-78.4281 5062.26,-72.3661 5060.38,-79.1079"/>
</g>
<!-- Node38&#45;&gt;Node31 -->
<g id="edge42" class="edge"><title>Node38&#45;&gt;Node31</title>
<path fill="none" stroke="midnightblue" d="M5096.94,-73.56C5070.35,-58.8048 5038.09,-40.9103 5019.42,-30.552"/>
<polygon fill="midnightblue" stroke="midnightblue" points="5095.28,-76.6377 5105.72,-78.4281 5098.67,-70.5164 5095.28,-76.6377"/>
</g>
<!-- Node39 -->
<g id="node39" class="node"><title>Node39</title>
<g id="a_node39"><a xlink:href="PlayerMovementSystem_8cpp.html" target="_top" xlink:title="src/Systems/SystemConstructor\l/PlayerMovementSystem/PlayerMovement\lSystem.cpp">
<polygon fill="none" stroke="black" points="5063,-0.5 5063,-41.5 5283,-41.5 5283,-0.5 5063,-0.5"/>
<text text-anchor="start" x="5071" y="-29.5" font-family="Helvetica,sans-Serif" font-size="10.00">src/Systems/SystemConstructor</text>
<text text-anchor="start" x="5071" y="-18.5" font-family="Helvetica,sans-Serif" font-size="10.00">/PlayerMovementSystem/PlayerMovement</text>
<text text-anchor="middle" x="5173" y="-7.5" font-family="Helvetica,sans-Serif" font-size="10.00">System.cpp</text>
</a>
</g>
</g>
<!-- Node38&#45;&gt;Node39 -->
<g id="edge44" class="edge"><title>Node38&#45;&gt;Node39</title>
<path fill="none" stroke="midnightblue" d="M5153.14,-69.1744C5157.03,-59.9317 5161.24,-49.9188 5164.79,-41.5056"/>
<polygon fill="midnightblue" stroke="midnightblue" points="5149.9,-67.8535 5149.24,-78.4281 5156.35,-70.57 5149.9,-67.8535"/>
</g>
</g>
</svg>
        <g id="navigator" transform="translate(0 0)" fill="#404254">
                <rect fill="#f2f5e9" fill-opacity="0.5" stroke="#606060" stroke-width=".5" x="0" y="0" width="60" height="60"/>
                <use id="zoomplus" xlink:href="#zoomPlus" x="17" y="9" onmousedown="handleZoom(evt,'in')"/>
                <use id="zoomminus" xlink:href="#zoomMin" x="42" y="9" onmousedown="handleZoom(evt,'out')"/>
                <use id="reset" xlink:href="#resetDef" x="30" y="36" onmousedown="handleReset()"/>
                <g id="arrowUp" xlink:href="#dirArrow" transform="translate(30 24)" onmousedown="handlePan(0,-1)">
                  <use xlink:href="#rim" fill="#404040">
                        <set attributeName="fill" to="#808080" begin="arrowUp.mouseover" end="arrowUp.mouseout"/>
                  </use>
                  <path fill="none" stroke="white" stroke-width="1.5" d="M0,-3.0v7 M-2.5,-0.5L0,-3.0L2.5,-0.5"/>
                </g>
                <g id="arrowRight" xlink:href="#dirArrow" transform="rotate(90) translate(36 -43)" onmousedown="handlePan(1,0)">
                  <use xlink:href="#rim" fill="#404040">
                        <set attributeName="fill" to="#808080" begin="arrowRight.mouseover" end="arrowRight.mouseout"/>
                  </use>
                  <path fill="none" stroke="white" stroke-width="1.5" d="M0,-3.0v7 M-2.5,-0.5L0,-3.0L2.5,-0.5"/>
                </g>
                <g id="arrowDown" xlink:href="#dirArrow" transform="rotate(180) translate(-30 -48)" onmousedown="handlePan(0,1)">
                  <use xlink:href="#rim" fill="#404040">
                        <set attributeName="fill" to="#808080" begin="arrowDown.mouseover" end="arrowDown.mouseout"/>
                  </use>
                  <path fill="none" stroke="white" stroke-width="1.5" d="M0,-3.0v7 M-2.5,-0.5L0,-3.0L2.5,-0.5"/>
                </g>
                <g id="arrowLeft" xlink:href="#dirArrow" transform="rotate(270) translate(-36 17)" onmousedown="handlePan(-1,0)">
                  <use xlink:href="#rim" fill="#404040">
                        <set attributeName="fill" to="#808080" begin="arrowLeft.mouseover" end="arrowLeft.mouseout"/>
                  </use>
                  <path fill="none" stroke="white" stroke-width="1.5" d="M0,-3.0v7 M-2.5,-0.5L0,-3.0L2.5,-0.5"/>
                </g>
        </g>
        <svg viewBox="0 0 15 15" width="100%" height="30px" preserveAspectRatio="xMaxYMin meet">
         <g id="arrow_out" transform="scale(0.3 0.3)">
          <a xlink:href="Rotation_8hpp__dep__incl_org.svg" target="_base">
           <rect id="button" ry="5" rx="5" y="6" x="6" height="38" width="38"
                fill="#f2f5e9" fill-opacity="0.5" stroke="#606060" stroke-width="1.0"/>
           <path id="arrow"
             d="M 11.500037,31.436501 C 11.940474,20.09759 22.043105,11.32322 32.158766,21.979434 L 37.068811,17.246167 C 37.068811,17.246167 37.088388,32 37.088388,32 L 22.160133,31.978069 C 22.160133,31.978069 26.997745,27.140456 26.997745,27.140456 C 18.528582,18.264221 13.291696,25.230495 11.500037,31.436501 z"
             style="fill:#404040;"/>
          </a>
         </g>
        </svg>
</svg>
