<?xml version="1.0" encoding="UTF-8" standalone="no"?>
<!DOCTYPE svg PUBLIC "-//W3C//DTD SVG 1.1//EN"
 "http://www.w3.org/Graphics/SVG/1.1/DTD/svg11.dtd">
<!-- Generated by graphviz version 2.38.0 (20140413.2041)
 -->
<!-- Title: src/Exceptions/RTypeExceptions.hpp Pages: 1 -->
<svg width="4364pt" height="229pt"
 viewBox="0.00 0.00 4364.00 229.00" xmlns="http://www.w3.org/2000/svg" xmlns:xlink="http://www.w3.org/1999/xlink">
<g id="graph0" class="graph" transform="scale(1 1) rotate(0) translate(4 225)">
<title>src/Exceptions/RTypeExceptions.hpp</title>
<!-- Node1 -->
<g id="node1" class="node"><title>Node1</title>
<polygon fill="#bfbfbf" stroke="black" points="3717,-201.5 3717,-220.5 3905,-220.5 3905,-201.5 3717,-201.5"/>
<text text-anchor="middle" x="3811" y="-208.5" font-family="Helvetica,sans-Serif" font-size="10.00">src/Exceptions/RTypeExceptions.hpp</text>
</g>
<!-- Node2 -->
<g id="node2" class="node"><title>Node2</title>
<g id="a_node2"><a xlink:href="ECSExceptions_8hpp.html" target="_top" xlink:title="src/Exceptions/ECSExceptions.hpp">
<polygon fill="none" stroke="black" points="1739.5,-145.5 1739.5,-164.5 1920.5,-164.5 1920.5,-145.5 1739.5,-145.5"/>
<text text-anchor="middle" x="1830" y="-152.5" font-family="Helvetica,sans-Serif" font-size="10.00">src/Exceptions/ECSExceptions.hpp</text>
</a>
</g>
</g>
<!-- Node1&#45;&gt;Node2 -->
<g id="edge1" class="edge"><title>Node1&#45;&gt;Node2</title>
<path fill="none" stroke="midnightblue" d="M3706.74,-207.158C3359.71,-197.698 2247.12,-167.37 1920.78,-158.475"/>
<polygon fill="midnightblue" stroke="midnightblue" points="3706.69,-210.658 3716.78,-207.432 3706.88,-203.661 3706.69,-210.658"/>
</g>
<!-- Node30 -->
<g id="node30" class="node"><title>Node30</title>
<g id="a_node30"><a xlink:href="RTypeExceptions_8cpp.html" target="_top" xlink:title="src/Exceptions/RTypeExceptions.cpp">
<polygon fill="none" stroke="black" points="3340.5,-145.5 3340.5,-164.5 3527.5,-164.5 3527.5,-145.5 3340.5,-145.5"/>
<text text-anchor="middle" x="3434" y="-152.5" font-family="Helvetica,sans-Serif" font-size="10.00">src/Exceptions/RTypeExceptions.cpp</text>
</a>
</g>
</g>
<!-- Node1&#45;&gt;Node30 -->
<g id="edge31" class="edge"><title>Node1&#45;&gt;Node30</title>
<path fill="none" stroke="midnightblue" d="M3741.04,-199.979C3669.83,-189.779 3560.62,-174.137 3493.46,-164.516"/>
<polygon fill="midnightblue" stroke="midnightblue" points="3740.87,-203.49 3751.26,-201.444 3741.86,-196.561 3740.87,-203.49"/>
</g>
<!-- Node31 -->
<g id="node31" class="node"><title>Node31</title>
<g id="a_node31"><a xlink:href="ServerExceptions_8hpp.html" target="_top" xlink:title="src/Exceptions/ServerExceptions.hpp">
<polygon fill="none" stroke="black" points="3545.5,-145.5 3545.5,-164.5 3738.5,-164.5 3738.5,-145.5 3545.5,-145.5"/>
<text text-anchor="middle" x="3642" y="-152.5" font-family="Helvetica,sans-Serif" font-size="10.00">src/Exceptions/ServerExceptions.hpp</text>
</a>
</g>
</g>
<!-- Node1&#45;&gt;Node31 -->
<g id="edge32" class="edge"><title>Node1&#45;&gt;Node31</title>
<path fill="none" stroke="midnightblue" d="M3774.4,-198.304C3742.55,-188.129 3697.16,-173.625 3668.65,-164.516"/>
<polygon fill="midnightblue" stroke="midnightblue" points="3773.63,-201.734 3784.22,-201.444 3775.76,-195.066 3773.63,-201.734"/>
</g>
<!-- Node37 -->
<g id="node37" class="node"><title>Node37</title>
<g id="a_node37"><a xlink:href="main__client_8cpp.html" target="_top" xlink:title="src/main_client.cpp">
<polygon fill="none" stroke="black" points="3756.5,-145.5 3756.5,-164.5 3865.5,-164.5 3865.5,-145.5 3756.5,-145.5"/>
<text text-anchor="middle" x="3811" y="-152.5" font-family="Helvetica,sans-Serif" font-size="10.00">src/main_client.cpp</text>
</a>
</g>
</g>
<!-- Node1&#45;&gt;Node37 -->
<g id="edge38" class="edge"><title>Node1&#45;&gt;Node37</title>
<path fill="none" stroke="midnightblue" d="M3811,-190.805C3811,-181.91 3811,-171.78 3811,-164.751"/>
<polygon fill="midnightblue" stroke="midnightblue" points="3807.5,-191.083 3811,-201.083 3814.5,-191.083 3807.5,-191.083"/>
</g>
<!-- Node38 -->
<g id="node38" class="node"><title>Node38</title>
<g id="a_node38"><a xlink:href="SFMLRenderManager_8cpp.html" target="_top" xlink:title="src/Render/SFMLRenderManager.cpp">
<polygon fill="none" stroke="black" points="3884,-145.5 3884,-164.5 4074,-164.5 4074,-145.5 3884,-145.5"/>
<text text-anchor="middle" x="3979" y="-152.5" font-family="Helvetica,sans-Serif" font-size="10.00">src/Render/SFMLRenderManager.cpp</text>
</a>
</g>
</g>
<!-- Node1&#45;&gt;Node38 -->
<g id="edge39" class="edge"><title>Node1&#45;&gt;Node38</title>
<path fill="none" stroke="midnightblue" d="M3847.39,-198.304C3879.04,-188.129 3924.17,-173.625 3952.5,-164.516"/>
<polygon fill="midnightblue" stroke="midnightblue" points="3846.07,-195.051 3837.62,-201.444 3848.21,-201.715 3846.07,-195.051"/>
</g>
<!-- Node39 -->
<g id="node39" class="node"><title>Node39</title>
<g id="a_node39"><a xlink:href="Rtype_8cpp.html" target="_top" xlink:title="src/Rtype.cpp">
<polygon fill="none" stroke="black" points="4092.5,-145.5 4092.5,-164.5 4173.5,-164.5 4173.5,-145.5 4092.5,-145.5"/>
<text text-anchor="middle" x="4133" y="-152.5" font-family="Helvetica,sans-Serif" font-size="10.00">src/Rtype.cpp</text>
</a>
</g>
</g>
<!-- Node1&#45;&gt;Node39 -->
<g id="edge40" class="edge"><title>Node1&#45;&gt;Node39</title>
<path fill="none" stroke="midnightblue" d="M3873.92,-199.849C3929.07,-190.889 4011.4,-177.366 4083,-165 4086.04,-164.475 4089.19,-163.925 4092.35,-163.367"/>
<polygon fill="midnightblue" stroke="midnightblue" points="3873.25,-196.411 3863.94,-201.468 3874.38,-203.321 3873.25,-196.411"/>
</g>
<!-- Node40 -->
<g id="node40" class="node"><title>Node40</title>
<g id="a_node40"><a xlink:href="SceneManager_8cpp.html" target="_top" xlink:title="src/Scenes/SceneManager.cpp">
<polygon fill="none" stroke="black" points="4192,-145.5 4192,-164.5 4356,-164.5 4356,-145.5 4192,-145.5"/>
<text text-anchor="middle" x="4274" y="-152.5" font-family="Helvetica,sans-Serif" font-size="10.00">src/Scenes/SceneManager.cpp</text>
</a>
</g>
</g>
<!-- Node1&#45;&gt;Node40 -->
<g id="edge41" class="edge"><title>Node1&#45;&gt;Node40</title>
<path fill="none" stroke="midnightblue" d="M3894.25,-200.291C3981.6,-190.103 4117.55,-174.246 4200.89,-164.526"/>
<polygon fill="midnightblue" stroke="midnightblue" points="3893.64,-196.838 3884.11,-201.473 3894.45,-203.791 3893.64,-196.838"/>
</g>
<!-- Node3 -->
<g id="node3" class="node"><title>Node3</title>
<g id="a_node3"><a xlink:href="ComponentExceptions_8hpp.html" target="_top" xlink:title="src/Exceptions/Component\lExceptions.hpp">
<polygon fill="none" stroke="black" points="1976.5,-78.5 1976.5,-108.5 2121.5,-108.5 2121.5,-78.5 1976.5,-78.5"/>
<text text-anchor="start" x="1984.5" y="-96.5" font-family="Helvetica,sans-Serif" font-size="10.00">src/Exceptions/Component</text>
<text text-anchor="middle" x="2049" y="-85.5" font-family="Helvetica,sans-Serif" font-size="10.00">Exceptions.hpp</text>
</a>
</g>
</g>
<!-- Node2&#45;&gt;Node3 -->
<g id="edge2" class="edge"><title>Node2&#45;&gt;Node3</title>
<path fill="none" stroke="midnightblue" d="M1871.47,-142.734C1907.21,-133.023 1958.97,-118.961 1997.39,-108.523"/>
<polygon fill="midnightblue" stroke="midnightblue" points="1870.11,-139.476 1861.38,-145.475 1871.95,-146.231 1870.11,-139.476"/>
</g>
<!-- Node17 -->
<g id="node17" class="node"><title>Node17</title>
<g id="a_node17"><a xlink:href="ECSExceptions_8cpp.html" target="_top" xlink:title="src/Exceptions/ECSExceptions.cpp">
<polygon fill="none" stroke="black" points="2140,-84 2140,-103 2320,-103 2320,-84 2140,-84"/>
<text text-anchor="middle" x="2230" y="-91" font-family="Helvetica,sans-Serif" font-size="10.00">src/Exceptions/ECSExceptions.cpp</text>
</a>
</g>
</g>
<!-- Node2&#45;&gt;Node17 -->
<g id="edge16" class="edge"><title>Node2&#45;&gt;Node17</title>
<path fill="none" stroke="midnightblue" d="M1897.42,-143.971C1974.71,-132.474 2100.07,-113.826 2172.8,-103.009"/>
<polygon fill="midnightblue" stroke="midnightblue" points="1896.69,-140.542 1887.31,-145.475 1897.72,-147.466 1896.69,-140.542"/>
</g>
<!-- Node18 -->
<g id="node18" class="node"><title>Node18</title>
<g id="a_node18"><a xlink:href="EntityExceptions_8hpp.html" target="_top" xlink:title="src/Exceptions/EntityExceptions.hpp">
<polygon fill="none" stroke="black" points="3201,-84 3201,-103 3389,-103 3389,-84 3201,-84"/>
<text text-anchor="middle" x="3295" y="-91" font-family="Helvetica,sans-Serif" font-size="10.00">src/Exceptions/EntityExceptions.hpp</text>
</a>
</g>
</g>
<!-- Node2&#45;&gt;Node18 -->
<g id="edge17" class="edge"><title>Node2&#45;&gt;Node18</title>
<path fill="none" stroke="midnightblue" d="M1930.72,-149.909C2200.82,-138.94 2938.46,-108.981 3200.83,-98.3248"/>
<polygon fill="midnightblue" stroke="midnightblue" points="1930.39,-146.42 1920.54,-150.323 1930.67,-153.414 1930.39,-146.42"/>
</g>
<!-- Node21 -->
<g id="node21" class="node"><title>Node21</title>
<g id="a_node21"><a xlink:href="SystemExceptions_8hpp.html" target="_top" xlink:title="src/Exceptions/SystemExceptions.hpp">
<polygon fill="none" stroke="black" points="354,-84 354,-103 552,-103 552,-84 354,-84"/>
<text text-anchor="middle" x="453" y="-91" font-family="Helvetica,sans-Serif" font-size="10.00">src/Exceptions/SystemExceptions.hpp</text>
</a>
</g>
</g>
<!-- Node2&#45;&gt;Node21 -->
<g id="edge21" class="edge"><title>Node2&#45;&gt;Node21</title>
<path fill="none" stroke="midnightblue" d="M1729.39,-149.653C1474.54,-138.641 805.819,-109.745 552.34,-98.7925"/>
<polygon fill="midnightblue" stroke="midnightblue" points="1729.24,-153.149 1739.39,-150.085 1729.55,-146.156 1729.24,-153.149"/>
</g>
<!-- Node25 -->
<g id="node25" class="node"><title>Node25</title>
<g id="a_node25"><a xlink:href="Font_8cpp.html" target="_top" xlink:title="src/ResourceManager\l/Font.cpp">
<polygon fill="none" stroke="black" points="1285.5,-78.5 1285.5,-108.5 1404.5,-108.5 1404.5,-78.5 1285.5,-78.5"/>
<text text-anchor="start" x="1293.5" y="-96.5" font-family="Helvetica,sans-Serif" font-size="10.00">src/ResourceManager</text>
<text text-anchor="middle" x="1345" y="-85.5" font-family="Helvetica,sans-Serif" font-size="10.00">/Font.cpp</text>
</a>
</g>
</g>
<!-- Node2&#45;&gt;Node25 -->
<g id="edge26" class="edge"><title>Node2&#45;&gt;Node25</title>
<path fill="none" stroke="midnightblue" d="M1729.22,-146.042C1644.52,-138.657 1520.44,-126.205 1413,-109 1410.26,-108.561 1407.46,-108.084 1404.64,-107.579"/>
<polygon fill="midnightblue" stroke="midnightblue" points="1729.09,-149.543 1739.35,-146.918 1729.69,-142.569 1729.09,-149.543"/>
</g>
<!-- Node26 -->
<g id="node26" class="node"><title>Node26</title>
<g id="a_node26"><a xlink:href="Music_8cpp.html" target="_top" xlink:title="src/ResourceManager\l/Music.cpp">
<polygon fill="none" stroke="black" points="1422.5,-78.5 1422.5,-108.5 1541.5,-108.5 1541.5,-78.5 1422.5,-78.5"/>
<text text-anchor="start" x="1430.5" y="-96.5" font-family="Helvetica,sans-Serif" font-size="10.00">src/ResourceManager</text>
<text text-anchor="middle" x="1482" y="-85.5" font-family="Helvetica,sans-Serif" font-size="10.00">/Music.cpp</text>
</a>
</g>
</g>
<!-- Node2&#45;&gt;Node26 -->
<g id="edge27" class="edge"><title>Node2&#45;&gt;Node26</title>
<path fill="none" stroke="midnightblue" d="M1761.46,-143.977C1704.67,-135.434 1621.91,-122.436 1550,-109 1547.27,-108.49 1544.48,-107.955 1541.67,-107.403"/>
<polygon fill="midnightblue" stroke="midnightblue" points="1760.99,-147.446 1771.4,-145.466 1762.03,-140.523 1760.99,-147.446"/>
</g>
<!-- Node27 -->
<g id="node27" class="node"><title>Node27</title>
<g id="a_node27"><a xlink:href="ResourceManager_8cpp.html" target="_top" xlink:title="src/ResourceManager\l/ResourceManager.cpp">
<polygon fill="none" stroke="black" points="1559.5,-78.5 1559.5,-108.5 1684.5,-108.5 1684.5,-78.5 1559.5,-78.5"/>
<text text-anchor="start" x="1567.5" y="-96.5" font-family="Helvetica,sans-Serif" font-size="10.00">src/ResourceManager</text>
<text text-anchor="middle" x="1622" y="-85.5" font-family="Helvetica,sans-Serif" font-size="10.00">/ResourceManager.cpp</text>
</a>
</g>
</g>
<!-- Node2&#45;&gt;Node27 -->
<g id="edge28" class="edge"><title>Node2&#45;&gt;Node27</title>
<path fill="none" stroke="midnightblue" d="M1790.18,-142.609C1756.25,-132.903 1707.35,-118.916 1671.02,-108.523"/>
<polygon fill="midnightblue" stroke="midnightblue" points="1789.62,-146.09 1800.2,-145.475 1791.55,-139.36 1789.62,-146.09"/>
</g>
<!-- Node28 -->
<g id="node28" class="node"><title>Node28</title>
<g id="a_node28"><a xlink:href="ResourceManager_2Sound_8cpp.html" target="_top" xlink:title="src/ResourceManager\l/Sound.cpp">
<polygon fill="none" stroke="black" points="1702.5,-78.5 1702.5,-108.5 1821.5,-108.5 1821.5,-78.5 1702.5,-78.5"/>
<text text-anchor="start" x="1710.5" y="-96.5" font-family="Helvetica,sans-Serif" font-size="10.00">src/ResourceManager</text>
<text text-anchor="middle" x="1762" y="-85.5" font-family="Helvetica,sans-Serif" font-size="10.00">/Sound.cpp</text>
</a>
</g>
</g>
<!-- Node2&#45;&gt;Node28 -->
<g id="edge29" class="edge"><title>Node2&#45;&gt;Node28</title>
<path fill="none" stroke="midnightblue" d="M1812.45,-138.646C1801.82,-129.346 1788.37,-117.572 1778.03,-108.523"/>
<polygon fill="midnightblue" stroke="midnightblue" points="1810.43,-141.524 1820.26,-145.475 1815.04,-136.256 1810.43,-141.524"/>
</g>
<!-- Node29 -->
<g id="node29" class="node"><title>Node29</title>
<g id="a_node29"><a xlink:href="Texture_8cpp.html" target="_top" xlink:title="src/ResourceManager\l/Texture.cpp">
<polygon fill="none" stroke="black" points="1839.5,-78.5 1839.5,-108.5 1958.5,-108.5 1958.5,-78.5 1839.5,-78.5"/>
<text text-anchor="start" x="1847.5" y="-96.5" font-family="Helvetica,sans-Serif" font-size="10.00">src/ResourceManager</text>
<text text-anchor="middle" x="1899" y="-85.5" font-family="Helvetica,sans-Serif" font-size="10.00">/Texture.cpp</text>
</a>
</g>
</g>
<!-- Node2&#45;&gt;Node29 -->
<g id="edge30" class="edge"><title>Node2&#45;&gt;Node29</title>
<path fill="none" stroke="midnightblue" d="M1847.49,-138.921C1858.32,-129.579 1872.14,-117.662 1882.74,-108.523"/>
<polygon fill="midnightblue" stroke="midnightblue" points="1845.17,-136.294 1839.89,-145.475 1849.74,-141.595 1845.17,-136.294"/>
</g>
<!-- Node4 -->
<g id="node4" class="node"><title>Node4</title>
<g id="a_node4"><a xlink:href="ComponentManager_8cpp.html" target="_top" xlink:title="src/Components/Component\lManager/ComponentManager.cpp">
<polygon fill="none" stroke="black" points="1214.5,-6 1214.5,-36 1393.5,-36 1393.5,-6 1214.5,-6"/>
<text text-anchor="start" x="1222.5" y="-24" font-family="Helvetica,sans-Serif" font-size="10.00">src/Components/Component</text>
<text text-anchor="middle" x="1304" y="-13" font-family="Helvetica,sans-Serif" font-size="10.00">Manager/ComponentManager.cpp</text>
</a>
</g>
</g>
<!-- Node3&#45;&gt;Node4 -->
<g id="edge3" class="edge"><title>Node3&#45;&gt;Node4</title>
<path fill="none" stroke="midnightblue" d="M1966.04,-77.9887C1715.4,-48.7529 1648.13,-74.7976 1402,-42 1390.38,-40.4518 1378.08,-38.3296 1366.26,-36.0437"/>
<polygon fill="midnightblue" stroke="midnightblue" points="1965.84,-81.4897 1976.19,-79.1903 1966.67,-74.5383 1965.84,-81.4897"/>
</g>
<!-- Node5 -->
<g id="node5" class="node"><title>Node5</title>
<g id="a_node5"><a xlink:href="EntityManager_8cpp.html" target="_top" xlink:title="src/Entities/EntityManager\l/EntityManager.cpp">
<polygon fill="none" stroke="black" points="3170.5,-6 3170.5,-36 3311.5,-36 3311.5,-6 3170.5,-6"/>
<text text-anchor="start" x="3178.5" y="-24" font-family="Helvetica,sans-Serif" font-size="10.00">src/Entities/EntityManager</text>
<text text-anchor="middle" x="3241" y="-13" font-family="Helvetica,sans-Serif" font-size="10.00">/EntityManager.cpp</text>
</a>
</g>
</g>
<!-- Node3&#45;&gt;Node5 -->
<g id="edge4" class="edge"><title>Node3&#45;&gt;Node5</title>
<path fill="none" stroke="midnightblue" d="M2131.96,-78.0225C2588.32,-31.1063 2710.74,-105.432 3161,-42 3171.07,-40.582 3181.7,-38.4122 3191.82,-36.0166"/>
<polygon fill="midnightblue" stroke="midnightblue" points="2131.39,-74.5632 2121.8,-79.0809 2132.11,-81.5255 2131.39,-74.5632"/>
</g>
<!-- Node6 -->
<g id="node6" class="node"><title>Node6</title>
<g id="a_node6"><a xlink:href="ComponentExceptions_8cpp.html" target="_top" xlink:title="src/Exceptions/Component\lExceptions.cpp">
<polygon fill="none" stroke="black" points="1411.5,-6 1411.5,-36 1556.5,-36 1556.5,-6 1411.5,-6"/>
<text text-anchor="start" x="1419.5" y="-24" font-family="Helvetica,sans-Serif" font-size="10.00">src/Exceptions/Component</text>
<text text-anchor="middle" x="1484" y="-13" font-family="Helvetica,sans-Serif" font-size="10.00">Exceptions.cpp</text>
</a>
</g>
</g>
<!-- Node3&#45;&gt;Node6 -->
<g id="edge5" class="edge"><title>Node3&#45;&gt;Node6</title>
<path fill="none" stroke="midnightblue" d="M1966.2,-77.9804C1787.88,-54.9943 1739.34,-70.7533 1566,-42 1556.46,-40.4174 1546.39,-38.3214 1536.69,-36.082"/>
<polygon fill="midnightblue" stroke="midnightblue" points="1965.8,-81.4585 1976.17,-79.289 1966.71,-74.518 1965.8,-81.4585"/>
</g>
<!-- Node7 -->
<g id="node7" class="node"><title>Node7</title>
<g id="a_node7"><a xlink:href="AnimationSystem_8cpp.html" target="_top" xlink:title="src/Systems/SystemConstructor\l/AnimationSystem/AnimationSystem.cpp">
<polygon fill="none" stroke="black" points="1575,-6 1575,-36 1789,-36 1789,-6 1575,-6"/>
<text text-anchor="start" x="1583" y="-24" font-family="Helvetica,sans-Serif" font-size="10.00">src/Systems/SystemConstructor</text>
<text text-anchor="middle" x="1682" y="-13" font-family="Helvetica,sans-Serif" font-size="10.00">/AnimationSystem/AnimationSystem.cpp</text>
</a>
</g>
</g>
<!-- Node3&#45;&gt;Node7 -->
<g id="edge6" class="edge"><title>Node3&#45;&gt;Node7</title>
<path fill="none" stroke="midnightblue" d="M1966.51,-76.6531C1902.98,-64.4498 1815.99,-47.74 1754.98,-36.0201"/>
<polygon fill="midnightblue" stroke="midnightblue" points="1966.01,-80.1221 1976.49,-78.5715 1967.33,-73.2477 1966.01,-80.1221"/>
</g>
<!-- Node8 -->
<g id="node8" class="node"><title>Node8</title>
<g id="a_node8"><a xlink:href="ButtonColorSystem_8cpp.html" target="_top" xlink:title="src/Systems/SystemConstructor\l/ButtonColorSystem/ButtonColorSystem.cpp">
<polygon fill="none" stroke="black" points="1807,-6 1807,-36 2037,-36 2037,-6 1807,-6"/>
<text text-anchor="start" x="1815" y="-24" font-family="Helvetica,sans-Serif" font-size="10.00">src/Systems/SystemConstructor</text>
<text text-anchor="middle" x="1922" y="-13" font-family="Helvetica,sans-Serif" font-size="10.00">/ButtonColorSystem/ButtonColorSystem.cpp</text>
</a>
</g>
</g>
<!-- Node3&#45;&gt;Node8 -->
<g id="edge7" class="edge"><title>Node3&#45;&gt;Node8</title>
<path fill="none" stroke="midnightblue" d="M2014.59,-73.3993C1993.38,-61.6225 1966.63,-46.7775 1947.35,-36.0729"/>
<polygon fill="midnightblue" stroke="midnightblue" points="2013.16,-76.6093 2023.6,-78.4027 2016.56,-70.489 2013.16,-76.6093"/>
</g>
<!-- Node9 -->
<g id="node9" class="node"><title>Node9</title>
<g id="a_node9"><a xlink:href="ChooseRoomSystem_8cpp.html" target="_top" xlink:title="src/Systems/SystemConstructor\l/ChooseRoomSystem/ChooseRoomSystem.cpp">
<polygon fill="none" stroke="black" points="2055,-6 2055,-36 2297,-36 2297,-6 2055,-6"/>
<text text-anchor="start" x="2063" y="-24" font-family="Helvetica,sans-Serif" font-size="10.00">src/Systems/SystemConstructor</text>
<text text-anchor="middle" x="2176" y="-13" font-family="Helvetica,sans-Serif" font-size="10.00">/ChooseRoomSystem/ChooseRoomSystem.cpp</text>
</a>
</g>
</g>
<!-- Node3&#45;&gt;Node9 -->
<g id="edge8" class="edge"><title>Node3&#45;&gt;Node9</title>
<path fill="none" stroke="midnightblue" d="M2083.41,-73.3993C2104.62,-61.6225 2131.37,-46.7775 2150.65,-36.0729"/>
<polygon fill="midnightblue" stroke="midnightblue" points="2081.44,-70.489 2074.4,-78.4027 2084.84,-76.6093 2081.44,-70.489"/>
</g>
<!-- Node10 -->
<g id="node10" class="node"><title>Node10</title>
<g id="a_node10"><a xlink:href="DefeatSystem_8cpp.html" target="_top" xlink:title="src/Systems/SystemConstructor\l/DefeatSystem/DefeatSystem.cpp">
<polygon fill="none" stroke="black" points="2315.5,-6 2315.5,-36 2496.5,-36 2496.5,-6 2315.5,-6"/>
<text text-anchor="start" x="2323.5" y="-24" font-family="Helvetica,sans-Serif" font-size="10.00">src/Systems/SystemConstructor</text>
<text text-anchor="middle" x="2406" y="-13" font-family="Helvetica,sans-Serif" font-size="10.00">/DefeatSystem/DefeatSystem.cpp</text>
</a>
</g>
</g>
<!-- Node3&#45;&gt;Node10 -->
<g id="edge9" class="edge"><title>Node3&#45;&gt;Node10</title>
<path fill="none" stroke="midnightblue" d="M2130.63,-76.5324C2181.15,-66.6317 2247.35,-53.6265 2306,-42 2315.73,-40.0719 2325.98,-38.0304 2336.07,-36.0172"/>
<polygon fill="midnightblue" stroke="midnightblue" points="2129.88,-73.1123 2120.74,-78.4698 2131.23,-79.9817 2129.88,-73.1123"/>
</g>
<!-- Node11 -->
<g id="node11" class="node"><title>Node11</title>
<g id="a_node11"><a xlink:href="DisplaySystem_8cpp.html" target="_top" xlink:title="src/Systems/SystemConstructor\l/DisplaySystem/DisplaySystem.cpp">
<polygon fill="none" stroke="black" points="2514.5,-6 2514.5,-36 2699.5,-36 2699.5,-6 2514.5,-6"/>
<text text-anchor="start" x="2522.5" y="-24" font-family="Helvetica,sans-Serif" font-size="10.00">src/Systems/SystemConstructor</text>
<text text-anchor="middle" x="2607" y="-13" font-family="Helvetica,sans-Serif" font-size="10.00">/DisplaySystem/DisplaySystem.cpp</text>
</a>
</g>
</g>
<!-- Node3&#45;&gt;Node11 -->
<g id="edge10" class="edge"><title>Node3&#45;&gt;Node11</title>
<path fill="none" stroke="midnightblue" d="M2131.91,-77.9538C2298.2,-55.8463 2342.98,-65.6238 2505,-42 2516.52,-40.3206 2528.71,-38.2179 2540.5,-36.0117"/>
<polygon fill="midnightblue" stroke="midnightblue" points="2131.27,-74.5085 2121.83,-79.3134 2132.21,-81.4457 2131.27,-74.5085"/>
</g>
<!-- Node12 -->
<g id="node12" class="node"><title>Node12</title>
<g id="a_node12"><a xlink:href="EnemiesMovementSystem_8cpp.html" target="_top" xlink:title="src/Systems/SystemConstructor\l/EnemiesMovementSystem/EnemiesMovement\lSystem.cpp">
<polygon fill="none" stroke="black" points="2718,-0.5 2718,-41.5 2962,-41.5 2962,-0.5 2718,-0.5"/>
<text text-anchor="start" x="2726" y="-29.5" font-family="Helvetica,sans-Serif" font-size="10.00">src/Systems/SystemConstructor</text>
<text text-anchor="start" x="2726" y="-18.5" font-family="Helvetica,sans-Serif" font-size="10.00">/EnemiesMovementSystem/EnemiesMovement</text>
<text text-anchor="middle" x="2840" y="-7.5" font-family="Helvetica,sans-Serif" font-size="10.00">System.cpp</text>
</a>
</g>
</g>
<!-- Node3&#45;&gt;Node12 -->
<g id="edge11" class="edge"><title>Node3&#45;&gt;Node12</title>
<path fill="none" stroke="midnightblue" d="M2131.79,-78.0072C2387.85,-48.1241 2455.75,-68.9259 2708,-42 2711.23,-41.6556 2714.5,-41.289 2717.79,-40.9038"/>
<polygon fill="midnightblue" stroke="midnightblue" points="2131.33,-74.5361 2121.81,-79.1853 2132.16,-81.4878 2131.33,-74.5361"/>
</g>
<!-- Node13 -->
<g id="node13" class="node"><title>Node13</title>
<g id="a_node13"><a xlink:href="MenuSystem_8cpp.html" target="_top" xlink:title="src/Systems/SystemConstructor\l/MenuSystem/MenuSystem.cpp">
<polygon fill="none" stroke="black" points="2980,-6 2980,-36 3152,-36 3152,-6 2980,-6"/>
<text text-anchor="start" x="2988" y="-24" font-family="Helvetica,sans-Serif" font-size="10.00">src/Systems/SystemConstructor</text>
<text text-anchor="middle" x="3066" y="-13" font-family="Helvetica,sans-Serif" font-size="10.00">/MenuSystem/MenuSystem.cpp</text>
</a>
</g>
</g>
<!-- Node3&#45;&gt;Node13 -->
<g id="edge12" class="edge"><title>Node3&#45;&gt;Node13</title>
<path fill="none" stroke="midnightblue" d="M2131.78,-78.0321C2504.2,-38.2713 2603.51,-88.2386 2971,-42 2982.62,-40.5377 2994.94,-38.3953 3006.71,-36.0498"/>
<polygon fill="midnightblue" stroke="midnightblue" points="2131.37,-74.5555 2121.81,-79.1111 2132.12,-81.5149 2131.37,-74.5555"/>
</g>
<!-- Node14 -->
<g id="node14" class="node"><title>Node14</title>
<g id="a_node14"><a xlink:href="MovementSystem_8cpp.html" target="_top" xlink:title="src/Systems/SystemConstructor\l/MovementSystem/MovementSystem.cpp">
<polygon fill="none" stroke="black" points="532,-6 532,-36 750,-36 750,-6 532,-6"/>
<text text-anchor="start" x="540" y="-24" font-family="Helvetica,sans-Serif" font-size="10.00">src/Systems/SystemConstructor</text>
<text text-anchor="middle" x="641" y="-13" font-family="Helvetica,sans-Serif" font-size="10.00">/MovementSystem/MovementSystem.cpp</text>
</a>
</g>
</g>
<!-- Node3&#45;&gt;Node14 -->
<g id="edge13" class="edge"><title>Node3&#45;&gt;Node14</title>
<path fill="none" stroke="midnightblue" d="M1965.9,-78.0108C1430.9,-23.9988 1290.11,-94.669 759,-42 744.423,-40.5544 728.925,-38.3882 714.12,-36.008"/>
<polygon fill="midnightblue" stroke="midnightblue" points="1965.9,-81.5287 1976.2,-79.0613 1966.61,-74.5648 1965.9,-81.5287"/>
</g>
<!-- Node15 -->
<g id="node15" class="node"><title>Node15</title>
<g id="a_node15"><a xlink:href="ParallaxSystem_8cpp.html" target="_top" xlink:title="src/Systems/SystemConstructor\l/ParallaxSystem/ParallaxSystem.cpp">
<polygon fill="none" stroke="black" points="768,-6 768,-36 958,-36 958,-6 768,-6"/>
<text text-anchor="start" x="776" y="-24" font-family="Helvetica,sans-Serif" font-size="10.00">src/Systems/SystemConstructor</text>
<text text-anchor="middle" x="863" y="-13" font-family="Helvetica,sans-Serif" font-size="10.00">/ParallaxSystem/ParallaxSystem.cpp</text>
</a>
</g>
</g>
<!-- Node3&#45;&gt;Node15 -->
<g id="edge14" class="edge"><title>Node3&#45;&gt;Node15</title>
<path fill="none" stroke="midnightblue" d="M1966,-78.0156C1522.97,-32.0833 1405.55,-91.7624 967,-42 954.212,-40.5489 940.641,-38.396 927.672,-36.0336"/>
<polygon fill="midnightblue" stroke="midnightblue" points="1965.89,-81.5223 1976.2,-79.0849 1966.62,-74.5605 1965.89,-81.5223"/>
</g>
<!-- Node16 -->
<g id="node16" class="node"><title>Node16</title>
<g id="a_node16"><a xlink:href="PlayerMovementSystem_8cpp.html" target="_top" xlink:title="src/Systems/SystemConstructor\l/PlayerMovementSystem/PlayerMovement\lSystem.cpp">
<polygon fill="none" stroke="black" points="976,-0.5 976,-41.5 1196,-41.5 1196,-0.5 976,-0.5"/>
<text text-anchor="start" x="984" y="-29.5" font-family="Helvetica,sans-Serif" font-size="10.00">src/Systems/SystemConstructor</text>
<text text-anchor="start" x="984" y="-18.5" font-family="Helvetica,sans-Serif" font-size="10.00">/PlayerMovementSystem/PlayerMovement</text>
<text text-anchor="middle" x="1086" y="-7.5" font-family="Helvetica,sans-Serif" font-size="10.00">System.cpp</text>
</a>
</g>
</g>
<!-- Node3&#45;&gt;Node16 -->
<g id="edge15" class="edge"><title>Node3&#45;&gt;Node16</title>
<path fill="none" stroke="midnightblue" d="M1966.12,-78.015C1628.31,-41.1351 1538.82,-77.8082 1205,-42 1202.08,-41.6872 1199.13,-41.3488 1196.15,-40.9885"/>
<polygon fill="midnightblue" stroke="midnightblue" points="1965.87,-81.5079 1976.19,-79.1277 1966.64,-74.5503 1965.87,-81.5079"/>
</g>
<!-- Node18&#45;&gt;Node5 -->
<g id="edge18" class="edge"><title>Node18&#45;&gt;Node5</title>
<path fill="none" stroke="midnightblue" d="M3282.28,-75.8927C3273,-63.7828 3260.57,-47.5514 3251.78,-36.0762"/>
<polygon fill="midnightblue" stroke="midnightblue" points="3279.52,-78.0448 3288.38,-83.8553 3285.08,-73.7882 3279.52,-78.0448"/>
</g>
<!-- Node19 -->
<g id="node19" class="node"><title>Node19</title>
<g id="a_node19"><a xlink:href="EntityFactory_8cpp.html" target="_top" xlink:title="src/Entities/Factories\l/EntityFactory.cpp">
<polygon fill="none" stroke="black" points="3329.5,-6 3329.5,-36 3444.5,-36 3444.5,-6 3329.5,-6"/>
<text text-anchor="start" x="3337.5" y="-24" font-family="Helvetica,sans-Serif" font-size="10.00">src/Entities/Factories</text>
<text text-anchor="middle" x="3387" y="-13" font-family="Helvetica,sans-Serif" font-size="10.00">/EntityFactory.cpp</text>
</a>
</g>
</g>
<!-- Node18&#45;&gt;Node19 -->
<g id="edge19" class="edge"><title>Node18&#45;&gt;Node19</title>
<path fill="none" stroke="midnightblue" d="M3314.41,-77.6262C3330.4,-65.3698 3352.93,-48.1084 3368.63,-36.0762"/>
<polygon fill="midnightblue" stroke="midnightblue" points="3312.09,-74.9947 3306.28,-83.8553 3316.35,-80.5509 3312.09,-74.9947"/>
</g>
<!-- Node20 -->
<g id="node20" class="node"><title>Node20</title>
<g id="a_node20"><a xlink:href="EntityExceptions_8cpp.html" target="_top" xlink:title="src/Exceptions/EntityExceptions.cpp">
<polygon fill="none" stroke="black" points="3463,-11.5 3463,-30.5 3651,-30.5 3651,-11.5 3463,-11.5"/>
<text text-anchor="middle" x="3557" y="-18.5" font-family="Helvetica,sans-Serif" font-size="10.00">src/Exceptions/EntityExceptions.cpp</text>
</a>
</g>
</g>
<!-- Node18&#45;&gt;Node20 -->
<g id="edge20" class="edge"><title>Node18&#45;&gt;Node20</title>
<path fill="none" stroke="midnightblue" d="M3336.58,-81.3117C3389.01,-67.2028 3478.01,-43.2554 3525.28,-30.5341"/>
<polygon fill="midnightblue" stroke="midnightblue" points="3335.35,-78.0178 3326.6,-83.9961 3337.17,-84.7773 3335.35,-78.0178"/>
</g>
<!-- Node21&#45;&gt;Node14 -->
<g id="edge24" class="edge"><title>Node21&#45;&gt;Node14</title>
<path fill="none" stroke="midnightblue" d="M485.26,-80.4026C518.128,-68.077 569.054,-48.9797 603.651,-36.0059"/>
<polygon fill="midnightblue" stroke="midnightblue" points="483.812,-77.2076 475.677,-83.9961 486.269,-83.7619 483.812,-77.2076"/>
</g>
<!-- Node22 -->
<g id="node22" class="node"><title>Node22</title>
<g id="a_node22"><a xlink:href="SystemExceptions_8cpp.html" target="_top" xlink:title="src/Exceptions/SystemExceptions.cpp">
<polygon fill="none" stroke="black" points="176.5,-11.5 176.5,-30.5 373.5,-30.5 373.5,-11.5 176.5,-11.5"/>
<text text-anchor="middle" x="275" y="-18.5" font-family="Helvetica,sans-Serif" font-size="10.00">src/Exceptions/SystemExceptions.cpp</text>
</a>
</g>
</g>
<!-- Node21&#45;&gt;Node22 -->
<g id="edge22" class="edge"><title>Node21&#45;&gt;Node22</title>
<path fill="none" stroke="midnightblue" d="M422.034,-80.2354C386.124,-66.0124 327.863,-42.9374 296.547,-30.5341"/>
<polygon fill="midnightblue" stroke="midnightblue" points="420.943,-83.5677 431.529,-83.9961 423.521,-77.0596 420.943,-83.5677"/>
</g>
<!-- Node23 -->
<g id="node23" class="node"><title>Node23</title>
<g id="a_node23"><a xlink:href="SystemFactory_8cpp.html" target="_top" xlink:title="src/Systems/Factories\l/SystemFactory.cpp">
<polygon fill="none" stroke="black" points="392,-6 392,-36 514,-36 514,-6 392,-6"/>
<text text-anchor="start" x="400" y="-24" font-family="Helvetica,sans-Serif" font-size="10.00">src/Systems/Factories</text>
<text text-anchor="middle" x="453" y="-13" font-family="Helvetica,sans-Serif" font-size="10.00">/SystemFactory.cpp</text>
</a>
</g>
</g>
<!-- Node21&#45;&gt;Node23 -->
<g id="edge23" class="edge"><title>Node21&#45;&gt;Node23</title>
<path fill="none" stroke="midnightblue" d="M453,-73.7362C453,-61.9079 453,-46.8829 453,-36.0762"/>
<polygon fill="midnightblue" stroke="midnightblue" points="449.5,-73.8553 453,-83.8553 456.5,-73.8554 449.5,-73.8553"/>
</g>
<!-- Node24 -->
<g id="node24" class="node"><title>Node24</title>
<g id="a_node24"><a xlink:href="SystemManager_8cpp.html" target="_top" xlink:title="src/Systems/SystemManager\l/SystemManager.cpp">
<polygon fill="none" stroke="black" points="0,-6 0,-36 158,-36 158,-6 0,-6"/>
<text text-anchor="start" x="8" y="-24" font-family="Helvetica,sans-Serif" font-size="10.00">src/Systems/SystemManager</text>
<text text-anchor="middle" x="79" y="-13" font-family="Helvetica,sans-Serif" font-size="10.00">/SystemManager.cpp</text>
</a>
</g>
</g>
<!-- Node21&#45;&gt;Node24 -->
<g id="edge25" class="edge"><title>Node21&#45;&gt;Node24</title>
<path fill="none" stroke="midnightblue" d="M390.023,-82.2858C331.963,-72.6545 243.465,-57.4306 167,-42 157.939,-40.1715 148.38,-38.1235 139.035,-36.0543"/>
<polygon fill="midnightblue" stroke="midnightblue" points="389.706,-85.7808 400.143,-83.959 390.848,-78.8746 389.706,-85.7808"/>
</g>
<!-- Node32 -->
<g id="node32" class="node"><title>Node32</title>
<g id="a_node32"><a xlink:href="ServerExceptions_8cpp.html" target="_top" xlink:title="src/Exceptions/ServerExceptions.cpp">
<polygon fill="none" stroke="black" points="3462,-84 3462,-103 3654,-103 3654,-84 3462,-84"/>
<text text-anchor="middle" x="3558" y="-91" font-family="Helvetica,sans-Serif" font-size="10.00">src/Exceptions/ServerExceptions.cpp</text>
</a>
</g>
</g>
<!-- Node31&#45;&gt;Node32 -->
<g id="edge33" class="edge"><title>Node31&#45;&gt;Node32</title>
<path fill="none" stroke="midnightblue" d="M3621.69,-139.613C3605.53,-128.169 3583.48,-112.546 3570.01,-103.009"/>
<polygon fill="midnightblue" stroke="midnightblue" points="3619.78,-142.551 3629.96,-145.475 3623.83,-136.839 3619.78,-142.551"/>
</g>
<!-- Node33 -->
<g id="node33" class="node"><title>Node33</title>
<g id="a_node33"><a xlink:href="UDPServer_8hpp.html" target="_top" xlink:title="src/Network/Server\l/UDPServer.hpp">
<polygon fill="none" stroke="black" points="3672.5,-78.5 3672.5,-108.5 3779.5,-108.5 3779.5,-78.5 3672.5,-78.5"/>
<text text-anchor="start" x="3680.5" y="-96.5" font-family="Helvetica,sans-Serif" font-size="10.00">src/Network/Server</text>
<text text-anchor="middle" x="3726" y="-85.5" font-family="Helvetica,sans-Serif" font-size="10.00">/UDPServer.hpp</text>
</a>
</g>
</g>
<!-- Node31&#45;&gt;Node33 -->
<g id="edge34" class="edge"><title>Node31&#45;&gt;Node33</title>
<path fill="none" stroke="midnightblue" d="M3662.52,-139.468C3675.82,-130.047 3693.05,-117.841 3706.2,-108.523"/>
<polygon fill="midnightblue" stroke="midnightblue" points="3660.17,-136.839 3654.04,-145.475 3664.22,-142.551 3660.17,-136.839"/>
</g>
<!-- Node36 -->
<g id="node36" class="node"><title>Node36</title>
<g id="a_node36"><a xlink:href="RoomManager_8cpp.html" target="_top" xlink:title="src/Room/RoomManager.cpp">
<polygon fill="none" stroke="black" points="3798,-84 3798,-103 3950,-103 3950,-84 3798,-84"/>
<text text-anchor="middle" x="3874" y="-91" font-family="Helvetica,sans-Serif" font-size="10.00">src/Room/RoomManager.cpp</text>
</a>
</g>
</g>
<!-- Node31&#45;&gt;Node36 -->
<g id="edge37" class="edge"><title>Node31&#45;&gt;Node36</title>
<path fill="none" stroke="midnightblue" d="M3685.01,-142.968C3730.06,-131.415 3799.85,-113.517 3840.82,-103.009"/>
<polygon fill="midnightblue" stroke="midnightblue" points="3684.06,-139.6 3675.24,-145.475 3685.8,-146.381 3684.06,-139.6"/>
</g>
<!-- Node34 -->
<g id="node34" class="node"><title>Node34</title>
<g id="a_node34"><a xlink:href="main__server_8cpp.html" target="_top" xlink:title="src/main_server.cpp">
<polygon fill="none" stroke="black" points="3669.5,-11.5 3669.5,-30.5 3782.5,-30.5 3782.5,-11.5 3669.5,-11.5"/>
<text text-anchor="middle" x="3726" y="-18.5" font-family="Helvetica,sans-Serif" font-size="10.00">src/main_server.cpp</text>
</a>
</g>
</g>
<!-- Node33&#45;&gt;Node34 -->
<g id="edge35" class="edge"><title>Node33&#45;&gt;Node34</title>
<path fill="none" stroke="midnightblue" d="M3726,-68.0913C3726,-55.2136 3726,-40.1974 3726,-30.8932"/>
<polygon fill="midnightblue" stroke="midnightblue" points="3722.5,-68.2332 3726,-78.2333 3729.5,-68.2333 3722.5,-68.2332"/>
</g>
<!-- Node35 -->
<g id="node35" class="node"><title>Node35</title>
<g id="a_node35"><a xlink:href="UDPServer_8cpp.html" target="_top" xlink:title="src/Network/Server\l/UDPServer.cpp">
<polygon fill="none" stroke="black" points="3800.5,-6 3800.5,-36 3907.5,-36 3907.5,-6 3800.5,-6"/>
<text text-anchor="start" x="3808.5" y="-24" font-family="Helvetica,sans-Serif" font-size="10.00">src/Network/Server</text>
<text text-anchor="middle" x="3854" y="-13" font-family="Helvetica,sans-Serif" font-size="10.00">/UDPServer.cpp</text>
</a>
</g>
</g>
<!-- Node33&#45;&gt;Node35 -->
<g id="edge36" class="edge"><title>Node33&#45;&gt;Node35</title>
<path fill="none" stroke="midnightblue" d="M3760.39,-73.5576C3781.82,-61.7557 3808.93,-46.8255 3828.45,-36.0729"/>
<polygon fill="midnightblue" stroke="midnightblue" points="3758.67,-70.5125 3751.6,-78.4027 3762.04,-76.644 3758.67,-70.5125"/>
</g>
</g>
</svg>
