<?xml version="1.0" encoding="UTF-8" standalone="no"?>
<!DOCTYPE svg PUBLIC "-//W3C//DTD SVG 1.1//EN"
 "http://www.w3.org/Graphics/SVG/1.1/DTD/svg11.dtd">
<!-- Generated by graphviz version 2.38.0 (20140413.2041)
 -->
<!-- Title: src/ResourceManager/RtypeResources.hpp Pages: 1 -->
<!--zoomable 375 -->
<svg id="main" version="1.1" xmlns="http://www.w3.org/2000/svg" xmlns:xlink="http://www.w3.org/1999/xlink" xml:space="preserve" onload="init(evt)">
<style type="text/css"><![CDATA[
.edge:hover path { stroke: red; }
.edge:hover polygon { stroke: red; fill: red; }
]]></style>
<script type="text/javascript"><![CDATA[
var edges = document.getElementsByTagName('g');
if (edges && edges.length) {
  for (var i=0;i<edges.length;i++) {
    if (edges[i].id.substr(0,4)=='edge') {
      edges[i].setAttribute('class','edge');
    }
  }
}
]]></script>
        <defs>
                <circle id="rim" cx="0" cy="0" r="7"/>
                <circle id="rim2" cx="0" cy="0" r="3.5"/>
                <g id="zoomPlus">
                        <use xlink:href="#rim" fill="#404040">
                                <set attributeName="fill" to="#808080" begin="zoomplus.mouseover" end="zoomplus.mouseout"/>
                        </use>
                        <path d="M-4,0h8M0,-4v8" fill="none" stroke="white" stroke-width="1.5" pointer-events="none"/>
                </g>
                <g id="zoomMin">
                        <use xlink:href="#rim" fill="#404040">
                                <set attributeName="fill" to="#808080" begin="zoomminus.mouseover" end="zoomminus.mouseout"/>
                        </use>
                        <path d="M-4,0h8" fill="none" stroke="white" stroke-width="1.5" pointer-events="none"/>
                </g>
                <g id="dirArrow">
                        <path fill="none" stroke="white" stroke-width="1.5" d="M0,-3.0v7 M-2.5,-0.5L0,-3.0L2.5,-0.5"/>
                </g>
               <g id="resetDef">
                       <use xlink:href="#rim2" fill="#404040">
                               <set attributeName="fill" to="#808080" begin="reset.mouseover" end="reset.mouseout"/>
                       </use>
               </g>
        </defs>

<script type="text/javascript">
var viewWidth = 895;
var viewHeight = 375;
var sectionId = 'dynsection-0';
</script>
<script xlink:href="svgpan.js"/>
<svg id="graph" class="graph">
<g id="viewport">
<title>src/ResourceManager/RtypeResources.hpp</title>
<!-- Node1 -->
<g id="node1" class="node"><title>Node1</title>
<polygon fill="#bfbfbf" stroke="black" points="200,-336.5 200,-366.5 319,-366.5 319,-336.5 200,-336.5"/>
<text text-anchor="start" x="208" y="-354.5" font-family="Helvetica,sans-Serif" font-size="10.00">src/ResourceManager</text>
<text text-anchor="middle" x="259.5" y="-343.5" font-family="Helvetica,sans-Serif" font-size="10.00">/RtypeResources.hpp</text>
</g>
<!-- Node2 -->
<g id="node2" class="node"><title>Node2</title>
<g id="a_node2"><a xlink:href="ResourceManager_8hpp.html" target="_top" xlink:title="ResourceManager.hpp">
<polygon fill="none" stroke="black" points="198.5,-280.5 198.5,-299.5 320.5,-299.5 320.5,-280.5 198.5,-280.5"/>
<text text-anchor="middle" x="259.5" y="-287.5" font-family="Helvetica,sans-Serif" font-size="10.00">ResourceManager.hpp</text>
</a>
</g>
</g>
<!-- Node1&#45;&gt;Node2 -->
<g id="edge1" class="edge"><title>Node1&#45;&gt;Node2</title>
<path fill="none" stroke="midnightblue" d="M259.5,-336.399C259.5,-328.466 259.5,-318.458 259.5,-309.858"/>
<polygon fill="midnightblue" stroke="midnightblue" points="263,-309.658 259.5,-299.658 256,-309.658 263,-309.658"/>
</g>
<!-- Node3 -->
<g id="node3" class="node"><title>Node3</title>
<polygon fill="none" stroke="#bfbfbf" points="0,-224.5 0,-243.5 57,-243.5 57,-224.5 0,-224.5"/>
<text text-anchor="middle" x="28.5" y="-231.5" font-family="Helvetica,sans-Serif" font-size="10.00">memory</text>
</g>
<!-- Node2&#45;&gt;Node3 -->
<g id="edge2" class="edge"><title>Node2&#45;&gt;Node3</title>
<path fill="none" stroke="midnightblue" d="M222.281,-280.491C185.267,-272.001 126.594,-258.47 67.1137,-244.367"/>
<polygon fill="midnightblue" stroke="midnightblue" points="67.714,-240.912 57.1759,-242.007 66.0967,-247.723 67.714,-240.912"/>
</g>
<!-- Node4 -->
<g id="node4" class="node"><title>Node4</title>
<polygon fill="none" stroke="#bfbfbf" points="75,-224.5 75,-243.5 122,-243.5 122,-224.5 75,-224.5"/>
<text text-anchor="middle" x="98.5" y="-231.5" font-family="Helvetica,sans-Serif" font-size="10.00">vector</text>
</g>
<!-- Node2&#45;&gt;Node4 -->
<g id="edge3" class="edge"><title>Node2&#45;&gt;Node4</title>
<path fill="none" stroke="midnightblue" d="M233.989,-280.444C206.346,-271.172 162.133,-256.343 131.777,-246.161"/>
<polygon fill="midnightblue" stroke="midnightblue" points="132.652,-242.763 122.058,-242.902 130.426,-249.4 132.652,-242.763"/>
</g>
<!-- Node5 -->
<g id="node5" class="node"><title>Node5</title>
<g id="a_node5"><a xlink:href="Music_8hpp.html" target="_top" xlink:title="Music.hpp">
<polygon fill="none" stroke="black" points="227,-224.5 227,-243.5 292,-243.5 292,-224.5 227,-224.5"/>
<text text-anchor="middle" x="259.5" y="-231.5" font-family="Helvetica,sans-Serif" font-size="10.00">Music.hpp</text>
</a>
</g>
</g>
<!-- Node2&#45;&gt;Node5 -->
<g id="edge4" class="edge"><title>Node2&#45;&gt;Node5</title>
<path fill="none" stroke="midnightblue" d="M259.5,-280.083C259.5,-273.006 259.5,-262.861 259.5,-253.986"/>
<polygon fill="midnightblue" stroke="midnightblue" points="263,-253.751 259.5,-243.751 256,-253.751 263,-253.751"/>
</g>
<!-- Node8 -->
<g id="node8" class="node"><title>Node8</title>
<g id="a_node8"><a xlink:href="ResourceManager_2Sound_8hpp.html" target="_top" xlink:title="Sound.hpp">
<polygon fill="none" stroke="black" points="140.5,-224.5 140.5,-243.5 208.5,-243.5 208.5,-224.5 140.5,-224.5"/>
<text text-anchor="middle" x="174.5" y="-231.5" font-family="Helvetica,sans-Serif" font-size="10.00">Sound.hpp</text>
</a>
</g>
</g>
<!-- Node2&#45;&gt;Node8 -->
<g id="edge7" class="edge"><title>Node2&#45;&gt;Node8</title>
<path fill="none" stroke="midnightblue" d="M245.843,-280.324C232.584,-271.9 212.232,-258.971 196.654,-249.074"/>
<polygon fill="midnightblue" stroke="midnightblue" points="198.44,-246.063 188.123,-243.655 194.687,-251.971 198.44,-246.063"/>
</g>
<!-- Node9 -->
<g id="node9" class="node"><title>Node9</title>
<g id="a_node9"><a xlink:href="Texture_8hpp.html" target="_top" xlink:title="Texture.hpp">
<polygon fill="none" stroke="black" points="396.5,-224.5 396.5,-243.5 468.5,-243.5 468.5,-224.5 396.5,-224.5"/>
<text text-anchor="middle" x="432.5" y="-231.5" font-family="Helvetica,sans-Serif" font-size="10.00">Texture.hpp</text>
</a>
</g>
</g>
<!-- Node2&#45;&gt;Node9 -->
<g id="edge10" class="edge"><title>Node2&#45;&gt;Node9</title>
<path fill="none" stroke="midnightblue" d="M286.912,-280.444C316.269,-271.28 363.019,-256.688 395.596,-246.519"/>
<polygon fill="midnightblue" stroke="midnightblue" points="396.713,-249.837 405.216,-243.516 394.627,-243.155 396.713,-249.837"/>
</g>
<!-- Node12 -->
<g id="node12" class="node"><title>Node12</title>
<g id="a_node12"><a xlink:href="Font_8hpp.html" target="_top" xlink:title="Font.hpp">
<polygon fill="none" stroke="black" points="310,-224.5 310,-243.5 369,-243.5 369,-224.5 310,-224.5"/>
<text text-anchor="middle" x="339.5" y="-231.5" font-family="Helvetica,sans-Serif" font-size="10.00">Font.hpp</text>
</a>
</g>
</g>
<!-- Node2&#45;&gt;Node12 -->
<g id="edge13" class="edge"><title>Node2&#45;&gt;Node12</title>
<path fill="none" stroke="midnightblue" d="M272.353,-280.324C284.716,-271.979 303.63,-259.212 318.237,-249.352"/>
<polygon fill="midnightblue" stroke="midnightblue" points="320.348,-252.15 326.679,-243.655 316.432,-246.348 320.348,-252.15"/>
</g>
<!-- Node14 -->
<g id="node14" class="node"><title>Node14</title>
<g id="a_node14"><a xlink:href="Text_8hpp.html" target="_top" xlink:title="Text.hpp">
<polygon fill="none" stroke="black" points="658.5,-224.5 658.5,-243.5 714.5,-243.5 714.5,-224.5 658.5,-224.5"/>
<text text-anchor="middle" x="686.5" y="-231.5" font-family="Helvetica,sans-Serif" font-size="10.00">Text.hpp</text>
</a>
</g>
</g>
<!-- Node2&#45;&gt;Node14 -->
<g id="edge16" class="edge"><title>Node2&#45;&gt;Node14</title>
<path fill="none" stroke="midnightblue" d="M320.679,-281.263C410.135,-269.95 574.036,-249.223 648.221,-239.841"/>
<polygon fill="midnightblue" stroke="midnightblue" points="649.014,-243.269 658.496,-238.541 648.136,-236.324 649.014,-243.269"/>
</g>
<!-- Node6 -->
<g id="node6" class="node"><title>Node6</title>
<polygon fill="none" stroke="#bfbfbf" points="188,-168.5 188,-187.5 281,-187.5 281,-168.5 188,-168.5"/>
<text text-anchor="middle" x="234.5" y="-175.5" font-family="Helvetica,sans-Serif" font-size="10.00">SFML/Audio.hpp</text>
</g>
<!-- Node5&#45;&gt;Node6 -->
<g id="edge5" class="edge"><title>Node5&#45;&gt;Node6</title>
<path fill="none" stroke="midnightblue" d="M255.372,-224.083C251.986,-216.77 247.084,-206.181 242.881,-197.103"/>
<polygon fill="midnightblue" stroke="midnightblue" points="245.929,-195.355 238.551,-187.751 239.577,-198.296 245.929,-195.355"/>
</g>
<!-- Node7 -->
<g id="node7" class="node"><title>Node7</title>
<g id="a_node7"><a xlink:href="IAudio_8hpp.html" target="_top" xlink:title="IAudio.hpp">
<polygon fill="none" stroke="black" points="103,-168.5 103,-187.5 170,-187.5 170,-168.5 103,-168.5"/>
<text text-anchor="middle" x="136.5" y="-175.5" font-family="Helvetica,sans-Serif" font-size="10.00">IAudio.hpp</text>
</a>
</g>
</g>
<!-- Node5&#45;&gt;Node7 -->
<g id="edge6" class="edge"><title>Node5&#45;&gt;Node7</title>
<path fill="none" stroke="midnightblue" d="M240.01,-224.444C219.858,-215.596 188.177,-201.687 165.169,-191.586"/>
<polygon fill="midnightblue" stroke="midnightblue" points="166.462,-188.332 155.899,-187.516 163.648,-194.741 166.462,-188.332"/>
</g>
<!-- Node8&#45;&gt;Node6 -->
<g id="edge8" class="edge"><title>Node8&#45;&gt;Node6</title>
<path fill="none" stroke="midnightblue" d="M184.14,-224.324C193.01,-216.341 206.375,-204.313 217.108,-194.653"/>
<polygon fill="midnightblue" stroke="midnightblue" points="219.593,-197.125 224.685,-187.834 214.91,-191.922 219.593,-197.125"/>
</g>
<!-- Node8&#45;&gt;Node7 -->
<g id="edge9" class="edge"><title>Node8&#45;&gt;Node7</title>
<path fill="none" stroke="midnightblue" d="M168.225,-224.083C162.858,-216.455 154.982,-205.264 148.421,-195.941"/>
<polygon fill="midnightblue" stroke="midnightblue" points="151.275,-193.915 142.658,-187.751 145.551,-197.943 151.275,-193.915"/>
</g>
<!-- Node10 -->
<g id="node10" class="node"><title>Node10</title>
<polygon fill="none" stroke="#bfbfbf" points="378.5,-168.5 378.5,-187.5 486.5,-187.5 486.5,-168.5 378.5,-168.5"/>
<text text-anchor="middle" x="432.5" y="-175.5" font-family="Helvetica,sans-Serif" font-size="10.00">SFML/Graphics.hpp</text>
</g>
<!-- Node9&#45;&gt;Node10 -->
<g id="edge11" class="edge"><title>Node9&#45;&gt;Node10</title>
<path fill="none" stroke="midnightblue" d="M432.5,-224.083C432.5,-217.006 432.5,-206.861 432.5,-197.986"/>
<polygon fill="midnightblue" stroke="midnightblue" points="436,-197.751 432.5,-187.751 429,-197.751 436,-197.751"/>
</g>
<!-- Node11 -->
<g id="node11" class="node"><title>Node11</title>
<g id="a_node11"><a xlink:href="ITexture_8hpp.html" target="_top" xlink:title="ITexture.hpp">
<polygon fill="none" stroke="black" points="504.5,-168.5 504.5,-187.5 578.5,-187.5 578.5,-168.5 504.5,-168.5"/>
<text text-anchor="middle" x="541.5" y="-175.5" font-family="Helvetica,sans-Serif" font-size="10.00">ITexture.hpp</text>
</a>
</g>
</g>
<!-- Node9&#45;&gt;Node11 -->
<g id="edge12" class="edge"><title>Node9&#45;&gt;Node11</title>
<path fill="none" stroke="midnightblue" d="M450.013,-224.324C467.572,-215.625 494.831,-202.12 515.031,-192.113"/>
<polygon fill="midnightblue" stroke="midnightblue" points="516.624,-195.23 524.031,-187.655 513.516,-188.958 516.624,-195.23"/>
</g>
<!-- Node12&#45;&gt;Node10 -->
<g id="edge14" class="edge"><title>Node12&#45;&gt;Node10</title>
<path fill="none" stroke="midnightblue" d="M354.442,-224.324C369.085,-215.822 391.634,-202.729 408.738,-192.797"/>
<polygon fill="midnightblue" stroke="midnightblue" points="410.705,-195.703 417.595,-187.655 407.19,-189.649 410.705,-195.703"/>
</g>
<!-- Node13 -->
<g id="node13" class="node"><title>Node13</title>
<g id="a_node13"><a xlink:href="IFont_8hpp.html" target="_top" xlink:title="IFont.hpp">
<polygon fill="none" stroke="black" points="299,-168.5 299,-187.5 360,-187.5 360,-168.5 299,-168.5"/>
<text text-anchor="middle" x="329.5" y="-175.5" font-family="Helvetica,sans-Serif" font-size="10.00">IFont.hpp</text>
</a>
</g>
</g>
<!-- Node12&#45;&gt;Node13 -->
<g id="edge15" class="edge"><title>Node12&#45;&gt;Node13</title>
<path fill="none" stroke="midnightblue" d="M337.849,-224.083C336.524,-216.927 334.618,-206.635 332.961,-197.691"/>
<polygon fill="midnightblue" stroke="midnightblue" points="336.383,-196.947 331.121,-187.751 329.5,-198.221 336.383,-196.947"/>
</g>
<!-- Node15 -->
<g id="node15" class="node"><title>Node15</title>
<polygon fill="none" stroke="#bfbfbf" points="712,-0.5 712,-19.5 775,-19.5 775,-0.5 712,-0.5"/>
<text text-anchor="middle" x="743.5" y="-7.5" font-family="Helvetica,sans-Serif" font-size="10.00">typeindex</text>
</g>
<!-- Node14&#45;&gt;Node15 -->
<g id="edge17" class="edge"><title>Node14&#45;&gt;Node15</title>
<path fill="none" stroke="midnightblue" d="M688.734,-224.297C697.139,-191.563 726.971,-75.3752 738.707,-29.6664"/>
<polygon fill="midnightblue" stroke="midnightblue" points="742.122,-30.44 741.219,-19.8837 735.342,-28.6991 742.122,-30.44"/>
</g>
<!-- Node16 -->
<g id="node16" class="node"><title>Node16</title>
<polygon fill="none" stroke="#bfbfbf" points="836.5,-168.5 836.5,-187.5 880.5,-187.5 880.5,-168.5 836.5,-168.5"/>
<text text-anchor="middle" x="858.5" y="-175.5" font-family="Helvetica,sans-Serif" font-size="10.00">string</text>
</g>
<!-- Node14&#45;&gt;Node16 -->
<g id="edge18" class="edge"><title>Node14&#45;&gt;Node16</title>
<path fill="none" stroke="midnightblue" d="M713.754,-224.444C744.354,-214.837 793.961,-199.262 826.41,-189.075"/>
<polygon fill="midnightblue" stroke="midnightblue" points="827.804,-192.306 836.296,-185.971 825.707,-185.627 827.804,-192.306"/>
</g>
<!-- Node17 -->
<g id="node17" class="node"><title>Node17</title>
<g id="a_node17"><a xlink:href="Color_8hpp.html" target="_top" xlink:title="Color.hpp">
<polygon fill="none" stroke="black" points="596.5,-168.5 596.5,-187.5 658.5,-187.5 658.5,-168.5 596.5,-168.5"/>
<text text-anchor="middle" x="627.5" y="-175.5" font-family="Helvetica,sans-Serif" font-size="10.00">Color.hpp</text>
</a>
</g>
</g>
<!-- Node14&#45;&gt;Node17 -->
<g id="edge19" class="edge"><title>Node14&#45;&gt;Node17</title>
<path fill="none" stroke="midnightblue" d="M677.021,-224.324C668.299,-216.341 655.157,-204.313 644.602,-194.653"/>
<polygon fill="midnightblue" stroke="midnightblue" points="646.892,-192.004 637.152,-187.834 642.166,-197.167 646.892,-192.004"/>
</g>
<!-- Node18 -->
<g id="node18" class="node"><title>Node18</title>
<g id="a_node18"><a xlink:href="IUserInterface_8hpp.html" target="_top" xlink:title="IUserInterface.hpp">
<polygon fill="none" stroke="black" points="714.5,-168.5 714.5,-187.5 818.5,-187.5 818.5,-168.5 714.5,-168.5"/>
<text text-anchor="middle" x="766.5" y="-175.5" font-family="Helvetica,sans-Serif" font-size="10.00">IUserInterface.hpp</text>
</a>
</g>
</g>
<!-- Node14&#45;&gt;Node18 -->
<g id="edge20" class="edge"><title>Node14&#45;&gt;Node18</title>
<path fill="none" stroke="midnightblue" d="M699.353,-224.324C711.716,-215.979 730.63,-203.212 745.237,-193.352"/>
<polygon fill="midnightblue" stroke="midnightblue" points="747.348,-196.15 753.679,-187.655 743.432,-190.348 747.348,-196.15"/>
</g>
<!-- Node18&#45;&gt;Node15 -->
<g id="edge21" class="edge"><title>Node18&#45;&gt;Node15</title>
<path fill="none" stroke="midnightblue" d="M760.886,-168.475C755.488,-159.735 747.692,-145.543 744.5,-132 736.175,-96.6805 738.629,-53.9355 741.106,-29.8658"/>
<polygon fill="midnightblue" stroke="midnightblue" points="744.614,-29.9982 742.277,-19.6643 737.66,-29.2 744.614,-29.9982"/>
</g>
<!-- Node19 -->
<g id="node19" class="node"><title>Node19</title>
<g id="a_node19"><a xlink:href="IDisplay_8hpp.html" target="_top" xlink:title="IDisplay.hpp">
<polygon fill="none" stroke="black" points="753,-112.5 753,-131.5 826,-131.5 826,-112.5 753,-112.5"/>
<text text-anchor="middle" x="789.5" y="-119.5" font-family="Helvetica,sans-Serif" font-size="10.00">IDisplay.hpp</text>
</a>
</g>
</g>
<!-- Node18&#45;&gt;Node19 -->
<g id="edge22" class="edge"><title>Node18&#45;&gt;Node19</title>
<path fill="none" stroke="midnightblue" d="M770.298,-168.083C773.413,-160.77 777.923,-150.181 781.789,-141.103"/>
<polygon fill="midnightblue" stroke="midnightblue" points="785.074,-142.323 785.773,-131.751 778.634,-139.58 785.074,-142.323"/>
</g>
<!-- Node19&#45;&gt;Node15 -->
<g id="edge23" class="edge"><title>Node19&#45;&gt;Node15</title>
<path fill="none" stroke="midnightblue" d="M785.89,-112.368C778.4,-94.4563 761.032,-52.9233 751.006,-28.9482"/>
<polygon fill="midnightblue" stroke="midnightblue" points="754.18,-27.4669 747.093,-19.5914 747.722,-30.1676 754.18,-27.4669"/>
</g>
<!-- Node20 -->
<g id="node20" class="node"><title>Node20</title>
<g id="a_node20"><a xlink:href="IComponent_8hpp.html" target="_top" xlink:title="IComponent.hpp">
<polygon fill="none" stroke="black" points="790.5,-56.5 790.5,-75.5 886.5,-75.5 886.5,-56.5 790.5,-56.5"/>
<text text-anchor="middle" x="838.5" y="-63.5" font-family="Helvetica,sans-Serif" font-size="10.00">IComponent.hpp</text>
</a>
</g>
</g>
<!-- Node19&#45;&gt;Node20 -->
<g id="edge24" class="edge"><title>Node19&#45;&gt;Node20</title>
<path fill="none" stroke="midnightblue" d="M797.591,-112.083C804.655,-104.298 815.088,-92.8015 823.649,-83.3665"/>
<polygon fill="midnightblue" stroke="midnightblue" points="826.431,-85.5087 830.559,-75.7511 821.247,-80.8047 826.431,-85.5087"/>
</g>
<!-- Node20&#45;&gt;Node15 -->
<g id="edge25" class="edge"><title>Node20&#45;&gt;Node15</title>
<path fill="none" stroke="midnightblue" d="M823.237,-56.324C808.279,-47.8215 785.245,-34.7288 767.773,-24.7975"/>
<polygon fill="midnightblue" stroke="midnightblue" points="769.149,-21.5534 758.726,-19.6545 765.69,-27.639 769.149,-21.5534"/>
</g>
</g>
</svg>
        <g id="navigator" transform="translate(0 0)" fill="#404254">
                <rect fill="#f2f5e9" fill-opacity="0.5" stroke="#606060" stroke-width=".5" x="0" y="0" width="60" height="60"/>
                <use id="zoomplus" xlink:href="#zoomPlus" x="17" y="9" onmousedown="handleZoom(evt,'in')"/>
                <use id="zoomminus" xlink:href="#zoomMin" x="42" y="9" onmousedown="handleZoom(evt,'out')"/>
                <use id="reset" xlink:href="#resetDef" x="30" y="36" onmousedown="handleReset()"/>
                <g id="arrowUp" xlink:href="#dirArrow" transform="translate(30 24)" onmousedown="handlePan(0,-1)">
                  <use xlink:href="#rim" fill="#404040">
                        <set attributeName="fill" to="#808080" begin="arrowUp.mouseover" end="arrowUp.mouseout"/>
                  </use>
                  <path fill="none" stroke="white" stroke-width="1.5" d="M0,-3.0v7 M-2.5,-0.5L0,-3.0L2.5,-0.5"/>
                </g>
                <g id="arrowRight" xlink:href="#dirArrow" transform="rotate(90) translate(36 -43)" onmousedown="handlePan(1,0)">
                  <use xlink:href="#rim" fill="#404040">
                        <set attributeName="fill" to="#808080" begin="arrowRight.mouseover" end="arrowRight.mouseout"/>
                  </use>
                  <path fill="none" stroke="white" stroke-width="1.5" d="M0,-3.0v7 M-2.5,-0.5L0,-3.0L2.5,-0.5"/>
                </g>
                <g id="arrowDown" xlink:href="#dirArrow" transform="rotate(180) translate(-30 -48)" onmousedown="handlePan(0,1)">
                  <use xlink:href="#rim" fill="#404040">
                        <set attributeName="fill" to="#808080" begin="arrowDown.mouseover" end="arrowDown.mouseout"/>
                  </use>
                  <path fill="none" stroke="white" stroke-width="1.5" d="M0,-3.0v7 M-2.5,-0.5L0,-3.0L2.5,-0.5"/>
                </g>
                <g id="arrowLeft" xlink:href="#dirArrow" transform="rotate(270) translate(-36 17)" onmousedown="handlePan(-1,0)">
                  <use xlink:href="#rim" fill="#404040">
                        <set attributeName="fill" to="#808080" begin="arrowLeft.mouseover" end="arrowLeft.mouseout"/>
                  </use>
                  <path fill="none" stroke="white" stroke-width="1.5" d="M0,-3.0v7 M-2.5,-0.5L0,-3.0L2.5,-0.5"/>
                </g>
        </g>
        <svg viewBox="0 0 15 15" width="100%" height="30px" preserveAspectRatio="xMaxYMin meet">
         <g id="arrow_out" transform="scale(0.3 0.3)">
          <a xlink:href="RtypeResources_8hpp__incl_org.svg" target="_base">
           <rect id="button" ry="5" rx="5" y="6" x="6" height="38" width="38"
                fill="#f2f5e9" fill-opacity="0.5" stroke="#606060" stroke-width="1.0"/>
           <path id="arrow"
             d="M 11.500037,31.436501 C 11.940474,20.09759 22.043105,11.32322 32.158766,21.979434 L 37.068811,17.246167 C 37.068811,17.246167 37.088388,32 37.088388,32 L 22.160133,31.978069 C 22.160133,31.978069 26.997745,27.140456 26.997745,27.140456 C 18.528582,18.264221 13.291696,25.230495 11.500037,31.436501 z"
             style="fill:#404040;"/>
          </a>
         </g>
        </svg>
</svg>
