<?xml version="1.0" encoding="UTF-8" standalone="no"?>
<!DOCTYPE svg PUBLIC "-//W3C//DTD SVG 1.1//EN"
 "http://www.w3.org/Graphics/SVG/1.1/DTD/svg11.dtd">
<!-- Generated by graphviz version 2.38.0 (20140413.2041)
 -->
<!-- Title: src/Scenes/SceneManager.hpp Pages: 1 -->
<svg width="342pt" height="140pt"
 viewBox="0.00 0.00 341.50 140.00" xmlns="http://www.w3.org/2000/svg" xmlns:xlink="http://www.w3.org/1999/xlink">
<g id="graph0" class="graph" transform="scale(1 1) rotate(0) translate(4 136)">
<title>src/Scenes/SceneManager.hpp</title>
<!-- Node1 -->
<g id="node1" class="node"><title>Node1</title>
<polygon fill="#bfbfbf" stroke="black" points="98.5,-112.5 98.5,-131.5 262.5,-131.5 262.5,-112.5 98.5,-112.5"/>
<text text-anchor="middle" x="180.5" y="-119.5" font-family="Helvetica,sans-Serif" font-size="10.00">src/Scenes/SceneManager.hpp</text>
</g>
<!-- Node2 -->
<g id="node2" class="node"><title>Node2</title>
<g id="a_node2"><a xlink:href="Rtype_8hpp.html" target="_top" xlink:title="src/Rtype.hpp">
<polygon fill="none" stroke="black" points="69.5,-56.5 69.5,-75.5 151.5,-75.5 151.5,-56.5 69.5,-56.5"/>
<text text-anchor="middle" x="110.5" y="-63.5" font-family="Helvetica,sans-Serif" font-size="10.00">src/Rtype.hpp</text>
</a>
</g>
</g>
<!-- Node1&#45;&gt;Node2 -->
<g id="edge1" class="edge"><title>Node1&#45;&gt;Node2</title>
<path fill="none" stroke="midnightblue" d="M161.186,-106.101C148.588,-96.3824 132.572,-84.0269 121.951,-75.8339"/>
<polygon fill="midnightblue" stroke="midnightblue" points="159.198,-108.987 169.253,-112.324 163.473,-103.445 159.198,-108.987"/>
</g>
<!-- Node5 -->
<g id="node5" class="node"><title>Node5</title>
<g id="a_node5"><a xlink:href="SceneManager_8cpp.html" target="_top" xlink:title="src/Scenes/SceneManager.cpp">
<polygon fill="none" stroke="black" points="169.5,-56.5 169.5,-75.5 333.5,-75.5 333.5,-56.5 169.5,-56.5"/>
<text text-anchor="middle" x="251.5" y="-63.5" font-family="Helvetica,sans-Serif" font-size="10.00">src/Scenes/SceneManager.cpp</text>
</a>
</g>
</g>
<!-- Node1&#45;&gt;Node5 -->
<g id="edge4" class="edge"><title>Node1&#45;&gt;Node5</title>
<path fill="none" stroke="midnightblue" d="M200.09,-106.101C212.868,-96.3824 229.113,-84.0269 239.885,-75.8339"/>
<polygon fill="midnightblue" stroke="midnightblue" points="197.748,-103.484 191.907,-112.324 201.986,-109.056 197.748,-103.484"/>
</g>
<!-- Node3 -->
<g id="node3" class="node"><title>Node3</title>
<g id="a_node3"><a xlink:href="main__client_8cpp.html" target="_top" xlink:title="src/main_client.cpp">
<polygon fill="none" stroke="black" points="0,-0.5 0,-19.5 109,-19.5 109,-0.5 0,-0.5"/>
<text text-anchor="middle" x="54.5" y="-7.5" font-family="Helvetica,sans-Serif" font-size="10.00">src/main_client.cpp</text>
</a>
</g>
</g>
<!-- Node2&#45;&gt;Node3 -->
<g id="edge2" class="edge"><title>Node2&#45;&gt;Node3</title>
<path fill="none" stroke="midnightblue" d="M94.1701,-49.2533C84.235,-39.6731 71.9125,-27.7906 63.6611,-19.8339"/>
<polygon fill="midnightblue" stroke="midnightblue" points="91.8747,-51.902 101.503,-56.324 96.7336,-46.8631 91.8747,-51.902"/>
</g>
<!-- Node4 -->
<g id="node4" class="node"><title>Node4</title>
<g id="a_node4"><a xlink:href="Rtype_8cpp.html" target="_top" xlink:title="src/Rtype.cpp">
<polygon fill="none" stroke="black" points="127,-0.5 127,-19.5 208,-19.5 208,-0.5 127,-0.5"/>
<text text-anchor="middle" x="167.5" y="-7.5" font-family="Helvetica,sans-Serif" font-size="10.00">src/Rtype.cpp</text>
</a>
</g>
</g>
<!-- Node2&#45;&gt;Node4 -->
<g id="edge3" class="edge"><title>Node2&#45;&gt;Node4</title>
<path fill="none" stroke="midnightblue" d="M127.121,-49.2533C137.234,-39.6731 149.777,-27.7906 158.175,-19.8339"/>
<polygon fill="midnightblue" stroke="midnightblue" points="124.51,-46.9056 119.658,-56.324 129.325,-51.9873 124.51,-46.9056"/>
</g>
</g>
</svg>
