<?xml version="1.0" encoding="UTF-8" standalone="no"?>
<!DOCTYPE svg PUBLIC "-//W3C//DTD SVG 1.1//EN"
 "http://www.w3.org/Graphics/SVG/1.1/DTD/svg11.dtd">
<!-- Generated by graphviz version 2.38.0 (20140413.2041)
 -->
<!-- Title: src/Entities/Serializer/Serializer.cpp Pages: 1 -->
<svg width="609pt" height="319pt"
 viewBox="0.00 0.00 609.00 319.00" xmlns="http://www.w3.org/2000/svg" xmlns:xlink="http://www.w3.org/1999/xlink">
<g id="graph0" class="graph" transform="scale(1 1) rotate(0) translate(4 315)">
<title>src/Entities/Serializer/Serializer.cpp</title>
<!-- Node1 -->
<g id="node1" class="node"><title>Node1</title>
<polygon fill="#bfbfbf" stroke="black" points="225,-280.5 225,-310.5 341,-310.5 341,-280.5 225,-280.5"/>
<text text-anchor="start" x="233" y="-298.5" font-family="Helvetica,sans-Serif" font-size="10.00">src/Entities/Serializer</text>
<text text-anchor="middle" x="283" y="-287.5" font-family="Helvetica,sans-Serif" font-size="10.00">/Serializer.cpp</text>
</g>
<!-- Node2 -->
<g id="node2" class="node"><title>Node2</title>
<g id="a_node2"><a xlink:href="Serializer_8hpp.html" target="_top" xlink:title="Serializer.hpp">
<polygon fill="none" stroke="black" points="242.5,-224.5 242.5,-243.5 323.5,-243.5 323.5,-224.5 242.5,-224.5"/>
<text text-anchor="middle" x="283" y="-231.5" font-family="Helvetica,sans-Serif" font-size="10.00">Serializer.hpp</text>
</a>
</g>
</g>
<!-- Node1&#45;&gt;Node2 -->
<g id="edge1" class="edge"><title>Node1&#45;&gt;Node2</title>
<path fill="none" stroke="midnightblue" d="M283,-280.399C283,-272.466 283,-262.458 283,-253.858"/>
<polygon fill="midnightblue" stroke="midnightblue" points="286.5,-253.658 283,-243.658 279.5,-253.658 286.5,-253.658"/>
</g>
<!-- Node3 -->
<g id="node3" class="node"><title>Node3</title>
<g id="a_node3"><a xlink:href="Position_8hpp.html" target="_top" xlink:title="Position.hpp">
<polygon fill="none" stroke="black" points="466.5,-168.5 466.5,-187.5 541.5,-187.5 541.5,-168.5 466.5,-168.5"/>
<text text-anchor="middle" x="504" y="-175.5" font-family="Helvetica,sans-Serif" font-size="10.00">Position.hpp</text>
</a>
</g>
</g>
<!-- Node2&#45;&gt;Node3 -->
<g id="edge2" class="edge"><title>Node2&#45;&gt;Node3</title>
<path fill="none" stroke="midnightblue" d="M318.018,-224.444C356.248,-215.102 417.567,-200.119 459.257,-189.933"/>
<polygon fill="midnightblue" stroke="midnightblue" points="460.262,-193.29 469.146,-187.516 458.601,-186.49 460.262,-193.29"/>
</g>
<!-- Node8 -->
<g id="node8" class="node"><title>Node8</title>
<g id="a_node8"><a xlink:href="Rotation_8hpp.html" target="_top" xlink:title="Rotation.hpp">
<polygon fill="none" stroke="black" points="335.5,-168.5 335.5,-187.5 412.5,-187.5 412.5,-168.5 335.5,-168.5"/>
<text text-anchor="middle" x="374" y="-175.5" font-family="Helvetica,sans-Serif" font-size="10.00">Rotation.hpp</text>
</a>
</g>
</g>
<!-- Node2&#45;&gt;Node8 -->
<g id="edge7" class="edge"><title>Node2&#45;&gt;Node8</title>
<path fill="none" stroke="midnightblue" d="M297.621,-224.324C311.949,-215.822 334.013,-202.729 350.749,-192.797"/>
<polygon fill="midnightblue" stroke="midnightblue" points="352.602,-195.768 359.416,-187.655 349.03,-189.748 352.602,-195.768"/>
</g>
<!-- Node9 -->
<g id="node9" class="node"><title>Node9</title>
<g id="a_node9"><a xlink:href="EntityManager_8hpp.html" target="_top" xlink:title="EntityManager.hpp">
<polygon fill="none" stroke="black" points="140,-168.5 140,-187.5 246,-187.5 246,-168.5 140,-168.5"/>
<text text-anchor="middle" x="193" y="-175.5" font-family="Helvetica,sans-Serif" font-size="10.00">EntityManager.hpp</text>
</a>
</g>
</g>
<!-- Node2&#45;&gt;Node9 -->
<g id="edge9" class="edge"><title>Node2&#45;&gt;Node9</title>
<path fill="none" stroke="midnightblue" d="M268.54,-224.324C254.5,-215.9 232.952,-202.971 216.457,-193.074"/>
<polygon fill="midnightblue" stroke="midnightblue" points="217.8,-189.798 207.424,-187.655 214.198,-195.801 217.8,-189.798"/>
</g>
<!-- Node12 -->
<g id="node12" class="node"><title>Node12</title>
<g id="a_node12"><a xlink:href="PacketManager_8hpp.html" target="_top" xlink:title="PacketManager.hpp">
<polygon fill="none" stroke="black" points="11,-56.5 11,-75.5 121,-75.5 121,-56.5 11,-56.5"/>
<text text-anchor="middle" x="66" y="-63.5" font-family="Helvetica,sans-Serif" font-size="10.00">PacketManager.hpp</text>
</a>
</g>
</g>
<!-- Node2&#45;&gt;Node12 -->
<g id="edge26" class="edge"><title>Node2&#45;&gt;Node12</title>
<path fill="none" stroke="midnightblue" d="M242.379,-226.026C210.622,-219.41 166.122,-207.518 131,-188 98.2542,-169.802 83.8706,-165.935 68,-132 61.2741,-117.618 61.334,-99.4233 62.7541,-85.9439"/>
<polygon fill="midnightblue" stroke="midnightblue" points="66.2376,-86.3043 64.1478,-75.9176 59.3042,-85.3404 66.2376,-86.3043"/>
</g>
<!-- Node4 -->
<g id="node4" class="node"><title>Node4</title>
<polygon fill="none" stroke="#bfbfbf" points="559,-112.5 559,-131.5 601,-131.5 601,-112.5 559,-112.5"/>
<text text-anchor="middle" x="580" y="-119.5" font-family="Helvetica,sans-Serif" font-size="10.00">utility</text>
</g>
<!-- Node3&#45;&gt;Node4 -->
<g id="edge3" class="edge"><title>Node3&#45;&gt;Node4</title>
<path fill="none" stroke="midnightblue" d="M516.211,-168.324C527.776,-160.107 545.375,-147.602 559.161,-137.807"/>
<polygon fill="midnightblue" stroke="midnightblue" points="561.443,-140.479 567.567,-131.834 557.388,-134.773 561.443,-140.479"/>
</g>
<!-- Node5 -->
<g id="node5" class="node"><title>Node5</title>
<g id="a_node5"><a xlink:href="IPhysics_8hpp.html" target="_top" xlink:title="IPhysics.hpp">
<polygon fill="none" stroke="black" points="466.5,-112.5 466.5,-131.5 541.5,-131.5 541.5,-112.5 466.5,-112.5"/>
<text text-anchor="middle" x="504" y="-119.5" font-family="Helvetica,sans-Serif" font-size="10.00">IPhysics.hpp</text>
</a>
</g>
</g>
<!-- Node3&#45;&gt;Node5 -->
<g id="edge4" class="edge"><title>Node3&#45;&gt;Node5</title>
<path fill="none" stroke="midnightblue" d="M504,-168.083C504,-161.006 504,-150.861 504,-141.986"/>
<polygon fill="midnightblue" stroke="midnightblue" points="507.5,-141.751 504,-131.751 500.5,-141.751 507.5,-141.751"/>
</g>
<!-- Node6 -->
<g id="node6" class="node"><title>Node6</title>
<g id="a_node6"><a xlink:href="IComponent_8hpp.html" target="_top" xlink:title="IComponent.hpp">
<polygon fill="none" stroke="black" points="432,-56.5 432,-75.5 528,-75.5 528,-56.5 432,-56.5"/>
<text text-anchor="middle" x="480" y="-63.5" font-family="Helvetica,sans-Serif" font-size="10.00">IComponent.hpp</text>
</a>
</g>
</g>
<!-- Node5&#45;&gt;Node6 -->
<g id="edge5" class="edge"><title>Node5&#45;&gt;Node6</title>
<path fill="none" stroke="midnightblue" d="M500.037,-112.083C496.787,-104.77 492.081,-94.1814 488.046,-85.1034"/>
<polygon fill="midnightblue" stroke="midnightblue" points="491.149,-83.4677 483.889,-75.7511 484.752,-86.3107 491.149,-83.4677"/>
</g>
<!-- Node7 -->
<g id="node7" class="node"><title>Node7</title>
<polygon fill="none" stroke="#bfbfbf" points="448.5,-0.5 448.5,-19.5 511.5,-19.5 511.5,-0.5 448.5,-0.5"/>
<text text-anchor="middle" x="480" y="-7.5" font-family="Helvetica,sans-Serif" font-size="10.00">typeindex</text>
</g>
<!-- Node6&#45;&gt;Node7 -->
<g id="edge6" class="edge"><title>Node6&#45;&gt;Node7</title>
<path fill="none" stroke="midnightblue" d="M480,-56.083C480,-49.0059 480,-38.8611 480,-29.9865"/>
<polygon fill="midnightblue" stroke="midnightblue" points="483.5,-29.751 480,-19.7511 476.5,-29.7511 483.5,-29.751"/>
</g>
<!-- Node8&#45;&gt;Node5 -->
<g id="edge8" class="edge"><title>Node8&#45;&gt;Node5</title>
<path fill="none" stroke="midnightblue" d="M394.599,-168.444C415.993,-159.557 449.681,-145.563 474.024,-135.451"/>
<polygon fill="midnightblue" stroke="midnightblue" points="475.605,-138.585 483.497,-131.516 472.92,-132.12 475.605,-138.585"/>
</g>
<!-- Node10 -->
<g id="node10" class="node"><title>Node10</title>
<polygon fill="none" stroke="#bfbfbf" points="91,-112.5 91,-131.5 129,-131.5 129,-112.5 91,-112.5"/>
<text text-anchor="middle" x="110" y="-119.5" font-family="Helvetica,sans-Serif" font-size="10.00">map</text>
</g>
<!-- Node9&#45;&gt;Node10 -->
<g id="edge10" class="edge"><title>Node9&#45;&gt;Node10</title>
<path fill="none" stroke="midnightblue" d="M179.665,-168.324C166.838,-159.979 147.215,-147.212 132.06,-137.352"/>
<polygon fill="midnightblue" stroke="midnightblue" points="133.593,-134.174 123.302,-131.655 129.776,-140.042 133.593,-134.174"/>
</g>
<!-- Node11 -->
<g id="node11" class="node"><title>Node11</title>
<polygon fill="none" stroke="#bfbfbf" points="142.5,-56.5 142.5,-75.5 189.5,-75.5 189.5,-56.5 142.5,-56.5"/>
<text text-anchor="middle" x="166" y="-63.5" font-family="Helvetica,sans-Serif" font-size="10.00">vector</text>
</g>
<!-- Node9&#45;&gt;Node11 -->
<g id="edge11" class="edge"><title>Node9&#45;&gt;Node11</title>
<path fill="none" stroke="midnightblue" d="M189.054,-168.214C185.187,-159.271 179.395,-144.924 176,-132 171.961,-116.626 169.357,-98.7506 167.823,-85.6406"/>
<polygon fill="midnightblue" stroke="midnightblue" points="171.285,-85.0997 166.74,-75.5293 164.325,-85.8452 171.285,-85.0997"/>
</g>
<!-- Node9&#45;&gt;Node12 -->
<g id="edge12" class="edge"><title>Node9&#45;&gt;Node12</title>
<path fill="none" stroke="midnightblue" d="M146.411,-168.447C123.954,-162.025 98.3994,-150.945 82,-132 70.9569,-119.243 67.2934,-100.049 66.1909,-85.8223"/>
<polygon fill="midnightblue" stroke="midnightblue" points="69.6822,-85.5396 65.7638,-75.696 62.6884,-85.8346 69.6822,-85.5396"/>
</g>
<!-- Node16 -->
<g id="node16" class="node"><title>Node16</title>
<g id="a_node16"><a xlink:href="IComponentManager_8hpp.html" target="_top" xlink:title="IComponentManager.hpp">
<polygon fill="none" stroke="black" points="311.5,-112.5 311.5,-131.5 448.5,-131.5 448.5,-112.5 311.5,-112.5"/>
<text text-anchor="middle" x="380" y="-119.5" font-family="Helvetica,sans-Serif" font-size="10.00">IComponentManager.hpp</text>
</a>
</g>
</g>
<!-- Node9&#45;&gt;Node16 -->
<g id="edge16" class="edge"><title>Node9&#45;&gt;Node16</title>
<path fill="none" stroke="midnightblue" d="M222.631,-168.444C254.5,-159.241 305.333,-144.562 340.564,-134.388"/>
<polygon fill="midnightblue" stroke="midnightblue" points="341.872,-137.653 350.508,-131.516 339.929,-130.928 341.872,-137.653"/>
</g>
<!-- Node19 -->
<g id="node19" class="node"><title>Node19</title>
<g id="a_node19"><a xlink:href="IEntityManager_8hpp.html" target="_top" xlink:title="IEntityManager.hpp">
<polygon fill="none" stroke="black" points="185,-112.5 185,-131.5 293,-131.5 293,-112.5 185,-112.5"/>
<text text-anchor="middle" x="239" y="-119.5" font-family="Helvetica,sans-Serif" font-size="10.00">IEntityManager.hpp</text>
</a>
</g>
</g>
<!-- Node9&#45;&gt;Node19 -->
<g id="edge21" class="edge"><title>Node9&#45;&gt;Node19</title>
<path fill="none" stroke="midnightblue" d="M200.596,-168.083C207.227,-160.298 217.021,-148.801 225.058,-139.367"/>
<polygon fill="midnightblue" stroke="midnightblue" points="227.725,-141.633 231.545,-131.751 222.396,-137.094 227.725,-141.633"/>
</g>
<!-- Node13 -->
<g id="node13" class="node"><title>Node13</title>
<polygon fill="none" stroke="#bfbfbf" points="0,-0.5 0,-19.5 44,-19.5 44,-0.5 0,-0.5"/>
<text text-anchor="middle" x="22" y="-7.5" font-family="Helvetica,sans-Serif" font-size="10.00">string</text>
</g>
<!-- Node12&#45;&gt;Node13 -->
<g id="edge13" class="edge"><title>Node12&#45;&gt;Node13</title>
<path fill="none" stroke="midnightblue" d="M58.7343,-56.083C52.4552,-48.3768 43.2124,-37.0333 35.5692,-27.6531"/>
<polygon fill="midnightblue" stroke="midnightblue" points="38.1606,-25.2926 29.1305,-19.7511 32.7339,-29.7143 38.1606,-25.2926"/>
</g>
<!-- Node14 -->
<g id="node14" class="node"><title>Node14</title>
<polygon fill="none" stroke="#bfbfbf" points="271,-0.5 271,-19.5 301,-19.5 301,-0.5 271,-0.5"/>
<text text-anchor="middle" x="286" y="-7.5" font-family="Helvetica,sans-Serif" font-size="10.00">list</text>
</g>
<!-- Node12&#45;&gt;Node14 -->
<g id="edge14" class="edge"><title>Node12&#45;&gt;Node14</title>
<path fill="none" stroke="midnightblue" d="M100.86,-56.4435C145.475,-45.4924 221.682,-26.7871 260.96,-17.1462"/>
<polygon fill="midnightblue" stroke="midnightblue" points="261.902,-20.5189 270.779,-14.7359 260.233,-13.7207 261.902,-20.5189"/>
</g>
<!-- Node15 -->
<g id="node15" class="node"><title>Node15</title>
<g id="a_node15"><a xlink:href="Input_8hpp.html" target="_top" xlink:title="Render/Input.hpp">
<polygon fill="none" stroke="black" points="62,-0.5 62,-19.5 160,-19.5 160,-0.5 62,-0.5"/>
<text text-anchor="middle" x="111" y="-7.5" font-family="Helvetica,sans-Serif" font-size="10.00">Render/Input.hpp</text>
</a>
</g>
</g>
<!-- Node12&#45;&gt;Node15 -->
<g id="edge15" class="edge"><title>Node12&#45;&gt;Node15</title>
<path fill="none" stroke="midnightblue" d="M73.4308,-56.083C79.8527,-48.3768 89.3056,-37.0333 97.1225,-27.6531"/>
<polygon fill="midnightblue" stroke="midnightblue" points="99.9943,-29.674 103.707,-19.7511 94.6168,-25.1927 99.9943,-29.674"/>
</g>
<!-- Node16&#45;&gt;Node6 -->
<g id="edge19" class="edge"><title>Node16&#45;&gt;Node6</title>
<path fill="none" stroke="midnightblue" d="M396.067,-112.324C411.958,-103.743 436.507,-90.486 454.958,-80.5224"/>
<polygon fill="midnightblue" stroke="midnightblue" points="456.837,-83.4857 463.973,-75.6545 453.511,-77.3264 456.837,-83.4857"/>
</g>
<!-- Node16&#45;&gt;Node14 -->
<g id="edge17" class="edge"><title>Node16&#45;&gt;Node14</title>
<path fill="none" stroke="midnightblue" d="M378.92,-112.109C376.897,-98.6842 371.452,-73.0051 358,-56 345.504,-40.2035 325.835,-28.4497 310.211,-20.9233"/>
<polygon fill="midnightblue" stroke="midnightblue" points="311.657,-17.7363 301.105,-16.785 308.761,-24.109 311.657,-17.7363"/>
</g>
<!-- Node17 -->
<g id="node17" class="node"><title>Node17</title>
<polygon fill="none" stroke="#bfbfbf" points="292.5,-56.5 292.5,-75.5 349.5,-75.5 349.5,-56.5 292.5,-56.5"/>
<text text-anchor="middle" x="321" y="-63.5" font-family="Helvetica,sans-Serif" font-size="10.00">memory</text>
</g>
<!-- Node16&#45;&gt;Node17 -->
<g id="edge18" class="edge"><title>Node16&#45;&gt;Node17</title>
<path fill="none" stroke="midnightblue" d="M370.521,-112.324C361.799,-104.341 348.657,-92.3128 338.102,-82.6529"/>
<polygon fill="midnightblue" stroke="midnightblue" points="340.392,-80.0036 330.652,-75.8339 335.666,-85.1674 340.392,-80.0036"/>
</g>
<!-- Node18 -->
<g id="node18" class="node"><title>Node18</title>
<g id="a_node18"><a xlink:href="Entity_8hpp.html" target="_top" xlink:title="Entity.hpp">
<polygon fill="none" stroke="black" points="208.5,-56.5 208.5,-75.5 271.5,-75.5 271.5,-56.5 208.5,-56.5"/>
<text text-anchor="middle" x="240" y="-63.5" font-family="Helvetica,sans-Serif" font-size="10.00">Entity.hpp</text>
</a>
</g>
</g>
<!-- Node16&#45;&gt;Node18 -->
<g id="edge20" class="edge"><title>Node16&#45;&gt;Node18</title>
<path fill="none" stroke="midnightblue" d="M357.817,-112.444C334.572,-103.478 297.851,-89.314 271.585,-79.1827"/>
<polygon fill="midnightblue" stroke="midnightblue" points="272.669,-75.8497 262.08,-75.5164 270.15,-82.3807 272.669,-75.8497"/>
</g>
<!-- Node19&#45;&gt;Node11 -->
<g id="edge23" class="edge"><title>Node19&#45;&gt;Node11</title>
<path fill="none" stroke="midnightblue" d="M227.271,-112.324C216.163,-104.107 199.258,-91.6017 186.017,-81.8069"/>
<polygon fill="midnightblue" stroke="midnightblue" points="188.063,-78.9671 177.942,-75.8339 183.9,-84.5948 188.063,-78.9671"/>
</g>
<!-- Node19&#45;&gt;Node12 -->
<g id="edge25" class="edge"><title>Node19&#45;&gt;Node12</title>
<path fill="none" stroke="midnightblue" d="M211.588,-112.444C182.231,-103.28 135.481,-88.6876 102.904,-78.5192"/>
<polygon fill="midnightblue" stroke="midnightblue" points="103.873,-75.1551 93.2841,-75.5164 101.787,-81.8371 103.873,-75.1551"/>
</g>
<!-- Node19&#45;&gt;Node17 -->
<g id="edge22" class="edge"><title>Node19&#45;&gt;Node17</title>
<path fill="none" stroke="midnightblue" d="M252.175,-112.324C264.847,-103.979 284.233,-91.2122 299.206,-81.3524"/>
<polygon fill="midnightblue" stroke="midnightblue" points="301.431,-84.0776 307.858,-75.6545 297.581,-78.2313 301.431,-84.0776"/>
</g>
<!-- Node19&#45;&gt;Node18 -->
<g id="edge24" class="edge"><title>Node19&#45;&gt;Node18</title>
<path fill="none" stroke="midnightblue" d="M239.165,-112.083C239.296,-105.006 239.484,-94.8611 239.648,-85.9865"/>
<polygon fill="midnightblue" stroke="midnightblue" points="243.152,-85.8142 239.838,-75.7511 236.153,-85.6845 243.152,-85.8142"/>
</g>
</g>
</svg>
