<?xml version="1.0" encoding="UTF-8" standalone="no"?>
<!DOCTYPE svg PUBLIC "-//W3C//DTD SVG 1.1//EN"
 "http://www.w3.org/Graphics/SVG/1.1/DTD/svg11.dtd">
<!-- Generated by graphviz version 2.38.0 (20140413.2041)
 -->
<!-- Title: src/Network/Session/ServerSession.hpp Pages: 1 -->
<!--zoomable 207 -->
<svg id="main" version="1.1" xmlns="http://www.w3.org/2000/svg" xmlns:xlink="http://www.w3.org/1999/xlink" xml:space="preserve" onload="init(evt)">
<style type="text/css"><![CDATA[
.edge:hover path { stroke: red; }
.edge:hover polygon { stroke: red; fill: red; }
]]></style>
<script type="text/javascript"><![CDATA[
var edges = document.getElementsByTagName('g');
if (edges && edges.length) {
  for (var i=0;i<edges.length;i++) {
    if (edges[i].id.substr(0,4)=='edge') {
      edges[i].setAttribute('class','edge');
    }
  }
}
]]></script>
        <defs>
                <circle id="rim" cx="0" cy="0" r="7"/>
                <circle id="rim2" cx="0" cy="0" r="3.5"/>
                <g id="zoomPlus">
                        <use xlink:href="#rim" fill="#404040">
                                <set attributeName="fill" to="#808080" begin="zoomplus.mouseover" end="zoomplus.mouseout"/>
                        </use>
                        <path d="M-4,0h8M0,-4v8" fill="none" stroke="white" stroke-width="1.5" pointer-events="none"/>
                </g>
                <g id="zoomMin">
                        <use xlink:href="#rim" fill="#404040">
                                <set attributeName="fill" to="#808080" begin="zoomminus.mouseover" end="zoomminus.mouseout"/>
                        </use>
                        <path d="M-4,0h8" fill="none" stroke="white" stroke-width="1.5" pointer-events="none"/>
                </g>
                <g id="dirArrow">
                        <path fill="none" stroke="white" stroke-width="1.5" d="M0,-3.0v7 M-2.5,-0.5L0,-3.0L2.5,-0.5"/>
                </g>
               <g id="resetDef">
                       <use xlink:href="#rim2" fill="#404040">
                               <set attributeName="fill" to="#808080" begin="reset.mouseover" end="reset.mouseout"/>
                       </use>
               </g>
        </defs>

<script type="text/javascript">
var viewWidth = 635;
var viewHeight = 207;
var sectionId = 'dynsection-0';
</script>
<script xlink:href="svgpan.js"/>
<svg id="graph" class="graph">
<g id="viewport">
<title>src/Network/Session/ServerSession.hpp</title>
<!-- Node1 -->
<g id="node1" class="node"><title>Node1</title>
<polygon fill="#bfbfbf" stroke="black" points="301,-168.5 301,-198.5 414,-198.5 414,-168.5 301,-168.5"/>
<text text-anchor="start" x="309" y="-186.5" font-family="Helvetica,sans-Serif" font-size="10.00">src/Network/Session</text>
<text text-anchor="middle" x="357.5" y="-175.5" font-family="Helvetica,sans-Serif" font-size="10.00">/ServerSession.hpp</text>
</g>
<!-- Node2 -->
<g id="node2" class="node"><title>Node2</title>
<g id="a_node2"><a xlink:href="PacketManager_8hpp.html" target="_top" xlink:title="PacketManager.hpp">
<polygon fill="none" stroke="black" points="434.5,-112.5 434.5,-131.5 544.5,-131.5 544.5,-112.5 434.5,-112.5"/>
<text text-anchor="middle" x="489.5" y="-119.5" font-family="Helvetica,sans-Serif" font-size="10.00">PacketManager.hpp</text>
</a>
</g>
</g>
<!-- Node1&#45;&gt;Node2 -->
<g id="edge1" class="edge"><title>Node1&#45;&gt;Node2</title>
<path fill="none" stroke="midnightblue" d="M388.782,-168.399C410.732,-158.505 439.843,-145.383 461.121,-135.792"/>
<polygon fill="midnightblue" stroke="midnightblue" points="462.614,-138.958 470.293,-131.658 459.738,-132.576 462.614,-138.958"/>
</g>
<!-- Node6 -->
<g id="node6" class="node"><title>Node6</title>
<g id="a_node6"><a xlink:href="RoomManager_8hpp.html" target="_top" xlink:title="Room/RoomManager.hpp">
<polygon fill="none" stroke="black" points="154.5,-112.5 154.5,-131.5 290.5,-131.5 290.5,-112.5 154.5,-112.5"/>
<text text-anchor="middle" x="222.5" y="-119.5" font-family="Helvetica,sans-Serif" font-size="10.00">Room/RoomManager.hpp</text>
</a>
</g>
</g>
<!-- Node1&#45;&gt;Node6 -->
<g id="edge5" class="edge"><title>Node1&#45;&gt;Node6</title>
<path fill="none" stroke="midnightblue" d="M325.507,-168.399C303.058,-158.505 273.285,-145.383 251.524,-135.792"/>
<polygon fill="midnightblue" stroke="midnightblue" points="252.706,-132.488 242.144,-131.658 249.883,-138.894 252.706,-132.488"/>
</g>
<!-- Node15 -->
<g id="node15" class="node"><title>Node15</title>
<g id="a_node15"><a xlink:href="ISession_8hpp.html" target="_top" xlink:title="ISession.hpp">
<polygon fill="none" stroke="black" points="319,-112.5 319,-131.5 396,-131.5 396,-112.5 319,-112.5"/>
<text text-anchor="middle" x="357.5" y="-119.5" font-family="Helvetica,sans-Serif" font-size="10.00">ISession.hpp</text>
</a>
</g>
</g>
<!-- Node1&#45;&gt;Node15 -->
<g id="edge15" class="edge"><title>Node1&#45;&gt;Node15</title>
<path fill="none" stroke="midnightblue" d="M357.5,-168.399C357.5,-160.466 357.5,-150.458 357.5,-141.858"/>
<polygon fill="midnightblue" stroke="midnightblue" points="361,-141.658 357.5,-131.658 354,-141.658 361,-141.658"/>
</g>
<!-- Node3 -->
<g id="node3" class="node"><title>Node3</title>
<polygon fill="none" stroke="#bfbfbf" points="336.5,-0.5 336.5,-19.5 380.5,-19.5 380.5,-0.5 336.5,-0.5"/>
<text text-anchor="middle" x="358.5" y="-7.5" font-family="Helvetica,sans-Serif" font-size="10.00">string</text>
</g>
<!-- Node2&#45;&gt;Node3 -->
<g id="edge2" class="edge"><title>Node2&#45;&gt;Node3</title>
<path fill="none" stroke="midnightblue" d="M483.209,-112.25C473.402,-99.0101 453.417,-73.5689 432.5,-56 417.955,-43.7832 399.745,-32.6656 385.029,-24.5373"/>
<polygon fill="midnightblue" stroke="midnightblue" points="386.402,-21.3014 375.937,-19.646 383.085,-27.4659 386.402,-21.3014"/>
</g>
<!-- Node4 -->
<g id="node4" class="node"><title>Node4</title>
<polygon fill="none" stroke="#bfbfbf" points="480.5,-56.5 480.5,-75.5 510.5,-75.5 510.5,-56.5 480.5,-56.5"/>
<text text-anchor="middle" x="495.5" y="-63.5" font-family="Helvetica,sans-Serif" font-size="10.00">list</text>
</g>
<!-- Node2&#45;&gt;Node4 -->
<g id="edge3" class="edge"><title>Node2&#45;&gt;Node4</title>
<path fill="none" stroke="midnightblue" d="M490.491,-112.083C491.286,-104.927 492.429,-94.6353 493.423,-85.6911"/>
<polygon fill="midnightblue" stroke="midnightblue" points="496.902,-86.0765 494.528,-75.7511 489.945,-85.3034 496.902,-86.0765"/>
</g>
<!-- Node5 -->
<g id="node5" class="node"><title>Node5</title>
<g id="a_node5"><a xlink:href="Input_8hpp.html" target="_top" xlink:title="Render/Input.hpp">
<polygon fill="none" stroke="black" points="528.5,-56.5 528.5,-75.5 626.5,-75.5 626.5,-56.5 528.5,-56.5"/>
<text text-anchor="middle" x="577.5" y="-63.5" font-family="Helvetica,sans-Serif" font-size="10.00">Render/Input.hpp</text>
</a>
</g>
</g>
<!-- Node2&#45;&gt;Node5 -->
<g id="edge4" class="edge"><title>Node2&#45;&gt;Node5</title>
<path fill="none" stroke="midnightblue" d="M503.639,-112.324C517.366,-103.9 538.436,-90.9709 554.564,-81.0741"/>
<polygon fill="midnightblue" stroke="midnightblue" points="556.704,-83.8678 563.396,-75.6545 553.043,-77.9016 556.704,-83.8678"/>
</g>
<!-- Node7 -->
<g id="node7" class="node"><title>Node7</title>
<polygon fill="none" stroke="#bfbfbf" points="191.5,-56.5 191.5,-75.5 243.5,-75.5 243.5,-56.5 191.5,-56.5"/>
<text text-anchor="middle" x="217.5" y="-63.5" font-family="Helvetica,sans-Serif" font-size="10.00">cstddef</text>
</g>
<!-- Node6&#45;&gt;Node7 -->
<g id="edge6" class="edge"><title>Node6&#45;&gt;Node7</title>
<path fill="none" stroke="midnightblue" d="M221.674,-112.083C221.019,-105.006 220.08,-94.8611 219.258,-85.9865"/>
<polygon fill="midnightblue" stroke="midnightblue" points="222.717,-85.3858 218.31,-75.7511 215.747,-86.0312 222.717,-85.3858"/>
</g>
<!-- Node8 -->
<g id="node8" class="node"><title>Node8</title>
<polygon fill="none" stroke="#bfbfbf" points="43,-56.5 43,-75.5 90,-75.5 90,-56.5 43,-56.5"/>
<text text-anchor="middle" x="66.5" y="-63.5" font-family="Helvetica,sans-Serif" font-size="10.00">vector</text>
</g>
<!-- Node6&#45;&gt;Node8 -->
<g id="edge7" class="edge"><title>Node6&#45;&gt;Node8</title>
<path fill="none" stroke="midnightblue" d="M197.781,-112.444C171.344,-103.292 129.264,-88.726 99.8939,-78.5594"/>
<polygon fill="midnightblue" stroke="midnightblue" points="100.677,-75.1267 90.0818,-75.1629 98.3868,-81.7416 100.677,-75.1267"/>
</g>
<!-- Node9 -->
<g id="node9" class="node"><title>Node9</title>
<polygon fill="none" stroke="#bfbfbf" points="367,-56.5 367,-75.5 424,-75.5 424,-56.5 367,-56.5"/>
<text text-anchor="middle" x="395.5" y="-63.5" font-family="Helvetica,sans-Serif" font-size="10.00">memory</text>
</g>
<!-- Node6&#45;&gt;Node9 -->
<g id="edge8" class="edge"><title>Node6&#45;&gt;Node9</title>
<path fill="none" stroke="midnightblue" d="M249.912,-112.444C279.269,-103.28 326.019,-88.6876 358.596,-78.5192"/>
<polygon fill="midnightblue" stroke="midnightblue" points="359.713,-81.8371 368.216,-75.5164 357.627,-75.1551 359.713,-81.8371"/>
</g>
<!-- Node10 -->
<g id="node10" class="node"><title>Node10</title>
<g id="a_node10"><a xlink:href="Room_8hpp.html" target="_top" xlink:title="Room.hpp">
<polygon fill="none" stroke="black" points="108,-56.5 108,-75.5 173,-75.5 173,-56.5 108,-56.5"/>
<text text-anchor="middle" x="140.5" y="-63.5" font-family="Helvetica,sans-Serif" font-size="10.00">Room.hpp</text>
</a>
</g>
</g>
<!-- Node6&#45;&gt;Node10 -->
<g id="edge9" class="edge"><title>Node6&#45;&gt;Node10</title>
<path fill="none" stroke="midnightblue" d="M209.325,-112.324C196.653,-103.979 177.267,-91.2122 162.294,-81.3524"/>
<polygon fill="midnightblue" stroke="midnightblue" points="163.919,-78.2313 153.642,-75.6545 160.069,-84.0776 163.919,-78.2313"/>
</g>
<!-- Node14 -->
<g id="node14" class="node"><title>Node14</title>
<polygon fill="none" stroke="#bfbfbf" points="262,-56.5 262,-75.5 349,-75.5 349,-56.5 262,-56.5"/>
<text text-anchor="middle" x="305.5" y="-63.5" font-family="Helvetica,sans-Serif" font-size="10.00">boost/asio.hpp</text>
</g>
<!-- Node6&#45;&gt;Node14 -->
<g id="edge14" class="edge"><title>Node6&#45;&gt;Node14</title>
<path fill="none" stroke="midnightblue" d="M235.835,-112.324C248.662,-103.979 268.285,-91.2122 283.44,-81.3524"/>
<polygon fill="midnightblue" stroke="midnightblue" points="285.724,-84.0417 292.198,-75.6545 281.907,-78.1742 285.724,-84.0417"/>
</g>
<!-- Node10&#45;&gt;Node3 -->
<g id="edge11" class="edge"><title>Node10&#45;&gt;Node3</title>
<path fill="none" stroke="midnightblue" d="M173.137,-56.9157C214.527,-46.6629 285.441,-29.0972 326.518,-18.9222"/>
<polygon fill="midnightblue" stroke="midnightblue" points="327.417,-22.3054 336.282,-16.5036 325.734,-15.5107 327.417,-22.3054"/>
</g>
<!-- Node11 -->
<g id="node11" class="node"><title>Node11</title>
<polygon fill="none" stroke="#bfbfbf" points="121.5,-0.5 121.5,-19.5 159.5,-19.5 159.5,-0.5 121.5,-0.5"/>
<text text-anchor="middle" x="140.5" y="-7.5" font-family="Helvetica,sans-Serif" font-size="10.00">map</text>
</g>
<!-- Node10&#45;&gt;Node11 -->
<g id="edge10" class="edge"><title>Node10&#45;&gt;Node11</title>
<path fill="none" stroke="midnightblue" d="M140.5,-56.083C140.5,-49.0059 140.5,-38.8611 140.5,-29.9865"/>
<polygon fill="midnightblue" stroke="midnightblue" points="144,-29.751 140.5,-19.7511 137,-29.7511 144,-29.751"/>
</g>
<!-- Node12 -->
<g id="node12" class="node"><title>Node12</title>
<polygon fill="none" stroke="#bfbfbf" points="178,-0.5 178,-19.5 225,-19.5 225,-0.5 178,-0.5"/>
<text text-anchor="middle" x="201.5" y="-7.5" font-family="Helvetica,sans-Serif" font-size="10.00">mutex</text>
</g>
<!-- Node10&#45;&gt;Node12 -->
<g id="edge12" class="edge"><title>Node10&#45;&gt;Node12</title>
<path fill="none" stroke="midnightblue" d="M150.301,-56.324C159.318,-48.3414 172.906,-36.3128 183.818,-26.6529"/>
<polygon fill="midnightblue" stroke="midnightblue" points="186.353,-29.083 191.521,-19.8339 181.713,-23.8416 186.353,-29.083"/>
</g>
<!-- Node13 -->
<g id="node13" class="node"><title>Node13</title>
<polygon fill="none" stroke="#bfbfbf" points="0,-0.5 0,-19.5 103,-19.5 103,-0.5 0,-0.5"/>
<text text-anchor="middle" x="51.5" y="-7.5" font-family="Helvetica,sans-Serif" font-size="10.00">condition_variable</text>
</g>
<!-- Node10&#45;&gt;Node13 -->
<g id="edge13" class="edge"><title>Node10&#45;&gt;Node13</title>
<path fill="none" stroke="midnightblue" d="M126.201,-56.324C112.317,-47.9002 91.0076,-34.9709 74.6963,-25.0741"/>
<polygon fill="midnightblue" stroke="midnightblue" points="76.1289,-21.8495 65.7639,-19.6545 72.4978,-27.8341 76.1289,-21.8495"/>
</g>
<!-- Node15&#45;&gt;Node9 -->
<g id="edge16" class="edge"><title>Node15&#45;&gt;Node9</title>
<path fill="none" stroke="midnightblue" d="M363.775,-112.083C369.142,-104.455 377.018,-93.2645 383.579,-83.9408"/>
<polygon fill="midnightblue" stroke="midnightblue" points="386.449,-85.9434 389.342,-75.7511 380.725,-81.9149 386.449,-85.9434"/>
</g>
<!-- Node15&#45;&gt;Node14 -->
<g id="edge17" class="edge"><title>Node15&#45;&gt;Node14</title>
<path fill="none" stroke="midnightblue" d="M348.913,-112.083C341.341,-104.22 330.122,-92.5688 320.986,-83.0813"/>
<polygon fill="midnightblue" stroke="midnightblue" points="323.385,-80.5266 313.927,-75.7511 318.342,-85.3821 323.385,-80.5266"/>
</g>
</g>
</svg>
        <g id="navigator" transform="translate(0 0)" fill="#404254">
                <rect fill="#f2f5e9" fill-opacity="0.5" stroke="#606060" stroke-width=".5" x="0" y="0" width="60" height="60"/>
                <use id="zoomplus" xlink:href="#zoomPlus" x="17" y="9" onmousedown="handleZoom(evt,'in')"/>
                <use id="zoomminus" xlink:href="#zoomMin" x="42" y="9" onmousedown="handleZoom(evt,'out')"/>
                <use id="reset" xlink:href="#resetDef" x="30" y="36" onmousedown="handleReset()"/>
                <g id="arrowUp" xlink:href="#dirArrow" transform="translate(30 24)" onmousedown="handlePan(0,-1)">
                  <use xlink:href="#rim" fill="#404040">
                        <set attributeName="fill" to="#808080" begin="arrowUp.mouseover" end="arrowUp.mouseout"/>
                  </use>
                  <path fill="none" stroke="white" stroke-width="1.5" d="M0,-3.0v7 M-2.5,-0.5L0,-3.0L2.5,-0.5"/>
                </g>
                <g id="arrowRight" xlink:href="#dirArrow" transform="rotate(90) translate(36 -43)" onmousedown="handlePan(1,0)">
                  <use xlink:href="#rim" fill="#404040">
                        <set attributeName="fill" to="#808080" begin="arrowRight.mouseover" end="arrowRight.mouseout"/>
                  </use>
                  <path fill="none" stroke="white" stroke-width="1.5" d="M0,-3.0v7 M-2.5,-0.5L0,-3.0L2.5,-0.5"/>
                </g>
                <g id="arrowDown" xlink:href="#dirArrow" transform="rotate(180) translate(-30 -48)" onmousedown="handlePan(0,1)">
                  <use xlink:href="#rim" fill="#404040">
                        <set attributeName="fill" to="#808080" begin="arrowDown.mouseover" end="arrowDown.mouseout"/>
                  </use>
                  <path fill="none" stroke="white" stroke-width="1.5" d="M0,-3.0v7 M-2.5,-0.5L0,-3.0L2.5,-0.5"/>
                </g>
                <g id="arrowLeft" xlink:href="#dirArrow" transform="rotate(270) translate(-36 17)" onmousedown="handlePan(-1,0)">
                  <use xlink:href="#rim" fill="#404040">
                        <set attributeName="fill" to="#808080" begin="arrowLeft.mouseover" end="arrowLeft.mouseout"/>
                  </use>
                  <path fill="none" stroke="white" stroke-width="1.5" d="M0,-3.0v7 M-2.5,-0.5L0,-3.0L2.5,-0.5"/>
                </g>
        </g>
        <svg viewBox="0 0 15 15" width="100%" height="30px" preserveAspectRatio="xMaxYMin meet">
         <g id="arrow_out" transform="scale(0.3 0.3)">
          <a xlink:href="ServerSession_8hpp__incl_org.svg" target="_base">
           <rect id="button" ry="5" rx="5" y="6" x="6" height="38" width="38"
                fill="#f2f5e9" fill-opacity="0.5" stroke="#606060" stroke-width="1.0"/>
           <path id="arrow"
             d="M 11.500037,31.436501 C 11.940474,20.09759 22.043105,11.32322 32.158766,21.979434 L 37.068811,17.246167 C 37.068811,17.246167 37.088388,32 37.088388,32 L 22.160133,31.978069 C 22.160133,31.978069 26.997745,27.140456 26.997745,27.140456 C 18.528582,18.264221 13.291696,25.230495 11.500037,31.436501 z"
             style="fill:#404040;"/>
          </a>
         </g>
        </svg>
</svg>
