<?xml version="1.0" encoding="UTF-8" standalone="no"?>
<!DOCTYPE svg PUBLIC "-//W3C//DTD SVG 1.1//EN"
 "http://www.w3.org/Graphics/SVG/1.1/DTD/svg11.dtd">
<!-- Generated by graphviz version 2.38.0 (20140413.2041)
 -->
<!-- Title: src/Exceptions/ServerExceptions.cpp Pages: 1 -->
<svg width="205pt" height="196pt"
 viewBox="0.00 0.00 205.00 196.00" xmlns="http://www.w3.org/2000/svg" xmlns:xlink="http://www.w3.org/1999/xlink">
<g id="graph0" class="graph" transform="scale(1 1) rotate(0) translate(4 192)">
<title>src/Exceptions/ServerExceptions.cpp</title>
<!-- Node1 -->
<g id="node1" class="node"><title>Node1</title>
<polygon fill="#bfbfbf" stroke="black" points="0,-168.5 0,-187.5 192,-187.5 192,-168.5 0,-168.5"/>
<text text-anchor="middle" x="96" y="-175.5" font-family="Helvetica,sans-Serif" font-size="10.00">src/Exceptions/ServerExceptions.cpp</text>
</g>
<!-- Node2 -->
<g id="node2" class="node"><title>Node2</title>
<g id="a_node2"><a xlink:href="ServerExceptions_8hpp.html" target="_top" xlink:title="ServerExceptions.hpp">
<polygon fill="none" stroke="black" points="35.5,-112.5 35.5,-131.5 156.5,-131.5 156.5,-112.5 35.5,-112.5"/>
<text text-anchor="middle" x="96" y="-119.5" font-family="Helvetica,sans-Serif" font-size="10.00">ServerExceptions.hpp</text>
</a>
</g>
</g>
<!-- Node1&#45;&gt;Node2 -->
<g id="edge1" class="edge"><title>Node1&#45;&gt;Node2</title>
<path fill="none" stroke="midnightblue" d="M96,-168.083C96,-161.006 96,-150.861 96,-141.986"/>
<polygon fill="midnightblue" stroke="midnightblue" points="99.5001,-141.751 96,-131.751 92.5001,-141.751 99.5001,-141.751"/>
</g>
<!-- Node3 -->
<g id="node3" class="node"><title>Node3</title>
<polygon fill="none" stroke="#bfbfbf" points="74,-0.5 74,-19.5 118,-19.5 118,-0.5 74,-0.5"/>
<text text-anchor="middle" x="96" y="-7.5" font-family="Helvetica,sans-Serif" font-size="10.00">string</text>
</g>
<!-- Node2&#45;&gt;Node3 -->
<g id="edge2" class="edge"><title>Node2&#45;&gt;Node3</title>
<path fill="none" stroke="midnightblue" d="M89.6332,-112.232C83.7398,-103.532 75.393,-89.5719 72,-76 67.8211,-59.2842 75.8316,-40.9254 83.6997,-27.9951"/>
<polygon fill="midnightblue" stroke="midnightblue" points="86.6285,-29.9114 89.2273,-19.6403 80.7905,-26.049 86.6285,-29.9114"/>
</g>
<!-- Node4 -->
<g id="node4" class="node"><title>Node4</title>
<g id="a_node4"><a xlink:href="RTypeExceptions_8hpp.html" target="_top" xlink:title="RTypeExceptions.hpp">
<polygon fill="none" stroke="black" points="81,-56.5 81,-75.5 197,-75.5 197,-56.5 81,-56.5"/>
<text text-anchor="middle" x="139" y="-63.5" font-family="Helvetica,sans-Serif" font-size="10.00">RTypeExceptions.hpp</text>
</a>
</g>
</g>
<!-- Node2&#45;&gt;Node4 -->
<g id="edge3" class="edge"><title>Node2&#45;&gt;Node4</title>
<path fill="none" stroke="midnightblue" d="M103.101,-112.083C109.237,-104.377 118.27,-93.0333 125.739,-83.6531"/>
<polygon fill="midnightblue" stroke="midnightblue" points="128.54,-85.7542 132.032,-75.7511 123.064,-81.3936 128.54,-85.7542"/>
</g>
<!-- Node4&#45;&gt;Node3 -->
<g id="edge4" class="edge"><title>Node4&#45;&gt;Node3</title>
<path fill="none" stroke="midnightblue" d="M131.899,-56.083C125.763,-48.3768 116.73,-37.0333 109.261,-27.6531"/>
<polygon fill="midnightblue" stroke="midnightblue" points="111.936,-25.3936 102.968,-19.7511 106.46,-29.7542 111.936,-25.3936"/>
</g>
</g>
</svg>
