<?xml version="1.0" encoding="UTF-8" standalone="no"?>
<!DOCTYPE svg PUBLIC "-//W3C//DTD SVG 1.1//EN"
 "http://www.w3.org/Graphics/SVG/1.1/DTD/svg11.dtd">
<!-- Generated by graphviz version 2.38.0 (20140413.2041)
 -->
<!-- Title: src/Network/Session/ServerSession.hpp Pages: 1 -->
<svg width="331pt" height="173pt"
 viewBox="0.00 0.00 331.00 173.00" xmlns="http://www.w3.org/2000/svg" xmlns:xlink="http://www.w3.org/1999/xlink">
<g id="graph0" class="graph" transform="scale(1 1) rotate(0) translate(4 169)">
<title>src/Network/Session/ServerSession.hpp</title>
<!-- Node1 -->
<g id="node1" class="node"><title>Node1</title>
<polygon fill="#bfbfbf" stroke="black" points="82,-134.5 82,-164.5 195,-164.5 195,-134.5 82,-134.5"/>
<text text-anchor="start" x="90" y="-152.5" font-family="Helvetica,sans-Serif" font-size="10.00">src/Network/Session</text>
<text text-anchor="middle" x="138.5" y="-141.5" font-family="Helvetica,sans-Serif" font-size="10.00">/ServerSession.hpp</text>
</g>
<!-- Node2 -->
<g id="node2" class="node"><title>Node2</title>
<g id="a_node2"><a xlink:href="main__server_8cpp.html" target="_top" xlink:title="src/main_server.cpp">
<polygon fill="none" stroke="black" points="0,-6 0,-25 113,-25 113,-6 0,-6"/>
<text text-anchor="middle" x="56.5" y="-13" font-family="Helvetica,sans-Serif" font-size="10.00">src/main_server.cpp</text>
</a>
</g>
</g>
<!-- Node1&#45;&gt;Node2 -->
<g id="edge1" class="edge"><title>Node1&#45;&gt;Node2</title>
<path fill="none" stroke="midnightblue" d="M106.145,-128.461C95.2717,-120.252 84.01,-109.874 76.5,-98 61.6255,-74.4821 57.8134,-40.6898 56.8365,-25.0459"/>
<polygon fill="midnightblue" stroke="midnightblue" points="104.146,-131.334 114.316,-134.305 108.218,-125.641 104.146,-131.334"/>
</g>
<!-- Node3 -->
<g id="node3" class="node"><title>Node3</title>
<g id="a_node3"><a xlink:href="UDPServer_8hpp.html" target="_top" xlink:title="src/Network/Server\l/UDPServer.hpp">
<polygon fill="none" stroke="black" points="85,-67.5 85,-97.5 192,-97.5 192,-67.5 85,-67.5"/>
<text text-anchor="start" x="93" y="-85.5" font-family="Helvetica,sans-Serif" font-size="10.00">src/Network/Server</text>
<text text-anchor="middle" x="138.5" y="-74.5" font-family="Helvetica,sans-Serif" font-size="10.00">/UDPServer.hpp</text>
</a>
</g>
</g>
<!-- Node1&#45;&gt;Node3 -->
<g id="edge2" class="edge"><title>Node1&#45;&gt;Node3</title>
<path fill="none" stroke="midnightblue" d="M138.5,-124.108C138.5,-115.154 138.5,-105.323 138.5,-97.5765"/>
<polygon fill="midnightblue" stroke="midnightblue" points="135,-124.396 138.5,-134.396 142,-124.396 135,-124.396"/>
</g>
<!-- Node5 -->
<g id="node5" class="node"><title>Node5</title>
<g id="a_node5"><a xlink:href="ServerSession_8cpp.html" target="_top" xlink:title="src/Network/Session\l/ServerSession.cpp">
<polygon fill="none" stroke="black" points="210,-67.5 210,-97.5 323,-97.5 323,-67.5 210,-67.5"/>
<text text-anchor="start" x="218" y="-85.5" font-family="Helvetica,sans-Serif" font-size="10.00">src/Network/Session</text>
<text text-anchor="middle" x="266.5" y="-74.5" font-family="Helvetica,sans-Serif" font-size="10.00">/ServerSession.cpp</text>
</a>
</g>
</g>
<!-- Node1&#45;&gt;Node5 -->
<g id="edge5" class="edge"><title>Node1&#45;&gt;Node5</title>
<path fill="none" stroke="midnightblue" d="M175.22,-129.853C195.458,-119.576 220.174,-107.025 238.78,-97.5765"/>
<polygon fill="midnightblue" stroke="midnightblue" points="173.606,-126.747 166.274,-134.396 176.775,-132.989 173.606,-126.747"/>
</g>
<!-- Node3&#45;&gt;Node2 -->
<g id="edge3" class="edge"><title>Node3&#45;&gt;Node2</title>
<path fill="none" stroke="midnightblue" d="M112.649,-61.008C97.4259,-48.9412 78.9612,-34.3046 67.4685,-25.1945"/>
<polygon fill="midnightblue" stroke="midnightblue" points="110.696,-63.9268 120.707,-67.396 115.045,-58.4412 110.696,-63.9268"/>
</g>
<!-- Node4 -->
<g id="node4" class="node"><title>Node4</title>
<g id="a_node4"><a xlink:href="UDPServer_8cpp.html" target="_top" xlink:title="src/Network/Server\l/UDPServer.cpp">
<polygon fill="none" stroke="black" points="131,-0.5 131,-30.5 238,-30.5 238,-0.5 131,-0.5"/>
<text text-anchor="start" x="139" y="-18.5" font-family="Helvetica,sans-Serif" font-size="10.00">src/Network/Server</text>
<text text-anchor="middle" x="184.5" y="-7.5" font-family="Helvetica,sans-Serif" font-size="10.00">/UDPServer.cpp</text>
</a>
</g>
</g>
<!-- Node3&#45;&gt;Node4 -->
<g id="edge4" class="edge"><title>Node3&#45;&gt;Node4</title>
<path fill="none" stroke="midnightblue" d="M154.312,-59.1575C161.02,-49.6788 168.635,-38.9186 174.538,-30.5765"/>
<polygon fill="midnightblue" stroke="midnightblue" points="151.401,-57.2114 148.481,-67.396 157.115,-61.2551 151.401,-57.2114"/>
</g>
</g>
</svg>
