<?xml version="1.0" encoding="UTF-8" standalone="no"?>
<!DOCTYPE svg PUBLIC "-//W3C//DTD SVG 1.1//EN"
 "http://www.w3.org/Graphics/SVG/1.1/DTD/svg11.dtd">
<!-- Generated by graphviz version 2.38.0 (20140413.2041)
 -->
<!-- Title: src/Exceptions/ServerExceptions.hpp Pages: 1 -->
<svg width="496pt" height="162pt"
 viewBox="0.00 0.00 496.00 162.00" xmlns="http://www.w3.org/2000/svg" xmlns:xlink="http://www.w3.org/1999/xlink">
<g id="graph0" class="graph" transform="scale(1 1) rotate(0) translate(4 158)">
<title>src/Exceptions/ServerExceptions.hpp</title>
<!-- Node1 -->
<g id="node1" class="node"><title>Node1</title>
<polygon fill="#bfbfbf" stroke="black" points="167.5,-134.5 167.5,-153.5 360.5,-153.5 360.5,-134.5 167.5,-134.5"/>
<text text-anchor="middle" x="264" y="-141.5" font-family="Helvetica,sans-Serif" font-size="10.00">src/Exceptions/ServerExceptions.hpp</text>
</g>
<!-- Node2 -->
<g id="node2" class="node"><title>Node2</title>
<g id="a_node2"><a xlink:href="ServerExceptions_8cpp.html" target="_top" xlink:title="src/Exceptions/ServerExceptions.cpp">
<polygon fill="none" stroke="black" points="0,-73 0,-92 192,-92 192,-73 0,-73"/>
<text text-anchor="middle" x="96" y="-80" font-family="Helvetica,sans-Serif" font-size="10.00">src/Exceptions/ServerExceptions.cpp</text>
</a>
</g>
</g>
<!-- Node1&#45;&gt;Node2 -->
<g id="edge1" class="edge"><title>Node1&#45;&gt;Node2</title>
<path fill="none" stroke="midnightblue" d="M230.351,-131.083C197.695,-119.517 148.948,-102.252 120.026,-92.0091"/>
<polygon fill="midnightblue" stroke="midnightblue" points="229.335,-134.436 239.93,-134.475 231.672,-127.837 229.335,-134.436"/>
</g>
<!-- Node3 -->
<g id="node3" class="node"><title>Node3</title>
<g id="a_node3"><a xlink:href="UDPServer_8hpp.html" target="_top" xlink:title="src/Network/Server\l/UDPServer.hpp">
<polygon fill="none" stroke="black" points="210.5,-67.5 210.5,-97.5 317.5,-97.5 317.5,-67.5 210.5,-67.5"/>
<text text-anchor="start" x="218.5" y="-85.5" font-family="Helvetica,sans-Serif" font-size="10.00">src/Network/Server</text>
<text text-anchor="middle" x="264" y="-74.5" font-family="Helvetica,sans-Serif" font-size="10.00">/UDPServer.hpp</text>
</a>
</g>
</g>
<!-- Node1&#45;&gt;Node3 -->
<g id="edge2" class="edge"><title>Node1&#45;&gt;Node3</title>
<path fill="none" stroke="midnightblue" d="M264,-124.235C264,-115.586 264,-105.497 264,-97.523"/>
<polygon fill="midnightblue" stroke="midnightblue" points="260.5,-124.475 264,-134.475 267.5,-124.475 260.5,-124.475"/>
</g>
<!-- Node6 -->
<g id="node6" class="node"><title>Node6</title>
<g id="a_node6"><a xlink:href="RoomManager_8cpp.html" target="_top" xlink:title="src/Room/RoomManager.cpp">
<polygon fill="none" stroke="black" points="336,-73 336,-92 488,-92 488,-73 336,-73"/>
<text text-anchor="middle" x="412" y="-80" font-family="Helvetica,sans-Serif" font-size="10.00">src/Room/RoomManager.cpp</text>
</a>
</g>
</g>
<!-- Node1&#45;&gt;Node6 -->
<g id="edge5" class="edge"><title>Node1&#45;&gt;Node6</title>
<path fill="none" stroke="midnightblue" d="M294.766,-130.631C323.519,-119.072 365.685,-102.12 390.835,-92.0091"/>
<polygon fill="midnightblue" stroke="midnightblue" points="293.178,-127.498 285.205,-134.475 295.789,-133.992 293.178,-127.498"/>
</g>
<!-- Node4 -->
<g id="node4" class="node"><title>Node4</title>
<g id="a_node4"><a xlink:href="main__server_8cpp.html" target="_top" xlink:title="src/main_server.cpp">
<polygon fill="none" stroke="black" points="143.5,-6 143.5,-25 256.5,-25 256.5,-6 143.5,-6"/>
<text text-anchor="middle" x="200" y="-13" font-family="Helvetica,sans-Serif" font-size="10.00">src/main_server.cpp</text>
</a>
</g>
</g>
<!-- Node3&#45;&gt;Node4 -->
<g id="edge3" class="edge"><title>Node3&#45;&gt;Node4</title>
<path fill="none" stroke="midnightblue" d="M242.827,-59.9967C231.146,-48.1323 217.282,-34.0516 208.561,-25.1945"/>
<polygon fill="midnightblue" stroke="midnightblue" points="240.603,-62.7259 250.113,-67.396 245.591,-57.8146 240.603,-62.7259"/>
</g>
<!-- Node5 -->
<g id="node5" class="node"><title>Node5</title>
<g id="a_node5"><a xlink:href="UDPServer_8cpp.html" target="_top" xlink:title="src/Network/Server\l/UDPServer.cpp">
<polygon fill="none" stroke="black" points="274.5,-0.5 274.5,-30.5 381.5,-30.5 381.5,-0.5 274.5,-0.5"/>
<text text-anchor="start" x="282.5" y="-18.5" font-family="Helvetica,sans-Serif" font-size="10.00">src/Network/Server</text>
<text text-anchor="middle" x="328" y="-7.5" font-family="Helvetica,sans-Serif" font-size="10.00">/UDPServer.cpp</text>
</a>
</g>
</g>
<!-- Node3&#45;&gt;Node5 -->
<g id="edge4" class="edge"><title>Node3&#45;&gt;Node5</title>
<path fill="none" stroke="midnightblue" d="M285.145,-60.0243C294.681,-50.3398 305.675,-39.1739 314.14,-30.5765"/>
<polygon fill="midnightblue" stroke="midnightblue" points="282.409,-57.8146 277.887,-67.396 287.397,-62.7259 282.409,-57.8146"/>
</g>
</g>
</svg>
