<?xml version="1.0" encoding="UTF-8" standalone="no"?>
<!DOCTYPE svg PUBLIC "-//W3C//DTD SVG 1.1//EN"
 "http://www.w3.org/Graphics/SVG/1.1/DTD/svg11.dtd">
<!-- Generated by graphviz version 2.38.0 (20140413.2041)
 -->
<!-- Title: src/Network/Session/ServerSession.cpp Pages: 1 -->
<!--zoomable 263 -->
<svg id="main" version="1.1" xmlns="http://www.w3.org/2000/svg" xmlns:xlink="http://www.w3.org/1999/xlink" xml:space="preserve" onload="init(evt)">
<style type="text/css"><![CDATA[
.edge:hover path { stroke: red; }
.edge:hover polygon { stroke: red; fill: red; }
]]></style>
<script type="text/javascript"><![CDATA[
var edges = document.getElementsByTagName('g');
if (edges && edges.length) {
  for (var i=0;i<edges.length;i++) {
    if (edges[i].id.substr(0,4)=='edge') {
      edges[i].setAttribute('class','edge');
    }
  }
}
]]></script>
        <defs>
                <circle id="rim" cx="0" cy="0" r="7"/>
                <circle id="rim2" cx="0" cy="0" r="3.5"/>
                <g id="zoomPlus">
                        <use xlink:href="#rim" fill="#404040">
                                <set attributeName="fill" to="#808080" begin="zoomplus.mouseover" end="zoomplus.mouseout"/>
                        </use>
                        <path d="M-4,0h8M0,-4v8" fill="none" stroke="white" stroke-width="1.5" pointer-events="none"/>
                </g>
                <g id="zoomMin">
                        <use xlink:href="#rim" fill="#404040">
                                <set attributeName="fill" to="#808080" begin="zoomminus.mouseover" end="zoomminus.mouseout"/>
                        </use>
                        <path d="M-4,0h8" fill="none" stroke="white" stroke-width="1.5" pointer-events="none"/>
                </g>
                <g id="dirArrow">
                        <path fill="none" stroke="white" stroke-width="1.5" d="M0,-3.0v7 M-2.5,-0.5L0,-3.0L2.5,-0.5"/>
                </g>
               <g id="resetDef">
                       <use xlink:href="#rim2" fill="#404040">
                               <set attributeName="fill" to="#808080" begin="reset.mouseover" end="reset.mouseout"/>
                       </use>
               </g>
        </defs>

<script type="text/javascript">
var viewWidth = 591;
var viewHeight = 263;
var sectionId = 'dynsection-0';
</script>
<script xlink:href="svgpan.js"/>
<svg id="graph" class="graph">
<g id="viewport">
<title>src/Network/Session/ServerSession.cpp</title>
<!-- Node1 -->
<g id="node1" class="node"><title>Node1</title>
<polygon fill="#bfbfbf" stroke="black" points="266.5,-224.5 266.5,-254.5 379.5,-254.5 379.5,-224.5 266.5,-224.5"/>
<text text-anchor="start" x="274.5" y="-242.5" font-family="Helvetica,sans-Serif" font-size="10.00">src/Network/Session</text>
<text text-anchor="middle" x="323" y="-231.5" font-family="Helvetica,sans-Serif" font-size="10.00">/ServerSession.cpp</text>
</g>
<!-- Node2 -->
<g id="node2" class="node"><title>Node2</title>
<polygon fill="none" stroke="#bfbfbf" points="151.5,-168.5 151.5,-187.5 210.5,-187.5 210.5,-168.5 151.5,-168.5"/>
<text text-anchor="middle" x="181" y="-175.5" font-family="Helvetica,sans-Serif" font-size="10.00">iostream</text>
</g>
<!-- Node1&#45;&gt;Node2 -->
<g id="edge1" class="edge"><title>Node1&#45;&gt;Node2</title>
<path fill="none" stroke="midnightblue" d="M289.348,-224.399C265.523,-214.416 233.854,-201.147 210.912,-191.534"/>
<polygon fill="midnightblue" stroke="midnightblue" points="212.238,-188.294 201.662,-187.658 209.533,-194.751 212.238,-188.294"/>
</g>
<!-- Node3 -->
<g id="node3" class="node"><title>Node3</title>
<polygon fill="none" stroke="#bfbfbf" points="323.5,-56.5 323.5,-75.5 380.5,-75.5 380.5,-56.5 323.5,-56.5"/>
<text text-anchor="middle" x="352" y="-63.5" font-family="Helvetica,sans-Serif" font-size="10.00">memory</text>
</g>
<!-- Node1&#45;&gt;Node3 -->
<g id="edge2" class="edge"><title>Node1&#45;&gt;Node3</title>
<path fill="none" stroke="midnightblue" d="M330.368,-224.335C335.143,-214.436 341.012,-200.758 344,-188 352.292,-152.593 353.037,-109.878 352.643,-85.8379"/>
<polygon fill="midnightblue" stroke="midnightblue" points="356.138,-85.5589 352.387,-75.6502 349.14,-85.7351 356.138,-85.5589"/>
</g>
<!-- Node4 -->
<g id="node4" class="node"><title>Node4</title>
<g id="a_node4"><a xlink:href="PacketManager_8hpp.html" target="_top" xlink:title="PacketManager.hpp">
<polygon fill="none" stroke="black" points="392,-112.5 392,-131.5 502,-131.5 502,-112.5 392,-112.5"/>
<text text-anchor="middle" x="447" y="-119.5" font-family="Helvetica,sans-Serif" font-size="10.00">PacketManager.hpp</text>
</a>
</g>
</g>
<!-- Node1&#45;&gt;Node4 -->
<g id="edge3" class="edge"><title>Node1&#45;&gt;Node4</title>
<path fill="none" stroke="midnightblue" d="M338.458,-224.403C349.508,-214.304 364.711,-200.36 378,-188 395.932,-171.323 416.329,-152.073 430.268,-138.875"/>
<polygon fill="midnightblue" stroke="midnightblue" points="432.81,-141.288 437.661,-131.869 427.995,-136.207 432.81,-141.288"/>
</g>
<!-- Node8 -->
<g id="node8" class="node"><title>Node8</title>
<g id="a_node8"><a xlink:href="ServerSession_8hpp.html" target="_top" xlink:title="ServerSession.hpp">
<polygon fill="none" stroke="black" points="228.5,-168.5 228.5,-187.5 335.5,-187.5 335.5,-168.5 228.5,-168.5"/>
<text text-anchor="middle" x="282" y="-175.5" font-family="Helvetica,sans-Serif" font-size="10.00">ServerSession.hpp</text>
</a>
</g>
</g>
<!-- Node1&#45;&gt;Node8 -->
<g id="edge7" class="edge"><title>Node1&#45;&gt;Node8</title>
<path fill="none" stroke="midnightblue" d="M313.284,-224.399C307.449,-215.932 299.984,-205.099 293.81,-196.139"/>
<polygon fill="midnightblue" stroke="midnightblue" points="296.522,-193.906 287.966,-187.658 290.758,-197.878 296.522,-193.906"/>
</g>
<!-- Node5 -->
<g id="node5" class="node"><title>Node5</title>
<polygon fill="none" stroke="#bfbfbf" points="329,-0.5 329,-19.5 373,-19.5 373,-0.5 329,-0.5"/>
<text text-anchor="middle" x="351" y="-7.5" font-family="Helvetica,sans-Serif" font-size="10.00">string</text>
</g>
<!-- Node4&#45;&gt;Node5 -->
<g id="edge4" class="edge"><title>Node4&#45;&gt;Node5</title>
<path fill="none" stroke="midnightblue" d="M439.467,-112.368C423.484,-94.0547 385.952,-51.0489 365.28,-27.3624"/>
<polygon fill="midnightblue" stroke="midnightblue" points="367.71,-24.8243 358.498,-19.5914 362.436,-29.4271 367.71,-24.8243"/>
</g>
<!-- Node6 -->
<g id="node6" class="node"><title>Node6</title>
<polygon fill="none" stroke="#bfbfbf" points="437,-56.5 437,-75.5 467,-75.5 467,-56.5 437,-56.5"/>
<text text-anchor="middle" x="452" y="-63.5" font-family="Helvetica,sans-Serif" font-size="10.00">list</text>
</g>
<!-- Node4&#45;&gt;Node6 -->
<g id="edge5" class="edge"><title>Node4&#45;&gt;Node6</title>
<path fill="none" stroke="midnightblue" d="M447.826,-112.083C448.481,-105.006 449.42,-94.8611 450.242,-85.9865"/>
<polygon fill="midnightblue" stroke="midnightblue" points="453.753,-86.0312 451.19,-75.7511 446.783,-85.3858 453.753,-86.0312"/>
</g>
<!-- Node7 -->
<g id="node7" class="node"><title>Node7</title>
<g id="a_node7"><a xlink:href="Input_8hpp.html" target="_top" xlink:title="Render/Input.hpp">
<polygon fill="none" stroke="black" points="485,-56.5 485,-75.5 583,-75.5 583,-56.5 485,-56.5"/>
<text text-anchor="middle" x="534" y="-63.5" font-family="Helvetica,sans-Serif" font-size="10.00">Render/Input.hpp</text>
</a>
</g>
</g>
<!-- Node4&#45;&gt;Node7 -->
<g id="edge6" class="edge"><title>Node4&#45;&gt;Node7</title>
<path fill="none" stroke="midnightblue" d="M460.978,-112.324C474.55,-103.9 495.38,-90.9709 511.325,-81.0741"/>
<polygon fill="midnightblue" stroke="midnightblue" points="513.406,-83.9019 520.057,-75.6545 509.714,-77.9544 513.406,-83.9019"/>
</g>
<!-- Node8&#45;&gt;Node4 -->
<g id="edge8" class="edge"><title>Node8&#45;&gt;Node4</title>
<path fill="none" stroke="midnightblue" d="M308.145,-168.444C336.023,-159.32 380.348,-144.813 411.4,-134.651"/>
<polygon fill="midnightblue" stroke="midnightblue" points="412.562,-137.953 420.978,-131.516 410.385,-131.3 412.562,-137.953"/>
</g>
<!-- Node9 -->
<g id="node9" class="node"><title>Node9</title>
<g id="a_node9"><a xlink:href="RoomManager_8hpp.html" target="_top" xlink:title="Room/RoomManager.hpp">
<polygon fill="none" stroke="black" points="100,-112.5 100,-131.5 236,-131.5 236,-112.5 100,-112.5"/>
<text text-anchor="middle" x="168" y="-119.5" font-family="Helvetica,sans-Serif" font-size="10.00">Room/RoomManager.hpp</text>
</a>
</g>
</g>
<!-- Node8&#45;&gt;Node9 -->
<g id="edge9" class="edge"><title>Node8&#45;&gt;Node9</title>
<path fill="none" stroke="midnightblue" d="M263.936,-168.444C245.425,-159.675 216.419,-145.935 195.145,-135.858"/>
<polygon fill="midnightblue" stroke="midnightblue" points="196.515,-132.634 185.979,-131.516 193.518,-138.96 196.515,-132.634"/>
</g>
<!-- Node17 -->
<g id="node17" class="node"><title>Node17</title>
<g id="a_node17"><a xlink:href="ISession_8hpp.html" target="_top" xlink:title="ISession.hpp">
<polygon fill="none" stroke="black" points="254.5,-112.5 254.5,-131.5 331.5,-131.5 331.5,-112.5 254.5,-112.5"/>
<text text-anchor="middle" x="293" y="-119.5" font-family="Helvetica,sans-Serif" font-size="10.00">ISession.hpp</text>
</a>
</g>
</g>
<!-- Node8&#45;&gt;Node17 -->
<g id="edge19" class="edge"><title>Node8&#45;&gt;Node17</title>
<path fill="none" stroke="midnightblue" d="M283.816,-168.083C285.274,-160.927 287.371,-150.635 289.193,-141.691"/>
<polygon fill="midnightblue" stroke="midnightblue" points="292.651,-142.248 291.217,-131.751 285.792,-140.851 292.651,-142.248"/>
</g>
<!-- Node9&#45;&gt;Node3 -->
<g id="edge12" class="edge"><title>Node9&#45;&gt;Node3</title>
<path fill="none" stroke="midnightblue" d="M197.155,-112.444C228.606,-103.214 278.825,-88.4753 313.502,-78.2983"/>
<polygon fill="midnightblue" stroke="midnightblue" points="314.674,-81.602 323.284,-75.4275 312.703,-74.8853 314.674,-81.602"/>
</g>
<!-- Node10 -->
<g id="node10" class="node"><title>Node10</title>
<polygon fill="none" stroke="#bfbfbf" points="0,-56.5 0,-75.5 52,-75.5 52,-56.5 0,-56.5"/>
<text text-anchor="middle" x="26" y="-63.5" font-family="Helvetica,sans-Serif" font-size="10.00">cstddef</text>
</g>
<!-- Node9&#45;&gt;Node10 -->
<g id="edge10" class="edge"><title>Node9&#45;&gt;Node10</title>
<path fill="none" stroke="midnightblue" d="M145.5,-112.444C121.923,-103.478 84.6776,-89.314 58.036,-79.1827"/>
<polygon fill="midnightblue" stroke="midnightblue" points="58.9861,-75.7995 48.3951,-75.5164 56.4979,-82.3424 58.9861,-75.7995"/>
</g>
<!-- Node11 -->
<g id="node11" class="node"><title>Node11</title>
<polygon fill="none" stroke="#bfbfbf" points="70.5,-56.5 70.5,-75.5 117.5,-75.5 117.5,-56.5 70.5,-56.5"/>
<text text-anchor="middle" x="94" y="-63.5" font-family="Helvetica,sans-Serif" font-size="10.00">vector</text>
</g>
<!-- Node9&#45;&gt;Node11 -->
<g id="edge11" class="edge"><title>Node9&#45;&gt;Node11</title>
<path fill="none" stroke="midnightblue" d="M156.111,-112.324C144.85,-104.107 127.713,-91.6017 114.291,-81.8069"/>
<polygon fill="midnightblue" stroke="midnightblue" points="116.247,-78.9014 106.106,-75.8339 112.12,-84.5559 116.247,-78.9014"/>
</g>
<!-- Node12 -->
<g id="node12" class="node"><title>Node12</title>
<g id="a_node12"><a xlink:href="Room_8hpp.html" target="_top" xlink:title="Room.hpp">
<polygon fill="none" stroke="black" points="135.5,-56.5 135.5,-75.5 200.5,-75.5 200.5,-56.5 135.5,-56.5"/>
<text text-anchor="middle" x="168" y="-63.5" font-family="Helvetica,sans-Serif" font-size="10.00">Room.hpp</text>
</a>
</g>
</g>
<!-- Node9&#45;&gt;Node12 -->
<g id="edge13" class="edge"><title>Node9&#45;&gt;Node12</title>
<path fill="none" stroke="midnightblue" d="M168,-112.083C168,-105.006 168,-94.8611 168,-85.9865"/>
<polygon fill="midnightblue" stroke="midnightblue" points="171.5,-85.751 168,-75.7511 164.5,-85.7511 171.5,-85.751"/>
</g>
<!-- Node16 -->
<g id="node16" class="node"><title>Node16</title>
<polygon fill="none" stroke="#bfbfbf" points="218.5,-56.5 218.5,-75.5 305.5,-75.5 305.5,-56.5 218.5,-56.5"/>
<text text-anchor="middle" x="262" y="-63.5" font-family="Helvetica,sans-Serif" font-size="10.00">boost/asio.hpp</text>
</g>
<!-- Node9&#45;&gt;Node16 -->
<g id="edge18" class="edge"><title>Node9&#45;&gt;Node16</title>
<path fill="none" stroke="midnightblue" d="M183.103,-112.324C197.903,-103.822 220.694,-90.7288 237.982,-80.7975"/>
<polygon fill="midnightblue" stroke="midnightblue" points="240.007,-83.6707 246.935,-75.6545 236.52,-77.6009 240.007,-83.6707"/>
</g>
<!-- Node12&#45;&gt;Node5 -->
<g id="edge15" class="edge"><title>Node12&#45;&gt;Node5</title>
<path fill="none" stroke="midnightblue" d="M196.997,-56.4435C230.151,-46.6602 284.278,-30.6884 318.74,-20.5194"/>
<polygon fill="midnightblue" stroke="midnightblue" points="320.158,-23.7502 328.759,-17.5631 318.177,-17.0364 320.158,-23.7502"/>
</g>
<!-- Node13 -->
<g id="node13" class="node"><title>Node13</title>
<polygon fill="none" stroke="#bfbfbf" points="149,-0.5 149,-19.5 187,-19.5 187,-0.5 149,-0.5"/>
<text text-anchor="middle" x="168" y="-7.5" font-family="Helvetica,sans-Serif" font-size="10.00">map</text>
</g>
<!-- Node12&#45;&gt;Node13 -->
<g id="edge14" class="edge"><title>Node12&#45;&gt;Node13</title>
<path fill="none" stroke="midnightblue" d="M168,-56.083C168,-49.0059 168,-38.8611 168,-29.9865"/>
<polygon fill="midnightblue" stroke="midnightblue" points="171.5,-29.751 168,-19.7511 164.5,-29.7511 171.5,-29.751"/>
</g>
<!-- Node14 -->
<g id="node14" class="node"><title>Node14</title>
<polygon fill="none" stroke="#bfbfbf" points="205.5,-0.5 205.5,-19.5 252.5,-19.5 252.5,-0.5 205.5,-0.5"/>
<text text-anchor="middle" x="229" y="-7.5" font-family="Helvetica,sans-Serif" font-size="10.00">mutex</text>
</g>
<!-- Node12&#45;&gt;Node14 -->
<g id="edge16" class="edge"><title>Node12&#45;&gt;Node14</title>
<path fill="none" stroke="midnightblue" d="M177.801,-56.324C186.818,-48.3414 200.406,-36.3128 211.318,-26.6529"/>
<polygon fill="midnightblue" stroke="midnightblue" points="213.853,-29.083 219.021,-19.8339 209.213,-23.8416 213.853,-29.083"/>
</g>
<!-- Node15 -->
<g id="node15" class="node"><title>Node15</title>
<polygon fill="none" stroke="#bfbfbf" points="27.5,-0.5 27.5,-19.5 130.5,-19.5 130.5,-0.5 27.5,-0.5"/>
<text text-anchor="middle" x="79" y="-7.5" font-family="Helvetica,sans-Serif" font-size="10.00">condition_variable</text>
</g>
<!-- Node12&#45;&gt;Node15 -->
<g id="edge17" class="edge"><title>Node12&#45;&gt;Node15</title>
<path fill="none" stroke="midnightblue" d="M153.701,-56.324C139.817,-47.9002 118.508,-34.9709 102.196,-25.0741"/>
<polygon fill="midnightblue" stroke="midnightblue" points="103.629,-21.8495 93.2639,-19.6545 99.9978,-27.8341 103.629,-21.8495"/>
</g>
<!-- Node17&#45;&gt;Node3 -->
<g id="edge20" class="edge"><title>Node17&#45;&gt;Node3</title>
<path fill="none" stroke="midnightblue" d="M302.479,-112.324C311.201,-104.341 324.343,-92.3128 334.898,-82.6529"/>
<polygon fill="midnightblue" stroke="midnightblue" points="337.334,-85.1674 342.348,-75.8339 332.608,-80.0036 337.334,-85.1674"/>
</g>
<!-- Node17&#45;&gt;Node16 -->
<g id="edge21" class="edge"><title>Node17&#45;&gt;Node16</title>
<path fill="none" stroke="midnightblue" d="M287.881,-112.083C283.592,-104.613 277.342,-93.7244 272.058,-84.5199"/>
<polygon fill="midnightblue" stroke="midnightblue" points="275.038,-82.6811 267.024,-75.7511 268.967,-86.1662 275.038,-82.6811"/>
</g>
</g>
</svg>
        <g id="navigator" transform="translate(0 0)" fill="#404254">
                <rect fill="#f2f5e9" fill-opacity="0.5" stroke="#606060" stroke-width=".5" x="0" y="0" width="60" height="60"/>
                <use id="zoomplus" xlink:href="#zoomPlus" x="17" y="9" onmousedown="handleZoom(evt,'in')"/>
                <use id="zoomminus" xlink:href="#zoomMin" x="42" y="9" onmousedown="handleZoom(evt,'out')"/>
                <use id="reset" xlink:href="#resetDef" x="30" y="36" onmousedown="handleReset()"/>
                <g id="arrowUp" xlink:href="#dirArrow" transform="translate(30 24)" onmousedown="handlePan(0,-1)">
                  <use xlink:href="#rim" fill="#404040">
                        <set attributeName="fill" to="#808080" begin="arrowUp.mouseover" end="arrowUp.mouseout"/>
                  </use>
                  <path fill="none" stroke="white" stroke-width="1.5" d="M0,-3.0v7 M-2.5,-0.5L0,-3.0L2.5,-0.5"/>
                </g>
                <g id="arrowRight" xlink:href="#dirArrow" transform="rotate(90) translate(36 -43)" onmousedown="handlePan(1,0)">
                  <use xlink:href="#rim" fill="#404040">
                        <set attributeName="fill" to="#808080" begin="arrowRight.mouseover" end="arrowRight.mouseout"/>
                  </use>
                  <path fill="none" stroke="white" stroke-width="1.5" d="M0,-3.0v7 M-2.5,-0.5L0,-3.0L2.5,-0.5"/>
                </g>
                <g id="arrowDown" xlink:href="#dirArrow" transform="rotate(180) translate(-30 -48)" onmousedown="handlePan(0,1)">
                  <use xlink:href="#rim" fill="#404040">
                        <set attributeName="fill" to="#808080" begin="arrowDown.mouseover" end="arrowDown.mouseout"/>
                  </use>
                  <path fill="none" stroke="white" stroke-width="1.5" d="M0,-3.0v7 M-2.5,-0.5L0,-3.0L2.5,-0.5"/>
                </g>
                <g id="arrowLeft" xlink:href="#dirArrow" transform="rotate(270) translate(-36 17)" onmousedown="handlePan(-1,0)">
                  <use xlink:href="#rim" fill="#404040">
                        <set attributeName="fill" to="#808080" begin="arrowLeft.mouseover" end="arrowLeft.mouseout"/>
                  </use>
                  <path fill="none" stroke="white" stroke-width="1.5" d="M0,-3.0v7 M-2.5,-0.5L0,-3.0L2.5,-0.5"/>
                </g>
        </g>
        <svg viewBox="0 0 15 15" width="100%" height="30px" preserveAspectRatio="xMaxYMin meet">
         <g id="arrow_out" transform="scale(0.3 0.3)">
          <a xlink:href="ServerSession_8cpp__incl_org.svg" target="_base">
           <rect id="button" ry="5" rx="5" y="6" x="6" height="38" width="38"
                fill="#f2f5e9" fill-opacity="0.5" stroke="#606060" stroke-width="1.0"/>
           <path id="arrow"
             d="M 11.500037,31.436501 C 11.940474,20.09759 22.043105,11.32322 32.158766,21.979434 L 37.068811,17.246167 C 37.068811,17.246167 37.088388,32 37.088388,32 L 22.160133,31.978069 C 22.160133,31.978069 26.997745,27.140456 26.997745,27.140456 C 18.528582,18.264221 13.291696,25.230495 11.500037,31.436501 z"
             style="fill:#404040;"/>
          </a>
         </g>
        </svg>
</svg>
