<?xml version="1.0" encoding="UTF-8" standalone="no"?>
<!DOCTYPE svg PUBLIC "-//W3C//DTD SVG 1.1//EN"
 "http://www.w3.org/Graphics/SVG/1.1/DTD/svg11.dtd">
<!-- Generated by graphviz version 2.38.0 (20140413.2041)
 -->
<!-- Title: src/Render/SFMLRenderManager.hpp Pages: 1 -->
<svg width="436pt" height="95pt"
 viewBox="0.00 0.00 435.50 95.00" xmlns="http://www.w3.org/2000/svg" xmlns:xlink="http://www.w3.org/1999/xlink">
<g id="graph0" class="graph" transform="scale(1 1) rotate(0) translate(4 91)">
<title>src/Render/SFMLRenderManager.hpp</title>
<!-- Node1 -->
<g id="node1" class="node"><title>Node1</title>
<polygon fill="#bfbfbf" stroke="black" points="137.5,-67.5 137.5,-86.5 328.5,-86.5 328.5,-67.5 137.5,-67.5"/>
<text text-anchor="middle" x="233" y="-74.5" font-family="Helvetica,sans-Serif" font-size="10.00">src/Render/SFMLRenderManager.hpp</text>
</g>
<!-- Node2 -->
<g id="node2" class="node"><title>Node2</title>
<g id="a_node2"><a xlink:href="ManagerWrapper_8cpp.html" target="_top" xlink:title="src/ManagerWrapper\l/ManagerWrapper.cpp">
<polygon fill="none" stroke="black" points="0,-0.5 0,-30.5 120,-30.5 120,-0.5 0,-0.5"/>
<text text-anchor="start" x="8" y="-18.5" font-family="Helvetica,sans-Serif" font-size="10.00">src/ManagerWrapper</text>
<text text-anchor="middle" x="60" y="-7.5" font-family="Helvetica,sans-Serif" font-size="10.00">/ManagerWrapper.cpp</text>
</a>
</g>
</g>
<!-- Node1&#45;&gt;Node2 -->
<g id="edge1" class="edge"><title>Node1&#45;&gt;Node2</title>
<path fill="none" stroke="midnightblue" d="M198.409,-64.1032C170.259,-54.4216 130.47,-40.7367 100.773,-30.523"/>
<polygon fill="midnightblue" stroke="midnightblue" points="197.619,-67.5324 208.213,-67.4751 199.895,-60.913 197.619,-67.5324"/>
</g>
<!-- Node3 -->
<g id="node3" class="node"><title>Node3</title>
<g id="a_node3"><a xlink:href="SFMLRenderManager_8cpp.html" target="_top" xlink:title="src/Render/SFMLRenderManager.cpp">
<polygon fill="none" stroke="black" points="138,-6 138,-25 328,-25 328,-6 138,-6"/>
<text text-anchor="middle" x="233" y="-13" font-family="Helvetica,sans-Serif" font-size="10.00">src/Render/SFMLRenderManager.cpp</text>
</a>
</g>
</g>
<!-- Node1&#45;&gt;Node3 -->
<g id="edge2" class="edge"><title>Node1&#45;&gt;Node3</title>
<path fill="none" stroke="midnightblue" d="M233,-57.3165C233,-46.4962 233,-33.398 233,-25.0091"/>
<polygon fill="midnightblue" stroke="midnightblue" points="229.5,-57.4751 233,-67.4751 236.5,-57.4751 229.5,-57.4751"/>
</g>
<!-- Node4 -->
<g id="node4" class="node"><title>Node4</title>
<g id="a_node4"><a xlink:href="Rtype_8cpp.html" target="_top" xlink:title="src/Rtype.cpp">
<polygon fill="none" stroke="black" points="346.5,-6 346.5,-25 427.5,-25 427.5,-6 346.5,-6"/>
<text text-anchor="middle" x="387" y="-13" font-family="Helvetica,sans-Serif" font-size="10.00">src/Rtype.cpp</text>
</a>
</g>
</g>
<!-- Node1&#45;&gt;Node4 -->
<g id="edge3" class="edge"><title>Node1&#45;&gt;Node4</title>
<path fill="none" stroke="midnightblue" d="M264.622,-63.7824C294.549,-52.2199 338.693,-35.1641 364.976,-25.0091"/>
<polygon fill="midnightblue" stroke="midnightblue" points="263.131,-60.6062 255.064,-67.4751 265.654,-67.1358 263.131,-60.6062"/>
</g>
</g>
</svg>
