<?xml version="1.0" encoding="UTF-8" standalone="no"?>
<!DOCTYPE svg PUBLIC "-//W3C//DTD SVG 1.1//EN"
 "http://www.w3.org/Graphics/SVG/1.1/DTD/svg11.dtd">
<!-- Generated by graphviz version 2.38.0 (20140413.2041)
 -->
<!-- Title: src/Render/SFMLRenderManager.cpp Pages: 1 -->
<svg width="1892pt" height="476pt"
 viewBox="0.00 0.00 1892.00 476.00" xmlns="http://www.w3.org/2000/svg" xmlns:xlink="http://www.w3.org/1999/xlink">
<g id="graph0" class="graph" transform="scale(1 1) rotate(0) translate(4 472)">
<title>src/Render/SFMLRenderManager.cpp</title>
<!-- Node1 -->
<g id="node1" class="node"><title>Node1</title>
<polygon fill="#bfbfbf" stroke="black" points="432,-448.5 432,-467.5 622,-467.5 622,-448.5 432,-448.5"/>
<text text-anchor="middle" x="527" y="-455.5" font-family="Helvetica,sans-Serif" font-size="10.00">src/Render/SFMLRenderManager.cpp</text>
</g>
<!-- Node2 -->
<g id="node2" class="node"><title>Node2</title>
<polygon fill="none" stroke="#bfbfbf" points="21.5,-336.5 21.5,-355.5 80.5,-355.5 80.5,-336.5 21.5,-336.5"/>
<text text-anchor="middle" x="51" y="-343.5" font-family="Helvetica,sans-Serif" font-size="10.00">iostream</text>
</g>
<!-- Node1&#45;&gt;Node2 -->
<g id="edge1" class="edge"><title>Node1&#45;&gt;Node2</title>
<path fill="none" stroke="midnightblue" d="M490.045,-448.46C402.128,-428.143 181.12,-377.07 90.5989,-356.151"/>
<polygon fill="midnightblue" stroke="midnightblue" points="91.2608,-352.712 80.7295,-353.87 89.6847,-359.532 91.2608,-352.712"/>
</g>
<!-- Node3 -->
<g id="node3" class="node"><title>Node3</title>
<g id="a_node3"><a xlink:href="SFMLRenderManager_8hpp.html" target="_top" xlink:title="SFMLRenderManager.hpp">
<polygon fill="none" stroke="black" points="458.5,-392.5 458.5,-411.5 595.5,-411.5 595.5,-392.5 458.5,-392.5"/>
<text text-anchor="middle" x="527" y="-399.5" font-family="Helvetica,sans-Serif" font-size="10.00">SFMLRenderManager.hpp</text>
</a>
</g>
</g>
<!-- Node1&#45;&gt;Node3 -->
<g id="edge2" class="edge"><title>Node1&#45;&gt;Node3</title>
<path fill="none" stroke="midnightblue" d="M527,-448.083C527,-441.006 527,-430.861 527,-421.986"/>
<polygon fill="midnightblue" stroke="midnightblue" points="530.5,-421.751 527,-411.751 523.5,-421.751 530.5,-421.751"/>
</g>
<!-- Node39 -->
<g id="node39" class="node"><title>Node39</title>
<g id="a_node39"><a xlink:href="RTypeExceptions_8hpp.html" target="_top" xlink:title="RTypeExceptions.hpp">
<polygon fill="none" stroke="black" points="743,-392.5 743,-411.5 859,-411.5 859,-392.5 743,-392.5"/>
<text text-anchor="middle" x="801" y="-399.5" font-family="Helvetica,sans-Serif" font-size="10.00">RTypeExceptions.hpp</text>
</a>
</g>
</g>
<!-- Node1&#45;&gt;Node39 -->
<g id="edge76" class="edge"><title>Node1&#45;&gt;Node39</title>
<path fill="none" stroke="midnightblue" d="M570.416,-448.444C618.515,-438.964 696.095,-423.675 747.806,-413.483"/>
<polygon fill="midnightblue" stroke="midnightblue" points="748.653,-416.884 757.787,-411.516 747.299,-410.016 748.653,-416.884"/>
</g>
<!-- Node3&#45;&gt;Node2 -->
<g id="edge58" class="edge"><title>Node3&#45;&gt;Node2</title>
<path fill="none" stroke="midnightblue" d="M458.273,-395.931C372.819,-389.149 222.628,-375.652 95,-356 93.5551,-355.778 92.0858,-355.539 90.6034,-355.289"/>
<polygon fill="midnightblue" stroke="midnightblue" points="91.2159,-351.843 80.7509,-353.497 89.963,-358.73 91.2159,-351.843"/>
</g>
<!-- Node4 -->
<g id="node4" class="node"><title>Node4</title>
<g id="a_node4"><a xlink:href="IRenderManager_8hpp.html" target="_top" xlink:title="IRenderManager.hpp">
<polygon fill="none" stroke="black" points="1186,-280.5 1186,-299.5 1300,-299.5 1300,-280.5 1186,-280.5"/>
<text text-anchor="middle" x="1243" y="-287.5" font-family="Helvetica,sans-Serif" font-size="10.00">IRenderManager.hpp</text>
</a>
</g>
</g>
<!-- Node3&#45;&gt;Node4 -->
<g id="edge3" class="edge"><title>Node3&#45;&gt;Node4</title>
<path fill="none" stroke="midnightblue" d="M569.582,-392.491C636.531,-379.289 770.583,-353.565 885,-336 985.914,-320.508 1103.44,-306.502 1175.53,-298.37"/>
<polygon fill="midnightblue" stroke="midnightblue" points="1176.28,-301.807 1185.82,-297.213 1175.5,-294.851 1176.28,-301.807"/>
</g>
<!-- Node17 -->
<g id="node17" class="node"><title>Node17</title>
<g id="a_node17"><a xlink:href="Input_8hpp.html" target="_top" xlink:title="Render/Input.hpp">
<polygon fill="none" stroke="black" points="1786,-56.5 1786,-75.5 1884,-75.5 1884,-56.5 1786,-56.5"/>
<text text-anchor="middle" x="1835" y="-63.5" font-family="Helvetica,sans-Serif" font-size="10.00">Render/Input.hpp</text>
</a>
</g>
</g>
<!-- Node3&#45;&gt;Node17 -->
<g id="edge74" class="edge"><title>Node3&#45;&gt;Node17</title>
<path fill="none" stroke="midnightblue" d="M595.828,-396.419C848.486,-379.09 1715.42,-314.927 1816,-244 1865.6,-209.023 1861.32,-171.811 1851,-112 1849.43,-102.91 1846.21,-93.2219 1843.06,-85.1726"/>
<polygon fill="midnightblue" stroke="midnightblue" points="1846.19,-83.6018 1839.11,-75.7229 1839.74,-86.2993 1846.19,-83.6018"/>
</g>
<!-- Node26 -->
<g id="node26" class="node"><title>Node26</title>
<g id="a_node26"><a xlink:href="Color_8hpp.html" target="_top" xlink:title="Color.hpp">
<polygon fill="none" stroke="black" points="693,-168.5 693,-187.5 755,-187.5 755,-168.5 693,-168.5"/>
<text text-anchor="middle" x="724" y="-175.5" font-family="Helvetica,sans-Serif" font-size="10.00">Color.hpp</text>
</a>
</g>
</g>
<!-- Node3&#45;&gt;Node26 -->
<g id="edge75" class="edge"><title>Node3&#45;&gt;Node26</title>
<path fill="none" stroke="midnightblue" d="M535.399,-392.347C558.026,-368.943 621.924,-302.234 672,-244 685.78,-227.975 700.787,-209.045 711.121,-195.76"/>
<polygon fill="midnightblue" stroke="midnightblue" points="714.106,-197.621 717.456,-187.57 708.57,-193.338 714.106,-197.621"/>
</g>
<!-- Node29 -->
<g id="node29" class="node"><title>Node29</title>
<polygon fill="none" stroke="#bfbfbf" points="383.5,-168.5 383.5,-187.5 476.5,-187.5 476.5,-168.5 383.5,-168.5"/>
<text text-anchor="middle" x="430" y="-175.5" font-family="Helvetica,sans-Serif" font-size="10.00">SFML/Audio.hpp</text>
</g>
<!-- Node3&#45;&gt;Node29 -->
<g id="edge57" class="edge"><title>Node3&#45;&gt;Node29</title>
<path fill="none" stroke="midnightblue" d="M526.59,-392.269C525.434,-372.044 521.315,-320.615 508,-280 499.269,-253.366 496.026,-246.264 479,-224 470.534,-212.93 459.164,-202.299 449.507,-194.152"/>
<polygon fill="midnightblue" stroke="midnightblue" points="451.54,-191.293 441.579,-187.683 447.115,-196.717 451.54,-191.293"/>
</g>
<!-- Node31 -->
<g id="node31" class="node"><title>Node31</title>
<polygon fill="none" stroke="#bfbfbf" points="0,-168.5 0,-187.5 108,-187.5 108,-168.5 0,-168.5"/>
<text text-anchor="middle" x="54" y="-175.5" font-family="Helvetica,sans-Serif" font-size="10.00">SFML/Graphics.hpp</text>
</g>
<!-- Node3&#45;&gt;Node31 -->
<g id="edge56" class="edge"><title>Node3&#45;&gt;Node31</title>
<path fill="none" stroke="midnightblue" d="M492.538,-392.443C420.611,-373.548 250.99,-323.527 128,-244 105.95,-229.742 83.7262,-209.201 69.4717,-195.045"/>
<polygon fill="midnightblue" stroke="midnightblue" points="71.9441,-192.567 62.424,-187.918 66.9667,-197.489 71.9441,-192.567"/>
</g>
<!-- Node32 -->
<g id="node32" class="node"><title>Node32</title>
<g id="a_node32"><a xlink:href="RtypeResources_8hpp.html" target="_top" xlink:title="RtypeResources.hpp">
<polygon fill="none" stroke="black" points="383.5,-336.5 383.5,-355.5 496.5,-355.5 496.5,-336.5 383.5,-336.5"/>
<text text-anchor="middle" x="440" y="-343.5" font-family="Helvetica,sans-Serif" font-size="10.00">RtypeResources.hpp</text>
</a>
</g>
</g>
<!-- Node3&#45;&gt;Node32 -->
<g id="edge59" class="edge"><title>Node3&#45;&gt;Node32</title>
<path fill="none" stroke="midnightblue" d="M513.022,-392.324C499.45,-383.9 478.62,-370.971 462.675,-361.074"/>
<polygon fill="midnightblue" stroke="midnightblue" points="464.286,-357.954 453.943,-355.655 460.594,-363.902 464.286,-357.954"/>
</g>
<!-- Node5 -->
<g id="node5" class="node"><title>Node5</title>
<polygon fill="none" stroke="#bfbfbf" points="1047.5,-112.5 1047.5,-131.5 1104.5,-131.5 1104.5,-112.5 1047.5,-112.5"/>
<text text-anchor="middle" x="1076" y="-119.5" font-family="Helvetica,sans-Serif" font-size="10.00">memory</text>
</g>
<!-- Node4&#45;&gt;Node5 -->
<g id="edge4" class="edge"><title>Node4&#45;&gt;Node5</title>
<path fill="none" stroke="midnightblue" d="M1185.78,-281.598C1141.39,-274.542 1085.1,-262.263 1071,-244 1048.07,-214.294 1059.54,-167.186 1068.6,-141.386"/>
<polygon fill="midnightblue" stroke="midnightblue" points="1071.98,-142.339 1072.22,-131.747 1065.43,-139.876 1071.98,-142.339"/>
</g>
<!-- Node6 -->
<g id="node6" class="node"><title>Node6</title>
<polygon fill="none" stroke="#bfbfbf" points="1222.5,-112.5 1222.5,-131.5 1269.5,-131.5 1269.5,-112.5 1222.5,-112.5"/>
<text text-anchor="middle" x="1246" y="-119.5" font-family="Helvetica,sans-Serif" font-size="10.00">vector</text>
</g>
<!-- Node4&#45;&gt;Node6 -->
<g id="edge5" class="edge"><title>Node4&#45;&gt;Node6</title>
<path fill="none" stroke="midnightblue" d="M1243.16,-280.075C1243.63,-253.945 1245.02,-177.211 1245.66,-141.577"/>
<polygon fill="midnightblue" stroke="midnightblue" points="1249.16,-141.63 1245.85,-131.568 1242.16,-141.503 1249.16,-141.63"/>
</g>
<!-- Node7 -->
<g id="node7" class="node"><title>Node7</title>
<polygon fill="none" stroke="#bfbfbf" points="883,-56.5 883,-75.5 927,-75.5 927,-56.5 883,-56.5"/>
<text text-anchor="middle" x="905" y="-63.5" font-family="Helvetica,sans-Serif" font-size="10.00">string</text>
</g>
<!-- Node4&#45;&gt;Node7 -->
<g id="edge6" class="edge"><title>Node4&#45;&gt;Node7</title>
<path fill="none" stroke="midnightblue" d="M1185.8,-284.389C1147.1,-279.144 1096.1,-267.937 1057,-244 989.109,-202.44 935.877,-120.38 914.808,-84.4927"/>
<polygon fill="midnightblue" stroke="midnightblue" points="917.752,-82.5911 909.732,-75.6672 911.683,-86.0808 917.752,-82.5911"/>
</g>
<!-- Node8 -->
<g id="node8" class="node"><title>Node8</title>
<polygon fill="none" stroke="#bfbfbf" points="1161,-168.5 1161,-187.5 1199,-187.5 1199,-168.5 1161,-168.5"/>
<text text-anchor="middle" x="1180" y="-175.5" font-family="Helvetica,sans-Serif" font-size="10.00">map</text>
</g>
<!-- Node4&#45;&gt;Node8 -->
<g id="edge7" class="edge"><title>Node4&#45;&gt;Node8</title>
<path fill="none" stroke="midnightblue" d="M1241.86,-280.476C1239.85,-267.531 1234.8,-242.47 1224,-224 1217.5,-212.88 1207.65,-202.457 1198.92,-194.448"/>
<polygon fill="midnightblue" stroke="midnightblue" points="1201.17,-191.771 1191.34,-187.821 1196.57,-197.04 1201.17,-191.771"/>
</g>
<!-- Node9 -->
<g id="node9" class="node"><title>Node9</title>
<g id="a_node9"><a xlink:href="IComponent_8hpp.html" target="_top" xlink:title="IComponent.hpp">
<polygon fill="none" stroke="black" points="1179,-56.5 1179,-75.5 1275,-75.5 1275,-56.5 1179,-56.5"/>
<text text-anchor="middle" x="1227" y="-63.5" font-family="Helvetica,sans-Serif" font-size="10.00">IComponent.hpp</text>
</a>
</g>
</g>
<!-- Node4&#45;&gt;Node9 -->
<g id="edge8" class="edge"><title>Node4&#45;&gt;Node9</title>
<path fill="none" stroke="midnightblue" d="M1300.08,-285.893C1353.26,-281.411 1433.9,-270.499 1499,-244 1545.02,-225.265 1595.3,-215.588 1581,-168 1572.41,-139.431 1569.21,-127.946 1544,-112 1502.13,-85.5183 1364.88,-74.0977 1285.38,-69.6032"/>
<polygon fill="midnightblue" stroke="midnightblue" points="1285.21,-66.0888 1275.03,-69.039 1284.83,-73.0784 1285.21,-66.0888"/>
</g>
<!-- Node11 -->
<g id="node11" class="node"><title>Node11</title>
<g id="a_node11"><a xlink:href="ComponentManager_8hpp.html" target="_top" xlink:title="ComponentManager.hpp">
<polygon fill="none" stroke="black" points="1079.5,-224.5 1079.5,-243.5 1214.5,-243.5 1214.5,-224.5 1079.5,-224.5"/>
<text text-anchor="middle" x="1147" y="-231.5" font-family="Helvetica,sans-Serif" font-size="10.00">ComponentManager.hpp</text>
</a>
</g>
</g>
<!-- Node4&#45;&gt;Node11 -->
<g id="edge10" class="edge"><title>Node4&#45;&gt;Node11</title>
<path fill="none" stroke="midnightblue" d="M1227.58,-280.324C1212.46,-271.822 1189.18,-258.729 1171.53,-248.797"/>
<polygon fill="midnightblue" stroke="midnightblue" points="1172.82,-245.507 1162.39,-243.655 1169.39,-251.608 1172.82,-245.507"/>
</g>
<!-- Node14 -->
<g id="node14" class="node"><title>Node14</title>
<g id="a_node14"><a xlink:href="Entity_8hpp.html" target="_top" xlink:title="Entity.hpp">
<polygon fill="none" stroke="black" points="1471.5,-112.5 1471.5,-131.5 1534.5,-131.5 1534.5,-112.5 1471.5,-112.5"/>
<text text-anchor="middle" x="1503" y="-119.5" font-family="Helvetica,sans-Serif" font-size="10.00">Entity.hpp</text>
</a>
</g>
</g>
<!-- Node4&#45;&gt;Node14 -->
<g id="edge19" class="edge"><title>Node4&#45;&gt;Node14</title>
<path fill="none" stroke="midnightblue" d="M1296.02,-280.489C1379.52,-265.844 1535.34,-233.05 1566,-188 1579.6,-168.017 1554.12,-148.583 1531.6,-136.251"/>
<polygon fill="midnightblue" stroke="midnightblue" points="1533.07,-133.067 1522.58,-131.576 1529.85,-139.283 1533.07,-133.067"/>
</g>
<!-- Node15 -->
<g id="node15" class="node"><title>Node15</title>
<g id="a_node15"><a xlink:href="EntityManager_8hpp.html" target="_top" xlink:title="EntityManager.hpp">
<polygon fill="none" stroke="black" points="1309,-224.5 1309,-243.5 1415,-243.5 1415,-224.5 1309,-224.5"/>
<text text-anchor="middle" x="1362" y="-231.5" font-family="Helvetica,sans-Serif" font-size="10.00">EntityManager.hpp</text>
</a>
</g>
</g>
<!-- Node4&#45;&gt;Node15 -->
<g id="edge20" class="edge"><title>Node4&#45;&gt;Node15</title>
<path fill="none" stroke="midnightblue" d="M1261.86,-280.444C1281.27,-271.636 1311.73,-257.812 1333.96,-247.722"/>
<polygon fill="midnightblue" stroke="midnightblue" points="1335.57,-250.836 1343.23,-243.516 1332.68,-244.462 1335.57,-250.836"/>
</g>
<!-- Node16 -->
<g id="node16" class="node"><title>Node16</title>
<g id="a_node16"><a xlink:href="PacketManager_8hpp.html" target="_top" xlink:title="PacketManager.hpp">
<polygon fill="none" stroke="black" points="1697,-112.5 1697,-131.5 1807,-131.5 1807,-112.5 1697,-112.5"/>
<text text-anchor="middle" x="1752" y="-119.5" font-family="Helvetica,sans-Serif" font-size="10.00">PacketManager.hpp</text>
</a>
</g>
</g>
<!-- Node4&#45;&gt;Node16 -->
<g id="edge52" class="edge"><title>Node4&#45;&gt;Node16</title>
<path fill="none" stroke="midnightblue" d="M1300.02,-288.269C1430.31,-286.026 1741.22,-277.214 1774,-244 1797.76,-219.925 1786.76,-200.671 1778,-168 1775.35,-158.103 1769.93,-148.131 1764.73,-140.099"/>
<polygon fill="midnightblue" stroke="midnightblue" points="1767.46,-137.906 1758.89,-131.681 1761.71,-141.894 1767.46,-137.906"/>
</g>
<!-- Node4&#45;&gt;Node17 -->
<g id="edge51" class="edge"><title>Node4&#45;&gt;Node17</title>
<path fill="none" stroke="midnightblue" d="M1300.32,-288.086C1433.87,-285.43 1757.23,-275.758 1794,-244 1840.31,-204.003 1839.98,-122.976 1837.1,-86.0769"/>
<polygon fill="midnightblue" stroke="midnightblue" points="1840.55,-85.3845 1836.13,-75.7551 1833.58,-86.0383 1840.55,-85.3845"/>
</g>
<!-- Node19 -->
<g id="node19" class="node"><title>Node19</title>
<g id="a_node19"><a xlink:href="Sprite_8hpp.html" target="_top" xlink:title="Display/Sprite.hpp">
<polygon fill="none" stroke="black" points="773,-168.5 773,-187.5 877,-187.5 877,-168.5 773,-168.5"/>
<text text-anchor="middle" x="825" y="-175.5" font-family="Helvetica,sans-Serif" font-size="10.00">Display/Sprite.hpp</text>
</a>
</g>
</g>
<!-- Node4&#45;&gt;Node19 -->
<g id="edge33" class="edge"><title>Node4&#45;&gt;Node19</title>
<path fill="none" stroke="midnightblue" d="M1185.66,-281.326C1135.8,-273.968 1061.9,-261.403 999,-244 946.669,-229.52 887.903,-205.968 853.806,-191.543"/>
<polygon fill="midnightblue" stroke="midnightblue" points="855.031,-188.26 844.46,-187.555 852.284,-194.698 855.031,-188.26"/>
</g>
<!-- Node22 -->
<g id="node22" class="node"><title>Node22</title>
<g id="a_node22"><a xlink:href="Position_8hpp.html" target="_top" xlink:title="Physics/Position.hpp">
<polygon fill="none" stroke="black" points="1651.5,-224.5 1651.5,-243.5 1764.5,-243.5 1764.5,-224.5 1651.5,-224.5"/>
<text text-anchor="middle" x="1708" y="-231.5" font-family="Helvetica,sans-Serif" font-size="10.00">Physics/Position.hpp</text>
</a>
</g>
</g>
<!-- Node4&#45;&gt;Node22 -->
<g id="edge40" class="edge"><title>Node4&#45;&gt;Node22</title>
<path fill="none" stroke="midnightblue" d="M1300.12,-282.701C1376.79,-274.193 1517.21,-258.432 1637,-244 1638.46,-243.824 1639.95,-243.644 1641.44,-243.462"/>
<polygon fill="midnightblue" stroke="midnightblue" points="1641.93,-246.929 1651.43,-242.235 1641.07,-239.981 1641.93,-246.929"/>
</g>
<!-- Node25 -->
<g id="node25" class="node"><title>Node25</title>
<g id="a_node25"><a xlink:href="Text_8hpp.html" target="_top" xlink:title="Display/Text.hpp">
<polygon fill="none" stroke="black" points="569,-224.5 569,-243.5 663,-243.5 663,-224.5 569,-224.5"/>
<text text-anchor="middle" x="616" y="-231.5" font-family="Helvetica,sans-Serif" font-size="10.00">Display/Text.hpp</text>
</a>
</g>
</g>
<!-- Node4&#45;&gt;Node25 -->
<g id="edge44" class="edge"><title>Node4&#45;&gt;Node25</title>
<path fill="none" stroke="midnightblue" d="M1185.97,-284.089C1066.88,-273.832 792.927,-250.238 673.46,-239.949"/>
<polygon fill="midnightblue" stroke="midnightblue" points="673.679,-236.455 663.415,-239.084 673.078,-243.429 673.679,-236.455"/>
</g>
<!-- Node28 -->
<g id="node28" class="node"><title>Node28</title>
<g id="a_node28"><a xlink:href="Music_8hpp.html" target="_top" xlink:title="Music.hpp">
<polygon fill="none" stroke="black" points="405.5,-224.5 405.5,-243.5 470.5,-243.5 470.5,-224.5 405.5,-224.5"/>
<text text-anchor="middle" x="438" y="-231.5" font-family="Helvetica,sans-Serif" font-size="10.00">Music.hpp</text>
</a>
</g>
</g>
<!-- Node4&#45;&gt;Node28 -->
<g id="edge53" class="edge"><title>Node4&#45;&gt;Node28</title>
<path fill="none" stroke="midnightblue" d="M1185.87,-285.388C1068.57,-277.938 792.051,-260.203 560,-244 533.727,-242.165 504.28,-239.996 480.9,-238.247"/>
<polygon fill="midnightblue" stroke="midnightblue" points="480.851,-234.734 470.617,-237.476 480.328,-241.714 480.851,-234.734"/>
</g>
<!-- Node10 -->
<g id="node10" class="node"><title>Node10</title>
<polygon fill="none" stroke="#bfbfbf" points="656.5,-0.5 656.5,-19.5 719.5,-19.5 719.5,-0.5 656.5,-0.5"/>
<text text-anchor="middle" x="688" y="-7.5" font-family="Helvetica,sans-Serif" font-size="10.00">typeindex</text>
</g>
<!-- Node9&#45;&gt;Node10 -->
<g id="edge9" class="edge"><title>Node9&#45;&gt;Node10</title>
<path fill="none" stroke="midnightblue" d="M1178.69,-60.1603C1074.11,-49.6824 828.225,-25.0485 729.804,-15.1882"/>
<polygon fill="midnightblue" stroke="midnightblue" points="729.946,-11.6849 719.647,-14.1706 729.248,-18.6501 729.946,-11.6849"/>
</g>
<!-- Node11&#45;&gt;Node5 -->
<g id="edge12" class="edge"><title>Node11&#45;&gt;Node5</title>
<path fill="none" stroke="midnightblue" d="M1141.43,-224.368C1129.76,-206.296 1102.58,-164.176 1087.17,-140.307"/>
<polygon fill="midnightblue" stroke="midnightblue" points="1089.91,-138.095 1081.55,-131.591 1084.03,-141.891 1089.91,-138.095"/>
</g>
<!-- Node11&#45;&gt;Node8 -->
<g id="edge11" class="edge"><title>Node11&#45;&gt;Node8</title>
<path fill="none" stroke="midnightblue" d="M1152.45,-224.083C1157.01,-216.613 1163.67,-205.724 1169.29,-196.52"/>
<polygon fill="midnightblue" stroke="midnightblue" points="1172.42,-198.109 1174.65,-187.751 1166.45,-194.459 1172.42,-198.109"/>
</g>
<!-- Node11&#45;&gt;Node9 -->
<g id="edge13" class="edge"><title>Node11&#45;&gt;Node9</title>
<path fill="none" stroke="midnightblue" d="M1146.17,-224.261C1145.29,-211.465 1144.87,-187.083 1152,-168 1164.72,-133.963 1192.59,-101.507 1210.54,-82.9535"/>
<polygon fill="midnightblue" stroke="midnightblue" points="1213.21,-85.231 1217.78,-75.6702 1208.24,-80.2973 1213.21,-85.231"/>
</g>
<!-- Node12 -->
<g id="node12" class="node"><title>Node12</title>
<g id="a_node12"><a xlink:href="IComponentManager_8hpp.html" target="_top" xlink:title="IComponentManager.hpp">
<polygon fill="none" stroke="black" points="1293.5,-168.5 1293.5,-187.5 1430.5,-187.5 1430.5,-168.5 1293.5,-168.5"/>
<text text-anchor="middle" x="1362" y="-175.5" font-family="Helvetica,sans-Serif" font-size="10.00">IComponentManager.hpp</text>
</a>
</g>
</g>
<!-- Node11&#45;&gt;Node12 -->
<g id="edge14" class="edge"><title>Node11&#45;&gt;Node12</title>
<path fill="none" stroke="midnightblue" d="M1181.07,-224.444C1218.18,-215.122 1277.66,-200.183 1318.21,-189.997"/>
<polygon fill="midnightblue" stroke="midnightblue" points="1319.25,-193.347 1328.09,-187.516 1317.54,-186.558 1319.25,-193.347"/>
</g>
<!-- Node12&#45;&gt;Node5 -->
<g id="edge16" class="edge"><title>Node12&#45;&gt;Node5</title>
<path fill="none" stroke="midnightblue" d="M1316.68,-168.444C1260.87,-157.905 1167.01,-140.185 1114.52,-130.273"/>
<polygon fill="midnightblue" stroke="midnightblue" points="1115.07,-126.815 1104.59,-128.399 1113.77,-133.694 1115.07,-126.815"/>
</g>
<!-- Node12&#45;&gt;Node9 -->
<g id="edge17" class="edge"><title>Node12&#45;&gt;Node9</title>
<path fill="none" stroke="midnightblue" d="M1351.41,-168.368C1328.54,-149.733 1274.29,-105.532 1245.57,-82.1338"/>
<polygon fill="midnightblue" stroke="midnightblue" points="1247.51,-79.1949 1237.54,-75.5914 1243.09,-84.6215 1247.51,-79.1949"/>
</g>
<!-- Node13 -->
<g id="node13" class="node"><title>Node13</title>
<polygon fill="none" stroke="#bfbfbf" points="1572,-56.5 1572,-75.5 1602,-75.5 1602,-56.5 1572,-56.5"/>
<text text-anchor="middle" x="1587" y="-63.5" font-family="Helvetica,sans-Serif" font-size="10.00">list</text>
</g>
<!-- Node12&#45;&gt;Node13 -->
<g id="edge15" class="edge"><title>Node12&#45;&gt;Node13</title>
<path fill="none" stroke="midnightblue" d="M1373.61,-168.291C1391.89,-154.876 1428.81,-128.94 1463,-112 1496.01,-95.6479 1536.49,-82.0801 1562.02,-74.2527"/>
<polygon fill="midnightblue" stroke="midnightblue" points="1563.09,-77.5841 1571.66,-71.352 1561.08,-70.8807 1563.09,-77.5841"/>
</g>
<!-- Node12&#45;&gt;Node14 -->
<g id="edge18" class="edge"><title>Node12&#45;&gt;Node14</title>
<path fill="none" stroke="midnightblue" d="M1384.34,-168.444C1407.75,-159.478 1444.74,-145.314 1471.19,-135.183"/>
<polygon fill="midnightblue" stroke="midnightblue" points="1472.68,-138.361 1480.76,-131.516 1470.17,-131.824 1472.68,-138.361"/>
</g>
<!-- Node15&#45;&gt;Node6 -->
<g id="edge22" class="edge"><title>Node15&#45;&gt;Node6</title>
<path fill="none" stroke="midnightblue" d="M1341.49,-224.488C1324.8,-216.802 1301.41,-204.219 1285,-188 1271.29,-174.45 1260.51,-155.131 1253.78,-141.077"/>
<polygon fill="midnightblue" stroke="midnightblue" points="1256.95,-139.586 1249.62,-131.933 1250.58,-142.485 1256.95,-139.586"/>
</g>
<!-- Node15&#45;&gt;Node8 -->
<g id="edge21" class="edge"><title>Node15&#45;&gt;Node8</title>
<path fill="none" stroke="midnightblue" d="M1333.16,-224.444C1299.19,-214.364 1243.08,-197.715 1209.02,-187.611"/>
<polygon fill="midnightblue" stroke="midnightblue" points="1209.79,-184.189 1199.21,-184.7 1207.8,-190.9 1209.79,-184.189"/>
</g>
<!-- Node15&#45;&gt;Node12 -->
<g id="edge27" class="edge"><title>Node15&#45;&gt;Node12</title>
<path fill="none" stroke="midnightblue" d="M1362,-224.083C1362,-217.006 1362,-206.861 1362,-197.986"/>
<polygon fill="midnightblue" stroke="midnightblue" points="1365.5,-197.751 1362,-187.751 1358.5,-197.751 1365.5,-197.751"/>
</g>
<!-- Node15&#45;&gt;Node16 -->
<g id="edge23" class="edge"><title>Node15&#45;&gt;Node16</title>
<path fill="none" stroke="midnightblue" d="M1408.17,-224.448C1449.77,-216.356 1512.45,-203.206 1566,-188 1621.19,-172.329 1683.91,-149.29 1720.6,-135.265"/>
<polygon fill="midnightblue" stroke="midnightblue" points="1722.15,-138.418 1730.22,-131.562 1719.63,-131.884 1722.15,-138.418"/>
</g>
<!-- Node18 -->
<g id="node18" class="node"><title>Node18</title>
<g id="a_node18"><a xlink:href="IEntityManager_8hpp.html" target="_top" xlink:title="IEntityManager.hpp">
<polygon fill="none" stroke="black" points="1449,-168.5 1449,-187.5 1557,-187.5 1557,-168.5 1449,-168.5"/>
<text text-anchor="middle" x="1503" y="-175.5" font-family="Helvetica,sans-Serif" font-size="10.00">IEntityManager.hpp</text>
</a>
</g>
</g>
<!-- Node15&#45;&gt;Node18 -->
<g id="edge28" class="edge"><title>Node15&#45;&gt;Node18</title>
<path fill="none" stroke="midnightblue" d="M1384.34,-224.444C1407.75,-215.478 1444.74,-201.314 1471.19,-191.183"/>
<polygon fill="midnightblue" stroke="midnightblue" points="1472.68,-194.361 1480.76,-187.516 1470.17,-187.824 1472.68,-194.361"/>
</g>
<!-- Node16&#45;&gt;Node7 -->
<g id="edge24" class="edge"><title>Node16&#45;&gt;Node7</title>
<path fill="none" stroke="midnightblue" d="M1696.88,-112.955C1693.88,-112.609 1690.9,-112.287 1688,-112 1397.5,-83.276 1044.42,-71.1023 937.314,-67.9036"/>
<polygon fill="midnightblue" stroke="midnightblue" points="937.259,-64.4006 927.161,-67.6055 937.054,-71.3976 937.259,-64.4006"/>
</g>
<!-- Node16&#45;&gt;Node13 -->
<g id="edge25" class="edge"><title>Node16&#45;&gt;Node13</title>
<path fill="none" stroke="midnightblue" d="M1725.86,-112.444C1694.51,-102.183 1642.36,-85.1171 1611.67,-75.0755"/>
<polygon fill="midnightblue" stroke="midnightblue" points="1612.75,-71.7434 1602.15,-71.9593 1610.57,-78.3962 1612.75,-71.7434"/>
</g>
<!-- Node16&#45;&gt;Node17 -->
<g id="edge26" class="edge"><title>Node16&#45;&gt;Node17</title>
<path fill="none" stroke="midnightblue" d="M1765.34,-112.324C1778.16,-103.979 1797.78,-91.2122 1812.94,-81.3524"/>
<polygon fill="midnightblue" stroke="midnightblue" points="1815.22,-84.0417 1821.7,-75.6545 1811.41,-78.1742 1815.22,-84.0417"/>
</g>
<!-- Node18&#45;&gt;Node5 -->
<g id="edge29" class="edge"><title>Node18&#45;&gt;Node5</title>
<path fill="none" stroke="midnightblue" d="M1448.71,-169.178C1445.77,-168.775 1442.85,-168.379 1440,-168 1321.67,-152.235 1181.45,-135.427 1114.85,-127.558"/>
<polygon fill="midnightblue" stroke="midnightblue" points="1115.15,-124.07 1104.81,-126.374 1114.33,-131.021 1115.15,-124.07"/>
</g>
<!-- Node18&#45;&gt;Node6 -->
<g id="edge30" class="edge"><title>Node18&#45;&gt;Node6</title>
<path fill="none" stroke="midnightblue" d="M1462.28,-168.444C1411.75,-157.827 1326.53,-139.922 1279.57,-130.054"/>
<polygon fill="midnightblue" stroke="midnightblue" points="1280.11,-126.59 1269.6,-127.959 1278.67,-133.441 1280.11,-126.59"/>
</g>
<!-- Node18&#45;&gt;Node14 -->
<g id="edge31" class="edge"><title>Node18&#45;&gt;Node14</title>
<path fill="none" stroke="midnightblue" d="M1503,-168.083C1503,-161.006 1503,-150.861 1503,-141.986"/>
<polygon fill="midnightblue" stroke="midnightblue" points="1506.5,-141.751 1503,-131.751 1499.5,-141.751 1506.5,-141.751"/>
</g>
<!-- Node18&#45;&gt;Node16 -->
<g id="edge32" class="edge"><title>Node18&#45;&gt;Node16</title>
<path fill="none" stroke="midnightblue" d="M1542.45,-168.444C1585.89,-159.023 1655.79,-143.866 1702.78,-133.675"/>
<polygon fill="midnightblue" stroke="midnightblue" points="1703.7,-137.056 1712.73,-131.516 1702.22,-130.215 1703.7,-137.056"/>
</g>
<!-- Node19&#45;&gt;Node7 -->
<g id="edge34" class="edge"><title>Node19&#45;&gt;Node7</title>
<path fill="none" stroke="midnightblue" d="M819.139,-168.311C811.065,-155.15 798.729,-129.811 810,-112 823.732,-90.2999 851.071,-78.8595 872.909,-72.9562"/>
<polygon fill="midnightblue" stroke="midnightblue" points="873.907,-76.3157 882.795,-70.5494 872.251,-69.5143 873.907,-76.3157"/>
</g>
<!-- Node19&#45;&gt;Node10 -->
<g id="edge35" class="edge"><title>Node19&#45;&gt;Node10</title>
<path fill="none" stroke="midnightblue" d="M817.634,-168.075C795.603,-141.38 729.979,-61.865 701.47,-27.3218"/>
<polygon fill="midnightblue" stroke="midnightblue" points="704.136,-25.0529 695.071,-19.5681 698.737,-29.5086 704.136,-25.0529"/>
</g>
<!-- Node20 -->
<g id="node20" class="node"><title>Node20</title>
<g id="a_node20"><a xlink:href="Rect_8hpp.html" target="_top" xlink:title="Rect.hpp">
<polygon fill="none" stroke="black" points="819,-112.5 819,-131.5 877,-131.5 877,-112.5 819,-112.5"/>
<text text-anchor="middle" x="848" y="-119.5" font-family="Helvetica,sans-Serif" font-size="10.00">Rect.hpp</text>
</a>
</g>
</g>
<!-- Node19&#45;&gt;Node20 -->
<g id="edge36" class="edge"><title>Node19&#45;&gt;Node20</title>
<path fill="none" stroke="midnightblue" d="M828.798,-168.083C831.913,-160.77 836.423,-150.181 840.289,-141.103"/>
<polygon fill="midnightblue" stroke="midnightblue" points="843.574,-142.323 844.273,-131.751 837.134,-139.58 843.574,-142.323"/>
</g>
<!-- Node21 -->
<g id="node21" class="node"><title>Node21</title>
<g id="a_node21"><a xlink:href="IDisplay_8hpp.html" target="_top" xlink:title="IDisplay.hpp">
<polygon fill="none" stroke="black" points="651.5,-112.5 651.5,-131.5 724.5,-131.5 724.5,-112.5 651.5,-112.5"/>
<text text-anchor="middle" x="688" y="-119.5" font-family="Helvetica,sans-Serif" font-size="10.00">IDisplay.hpp</text>
</a>
</g>
</g>
<!-- Node19&#45;&gt;Node21 -->
<g id="edge37" class="edge"><title>Node19&#45;&gt;Node21</title>
<path fill="none" stroke="midnightblue" d="M803.292,-168.444C780.645,-159.517 744.928,-145.439 719.248,-135.317"/>
<polygon fill="midnightblue" stroke="midnightblue" points="720.193,-131.927 709.606,-131.516 717.626,-138.44 720.193,-131.927"/>
</g>
<!-- Node21&#45;&gt;Node9 -->
<g id="edge39" class="edge"><title>Node21&#45;&gt;Node9</title>
<path fill="none" stroke="midnightblue" d="M724.624,-117.331C816.417,-108.134 1056.92,-84.0395 1168.54,-72.8571"/>
<polygon fill="midnightblue" stroke="midnightblue" points="1169,-76.328 1178.61,-71.8485 1168.31,-69.3628 1169,-76.328"/>
</g>
<!-- Node21&#45;&gt;Node10 -->
<g id="edge38" class="edge"><title>Node21&#45;&gt;Node10</title>
<path fill="none" stroke="midnightblue" d="M688,-112.368C688,-94.617 688,-53.6664 688,-29.5974"/>
<polygon fill="midnightblue" stroke="midnightblue" points="691.5,-29.5914 688,-19.5914 684.5,-29.5915 691.5,-29.5914"/>
</g>
<!-- Node23 -->
<g id="node23" class="node"><title>Node23</title>
<polygon fill="none" stroke="#bfbfbf" points="1727,-168.5 1727,-187.5 1769,-187.5 1769,-168.5 1727,-168.5"/>
<text text-anchor="middle" x="1748" y="-175.5" font-family="Helvetica,sans-Serif" font-size="10.00">utility</text>
</g>
<!-- Node22&#45;&gt;Node23 -->
<g id="edge41" class="edge"><title>Node22&#45;&gt;Node23</title>
<path fill="none" stroke="midnightblue" d="M1714.61,-224.083C1720.26,-216.455 1728.54,-205.264 1735.45,-195.941"/>
<polygon fill="midnightblue" stroke="midnightblue" points="1738.38,-197.87 1741.52,-187.751 1732.75,-193.703 1738.38,-197.87"/>
</g>
<!-- Node24 -->
<g id="node24" class="node"><title>Node24</title>
<g id="a_node24"><a xlink:href="IPhysics_8hpp.html" target="_top" xlink:title="IPhysics.hpp">
<polygon fill="none" stroke="black" points="1603.5,-112.5 1603.5,-131.5 1678.5,-131.5 1678.5,-112.5 1603.5,-112.5"/>
<text text-anchor="middle" x="1641" y="-119.5" font-family="Helvetica,sans-Serif" font-size="10.00">IPhysics.hpp</text>
</a>
</g>
</g>
<!-- Node22&#45;&gt;Node24 -->
<g id="edge42" class="edge"><title>Node22&#45;&gt;Node24</title>
<path fill="none" stroke="midnightblue" d="M1702.74,-224.368C1691.73,-206.296 1666.08,-164.176 1651.54,-140.307"/>
<polygon fill="midnightblue" stroke="midnightblue" points="1654.42,-138.311 1646.23,-131.591 1648.45,-141.953 1654.42,-138.311"/>
</g>
<!-- Node24&#45;&gt;Node9 -->
<g id="edge43" class="edge"><title>Node24&#45;&gt;Node9</title>
<path fill="none" stroke="midnightblue" d="M1603.26,-114.251C1598.47,-113.457 1593.62,-112.687 1589,-112 1482.13,-96.1177 1356.92,-81.4181 1285.29,-73.3789"/>
<polygon fill="midnightblue" stroke="midnightblue" points="1285.44,-69.8745 1275.12,-72.2417 1284.66,-76.8312 1285.44,-69.8745"/>
</g>
<!-- Node25&#45;&gt;Node7 -->
<g id="edge46" class="edge"><title>Node25&#45;&gt;Node7</title>
<path fill="none" stroke="midnightblue" d="M599.642,-224.435C579.731,-212.785 550.143,-190.772 562,-168 582.043,-129.504 601.859,-128.504 642,-112 720.796,-79.6018 822.118,-70.5289 872.93,-67.9882"/>
<polygon fill="midnightblue" stroke="midnightblue" points="873.146,-71.4821 882.98,-67.5391 872.833,-64.4891 873.146,-71.4821"/>
</g>
<!-- Node25&#45;&gt;Node10 -->
<g id="edge45" class="edge"><title>Node25&#45;&gt;Node10</title>
<path fill="none" stroke="midnightblue" d="M596.704,-224.48C582.571,-217.081 564.443,-204.887 556,-188 552.025,-180.05 552.956,-176.351 556,-168 578.63,-105.919 637.803,-51.3506 668.656,-26.0196"/>
<polygon fill="midnightblue" stroke="midnightblue" points="670.954,-28.6629 676.553,-19.6683 666.567,-23.2081 670.954,-28.6629"/>
</g>
<!-- Node25&#45;&gt;Node26 -->
<g id="edge47" class="edge"><title>Node25&#45;&gt;Node26</title>
<path fill="none" stroke="midnightblue" d="M633.352,-224.324C650.672,-215.664 677.515,-202.242 697.502,-192.249"/>
<polygon fill="midnightblue" stroke="midnightblue" points="699.312,-195.257 706.691,-187.655 696.181,-188.996 699.312,-195.257"/>
</g>
<!-- Node27 -->
<g id="node27" class="node"><title>Node27</title>
<g id="a_node27"><a xlink:href="IUserInterface_8hpp.html" target="_top" xlink:title="IUserInterface.hpp">
<polygon fill="none" stroke="black" points="571,-168.5 571,-187.5 675,-187.5 675,-168.5 571,-168.5"/>
<text text-anchor="middle" x="623" y="-175.5" font-family="Helvetica,sans-Serif" font-size="10.00">IUserInterface.hpp</text>
</a>
</g>
</g>
<!-- Node25&#45;&gt;Node27 -->
<g id="edge48" class="edge"><title>Node25&#45;&gt;Node27</title>
<path fill="none" stroke="midnightblue" d="M617.156,-224.083C618.084,-216.927 619.418,-206.635 620.577,-197.691"/>
<polygon fill="midnightblue" stroke="midnightblue" points="624.051,-198.118 621.866,-187.751 617.109,-197.218 624.051,-198.118"/>
</g>
<!-- Node27&#45;&gt;Node10 -->
<g id="edge49" class="edge"><title>Node27&#45;&gt;Node10</title>
<path fill="none" stroke="midnightblue" d="M625.08,-168.46C628.229,-155.913 634.627,-131.836 642,-112 653.09,-82.1637 669.023,-48.7747 678.93,-28.8435"/>
<polygon fill="midnightblue" stroke="midnightblue" points="682.143,-30.2447 683.504,-19.7376 675.888,-27.1027 682.143,-30.2447"/>
</g>
<!-- Node27&#45;&gt;Node21 -->
<g id="edge50" class="edge"><title>Node27&#45;&gt;Node21</title>
<path fill="none" stroke="midnightblue" d="M633.443,-168.324C643.146,-160.263 657.815,-148.077 669.5,-138.369"/>
<polygon fill="midnightblue" stroke="midnightblue" points="671.911,-140.916 677.367,-131.834 667.438,-135.532 671.911,-140.916"/>
</g>
<!-- Node28&#45;&gt;Node29 -->
<g id="edge54" class="edge"><title>Node28&#45;&gt;Node29</title>
<path fill="none" stroke="midnightblue" d="M436.679,-224.083C435.619,-216.927 434.094,-206.635 432.769,-197.691"/>
<polygon fill="midnightblue" stroke="midnightblue" points="436.224,-197.13 431.296,-187.751 429.3,-198.156 436.224,-197.13"/>
</g>
<!-- Node30 -->
<g id="node30" class="node"><title>Node30</title>
<g id="a_node30"><a xlink:href="IAudio_8hpp.html" target="_top" xlink:title="IAudio.hpp">
<polygon fill="none" stroke="black" points="298.5,-168.5 298.5,-187.5 365.5,-187.5 365.5,-168.5 298.5,-168.5"/>
<text text-anchor="middle" x="332" y="-175.5" font-family="Helvetica,sans-Serif" font-size="10.00">IAudio.hpp</text>
</a>
</g>
</g>
<!-- Node28&#45;&gt;Node30 -->
<g id="edge55" class="edge"><title>Node28&#45;&gt;Node30</title>
<path fill="none" stroke="midnightblue" d="M420.969,-224.324C403.97,-215.664 377.624,-202.242 358.007,-192.249"/>
<polygon fill="midnightblue" stroke="midnightblue" points="359.488,-189.075 348.988,-187.655 356.31,-195.312 359.488,-189.075"/>
</g>
<!-- Node33 -->
<g id="node33" class="node"><title>Node33</title>
<g id="a_node33"><a xlink:href="ResourceManager_8hpp.html" target="_top" xlink:title="ResourceManager.hpp">
<polygon fill="none" stroke="black" points="377,-280.5 377,-299.5 499,-299.5 499,-280.5 377,-280.5"/>
<text text-anchor="middle" x="438" y="-287.5" font-family="Helvetica,sans-Serif" font-size="10.00">ResourceManager.hpp</text>
</a>
</g>
</g>
<!-- Node32&#45;&gt;Node33 -->
<g id="edge60" class="edge"><title>Node32&#45;&gt;Node33</title>
<path fill="none" stroke="midnightblue" d="M439.67,-336.083C439.408,-329.006 439.032,-318.861 438.703,-309.986"/>
<polygon fill="midnightblue" stroke="midnightblue" points="442.192,-309.615 438.324,-299.751 435.197,-309.874 442.192,-309.615"/>
</g>
<!-- Node33&#45;&gt;Node5 -->
<g id="edge61" class="edge"><title>Node33&#45;&gt;Node5</title>
<path fill="none" stroke="midnightblue" d="M487.5,-280.459C534.998,-272.033 608.658,-258.362 672,-244 767.88,-222.261 791.87,-216.375 886,-188 941.767,-171.189 1005.67,-148.636 1043.33,-134.996"/>
<polygon fill="midnightblue" stroke="midnightblue" points="1044.58,-138.269 1052.78,-131.563 1042.18,-131.69 1044.58,-138.269"/>
</g>
<!-- Node33&#45;&gt;Node6 -->
<g id="edge62" class="edge"><title>Node33&#45;&gt;Node6</title>
<path fill="none" stroke="midnightblue" d="M499.267,-280.914C558.319,-272.793 650.084,-259.313 729,-244 912.979,-208.3 1130.81,-152.989 1212.69,-131.732"/>
<polygon fill="midnightblue" stroke="midnightblue" points="1213.64,-135.101 1222.43,-129.195 1211.87,-128.327 1213.64,-135.101"/>
</g>
<!-- Node33&#45;&gt;Node25 -->
<g id="edge73" class="edge"><title>Node33&#45;&gt;Node25</title>
<path fill="none" stroke="midnightblue" d="M466.205,-280.444C496.41,-271.28 544.511,-256.688 578.029,-246.519"/>
<polygon fill="midnightblue" stroke="midnightblue" points="579.374,-249.769 587.927,-243.516 577.342,-243.07 579.374,-249.769"/>
</g>
<!-- Node33&#45;&gt;Node28 -->
<g id="edge63" class="edge"><title>Node33&#45;&gt;Node28</title>
<path fill="none" stroke="midnightblue" d="M438,-280.083C438,-273.006 438,-262.861 438,-253.986"/>
<polygon fill="midnightblue" stroke="midnightblue" points="441.5,-253.751 438,-243.751 434.5,-253.751 441.5,-253.751"/>
</g>
<!-- Node34 -->
<g id="node34" class="node"><title>Node34</title>
<g id="a_node34"><a xlink:href="ResourceManager_2Sound_8hpp.html" target="_top" xlink:title="Sound.hpp">
<polygon fill="none" stroke="black" points="319,-224.5 319,-243.5 387,-243.5 387,-224.5 319,-224.5"/>
<text text-anchor="middle" x="353" y="-231.5" font-family="Helvetica,sans-Serif" font-size="10.00">Sound.hpp</text>
</a>
</g>
</g>
<!-- Node33&#45;&gt;Node34 -->
<g id="edge64" class="edge"><title>Node33&#45;&gt;Node34</title>
<path fill="none" stroke="midnightblue" d="M424.343,-280.324C411.084,-271.9 390.732,-258.971 375.154,-249.074"/>
<polygon fill="midnightblue" stroke="midnightblue" points="376.94,-246.063 366.623,-243.655 373.187,-251.971 376.94,-246.063"/>
</g>
<!-- Node35 -->
<g id="node35" class="node"><title>Node35</title>
<g id="a_node35"><a xlink:href="Texture_8hpp.html" target="_top" xlink:title="Texture.hpp">
<polygon fill="none" stroke="black" points="215,-224.5 215,-243.5 287,-243.5 287,-224.5 215,-224.5"/>
<text text-anchor="middle" x="251" y="-231.5" font-family="Helvetica,sans-Serif" font-size="10.00">Texture.hpp</text>
</a>
</g>
</g>
<!-- Node33&#45;&gt;Node35 -->
<g id="edge67" class="edge"><title>Node33&#45;&gt;Node35</title>
<path fill="none" stroke="midnightblue" d="M408.369,-280.444C376.5,-271.241 325.667,-256.562 290.436,-246.388"/>
<polygon fill="midnightblue" stroke="midnightblue" points="291.071,-242.928 280.492,-243.516 289.128,-249.653 291.071,-242.928"/>
</g>
<!-- Node37 -->
<g id="node37" class="node"><title>Node37</title>
<g id="a_node37"><a xlink:href="Font_8hpp.html" target="_top" xlink:title="Font.hpp">
<polygon fill="none" stroke="black" points="137.5,-224.5 137.5,-243.5 196.5,-243.5 196.5,-224.5 137.5,-224.5"/>
<text text-anchor="middle" x="167" y="-231.5" font-family="Helvetica,sans-Serif" font-size="10.00">Font.hpp</text>
</a>
</g>
</g>
<!-- Node33&#45;&gt;Node37 -->
<g id="edge70" class="edge"><title>Node33&#45;&gt;Node37</title>
<path fill="none" stroke="midnightblue" d="M391.244,-280.431C346.428,-272.106 276.634,-258.848 206.659,-244.081"/>
<polygon fill="midnightblue" stroke="midnightblue" points="207.295,-240.638 196.787,-241.987 205.843,-247.486 207.295,-240.638"/>
</g>
<!-- Node34&#45;&gt;Node29 -->
<g id="edge65" class="edge"><title>Node34&#45;&gt;Node29</title>
<path fill="none" stroke="midnightblue" d="M365.371,-224.324C377.158,-216.058 395.132,-203.453 409.136,-193.632"/>
<polygon fill="midnightblue" stroke="midnightblue" points="411.482,-196.262 417.659,-187.655 407.462,-190.531 411.482,-196.262"/>
</g>
<!-- Node34&#45;&gt;Node30 -->
<g id="edge66" class="edge"><title>Node34&#45;&gt;Node30</title>
<path fill="none" stroke="midnightblue" d="M349.532,-224.083C346.688,-216.77 342.571,-206.181 339.04,-197.103"/>
<polygon fill="midnightblue" stroke="midnightblue" points="342.29,-195.803 335.403,-187.751 335.766,-198.34 342.29,-195.803"/>
</g>
<!-- Node35&#45;&gt;Node31 -->
<g id="edge68" class="edge"><title>Node35&#45;&gt;Node31</title>
<path fill="none" stroke="midnightblue" d="M219.785,-224.444C186.067,-215.201 132.2,-200.436 95.0679,-190.257"/>
<polygon fill="midnightblue" stroke="midnightblue" points="95.6387,-186.785 85.0692,-187.516 93.7882,-193.536 95.6387,-186.785"/>
</g>
<!-- Node36 -->
<g id="node36" class="node"><title>Node36</title>
<g id="a_node36"><a xlink:href="ITexture_8hpp.html" target="_top" xlink:title="ITexture.hpp">
<polygon fill="none" stroke="black" points="206,-168.5 206,-187.5 280,-187.5 280,-168.5 206,-168.5"/>
<text text-anchor="middle" x="243" y="-175.5" font-family="Helvetica,sans-Serif" font-size="10.00">ITexture.hpp</text>
</a>
</g>
</g>
<!-- Node35&#45;&gt;Node36 -->
<g id="edge69" class="edge"><title>Node35&#45;&gt;Node36</title>
<path fill="none" stroke="midnightblue" d="M249.679,-224.083C248.619,-216.927 247.094,-206.635 245.769,-197.691"/>
<polygon fill="midnightblue" stroke="midnightblue" points="249.224,-197.13 244.296,-187.751 242.3,-198.156 249.224,-197.13"/>
</g>
<!-- Node37&#45;&gt;Node31 -->
<g id="edge71" class="edge"><title>Node37&#45;&gt;Node31</title>
<path fill="none" stroke="midnightblue" d="M149.095,-224.444C130.746,-215.675 101.995,-201.935 80.9064,-191.858"/>
<polygon fill="midnightblue" stroke="midnightblue" points="82.3532,-188.67 71.8214,-187.516 79.335,-194.986 82.3532,-188.67"/>
</g>
<!-- Node38 -->
<g id="node38" class="node"><title>Node38</title>
<g id="a_node38"><a xlink:href="IFont_8hpp.html" target="_top" xlink:title="IFont.hpp">
<polygon fill="none" stroke="black" points="126.5,-168.5 126.5,-187.5 187.5,-187.5 187.5,-168.5 126.5,-168.5"/>
<text text-anchor="middle" x="157" y="-175.5" font-family="Helvetica,sans-Serif" font-size="10.00">IFont.hpp</text>
</a>
</g>
</g>
<!-- Node37&#45;&gt;Node38 -->
<g id="edge72" class="edge"><title>Node37&#45;&gt;Node38</title>
<path fill="none" stroke="midnightblue" d="M165.349,-224.083C164.024,-216.927 162.118,-206.635 160.461,-197.691"/>
<polygon fill="midnightblue" stroke="midnightblue" points="163.883,-196.947 158.621,-187.751 157,-198.221 163.883,-196.947"/>
</g>
<!-- Node39&#45;&gt;Node7 -->
<g id="edge77" class="edge"><title>Node39&#45;&gt;Node7</title>
<path fill="none" stroke="midnightblue" d="M805.293,-392.317C819.207,-363.804 863.46,-270.169 886,-188 895.717,-152.578 900.971,-109.869 903.361,-85.8331"/>
<polygon fill="midnightblue" stroke="midnightblue" points="906.867,-85.9297 904.312,-75.6478 899.898,-85.2794 906.867,-85.9297"/>
</g>
</g>
</svg>
