<?xml version="1.0" encoding="UTF-8" standalone="no"?>
<!DOCTYPE svg PUBLIC "-//W3C//DTD SVG 1.1//EN"
 "http://www.w3.org/Graphics/SVG/1.1/DTD/svg11.dtd">
<!-- Generated by graphviz version 2.38.0 (20140413.2041)
 -->
<!-- Title: src/Render/SFMLRenderManager.hpp Pages: 1 -->
<!--zoomable 420 -->
<svg id="main" version="1.1" xmlns="http://www.w3.org/2000/svg" xmlns:xlink="http://www.w3.org/1999/xlink" xml:space="preserve" onload="init(evt)">
<style type="text/css"><![CDATA[
.edge:hover path { stroke: red; }
.edge:hover polygon { stroke: red; fill: red; }
]]></style>
<script type="text/javascript"><![CDATA[
var edges = document.getElementsByTagName('g');
if (edges && edges.length) {
  for (var i=0;i<edges.length;i++) {
    if (edges[i].id.substr(0,4)=='edge') {
      edges[i].setAttribute('class','edge');
    }
  }
}
]]></script>
        <defs>
                <circle id="rim" cx="0" cy="0" r="7"/>
                <circle id="rim2" cx="0" cy="0" r="3.5"/>
                <g id="zoomPlus">
                        <use xlink:href="#rim" fill="#404040">
                                <set attributeName="fill" to="#808080" begin="zoomplus.mouseover" end="zoomplus.mouseout"/>
                        </use>
                        <path d="M-4,0h8M0,-4v8" fill="none" stroke="white" stroke-width="1.5" pointer-events="none"/>
                </g>
                <g id="zoomMin">
                        <use xlink:href="#rim" fill="#404040">
                                <set attributeName="fill" to="#808080" begin="zoomminus.mouseover" end="zoomminus.mouseout"/>
                        </use>
                        <path d="M-4,0h8" fill="none" stroke="white" stroke-width="1.5" pointer-events="none"/>
                </g>
                <g id="dirArrow">
                        <path fill="none" stroke="white" stroke-width="1.5" d="M0,-3.0v7 M-2.5,-0.5L0,-3.0L2.5,-0.5"/>
                </g>
               <g id="resetDef">
                       <use xlink:href="#rim2" fill="#404040">
                               <set attributeName="fill" to="#808080" begin="reset.mouseover" end="reset.mouseout"/>
                       </use>
               </g>
        </defs>

<script type="text/javascript">
var viewWidth = 1854;
var viewHeight = 420;
var sectionId = 'dynsection-0';
</script>
<script xlink:href="svgpan.js"/>
<svg id="graph" class="graph">
<g id="viewport">
<title>src/Render/SFMLRenderManager.hpp</title>
<!-- Node1 -->
<g id="node1" class="node"><title>Node1</title>
<polygon fill="#bfbfbf" stroke="black" points="1109.5,-392.5 1109.5,-411.5 1300.5,-411.5 1300.5,-392.5 1109.5,-392.5"/>
<text text-anchor="middle" x="1205" y="-399.5" font-family="Helvetica,sans-Serif" font-size="10.00">src/Render/SFMLRenderManager.hpp</text>
</g>
<!-- Node2 -->
<g id="node2" class="node"><title>Node2</title>
<g id="a_node2"><a xlink:href="IRenderManager_8hpp.html" target="_top" xlink:title="IRenderManager.hpp">
<polygon fill="none" stroke="black" points="638,-280.5 638,-299.5 752,-299.5 752,-280.5 638,-280.5"/>
<text text-anchor="middle" x="695" y="-287.5" font-family="Helvetica,sans-Serif" font-size="10.00">IRenderManager.hpp</text>
</a>
</g>
</g>
<!-- Node1&#45;&gt;Node2 -->
<g id="edge1" class="edge"><title>Node1&#45;&gt;Node2</title>
<path fill="none" stroke="midnightblue" d="M1165.41,-392.46C1073.43,-372.622 845.496,-323.46 744.514,-301.679"/>
<polygon fill="midnightblue" stroke="midnightblue" points="745.082,-298.222 734.569,-299.535 743.607,-305.064 745.082,-298.222"/>
</g>
<!-- Node15 -->
<g id="node15" class="node"><title>Node15</title>
<g id="a_node15"><a xlink:href="Input_8hpp.html" target="_top" xlink:title="Render/Input.hpp">
<polygon fill="none" stroke="black" points="0,-56.5 0,-75.5 98,-75.5 98,-56.5 0,-56.5"/>
<text text-anchor="middle" x="49" y="-63.5" font-family="Helvetica,sans-Serif" font-size="10.00">Render/Input.hpp</text>
</a>
</g>
</g>
<!-- Node1&#45;&gt;Node15 -->
<g id="edge72" class="edge"><title>Node1&#45;&gt;Node15</title>
<path fill="none" stroke="midnightblue" d="M1109.31,-397.173C825.977,-385.215 11,-346.035 11,-291 11,-291 11,-291 11,-177 11,-142.813 27.6005,-105.764 38.8573,-84.5707"/>
<polygon fill="midnightblue" stroke="midnightblue" points="41.9473,-86.2151 43.7163,-75.769 35.8191,-82.832 41.9473,-86.2151"/>
</g>
<!-- Node24 -->
<g id="node24" class="node"><title>Node24</title>
<g id="a_node24"><a xlink:href="Color_8hpp.html" target="_top" xlink:title="Color.hpp">
<polygon fill="none" stroke="black" points="1288,-168.5 1288,-187.5 1350,-187.5 1350,-168.5 1288,-168.5"/>
<text text-anchor="middle" x="1319" y="-175.5" font-family="Helvetica,sans-Serif" font-size="10.00">Color.hpp</text>
</a>
</g>
</g>
<!-- Node1&#45;&gt;Node24 -->
<g id="edge73" class="edge"><title>Node1&#45;&gt;Node24</title>
<path fill="none" stroke="midnightblue" d="M1223.96,-392.419C1238.62,-384.844 1258.32,-372.448 1270,-356 1305.34,-306.257 1315.22,-231.975 1317.96,-197.638"/>
<polygon fill="midnightblue" stroke="midnightblue" points="1321.46,-197.832 1318.65,-187.618 1314.48,-197.357 1321.46,-197.832"/>
</g>
<!-- Node27 -->
<g id="node27" class="node"><title>Node27</title>
<polygon fill="none" stroke="#bfbfbf" points="1091.5,-168.5 1091.5,-187.5 1184.5,-187.5 1184.5,-168.5 1091.5,-168.5"/>
<text text-anchor="middle" x="1138" y="-175.5" font-family="Helvetica,sans-Serif" font-size="10.00">SFML/Audio.hpp</text>
</g>
<!-- Node1&#45;&gt;Node27 -->
<g id="edge55" class="edge"><title>Node1&#45;&gt;Node27</title>
<path fill="none" stroke="midnightblue" d="M1186.77,-392.48C1172.08,-384.789 1151.82,-372.203 1139,-356 1105.91,-314.189 1105.72,-296.427 1096,-244 1094.38,-235.26 1092.74,-232.27 1096,-224 1100.51,-212.548 1109.47,-202.291 1117.95,-194.472"/>
<polygon fill="midnightblue" stroke="midnightblue" points="1120.47,-196.927 1125.79,-187.764 1115.91,-191.611 1120.47,-196.927"/>
</g>
<!-- Node29 -->
<g id="node29" class="node"><title>Node29</title>
<polygon fill="none" stroke="#bfbfbf" points="1658,-168.5 1658,-187.5 1766,-187.5 1766,-168.5 1658,-168.5"/>
<text text-anchor="middle" x="1712" y="-175.5" font-family="Helvetica,sans-Serif" font-size="10.00">SFML/Graphics.hpp</text>
</g>
<!-- Node1&#45;&gt;Node29 -->
<g id="edge54" class="edge"><title>Node1&#45;&gt;Node29</title>
<path fill="none" stroke="midnightblue" d="M1249.75,-392.487C1287.63,-384.722 1343.08,-372.027 1390,-356 1505.6,-316.513 1538.85,-310.997 1641,-244 1662.49,-229.902 1683.79,-209.28 1697.37,-195.063"/>
<polygon fill="midnightblue" stroke="midnightblue" points="1700.14,-197.225 1704.41,-187.531 1695.03,-192.444 1700.14,-197.225"/>
</g>
<!-- Node30 -->
<g id="node30" class="node"><title>Node30</title>
<polygon fill="none" stroke="#bfbfbf" points="1322.5,-336.5 1322.5,-355.5 1381.5,-355.5 1381.5,-336.5 1322.5,-336.5"/>
<text text-anchor="middle" x="1352" y="-343.5" font-family="Helvetica,sans-Serif" font-size="10.00">iostream</text>
</g>
<!-- Node1&#45;&gt;Node30 -->
<g id="edge56" class="edge"><title>Node1&#45;&gt;Node30</title>
<path fill="none" stroke="midnightblue" d="M1228.29,-392.444C1252.81,-383.438 1291.6,-369.189 1319.2,-359.049"/>
<polygon fill="midnightblue" stroke="midnightblue" points="1320.64,-362.25 1328.82,-355.516 1318.22,-355.679 1320.64,-362.25"/>
</g>
<!-- Node31 -->
<g id="node31" class="node"><title>Node31</title>
<g id="a_node31"><a xlink:href="RtypeResources_8hpp.html" target="_top" xlink:title="RtypeResources.hpp">
<polygon fill="none" stroke="black" points="1148.5,-336.5 1148.5,-355.5 1261.5,-355.5 1261.5,-336.5 1148.5,-336.5"/>
<text text-anchor="middle" x="1205" y="-343.5" font-family="Helvetica,sans-Serif" font-size="10.00">RtypeResources.hpp</text>
</a>
</g>
</g>
<!-- Node1&#45;&gt;Node31 -->
<g id="edge57" class="edge"><title>Node1&#45;&gt;Node31</title>
<path fill="none" stroke="midnightblue" d="M1205,-392.083C1205,-385.006 1205,-374.861 1205,-365.986"/>
<polygon fill="midnightblue" stroke="midnightblue" points="1208.5,-365.751 1205,-355.751 1201.5,-365.751 1208.5,-365.751"/>
</g>
<!-- Node3 -->
<g id="node3" class="node"><title>Node3</title>
<polygon fill="none" stroke="#bfbfbf" points="153.5,-112.5 153.5,-131.5 210.5,-131.5 210.5,-112.5 153.5,-112.5"/>
<text text-anchor="middle" x="182" y="-119.5" font-family="Helvetica,sans-Serif" font-size="10.00">memory</text>
</g>
<!-- Node2&#45;&gt;Node3 -->
<g id="edge2" class="edge"><title>Node2&#45;&gt;Node3</title>
<path fill="none" stroke="midnightblue" d="M637.552,-287.883C512.636,-284.886 224.98,-274.694 194,-244 166.97,-217.219 172.054,-168.164 177.43,-141.479"/>
<polygon fill="midnightblue" stroke="midnightblue" points="180.886,-142.065 179.659,-131.542 174.055,-140.533 180.886,-142.065"/>
</g>
<!-- Node4 -->
<g id="node4" class="node"><title>Node4</title>
<polygon fill="none" stroke="#bfbfbf" points="681.5,-112.5 681.5,-131.5 728.5,-131.5 728.5,-112.5 681.5,-112.5"/>
<text text-anchor="middle" x="705" y="-119.5" font-family="Helvetica,sans-Serif" font-size="10.00">vector</text>
</g>
<!-- Node2&#45;&gt;Node4 -->
<g id="edge3" class="edge"><title>Node2&#45;&gt;Node4</title>
<path fill="none" stroke="midnightblue" d="M695.538,-280.075C697.112,-253.945 701.734,-177.211 703.881,-141.577"/>
<polygon fill="midnightblue" stroke="midnightblue" points="707.376,-141.761 704.484,-131.568 700.389,-141.34 707.376,-141.761"/>
</g>
<!-- Node5 -->
<g id="node5" class="node"><title>Node5</title>
<polygon fill="none" stroke="#bfbfbf" points="976,-56.5 976,-75.5 1020,-75.5 1020,-56.5 976,-56.5"/>
<text text-anchor="middle" x="998" y="-63.5" font-family="Helvetica,sans-Serif" font-size="10.00">string</text>
</g>
<!-- Node2&#45;&gt;Node5 -->
<g id="edge4" class="edge"><title>Node2&#45;&gt;Node5</title>
<path fill="none" stroke="midnightblue" d="M752.255,-283.701C787.309,-278.186 831.679,-266.937 865,-244 924.538,-203.016 915.539,-168.988 960,-112 967.548,-102.326 976.369,-91.8332 983.612,-83.4155"/>
<polygon fill="midnightblue" stroke="midnightblue" points="986.312,-85.6435 990.222,-75.7964 981.025,-81.056 986.312,-85.6435"/>
</g>
<!-- Node6 -->
<g id="node6" class="node"><title>Node6</title>
<polygon fill="none" stroke="#bfbfbf" points="267,-168.5 267,-187.5 305,-187.5 305,-168.5 267,-168.5"/>
<text text-anchor="middle" x="286" y="-175.5" font-family="Helvetica,sans-Serif" font-size="10.00">map</text>
</g>
<!-- Node2&#45;&gt;Node6 -->
<g id="edge5" class="edge"><title>Node2&#45;&gt;Node6</title>
<path fill="none" stroke="midnightblue" d="M640.353,-280.492C594.042,-272.731 526.092,-260.038 468,-244 412.807,-228.763 350.322,-204.956 314.794,-190.775"/>
<polygon fill="midnightblue" stroke="midnightblue" points="315.677,-187.358 305.094,-186.875 313.066,-193.853 315.677,-187.358"/>
</g>
<!-- Node7 -->
<g id="node7" class="node"><title>Node7</title>
<g id="a_node7"><a xlink:href="IComponent_8hpp.html" target="_top" xlink:title="IComponent.hpp">
<polygon fill="none" stroke="black" points="784,-56.5 784,-75.5 880,-75.5 880,-56.5 784,-56.5"/>
<text text-anchor="middle" x="832" y="-63.5" font-family="Helvetica,sans-Serif" font-size="10.00">IComponent.hpp</text>
</a>
</g>
</g>
<!-- Node2&#45;&gt;Node7 -->
<g id="edge6" class="edge"><title>Node2&#45;&gt;Node7</title>
<path fill="none" stroke="midnightblue" d="M752.157,-287.729C784.959,-283.689 823.739,-272.575 845,-244 880.503,-196.282 855.074,-119.891 840.417,-85.1974"/>
<polygon fill="midnightblue" stroke="midnightblue" points="843.531,-83.5844 836.293,-75.8471 837.126,-86.4092 843.531,-83.5844"/>
</g>
<!-- Node9 -->
<g id="node9" class="node"><title>Node9</title>
<g id="a_node9"><a xlink:href="ComponentManager_8hpp.html" target="_top" xlink:title="ComponentManager.hpp">
<polygon fill="none" stroke="black" points="218.5,-224.5 218.5,-243.5 353.5,-243.5 353.5,-224.5 218.5,-224.5"/>
<text text-anchor="middle" x="286" y="-231.5" font-family="Helvetica,sans-Serif" font-size="10.00">ComponentManager.hpp</text>
</a>
</g>
</g>
<!-- Node2&#45;&gt;Node9 -->
<g id="edge8" class="edge"><title>Node2&#45;&gt;Node9</title>
<path fill="none" stroke="midnightblue" d="M637.7,-281.435C565.279,-271.873 440.464,-255.394 360.652,-244.856"/>
<polygon fill="midnightblue" stroke="midnightblue" points="361.038,-241.377 350.666,-243.538 360.122,-248.317 361.038,-241.377"/>
</g>
<!-- Node12 -->
<g id="node12" class="node"><title>Node12</title>
<g id="a_node12"><a xlink:href="Entity_8hpp.html" target="_top" xlink:title="Entity.hpp">
<polygon fill="none" stroke="black" points="562.5,-112.5 562.5,-131.5 625.5,-131.5 625.5,-112.5 562.5,-112.5"/>
<text text-anchor="middle" x="594" y="-119.5" font-family="Helvetica,sans-Serif" font-size="10.00">Entity.hpp</text>
</a>
</g>
</g>
<!-- Node2&#45;&gt;Node12 -->
<g id="edge17" class="edge"><title>Node2&#45;&gt;Node12</title>
<path fill="none" stroke="midnightblue" d="M691.567,-280.367C683.247,-259.92 660.707,-207.307 634,-168 627.039,-157.755 617.951,-147.352 610.198,-139.133"/>
<polygon fill="midnightblue" stroke="midnightblue" points="612.491,-136.471 603.017,-131.729 607.466,-141.344 612.491,-136.471"/>
</g>
<!-- Node13 -->
<g id="node13" class="node"><title>Node13</title>
<g id="a_node13"><a xlink:href="EntityManager_8hpp.html" target="_top" xlink:title="EntityManager.hpp">
<polygon fill="none" stroke="black" points="477,-224.5 477,-243.5 583,-243.5 583,-224.5 477,-224.5"/>
<text text-anchor="middle" x="530" y="-231.5" font-family="Helvetica,sans-Serif" font-size="10.00">EntityManager.hpp</text>
</a>
</g>
</g>
<!-- Node2&#45;&gt;Node13 -->
<g id="edge18" class="edge"><title>Node2&#45;&gt;Node13</title>
<path fill="none" stroke="midnightblue" d="M668.855,-280.444C640.977,-271.32 596.652,-256.813 565.6,-246.651"/>
<polygon fill="midnightblue" stroke="midnightblue" points="566.615,-243.3 556.022,-243.516 564.438,-249.953 566.615,-243.3"/>
</g>
<!-- Node14 -->
<g id="node14" class="node"><title>Node14</title>
<g id="a_node14"><a xlink:href="PacketManager_8hpp.html" target="_top" xlink:title="PacketManager.hpp">
<polygon fill="none" stroke="black" points="434,-112.5 434,-131.5 544,-131.5 544,-112.5 434,-112.5"/>
<text text-anchor="middle" x="489" y="-119.5" font-family="Helvetica,sans-Serif" font-size="10.00">PacketManager.hpp</text>
</a>
</g>
</g>
<!-- Node2&#45;&gt;Node14 -->
<g id="edge50" class="edge"><title>Node2&#45;&gt;Node14</title>
<path fill="none" stroke="midnightblue" d="M637.672,-287.934C515.32,-285.065 237.401,-275.153 209,-244 142.429,-170.98 321.654,-140.123 423.732,-128.758"/>
<polygon fill="midnightblue" stroke="midnightblue" points="424.396,-132.207 433.964,-127.655 423.646,-125.247 424.396,-132.207"/>
</g>
<!-- Node2&#45;&gt;Node15 -->
<g id="edge49" class="edge"><title>Node2&#45;&gt;Node15</title>
<path fill="none" stroke="midnightblue" d="M637.59,-289.883C519.778,-290.757 255.282,-287.626 178,-244 112.902,-207.252 71.7112,-122.561 56.0994,-85.2341"/>
<polygon fill="midnightblue" stroke="midnightblue" points="59.2198,-83.6144 52.2255,-75.6563 52.7305,-86.2391 59.2198,-83.6144"/>
</g>
<!-- Node17 -->
<g id="node17" class="node"><title>Node17</title>
<g id="a_node17"><a xlink:href="Sprite_8hpp.html" target="_top" xlink:title="Display/Sprite.hpp">
<polygon fill="none" stroke="black" points="969,-168.5 969,-187.5 1073,-187.5 1073,-168.5 969,-168.5"/>
<text text-anchor="middle" x="1021" y="-175.5" font-family="Helvetica,sans-Serif" font-size="10.00">Display/Sprite.hpp</text>
</a>
</g>
</g>
<!-- Node2&#45;&gt;Node17 -->
<g id="edge31" class="edge"><title>Node2&#45;&gt;Node17</title>
<path fill="none" stroke="midnightblue" d="M752.09,-288.795C806.935,-286.434 890.721,-277.022 955,-244 977.242,-232.574 996.813,-211.049 1008.75,-195.909"/>
<polygon fill="midnightblue" stroke="midnightblue" points="1011.61,-197.938 1014.86,-187.856 1006.03,-193.706 1011.61,-197.938"/>
</g>
<!-- Node20 -->
<g id="node20" class="node"><title>Node20</title>
<g id="a_node20"><a xlink:href="Position_8hpp.html" target="_top" xlink:title="Physics/Position.hpp">
<polygon fill="none" stroke="black" points="723.5,-224.5 723.5,-243.5 836.5,-243.5 836.5,-224.5 723.5,-224.5"/>
<text text-anchor="middle" x="780" y="-231.5" font-family="Helvetica,sans-Serif" font-size="10.00">Physics/Position.hpp</text>
</a>
</g>
</g>
<!-- Node2&#45;&gt;Node20 -->
<g id="edge38" class="edge"><title>Node2&#45;&gt;Node20</title>
<path fill="none" stroke="midnightblue" d="M708.657,-280.324C721.916,-271.9 742.268,-258.971 757.846,-249.074"/>
<polygon fill="midnightblue" stroke="midnightblue" points="759.813,-251.971 766.377,-243.655 756.06,-246.063 759.813,-251.971"/>
</g>
<!-- Node23 -->
<g id="node23" class="node"><title>Node23</title>
<g id="a_node23"><a xlink:href="Text_8hpp.html" target="_top" xlink:title="Display/Text.hpp">
<polygon fill="none" stroke="black" points="1327,-224.5 1327,-243.5 1421,-243.5 1421,-224.5 1327,-224.5"/>
<text text-anchor="middle" x="1374" y="-231.5" font-family="Helvetica,sans-Serif" font-size="10.00">Display/Text.hpp</text>
</a>
</g>
</g>
<!-- Node2&#45;&gt;Node23 -->
<g id="edge42" class="edge"><title>Node2&#45;&gt;Node23</title>
<path fill="none" stroke="midnightblue" d="M752.144,-284.582C854.956,-276.614 1077.93,-259.247 1266,-244 1282.54,-242.659 1300.5,-241.174 1316.94,-239.803"/>
<polygon fill="midnightblue" stroke="midnightblue" points="1317.28,-243.287 1326.96,-238.967 1316.7,-236.311 1317.28,-243.287"/>
</g>
<!-- Node26 -->
<g id="node26" class="node"><title>Node26</title>
<g id="a_node26"><a xlink:href="Music_8hpp.html" target="_top" xlink:title="Music.hpp">
<polygon fill="none" stroke="black" points="1105.5,-224.5 1105.5,-243.5 1170.5,-243.5 1170.5,-224.5 1105.5,-224.5"/>
<text text-anchor="middle" x="1138" y="-231.5" font-family="Helvetica,sans-Serif" font-size="10.00">Music.hpp</text>
</a>
</g>
</g>
<!-- Node2&#45;&gt;Node26 -->
<g id="edge51" class="edge"><title>Node2&#45;&gt;Node26</title>
<path fill="none" stroke="midnightblue" d="M752.008,-282.051C842.025,-271.078 1015.08,-249.984 1095.27,-240.209"/>
<polygon fill="midnightblue" stroke="midnightblue" points="1095.99,-243.647 1105.49,-238.962 1095.14,-236.698 1095.99,-243.647"/>
</g>
<!-- Node8 -->
<g id="node8" class="node"><title>Node8</title>
<polygon fill="none" stroke="#bfbfbf" points="1409.5,-0.5 1409.5,-19.5 1472.5,-19.5 1472.5,-0.5 1409.5,-0.5"/>
<text text-anchor="middle" x="1441" y="-7.5" font-family="Helvetica,sans-Serif" font-size="10.00">typeindex</text>
</g>
<!-- Node7&#45;&gt;Node8 -->
<g id="edge7" class="edge"><title>Node7&#45;&gt;Node8</title>
<path fill="none" stroke="midnightblue" d="M880.041,-60.7402C996.088,-50.4503 1290.14,-24.3765 1399.34,-14.6941"/>
<polygon fill="midnightblue" stroke="midnightblue" points="1399.67,-18.179 1409.32,-13.8094 1399.05,-11.2064 1399.67,-18.179"/>
</g>
<!-- Node9&#45;&gt;Node3 -->
<g id="edge10" class="edge"><title>Node9&#45;&gt;Node3</title>
<path fill="none" stroke="midnightblue" d="M271.568,-224.419C258.449,-216.165 239.05,-202.788 225,-188 211.351,-173.634 199.246,-154.432 191.385,-140.629"/>
<polygon fill="midnightblue" stroke="midnightblue" points="194.343,-138.746 186.45,-131.679 188.213,-142.126 194.343,-138.746"/>
</g>
<!-- Node9&#45;&gt;Node6 -->
<g id="edge9" class="edge"><title>Node9&#45;&gt;Node6</title>
<path fill="none" stroke="midnightblue" d="M286,-224.083C286,-217.006 286,-206.861 286,-197.986"/>
<polygon fill="midnightblue" stroke="midnightblue" points="289.5,-197.751 286,-187.751 282.5,-197.751 289.5,-197.751"/>
</g>
<!-- Node9&#45;&gt;Node7 -->
<g id="edge11" class="edge"><title>Node9&#45;&gt;Node7</title>
<path fill="none" stroke="midnightblue" d="M277.153,-224.462C264.816,-211.498 245.31,-186.414 258,-168 297.673,-110.433 337,-128.244 405,-112 534.323,-81.1068 690.73,-71.4175 773.696,-68.382"/>
<polygon fill="midnightblue" stroke="midnightblue" points="774.057,-71.8716 783.93,-68.0278 773.815,-64.8758 774.057,-71.8716"/>
</g>
<!-- Node10 -->
<g id="node10" class="node"><title>Node10</title>
<g id="a_node10"><a xlink:href="IComponentManager_8hpp.html" target="_top" xlink:title="IComponentManager.hpp">
<polygon fill="none" stroke="black" points="323.5,-168.5 323.5,-187.5 460.5,-187.5 460.5,-168.5 323.5,-168.5"/>
<text text-anchor="middle" x="392" y="-175.5" font-family="Helvetica,sans-Serif" font-size="10.00">IComponentManager.hpp</text>
</a>
</g>
</g>
<!-- Node9&#45;&gt;Node10 -->
<g id="edge12" class="edge"><title>Node9&#45;&gt;Node10</title>
<path fill="none" stroke="midnightblue" d="M303.031,-224.324C320.03,-215.664 346.376,-202.242 365.993,-192.249"/>
<polygon fill="midnightblue" stroke="midnightblue" points="367.69,-195.312 375.012,-187.655 364.512,-189.075 367.69,-195.312"/>
</g>
<!-- Node10&#45;&gt;Node3 -->
<g id="edge14" class="edge"><title>Node10&#45;&gt;Node3</title>
<path fill="none" stroke="midnightblue" d="M358.725,-168.444C321.169,-158.786 260.162,-143.099 220.559,-132.915"/>
<polygon fill="midnightblue" stroke="midnightblue" points="221.289,-129.489 210.733,-130.388 219.546,-136.269 221.289,-129.489"/>
</g>
<!-- Node10&#45;&gt;Node7 -->
<g id="edge15" class="edge"><title>Node10&#45;&gt;Node7</title>
<path fill="none" stroke="midnightblue" d="M393.712,-168.084C396.995,-153.641 405.646,-125.399 425,-112 480.111,-73.8448 674.875,-67.484 773.644,-66.7802"/>
<polygon fill="midnightblue" stroke="midnightblue" points="773.778,-70.2796 783.759,-66.7255 773.74,-63.2797 773.778,-70.2796"/>
</g>
<!-- Node11 -->
<g id="node11" class="node"><title>Node11</title>
<polygon fill="none" stroke="#bfbfbf" points="413,-56.5 413,-75.5 443,-75.5 443,-56.5 413,-56.5"/>
<text text-anchor="middle" x="428" y="-63.5" font-family="Helvetica,sans-Serif" font-size="10.00">list</text>
</g>
<!-- Node10&#45;&gt;Node11 -->
<g id="edge13" class="edge"><title>Node10&#45;&gt;Node11</title>
<path fill="none" stroke="midnightblue" d="M390.222,-168.283C388.008,-155.516 385.276,-131.167 392,-112 395.785,-101.209 403.367,-91.084 410.6,-83.1808"/>
<polygon fill="midnightblue" stroke="midnightblue" points="413.326,-85.4005 417.838,-75.8145 408.333,-80.4943 413.326,-85.4005"/>
</g>
<!-- Node10&#45;&gt;Node12 -->
<g id="edge16" class="edge"><title>Node10&#45;&gt;Node12</title>
<path fill="none" stroke="midnightblue" d="M424.008,-168.444C458.831,-159.134 514.615,-144.222 552.713,-134.037"/>
<polygon fill="midnightblue" stroke="midnightblue" points="553.718,-137.391 562.475,-131.428 551.91,-130.629 553.718,-137.391"/>
</g>
<!-- Node13&#45;&gt;Node4 -->
<g id="edge20" class="edge"><title>Node13&#45;&gt;Node4</title>
<path fill="none" stroke="midnightblue" d="M555.987,-224.496C577.784,-216.736 609.233,-204.045 634,-188 655.574,-174.024 676.854,-153.378 690.405,-139.122"/>
<polygon fill="midnightblue" stroke="midnightblue" points="693.186,-141.271 697.435,-131.565 688.061,-136.503 693.186,-141.271"/>
</g>
<!-- Node13&#45;&gt;Node6 -->
<g id="edge19" class="edge"><title>Node13&#45;&gt;Node6</title>
<path fill="none" stroke="midnightblue" d="M481.617,-224.435C439.849,-216.701 377.738,-204.392 315.233,-188.113"/>
<polygon fill="midnightblue" stroke="midnightblue" points="315.763,-184.633 305.201,-185.466 313.977,-191.402 315.763,-184.633"/>
</g>
<!-- Node13&#45;&gt;Node10 -->
<g id="edge25" class="edge"><title>Node13&#45;&gt;Node10</title>
<path fill="none" stroke="midnightblue" d="M508.133,-224.444C485.221,-215.478 449.025,-201.314 423.134,-191.183"/>
<polygon fill="midnightblue" stroke="midnightblue" points="424.352,-187.901 413.764,-187.516 421.801,-194.42 424.352,-187.901"/>
</g>
<!-- Node13&#45;&gt;Node14 -->
<g id="edge21" class="edge"><title>Node13&#45;&gt;Node14</title>
<path fill="none" stroke="midnightblue" d="M525.159,-224.235C520.363,-215.309 513.026,-200.975 508,-188 502.028,-172.583 496.884,-154.49 493.46,-141.313"/>
<polygon fill="midnightblue" stroke="midnightblue" points="496.842,-140.411 491.008,-131.567 490.054,-142.119 496.842,-140.411"/>
</g>
<!-- Node16 -->
<g id="node16" class="node"><title>Node16</title>
<g id="a_node16"><a xlink:href="IEntityManager_8hpp.html" target="_top" xlink:title="IEntityManager.hpp">
<polygon fill="none" stroke="black" points="517,-168.5 517,-187.5 625,-187.5 625,-168.5 517,-168.5"/>
<text text-anchor="middle" x="571" y="-175.5" font-family="Helvetica,sans-Serif" font-size="10.00">IEntityManager.hpp</text>
</a>
</g>
</g>
<!-- Node13&#45;&gt;Node16 -->
<g id="edge26" class="edge"><title>Node13&#45;&gt;Node16</title>
<path fill="none" stroke="midnightblue" d="M536.77,-224.083C542.562,-216.455 551.058,-205.264 558.138,-195.941"/>
<polygon fill="midnightblue" stroke="midnightblue" points="561.096,-197.832 564.356,-187.751 555.521,-193.599 561.096,-197.832"/>
</g>
<!-- Node14&#45;&gt;Node5 -->
<g id="edge22" class="edge"><title>Node14&#45;&gt;Node5</title>
<path fill="none" stroke="midnightblue" d="M544.14,-113.107C547.136,-112.722 550.104,-112.35 553,-112 707.301,-93.3561 892.349,-76.3573 965.74,-69.8283"/>
<polygon fill="midnightblue" stroke="midnightblue" points="966.089,-73.3111 975.741,-68.942 965.471,-66.3385 966.089,-73.3111"/>
</g>
<!-- Node14&#45;&gt;Node11 -->
<g id="edge23" class="edge"><title>Node14&#45;&gt;Node11</title>
<path fill="none" stroke="midnightblue" d="M479.199,-112.324C470.182,-104.341 456.594,-92.3128 445.682,-82.6529"/>
<polygon fill="midnightblue" stroke="midnightblue" points="447.787,-79.8416 437.979,-75.8339 443.147,-85.083 447.787,-79.8416"/>
</g>
<!-- Node14&#45;&gt;Node15 -->
<g id="edge24" class="edge"><title>Node14&#45;&gt;Node15</title>
<path fill="none" stroke="midnightblue" d="M433.719,-114.216C350.546,-104.008 193.879,-84.7806 108.369,-74.2862"/>
<polygon fill="midnightblue" stroke="midnightblue" points="108.655,-70.7951 98.3032,-73.0508 107.802,-77.743 108.655,-70.7951"/>
</g>
<!-- Node16&#45;&gt;Node3 -->
<g id="edge27" class="edge"><title>Node16&#45;&gt;Node3</title>
<path fill="none" stroke="midnightblue" d="M516.911,-169.492C437.285,-158.438 290.431,-138.052 220.703,-128.373"/>
<polygon fill="midnightblue" stroke="midnightblue" points="220.981,-124.878 210.594,-126.969 220.018,-131.811 220.981,-124.878"/>
</g>
<!-- Node16&#45;&gt;Node4 -->
<g id="edge28" class="edge"><title>Node16&#45;&gt;Node4</title>
<path fill="none" stroke="midnightblue" d="M592.233,-168.444C614.384,-159.517 649.319,-145.439 674.436,-135.317"/>
<polygon fill="midnightblue" stroke="midnightblue" points="675.9,-138.501 683.867,-131.516 673.283,-132.008 675.9,-138.501"/>
</g>
<!-- Node16&#45;&gt;Node12 -->
<g id="edge29" class="edge"><title>Node16&#45;&gt;Node12</title>
<path fill="none" stroke="midnightblue" d="M574.798,-168.083C577.913,-160.77 582.423,-150.181 586.289,-141.103"/>
<polygon fill="midnightblue" stroke="midnightblue" points="589.574,-142.323 590.273,-131.751 583.134,-139.58 589.574,-142.323"/>
</g>
<!-- Node16&#45;&gt;Node14 -->
<g id="edge30" class="edge"><title>Node16&#45;&gt;Node14</title>
<path fill="none" stroke="midnightblue" d="M557.825,-168.324C545.153,-159.979 525.767,-147.212 510.794,-137.352"/>
<polygon fill="midnightblue" stroke="midnightblue" points="512.419,-134.231 502.142,-131.655 508.569,-140.078 512.419,-134.231"/>
</g>
<!-- Node17&#45;&gt;Node5 -->
<g id="edge32" class="edge"><title>Node17&#45;&gt;Node5</title>
<path fill="none" stroke="midnightblue" d="M1026.07,-168.392C1032.84,-155.759 1043.16,-131.578 1036,-112 1031.94,-100.908 1023.81,-90.6651 1016.11,-82.7625"/>
<polygon fill="midnightblue" stroke="midnightblue" points="1018.36,-80.0747 1008.71,-75.6955 1013.53,-85.1351 1018.36,-80.0747"/>
</g>
<!-- Node17&#45;&gt;Node8 -->
<g id="edge33" class="edge"><title>Node17&#45;&gt;Node8</title>
<path fill="none" stroke="midnightblue" d="M1073.22,-169.152C1076.19,-168.751 1079.13,-168.364 1082,-168 1157.16,-158.469 1365.9,-183.992 1421,-132 1448.91,-105.661 1447.43,-56.4256 1444.11,-29.5946"/>
<polygon fill="midnightblue" stroke="midnightblue" points="1447.56,-28.9909 1442.66,-19.5994 1440.64,-29.9993 1447.56,-28.9909"/>
</g>
<!-- Node18 -->
<g id="node18" class="node"><title>Node18</title>
<g id="a_node18"><a xlink:href="Rect_8hpp.html" target="_top" xlink:title="Rect.hpp">
<polygon fill="none" stroke="black" points="969,-112.5 969,-131.5 1027,-131.5 1027,-112.5 969,-112.5"/>
<text text-anchor="middle" x="998" y="-119.5" font-family="Helvetica,sans-Serif" font-size="10.00">Rect.hpp</text>
</a>
</g>
</g>
<!-- Node17&#45;&gt;Node18 -->
<g id="edge34" class="edge"><title>Node17&#45;&gt;Node18</title>
<path fill="none" stroke="midnightblue" d="M1017.2,-168.083C1014.09,-160.77 1009.58,-150.181 1005.71,-141.103"/>
<polygon fill="midnightblue" stroke="midnightblue" points="1008.87,-139.58 1001.73,-131.751 1002.43,-142.323 1008.87,-139.58"/>
</g>
<!-- Node19 -->
<g id="node19" class="node"><title>Node19</title>
<g id="a_node19"><a xlink:href="IDisplay_8hpp.html" target="_top" xlink:title="IDisplay.hpp">
<polygon fill="none" stroke="black" points="1339.5,-112.5 1339.5,-131.5 1412.5,-131.5 1412.5,-112.5 1339.5,-112.5"/>
<text text-anchor="middle" x="1376" y="-119.5" font-family="Helvetica,sans-Serif" font-size="10.00">IDisplay.hpp</text>
</a>
</g>
</g>
<!-- Node17&#45;&gt;Node19 -->
<g id="edge35" class="edge"><title>Node17&#45;&gt;Node19</title>
<path fill="none" stroke="midnightblue" d="M1073,-169.09C1142.01,-158.593 1262.84,-140.214 1329.15,-130.127"/>
<polygon fill="midnightblue" stroke="midnightblue" points="1329.95,-133.545 1339.31,-128.581 1328.9,-126.625 1329.95,-133.545"/>
</g>
<!-- Node19&#45;&gt;Node7 -->
<g id="edge37" class="edge"><title>Node19&#45;&gt;Node7</title>
<path fill="none" stroke="midnightblue" d="M1339.46,-117.373C1246.94,-108.189 1002.79,-83.9537 890.286,-72.7858"/>
<polygon fill="midnightblue" stroke="midnightblue" points="890.44,-69.2839 880.143,-71.7789 889.748,-76.2497 890.44,-69.2839"/>
</g>
<!-- Node19&#45;&gt;Node8 -->
<g id="edge36" class="edge"><title>Node19&#45;&gt;Node8</title>
<path fill="none" stroke="midnightblue" d="M1381.1,-112.368C1391.78,-94.2957 1416.67,-52.1764 1430.77,-28.3074"/>
<polygon fill="midnightblue" stroke="midnightblue" points="1433.85,-29.9813 1435.92,-19.5914 1427.82,-26.4201 1433.85,-29.9813"/>
</g>
<!-- Node21 -->
<g id="node21" class="node"><title>Node21</title>
<polygon fill="none" stroke="#bfbfbf" points="757,-168.5 757,-187.5 799,-187.5 799,-168.5 757,-168.5"/>
<text text-anchor="middle" x="778" y="-175.5" font-family="Helvetica,sans-Serif" font-size="10.00">utility</text>
</g>
<!-- Node20&#45;&gt;Node21 -->
<g id="edge39" class="edge"><title>Node20&#45;&gt;Node21</title>
<path fill="none" stroke="midnightblue" d="M779.67,-224.083C779.408,-217.006 779.032,-206.861 778.703,-197.986"/>
<polygon fill="midnightblue" stroke="midnightblue" points="782.192,-197.615 778.324,-187.751 775.197,-197.874 782.192,-197.615"/>
</g>
<!-- Node22 -->
<g id="node22" class="node"><title>Node22</title>
<g id="a_node22"><a xlink:href="IPhysics_8hpp.html" target="_top" xlink:title="IPhysics.hpp">
<polygon fill="none" stroke="black" points="761.5,-112.5 761.5,-131.5 836.5,-131.5 836.5,-112.5 761.5,-112.5"/>
<text text-anchor="middle" x="799" y="-119.5" font-family="Helvetica,sans-Serif" font-size="10.00">IPhysics.hpp</text>
</a>
</g>
</g>
<!-- Node20&#45;&gt;Node22 -->
<g id="edge40" class="edge"><title>Node20&#45;&gt;Node22</title>
<path fill="none" stroke="midnightblue" d="M787.412,-224.411C794.276,-215.844 804.006,-201.979 808,-188 812.401,-172.596 809.251,-154.502 805.518,-141.321"/>
<polygon fill="midnightblue" stroke="midnightblue" points="808.78,-140.029 802.398,-131.571 802.113,-142.162 808.78,-140.029"/>
</g>
<!-- Node22&#45;&gt;Node7 -->
<g id="edge41" class="edge"><title>Node22&#45;&gt;Node7</title>
<path fill="none" stroke="midnightblue" d="M804.449,-112.083C809.014,-104.613 815.668,-93.7244 821.293,-84.5199"/>
<polygon fill="midnightblue" stroke="midnightblue" points="824.424,-86.109 826.652,-75.7511 818.451,-82.4588 824.424,-86.109"/>
</g>
<!-- Node23&#45;&gt;Node5 -->
<g id="edge44" class="edge"><title>Node23&#45;&gt;Node5</title>
<path fill="none" stroke="midnightblue" d="M1374.6,-224.124C1375.03,-210.248 1373.72,-183.411 1359,-168 1312.97,-119.804 1109.54,-84.0805 1030.02,-71.7198"/>
<polygon fill="midnightblue" stroke="midnightblue" points="1030.49,-68.2523 1020.08,-70.1972 1029.43,-75.1715 1030.49,-68.2523"/>
</g>
<!-- Node23&#45;&gt;Node8 -->
<g id="edge43" class="edge"><title>Node23&#45;&gt;Node8</title>
<path fill="none" stroke="midnightblue" d="M1421.1,-232.14C1454.32,-228.758 1496.72,-218.24 1519,-188 1558.09,-134.938 1491.4,-59.2015 1458.14,-26.7465"/>
<polygon fill="midnightblue" stroke="midnightblue" points="1460.52,-24.1734 1450.86,-19.8093 1455.69,-29.2414 1460.52,-24.1734"/>
</g>
<!-- Node23&#45;&gt;Node24 -->
<g id="edge45" class="edge"><title>Node23&#45;&gt;Node24</title>
<path fill="none" stroke="midnightblue" d="M1364.92,-224.083C1356.83,-216.141 1344.8,-204.335 1335.09,-194.797"/>
<polygon fill="midnightblue" stroke="midnightblue" points="1337.5,-192.26 1327.91,-187.751 1332.6,-197.254 1337.5,-192.26"/>
</g>
<!-- Node25 -->
<g id="node25" class="node"><title>Node25</title>
<g id="a_node25"><a xlink:href="IUserInterface_8hpp.html" target="_top" xlink:title="IUserInterface.hpp">
<polygon fill="none" stroke="black" points="1406,-168.5 1406,-187.5 1510,-187.5 1510,-168.5 1406,-168.5"/>
<text text-anchor="middle" x="1458" y="-175.5" font-family="Helvetica,sans-Serif" font-size="10.00">IUserInterface.hpp</text>
</a>
</g>
</g>
<!-- Node23&#45;&gt;Node25 -->
<g id="edge46" class="edge"><title>Node23&#45;&gt;Node25</title>
<path fill="none" stroke="midnightblue" d="M1387.5,-224.324C1400.6,-215.9 1420.71,-202.971 1436.11,-193.074"/>
<polygon fill="midnightblue" stroke="midnightblue" points="1438.02,-196.006 1444.54,-187.655 1434.23,-190.118 1438.02,-196.006"/>
</g>
<!-- Node25&#45;&gt;Node8 -->
<g id="edge47" class="edge"><title>Node25&#45;&gt;Node8</title>
<path fill="none" stroke="midnightblue" d="M1458.59,-168.416C1459.8,-148.5 1461.86,-97.6757 1455,-56 1453.52,-47.0186 1450.68,-37.345 1447.95,-29.277"/>
<polygon fill="midnightblue" stroke="midnightblue" points="1451.21,-28.0125 1444.53,-19.7889 1444.63,-30.3833 1451.21,-28.0125"/>
</g>
<!-- Node25&#45;&gt;Node19 -->
<g id="edge48" class="edge"><title>Node25&#45;&gt;Node19</title>
<path fill="none" stroke="midnightblue" d="M1444.83,-168.324C1432.15,-159.979 1412.77,-147.212 1397.79,-137.352"/>
<polygon fill="midnightblue" stroke="midnightblue" points="1399.42,-134.231 1389.14,-131.655 1395.57,-140.078 1399.42,-134.231"/>
</g>
<!-- Node26&#45;&gt;Node27 -->
<g id="edge52" class="edge"><title>Node26&#45;&gt;Node27</title>
<path fill="none" stroke="midnightblue" d="M1138,-224.083C1138,-217.006 1138,-206.861 1138,-197.986"/>
<polygon fill="midnightblue" stroke="midnightblue" points="1141.5,-197.751 1138,-187.751 1134.5,-197.751 1141.5,-197.751"/>
</g>
<!-- Node28 -->
<g id="node28" class="node"><title>Node28</title>
<g id="a_node28"><a xlink:href="IAudio_8hpp.html" target="_top" xlink:title="IAudio.hpp">
<polygon fill="none" stroke="black" points="1202.5,-168.5 1202.5,-187.5 1269.5,-187.5 1269.5,-168.5 1202.5,-168.5"/>
<text text-anchor="middle" x="1236" y="-175.5" font-family="Helvetica,sans-Serif" font-size="10.00">IAudio.hpp</text>
</a>
</g>
</g>
<!-- Node26&#45;&gt;Node28 -->
<g id="edge53" class="edge"><title>Node26&#45;&gt;Node28</title>
<path fill="none" stroke="midnightblue" d="M1153.75,-224.324C1169.32,-215.743 1193.38,-202.486 1211.46,-192.522"/>
<polygon fill="midnightblue" stroke="midnightblue" points="1213.22,-195.546 1220.29,-187.655 1209.85,-189.415 1213.22,-195.546"/>
</g>
<!-- Node32 -->
<g id="node32" class="node"><title>Node32</title>
<g id="a_node32"><a xlink:href="ResourceManager_8hpp.html" target="_top" xlink:title="ResourceManager.hpp">
<polygon fill="none" stroke="black" points="1144,-280.5 1144,-299.5 1266,-299.5 1266,-280.5 1144,-280.5"/>
<text text-anchor="middle" x="1205" y="-287.5" font-family="Helvetica,sans-Serif" font-size="10.00">ResourceManager.hpp</text>
</a>
</g>
</g>
<!-- Node31&#45;&gt;Node32 -->
<g id="edge58" class="edge"><title>Node31&#45;&gt;Node32</title>
<path fill="none" stroke="midnightblue" d="M1205,-336.083C1205,-329.006 1205,-318.861 1205,-309.986"/>
<polygon fill="midnightblue" stroke="midnightblue" points="1208.5,-309.751 1205,-299.751 1201.5,-309.751 1208.5,-309.751"/>
</g>
<!-- Node32&#45;&gt;Node3 -->
<g id="edge59" class="edge"><title>Node32&#45;&gt;Node3</title>
<path fill="none" stroke="midnightblue" d="M1143.95,-287.236C930.126,-280.932 226.982,-259.091 209,-244 179.282,-219.06 178.028,-169.254 179.887,-141.962"/>
<polygon fill="midnightblue" stroke="midnightblue" points="183.393,-142.055 180.801,-131.782 176.421,-141.429 183.393,-142.055"/>
</g>
<!-- Node32&#45;&gt;Node4 -->
<g id="edge60" class="edge"><title>Node32&#45;&gt;Node4</title>
<path fill="none" stroke="midnightblue" d="M1179.17,-280.425C1095.43,-252.624 831.499,-164.998 738.129,-133.999"/>
<polygon fill="midnightblue" stroke="midnightblue" points="739.212,-130.671 728.619,-130.841 737.007,-137.314 739.212,-130.671"/>
</g>
<!-- Node32&#45;&gt;Node23 -->
<g id="edge71" class="edge"><title>Node32&#45;&gt;Node23</title>
<path fill="none" stroke="midnightblue" d="M1231.78,-280.444C1260.33,-271.32 1305.73,-256.813 1337.54,-246.651"/>
<polygon fill="midnightblue" stroke="midnightblue" points="1338.89,-249.894 1347.35,-243.516 1336.76,-243.226 1338.89,-249.894"/>
</g>
<!-- Node32&#45;&gt;Node26 -->
<g id="edge61" class="edge"><title>Node32&#45;&gt;Node26</title>
<path fill="none" stroke="midnightblue" d="M1194.24,-280.324C1184.23,-272.263 1169.11,-260.077 1157.07,-250.369"/>
<polygon fill="midnightblue" stroke="midnightblue" points="1158.94,-247.384 1148.96,-243.834 1154.55,-252.834 1158.94,-247.384"/>
</g>
<!-- Node33 -->
<g id="node33" class="node"><title>Node33</title>
<g id="a_node33"><a xlink:href="ResourceManager_2Sound_8hpp.html" target="_top" xlink:title="Sound.hpp">
<polygon fill="none" stroke="black" points="1189,-224.5 1189,-243.5 1257,-243.5 1257,-224.5 1189,-224.5"/>
<text text-anchor="middle" x="1223" y="-231.5" font-family="Helvetica,sans-Serif" font-size="10.00">Sound.hpp</text>
</a>
</g>
</g>
<!-- Node32&#45;&gt;Node33 -->
<g id="edge62" class="edge"><title>Node32&#45;&gt;Node33</title>
<path fill="none" stroke="midnightblue" d="M1207.97,-280.083C1210.38,-272.849 1213.86,-262.409 1216.87,-253.397"/>
<polygon fill="midnightblue" stroke="midnightblue" points="1220.24,-254.345 1220.08,-243.751 1213.6,-252.131 1220.24,-254.345"/>
</g>
<!-- Node34 -->
<g id="node34" class="node"><title>Node34</title>
<g id="a_node34"><a xlink:href="Texture_8hpp.html" target="_top" xlink:title="Texture.hpp">
<polygon fill="none" stroke="black" points="1560,-224.5 1560,-243.5 1632,-243.5 1632,-224.5 1560,-224.5"/>
<text text-anchor="middle" x="1596" y="-231.5" font-family="Helvetica,sans-Serif" font-size="10.00">Texture.hpp</text>
</a>
</g>
</g>
<!-- Node32&#45;&gt;Node34 -->
<g id="edge65" class="edge"><title>Node32&#45;&gt;Node34</title>
<path fill="none" stroke="midnightblue" d="M1266.09,-280.562C1344.7,-269.706 1479.51,-251.088 1550,-241.353"/>
<polygon fill="midnightblue" stroke="midnightblue" points="1550.49,-244.819 1559.92,-239.983 1549.53,-237.884 1550.49,-244.819"/>
</g>
<!-- Node36 -->
<g id="node36" class="node"><title>Node36</title>
<g id="a_node36"><a xlink:href="Font_8hpp.html" target="_top" xlink:title="Font.hpp">
<polygon fill="none" stroke="black" points="1688.5,-224.5 1688.5,-243.5 1747.5,-243.5 1747.5,-224.5 1688.5,-224.5"/>
<text text-anchor="middle" x="1718" y="-231.5" font-family="Helvetica,sans-Serif" font-size="10.00">Font.hpp</text>
</a>
</g>
</g>
<!-- Node32&#45;&gt;Node36 -->
<g id="edge68" class="edge"><title>Node32&#45;&gt;Node36</title>
<path fill="none" stroke="midnightblue" d="M1266.04,-282.962C1350.39,-274.56 1507.31,-258.712 1641,-244 1653.11,-242.668 1666.28,-241.153 1678.24,-239.751"/>
<polygon fill="midnightblue" stroke="midnightblue" points="1678.87,-243.201 1688.39,-238.555 1678.05,-236.249 1678.87,-243.201"/>
</g>
<!-- Node33&#45;&gt;Node27 -->
<g id="edge63" class="edge"><title>Node33&#45;&gt;Node27</title>
<path fill="none" stroke="midnightblue" d="M1209.34,-224.324C1196.08,-215.9 1175.73,-202.971 1160.15,-193.074"/>
<polygon fill="midnightblue" stroke="midnightblue" points="1161.94,-190.063 1151.62,-187.655 1158.19,-195.971 1161.94,-190.063"/>
</g>
<!-- Node33&#45;&gt;Node28 -->
<g id="edge64" class="edge"><title>Node33&#45;&gt;Node28</title>
<path fill="none" stroke="midnightblue" d="M1225.15,-224.083C1226.87,-216.927 1229.35,-206.635 1231.5,-197.691"/>
<polygon fill="midnightblue" stroke="midnightblue" points="1234.96,-198.293 1233.89,-187.751 1228.15,-196.654 1234.96,-198.293"/>
</g>
<!-- Node34&#45;&gt;Node29 -->
<g id="edge66" class="edge"><title>Node34&#45;&gt;Node29</title>
<path fill="none" stroke="midnightblue" d="M1614.38,-224.444C1633.22,-215.675 1662.73,-201.935 1684.38,-191.858"/>
<polygon fill="midnightblue" stroke="midnightblue" points="1686.12,-194.91 1693.71,-187.516 1683.16,-188.564 1686.12,-194.91"/>
</g>
<!-- Node35 -->
<g id="node35" class="node"><title>Node35</title>
<g id="a_node35"><a xlink:href="ITexture_8hpp.html" target="_top" xlink:title="ITexture.hpp">
<polygon fill="none" stroke="black" points="1566,-168.5 1566,-187.5 1640,-187.5 1640,-168.5 1566,-168.5"/>
<text text-anchor="middle" x="1603" y="-175.5" font-family="Helvetica,sans-Serif" font-size="10.00">ITexture.hpp</text>
</a>
</g>
</g>
<!-- Node34&#45;&gt;Node35 -->
<g id="edge67" class="edge"><title>Node34&#45;&gt;Node35</title>
<path fill="none" stroke="midnightblue" d="M1597.16,-224.083C1598.08,-216.927 1599.42,-206.635 1600.58,-197.691"/>
<polygon fill="midnightblue" stroke="midnightblue" points="1604.05,-198.118 1601.87,-187.751 1597.11,-197.218 1604.05,-198.118"/>
</g>
<!-- Node36&#45;&gt;Node29 -->
<g id="edge69" class="edge"><title>Node36&#45;&gt;Node29</title>
<path fill="none" stroke="midnightblue" d="M1717.01,-224.083C1716.21,-216.927 1715.07,-206.635 1714.08,-197.691"/>
<polygon fill="midnightblue" stroke="midnightblue" points="1717.56,-197.303 1712.97,-187.751 1710.6,-198.076 1717.56,-197.303"/>
</g>
<!-- Node37 -->
<g id="node37" class="node"><title>Node37</title>
<g id="a_node37"><a xlink:href="IFont_8hpp.html" target="_top" xlink:title="IFont.hpp">
<polygon fill="none" stroke="black" points="1784.5,-168.5 1784.5,-187.5 1845.5,-187.5 1845.5,-168.5 1784.5,-168.5"/>
<text text-anchor="middle" x="1815" y="-175.5" font-family="Helvetica,sans-Serif" font-size="10.00">IFont.hpp</text>
</a>
</g>
</g>
<!-- Node36&#45;&gt;Node37 -->
<g id="edge70" class="edge"><title>Node36&#45;&gt;Node37</title>
<path fill="none" stroke="midnightblue" d="M1733.58,-224.324C1749,-215.743 1772.81,-202.486 1790.71,-192.522"/>
<polygon fill="midnightblue" stroke="midnightblue" points="1792.42,-195.577 1799.45,-187.655 1789.01,-189.461 1792.42,-195.577"/>
</g>
</g>
</svg>
        <g id="navigator" transform="translate(0 0)" fill="#404254">
                <rect fill="#f2f5e9" fill-opacity="0.5" stroke="#606060" stroke-width=".5" x="0" y="0" width="60" height="60"/>
                <use id="zoomplus" xlink:href="#zoomPlus" x="17" y="9" onmousedown="handleZoom(evt,'in')"/>
                <use id="zoomminus" xlink:href="#zoomMin" x="42" y="9" onmousedown="handleZoom(evt,'out')"/>
                <use id="reset" xlink:href="#resetDef" x="30" y="36" onmousedown="handleReset()"/>
                <g id="arrowUp" xlink:href="#dirArrow" transform="translate(30 24)" onmousedown="handlePan(0,-1)">
                  <use xlink:href="#rim" fill="#404040">
                        <set attributeName="fill" to="#808080" begin="arrowUp.mouseover" end="arrowUp.mouseout"/>
                  </use>
                  <path fill="none" stroke="white" stroke-width="1.5" d="M0,-3.0v7 M-2.5,-0.5L0,-3.0L2.5,-0.5"/>
                </g>
                <g id="arrowRight" xlink:href="#dirArrow" transform="rotate(90) translate(36 -43)" onmousedown="handlePan(1,0)">
                  <use xlink:href="#rim" fill="#404040">
                        <set attributeName="fill" to="#808080" begin="arrowRight.mouseover" end="arrowRight.mouseout"/>
                  </use>
                  <path fill="none" stroke="white" stroke-width="1.5" d="M0,-3.0v7 M-2.5,-0.5L0,-3.0L2.5,-0.5"/>
                </g>
                <g id="arrowDown" xlink:href="#dirArrow" transform="rotate(180) translate(-30 -48)" onmousedown="handlePan(0,1)">
                  <use xlink:href="#rim" fill="#404040">
                        <set attributeName="fill" to="#808080" begin="arrowDown.mouseover" end="arrowDown.mouseout"/>
                  </use>
                  <path fill="none" stroke="white" stroke-width="1.5" d="M0,-3.0v7 M-2.5,-0.5L0,-3.0L2.5,-0.5"/>
                </g>
                <g id="arrowLeft" xlink:href="#dirArrow" transform="rotate(270) translate(-36 17)" onmousedown="handlePan(-1,0)">
                  <use xlink:href="#rim" fill="#404040">
                        <set attributeName="fill" to="#808080" begin="arrowLeft.mouseover" end="arrowLeft.mouseout"/>
                  </use>
                  <path fill="none" stroke="white" stroke-width="1.5" d="M0,-3.0v7 M-2.5,-0.5L0,-3.0L2.5,-0.5"/>
                </g>
        </g>
        <svg viewBox="0 0 15 15" width="100%" height="30px" preserveAspectRatio="xMaxYMin meet">
         <g id="arrow_out" transform="scale(0.3 0.3)">
          <a xlink:href="SFMLRenderManager_8hpp__incl_org.svg" target="_base">
           <rect id="button" ry="5" rx="5" y="6" x="6" height="38" width="38"
                fill="#f2f5e9" fill-opacity="0.5" stroke="#606060" stroke-width="1.0"/>
           <path id="arrow"
             d="M 11.500037,31.436501 C 11.940474,20.09759 22.043105,11.32322 32.158766,21.979434 L 37.068811,17.246167 C 37.068811,17.246167 37.088388,32 37.088388,32 L 22.160133,31.978069 C 22.160133,31.978069 26.997745,27.140456 26.997745,27.140456 C 18.528582,18.264221 13.291696,25.230495 11.500037,31.436501 z"
             style="fill:#404040;"/>
          </a>
         </g>
        </svg>
</svg>
