<?xml version="1.0" encoding="UTF-8" standalone="no"?>
<!DOCTYPE svg PUBLIC "-//W3C//DTD SVG 1.1//EN"
 "http://www.w3.org/Graphics/SVG/1.1/DTD/svg11.dtd">
<!-- Generated by graphviz version 2.38.0 (20140413.2041)
 -->
<!-- Title: src/Components/Display/Sprite.cpp Pages: 1 -->
<svg width="269pt" height="263pt"
 viewBox="0.00 0.00 269.00 263.00" xmlns="http://www.w3.org/2000/svg" xmlns:xlink="http://www.w3.org/1999/xlink">
<g id="graph0" class="graph" transform="scale(1 1) rotate(0) translate(4 259)">
<title>src/Components/Display/Sprite.cpp</title>
<!-- Node1 -->
<g id="node1" class="node"><title>Node1</title>
<polygon fill="#bfbfbf" stroke="black" points="33.5,-224.5 33.5,-254.5 166.5,-254.5 166.5,-224.5 33.5,-224.5"/>
<text text-anchor="start" x="41.5" y="-242.5" font-family="Helvetica,sans-Serif" font-size="10.00">src/Components/Display</text>
<text text-anchor="middle" x="100" y="-231.5" font-family="Helvetica,sans-Serif" font-size="10.00">/Sprite.cpp</text>
</g>
<!-- Node2 -->
<g id="node2" class="node"><title>Node2</title>
<g id="a_node2"><a xlink:href="Sprite_8hpp.html" target="_top" xlink:title="Sprite.hpp">
<polygon fill="none" stroke="black" points="67,-168.5 67,-187.5 133,-187.5 133,-168.5 67,-168.5"/>
<text text-anchor="middle" x="100" y="-175.5" font-family="Helvetica,sans-Serif" font-size="10.00">Sprite.hpp</text>
</a>
</g>
</g>
<!-- Node1&#45;&gt;Node2 -->
<g id="edge1" class="edge"><title>Node1&#45;&gt;Node2</title>
<path fill="none" stroke="midnightblue" d="M100,-224.399C100,-216.466 100,-206.458 100,-197.858"/>
<polygon fill="midnightblue" stroke="midnightblue" points="103.5,-197.658 100,-187.658 96.5001,-197.658 103.5,-197.658"/>
</g>
<!-- Node3 -->
<g id="node3" class="node"><title>Node3</title>
<polygon fill="none" stroke="#bfbfbf" points="0,-112.5 0,-131.5 44,-131.5 44,-112.5 0,-112.5"/>
<text text-anchor="middle" x="22" y="-119.5" font-family="Helvetica,sans-Serif" font-size="10.00">string</text>
</g>
<!-- Node2&#45;&gt;Node3 -->
<g id="edge2" class="edge"><title>Node2&#45;&gt;Node3</title>
<path fill="none" stroke="midnightblue" d="M87.468,-168.324C75.4141,-159.979 56.9732,-147.212 42.7313,-137.352"/>
<polygon fill="midnightblue" stroke="midnightblue" points="44.7151,-134.469 34.5009,-131.655 40.7306,-140.224 44.7151,-134.469"/>
</g>
<!-- Node4 -->
<g id="node4" class="node"><title>Node4</title>
<polygon fill="none" stroke="#bfbfbf" points="105.5,-0.5 105.5,-19.5 168.5,-19.5 168.5,-0.5 105.5,-0.5"/>
<text text-anchor="middle" x="137" y="-7.5" font-family="Helvetica,sans-Serif" font-size="10.00">typeindex</text>
</g>
<!-- Node2&#45;&gt;Node4 -->
<g id="edge3" class="edge"><title>Node2&#45;&gt;Node4</title>
<path fill="none" stroke="midnightblue" d="M96.805,-168.094C92.7306,-155.501 86.6997,-131.817 91,-112 97.7462,-80.9115 114.924,-47.9125 126.272,-28.3987"/>
<polygon fill="midnightblue" stroke="midnightblue" points="129.323,-30.1169 131.446,-19.7371 123.313,-26.5271 129.323,-30.1169"/>
</g>
<!-- Node5 -->
<g id="node5" class="node"><title>Node5</title>
<g id="a_node5"><a xlink:href="Rect_8hpp.html" target="_top" xlink:title="Rect.hpp">
<polygon fill="none" stroke="black" points="100,-112.5 100,-131.5 158,-131.5 158,-112.5 100,-112.5"/>
<text text-anchor="middle" x="129" y="-119.5" font-family="Helvetica,sans-Serif" font-size="10.00">Rect.hpp</text>
</a>
</g>
</g>
<!-- Node2&#45;&gt;Node5 -->
<g id="edge4" class="edge"><title>Node2&#45;&gt;Node5</title>
<path fill="none" stroke="midnightblue" d="M104.789,-168.083C108.758,-160.691 114.525,-149.953 119.435,-140.811"/>
<polygon fill="midnightblue" stroke="midnightblue" points="122.653,-142.217 124.3,-131.751 116.486,-138.905 122.653,-142.217"/>
</g>
<!-- Node6 -->
<g id="node6" class="node"><title>Node6</title>
<g id="a_node6"><a xlink:href="IDisplay_8hpp.html" target="_top" xlink:title="IDisplay.hpp">
<polygon fill="none" stroke="black" points="176.5,-112.5 176.5,-131.5 249.5,-131.5 249.5,-112.5 176.5,-112.5"/>
<text text-anchor="middle" x="213" y="-119.5" font-family="Helvetica,sans-Serif" font-size="10.00">IDisplay.hpp</text>
</a>
</g>
</g>
<!-- Node2&#45;&gt;Node6 -->
<g id="edge5" class="edge"><title>Node2&#45;&gt;Node6</title>
<path fill="none" stroke="midnightblue" d="M117.905,-168.444C136.254,-159.675 165.005,-145.935 186.094,-135.858"/>
<polygon fill="midnightblue" stroke="midnightblue" points="187.665,-138.986 195.179,-131.516 184.647,-132.67 187.665,-138.986"/>
</g>
<!-- Node6&#45;&gt;Node4 -->
<g id="edge6" class="edge"><title>Node6&#45;&gt;Node4</title>
<path fill="none" stroke="midnightblue" d="M197.472,-112.465C184.565,-104.603 166.647,-91.783 156,-76 146.652,-62.1414 141.826,-43.6255 139.384,-29.9012"/>
<polygon fill="midnightblue" stroke="midnightblue" points="142.799,-29.0728 137.845,-19.707 135.877,-30.1174 142.799,-29.0728"/>
</g>
<!-- Node7 -->
<g id="node7" class="node"><title>Node7</title>
<g id="a_node7"><a xlink:href="IComponent_8hpp.html" target="_top" xlink:title="IComponent.hpp">
<polygon fill="none" stroke="black" points="165,-56.5 165,-75.5 261,-75.5 261,-56.5 165,-56.5"/>
<text text-anchor="middle" x="213" y="-63.5" font-family="Helvetica,sans-Serif" font-size="10.00">IComponent.hpp</text>
</a>
</g>
</g>
<!-- Node6&#45;&gt;Node7 -->
<g id="edge7" class="edge"><title>Node6&#45;&gt;Node7</title>
<path fill="none" stroke="midnightblue" d="M213,-112.083C213,-105.006 213,-94.8611 213,-85.9865"/>
<polygon fill="midnightblue" stroke="midnightblue" points="216.5,-85.751 213,-75.7511 209.5,-85.7511 216.5,-85.751"/>
</g>
<!-- Node7&#45;&gt;Node4 -->
<g id="edge8" class="edge"><title>Node7&#45;&gt;Node4</title>
<path fill="none" stroke="midnightblue" d="M200.789,-56.324C189.224,-48.1066 171.625,-35.6017 157.839,-25.8069"/>
<polygon fill="midnightblue" stroke="midnightblue" points="159.612,-22.7729 149.433,-19.8339 155.557,-28.4791 159.612,-22.7729"/>
</g>
</g>
</svg>
