<?xml version="1.0" encoding="UTF-8" standalone="no"?>
<!DOCTYPE svg PUBLIC "-//W3C//DTD SVG 1.1//EN"
 "http://www.w3.org/Graphics/SVG/1.1/DTD/svg11.dtd">
<!-- Generated by graphviz version 2.38.0 (20140413.2041)
 -->
<!-- Title: src/Components/Display/Sprite.hpp Pages: 1 -->
<svg width="269pt" height="207pt"
 viewBox="0.00 0.00 269.00 207.00" xmlns="http://www.w3.org/2000/svg" xmlns:xlink="http://www.w3.org/1999/xlink">
<g id="graph0" class="graph" transform="scale(1 1) rotate(0) translate(4 203)">
<title>src/Components/Display/Sprite.hpp</title>
<!-- Node1 -->
<g id="node1" class="node"><title>Node1</title>
<polygon fill="#bfbfbf" stroke="black" points="33.5,-168.5 33.5,-198.5 166.5,-198.5 166.5,-168.5 33.5,-168.5"/>
<text text-anchor="start" x="41.5" y="-186.5" font-family="Helvetica,sans-Serif" font-size="10.00">src/Components/Display</text>
<text text-anchor="middle" x="100" y="-175.5" font-family="Helvetica,sans-Serif" font-size="10.00">/Sprite.hpp</text>
</g>
<!-- Node2 -->
<g id="node2" class="node"><title>Node2</title>
<polygon fill="none" stroke="#bfbfbf" points="0,-112.5 0,-131.5 44,-131.5 44,-112.5 0,-112.5"/>
<text text-anchor="middle" x="22" y="-119.5" font-family="Helvetica,sans-Serif" font-size="10.00">string</text>
</g>
<!-- Node1&#45;&gt;Node2 -->
<g id="edge1" class="edge"><title>Node1&#45;&gt;Node2</title>
<path fill="none" stroke="midnightblue" d="M81.5151,-168.399C69.4797,-159.218 53.8003,-147.258 41.5566,-137.918"/>
<polygon fill="midnightblue" stroke="midnightblue" points="43.4233,-134.94 33.3497,-131.658 39.1777,-140.506 43.4233,-134.94"/>
</g>
<!-- Node3 -->
<g id="node3" class="node"><title>Node3</title>
<polygon fill="none" stroke="#bfbfbf" points="105.5,-0.5 105.5,-19.5 168.5,-19.5 168.5,-0.5 105.5,-0.5"/>
<text text-anchor="middle" x="137" y="-7.5" font-family="Helvetica,sans-Serif" font-size="10.00">typeindex</text>
</g>
<!-- Node1&#45;&gt;Node3 -->
<g id="edge2" class="edge"><title>Node1&#45;&gt;Node3</title>
<path fill="none" stroke="midnightblue" d="M95.3861,-168.333C91.3757,-154.009 86.8134,-131.293 91,-112 97.7462,-80.9115 114.924,-47.9125 126.272,-28.3987"/>
<polygon fill="midnightblue" stroke="midnightblue" points="129.323,-30.1169 131.446,-19.7371 123.313,-26.5271 129.323,-30.1169"/>
</g>
<!-- Node4 -->
<g id="node4" class="node"><title>Node4</title>
<g id="a_node4"><a xlink:href="Rect_8hpp.html" target="_top" xlink:title="Rect.hpp">
<polygon fill="none" stroke="black" points="100,-112.5 100,-131.5 158,-131.5 158,-112.5 100,-112.5"/>
<text text-anchor="middle" x="129" y="-119.5" font-family="Helvetica,sans-Serif" font-size="10.00">Rect.hpp</text>
</a>
</g>
</g>
<!-- Node1&#45;&gt;Node4 -->
<g id="edge3" class="edge"><title>Node1&#45;&gt;Node4</title>
<path fill="none" stroke="midnightblue" d="M106.873,-168.399C110.913,-160.11 116.058,-149.554 120.369,-140.708"/>
<polygon fill="midnightblue" stroke="midnightblue" points="123.545,-142.18 124.78,-131.658 117.253,-139.113 123.545,-142.18"/>
</g>
<!-- Node5 -->
<g id="node5" class="node"><title>Node5</title>
<g id="a_node5"><a xlink:href="IDisplay_8hpp.html" target="_top" xlink:title="IDisplay.hpp">
<polygon fill="none" stroke="black" points="176.5,-112.5 176.5,-131.5 249.5,-131.5 249.5,-112.5 176.5,-112.5"/>
<text text-anchor="middle" x="213" y="-119.5" font-family="Helvetica,sans-Serif" font-size="10.00">IDisplay.hpp</text>
</a>
</g>
</g>
<!-- Node1&#45;&gt;Node5 -->
<g id="edge4" class="edge"><title>Node1&#45;&gt;Node5</title>
<path fill="none" stroke="midnightblue" d="M126.779,-168.399C145.062,-158.773 169.148,-146.09 187.215,-136.577"/>
<polygon fill="midnightblue" stroke="midnightblue" points="189.34,-139.414 196.557,-131.658 186.078,-133.22 189.34,-139.414"/>
</g>
<!-- Node5&#45;&gt;Node3 -->
<g id="edge5" class="edge"><title>Node5&#45;&gt;Node3</title>
<path fill="none" stroke="midnightblue" d="M197.472,-112.465C184.565,-104.603 166.647,-91.783 156,-76 146.652,-62.1414 141.826,-43.6255 139.384,-29.9012"/>
<polygon fill="midnightblue" stroke="midnightblue" points="142.799,-29.0728 137.845,-19.707 135.877,-30.1174 142.799,-29.0728"/>
</g>
<!-- Node6 -->
<g id="node6" class="node"><title>Node6</title>
<g id="a_node6"><a xlink:href="IComponent_8hpp.html" target="_top" xlink:title="IComponent.hpp">
<polygon fill="none" stroke="black" points="165,-56.5 165,-75.5 261,-75.5 261,-56.5 165,-56.5"/>
<text text-anchor="middle" x="213" y="-63.5" font-family="Helvetica,sans-Serif" font-size="10.00">IComponent.hpp</text>
</a>
</g>
</g>
<!-- Node5&#45;&gt;Node6 -->
<g id="edge6" class="edge"><title>Node5&#45;&gt;Node6</title>
<path fill="none" stroke="midnightblue" d="M213,-112.083C213,-105.006 213,-94.8611 213,-85.9865"/>
<polygon fill="midnightblue" stroke="midnightblue" points="216.5,-85.751 213,-75.7511 209.5,-85.7511 216.5,-85.751"/>
</g>
<!-- Node6&#45;&gt;Node3 -->
<g id="edge7" class="edge"><title>Node6&#45;&gt;Node3</title>
<path fill="none" stroke="midnightblue" d="M200.789,-56.324C189.224,-48.1066 171.625,-35.6017 157.839,-25.8069"/>
<polygon fill="midnightblue" stroke="midnightblue" points="159.612,-22.7729 149.433,-19.8339 155.557,-28.4791 159.612,-22.7729"/>
</g>
</g>
</svg>
