<?xml version="1.0" encoding="UTF-8" standalone="no"?>
<!DOCTYPE svg PUBLIC "-//W3C//DTD SVG 1.1//EN"
 "http://www.w3.org/Graphics/SVG/1.1/DTD/svg11.dtd">
<!-- Generated by graphviz version 2.38.0 (20140413.2041)
 -->
<!-- Title: src/Components/Display/StaticText.hpp Pages: 1 -->
<svg width="343pt" height="319pt"
 viewBox="0.00 0.00 342.50 319.00" xmlns="http://www.w3.org/2000/svg" xmlns:xlink="http://www.w3.org/1999/xlink">
<g id="graph0" class="graph" transform="scale(1 1) rotate(0) translate(4 315)">
<title>src/Components/Display/StaticText.hpp</title>
<!-- Node1 -->
<g id="node1" class="node"><title>Node1</title>
<polygon fill="#bfbfbf" stroke="black" points="0,-280.5 0,-310.5 133,-310.5 133,-280.5 0,-280.5"/>
<text text-anchor="start" x="8" y="-298.5" font-family="Helvetica,sans-Serif" font-size="10.00">src/Components/Display</text>
<text text-anchor="middle" x="66.5" y="-287.5" font-family="Helvetica,sans-Serif" font-size="10.00">/StaticText.hpp</text>
</g>
<!-- Node2 -->
<g id="node2" class="node"><title>Node2</title>
<polygon fill="none" stroke="#bfbfbf" points="102,-0.5 102,-19.5 165,-19.5 165,-0.5 102,-0.5"/>
<text text-anchor="middle" x="133.5" y="-7.5" font-family="Helvetica,sans-Serif" font-size="10.00">typeindex</text>
</g>
<!-- Node1&#45;&gt;Node2 -->
<g id="edge1" class="edge"><title>Node1&#45;&gt;Node2</title>
<path fill="none" stroke="midnightblue" d="M57.1687,-280.218C44.2529,-259.035 22.5,-217.624 22.5,-179 22.5,-179 22.5,-179 22.5,-121 22.5,-74.8239 71.5635,-41.4259 104.452,-24.2256"/>
<polygon fill="midnightblue" stroke="midnightblue" points="106.286,-27.221 113.655,-19.6087 103.148,-20.9641 106.286,-27.221"/>
</g>
<!-- Node3 -->
<g id="node3" class="node"><title>Node3</title>
<g id="a_node3"><a xlink:href="Text_8hpp.html" target="_top" xlink:title="Text.hpp">
<polygon fill="none" stroke="black" points="82.5,-224.5 82.5,-243.5 138.5,-243.5 138.5,-224.5 82.5,-224.5"/>
<text text-anchor="middle" x="110.5" y="-231.5" font-family="Helvetica,sans-Serif" font-size="10.00">Text.hpp</text>
</a>
</g>
</g>
<!-- Node1&#45;&gt;Node3 -->
<g id="edge2" class="edge"><title>Node1&#45;&gt;Node3</title>
<path fill="none" stroke="midnightblue" d="M76.9274,-280.399C83.2552,-271.842 91.3686,-260.871 98.0343,-251.857"/>
<polygon fill="midnightblue" stroke="midnightblue" points="100.966,-253.779 104.098,-243.658 95.3376,-249.617 100.966,-253.779"/>
</g>
<!-- Node3&#45;&gt;Node2 -->
<g id="edge3" class="edge"><title>Node3&#45;&gt;Node2</title>
<path fill="none" stroke="midnightblue" d="M102.017,-224.234C94.4461,-215.75 83.8964,-202.131 79.5,-188 76.8594,-179.512 78.0344,-176.767 79.5,-168 88.2618,-115.587 112.409,-57.2414 125.239,-28.6903"/>
<polygon fill="midnightblue" stroke="midnightblue" points="128.426,-30.1354 129.404,-19.5857 122.061,-27.2234 128.426,-30.1354"/>
</g>
<!-- Node4 -->
<g id="node4" class="node"><title>Node4</title>
<polygon fill="none" stroke="#bfbfbf" points="88.5,-168.5 88.5,-187.5 132.5,-187.5 132.5,-168.5 88.5,-168.5"/>
<text text-anchor="middle" x="110.5" y="-175.5" font-family="Helvetica,sans-Serif" font-size="10.00">string</text>
</g>
<!-- Node3&#45;&gt;Node4 -->
<g id="edge4" class="edge"><title>Node3&#45;&gt;Node4</title>
<path fill="none" stroke="midnightblue" d="M110.5,-224.083C110.5,-217.006 110.5,-206.861 110.5,-197.986"/>
<polygon fill="midnightblue" stroke="midnightblue" points="114,-197.751 110.5,-187.751 107,-197.751 114,-197.751"/>
</g>
<!-- Node5 -->
<g id="node5" class="node"><title>Node5</title>
<g id="a_node5"><a xlink:href="Color_8hpp.html" target="_top" xlink:title="Color.hpp">
<polygon fill="none" stroke="black" points="150.5,-168.5 150.5,-187.5 212.5,-187.5 212.5,-168.5 150.5,-168.5"/>
<text text-anchor="middle" x="181.5" y="-175.5" font-family="Helvetica,sans-Serif" font-size="10.00">Color.hpp</text>
</a>
</g>
</g>
<!-- Node3&#45;&gt;Node5 -->
<g id="edge5" class="edge"><title>Node3&#45;&gt;Node5</title>
<path fill="none" stroke="midnightblue" d="M121.907,-224.324C132.609,-216.185 148.841,-203.839 161.663,-194.087"/>
<polygon fill="midnightblue" stroke="midnightblue" points="164.044,-196.673 169.885,-187.834 159.807,-191.102 164.044,-196.673"/>
</g>
<!-- Node6 -->
<g id="node6" class="node"><title>Node6</title>
<g id="a_node6"><a xlink:href="IUserInterface_8hpp.html" target="_top" xlink:title="IUserInterface.hpp">
<polygon fill="none" stroke="black" points="230.5,-168.5 230.5,-187.5 334.5,-187.5 334.5,-168.5 230.5,-168.5"/>
<text text-anchor="middle" x="282.5" y="-175.5" font-family="Helvetica,sans-Serif" font-size="10.00">IUserInterface.hpp</text>
</a>
</g>
</g>
<!-- Node3&#45;&gt;Node6 -->
<g id="edge6" class="edge"><title>Node3&#45;&gt;Node6</title>
<path fill="none" stroke="midnightblue" d="M137.754,-224.444C166.941,-215.28 213.421,-200.688 245.809,-190.519"/>
<polygon fill="midnightblue" stroke="midnightblue" points="246.881,-193.851 255.374,-187.516 244.784,-187.173 246.881,-193.851"/>
</g>
<!-- Node6&#45;&gt;Node2 -->
<g id="edge7" class="edge"><title>Node6&#45;&gt;Node2</title>
<path fill="none" stroke="midnightblue" d="M260.16,-168.451C242.627,-160.895 218.433,-148.508 201.5,-132 170.701,-101.974 149.792,-54.9925 139.955,-29.2985"/>
<polygon fill="midnightblue" stroke="midnightblue" points="143.161,-27.8757 136.42,-19.7016 136.592,-30.295 143.161,-27.8757"/>
</g>
<!-- Node7 -->
<g id="node7" class="node"><title>Node7</title>
<g id="a_node7"><a xlink:href="IDisplay_8hpp.html" target="_top" xlink:title="IDisplay.hpp">
<polygon fill="none" stroke="black" points="211,-112.5 211,-131.5 284,-131.5 284,-112.5 211,-112.5"/>
<text text-anchor="middle" x="247.5" y="-119.5" font-family="Helvetica,sans-Serif" font-size="10.00">IDisplay.hpp</text>
</a>
</g>
</g>
<!-- Node6&#45;&gt;Node7 -->
<g id="edge8" class="edge"><title>Node6&#45;&gt;Node7</title>
<path fill="none" stroke="midnightblue" d="M276.72,-168.083C271.828,-160.534 264.673,-149.495 258.667,-140.23"/>
<polygon fill="midnightblue" stroke="midnightblue" points="261.548,-138.239 253.172,-131.751 255.674,-142.046 261.548,-138.239"/>
</g>
<!-- Node7&#45;&gt;Node2 -->
<g id="edge9" class="edge"><title>Node7&#45;&gt;Node2</title>
<path fill="none" stroke="midnightblue" d="M235.187,-112.296C223.272,-103.644 204.945,-89.7178 190.5,-76 174.43,-60.7389 157.935,-41.4584 146.852,-27.8722"/>
<polygon fill="midnightblue" stroke="midnightblue" points="149.405,-25.4621 140.409,-19.8659 143.951,-29.8508 149.405,-25.4621"/>
</g>
<!-- Node8 -->
<g id="node8" class="node"><title>Node8</title>
<g id="a_node8"><a xlink:href="IComponent_8hpp.html" target="_top" xlink:title="IComponent.hpp">
<polygon fill="none" stroke="black" points="199.5,-56.5 199.5,-75.5 295.5,-75.5 295.5,-56.5 199.5,-56.5"/>
<text text-anchor="middle" x="247.5" y="-63.5" font-family="Helvetica,sans-Serif" font-size="10.00">IComponent.hpp</text>
</a>
</g>
</g>
<!-- Node7&#45;&gt;Node8 -->
<g id="edge10" class="edge"><title>Node7&#45;&gt;Node8</title>
<path fill="none" stroke="midnightblue" d="M247.5,-112.083C247.5,-105.006 247.5,-94.8611 247.5,-85.9865"/>
<polygon fill="midnightblue" stroke="midnightblue" points="251,-85.751 247.5,-75.7511 244,-85.7511 251,-85.751"/>
</g>
<!-- Node8&#45;&gt;Node2 -->
<g id="edge11" class="edge"><title>Node8&#45;&gt;Node2</title>
<path fill="none" stroke="midnightblue" d="M229.436,-56.4435C210.925,-47.6751 181.919,-33.9355 160.645,-23.8579"/>
<polygon fill="midnightblue" stroke="midnightblue" points="162.015,-20.6343 151.479,-19.5164 159.018,-26.9604 162.015,-20.6343"/>
</g>
</g>
</svg>
