<?xml version="1.0" encoding="UTF-8" standalone="no"?>
<!DOCTYPE svg PUBLIC "-//W3C//DTD SVG 1.1//EN"
 "http://www.w3.org/Graphics/SVG/1.1/DTD/svg11.dtd">
<!-- Generated by graphviz version 2.38.0 (20140413.2041)
 -->
<!-- Title: src/Components/Display/StaticText.cpp Pages: 1 -->
<svg width="390pt" height="375pt"
 viewBox="0.00 0.00 389.50 375.00" xmlns="http://www.w3.org/2000/svg" xmlns:xlink="http://www.w3.org/1999/xlink">
<g id="graph0" class="graph" transform="scale(1 1) rotate(0) translate(4 371)">
<title>src/Components/Display/StaticText.cpp</title>
<!-- Node1 -->
<g id="node1" class="node"><title>Node1</title>
<polygon fill="#bfbfbf" stroke="black" points="0,-336.5 0,-366.5 133,-366.5 133,-336.5 0,-336.5"/>
<text text-anchor="start" x="8" y="-354.5" font-family="Helvetica,sans-Serif" font-size="10.00">src/Components/Display</text>
<text text-anchor="middle" x="66.5" y="-343.5" font-family="Helvetica,sans-Serif" font-size="10.00">/StaticText.cpp</text>
</g>
<!-- Node2 -->
<g id="node2" class="node"><title>Node2</title>
<polygon fill="none" stroke="#bfbfbf" points="95,-0.5 95,-19.5 158,-19.5 158,-0.5 95,-0.5"/>
<text text-anchor="middle" x="126.5" y="-7.5" font-family="Helvetica,sans-Serif" font-size="10.00">typeindex</text>
</g>
<!-- Node1&#45;&gt;Node2 -->
<g id="edge1" class="edge"><title>Node1&#45;&gt;Node2</title>
<path fill="none" stroke="midnightblue" d="M59.248,-336.333C48.9963,-314.959 31.5,-272.924 31.5,-235 31.5,-235 31.5,-235 31.5,-121 31.5,-77.7385 74.1084,-43.0862 102.255,-24.9149"/>
<polygon fill="midnightblue" stroke="midnightblue" points="104.161,-27.851 110.813,-19.6042 100.47,-21.9032 104.161,-27.851"/>
</g>
<!-- Node3 -->
<g id="node3" class="node"><title>Node3</title>
<g id="a_node3"><a xlink:href="StaticText_8hpp.html" target="_top" xlink:title="StaticText.hpp">
<polygon fill="none" stroke="black" points="59.5,-280.5 59.5,-299.5 143.5,-299.5 143.5,-280.5 59.5,-280.5"/>
<text text-anchor="middle" x="101.5" y="-287.5" font-family="Helvetica,sans-Serif" font-size="10.00">StaticText.hpp</text>
</a>
</g>
</g>
<!-- Node1&#45;&gt;Node3 -->
<g id="edge2" class="edge"><title>Node1&#45;&gt;Node3</title>
<path fill="none" stroke="midnightblue" d="M74.7945,-336.399C79.7231,-328.021 86.0136,-317.327 91.2512,-308.423"/>
<polygon fill="midnightblue" stroke="midnightblue" points="94.3537,-310.052 96.4072,-299.658 88.3202,-306.503 94.3537,-310.052"/>
</g>
<!-- Node3&#45;&gt;Node2 -->
<g id="edge3" class="edge"><title>Node3&#45;&gt;Node2</title>
<path fill="none" stroke="midnightblue" d="M97.1843,-280.408C88.4497,-262.2 69.5,-218.181 69.5,-179 69.5,-179 69.5,-179 69.5,-121 69.5,-84.3005 94.821,-47.6567 111.71,-27.2973"/>
<polygon fill="midnightblue" stroke="midnightblue" points="114.454,-29.475 118.333,-19.6161 109.152,-24.9037 114.454,-29.475"/>
</g>
<!-- Node4 -->
<g id="node4" class="node"><title>Node4</title>
<g id="a_node4"><a xlink:href="Text_8hpp.html" target="_top" xlink:title="Text.hpp">
<polygon fill="none" stroke="black" points="129.5,-224.5 129.5,-243.5 185.5,-243.5 185.5,-224.5 129.5,-224.5"/>
<text text-anchor="middle" x="157.5" y="-231.5" font-family="Helvetica,sans-Serif" font-size="10.00">Text.hpp</text>
</a>
</g>
</g>
<!-- Node3&#45;&gt;Node4 -->
<g id="edge4" class="edge"><title>Node3&#45;&gt;Node4</title>
<path fill="none" stroke="midnightblue" d="M110.497,-280.324C118.694,-272.42 131.006,-260.548 140.972,-250.938"/>
<polygon fill="midnightblue" stroke="midnightblue" points="143.57,-253.295 148.339,-243.834 138.711,-248.256 143.57,-253.295"/>
</g>
<!-- Node4&#45;&gt;Node2 -->
<g id="edge5" class="edge"><title>Node4&#45;&gt;Node2</title>
<path fill="none" stroke="midnightblue" d="M149.017,-224.234C141.446,-215.75 130.896,-202.131 126.5,-188 109.27,-132.618 117.447,-62.6848 122.933,-29.7626"/>
<polygon fill="midnightblue" stroke="midnightblue" points="126.409,-30.2041 124.715,-19.7456 119.517,-28.978 126.409,-30.2041"/>
</g>
<!-- Node5 -->
<g id="node5" class="node"><title>Node5</title>
<polygon fill="none" stroke="#bfbfbf" points="135.5,-168.5 135.5,-187.5 179.5,-187.5 179.5,-168.5 135.5,-168.5"/>
<text text-anchor="middle" x="157.5" y="-175.5" font-family="Helvetica,sans-Serif" font-size="10.00">string</text>
</g>
<!-- Node4&#45;&gt;Node5 -->
<g id="edge6" class="edge"><title>Node4&#45;&gt;Node5</title>
<path fill="none" stroke="midnightblue" d="M157.5,-224.083C157.5,-217.006 157.5,-206.861 157.5,-197.986"/>
<polygon fill="midnightblue" stroke="midnightblue" points="161,-197.751 157.5,-187.751 154,-197.751 161,-197.751"/>
</g>
<!-- Node6 -->
<g id="node6" class="node"><title>Node6</title>
<g id="a_node6"><a xlink:href="Color_8hpp.html" target="_top" xlink:title="Color.hpp">
<polygon fill="none" stroke="black" points="197.5,-168.5 197.5,-187.5 259.5,-187.5 259.5,-168.5 197.5,-168.5"/>
<text text-anchor="middle" x="228.5" y="-175.5" font-family="Helvetica,sans-Serif" font-size="10.00">Color.hpp</text>
</a>
</g>
</g>
<!-- Node4&#45;&gt;Node6 -->
<g id="edge7" class="edge"><title>Node4&#45;&gt;Node6</title>
<path fill="none" stroke="midnightblue" d="M168.907,-224.324C179.609,-216.185 195.841,-203.839 208.663,-194.087"/>
<polygon fill="midnightblue" stroke="midnightblue" points="211.044,-196.673 216.885,-187.834 206.807,-191.102 211.044,-196.673"/>
</g>
<!-- Node7 -->
<g id="node7" class="node"><title>Node7</title>
<g id="a_node7"><a xlink:href="IUserInterface_8hpp.html" target="_top" xlink:title="IUserInterface.hpp">
<polygon fill="none" stroke="black" points="277.5,-168.5 277.5,-187.5 381.5,-187.5 381.5,-168.5 277.5,-168.5"/>
<text text-anchor="middle" x="329.5" y="-175.5" font-family="Helvetica,sans-Serif" font-size="10.00">IUserInterface.hpp</text>
</a>
</g>
</g>
<!-- Node4&#45;&gt;Node7 -->
<g id="edge8" class="edge"><title>Node4&#45;&gt;Node7</title>
<path fill="none" stroke="midnightblue" d="M184.754,-224.444C213.941,-215.28 260.421,-200.688 292.809,-190.519"/>
<polygon fill="midnightblue" stroke="midnightblue" points="293.881,-193.851 302.374,-187.516 291.784,-187.173 293.881,-193.851"/>
</g>
<!-- Node7&#45;&gt;Node2 -->
<g id="edge9" class="edge"><title>Node7&#45;&gt;Node2</title>
<path fill="none" stroke="midnightblue" d="M292.244,-168.46C268.017,-161.559 236.731,-149.983 213.5,-132 176.473,-103.338 148.318,-54.7289 134.996,-28.7001"/>
<polygon fill="midnightblue" stroke="midnightblue" points="138.073,-27.0262 130.489,-19.6277 131.804,-30.1407 138.073,-27.0262"/>
</g>
<!-- Node8 -->
<g id="node8" class="node"><title>Node8</title>
<g id="a_node8"><a xlink:href="IDisplay_8hpp.html" target="_top" xlink:title="IDisplay.hpp">
<polygon fill="none" stroke="black" points="223,-112.5 223,-131.5 296,-131.5 296,-112.5 223,-112.5"/>
<text text-anchor="middle" x="259.5" y="-119.5" font-family="Helvetica,sans-Serif" font-size="10.00">IDisplay.hpp</text>
</a>
</g>
</g>
<!-- Node7&#45;&gt;Node8 -->
<g id="edge10" class="edge"><title>Node7&#45;&gt;Node8</title>
<path fill="none" stroke="midnightblue" d="M318.253,-168.324C307.703,-160.185 291.699,-147.839 279.058,-138.087"/>
<polygon fill="midnightblue" stroke="midnightblue" points="281.007,-135.171 270.951,-131.834 276.731,-140.713 281.007,-135.171"/>
</g>
<!-- Node8&#45;&gt;Node2 -->
<g id="edge11" class="edge"><title>Node8&#45;&gt;Node2</title>
<path fill="none" stroke="midnightblue" d="M248.471,-112.499C236.914,-103.544 218.28,-88.9684 202.5,-76 182.128,-59.2579 159.179,-39.5033 143.881,-26.2032"/>
<polygon fill="midnightblue" stroke="midnightblue" points="146.072,-23.4702 136.234,-19.5384 141.473,-28.7473 146.072,-23.4702"/>
</g>
<!-- Node9 -->
<g id="node9" class="node"><title>Node9</title>
<g id="a_node9"><a xlink:href="IComponent_8hpp.html" target="_top" xlink:title="IComponent.hpp">
<polygon fill="none" stroke="black" points="211.5,-56.5 211.5,-75.5 307.5,-75.5 307.5,-56.5 211.5,-56.5"/>
<text text-anchor="middle" x="259.5" y="-63.5" font-family="Helvetica,sans-Serif" font-size="10.00">IComponent.hpp</text>
</a>
</g>
</g>
<!-- Node8&#45;&gt;Node9 -->
<g id="edge12" class="edge"><title>Node8&#45;&gt;Node9</title>
<path fill="none" stroke="midnightblue" d="M259.5,-112.083C259.5,-105.006 259.5,-94.8611 259.5,-85.9865"/>
<polygon fill="midnightblue" stroke="midnightblue" points="263,-85.751 259.5,-75.7511 256,-85.7511 263,-85.751"/>
</g>
<!-- Node9&#45;&gt;Node2 -->
<g id="edge13" class="edge"><title>Node9&#45;&gt;Node2</title>
<path fill="none" stroke="midnightblue" d="M238.426,-56.4435C216.44,-47.5171 181.766,-33.4387 156.836,-23.3168"/>
<polygon fill="midnightblue" stroke="midnightblue" points="158.058,-20.0355 147.476,-19.5164 155.424,-26.5213 158.058,-20.0355"/>
</g>
</g>
</svg>
