<?xml version="1.0" encoding="UTF-8" standalone="no"?>
<!DOCTYPE svg PUBLIC "-//W3C//DTD SVG 1.1//EN"
 "http://www.w3.org/Graphics/SVG/1.1/DTD/svg11.dtd">
<!-- Generated by graphviz version 2.38.0 (20140413.2041)
 -->
<!-- Title: ecs::network::PacketManager::PlayerInfo Pages: 1 -->
<svg width="164pt" height="182pt"
 viewBox="0.00 0.00 164.00 182.00" xmlns="http://www.w3.org/2000/svg" xmlns:xlink="http://www.w3.org/1999/xlink">
<g id="graph0" class="graph" transform="scale(1 1) rotate(0) translate(4 178)">
<title>ecs::network::PacketManager::PlayerInfo</title>
<!-- Node1 -->
<g id="node1" class="node"><title>Node1</title>
<polygon fill="#bfbfbf" stroke="black" points="0,-0.5 0,-68.5 156,-68.5 156,-0.5 0,-0.5"/>
<text text-anchor="start" x="8" y="-56.5" font-family="Helvetica,sans-Serif" font-size="10.00">ecs::network::PacketManager</text>
<text text-anchor="middle" x="78" y="-45.5" font-family="Helvetica,sans-Serif" font-size="10.00">::PlayerInfo</text>
<polyline fill="none" stroke="black" points="0,-38.5 156,-38.5 "/>
<text text-anchor="middle" x="78" y="-26.5" font-family="Helvetica,sans-Serif" font-size="10.00"> </text>
<polyline fill="none" stroke="black" points="0,-19.5 156,-19.5 "/>
<text text-anchor="middle" x="78" y="-7.5" font-family="Helvetica,sans-Serif" font-size="10.00"> </text>
</g>
<!-- Node2 -->
<g id="node2" class="node"><title>Node2</title>
<polygon fill="none" stroke="#bfbfbf" points="24,-116.5 24,-173.5 62,-173.5 62,-116.5 24,-116.5"/>
<text text-anchor="middle" x="43" y="-161.5" font-family="Helvetica,sans-Serif" font-size="10.00">char</text>
<polyline fill="none" stroke="#bfbfbf" points="24,-154.5 62,-154.5 "/>
<text text-anchor="middle" x="43" y="-142.5" font-family="Helvetica,sans-Serif" font-size="10.00"> </text>
<polyline fill="none" stroke="#bfbfbf" points="24,-135.5 62,-135.5 "/>
<text text-anchor="middle" x="43" y="-123.5" font-family="Helvetica,sans-Serif" font-size="10.00"> </text>
</g>
<!-- Node2&#45;&gt;Node1 -->
<g id="edge1" class="edge"><title>Node2&#45;&gt;Node1</title>
<path fill="none" stroke="#404040" d="M40.3914,-116.251C40.3093,-106.789 41.1288,-96.2647 44,-87 44.7557,-84.5615 45.6653,-82.1308 46.6936,-79.7276"/>
<polygon fill="none" stroke="#404040" points="46.8261,-79.4653 45.9625,-72.3061 52.2388,-68.7554 53.1024,-75.9146 46.8261,-79.4653"/>
<text text-anchor="middle" x="67.5" y="-90" font-family="Helvetica,sans-Serif" font-size="10.00"> +pseudo</text>
</g>
<!-- Node3 -->
<g id="node3" class="node"><title>Node3</title>
<polygon fill="none" stroke="#bfbfbf" points="94.5,-116.5 94.5,-173.5 131.5,-173.5 131.5,-116.5 94.5,-116.5"/>
<text text-anchor="middle" x="113" y="-161.5" font-family="Helvetica,sans-Serif" font-size="10.00">bool</text>
<polyline fill="none" stroke="#bfbfbf" points="94.5,-154.5 131.5,-154.5 "/>
<text text-anchor="middle" x="113" y="-142.5" font-family="Helvetica,sans-Serif" font-size="10.00"> </text>
<polyline fill="none" stroke="#bfbfbf" points="94.5,-135.5 131.5,-135.5 "/>
<text text-anchor="middle" x="113" y="-123.5" font-family="Helvetica,sans-Serif" font-size="10.00"> </text>
</g>
<!-- Node3&#45;&gt;Node1 -->
<g id="edge2" class="edge"><title>Node3&#45;&gt;Node1</title>
<path fill="none" stroke="#404040" d="M104.077,-116.34C100.517,-105.302 96.3265,-92.3121 92.359,-80.0129"/>
<polygon fill="none" stroke="#404040" points="92.3352,-79.9391 86.6864,-75.4568 88.6511,-68.5186 94.3,-73.0008 92.3352,-79.9391"/>
<text text-anchor="middle" x="122" y="-90" font-family="Helvetica,sans-Serif" font-size="10.00"> +isReady</text>
</g>
</g>
</svg>
