<?xml version="1.0" encoding="UTF-8" standalone="no"?>
<!DOCTYPE svg PUBLIC "-//W3C//DTD SVG 1.1//EN"
 "http://www.w3.org/Graphics/SVG/1.1/DTD/svg11.dtd">
<!-- Generated by graphviz version 2.38.0 (20140413.2041)
 -->
<!-- Title: ecs::network::PacketManager::Room Pages: 1 -->
<svg width="339pt" height="298pt"
 viewBox="0.00 0.00 339.03 298.00" xmlns="http://www.w3.org/2000/svg" xmlns:xlink="http://www.w3.org/1999/xlink">
<g id="graph0" class="graph" transform="scale(1 1) rotate(0) translate(4 294)">
<title>ecs::network::PacketManager::Room</title>
<!-- Node1 -->
<g id="node1" class="node"><title>Node1</title>
<polygon fill="#bfbfbf" stroke="black" points="89.0297,-0.5 89.0297,-68.5 245.03,-68.5 245.03,-0.5 89.0297,-0.5"/>
<text text-anchor="start" x="97.0297" y="-56.5" font-family="Helvetica,sans-Serif" font-size="10.00">ecs::network::PacketManager</text>
<text text-anchor="middle" x="167.03" y="-45.5" font-family="Helvetica,sans-Serif" font-size="10.00">::Room</text>
<polyline fill="none" stroke="black" points="89.0297,-38.5 245.03,-38.5 "/>
<text text-anchor="middle" x="167.03" y="-26.5" font-family="Helvetica,sans-Serif" font-size="10.00"> </text>
<polyline fill="none" stroke="black" points="89.0297,-19.5 245.03,-19.5 "/>
<text text-anchor="middle" x="167.03" y="-7.5" font-family="Helvetica,sans-Serif" font-size="10.00"> </text>
</g>
<!-- Node2 -->
<g id="node2" class="node"><title>Node2</title>
<g id="a_node2"><a xlink:href="structecs_1_1network_1_1PacketManager_1_1PlayerInfo.html" target="_top" xlink:title="{ecs::network::PacketManager\l::PlayerInfo\n||}">
<polygon fill="none" stroke="black" points="89.0297,-116.5 89.0297,-184.5 245.03,-184.5 245.03,-116.5 89.0297,-116.5"/>
<text text-anchor="start" x="97.0297" y="-172.5" font-family="Helvetica,sans-Serif" font-size="10.00">ecs::network::PacketManager</text>
<text text-anchor="middle" x="167.03" y="-161.5" font-family="Helvetica,sans-Serif" font-size="10.00">::PlayerInfo</text>
<polyline fill="none" stroke="black" points="89.0297,-154.5 245.03,-154.5 "/>
<text text-anchor="middle" x="167.03" y="-142.5" font-family="Helvetica,sans-Serif" font-size="10.00"> </text>
<polyline fill="none" stroke="black" points="89.0297,-135.5 245.03,-135.5 "/>
<text text-anchor="middle" x="167.03" y="-123.5" font-family="Helvetica,sans-Serif" font-size="10.00"> </text>
</a>
</g>
</g>
<!-- Node2&#45;&gt;Node1 -->
<g id="edge1" class="edge"><title>Node2&#45;&gt;Node1</title>
<path fill="none" stroke="#404040" d="M167.03,-116.22C167.03,-105.099 167.03,-92.5117 167.03,-80.6422"/>
<polygon fill="none" stroke="#404040" points="167.03,-80.6243 163.03,-74.6243 167.03,-68.6243 171.03,-74.6242 167.03,-80.6243"/>
<text text-anchor="middle" x="190.03" y="-90" font-family="Helvetica,sans-Serif" font-size="10.00"> +players</text>
</g>
<!-- Node3 -->
<g id="node3" class="node"><title>Node3</title>
<polygon fill="none" stroke="#bfbfbf" points="27.0297,-232.5 27.0297,-289.5 65.0297,-289.5 65.0297,-232.5 27.0297,-232.5"/>
<text text-anchor="middle" x="46.0297" y="-277.5" font-family="Helvetica,sans-Serif" font-size="10.00">char</text>
<polyline fill="none" stroke="#bfbfbf" points="27.0297,-270.5 65.0297,-270.5 "/>
<text text-anchor="middle" x="46.0297" y="-258.5" font-family="Helvetica,sans-Serif" font-size="10.00"> </text>
<polyline fill="none" stroke="#bfbfbf" points="27.0297,-251.5 65.0297,-251.5 "/>
<text text-anchor="middle" x="46.0297" y="-239.5" font-family="Helvetica,sans-Serif" font-size="10.00"> </text>
</g>
<!-- Node3&#45;&gt;Node1 -->
<g id="edge4" class="edge"><title>Node3&#45;&gt;Node1</title>
<path fill="none" stroke="#404040" d="M27.3763,-232.379C9.35309,-201.914 -12.2077,-152.392 10.0297,-116 25.3323,-90.9569 51.1723,-73.3833 77.5186,-61.196"/>
<polygon fill="none" stroke="#404040" points="77.803,-61.0726 81.7153,-55.015 88.8116,-56.2965 84.8994,-62.3541 77.803,-61.0726"/>
<text text-anchor="middle" x="45.0297" y="-159" font-family="Helvetica,sans-Serif" font-size="10.00"> +nbPlayers</text>
<text text-anchor="middle" x="45.0297" y="-148" font-family="Helvetica,sans-Serif" font-size="10.00">+id</text>
<text text-anchor="middle" x="45.0297" y="-137" font-family="Helvetica,sans-Serif" font-size="10.00">+nbPlayerMax</text>
</g>
<!-- Node3&#45;&gt;Node2 -->
<g id="edge2" class="edge"><title>Node3&#45;&gt;Node2</title>
<path fill="none" stroke="#404040" d="M65.2025,-242.808C80.1596,-229.396 101.572,-210.195 120.906,-192.859"/>
<polygon fill="none" stroke="#404040" points="120.967,-192.805 122.763,-185.821 129.901,-184.793 128.104,-191.777 120.967,-192.805"/>
<text text-anchor="middle" x="130.53" y="-206" font-family="Helvetica,sans-Serif" font-size="10.00"> +pseudo</text>
</g>
<!-- Node4 -->
<g id="node4" class="node"><title>Node4</title>
<polygon fill="none" stroke="#bfbfbf" points="217.53,-232.5 217.53,-289.5 254.53,-289.5 254.53,-232.5 217.53,-232.5"/>
<text text-anchor="middle" x="236.03" y="-277.5" font-family="Helvetica,sans-Serif" font-size="10.00">bool</text>
<polyline fill="none" stroke="#bfbfbf" points="217.53,-270.5 254.53,-270.5 "/>
<text text-anchor="middle" x="236.03" y="-258.5" font-family="Helvetica,sans-Serif" font-size="10.00"> </text>
<polyline fill="none" stroke="#bfbfbf" points="217.53,-251.5 254.53,-251.5 "/>
<text text-anchor="middle" x="236.03" y="-239.5" font-family="Helvetica,sans-Serif" font-size="10.00"> </text>
</g>
<!-- Node4&#45;&gt;Node1 -->
<g id="edge5" class="edge"><title>Node4&#45;&gt;Node1</title>
<path fill="none" stroke="#404040" d="M251.824,-232.008C254.393,-226.221 256.659,-220.043 258.03,-214 264.069,-187.377 296.284,-206.916 254.03,-116 247.257,-101.427 236.52,-88.2538 224.868,-76.9827"/>
<polygon fill="none" stroke="#404040" points="224.698,-76.8274 217.569,-75.741 215.83,-68.7427 222.959,-69.8291 224.698,-76.8274"/>
<text text-anchor="middle" x="303.53" y="-153.5" font-family="Helvetica,sans-Serif" font-size="10.00"> +isStarted</text>
<text text-anchor="middle" x="303.53" y="-142.5" font-family="Helvetica,sans-Serif" font-size="10.00">+isOpen</text>
</g>
<!-- Node4&#45;&gt;Node2 -->
<g id="edge3" class="edge"><title>Node4&#45;&gt;Node2</title>
<path fill="none" stroke="#404040" d="M218.44,-232.34C211.203,-220.96 202.647,-207.507 194.613,-194.874"/>
<polygon fill="none" stroke="#404040" points="194.467,-194.644 187.872,-191.728 188.028,-184.519 194.623,-187.435 194.467,-194.644"/>
<text text-anchor="middle" x="230.03" y="-206" font-family="Helvetica,sans-Serif" font-size="10.00"> +isReady</text>
</g>
</g>
</svg>
