<?xml version="1.0" encoding="UTF-8" standalone="no"?>
<!DOCTYPE svg PUBLIC "-//W3C//DTD SVG 1.1//EN"
 "http://www.w3.org/Graphics/SVG/1.1/DTD/svg11.dtd">
<!-- Generated by graphviz version 2.38.0 (20140413.2041)
 -->
<!-- Title: ecs::network::PacketManager::Entity Pages: 1 -->
<!--zoomable 320 -->
<svg id="main" version="1.1" xmlns="http://www.w3.org/2000/svg" xmlns:xlink="http://www.w3.org/1999/xlink" xml:space="preserve" onload="init(evt)">
<style type="text/css"><![CDATA[
.edge:hover path { stroke: red; }
.edge:hover polygon { stroke: red; fill: red; }
]]></style>
<script type="text/javascript"><![CDATA[
var edges = document.getElementsByTagName('g');
if (edges && edges.length) {
  for (var i=0;i<edges.length;i++) {
    if (edges[i].id.substr(0,4)=='edge') {
      edges[i].setAttribute('class','edge');
    }
  }
}
]]></script>
        <defs>
                <circle id="rim" cx="0" cy="0" r="7"/>
                <circle id="rim2" cx="0" cy="0" r="3.5"/>
                <g id="zoomPlus">
                        <use xlink:href="#rim" fill="#404040">
                                <set attributeName="fill" to="#808080" begin="zoomplus.mouseover" end="zoomplus.mouseout"/>
                        </use>
                        <path d="M-4,0h8M0,-4v8" fill="none" stroke="white" stroke-width="1.5" pointer-events="none"/>
                </g>
                <g id="zoomMin">
                        <use xlink:href="#rim" fill="#404040">
                                <set attributeName="fill" to="#808080" begin="zoomminus.mouseover" end="zoomminus.mouseout"/>
                        </use>
                        <path d="M-4,0h8" fill="none" stroke="white" stroke-width="1.5" pointer-events="none"/>
                </g>
                <g id="dirArrow">
                        <path fill="none" stroke="white" stroke-width="1.5" d="M0,-3.0v7 M-2.5,-0.5L0,-3.0L2.5,-0.5"/>
                </g>
               <g id="resetDef">
                       <use xlink:href="#rim2" fill="#404040">
                               <set attributeName="fill" to="#808080" begin="reset.mouseover" end="reset.mouseout"/>
                       </use>
               </g>
        </defs>

<script type="text/javascript">
var viewWidth = 595;
var viewHeight = 320;
var sectionId = 'dynsection-0';
</script>
<script xlink:href="svgpan.js"/>
<svg id="graph" class="graph">
<g id="viewport">
<title>ecs::network::PacketManager::Entity</title>
<!-- Node1 -->
<g id="node1" class="node"><title>Node1</title>
<polygon fill="#bfbfbf" stroke="black" points="374.5,-0.5 374.5,-68.5 530.5,-68.5 530.5,-0.5 374.5,-0.5"/>
<text text-anchor="start" x="382.5" y="-56.5" font-family="Helvetica,sans-Serif" font-size="10.00">ecs::network::PacketManager</text>
<text text-anchor="middle" x="452.5" y="-45.5" font-family="Helvetica,sans-Serif" font-size="10.00">::Entity</text>
<polyline fill="none" stroke="black" points="374.5,-38.5 530.5,-38.5 "/>
<text text-anchor="middle" x="452.5" y="-26.5" font-family="Helvetica,sans-Serif" font-size="10.00"> </text>
<polyline fill="none" stroke="black" points="374.5,-19.5 530.5,-19.5 "/>
<text text-anchor="middle" x="452.5" y="-7.5" font-family="Helvetica,sans-Serif" font-size="10.00"> </text>
</g>
<!-- Node2 -->
<g id="node2" class="node"><title>Node2</title>
<g id="a_node2"><a xlink:href="structecs_1_1network_1_1PacketManager_1_1Component.html" target="_top" xlink:title="{ecs::network::PacketManager\l::Component\n||}">
<polygon fill="none" stroke="black" points="259.5,-116.5 259.5,-184.5 415.5,-184.5 415.5,-116.5 259.5,-116.5"/>
<text text-anchor="start" x="267.5" y="-172.5" font-family="Helvetica,sans-Serif" font-size="10.00">ecs::network::PacketManager</text>
<text text-anchor="middle" x="337.5" y="-161.5" font-family="Helvetica,sans-Serif" font-size="10.00">::Component</text>
<polyline fill="none" stroke="black" points="259.5,-154.5 415.5,-154.5 "/>
<text text-anchor="middle" x="337.5" y="-142.5" font-family="Helvetica,sans-Serif" font-size="10.00"> </text>
<polyline fill="none" stroke="black" points="259.5,-135.5 415.5,-135.5 "/>
<text text-anchor="middle" x="337.5" y="-123.5" font-family="Helvetica,sans-Serif" font-size="10.00"> </text>
</a>
</g>
</g>
<!-- Node2&#45;&gt;Node1 -->
<g id="edge1" class="edge"><title>Node2&#45;&gt;Node1</title>
<path fill="none" stroke="#404040" d="M354.568,-116.495C360.687,-106.387 368.16,-95.6598 376.5,-87 380.045,-83.3191 383.894,-79.7523 387.915,-76.3289"/>
<polygon fill="none" stroke="#404040" points="388.182,-76.1152 390.366,-69.2426 397.549,-68.6148 395.366,-75.4874 388.182,-76.1152"/>
<text text-anchor="middle" x="412.5" y="-90" font-family="Helvetica,sans-Serif" font-size="10.00"> +components</text>
</g>
<!-- Node3 -->
<g id="node3" class="node"><title>Node3</title>
<polygon fill="none" stroke="#bfbfbf" points="0,-254.5 0,-311.5 127,-311.5 127,-254.5 0,-254.5"/>
<text text-anchor="middle" x="63.5" y="-299.5" font-family="Helvetica,sans-Serif" font-size="10.00">anonymous:+_position</text>
<polyline fill="none" stroke="#bfbfbf" points="0,-292.5 127,-292.5 "/>
<text text-anchor="middle" x="63.5" y="-280.5" font-family="Helvetica,sans-Serif" font-size="10.00"> </text>
<polyline fill="none" stroke="#bfbfbf" points="0,-273.5 127,-273.5 "/>
<text text-anchor="middle" x="63.5" y="-261.5" font-family="Helvetica,sans-Serif" font-size="10.00"> </text>
</g>
<!-- Node3&#45;&gt;Node2 -->
<g id="edge2" class="edge"><title>Node3&#45;&gt;Node2</title>
<path fill="none" stroke="#404040" d="M102.826,-254.399C127.285,-238.038 159.822,-217.695 190.5,-203 208.56,-194.349 228.471,-186.394 247.652,-179.456"/>
<polygon fill="none" stroke="#404040" points="247.846,-179.387 252.167,-173.613 259.158,-175.381 254.838,-181.154 247.846,-179.387"/>
<text text-anchor="middle" x="218" y="-217" font-family="Helvetica,sans-Serif" font-size="10.00"> +_position</text>
</g>
<!-- Node4 -->
<g id="node4" class="node"><title>Node4</title>
<polygon fill="none" stroke="#bfbfbf" points="145,-254.5 145,-311.5 272,-311.5 272,-254.5 145,-254.5"/>
<text text-anchor="middle" x="208.5" y="-299.5" font-family="Helvetica,sans-Serif" font-size="10.00">anonymous:+_rotation</text>
<polyline fill="none" stroke="#bfbfbf" points="145,-292.5 272,-292.5 "/>
<text text-anchor="middle" x="208.5" y="-280.5" font-family="Helvetica,sans-Serif" font-size="10.00"> </text>
<polyline fill="none" stroke="#bfbfbf" points="145,-273.5 272,-273.5 "/>
<text text-anchor="middle" x="208.5" y="-261.5" font-family="Helvetica,sans-Serif" font-size="10.00"> </text>
</g>
<!-- Node4&#45;&gt;Node2 -->
<g id="edge3" class="edge"><title>Node4&#45;&gt;Node2</title>
<path fill="none" stroke="#404040" d="M231.643,-254.158C244.899,-238.658 262.113,-219.266 278.5,-203 281.877,-199.648 285.434,-196.249 289.058,-192.88"/>
<polygon fill="none" stroke="#404040" points="289.268,-192.689 291.011,-185.691 298.141,-184.609 296.398,-191.606 289.268,-192.689"/>
<text text-anchor="middle" x="306" y="-217" font-family="Helvetica,sans-Serif" font-size="10.00"> +_rotation</text>
</g>
<!-- Node5 -->
<g id="node5" class="node"><title>Node5</title>
<polygon fill="none" stroke="#bfbfbf" points="290.5,-254.5 290.5,-311.5 384.5,-311.5 384.5,-254.5 290.5,-254.5"/>
<text text-anchor="middle" x="337.5" y="-299.5" font-family="Helvetica,sans-Serif" font-size="10.00">ComponentType</text>
<polyline fill="none" stroke="#bfbfbf" points="290.5,-292.5 384.5,-292.5 "/>
<text text-anchor="middle" x="337.5" y="-280.5" font-family="Helvetica,sans-Serif" font-size="10.00"> </text>
<polyline fill="none" stroke="#bfbfbf" points="290.5,-273.5 384.5,-273.5 "/>
<text text-anchor="middle" x="337.5" y="-261.5" font-family="Helvetica,sans-Serif" font-size="10.00"> </text>
</g>
<!-- Node5&#45;&gt;Node2 -->
<g id="edge4" class="edge"><title>Node5&#45;&gt;Node2</title>
<path fill="none" stroke="#404040" d="M337.5,-254.324C337.5,-237.63 337.5,-215.959 337.5,-196.818"/>
<polygon fill="none" stroke="#404040" points="337.5,-196.684 333.5,-190.684 337.5,-184.684 341.5,-190.684 337.5,-196.684"/>
<text text-anchor="middle" x="354" y="-217" font-family="Helvetica,sans-Serif" font-size="10.00"> +type</text>
</g>
<!-- Node6 -->
<g id="node6" class="node"><title>Node6</title>
<polygon fill="none" stroke="#bfbfbf" points="403,-254.5 403,-311.5 432,-311.5 432,-254.5 403,-254.5"/>
<text text-anchor="middle" x="417.5" y="-299.5" font-family="Helvetica,sans-Serif" font-size="10.00">int</text>
<polyline fill="none" stroke="#bfbfbf" points="403,-292.5 432,-292.5 "/>
<text text-anchor="middle" x="417.5" y="-280.5" font-family="Helvetica,sans-Serif" font-size="10.00"> </text>
<polyline fill="none" stroke="#bfbfbf" points="403,-273.5 432,-273.5 "/>
<text text-anchor="middle" x="417.5" y="-261.5" font-family="Helvetica,sans-Serif" font-size="10.00"> </text>
</g>
<!-- Node6&#45;&gt;Node2 -->
<g id="edge5" class="edge"><title>Node6&#45;&gt;Node2</title>
<path fill="none" stroke="#404040" d="M403.591,-254.465C395.544,-239.06 384.963,-219.662 374.5,-203 372.776,-200.254 370.958,-197.458 369.092,-194.66"/>
<polygon fill="none" stroke="#404040" points="368.985,-194.503 362.293,-191.816 362.2,-184.605 368.892,-187.293 368.985,-194.503"/>
<text text-anchor="middle" x="419.5" y="-228" font-family="Helvetica,sans-Serif" font-size="10.00"> +x</text>
<text text-anchor="middle" x="419.5" y="-217" font-family="Helvetica,sans-Serif" font-size="10.00">+y</text>
<text text-anchor="middle" x="419.5" y="-206" font-family="Helvetica,sans-Serif" font-size="10.00">+radAngle</text>
</g>
<!-- Node7 -->
<g id="node7" class="node"><title>Node7</title>
<polygon fill="none" stroke="#bfbfbf" points="450.5,-254.5 450.5,-311.5 550.5,-311.5 550.5,-254.5 450.5,-254.5"/>
<text text-anchor="middle" x="500.5" y="-299.5" font-family="Helvetica,sans-Serif" font-size="10.00">anonymous:+@4</text>
<polyline fill="none" stroke="#bfbfbf" points="450.5,-292.5 550.5,-292.5 "/>
<text text-anchor="middle" x="500.5" y="-280.5" font-family="Helvetica,sans-Serif" font-size="10.00"> </text>
<polyline fill="none" stroke="#bfbfbf" points="450.5,-273.5 550.5,-273.5 "/>
<text text-anchor="middle" x="500.5" y="-261.5" font-family="Helvetica,sans-Serif" font-size="10.00"> </text>
</g>
<!-- Node7&#45;&gt;Node2 -->
<g id="edge6" class="edge"><title>Node7&#45;&gt;Node2</title>
<path fill="none" stroke="#404040" d="M487.655,-254.287C478.832,-237.678 465.782,-217.116 449.5,-203 442.451,-196.888 434.554,-191.365 426.304,-186.406"/>
<polygon fill="none" stroke="#404040" points="426.153,-186.321 418.962,-186.858 415.701,-180.426 422.893,-179.89 426.153,-186.321"/>
<text text-anchor="middle" x="490.5" y="-217" font-family="Helvetica,sans-Serif" font-size="10.00"> +@4</text>
</g>
<!-- Node8 -->
<g id="node8" class="node"><title>Node8</title>
<polygon fill="none" stroke="#bfbfbf" points="433.5,-122 433.5,-179 471.5,-179 471.5,-122 433.5,-122"/>
<text text-anchor="middle" x="452.5" y="-167" font-family="Helvetica,sans-Serif" font-size="10.00">char</text>
<polyline fill="none" stroke="#bfbfbf" points="433.5,-160 471.5,-160 "/>
<text text-anchor="middle" x="452.5" y="-148" font-family="Helvetica,sans-Serif" font-size="10.00"> </text>
<polyline fill="none" stroke="#bfbfbf" points="433.5,-141 471.5,-141 "/>
<text text-anchor="middle" x="452.5" y="-129" font-family="Helvetica,sans-Serif" font-size="10.00"> </text>
</g>
<!-- Node8&#45;&gt;Node1 -->
<g id="edge7" class="edge"><title>Node8&#45;&gt;Node1</title>
<path fill="none" stroke="#404040" d="M452.5,-121.904C452.5,-109.594 452.5,-94.7638 452.5,-80.8919"/>
<polygon fill="none" stroke="#404040" points="452.5,-80.5214 448.5,-74.5214 452.5,-68.5214 456.5,-74.5213 452.5,-80.5214"/>
<text text-anchor="middle" x="497" y="-90" font-family="Helvetica,sans-Serif" font-size="10.00"> +nbrComponents</text>
</g>
<!-- Node9 -->
<g id="node9" class="node"><title>Node9</title>
<polygon fill="none" stroke="#bfbfbf" points="542.5,-122 542.5,-179 586.5,-179 586.5,-122 542.5,-122"/>
<text text-anchor="middle" x="564.5" y="-167" font-family="Helvetica,sans-Serif" font-size="10.00">size_t</text>
<polyline fill="none" stroke="#bfbfbf" points="542.5,-160 586.5,-160 "/>
<text text-anchor="middle" x="564.5" y="-148" font-family="Helvetica,sans-Serif" font-size="10.00"> </text>
<polyline fill="none" stroke="#bfbfbf" points="542.5,-141 586.5,-141 "/>
<text text-anchor="middle" x="564.5" y="-129" font-family="Helvetica,sans-Serif" font-size="10.00"> </text>
</g>
<!-- Node9&#45;&gt;Node1 -->
<g id="edge8" class="edge"><title>Node9&#45;&gt;Node1</title>
<path fill="none" stroke="#404040" d="M559.277,-121.816C555.99,-110.097 550.748,-96.8974 542.5,-87 539.412,-83.2941 535.984,-79.7998 532.321,-76.5133"/>
<polygon fill="none" stroke="#404040" points="532.106,-76.3384 524.927,-75.6584 522.794,-68.7701 529.973,-69.4501 532.106,-76.3384"/>
<text text-anchor="middle" x="560.5" y="-90" font-family="Helvetica,sans-Serif" font-size="10.00"> +id</text>
</g>
</g>
</svg>
        <g id="navigator" transform="translate(0 0)" fill="#404254">
                <rect fill="#f2f5e9" fill-opacity="0.5" stroke="#606060" stroke-width=".5" x="0" y="0" width="60" height="60"/>
                <use id="zoomplus" xlink:href="#zoomPlus" x="17" y="9" onmousedown="handleZoom(evt,'in')"/>
                <use id="zoomminus" xlink:href="#zoomMin" x="42" y="9" onmousedown="handleZoom(evt,'out')"/>
                <use id="reset" xlink:href="#resetDef" x="30" y="36" onmousedown="handleReset()"/>
                <g id="arrowUp" xlink:href="#dirArrow" transform="translate(30 24)" onmousedown="handlePan(0,-1)">
                  <use xlink:href="#rim" fill="#404040">
                        <set attributeName="fill" to="#808080" begin="arrowUp.mouseover" end="arrowUp.mouseout"/>
                  </use>
                  <path fill="none" stroke="white" stroke-width="1.5" d="M0,-3.0v7 M-2.5,-0.5L0,-3.0L2.5,-0.5"/>
                </g>
                <g id="arrowRight" xlink:href="#dirArrow" transform="rotate(90) translate(36 -43)" onmousedown="handlePan(1,0)">
                  <use xlink:href="#rim" fill="#404040">
                        <set attributeName="fill" to="#808080" begin="arrowRight.mouseover" end="arrowRight.mouseout"/>
                  </use>
                  <path fill="none" stroke="white" stroke-width="1.5" d="M0,-3.0v7 M-2.5,-0.5L0,-3.0L2.5,-0.5"/>
                </g>
                <g id="arrowDown" xlink:href="#dirArrow" transform="rotate(180) translate(-30 -48)" onmousedown="handlePan(0,1)">
                  <use xlink:href="#rim" fill="#404040">
                        <set attributeName="fill" to="#808080" begin="arrowDown.mouseover" end="arrowDown.mouseout"/>
                  </use>
                  <path fill="none" stroke="white" stroke-width="1.5" d="M0,-3.0v7 M-2.5,-0.5L0,-3.0L2.5,-0.5"/>
                </g>
                <g id="arrowLeft" xlink:href="#dirArrow" transform="rotate(270) translate(-36 17)" onmousedown="handlePan(-1,0)">
                  <use xlink:href="#rim" fill="#404040">
                        <set attributeName="fill" to="#808080" begin="arrowLeft.mouseover" end="arrowLeft.mouseout"/>
                  </use>
                  <path fill="none" stroke="white" stroke-width="1.5" d="M0,-3.0v7 M-2.5,-0.5L0,-3.0L2.5,-0.5"/>
                </g>
        </g>
        <svg viewBox="0 0 15 15" width="100%" height="30px" preserveAspectRatio="xMaxYMin meet">
         <g id="arrow_out" transform="scale(0.3 0.3)">
          <a xlink:href="structecs_1_1network_1_1PacketManager_1_1Entity__coll__graph_org.svg" target="_base">
           <rect id="button" ry="5" rx="5" y="6" x="6" height="38" width="38"
                fill="#f2f5e9" fill-opacity="0.5" stroke="#606060" stroke-width="1.0"/>
           <path id="arrow"
             d="M 11.500037,31.436501 C 11.940474,20.09759 22.043105,11.32322 32.158766,21.979434 L 37.068811,17.246167 C 37.068811,17.246167 37.088388,32 37.088388,32 L 22.160133,31.978069 C 22.160133,31.978069 26.997745,27.140456 26.997745,27.140456 C 18.528582,18.264221 13.291696,25.230495 11.500037,31.436501 z"
             style="fill:#404040;"/>
          </a>
         </g>
        </svg>
</svg>
