<?xml version="1.0" encoding="UTF-8" standalone="no"?>
<!DOCTYPE svg PUBLIC "-//W3C//DTD SVG 1.1//EN"
 "http://www.w3.org/Graphics/SVG/1.1/DTD/svg11.dtd">
<!-- Generated by graphviz version 2.38.0 (20140413.2041)
 -->
<!-- Title: PlayerInfo Pages: 1 -->
<svg width="138pt" height="171pt"
 viewBox="0.00 0.00 137.50 171.00" xmlns="http://www.w3.org/2000/svg" xmlns:xlink="http://www.w3.org/1999/xlink">
<g id="graph0" class="graph" transform="scale(1 1) rotate(0) translate(4 167)">
<title>PlayerInfo</title>
<!-- Node1 -->
<g id="node1" class="node"><title>Node1</title>
<polygon fill="#bfbfbf" stroke="black" points="25,-0.5 25,-57.5 88,-57.5 88,-0.5 25,-0.5"/>
<text text-anchor="middle" x="56.5" y="-45.5" font-family="Helvetica,sans-Serif" font-size="10.00">PlayerInfo</text>
<polyline fill="none" stroke="black" points="25,-38.5 88,-38.5 "/>
<text text-anchor="middle" x="56.5" y="-26.5" font-family="Helvetica,sans-Serif" font-size="10.00"> </text>
<polyline fill="none" stroke="black" points="25,-19.5 88,-19.5 "/>
<text text-anchor="middle" x="56.5" y="-7.5" font-family="Helvetica,sans-Serif" font-size="10.00"> </text>
</g>
<!-- Node2 -->
<g id="node2" class="node"><title>Node2</title>
<polygon fill="none" stroke="#bfbfbf" points="0,-105.5 0,-162.5 37,-162.5 37,-105.5 0,-105.5"/>
<text text-anchor="middle" x="18.5" y="-150.5" font-family="Helvetica,sans-Serif" font-size="10.00">bool</text>
<polyline fill="none" stroke="#bfbfbf" points="0,-143.5 37,-143.5 "/>
<text text-anchor="middle" x="18.5" y="-131.5" font-family="Helvetica,sans-Serif" font-size="10.00"> </text>
<polyline fill="none" stroke="#bfbfbf" points="0,-124.5 37,-124.5 "/>
<text text-anchor="middle" x="18.5" y="-112.5" font-family="Helvetica,sans-Serif" font-size="10.00"> </text>
</g>
<!-- Node2&#45;&gt;Node1 -->
<g id="edge1" class="edge"><title>Node2&#45;&gt;Node1</title>
<path fill="none" stroke="#404040" d="M15.4023,-105.375C15.258,-95.8245 16.1635,-85.2128 19.5,-76 20.4864,-73.2762 21.7061,-70.5931 23.0955,-67.9749"/>
<polygon fill="none" stroke="#404040" points="23.2084,-67.7955 23.0188,-60.5869 29.6,-57.6393 29.7896,-64.848 23.2084,-67.7955"/>
<text text-anchor="middle" x="46" y="-79" font-family="Helvetica,sans-Serif" font-size="10.00"> +_isReady</text>
</g>
<!-- Node3 -->
<g id="node3" class="node"><title>Node3</title>
<polygon fill="none" stroke="#bfbfbf" points="72.5,-105.5 72.5,-162.5 116.5,-162.5 116.5,-105.5 72.5,-105.5"/>
<text text-anchor="middle" x="94.5" y="-150.5" font-family="Helvetica,sans-Serif" font-size="10.00">string</text>
<polyline fill="none" stroke="#bfbfbf" points="72.5,-143.5 116.5,-143.5 "/>
<text text-anchor="middle" x="94.5" y="-131.5" font-family="Helvetica,sans-Serif" font-size="10.00"> </text>
<polyline fill="none" stroke="#bfbfbf" points="72.5,-124.5 116.5,-124.5 "/>
<text text-anchor="middle" x="94.5" y="-112.5" font-family="Helvetica,sans-Serif" font-size="10.00"> </text>
</g>
<!-- Node3&#45;&gt;Node1 -->
<g id="edge2" class="edge"><title>Node3&#45;&gt;Node1</title>
<path fill="none" stroke="#404040" d="M84.3167,-105.398C80.2276,-94.3142 75.4384,-81.333 70.9975,-69.2957"/>
<polygon fill="none" stroke="#404040" points="70.865,-68.9366 65.0355,-64.692 66.7114,-57.6783 72.541,-61.9229 70.865,-68.9366"/>
<text text-anchor="middle" x="103.5" y="-79" font-family="Helvetica,sans-Serif" font-size="10.00"> +_pseudo</text>
</g>
</g>
</svg>
