<?xml version="1.0" encoding="UTF-8" standalone="no"?>
<!DOCTYPE svg PUBLIC "-//W3C//DTD SVG 1.1//EN"
 "http://www.w3.org/Graphics/SVG/1.1/DTD/svg11.dtd">
<!-- Generated by graphviz version 2.38.0 (20140413.2041)
 -->
<!-- Title: ecs::network::PacketManager::Component Pages: 1 -->
<svg width="559pt" height="204pt"
 viewBox="0.00 0.00 558.50 204.00" xmlns="http://www.w3.org/2000/svg" xmlns:xlink="http://www.w3.org/1999/xlink">
<g id="graph0" class="graph" transform="scale(1 1) rotate(0) translate(4 200)">
<title>ecs::network::PacketManager::Component</title>
<!-- Node1 -->
<g id="node1" class="node"><title>Node1</title>
<polygon fill="#bfbfbf" stroke="black" points="259.5,-0.5 259.5,-68.5 415.5,-68.5 415.5,-0.5 259.5,-0.5"/>
<text text-anchor="start" x="267.5" y="-56.5" font-family="Helvetica,sans-Serif" font-size="10.00">ecs::network::PacketManager</text>
<text text-anchor="middle" x="337.5" y="-45.5" font-family="Helvetica,sans-Serif" font-size="10.00">::Component</text>
<polyline fill="none" stroke="black" points="259.5,-38.5 415.5,-38.5 "/>
<text text-anchor="middle" x="337.5" y="-26.5" font-family="Helvetica,sans-Serif" font-size="10.00"> </text>
<polyline fill="none" stroke="black" points="259.5,-19.5 415.5,-19.5 "/>
<text text-anchor="middle" x="337.5" y="-7.5" font-family="Helvetica,sans-Serif" font-size="10.00"> </text>
</g>
<!-- Node2 -->
<g id="node2" class="node"><title>Node2</title>
<polygon fill="none" stroke="#bfbfbf" points="0,-138.5 0,-195.5 127,-195.5 127,-138.5 0,-138.5"/>
<text text-anchor="middle" x="63.5" y="-183.5" font-family="Helvetica,sans-Serif" font-size="10.00">anonymous:+_position</text>
<polyline fill="none" stroke="#bfbfbf" points="0,-176.5 127,-176.5 "/>
<text text-anchor="middle" x="63.5" y="-164.5" font-family="Helvetica,sans-Serif" font-size="10.00"> </text>
<polyline fill="none" stroke="#bfbfbf" points="0,-157.5 127,-157.5 "/>
<text text-anchor="middle" x="63.5" y="-145.5" font-family="Helvetica,sans-Serif" font-size="10.00"> </text>
</g>
<!-- Node2&#45;&gt;Node1 -->
<g id="edge1" class="edge"><title>Node2&#45;&gt;Node1</title>
<path fill="none" stroke="#404040" d="M102.826,-138.399C127.285,-122.038 159.822,-101.695 190.5,-87 208.56,-78.3491 228.471,-70.3938 247.652,-63.4556"/>
<polygon fill="none" stroke="#404040" points="247.846,-63.3867 252.167,-57.6131 259.158,-59.3805 254.838,-65.1541 247.846,-63.3867"/>
<text text-anchor="middle" x="218" y="-101" font-family="Helvetica,sans-Serif" font-size="10.00"> +_position</text>
</g>
<!-- Node3 -->
<g id="node3" class="node"><title>Node3</title>
<polygon fill="none" stroke="#bfbfbf" points="145,-138.5 145,-195.5 272,-195.5 272,-138.5 145,-138.5"/>
<text text-anchor="middle" x="208.5" y="-183.5" font-family="Helvetica,sans-Serif" font-size="10.00">anonymous:+_rotation</text>
<polyline fill="none" stroke="#bfbfbf" points="145,-176.5 272,-176.5 "/>
<text text-anchor="middle" x="208.5" y="-164.5" font-family="Helvetica,sans-Serif" font-size="10.00"> </text>
<polyline fill="none" stroke="#bfbfbf" points="145,-157.5 272,-157.5 "/>
<text text-anchor="middle" x="208.5" y="-145.5" font-family="Helvetica,sans-Serif" font-size="10.00"> </text>
</g>
<!-- Node3&#45;&gt;Node1 -->
<g id="edge2" class="edge"><title>Node3&#45;&gt;Node1</title>
<path fill="none" stroke="#404040" d="M231.643,-138.158C244.899,-122.658 262.113,-103.266 278.5,-87 281.877,-83.6476 285.434,-80.2493 289.058,-76.8802"/>
<polygon fill="none" stroke="#404040" points="289.268,-76.6886 291.011,-69.6912 298.141,-68.6086 296.398,-75.606 289.268,-76.6886"/>
<text text-anchor="middle" x="306" y="-101" font-family="Helvetica,sans-Serif" font-size="10.00"> +_rotation</text>
</g>
<!-- Node4 -->
<g id="node4" class="node"><title>Node4</title>
<polygon fill="none" stroke="#bfbfbf" points="290.5,-138.5 290.5,-195.5 384.5,-195.5 384.5,-138.5 290.5,-138.5"/>
<text text-anchor="middle" x="337.5" y="-183.5" font-family="Helvetica,sans-Serif" font-size="10.00">ComponentType</text>
<polyline fill="none" stroke="#bfbfbf" points="290.5,-176.5 384.5,-176.5 "/>
<text text-anchor="middle" x="337.5" y="-164.5" font-family="Helvetica,sans-Serif" font-size="10.00"> </text>
<polyline fill="none" stroke="#bfbfbf" points="290.5,-157.5 384.5,-157.5 "/>
<text text-anchor="middle" x="337.5" y="-145.5" font-family="Helvetica,sans-Serif" font-size="10.00"> </text>
</g>
<!-- Node4&#45;&gt;Node1 -->
<g id="edge3" class="edge"><title>Node4&#45;&gt;Node1</title>
<path fill="none" stroke="#404040" d="M337.5,-138.324C337.5,-121.63 337.5,-99.9589 337.5,-80.8185"/>
<polygon fill="none" stroke="#404040" points="337.5,-80.6838 333.5,-74.6838 337.5,-68.6838 341.5,-74.6838 337.5,-80.6838"/>
<text text-anchor="middle" x="354" y="-101" font-family="Helvetica,sans-Serif" font-size="10.00"> +type</text>
</g>
<!-- Node5 -->
<g id="node5" class="node"><title>Node5</title>
<polygon fill="none" stroke="#bfbfbf" points="403,-138.5 403,-195.5 432,-195.5 432,-138.5 403,-138.5"/>
<text text-anchor="middle" x="417.5" y="-183.5" font-family="Helvetica,sans-Serif" font-size="10.00">int</text>
<polyline fill="none" stroke="#bfbfbf" points="403,-176.5 432,-176.5 "/>
<text text-anchor="middle" x="417.5" y="-164.5" font-family="Helvetica,sans-Serif" font-size="10.00"> </text>
<polyline fill="none" stroke="#bfbfbf" points="403,-157.5 432,-157.5 "/>
<text text-anchor="middle" x="417.5" y="-145.5" font-family="Helvetica,sans-Serif" font-size="10.00"> </text>
</g>
<!-- Node5&#45;&gt;Node1 -->
<g id="edge4" class="edge"><title>Node5&#45;&gt;Node1</title>
<path fill="none" stroke="#404040" d="M403.591,-138.465C395.544,-123.06 384.963,-103.662 374.5,-87 372.776,-84.254 370.958,-81.4581 369.092,-78.6603"/>
<polygon fill="none" stroke="#404040" points="368.985,-78.5034 362.293,-75.8158 362.2,-68.6053 368.892,-71.2928 368.985,-78.5034"/>
<text text-anchor="middle" x="419.5" y="-112" font-family="Helvetica,sans-Serif" font-size="10.00"> +x</text>
<text text-anchor="middle" x="419.5" y="-101" font-family="Helvetica,sans-Serif" font-size="10.00">+y</text>
<text text-anchor="middle" x="419.5" y="-90" font-family="Helvetica,sans-Serif" font-size="10.00">+radAngle</text>
</g>
<!-- Node6 -->
<g id="node6" class="node"><title>Node6</title>
<polygon fill="none" stroke="#bfbfbf" points="450.5,-138.5 450.5,-195.5 550.5,-195.5 550.5,-138.5 450.5,-138.5"/>
<text text-anchor="middle" x="500.5" y="-183.5" font-family="Helvetica,sans-Serif" font-size="10.00">anonymous:+@4</text>
<polyline fill="none" stroke="#bfbfbf" points="450.5,-176.5 550.5,-176.5 "/>
<text text-anchor="middle" x="500.5" y="-164.5" font-family="Helvetica,sans-Serif" font-size="10.00"> </text>
<polyline fill="none" stroke="#bfbfbf" points="450.5,-157.5 550.5,-157.5 "/>
<text text-anchor="middle" x="500.5" y="-145.5" font-family="Helvetica,sans-Serif" font-size="10.00"> </text>
</g>
<!-- Node6&#45;&gt;Node1 -->
<g id="edge5" class="edge"><title>Node6&#45;&gt;Node1</title>
<path fill="none" stroke="#404040" d="M487.655,-138.287C478.832,-121.678 465.782,-101.116 449.5,-87 442.451,-80.8884 434.554,-75.3649 426.304,-70.4064"/>
<polygon fill="none" stroke="#404040" points="426.153,-70.3214 418.962,-70.8578 415.701,-64.426 422.893,-63.8897 426.153,-70.3214"/>
<text text-anchor="middle" x="490.5" y="-101" font-family="Helvetica,sans-Serif" font-size="10.00"> +@4</text>
</g>
</g>
</svg>
