<?xml version="1.0" encoding="UTF-8" standalone="no"?>
<!DOCTYPE svg PUBLIC "-//W3C//DTD SVG 1.1//EN"
 "http://www.w3.org/Graphics/SVG/1.1/DTD/svg11.dtd">
<!-- Generated by graphviz version 2.38.0 (20140413.2041)
 -->
<!-- Title: src/Exceptions/SystemExceptions.cpp Pages: 1 -->
<svg width="248pt" height="252pt"
 viewBox="0.00 0.00 247.50 252.00" xmlns="http://www.w3.org/2000/svg" xmlns:xlink="http://www.w3.org/1999/xlink">
<g id="graph0" class="graph" transform="scale(1 1) rotate(0) translate(4 248)">
<title>src/Exceptions/SystemExceptions.cpp</title>
<!-- Node1 -->
<g id="node1" class="node"><title>Node1</title>
<polygon fill="#bfbfbf" stroke="black" points="0,-224.5 0,-243.5 197,-243.5 197,-224.5 0,-224.5"/>
<text text-anchor="middle" x="98.5" y="-231.5" font-family="Helvetica,sans-Serif" font-size="10.00">src/Exceptions/SystemExceptions.cpp</text>
</g>
<!-- Node2 -->
<g id="node2" class="node"><title>Node2</title>
<g id="a_node2"><a xlink:href="SystemExceptions_8hpp.html" target="_top" xlink:title="SystemExceptions.hpp">
<polygon fill="none" stroke="black" points="35.5,-168.5 35.5,-187.5 161.5,-187.5 161.5,-168.5 35.5,-168.5"/>
<text text-anchor="middle" x="98.5" y="-175.5" font-family="Helvetica,sans-Serif" font-size="10.00">SystemExceptions.hpp</text>
</a>
</g>
</g>
<!-- Node1&#45;&gt;Node2 -->
<g id="edge1" class="edge"><title>Node1&#45;&gt;Node2</title>
<path fill="none" stroke="midnightblue" d="M98.5,-224.083C98.5,-217.006 98.5,-206.861 98.5,-197.986"/>
<polygon fill="midnightblue" stroke="midnightblue" points="102,-197.751 98.5,-187.751 95.0001,-197.751 102,-197.751"/>
</g>
<!-- Node3 -->
<g id="node3" class="node"><title>Node3</title>
<polygon fill="none" stroke="#bfbfbf" points="73.5,-0.5 73.5,-19.5 117.5,-19.5 117.5,-0.5 73.5,-0.5"/>
<text text-anchor="middle" x="95.5" y="-7.5" font-family="Helvetica,sans-Serif" font-size="10.00">string</text>
</g>
<!-- Node2&#45;&gt;Node3 -->
<g id="edge2" class="edge"><title>Node2&#45;&gt;Node3</title>
<path fill="none" stroke="midnightblue" d="M92.8622,-168.481C87.446,-159.745 79.6363,-145.556 76.5,-132 68.1454,-95.8891 79.976,-52.8575 88.3777,-29.0703"/>
<polygon fill="midnightblue" stroke="midnightblue" points="91.6985,-30.1819 91.9118,-19.5892 85.1394,-27.7369 91.6985,-30.1819"/>
</g>
<!-- Node4 -->
<g id="node4" class="node"><title>Node4</title>
<g id="a_node4"><a xlink:href="ECSExceptions_8hpp.html" target="_top" xlink:title="ECSExceptions.hpp">
<polygon fill="none" stroke="black" points="86,-112.5 86,-131.5 195,-131.5 195,-112.5 86,-112.5"/>
<text text-anchor="middle" x="140.5" y="-119.5" font-family="Helvetica,sans-Serif" font-size="10.00">ECSExceptions.hpp</text>
</a>
</g>
</g>
<!-- Node2&#45;&gt;Node4 -->
<g id="edge3" class="edge"><title>Node2&#45;&gt;Node4</title>
<path fill="none" stroke="midnightblue" d="M105.435,-168.083C111.429,-160.377 120.252,-149.033 127.548,-139.653"/>
<polygon fill="midnightblue" stroke="midnightblue" points="130.317,-141.793 133.694,-131.751 124.791,-137.496 130.317,-141.793"/>
</g>
<!-- Node4&#45;&gt;Node3 -->
<g id="edge4" class="edge"><title>Node4&#45;&gt;Node3</title>
<path fill="none" stroke="midnightblue" d="M134.668,-112.361C128.914,-103.533 120.177,-89.2734 114.5,-76 107.998,-60.7988 102.907,-42.6845 99.6374,-29.4444"/>
<polygon fill="midnightblue" stroke="midnightblue" points="103.028,-28.5719 97.3291,-19.6402 96.214,-30.1762 103.028,-28.5719"/>
</g>
<!-- Node5 -->
<g id="node5" class="node"><title>Node5</title>
<g id="a_node5"><a xlink:href="RTypeExceptions_8hpp.html" target="_top" xlink:title="RTypeExceptions.hpp">
<polygon fill="none" stroke="black" points="123.5,-56.5 123.5,-75.5 239.5,-75.5 239.5,-56.5 123.5,-56.5"/>
<text text-anchor="middle" x="181.5" y="-63.5" font-family="Helvetica,sans-Serif" font-size="10.00">RTypeExceptions.hpp</text>
</a>
</g>
</g>
<!-- Node4&#45;&gt;Node5 -->
<g id="edge5" class="edge"><title>Node4&#45;&gt;Node5</title>
<path fill="none" stroke="midnightblue" d="M147.27,-112.083C153.062,-104.455 161.558,-93.2645 168.638,-83.9408"/>
<polygon fill="midnightblue" stroke="midnightblue" points="171.596,-85.8321 174.856,-75.7511 166.021,-81.5991 171.596,-85.8321"/>
</g>
<!-- Node5&#45;&gt;Node3 -->
<g id="edge6" class="edge"><title>Node5&#45;&gt;Node3</title>
<path fill="none" stroke="midnightblue" d="M167.683,-56.324C154.267,-47.9002 133.676,-34.9709 117.914,-25.0741"/>
<polygon fill="midnightblue" stroke="midnightblue" points="119.613,-22.0081 109.283,-19.6545 115.891,-27.9364 119.613,-22.0081"/>
</g>
</g>
</svg>
