<?xml version="1.0" encoding="UTF-8" standalone="no"?>
<!DOCTYPE svg PUBLIC "-//W3C//DTD SVG 1.1//EN"
 "http://www.w3.org/Graphics/SVG/1.1/DTD/svg11.dtd">
<!-- Generated by graphviz version 2.38.0 (20140413.2041)
 -->
<!-- Title: src/Systems/SystemManager/SystemManager.hpp Pages: 1 -->
<svg width="1228pt" height="397pt"
 viewBox="0.00 0.00 1227.50 397.00" xmlns="http://www.w3.org/2000/svg" xmlns:xlink="http://www.w3.org/1999/xlink">
<g id="graph0" class="graph" transform="scale(1 1) rotate(0) translate(4 393)">
<title>src/Systems/SystemManager/SystemManager.hpp</title>
<!-- Node1 -->
<g id="node1" class="node"><title>Node1</title>
<polygon fill="#bfbfbf" stroke="black" points="916.5,-358.5 916.5,-388.5 1074.5,-388.5 1074.5,-358.5 916.5,-358.5"/>
<text text-anchor="start" x="924.5" y="-376.5" font-family="Helvetica,sans-Serif" font-size="10.00">src/Systems/SystemManager</text>
<text text-anchor="middle" x="995.5" y="-365.5" font-family="Helvetica,sans-Serif" font-size="10.00">/SystemManager.hpp</text>
</g>
<!-- Node2 -->
<g id="node2" class="node"><title>Node2</title>
<g id="a_node2"><a xlink:href="IEcs_8hpp.html" target="_top" xlink:title="src/IEcs.hpp">
<polygon fill="none" stroke="black" points="753.5,-230 753.5,-249 827.5,-249 827.5,-230 753.5,-230"/>
<text text-anchor="middle" x="790.5" y="-237" font-family="Helvetica,sans-Serif" font-size="10.00">src/IEcs.hpp</text>
</a>
</g>
</g>
<!-- Node1&#45;&gt;Node2 -->
<g id="edge1" class="edge"><title>Node1&#45;&gt;Node2</title>
<path fill="none" stroke="midnightblue" d="M906.468,-356.859C881.914,-349.35 856.544,-338.283 836.5,-322 812.035,-302.125 798.233,-265.569 792.983,-249.028"/>
<polygon fill="midnightblue" stroke="midnightblue" points="905.611,-360.254 916.189,-359.664 907.552,-353.528 905.611,-360.254"/>
</g>
<!-- Node15 -->
<g id="node15" class="node"><title>Node15</title>
<g id="a_node15"><a xlink:href="Rtype_8hpp.html" target="_top" xlink:title="src/Rtype.hpp">
<polygon fill="none" stroke="black" points="923.5,-56.5 923.5,-75.5 1005.5,-75.5 1005.5,-56.5 923.5,-56.5"/>
<text text-anchor="middle" x="964.5" y="-63.5" font-family="Helvetica,sans-Serif" font-size="10.00">src/Rtype.hpp</text>
</a>
</g>
</g>
<!-- Node1&#45;&gt;Node15 -->
<g id="edge24" class="edge"><title>Node1&#45;&gt;Node15</title>
<path fill="none" stroke="midnightblue" d="M995.5,-347.989C995.5,-321.487 995.5,-277.997 995.5,-240.5 995.5,-240.5 995.5,-240.5 995.5,-177 995.5,-137.913 977.142,-93.8437 968.681,-75.6067"/>
<polygon fill="midnightblue" stroke="midnightblue" points="992,-348.241 995.5,-358.241 999,-348.241 992,-348.241"/>
</g>
<!-- Node17 -->
<g id="node17" class="node"><title>Node17</title>
<g id="a_node17"><a xlink:href="Rtype_8cpp.html" target="_top" xlink:title="src/Rtype.cpp">
<polygon fill="none" stroke="black" points="993,-0.5 993,-19.5 1074,-19.5 1074,-0.5 993,-0.5"/>
<text text-anchor="middle" x="1033.5" y="-7.5" font-family="Helvetica,sans-Serif" font-size="10.00">src/Rtype.cpp</text>
</a>
</g>
</g>
<!-- Node1&#45;&gt;Node17 -->
<g id="edge25" class="edge"><title>Node1&#45;&gt;Node17</title>
<path fill="none" stroke="midnightblue" d="M1006.65,-348.859C1017.87,-322.89 1033.5,-279.658 1033.5,-240.5 1033.5,-240.5 1033.5,-240.5 1033.5,-121 1033.5,-83.1875 1033.5,-38.0636 1033.5,-19.5578"/>
<polygon fill="midnightblue" stroke="midnightblue" points="1003.35,-347.68 1002.47,-358.238 1009.74,-350.532 1003.35,-347.68"/>
</g>
<!-- Node18 -->
<g id="node18" class="node"><title>Node18</title>
<g id="a_node18"><a xlink:href="FactoriesWrapper_8hpp.html" target="_top" xlink:title="src/FactoriesWrapper\l/FactoriesWrapper.hpp">
<polygon fill="none" stroke="black" points="845.5,-291.5 845.5,-321.5 967.5,-321.5 967.5,-291.5 845.5,-291.5"/>
<text text-anchor="start" x="853.5" y="-309.5" font-family="Helvetica,sans-Serif" font-size="10.00">src/FactoriesWrapper</text>
<text text-anchor="middle" x="906.5" y="-298.5" font-family="Helvetica,sans-Serif" font-size="10.00">/FactoriesWrapper.hpp</text>
</a>
</g>
</g>
<!-- Node1&#45;&gt;Node18 -->
<g id="edge21" class="edge"><title>Node1&#45;&gt;Node18</title>
<path fill="none" stroke="midnightblue" d="M968.048,-352.451C954.357,-342.452 938.129,-330.6 925.774,-321.577"/>
<polygon fill="midnightblue" stroke="midnightblue" points="966.048,-355.324 976.188,-358.396 970.177,-349.672 966.048,-355.324"/>
</g>
<!-- Node20 -->
<g id="node20" class="node"><title>Node20</title>
<g id="a_node20"><a xlink:href="SystemManager_8cpp.html" target="_top" xlink:title="src/Systems/SystemManager\l/SystemManager.cpp">
<polygon fill="none" stroke="black" points="1061.5,-291.5 1061.5,-321.5 1219.5,-321.5 1219.5,-291.5 1061.5,-291.5"/>
<text text-anchor="start" x="1069.5" y="-309.5" font-family="Helvetica,sans-Serif" font-size="10.00">src/Systems/SystemManager</text>
<text text-anchor="middle" x="1140.5" y="-298.5" font-family="Helvetica,sans-Serif" font-size="10.00">/SystemManager.cpp</text>
</a>
</g>
</g>
<!-- Node1&#45;&gt;Node20 -->
<g id="edge26" class="edge"><title>Node1&#45;&gt;Node20</title>
<path fill="none" stroke="midnightblue" d="M1036.17,-354.269C1059.26,-343.916 1087.74,-331.153 1109.1,-321.577"/>
<polygon fill="midnightblue" stroke="midnightblue" points="1034.66,-351.112 1026.96,-358.396 1037.52,-357.499 1034.66,-351.112"/>
</g>
<!-- Node3 -->
<g id="node3" class="node"><title>Node3</title>
<g id="a_node3"><a xlink:href="Ecs_8hpp.html" target="_top" xlink:title="src/Ecs.hpp">
<polygon fill="none" stroke="black" points="472,-168.5 472,-187.5 543,-187.5 543,-168.5 472,-168.5"/>
<text text-anchor="middle" x="507.5" y="-175.5" font-family="Helvetica,sans-Serif" font-size="10.00">src/Ecs.hpp</text>
</a>
</g>
</g>
<!-- Node2&#45;&gt;Node3 -->
<g id="edge2" class="edge"><title>Node2&#45;&gt;Node3</title>
<path fill="none" stroke="midnightblue" d="M743.119,-228.538C686.692,-216.675 593.728,-197.129 543.085,-186.482"/>
<polygon fill="midnightblue" stroke="midnightblue" points="742.705,-232.028 753.212,-230.66 744.146,-225.178 742.705,-232.028"/>
</g>
<!-- Node4 -->
<g id="node4" class="node"><title>Node4</title>
<g id="a_node4"><a xlink:href="Ecs_8cpp.html" target="_top" xlink:title="src/Ecs.cpp">
<polygon fill="none" stroke="black" points="0,-112.5 0,-131.5 71,-131.5 71,-112.5 0,-112.5"/>
<text text-anchor="middle" x="35.5" y="-119.5" font-family="Helvetica,sans-Serif" font-size="10.00">src/Ecs.cpp</text>
</a>
</g>
</g>
<!-- Node3&#45;&gt;Node4 -->
<g id="edge3" class="edge"><title>Node3&#45;&gt;Node4</title>
<path fill="none" stroke="midnightblue" d="M461.804,-173.66C383.327,-167.597 218.007,-153.395 79.5,-132 76.8801,-131.595 74.1799,-131.139 71.4671,-130.653"/>
<polygon fill="midnightblue" stroke="midnightblue" points="461.601,-177.154 471.838,-174.427 462.134,-170.175 461.601,-177.154"/>
</g>
<!-- Node5 -->
<g id="node5" class="node"><title>Node5</title>
<g id="a_node5"><a xlink:href="ChooseRoomScene_8hpp.html" target="_top" xlink:title="src/Scenes/ChooseRoomScene.hpp">
<polygon fill="none" stroke="black" points="599.5,-112.5 599.5,-131.5 785.5,-131.5 785.5,-112.5 599.5,-112.5"/>
<text text-anchor="middle" x="692.5" y="-119.5" font-family="Helvetica,sans-Serif" font-size="10.00">src/Scenes/ChooseRoomScene.hpp</text>
</a>
</g>
</g>
<!-- Node3&#45;&gt;Node5 -->
<g id="edge4" class="edge"><title>Node3&#45;&gt;Node5</title>
<path fill="none" stroke="midnightblue" d="M546.666,-165.568C581.565,-155.381 631.849,-140.703 663.323,-131.516"/>
<polygon fill="midnightblue" stroke="midnightblue" points="545.433,-162.282 536.814,-168.444 547.394,-169.001 545.433,-162.282"/>
</g>
<!-- Node8 -->
<g id="node8" class="node"><title>Node8</title>
<g id="a_node8"><a xlink:href="DefeatScene_8hpp.html" target="_top" xlink:title="src/Scenes/DefeatScene.hpp">
<polygon fill="none" stroke="black" points="89,-112.5 89,-131.5 244,-131.5 244,-112.5 89,-112.5"/>
<text text-anchor="middle" x="166.5" y="-119.5" font-family="Helvetica,sans-Serif" font-size="10.00">src/Scenes/DefeatScene.hpp</text>
</a>
</g>
</g>
<!-- Node3&#45;&gt;Node8 -->
<g id="edge7" class="edge"><title>Node3&#45;&gt;Node8</title>
<path fill="none" stroke="midnightblue" d="M462.003,-169.795C399.441,-159.888 287.04,-142.088 220.358,-131.529"/>
<polygon fill="midnightblue" stroke="midnightblue" points="461.548,-173.267 471.972,-171.374 462.643,-166.353 461.548,-173.267"/>
</g>
<!-- Node10 -->
<g id="node10" class="node"><title>Node10</title>
<g id="a_node10"><a xlink:href="GameScene_8hpp.html" target="_top" xlink:title="src/Scenes/GameScene.hpp">
<polygon fill="none" stroke="black" points="262.5,-112.5 262.5,-131.5 414.5,-131.5 414.5,-112.5 262.5,-112.5"/>
<text text-anchor="middle" x="338.5" y="-119.5" font-family="Helvetica,sans-Serif" font-size="10.00">src/Scenes/GameScene.hpp</text>
</a>
</g>
</g>
<!-- Node3&#45;&gt;Node10 -->
<g id="edge10" class="edge"><title>Node3&#45;&gt;Node10</title>
<path fill="none" stroke="midnightblue" d="M470.897,-165.304C439.053,-155.129 393.658,-140.625 365.153,-131.516"/>
<polygon fill="midnightblue" stroke="midnightblue" points="470.131,-168.734 480.721,-168.444 472.261,-162.066 470.131,-168.734"/>
</g>
<!-- Node12 -->
<g id="node12" class="node"><title>Node12</title>
<g id="a_node12"><a xlink:href="MenuScene_8hpp.html" target="_top" xlink:title="src/Scenes/MenuScene.hpp">
<polygon fill="none" stroke="black" points="433,-112.5 433,-131.5 582,-131.5 582,-112.5 433,-112.5"/>
<text text-anchor="middle" x="507.5" y="-119.5" font-family="Helvetica,sans-Serif" font-size="10.00">src/Scenes/MenuScene.hpp</text>
</a>
</g>
</g>
<!-- Node3&#45;&gt;Node12 -->
<g id="edge13" class="edge"><title>Node3&#45;&gt;Node12</title>
<path fill="none" stroke="midnightblue" d="M507.5,-157.805C507.5,-148.91 507.5,-138.78 507.5,-131.751"/>
<polygon fill="midnightblue" stroke="midnightblue" points="504,-158.083 507.5,-168.083 511,-158.083 504,-158.083"/>
</g>
<!-- Node14 -->
<g id="node14" class="node"><title>Node14</title>
<g id="a_node14"><a xlink:href="SceneManager_8hpp.html" target="_top" xlink:title="src/Scenes/SceneManager.hpp">
<polygon fill="none" stroke="black" points="803.5,-112.5 803.5,-131.5 967.5,-131.5 967.5,-112.5 803.5,-112.5"/>
<text text-anchor="middle" x="885.5" y="-119.5" font-family="Helvetica,sans-Serif" font-size="10.00">src/Scenes/SceneManager.hpp</text>
</a>
</g>
</g>
<!-- Node3&#45;&gt;Node14 -->
<g id="edge16" class="edge"><title>Node3&#45;&gt;Node14</title>
<path fill="none" stroke="midnightblue" d="M553.074,-170.489C621.293,-160.744 750.018,-142.355 825.707,-131.542"/>
<polygon fill="midnightblue" stroke="midnightblue" points="552.466,-167.041 543.061,-171.92 553.456,-173.97 552.466,-167.041"/>
</g>
<!-- Node6 -->
<g id="node6" class="node"><title>Node6</title>
<g id="a_node6"><a xlink:href="ChooseRoomScene_8cpp.html" target="_top" xlink:title="src/Scenes/ChooseRoomScene.cpp">
<polygon fill="none" stroke="black" points="720,-56.5 720,-75.5 905,-75.5 905,-56.5 720,-56.5"/>
<text text-anchor="middle" x="812.5" y="-63.5" font-family="Helvetica,sans-Serif" font-size="10.00">src/Scenes/ChooseRoomScene.cpp</text>
</a>
</g>
</g>
<!-- Node5&#45;&gt;Node6 -->
<g id="edge5" class="edge"><title>Node5&#45;&gt;Node6</title>
<path fill="none" stroke="midnightblue" d="M720.873,-108.232C743.32,-98.1312 774.035,-84.3091 793.575,-75.5164"/>
<polygon fill="midnightblue" stroke="midnightblue" points="719.197,-105.148 711.514,-112.444 722.07,-111.532 719.197,-105.148"/>
</g>
<!-- Node7 -->
<g id="node7" class="node"><title>Node7</title>
<g id="a_node7"><a xlink:href="SceneManager_8cpp.html" target="_top" xlink:title="src/Scenes/SceneManager.cpp">
<polygon fill="none" stroke="black" points="370.5,-56.5 370.5,-75.5 534.5,-75.5 534.5,-56.5 370.5,-56.5"/>
<text text-anchor="middle" x="452.5" y="-63.5" font-family="Helvetica,sans-Serif" font-size="10.00">src/Scenes/SceneManager.cpp</text>
</a>
</g>
</g>
<!-- Node5&#45;&gt;Node7 -->
<g id="edge6" class="edge"><title>Node5&#45;&gt;Node7</title>
<path fill="none" stroke="midnightblue" d="M644.577,-110.217C599.226,-100.013 532.058,-84.9006 490.351,-75.5164"/>
<polygon fill="midnightblue" stroke="midnightblue" points="643.947,-113.663 654.471,-112.444 645.484,-106.834 643.947,-113.663"/>
</g>
<!-- Node8&#45;&gt;Node7 -->
<g id="edge9" class="edge"><title>Node8&#45;&gt;Node7</title>
<path fill="none" stroke="midnightblue" d="M221.914,-110.537C275.966,-100.332 357.171,-84.9992 407.394,-75.5164"/>
<polygon fill="midnightblue" stroke="midnightblue" points="220.995,-107.149 211.818,-112.444 222.293,-114.027 220.995,-107.149"/>
</g>
<!-- Node9 -->
<g id="node9" class="node"><title>Node9</title>
<g id="a_node9"><a xlink:href="DefeatScene_8cpp.html" target="_top" xlink:title="src/Scenes/DefeatScene.cpp">
<polygon fill="none" stroke="black" points="27,-56.5 27,-75.5 182,-75.5 182,-56.5 27,-56.5"/>
<text text-anchor="middle" x="104.5" y="-63.5" font-family="Helvetica,sans-Serif" font-size="10.00">src/Scenes/DefeatScene.cpp</text>
</a>
</g>
</g>
<!-- Node8&#45;&gt;Node9 -->
<g id="edge8" class="edge"><title>Node8&#45;&gt;Node9</title>
<path fill="none" stroke="midnightblue" d="M148.746,-105.537C137.692,-95.9087 123.869,-83.8694 114.643,-75.8339"/>
<polygon fill="midnightblue" stroke="midnightblue" points="146.699,-108.395 156.539,-112.324 151.297,-103.117 146.699,-108.395"/>
</g>
<!-- Node10&#45;&gt;Node7 -->
<g id="edge12" class="edge"><title>Node10&#45;&gt;Node7</title>
<path fill="none" stroke="midnightblue" d="M365.742,-108.096C387.04,-98.0073 416.042,-84.2697 434.521,-75.5164"/>
<polygon fill="midnightblue" stroke="midnightblue" points="364.103,-105 356.564,-112.444 367.099,-111.326 364.103,-105"/>
</g>
<!-- Node11 -->
<g id="node11" class="node"><title>Node11</title>
<g id="a_node11"><a xlink:href="GameScene_8cpp.html" target="_top" xlink:title="src/Scenes/GameScene.cpp">
<polygon fill="none" stroke="black" points="200.5,-56.5 200.5,-75.5 352.5,-75.5 352.5,-56.5 200.5,-56.5"/>
<text text-anchor="middle" x="276.5" y="-63.5" font-family="Helvetica,sans-Serif" font-size="10.00">src/Scenes/GameScene.cpp</text>
</a>
</g>
</g>
<!-- Node10&#45;&gt;Node11 -->
<g id="edge11" class="edge"><title>Node10&#45;&gt;Node11</title>
<path fill="none" stroke="midnightblue" d="M320.746,-105.537C309.692,-95.9087 295.869,-83.8694 286.643,-75.8339"/>
<polygon fill="midnightblue" stroke="midnightblue" points="318.699,-108.395 328.539,-112.324 323.297,-103.117 318.699,-108.395"/>
</g>
<!-- Node12&#45;&gt;Node7 -->
<g id="edge15" class="edge"><title>Node12&#45;&gt;Node7</title>
<path fill="none" stroke="midnightblue" d="M491.206,-105.002C481.459,-95.4329 469.447,-83.6389 461.413,-75.7511"/>
<polygon fill="midnightblue" stroke="midnightblue" points="488.83,-107.575 498.418,-112.083 493.734,-102.58 488.83,-107.575"/>
</g>
<!-- Node13 -->
<g id="node13" class="node"><title>Node13</title>
<g id="a_node13"><a xlink:href="MenuScene_8cpp.html" target="_top" xlink:title="src/Scenes/MenuScene.cpp">
<polygon fill="none" stroke="black" points="553,-56.5 553,-75.5 702,-75.5 702,-56.5 553,-56.5"/>
<text text-anchor="middle" x="627.5" y="-63.5" font-family="Helvetica,sans-Serif" font-size="10.00">src/Scenes/MenuScene.cpp</text>
</a>
</g>
</g>
<!-- Node12&#45;&gt;Node13 -->
<g id="edge14" class="edge"><title>Node12&#45;&gt;Node13</title>
<path fill="none" stroke="midnightblue" d="M535.873,-108.232C558.32,-98.1312 589.035,-84.3091 608.575,-75.5164"/>
<polygon fill="midnightblue" stroke="midnightblue" points="534.197,-105.148 526.514,-112.444 537.07,-111.532 534.197,-105.148"/>
</g>
<!-- Node14&#45;&gt;Node7 -->
<g id="edge20" class="edge"><title>Node14&#45;&gt;Node7</title>
<path fill="none" stroke="midnightblue" d="M806.903,-111.198C725.16,-101.004 598.486,-85.2062 520.789,-75.5164"/>
<polygon fill="midnightblue" stroke="midnightblue" points="806.534,-114.679 816.89,-112.444 807.4,-107.733 806.534,-114.679"/>
</g>
<!-- Node14&#45;&gt;Node15 -->
<g id="edge17" class="edge"><title>Node14&#45;&gt;Node15</title>
<path fill="none" stroke="midnightblue" d="M906.534,-106.622C920.966,-96.7574 939.641,-83.9919 951.839,-75.6545"/>
<polygon fill="midnightblue" stroke="midnightblue" points="904.473,-103.791 898.193,-112.324 908.423,-109.57 904.473,-103.791"/>
</g>
<!-- Node16 -->
<g id="node16" class="node"><title>Node16</title>
<g id="a_node16"><a xlink:href="main__client_8cpp.html" target="_top" xlink:title="src/main_client.cpp">
<polygon fill="none" stroke="black" points="866,-0.5 866,-19.5 975,-19.5 975,-0.5 866,-0.5"/>
<text text-anchor="middle" x="920.5" y="-7.5" font-family="Helvetica,sans-Serif" font-size="10.00">src/main_client.cpp</text>
</a>
</g>
</g>
<!-- Node15&#45;&gt;Node16 -->
<g id="edge18" class="edge"><title>Node15&#45;&gt;Node16</title>
<path fill="none" stroke="midnightblue" d="M950.765,-48.144C943.099,-38.7357 933.867,-27.4046 927.631,-19.7511"/>
<polygon fill="midnightblue" stroke="midnightblue" points="948.204,-50.5415 957.234,-56.083 953.631,-46.1198 948.204,-50.5415"/>
</g>
<!-- Node15&#45;&gt;Node17 -->
<g id="edge19" class="edge"><title>Node15&#45;&gt;Node17</title>
<path fill="none" stroke="midnightblue" d="M983.538,-50.1008C995.956,-40.3824 1011.74,-28.0269 1022.21,-19.8339"/>
<polygon fill="midnightblue" stroke="midnightblue" points="981.304,-47.4046 975.586,-56.324 985.618,-52.9171 981.304,-47.4046"/>
</g>
<!-- Node18&#45;&gt;Node2 -->
<g id="edge22" class="edge"><title>Node18&#45;&gt;Node2</title>
<path fill="none" stroke="midnightblue" d="M872.544,-286.473C850.399,-274.064 822.572,-258.472 805.682,-249.007"/>
<polygon fill="midnightblue" stroke="midnightblue" points="870.895,-289.561 881.33,-291.396 874.317,-283.454 870.895,-289.561"/>
</g>
<!-- Node19 -->
<g id="node19" class="node"><title>Node19</title>
<g id="a_node19"><a xlink:href="FactoriesWrapper_8cpp.html" target="_top" xlink:title="src/FactoriesWrapper\l/FactoriesWrapper.cpp">
<polygon fill="none" stroke="black" points="846,-224.5 846,-254.5 967,-254.5 967,-224.5 846,-224.5"/>
<text text-anchor="start" x="854" y="-242.5" font-family="Helvetica,sans-Serif" font-size="10.00">src/FactoriesWrapper</text>
<text text-anchor="middle" x="906.5" y="-231.5" font-family="Helvetica,sans-Serif" font-size="10.00">/FactoriesWrapper.cpp</text>
</a>
</g>
</g>
<!-- Node18&#45;&gt;Node19 -->
<g id="edge23" class="edge"><title>Node18&#45;&gt;Node19</title>
<path fill="none" stroke="midnightblue" d="M906.5,-281.108C906.5,-272.154 906.5,-262.323 906.5,-254.577"/>
<polygon fill="midnightblue" stroke="midnightblue" points="903,-281.396 906.5,-291.396 910,-281.396 903,-281.396"/>
</g>
</g>
</svg>
