<?xml version="1.0" encoding="UTF-8" standalone="no"?>
<!DOCTYPE svg PUBLIC "-//W3C//DTD SVG 1.1//EN"
 "http://www.w3.org/Graphics/SVG/1.1/DTD/svg11.dtd">
<!-- Generated by graphviz version 2.38.0 (20140413.2041)
 -->
<!-- Title: src/Exceptions/SystemExceptions.hpp Pages: 1 -->
<svg width="758pt" height="95pt"
 viewBox="0.00 0.00 757.50 95.00" xmlns="http://www.w3.org/2000/svg" xmlns:xlink="http://www.w3.org/1999/xlink">
<g id="graph0" class="graph" transform="scale(1 1) rotate(0) translate(4 91)">
<title>src/Exceptions/SystemExceptions.hpp</title>
<!-- Node1 -->
<g id="node1" class="node"><title>Node1</title>
<polygon fill="#bfbfbf" stroke="black" points="271.5,-67.5 271.5,-86.5 469.5,-86.5 469.5,-67.5 271.5,-67.5"/>
<text text-anchor="middle" x="370.5" y="-74.5" font-family="Helvetica,sans-Serif" font-size="10.00">src/Exceptions/SystemExceptions.hpp</text>
</g>
<!-- Node2 -->
<g id="node2" class="node"><title>Node2</title>
<g id="a_node2"><a xlink:href="SystemExceptions_8cpp.html" target="_top" xlink:title="src/Exceptions/SystemExceptions.cpp">
<polygon fill="none" stroke="black" points="0,-6 0,-25 197,-25 197,-6 0,-6"/>
<text text-anchor="middle" x="98.5" y="-13" font-family="Helvetica,sans-Serif" font-size="10.00">src/Exceptions/SystemExceptions.cpp</text>
</a>
</g>
</g>
<!-- Node1&#45;&gt;Node2 -->
<g id="edge1" class="edge"><title>Node1&#45;&gt;Node2</title>
<path fill="none" stroke="midnightblue" d="M321.725,-65.3304C268.976,-53.7915 185.941,-35.6277 137.399,-25.0091"/>
<polygon fill="midnightblue" stroke="midnightblue" points="321.012,-68.7572 331.529,-67.4751 322.508,-61.9189 321.012,-68.7572"/>
</g>
<!-- Node3 -->
<g id="node3" class="node"><title>Node3</title>
<g id="a_node3"><a xlink:href="SystemFactory_8cpp.html" target="_top" xlink:title="src/Systems/Factories\l/SystemFactory.cpp">
<polygon fill="none" stroke="black" points="215.5,-0.5 215.5,-30.5 337.5,-30.5 337.5,-0.5 215.5,-0.5"/>
<text text-anchor="start" x="223.5" y="-18.5" font-family="Helvetica,sans-Serif" font-size="10.00">src/Systems/Factories</text>
<text text-anchor="middle" x="276.5" y="-7.5" font-family="Helvetica,sans-Serif" font-size="10.00">/SystemFactory.cpp</text>
</a>
</g>
</g>
<!-- Node1&#45;&gt;Node3 -->
<g id="edge2" class="edge"><title>Node1&#45;&gt;Node3</title>
<path fill="none" stroke="midnightblue" d="M348.396,-62.0084C333.402,-52.518 313.658,-40.02 298.654,-30.523"/>
<polygon fill="midnightblue" stroke="midnightblue" points="346.711,-65.084 357.032,-67.4751 350.454,-59.1693 346.711,-65.084"/>
</g>
<!-- Node4 -->
<g id="node4" class="node"><title>Node4</title>
<g id="a_node4"><a xlink:href="MovementSystem_8cpp.html" target="_top" xlink:title="src/Systems/SystemConstructor\l/MovementSystem/MovementSystem.cpp">
<polygon fill="none" stroke="black" points="355.5,-0.5 355.5,-30.5 573.5,-30.5 573.5,-0.5 355.5,-0.5"/>
<text text-anchor="start" x="363.5" y="-18.5" font-family="Helvetica,sans-Serif" font-size="10.00">src/Systems/SystemConstructor</text>
<text text-anchor="middle" x="464.5" y="-7.5" font-family="Helvetica,sans-Serif" font-size="10.00">/MovementSystem/MovementSystem.cpp</text>
</a>
</g>
</g>
<!-- Node1&#45;&gt;Node4 -->
<g id="edge3" class="edge"><title>Node1&#45;&gt;Node4</title>
<path fill="none" stroke="midnightblue" d="M392.604,-62.0084C407.598,-52.518 427.342,-40.02 442.346,-30.523"/>
<polygon fill="midnightblue" stroke="midnightblue" points="390.546,-59.1693 383.968,-67.4751 394.289,-65.084 390.546,-59.1693"/>
</g>
<!-- Node5 -->
<g id="node5" class="node"><title>Node5</title>
<g id="a_node5"><a xlink:href="SystemManager_8cpp.html" target="_top" xlink:title="src/Systems/SystemManager\l/SystemManager.cpp">
<polygon fill="none" stroke="black" points="591.5,-0.5 591.5,-30.5 749.5,-30.5 749.5,-0.5 591.5,-0.5"/>
<text text-anchor="start" x="599.5" y="-18.5" font-family="Helvetica,sans-Serif" font-size="10.00">src/Systems/SystemManager</text>
<text text-anchor="middle" x="670.5" y="-7.5" font-family="Helvetica,sans-Serif" font-size="10.00">/SystemManager.cpp</text>
</a>
</g>
</g>
<!-- Node1&#45;&gt;Node5 -->
<g id="edge4" class="edge"><title>Node1&#45;&gt;Node5</title>
<path fill="none" stroke="midnightblue" d="M423.564,-65.4757C472.6,-55.7501 545.813,-41.2295 599.796,-30.523"/>
<polygon fill="midnightblue" stroke="midnightblue" points="422.611,-62.0965 413.483,-67.4751 423.973,-68.9627 422.611,-62.0965"/>
</g>
</g>
</svg>
