<?xml version="1.0" encoding="UTF-8" standalone="no"?>
<!DOCTYPE svg PUBLIC "-//W3C//DTD SVG 1.1//EN"
 "http://www.w3.org/Graphics/SVG/1.1/DTD/svg11.dtd">
<!-- Generated by graphviz version 2.38.0 (20140413.2041)
 -->
<!-- Title: src/Exceptions/SystemExceptions.hpp Pages: 1 -->
<svg width="248pt" height="196pt"
 viewBox="0.00 0.00 248.00 196.00" xmlns="http://www.w3.org/2000/svg" xmlns:xlink="http://www.w3.org/1999/xlink">
<g id="graph0" class="graph" transform="scale(1 1) rotate(0) translate(4 192)">
<title>src/Exceptions/SystemExceptions.hpp</title>
<!-- Node1 -->
<g id="node1" class="node"><title>Node1</title>
<polygon fill="#bfbfbf" stroke="black" points="0,-168.5 0,-187.5 198,-187.5 198,-168.5 0,-168.5"/>
<text text-anchor="middle" x="99" y="-175.5" font-family="Helvetica,sans-Serif" font-size="10.00">src/Exceptions/SystemExceptions.hpp</text>
</g>
<!-- Node2 -->
<g id="node2" class="node"><title>Node2</title>
<polygon fill="none" stroke="#bfbfbf" points="74,-0.5 74,-19.5 118,-19.5 118,-0.5 74,-0.5"/>
<text text-anchor="middle" x="96" y="-7.5" font-family="Helvetica,sans-Serif" font-size="10.00">string</text>
</g>
<!-- Node1&#45;&gt;Node2 -->
<g id="edge1" class="edge"><title>Node1&#45;&gt;Node2</title>
<path fill="none" stroke="midnightblue" d="M93.3622,-168.481C87.946,-159.745 80.1363,-145.556 77,-132 68.6454,-95.8891 80.476,-52.8575 88.8777,-29.0703"/>
<polygon fill="midnightblue" stroke="midnightblue" points="92.1985,-30.1819 92.4118,-19.5892 85.6394,-27.7369 92.1985,-30.1819"/>
</g>
<!-- Node3 -->
<g id="node3" class="node"><title>Node3</title>
<g id="a_node3"><a xlink:href="ECSExceptions_8hpp.html" target="_top" xlink:title="ECSExceptions.hpp">
<polygon fill="none" stroke="black" points="86.5,-112.5 86.5,-131.5 195.5,-131.5 195.5,-112.5 86.5,-112.5"/>
<text text-anchor="middle" x="141" y="-119.5" font-family="Helvetica,sans-Serif" font-size="10.00">ECSExceptions.hpp</text>
</a>
</g>
</g>
<!-- Node1&#45;&gt;Node3 -->
<g id="edge2" class="edge"><title>Node1&#45;&gt;Node3</title>
<path fill="none" stroke="midnightblue" d="M105.935,-168.083C111.929,-160.377 120.752,-149.033 128.048,-139.653"/>
<polygon fill="midnightblue" stroke="midnightblue" points="130.817,-141.793 134.194,-131.751 125.291,-137.496 130.817,-141.793"/>
</g>
<!-- Node3&#45;&gt;Node2 -->
<g id="edge3" class="edge"><title>Node3&#45;&gt;Node2</title>
<path fill="none" stroke="midnightblue" d="M135.168,-112.361C129.414,-103.533 120.677,-89.2734 115,-76 108.498,-60.7988 103.407,-42.6845 100.137,-29.4444"/>
<polygon fill="midnightblue" stroke="midnightblue" points="103.528,-28.5719 97.8291,-19.6402 96.714,-30.1762 103.528,-28.5719"/>
</g>
<!-- Node4 -->
<g id="node4" class="node"><title>Node4</title>
<g id="a_node4"><a xlink:href="RTypeExceptions_8hpp.html" target="_top" xlink:title="RTypeExceptions.hpp">
<polygon fill="none" stroke="black" points="124,-56.5 124,-75.5 240,-75.5 240,-56.5 124,-56.5"/>
<text text-anchor="middle" x="182" y="-63.5" font-family="Helvetica,sans-Serif" font-size="10.00">RTypeExceptions.hpp</text>
</a>
</g>
</g>
<!-- Node3&#45;&gt;Node4 -->
<g id="edge4" class="edge"><title>Node3&#45;&gt;Node4</title>
<path fill="none" stroke="midnightblue" d="M147.77,-112.083C153.562,-104.455 162.058,-93.2645 169.138,-83.9408"/>
<polygon fill="midnightblue" stroke="midnightblue" points="172.096,-85.8321 175.356,-75.7511 166.521,-81.5991 172.096,-85.8321"/>
</g>
<!-- Node4&#45;&gt;Node2 -->
<g id="edge5" class="edge"><title>Node4&#45;&gt;Node2</title>
<path fill="none" stroke="midnightblue" d="M168.183,-56.324C154.767,-47.9002 134.176,-34.9709 118.414,-25.0741"/>
<polygon fill="midnightblue" stroke="midnightblue" points="120.113,-22.0081 109.783,-19.6545 116.391,-27.9364 120.113,-22.0081"/>
</g>
</g>
</svg>
