<?xml version="1.0" encoding="UTF-8" standalone="no"?>
<!DOCTYPE svg PUBLIC "-//W3C//DTD SVG 1.1//EN"
 "http://www.w3.org/Graphics/SVG/1.1/DTD/svg11.dtd">
<!-- Generated by graphviz version 2.38.0 (20140413.2041)
 -->
<!-- Title: src/Entities/EntityConstructor/TestEntity2/TestEntity2.cpp Pages: 1 -->
<svg width="879pt" height="319pt"
 viewBox="0.00 0.00 879.00 319.00" xmlns="http://www.w3.org/2000/svg" xmlns:xlink="http://www.w3.org/1999/xlink">
<g id="graph0" class="graph" transform="scale(1 1) rotate(0) translate(4 315)">
<title>src/Entities/EntityConstructor/TestEntity2/TestEntity2.cpp</title>
<!-- Node1 -->
<g id="node1" class="node"><title>Node1</title>
<polygon fill="#bfbfbf" stroke="black" points="474,-280.5 474,-310.5 629,-310.5 629,-280.5 474,-280.5"/>
<text text-anchor="start" x="482" y="-298.5" font-family="Helvetica,sans-Serif" font-size="10.00">src/Entities/EntityConstructor</text>
<text text-anchor="middle" x="551.5" y="-287.5" font-family="Helvetica,sans-Serif" font-size="10.00">/TestEntity2/TestEntity2.cpp</text>
</g>
<!-- Node2 -->
<g id="node2" class="node"><title>Node2</title>
<g id="a_node2"><a xlink:href="TestEntity2_8hpp.html" target="_top" xlink:title="TestEntity2.hpp">
<polygon fill="none" stroke="black" points="314,-224.5 314,-243.5 403,-243.5 403,-224.5 314,-224.5"/>
<text text-anchor="middle" x="358.5" y="-231.5" font-family="Helvetica,sans-Serif" font-size="10.00">TestEntity2.hpp</text>
</a>
</g>
</g>
<!-- Node1&#45;&gt;Node2 -->
<g id="edge1" class="edge"><title>Node1&#45;&gt;Node2</title>
<path fill="none" stroke="midnightblue" d="M505.762,-280.399C472.267,-270.073 427.366,-256.231 395.984,-246.556"/>
<polygon fill="midnightblue" stroke="midnightblue" points="396.889,-243.172 386.301,-243.571 394.827,-249.862 396.889,-243.172"/>
</g>
<!-- Node15 -->
<g id="node15" class="node"><title>Node15</title>
<g id="a_node15"><a xlink:href="Rotation_8hpp.html" target="_top" xlink:title="Physics/Rotation.hpp">
<polygon fill="none" stroke="black" points="756,-224.5 756,-243.5 871,-243.5 871,-224.5 756,-224.5"/>
<text text-anchor="middle" x="813.5" y="-231.5" font-family="Helvetica,sans-Serif" font-size="10.00">Physics/Rotation.hpp</text>
</a>
</g>
</g>
<!-- Node1&#45;&gt;Node15 -->
<g id="edge20" class="edge"><title>Node1&#45;&gt;Node15</title>
<path fill="none" stroke="midnightblue" d="M613.259,-280.475C660.038,-269.851 723.348,-255.473 766.161,-245.751"/>
<polygon fill="midnightblue" stroke="midnightblue" points="767.067,-249.134 776.043,-243.506 765.517,-242.308 767.067,-249.134"/>
</g>
<!-- Node17 -->
<g id="node17" class="node"><title>Node17</title>
<g id="a_node17"><a xlink:href="Position_8hpp.html" target="_top" xlink:title="Physics/Position.hpp">
<polygon fill="none" stroke="black" points="625,-224.5 625,-243.5 738,-243.5 738,-224.5 625,-224.5"/>
<text text-anchor="middle" x="681.5" y="-231.5" font-family="Helvetica,sans-Serif" font-size="10.00">Physics/Position.hpp</text>
</a>
</g>
</g>
<!-- Node1&#45;&gt;Node17 -->
<g id="edge23" class="edge"><title>Node1&#45;&gt;Node17</title>
<path fill="none" stroke="midnightblue" d="M582.308,-280.399C603.828,-270.55 632.337,-257.501 653.268,-247.922"/>
<polygon fill="midnightblue" stroke="midnightblue" points="654.948,-251.002 662.584,-243.658 652.034,-244.637 654.948,-251.002"/>
</g>
<!-- Node19 -->
<g id="node19" class="node"><title>Node19</title>
<g id="a_node19"><a xlink:href="Velocity_8hpp.html" target="_top" xlink:title="Physics/Velocity.hpp">
<polygon fill="none" stroke="black" points="496,-224.5 496,-243.5 607,-243.5 607,-224.5 496,-224.5"/>
<text text-anchor="middle" x="551.5" y="-231.5" font-family="Helvetica,sans-Serif" font-size="10.00">Physics/Velocity.hpp</text>
</a>
</g>
</g>
<!-- Node1&#45;&gt;Node19 -->
<g id="edge26" class="edge"><title>Node1&#45;&gt;Node19</title>
<path fill="none" stroke="midnightblue" d="M551.5,-280.399C551.5,-272.466 551.5,-262.458 551.5,-253.858"/>
<polygon fill="midnightblue" stroke="midnightblue" points="555,-253.658 551.5,-243.658 548,-253.658 555,-253.658"/>
</g>
<!-- Node21 -->
<g id="node21" class="node"><title>Node21</title>
<g id="a_node21"><a xlink:href="Collision_8hpp.html" target="_top" xlink:title="Physics/Collision.hpp">
<polygon fill="none" stroke="black" points="425,-168.5 425,-187.5 540,-187.5 540,-168.5 425,-168.5"/>
<text text-anchor="middle" x="482.5" y="-175.5" font-family="Helvetica,sans-Serif" font-size="10.00">Physics/Collision.hpp</text>
</a>
</g>
</g>
<!-- Node1&#45;&gt;Node21 -->
<g id="edge29" class="edge"><title>Node1&#45;&gt;Node21</title>
<path fill="none" stroke="midnightblue" d="M523.743,-280.357C510.034,-271.808 494.708,-259.543 486.5,-244 478.993,-229.785 478.591,-211.308 479.717,-197.69"/>
<polygon fill="midnightblue" stroke="midnightblue" points="483.213,-197.932 480.901,-187.593 476.261,-197.117 483.213,-197.932"/>
</g>
<!-- Node3 -->
<g id="node3" class="node"><title>Node3</title>
<g id="a_node3"><a xlink:href="IEntityConstructor_8hpp.html" target="_top" xlink:title="IEntityConstructor.hpp">
<polygon fill="none" stroke="black" points="225.5,-168.5 225.5,-187.5 347.5,-187.5 347.5,-168.5 225.5,-168.5"/>
<text text-anchor="middle" x="286.5" y="-175.5" font-family="Helvetica,sans-Serif" font-size="10.00">IEntityConstructor.hpp</text>
</a>
</g>
</g>
<!-- Node2&#45;&gt;Node3 -->
<g id="edge2" class="edge"><title>Node2&#45;&gt;Node3</title>
<path fill="none" stroke="midnightblue" d="M346.932,-224.324C336.08,-216.185 319.619,-203.839 306.617,-194.087"/>
<polygon fill="midnightblue" stroke="midnightblue" points="308.379,-191.034 298.279,-187.834 304.179,-196.634 308.379,-191.034"/>
</g>
<!-- Node4 -->
<g id="node4" class="node"><title>Node4</title>
<polygon fill="none" stroke="#bfbfbf" points="194,-56.5 194,-75.5 251,-75.5 251,-56.5 194,-56.5"/>
<text text-anchor="middle" x="222.5" y="-63.5" font-family="Helvetica,sans-Serif" font-size="10.00">memory</text>
</g>
<!-- Node3&#45;&gt;Node4 -->
<g id="edge3" class="edge"><title>Node3&#45;&gt;Node4</title>
<path fill="none" stroke="midnightblue" d="M281.478,-168.368C270.963,-150.296 246.457,-108.176 232.57,-84.3074"/>
<polygon fill="midnightblue" stroke="midnightblue" points="235.553,-82.4748 227.499,-75.5914 229.502,-85.9951 235.553,-82.4748"/>
</g>
<!-- Node5 -->
<g id="node5" class="node"><title>Node5</title>
<polygon fill="none" stroke="#bfbfbf" points="422.5,-0.5 422.5,-19.5 466.5,-19.5 466.5,-0.5 422.5,-0.5"/>
<text text-anchor="middle" x="444.5" y="-7.5" font-family="Helvetica,sans-Serif" font-size="10.00">string</text>
</g>
<!-- Node3&#45;&gt;Node5 -->
<g id="edge4" class="edge"><title>Node3&#45;&gt;Node5</title>
<path fill="none" stroke="midnightblue" d="M347.733,-171.314C375.072,-165.59 405.37,-154.27 424.5,-132 449.275,-103.158 449.218,-55.6772 446.917,-29.5948"/>
<polygon fill="midnightblue" stroke="midnightblue" points="450.385,-29.1126 445.821,-19.5512 443.427,-29.8718 450.385,-29.1126"/>
</g>
<!-- Node6 -->
<g id="node6" class="node"><title>Node6</title>
<g id="a_node6"><a xlink:href="Entity_8hpp.html" target="_top" xlink:title="Entity.hpp">
<polygon fill="none" stroke="black" points="269,-56.5 269,-75.5 332,-75.5 332,-56.5 269,-56.5"/>
<text text-anchor="middle" x="300.5" y="-63.5" font-family="Helvetica,sans-Serif" font-size="10.00">Entity.hpp</text>
</a>
</g>
</g>
<!-- Node3&#45;&gt;Node6 -->
<g id="edge5" class="edge"><title>Node3&#45;&gt;Node6</title>
<path fill="none" stroke="midnightblue" d="M281.009,-168.096C273.96,-155.506 263.332,-131.825 269.5,-112 272.729,-101.622 279.276,-91.5209 285.525,-83.5268"/>
<polygon fill="midnightblue" stroke="midnightblue" points="288.285,-85.6818 292.017,-75.7661 282.916,-81.1902 288.285,-85.6818"/>
</g>
<!-- Node7 -->
<g id="node7" class="node"><title>Node7</title>
<g id="a_node7"><a xlink:href="IEntityManager_8hpp.html" target="_top" xlink:title="IEntityManager.hpp">
<polygon fill="none" stroke="black" points="76.5,-112.5 76.5,-131.5 184.5,-131.5 184.5,-112.5 76.5,-112.5"/>
<text text-anchor="middle" x="130.5" y="-119.5" font-family="Helvetica,sans-Serif" font-size="10.00">IEntityManager.hpp</text>
</a>
</g>
</g>
<!-- Node3&#45;&gt;Node7 -->
<g id="edge6" class="edge"><title>Node3&#45;&gt;Node7</title>
<path fill="none" stroke="midnightblue" d="M261.781,-168.444C235.652,-159.399 194.241,-145.064 164.924,-134.916"/>
<polygon fill="midnightblue" stroke="midnightblue" points="165.698,-131.48 155.103,-131.516 163.408,-138.095 165.698,-131.48"/>
</g>
<!-- Node12 -->
<g id="node12" class="node"><title>Node12</title>
<g id="a_node12"><a xlink:href="IComponentManager_8hpp.html" target="_top" xlink:title="IComponentManager.hpp">
<polygon fill="none" stroke="black" points="279,-112.5 279,-131.5 416,-131.5 416,-112.5 279,-112.5"/>
<text text-anchor="middle" x="347.5" y="-119.5" font-family="Helvetica,sans-Serif" font-size="10.00">IComponentManager.hpp</text>
</a>
</g>
</g>
<!-- Node3&#45;&gt;Node12 -->
<g id="edge14" class="edge"><title>Node3&#45;&gt;Node12</title>
<path fill="none" stroke="midnightblue" d="M296.301,-168.324C305.318,-160.341 318.906,-148.313 329.818,-138.653"/>
<polygon fill="midnightblue" stroke="midnightblue" points="332.353,-141.083 337.521,-131.834 327.713,-135.842 332.353,-141.083"/>
</g>
<!-- Node7&#45;&gt;Node4 -->
<g id="edge7" class="edge"><title>Node7&#45;&gt;Node4</title>
<path fill="none" stroke="midnightblue" d="M145.281,-112.324C159.767,-103.822 182.073,-90.7288 198.993,-80.7975"/>
<polygon fill="midnightblue" stroke="midnightblue" points="200.903,-83.735 207.755,-75.6545 197.359,-77.6981 200.903,-83.735"/>
</g>
<!-- Node7&#45;&gt;Node6 -->
<g id="edge9" class="edge"><title>Node7&#45;&gt;Node6</title>
<path fill="none" stroke="midnightblue" d="M157.437,-112.444C186.16,-103.32 231.829,-88.8133 263.821,-78.6509"/>
<polygon fill="midnightblue" stroke="midnightblue" points="265.218,-81.8797 273.689,-75.5164 263.099,-75.2081 265.218,-81.8797"/>
</g>
<!-- Node8 -->
<g id="node8" class="node"><title>Node8</title>
<polygon fill="none" stroke="#bfbfbf" points="0,-56.5 0,-75.5 47,-75.5 47,-56.5 0,-56.5"/>
<text text-anchor="middle" x="23.5" y="-63.5" font-family="Helvetica,sans-Serif" font-size="10.00">vector</text>
</g>
<!-- Node7&#45;&gt;Node8 -->
<g id="edge8" class="edge"><title>Node7&#45;&gt;Node8</title>
<path fill="none" stroke="midnightblue" d="M113.309,-112.324C96.1491,-103.664 69.5543,-90.2424 49.7527,-80.249"/>
<polygon fill="midnightblue" stroke="midnightblue" points="51.1532,-77.0354 40.6487,-75.6545 47.9993,-83.2847 51.1532,-77.0354"/>
</g>
<!-- Node9 -->
<g id="node9" class="node"><title>Node9</title>
<g id="a_node9"><a xlink:href="PacketManager_8hpp.html" target="_top" xlink:title="PacketManager.hpp">
<polygon fill="none" stroke="black" points="65.5,-56.5 65.5,-75.5 175.5,-75.5 175.5,-56.5 65.5,-56.5"/>
<text text-anchor="middle" x="120.5" y="-63.5" font-family="Helvetica,sans-Serif" font-size="10.00">PacketManager.hpp</text>
</a>
</g>
</g>
<!-- Node7&#45;&gt;Node9 -->
<g id="edge10" class="edge"><title>Node7&#45;&gt;Node9</title>
<path fill="none" stroke="midnightblue" d="M128.849,-112.083C127.524,-104.927 125.618,-94.6353 123.961,-85.6911"/>
<polygon fill="midnightblue" stroke="midnightblue" points="127.383,-84.9466 122.121,-75.7511 120.5,-86.2212 127.383,-84.9466"/>
</g>
<!-- Node9&#45;&gt;Node5 -->
<g id="edge11" class="edge"><title>Node9&#45;&gt;Node5</title>
<path fill="none" stroke="midnightblue" d="M171.839,-56.4435C239.395,-45.1842 356.13,-25.7283 412.374,-16.3543"/>
<polygon fill="midnightblue" stroke="midnightblue" points="413.178,-19.7688 422.466,-14.6723 412.027,-12.864 413.178,-19.7688"/>
</g>
<!-- Node10 -->
<g id="node10" class="node"><title>Node10</title>
<polygon fill="none" stroke="#bfbfbf" points="266.5,-0.5 266.5,-19.5 296.5,-19.5 296.5,-0.5 266.5,-0.5"/>
<text text-anchor="middle" x="281.5" y="-7.5" font-family="Helvetica,sans-Serif" font-size="10.00">list</text>
</g>
<!-- Node9&#45;&gt;Node10 -->
<g id="edge12" class="edge"><title>Node9&#45;&gt;Node10</title>
<path fill="none" stroke="midnightblue" d="M146.011,-56.4435C176.31,-46.2813 226.516,-29.4419 256.561,-19.3646"/>
<polygon fill="midnightblue" stroke="midnightblue" points="257.914,-22.6025 266.282,-16.1041 255.688,-15.9658 257.914,-22.6025"/>
</g>
<!-- Node11 -->
<g id="node11" class="node"><title>Node11</title>
<g id="a_node11"><a xlink:href="Input_8hpp.html" target="_top" xlink:title="Render/Input.hpp">
<polygon fill="none" stroke="black" points="71.5,-0.5 71.5,-19.5 169.5,-19.5 169.5,-0.5 71.5,-0.5"/>
<text text-anchor="middle" x="120.5" y="-7.5" font-family="Helvetica,sans-Serif" font-size="10.00">Render/Input.hpp</text>
</a>
</g>
</g>
<!-- Node9&#45;&gt;Node11 -->
<g id="edge13" class="edge"><title>Node9&#45;&gt;Node11</title>
<path fill="none" stroke="midnightblue" d="M120.5,-56.083C120.5,-49.0059 120.5,-38.8611 120.5,-29.9865"/>
<polygon fill="midnightblue" stroke="midnightblue" points="124,-29.751 120.5,-19.7511 117,-29.7511 124,-29.751"/>
</g>
<!-- Node12&#45;&gt;Node4 -->
<g id="edge16" class="edge"><title>Node12&#45;&gt;Node4</title>
<path fill="none" stroke="midnightblue" d="M327.693,-112.444C307.213,-103.596 275.017,-89.6875 251.635,-79.5865"/>
<polygon fill="midnightblue" stroke="midnightblue" points="252.782,-76.2692 242.214,-75.5164 250.006,-82.6953 252.782,-76.2692"/>
</g>
<!-- Node12&#45;&gt;Node6 -->
<g id="edge19" class="edge"><title>Node12&#45;&gt;Node6</title>
<path fill="none" stroke="midnightblue" d="M339.739,-112.083C332.963,-104.298 322.957,-92.8015 314.745,-83.3665"/>
<polygon fill="midnightblue" stroke="midnightblue" points="317.322,-80.9963 308.117,-75.7511 312.042,-85.592 317.322,-80.9963"/>
</g>
<!-- Node12&#45;&gt;Node10 -->
<g id="edge15" class="edge"><title>Node12&#45;&gt;Node10</title>
<path fill="none" stroke="midnightblue" d="M348.626,-112.357C349.902,-99.2567 350.643,-73.9954 340.5,-56 332.509,-41.8219 318.036,-30.6782 305.425,-23.0269"/>
<polygon fill="midnightblue" stroke="midnightblue" points="307.117,-19.9627 296.691,-18.0793 303.667,-26.0534 307.117,-19.9627"/>
</g>
<!-- Node13 -->
<g id="node13" class="node"><title>Node13</title>
<g id="a_node13"><a xlink:href="IComponent_8hpp.html" target="_top" xlink:title="IComponent.hpp">
<polygon fill="none" stroke="black" points="533.5,-56.5 533.5,-75.5 629.5,-75.5 629.5,-56.5 533.5,-56.5"/>
<text text-anchor="middle" x="581.5" y="-63.5" font-family="Helvetica,sans-Serif" font-size="10.00">IComponent.hpp</text>
</a>
</g>
</g>
<!-- Node12&#45;&gt;Node13 -->
<g id="edge17" class="edge"><title>Node12&#45;&gt;Node13</title>
<path fill="none" stroke="midnightblue" d="M384.578,-112.444C425.228,-103.063 490.532,-87.9926 534.684,-77.8036"/>
<polygon fill="midnightblue" stroke="midnightblue" points="535.639,-81.1755 544.595,-75.5164 534.065,-74.3547 535.639,-81.1755"/>
</g>
<!-- Node14 -->
<g id="node14" class="node"><title>Node14</title>
<polygon fill="none" stroke="#bfbfbf" points="550,-0.5 550,-19.5 613,-19.5 613,-0.5 550,-0.5"/>
<text text-anchor="middle" x="581.5" y="-7.5" font-family="Helvetica,sans-Serif" font-size="10.00">typeindex</text>
</g>
<!-- Node13&#45;&gt;Node14 -->
<g id="edge18" class="edge"><title>Node13&#45;&gt;Node14</title>
<path fill="none" stroke="midnightblue" d="M581.5,-56.083C581.5,-49.0059 581.5,-38.8611 581.5,-29.9865"/>
<polygon fill="midnightblue" stroke="midnightblue" points="585,-29.751 581.5,-19.7511 578,-29.7511 585,-29.751"/>
</g>
<!-- Node16 -->
<g id="node16" class="node"><title>Node16</title>
<g id="a_node16"><a xlink:href="IPhysics_8hpp.html" target="_top" xlink:title="IPhysics.hpp">
<polygon fill="none" stroke="black" points="567,-112.5 567,-131.5 642,-131.5 642,-112.5 567,-112.5"/>
<text text-anchor="middle" x="604.5" y="-119.5" font-family="Helvetica,sans-Serif" font-size="10.00">IPhysics.hpp</text>
</a>
</g>
</g>
<!-- Node15&#45;&gt;Node16 -->
<g id="edge21" class="edge"><title>Node15&#45;&gt;Node16</title>
<path fill="none" stroke="midnightblue" d="M802.062,-224.434C784.077,-211.213 747.794,-185.53 714.5,-168 689.96,-155.079 660.864,-143.32 638.762,-135.066"/>
<polygon fill="midnightblue" stroke="midnightblue" points="639.735,-131.695 629.141,-131.529 637.319,-138.265 639.735,-131.695"/>
</g>
<!-- Node16&#45;&gt;Node13 -->
<g id="edge22" class="edge"><title>Node16&#45;&gt;Node13</title>
<path fill="none" stroke="midnightblue" d="M600.702,-112.083C597.587,-104.77 593.077,-94.1814 589.211,-85.1034"/>
<polygon fill="midnightblue" stroke="midnightblue" points="592.366,-83.5798 585.227,-75.7511 585.926,-86.3229 592.366,-83.5798"/>
</g>
<!-- Node17&#45;&gt;Node16 -->
<g id="edge25" class="edge"><title>Node17&#45;&gt;Node16</title>
<path fill="none" stroke="midnightblue" d="M687.555,-224.338C695.909,-211.213 708.736,-185.92 697.5,-168 687.289,-151.716 669.332,-141.18 651.903,-134.433"/>
<polygon fill="midnightblue" stroke="midnightblue" points="652.921,-131.081 642.326,-131.062 650.597,-137.684 652.921,-131.081"/>
</g>
<!-- Node18 -->
<g id="node18" class="node"><title>Node18</title>
<polygon fill="none" stroke="#bfbfbf" points="646.5,-168.5 646.5,-187.5 688.5,-187.5 688.5,-168.5 646.5,-168.5"/>
<text text-anchor="middle" x="667.5" y="-175.5" font-family="Helvetica,sans-Serif" font-size="10.00">utility</text>
</g>
<!-- Node17&#45;&gt;Node18 -->
<g id="edge24" class="edge"><title>Node17&#45;&gt;Node18</title>
<path fill="none" stroke="midnightblue" d="M679.188,-224.083C677.333,-216.927 674.665,-206.635 672.346,-197.691"/>
<polygon fill="midnightblue" stroke="midnightblue" points="675.666,-196.553 669.769,-187.751 668.891,-198.309 675.666,-196.553"/>
</g>
<!-- Node20 -->
<g id="node20" class="node"><title>Node20</title>
<g id="a_node20"><a xlink:href="Motion_8hpp.html" target="_top" xlink:title="Motion.hpp">
<polygon fill="none" stroke="black" points="558.5,-168.5 558.5,-187.5 628.5,-187.5 628.5,-168.5 558.5,-168.5"/>
<text text-anchor="middle" x="593.5" y="-175.5" font-family="Helvetica,sans-Serif" font-size="10.00">Motion.hpp</text>
</a>
</g>
</g>
<!-- Node19&#45;&gt;Node20 -->
<g id="edge27" class="edge"><title>Node19&#45;&gt;Node20</title>
<path fill="none" stroke="midnightblue" d="M558.435,-224.083C564.429,-216.377 573.252,-205.033 580.548,-195.653"/>
<polygon fill="midnightblue" stroke="midnightblue" points="583.317,-197.793 586.694,-187.751 577.791,-193.496 583.317,-197.793"/>
</g>
<!-- Node20&#45;&gt;Node16 -->
<g id="edge28" class="edge"><title>Node20&#45;&gt;Node16</title>
<path fill="none" stroke="midnightblue" d="M595.316,-168.083C596.774,-160.927 598.871,-150.635 600.693,-141.691"/>
<polygon fill="midnightblue" stroke="midnightblue" points="604.151,-142.248 602.717,-131.751 597.292,-140.851 604.151,-142.248"/>
</g>
<!-- Node21&#45;&gt;Node5 -->
<g id="edge30" class="edge"><title>Node21&#45;&gt;Node5</title>
<path fill="none" stroke="midnightblue" d="M481.12,-168.422C477.848,-148.52 469.096,-97.722 458.5,-56 456.231,-47.0675 453.249,-37.2835 450.62,-29.1268"/>
<polygon fill="midnightblue" stroke="midnightblue" points="453.916,-27.9477 447.457,-19.5497 447.269,-30.1429 453.916,-27.9477"/>
</g>
<!-- Node21&#45;&gt;Node16 -->
<g id="edge32" class="edge"><title>Node21&#45;&gt;Node16</title>
<path fill="none" stroke="midnightblue" d="M501.831,-168.444C521.82,-159.596 553.243,-145.687 576.064,-135.586"/>
<polygon fill="midnightblue" stroke="midnightblue" points="577.532,-138.764 585.259,-131.516 574.698,-132.363 577.532,-138.764"/>
</g>
<!-- Node22 -->
<g id="node22" class="node"><title>Node22</title>
<polygon fill="none" stroke="#bfbfbf" points="510.5,-112.5 510.5,-131.5 548.5,-131.5 548.5,-112.5 510.5,-112.5"/>
<text text-anchor="middle" x="529.5" y="-119.5" font-family="Helvetica,sans-Serif" font-size="10.00">map</text>
</g>
<!-- Node21&#45;&gt;Node22 -->
<g id="edge31" class="edge"><title>Node21&#45;&gt;Node22</title>
<path fill="none" stroke="midnightblue" d="M490.261,-168.083C497.037,-160.298 507.043,-148.801 515.255,-139.367"/>
<polygon fill="midnightblue" stroke="midnightblue" points="517.958,-141.592 521.883,-131.751 512.678,-136.996 517.958,-141.592"/>
</g>
</g>
</svg>
