<?xml version="1.0" encoding="UTF-8" standalone="no"?>
<!DOCTYPE svg PUBLIC "-//W3C//DTD SVG 1.1//EN"
 "http://www.w3.org/Graphics/SVG/1.1/DTD/svg11.dtd">
<!-- Generated by graphviz version 2.38.0 (20140413.2041)
 -->
<!-- Title: src/TestNetwork/TestNetwork.hpp Pages: 1 -->
<svg width="506pt" height="140pt"
 viewBox="0.00 0.00 506.00 140.00" xmlns="http://www.w3.org/2000/svg" xmlns:xlink="http://www.w3.org/1999/xlink">
<g id="graph0" class="graph" transform="scale(1 1) rotate(0) translate(4 136)">
<title>src/TestNetwork/TestNetwork.hpp</title>
<!-- Node1 -->
<g id="node1" class="node"><title>Node1</title>
<polygon fill="#bfbfbf" stroke="black" points="196,-112.5 196,-131.5 369,-131.5 369,-112.5 196,-112.5"/>
<text text-anchor="middle" x="282.5" y="-119.5" font-family="Helvetica,sans-Serif" font-size="10.00">src/TestNetwork/TestNetwork.hpp</text>
</g>
<!-- Node2 -->
<g id="node2" class="node"><title>Node2</title>
<polygon fill="none" stroke="#bfbfbf" points="0,-56.5 0,-75.5 57,-75.5 57,-56.5 0,-56.5"/>
<text text-anchor="middle" x="28.5" y="-63.5" font-family="Helvetica,sans-Serif" font-size="10.00">memory</text>
</g>
<!-- Node1&#45;&gt;Node2 -->
<g id="edge1" class="edge"><title>Node1&#45;&gt;Node2</title>
<path fill="none" stroke="midnightblue" d="M239.803,-112.461C198.308,-104.083 133.253,-90.7384 67.2791,-76.1251"/>
<polygon fill="midnightblue" stroke="midnightblue" points="67.636,-72.619 57.1147,-73.865 66.1166,-79.4521 67.636,-72.619"/>
</g>
<!-- Node3 -->
<g id="node3" class="node"><title>Node3</title>
<polygon fill="none" stroke="#bfbfbf" points="75,-56.5 75,-75.5 162,-75.5 162,-56.5 75,-56.5"/>
<text text-anchor="middle" x="118.5" y="-63.5" font-family="Helvetica,sans-Serif" font-size="10.00">boost/asio.hpp</text>
</g>
<!-- Node1&#45;&gt;Node3 -->
<g id="edge2" class="edge"><title>Node1&#45;&gt;Node3</title>
<path fill="none" stroke="midnightblue" d="M256.514,-112.444C228.804,-103.32 184.748,-88.8133 153.884,-78.6509"/>
<polygon fill="midnightblue" stroke="midnightblue" points="154.958,-75.3196 144.365,-75.5164 152.768,-81.9684 154.958,-75.3196"/>
</g>
<!-- Node4 -->
<g id="node4" class="node"><title>Node4</title>
<g id="a_node4"><a xlink:href="PacketManager_8hpp.html" target="_top" xlink:title="PacketManager.hpp">
<polygon fill="none" stroke="black" points="180.5,-56.5 180.5,-75.5 290.5,-75.5 290.5,-56.5 180.5,-56.5"/>
<text text-anchor="middle" x="235.5" y="-63.5" font-family="Helvetica,sans-Serif" font-size="10.00">PacketManager.hpp</text>
</a>
</g>
</g>
<!-- Node1&#45;&gt;Node4 -->
<g id="edge3" class="edge"><title>Node1&#45;&gt;Node4</title>
<path fill="none" stroke="midnightblue" d="M274.739,-112.083C267.963,-104.298 257.957,-92.8015 249.745,-83.3665"/>
<polygon fill="midnightblue" stroke="midnightblue" points="252.322,-80.9963 243.117,-75.7511 247.042,-85.592 252.322,-80.9963"/>
</g>
<!-- Node8 -->
<g id="node8" class="node"><title>Node8</title>
<polygon fill="none" stroke="#bfbfbf" points="308.5,-56.5 308.5,-75.5 352.5,-75.5 352.5,-56.5 308.5,-56.5"/>
<text text-anchor="middle" x="330.5" y="-63.5" font-family="Helvetica,sans-Serif" font-size="10.00">ctime</text>
</g>
<!-- Node1&#45;&gt;Node8 -->
<g id="edge7" class="edge"><title>Node1&#45;&gt;Node8</title>
<path fill="none" stroke="midnightblue" d="M290.426,-112.083C297.346,-104.298 307.565,-92.8015 315.952,-83.3665"/>
<polygon fill="midnightblue" stroke="midnightblue" points="318.694,-85.5505 322.721,-75.7511 313.462,-80.8999 318.694,-85.5505"/>
</g>
<!-- Node9 -->
<g id="node9" class="node"><title>Node9</title>
<polygon fill="none" stroke="#bfbfbf" points="370.5,-56.5 370.5,-75.5 420.5,-75.5 420.5,-56.5 370.5,-56.5"/>
<text text-anchor="middle" x="395.5" y="-63.5" font-family="Helvetica,sans-Serif" font-size="10.00">chrono</text>
</g>
<!-- Node1&#45;&gt;Node9 -->
<g id="edge8" class="edge"><title>Node1&#45;&gt;Node9</title>
<path fill="none" stroke="midnightblue" d="M300.405,-112.444C318.754,-103.675 347.505,-89.9355 368.594,-79.8579"/>
<polygon fill="midnightblue" stroke="midnightblue" points="370.165,-82.9862 377.679,-75.5164 367.147,-76.6703 370.165,-82.9862"/>
</g>
<!-- Node10 -->
<g id="node10" class="node"><title>Node10</title>
<polygon fill="none" stroke="#bfbfbf" points="439,-56.5 439,-75.5 498,-75.5 498,-56.5 439,-56.5"/>
<text text-anchor="middle" x="468.5" y="-63.5" font-family="Helvetica,sans-Serif" font-size="10.00">iostream</text>
</g>
<!-- Node1&#45;&gt;Node10 -->
<g id="edge9" class="edge"><title>Node1&#45;&gt;Node10</title>
<path fill="none" stroke="midnightblue" d="M311.972,-112.444C343.671,-103.241 394.232,-88.5617 429.275,-78.3879"/>
<polygon fill="midnightblue" stroke="midnightblue" points="430.538,-81.6658 439.166,-75.5164 428.586,-74.9434 430.538,-81.6658"/>
</g>
<!-- Node5 -->
<g id="node5" class="node"><title>Node5</title>
<polygon fill="none" stroke="#bfbfbf" points="158.5,-0.5 158.5,-19.5 202.5,-19.5 202.5,-0.5 158.5,-0.5"/>
<text text-anchor="middle" x="180.5" y="-7.5" font-family="Helvetica,sans-Serif" font-size="10.00">string</text>
</g>
<!-- Node4&#45;&gt;Node5 -->
<g id="edge4" class="edge"><title>Node4&#45;&gt;Node5</title>
<path fill="none" stroke="midnightblue" d="M226.418,-56.083C218.329,-48.1409 206.305,-36.3354 196.59,-26.7973"/>
<polygon fill="midnightblue" stroke="midnightblue" points="199.001,-24.2595 189.413,-19.7511 194.097,-29.2545 199.001,-24.2595"/>
</g>
<!-- Node6 -->
<g id="node6" class="node"><title>Node6</title>
<polygon fill="none" stroke="#bfbfbf" points="220.5,-0.5 220.5,-19.5 250.5,-19.5 250.5,-0.5 220.5,-0.5"/>
<text text-anchor="middle" x="235.5" y="-7.5" font-family="Helvetica,sans-Serif" font-size="10.00">list</text>
</g>
<!-- Node4&#45;&gt;Node6 -->
<g id="edge5" class="edge"><title>Node4&#45;&gt;Node6</title>
<path fill="none" stroke="midnightblue" d="M235.5,-56.083C235.5,-49.0059 235.5,-38.8611 235.5,-29.9865"/>
<polygon fill="midnightblue" stroke="midnightblue" points="239,-29.751 235.5,-19.7511 232,-29.7511 239,-29.751"/>
</g>
<!-- Node7 -->
<g id="node7" class="node"><title>Node7</title>
<g id="a_node7"><a xlink:href="Input_8hpp.html" target="_top" xlink:title="Render/Input.hpp">
<polygon fill="none" stroke="black" points="268.5,-0.5 268.5,-19.5 366.5,-19.5 366.5,-0.5 268.5,-0.5"/>
<text text-anchor="middle" x="317.5" y="-7.5" font-family="Helvetica,sans-Serif" font-size="10.00">Render/Input.hpp</text>
</a>
</g>
</g>
<!-- Node4&#45;&gt;Node7 -->
<g id="edge6" class="edge"><title>Node4&#45;&gt;Node7</title>
<path fill="none" stroke="midnightblue" d="M248.675,-56.324C261.347,-47.979 280.733,-35.2122 295.706,-25.3524"/>
<polygon fill="midnightblue" stroke="midnightblue" points="297.931,-28.0776 304.358,-19.6545 294.081,-22.2313 297.931,-28.0776"/>
</g>
</g>
</svg>
