<?xml version="1.0" encoding="UTF-8" standalone="no"?>
<!DOCTYPE svg PUBLIC "-//W3C//DTD SVG 1.1//EN"
 "http://www.w3.org/Graphics/SVG/1.1/DTD/svg11.dtd">
<!-- Generated by graphviz version 2.38.0 (20140413.2041)
 -->
<!-- Title: src/Entities/EntityConstructor/TestBackground/TestBackground.cpp Pages: 1 -->
<!--zoomable 319 -->
<svg id="main" version="1.1" xmlns="http://www.w3.org/2000/svg" xmlns:xlink="http://www.w3.org/1999/xlink" xml:space="preserve" onload="init(evt)">
<style type="text/css"><![CDATA[
.edge:hover path { stroke: red; }
.edge:hover polygon { stroke: red; fill: red; }
]]></style>
<script type="text/javascript"><![CDATA[
var edges = document.getElementsByTagName('g');
if (edges && edges.length) {
  for (var i=0;i<edges.length;i++) {
    if (edges[i].id.substr(0,4)=='edge') {
      edges[i].setAttribute('class','edge');
    }
  }
}
]]></script>
        <defs>
                <circle id="rim" cx="0" cy="0" r="7"/>
                <circle id="rim2" cx="0" cy="0" r="3.5"/>
                <g id="zoomPlus">
                        <use xlink:href="#rim" fill="#404040">
                                <set attributeName="fill" to="#808080" begin="zoomplus.mouseover" end="zoomplus.mouseout"/>
                        </use>
                        <path d="M-4,0h8M0,-4v8" fill="none" stroke="white" stroke-width="1.5" pointer-events="none"/>
                </g>
                <g id="zoomMin">
                        <use xlink:href="#rim" fill="#404040">
                                <set attributeName="fill" to="#808080" begin="zoomminus.mouseover" end="zoomminus.mouseout"/>
                        </use>
                        <path d="M-4,0h8" fill="none" stroke="white" stroke-width="1.5" pointer-events="none"/>
                </g>
                <g id="dirArrow">
                        <path fill="none" stroke="white" stroke-width="1.5" d="M0,-3.0v7 M-2.5,-0.5L0,-3.0L2.5,-0.5"/>
                </g>
               <g id="resetDef">
                       <use xlink:href="#rim2" fill="#404040">
                               <set attributeName="fill" to="#808080" begin="reset.mouseover" end="reset.mouseout"/>
                       </use>
               </g>
        </defs>

<script type="text/javascript">
var viewWidth = 1765;
var viewHeight = 319;
var sectionId = 'dynsection-0';
</script>
<script xlink:href="svgpan.js"/>
<svg id="graph" class="graph">
<g id="viewport">
<title>src/Entities/EntityConstructor/TestBackground/TestBackground.cpp</title>
<!-- Node1 -->
<g id="node1" class="node"><title>Node1</title>
<polygon fill="#bfbfbf" stroke="black" points="917.5,-280.5 917.5,-310.5 1111.5,-310.5 1111.5,-280.5 917.5,-280.5"/>
<text text-anchor="start" x="925.5" y="-298.5" font-family="Helvetica,sans-Serif" font-size="10.00">src/Entities/EntityConstructor</text>
<text text-anchor="middle" x="1014.5" y="-287.5" font-family="Helvetica,sans-Serif" font-size="10.00">/TestBackground/TestBackground.cpp</text>
</g>
<!-- Node2 -->
<g id="node2" class="node"><title>Node2</title>
<g id="a_node2"><a xlink:href="TestBackground_8hpp.html" target="_top" xlink:title="TestBackground.hpp">
<polygon fill="none" stroke="black" points="295,-224.5 295,-243.5 408,-243.5 408,-224.5 295,-224.5"/>
<text text-anchor="middle" x="351.5" y="-231.5" font-family="Helvetica,sans-Serif" font-size="10.00">TestBackground.hpp</text>
</a>
</g>
</g>
<!-- Node1&#45;&gt;Node2 -->
<g id="edge1" class="edge"><title>Node1&#45;&gt;Node2</title>
<path fill="none" stroke="midnightblue" d="M917.311,-286.233C803.483,-276.478 609.254,-259.607 442.5,-244 434.72,-243.272 426.568,-242.491 418.475,-241.705"/>
<polygon fill="midnightblue" stroke="midnightblue" points="418.579,-238.198 408.286,-240.709 417.899,-245.165 418.579,-238.198"/>
</g>
<!-- Node15 -->
<g id="node15" class="node"><title>Node15</title>
<g id="a_node15"><a xlink:href="Rotation_8hpp.html" target="_top" xlink:title="Physics/Rotation.hpp">
<polygon fill="none" stroke="black" points="824,-224.5 824,-243.5 939,-243.5 939,-224.5 824,-224.5"/>
<text text-anchor="middle" x="881.5" y="-231.5" font-family="Helvetica,sans-Serif" font-size="10.00">Physics/Rotation.hpp</text>
</a>
</g>
</g>
<!-- Node1&#45;&gt;Node15 -->
<g id="edge20" class="edge"><title>Node1&#45;&gt;Node15</title>
<path fill="none" stroke="midnightblue" d="M982.981,-280.399C960.865,-270.505 931.533,-257.383 910.094,-247.792"/>
<polygon fill="midnightblue" stroke="midnightblue" points="911.41,-244.547 900.853,-243.658 908.552,-250.936 911.41,-244.547"/>
</g>
<!-- Node17 -->
<g id="node17" class="node"><title>Node17</title>
<g id="a_node17"><a xlink:href="Position_8hpp.html" target="_top" xlink:title="Physics/Position.hpp">
<polygon fill="none" stroke="black" points="564,-224.5 564,-243.5 677,-243.5 677,-224.5 564,-224.5"/>
<text text-anchor="middle" x="620.5" y="-231.5" font-family="Helvetica,sans-Serif" font-size="10.00">Physics/Position.hpp</text>
</a>
</g>
</g>
<!-- Node1&#45;&gt;Node17 -->
<g id="edge23" class="edge"><title>Node1&#45;&gt;Node17</title>
<path fill="none" stroke="midnightblue" d="M921.626,-280.475C849.498,-269.582 751.235,-254.743 686.86,-245.021"/>
<polygon fill="midnightblue" stroke="midnightblue" points="687.238,-241.539 676.828,-243.506 686.193,-248.46 687.238,-241.539"/>
</g>
<!-- Node19 -->
<g id="node19" class="node"><title>Node19</title>
<g id="a_node19"><a xlink:href="Velocity_8hpp.html" target="_top" xlink:title="Physics/Velocity.hpp">
<polygon fill="none" stroke="black" points="695,-224.5 695,-243.5 806,-243.5 806,-224.5 695,-224.5"/>
<text text-anchor="middle" x="750.5" y="-231.5" font-family="Helvetica,sans-Serif" font-size="10.00">Physics/Velocity.hpp</text>
</a>
</g>
</g>
<!-- Node1&#45;&gt;Node19 -->
<g id="edge26" class="edge"><title>Node1&#45;&gt;Node19</title>
<path fill="none" stroke="midnightblue" d="M952.27,-280.475C905.133,-269.851 841.34,-255.473 798.2,-245.751"/>
<polygon fill="midnightblue" stroke="midnightblue" points="798.767,-242.291 788.243,-243.506 797.228,-249.119 798.767,-242.291"/>
</g>
<!-- Node21 -->
<g id="node21" class="node"><title>Node21</title>
<g id="a_node21"><a xlink:href="Collision_8hpp.html" target="_top" xlink:title="Physics/Collision.hpp">
<polygon fill="none" stroke="black" points="957,-224.5 957,-243.5 1072,-243.5 1072,-224.5 957,-224.5"/>
<text text-anchor="middle" x="1014.5" y="-231.5" font-family="Helvetica,sans-Serif" font-size="10.00">Physics/Collision.hpp</text>
</a>
</g>
</g>
<!-- Node1&#45;&gt;Node21 -->
<g id="edge29" class="edge"><title>Node1&#45;&gt;Node21</title>
<path fill="none" stroke="midnightblue" d="M1014.5,-280.399C1014.5,-272.466 1014.5,-262.458 1014.5,-253.858"/>
<polygon fill="midnightblue" stroke="midnightblue" points="1018,-253.658 1014.5,-243.658 1011,-253.658 1018,-253.658"/>
</g>
<!-- Node23 -->
<g id="node23" class="node"><title>Node23</title>
<g id="a_node23"><a xlink:href="Sprite_8hpp.html" target="_top" xlink:title="Display/Sprite.hpp">
<polygon fill="none" stroke="black" points="1090.5,-224.5 1090.5,-243.5 1194.5,-243.5 1194.5,-224.5 1090.5,-224.5"/>
<text text-anchor="middle" x="1142.5" y="-231.5" font-family="Helvetica,sans-Serif" font-size="10.00">Display/Sprite.hpp</text>
</a>
</g>
</g>
<!-- Node1&#45;&gt;Node23 -->
<g id="edge33" class="edge"><title>Node1&#45;&gt;Node23</title>
<path fill="none" stroke="midnightblue" d="M1044.83,-280.399C1066.02,-270.55 1094.09,-257.501 1114.7,-247.922"/>
<polygon fill="midnightblue" stroke="midnightblue" points="1116.28,-251.047 1123.87,-243.658 1113.33,-244.699 1116.28,-251.047"/>
</g>
<!-- Node24 -->
<g id="node24" class="node"><title>Node24</title>
<g id="a_node24"><a xlink:href="Rect_8hpp.html" target="_top" xlink:title="Rect.hpp">
<polygon fill="none" stroke="black" points="1190.5,-168.5 1190.5,-187.5 1248.5,-187.5 1248.5,-168.5 1190.5,-168.5"/>
<text text-anchor="middle" x="1219.5" y="-175.5" font-family="Helvetica,sans-Serif" font-size="10.00">Rect.hpp</text>
</a>
</g>
</g>
<!-- Node1&#45;&gt;Node24 -->
<g id="edge67" class="edge"><title>Node1&#45;&gt;Node24</title>
<path fill="none" stroke="midnightblue" d="M1111.56,-288.418C1144.66,-281.65 1179.37,-268.616 1203.5,-244 1215.31,-231.952 1218.87,-212.663 1219.74,-198.221"/>
<polygon fill="midnightblue" stroke="midnightblue" points="1223.25,-197.984 1219.97,-187.909 1216.25,-197.83 1223.25,-197.984"/>
</g>
<!-- Node26 -->
<g id="node26" class="node"><title>Node26</title>
<g id="a_node26"><a xlink:href="Animator_8hpp.html" target="_top" xlink:title="Display/Animator.hpp">
<polygon fill="none" stroke="black" points="1251,-224.5 1251,-243.5 1370,-243.5 1370,-224.5 1251,-224.5"/>
<text text-anchor="middle" x="1310.5" y="-231.5" font-family="Helvetica,sans-Serif" font-size="10.00">Display/Animator.hpp</text>
</a>
</g>
</g>
<!-- Node1&#45;&gt;Node26 -->
<g id="edge40" class="edge"><title>Node1&#45;&gt;Node26</title>
<path fill="none" stroke="midnightblue" d="M1084.27,-280.475C1137.57,-269.761 1209.86,-255.23 1258.24,-245.506"/>
<polygon fill="midnightblue" stroke="midnightblue" points="1259.07,-248.909 1268.18,-243.506 1257.69,-242.046 1259.07,-248.909"/>
</g>
<!-- Node30 -->
<g id="node30" class="node"><title>Node30</title>
<g id="a_node30"><a xlink:href="Text_8hpp.html" target="_top" xlink:title="Display/Text.hpp">
<polygon fill="none" stroke="black" points="451.5,-224.5 451.5,-243.5 545.5,-243.5 545.5,-224.5 451.5,-224.5"/>
<text text-anchor="middle" x="498.5" y="-231.5" font-family="Helvetica,sans-Serif" font-size="10.00">Display/Text.hpp</text>
</a>
</g>
</g>
<!-- Node1&#45;&gt;Node30 -->
<g id="edge50" class="edge"><title>Node1&#45;&gt;Node30</title>
<path fill="none" stroke="midnightblue" d="M917.408,-285.264C826.558,-276.295 686.813,-261.661 555.753,-244.111"/>
<polygon fill="midnightblue" stroke="midnightblue" points="555.906,-240.6 545.528,-242.733 554.972,-247.537 555.906,-240.6"/>
</g>
<!-- Node33 -->
<g id="node33" class="node"><title>Node33</title>
<g id="a_node33"><a xlink:href="Health_8hpp.html" target="_top" xlink:title="GameLogic/Health.hpp">
<polygon fill="none" stroke="black" points="1630.5,-168.5 1630.5,-187.5 1756.5,-187.5 1756.5,-168.5 1630.5,-168.5"/>
<text text-anchor="middle" x="1693.5" y="-175.5" font-family="Helvetica,sans-Serif" font-size="10.00">GameLogic/Health.hpp</text>
</a>
</g>
</g>
<!-- Node1&#45;&gt;Node33 -->
<g id="edge57" class="edge"><title>Node1&#45;&gt;Node33</title>
<path fill="none" stroke="midnightblue" d="M1111.87,-291.394C1212.5,-286.6 1373.58,-274.483 1509.5,-244 1566.01,-231.327 1629.08,-206.6 1664.77,-191.565"/>
<polygon fill="midnightblue" stroke="midnightblue" points="1666.25,-194.738 1674.08,-187.599 1663.51,-188.298 1666.25,-194.738"/>
</g>
<!-- Node34 -->
<g id="node34" class="node"><title>Node34</title>
<g id="a_node34"><a xlink:href="PlayerController_8hpp.html" target="_top" xlink:title="PlayerController.hpp">
<polygon fill="none" stroke="black" points="1388,-224.5 1388,-243.5 1501,-243.5 1501,-224.5 1388,-224.5"/>
<text text-anchor="middle" x="1444.5" y="-231.5" font-family="Helvetica,sans-Serif" font-size="10.00">PlayerController.hpp</text>
</a>
</g>
</g>
<!-- Node1&#45;&gt;Node34 -->
<g id="edge60" class="edge"><title>Node1&#45;&gt;Node34</title>
<path fill="none" stroke="midnightblue" d="M1111.54,-281.073C1192.63,-269.851 1306.16,-254.142 1377.49,-244.273"/>
<polygon fill="midnightblue" stroke="midnightblue" points="1378.27,-247.698 1387.7,-242.86 1377.31,-240.764 1378.27,-247.698"/>
</g>
<!-- Node3 -->
<g id="node3" class="node"><title>Node3</title>
<g id="a_node3"><a xlink:href="IEntityConstructor_8hpp.html" target="_top" xlink:title="IEntityConstructor.hpp">
<polygon fill="none" stroke="black" points="242.5,-168.5 242.5,-187.5 364.5,-187.5 364.5,-168.5 242.5,-168.5"/>
<text text-anchor="middle" x="303.5" y="-175.5" font-family="Helvetica,sans-Serif" font-size="10.00">IEntityConstructor.hpp</text>
</a>
</g>
</g>
<!-- Node2&#45;&gt;Node3 -->
<g id="edge2" class="edge"><title>Node2&#45;&gt;Node3</title>
<path fill="none" stroke="midnightblue" d="M343.574,-224.083C336.654,-216.298 326.435,-204.801 318.048,-195.367"/>
<polygon fill="midnightblue" stroke="midnightblue" points="320.538,-192.9 311.279,-187.751 315.306,-197.55 320.538,-192.9"/>
</g>
<!-- Node4 -->
<g id="node4" class="node"><title>Node4</title>
<polygon fill="none" stroke="#bfbfbf" points="194,-56.5 194,-75.5 251,-75.5 251,-56.5 194,-56.5"/>
<text text-anchor="middle" x="222.5" y="-63.5" font-family="Helvetica,sans-Serif" font-size="10.00">memory</text>
</g>
<!-- Node3&#45;&gt;Node4 -->
<g id="edge3" class="edge"><title>Node3&#45;&gt;Node4</title>
<path fill="none" stroke="midnightblue" d="M257.143,-168.467C236.425,-162.095 213.919,-151.052 201.5,-132 191.924,-117.309 200.418,-97.9018 209.301,-84.1289"/>
<polygon fill="midnightblue" stroke="midnightblue" points="212.397,-85.8117 215.296,-75.6212 206.675,-81.7797 212.397,-85.8117"/>
</g>
<!-- Node5 -->
<g id="node5" class="node"><title>Node5</title>
<polygon fill="none" stroke="#bfbfbf" points="430.5,-0.5 430.5,-19.5 474.5,-19.5 474.5,-0.5 430.5,-0.5"/>
<text text-anchor="middle" x="452.5" y="-7.5" font-family="Helvetica,sans-Serif" font-size="10.00">string</text>
</g>
<!-- Node3&#45;&gt;Node5 -->
<g id="edge4" class="edge"><title>Node3&#45;&gt;Node5</title>
<path fill="none" stroke="midnightblue" d="M320.483,-168.498C335.364,-160.485 356.979,-147.424 372.5,-132 404.371,-100.329 430.676,-54.03 443.692,-28.8768"/>
<polygon fill="midnightblue" stroke="midnightblue" points="446.904,-30.2809 448.296,-19.7778 440.658,-27.1209 446.904,-30.2809"/>
</g>
<!-- Node6 -->
<g id="node6" class="node"><title>Node6</title>
<g id="a_node6"><a xlink:href="Entity_8hpp.html" target="_top" xlink:title="Entity.hpp">
<polygon fill="none" stroke="black" points="308,-56.5 308,-75.5 371,-75.5 371,-56.5 308,-56.5"/>
<text text-anchor="middle" x="339.5" y="-63.5" font-family="Helvetica,sans-Serif" font-size="10.00">Entity.hpp</text>
</a>
</g>
</g>
<!-- Node3&#45;&gt;Node6 -->
<g id="edge5" class="edge"><title>Node3&#45;&gt;Node6</title>
<path fill="none" stroke="midnightblue" d="M319.834,-168.387C332.455,-160.72 348.997,-148.213 356.5,-132 363.527,-116.816 357.342,-98.2413 350.545,-84.8423"/>
<polygon fill="midnightblue" stroke="midnightblue" points="353.385,-82.7518 345.437,-75.7468 347.282,-86.1797 353.385,-82.7518"/>
</g>
<!-- Node7 -->
<g id="node7" class="node"><title>Node7</title>
<g id="a_node7"><a xlink:href="IEntityManager_8hpp.html" target="_top" xlink:title="IEntityManager.hpp">
<polygon fill="none" stroke="black" points="46.5,-112.5 46.5,-131.5 154.5,-131.5 154.5,-112.5 46.5,-112.5"/>
<text text-anchor="middle" x="100.5" y="-119.5" font-family="Helvetica,sans-Serif" font-size="10.00">IEntityManager.hpp</text>
</a>
</g>
</g>
<!-- Node3&#45;&gt;Node7 -->
<g id="edge6" class="edge"><title>Node3&#45;&gt;Node7</title>
<path fill="none" stroke="midnightblue" d="M271.334,-168.444C236.441,-159.162 180.607,-144.309 142.329,-134.127"/>
<polygon fill="midnightblue" stroke="midnightblue" points="143.079,-130.705 132.515,-131.516 141.28,-137.47 143.079,-130.705"/>
</g>
<!-- Node12 -->
<g id="node12" class="node"><title>Node12</title>
<g id="a_node12"><a xlink:href="IComponentManager_8hpp.html" target="_top" xlink:title="IComponentManager.hpp">
<polygon fill="none" stroke="black" points="211,-112.5 211,-131.5 348,-131.5 348,-112.5 211,-112.5"/>
<text text-anchor="middle" x="279.5" y="-119.5" font-family="Helvetica,sans-Serif" font-size="10.00">IComponentManager.hpp</text>
</a>
</g>
</g>
<!-- Node3&#45;&gt;Node12 -->
<g id="edge14" class="edge"><title>Node3&#45;&gt;Node12</title>
<path fill="none" stroke="midnightblue" d="M299.537,-168.083C296.287,-160.77 291.581,-150.181 287.546,-141.103"/>
<polygon fill="midnightblue" stroke="midnightblue" points="290.649,-139.468 283.389,-131.751 284.252,-142.311 290.649,-139.468"/>
</g>
<!-- Node7&#45;&gt;Node4 -->
<g id="edge7" class="edge"><title>Node7&#45;&gt;Node4</title>
<path fill="none" stroke="midnightblue" d="M119.831,-112.444C139.82,-103.596 171.243,-89.6875 194.064,-79.5865"/>
<polygon fill="midnightblue" stroke="midnightblue" points="195.532,-82.7645 203.259,-75.5164 192.698,-76.3635 195.532,-82.7645"/>
</g>
<!-- Node7&#45;&gt;Node6 -->
<g id="edge9" class="edge"><title>Node7&#45;&gt;Node6</title>
<path fill="none" stroke="midnightblue" d="M138.37,-112.444C181.842,-102.621 252.922,-86.5616 297.902,-76.3987"/>
<polygon fill="midnightblue" stroke="midnightblue" points="298.93,-79.7547 307.913,-74.1368 297.387,-72.9268 298.93,-79.7547"/>
</g>
<!-- Node8 -->
<g id="node8" class="node"><title>Node8</title>
<polygon fill="none" stroke="#bfbfbf" points="0,-56.5 0,-75.5 47,-75.5 47,-56.5 0,-56.5"/>
<text text-anchor="middle" x="23.5" y="-63.5" font-family="Helvetica,sans-Serif" font-size="10.00">vector</text>
</g>
<!-- Node7&#45;&gt;Node8 -->
<g id="edge8" class="edge"><title>Node7&#45;&gt;Node8</title>
<path fill="none" stroke="midnightblue" d="M88.1286,-112.324C76.3415,-104.058 58.3677,-91.4527 44.3645,-81.6322"/>
<polygon fill="midnightblue" stroke="midnightblue" points="46.0376,-78.5307 35.8407,-75.6545 42.0184,-84.2619 46.0376,-78.5307"/>
</g>
<!-- Node9 -->
<g id="node9" class="node"><title>Node9</title>
<g id="a_node9"><a xlink:href="PacketManager_8hpp.html" target="_top" xlink:title="PacketManager.hpp">
<polygon fill="none" stroke="black" points="65.5,-56.5 65.5,-75.5 175.5,-75.5 175.5,-56.5 65.5,-56.5"/>
<text text-anchor="middle" x="120.5" y="-63.5" font-family="Helvetica,sans-Serif" font-size="10.00">PacketManager.hpp</text>
</a>
</g>
</g>
<!-- Node7&#45;&gt;Node9 -->
<g id="edge10" class="edge"><title>Node7&#45;&gt;Node9</title>
<path fill="none" stroke="midnightblue" d="M103.803,-112.083C106.482,-104.849 110.349,-94.4087 113.686,-85.3968"/>
<polygon fill="midnightblue" stroke="midnightblue" points="117.068,-86.3442 117.259,-75.7511 110.504,-83.9129 117.068,-86.3442"/>
</g>
<!-- Node9&#45;&gt;Node5 -->
<g id="edge11" class="edge"><title>Node9&#45;&gt;Node5</title>
<path fill="none" stroke="midnightblue" d="M173.106,-56.4435C242.646,-45.1328 363.041,-25.5505 420.367,-16.2265"/>
<polygon fill="midnightblue" stroke="midnightblue" points="421.002,-19.6693 430.31,-14.6092 419.878,-12.7601 421.002,-19.6693"/>
</g>
<!-- Node10 -->
<g id="node10" class="node"><title>Node10</title>
<polygon fill="none" stroke="#bfbfbf" points="184.5,-0.5 184.5,-19.5 214.5,-19.5 214.5,-0.5 184.5,-0.5"/>
<text text-anchor="middle" x="199.5" y="-7.5" font-family="Helvetica,sans-Serif" font-size="10.00">list</text>
</g>
<!-- Node9&#45;&gt;Node10 -->
<g id="edge12" class="edge"><title>Node9&#45;&gt;Node10</title>
<path fill="none" stroke="midnightblue" d="M133.193,-56.324C145.401,-47.979 164.078,-35.2122 178.503,-25.3524"/>
<polygon fill="midnightblue" stroke="midnightblue" points="180.558,-28.1871 186.839,-19.6545 176.608,-22.4082 180.558,-28.1871"/>
</g>
<!-- Node11 -->
<g id="node11" class="node"><title>Node11</title>
<g id="a_node11"><a xlink:href="Input_8hpp.html" target="_top" xlink:title="Render/Input.hpp">
<polygon fill="none" stroke="black" points="761.5,-0.5 761.5,-19.5 859.5,-19.5 859.5,-0.5 761.5,-0.5"/>
<text text-anchor="middle" x="810.5" y="-7.5" font-family="Helvetica,sans-Serif" font-size="10.00">Render/Input.hpp</text>
</a>
</g>
</g>
<!-- Node9&#45;&gt;Node11 -->
<g id="edge13" class="edge"><title>Node9&#45;&gt;Node11</title>
<path fill="none" stroke="midnightblue" d="M175.629,-57.0052C178.627,-56.6461 181.599,-56.3079 184.5,-56 392.28,-33.9481 640.032,-19.6831 751.283,-13.9127"/>
<polygon fill="midnightblue" stroke="midnightblue" points="751.491,-17.4067 761.298,-13.3972 751.131,-10.416 751.491,-17.4067"/>
</g>
<!-- Node12&#45;&gt;Node4 -->
<g id="edge16" class="edge"><title>Node12&#45;&gt;Node4</title>
<path fill="none" stroke="midnightblue" d="M270.342,-112.324C261.999,-104.42 249.468,-92.5482 239.323,-82.9377"/>
<polygon fill="midnightblue" stroke="midnightblue" points="241.491,-80.1705 231.825,-75.8339 236.677,-85.2522 241.491,-80.1705"/>
</g>
<!-- Node12&#45;&gt;Node6 -->
<g id="edge19" class="edge"><title>Node12&#45;&gt;Node6</title>
<path fill="none" stroke="midnightblue" d="M289.14,-112.324C298.01,-104.341 311.375,-92.3128 322.108,-82.6529"/>
<polygon fill="midnightblue" stroke="midnightblue" points="324.593,-85.1251 329.685,-75.8339 319.91,-79.922 324.593,-85.1251"/>
</g>
<!-- Node12&#45;&gt;Node10 -->
<g id="edge15" class="edge"><title>Node12&#45;&gt;Node10</title>
<path fill="none" stroke="midnightblue" d="M278.551,-112.252C276.755,-99.0149 271.861,-73.5772 259.5,-56 250.249,-42.8445 235.957,-31.9081 223.643,-24.1119"/>
<polygon fill="midnightblue" stroke="midnightblue" points="225.106,-20.9086 214.727,-18.7774 221.511,-26.9154 225.106,-20.9086"/>
</g>
<!-- Node13 -->
<g id="node13" class="node"><title>Node13</title>
<g id="a_node13"><a xlink:href="IComponent_8hpp.html" target="_top" xlink:title="IComponent.hpp">
<polygon fill="none" stroke="black" points="906.5,-56.5 906.5,-75.5 1002.5,-75.5 1002.5,-56.5 906.5,-56.5"/>
<text text-anchor="middle" x="954.5" y="-63.5" font-family="Helvetica,sans-Serif" font-size="10.00">IComponent.hpp</text>
</a>
</g>
</g>
<!-- Node12&#45;&gt;Node13 -->
<g id="edge17" class="edge"><title>Node12&#45;&gt;Node13</title>
<path fill="none" stroke="midnightblue" d="M348.251,-115.5C481.263,-104.859 771.653,-81.6278 896.045,-71.6764"/>
<polygon fill="midnightblue" stroke="midnightblue" points="896.446,-75.1556 906.135,-70.8692 895.888,-68.1779 896.446,-75.1556"/>
</g>
<!-- Node14 -->
<g id="node14" class="node"><title>Node14</title>
<polygon fill="none" stroke="#bfbfbf" points="1148,-0.5 1148,-19.5 1211,-19.5 1211,-0.5 1148,-0.5"/>
<text text-anchor="middle" x="1179.5" y="-7.5" font-family="Helvetica,sans-Serif" font-size="10.00">typeindex</text>
</g>
<!-- Node13&#45;&gt;Node14 -->
<g id="edge18" class="edge"><title>Node13&#45;&gt;Node14</title>
<path fill="none" stroke="midnightblue" d="M990.152,-56.4435C1030.3,-46.8073 1095.47,-31.1672 1137.91,-20.9819"/>
<polygon fill="midnightblue" stroke="midnightblue" points="1138.75,-24.3805 1147.65,-18.6433 1137.11,-17.5738 1138.75,-24.3805"/>
</g>
<!-- Node16 -->
<g id="node16" class="node"><title>Node16</title>
<g id="a_node16"><a xlink:href="IPhysics_8hpp.html" target="_top" xlink:title="IPhysics.hpp">
<polygon fill="none" stroke="black" points="835,-112.5 835,-131.5 910,-131.5 910,-112.5 835,-112.5"/>
<text text-anchor="middle" x="872.5" y="-119.5" font-family="Helvetica,sans-Serif" font-size="10.00">IPhysics.hpp</text>
</a>
</g>
</g>
<!-- Node15&#45;&gt;Node16 -->
<g id="edge21" class="edge"><title>Node15&#45;&gt;Node16</title>
<path fill="none" stroke="midnightblue" d="M886.496,-224.151C892.927,-211.628 902.689,-188.025 897.5,-168 894.954,-158.175 889.747,-148.212 884.741,-140.166"/>
<polygon fill="midnightblue" stroke="midnightblue" points="887.58,-138.114 879.129,-131.725 881.751,-141.99 887.58,-138.114"/>
</g>
<!-- Node16&#45;&gt;Node13 -->
<g id="edge22" class="edge"><title>Node16&#45;&gt;Node13</title>
<path fill="none" stroke="midnightblue" d="M885.675,-112.324C898.347,-103.979 917.733,-91.2122 932.706,-81.3524"/>
<polygon fill="midnightblue" stroke="midnightblue" points="934.931,-84.0776 941.358,-75.6545 931.081,-78.2313 934.931,-84.0776"/>
</g>
<!-- Node17&#45;&gt;Node16 -->
<g id="edge25" class="edge"><title>Node17&#45;&gt;Node16</title>
<path fill="none" stroke="midnightblue" d="M638.352,-224.337C656.749,-215.371 686.225,-200.898 711.5,-188 728.5,-179.325 732.055,-175.74 749.5,-168 777.997,-155.356 811.252,-143.347 835.993,-134.921"/>
<polygon fill="midnightblue" stroke="midnightblue" points="837.342,-138.16 845.7,-131.649 835.106,-131.526 837.342,-138.16"/>
</g>
<!-- Node18 -->
<g id="node18" class="node"><title>Node18</title>
<polygon fill="none" stroke="#bfbfbf" points="758.5,-168.5 758.5,-187.5 800.5,-187.5 800.5,-168.5 758.5,-168.5"/>
<text text-anchor="middle" x="779.5" y="-175.5" font-family="Helvetica,sans-Serif" font-size="10.00">utility</text>
</g>
<!-- Node17&#45;&gt;Node18 -->
<g id="edge24" class="edge"><title>Node17&#45;&gt;Node18</title>
<path fill="none" stroke="midnightblue" d="M645.694,-224.444C673.701,-214.932 718.934,-199.57 748.94,-189.379"/>
<polygon fill="midnightblue" stroke="midnightblue" points="750.143,-192.667 758.486,-186.137 747.892,-186.039 750.143,-192.667"/>
</g>
<!-- Node20 -->
<g id="node20" class="node"><title>Node20</title>
<g id="a_node20"><a xlink:href="Motion_8hpp.html" target="_top" xlink:title="Motion.hpp">
<polygon fill="none" stroke="black" points="818.5,-168.5 818.5,-187.5 888.5,-187.5 888.5,-168.5 818.5,-168.5"/>
<text text-anchor="middle" x="853.5" y="-175.5" font-family="Helvetica,sans-Serif" font-size="10.00">Motion.hpp</text>
</a>
</g>
</g>
<!-- Node19&#45;&gt;Node20 -->
<g id="edge27" class="edge"><title>Node19&#45;&gt;Node20</title>
<path fill="none" stroke="midnightblue" d="M767.049,-224.324C783.492,-215.703 808.935,-202.364 827.968,-192.386"/>
<polygon fill="midnightblue" stroke="midnightblue" points="829.761,-195.398 836.992,-187.655 826.511,-189.198 829.761,-195.398"/>
</g>
<!-- Node20&#45;&gt;Node16 -->
<g id="edge28" class="edge"><title>Node20&#45;&gt;Node16</title>
<path fill="none" stroke="midnightblue" d="M856.637,-168.083C859.183,-160.849 862.856,-150.409 866.027,-141.397"/>
<polygon fill="midnightblue" stroke="midnightblue" points="869.403,-142.346 869.421,-131.751 862.8,-140.023 869.403,-142.346"/>
</g>
<!-- Node21&#45;&gt;Node5 -->
<g id="edge30" class="edge"><title>Node21&#45;&gt;Node5</title>
<path fill="none" stroke="midnightblue" d="M1010.31,-224.296C998.981,-201.753 965.397,-141.191 918.5,-112 775.531,-23.0081 565.516,-11.6728 485.293,-10.77"/>
<polygon fill="midnightblue" stroke="midnightblue" points="484.877,-7.2674 474.856,-10.7048 484.834,-14.2673 484.877,-7.2674"/>
</g>
<!-- Node21&#45;&gt;Node16 -->
<g id="edge32" class="edge"><title>Node21&#45;&gt;Node16</title>
<path fill="none" stroke="midnightblue" d="M1003.36,-224.368C979.198,-205.653 921.749,-161.151 891.647,-137.832"/>
<polygon fill="midnightblue" stroke="midnightblue" points="893.64,-134.949 883.591,-131.591 889.353,-140.482 893.64,-134.949"/>
</g>
<!-- Node22 -->
<g id="node22" class="node"><title>Node22</title>
<polygon fill="none" stroke="#bfbfbf" points="1134.5,-168.5 1134.5,-187.5 1172.5,-187.5 1172.5,-168.5 1134.5,-168.5"/>
<text text-anchor="middle" x="1153.5" y="-175.5" font-family="Helvetica,sans-Serif" font-size="10.00">map</text>
</g>
<!-- Node21&#45;&gt;Node22 -->
<g id="edge31" class="edge"><title>Node21&#45;&gt;Node22</title>
<path fill="none" stroke="midnightblue" d="M1036.52,-224.444C1060.42,-215.161 1098.65,-200.308 1124.86,-190.125"/>
<polygon fill="midnightblue" stroke="midnightblue" points="1126.21,-193.357 1134.26,-186.473 1123.68,-186.832 1126.21,-193.357"/>
</g>
<!-- Node23&#45;&gt;Node5 -->
<g id="edge34" class="edge"><title>Node23&#45;&gt;Node5</title>
<path fill="none" stroke="midnightblue" d="M1137.37,-224.25C1117.95,-191.409 1048.1,-76.3259 1011.5,-56 965.376,-30.3824 596.602,-15.8848 484.627,-12.0421"/>
<polygon fill="midnightblue" stroke="midnightblue" points="484.725,-8.54354 474.612,-11.7035 484.488,-15.5395 484.725,-8.54354"/>
</g>
<!-- Node23&#45;&gt;Node14 -->
<g id="edge35" class="edge"><title>Node23&#45;&gt;Node14</title>
<path fill="none" stroke="midnightblue" d="M1138.13,-224.307C1133.94,-215.437 1127.9,-201.145 1125.5,-188 1123.9,-179.256 1124.03,-176.767 1125.5,-168 1134.26,-115.587 1158.41,-57.2414 1171.24,-28.6903"/>
<polygon fill="midnightblue" stroke="midnightblue" points="1174.43,-30.1354 1175.4,-19.5857 1168.06,-27.2234 1174.43,-30.1354"/>
</g>
<!-- Node23&#45;&gt;Node24 -->
<g id="edge36" class="edge"><title>Node23&#45;&gt;Node24</title>
<path fill="none" stroke="midnightblue" d="M1154.87,-224.324C1166.66,-216.058 1184.63,-203.453 1198.64,-193.632"/>
<polygon fill="midnightblue" stroke="midnightblue" points="1200.98,-196.262 1207.16,-187.655 1196.96,-190.531 1200.98,-196.262"/>
</g>
<!-- Node25 -->
<g id="node25" class="node"><title>Node25</title>
<g id="a_node25"><a xlink:href="IDisplay_8hpp.html" target="_top" xlink:title="IDisplay.hpp">
<polygon fill="none" stroke="black" points="967,-112.5 967,-131.5 1040,-131.5 1040,-112.5 967,-112.5"/>
<text text-anchor="middle" x="1003.5" y="-119.5" font-family="Helvetica,sans-Serif" font-size="10.00">IDisplay.hpp</text>
</a>
</g>
</g>
<!-- Node23&#45;&gt;Node25 -->
<g id="edge37" class="edge"><title>Node23&#45;&gt;Node25</title>
<path fill="none" stroke="midnightblue" d="M1119.19,-224.352C1100.45,-216.665 1074.1,-204.148 1054.5,-188 1037.95,-174.365 1023.34,-154.488 1014.04,-140.309"/>
<polygon fill="midnightblue" stroke="midnightblue" points="1016.8,-138.129 1008.5,-131.55 1010.89,-141.872 1016.8,-138.129"/>
</g>
<!-- Node25&#45;&gt;Node13 -->
<g id="edge39" class="edge"><title>Node25&#45;&gt;Node13</title>
<path fill="none" stroke="midnightblue" d="M995.409,-112.083C988.345,-104.298 977.912,-92.8015 969.351,-83.3665"/>
<polygon fill="midnightblue" stroke="midnightblue" points="971.753,-80.8047 962.441,-75.7511 966.569,-85.5087 971.753,-80.8047"/>
</g>
<!-- Node25&#45;&gt;Node14 -->
<g id="edge38" class="edge"><title>Node25&#45;&gt;Node14</title>
<path fill="none" stroke="midnightblue" d="M1014.09,-112.439C1030.4,-99.4456 1062.89,-74.3222 1092.5,-56 1111.78,-44.0722 1134.57,-32.364 1151.99,-23.8813"/>
<polygon fill="midnightblue" stroke="midnightblue" points="1153.56,-27.0085 1161.06,-19.5197 1150.53,-20.7003 1153.56,-27.0085"/>
</g>
<!-- Node26&#45;&gt;Node14 -->
<g id="edge41" class="edge"><title>Node26&#45;&gt;Node14</title>
<path fill="none" stroke="midnightblue" d="M1307.51,-224.348C1302.99,-211.662 1293.84,-187.414 1283.5,-168 1255.06,-114.592 1213.38,-56.348 1192.47,-28.1756"/>
<polygon fill="midnightblue" stroke="midnightblue" points="1195.02,-25.7369 1186.23,-19.8247 1189.41,-29.9292 1195.02,-25.7369"/>
</g>
<!-- Node26&#45;&gt;Node24 -->
<g id="edge49" class="edge"><title>Node26&#45;&gt;Node24</title>
<path fill="none" stroke="midnightblue" d="M1295.88,-224.324C1281.55,-215.822 1259.49,-202.729 1242.75,-192.797"/>
<polygon fill="midnightblue" stroke="midnightblue" points="1244.47,-189.748 1234.08,-187.655 1240.9,-195.768 1244.47,-189.748"/>
</g>
<!-- Node26&#45;&gt;Node25 -->
<g id="edge42" class="edge"><title>Node26&#45;&gt;Node25</title>
<path fill="none" stroke="midnightblue" d="M1306.02,-224.154C1298.25,-209.814 1280.85,-181.716 1257.5,-168 1223.11,-147.805 1113.65,-133.93 1050.21,-127.356"/>
<polygon fill="midnightblue" stroke="midnightblue" points="1050.36,-123.854 1040.06,-126.326 1049.66,-130.818 1050.36,-123.854"/>
</g>
<!-- Node27 -->
<g id="node27" class="node"><title>Node27</title>
<g id="a_node27"><a xlink:href="Timer_8hpp.html" target="_top" xlink:title="Timer.hpp">
<polygon fill="none" stroke="black" points="1342.5,-168.5 1342.5,-187.5 1406.5,-187.5 1406.5,-168.5 1342.5,-168.5"/>
<text text-anchor="middle" x="1374.5" y="-175.5" font-family="Helvetica,sans-Serif" font-size="10.00">Timer.hpp</text>
</a>
</g>
</g>
<!-- Node26&#45;&gt;Node27 -->
<g id="edge43" class="edge"><title>Node26&#45;&gt;Node27</title>
<path fill="none" stroke="midnightblue" d="M1320.78,-224.324C1330.34,-216.263 1344.78,-204.077 1356.28,-194.369"/>
<polygon fill="midnightblue" stroke="midnightblue" points="1358.64,-196.958 1364.03,-187.834 1354.13,-191.608 1358.64,-196.958"/>
</g>
<!-- Node27&#45;&gt;Node14 -->
<g id="edge45" class="edge"><title>Node27&#45;&gt;Node14</title>
<path fill="none" stroke="midnightblue" d="M1358.53,-168.485C1344.59,-160.463 1324.46,-147.397 1310.5,-132 1284.43,-103.247 1295.52,-82.8575 1267.5,-56 1252.55,-41.6722 1232.15,-30.854 1214.75,-23.4199"/>
<polygon fill="midnightblue" stroke="midnightblue" points="1216.03,-20.1617 1205.45,-19.6372 1213.39,-26.6462 1216.03,-20.1617"/>
</g>
<!-- Node28 -->
<g id="node28" class="node"><title>Node28</title>
<polygon fill="none" stroke="#bfbfbf" points="1319.5,-112.5 1319.5,-131.5 1369.5,-131.5 1369.5,-112.5 1319.5,-112.5"/>
<text text-anchor="middle" x="1344.5" y="-119.5" font-family="Helvetica,sans-Serif" font-size="10.00">chrono</text>
</g>
<!-- Node27&#45;&gt;Node28 -->
<g id="edge44" class="edge"><title>Node27&#45;&gt;Node28</title>
<path fill="none" stroke="midnightblue" d="M1369.55,-168.083C1365.4,-160.613 1359.35,-149.724 1354.23,-140.52"/>
<polygon fill="midnightblue" stroke="midnightblue" points="1357.28,-138.793 1349.36,-131.751 1351.16,-142.192 1357.28,-138.793"/>
</g>
<!-- Node29 -->
<g id="node29" class="node"><title>Node29</title>
<g id="a_node29"><a xlink:href="IGameLogic_8hpp.html" target="_top" xlink:title="IGameLogic.hpp">
<polygon fill="none" stroke="black" points="1425.5,-112.5 1425.5,-131.5 1519.5,-131.5 1519.5,-112.5 1425.5,-112.5"/>
<text text-anchor="middle" x="1472.5" y="-119.5" font-family="Helvetica,sans-Serif" font-size="10.00">IGameLogic.hpp</text>
</a>
</g>
</g>
<!-- Node27&#45;&gt;Node29 -->
<g id="edge46" class="edge"><title>Node27&#45;&gt;Node29</title>
<path fill="none" stroke="midnightblue" d="M1390.25,-168.324C1405.82,-159.743 1429.88,-146.486 1447.96,-136.522"/>
<polygon fill="midnightblue" stroke="midnightblue" points="1449.72,-139.546 1456.79,-131.655 1446.35,-133.415 1449.72,-139.546"/>
</g>
<!-- Node29&#45;&gt;Node13 -->
<g id="edge48" class="edge"><title>Node29&#45;&gt;Node13</title>
<path fill="none" stroke="midnightblue" d="M1425.16,-116.065C1330.05,-106.15 1116.04,-83.8404 1012.63,-73.0595"/>
<polygon fill="midnightblue" stroke="midnightblue" points="1012.98,-69.5775 1002.67,-72.0217 1012.25,-76.5398 1012.98,-69.5775"/>
</g>
<!-- Node29&#45;&gt;Node14 -->
<g id="edge47" class="edge"><title>Node29&#45;&gt;Node14</title>
<path fill="none" stroke="midnightblue" d="M1466.96,-112.198C1457.48,-97.9202 1436.7,-69.9102 1411.5,-56 1351.1,-22.6589 1269.94,-13.7029 1221.36,-11.4822"/>
<polygon fill="midnightblue" stroke="midnightblue" points="1221.34,-7.97898 1211.22,-11.0952 1221.08,-14.9739 1221.34,-7.97898"/>
</g>
<!-- Node30&#45;&gt;Node5 -->
<g id="edge52" class="edge"><title>Node30&#45;&gt;Node5</title>
<path fill="none" stroke="midnightblue" d="M493.244,-224.378C488.125,-215.564 480.542,-201.314 476.5,-188 459.571,-132.238 454.564,-62.9643 453.098,-30.064"/>
<polygon fill="midnightblue" stroke="midnightblue" points="456.58,-29.5404 452.702,-19.6809 449.585,-29.8069 456.58,-29.5404"/>
</g>
<!-- Node30&#45;&gt;Node14 -->
<g id="edge51" class="edge"><title>Node30&#45;&gt;Node14</title>
<path fill="none" stroke="midnightblue" d="M497.373,-224.266C496.119,-210.582 495.814,-184.005 509.5,-168 611.253,-49.0045 690.996,-91.4411 843.5,-56 947.763,-31.77 1073.47,-19.2551 1137.53,-14.0392"/>
<polygon fill="midnightblue" stroke="midnightblue" points="1137.95,-17.517 1147.64,-13.2352 1137.39,-10.539 1137.95,-17.517"/>
</g>
<!-- Node31 -->
<g id="node31" class="node"><title>Node31</title>
<g id="a_node31"><a xlink:href="Color_8hpp.html" target="_top" xlink:title="Color.hpp">
<polygon fill="none" stroke="black" points="518.5,-168.5 518.5,-187.5 580.5,-187.5 580.5,-168.5 518.5,-168.5"/>
<text text-anchor="middle" x="549.5" y="-175.5" font-family="Helvetica,sans-Serif" font-size="10.00">Color.hpp</text>
</a>
</g>
</g>
<!-- Node30&#45;&gt;Node31 -->
<g id="edge53" class="edge"><title>Node30&#45;&gt;Node31</title>
<path fill="none" stroke="midnightblue" d="M506.922,-224.083C514.348,-216.22 525.352,-204.569 534.312,-195.081"/>
<polygon fill="midnightblue" stroke="midnightblue" points="536.913,-197.424 541.235,-187.751 531.824,-192.618 536.913,-197.424"/>
</g>
<!-- Node32 -->
<g id="node32" class="node"><title>Node32</title>
<g id="a_node32"><a xlink:href="IUserInterface_8hpp.html" target="_top" xlink:title="IUserInterface.hpp">
<polygon fill="none" stroke="black" points="598.5,-168.5 598.5,-187.5 702.5,-187.5 702.5,-168.5 598.5,-168.5"/>
<text text-anchor="middle" x="650.5" y="-175.5" font-family="Helvetica,sans-Serif" font-size="10.00">IUserInterface.hpp</text>
</a>
</g>
</g>
<!-- Node30&#45;&gt;Node32 -->
<g id="edge54" class="edge"><title>Node30&#45;&gt;Node32</title>
<path fill="none" stroke="midnightblue" d="M522.585,-224.444C548.045,-215.399 588.394,-201.064 616.959,-190.916"/>
<polygon fill="midnightblue" stroke="midnightblue" points="618.277,-194.162 626.528,-187.516 615.933,-187.566 618.277,-194.162"/>
</g>
<!-- Node32&#45;&gt;Node14 -->
<g id="edge55" class="edge"><title>Node32&#45;&gt;Node14</title>
<path fill="none" stroke="midnightblue" d="M664.355,-168.356C700.933,-145.958 803.729,-85.7152 897.5,-56 980.306,-29.7596 1081.86,-18.3589 1137.71,-13.7764"/>
<polygon fill="midnightblue" stroke="midnightblue" points="1138.23,-17.2466 1147.92,-12.9732 1137.68,-10.2682 1138.23,-17.2466"/>
</g>
<!-- Node32&#45;&gt;Node25 -->
<g id="edge56" class="edge"><title>Node32&#45;&gt;Node25</title>
<path fill="none" stroke="midnightblue" d="M702.586,-169.032C771.217,-158.533 890.911,-140.223 956.761,-130.15"/>
<polygon fill="midnightblue" stroke="midnightblue" points="957.495,-133.578 966.851,-128.606 956.437,-126.659 957.495,-133.578"/>
</g>
<!-- Node33&#45;&gt;Node14 -->
<g id="edge58" class="edge"><title>Node33&#45;&gt;Node14</title>
<path fill="none" stroke="midnightblue" d="M1687.27,-168.344C1670.2,-145.373 1620,-82.8034 1561.5,-56 1501.69,-28.599 1307.66,-16.72 1221.45,-12.7014"/>
<polygon fill="midnightblue" stroke="midnightblue" points="1221.39,-9.19519 1211.24,-12.239 1221.07,-16.188 1221.39,-9.19519"/>
</g>
<!-- Node33&#45;&gt;Node29 -->
<g id="edge59" class="edge"><title>Node33&#45;&gt;Node29</title>
<path fill="none" stroke="midnightblue" d="M1658.48,-168.444C1620.25,-159.102 1558.93,-144.119 1517.24,-133.933"/>
<polygon fill="midnightblue" stroke="midnightblue" points="1517.9,-130.49 1507.35,-131.516 1516.24,-137.29 1517.9,-130.49"/>
</g>
<!-- Node34&#45;&gt;Node11 -->
<g id="edge65" class="edge"><title>Node34&#45;&gt;Node11</title>
<path fill="none" stroke="midnightblue" d="M1442.7,-224.413C1437.44,-201.614 1419.74,-139.432 1378.5,-112 1295.48,-56.7773 998.005,-26.3584 869.888,-15.5655"/>
<polygon fill="midnightblue" stroke="midnightblue" points="870.115,-12.0724 859.86,-14.7317 869.535,-19.0483 870.115,-12.0724"/>
</g>
<!-- Node34&#45;&gt;Node14 -->
<g id="edge61" class="edge"><title>Node34&#45;&gt;Node14</title>
<path fill="none" stroke="midnightblue" d="M1458.81,-224.292C1488.75,-204.926 1553.21,-156.486 1528.5,-112 1505.62,-70.8175 1482.52,-72.7861 1438.5,-56 1365.29,-28.0834 1273.8,-17.3719 1221.46,-13.3442"/>
<polygon fill="midnightblue" stroke="midnightblue" points="1221.45,-9.83413 1211.22,-12.6034 1220.95,-16.8159 1221.45,-9.83413"/>
</g>
<!-- Node34&#45;&gt;Node22 -->
<g id="edge64" class="edge"><title>Node34&#45;&gt;Node22</title>
<path fill="none" stroke="midnightblue" d="M1389.21,-224.483C1328.28,-214.944 1233.18,-199.557 1182.49,-187.91"/>
<polygon fill="midnightblue" stroke="midnightblue" points="1183.22,-184.484 1172.68,-185.559 1181.59,-191.292 1183.22,-184.484"/>
</g>
<!-- Node34&#45;&gt;Node27 -->
<g id="edge63" class="edge"><title>Node34&#45;&gt;Node27</title>
<path fill="none" stroke="midnightblue" d="M1433.25,-224.324C1422.7,-216.185 1406.7,-203.839 1394.06,-194.087"/>
<polygon fill="midnightblue" stroke="midnightblue" points="1396.01,-191.171 1385.95,-187.834 1391.73,-196.713 1396.01,-191.171"/>
</g>
<!-- Node34&#45;&gt;Node29 -->
<g id="edge62" class="edge"><title>Node34&#45;&gt;Node29</title>
<path fill="none" stroke="midnightblue" d="M1446.7,-224.368C1451.22,-206.617 1461.64,-165.666 1467.77,-141.597"/>
<polygon fill="midnightblue" stroke="midnightblue" points="1471.24,-142.146 1470.31,-131.591 1464.45,-140.419 1471.24,-142.146"/>
</g>
<!-- Node35 -->
<g id="node35" class="node"><title>Node35</title>
<g id="a_node35"><a xlink:href="Actions_8hpp.html" target="_top" xlink:title="Actions.hpp">
<polygon fill="none" stroke="black" points="1539,-168.5 1539,-187.5 1612,-187.5 1612,-168.5 1539,-168.5"/>
<text text-anchor="middle" x="1575.5" y="-175.5" font-family="Helvetica,sans-Serif" font-size="10.00">Actions.hpp</text>
</a>
</g>
</g>
<!-- Node34&#45;&gt;Node35 -->
<g id="edge66" class="edge"><title>Node34&#45;&gt;Node35</title>
<path fill="none" stroke="midnightblue" d="M1465.26,-224.444C1486.82,-215.557 1520.76,-201.563 1545.29,-191.451"/>
<polygon fill="midnightblue" stroke="midnightblue" points="1546.93,-194.563 1554.84,-187.516 1544.26,-188.092 1546.93,-194.563"/>
</g>
</g>
</svg>
        <g id="navigator" transform="translate(0 0)" fill="#404254">
                <rect fill="#f2f5e9" fill-opacity="0.5" stroke="#606060" stroke-width=".5" x="0" y="0" width="60" height="60"/>
                <use id="zoomplus" xlink:href="#zoomPlus" x="17" y="9" onmousedown="handleZoom(evt,'in')"/>
                <use id="zoomminus" xlink:href="#zoomMin" x="42" y="9" onmousedown="handleZoom(evt,'out')"/>
                <use id="reset" xlink:href="#resetDef" x="30" y="36" onmousedown="handleReset()"/>
                <g id="arrowUp" xlink:href="#dirArrow" transform="translate(30 24)" onmousedown="handlePan(0,-1)">
                  <use xlink:href="#rim" fill="#404040">
                        <set attributeName="fill" to="#808080" begin="arrowUp.mouseover" end="arrowUp.mouseout"/>
                  </use>
                  <path fill="none" stroke="white" stroke-width="1.5" d="M0,-3.0v7 M-2.5,-0.5L0,-3.0L2.5,-0.5"/>
                </g>
                <g id="arrowRight" xlink:href="#dirArrow" transform="rotate(90) translate(36 -43)" onmousedown="handlePan(1,0)">
                  <use xlink:href="#rim" fill="#404040">
                        <set attributeName="fill" to="#808080" begin="arrowRight.mouseover" end="arrowRight.mouseout"/>
                  </use>
                  <path fill="none" stroke="white" stroke-width="1.5" d="M0,-3.0v7 M-2.5,-0.5L0,-3.0L2.5,-0.5"/>
                </g>
                <g id="arrowDown" xlink:href="#dirArrow" transform="rotate(180) translate(-30 -48)" onmousedown="handlePan(0,1)">
                  <use xlink:href="#rim" fill="#404040">
                        <set attributeName="fill" to="#808080" begin="arrowDown.mouseover" end="arrowDown.mouseout"/>
                  </use>
                  <path fill="none" stroke="white" stroke-width="1.5" d="M0,-3.0v7 M-2.5,-0.5L0,-3.0L2.5,-0.5"/>
                </g>
                <g id="arrowLeft" xlink:href="#dirArrow" transform="rotate(270) translate(-36 17)" onmousedown="handlePan(-1,0)">
                  <use xlink:href="#rim" fill="#404040">
                        <set attributeName="fill" to="#808080" begin="arrowLeft.mouseover" end="arrowLeft.mouseout"/>
                  </use>
                  <path fill="none" stroke="white" stroke-width="1.5" d="M0,-3.0v7 M-2.5,-0.5L0,-3.0L2.5,-0.5"/>
                </g>
        </g>
        <svg viewBox="0 0 15 15" width="100%" height="30px" preserveAspectRatio="xMaxYMin meet">
         <g id="arrow_out" transform="scale(0.3 0.3)">
          <a xlink:href="TestBackground_8cpp__incl_org.svg" target="_base">
           <rect id="button" ry="5" rx="5" y="6" x="6" height="38" width="38"
                fill="#f2f5e9" fill-opacity="0.5" stroke="#606060" stroke-width="1.0"/>
           <path id="arrow"
             d="M 11.500037,31.436501 C 11.940474,20.09759 22.043105,11.32322 32.158766,21.979434 L 37.068811,17.246167 C 37.068811,17.246167 37.088388,32 37.088388,32 L 22.160133,31.978069 C 22.160133,31.978069 26.997745,27.140456 26.997745,27.140456 C 18.528582,18.264221 13.291696,25.230495 11.500037,31.436501 z"
             style="fill:#404040;"/>
          </a>
         </g>
        </svg>
</svg>
