<?xml version="1.0" encoding="UTF-8" standalone="no"?>
<!DOCTYPE svg PUBLIC "-//W3C//DTD SVG 1.1//EN"
 "http://www.w3.org/Graphics/SVG/1.1/DTD/svg11.dtd">
<!-- Generated by graphviz version 2.38.0 (20140413.2041)
 -->
<!-- Title: src/Components/Display/Text.cpp Pages: 1 -->
<svg width="323pt" height="319pt"
 viewBox="0.00 0.00 322.50 319.00" xmlns="http://www.w3.org/2000/svg" xmlns:xlink="http://www.w3.org/1999/xlink">
<g id="graph0" class="graph" transform="scale(1 1) rotate(0) translate(4 315)">
<title>src/Components/Display/Text.cpp</title>
<!-- Node1 -->
<g id="node1" class="node"><title>Node1</title>
<polygon fill="#bfbfbf" stroke="black" points="0,-280.5 0,-310.5 133,-310.5 133,-280.5 0,-280.5"/>
<text text-anchor="start" x="8" y="-298.5" font-family="Helvetica,sans-Serif" font-size="10.00">src/Components/Display</text>
<text text-anchor="middle" x="66.5" y="-287.5" font-family="Helvetica,sans-Serif" font-size="10.00">/Text.cpp</text>
</g>
<!-- Node2 -->
<g id="node2" class="node"><title>Node2</title>
<g id="a_node2"><a xlink:href="Color_8hpp.html" target="_top" xlink:title="Color.hpp">
<polygon fill="none" stroke="black" points="5.5,-168.5 5.5,-187.5 67.5,-187.5 67.5,-168.5 5.5,-168.5"/>
<text text-anchor="middle" x="36.5" y="-175.5" font-family="Helvetica,sans-Serif" font-size="10.00">Color.hpp</text>
</a>
</g>
</g>
<!-- Node1&#45;&gt;Node2 -->
<g id="edge1" class="edge"><title>Node1&#45;&gt;Node2</title>
<path fill="none" stroke="midnightblue" d="M62.8214,-280.337C57.4161,-259.527 47.3216,-220.663 41.3268,-197.583"/>
<polygon fill="midnightblue" stroke="midnightblue" points="44.6535,-196.468 38.7518,-187.669 37.8783,-198.228 44.6535,-196.468"/>
</g>
<!-- Node3 -->
<g id="node3" class="node"><title>Node3</title>
<g id="a_node3"><a xlink:href="Text_8hpp.html" target="_top" xlink:title="Text.hpp">
<polygon fill="none" stroke="black" points="67.5,-224.5 67.5,-243.5 123.5,-243.5 123.5,-224.5 67.5,-224.5"/>
<text text-anchor="middle" x="95.5" y="-231.5" font-family="Helvetica,sans-Serif" font-size="10.00">Text.hpp</text>
</a>
</g>
</g>
<!-- Node1&#45;&gt;Node3 -->
<g id="edge2" class="edge"><title>Node1&#45;&gt;Node3</title>
<path fill="none" stroke="midnightblue" d="M73.3726,-280.399C77.4129,-272.11 82.5576,-261.554 86.8694,-252.708"/>
<polygon fill="midnightblue" stroke="midnightblue" points="90.0451,-254.18 91.2802,-243.658 83.7527,-251.113 90.0451,-254.18"/>
</g>
<!-- Node3&#45;&gt;Node2 -->
<g id="edge5" class="edge"><title>Node3&#45;&gt;Node2</title>
<path fill="none" stroke="midnightblue" d="M86.0206,-224.324C77.2989,-216.341 64.1565,-204.313 53.6022,-194.653"/>
<polygon fill="midnightblue" stroke="midnightblue" points="55.8917,-192.004 46.1519,-187.834 51.1655,-197.167 55.8917,-192.004"/>
</g>
<!-- Node4 -->
<g id="node4" class="node"><title>Node4</title>
<polygon fill="none" stroke="#bfbfbf" points="140,-0.5 140,-19.5 203,-19.5 203,-0.5 140,-0.5"/>
<text text-anchor="middle" x="171.5" y="-7.5" font-family="Helvetica,sans-Serif" font-size="10.00">typeindex</text>
</g>
<!-- Node3&#45;&gt;Node4 -->
<g id="edge3" class="edge"><title>Node3&#45;&gt;Node4</title>
<path fill="none" stroke="midnightblue" d="M97.9037,-224.114C101.347,-211.545 107.99,-187.889 114.5,-168 131.057,-117.415 153.174,-58.6576 164.367,-29.4517"/>
<polygon fill="midnightblue" stroke="midnightblue" points="167.762,-30.3737 168.087,-19.7838 161.229,-27.8596 167.762,-30.3737"/>
</g>
<!-- Node5 -->
<g id="node5" class="node"><title>Node5</title>
<polygon fill="none" stroke="#bfbfbf" points="123.5,-168.5 123.5,-187.5 167.5,-187.5 167.5,-168.5 123.5,-168.5"/>
<text text-anchor="middle" x="145.5" y="-175.5" font-family="Helvetica,sans-Serif" font-size="10.00">string</text>
</g>
<!-- Node3&#45;&gt;Node5 -->
<g id="edge4" class="edge"><title>Node3&#45;&gt;Node5</title>
<path fill="none" stroke="midnightblue" d="M103.756,-224.083C110.965,-216.298 121.61,-204.801 130.346,-195.367"/>
<polygon fill="midnightblue" stroke="midnightblue" points="133.171,-197.467 137.397,-187.751 128.035,-192.711 133.171,-197.467"/>
</g>
<!-- Node6 -->
<g id="node6" class="node"><title>Node6</title>
<g id="a_node6"><a xlink:href="IUserInterface_8hpp.html" target="_top" xlink:title="IUserInterface.hpp">
<polygon fill="none" stroke="black" points="185.5,-168.5 185.5,-187.5 289.5,-187.5 289.5,-168.5 185.5,-168.5"/>
<text text-anchor="middle" x="237.5" y="-175.5" font-family="Helvetica,sans-Serif" font-size="10.00">IUserInterface.hpp</text>
</a>
</g>
</g>
<!-- Node3&#45;&gt;Node6 -->
<g id="edge6" class="edge"><title>Node3&#45;&gt;Node6</title>
<path fill="none" stroke="midnightblue" d="M118,-224.444C141.577,-215.478 178.822,-201.314 205.464,-191.183"/>
<polygon fill="midnightblue" stroke="midnightblue" points="207.002,-194.342 215.105,-187.516 204.514,-187.8 207.002,-194.342"/>
</g>
<!-- Node6&#45;&gt;Node4 -->
<g id="edge7" class="edge"><title>Node6&#45;&gt;Node4</title>
<path fill="none" stroke="midnightblue" d="M225.493,-168.454C215.029,-160.32 200.336,-147.103 192.5,-132 175.377,-98.9978 171.837,-54.8114 171.321,-29.9912"/>
<polygon fill="midnightblue" stroke="midnightblue" points="174.82,-29.7566 171.261,-19.7773 167.82,-29.7976 174.82,-29.7566"/>
</g>
<!-- Node7 -->
<g id="node7" class="node"><title>Node7</title>
<g id="a_node7"><a xlink:href="IDisplay_8hpp.html" target="_top" xlink:title="IDisplay.hpp">
<polygon fill="none" stroke="black" points="201,-112.5 201,-131.5 274,-131.5 274,-112.5 201,-112.5"/>
<text text-anchor="middle" x="237.5" y="-119.5" font-family="Helvetica,sans-Serif" font-size="10.00">IDisplay.hpp</text>
</a>
</g>
</g>
<!-- Node6&#45;&gt;Node7 -->
<g id="edge8" class="edge"><title>Node6&#45;&gt;Node7</title>
<path fill="none" stroke="midnightblue" d="M237.5,-168.083C237.5,-161.006 237.5,-150.861 237.5,-141.986"/>
<polygon fill="midnightblue" stroke="midnightblue" points="241,-141.751 237.5,-131.751 234,-141.751 241,-141.751"/>
</g>
<!-- Node7&#45;&gt;Node4 -->
<g id="edge9" class="edge"><title>Node7&#45;&gt;Node4</title>
<path fill="none" stroke="midnightblue" d="M232.061,-112.417C226.367,-103.394 217.2,-88.7636 209.5,-76 199.923,-60.1238 189.292,-41.8858 181.716,-28.7772"/>
<polygon fill="midnightblue" stroke="midnightblue" points="184.612,-26.793 176.586,-19.877 178.548,-30.2887 184.612,-26.793"/>
</g>
<!-- Node8 -->
<g id="node8" class="node"><title>Node8</title>
<g id="a_node8"><a xlink:href="IComponent_8hpp.html" target="_top" xlink:title="IComponent.hpp">
<polygon fill="none" stroke="black" points="218.5,-56.5 218.5,-75.5 314.5,-75.5 314.5,-56.5 218.5,-56.5"/>
<text text-anchor="middle" x="266.5" y="-63.5" font-family="Helvetica,sans-Serif" font-size="10.00">IComponent.hpp</text>
</a>
</g>
</g>
<!-- Node7&#45;&gt;Node8 -->
<g id="edge10" class="edge"><title>Node7&#45;&gt;Node8</title>
<path fill="none" stroke="midnightblue" d="M242.289,-112.083C246.258,-104.691 252.025,-93.9533 256.935,-84.8111"/>
<polygon fill="midnightblue" stroke="midnightblue" points="260.153,-86.217 261.8,-75.7511 253.986,-82.9051 260.153,-86.217"/>
</g>
<!-- Node8&#45;&gt;Node4 -->
<g id="edge11" class="edge"><title>Node8&#45;&gt;Node4</title>
<path fill="none" stroke="midnightblue" d="M251.237,-56.324C236.279,-47.8215 213.245,-34.7288 195.773,-24.7975"/>
<polygon fill="midnightblue" stroke="midnightblue" points="197.149,-21.5534 186.726,-19.6545 193.69,-27.639 197.149,-21.5534"/>
</g>
</g>
</svg>
