<?xml version="1.0" encoding="UTF-8" standalone="no"?>
<!DOCTYPE svg PUBLIC "-//W3C//DTD SVG 1.1//EN"
 "http://www.w3.org/Graphics/SVG/1.1/DTD/svg11.dtd">
<!-- Generated by graphviz version 2.38.0 (20140413.2041)
 -->
<!-- Title: src/ResourceManager/Texture.cpp Pages: 1 -->
<svg width="402pt" height="207pt"
 viewBox="0.00 0.00 402.00 207.00" xmlns="http://www.w3.org/2000/svg" xmlns:xlink="http://www.w3.org/1999/xlink">
<g id="graph0" class="graph" transform="scale(1 1) rotate(0) translate(4 203)">
<title>src/ResourceManager/Texture.cpp</title>
<!-- Node1 -->
<g id="node1" class="node"><title>Node1</title>
<polygon fill="#bfbfbf" stroke="black" points="146.5,-168.5 146.5,-198.5 265.5,-198.5 265.5,-168.5 146.5,-168.5"/>
<text text-anchor="start" x="154.5" y="-186.5" font-family="Helvetica,sans-Serif" font-size="10.00">src/ResourceManager</text>
<text text-anchor="middle" x="206" y="-175.5" font-family="Helvetica,sans-Serif" font-size="10.00">/Texture.cpp</text>
</g>
<!-- Node2 -->
<g id="node2" class="node"><title>Node2</title>
<g id="a_node2"><a xlink:href="Texture_8hpp.html" target="_top" xlink:title="Texture.hpp">
<polygon fill="none" stroke="black" points="116,-112.5 116,-131.5 188,-131.5 188,-112.5 116,-112.5"/>
<text text-anchor="middle" x="152" y="-119.5" font-family="Helvetica,sans-Serif" font-size="10.00">Texture.hpp</text>
</a>
</g>
</g>
<!-- Node1&#45;&gt;Node2 -->
<g id="edge1" class="edge"><title>Node1&#45;&gt;Node2</title>
<path fill="none" stroke="midnightblue" d="M193.203,-168.399C185.275,-159.664 175.064,-148.413 166.79,-139.296"/>
<polygon fill="midnightblue" stroke="midnightblue" points="169.17,-136.711 159.857,-131.658 163.986,-141.415 169.17,-136.711"/>
</g>
<!-- Node5 -->
<g id="node5" class="node"><title>Node5</title>
<g id="a_node5"><a xlink:href="ECSExceptions_8hpp.html" target="_top" xlink:title="ECSExceptions.hpp">
<polygon fill="none" stroke="black" points="206.5,-112.5 206.5,-131.5 315.5,-131.5 315.5,-112.5 206.5,-112.5"/>
<text text-anchor="middle" x="261" y="-119.5" font-family="Helvetica,sans-Serif" font-size="10.00">ECSExceptions.hpp</text>
</a>
</g>
</g>
<!-- Node1&#45;&gt;Node5 -->
<g id="edge4" class="edge"><title>Node1&#45;&gt;Node5</title>
<path fill="none" stroke="midnightblue" d="M219.034,-168.399C227.191,-159.575 237.722,-148.183 246.194,-139.018"/>
<polygon fill="midnightblue" stroke="midnightblue" points="248.779,-141.377 252.997,-131.658 243.639,-136.625 248.779,-141.377"/>
</g>
<!-- Node3 -->
<g id="node3" class="node"><title>Node3</title>
<polygon fill="none" stroke="#bfbfbf" points="0,-56.5 0,-75.5 108,-75.5 108,-56.5 0,-56.5"/>
<text text-anchor="middle" x="54" y="-63.5" font-family="Helvetica,sans-Serif" font-size="10.00">SFML/Graphics.hpp</text>
</g>
<!-- Node2&#45;&gt;Node3 -->
<g id="edge2" class="edge"><title>Node2&#45;&gt;Node3</title>
<path fill="none" stroke="midnightblue" d="M136.255,-112.324C120.681,-103.743 96.6227,-90.486 78.5407,-80.5224"/>
<polygon fill="midnightblue" stroke="midnightblue" points="80.1539,-77.4152 69.7063,-75.6545 76.7756,-83.546 80.1539,-77.4152"/>
</g>
<!-- Node4 -->
<g id="node4" class="node"><title>Node4</title>
<g id="a_node4"><a xlink:href="ITexture_8hpp.html" target="_top" xlink:title="ITexture.hpp">
<polygon fill="none" stroke="black" points="126,-56.5 126,-75.5 200,-75.5 200,-56.5 126,-56.5"/>
<text text-anchor="middle" x="163" y="-63.5" font-family="Helvetica,sans-Serif" font-size="10.00">ITexture.hpp</text>
</a>
</g>
</g>
<!-- Node2&#45;&gt;Node4 -->
<g id="edge3" class="edge"><title>Node2&#45;&gt;Node4</title>
<path fill="none" stroke="midnightblue" d="M153.816,-112.083C155.274,-104.927 157.371,-94.6353 159.193,-85.6911"/>
<polygon fill="midnightblue" stroke="midnightblue" points="162.651,-86.2485 161.217,-75.7511 155.792,-84.8512 162.651,-86.2485"/>
</g>
<!-- Node6 -->
<g id="node6" class="node"><title>Node6</title>
<polygon fill="none" stroke="#bfbfbf" points="271,-0.5 271,-19.5 315,-19.5 315,-0.5 271,-0.5"/>
<text text-anchor="middle" x="293" y="-7.5" font-family="Helvetica,sans-Serif" font-size="10.00">string</text>
</g>
<!-- Node5&#45;&gt;Node6 -->
<g id="edge5" class="edge"><title>Node5&#45;&gt;Node6</title>
<path fill="none" stroke="midnightblue" d="M261.065,-112.375C261.382,-99.7213 262.831,-75.5138 269,-56 272.069,-46.2914 277.224,-36.2244 281.972,-28.0803"/>
<polygon fill="midnightblue" stroke="midnightblue" points="284.965,-29.8944 287.208,-19.5397 278.997,-26.2356 284.965,-29.8944"/>
</g>
<!-- Node7 -->
<g id="node7" class="node"><title>Node7</title>
<g id="a_node7"><a xlink:href="RTypeExceptions_8hpp.html" target="_top" xlink:title="RTypeExceptions.hpp">
<polygon fill="none" stroke="black" points="278,-56.5 278,-75.5 394,-75.5 394,-56.5 278,-56.5"/>
<text text-anchor="middle" x="336" y="-63.5" font-family="Helvetica,sans-Serif" font-size="10.00">RTypeExceptions.hpp</text>
</a>
</g>
</g>
<!-- Node5&#45;&gt;Node7 -->
<g id="edge6" class="edge"><title>Node5&#45;&gt;Node7</title>
<path fill="none" stroke="midnightblue" d="M273.05,-112.324C284.463,-104.107 301.831,-91.6017 315.435,-81.8069"/>
<polygon fill="midnightblue" stroke="midnightblue" points="317.66,-84.5174 323.731,-75.8339 313.57,-78.8366 317.66,-84.5174"/>
</g>
<!-- Node7&#45;&gt;Node6 -->
<g id="edge7" class="edge"><title>Node7&#45;&gt;Node6</title>
<path fill="none" stroke="midnightblue" d="M328.899,-56.083C322.763,-48.3768 313.73,-37.0333 306.261,-27.6531"/>
<polygon fill="midnightblue" stroke="midnightblue" points="308.936,-25.3936 299.968,-19.7511 303.46,-29.7542 308.936,-25.3936"/>
</g>
</g>
</svg>
