<?xml version="1.0" encoding="UTF-8" standalone="no"?>
<!DOCTYPE svg PUBLIC "-//W3C//DTD SVG 1.1//EN"
 "http://www.w3.org/Graphics/SVG/1.1/DTD/svg11.dtd">
<!-- Generated by graphviz version 2.38.0 (20140413.2041)
 -->
<!-- Title: src/Components/Display/Text.hpp Pages: 1 -->
<svg width="286pt" height="263pt"
 viewBox="0.00 0.00 285.73 263.00" xmlns="http://www.w3.org/2000/svg" xmlns:xlink="http://www.w3.org/1999/xlink">
<g id="graph0" class="graph" transform="scale(1 1) rotate(0) translate(4 259)">
<title>src/Components/Display/Text.hpp</title>
<!-- Node1 -->
<g id="node1" class="node"><title>Node1</title>
<polygon fill="#bfbfbf" stroke="black" points="2.22952,-224.5 2.22952,-254.5 135.23,-254.5 135.23,-224.5 2.22952,-224.5"/>
<text text-anchor="start" x="10.2295" y="-242.5" font-family="Helvetica,sans-Serif" font-size="10.00">src/Components/Display</text>
<text text-anchor="middle" x="68.7295" y="-231.5" font-family="Helvetica,sans-Serif" font-size="10.00">/Text.hpp</text>
</g>
<!-- Node2 -->
<g id="node2" class="node"><title>Node2</title>
<polygon fill="none" stroke="#bfbfbf" points="103.23,-0.5 103.23,-19.5 166.23,-19.5 166.23,-0.5 103.23,-0.5"/>
<text text-anchor="middle" x="134.73" y="-7.5" font-family="Helvetica,sans-Serif" font-size="10.00">typeindex</text>
</g>
<!-- Node1&#45;&gt;Node2 -->
<g id="edge1" class="edge"><title>Node1&#45;&gt;Node2</title>
<path fill="none" stroke="midnightblue" d="M39.8188,-224.448C25.8803,-215.99 10.5254,-203.781 2.72952,-188 -1.2074,-180.03 -0.314732,-176.351 2.72952,-168 25.3595,-105.919 84.5327,-51.3506 115.385,-26.0196"/>
<polygon fill="midnightblue" stroke="midnightblue" points="117.683,-28.6629 123.282,-19.6683 113.296,-23.2081 117.683,-28.6629"/>
</g>
<!-- Node3 -->
<g id="node3" class="node"><title>Node3</title>
<polygon fill="none" stroke="#bfbfbf" points="11.7295,-168.5 11.7295,-187.5 55.7295,-187.5 55.7295,-168.5 11.7295,-168.5"/>
<text text-anchor="middle" x="33.7295" y="-175.5" font-family="Helvetica,sans-Serif" font-size="10.00">string</text>
</g>
<!-- Node1&#45;&gt;Node3 -->
<g id="edge2" class="edge"><title>Node1&#45;&gt;Node3</title>
<path fill="none" stroke="midnightblue" d="M60.435,-224.399C55.5064,-216.021 49.2159,-205.327 43.9783,-196.423"/>
<polygon fill="midnightblue" stroke="midnightblue" points="46.9094,-194.503 38.8223,-187.658 40.8758,-198.052 46.9094,-194.503"/>
</g>
<!-- Node4 -->
<g id="node4" class="node"><title>Node4</title>
<g id="a_node4"><a xlink:href="Color_8hpp.html" target="_top" xlink:title="Color.hpp">
<polygon fill="none" stroke="black" points="73.7295,-168.5 73.7295,-187.5 135.73,-187.5 135.73,-168.5 73.7295,-168.5"/>
<text text-anchor="middle" x="104.73" y="-175.5" font-family="Helvetica,sans-Serif" font-size="10.00">Color.hpp</text>
</a>
</g>
</g>
<!-- Node1&#45;&gt;Node4 -->
<g id="edge3" class="edge"><title>Node1&#45;&gt;Node4</title>
<path fill="none" stroke="midnightblue" d="M77.261,-224.399C82.3305,-216.021 88.8006,-205.327 94.1879,-196.423"/>
<polygon fill="midnightblue" stroke="midnightblue" points="97.3091,-198.025 99.4912,-187.658 91.32,-194.402 97.3091,-198.025"/>
</g>
<!-- Node5 -->
<g id="node5" class="node"><title>Node5</title>
<g id="a_node5"><a xlink:href="IUserInterface_8hpp.html" target="_top" xlink:title="IUserInterface.hpp">
<polygon fill="none" stroke="black" points="153.73,-168.5 153.73,-187.5 257.73,-187.5 257.73,-168.5 153.73,-168.5"/>
<text text-anchor="middle" x="205.73" y="-175.5" font-family="Helvetica,sans-Serif" font-size="10.00">IUserInterface.hpp</text>
</a>
</g>
</g>
<!-- Node1&#45;&gt;Node5 -->
<g id="edge4" class="edge"><title>Node1&#45;&gt;Node5</title>
<path fill="none" stroke="midnightblue" d="M101.197,-224.399C124.08,-214.461 154.464,-201.265 176.574,-191.662"/>
<polygon fill="midnightblue" stroke="midnightblue" points="178.017,-194.852 185.795,-187.658 175.228,-188.431 178.017,-194.852"/>
</g>
<!-- Node5&#45;&gt;Node2 -->
<g id="edge5" class="edge"><title>Node5&#45;&gt;Node2</title>
<path fill="none" stroke="midnightblue" d="M193.57,-168.452C182.95,-160.316 167.979,-147.098 159.73,-132 141.794,-99.1741 136.693,-54.9239 135.263,-30.045"/>
<polygon fill="midnightblue" stroke="midnightblue" points="138.75,-29.6453 134.824,-19.8046 131.756,-29.9454 138.75,-29.6453"/>
</g>
<!-- Node6 -->
<g id="node6" class="node"><title>Node6</title>
<g id="a_node6"><a xlink:href="IDisplay_8hpp.html" target="_top" xlink:title="IDisplay.hpp">
<polygon fill="none" stroke="black" points="169.23,-112.5 169.23,-131.5 242.23,-131.5 242.23,-112.5 169.23,-112.5"/>
<text text-anchor="middle" x="205.73" y="-119.5" font-family="Helvetica,sans-Serif" font-size="10.00">IDisplay.hpp</text>
</a>
</g>
</g>
<!-- Node5&#45;&gt;Node6 -->
<g id="edge6" class="edge"><title>Node5&#45;&gt;Node6</title>
<path fill="none" stroke="midnightblue" d="M205.73,-168.083C205.73,-161.006 205.73,-150.861 205.73,-141.986"/>
<polygon fill="midnightblue" stroke="midnightblue" points="209.23,-141.751 205.73,-131.751 202.23,-141.751 209.23,-141.751"/>
</g>
<!-- Node6&#45;&gt;Node2 -->
<g id="edge7" class="edge"><title>Node6&#45;&gt;Node2</title>
<path fill="none" stroke="midnightblue" d="M198.877,-112.229C192,-103.297 181.236,-88.9584 172.73,-76 162.44,-60.3258 151.752,-41.8101 144.341,-28.5579"/>
<polygon fill="midnightblue" stroke="midnightblue" points="147.279,-26.6385 139.374,-19.5841 141.155,-30.0283 147.279,-26.6385"/>
</g>
<!-- Node7 -->
<g id="node7" class="node"><title>Node7</title>
<g id="a_node7"><a xlink:href="IComponent_8hpp.html" target="_top" xlink:title="IComponent.hpp">
<polygon fill="none" stroke="black" points="181.73,-56.5 181.73,-75.5 277.73,-75.5 277.73,-56.5 181.73,-56.5"/>
<text text-anchor="middle" x="229.73" y="-63.5" font-family="Helvetica,sans-Serif" font-size="10.00">IComponent.hpp</text>
</a>
</g>
</g>
<!-- Node6&#45;&gt;Node7 -->
<g id="edge8" class="edge"><title>Node6&#45;&gt;Node7</title>
<path fill="none" stroke="midnightblue" d="M209.693,-112.083C212.943,-104.77 217.649,-94.1814 221.684,-85.1034"/>
<polygon fill="midnightblue" stroke="midnightblue" points="224.977,-86.3107 225.84,-75.7511 218.58,-83.4677 224.977,-86.3107"/>
</g>
<!-- Node7&#45;&gt;Node2 -->
<g id="edge9" class="edge"><title>Node7&#45;&gt;Node2</title>
<path fill="none" stroke="midnightblue" d="M214.466,-56.324C199.508,-47.8215 176.475,-34.7288 159.003,-24.7975"/>
<polygon fill="midnightblue" stroke="midnightblue" points="160.378,-21.5534 149.955,-19.6545 156.919,-27.639 160.378,-21.5534"/>
</g>
</g>
</svg>
