<?xml version="1.0" encoding="UTF-8" standalone="no"?>
<!DOCTYPE svg PUBLIC "-//W3C//DTD SVG 1.1//EN"
 "http://www.w3.org/Graphics/SVG/1.1/DTD/svg11.dtd">
<!-- Generated by graphviz version 2.38.0 (20140413.2041)
 -->
<!-- Title: src/Components/GameLogic/Timer.hpp Pages: 1 -->
<svg width="248pt" height="207pt"
 viewBox="0.00 0.00 248.00 207.00" xmlns="http://www.w3.org/2000/svg" xmlns:xlink="http://www.w3.org/1999/xlink">
<g id="graph0" class="graph" transform="scale(1 1) rotate(0) translate(4 203)">
<title>src/Components/GameLogic/Timer.hpp</title>
<!-- Node1 -->
<g id="node1" class="node"><title>Node1</title>
<polygon fill="#bfbfbf" stroke="black" points="2,-168.5 2,-198.5 154,-198.5 154,-168.5 2,-168.5"/>
<text text-anchor="start" x="10" y="-186.5" font-family="Helvetica,sans-Serif" font-size="10.00">src/Components/GameLogic</text>
<text text-anchor="middle" x="78" y="-175.5" font-family="Helvetica,sans-Serif" font-size="10.00">/Timer.hpp</text>
</g>
<!-- Node2 -->
<g id="node2" class="node"><title>Node2</title>
<polygon fill="none" stroke="#bfbfbf" points="0,-112.5 0,-131.5 50,-131.5 50,-112.5 0,-112.5"/>
<text text-anchor="middle" x="25" y="-119.5" font-family="Helvetica,sans-Serif" font-size="10.00">chrono</text>
</g>
<!-- Node1&#45;&gt;Node2 -->
<g id="edge1" class="edge"><title>Node1&#45;&gt;Node2</title>
<path fill="none" stroke="midnightblue" d="M65.4397,-168.399C57.6588,-159.664 47.6364,-148.413 39.516,-139.296"/>
<polygon fill="midnightblue" stroke="midnightblue" points="41.9769,-136.797 32.712,-131.658 36.7499,-141.453 41.9769,-136.797"/>
</g>
<!-- Node3 -->
<g id="node3" class="node"><title>Node3</title>
<polygon fill="none" stroke="#bfbfbf" points="84.5,-0.5 84.5,-19.5 147.5,-19.5 147.5,-0.5 84.5,-0.5"/>
<text text-anchor="middle" x="116" y="-7.5" font-family="Helvetica,sans-Serif" font-size="10.00">typeindex</text>
</g>
<!-- Node1&#45;&gt;Node3 -->
<g id="edge2" class="edge"><title>Node1&#45;&gt;Node3</title>
<path fill="none" stroke="midnightblue" d="M81.1097,-168.465C87.9257,-137.704 104.184,-64.3288 111.856,-29.7003"/>
<polygon fill="midnightblue" stroke="midnightblue" points="115.357,-30.0801 114.103,-19.5597 108.523,-28.5658 115.357,-30.0801"/>
</g>
<!-- Node4 -->
<g id="node4" class="node"><title>Node4</title>
<g id="a_node4"><a xlink:href="IGameLogic_8hpp.html" target="_top" xlink:title="IGameLogic.hpp">
<polygon fill="none" stroke="black" points="106,-112.5 106,-131.5 200,-131.5 200,-112.5 106,-112.5"/>
<text text-anchor="middle" x="153" y="-119.5" font-family="Helvetica,sans-Serif" font-size="10.00">IGameLogic.hpp</text>
</a>
</g>
</g>
<!-- Node1&#45;&gt;Node4 -->
<g id="edge3" class="edge"><title>Node1&#45;&gt;Node4</title>
<path fill="none" stroke="midnightblue" d="M95.774,-168.399C107.346,-159.218 122.423,-147.258 134.196,-137.918"/>
<polygon fill="midnightblue" stroke="midnightblue" points="136.428,-140.615 142.087,-131.658 132.077,-135.131 136.428,-140.615"/>
</g>
<!-- Node4&#45;&gt;Node3 -->
<g id="edge4" class="edge"><title>Node4&#45;&gt;Node3</title>
<path fill="none" stroke="midnightblue" d="M149.301,-112.466C145.475,-103.483 139.449,-88.8848 135,-76 129.664,-60.5457 124.519,-42.7011 120.932,-29.6234"/>
<polygon fill="midnightblue" stroke="midnightblue" points="124.297,-28.6606 118.315,-19.9164 117.538,-30.4827 124.297,-28.6606"/>
</g>
<!-- Node5 -->
<g id="node5" class="node"><title>Node5</title>
<g id="a_node5"><a xlink:href="IComponent_8hpp.html" target="_top" xlink:title="IComponent.hpp">
<polygon fill="none" stroke="black" points="144,-56.5 144,-75.5 240,-75.5 240,-56.5 144,-56.5"/>
<text text-anchor="middle" x="192" y="-63.5" font-family="Helvetica,sans-Serif" font-size="10.00">IComponent.hpp</text>
</a>
</g>
</g>
<!-- Node4&#45;&gt;Node5 -->
<g id="edge5" class="edge"><title>Node4&#45;&gt;Node5</title>
<path fill="none" stroke="midnightblue" d="M159.44,-112.083C164.949,-104.455 173.031,-93.2645 179.765,-83.9408"/>
<polygon fill="midnightblue" stroke="midnightblue" points="182.662,-85.9071 185.68,-75.7511 176.987,-81.8087 182.662,-85.9071"/>
</g>
<!-- Node5&#45;&gt;Node3 -->
<g id="edge6" class="edge"><title>Node5&#45;&gt;Node3</title>
<path fill="none" stroke="midnightblue" d="M179.789,-56.324C168.224,-48.1066 150.625,-35.6017 136.839,-25.8069"/>
<polygon fill="midnightblue" stroke="midnightblue" points="138.612,-22.7729 128.433,-19.8339 134.557,-28.4791 138.612,-22.7729"/>
</g>
</g>
</svg>
