<?xml version="1.0" encoding="UTF-8" standalone="no"?>
<!DOCTYPE svg PUBLIC "-//W3C//DTD SVG 1.1//EN"
 "http://www.w3.org/Graphics/SVG/1.1/DTD/svg11.dtd">
<!-- Generated by graphviz version 2.38.0 (20140413.2041)
 -->
<!-- Title: src/Components/GameLogic/Timer.hpp Pages: 1 -->
<!--zoomable 262 -->
<svg id="main" version="1.1" xmlns="http://www.w3.org/2000/svg" xmlns:xlink="http://www.w3.org/1999/xlink" xml:space="preserve" onload="init(evt)">
<style type="text/css"><![CDATA[
.edge:hover path { stroke: red; }
.edge:hover polygon { stroke: red; fill: red; }
]]></style>
<script type="text/javascript"><![CDATA[
var edges = document.getElementsByTagName('g');
if (edges && edges.length) {
  for (var i=0;i<edges.length;i++) {
    if (edges[i].id.substr(0,4)=='edge') {
      edges[i].setAttribute('class','edge');
    }
  }
}
]]></script>
        <defs>
                <circle id="rim" cx="0" cy="0" r="7"/>
                <circle id="rim2" cx="0" cy="0" r="3.5"/>
                <g id="zoomPlus">
                        <use xlink:href="#rim" fill="#404040">
                                <set attributeName="fill" to="#808080" begin="zoomplus.mouseover" end="zoomplus.mouseout"/>
                        </use>
                        <path d="M-4,0h8M0,-4v8" fill="none" stroke="white" stroke-width="1.5" pointer-events="none"/>
                </g>
                <g id="zoomMin">
                        <use xlink:href="#rim" fill="#404040">
                                <set attributeName="fill" to="#808080" begin="zoomminus.mouseover" end="zoomminus.mouseout"/>
                        </use>
                        <path d="M-4,0h8" fill="none" stroke="white" stroke-width="1.5" pointer-events="none"/>
                </g>
                <g id="dirArrow">
                        <path fill="none" stroke="white" stroke-width="1.5" d="M0,-3.0v7 M-2.5,-0.5L0,-3.0L2.5,-0.5"/>
                </g>
               <g id="resetDef">
                       <use xlink:href="#rim2" fill="#404040">
                               <set attributeName="fill" to="#808080" begin="reset.mouseover" end="reset.mouseout"/>
                       </use>
               </g>
        </defs>

<script type="text/javascript">
var viewWidth = 4828;
var viewHeight = 262;
var sectionId = 'dynsection-1';
</script>
<script xlink:href="svgpan.js"/>
<svg id="graph" class="graph">
<g id="viewport">
<title>src/Components/GameLogic/Timer.hpp</title>
<!-- Node1 -->
<g id="node1" class="node"><title>Node1</title>
<polygon fill="#bfbfbf" stroke="black" points="3224.58,-223.5 3224.58,-253.5 3376.58,-253.5 3376.58,-223.5 3224.58,-223.5"/>
<text text-anchor="start" x="3232.58" y="-241.5" font-family="Helvetica,sans-Serif" font-size="10.00">src/Components/GameLogic</text>
<text text-anchor="middle" x="3300.58" y="-230.5" font-family="Helvetica,sans-Serif" font-size="10.00">/Timer.hpp</text>
</g>
<!-- Node2 -->
<g id="node2" class="node"><title>Node2</title>
<g id="a_node2"><a xlink:href="Animator_8hpp.html" target="_top" xlink:title="src/Components/Display\l/Animator.hpp">
<polygon fill="none" stroke="black" points="2135.08,-156.5 2135.08,-186.5 2268.08,-186.5 2268.08,-156.5 2135.08,-156.5"/>
<text text-anchor="start" x="2143.08" y="-174.5" font-family="Helvetica,sans-Serif" font-size="10.00">src/Components/Display</text>
<text text-anchor="middle" x="2201.58" y="-163.5" font-family="Helvetica,sans-Serif" font-size="10.00">/Animator.hpp</text>
</a>
</g>
</g>
<!-- Node1&#45;&gt;Node2 -->
<g id="edge1" class="edge"><title>Node1&#45;&gt;Node2</title>
<path fill="none" stroke="midnightblue" d="M3214.01,-232.38C3001.59,-219.816 2458.15,-187.675 2268.27,-176.445"/>
<polygon fill="midnightblue" stroke="midnightblue" points="3213.98,-235.884 3224.17,-232.981 3214.4,-228.897 3213.98,-235.884"/>
</g>
<!-- Node17 -->
<g id="node17" class="node"><title>Node17</title>
<g id="a_node17"><a xlink:href="Parallax_8hpp.html" target="_top" xlink:title="src/Components/Display\l/Parallax.hpp">
<polygon fill="none" stroke="black" points="3638.08,-156.5 3638.08,-186.5 3771.08,-186.5 3771.08,-156.5 3638.08,-156.5"/>
<text text-anchor="start" x="3646.08" y="-174.5" font-family="Helvetica,sans-Serif" font-size="10.00">src/Components/Display</text>
<text text-anchor="middle" x="3704.58" y="-163.5" font-family="Helvetica,sans-Serif" font-size="10.00">/Parallax.hpp</text>
</a>
</g>
</g>
<!-- Node1&#45;&gt;Node17 -->
<g id="edge16" class="edge"><title>Node1&#45;&gt;Node17</title>
<path fill="none" stroke="midnightblue" d="M3386.68,-224.885C3452.47,-215.071 3545.36,-200.838 3626.58,-187 3630.25,-186.375 3634.01,-185.721 3637.8,-185.051"/>
<polygon fill="midnightblue" stroke="midnightblue" points="3386.14,-221.427 3376.77,-226.361 3387.17,-228.35 3386.14,-221.427"/>
</g>
<!-- Node21 -->
<g id="node21" class="node"><title>Node21</title>
<g id="a_node21"><a xlink:href="EnemiesController_8hpp.html" target="_top" xlink:title="src/Components/GameLogic\l/EnemiesController.hpp">
<polygon fill="none" stroke="black" points="1007.58,-156.5 1007.58,-186.5 1159.58,-186.5 1159.58,-156.5 1007.58,-156.5"/>
<text text-anchor="start" x="1015.58" y="-174.5" font-family="Helvetica,sans-Serif" font-size="10.00">src/Components/GameLogic</text>
<text text-anchor="middle" x="1083.58" y="-163.5" font-family="Helvetica,sans-Serif" font-size="10.00">/EnemiesController.hpp</text>
</a>
</g>
</g>
<!-- Node1&#45;&gt;Node21 -->
<g id="edge22" class="edge"><title>Node1&#45;&gt;Node21</title>
<path fill="none" stroke="midnightblue" d="M3214.24,-234.969C2857.02,-224.495 1497.55,-184.637 1159.86,-174.736"/>
<polygon fill="midnightblue" stroke="midnightblue" points="3214.17,-238.468 3224.27,-235.263 3214.37,-231.471 3214.17,-238.468"/>
</g>
<!-- Node27 -->
<g id="node27" class="node"><title>Node27</title>
<g id="a_node27"><a xlink:href="EnemyShoot_8hpp.html" target="_top" xlink:title="src/Components/GameLogic\l/EnemyShoot.hpp">
<polygon fill="none" stroke="black" points="642.58,-156.5 642.58,-186.5 794.58,-186.5 794.58,-156.5 642.58,-156.5"/>
<text text-anchor="start" x="650.58" y="-174.5" font-family="Helvetica,sans-Serif" font-size="10.00">src/Components/GameLogic</text>
<text text-anchor="middle" x="718.58" y="-163.5" font-family="Helvetica,sans-Serif" font-size="10.00">/EnemyShoot.hpp</text>
</a>
</g>
</g>
<!-- Node1&#45;&gt;Node27 -->
<g id="edge32" class="edge"><title>Node1&#45;&gt;Node27</title>
<path fill="none" stroke="midnightblue" d="M3214.5,-236.537C2911.09,-232.943 1863.12,-218.861 998.58,-187 929.507,-184.454 850.912,-180.272 794.611,-177.051"/>
<polygon fill="midnightblue" stroke="midnightblue" points="3214.51,-240.037 3224.55,-236.655 3214.59,-233.037 3214.51,-240.037"/>
</g>
<!-- Node29 -->
<g id="node29" class="node"><title>Node29</title>
<g id="a_node29"><a xlink:href="PlayerController_8hpp.html" target="_top" xlink:title="src/Components/GameLogic\l/PlayerController.hpp">
<polygon fill="none" stroke="black" points="3224.58,-156.5 3224.58,-186.5 3376.58,-186.5 3376.58,-156.5 3224.58,-156.5"/>
<text text-anchor="start" x="3232.58" y="-174.5" font-family="Helvetica,sans-Serif" font-size="10.00">src/Components/GameLogic</text>
<text text-anchor="middle" x="3300.58" y="-163.5" font-family="Helvetica,sans-Serif" font-size="10.00">/PlayerController.hpp</text>
</a>
</g>
</g>
<!-- Node1&#45;&gt;Node29 -->
<g id="edge39" class="edge"><title>Node1&#45;&gt;Node29</title>
<path fill="none" stroke="midnightblue" d="M3300.58,-213.108C3300.58,-204.154 3300.58,-194.323 3300.58,-186.577"/>
<polygon fill="midnightblue" stroke="midnightblue" points="3297.08,-213.396 3300.58,-223.396 3304.08,-213.396 3297.08,-213.396"/>
</g>
<!-- Node34 -->
<g id="node34" class="node"><title>Node34</title>
<g id="a_node34"><a xlink:href="Timer_8cpp.html" target="_top" xlink:title="src/Components/GameLogic\l/Timer.cpp">
<polygon fill="none" stroke="black" points="3789.58,-156.5 3789.58,-186.5 3941.58,-186.5 3941.58,-156.5 3789.58,-156.5"/>
<text text-anchor="start" x="3797.58" y="-174.5" font-family="Helvetica,sans-Serif" font-size="10.00">src/Components/GameLogic</text>
<text text-anchor="middle" x="3865.58" y="-163.5" font-family="Helvetica,sans-Serif" font-size="10.00">/Timer.cpp</text>
</a>
</g>
</g>
<!-- Node1&#45;&gt;Node34 -->
<g id="edge49" class="edge"><title>Node1&#45;&gt;Node34</title>
<path fill="none" stroke="midnightblue" d="M3386.8,-230.108C3483.04,-221.467 3643.29,-205.913 3780.58,-187 3783.4,-186.612 3786.27,-186.201 3789.16,-185.774"/>
<polygon fill="midnightblue" stroke="midnightblue" points="3386.48,-226.623 3376.83,-230.999 3387.1,-233.595 3386.48,-226.623"/>
</g>
<!-- Node35 -->
<g id="node35" class="node"><title>Node35</title>
<g id="a_node35"><a xlink:href="MovementSystem_8hpp.html" target="_top" xlink:title="src/Systems/SystemConstructor\l/MovementSystem/MovementSystem.hpp">
<polygon fill="none" stroke="black" points="3399.08,-156.5 3399.08,-186.5 3618.08,-186.5 3618.08,-156.5 3399.08,-156.5"/>
<text text-anchor="start" x="3407.08" y="-174.5" font-family="Helvetica,sans-Serif" font-size="10.00">src/Systems/SystemConstructor</text>
<text text-anchor="middle" x="3508.58" y="-163.5" font-family="Helvetica,sans-Serif" font-size="10.00">/MovementSystem/MovementSystem.hpp</text>
</a>
</g>
</g>
<!-- Node1&#45;&gt;Node35 -->
<g id="edge50" class="edge"><title>Node1&#45;&gt;Node35</title>
<path fill="none" stroke="midnightblue" d="M3355.16,-220.444C3388.88,-209.908 3431.62,-196.549 3463.43,-186.611"/>
<polygon fill="midnightblue" stroke="midnightblue" points="3353.96,-217.152 3345.46,-223.476 3356.05,-223.834 3353.96,-217.152"/>
</g>
<!-- Node3 -->
<g id="node3" class="node"><title>Node3</title>
<g id="a_node3"><a xlink:href="Animator_8cpp.html" target="_top" xlink:title="src/Components/Display\l/Animator.cpp">
<polygon fill="none" stroke="black" points="1770.08,-84 1770.08,-114 1903.08,-114 1903.08,-84 1770.08,-84"/>
<text text-anchor="start" x="1778.08" y="-102" font-family="Helvetica,sans-Serif" font-size="10.00">src/Components/Display</text>
<text text-anchor="middle" x="1836.58" y="-91" font-family="Helvetica,sans-Serif" font-size="10.00">/Animator.cpp</text>
</a>
</g>
</g>
<!-- Node2&#45;&gt;Node3 -->
<g id="edge2" class="edge"><title>Node2&#45;&gt;Node3</title>
<path fill="none" stroke="midnightblue" d="M2125.09,-159.068C2066.41,-149.842 1983.53,-135.826 1911.58,-120 1903.55,-118.234 1895.09,-116.174 1886.86,-114.061"/>
<polygon fill="midnightblue" stroke="midnightblue" points="2124.61,-162.535 2135.03,-160.621 2125.69,-155.619 2124.61,-162.535"/>
</g>
<!-- Node4 -->
<g id="node4" class="node"><title>Node4</title>
<g id="a_node4"><a xlink:href="BulletEntity_8cpp.html" target="_top" xlink:title="src/Entities/EntityConstructor\l/BulletEntity/BulletEntity.cpp">
<polygon fill="none" stroke="black" points="1921.08,-84 1921.08,-114 2076.08,-114 2076.08,-84 1921.08,-84"/>
<text text-anchor="start" x="1929.08" y="-102" font-family="Helvetica,sans-Serif" font-size="10.00">src/Entities/EntityConstructor</text>
<text text-anchor="middle" x="1998.58" y="-91" font-family="Helvetica,sans-Serif" font-size="10.00">/BulletEntity/BulletEntity.cpp</text>
</a>
</g>
</g>
<!-- Node2&#45;&gt;Node4 -->
<g id="edge3" class="edge"><title>Node2&#45;&gt;Node4</title>
<path fill="none" stroke="midnightblue" d="M2151.53,-153.119C2116.92,-141.097 2071.45,-125.306 2039.1,-114.073"/>
<polygon fill="midnightblue" stroke="midnightblue" points="2150.39,-156.428 2160.99,-156.403 2152.69,-149.816 2150.39,-156.428"/>
</g>
<!-- Node5 -->
<g id="node5" class="node"><title>Node5</title>
<g id="a_node5"><a xlink:href="EnemyBulletEntity_8cpp.html" target="_top" xlink:title="src/Entities/EntityConstructor\l/EnemyBulletEntity/EnemyBulletEntity.cpp">
<polygon fill="none" stroke="black" points="2094.08,-84 2094.08,-114 2309.08,-114 2309.08,-84 2094.08,-84"/>
<text text-anchor="start" x="2102.08" y="-102" font-family="Helvetica,sans-Serif" font-size="10.00">src/Entities/EntityConstructor</text>
<text text-anchor="middle" x="2201.58" y="-91" font-family="Helvetica,sans-Serif" font-size="10.00">/EnemyBulletEntity/EnemyBulletEntity.cpp</text>
</a>
</g>
</g>
<!-- Node2&#45;&gt;Node5 -->
<g id="edge4" class="edge"><title>Node2&#45;&gt;Node5</title>
<path fill="none" stroke="midnightblue" d="M2201.58,-146.232C2201.58,-135.568 2201.58,-123.414 2201.58,-114.246"/>
<polygon fill="midnightblue" stroke="midnightblue" points="2198.08,-146.233 2201.58,-156.233 2205.08,-146.233 2198.08,-146.233"/>
</g>
<!-- Node6 -->
<g id="node6" class="node"><title>Node6</title>
<g id="a_node6"><a xlink:href="EnemyEntity_8cpp.html" target="_top" xlink:title="src/Entities/EntityConstructor\l/EnemyEntity/EnemyEntity.cpp">
<polygon fill="none" stroke="black" points="1113.08,-84 1113.08,-114 1274.08,-114 1274.08,-84 1113.08,-84"/>
<text text-anchor="start" x="1121.08" y="-102" font-family="Helvetica,sans-Serif" font-size="10.00">src/Entities/EntityConstructor</text>
<text text-anchor="middle" x="1193.58" y="-91" font-family="Helvetica,sans-Serif" font-size="10.00">/EnemyEntity/EnemyEntity.cpp</text>
</a>
</g>
</g>
<!-- Node2&#45;&gt;Node6 -->
<g id="edge5" class="edge"><title>Node2&#45;&gt;Node6</title>
<path fill="none" stroke="midnightblue" d="M2124.79,-170.576C1966.49,-169.789 1592.71,-163.062 1282.58,-120 1271.76,-118.497 1260.3,-116.351 1249.34,-114.019"/>
<polygon fill="midnightblue" stroke="midnightblue" points="2124.89,-174.076 2134.9,-170.619 2124.92,-167.076 2124.89,-174.076"/>
</g>
<!-- Node7 -->
<g id="node7" class="node"><title>Node7</title>
<g id="a_node7"><a xlink:href="EnemyType01Entity_8cpp.html" target="_top" xlink:title="src/Entities/EntityConstructor\l/EnemyType01Entity/EnemyType01Entity.cpp">
<polygon fill="none" stroke="black" points="605.08,-84 605.08,-114 832.08,-114 832.08,-84 605.08,-84"/>
<text text-anchor="start" x="613.08" y="-102" font-family="Helvetica,sans-Serif" font-size="10.00">src/Entities/EntityConstructor</text>
<text text-anchor="middle" x="718.58" y="-91" font-family="Helvetica,sans-Serif" font-size="10.00">/EnemyType01Entity/EnemyType01Entity.cpp</text>
</a>
</g>
</g>
<!-- Node2&#45;&gt;Node7 -->
<g id="edge6" class="edge"><title>Node2&#45;&gt;Node7</title>
<path fill="none" stroke="midnightblue" d="M2124.68,-170.979C1917.12,-171.552 1328.28,-168.416 841.58,-120 826.618,-118.512 810.714,-116.357 795.483,-114.008"/>
<polygon fill="midnightblue" stroke="midnightblue" points="2124.88,-174.479 2134.87,-170.947 2124.86,-167.479 2124.88,-174.479"/>
</g>
<!-- Node8 -->
<g id="node8" class="node"><title>Node8</title>
<g id="a_node8"><a xlink:href="EnemyType02Entity_8cpp.html" target="_top" xlink:title="src/Entities/EntityConstructor\l/EnemyType02Entity/EnemyType02Entity.cpp">
<polygon fill="none" stroke="black" points="189.08,-84 189.08,-114 416.08,-114 416.08,-84 189.08,-84"/>
<text text-anchor="start" x="197.08" y="-102" font-family="Helvetica,sans-Serif" font-size="10.00">src/Entities/EntityConstructor</text>
<text text-anchor="middle" x="302.58" y="-91" font-family="Helvetica,sans-Serif" font-size="10.00">/EnemyType02Entity/EnemyType02Entity.cpp</text>
</a>
</g>
</g>
<!-- Node2&#45;&gt;Node8 -->
<g id="edge7" class="edge"><title>Node2&#45;&gt;Node8</title>
<path fill="none" stroke="midnightblue" d="M2124.71,-169.674C1828.76,-166.284 762.816,-152.069 425.58,-120 410.396,-118.556 394.247,-116.391 378.816,-114.011"/>
<polygon fill="midnightblue" stroke="midnightblue" points="2124.87,-173.176 2134.91,-169.79 2124.95,-166.177 2124.87,-173.176"/>
</g>
<!-- Node9 -->
<g id="node9" class="node"><title>Node9</title>
<g id="a_node9"><a xlink:href="EnemyType03Entity_8cpp.html" target="_top" xlink:title="src/Entities/EntityConstructor\l/EnemyType03Entity/EnemyType03Entity.cpp">
<polygon fill="none" stroke="black" points="1292.08,-84 1292.08,-114 1519.08,-114 1519.08,-84 1292.08,-84"/>
<text text-anchor="start" x="1300.08" y="-102" font-family="Helvetica,sans-Serif" font-size="10.00">src/Entities/EntityConstructor</text>
<text text-anchor="middle" x="1405.58" y="-91" font-family="Helvetica,sans-Serif" font-size="10.00">/EnemyType03Entity/EnemyType03Entity.cpp</text>
</a>
</g>
</g>
<!-- Node2&#45;&gt;Node9 -->
<g id="edge8" class="edge"><title>Node2&#45;&gt;Node9</title>
<path fill="none" stroke="midnightblue" d="M2124.76,-166.897C1999.57,-160.541 1743.89,-145.535 1528.58,-120 1514.62,-118.344 1499.81,-116.239 1485.5,-114.021"/>
<polygon fill="midnightblue" stroke="midnightblue" points="2124.84,-170.406 2135.01,-167.413 2125.2,-163.414 2124.84,-170.406"/>
</g>
<!-- Node10 -->
<g id="node10" class="node"><title>Node10</title>
<g id="a_node10"><a xlink:href="GameBackgroundEntity_8cpp.html" target="_top" xlink:title="src/Entities/EntityConstructor\l/GameBackgroundEntity/GameBackground\lEntity.cpp">
<polygon fill="none" stroke="black" points="2327.58,-78.5 2327.58,-119.5 2549.58,-119.5 2549.58,-78.5 2327.58,-78.5"/>
<text text-anchor="start" x="2335.58" y="-107.5" font-family="Helvetica,sans-Serif" font-size="10.00">src/Entities/EntityConstructor</text>
<text text-anchor="start" x="2335.58" y="-96.5" font-family="Helvetica,sans-Serif" font-size="10.00">/GameBackgroundEntity/GameBackground</text>
<text text-anchor="middle" x="2438.58" y="-85.5" font-family="Helvetica,sans-Serif" font-size="10.00">Entity.cpp</text>
</a>
</g>
</g>
<!-- Node2&#45;&gt;Node10 -->
<g id="edge9" class="edge"><title>Node2&#45;&gt;Node10</title>
<path fill="none" stroke="midnightblue" d="M2258.57,-153.547C2292.94,-143.323 2336.86,-130.257 2372.72,-119.592"/>
<polygon fill="midnightblue" stroke="midnightblue" points="2257.27,-150.281 2248.69,-156.487 2259.27,-156.991 2257.27,-150.281"/>
</g>
<!-- Node11 -->
<g id="node11" class="node"><title>Node11</title>
<g id="a_node11"><a xlink:href="PlanetRingEntity_8cpp.html" target="_top" xlink:title="src/Entities/EntityConstructor\l/PlanetRingEntity/PlanetRingEntity.cpp">
<polygon fill="none" stroke="black" points="3606.58,-84 3606.58,-114 3802.58,-114 3802.58,-84 3606.58,-84"/>
<text text-anchor="start" x="3614.58" y="-102" font-family="Helvetica,sans-Serif" font-size="10.00">src/Entities/EntityConstructor</text>
<text text-anchor="middle" x="3704.58" y="-91" font-family="Helvetica,sans-Serif" font-size="10.00">/PlanetRingEntity/PlanetRingEntity.cpp</text>
</a>
</g>
</g>
<!-- Node2&#45;&gt;Node11 -->
<g id="edge10" class="edge"><title>Node2&#45;&gt;Node11</title>
<path fill="none" stroke="midnightblue" d="M2278.34,-169.208C2531.39,-164.717 3337.9,-148.478 3596.58,-120 3609.85,-118.539 3623.94,-116.382 3637.4,-114.018"/>
<polygon fill="midnightblue" stroke="midnightblue" points="2278.07,-165.712 2268.14,-169.388 2278.2,-172.711 2278.07,-165.712"/>
</g>
<!-- Node12 -->
<g id="node12" class="node"><title>Node12</title>
<g id="a_node12"><a xlink:href="PlayerEntity_8cpp.html" target="_top" xlink:title="src/Entities/EntityConstructor\l/PlayerEntity/PlayerEntity.cpp">
<polygon fill="none" stroke="black" points="3221.08,-84 3221.08,-114 3376.08,-114 3376.08,-84 3221.08,-84"/>
<text text-anchor="start" x="3229.08" y="-102" font-family="Helvetica,sans-Serif" font-size="10.00">src/Entities/EntityConstructor</text>
<text text-anchor="middle" x="3298.58" y="-91" font-family="Helvetica,sans-Serif" font-size="10.00">/PlayerEntity/PlayerEntity.cpp</text>
</a>
</g>
</g>
<!-- Node2&#45;&gt;Node12 -->
<g id="edge11" class="edge"><title>Node2&#45;&gt;Node12</title>
<path fill="none" stroke="midnightblue" d="M2278.19,-171.251C2447.44,-171.909 2865.63,-168.031 3211.58,-120 3222.17,-118.529 3233.37,-116.399 3244.09,-114.07"/>
<polygon fill="midnightblue" stroke="midnightblue" points="2278.15,-167.751 2268.13,-171.205 2278.12,-174.75 2278.15,-167.751"/>
</g>
<!-- Node13 -->
<g id="node13" class="node"><title>Node13</title>
<g id="a_node13"><a xlink:href="PlayerTwoEntity_8cpp.html" target="_top" xlink:title="src/Entities/EntityConstructor\l/PlayerTwoEntity/PlayerTwoEntity.cpp">
<polygon fill="none" stroke="black" points="2804.08,-84 2804.08,-114 2991.08,-114 2991.08,-84 2804.08,-84"/>
<text text-anchor="start" x="2812.08" y="-102" font-family="Helvetica,sans-Serif" font-size="10.00">src/Entities/EntityConstructor</text>
<text text-anchor="middle" x="2897.58" y="-91" font-family="Helvetica,sans-Serif" font-size="10.00">/PlayerTwoEntity/PlayerTwoEntity.cpp</text>
</a>
</g>
</g>
<!-- Node2&#45;&gt;Node13 -->
<g id="edge12" class="edge"><title>Node2&#45;&gt;Node13</title>
<path fill="none" stroke="midnightblue" d="M2278.4,-166.586C2391.73,-160.218 2610.24,-145.671 2794.58,-120 2806.4,-118.354 2818.91,-116.241 2830.99,-114.008"/>
<polygon fill="midnightblue" stroke="midnightblue" points="2277.88,-163.109 2268.09,-167.159 2278.27,-170.099 2277.88,-163.109"/>
</g>
<!-- Node14 -->
<g id="node14" class="node"><title>Node14</title>
<g id="a_node14"><a xlink:href="StarsEntity_8cpp.html" target="_top" xlink:title="src/Entities/EntityConstructor\l/StarsEntity/StarsEntity.cpp">
<polygon fill="none" stroke="black" points="3433.08,-84 3433.08,-114 3588.08,-114 3588.08,-84 3433.08,-84"/>
<text text-anchor="start" x="3441.08" y="-102" font-family="Helvetica,sans-Serif" font-size="10.00">src/Entities/EntityConstructor</text>
<text text-anchor="middle" x="3510.58" y="-91" font-family="Helvetica,sans-Serif" font-size="10.00">/StarsEntity/StarsEntity.cpp</text>
</a>
</g>
</g>
<!-- Node2&#45;&gt;Node14 -->
<g id="edge13" class="edge"><title>Node2&#45;&gt;Node14</title>
<path fill="none" stroke="midnightblue" d="M2278.24,-170.269C2466.89,-169.039 2968.58,-161.756 3384.58,-120 3400.23,-118.429 3416.89,-116.192 3432.79,-113.778"/>
<polygon fill="midnightblue" stroke="midnightblue" points="2278.13,-166.769 2268.15,-170.331 2278.17,-173.769 2278.13,-166.769"/>
</g>
<!-- Node15 -->
<g id="node15" class="node"><title>Node15</title>
<g id="a_node15"><a xlink:href="TestBackground_8cpp.html" target="_top" xlink:title="src/Entities/EntityConstructor\l/TestBackground/TestBackground.cpp">
<polygon fill="none" stroke="black" points="3008.58,-84 3008.58,-114 3202.58,-114 3202.58,-84 3008.58,-84"/>
<text text-anchor="start" x="3016.58" y="-102" font-family="Helvetica,sans-Serif" font-size="10.00">src/Entities/EntityConstructor</text>
<text text-anchor="middle" x="3105.58" y="-91" font-family="Helvetica,sans-Serif" font-size="10.00">/TestBackground/TestBackground.cpp</text>
</a>
</g>
</g>
<!-- Node2&#45;&gt;Node15 -->
<g id="edge14" class="edge"><title>Node2&#45;&gt;Node15</title>
<path fill="none" stroke="midnightblue" d="M2278.7,-168.777C2421.47,-164.888 2736.37,-153.031 2999.58,-120 3012.12,-118.426 3025.42,-116.292 3038.2,-114.002"/>
<polygon fill="midnightblue" stroke="midnightblue" points="2278.22,-165.289 2268.31,-169.055 2278.4,-172.287 2278.22,-165.289"/>
</g>
<!-- Node16 -->
<g id="node16" class="node"><title>Node16</title>
<g id="a_node16"><a xlink:href="AnimationSystem_8cpp.html" target="_top" xlink:title="src/Systems/SystemConstructor\l/AnimationSystem/AnimationSystem.cpp">
<polygon fill="none" stroke="black" points="1537.58,-84 1537.58,-114 1751.58,-114 1751.58,-84 1537.58,-84"/>
<text text-anchor="start" x="1545.58" y="-102" font-family="Helvetica,sans-Serif" font-size="10.00">src/Systems/SystemConstructor</text>
<text text-anchor="middle" x="1644.58" y="-91" font-family="Helvetica,sans-Serif" font-size="10.00">/AnimationSystem/AnimationSystem.cpp</text>
</a>
</g>
</g>
<!-- Node2&#45;&gt;Node16 -->
<g id="edge15" class="edge"><title>Node2&#45;&gt;Node16</title>
<path fill="none" stroke="midnightblue" d="M2124.76,-163.037C2036.63,-154.167 1887.89,-138.249 1760.58,-120 1748.14,-118.217 1734.98,-116.136 1722.17,-114.004"/>
<polygon fill="midnightblue" stroke="midnightblue" points="2124.64,-166.542 2134.94,-164.057 2125.33,-159.577 2124.64,-166.542"/>
</g>
<!-- Node17&#45;&gt;Node11 -->
<g id="edge19" class="edge"><title>Node17&#45;&gt;Node11</title>
<path fill="none" stroke="midnightblue" d="M3704.58,-146.232C3704.58,-135.568 3704.58,-123.414 3704.58,-114.246"/>
<polygon fill="midnightblue" stroke="midnightblue" points="3701.08,-146.233 3704.58,-156.233 3708.08,-146.233 3701.08,-146.233"/>
</g>
<!-- Node17&#45;&gt;Node14 -->
<g id="edge20" class="edge"><title>Node17&#45;&gt;Node14</title>
<path fill="none" stroke="midnightblue" d="M3656.33,-152.965C3623.3,-140.962 3580.08,-125.258 3549.31,-114.073"/>
<polygon fill="midnightblue" stroke="midnightblue" points="3655.19,-156.277 3665.79,-156.403 3657.58,-149.698 3655.19,-156.277"/>
</g>
<!-- Node18 -->
<g id="node18" class="node"><title>Node18</title>
<g id="a_node18"><a xlink:href="Parallax_8cpp.html" target="_top" xlink:title="src/Components/Display\l/Parallax.cpp">
<polygon fill="none" stroke="black" points="4305.08,-84 4305.08,-114 4438.08,-114 4438.08,-84 4305.08,-84"/>
<text text-anchor="start" x="4313.08" y="-102" font-family="Helvetica,sans-Serif" font-size="10.00">src/Components/Display</text>
<text text-anchor="middle" x="4371.58" y="-91" font-family="Helvetica,sans-Serif" font-size="10.00">/Parallax.cpp</text>
</a>
</g>
</g>
<!-- Node17&#45;&gt;Node18 -->
<g id="edge17" class="edge"><title>Node17&#45;&gt;Node18</title>
<path fill="none" stroke="midnightblue" d="M3781.44,-156.012C4007.71,-127.484 4069.41,-154.847 4290.58,-120 4300.31,-118.467 4310.59,-116.337 4320.43,-114.036"/>
<polygon fill="midnightblue" stroke="midnightblue" points="3780.71,-152.577 3771.24,-157.322 3781.6,-159.52 3780.71,-152.577"/>
</g>
<!-- Node19 -->
<g id="node19" class="node"><title>Node19</title>
<g id="a_node19"><a xlink:href="PlanetEntity_8cpp.html" target="_top" xlink:title="src/Entities/EntityConstructor\l/PlanetEntity/PlanetEntity.cpp">
<polygon fill="none" stroke="black" points="4456.08,-84 4456.08,-114 4611.08,-114 4611.08,-84 4456.08,-84"/>
<text text-anchor="start" x="4464.08" y="-102" font-family="Helvetica,sans-Serif" font-size="10.00">src/Entities/EntityConstructor</text>
<text text-anchor="middle" x="4533.58" y="-91" font-family="Helvetica,sans-Serif" font-size="10.00">/PlanetEntity/PlanetEntity.cpp</text>
</a>
</g>
</g>
<!-- Node17&#45;&gt;Node19 -->
<g id="edge18" class="edge"><title>Node17&#45;&gt;Node19</title>
<path fill="none" stroke="midnightblue" d="M3781.39,-156.036C4077.07,-121.026 4156.96,-161.313 4447.58,-120 4458.05,-118.511 4469.13,-116.372 4479.72,-114.042"/>
<polygon fill="midnightblue" stroke="midnightblue" points="3780.74,-152.589 3771.23,-157.259 3781.58,-159.539 3780.74,-152.589"/>
</g>
<!-- Node20 -->
<g id="node20" class="node"><title>Node20</title>
<g id="a_node20"><a xlink:href="ParallaxSystem_8cpp.html" target="_top" xlink:title="src/Systems/SystemConstructor\l/ParallaxSystem/ParallaxSystem.cpp">
<polygon fill="none" stroke="black" points="4629.58,-84 4629.58,-114 4819.58,-114 4819.58,-84 4629.58,-84"/>
<text text-anchor="start" x="4637.58" y="-102" font-family="Helvetica,sans-Serif" font-size="10.00">src/Systems/SystemConstructor</text>
<text text-anchor="middle" x="4724.58" y="-91" font-family="Helvetica,sans-Serif" font-size="10.00">/ParallaxSystem/ParallaxSystem.cpp</text>
</a>
</g>
</g>
<!-- Node17&#45;&gt;Node20 -->
<g id="edge21" class="edge"><title>Node17&#45;&gt;Node20</title>
<path fill="none" stroke="midnightblue" d="M3781.19,-156.069C4153.5,-113.751 4252.7,-163.02 4620.58,-120 4633.27,-118.516 4646.74,-116.363 4659.62,-114.015"/>
<polygon fill="midnightblue" stroke="midnightblue" points="3780.76,-152.596 3771.22,-157.216 3781.56,-159.55 3780.76,-152.596"/>
</g>
<!-- Node21&#45;&gt;Node6 -->
<g id="edge24" class="edge"><title>Node21&#45;&gt;Node6</title>
<path fill="none" stroke="midnightblue" d="M1114.13,-150.922C1132.38,-139.224 1155.14,-124.634 1171.62,-114.073"/>
<polygon fill="midnightblue" stroke="midnightblue" points="1112.11,-148.06 1105.58,-156.403 1115.88,-153.953 1112.11,-148.06"/>
</g>
<!-- Node21&#45;&gt;Node7 -->
<g id="edge25" class="edge"><title>Node21&#45;&gt;Node7</title>
<path fill="none" stroke="midnightblue" d="M1001.11,-154.571C938.016,-142.384 851.838,-125.739 791.303,-114.047"/>
<polygon fill="midnightblue" stroke="midnightblue" points="1000.55,-158.027 1011.03,-156.487 1001.88,-151.154 1000.55,-158.027"/>
</g>
<!-- Node21&#45;&gt;Node8 -->
<g id="edge26" class="edge"><title>Node21&#45;&gt;Node8</title>
<path fill="none" stroke="midnightblue" d="M997.033,-166.196C871.004,-159.4 629.734,-144.388 425.58,-120 411.617,-118.332 396.815,-116.222 382.5,-114.001"/>
<polygon fill="midnightblue" stroke="midnightblue" points="997.213,-169.711 1007.39,-166.75 997.587,-162.721 997.213,-169.711"/>
</g>
<!-- Node21&#45;&gt;Node9 -->
<g id="edge27" class="edge"><title>Node21&#45;&gt;Node9</title>
<path fill="none" stroke="midnightblue" d="M1157.37,-154.345C1212.93,-142.179 1288.35,-125.667 1341.42,-114.047"/>
<polygon fill="midnightblue" stroke="midnightblue" points="1156.6,-150.929 1147.58,-156.487 1158.1,-157.767 1156.6,-150.929"/>
</g>
<!-- Node22 -->
<g id="node22" class="node"><title>Node22</title>
<g id="a_node22"><a xlink:href="EnemiesController_8cpp.html" target="_top" xlink:title="src/Components/GameLogic\l/EnemiesController.cpp">
<polygon fill="none" stroke="black" points="434.58,-84 434.58,-114 586.58,-114 586.58,-84 434.58,-84"/>
<text text-anchor="start" x="442.58" y="-102" font-family="Helvetica,sans-Serif" font-size="10.00">src/Components/GameLogic</text>
<text text-anchor="middle" x="510.58" y="-91" font-family="Helvetica,sans-Serif" font-size="10.00">/EnemiesController.cpp</text>
</a>
</g>
</g>
<!-- Node21&#45;&gt;Node22 -->
<g id="edge23" class="edge"><title>Node21&#45;&gt;Node22</title>
<path fill="none" stroke="midnightblue" d="M997.381,-164.93C899.516,-157.831 735.305,-143.568 595.58,-120 585.863,-118.361 575.601,-116.265 565.697,-114.05"/>
<polygon fill="midnightblue" stroke="midnightblue" points="997.293,-168.433 1007.52,-165.657 997.793,-161.451 997.293,-168.433"/>
</g>
<!-- Node23 -->
<g id="node23" class="node"><title>Node23</title>
<g id="a_node23"><a xlink:href="EnemiesMovementSystem_8hpp.html" target="_top" xlink:title="src/Systems/SystemConstructor\l/EnemiesMovementSystem/EnemiesMovement\lSystem.hpp">
<polygon fill="none" stroke="black" points="850.58,-78.5 850.58,-119.5 1094.58,-119.5 1094.58,-78.5 850.58,-78.5"/>
<text text-anchor="start" x="858.58" y="-107.5" font-family="Helvetica,sans-Serif" font-size="10.00">src/Systems/SystemConstructor</text>
<text text-anchor="start" x="858.58" y="-96.5" font-family="Helvetica,sans-Serif" font-size="10.00">/EnemiesMovementSystem/EnemiesMovement</text>
<text text-anchor="middle" x="972.58" y="-85.5" font-family="Helvetica,sans-Serif" font-size="10.00">System.hpp</text>
</a>
</g>
</g>
<!-- Node21&#45;&gt;Node23 -->
<g id="edge28" class="edge"><title>Node21&#45;&gt;Node23</title>
<path fill="none" stroke="midnightblue" d="M1052.77,-150.929C1037.43,-141.186 1018.93,-129.437 1003.57,-119.68"/>
<polygon fill="midnightblue" stroke="midnightblue" points="1051.07,-153.996 1061.38,-156.403 1054.82,-148.087 1051.07,-153.996"/>
</g>
<!-- Node26 -->
<g id="node26" class="node"><title>Node26</title>
<g id="a_node26"><a xlink:href="MovementSystem_8cpp.html" target="_top" xlink:title="src/Systems/SystemConstructor\l/MovementSystem/MovementSystem.cpp">
<polygon fill="none" stroke="black" points="2567.58,-84 2567.58,-114 2785.58,-114 2785.58,-84 2567.58,-84"/>
<text text-anchor="start" x="2575.58" y="-102" font-family="Helvetica,sans-Serif" font-size="10.00">src/Systems/SystemConstructor</text>
<text text-anchor="middle" x="2676.58" y="-91" font-family="Helvetica,sans-Serif" font-size="10.00">/MovementSystem/MovementSystem.cpp</text>
</a>
</g>
</g>
<!-- Node21&#45;&gt;Node26 -->
<g id="edge31" class="edge"><title>Node21&#45;&gt;Node26</title>
<path fill="none" stroke="midnightblue" d="M1170,-169.06C1443.26,-164.268 2286.61,-147.58 2558.58,-120 2573.05,-118.533 2588.43,-116.372 2603.14,-114.008"/>
<polygon fill="midnightblue" stroke="midnightblue" points="1169.68,-165.565 1159.74,-169.239 1169.8,-172.564 1169.68,-165.565"/>
</g>
<!-- Node24 -->
<g id="node24" class="node"><title>Node24</title>
<g id="a_node24"><a xlink:href="GameScene_8cpp.html" target="_top" xlink:title="src/Scenes/GameScene.cpp">
<polygon fill="none" stroke="black" points="3842.58,-11.5 3842.58,-30.5 3994.58,-30.5 3994.58,-11.5 3842.58,-11.5"/>
<text text-anchor="middle" x="3918.58" y="-18.5" font-family="Helvetica,sans-Serif" font-size="10.00">src/Scenes/GameScene.cpp</text>
</a>
</g>
</g>
<!-- Node23&#45;&gt;Node24 -->
<g id="edge29" class="edge"><title>Node23&#45;&gt;Node24</title>
<path fill="none" stroke="midnightblue" d="M1104.91,-77.96C1678.52,-30.3246 3452.34,-23.1723 3842.28,-22.1581"/>
<polygon fill="midnightblue" stroke="midnightblue" points="1104.57,-74.4767 1094.9,-78.8065 1105.16,-81.4519 1104.57,-74.4767"/>
</g>
<!-- Node25 -->
<g id="node25" class="node"><title>Node25</title>
<g id="a_node25"><a xlink:href="EnemiesMovementSystem_8cpp.html" target="_top" xlink:title="src/Systems/SystemConstructor\l/EnemiesMovementSystem/EnemiesMovement\lSystem.cpp">
<polygon fill="none" stroke="black" points="850.58,-0.5 850.58,-41.5 1094.58,-41.5 1094.58,-0.5 850.58,-0.5"/>
<text text-anchor="start" x="858.58" y="-29.5" font-family="Helvetica,sans-Serif" font-size="10.00">src/Systems/SystemConstructor</text>
<text text-anchor="start" x="858.58" y="-18.5" font-family="Helvetica,sans-Serif" font-size="10.00">/EnemiesMovementSystem/EnemiesMovement</text>
<text text-anchor="middle" x="972.58" y="-7.5" font-family="Helvetica,sans-Serif" font-size="10.00">System.cpp</text>
</a>
</g>
</g>
<!-- Node23&#45;&gt;Node25 -->
<g id="edge30" class="edge"><title>Node23&#45;&gt;Node25</title>
<path fill="none" stroke="midnightblue" d="M972.58,-68.2965C972.58,-59.3009 972.58,-49.6532 972.58,-41.5056"/>
<polygon fill="midnightblue" stroke="midnightblue" points="969.08,-68.4281 972.58,-78.4281 976.08,-68.4281 969.08,-68.4281"/>
</g>
<!-- Node27&#45;&gt;Node6 -->
<g id="edge34" class="edge"><title>Node27&#45;&gt;Node6</title>
<path fill="none" stroke="midnightblue" d="M805.148,-161.356C883.397,-152.566 1001.61,-137.982 1103.58,-120 1113.35,-118.277 1123.67,-116.215 1133.7,-114.08"/>
<polygon fill="midnightblue" stroke="midnightblue" points="804.405,-157.917 794.855,-162.505 805.181,-164.874 804.405,-157.917"/>
</g>
<!-- Node27&#45;&gt;Node7 -->
<g id="edge35" class="edge"><title>Node27&#45;&gt;Node7</title>
<path fill="none" stroke="midnightblue" d="M718.58,-146.232C718.58,-135.568 718.58,-123.414 718.58,-114.246"/>
<polygon fill="midnightblue" stroke="midnightblue" points="715.08,-146.233 718.58,-156.233 722.08,-146.233 715.08,-146.233"/>
</g>
<!-- Node27&#45;&gt;Node8 -->
<g id="edge36" class="edge"><title>Node27&#45;&gt;Node8</title>
<path fill="none" stroke="midnightblue" d="M632.266,-155.872C559.824,-143.595 457.01,-126.171 385.53,-114.058"/>
<polygon fill="midnightblue" stroke="midnightblue" points="631.835,-159.349 642.279,-157.569 633.005,-152.447 631.835,-159.349"/>
</g>
<!-- Node27&#45;&gt;Node9 -->
<g id="edge37" class="edge"><title>Node27&#45;&gt;Node9</title>
<path fill="none" stroke="midnightblue" d="M805.064,-164.697C915.929,-156.812 1113.98,-141.227 1282.58,-120 1296.21,-118.284 1310.65,-116.189 1324.65,-114.008"/>
<polygon fill="midnightblue" stroke="midnightblue" points="804.667,-161.216 794.939,-165.412 805.161,-168.198 804.667,-161.216"/>
</g>
<!-- Node27&#45;&gt;Node25 -->
<g id="edge38" class="edge"><title>Node27&#45;&gt;Node25</title>
<path fill="none" stroke="midnightblue" d="M632.051,-170.781C452.199,-170.459 51.1911,-164.68 9.58014,-120 -3.14166,-106.34 -3.23032,-91.5771 9.58014,-78 37.9895,-47.8906 597.127,-30.8829 850.107,-24.702"/>
<polygon fill="midnightblue" stroke="midnightblue" points="632.267,-174.281 642.271,-170.794 632.275,-167.281 632.267,-174.281"/>
</g>
<!-- Node28 -->
<g id="node28" class="node"><title>Node28</title>
<g id="a_node28"><a xlink:href="EnemyShoot_8cpp.html" target="_top" xlink:title="src/Components/GameLogic\l/EnemyShoot.cpp">
<polygon fill="none" stroke="black" points="18.5801,-84 18.5801,-114 170.58,-114 170.58,-84 18.5801,-84"/>
<text text-anchor="start" x="26.5801" y="-102" font-family="Helvetica,sans-Serif" font-size="10.00">src/Components/GameLogic</text>
<text text-anchor="middle" x="94.5801" y="-91" font-family="Helvetica,sans-Serif" font-size="10.00">/EnemyShoot.cpp</text>
</a>
</g>
</g>
<!-- Node27&#45;&gt;Node28 -->
<g id="edge33" class="edge"><title>Node27&#45;&gt;Node28</title>
<path fill="none" stroke="midnightblue" d="M632.201,-166.08C525.362,-159.771 338.171,-145.96 179.58,-120 169.706,-118.384 159.273,-116.271 149.227,-114.026"/>
<polygon fill="midnightblue" stroke="midnightblue" points="632.099,-169.58 642.286,-166.667 632.506,-162.592 632.099,-169.58"/>
</g>
<!-- Node29&#45;&gt;Node12 -->
<g id="edge41" class="edge"><title>Node29&#45;&gt;Node12</title>
<path fill="none" stroke="midnightblue" d="M3299.89,-146.232C3299.59,-135.568 3299.24,-123.414 3298.98,-114.246"/>
<polygon fill="midnightblue" stroke="midnightblue" points="3296.39,-146.337 3300.18,-156.233 3303.39,-146.138 3296.39,-146.337"/>
</g>
<!-- Node29&#45;&gt;Node13 -->
<g id="edge42" class="edge"><title>Node29&#45;&gt;Node13</title>
<path fill="none" stroke="midnightblue" d="M3214.17,-156.648C3153.95,-146.835 3071.78,-133.132 2999.58,-120 2989.28,-118.127 2978.42,-116.076 2967.77,-114.024"/>
<polygon fill="midnightblue" stroke="midnightblue" points="3213.97,-160.16 3224.4,-158.311 3215.09,-153.251 3213.97,-160.16"/>
</g>
<!-- Node29&#45;&gt;Node15 -->
<g id="edge43" class="edge"><title>Node29&#45;&gt;Node15</title>
<path fill="none" stroke="midnightblue" d="M3252.08,-152.965C3218.88,-140.962 3175.44,-125.258 3144.51,-114.073"/>
<polygon fill="midnightblue" stroke="midnightblue" points="3250.99,-156.294 3261.59,-156.403 3253.37,-149.711 3250.99,-156.294"/>
</g>
<!-- Node29&#45;&gt;Node25 -->
<g id="edge44" class="edge"><title>Node29&#45;&gt;Node25</title>
<path fill="none" stroke="midnightblue" d="M3350.04,-151.828C3363.66,-144.137 3376.81,-133.729 3384.58,-120 3393.77,-103.752 3397.63,-91.3516 3384.58,-78 3344.19,-36.6648 1579.97,-24.9768 1094.88,-22.5417"/>
<polygon fill="midnightblue" stroke="midnightblue" points="3348.32,-148.775 3341.07,-156.498 3351.55,-154.984 3348.32,-148.775"/>
</g>
<!-- Node30 -->
<g id="node30" class="node"><title>Node30</title>
<g id="a_node30"><a xlink:href="PlayerController_8cpp.html" target="_top" xlink:title="src/Components/GameLogic\l/PlayerController.cpp">
<polygon fill="none" stroke="black" points="3820.58,-84 3820.58,-114 3972.58,-114 3972.58,-84 3820.58,-84"/>
<text text-anchor="start" x="3828.58" y="-102" font-family="Helvetica,sans-Serif" font-size="10.00">src/Components/GameLogic</text>
<text text-anchor="middle" x="3896.58" y="-91" font-family="Helvetica,sans-Serif" font-size="10.00">/PlayerController.cpp</text>
</a>
</g>
</g>
<!-- Node29&#45;&gt;Node30 -->
<g id="edge40" class="edge"><title>Node29&#45;&gt;Node30</title>
<path fill="none" stroke="midnightblue" d="M3386.81,-156.348C3387.74,-156.23 3388.66,-156.114 3389.58,-156 3576.39,-132.849 3625.69,-149.636 3811.58,-120 3821.46,-118.425 3831.9,-116.332 3841.94,-114.094"/>
<polygon fill="midnightblue" stroke="midnightblue" points="3386.2,-152.9 3376.75,-157.698 3387.13,-159.838 3386.2,-152.9"/>
</g>
<!-- Node31 -->
<g id="node31" class="node"><title>Node31</title>
<g id="a_node31"><a xlink:href="PlayerMovementSystem_8hpp.html" target="_top" xlink:title="src/Systems/SystemConstructor\l/PlayerMovementSystem/PlayerMovement\lSystem.hpp">
<polygon fill="none" stroke="black" points="4028.58,-78.5 4028.58,-119.5 4248.58,-119.5 4248.58,-78.5 4028.58,-78.5"/>
<text text-anchor="start" x="4036.58" y="-107.5" font-family="Helvetica,sans-Serif" font-size="10.00">src/Systems/SystemConstructor</text>
<text text-anchor="start" x="4036.58" y="-96.5" font-family="Helvetica,sans-Serif" font-size="10.00">/PlayerMovementSystem/PlayerMovement</text>
<text text-anchor="middle" x="4138.58" y="-85.5" font-family="Helvetica,sans-Serif" font-size="10.00">System.hpp</text>
</a>
</g>
</g>
<!-- Node29&#45;&gt;Node31 -->
<g id="edge45" class="edge"><title>Node29&#45;&gt;Node31</title>
<path fill="none" stroke="midnightblue" d="M3386.81,-156.316C3387.74,-156.208 3388.66,-156.103 3389.58,-156 3651.55,-126.77 3719.14,-144.668 3981.58,-120 3996.76,-118.573 4012.74,-116.824 4028.46,-114.961"/>
<polygon fill="midnightblue" stroke="midnightblue" points="3386.22,-152.862 3376.73,-157.575 3387.09,-159.808 3386.22,-152.862"/>
</g>
<!-- Node31&#45;&gt;Node24 -->
<g id="edge47" class="edge"><title>Node31&#45;&gt;Node24</title>
<path fill="none" stroke="midnightblue" d="M4072.26,-75.0878C4028.75,-60.0587 3974.36,-41.2706 3943.34,-30.552"/>
<polygon fill="midnightblue" stroke="midnightblue" points="4071.33,-78.471 4081.92,-78.4281 4073.62,-71.8547 4071.33,-78.471"/>
</g>
<!-- Node32 -->
<g id="node32" class="node"><title>Node32</title>
<g id="a_node32"><a xlink:href="Rtype_8cpp.html" target="_top" xlink:title="src/Rtype.cpp">
<polygon fill="none" stroke="black" points="4251.08,-11.5 4251.08,-30.5 4332.08,-30.5 4332.08,-11.5 4251.08,-11.5"/>
<text text-anchor="middle" x="4291.58" y="-18.5" font-family="Helvetica,sans-Serif" font-size="10.00">src/Rtype.cpp</text>
</a>
</g>
</g>
<!-- Node31&#45;&gt;Node32 -->
<g id="edge46" class="edge"><title>Node31&#45;&gt;Node32</title>
<path fill="none" stroke="midnightblue" d="M4187.01,-73.9442C4216.86,-59.1166 4253.33,-41.0003 4274.36,-30.552"/>
<polygon fill="midnightblue" stroke="midnightblue" points="4185.38,-70.8448 4177.98,-78.4281 4188.49,-77.1139 4185.38,-70.8448"/>
</g>
<!-- Node33 -->
<g id="node33" class="node"><title>Node33</title>
<g id="a_node33"><a xlink:href="PlayerMovementSystem_8cpp.html" target="_top" xlink:title="src/Systems/SystemConstructor\l/PlayerMovementSystem/PlayerMovement\lSystem.cpp">
<polygon fill="none" stroke="black" points="4012.58,-0.5 4012.58,-41.5 4232.58,-41.5 4232.58,-0.5 4012.58,-0.5"/>
<text text-anchor="start" x="4020.58" y="-29.5" font-family="Helvetica,sans-Serif" font-size="10.00">src/Systems/SystemConstructor</text>
<text text-anchor="start" x="4020.58" y="-18.5" font-family="Helvetica,sans-Serif" font-size="10.00">/PlayerMovementSystem/PlayerMovement</text>
<text text-anchor="middle" x="4122.58" y="-7.5" font-family="Helvetica,sans-Serif" font-size="10.00">System.cpp</text>
</a>
</g>
</g>
<!-- Node31&#45;&gt;Node33 -->
<g id="edge48" class="edge"><title>Node31&#45;&gt;Node33</title>
<path fill="none" stroke="midnightblue" d="M4132.39,-68.5896C4130.48,-59.5108 4128.42,-49.7417 4126.69,-41.5056"/>
<polygon fill="midnightblue" stroke="midnightblue" points="4128.97,-69.3637 4134.46,-78.4281 4135.82,-67.9215 4128.97,-69.3637"/>
</g>
<!-- Node35&#45;&gt;Node24 -->
<g id="edge52" class="edge"><title>Node35&#45;&gt;Node24</title>
<path fill="none" stroke="midnightblue" d="M3628.26,-156.036C3628.37,-156.024 3628.47,-156.012 3628.58,-156 3667.76,-151.635 3955.15,-149.258 3981.58,-120 3994.09,-106.147 3989.23,-95.0285 3981.58,-78 3971.93,-56.5071 3949.5,-39.899 3934.18,-30.5324"/>
<polygon fill="midnightblue" stroke="midnightblue" points="3627.66,-152.581 3618.11,-157.18 3628.44,-159.537 3627.66,-152.581"/>
</g>
<!-- Node35&#45;&gt;Node26 -->
<g id="edge53" class="edge"><title>Node35&#45;&gt;Node26</title>
<path fill="none" stroke="midnightblue" d="M3388.89,-156.3C3387.78,-156.198 3386.68,-156.098 3385.58,-156 3123.47,-132.586 3056.01,-150.031 2794.58,-120 2780.75,-118.411 2766.08,-116.284 2751.95,-114.009"/>
<polygon fill="midnightblue" stroke="midnightblue" points="3388.68,-159.796 3398.97,-157.26 3389.34,-152.827 3388.68,-159.796"/>
</g>
<!-- Node35&#45;&gt;Node32 -->
<g id="edge51" class="edge"><title>Node35&#45;&gt;Node32</title>
<path fill="none" stroke="midnightblue" d="M3628.26,-156.029C3628.36,-156.019 3628.47,-156.01 3628.58,-156 3698.31,-149.798 4201.73,-162.198 4257.58,-120 4286.46,-98.1799 4290.95,-50.2101 4291.55,-30.6052"/>
<polygon fill="midnightblue" stroke="midnightblue" points="3627.72,-152.563 3618.09,-156.978 3628.38,-159.533 3627.72,-152.563"/>
</g>
</g>
</svg>
        <g id="navigator" transform="translate(0 0)" fill="#404254">
                <rect fill="#f2f5e9" fill-opacity="0.5" stroke="#606060" stroke-width=".5" x="0" y="0" width="60" height="60"/>
                <use id="zoomplus" xlink:href="#zoomPlus" x="17" y="9" onmousedown="handleZoom(evt,'in')"/>
                <use id="zoomminus" xlink:href="#zoomMin" x="42" y="9" onmousedown="handleZoom(evt,'out')"/>
                <use id="reset" xlink:href="#resetDef" x="30" y="36" onmousedown="handleReset()"/>
                <g id="arrowUp" xlink:href="#dirArrow" transform="translate(30 24)" onmousedown="handlePan(0,-1)">
                  <use xlink:href="#rim" fill="#404040">
                        <set attributeName="fill" to="#808080" begin="arrowUp.mouseover" end="arrowUp.mouseout"/>
                  </use>
                  <path fill="none" stroke="white" stroke-width="1.5" d="M0,-3.0v7 M-2.5,-0.5L0,-3.0L2.5,-0.5"/>
                </g>
                <g id="arrowRight" xlink:href="#dirArrow" transform="rotate(90) translate(36 -43)" onmousedown="handlePan(1,0)">
                  <use xlink:href="#rim" fill="#404040">
                        <set attributeName="fill" to="#808080" begin="arrowRight.mouseover" end="arrowRight.mouseout"/>
                  </use>
                  <path fill="none" stroke="white" stroke-width="1.5" d="M0,-3.0v7 M-2.5,-0.5L0,-3.0L2.5,-0.5"/>
                </g>
                <g id="arrowDown" xlink:href="#dirArrow" transform="rotate(180) translate(-30 -48)" onmousedown="handlePan(0,1)">
                  <use xlink:href="#rim" fill="#404040">
                        <set attributeName="fill" to="#808080" begin="arrowDown.mouseover" end="arrowDown.mouseout"/>
                  </use>
                  <path fill="none" stroke="white" stroke-width="1.5" d="M0,-3.0v7 M-2.5,-0.5L0,-3.0L2.5,-0.5"/>
                </g>
                <g id="arrowLeft" xlink:href="#dirArrow" transform="rotate(270) translate(-36 17)" onmousedown="handlePan(-1,0)">
                  <use xlink:href="#rim" fill="#404040">
                        <set attributeName="fill" to="#808080" begin="arrowLeft.mouseover" end="arrowLeft.mouseout"/>
                  </use>
                  <path fill="none" stroke="white" stroke-width="1.5" d="M0,-3.0v7 M-2.5,-0.5L0,-3.0L2.5,-0.5"/>
                </g>
        </g>
        <svg viewBox="0 0 15 15" width="100%" height="30px" preserveAspectRatio="xMaxYMin meet">
         <g id="arrow_out" transform="scale(0.3 0.3)">
          <a xlink:href="Timer_8hpp__dep__incl_org.svg" target="_base">
           <rect id="button" ry="5" rx="5" y="6" x="6" height="38" width="38"
                fill="#f2f5e9" fill-opacity="0.5" stroke="#606060" stroke-width="1.0"/>
           <path id="arrow"
             d="M 11.500037,31.436501 C 11.940474,20.09759 22.043105,11.32322 32.158766,21.979434 L 37.068811,17.246167 C 37.068811,17.246167 37.088388,32 37.088388,32 L 22.160133,31.978069 C 22.160133,31.978069 26.997745,27.140456 26.997745,27.140456 C 18.528582,18.264221 13.291696,25.230495 11.500037,31.436501 z"
             style="fill:#404040;"/>
          </a>
         </g>
        </svg>
</svg>
