<?xml version="1.0" encoding="UTF-8" standalone="no"?>
<!DOCTYPE svg PUBLIC "-//W3C//DTD SVG 1.1//EN"
 "http://www.w3.org/Graphics/SVG/1.1/DTD/svg11.dtd">
<!-- Generated by graphviz version 2.38.0 (20140413.2041)
 -->
<!-- Title: src/Components/GameLogic/Timer.cpp Pages: 1 -->
<svg width="248pt" height="263pt"
 viewBox="0.00 0.00 248.00 263.00" xmlns="http://www.w3.org/2000/svg" xmlns:xlink="http://www.w3.org/1999/xlink">
<g id="graph0" class="graph" transform="scale(1 1) rotate(0) translate(4 259)">
<title>src/Components/GameLogic/Timer.cpp</title>
<!-- Node1 -->
<g id="node1" class="node"><title>Node1</title>
<polygon fill="#bfbfbf" stroke="black" points="2,-224.5 2,-254.5 154,-254.5 154,-224.5 2,-224.5"/>
<text text-anchor="start" x="10" y="-242.5" font-family="Helvetica,sans-Serif" font-size="10.00">src/Components/GameLogic</text>
<text text-anchor="middle" x="78" y="-231.5" font-family="Helvetica,sans-Serif" font-size="10.00">/Timer.cpp</text>
</g>
<!-- Node2 -->
<g id="node2" class="node"><title>Node2</title>
<g id="a_node2"><a xlink:href="Timer_8hpp.html" target="_top" xlink:title="Timer.hpp">
<polygon fill="none" stroke="black" points="46,-168.5 46,-187.5 110,-187.5 110,-168.5 46,-168.5"/>
<text text-anchor="middle" x="78" y="-175.5" font-family="Helvetica,sans-Serif" font-size="10.00">Timer.hpp</text>
</a>
</g>
</g>
<!-- Node1&#45;&gt;Node2 -->
<g id="edge1" class="edge"><title>Node1&#45;&gt;Node2</title>
<path fill="none" stroke="midnightblue" d="M78,-224.399C78,-216.466 78,-206.458 78,-197.858"/>
<polygon fill="midnightblue" stroke="midnightblue" points="81.5001,-197.658 78,-187.658 74.5001,-197.658 81.5001,-197.658"/>
</g>
<!-- Node3 -->
<g id="node3" class="node"><title>Node3</title>
<polygon fill="none" stroke="#bfbfbf" points="0,-112.5 0,-131.5 50,-131.5 50,-112.5 0,-112.5"/>
<text text-anchor="middle" x="25" y="-119.5" font-family="Helvetica,sans-Serif" font-size="10.00">chrono</text>
</g>
<!-- Node2&#45;&gt;Node3 -->
<g id="edge2" class="edge"><title>Node2&#45;&gt;Node3</title>
<path fill="none" stroke="midnightblue" d="M69.2481,-168.083C61.5303,-160.22 50.0953,-148.569 40.7835,-139.081"/>
<polygon fill="midnightblue" stroke="midnightblue" points="43.0916,-136.436 33.589,-131.751 38.0958,-141.34 43.0916,-136.436"/>
</g>
<!-- Node4 -->
<g id="node4" class="node"><title>Node4</title>
<polygon fill="none" stroke="#bfbfbf" points="84.5,-0.5 84.5,-19.5 147.5,-19.5 147.5,-0.5 84.5,-0.5"/>
<text text-anchor="middle" x="116" y="-7.5" font-family="Helvetica,sans-Serif" font-size="10.00">typeindex</text>
</g>
<!-- Node2&#45;&gt;Node4 -->
<g id="edge3" class="edge"><title>Node2&#45;&gt;Node4</title>
<path fill="none" stroke="midnightblue" d="M80.043,-168.075C86.0246,-141.945 103.59,-65.2106 111.747,-29.577"/>
<polygon fill="midnightblue" stroke="midnightblue" points="115.219,-30.097 114.039,-19.5681 108.395,-28.5349 115.219,-30.097"/>
</g>
<!-- Node5 -->
<g id="node5" class="node"><title>Node5</title>
<g id="a_node5"><a xlink:href="IGameLogic_8hpp.html" target="_top" xlink:title="IGameLogic.hpp">
<polygon fill="none" stroke="black" points="106,-112.5 106,-131.5 200,-131.5 200,-112.5 106,-112.5"/>
<text text-anchor="middle" x="153" y="-119.5" font-family="Helvetica,sans-Serif" font-size="10.00">IGameLogic.hpp</text>
</a>
</g>
</g>
<!-- Node2&#45;&gt;Node5 -->
<g id="edge4" class="edge"><title>Node2&#45;&gt;Node5</title>
<path fill="none" stroke="midnightblue" d="M90.05,-168.324C101.463,-160.107 118.831,-147.602 132.435,-137.807"/>
<polygon fill="midnightblue" stroke="midnightblue" points="134.66,-140.517 140.731,-131.834 130.57,-134.837 134.66,-140.517"/>
</g>
<!-- Node5&#45;&gt;Node4 -->
<g id="edge5" class="edge"><title>Node5&#45;&gt;Node4</title>
<path fill="none" stroke="midnightblue" d="M149.301,-112.466C145.475,-103.483 139.449,-88.8848 135,-76 129.664,-60.5457 124.519,-42.7011 120.932,-29.6234"/>
<polygon fill="midnightblue" stroke="midnightblue" points="124.297,-28.6606 118.315,-19.9164 117.538,-30.4827 124.297,-28.6606"/>
</g>
<!-- Node6 -->
<g id="node6" class="node"><title>Node6</title>
<g id="a_node6"><a xlink:href="IComponent_8hpp.html" target="_top" xlink:title="IComponent.hpp">
<polygon fill="none" stroke="black" points="144,-56.5 144,-75.5 240,-75.5 240,-56.5 144,-56.5"/>
<text text-anchor="middle" x="192" y="-63.5" font-family="Helvetica,sans-Serif" font-size="10.00">IComponent.hpp</text>
</a>
</g>
</g>
<!-- Node5&#45;&gt;Node6 -->
<g id="edge6" class="edge"><title>Node5&#45;&gt;Node6</title>
<path fill="none" stroke="midnightblue" d="M159.44,-112.083C164.949,-104.455 173.031,-93.2645 179.765,-83.9408"/>
<polygon fill="midnightblue" stroke="midnightblue" points="182.662,-85.9071 185.68,-75.7511 176.987,-81.8087 182.662,-85.9071"/>
</g>
<!-- Node6&#45;&gt;Node4 -->
<g id="edge7" class="edge"><title>Node6&#45;&gt;Node4</title>
<path fill="none" stroke="midnightblue" d="M179.789,-56.324C168.224,-48.1066 150.625,-35.6017 136.839,-25.8069"/>
<polygon fill="midnightblue" stroke="midnightblue" points="138.612,-22.7729 128.433,-19.8339 134.557,-28.4791 138.612,-22.7729"/>
</g>
</g>
</svg>
