<?xml version="1.0" encoding="UTF-8" standalone="no"?>
<!DOCTYPE svg PUBLIC "-//W3C//DTD SVG 1.1//EN"
 "http://www.w3.org/Graphics/SVG/1.1/DTD/svg11.dtd">
<!-- Generated by graphviz version 2.38.0 (20140413.2041)
 -->
<!-- Title: src/Network/Client/UDPClient.hpp Pages: 1 -->
<svg width="452pt" height="207pt"
 viewBox="0.00 0.00 451.50 207.00" xmlns="http://www.w3.org/2000/svg" xmlns:xlink="http://www.w3.org/1999/xlink">
<g id="graph0" class="graph" transform="scale(1 1) rotate(0) translate(4 203)">
<title>src/Network/Client/UDPClient.hpp</title>
<!-- Node1 -->
<g id="node1" class="node"><title>Node1</title>
<polygon fill="#bfbfbf" stroke="black" points="159,-168.5 159,-198.5 262,-198.5 262,-168.5 159,-168.5"/>
<text text-anchor="start" x="167" y="-186.5" font-family="Helvetica,sans-Serif" font-size="10.00">src/Network/Client</text>
<text text-anchor="middle" x="210.5" y="-175.5" font-family="Helvetica,sans-Serif" font-size="10.00">/UDPClient.hpp</text>
</g>
<!-- Node2 -->
<g id="node2" class="node"><title>Node2</title>
<polygon fill="none" stroke="#bfbfbf" points="77,-56.5 77,-75.5 164,-75.5 164,-56.5 77,-56.5"/>
<text text-anchor="middle" x="120.5" y="-63.5" font-family="Helvetica,sans-Serif" font-size="10.00">boost/asio.hpp</text>
</g>
<!-- Node1&#45;&gt;Node2 -->
<g id="edge1" class="edge"><title>Node1&#45;&gt;Node2</title>
<path fill="none" stroke="midnightblue" d="M195.454,-168.135C185.586,-158.371 172.675,-144.926 162.5,-132 150.463,-116.708 138.602,-97.9125 130.571,-84.473"/>
<polygon fill="midnightblue" stroke="midnightblue" points="133.535,-82.6094 125.452,-75.7603 127.5,-86.1554 133.535,-82.6094"/>
</g>
<!-- Node3 -->
<g id="node3" class="node"><title>Node3</title>
<polygon fill="none" stroke="#bfbfbf" points="306,-112.5 306,-131.5 353,-131.5 353,-112.5 306,-112.5"/>
<text text-anchor="middle" x="329.5" y="-119.5" font-family="Helvetica,sans-Serif" font-size="10.00">vector</text>
</g>
<!-- Node1&#45;&gt;Node3 -->
<g id="edge2" class="edge"><title>Node1&#45;&gt;Node3</title>
<path fill="none" stroke="midnightblue" d="M238.701,-168.399C258.222,-158.639 284.025,-145.737 303.135,-136.183"/>
<polygon fill="midnightblue" stroke="midnightblue" points="304.805,-139.26 312.184,-131.658 301.675,-132.999 304.805,-139.26"/>
</g>
<!-- Node4 -->
<g id="node4" class="node"><title>Node4</title>
<g id="a_node4"><a xlink:href="AUDPNetwork_8hpp.html" target="_top" xlink:title="AUDPNetwork.hpp">
<polygon fill="none" stroke="black" points="11.5,-112.5 11.5,-131.5 115.5,-131.5 115.5,-112.5 11.5,-112.5"/>
<text text-anchor="middle" x="63.5" y="-119.5" font-family="Helvetica,sans-Serif" font-size="10.00">AUDPNetwork.hpp</text>
</a>
</g>
</g>
<!-- Node1&#45;&gt;Node4 -->
<g id="edge3" class="edge"><title>Node1&#45;&gt;Node4</title>
<path fill="none" stroke="midnightblue" d="M175.663,-168.399C150.999,-158.416 118.215,-145.147 94.4652,-135.534"/>
<polygon fill="midnightblue" stroke="midnightblue" points="95.4725,-132.165 84.8898,-131.658 92.8461,-138.654 95.4725,-132.165"/>
</g>
<!-- Node6 -->
<g id="node6" class="node"><title>Node6</title>
<g id="a_node6"><a xlink:href="PacketManager_8hpp.html" target="_top" xlink:title="PacketManager.hpp">
<polygon fill="none" stroke="black" points="257.5,-56.5 257.5,-75.5 367.5,-75.5 367.5,-56.5 257.5,-56.5"/>
<text text-anchor="middle" x="312.5" y="-63.5" font-family="Helvetica,sans-Serif" font-size="10.00">PacketManager.hpp</text>
</a>
</g>
</g>
<!-- Node1&#45;&gt;Node6 -->
<g id="edge13" class="edge"><title>Node1&#45;&gt;Node6</title>
<path fill="none" stroke="midnightblue" d="M224.259,-168.082C233.728,-158.071 246.529,-144.362 257.5,-132 271.989,-115.675 288.061,-96.558 299.07,-83.3006"/>
<polygon fill="midnightblue" stroke="midnightblue" points="301.827,-85.4587 305.506,-75.523 296.434,-80.996 301.827,-85.4587"/>
</g>
<!-- Node10 -->
<g id="node10" class="node"><title>Node10</title>
<g id="a_node10"><a xlink:href="ISession_8hpp.html" target="_top" xlink:title="ISession.hpp">
<polygon fill="none" stroke="black" points="172,-112.5 172,-131.5 249,-131.5 249,-112.5 172,-112.5"/>
<text text-anchor="middle" x="210.5" y="-119.5" font-family="Helvetica,sans-Serif" font-size="10.00">ISession.hpp</text>
</a>
</g>
</g>
<!-- Node1&#45;&gt;Node10 -->
<g id="edge10" class="edge"><title>Node1&#45;&gt;Node10</title>
<path fill="none" stroke="midnightblue" d="M210.5,-168.399C210.5,-160.466 210.5,-150.458 210.5,-141.858"/>
<polygon fill="midnightblue" stroke="midnightblue" points="214,-141.658 210.5,-131.658 207,-141.658 214,-141.658"/>
</g>
<!-- Node4&#45;&gt;Node2 -->
<g id="edge4" class="edge"><title>Node4&#45;&gt;Node2</title>
<path fill="none" stroke="midnightblue" d="M72.658,-112.324C81.0015,-104.42 93.5324,-92.5482 103.677,-82.9377"/>
<polygon fill="midnightblue" stroke="midnightblue" points="106.323,-85.2522 111.175,-75.8339 101.509,-80.1705 106.323,-85.2522"/>
</g>
<!-- Node5 -->
<g id="node5" class="node"><title>Node5</title>
<polygon fill="none" stroke="#bfbfbf" points="0,-56.5 0,-75.5 59,-75.5 59,-56.5 0,-56.5"/>
<text text-anchor="middle" x="29.5" y="-63.5" font-family="Helvetica,sans-Serif" font-size="10.00">iostream</text>
</g>
<!-- Node4&#45;&gt;Node5 -->
<g id="edge5" class="edge"><title>Node4&#45;&gt;Node5</title>
<path fill="none" stroke="midnightblue" d="M57.8856,-112.083C53.1326,-104.534 46.1819,-93.4948 40.3484,-84.2298"/>
<polygon fill="midnightblue" stroke="midnightblue" points="43.2999,-82.3486 35.0099,-75.7511 37.3763,-86.0783 43.2999,-82.3486"/>
</g>
<!-- Node4&#45;&gt;Node6 -->
<g id="edge6" class="edge"><title>Node4&#45;&gt;Node6</title>
<path fill="none" stroke="midnightblue" d="M102.955,-112.444C146.392,-103.023 216.286,-87.8656 263.276,-77.6752"/>
<polygon fill="midnightblue" stroke="midnightblue" points="264.199,-81.0564 273.23,-75.5164 262.715,-74.2154 264.199,-81.0564"/>
</g>
<!-- Node7 -->
<g id="node7" class="node"><title>Node7</title>
<polygon fill="none" stroke="#bfbfbf" points="235.5,-0.5 235.5,-19.5 279.5,-19.5 279.5,-0.5 235.5,-0.5"/>
<text text-anchor="middle" x="257.5" y="-7.5" font-family="Helvetica,sans-Serif" font-size="10.00">string</text>
</g>
<!-- Node6&#45;&gt;Node7 -->
<g id="edge7" class="edge"><title>Node6&#45;&gt;Node7</title>
<path fill="none" stroke="midnightblue" d="M303.418,-56.083C295.329,-48.1409 283.305,-36.3354 273.59,-26.7973"/>
<polygon fill="midnightblue" stroke="midnightblue" points="276.001,-24.2595 266.413,-19.7511 271.097,-29.2545 276.001,-24.2595"/>
</g>
<!-- Node8 -->
<g id="node8" class="node"><title>Node8</title>
<polygon fill="none" stroke="#bfbfbf" points="297.5,-0.5 297.5,-19.5 327.5,-19.5 327.5,-0.5 297.5,-0.5"/>
<text text-anchor="middle" x="312.5" y="-7.5" font-family="Helvetica,sans-Serif" font-size="10.00">list</text>
</g>
<!-- Node6&#45;&gt;Node8 -->
<g id="edge8" class="edge"><title>Node6&#45;&gt;Node8</title>
<path fill="none" stroke="midnightblue" d="M312.5,-56.083C312.5,-49.0059 312.5,-38.8611 312.5,-29.9865"/>
<polygon fill="midnightblue" stroke="midnightblue" points="316,-29.751 312.5,-19.7511 309,-29.7511 316,-29.751"/>
</g>
<!-- Node9 -->
<g id="node9" class="node"><title>Node9</title>
<g id="a_node9"><a xlink:href="Input_8hpp.html" target="_top" xlink:title="Render/Input.hpp">
<polygon fill="none" stroke="black" points="345.5,-0.5 345.5,-19.5 443.5,-19.5 443.5,-0.5 345.5,-0.5"/>
<text text-anchor="middle" x="394.5" y="-7.5" font-family="Helvetica,sans-Serif" font-size="10.00">Render/Input.hpp</text>
</a>
</g>
</g>
<!-- Node6&#45;&gt;Node9 -->
<g id="edge9" class="edge"><title>Node6&#45;&gt;Node9</title>
<path fill="none" stroke="midnightblue" d="M325.675,-56.324C338.347,-47.979 357.733,-35.2122 372.706,-25.3524"/>
<polygon fill="midnightblue" stroke="midnightblue" points="374.931,-28.0776 381.358,-19.6545 371.081,-22.2313 374.931,-28.0776"/>
</g>
<!-- Node10&#45;&gt;Node2 -->
<g id="edge12" class="edge"><title>Node10&#45;&gt;Node2</title>
<path fill="none" stroke="midnightblue" d="M196.04,-112.324C182,-103.9 160.452,-90.9709 143.957,-81.0741"/>
<polygon fill="midnightblue" stroke="midnightblue" points="145.3,-77.7983 134.924,-75.6545 141.698,-83.8007 145.3,-77.7983"/>
</g>
<!-- Node11 -->
<g id="node11" class="node"><title>Node11</title>
<polygon fill="none" stroke="#bfbfbf" points="182,-56.5 182,-75.5 239,-75.5 239,-56.5 182,-56.5"/>
<text text-anchor="middle" x="210.5" y="-63.5" font-family="Helvetica,sans-Serif" font-size="10.00">memory</text>
</g>
<!-- Node10&#45;&gt;Node11 -->
<g id="edge11" class="edge"><title>Node10&#45;&gt;Node11</title>
<path fill="none" stroke="midnightblue" d="M210.5,-112.083C210.5,-105.006 210.5,-94.8611 210.5,-85.9865"/>
<polygon fill="midnightblue" stroke="midnightblue" points="214,-85.751 210.5,-75.7511 207,-85.7511 214,-85.751"/>
</g>
</g>
</svg>
