<?xml version="1.0" encoding="UTF-8" standalone="no"?>
<!DOCTYPE svg PUBLIC "-//W3C//DTD SVG 1.1//EN"
 "http://www.w3.org/Graphics/SVG/1.1/DTD/svg11.dtd">
<!-- Generated by graphviz version 2.38.0 (20140413.2041)
 -->
<!-- Title: src/Network/Client/UDPClient.cpp Pages: 1 -->
<!--zoomable 263 -->
<svg id="main" version="1.1" xmlns="http://www.w3.org/2000/svg" xmlns:xlink="http://www.w3.org/1999/xlink" xml:space="preserve" onload="init(evt)">
<style type="text/css"><![CDATA[
.edge:hover path { stroke: red; }
.edge:hover polygon { stroke: red; fill: red; }
]]></style>
<script type="text/javascript"><![CDATA[
var edges = document.getElementsByTagName('g');
if (edges && edges.length) {
  for (var i=0;i<edges.length;i++) {
    if (edges[i].id.substr(0,4)=='edge') {
      edges[i].setAttribute('class','edge');
    }
  }
}
]]></script>
        <defs>
                <circle id="rim" cx="0" cy="0" r="7"/>
                <circle id="rim2" cx="0" cy="0" r="3.5"/>
                <g id="zoomPlus">
                        <use xlink:href="#rim" fill="#404040">
                                <set attributeName="fill" to="#808080" begin="zoomplus.mouseover" end="zoomplus.mouseout"/>
                        </use>
                        <path d="M-4,0h8M0,-4v8" fill="none" stroke="white" stroke-width="1.5" pointer-events="none"/>
                </g>
                <g id="zoomMin">
                        <use xlink:href="#rim" fill="#404040">
                                <set attributeName="fill" to="#808080" begin="zoomminus.mouseover" end="zoomminus.mouseout"/>
                        </use>
                        <path d="M-4,0h8" fill="none" stroke="white" stroke-width="1.5" pointer-events="none"/>
                </g>
                <g id="dirArrow">
                        <path fill="none" stroke="white" stroke-width="1.5" d="M0,-3.0v7 M-2.5,-0.5L0,-3.0L2.5,-0.5"/>
                </g>
               <g id="resetDef">
                       <use xlink:href="#rim2" fill="#404040">
                               <set attributeName="fill" to="#808080" begin="reset.mouseover" end="reset.mouseout"/>
                       </use>
               </g>
        </defs>

<script type="text/javascript">
var viewWidth = 548;
var viewHeight = 263;
var sectionId = 'dynsection-0';
</script>
<script xlink:href="svgpan.js"/>
<svg id="graph" class="graph">
<g id="viewport">
<title>src/Network/Client/UDPClient.cpp</title>
<!-- Node1 -->
<g id="node1" class="node"><title>Node1</title>
<polygon fill="#bfbfbf" stroke="black" points="188,-224.5 188,-254.5 291,-254.5 291,-224.5 188,-224.5"/>
<text text-anchor="start" x="196" y="-242.5" font-family="Helvetica,sans-Serif" font-size="10.00">src/Network/Client</text>
<text text-anchor="middle" x="239.5" y="-231.5" font-family="Helvetica,sans-Serif" font-size="10.00">/UDPClient.cpp</text>
</g>
<!-- Node2 -->
<g id="node2" class="node"><title>Node2</title>
<polygon fill="none" stroke="#bfbfbf" points="0,-56.5 0,-75.5 57,-75.5 57,-56.5 0,-56.5"/>
<text text-anchor="middle" x="28.5" y="-63.5" font-family="Helvetica,sans-Serif" font-size="10.00">memory</text>
</g>
<!-- Node1&#45;&gt;Node2 -->
<g id="edge1" class="edge"><title>Node1&#45;&gt;Node2</title>
<path fill="none" stroke="midnightblue" d="M187.989,-231.147C150.851,-224.173 100.592,-211.191 61.5,-188 31.4968,-170.201 19.7047,-164.29 6.5,-132 -0.03173,-116.028 7.87054,-97.3216 15.9644,-84.0881"/>
<polygon fill="midnightblue" stroke="midnightblue" points="19.0344,-85.7938 21.6882,-75.5367 13.2172,-81.9001 19.0344,-85.7938"/>
</g>
<!-- Node3 -->
<g id="node3" class="node"><title>Node3</title>
<polygon fill="none" stroke="#bfbfbf" points="371,-56.5 371,-75.5 430,-75.5 430,-56.5 371,-56.5"/>
<text text-anchor="middle" x="400.5" y="-63.5" font-family="Helvetica,sans-Serif" font-size="10.00">iostream</text>
</g>
<!-- Node1&#45;&gt;Node3 -->
<g id="edge2" class="edge"><title>Node1&#45;&gt;Node3</title>
<path fill="none" stroke="midnightblue" d="M281.947,-224.352C321.433,-208.659 377.905,-179.139 403.5,-132 411.241,-117.743 409.353,-99.0265 406.203,-85.3406"/>
<polygon fill="midnightblue" stroke="midnightblue" points="409.563,-84.3587 403.566,-75.6245 402.808,-86.1921 409.563,-84.3587"/>
</g>
<!-- Node4 -->
<g id="node4" class="node"><title>Node4</title>
<polygon fill="none" stroke="#bfbfbf" points="451.5,-168.5 451.5,-187.5 539.5,-187.5 539.5,-168.5 451.5,-168.5"/>
<text text-anchor="middle" x="495.5" y="-175.5" font-family="Helvetica,sans-Serif" font-size="10.00">boost/bind.hpp</text>
</g>
<!-- Node1&#45;&gt;Node4 -->
<g id="edge3" class="edge"><title>Node1&#45;&gt;Node4</title>
<path fill="none" stroke="midnightblue" d="M291.305,-226.459C337.39,-215.748 404.193,-200.222 448.695,-189.878"/>
<polygon fill="midnightblue" stroke="midnightblue" points="449.72,-193.234 458.668,-187.561 448.135,-186.415 449.72,-193.234"/>
</g>
<!-- Node5 -->
<g id="node5" class="node"><title>Node5</title>
<g id="a_node5"><a xlink:href="ClientSession_8hpp.html" target="_top" xlink:title="ClientSession.hpp">
<polygon fill="none" stroke="black" points="70.5,-168.5 70.5,-187.5 172.5,-187.5 172.5,-168.5 70.5,-168.5"/>
<text text-anchor="middle" x="121.5" y="-175.5" font-family="Helvetica,sans-Serif" font-size="10.00">ClientSession.hpp</text>
</a>
</g>
</g>
<!-- Node1&#45;&gt;Node5 -->
<g id="edge4" class="edge"><title>Node1&#45;&gt;Node5</title>
<path fill="none" stroke="midnightblue" d="M211.536,-224.399C192.179,-214.639 166.592,-201.737 147.644,-192.183"/>
<polygon fill="midnightblue" stroke="midnightblue" points="149.175,-189.035 138.67,-187.658 146.023,-195.285 149.175,-189.035"/>
</g>
<!-- Node12 -->
<g id="node12" class="node"><title>Node12</title>
<g id="a_node12"><a xlink:href="UDPClient_8hpp.html" target="_top" xlink:title="UDPClient.hpp">
<polygon fill="none" stroke="black" points="196.5,-168.5 196.5,-187.5 282.5,-187.5 282.5,-168.5 196.5,-168.5"/>
<text text-anchor="middle" x="239.5" y="-175.5" font-family="Helvetica,sans-Serif" font-size="10.00">UDPClient.hpp</text>
</a>
</g>
</g>
<!-- Node1&#45;&gt;Node12 -->
<g id="edge12" class="edge"><title>Node1&#45;&gt;Node12</title>
<path fill="none" stroke="midnightblue" d="M239.5,-224.399C239.5,-216.466 239.5,-206.458 239.5,-197.858"/>
<polygon fill="midnightblue" stroke="midnightblue" points="243,-197.658 239.5,-187.658 236,-197.658 243,-197.658"/>
</g>
<!-- Node6 -->
<g id="node6" class="node"><title>Node6</title>
<g id="a_node6"><a xlink:href="ISession_8hpp.html" target="_top" xlink:title="ISession.hpp">
<polygon fill="none" stroke="black" points="16,-112.5 16,-131.5 93,-131.5 93,-112.5 16,-112.5"/>
<text text-anchor="middle" x="54.5" y="-119.5" font-family="Helvetica,sans-Serif" font-size="10.00">ISession.hpp</text>
</a>
</g>
</g>
<!-- Node5&#45;&gt;Node6 -->
<g id="edge5" class="edge"><title>Node5&#45;&gt;Node6</title>
<path fill="none" stroke="midnightblue" d="M110.735,-168.324C100.734,-160.263 85.6135,-148.077 73.5695,-138.369"/>
<polygon fill="midnightblue" stroke="midnightblue" points="75.4429,-135.384 65.4606,-131.834 71.0502,-140.834 75.4429,-135.384"/>
</g>
<!-- Node8 -->
<g id="node8" class="node"><title>Node8</title>
<g id="a_node8"><a xlink:href="PacketManager_8hpp.html" target="_top" xlink:title="PacketManager.hpp">
<polygon fill="none" stroke="black" points="202.5,-56.5 202.5,-75.5 312.5,-75.5 312.5,-56.5 202.5,-56.5"/>
<text text-anchor="middle" x="257.5" y="-63.5" font-family="Helvetica,sans-Serif" font-size="10.00">PacketManager.hpp</text>
</a>
</g>
</g>
<!-- Node5&#45;&gt;Node8 -->
<g id="edge8" class="edge"><title>Node5&#45;&gt;Node8</title>
<path fill="none" stroke="midnightblue" d="M127.729,-168.175C137.454,-154.836 157.334,-129.268 178.5,-112 193.996,-99.3574 213.505,-88.2061 229.259,-80.1669"/>
<polygon fill="midnightblue" stroke="midnightblue" points="231.109,-83.1563 238.513,-75.578 227.999,-76.885 231.109,-83.1563"/>
</g>
<!-- Node6&#45;&gt;Node2 -->
<g id="edge6" class="edge"><title>Node6&#45;&gt;Node2</title>
<path fill="none" stroke="midnightblue" d="M50.2066,-112.083C46.6477,-104.691 41.4775,-93.9533 37.0757,-84.8111"/>
<polygon fill="midnightblue" stroke="midnightblue" points="40.2052,-83.2427 32.7135,-75.7511 33.8982,-86.2795 40.2052,-83.2427"/>
</g>
<!-- Node7 -->
<g id="node7" class="node"><title>Node7</title>
<polygon fill="none" stroke="#bfbfbf" points="97,-56.5 97,-75.5 184,-75.5 184,-56.5 97,-56.5"/>
<text text-anchor="middle" x="140.5" y="-63.5" font-family="Helvetica,sans-Serif" font-size="10.00">boost/asio.hpp</text>
</g>
<!-- Node6&#45;&gt;Node7 -->
<g id="edge7" class="edge"><title>Node6&#45;&gt;Node7</title>
<path fill="none" stroke="midnightblue" d="M68.3174,-112.324C81.733,-103.9 102.324,-90.9709 118.086,-81.0741"/>
<polygon fill="midnightblue" stroke="midnightblue" points="120.109,-83.9364 126.717,-75.6545 116.387,-78.0081 120.109,-83.9364"/>
</g>
<!-- Node9 -->
<g id="node9" class="node"><title>Node9</title>
<polygon fill="none" stroke="#bfbfbf" points="180.5,-0.5 180.5,-19.5 224.5,-19.5 224.5,-0.5 180.5,-0.5"/>
<text text-anchor="middle" x="202.5" y="-7.5" font-family="Helvetica,sans-Serif" font-size="10.00">string</text>
</g>
<!-- Node8&#45;&gt;Node9 -->
<g id="edge9" class="edge"><title>Node8&#45;&gt;Node9</title>
<path fill="none" stroke="midnightblue" d="M248.418,-56.083C240.329,-48.1409 228.305,-36.3354 218.59,-26.7973"/>
<polygon fill="midnightblue" stroke="midnightblue" points="221.001,-24.2595 211.413,-19.7511 216.097,-29.2545 221.001,-24.2595"/>
</g>
<!-- Node10 -->
<g id="node10" class="node"><title>Node10</title>
<polygon fill="none" stroke="#bfbfbf" points="242.5,-0.5 242.5,-19.5 272.5,-19.5 272.5,-0.5 242.5,-0.5"/>
<text text-anchor="middle" x="257.5" y="-7.5" font-family="Helvetica,sans-Serif" font-size="10.00">list</text>
</g>
<!-- Node8&#45;&gt;Node10 -->
<g id="edge10" class="edge"><title>Node8&#45;&gt;Node10</title>
<path fill="none" stroke="midnightblue" d="M257.5,-56.083C257.5,-49.0059 257.5,-38.8611 257.5,-29.9865"/>
<polygon fill="midnightblue" stroke="midnightblue" points="261,-29.751 257.5,-19.7511 254,-29.7511 261,-29.751"/>
</g>
<!-- Node11 -->
<g id="node11" class="node"><title>Node11</title>
<g id="a_node11"><a xlink:href="Input_8hpp.html" target="_top" xlink:title="Render/Input.hpp">
<polygon fill="none" stroke="black" points="290.5,-0.5 290.5,-19.5 388.5,-19.5 388.5,-0.5 290.5,-0.5"/>
<text text-anchor="middle" x="339.5" y="-7.5" font-family="Helvetica,sans-Serif" font-size="10.00">Render/Input.hpp</text>
</a>
</g>
</g>
<!-- Node8&#45;&gt;Node11 -->
<g id="edge11" class="edge"><title>Node8&#45;&gt;Node11</title>
<path fill="none" stroke="midnightblue" d="M270.675,-56.324C283.347,-47.979 302.733,-35.2122 317.706,-25.3524"/>
<polygon fill="midnightblue" stroke="midnightblue" points="319.931,-28.0776 326.358,-19.6545 316.081,-22.2313 319.931,-28.0776"/>
</g>
<!-- Node12&#45;&gt;Node6 -->
<g id="edge19" class="edge"><title>Node12&#45;&gt;Node6</title>
<path fill="none" stroke="midnightblue" d="M210.186,-168.444C178.658,-159.241 128.369,-144.562 93.5143,-134.388"/>
<polygon fill="midnightblue" stroke="midnightblue" points="94.2568,-130.959 83.6767,-131.516 92.2954,-137.678 94.2568,-130.959"/>
</g>
<!-- Node12&#45;&gt;Node7 -->
<g id="edge13" class="edge"><title>Node12&#45;&gt;Node7</title>
<path fill="none" stroke="midnightblue" d="M224.617,-168.44C211.37,-160.296 192.047,-147.073 178.5,-132 165.828,-117.9 155.317,-98.9139 148.587,-85.1036"/>
<polygon fill="midnightblue" stroke="midnightblue" points="151.606,-83.2977 144.204,-75.7183 145.264,-86.2599 151.606,-83.2977"/>
</g>
<!-- Node12&#45;&gt;Node8 -->
<g id="edge20" class="edge"><title>Node12&#45;&gt;Node8</title>
<path fill="none" stroke="midnightblue" d="M259.406,-168.41C273.725,-161.04 291.958,-148.916 300.5,-132 309.608,-113.962 293.456,-94.8488 278.415,-82.0535"/>
<polygon fill="midnightblue" stroke="midnightblue" points="280.349,-79.1199 270.341,-75.642 275.996,-84.6017 280.349,-79.1199"/>
</g>
<!-- Node13 -->
<g id="node13" class="node"><title>Node13</title>
<polygon fill="none" stroke="#bfbfbf" points="348,-112.5 348,-131.5 395,-131.5 395,-112.5 348,-112.5"/>
<text text-anchor="middle" x="371.5" y="-119.5" font-family="Helvetica,sans-Serif" font-size="10.00">vector</text>
</g>
<!-- Node12&#45;&gt;Node13 -->
<g id="edge14" class="edge"><title>Node12&#45;&gt;Node13</title>
<path fill="none" stroke="midnightblue" d="M260.416,-168.444C282.236,-159.517 316.65,-145.439 341.392,-135.317"/>
<polygon fill="midnightblue" stroke="midnightblue" points="342.752,-138.542 350.682,-131.516 340.101,-132.063 342.752,-138.542"/>
</g>
<!-- Node14 -->
<g id="node14" class="node"><title>Node14</title>
<g id="a_node14"><a xlink:href="AUDPNetwork_8hpp.html" target="_top" xlink:title="AUDPNetwork.hpp">
<polygon fill="none" stroke="black" points="187.5,-112.5 187.5,-131.5 291.5,-131.5 291.5,-112.5 187.5,-112.5"/>
<text text-anchor="middle" x="239.5" y="-119.5" font-family="Helvetica,sans-Serif" font-size="10.00">AUDPNetwork.hpp</text>
</a>
</g>
</g>
<!-- Node12&#45;&gt;Node14 -->
<g id="edge15" class="edge"><title>Node12&#45;&gt;Node14</title>
<path fill="none" stroke="midnightblue" d="M239.5,-168.083C239.5,-161.006 239.5,-150.861 239.5,-141.986"/>
<polygon fill="midnightblue" stroke="midnightblue" points="243,-141.751 239.5,-131.751 236,-141.751 243,-141.751"/>
</g>
<!-- Node14&#45;&gt;Node3 -->
<g id="edge17" class="edge"><title>Node14&#45;&gt;Node3</title>
<path fill="none" stroke="midnightblue" d="M265.011,-112.444C292.096,-103.359 335.09,-88.9388 365.369,-78.7831"/>
<polygon fill="midnightblue" stroke="midnightblue" points="366.74,-82.0148 375.108,-75.5164 364.514,-75.3781 366.74,-82.0148"/>
</g>
<!-- Node14&#45;&gt;Node7 -->
<g id="edge16" class="edge"><title>Node14&#45;&gt;Node7</title>
<path fill="none" stroke="midnightblue" d="M223.594,-112.324C207.862,-103.743 183.558,-90.486 165.291,-80.5224"/>
<polygon fill="midnightblue" stroke="midnightblue" points="166.822,-77.3704 156.367,-75.6545 163.47,-83.5157 166.822,-77.3704"/>
</g>
<!-- Node14&#45;&gt;Node8 -->
<g id="edge18" class="edge"><title>Node14&#45;&gt;Node8</title>
<path fill="none" stroke="midnightblue" d="M242.472,-112.083C244.884,-104.849 248.364,-94.4087 251.368,-85.3968"/>
<polygon fill="midnightblue" stroke="midnightblue" points="254.741,-86.3447 254.583,-75.7511 248.1,-84.1311 254.741,-86.3447"/>
</g>
</g>
</svg>
        <g id="navigator" transform="translate(0 0)" fill="#404254">
                <rect fill="#f2f5e9" fill-opacity="0.5" stroke="#606060" stroke-width=".5" x="0" y="0" width="60" height="60"/>
                <use id="zoomplus" xlink:href="#zoomPlus" x="17" y="9" onmousedown="handleZoom(evt,'in')"/>
                <use id="zoomminus" xlink:href="#zoomMin" x="42" y="9" onmousedown="handleZoom(evt,'out')"/>
                <use id="reset" xlink:href="#resetDef" x="30" y="36" onmousedown="handleReset()"/>
                <g id="arrowUp" xlink:href="#dirArrow" transform="translate(30 24)" onmousedown="handlePan(0,-1)">
                  <use xlink:href="#rim" fill="#404040">
                        <set attributeName="fill" to="#808080" begin="arrowUp.mouseover" end="arrowUp.mouseout"/>
                  </use>
                  <path fill="none" stroke="white" stroke-width="1.5" d="M0,-3.0v7 M-2.5,-0.5L0,-3.0L2.5,-0.5"/>
                </g>
                <g id="arrowRight" xlink:href="#dirArrow" transform="rotate(90) translate(36 -43)" onmousedown="handlePan(1,0)">
                  <use xlink:href="#rim" fill="#404040">
                        <set attributeName="fill" to="#808080" begin="arrowRight.mouseover" end="arrowRight.mouseout"/>
                  </use>
                  <path fill="none" stroke="white" stroke-width="1.5" d="M0,-3.0v7 M-2.5,-0.5L0,-3.0L2.5,-0.5"/>
                </g>
                <g id="arrowDown" xlink:href="#dirArrow" transform="rotate(180) translate(-30 -48)" onmousedown="handlePan(0,1)">
                  <use xlink:href="#rim" fill="#404040">
                        <set attributeName="fill" to="#808080" begin="arrowDown.mouseover" end="arrowDown.mouseout"/>
                  </use>
                  <path fill="none" stroke="white" stroke-width="1.5" d="M0,-3.0v7 M-2.5,-0.5L0,-3.0L2.5,-0.5"/>
                </g>
                <g id="arrowLeft" xlink:href="#dirArrow" transform="rotate(270) translate(-36 17)" onmousedown="handlePan(-1,0)">
                  <use xlink:href="#rim" fill="#404040">
                        <set attributeName="fill" to="#808080" begin="arrowLeft.mouseover" end="arrowLeft.mouseout"/>
                  </use>
                  <path fill="none" stroke="white" stroke-width="1.5" d="M0,-3.0v7 M-2.5,-0.5L0,-3.0L2.5,-0.5"/>
                </g>
        </g>
        <svg viewBox="0 0 15 15" width="100%" height="30px" preserveAspectRatio="xMaxYMin meet">
         <g id="arrow_out" transform="scale(0.3 0.3)">
          <a xlink:href="UDPClient_8cpp__incl_org.svg" target="_base">
           <rect id="button" ry="5" rx="5" y="6" x="6" height="38" width="38"
                fill="#f2f5e9" fill-opacity="0.5" stroke="#606060" stroke-width="1.0"/>
           <path id="arrow"
             d="M 11.500037,31.436501 C 11.940474,20.09759 22.043105,11.32322 32.158766,21.979434 L 37.068811,17.246167 C 37.068811,17.246167 37.088388,32 37.088388,32 L 22.160133,31.978069 C 22.160133,31.978069 26.997745,27.140456 26.997745,27.140456 C 18.528582,18.264221 13.291696,25.230495 11.500037,31.436501 z"
             style="fill:#404040;"/>
          </a>
         </g>
        </svg>
</svg>
