<?xml version="1.0" encoding="UTF-8" standalone="no"?>
<!DOCTYPE svg PUBLIC "-//W3C//DTD SVG 1.1//EN"
 "http://www.w3.org/Graphics/SVG/1.1/DTD/svg11.dtd">
<!-- Generated by graphviz version 2.38.0 (20140413.2041)
 -->
<!-- Title: src/Network/Server/UDPServer.hpp Pages: 1 -->
<!--zoomable 263 -->
<svg id="main" version="1.1" xmlns="http://www.w3.org/2000/svg" xmlns:xlink="http://www.w3.org/1999/xlink" xml:space="preserve" onload="init(evt)">
<style type="text/css"><![CDATA[
.edge:hover path { stroke: red; }
.edge:hover polygon { stroke: red; fill: red; }
]]></style>
<script type="text/javascript"><![CDATA[
var edges = document.getElementsByTagName('g');
if (edges && edges.length) {
  for (var i=0;i<edges.length;i++) {
    if (edges[i].id.substr(0,4)=='edge') {
      edges[i].setAttribute('class','edge');
    }
  }
}
]]></script>
        <defs>
                <circle id="rim" cx="0" cy="0" r="7"/>
                <circle id="rim2" cx="0" cy="0" r="3.5"/>
                <g id="zoomPlus">
                        <use xlink:href="#rim" fill="#404040">
                                <set attributeName="fill" to="#808080" begin="zoomplus.mouseover" end="zoomplus.mouseout"/>
                        </use>
                        <path d="M-4,0h8M0,-4v8" fill="none" stroke="white" stroke-width="1.5" pointer-events="none"/>
                </g>
                <g id="zoomMin">
                        <use xlink:href="#rim" fill="#404040">
                                <set attributeName="fill" to="#808080" begin="zoomminus.mouseover" end="zoomminus.mouseout"/>
                        </use>
                        <path d="M-4,0h8" fill="none" stroke="white" stroke-width="1.5" pointer-events="none"/>
                </g>
                <g id="dirArrow">
                        <path fill="none" stroke="white" stroke-width="1.5" d="M0,-3.0v7 M-2.5,-0.5L0,-3.0L2.5,-0.5"/>
                </g>
               <g id="resetDef">
                       <use xlink:href="#rim2" fill="#404040">
                               <set attributeName="fill" to="#808080" begin="reset.mouseover" end="reset.mouseout"/>
                       </use>
               </g>
        </defs>

<script type="text/javascript">
var viewWidth = 764;
var viewHeight = 263;
var sectionId = 'dynsection-0';
</script>
<script xlink:href="svgpan.js"/>
<svg id="graph" class="graph">
<g id="viewport">
<title>src/Network/Server/UDPServer.hpp</title>
<!-- Node1 -->
<g id="node1" class="node"><title>Node1</title>
<polygon fill="#bfbfbf" stroke="black" points="337.5,-224.5 337.5,-254.5 444.5,-254.5 444.5,-224.5 337.5,-224.5"/>
<text text-anchor="start" x="345.5" y="-242.5" font-family="Helvetica,sans-Serif" font-size="10.00">src/Network/Server</text>
<text text-anchor="middle" x="391" y="-231.5" font-family="Helvetica,sans-Serif" font-size="10.00">/UDPServer.hpp</text>
</g>
<!-- Node2 -->
<g id="node2" class="node"><title>Node2</title>
<g id="a_node2"><a xlink:href="ServerSession_8hpp.html" target="_top" xlink:title="ServerSession.hpp">
<polygon fill="none" stroke="black" points="389.5,-168.5 389.5,-187.5 496.5,-187.5 496.5,-168.5 389.5,-168.5"/>
<text text-anchor="middle" x="443" y="-175.5" font-family="Helvetica,sans-Serif" font-size="10.00">ServerSession.hpp</text>
</a>
</g>
</g>
<!-- Node1&#45;&gt;Node2 -->
<g id="edge1" class="edge"><title>Node1&#45;&gt;Node2</title>
<path fill="none" stroke="midnightblue" d="M403.323,-224.399C410.957,-215.664 420.791,-204.413 428.758,-195.296"/>
<polygon fill="midnightblue" stroke="midnightblue" points="431.488,-197.491 435.434,-187.658 426.218,-192.884 431.488,-197.491"/>
</g>
<!-- Node7 -->
<g id="node7" class="node"><title>Node7</title>
<g id="a_node7"><a xlink:href="RoomManager_8hpp.html" target="_top" xlink:title="Room/RoomManager.hpp">
<polygon fill="none" stroke="black" points="261,-112.5 261,-131.5 397,-131.5 397,-112.5 261,-112.5"/>
<text text-anchor="middle" x="329" y="-119.5" font-family="Helvetica,sans-Serif" font-size="10.00">Room/RoomManager.hpp</text>
</a>
</g>
</g>
<!-- Node1&#45;&gt;Node7 -->
<g id="edge27" class="edge"><title>Node1&#45;&gt;Node7</title>
<path fill="none" stroke="midnightblue" d="M383.398,-224.337C372.074,-203.243 350.794,-163.6 338.473,-140.648"/>
<polygon fill="midnightblue" stroke="midnightblue" points="341.467,-138.825 333.654,-131.669 335.3,-142.136 341.467,-138.825"/>
</g>
<!-- Node17 -->
<g id="node17" class="node"><title>Node17</title>
<g id="a_node17"><a xlink:href="ServerExceptions_8hpp.html" target="_top" xlink:title="ServerExceptions.hpp">
<polygon fill="none" stroke="black" points="83.5,-112.5 83.5,-131.5 204.5,-131.5 204.5,-112.5 83.5,-112.5"/>
<text text-anchor="middle" x="144" y="-119.5" font-family="Helvetica,sans-Serif" font-size="10.00">ServerExceptions.hpp</text>
</a>
</g>
</g>
<!-- Node1&#45;&gt;Node17 -->
<g id="edge19" class="edge"><title>Node1&#45;&gt;Node17</title>
<path fill="none" stroke="midnightblue" d="M360.713,-224.337C312.246,-201.674 217.987,-157.597 171.407,-135.816"/>
<polygon fill="midnightblue" stroke="midnightblue" points="172.766,-132.588 162.225,-131.522 169.801,-138.929 172.766,-132.588"/>
</g>
<!-- Node19 -->
<g id="node19" class="node"><title>Node19</title>
<g id="a_node19"><a xlink:href="AUDPNetwork_8hpp.html" target="_top" xlink:title="AUDPNetwork.hpp">
<polygon fill="none" stroke="black" points="539,-168.5 539,-187.5 643,-187.5 643,-168.5 539,-168.5"/>
<text text-anchor="middle" x="591" y="-175.5" font-family="Helvetica,sans-Serif" font-size="10.00">AUDPNetwork.hpp</text>
</a>
</g>
</g>
<!-- Node1&#45;&gt;Node19 -->
<g id="edge23" class="edge"><title>Node1&#45;&gt;Node19</title>
<path fill="none" stroke="midnightblue" d="M438.144,-224.475C473.1,-214.075 520.148,-200.078 552.774,-190.372"/>
<polygon fill="midnightblue" stroke="midnightblue" points="553.82,-193.713 562.407,-187.506 551.824,-187.003 553.82,-193.713"/>
</g>
<!-- Node3 -->
<g id="node3" class="node"><title>Node3</title>
<g id="a_node3"><a xlink:href="PacketManager_8hpp.html" target="_top" xlink:title="PacketManager.hpp">
<polygon fill="none" stroke="black" points="549,-112.5 549,-131.5 659,-131.5 659,-112.5 549,-112.5"/>
<text text-anchor="middle" x="604" y="-119.5" font-family="Helvetica,sans-Serif" font-size="10.00">PacketManager.hpp</text>
</a>
</g>
</g>
<!-- Node2&#45;&gt;Node3 -->
<g id="edge2" class="edge"><title>Node2&#45;&gt;Node3</title>
<path fill="none" stroke="midnightblue" d="M468.511,-168.444C495.596,-159.359 538.59,-144.939 568.869,-134.783"/>
<polygon fill="midnightblue" stroke="midnightblue" points="570.24,-138.015 578.608,-131.516 568.014,-131.378 570.24,-138.015"/>
</g>
<!-- Node2&#45;&gt;Node7 -->
<g id="edge6" class="edge"><title>Node2&#45;&gt;Node7</title>
<path fill="none" stroke="midnightblue" d="M424.936,-168.444C406.425,-159.675 377.419,-145.935 356.145,-135.858"/>
<polygon fill="midnightblue" stroke="midnightblue" points="357.515,-132.634 346.979,-131.516 354.518,-138.96 357.515,-132.634"/>
</g>
<!-- Node16 -->
<g id="node16" class="node"><title>Node16</title>
<g id="a_node16"><a xlink:href="ISession_8hpp.html" target="_top" xlink:title="ISession.hpp">
<polygon fill="none" stroke="black" points="415.5,-112.5 415.5,-131.5 492.5,-131.5 492.5,-112.5 415.5,-112.5"/>
<text text-anchor="middle" x="454" y="-119.5" font-family="Helvetica,sans-Serif" font-size="10.00">ISession.hpp</text>
</a>
</g>
</g>
<!-- Node2&#45;&gt;Node16 -->
<g id="edge16" class="edge"><title>Node2&#45;&gt;Node16</title>
<path fill="none" stroke="midnightblue" d="M444.816,-168.083C446.274,-160.927 448.371,-150.635 450.193,-141.691"/>
<polygon fill="midnightblue" stroke="midnightblue" points="453.651,-142.248 452.217,-131.751 446.792,-140.851 453.651,-142.248"/>
</g>
<!-- Node4 -->
<g id="node4" class="node"><title>Node4</title>
<polygon fill="none" stroke="#bfbfbf" points="160,-0.5 160,-19.5 204,-19.5 204,-0.5 160,-0.5"/>
<text text-anchor="middle" x="182" y="-7.5" font-family="Helvetica,sans-Serif" font-size="10.00">string</text>
</g>
<!-- Node3&#45;&gt;Node4 -->
<g id="edge3" class="edge"><title>Node3&#45;&gt;Node4</title>
<path fill="none" stroke="midnightblue" d="M601.057,-112.038C595.777,-97.5304 583.221,-69.1974 562,-56 503.108,-19.3748 320.839,-28.4221 252,-20 239.583,-18.4809 225.937,-16.742 214.017,-15.2003"/>
<polygon fill="midnightblue" stroke="midnightblue" points="214.428,-11.7243 204.06,-13.9067 213.526,-18.666 214.428,-11.7243"/>
</g>
<!-- Node5 -->
<g id="node5" class="node"><title>Node5</title>
<polygon fill="none" stroke="#bfbfbf" points="610,-56.5 610,-75.5 640,-75.5 640,-56.5 610,-56.5"/>
<text text-anchor="middle" x="625" y="-63.5" font-family="Helvetica,sans-Serif" font-size="10.00">list</text>
</g>
<!-- Node3&#45;&gt;Node5 -->
<g id="edge4" class="edge"><title>Node3&#45;&gt;Node5</title>
<path fill="none" stroke="midnightblue" d="M607.468,-112.083C610.312,-104.77 614.429,-94.1814 617.96,-85.1034"/>
<polygon fill="midnightblue" stroke="midnightblue" points="621.234,-86.3397 621.597,-75.7511 614.71,-83.8025 621.234,-86.3397"/>
</g>
<!-- Node6 -->
<g id="node6" class="node"><title>Node6</title>
<g id="a_node6"><a xlink:href="Input_8hpp.html" target="_top" xlink:title="Render/Input.hpp">
<polygon fill="none" stroke="black" points="658,-56.5 658,-75.5 756,-75.5 756,-56.5 658,-56.5"/>
<text text-anchor="middle" x="707" y="-63.5" font-family="Helvetica,sans-Serif" font-size="10.00">Render/Input.hpp</text>
</a>
</g>
</g>
<!-- Node3&#45;&gt;Node6 -->
<g id="edge5" class="edge"><title>Node3&#45;&gt;Node6</title>
<path fill="none" stroke="midnightblue" d="M620.549,-112.324C636.992,-103.703 662.435,-90.3643 681.468,-80.3855"/>
<polygon fill="midnightblue" stroke="midnightblue" points="683.261,-83.3977 690.492,-75.6545 680.011,-77.198 683.261,-83.3977"/>
</g>
<!-- Node8 -->
<g id="node8" class="node"><title>Node8</title>
<polygon fill="none" stroke="#bfbfbf" points="238,-56.5 238,-75.5 290,-75.5 290,-56.5 238,-56.5"/>
<text text-anchor="middle" x="264" y="-63.5" font-family="Helvetica,sans-Serif" font-size="10.00">cstddef</text>
</g>
<!-- Node7&#45;&gt;Node8 -->
<g id="edge7" class="edge"><title>Node7&#45;&gt;Node8</title>
<path fill="none" stroke="midnightblue" d="M318.557,-112.324C308.854,-104.263 294.185,-92.0765 282.5,-82.3695"/>
<polygon fill="midnightblue" stroke="midnightblue" points="284.562,-79.532 274.633,-75.8339 280.089,-84.9163 284.562,-79.532"/>
</g>
<!-- Node9 -->
<g id="node9" class="node"><title>Node9</title>
<polygon fill="none" stroke="#bfbfbf" points="172.5,-56.5 172.5,-75.5 219.5,-75.5 219.5,-56.5 172.5,-56.5"/>
<text text-anchor="middle" x="196" y="-63.5" font-family="Helvetica,sans-Serif" font-size="10.00">vector</text>
</g>
<!-- Node7&#45;&gt;Node9 -->
<g id="edge8" class="edge"><title>Node7&#45;&gt;Node9</title>
<path fill="none" stroke="midnightblue" d="M307.926,-112.444C285.94,-103.517 251.266,-89.4387 226.336,-79.3168"/>
<polygon fill="midnightblue" stroke="midnightblue" points="227.558,-76.0355 216.976,-75.5164 224.924,-82.5213 227.558,-76.0355"/>
</g>
<!-- Node10 -->
<g id="node10" class="node"><title>Node10</title>
<polygon fill="none" stroke="#bfbfbf" points="391.5,-56.5 391.5,-75.5 448.5,-75.5 448.5,-56.5 391.5,-56.5"/>
<text text-anchor="middle" x="420" y="-63.5" font-family="Helvetica,sans-Serif" font-size="10.00">memory</text>
</g>
<!-- Node7&#45;&gt;Node10 -->
<g id="edge9" class="edge"><title>Node7&#45;&gt;Node10</title>
<path fill="none" stroke="midnightblue" d="M343.621,-112.324C357.949,-103.822 380.013,-90.7288 396.749,-80.7975"/>
<polygon fill="midnightblue" stroke="midnightblue" points="398.602,-83.7677 405.416,-75.6545 395.03,-77.7478 398.602,-83.7677"/>
</g>
<!-- Node11 -->
<g id="node11" class="node"><title>Node11</title>
<g id="a_node11"><a xlink:href="Room_8hpp.html" target="_top" xlink:title="Room.hpp">
<polygon fill="none" stroke="black" points="308.5,-56.5 308.5,-75.5 373.5,-75.5 373.5,-56.5 308.5,-56.5"/>
<text text-anchor="middle" x="341" y="-63.5" font-family="Helvetica,sans-Serif" font-size="10.00">Room.hpp</text>
</a>
</g>
</g>
<!-- Node7&#45;&gt;Node11 -->
<g id="edge10" class="edge"><title>Node7&#45;&gt;Node11</title>
<path fill="none" stroke="midnightblue" d="M330.982,-112.083C332.572,-104.927 334.859,-94.6353 336.846,-85.6911"/>
<polygon fill="midnightblue" stroke="midnightblue" points="340.303,-86.2722 339.055,-75.7511 333.469,-84.7537 340.303,-86.2722"/>
</g>
<!-- Node15 -->
<g id="node15" class="node"><title>Node15</title>
<polygon fill="none" stroke="#bfbfbf" points="466.5,-56.5 466.5,-75.5 553.5,-75.5 553.5,-56.5 466.5,-56.5"/>
<text text-anchor="middle" x="510" y="-63.5" font-family="Helvetica,sans-Serif" font-size="10.00">boost/asio.hpp</text>
</g>
<!-- Node7&#45;&gt;Node15 -->
<g id="edge15" class="edge"><title>Node7&#45;&gt;Node15</title>
<path fill="none" stroke="midnightblue" d="M357.68,-112.444C388.527,-103.241 437.728,-88.5617 471.829,-78.3879"/>
<polygon fill="midnightblue" stroke="midnightblue" points="472.872,-81.7293 481.454,-75.5164 470.871,-75.0215 472.872,-81.7293"/>
</g>
<!-- Node11&#45;&gt;Node4 -->
<g id="edge12" class="edge"><title>Node11&#45;&gt;Node4</title>
<path fill="none" stroke="midnightblue" d="M315.806,-56.4435C288.113,-47.0385 243.581,-31.9142 213.577,-21.7242"/>
<polygon fill="midnightblue" stroke="midnightblue" points="214.598,-18.3748 204.004,-18.473 212.347,-25.003 214.598,-18.3748"/>
</g>
<!-- Node12 -->
<g id="node12" class="node"><title>Node12</title>
<polygon fill="none" stroke="#bfbfbf" points="261,-0.5 261,-19.5 299,-19.5 299,-0.5 261,-0.5"/>
<text text-anchor="middle" x="280" y="-7.5" font-family="Helvetica,sans-Serif" font-size="10.00">map</text>
</g>
<!-- Node11&#45;&gt;Node12 -->
<g id="edge11" class="edge"><title>Node11&#45;&gt;Node12</title>
<path fill="none" stroke="midnightblue" d="M331.199,-56.324C322.182,-48.3414 308.594,-36.3128 297.682,-26.6529"/>
<polygon fill="midnightblue" stroke="midnightblue" points="299.787,-23.8416 289.979,-19.8339 295.147,-29.083 299.787,-23.8416"/>
</g>
<!-- Node13 -->
<g id="node13" class="node"><title>Node13</title>
<polygon fill="none" stroke="#bfbfbf" points="317.5,-0.5 317.5,-19.5 364.5,-19.5 364.5,-0.5 317.5,-0.5"/>
<text text-anchor="middle" x="341" y="-7.5" font-family="Helvetica,sans-Serif" font-size="10.00">mutex</text>
</g>
<!-- Node11&#45;&gt;Node13 -->
<g id="edge13" class="edge"><title>Node11&#45;&gt;Node13</title>
<path fill="none" stroke="midnightblue" d="M341,-56.083C341,-49.0059 341,-38.8611 341,-29.9865"/>
<polygon fill="midnightblue" stroke="midnightblue" points="344.5,-29.751 341,-19.7511 337.5,-29.7511 344.5,-29.751"/>
</g>
<!-- Node14 -->
<g id="node14" class="node"><title>Node14</title>
<polygon fill="none" stroke="#bfbfbf" points="382.5,-0.5 382.5,-19.5 485.5,-19.5 485.5,-0.5 382.5,-0.5"/>
<text text-anchor="middle" x="434" y="-7.5" font-family="Helvetica,sans-Serif" font-size="10.00">condition_variable</text>
</g>
<!-- Node11&#45;&gt;Node14 -->
<g id="edge14" class="edge"><title>Node11&#45;&gt;Node14</title>
<path fill="none" stroke="midnightblue" d="M355.942,-56.324C370.585,-47.8215 393.134,-34.7288 410.238,-24.7975"/>
<polygon fill="midnightblue" stroke="midnightblue" points="412.205,-27.7027 419.095,-19.6545 408.69,-21.6491 412.205,-27.7027"/>
</g>
<!-- Node16&#45;&gt;Node10 -->
<g id="edge17" class="edge"><title>Node16&#45;&gt;Node10</title>
<path fill="none" stroke="midnightblue" d="M448.386,-112.083C443.633,-104.534 436.682,-93.4948 430.848,-84.2298"/>
<polygon fill="midnightblue" stroke="midnightblue" points="433.8,-82.3486 425.51,-75.7511 427.876,-86.0783 433.8,-82.3486"/>
</g>
<!-- Node16&#45;&gt;Node15 -->
<g id="edge18" class="edge"><title>Node16&#45;&gt;Node15</title>
<path fill="none" stroke="midnightblue" d="M462.997,-112.324C471.194,-104.42 483.506,-92.5482 493.472,-82.9377"/>
<polygon fill="midnightblue" stroke="midnightblue" points="496.07,-85.2947 500.839,-75.8339 491.211,-80.2558 496.07,-85.2947"/>
</g>
<!-- Node17&#45;&gt;Node4 -->
<g id="edge20" class="edge"><title>Node17&#45;&gt;Node4</title>
<path fill="none" stroke="midnightblue" d="M146.153,-112.487C149.393,-99.9728 155.904,-75.9372 163,-56 166.239,-46.8996 170.357,-36.9887 173.931,-28.7901"/>
<polygon fill="midnightblue" stroke="midnightblue" points="177.192,-30.0702 178.059,-19.5109 170.797,-27.2247 177.192,-30.0702"/>
</g>
<!-- Node18 -->
<g id="node18" class="node"><title>Node18</title>
<g id="a_node18"><a xlink:href="RTypeExceptions_8hpp.html" target="_top" xlink:title="RTypeExceptions.hpp">
<polygon fill="none" stroke="black" points="0,-56.5 0,-75.5 116,-75.5 116,-56.5 0,-56.5"/>
<text text-anchor="middle" x="58" y="-63.5" font-family="Helvetica,sans-Serif" font-size="10.00">RTypeExceptions.hpp</text>
</a>
</g>
</g>
<!-- Node17&#45;&gt;Node18 -->
<g id="edge21" class="edge"><title>Node17&#45;&gt;Node18</title>
<path fill="none" stroke="midnightblue" d="M130.183,-112.324C116.767,-103.9 96.1759,-90.9709 80.4144,-81.0741"/>
<polygon fill="midnightblue" stroke="midnightblue" points="82.1132,-78.0081 71.7831,-75.6545 78.3908,-83.9364 82.1132,-78.0081"/>
</g>
<!-- Node18&#45;&gt;Node4 -->
<g id="edge22" class="edge"><title>Node18&#45;&gt;Node4</title>
<path fill="none" stroke="midnightblue" d="M77.6482,-56.4435C97.9645,-47.5961 129.903,-33.6875 153.098,-23.5865"/>
<polygon fill="midnightblue" stroke="midnightblue" points="154.673,-26.7181 162.444,-19.5164 151.878,-20.3002 154.673,-26.7181"/>
</g>
<!-- Node19&#45;&gt;Node3 -->
<g id="edge26" class="edge"><title>Node19&#45;&gt;Node3</title>
<path fill="none" stroke="midnightblue" d="M593.147,-168.083C594.869,-160.927 597.347,-150.635 599.5,-141.691"/>
<polygon fill="midnightblue" stroke="midnightblue" points="602.955,-142.293 601.893,-131.751 596.15,-140.654 602.955,-142.293"/>
</g>
<!-- Node19&#45;&gt;Node15 -->
<g id="edge24" class="edge"><title>Node19&#45;&gt;Node15</title>
<path fill="none" stroke="midnightblue" d="M578.335,-168.207C567.111,-159.906 550.861,-146.584 540,-132 529.339,-117.685 521.199,-98.9755 516.105,-85.307"/>
<polygon fill="midnightblue" stroke="midnightblue" points="519.311,-83.8727 512.684,-75.606 512.709,-86.2008 519.311,-83.8727"/>
</g>
<!-- Node20 -->
<g id="node20" class="node"><title>Node20</title>
<polygon fill="none" stroke="#bfbfbf" points="677.5,-112.5 677.5,-131.5 736.5,-131.5 736.5,-112.5 677.5,-112.5"/>
<text text-anchor="middle" x="707" y="-119.5" font-family="Helvetica,sans-Serif" font-size="10.00">iostream</text>
</g>
<!-- Node19&#45;&gt;Node20 -->
<g id="edge25" class="edge"><title>Node19&#45;&gt;Node20</title>
<path fill="none" stroke="midnightblue" d="M609.381,-168.444C628.216,-159.675 657.731,-145.935 679.379,-135.858"/>
<polygon fill="midnightblue" stroke="midnightblue" points="681.117,-138.91 688.705,-131.516 678.162,-132.564 681.117,-138.91"/>
</g>
</g>
</svg>
        <g id="navigator" transform="translate(0 0)" fill="#404254">
                <rect fill="#f2f5e9" fill-opacity="0.5" stroke="#606060" stroke-width=".5" x="0" y="0" width="60" height="60"/>
                <use id="zoomplus" xlink:href="#zoomPlus" x="17" y="9" onmousedown="handleZoom(evt,'in')"/>
                <use id="zoomminus" xlink:href="#zoomMin" x="42" y="9" onmousedown="handleZoom(evt,'out')"/>
                <use id="reset" xlink:href="#resetDef" x="30" y="36" onmousedown="handleReset()"/>
                <g id="arrowUp" xlink:href="#dirArrow" transform="translate(30 24)" onmousedown="handlePan(0,-1)">
                  <use xlink:href="#rim" fill="#404040">
                        <set attributeName="fill" to="#808080" begin="arrowUp.mouseover" end="arrowUp.mouseout"/>
                  </use>
                  <path fill="none" stroke="white" stroke-width="1.5" d="M0,-3.0v7 M-2.5,-0.5L0,-3.0L2.5,-0.5"/>
                </g>
                <g id="arrowRight" xlink:href="#dirArrow" transform="rotate(90) translate(36 -43)" onmousedown="handlePan(1,0)">
                  <use xlink:href="#rim" fill="#404040">
                        <set attributeName="fill" to="#808080" begin="arrowRight.mouseover" end="arrowRight.mouseout"/>
                  </use>
                  <path fill="none" stroke="white" stroke-width="1.5" d="M0,-3.0v7 M-2.5,-0.5L0,-3.0L2.5,-0.5"/>
                </g>
                <g id="arrowDown" xlink:href="#dirArrow" transform="rotate(180) translate(-30 -48)" onmousedown="handlePan(0,1)">
                  <use xlink:href="#rim" fill="#404040">
                        <set attributeName="fill" to="#808080" begin="arrowDown.mouseover" end="arrowDown.mouseout"/>
                  </use>
                  <path fill="none" stroke="white" stroke-width="1.5" d="M0,-3.0v7 M-2.5,-0.5L0,-3.0L2.5,-0.5"/>
                </g>
                <g id="arrowLeft" xlink:href="#dirArrow" transform="rotate(270) translate(-36 17)" onmousedown="handlePan(-1,0)">
                  <use xlink:href="#rim" fill="#404040">
                        <set attributeName="fill" to="#808080" begin="arrowLeft.mouseover" end="arrowLeft.mouseout"/>
                  </use>
                  <path fill="none" stroke="white" stroke-width="1.5" d="M0,-3.0v7 M-2.5,-0.5L0,-3.0L2.5,-0.5"/>
                </g>
        </g>
        <svg viewBox="0 0 15 15" width="100%" height="30px" preserveAspectRatio="xMaxYMin meet">
         <g id="arrow_out" transform="scale(0.3 0.3)">
          <a xlink:href="UDPServer_8hpp__incl_org.svg" target="_base">
           <rect id="button" ry="5" rx="5" y="6" x="6" height="38" width="38"
                fill="#f2f5e9" fill-opacity="0.5" stroke="#606060" stroke-width="1.0"/>
           <path id="arrow"
             d="M 11.500037,31.436501 C 11.940474,20.09759 22.043105,11.32322 32.158766,21.979434 L 37.068811,17.246167 C 37.068811,17.246167 37.088388,32 37.088388,32 L 22.160133,31.978069 C 22.160133,31.978069 26.997745,27.140456 26.997745,27.140456 C 18.528582,18.264221 13.291696,25.230495 11.500037,31.436501 z"
             style="fill:#404040;"/>
          </a>
         </g>
        </svg>
</svg>
