<?xml version="1.0" encoding="UTF-8" standalone="no"?>
<!DOCTYPE svg PUBLIC "-//W3C//DTD SVG 1.1//EN"
 "http://www.w3.org/Graphics/SVG/1.1/DTD/svg11.dtd">
<!-- Generated by graphviz version 2.38.0 (20140413.2041)
 -->
<!-- Title: src/Components/Physics/Velocity.hpp Pages: 1 -->
<svg width="5810pt" height="195pt"
 viewBox="0.00 0.00 5810.00 195.00" xmlns="http://www.w3.org/2000/svg" xmlns:xlink="http://www.w3.org/1999/xlink">
<g id="graph0" class="graph" transform="scale(1 1) rotate(0) translate(4 191)">
<title>src/Components/Physics/Velocity.hpp</title>
<!-- Node1 -->
<g id="node1" class="node"><title>Node1</title>
<polygon fill="#bfbfbf" stroke="black" points="2920,-156.5 2920,-186.5 3054,-186.5 3054,-156.5 2920,-156.5"/>
<text text-anchor="start" x="2928" y="-174.5" font-family="Helvetica,sans-Serif" font-size="10.00">src/Components/Physics</text>
<text text-anchor="middle" x="2987" y="-163.5" font-family="Helvetica,sans-Serif" font-size="10.00">/Velocity.hpp</text>
</g>
<!-- Node2 -->
<g id="node2" class="node"><title>Node2</title>
<g id="a_node2"><a xlink:href="Velocity_8cpp.html" target="_top" xlink:title="src/Components/Physics\l/Velocity.cpp">
<polygon fill="none" stroke="black" points="0,-84 0,-114 134,-114 134,-84 0,-84"/>
<text text-anchor="start" x="8" y="-102" font-family="Helvetica,sans-Serif" font-size="10.00">src/Components/Physics</text>
<text text-anchor="middle" x="67" y="-91" font-family="Helvetica,sans-Serif" font-size="10.00">/Velocity.cpp</text>
</a>
</g>
</g>
<!-- Node1&#45;&gt;Node2 -->
<g id="edge1" class="edge"><title>Node1&#45;&gt;Node2</title>
<path fill="none" stroke="midnightblue" d="M2909.93,-170.234C2483.64,-168.614 423.444,-158.817 143,-120 133.269,-118.653 123,-116.482 113.266,-114.056"/>
<polygon fill="midnightblue" stroke="midnightblue" points="2909.98,-173.734 2920,-170.272 2910.01,-166.734 2909.98,-173.734"/>
</g>
<!-- Node3 -->
<g id="node3" class="node"><title>Node3</title>
<g id="a_node3"><a xlink:href="BackgroundMenuEntity_8cpp.html" target="_top" xlink:title="src/Entities/EntityConstructor\l/BackgroundMenuEntity/BackgroundMenu\lEntity.cpp">
<polygon fill="none" stroke="black" points="152,-78.5 152,-119.5 368,-119.5 368,-78.5 152,-78.5"/>
<text text-anchor="start" x="160" y="-107.5" font-family="Helvetica,sans-Serif" font-size="10.00">src/Entities/EntityConstructor</text>
<text text-anchor="start" x="160" y="-96.5" font-family="Helvetica,sans-Serif" font-size="10.00">/BackgroundMenuEntity/BackgroundMenu</text>
<text text-anchor="middle" x="260" y="-85.5" font-family="Helvetica,sans-Serif" font-size="10.00">Entity.cpp</text>
</a>
</g>
</g>
<!-- Node1&#45;&gt;Node3 -->
<g id="edge2" class="edge"><title>Node1&#45;&gt;Node3</title>
<path fill="none" stroke="midnightblue" d="M2909.54,-170.569C2532.55,-170.665 887.149,-168.263 377,-120 374.128,-119.728 371.22,-119.426 368.289,-119.099"/>
<polygon fill="midnightblue" stroke="midnightblue" points="2909.8,-174.069 2919.8,-170.566 2909.79,-167.069 2909.8,-174.069"/>
</g>
<!-- Node4 -->
<g id="node4" class="node"><title>Node4</title>
<g id="a_node4"><a xlink:href="BackgroundWithoutTitleEntity_8cpp.html" target="_top" xlink:title="src/Entities/EntityConstructor\l/BackgroundWithoutTitleEntity\l/BackgroundWithoutTitleEntity.cpp">
<polygon fill="none" stroke="black" points="386,-78.5 386,-119.5 564,-119.5 564,-78.5 386,-78.5"/>
<text text-anchor="start" x="394" y="-107.5" font-family="Helvetica,sans-Serif" font-size="10.00">src/Entities/EntityConstructor</text>
<text text-anchor="start" x="394" y="-96.5" font-family="Helvetica,sans-Serif" font-size="10.00">/BackgroundWithoutTitleEntity</text>
<text text-anchor="middle" x="475" y="-85.5" font-family="Helvetica,sans-Serif" font-size="10.00">/BackgroundWithoutTitleEntity.cpp</text>
</a>
</g>
</g>
<!-- Node1&#45;&gt;Node4 -->
<g id="edge3" class="edge"><title>Node1&#45;&gt;Node4</title>
<path fill="none" stroke="midnightblue" d="M2909.85,-170.737C2550.95,-171.558 1042.46,-171.801 574,-120 570.776,-119.643 567.5,-119.234 564.198,-118.781"/>
<polygon fill="midnightblue" stroke="midnightblue" points="2909.89,-174.237 2919.88,-170.714 2909.87,-167.237 2909.89,-174.237"/>
</g>
<!-- Node5 -->
<g id="node5" class="node"><title>Node5</title>
<g id="a_node5"><a xlink:href="BulletEntity_8cpp.html" target="_top" xlink:title="src/Entities/EntityConstructor\l/BulletEntity/BulletEntity.cpp">
<polygon fill="none" stroke="black" points="582.5,-84 582.5,-114 737.5,-114 737.5,-84 582.5,-84"/>
<text text-anchor="start" x="590.5" y="-102" font-family="Helvetica,sans-Serif" font-size="10.00">src/Entities/EntityConstructor</text>
<text text-anchor="middle" x="660" y="-91" font-family="Helvetica,sans-Serif" font-size="10.00">/BulletEntity/BulletEntity.cpp</text>
</a>
</g>
</g>
<!-- Node1&#45;&gt;Node5 -->
<g id="edge4" class="edge"><title>Node1&#45;&gt;Node5</title>
<path fill="none" stroke="midnightblue" d="M2909.81,-170.866C2566.82,-172.166 1178.8,-173.929 747,-120 735.927,-118.617 724.201,-116.43 713.065,-114.001"/>
<polygon fill="midnightblue" stroke="midnightblue" points="2909.91,-174.365 2919.89,-170.826 2909.88,-167.365 2909.91,-174.365"/>
</g>
<!-- Node6 -->
<g id="node6" class="node"><title>Node6</title>
<g id="a_node6"><a xlink:href="EnemyBulletEntity_8cpp.html" target="_top" xlink:title="src/Entities/EntityConstructor\l/EnemyBulletEntity/EnemyBulletEntity.cpp">
<polygon fill="none" stroke="black" points="755.5,-84 755.5,-114 970.5,-114 970.5,-84 755.5,-84"/>
<text text-anchor="start" x="763.5" y="-102" font-family="Helvetica,sans-Serif" font-size="10.00">src/Entities/EntityConstructor</text>
<text text-anchor="middle" x="863" y="-91" font-family="Helvetica,sans-Serif" font-size="10.00">/EnemyBulletEntity/EnemyBulletEntity.cpp</text>
</a>
</g>
</g>
<!-- Node1&#45;&gt;Node6 -->
<g id="edge5" class="edge"><title>Node1&#45;&gt;Node6</title>
<path fill="none" stroke="midnightblue" d="M2909.89,-170.047C2589.82,-167.938 1364.79,-157.531 980,-120 965.438,-118.58 949.954,-116.409 935.179,-114.013"/>
<polygon fill="midnightblue" stroke="midnightblue" points="2909.97,-173.548 2919.99,-170.113 2910.02,-166.548 2909.97,-173.548"/>
</g>
<!-- Node7 -->
<g id="node7" class="node"><title>Node7</title>
<g id="a_node7"><a xlink:href="EnemyEntity_8cpp.html" target="_top" xlink:title="src/Entities/EntityConstructor\l/EnemyEntity/EnemyEntity.cpp">
<polygon fill="none" stroke="black" points="988.5,-84 988.5,-114 1149.5,-114 1149.5,-84 988.5,-84"/>
<text text-anchor="start" x="996.5" y="-102" font-family="Helvetica,sans-Serif" font-size="10.00">src/Entities/EntityConstructor</text>
<text text-anchor="middle" x="1069" y="-91" font-family="Helvetica,sans-Serif" font-size="10.00">/EnemyEntity/EnemyEntity.cpp</text>
</a>
</g>
</g>
<!-- Node1&#45;&gt;Node7 -->
<g id="edge6" class="edge"><title>Node1&#45;&gt;Node7</title>
<path fill="none" stroke="midnightblue" d="M2909.35,-170.33C2606.66,-169.361 1505.61,-162.9 1159,-120 1147.72,-118.604 1135.78,-116.444 1124.4,-114.051"/>
<polygon fill="midnightblue" stroke="midnightblue" points="2909.76,-173.831 2919.77,-170.362 2909.79,-166.831 2909.76,-173.831"/>
</g>
<!-- Node8 -->
<g id="node8" class="node"><title>Node8</title>
<g id="a_node8"><a xlink:href="EnemyType01Entity_8cpp.html" target="_top" xlink:title="src/Entities/EntityConstructor\l/EnemyType01Entity/EnemyType01Entity.cpp">
<polygon fill="none" stroke="black" points="1167.5,-84 1167.5,-114 1394.5,-114 1394.5,-84 1167.5,-84"/>
<text text-anchor="start" x="1175.5" y="-102" font-family="Helvetica,sans-Serif" font-size="10.00">src/Entities/EntityConstructor</text>
<text text-anchor="middle" x="1281" y="-91" font-family="Helvetica,sans-Serif" font-size="10.00">/EnemyType01Entity/EnemyType01Entity.cpp</text>
</a>
</g>
</g>
<!-- Node1&#45;&gt;Node8 -->
<g id="edge7" class="edge"><title>Node1&#45;&gt;Node8</title>
<path fill="none" stroke="midnightblue" d="M2909.44,-169.355C2633.67,-165.078 1701.23,-148.785 1404,-120 1388.93,-118.54 1372.9,-116.383 1357.57,-114.02"/>
<polygon fill="midnightblue" stroke="midnightblue" points="2909.7,-172.86 2919.75,-169.515 2909.81,-165.861 2909.7,-172.86"/>
</g>
<!-- Node9 -->
<g id="node9" class="node"><title>Node9</title>
<g id="a_node9"><a xlink:href="EnemyType02Entity_8cpp.html" target="_top" xlink:title="src/Entities/EntityConstructor\l/EnemyType02Entity/EnemyType02Entity.cpp">
<polygon fill="none" stroke="black" points="1412.5,-84 1412.5,-114 1639.5,-114 1639.5,-84 1412.5,-84"/>
<text text-anchor="start" x="1420.5" y="-102" font-family="Helvetica,sans-Serif" font-size="10.00">src/Entities/EntityConstructor</text>
<text text-anchor="middle" x="1526" y="-91" font-family="Helvetica,sans-Serif" font-size="10.00">/EnemyType02Entity/EnemyType02Entity.cpp</text>
</a>
</g>
</g>
<!-- Node1&#45;&gt;Node9 -->
<g id="edge8" class="edge"><title>Node1&#45;&gt;Node9</title>
<path fill="none" stroke="midnightblue" d="M2909.89,-170.912C2704.39,-171.292 2126.68,-167.667 1649,-120 1634.04,-118.507 1618.13,-116.351 1602.9,-114.001"/>
<polygon fill="midnightblue" stroke="midnightblue" points="2909.98,-174.412 2919.97,-170.889 2909.97,-167.412 2909.98,-174.412"/>
</g>
<!-- Node10 -->
<g id="node10" class="node"><title>Node10</title>
<g id="a_node10"><a xlink:href="EnemyType03Entity_8cpp.html" target="_top" xlink:title="src/Entities/EntityConstructor\l/EnemyType03Entity/EnemyType03Entity.cpp">
<polygon fill="none" stroke="black" points="1657.5,-84 1657.5,-114 1884.5,-114 1884.5,-84 1657.5,-84"/>
<text text-anchor="start" x="1665.5" y="-102" font-family="Helvetica,sans-Serif" font-size="10.00">src/Entities/EntityConstructor</text>
<text text-anchor="middle" x="1771" y="-91" font-family="Helvetica,sans-Serif" font-size="10.00">/EnemyType03Entity/EnemyType03Entity.cpp</text>
</a>
</g>
</g>
<!-- Node1&#45;&gt;Node10 -->
<g id="edge9" class="edge"><title>Node1&#45;&gt;Node10</title>
<path fill="none" stroke="midnightblue" d="M2909.84,-169.98C2730.86,-168.109 2273.72,-159.511 1894,-120 1879.26,-118.466 1863.6,-116.321 1848.57,-114.002"/>
<polygon fill="midnightblue" stroke="midnightblue" points="2909.92,-173.481 2919.95,-170.081 2909.99,-166.481 2909.92,-173.481"/>
</g>
<!-- Node11 -->
<g id="node11" class="node"><title>Node11</title>
<g id="a_node11"><a xlink:href="GameBackgroundEntity_8cpp.html" target="_top" xlink:title="src/Entities/EntityConstructor\l/GameBackgroundEntity/GameBackground\lEntity.cpp">
<polygon fill="none" stroke="black" points="1903,-78.5 1903,-119.5 2125,-119.5 2125,-78.5 1903,-78.5"/>
<text text-anchor="start" x="1911" y="-107.5" font-family="Helvetica,sans-Serif" font-size="10.00">src/Entities/EntityConstructor</text>
<text text-anchor="start" x="1911" y="-96.5" font-family="Helvetica,sans-Serif" font-size="10.00">/GameBackgroundEntity/GameBackground</text>
<text text-anchor="middle" x="2014" y="-85.5" font-family="Helvetica,sans-Serif" font-size="10.00">Entity.cpp</text>
</a>
</g>
</g>
<!-- Node1&#45;&gt;Node11 -->
<g id="edge10" class="edge"><title>Node1&#45;&gt;Node11</title>
<path fill="none" stroke="midnightblue" d="M2909.95,-168.632C2760.22,-164.406 2419.66,-151.873 2135,-120 2131.72,-119.633 2128.39,-119.237 2125.04,-118.817"/>
<polygon fill="midnightblue" stroke="midnightblue" points="2909.88,-172.131 2919.97,-168.91 2910.07,-165.134 2909.88,-172.131"/>
</g>
<!-- Node12 -->
<g id="node12" class="node"><title>Node12</title>
<g id="a_node12"><a xlink:href="PlanetEntity_8cpp.html" target="_top" xlink:title="src/Entities/EntityConstructor\l/PlanetEntity/PlanetEntity.cpp">
<polygon fill="none" stroke="black" points="2143.5,-84 2143.5,-114 2298.5,-114 2298.5,-84 2143.5,-84"/>
<text text-anchor="start" x="2151.5" y="-102" font-family="Helvetica,sans-Serif" font-size="10.00">src/Entities/EntityConstructor</text>
<text text-anchor="middle" x="2221" y="-91" font-family="Helvetica,sans-Serif" font-size="10.00">/PlanetEntity/PlanetEntity.cpp</text>
</a>
</g>
</g>
<!-- Node1&#45;&gt;Node12 -->
<g id="edge11" class="edge"><title>Node1&#45;&gt;Node12</title>
<path fill="none" stroke="midnightblue" d="M2909.28,-168.55C2782.67,-164.518 2524.28,-152.709 2308,-120 2297.73,-118.447 2286.88,-116.337 2276.45,-114.068"/>
<polygon fill="midnightblue" stroke="midnightblue" points="2909.54,-172.06 2919.64,-168.872 2909.75,-165.063 2909.54,-172.06"/>
</g>
<!-- Node13 -->
<g id="node13" class="node"><title>Node13</title>
<g id="a_node13"><a xlink:href="PlanetRingEntity_8cpp.html" target="_top" xlink:title="src/Entities/EntityConstructor\l/PlanetRingEntity/PlanetRingEntity.cpp">
<polygon fill="none" stroke="black" points="2317,-84 2317,-114 2513,-114 2513,-84 2317,-84"/>
<text text-anchor="start" x="2325" y="-102" font-family="Helvetica,sans-Serif" font-size="10.00">src/Entities/EntityConstructor</text>
<text text-anchor="middle" x="2415" y="-91" font-family="Helvetica,sans-Serif" font-size="10.00">/PlanetRingEntity/PlanetRingEntity.cpp</text>
</a>
</g>
</g>
<!-- Node1&#45;&gt;Node13 -->
<g id="edge12" class="edge"><title>Node1&#45;&gt;Node13</title>
<path fill="none" stroke="midnightblue" d="M2909.86,-163.882C2817.6,-155.557 2658.62,-139.909 2523,-120 2511.21,-118.269 2498.74,-116.191 2486.62,-114.039"/>
<polygon fill="midnightblue" stroke="midnightblue" points="2909.68,-167.379 2919.95,-164.787 2910.3,-160.407 2909.68,-167.379"/>
</g>
<!-- Node14 -->
<g id="node14" class="node"><title>Node14</title>
<g id="a_node14"><a xlink:href="PlayerEntity_8cpp.html" target="_top" xlink:title="src/Entities/EntityConstructor\l/PlayerEntity/PlayerEntity.cpp">
<polygon fill="none" stroke="black" points="2531.5,-84 2531.5,-114 2686.5,-114 2686.5,-84 2531.5,-84"/>
<text text-anchor="start" x="2539.5" y="-102" font-family="Helvetica,sans-Serif" font-size="10.00">src/Entities/EntityConstructor</text>
<text text-anchor="middle" x="2609" y="-91" font-family="Helvetica,sans-Serif" font-size="10.00">/PlayerEntity/PlayerEntity.cpp</text>
</a>
</g>
</g>
<!-- Node1&#45;&gt;Node14 -->
<g id="edge13" class="edge"><title>Node1&#45;&gt;Node14</title>
<path fill="none" stroke="midnightblue" d="M2909.82,-158.275C2851.05,-148.683 2768.22,-134.557 2696,-120 2687.04,-118.193 2677.58,-116.157 2668.34,-114.093"/>
<polygon fill="midnightblue" stroke="midnightblue" points="2909.34,-161.742 2919.77,-159.893 2910.46,-154.833 2909.34,-161.742"/>
</g>
<!-- Node15 -->
<g id="node15" class="node"><title>Node15</title>
<g id="a_node15"><a xlink:href="PlayerTwoEntity_8cpp.html" target="_top" xlink:title="src/Entities/EntityConstructor\l/PlayerTwoEntity/PlayerTwoEntity.cpp">
<polygon fill="none" stroke="black" points="2704.5,-84 2704.5,-114 2891.5,-114 2891.5,-84 2704.5,-84"/>
<text text-anchor="start" x="2712.5" y="-102" font-family="Helvetica,sans-Serif" font-size="10.00">src/Entities/EntityConstructor</text>
<text text-anchor="middle" x="2798" y="-91" font-family="Helvetica,sans-Serif" font-size="10.00">/PlayerTwoEntity/PlayerTwoEntity.cpp</text>
</a>
</g>
</g>
<!-- Node1&#45;&gt;Node15 -->
<g id="edge14" class="edge"><title>Node1&#45;&gt;Node15</title>
<path fill="none" stroke="midnightblue" d="M2939.58,-152.81C2907.45,-140.827 2865.58,-125.21 2835.73,-114.073"/>
<polygon fill="midnightblue" stroke="midnightblue" points="2938.61,-156.187 2949.21,-156.403 2941.06,-149.628 2938.61,-156.187"/>
</g>
<!-- Node16 -->
<g id="node16" class="node"><title>Node16</title>
<g id="a_node16"><a xlink:href="StarsEntity_8cpp.html" target="_top" xlink:title="src/Entities/EntityConstructor\l/StarsEntity/StarsEntity.cpp">
<polygon fill="none" stroke="black" points="2909.5,-84 2909.5,-114 3064.5,-114 3064.5,-84 2909.5,-84"/>
<text text-anchor="start" x="2917.5" y="-102" font-family="Helvetica,sans-Serif" font-size="10.00">src/Entities/EntityConstructor</text>
<text text-anchor="middle" x="2987" y="-91" font-family="Helvetica,sans-Serif" font-size="10.00">/StarsEntity/StarsEntity.cpp</text>
</a>
</g>
</g>
<!-- Node1&#45;&gt;Node16 -->
<g id="edge15" class="edge"><title>Node1&#45;&gt;Node16</title>
<path fill="none" stroke="midnightblue" d="M2987,-146.232C2987,-135.568 2987,-123.414 2987,-114.246"/>
<polygon fill="midnightblue" stroke="midnightblue" points="2983.5,-146.233 2987,-156.233 2990.5,-146.233 2983.5,-146.233"/>
</g>
<!-- Node17 -->
<g id="node17" class="node"><title>Node17</title>
<g id="a_node17"><a xlink:href="TestBackground_8cpp.html" target="_top" xlink:title="src/Entities/EntityConstructor\l/TestBackground/TestBackground.cpp">
<polygon fill="none" stroke="black" points="3083,-84 3083,-114 3277,-114 3277,-84 3083,-84"/>
<text text-anchor="start" x="3091" y="-102" font-family="Helvetica,sans-Serif" font-size="10.00">src/Entities/EntityConstructor</text>
<text text-anchor="middle" x="3180" y="-91" font-family="Helvetica,sans-Serif" font-size="10.00">/TestBackground/TestBackground.cpp</text>
</a>
</g>
</g>
<!-- Node1&#45;&gt;Node17 -->
<g id="edge16" class="edge"><title>Node1&#45;&gt;Node17</title>
<path fill="none" stroke="midnightblue" d="M3035,-152.965C3067.86,-140.962 3110.86,-125.258 3141.47,-114.073"/>
<polygon fill="midnightblue" stroke="midnightblue" points="3033.78,-149.684 3025.59,-156.403 3036.19,-156.259 3033.78,-149.684"/>
</g>
<!-- Node18 -->
<g id="node18" class="node"><title>Node18</title>
<g id="a_node18"><a xlink:href="TestEntity_8cpp.html" target="_top" xlink:title="src/Entities/EntityConstructor\l/TestEntity/TestEntity.cpp">
<polygon fill="none" stroke="black" points="3295.5,-84 3295.5,-114 3450.5,-114 3450.5,-84 3295.5,-84"/>
<text text-anchor="start" x="3303.5" y="-102" font-family="Helvetica,sans-Serif" font-size="10.00">src/Entities/EntityConstructor</text>
<text text-anchor="middle" x="3373" y="-91" font-family="Helvetica,sans-Serif" font-size="10.00">/TestEntity/TestEntity.cpp</text>
</a>
</g>
</g>
<!-- Node1&#45;&gt;Node18 -->
<g id="edge17" class="edge"><title>Node1&#45;&gt;Node18</title>
<path fill="none" stroke="midnightblue" d="M3064.24,-158.73C3124.75,-149.201 3210.96,-134.949 3286,-120 3295.12,-118.183 3304.74,-116.119 3314.13,-114.024"/>
<polygon fill="midnightblue" stroke="midnightblue" points="3063.34,-155.328 3054,-160.335 3064.43,-162.243 3063.34,-155.328"/>
</g>
<!-- Node19 -->
<g id="node19" class="node"><title>Node19</title>
<g id="a_node19"><a xlink:href="TestEntity2_8cpp.html" target="_top" xlink:title="src/Entities/EntityConstructor\l/TestEntity2/TestEntity2.cpp">
<polygon fill="none" stroke="black" points="3468.5,-84 3468.5,-114 3623.5,-114 3623.5,-84 3468.5,-84"/>
<text text-anchor="start" x="3476.5" y="-102" font-family="Helvetica,sans-Serif" font-size="10.00">src/Entities/EntityConstructor</text>
<text text-anchor="middle" x="3546" y="-91" font-family="Helvetica,sans-Serif" font-size="10.00">/TestEntity2/TestEntity2.cpp</text>
</a>
</g>
</g>
<!-- Node1&#45;&gt;Node19 -->
<g id="edge18" class="edge"><title>Node1&#45;&gt;Node19</title>
<path fill="none" stroke="midnightblue" d="M3064.32,-165.16C3158.31,-157.998 3321.53,-143.404 3460,-120 3469.82,-118.34 3480.2,-116.233 3490.22,-114.014"/>
<polygon fill="midnightblue" stroke="midnightblue" points="3064.03,-161.671 3054.33,-165.913 3064.56,-168.651 3064.03,-161.671"/>
</g>
<!-- Node20 -->
<g id="node20" class="node"><title>Node20</title>
<g id="a_node20"><a xlink:href="WallSideEntity_8cpp.html" target="_top" xlink:title="src/Entities/EntityConstructor\l/WallSideEntity/WallSideEntity.cpp">
<polygon fill="none" stroke="black" points="3641.5,-84 3641.5,-114 3814.5,-114 3814.5,-84 3641.5,-84"/>
<text text-anchor="start" x="3649.5" y="-102" font-family="Helvetica,sans-Serif" font-size="10.00">src/Entities/EntityConstructor</text>
<text text-anchor="middle" x="3728" y="-91" font-family="Helvetica,sans-Serif" font-size="10.00">/WallSideEntity/WallSideEntity.cpp</text>
</a>
</g>
</g>
<!-- Node1&#45;&gt;Node20 -->
<g id="edge19" class="edge"><title>Node1&#45;&gt;Node20</title>
<path fill="none" stroke="midnightblue" d="M3064.6,-167.681C3186.25,-162.533 3429.05,-149.315 3633,-120 3644.09,-118.405 3655.84,-116.29 3667.14,-114.031"/>
<polygon fill="midnightblue" stroke="midnightblue" points="3064.12,-164.198 3054.27,-168.111 3064.41,-171.192 3064.12,-164.198"/>
</g>
<!-- Node21 -->
<g id="node21" class="node"><title>Node21</title>
<g id="a_node21"><a xlink:href="EntityFactory_8cpp.html" target="_top" xlink:title="src/Entities/Factories\l/EntityFactory.cpp">
<polygon fill="none" stroke="black" points="3832.5,-84 3832.5,-114 3947.5,-114 3947.5,-84 3832.5,-84"/>
<text text-anchor="start" x="3840.5" y="-102" font-family="Helvetica,sans-Serif" font-size="10.00">src/Entities/Factories</text>
<text text-anchor="middle" x="3890" y="-91" font-family="Helvetica,sans-Serif" font-size="10.00">/EntityFactory.cpp</text>
</a>
</g>
</g>
<!-- Node1&#45;&gt;Node21 -->
<g id="edge20" class="edge"><title>Node1&#45;&gt;Node21</title>
<path fill="none" stroke="midnightblue" d="M3064.14,-168.153C3242.54,-162.352 3679.39,-145.903 3824,-120 3832.13,-118.543 3840.67,-116.419 3848.82,-114.093"/>
<polygon fill="midnightblue" stroke="midnightblue" points="3063.93,-164.658 3054.05,-168.479 3064.16,-171.654 3063.93,-164.658"/>
</g>
<!-- Node22 -->
<g id="node22" class="node"><title>Node22</title>
<g id="a_node22"><a xlink:href="AnimationSystem_8hpp.html" target="_top" xlink:title="src/Systems/SystemConstructor\l/AnimationSystem/AnimationSystem.hpp">
<polygon fill="none" stroke="black" points="5037.5,-84 5037.5,-114 5252.5,-114 5252.5,-84 5037.5,-84"/>
<text text-anchor="start" x="5045.5" y="-102" font-family="Helvetica,sans-Serif" font-size="10.00">src/Systems/SystemConstructor</text>
<text text-anchor="middle" x="5145" y="-91" font-family="Helvetica,sans-Serif" font-size="10.00">/AnimationSystem/AnimationSystem.hpp</text>
</a>
</g>
</g>
<!-- Node1&#45;&gt;Node22 -->
<g id="edge21" class="edge"><title>Node1&#45;&gt;Node22</title>
<path fill="none" stroke="midnightblue" d="M3064.37,-170.099C3388.33,-168.187 4637.09,-158.424 5029,-120 5043.44,-118.584 5058.79,-116.415 5073.44,-114.02"/>
<polygon fill="midnightblue" stroke="midnightblue" points="3064.13,-166.6 3054.15,-170.159 3064.17,-173.6 3064.13,-166.6"/>
</g>
<!-- Node25 -->
<g id="node25" class="node"><title>Node25</title>
<g id="a_node25"><a xlink:href="DisplaySystem_8cpp.html" target="_top" xlink:title="src/Systems/SystemConstructor\l/DisplaySystem/DisplaySystem.cpp">
<polygon fill="none" stroke="black" points="5270.5,-84 5270.5,-114 5455.5,-114 5455.5,-84 5270.5,-84"/>
<text text-anchor="start" x="5278.5" y="-102" font-family="Helvetica,sans-Serif" font-size="10.00">src/Systems/SystemConstructor</text>
<text text-anchor="middle" x="5363" y="-91" font-family="Helvetica,sans-Serif" font-size="10.00">/DisplaySystem/DisplaySystem.cpp</text>
</a>
</g>
</g>
<!-- Node1&#45;&gt;Node25 -->
<g id="edge24" class="edge"><title>Node1&#45;&gt;Node25</title>
<path fill="none" stroke="midnightblue" d="M3064.2,-170.583C3410.43,-170.68 4822.18,-168.061 5262,-120 5274.71,-118.612 5288.19,-116.439 5301.03,-114.028"/>
<polygon fill="midnightblue" stroke="midnightblue" points="3064.03,-167.083 3054.03,-170.579 3064.03,-174.083 3064.03,-167.083"/>
</g>
<!-- Node26 -->
<g id="node26" class="node"><title>Node26</title>
<g id="a_node26"><a xlink:href="EnemiesMovementSystem_8cpp.html" target="_top" xlink:title="src/Systems/SystemConstructor\l/EnemiesMovementSystem/EnemiesMovement\lSystem.cpp">
<polygon fill="none" stroke="black" points="4574,-0.5 4574,-41.5 4818,-41.5 4818,-0.5 4574,-0.5"/>
<text text-anchor="start" x="4582" y="-29.5" font-family="Helvetica,sans-Serif" font-size="10.00">src/Systems/SystemConstructor</text>
<text text-anchor="start" x="4582" y="-18.5" font-family="Helvetica,sans-Serif" font-size="10.00">/EnemiesMovementSystem/EnemiesMovement</text>
<text text-anchor="middle" x="4696" y="-7.5" font-family="Helvetica,sans-Serif" font-size="10.00">System.cpp</text>
</a>
</g>
</g>
<!-- Node1&#45;&gt;Node26 -->
<g id="edge25" class="edge"><title>Node1&#45;&gt;Node26</title>
<path fill="none" stroke="midnightblue" d="M3064.23,-169.768C3402.85,-166.38 4740.82,-151.043 4771,-120 4784.01,-106.615 4779.37,-94.687 4771,-78 4763.35,-62.747 4749.36,-50.5854 4735.52,-41.5453"/>
<polygon fill="midnightblue" stroke="midnightblue" points="3064,-166.27 3054.03,-169.87 3064.07,-173.27 3064,-166.27"/>
</g>
<!-- Node27 -->
<g id="node27" class="node"><title>Node27</title>
<g id="a_node27"><a xlink:href="EnemiesMovementSystem_8hpp.html" target="_top" xlink:title="src/Systems/SystemConstructor\l/EnemiesMovementSystem/EnemiesMovement\lSystem.hpp">
<polygon fill="none" stroke="black" points="4518,-78.5 4518,-119.5 4762,-119.5 4762,-78.5 4518,-78.5"/>
<text text-anchor="start" x="4526" y="-107.5" font-family="Helvetica,sans-Serif" font-size="10.00">src/Systems/SystemConstructor</text>
<text text-anchor="start" x="4526" y="-96.5" font-family="Helvetica,sans-Serif" font-size="10.00">/EnemiesMovementSystem/EnemiesMovement</text>
<text text-anchor="middle" x="4640" y="-85.5" font-family="Helvetica,sans-Serif" font-size="10.00">System.hpp</text>
</a>
</g>
</g>
<!-- Node1&#45;&gt;Node27 -->
<g id="edge26" class="edge"><title>Node1&#45;&gt;Node27</title>
<path fill="none" stroke="midnightblue" d="M3064.33,-171.159C3288.37,-172.375 3957.08,-171.107 4509,-120 4511.86,-119.735 4514.76,-119.448 4517.68,-119.142"/>
<polygon fill="midnightblue" stroke="midnightblue" points="3064.33,-167.659 3054.31,-171.101 3064.29,-174.659 3064.33,-167.659"/>
</g>
<!-- Node28 -->
<g id="node28" class="node"><title>Node28</title>
<g id="a_node28"><a xlink:href="MovementSystem_8hpp.html" target="_top" xlink:title="src/Systems/SystemConstructor\l/MovementSystem/MovementSystem.hpp">
<polygon fill="none" stroke="black" points="4280.5,-84 4280.5,-114 4499.5,-114 4499.5,-84 4280.5,-84"/>
<text text-anchor="start" x="4288.5" y="-102" font-family="Helvetica,sans-Serif" font-size="10.00">src/Systems/SystemConstructor</text>
<text text-anchor="middle" x="4390" y="-91" font-family="Helvetica,sans-Serif" font-size="10.00">/MovementSystem/MovementSystem.hpp</text>
</a>
</g>
</g>
<!-- Node1&#45;&gt;Node28 -->
<g id="edge29" class="edge"><title>Node1&#45;&gt;Node28</title>
<path fill="none" stroke="midnightblue" d="M3064.2,-170.685C3263.6,-170.463 3812.03,-165.406 4266,-120 4280.97,-118.503 4296.88,-116.359 4312.13,-114.027"/>
<polygon fill="midnightblue" stroke="midnightblue" points="3064.11,-167.185 3054.11,-170.692 3064.12,-174.185 3064.11,-167.185"/>
</g>
<!-- Node30 -->
<g id="node30" class="node"><title>Node30</title>
<g id="a_node30"><a xlink:href="MovementSystem_8cpp.html" target="_top" xlink:title="src/Systems/SystemConstructor\l/MovementSystem/MovementSystem.cpp">
<polygon fill="none" stroke="black" points="4168,-6 4168,-36 4386,-36 4386,-6 4168,-6"/>
<text text-anchor="start" x="4176" y="-24" font-family="Helvetica,sans-Serif" font-size="10.00">src/Systems/SystemConstructor</text>
<text text-anchor="middle" x="4277" y="-13" font-family="Helvetica,sans-Serif" font-size="10.00">/MovementSystem/MovementSystem.cpp</text>
</a>
</g>
</g>
<!-- Node1&#45;&gt;Node30 -->
<g id="edge33" class="edge"><title>Node1&#45;&gt;Node30</title>
<path fill="none" stroke="midnightblue" d="M3064.34,-169.596C3328.96,-166.214 4184.53,-152.783 4233,-120 4261.43,-100.775 4271.72,-58.5593 4275.26,-36.3333"/>
<polygon fill="midnightblue" stroke="midnightblue" points="3064.01,-166.1 3054.05,-169.726 3064.1,-173.099 3064.01,-166.1"/>
</g>
<!-- Node31 -->
<g id="node31" class="node"><title>Node31</title>
<g id="a_node31"><a xlink:href="ParallaxSystem_8hpp.html" target="_top" xlink:title="src/Systems/SystemConstructor\l/ParallaxSystem/ParallaxSystem.hpp">
<polygon fill="none" stroke="black" points="4828.5,-84 4828.5,-114 5019.5,-114 5019.5,-84 4828.5,-84"/>
<text text-anchor="start" x="4836.5" y="-102" font-family="Helvetica,sans-Serif" font-size="10.00">src/Systems/SystemConstructor</text>
<text text-anchor="middle" x="4924" y="-91" font-family="Helvetica,sans-Serif" font-size="10.00">/ParallaxSystem/ParallaxSystem.hpp</text>
</a>
</g>
</g>
<!-- Node1&#45;&gt;Node31 -->
<g id="edge34" class="edge"><title>Node1&#45;&gt;Node31</title>
<path fill="none" stroke="midnightblue" d="M3064.63,-169.764C3365.99,-166.686 4458.65,-153.419 4804,-120 4818.82,-118.566 4834.58,-116.405 4849.64,-114.026"/>
<polygon fill="midnightblue" stroke="midnightblue" points="3064.21,-166.268 3054.25,-169.869 3064.28,-173.268 3064.21,-166.268"/>
</g>
<!-- Node36 -->
<g id="node36" class="node"><title>Node36</title>
<g id="a_node36"><a xlink:href="PlayerMovementSystem_8cpp.html" target="_top" xlink:title="src/Systems/SystemConstructor\l/PlayerMovementSystem/PlayerMovement\lSystem.cpp">
<polygon fill="none" stroke="black" points="3830,-0.5 3830,-41.5 4050,-41.5 4050,-0.5 3830,-0.5"/>
<text text-anchor="start" x="3838" y="-29.5" font-family="Helvetica,sans-Serif" font-size="10.00">src/Systems/SystemConstructor</text>
<text text-anchor="start" x="3838" y="-18.5" font-family="Helvetica,sans-Serif" font-size="10.00">/PlayerMovementSystem/PlayerMovement</text>
<text text-anchor="middle" x="3940" y="-7.5" font-family="Helvetica,sans-Serif" font-size="10.00">System.cpp</text>
</a>
</g>
</g>
<!-- Node1&#45;&gt;Node36 -->
<g id="edge40" class="edge"><title>Node1&#45;&gt;Node36</title>
<path fill="none" stroke="midnightblue" d="M3064.3,-169.345C3288.73,-165.616 3926.41,-152.22 3957,-120 3976.85,-99.0854 3963.57,-63.7537 3951.93,-41.715"/>
<polygon fill="midnightblue" stroke="midnightblue" points="3064.19,-165.846 3054.25,-169.51 3064.31,-172.845 3064.19,-165.846"/>
</g>
<!-- Node37 -->
<g id="node37" class="node"><title>Node37</title>
<g id="a_node37"><a xlink:href="PlayerMovementSystem_8hpp.html" target="_top" xlink:title="src/Systems/SystemConstructor\l/PlayerMovementSystem/PlayerMovement\lSystem.hpp">
<polygon fill="none" stroke="black" points="4004,-78.5 4004,-119.5 4224,-119.5 4224,-78.5 4004,-78.5"/>
<text text-anchor="start" x="4012" y="-107.5" font-family="Helvetica,sans-Serif" font-size="10.00">src/Systems/SystemConstructor</text>
<text text-anchor="start" x="4012" y="-96.5" font-family="Helvetica,sans-Serif" font-size="10.00">/PlayerMovementSystem/PlayerMovement</text>
<text text-anchor="middle" x="4114" y="-85.5" font-family="Helvetica,sans-Serif" font-size="10.00">System.hpp</text>
</a>
</g>
</g>
<!-- Node1&#45;&gt;Node37 -->
<g id="edge41" class="edge"><title>Node1&#45;&gt;Node37</title>
<path fill="none" stroke="midnightblue" d="M3064.12,-169.495C3232.58,-166.668 3645.91,-156.301 3990,-120 3994.55,-119.52 3999.2,-118.983 4003.88,-118.404"/>
<polygon fill="midnightblue" stroke="midnightblue" points="3064.04,-165.995 3054.1,-169.659 3064.16,-172.994 3064.04,-165.995"/>
</g>
<!-- Node23 -->
<g id="node23" class="node"><title>Node23</title>
<g id="a_node23"><a xlink:href="GameScene_8cpp.html" target="_top" xlink:title="src/Scenes/GameScene.cpp">
<polygon fill="none" stroke="black" points="4404,-11.5 4404,-30.5 4556,-30.5 4556,-11.5 4404,-11.5"/>
<text text-anchor="middle" x="4480" y="-18.5" font-family="Helvetica,sans-Serif" font-size="10.00">src/Scenes/GameScene.cpp</text>
</a>
</g>
</g>
<!-- Node22&#45;&gt;Node23 -->
<g id="edge22" class="edge"><title>Node22&#45;&gt;Node23</title>
<path fill="none" stroke="midnightblue" d="M5059.78,-82.3741C5049.43,-80.7527 5038.99,-79.2459 5029,-78 4823.75,-52.4002 4769.39,-73.7812 4565,-42 4547.02,-39.2048 4527.22,-34.6356 4511.26,-30.5697"/>
<polygon fill="midnightblue" stroke="midnightblue" points="5059.22,-85.8298 5069.65,-83.9588 5060.33,-78.9183 5059.22,-85.8298"/>
</g>
<!-- Node24 -->
<g id="node24" class="node"><title>Node24</title>
<g id="a_node24"><a xlink:href="AnimationSystem_8cpp.html" target="_top" xlink:title="src/Systems/SystemConstructor\l/AnimationSystem/AnimationSystem.cpp">
<polygon fill="none" stroke="black" points="5588,-6 5588,-36 5802,-36 5802,-6 5588,-6"/>
<text text-anchor="start" x="5596" y="-24" font-family="Helvetica,sans-Serif" font-size="10.00">src/Systems/SystemConstructor</text>
<text text-anchor="middle" x="5695" y="-13" font-family="Helvetica,sans-Serif" font-size="10.00">/AnimationSystem/AnimationSystem.cpp</text>
</a>
</g>
</g>
<!-- Node22&#45;&gt;Node24 -->
<g id="edge23" class="edge"><title>Node22&#45;&gt;Node24</title>
<path fill="none" stroke="midnightblue" d="M5233.3,-82.3619C5242.98,-80.8111 5252.69,-79.3236 5262,-78 5402.38,-58.0462 5438.63,-62.0543 5579,-42 5591.44,-40.2225 5604.6,-38.1447 5617.41,-36.0136"/>
<polygon fill="midnightblue" stroke="midnightblue" points="5232.57,-78.9358 5223.26,-83.9966 5233.69,-85.845 5232.57,-78.9358"/>
</g>
<!-- Node27&#45;&gt;Node23 -->
<g id="edge27" class="edge"><title>Node27&#45;&gt;Node23</title>
<path fill="none" stroke="midnightblue" d="M4589.76,-74.1357C4558.47,-59.2729 4520.1,-41.0454 4498,-30.552"/>
<polygon fill="midnightblue" stroke="midnightblue" points="4588.26,-77.299 4598.8,-78.4281 4591.26,-70.976 4588.26,-77.299"/>
</g>
<!-- Node27&#45;&gt;Node26 -->
<g id="edge28" class="edge"><title>Node27&#45;&gt;Node26</title>
<path fill="none" stroke="midnightblue" d="M4660.38,-70.3376C4667.43,-60.7777 4675.17,-50.2731 4681.63,-41.5056"/>
<polygon fill="midnightblue" stroke="midnightblue" points="4657.54,-68.3013 4654.42,-78.4281 4663.17,-72.4537 4657.54,-68.3013"/>
</g>
<!-- Node28&#45;&gt;Node23 -->
<g id="edge31" class="edge"><title>Node28&#45;&gt;Node23</title>
<path fill="none" stroke="midnightblue" d="M4414.82,-77.0444C4432.95,-61.7292 4456.61,-41.7548 4469.86,-30.5635"/>
<polygon fill="midnightblue" stroke="midnightblue" points="4412.31,-74.579 4406.93,-83.705 4416.83,-79.9273 4412.31,-74.579"/>
</g>
<!-- Node29 -->
<g id="node29" class="node"><title>Node29</title>
<g id="a_node29"><a xlink:href="Rtype_8cpp.html" target="_top" xlink:title="src/Rtype.cpp">
<polygon fill="none" stroke="black" points="4068.5,-11.5 4068.5,-30.5 4149.5,-30.5 4149.5,-11.5 4068.5,-11.5"/>
<text text-anchor="middle" x="4109" y="-18.5" font-family="Helvetica,sans-Serif" font-size="10.00">src/Rtype.cpp</text>
</a>
</g>
</g>
<!-- Node28&#45;&gt;Node29 -->
<g id="edge30" class="edge"><title>Node28&#45;&gt;Node29</title>
<path fill="none" stroke="midnightblue" d="M4311.07,-81.796C4266.08,-71.8313 4208.88,-57.9337 4159,-42 4148.85,-38.7571 4137.82,-34.4363 4128.71,-30.6407"/>
<polygon fill="midnightblue" stroke="midnightblue" points="4310.55,-85.2637 4321.06,-83.9886 4312.05,-78.4264 4310.55,-85.2637"/>
</g>
<!-- Node28&#45;&gt;Node30 -->
<g id="edge32" class="edge"><title>Node28&#45;&gt;Node30</title>
<path fill="none" stroke="midnightblue" d="M4360.69,-78.289C4341,-65.0455 4315.52,-47.9101 4297.88,-36.0413"/>
<polygon fill="midnightblue" stroke="midnightblue" points="4358.76,-81.2065 4369.01,-83.8831 4362.67,-75.398 4358.76,-81.2065"/>
</g>
<!-- Node31&#45;&gt;Node23 -->
<g id="edge37" class="edge"><title>Node31&#45;&gt;Node23</title>
<path fill="none" stroke="midnightblue" d="M4818.47,-83.7007C4746.74,-73.4532 4649.85,-58.5751 4565,-42 4548.04,-38.6866 4529.33,-34.3581 4513.79,-30.5757"/>
<polygon fill="midnightblue" stroke="midnightblue" points="4818.02,-87.1727 4828.42,-85.1156 4819.01,-80.2424 4818.02,-87.1727"/>
</g>
<!-- Node32 -->
<g id="node32" class="node"><title>Node32</title>
<g id="a_node32"><a xlink:href="ChooseRoomScene_8cpp.html" target="_top" xlink:title="src/Scenes/ChooseRoomScene.cpp">
<polygon fill="none" stroke="black" points="4836.5,-11.5 4836.5,-30.5 5021.5,-30.5 5021.5,-11.5 4836.5,-11.5"/>
<text text-anchor="middle" x="4929" y="-18.5" font-family="Helvetica,sans-Serif" font-size="10.00">src/Scenes/ChooseRoomScene.cpp</text>
</a>
</g>
</g>
<!-- Node31&#45;&gt;Node32 -->
<g id="edge35" class="edge"><title>Node31&#45;&gt;Node32</title>
<path fill="none" stroke="midnightblue" d="M4925.6,-73.6654C4926.57,-58.8956 4927.75,-40.9482 4928.44,-30.5635"/>
<polygon fill="midnightblue" stroke="midnightblue" points="4922.1,-73.4968 4924.94,-83.705 4929.09,-73.9564 4922.1,-73.4968"/>
</g>
<!-- Node33 -->
<g id="node33" class="node"><title>Node33</title>
<g id="a_node33"><a xlink:href="DefeatScene_8cpp.html" target="_top" xlink:title="src/Scenes/DefeatScene.cpp">
<polygon fill="none" stroke="black" points="5039.5,-11.5 5039.5,-30.5 5194.5,-30.5 5194.5,-11.5 5039.5,-11.5"/>
<text text-anchor="middle" x="5117" y="-18.5" font-family="Helvetica,sans-Serif" font-size="10.00">src/Scenes/DefeatScene.cpp</text>
</a>
</g>
</g>
<!-- Node31&#45;&gt;Node33 -->
<g id="edge36" class="edge"><title>Node31&#45;&gt;Node33</title>
<path fill="none" stroke="midnightblue" d="M4969.29,-80.1639C5008.91,-64.5649 5064.73,-42.5843 5095.14,-30.6061"/>
<polygon fill="midnightblue" stroke="midnightblue" points="4967.87,-76.9624 4959.85,-83.8831 4970.44,-83.4757 4967.87,-76.9624"/>
</g>
<!-- Node34 -->
<g id="node34" class="node"><title>Node34</title>
<g id="a_node34"><a xlink:href="MenuScene_8cpp.html" target="_top" xlink:title="src/Scenes/MenuScene.cpp">
<polygon fill="none" stroke="black" points="5212.5,-11.5 5212.5,-30.5 5361.5,-30.5 5361.5,-11.5 5212.5,-11.5"/>
<text text-anchor="middle" x="5287" y="-18.5" font-family="Helvetica,sans-Serif" font-size="10.00">src/Scenes/MenuScene.cpp</text>
</a>
</g>
</g>
<!-- Node31&#45;&gt;Node34 -->
<g id="edge38" class="edge"><title>Node31&#45;&gt;Node34</title>
<path fill="none" stroke="midnightblue" d="M5005.87,-81.9935C5074.5,-68.508 5167.03,-50.1484 5204,-42 5220.07,-38.4589 5237.81,-34.2286 5252.74,-30.5724"/>
<polygon fill="midnightblue" stroke="midnightblue" points="5005.07,-78.5846 4995.93,-83.946 5006.42,-85.4534 5005.07,-78.5846"/>
</g>
<!-- Node35 -->
<g id="node35" class="node"><title>Node35</title>
<g id="a_node35"><a xlink:href="ParallaxSystem_8cpp.html" target="_top" xlink:title="src/Systems/SystemConstructor\l/ParallaxSystem/ParallaxSystem.cpp">
<polygon fill="none" stroke="black" points="5380,-6 5380,-36 5570,-36 5570,-6 5380,-6"/>
<text text-anchor="start" x="5388" y="-24" font-family="Helvetica,sans-Serif" font-size="10.00">src/Systems/SystemConstructor</text>
<text text-anchor="middle" x="5475" y="-13" font-family="Helvetica,sans-Serif" font-size="10.00">/ParallaxSystem/ParallaxSystem.cpp</text>
</a>
</g>
</g>
<!-- Node31&#45;&gt;Node35 -->
<g id="edge39" class="edge"><title>Node31&#45;&gt;Node35</title>
<path fill="none" stroke="midnightblue" d="M5003.41,-82.1498C5012.03,-80.6457 5020.69,-79.227 5029,-78 5180.2,-55.6815 5219.82,-64.452 5371,-42 5382.55,-40.2849 5394.77,-38.1901 5406.61,-36.0095"/>
<polygon fill="midnightblue" stroke="midnightblue" points="5002.56,-78.746 4993.33,-83.9485 5003.79,-85.6371 5002.56,-78.746"/>
</g>
<!-- Node37&#45;&gt;Node23 -->
<g id="edge43" class="edge"><title>Node37&#45;&gt;Node23</title>
<path fill="none" stroke="midnightblue" d="M4226.11,-76.5738C4277.64,-66.4905 4339.51,-54.0528 4395,-42 4411.44,-38.428 4429.61,-34.1935 4444.91,-30.5426"/>
<polygon fill="midnightblue" stroke="midnightblue" points="4225.43,-73.1416 4216.28,-78.4933 4226.77,-80.0118 4225.43,-73.1416"/>
</g>
<!-- Node37&#45;&gt;Node29 -->
<g id="edge42" class="edge"><title>Node37&#45;&gt;Node29</title>
<path fill="none" stroke="midnightblue" d="M4112.03,-68.0508C4111.14,-54.5595 4110.16,-39.6493 4109.56,-30.552"/>
<polygon fill="midnightblue" stroke="midnightblue" points="4108.56,-68.6795 4112.71,-78.4281 4115.55,-68.2199 4108.56,-68.6795"/>
</g>
<!-- Node37&#45;&gt;Node36 -->
<g id="edge44" class="edge"><title>Node37&#45;&gt;Node36</title>
<path fill="none" stroke="midnightblue" d="M4059.81,-74.3291C4035.66,-63.7835 4007.57,-51.5129 3984.66,-41.5056"/>
<polygon fill="midnightblue" stroke="midnightblue" points="4058.63,-77.6328 4069.19,-78.4281 4061.43,-71.218 4058.63,-77.6328"/>
</g>
</g>
</svg>
