<?xml version="1.0" encoding="UTF-8" standalone="no"?>
<!DOCTYPE svg PUBLIC "-//W3C//DTD SVG 1.1//EN"
 "http://www.w3.org/Graphics/SVG/1.1/DTD/svg11.dtd">
<!-- Generated by graphviz version 2.38.0 (20140413.2041)
 -->
<!-- Title: src/Entities/EntityConstructor/WallSideEntity/WallSideEntity.hpp Pages: 1 -->
<svg width="542pt" height="263pt"
 viewBox="0.00 0.00 542.00 263.00" xmlns="http://www.w3.org/2000/svg" xmlns:xlink="http://www.w3.org/1999/xlink">
<g id="graph0" class="graph" transform="scale(1 1) rotate(0) translate(4 259)">
<title>src/Entities/EntityConstructor/WallSideEntity/WallSideEntity.hpp</title>
<!-- Node1 -->
<g id="node1" class="node"><title>Node1</title>
<polygon fill="#bfbfbf" stroke="black" points="172,-224.5 172,-254.5 346,-254.5 346,-224.5 172,-224.5"/>
<text text-anchor="start" x="180" y="-242.5" font-family="Helvetica,sans-Serif" font-size="10.00">src/Entities/EntityConstructor</text>
<text text-anchor="middle" x="259" y="-231.5" font-family="Helvetica,sans-Serif" font-size="10.00">/WallSideEntity/WallSideEntity.hpp</text>
</g>
<!-- Node2 -->
<g id="node2" class="node"><title>Node2</title>
<g id="a_node2"><a xlink:href="IEntityConstructor_8hpp.html" target="_top" xlink:title="IEntityConstructor.hpp">
<polygon fill="none" stroke="black" points="198,-168.5 198,-187.5 320,-187.5 320,-168.5 198,-168.5"/>
<text text-anchor="middle" x="259" y="-175.5" font-family="Helvetica,sans-Serif" font-size="10.00">IEntityConstructor.hpp</text>
</a>
</g>
</g>
<!-- Node1&#45;&gt;Node2 -->
<g id="edge1" class="edge"><title>Node1&#45;&gt;Node2</title>
<path fill="none" stroke="midnightblue" d="M259,-224.399C259,-216.466 259,-206.458 259,-197.858"/>
<polygon fill="midnightblue" stroke="midnightblue" points="262.5,-197.658 259,-187.658 255.5,-197.658 262.5,-197.658"/>
</g>
<!-- Node3 -->
<g id="node3" class="node"><title>Node3</title>
<polygon fill="none" stroke="#bfbfbf" points="152.5,-56.5 152.5,-75.5 209.5,-75.5 209.5,-56.5 152.5,-56.5"/>
<text text-anchor="middle" x="181" y="-63.5" font-family="Helvetica,sans-Serif" font-size="10.00">memory</text>
</g>
<!-- Node2&#45;&gt;Node3 -->
<g id="edge2" class="edge"><title>Node2&#45;&gt;Node3</title>
<path fill="none" stroke="midnightblue" d="M252.879,-168.368C240.007,-150.215 209.932,-107.802 193.048,-83.9902"/>
<polygon fill="midnightblue" stroke="midnightblue" points="195.731,-81.7243 187.092,-75.5914 190.021,-85.7733 195.731,-81.7243"/>
</g>
<!-- Node4 -->
<g id="node4" class="node"><title>Node4</title>
<polygon fill="none" stroke="#bfbfbf" points="490,-0.5 490,-19.5 534,-19.5 534,-0.5 490,-0.5"/>
<text text-anchor="middle" x="512" y="-7.5" font-family="Helvetica,sans-Serif" font-size="10.00">string</text>
</g>
<!-- Node2&#45;&gt;Node4 -->
<g id="edge3" class="edge"><title>Node2&#45;&gt;Node4</title>
<path fill="none" stroke="midnightblue" d="M317.099,-168.457C371.609,-157.188 450.87,-131.791 493,-76 503.175,-62.526 507.913,-43.7142 510.112,-29.7934"/>
<polygon fill="midnightblue" stroke="midnightblue" points="513.584,-30.2379 511.387,-19.8733 506.641,-29.3455 513.584,-30.2379"/>
</g>
<!-- Node5 -->
<g id="node5" class="node"><title>Node5</title>
<g id="a_node5"><a xlink:href="Entity_8hpp.html" target="_top" xlink:title="Entity.hpp">
<polygon fill="none" stroke="black" points="227.5,-56.5 227.5,-75.5 290.5,-75.5 290.5,-56.5 227.5,-56.5"/>
<text text-anchor="middle" x="259" y="-63.5" font-family="Helvetica,sans-Serif" font-size="10.00">Entity.hpp</text>
</a>
</g>
</g>
<!-- Node2&#45;&gt;Node5 -->
<g id="edge4" class="edge"><title>Node2&#45;&gt;Node5</title>
<path fill="none" stroke="midnightblue" d="M259,-168.368C259,-150.617 259,-109.666 259,-85.5974"/>
<polygon fill="midnightblue" stroke="midnightblue" points="262.5,-85.5914 259,-75.5914 255.5,-85.5915 262.5,-85.5914"/>
</g>
<!-- Node6 -->
<g id="node6" class="node"><title>Node6</title>
<g id="a_node6"><a xlink:href="IEntityManager_8hpp.html" target="_top" xlink:title="IEntityManager.hpp">
<polygon fill="none" stroke="black" points="287,-112.5 287,-131.5 395,-131.5 395,-112.5 287,-112.5"/>
<text text-anchor="middle" x="341" y="-119.5" font-family="Helvetica,sans-Serif" font-size="10.00">IEntityManager.hpp</text>
</a>
</g>
</g>
<!-- Node2&#45;&gt;Node6 -->
<g id="edge5" class="edge"><title>Node2&#45;&gt;Node6</title>
<path fill="none" stroke="midnightblue" d="M272.175,-168.324C284.847,-159.979 304.233,-147.212 319.206,-137.352"/>
<polygon fill="midnightblue" stroke="midnightblue" points="321.431,-140.078 327.858,-131.655 317.581,-134.231 321.431,-140.078"/>
</g>
<!-- Node11 -->
<g id="node11" class="node"><title>Node11</title>
<g id="a_node11"><a xlink:href="IComponentManager_8hpp.html" target="_top" xlink:title="IComponentManager.hpp">
<polygon fill="none" stroke="black" points="55.5,-112.5 55.5,-131.5 192.5,-131.5 192.5,-112.5 55.5,-112.5"/>
<text text-anchor="middle" x="124" y="-119.5" font-family="Helvetica,sans-Serif" font-size="10.00">IComponentManager.hpp</text>
</a>
</g>
</g>
<!-- Node2&#45;&gt;Node11 -->
<g id="edge13" class="edge"><title>Node2&#45;&gt;Node11</title>
<path fill="none" stroke="midnightblue" d="M237.609,-168.444C215.293,-159.517 180.097,-145.439 154.792,-135.317"/>
<polygon fill="midnightblue" stroke="midnightblue" points="155.876,-131.981 145.291,-131.516 153.276,-138.48 155.876,-131.981"/>
</g>
<!-- Node6&#45;&gt;Node3 -->
<g id="edge6" class="edge"><title>Node6&#45;&gt;Node3</title>
<path fill="none" stroke="midnightblue" d="M315.648,-112.444C288.731,-103.359 246.004,-88.9388 215.913,-78.7831"/>
<polygon fill="midnightblue" stroke="midnightblue" points="216.828,-75.3981 206.234,-75.5164 214.59,-82.0305 216.828,-75.3981"/>
</g>
<!-- Node6&#45;&gt;Node5 -->
<g id="edge8" class="edge"><title>Node6&#45;&gt;Node5</title>
<path fill="none" stroke="midnightblue" d="M327.825,-112.324C315.153,-103.979 295.767,-91.2122 280.794,-81.3524"/>
<polygon fill="midnightblue" stroke="midnightblue" points="282.419,-78.2313 272.142,-75.6545 278.569,-84.0776 282.419,-78.2313"/>
</g>
<!-- Node7 -->
<g id="node7" class="node"><title>Node7</title>
<polygon fill="none" stroke="#bfbfbf" points="308.5,-56.5 308.5,-75.5 355.5,-75.5 355.5,-56.5 308.5,-56.5"/>
<text text-anchor="middle" x="332" y="-63.5" font-family="Helvetica,sans-Serif" font-size="10.00">vector</text>
</g>
<!-- Node6&#45;&gt;Node7 -->
<g id="edge7" class="edge"><title>Node6&#45;&gt;Node7</title>
<path fill="none" stroke="midnightblue" d="M339.514,-112.083C338.321,-104.927 336.606,-94.6353 335.115,-85.6911"/>
<polygon fill="midnightblue" stroke="midnightblue" points="338.555,-85.0396 333.459,-75.7511 331.65,-86.1904 338.555,-85.0396"/>
</g>
<!-- Node8 -->
<g id="node8" class="node"><title>Node8</title>
<g id="a_node8"><a xlink:href="PacketManager_8hpp.html" target="_top" xlink:title="PacketManager.hpp">
<polygon fill="none" stroke="black" points="374,-56.5 374,-75.5 484,-75.5 484,-56.5 374,-56.5"/>
<text text-anchor="middle" x="429" y="-63.5" font-family="Helvetica,sans-Serif" font-size="10.00">PacketManager.hpp</text>
</a>
</g>
</g>
<!-- Node6&#45;&gt;Node8 -->
<g id="edge9" class="edge"><title>Node6&#45;&gt;Node8</title>
<path fill="none" stroke="midnightblue" d="M355.139,-112.324C368.866,-103.9 389.936,-90.9709 406.064,-81.0741"/>
<polygon fill="midnightblue" stroke="midnightblue" points="408.204,-83.8678 414.896,-75.6545 404.543,-77.9016 408.204,-83.8678"/>
</g>
<!-- Node8&#45;&gt;Node4 -->
<g id="edge10" class="edge"><title>Node8&#45;&gt;Node4</title>
<path fill="none" stroke="midnightblue" d="M442.335,-56.324C455.162,-47.979 474.785,-35.2122 489.94,-25.3524"/>
<polygon fill="midnightblue" stroke="midnightblue" points="492.224,-28.0417 498.698,-19.6545 488.407,-22.1742 492.224,-28.0417"/>
</g>
<!-- Node9 -->
<g id="node9" class="node"><title>Node9</title>
<polygon fill="none" stroke="#bfbfbf" points="217,-0.5 217,-19.5 247,-19.5 247,-0.5 217,-0.5"/>
<text text-anchor="middle" x="232" y="-7.5" font-family="Helvetica,sans-Serif" font-size="10.00">list</text>
</g>
<!-- Node8&#45;&gt;Node9 -->
<g id="edge11" class="edge"><title>Node8&#45;&gt;Node9</title>
<path fill="none" stroke="midnightblue" d="M397.785,-56.4435C358.681,-45.7248 292.478,-27.5777 256.706,-17.7722"/>
<polygon fill="midnightblue" stroke="midnightblue" points="257.627,-14.3956 247.057,-15.1274 255.776,-21.1466 257.627,-14.3956"/>
</g>
<!-- Node10 -->
<g id="node10" class="node"><title>Node10</title>
<g id="a_node10"><a xlink:href="Input_8hpp.html" target="_top" xlink:title="Render/Input.hpp">
<polygon fill="none" stroke="black" points="374,-0.5 374,-19.5 472,-19.5 472,-0.5 374,-0.5"/>
<text text-anchor="middle" x="423" y="-7.5" font-family="Helvetica,sans-Serif" font-size="10.00">Render/Input.hpp</text>
</a>
</g>
</g>
<!-- Node8&#45;&gt;Node10 -->
<g id="edge12" class="edge"><title>Node8&#45;&gt;Node10</title>
<path fill="none" stroke="midnightblue" d="M428.009,-56.083C427.214,-48.9272 426.071,-38.6353 425.077,-29.6911"/>
<polygon fill="midnightblue" stroke="midnightblue" points="428.555,-29.3034 423.972,-19.7511 421.598,-30.0765 428.555,-29.3034"/>
</g>
<!-- Node11&#45;&gt;Node3 -->
<g id="edge15" class="edge"><title>Node11&#45;&gt;Node3</title>
<path fill="none" stroke="midnightblue" d="M133.158,-112.324C141.501,-104.42 154.032,-92.5482 164.177,-82.9377"/>
<polygon fill="midnightblue" stroke="midnightblue" points="166.823,-85.2522 171.675,-75.8339 162.009,-80.1705 166.823,-85.2522"/>
</g>
<!-- Node11&#45;&gt;Node5 -->
<g id="edge18" class="edge"><title>Node11&#45;&gt;Node5</title>
<path fill="none" stroke="midnightblue" d="M145.391,-112.444C167.707,-103.517 202.903,-89.4387 228.208,-79.3168"/>
<polygon fill="midnightblue" stroke="midnightblue" points="229.724,-82.4801 237.709,-75.5164 227.124,-75.9807 229.724,-82.4801"/>
</g>
<!-- Node11&#45;&gt;Node9 -->
<g id="edge14" class="edge"><title>Node11&#45;&gt;Node9</title>
<path fill="none" stroke="midnightblue" d="M124.382,-112.415C125.406,-98.9366 129.171,-72.6356 143,-56 159.494,-36.1582 186.944,-24.1681 207.005,-17.6121"/>
<polygon fill="midnightblue" stroke="midnightblue" points="208.171,-20.9163 216.726,-14.6663 206.14,-14.2172 208.171,-20.9163"/>
</g>
<!-- Node12 -->
<g id="node12" class="node"><title>Node12</title>
<g id="a_node12"><a xlink:href="IComponent_8hpp.html" target="_top" xlink:title="IComponent.hpp">
<polygon fill="none" stroke="black" points="0,-56.5 0,-75.5 96,-75.5 96,-56.5 0,-56.5"/>
<text text-anchor="middle" x="48" y="-63.5" font-family="Helvetica,sans-Serif" font-size="10.00">IComponent.hpp</text>
</a>
</g>
</g>
<!-- Node11&#45;&gt;Node12 -->
<g id="edge16" class="edge"><title>Node11&#45;&gt;Node12</title>
<path fill="none" stroke="midnightblue" d="M111.789,-112.324C100.224,-104.107 82.6246,-91.6017 68.8393,-81.8069"/>
<polygon fill="midnightblue" stroke="midnightblue" points="70.612,-78.7729 60.4329,-75.8339 66.5575,-84.4791 70.612,-78.7729"/>
</g>
<!-- Node13 -->
<g id="node13" class="node"><title>Node13</title>
<polygon fill="none" stroke="#bfbfbf" points="16.5,-0.5 16.5,-19.5 79.5,-19.5 79.5,-0.5 16.5,-0.5"/>
<text text-anchor="middle" x="48" y="-7.5" font-family="Helvetica,sans-Serif" font-size="10.00">typeindex</text>
</g>
<!-- Node12&#45;&gt;Node13 -->
<g id="edge17" class="edge"><title>Node12&#45;&gt;Node13</title>
<path fill="none" stroke="midnightblue" d="M48,-56.083C48,-49.0059 48,-38.8611 48,-29.9865"/>
<polygon fill="midnightblue" stroke="midnightblue" points="51.5001,-29.751 48,-19.7511 44.5001,-29.7511 51.5001,-29.751"/>
</g>
</g>
</svg>
