<?xml version="1.0" encoding="UTF-8" standalone="no"?>
<!DOCTYPE svg PUBLIC "-//W3C//DTD SVG 1.1//EN"
 "http://www.w3.org/Graphics/SVG/1.1/DTD/svg11.dtd">
<!-- Generated by graphviz version 2.38.0 (20140413.2041)
 -->
<!-- Title: src/Entities/EntityConstructor/WallSideEntity/WallSideEntity.cpp Pages: 1 -->
<!--zoomable 319 -->
<svg id="main" version="1.1" xmlns="http://www.w3.org/2000/svg" xmlns:xlink="http://www.w3.org/1999/xlink" xml:space="preserve" onload="init(evt)">
<style type="text/css"><![CDATA[
.edge:hover path { stroke: red; }
.edge:hover polygon { stroke: red; fill: red; }
]]></style>
<script type="text/javascript"><![CDATA[
var edges = document.getElementsByTagName('g');
if (edges && edges.length) {
  for (var i=0;i<edges.length;i++) {
    if (edges[i].id.substr(0,4)=='edge') {
      edges[i].setAttribute('class','edge');
    }
  }
}
]]></script>
        <defs>
                <circle id="rim" cx="0" cy="0" r="7"/>
                <circle id="rim2" cx="0" cy="0" r="3.5"/>
                <g id="zoomPlus">
                        <use xlink:href="#rim" fill="#404040">
                                <set attributeName="fill" to="#808080" begin="zoomplus.mouseover" end="zoomplus.mouseout"/>
                        </use>
                        <path d="M-4,0h8M0,-4v8" fill="none" stroke="white" stroke-width="1.5" pointer-events="none"/>
                </g>
                <g id="zoomMin">
                        <use xlink:href="#rim" fill="#404040">
                                <set attributeName="fill" to="#808080" begin="zoomminus.mouseover" end="zoomminus.mouseout"/>
                        </use>
                        <path d="M-4,0h8" fill="none" stroke="white" stroke-width="1.5" pointer-events="none"/>
                </g>
                <g id="dirArrow">
                        <path fill="none" stroke="white" stroke-width="1.5" d="M0,-3.0v7 M-2.5,-0.5L0,-3.0L2.5,-0.5"/>
                </g>
               <g id="resetDef">
                       <use xlink:href="#rim2" fill="#404040">
                               <set attributeName="fill" to="#808080" begin="reset.mouseover" end="reset.mouseout"/>
                       </use>
               </g>
        </defs>

<script type="text/javascript">
var viewWidth = 787;
var viewHeight = 319;
var sectionId = 'dynsection-0';
</script>
<script xlink:href="svgpan.js"/>
<svg id="graph" class="graph">
<g id="viewport">
<title>src/Entities/EntityConstructor/WallSideEntity/WallSideEntity.cpp</title>
<!-- Node1 -->
<g id="node1" class="node"><title>Node1</title>
<polygon fill="#bfbfbf" stroke="black" points="468,-280.5 468,-310.5 641,-310.5 641,-280.5 468,-280.5"/>
<text text-anchor="start" x="476" y="-298.5" font-family="Helvetica,sans-Serif" font-size="10.00">src/Entities/EntityConstructor</text>
<text text-anchor="middle" x="554.5" y="-287.5" font-family="Helvetica,sans-Serif" font-size="10.00">/WallSideEntity/WallSideEntity.cpp</text>
</g>
<!-- Node2 -->
<g id="node2" class="node"><title>Node2</title>
<g id="a_node2"><a xlink:href="WallSideEntity_8hpp.html" target="_top" xlink:title="WallSideEntity.hpp">
<polygon fill="none" stroke="black" points="280.5,-224.5 280.5,-243.5 382.5,-243.5 382.5,-224.5 280.5,-224.5"/>
<text text-anchor="middle" x="331.5" y="-231.5" font-family="Helvetica,sans-Serif" font-size="10.00">WallSideEntity.hpp</text>
</a>
</g>
</g>
<!-- Node1&#45;&gt;Node2 -->
<g id="edge1" class="edge"><title>Node1&#45;&gt;Node2</title>
<path fill="none" stroke="midnightblue" d="M501.934,-280.475C462.622,-269.986 409.594,-255.837 373.184,-246.122"/>
<polygon fill="midnightblue" stroke="midnightblue" points="373.945,-242.703 363.381,-243.506 372.141,-249.466 373.945,-242.703"/>
</g>
<!-- Node15 -->
<g id="node15" class="node"><title>Node15</title>
<g id="a_node15"><a xlink:href="Rotation_8hpp.html" target="_top" xlink:title="Rotation.hpp">
<polygon fill="none" stroke="black" points="702,-224.5 702,-243.5 779,-243.5 779,-224.5 702,-224.5"/>
<text text-anchor="middle" x="740.5" y="-231.5" font-family="Helvetica,sans-Serif" font-size="10.00">Rotation.hpp</text>
</a>
</g>
</g>
<!-- Node1&#45;&gt;Node15 -->
<g id="edge20" class="edge"><title>Node1&#45;&gt;Node15</title>
<path fill="none" stroke="midnightblue" d="M598.579,-280.399C630.719,-270.118 673.757,-256.351 703.982,-246.682"/>
<polygon fill="midnightblue" stroke="midnightblue" points="705.249,-249.951 713.707,-243.571 703.116,-243.284 705.249,-249.951"/>
</g>
<!-- Node17 -->
<g id="node17" class="node"><title>Node17</title>
<g id="a_node17"><a xlink:href="Position_8hpp.html" target="_top" xlink:title="Position.hpp">
<polygon fill="none" stroke="black" points="609,-224.5 609,-243.5 684,-243.5 684,-224.5 609,-224.5"/>
<text text-anchor="middle" x="646.5" y="-231.5" font-family="Helvetica,sans-Serif" font-size="10.00">Position.hpp</text>
</a>
</g>
</g>
<!-- Node1&#45;&gt;Node17 -->
<g id="edge23" class="edge"><title>Node1&#45;&gt;Node17</title>
<path fill="none" stroke="midnightblue" d="M576.303,-280.399C590.912,-270.951 610.073,-258.559 624.685,-249.109"/>
<polygon fill="midnightblue" stroke="midnightblue" points="626.617,-252.027 633.113,-243.658 622.816,-246.15 626.617,-252.027"/>
</g>
<!-- Node19 -->
<g id="node19" class="node"><title>Node19</title>
<g id="a_node19"><a xlink:href="Collision_8hpp.html" target="_top" xlink:title="Collision.hpp">
<polygon fill="none" stroke="black" points="444,-168.5 444,-187.5 521,-187.5 521,-168.5 444,-168.5"/>
<text text-anchor="middle" x="482.5" y="-175.5" font-family="Helvetica,sans-Serif" font-size="10.00">Collision.hpp</text>
</a>
</g>
</g>
<!-- Node1&#45;&gt;Node19 -->
<g id="edge26" class="edge"><title>Node1&#45;&gt;Node19</title>
<path fill="none" stroke="midnightblue" d="M538.864,-280.2C529.145,-270.672 516.937,-257.467 508.5,-244 499.335,-229.371 492.337,-210.967 487.922,-197.479"/>
<polygon fill="midnightblue" stroke="midnightblue" points="491.25,-196.396 484.943,-187.883 484.565,-198.471 491.25,-196.396"/>
</g>
<!-- Node21 -->
<g id="node21" class="node"><title>Node21</title>
<g id="a_node21"><a xlink:href="Velocity_8hpp.html" target="_top" xlink:title="Velocity.hpp">
<polygon fill="none" stroke="black" points="518,-224.5 518,-243.5 591,-243.5 591,-224.5 518,-224.5"/>
<text text-anchor="middle" x="554.5" y="-231.5" font-family="Helvetica,sans-Serif" font-size="10.00">Velocity.hpp</text>
</a>
</g>
</g>
<!-- Node1&#45;&gt;Node21 -->
<g id="edge30" class="edge"><title>Node1&#45;&gt;Node21</title>
<path fill="none" stroke="midnightblue" d="M554.5,-280.399C554.5,-272.466 554.5,-262.458 554.5,-253.858"/>
<polygon fill="midnightblue" stroke="midnightblue" points="558,-253.658 554.5,-243.658 551,-253.658 558,-253.658"/>
</g>
<!-- Node3 -->
<g id="node3" class="node"><title>Node3</title>
<g id="a_node3"><a xlink:href="IEntityConstructor_8hpp.html" target="_top" xlink:title="IEntityConstructor.hpp">
<polygon fill="none" stroke="black" points="229.5,-168.5 229.5,-187.5 351.5,-187.5 351.5,-168.5 229.5,-168.5"/>
<text text-anchor="middle" x="290.5" y="-175.5" font-family="Helvetica,sans-Serif" font-size="10.00">IEntityConstructor.hpp</text>
</a>
</g>
</g>
<!-- Node2&#45;&gt;Node3 -->
<g id="edge2" class="edge"><title>Node2&#45;&gt;Node3</title>
<path fill="none" stroke="midnightblue" d="M324.73,-224.083C318.938,-216.455 310.442,-205.264 303.362,-195.941"/>
<polygon fill="midnightblue" stroke="midnightblue" points="305.979,-193.599 297.144,-187.751 300.404,-197.832 305.979,-193.599"/>
</g>
<!-- Node4 -->
<g id="node4" class="node"><title>Node4</title>
<polygon fill="none" stroke="#bfbfbf" points="194,-56.5 194,-75.5 251,-75.5 251,-56.5 194,-56.5"/>
<text text-anchor="middle" x="222.5" y="-63.5" font-family="Helvetica,sans-Serif" font-size="10.00">memory</text>
</g>
<!-- Node3&#45;&gt;Node4 -->
<g id="edge3" class="edge"><title>Node3&#45;&gt;Node4</title>
<path fill="none" stroke="midnightblue" d="M285.164,-168.368C273.992,-150.296 247.955,-108.176 233.199,-84.3074"/>
<polygon fill="midnightblue" stroke="midnightblue" points="236.046,-82.257 227.811,-75.5914 230.092,-85.9378 236.046,-82.257"/>
</g>
<!-- Node5 -->
<g id="node5" class="node"><title>Node5</title>
<polygon fill="none" stroke="#bfbfbf" points="422.5,-0.5 422.5,-19.5 466.5,-19.5 466.5,-0.5 422.5,-0.5"/>
<text text-anchor="middle" x="444.5" y="-7.5" font-family="Helvetica,sans-Serif" font-size="10.00">string</text>
</g>
<!-- Node3&#45;&gt;Node5 -->
<g id="edge4" class="edge"><title>Node3&#45;&gt;Node5</title>
<path fill="none" stroke="midnightblue" d="M351.708,-170.485C377.808,-164.555 406.364,-153.302 424.5,-132 449.148,-103.05 449.141,-55.6116 446.882,-29.565"/>
<polygon fill="midnightblue" stroke="midnightblue" points="450.353,-29.1049 445.804,-19.5363 443.393,-29.8532 450.353,-29.1049"/>
</g>
<!-- Node6 -->
<g id="node6" class="node"><title>Node6</title>
<g id="a_node6"><a xlink:href="Entity_8hpp.html" target="_top" xlink:title="Entity.hpp">
<polygon fill="none" stroke="black" points="269,-56.5 269,-75.5 332,-75.5 332,-56.5 269,-56.5"/>
<text text-anchor="middle" x="300.5" y="-63.5" font-family="Helvetica,sans-Serif" font-size="10.00">Entity.hpp</text>
</a>
</g>
</g>
<!-- Node3&#45;&gt;Node6 -->
<g id="edge5" class="edge"><title>Node3&#45;&gt;Node6</title>
<path fill="none" stroke="midnightblue" d="M284.093,-168.188C275.831,-155.708 263.229,-132.156 269.5,-112 272.729,-101.622 279.276,-91.5209 285.525,-83.5268"/>
<polygon fill="midnightblue" stroke="midnightblue" points="288.285,-85.6818 292.017,-75.7661 282.916,-81.1902 288.285,-85.6818"/>
</g>
<!-- Node7 -->
<g id="node7" class="node"><title>Node7</title>
<g id="a_node7"><a xlink:href="IEntityManager_8hpp.html" target="_top" xlink:title="IEntityManager.hpp">
<polygon fill="none" stroke="black" points="76.5,-112.5 76.5,-131.5 184.5,-131.5 184.5,-112.5 76.5,-112.5"/>
<text text-anchor="middle" x="130.5" y="-119.5" font-family="Helvetica,sans-Serif" font-size="10.00">IEntityManager.hpp</text>
</a>
</g>
</g>
<!-- Node3&#45;&gt;Node7 -->
<g id="edge6" class="edge"><title>Node3&#45;&gt;Node7</title>
<path fill="none" stroke="midnightblue" d="M265.148,-168.444C238.231,-159.359 195.504,-144.939 165.413,-134.783"/>
<polygon fill="midnightblue" stroke="midnightblue" points="166.328,-131.398 155.734,-131.516 164.09,-138.031 166.328,-131.398"/>
</g>
<!-- Node12 -->
<g id="node12" class="node"><title>Node12</title>
<g id="a_node12"><a xlink:href="IComponentManager_8hpp.html" target="_top" xlink:title="IComponentManager.hpp">
<polygon fill="none" stroke="black" points="279,-112.5 279,-131.5 416,-131.5 416,-112.5 279,-112.5"/>
<text text-anchor="middle" x="347.5" y="-119.5" font-family="Helvetica,sans-Serif" font-size="10.00">IComponentManager.hpp</text>
</a>
</g>
</g>
<!-- Node3&#45;&gt;Node12 -->
<g id="edge14" class="edge"><title>Node3&#45;&gt;Node12</title>
<path fill="none" stroke="midnightblue" d="M299.658,-168.324C308.001,-160.42 320.532,-148.548 330.677,-138.938"/>
<polygon fill="midnightblue" stroke="midnightblue" points="333.323,-141.252 338.175,-131.834 328.509,-136.171 333.323,-141.252"/>
</g>
<!-- Node7&#45;&gt;Node4 -->
<g id="edge7" class="edge"><title>Node7&#45;&gt;Node4</title>
<path fill="none" stroke="midnightblue" d="M145.281,-112.324C159.767,-103.822 182.073,-90.7288 198.993,-80.7975"/>
<polygon fill="midnightblue" stroke="midnightblue" points="200.903,-83.735 207.755,-75.6545 197.359,-77.6981 200.903,-83.735"/>
</g>
<!-- Node7&#45;&gt;Node6 -->
<g id="edge9" class="edge"><title>Node7&#45;&gt;Node6</title>
<path fill="none" stroke="midnightblue" d="M157.437,-112.444C186.16,-103.32 231.829,-88.8133 263.821,-78.6509"/>
<polygon fill="midnightblue" stroke="midnightblue" points="265.218,-81.8797 273.689,-75.5164 263.099,-75.2081 265.218,-81.8797"/>
</g>
<!-- Node8 -->
<g id="node8" class="node"><title>Node8</title>
<polygon fill="none" stroke="#bfbfbf" points="0,-56.5 0,-75.5 47,-75.5 47,-56.5 0,-56.5"/>
<text text-anchor="middle" x="23.5" y="-63.5" font-family="Helvetica,sans-Serif" font-size="10.00">vector</text>
</g>
<!-- Node7&#45;&gt;Node8 -->
<g id="edge8" class="edge"><title>Node7&#45;&gt;Node8</title>
<path fill="none" stroke="midnightblue" d="M113.309,-112.324C96.1491,-103.664 69.5543,-90.2424 49.7527,-80.249"/>
<polygon fill="midnightblue" stroke="midnightblue" points="51.1532,-77.0354 40.6487,-75.6545 47.9993,-83.2847 51.1532,-77.0354"/>
</g>
<!-- Node9 -->
<g id="node9" class="node"><title>Node9</title>
<g id="a_node9"><a xlink:href="PacketManager_8hpp.html" target="_top" xlink:title="PacketManager.hpp">
<polygon fill="none" stroke="black" points="65.5,-56.5 65.5,-75.5 175.5,-75.5 175.5,-56.5 65.5,-56.5"/>
<text text-anchor="middle" x="120.5" y="-63.5" font-family="Helvetica,sans-Serif" font-size="10.00">PacketManager.hpp</text>
</a>
</g>
</g>
<!-- Node7&#45;&gt;Node9 -->
<g id="edge10" class="edge"><title>Node7&#45;&gt;Node9</title>
<path fill="none" stroke="midnightblue" d="M128.849,-112.083C127.524,-104.927 125.618,-94.6353 123.961,-85.6911"/>
<polygon fill="midnightblue" stroke="midnightblue" points="127.383,-84.9466 122.121,-75.7511 120.5,-86.2212 127.383,-84.9466"/>
</g>
<!-- Node9&#45;&gt;Node5 -->
<g id="edge11" class="edge"><title>Node9&#45;&gt;Node5</title>
<path fill="none" stroke="midnightblue" d="M171.839,-56.4435C239.395,-45.1842 356.13,-25.7283 412.374,-16.3543"/>
<polygon fill="midnightblue" stroke="midnightblue" points="413.178,-19.7688 422.466,-14.6723 412.027,-12.864 413.178,-19.7688"/>
</g>
<!-- Node10 -->
<g id="node10" class="node"><title>Node10</title>
<polygon fill="none" stroke="#bfbfbf" points="266.5,-0.5 266.5,-19.5 296.5,-19.5 296.5,-0.5 266.5,-0.5"/>
<text text-anchor="middle" x="281.5" y="-7.5" font-family="Helvetica,sans-Serif" font-size="10.00">list</text>
</g>
<!-- Node9&#45;&gt;Node10 -->
<g id="edge12" class="edge"><title>Node9&#45;&gt;Node10</title>
<path fill="none" stroke="midnightblue" d="M146.011,-56.4435C176.31,-46.2813 226.516,-29.4419 256.561,-19.3646"/>
<polygon fill="midnightblue" stroke="midnightblue" points="257.914,-22.6025 266.282,-16.1041 255.688,-15.9658 257.914,-22.6025"/>
</g>
<!-- Node11 -->
<g id="node11" class="node"><title>Node11</title>
<g id="a_node11"><a xlink:href="Input_8hpp.html" target="_top" xlink:title="Render/Input.hpp">
<polygon fill="none" stroke="black" points="71.5,-0.5 71.5,-19.5 169.5,-19.5 169.5,-0.5 71.5,-0.5"/>
<text text-anchor="middle" x="120.5" y="-7.5" font-family="Helvetica,sans-Serif" font-size="10.00">Render/Input.hpp</text>
</a>
</g>
</g>
<!-- Node9&#45;&gt;Node11 -->
<g id="edge13" class="edge"><title>Node9&#45;&gt;Node11</title>
<path fill="none" stroke="midnightblue" d="M120.5,-56.083C120.5,-49.0059 120.5,-38.8611 120.5,-29.9865"/>
<polygon fill="midnightblue" stroke="midnightblue" points="124,-29.751 120.5,-19.7511 117,-29.7511 124,-29.751"/>
</g>
<!-- Node12&#45;&gt;Node4 -->
<g id="edge16" class="edge"><title>Node12&#45;&gt;Node4</title>
<path fill="none" stroke="midnightblue" d="M327.693,-112.444C307.213,-103.596 275.017,-89.6875 251.635,-79.5865"/>
<polygon fill="midnightblue" stroke="midnightblue" points="252.782,-76.2692 242.214,-75.5164 250.006,-82.6953 252.782,-76.2692"/>
</g>
<!-- Node12&#45;&gt;Node6 -->
<g id="edge19" class="edge"><title>Node12&#45;&gt;Node6</title>
<path fill="none" stroke="midnightblue" d="M339.739,-112.083C332.963,-104.298 322.957,-92.8015 314.745,-83.3665"/>
<polygon fill="midnightblue" stroke="midnightblue" points="317.322,-80.9963 308.117,-75.7511 312.042,-85.592 317.322,-80.9963"/>
</g>
<!-- Node12&#45;&gt;Node10 -->
<g id="edge15" class="edge"><title>Node12&#45;&gt;Node10</title>
<path fill="none" stroke="midnightblue" d="M348.626,-112.357C349.902,-99.2567 350.643,-73.9954 340.5,-56 332.509,-41.8219 318.036,-30.6782 305.425,-23.0269"/>
<polygon fill="midnightblue" stroke="midnightblue" points="307.117,-19.9627 296.691,-18.0793 303.667,-26.0534 307.117,-19.9627"/>
</g>
<!-- Node13 -->
<g id="node13" class="node"><title>Node13</title>
<g id="a_node13"><a xlink:href="IComponent_8hpp.html" target="_top" xlink:title="IComponent.hpp">
<polygon fill="none" stroke="black" points="533.5,-56.5 533.5,-75.5 629.5,-75.5 629.5,-56.5 533.5,-56.5"/>
<text text-anchor="middle" x="581.5" y="-63.5" font-family="Helvetica,sans-Serif" font-size="10.00">IComponent.hpp</text>
</a>
</g>
</g>
<!-- Node12&#45;&gt;Node13 -->
<g id="edge17" class="edge"><title>Node12&#45;&gt;Node13</title>
<path fill="none" stroke="midnightblue" d="M384.578,-112.444C425.228,-103.063 490.532,-87.9926 534.684,-77.8036"/>
<polygon fill="midnightblue" stroke="midnightblue" points="535.639,-81.1755 544.595,-75.5164 534.065,-74.3547 535.639,-81.1755"/>
</g>
<!-- Node14 -->
<g id="node14" class="node"><title>Node14</title>
<polygon fill="none" stroke="#bfbfbf" points="550,-0.5 550,-19.5 613,-19.5 613,-0.5 550,-0.5"/>
<text text-anchor="middle" x="581.5" y="-7.5" font-family="Helvetica,sans-Serif" font-size="10.00">typeindex</text>
</g>
<!-- Node13&#45;&gt;Node14 -->
<g id="edge18" class="edge"><title>Node13&#45;&gt;Node14</title>
<path fill="none" stroke="midnightblue" d="M581.5,-56.083C581.5,-49.0059 581.5,-38.8611 581.5,-29.9865"/>
<polygon fill="midnightblue" stroke="midnightblue" points="585,-29.751 581.5,-19.7511 578,-29.7511 585,-29.751"/>
</g>
<!-- Node16 -->
<g id="node16" class="node"><title>Node16</title>
<g id="a_node16"><a xlink:href="IPhysics_8hpp.html" target="_top" xlink:title="IPhysics.hpp">
<polygon fill="none" stroke="black" points="567,-112.5 567,-131.5 642,-131.5 642,-112.5 567,-112.5"/>
<text text-anchor="middle" x="604.5" y="-119.5" font-family="Helvetica,sans-Serif" font-size="10.00">IPhysics.hpp</text>
</a>
</g>
</g>
<!-- Node15&#45;&gt;Node16 -->
<g id="edge21" class="edge"><title>Node15&#45;&gt;Node16</title>
<path fill="none" stroke="midnightblue" d="M736.211,-224.399C729.121,-210.898 713.803,-184.567 694.5,-168 678.17,-153.984 656.716,-143.037 638.851,-135.451"/>
<polygon fill="midnightblue" stroke="midnightblue" points="639.932,-132.112 629.35,-131.584 637.293,-138.596 639.932,-132.112"/>
</g>
<!-- Node16&#45;&gt;Node13 -->
<g id="edge22" class="edge"><title>Node16&#45;&gt;Node13</title>
<path fill="none" stroke="midnightblue" d="M600.702,-112.083C597.587,-104.77 593.077,-94.1814 589.211,-85.1034"/>
<polygon fill="midnightblue" stroke="midnightblue" points="592.366,-83.5798 585.227,-75.7511 585.926,-86.3229 592.366,-83.5798"/>
</g>
<!-- Node17&#45;&gt;Node16 -->
<g id="edge25" class="edge"><title>Node17&#45;&gt;Node16</title>
<path fill="none" stroke="midnightblue" d="M656.22,-224.433C669.268,-211.853 689.596,-187.735 678.5,-168 670.279,-153.378 655.169,-142.954 640.737,-135.846"/>
<polygon fill="midnightblue" stroke="midnightblue" points="641.984,-132.569 631.429,-131.644 639.103,-138.949 641.984,-132.569"/>
</g>
<!-- Node18 -->
<g id="node18" class="node"><title>Node18</title>
<polygon fill="none" stroke="#bfbfbf" points="627.5,-168.5 627.5,-187.5 669.5,-187.5 669.5,-168.5 627.5,-168.5"/>
<text text-anchor="middle" x="648.5" y="-175.5" font-family="Helvetica,sans-Serif" font-size="10.00">utility</text>
</g>
<!-- Node17&#45;&gt;Node18 -->
<g id="edge24" class="edge"><title>Node17&#45;&gt;Node18</title>
<path fill="none" stroke="midnightblue" d="M646.83,-224.083C647.092,-217.006 647.468,-206.861 647.797,-197.986"/>
<polygon fill="midnightblue" stroke="midnightblue" points="651.303,-197.874 648.176,-187.751 644.308,-197.615 651.303,-197.874"/>
</g>
<!-- Node19&#45;&gt;Node5 -->
<g id="edge27" class="edge"><title>Node19&#45;&gt;Node5</title>
<path fill="none" stroke="midnightblue" d="M481.12,-168.422C477.848,-148.52 469.096,-97.722 458.5,-56 456.231,-47.0675 453.249,-37.2835 450.62,-29.1268"/>
<polygon fill="midnightblue" stroke="midnightblue" points="453.916,-27.9477 447.457,-19.5497 447.269,-30.1429 453.916,-27.9477"/>
</g>
<!-- Node19&#45;&gt;Node16 -->
<g id="edge29" class="edge"><title>Node19&#45;&gt;Node16</title>
<path fill="none" stroke="midnightblue" d="M501.831,-168.444C521.82,-159.596 553.243,-145.687 576.064,-135.586"/>
<polygon fill="midnightblue" stroke="midnightblue" points="577.532,-138.764 585.259,-131.516 574.698,-132.363 577.532,-138.764"/>
</g>
<!-- Node20 -->
<g id="node20" class="node"><title>Node20</title>
<polygon fill="none" stroke="#bfbfbf" points="510.5,-112.5 510.5,-131.5 548.5,-131.5 548.5,-112.5 510.5,-112.5"/>
<text text-anchor="middle" x="529.5" y="-119.5" font-family="Helvetica,sans-Serif" font-size="10.00">map</text>
</g>
<!-- Node19&#45;&gt;Node20 -->
<g id="edge28" class="edge"><title>Node19&#45;&gt;Node20</title>
<path fill="none" stroke="midnightblue" d="M490.261,-168.083C497.037,-160.298 507.043,-148.801 515.255,-139.367"/>
<polygon fill="midnightblue" stroke="midnightblue" points="517.958,-141.592 521.883,-131.751 512.678,-136.996 517.958,-141.592"/>
</g>
<!-- Node22 -->
<g id="node22" class="node"><title>Node22</title>
<g id="a_node22"><a xlink:href="Motion_8hpp.html" target="_top" xlink:title="Motion.hpp">
<polygon fill="none" stroke="black" points="539.5,-168.5 539.5,-187.5 609.5,-187.5 609.5,-168.5 539.5,-168.5"/>
<text text-anchor="middle" x="574.5" y="-175.5" font-family="Helvetica,sans-Serif" font-size="10.00">Motion.hpp</text>
</a>
</g>
</g>
<!-- Node21&#45;&gt;Node22 -->
<g id="edge31" class="edge"><title>Node21&#45;&gt;Node22</title>
<path fill="none" stroke="midnightblue" d="M557.803,-224.083C560.482,-216.849 564.349,-206.409 567.686,-197.397"/>
<polygon fill="midnightblue" stroke="midnightblue" points="571.068,-198.344 571.259,-187.751 564.504,-195.913 571.068,-198.344"/>
</g>
<!-- Node22&#45;&gt;Node16 -->
<g id="edge32" class="edge"><title>Node22&#45;&gt;Node16</title>
<path fill="none" stroke="midnightblue" d="M579.454,-168.083C583.604,-160.613 589.653,-149.724 594.767,-140.52"/>
<polygon fill="midnightblue" stroke="midnightblue" points="597.841,-142.192 599.638,-131.751 591.722,-138.793 597.841,-142.192"/>
</g>
</g>
</svg>
        <g id="navigator" transform="translate(0 0)" fill="#404254">
                <rect fill="#f2f5e9" fill-opacity="0.5" stroke="#606060" stroke-width=".5" x="0" y="0" width="60" height="60"/>
                <use id="zoomplus" xlink:href="#zoomPlus" x="17" y="9" onmousedown="handleZoom(evt,'in')"/>
                <use id="zoomminus" xlink:href="#zoomMin" x="42" y="9" onmousedown="handleZoom(evt,'out')"/>
                <use id="reset" xlink:href="#resetDef" x="30" y="36" onmousedown="handleReset()"/>
                <g id="arrowUp" xlink:href="#dirArrow" transform="translate(30 24)" onmousedown="handlePan(0,-1)">
                  <use xlink:href="#rim" fill="#404040">
                        <set attributeName="fill" to="#808080" begin="arrowUp.mouseover" end="arrowUp.mouseout"/>
                  </use>
                  <path fill="none" stroke="white" stroke-width="1.5" d="M0,-3.0v7 M-2.5,-0.5L0,-3.0L2.5,-0.5"/>
                </g>
                <g id="arrowRight" xlink:href="#dirArrow" transform="rotate(90) translate(36 -43)" onmousedown="handlePan(1,0)">
                  <use xlink:href="#rim" fill="#404040">
                        <set attributeName="fill" to="#808080" begin="arrowRight.mouseover" end="arrowRight.mouseout"/>
                  </use>
                  <path fill="none" stroke="white" stroke-width="1.5" d="M0,-3.0v7 M-2.5,-0.5L0,-3.0L2.5,-0.5"/>
                </g>
                <g id="arrowDown" xlink:href="#dirArrow" transform="rotate(180) translate(-30 -48)" onmousedown="handlePan(0,1)">
                  <use xlink:href="#rim" fill="#404040">
                        <set attributeName="fill" to="#808080" begin="arrowDown.mouseover" end="arrowDown.mouseout"/>
                  </use>
                  <path fill="none" stroke="white" stroke-width="1.5" d="M0,-3.0v7 M-2.5,-0.5L0,-3.0L2.5,-0.5"/>
                </g>
                <g id="arrowLeft" xlink:href="#dirArrow" transform="rotate(270) translate(-36 17)" onmousedown="handlePan(-1,0)">
                  <use xlink:href="#rim" fill="#404040">
                        <set attributeName="fill" to="#808080" begin="arrowLeft.mouseover" end="arrowLeft.mouseout"/>
                  </use>
                  <path fill="none" stroke="white" stroke-width="1.5" d="M0,-3.0v7 M-2.5,-0.5L0,-3.0L2.5,-0.5"/>
                </g>
        </g>
        <svg viewBox="0 0 15 15" width="100%" height="30px" preserveAspectRatio="xMaxYMin meet">
         <g id="arrow_out" transform="scale(0.3 0.3)">
          <a xlink:href="WallSideEntity_8cpp__incl_org.svg" target="_base">
           <rect id="button" ry="5" rx="5" y="6" x="6" height="38" width="38"
                fill="#f2f5e9" fill-opacity="0.5" stroke="#606060" stroke-width="1.0"/>
           <path id="arrow"
             d="M 11.500037,31.436501 C 11.940474,20.09759 22.043105,11.32322 32.158766,21.979434 L 37.068811,17.246167 C 37.068811,17.246167 37.088388,32 37.088388,32 L 22.160133,31.978069 C 22.160133,31.978069 26.997745,27.140456 26.997745,27.140456 C 18.528582,18.264221 13.291696,25.230495 11.500037,31.436501 z"
             style="fill:#404040;"/>
          </a>
         </g>
        </svg>
</svg>
