<?xml version="1.0" encoding="UTF-8" standalone="no"?><svg xmlns="http://www.w3.org/2000/svg" xmlns:xlink="http://www.w3.org/1999/xlink" contentScriptType="application/ecmascript" contentStyleType="text/css" height="717px" preserveAspectRatio="none" style="width:1763px;height:717px;" version="1.1" viewBox="0 0 1763 717" width="1763px" zoomAndPan="magnify"><defs><filter height="300%" id="f107b0jqn325ky" width="300%" x="-1" y="-1"><feGaussianBlur result="blurOut" stdDeviation="2.0"/><feColorMatrix in="blurOut" result="blurOut2" type="matrix" values="0 0 0 0 0 0 0 0 0 0 0 0 0 0 0 0 0 0 .4 0"/><feOffset dx="4.0" dy="4.0" in="blurOut2" result="blurOut3"/><feBlend in="SourceGraphic" in2="blurOut3" mode="normal"/></filter></defs><g><text fill="#000000" font-family="sans-serif" font-size="18" lengthAdjust="spacingAndGlyphs" textLength="174" x="798.5" y="16.708">R-Type Component</text><!--MD5=[4e13963c9dc916a21a8436ef39422b32]
class Component--><rect fill="#FEFECE" filter="url(#f107b0jqn325ky)" height="48" id="Component" style="stroke: #A80036; stroke-width: 1.5;" width="104" x="982.5" y="136.9531"/><ellipse cx="997.5" cy="152.9531" fill="#B4A7E5" rx="11" ry="11" style="stroke: #A80036; stroke-width: 1.0;"/><path d="M998.4531,149.7344 L998.4531,156.25 L1000.1719,156.25 C1000.625,156.25 1000.7656,156.2813 1000.9375,156.4063 C1001.1719,156.5781 1001.2813,156.8281 1001.2813,157.1094 C1001.2813,157.6719 1000.9219,157.9531 1000.1719,157.9531 L995.0313,157.9531 C994.625,157.9531 994.4219,157.9063 994.2656,157.7813 C994.0469,157.625 993.9063,157.3594 993.9063,157.1094 C993.9063,156.8125 994.0625,156.5313 994.3125,156.375 C994.4688,156.2656 994.5938,156.25 995.0313,156.25 L996.75,156.25 L996.75,149.7344 L995.0313,149.7344 C994.6094,149.7344 994.4219,149.7031 994.2656,149.5938 C994.0469,149.4219 993.9063,149.1719 993.9063,148.8906 C993.9063,148.6094 994.0625,148.3125 994.3125,148.1563 C994.4688,148.0625 994.5938,148.0469 995.0313,148.0469 L1000.1719,148.0469 C1000.625,148.0469 1000.7656,148.0781 1000.9375,148.1875 C1001.1719,148.3594 1001.2813,148.625 1001.2813,148.8906 C1001.2813,149.1875 1001.1406,149.4688 1000.875,149.625 C1000.75,149.7031 1000.5625,149.7344 1000.1719,149.7344 Z "/><text fill="#000000" font-family="sans-serif" font-size="12" font-style="italic" lengthAdjust="spacingAndGlyphs" textLength="72" x="1011.5" y="157.1074">Component</text><line style="stroke: #A80036; stroke-width: 1.5;" x1="983.5" x2="1085.5" y1="168.9531" y2="168.9531"/><line style="stroke: #A80036; stroke-width: 1.5;" x1="983.5" x2="1085.5" y1="176.9531" y2="176.9531"/><!--MD5=[b78e42fe1f33f5c4bf0e37a39b0075a9]
class Physics--><rect fill="#FEFECE" filter="url(#f107b0jqn325ky)" height="48" id="Physics" style="stroke: #A80036; stroke-width: 1.5;" width="76" x="318.5" y="244.9531"/><ellipse cx="333.5" cy="260.9531" fill="#B4A7E5" rx="11" ry="11" style="stroke: #A80036; stroke-width: 1.0;"/><path d="M334.4531,257.7344 L334.4531,264.25 L336.1719,264.25 C336.625,264.25 336.7656,264.2813 336.9375,264.4063 C337.1719,264.5781 337.2813,264.8281 337.2813,265.1094 C337.2813,265.6719 336.9219,265.9531 336.1719,265.9531 L331.0313,265.9531 C330.625,265.9531 330.4219,265.9063 330.2656,265.7813 C330.0469,265.625 329.9063,265.3594 329.9063,265.1094 C329.9063,264.8125 330.0625,264.5313 330.3125,264.375 C330.4688,264.2656 330.5938,264.25 331.0313,264.25 L332.75,264.25 L332.75,257.7344 L331.0313,257.7344 C330.6094,257.7344 330.4219,257.7031 330.2656,257.5938 C330.0469,257.4219 329.9063,257.1719 329.9063,256.8906 C329.9063,256.6094 330.0625,256.3125 330.3125,256.1563 C330.4688,256.0625 330.5938,256.0469 331.0313,256.0469 L336.1719,256.0469 C336.625,256.0469 336.7656,256.0781 336.9375,256.1875 C337.1719,256.3594 337.2813,256.625 337.2813,256.8906 C337.2813,257.1875 337.1406,257.4688 336.875,257.625 C336.75,257.7031 336.5625,257.7344 336.1719,257.7344 Z "/><text fill="#000000" font-family="sans-serif" font-size="12" font-style="italic" lengthAdjust="spacingAndGlyphs" textLength="44" x="347.5" y="265.1074">Physics</text><line style="stroke: #A80036; stroke-width: 1.5;" x1="319.5" x2="393.5" y1="276.9531" y2="276.9531"/><line style="stroke: #A80036; stroke-width: 1.5;" x1="319.5" x2="393.5" y1="284.9531" y2="284.9531"/><!--MD5=[292033ffe4750640675b59034298e578]
class Display--><rect fill="#FEFECE" filter="url(#f107b0jqn325ky)" height="48" id="Display" style="stroke: #A80036; stroke-width: 1.5;" width="76" x="776.5" y="244.9531"/><ellipse cx="791.5" cy="260.9531" fill="#B4A7E5" rx="11" ry="11" style="stroke: #A80036; stroke-width: 1.0;"/><path d="M792.4531,257.7344 L792.4531,264.25 L794.1719,264.25 C794.625,264.25 794.7656,264.2813 794.9375,264.4063 C795.1719,264.5781 795.2813,264.8281 795.2813,265.1094 C795.2813,265.6719 794.9219,265.9531 794.1719,265.9531 L789.0313,265.9531 C788.625,265.9531 788.4219,265.9063 788.2656,265.7813 C788.0469,265.625 787.9063,265.3594 787.9063,265.1094 C787.9063,264.8125 788.0625,264.5313 788.3125,264.375 C788.4688,264.2656 788.5938,264.25 789.0313,264.25 L790.75,264.25 L790.75,257.7344 L789.0313,257.7344 C788.6094,257.7344 788.4219,257.7031 788.2656,257.5938 C788.0469,257.4219 787.9063,257.1719 787.9063,256.8906 C787.9063,256.6094 788.0625,256.3125 788.3125,256.1563 C788.4688,256.0625 788.5938,256.0469 789.0313,256.0469 L794.1719,256.0469 C794.625,256.0469 794.7656,256.0781 794.9375,256.1875 C795.1719,256.3594 795.2813,256.625 795.2813,256.8906 C795.2813,257.1875 795.1406,257.4688 794.875,257.625 C794.75,257.7031 794.5625,257.7344 794.1719,257.7344 Z "/><text fill="#000000" font-family="sans-serif" font-size="12" font-style="italic" lengthAdjust="spacingAndGlyphs" textLength="44" x="805.5" y="265.1074">Display</text><line style="stroke: #A80036; stroke-width: 1.5;" x1="777.5" x2="851.5" y1="276.9531" y2="276.9531"/><line style="stroke: #A80036; stroke-width: 1.5;" x1="777.5" x2="851.5" y1="284.9531" y2="284.9531"/><!--MD5=[8d6909d044ac0c385411b8170b0bfc43]
class IO--><rect fill="#FEFECE" filter="url(#f107b0jqn325ky)" height="48" id="IO" style="stroke: #A80036; stroke-width: 1.5;" width="44" x="1012.5" y="244.9531"/><ellipse cx="1027.5" cy="260.9531" fill="#B4A7E5" rx="11" ry="11" style="stroke: #A80036; stroke-width: 1.0;"/><path d="M1028.4531,257.7344 L1028.4531,264.25 L1030.1719,264.25 C1030.625,264.25 1030.7656,264.2813 1030.9375,264.4063 C1031.1719,264.5781 1031.2813,264.8281 1031.2813,265.1094 C1031.2813,265.6719 1030.9219,265.9531 1030.1719,265.9531 L1025.0313,265.9531 C1024.625,265.9531 1024.4219,265.9063 1024.2656,265.7813 C1024.0469,265.625 1023.9063,265.3594 1023.9063,265.1094 C1023.9063,264.8125 1024.0625,264.5313 1024.3125,264.375 C1024.4688,264.2656 1024.5938,264.25 1025.0313,264.25 L1026.75,264.25 L1026.75,257.7344 L1025.0313,257.7344 C1024.6094,257.7344 1024.4219,257.7031 1024.2656,257.5938 C1024.0469,257.4219 1023.9063,257.1719 1023.9063,256.8906 C1023.9063,256.6094 1024.0625,256.3125 1024.3125,256.1563 C1024.4688,256.0625 1024.5938,256.0469 1025.0313,256.0469 L1030.1719,256.0469 C1030.625,256.0469 1030.7656,256.0781 1030.9375,256.1875 C1031.1719,256.3594 1031.2813,256.625 1031.2813,256.8906 C1031.2813,257.1875 1031.1406,257.4688 1030.875,257.625 C1030.75,257.7031 1030.5625,257.7344 1030.1719,257.7344 Z "/><text fill="#000000" font-family="sans-serif" font-size="12" font-style="italic" lengthAdjust="spacingAndGlyphs" textLength="12" x="1041.5" y="265.1074">IO</text><line style="stroke: #A80036; stroke-width: 1.5;" x1="1013.5" x2="1055.5" y1="276.9531" y2="276.9531"/><line style="stroke: #A80036; stroke-width: 1.5;" x1="1013.5" x2="1055.5" y1="284.9531" y2="284.9531"/><!--MD5=[69cd7bb0186966cdb12d6f14492428f2]
class GameLogic--><rect fill="#FEFECE" filter="url(#f107b0jqn325ky)" height="48" id="GameLogic" style="stroke: #A80036; stroke-width: 1.5;" width="101" x="1314" y="244.9531"/><ellipse cx="1329" cy="260.9531" fill="#B4A7E5" rx="11" ry="11" style="stroke: #A80036; stroke-width: 1.0;"/><path d="M1329.9531,257.7344 L1329.9531,264.25 L1331.6719,264.25 C1332.125,264.25 1332.2656,264.2813 1332.4375,264.4063 C1332.6719,264.5781 1332.7813,264.8281 1332.7813,265.1094 C1332.7813,265.6719 1332.4219,265.9531 1331.6719,265.9531 L1326.5313,265.9531 C1326.125,265.9531 1325.9219,265.9063 1325.7656,265.7813 C1325.5469,265.625 1325.4063,265.3594 1325.4063,265.1094 C1325.4063,264.8125 1325.5625,264.5313 1325.8125,264.375 C1325.9688,264.2656 1326.0938,264.25 1326.5313,264.25 L1328.25,264.25 L1328.25,257.7344 L1326.5313,257.7344 C1326.1094,257.7344 1325.9219,257.7031 1325.7656,257.5938 C1325.5469,257.4219 1325.4063,257.1719 1325.4063,256.8906 C1325.4063,256.6094 1325.5625,256.3125 1325.8125,256.1563 C1325.9688,256.0625 1326.0938,256.0469 1326.5313,256.0469 L1331.6719,256.0469 C1332.125,256.0469 1332.2656,256.0781 1332.4375,256.1875 C1332.6719,256.3594 1332.7813,256.625 1332.7813,256.8906 C1332.7813,257.1875 1332.6406,257.4688 1332.375,257.625 C1332.25,257.7031 1332.0625,257.7344 1331.6719,257.7344 Z "/><text fill="#000000" font-family="sans-serif" font-size="12" font-style="italic" lengthAdjust="spacingAndGlyphs" textLength="69" x="1343" y="265.1074">GameLogic</text><line style="stroke: #A80036; stroke-width: 1.5;" x1="1315" x2="1414" y1="276.9531" y2="276.9531"/><line style="stroke: #A80036; stroke-width: 1.5;" x1="1315" x2="1414" y1="284.9531" y2="284.9531"/><!--MD5=[ec81f511f4d20a18ef555a8be4cd58b8]
class Network--><rect fill="#FEFECE" filter="url(#f107b0jqn325ky)" height="48" id="Network" style="stroke: #A80036; stroke-width: 1.5;" width="83" x="1450" y="244.9531"/><ellipse cx="1465" cy="260.9531" fill="#ADD1B2" rx="11" ry="11" style="stroke: #A80036; stroke-width: 1.0;"/><path d="M1467.3438,256.625 L1467.5156,256.7031 C1467.7344,256.3906 1467.9375,256.2969 1468.2344,256.2969 C1468.5313,256.2969 1468.8125,256.4375 1468.9688,256.7031 C1469.0625,256.8594 1469.0781,256.9844 1469.0781,257.4219 L1469.0781,258.8438 C1469.0781,259.2656 1469.0469,259.4531 1468.9375,259.6094 C1468.7656,259.8281 1468.5,259.9688 1468.2344,259.9688 C1468.0156,259.9688 1467.7813,259.8594 1467.6406,259.7188 C1467.5,259.5938 1467.4688,259.4688 1467.4063,259.0625 C1467.3125,258.6563 1467.1406,258.4375 1466.6563,258.1563 C1466.1875,257.9063 1465.5781,257.75 1465,257.75 C1463.2656,257.75 1462.0156,259.0625 1462.0156,260.8438 L1462.0156,261.9375 C1462.0156,263.6406 1463.3125,264.7344 1465.3594,264.7344 C1466.125,264.7344 1466.8125,264.6094 1467.2344,264.3438 C1467.4219,264.25 1467.4219,264.25 1467.875,263.7656 C1468.0625,263.5781 1468.2656,263.5 1468.4844,263.5 C1468.9531,263.5 1469.3438,263.8906 1469.3438,264.3438 C1469.3438,264.7344 1469.0156,265.1875 1468.4375,265.5938 C1467.6875,266.1406 1466.5313,266.4375 1465.3125,266.4375 C1462.4219,266.4375 1460.3125,264.5469 1460.3125,261.9688 L1460.3125,260.8438 C1460.3125,258.125 1462.3125,256.0469 1464.9375,256.0469 C1465.8125,256.0469 1466.4063,256.1875 1467.3438,256.625 Z "/><text fill="#000000" font-family="sans-serif" font-size="12" lengthAdjust="spacingAndGlyphs" textLength="51" x="1479" y="265.1074">Network</text><line style="stroke: #A80036; stroke-width: 1.5;" x1="1451" x2="1532" y1="276.9531" y2="276.9531"/><line style="stroke: #A80036; stroke-width: 1.5;" x1="1451" x2="1532" y1="284.9531" y2="284.9531"/><!--MD5=[ff25ba106c2736c8f78ea00203cf714d]
class Gravity--><rect fill="#FEFECE" filter="url(#f107b0jqn325ky)" height="60.8047" id="Gravity" style="stroke: #A80036; stroke-width: 1.5;" width="89" x="6" y="371.9531"/><ellipse cx="27.75" cy="387.9531" fill="#ADD1B2" rx="11" ry="11" style="stroke: #A80036; stroke-width: 1.0;"/><path d="M30.0938,383.625 L30.2656,383.7031 C30.4844,383.3906 30.6875,383.2969 30.9844,383.2969 C31.2813,383.2969 31.5625,383.4375 31.7188,383.7031 C31.8125,383.8594 31.8281,383.9844 31.8281,384.4219 L31.8281,385.8438 C31.8281,386.2656 31.7969,386.4531 31.6875,386.6094 C31.5156,386.8281 31.25,386.9688 30.9844,386.9688 C30.7656,386.9688 30.5313,386.8594 30.3906,386.7188 C30.25,386.5938 30.2188,386.4688 30.1563,386.0625 C30.0625,385.6563 29.8906,385.4375 29.4063,385.1563 C28.9375,384.9063 28.3281,384.75 27.75,384.75 C26.0156,384.75 24.7656,386.0625 24.7656,387.8438 L24.7656,388.9375 C24.7656,390.6406 26.0625,391.7344 28.1094,391.7344 C28.875,391.7344 29.5625,391.6094 29.9844,391.3438 C30.1719,391.25 30.1719,391.25 30.625,390.7656 C30.8125,390.5781 31.0156,390.5 31.2344,390.5 C31.7031,390.5 32.0938,390.8906 32.0938,391.3438 C32.0938,391.7344 31.7656,392.1875 31.1875,392.5938 C30.4375,393.1406 29.2813,393.4375 28.0625,393.4375 C25.1719,393.4375 23.0625,391.5469 23.0625,388.9688 L23.0625,387.8438 C23.0625,385.125 25.0625,383.0469 27.6875,383.0469 C28.5625,383.0469 29.1563,383.1875 30.0938,383.625 Z "/><text fill="#000000" font-family="sans-serif" font-size="12" lengthAdjust="spacingAndGlyphs" textLength="42" x="43.25" y="392.1074">Gravity</text><line style="stroke: #A80036; stroke-width: 1.5;" x1="7" x2="94" y1="403.9531" y2="403.9531"/><rect fill="none" height="6" style="stroke: #C82930; stroke-width: 1.0;" width="6" x="14" y="411.9531"/><text fill="#000000" font-family="sans-serif" font-size="11" lengthAdjust="spacingAndGlyphs" textLength="63" x="26" y="418.1636">value: float</text><line style="stroke: #A80036; stroke-width: 1.5;" x1="7" x2="94" y1="424.7578" y2="424.7578"/><!--MD5=[41178c8a85c8951a5fc67ad610e8f0cf]
class Collision--><rect fill="#FEFECE" filter="url(#f107b0jqn325ky)" height="99.2188" id="Collision" style="stroke: #A80036; stroke-width: 1.5;" width="94" x="130.5" y="352.9531"/><ellipse cx="150.45" cy="368.9531" fill="#ADD1B2" rx="11" ry="11" style="stroke: #A80036; stroke-width: 1.0;"/><path d="M152.7938,364.625 L152.9656,364.7031 C153.1844,364.3906 153.3875,364.2969 153.6844,364.2969 C153.9813,364.2969 154.2625,364.4375 154.4188,364.7031 C154.5125,364.8594 154.5281,364.9844 154.5281,365.4219 L154.5281,366.8438 C154.5281,367.2656 154.4969,367.4531 154.3875,367.6094 C154.2156,367.8281 153.95,367.9688 153.6844,367.9688 C153.4656,367.9688 153.2313,367.8594 153.0906,367.7188 C152.95,367.5938 152.9188,367.4688 152.8563,367.0625 C152.7625,366.6563 152.5906,366.4375 152.1063,366.1563 C151.6375,365.9063 151.0281,365.75 150.45,365.75 C148.7156,365.75 147.4656,367.0625 147.4656,368.8438 L147.4656,369.9375 C147.4656,371.6406 148.7625,372.7344 150.8094,372.7344 C151.575,372.7344 152.2625,372.6094 152.6844,372.3438 C152.8719,372.25 152.8719,372.25 153.325,371.7656 C153.5125,371.5781 153.7156,371.5 153.9344,371.5 C154.4031,371.5 154.7938,371.8906 154.7938,372.3438 C154.7938,372.7344 154.4656,373.1875 153.8875,373.5938 C153.1375,374.1406 151.9813,374.4375 150.7625,374.4375 C147.8719,374.4375 145.7625,372.5469 145.7625,369.9688 L145.7625,368.8438 C145.7625,366.125 147.7625,364.0469 150.3875,364.0469 C151.2625,364.0469 151.8563,364.1875 152.7938,364.625 Z "/><text fill="#000000" font-family="sans-serif" font-size="12" lengthAdjust="spacingAndGlyphs" textLength="51" x="165.55" y="373.1074">Collision</text><line style="stroke: #A80036; stroke-width: 1.5;" x1="131.5" x2="223.5" y1="384.9531" y2="384.9531"/><rect fill="none" height="6" style="stroke: #C82930; stroke-width: 1.0;" width="6" x="138.5" y="392.9531"/><text fill="#000000" font-family="sans-serif" font-size="11" lengthAdjust="spacingAndGlyphs" textLength="10" x="150.5" y="399.1636">x:</text><rect fill="none" height="6" style="stroke: #C82930; stroke-width: 1.0;" width="6" x="138.5" y="405.7578"/><text fill="#000000" font-family="sans-serif" font-size="11" lengthAdjust="spacingAndGlyphs" textLength="10" x="150.5" y="411.9683">y:</text><rect fill="none" height="6" style="stroke: #C82930; stroke-width: 1.0;" width="6" x="138.5" y="418.5625"/><text fill="#000000" font-family="sans-serif" font-size="11" lengthAdjust="spacingAndGlyphs" textLength="68" x="150.5" y="424.7729">height: float</text><rect fill="none" height="6" style="stroke: #C82930; stroke-width: 1.0;" width="6" x="138.5" y="431.3672"/><text fill="#000000" font-family="sans-serif" font-size="11" lengthAdjust="spacingAndGlyphs" textLength="63" x="150.5" y="437.5776">width: float</text><line style="stroke: #A80036; stroke-width: 1.5;" x1="131.5" x2="223.5" y1="444.1719" y2="444.1719"/><!--MD5=[03a5d524294366684d910e502d39cdd7]
class Motion--><rect fill="#FEFECE" filter="url(#f107b0jqn325ky)" height="48" id="Motion" style="stroke: #A80036; stroke-width: 1.5;" width="74" x="259.5" y="378.4531"/><ellipse cx="274.5" cy="394.4531" fill="#ADD1B2" rx="11" ry="11" style="stroke: #A80036; stroke-width: 1.0;"/><path d="M276.8438,390.125 L277.0156,390.2031 C277.2344,389.8906 277.4375,389.7969 277.7344,389.7969 C278.0313,389.7969 278.3125,389.9375 278.4688,390.2031 C278.5625,390.3594 278.5781,390.4844 278.5781,390.9219 L278.5781,392.3438 C278.5781,392.7656 278.5469,392.9531 278.4375,393.1094 C278.2656,393.3281 278,393.4688 277.7344,393.4688 C277.5156,393.4688 277.2813,393.3594 277.1406,393.2188 C277,393.0938 276.9688,392.9688 276.9063,392.5625 C276.8125,392.1563 276.6406,391.9375 276.1563,391.6563 C275.6875,391.4063 275.0781,391.25 274.5,391.25 C272.7656,391.25 271.5156,392.5625 271.5156,394.3438 L271.5156,395.4375 C271.5156,397.1406 272.8125,398.2344 274.8594,398.2344 C275.625,398.2344 276.3125,398.1094 276.7344,397.8438 C276.9219,397.75 276.9219,397.75 277.375,397.2656 C277.5625,397.0781 277.7656,397 277.9844,397 C278.4531,397 278.8438,397.3906 278.8438,397.8438 C278.8438,398.2344 278.5156,398.6875 277.9375,399.0938 C277.1875,399.6406 276.0313,399.9375 274.8125,399.9375 C271.9219,399.9375 269.8125,398.0469 269.8125,395.4688 L269.8125,394.3438 C269.8125,391.625 271.8125,389.5469 274.4375,389.5469 C275.3125,389.5469 275.9063,389.6875 276.8438,390.125 Z "/><text fill="#000000" font-family="sans-serif" font-size="12" lengthAdjust="spacingAndGlyphs" textLength="42" x="288.5" y="398.6074">Motion</text><line style="stroke: #A80036; stroke-width: 1.5;" x1="260.5" x2="332.5" y1="410.4531" y2="410.4531"/><line style="stroke: #A80036; stroke-width: 1.5;" x1="260.5" x2="332.5" y1="418.4531" y2="418.4531"/><!--MD5=[b3f936e81876ac724f4d627f53e31a83]
class Velocity--><rect fill="#FEFECE" filter="url(#f107b0jqn325ky)" height="60.8047" id="Velocity" style="stroke: #A80036; stroke-width: 1.5;" width="89" x="132" y="511.9531"/><ellipse cx="151.05" cy="527.9531" fill="#ADD1B2" rx="11" ry="11" style="stroke: #A80036; stroke-width: 1.0;"/><path d="M153.3938,523.625 L153.5656,523.7031 C153.7844,523.3906 153.9875,523.2969 154.2844,523.2969 C154.5813,523.2969 154.8625,523.4375 155.0188,523.7031 C155.1125,523.8594 155.1281,523.9844 155.1281,524.4219 L155.1281,525.8438 C155.1281,526.2656 155.0969,526.4531 154.9875,526.6094 C154.8156,526.8281 154.55,526.9688 154.2844,526.9688 C154.0656,526.9688 153.8313,526.8594 153.6906,526.7188 C153.55,526.5938 153.5188,526.4688 153.4563,526.0625 C153.3625,525.6563 153.1906,525.4375 152.7063,525.1563 C152.2375,524.9063 151.6281,524.75 151.05,524.75 C149.3156,524.75 148.0656,526.0625 148.0656,527.8438 L148.0656,528.9375 C148.0656,530.6406 149.3625,531.7344 151.4094,531.7344 C152.175,531.7344 152.8625,531.6094 153.2844,531.3438 C153.4719,531.25 153.4719,531.25 153.925,530.7656 C154.1125,530.5781 154.3156,530.5 154.5344,530.5 C155.0031,530.5 155.3938,530.8906 155.3938,531.3438 C155.3938,531.7344 155.0656,532.1875 154.4875,532.5938 C153.7375,533.1406 152.5813,533.4375 151.3625,533.4375 C148.4719,533.4375 146.3625,531.5469 146.3625,528.9688 L146.3625,527.8438 C146.3625,525.125 148.3625,523.0469 150.9875,523.0469 C151.8625,523.0469 152.4563,523.1875 153.3938,523.625 Z "/><text fill="#000000" font-family="sans-serif" font-size="12" lengthAdjust="spacingAndGlyphs" textLength="48" x="165.95" y="532.1074">Velocity</text><line style="stroke: #A80036; stroke-width: 1.5;" x1="133" x2="220" y1="543.9531" y2="543.9531"/><rect fill="none" height="6" style="stroke: #C82930; stroke-width: 1.0;" width="6" x="140" y="551.9531"/><text fill="#000000" font-family="sans-serif" font-size="11" lengthAdjust="spacingAndGlyphs" textLength="63" x="152" y="558.1636">value: float</text><line style="stroke: #A80036; stroke-width: 1.5;" x1="133" x2="220" y1="564.7578" y2="564.7578"/><!--MD5=[bc39a93972ee56a020d0ede45fbe8c90]
class Acceleration--><rect fill="#FEFECE" filter="url(#f107b0jqn325ky)" height="60.8047" id="Acceleration" style="stroke: #A80036; stroke-width: 1.5;" width="110" x="256.5" y="511.9531"/><ellipse cx="271.5" cy="527.9531" fill="#ADD1B2" rx="11" ry="11" style="stroke: #A80036; stroke-width: 1.0;"/><path d="M273.8438,523.625 L274.0156,523.7031 C274.2344,523.3906 274.4375,523.2969 274.7344,523.2969 C275.0313,523.2969 275.3125,523.4375 275.4688,523.7031 C275.5625,523.8594 275.5781,523.9844 275.5781,524.4219 L275.5781,525.8438 C275.5781,526.2656 275.5469,526.4531 275.4375,526.6094 C275.2656,526.8281 275,526.9688 274.7344,526.9688 C274.5156,526.9688 274.2813,526.8594 274.1406,526.7188 C274,526.5938 273.9688,526.4688 273.9063,526.0625 C273.8125,525.6563 273.6406,525.4375 273.1563,525.1563 C272.6875,524.9063 272.0781,524.75 271.5,524.75 C269.7656,524.75 268.5156,526.0625 268.5156,527.8438 L268.5156,528.9375 C268.5156,530.6406 269.8125,531.7344 271.8594,531.7344 C272.625,531.7344 273.3125,531.6094 273.7344,531.3438 C273.9219,531.25 273.9219,531.25 274.375,530.7656 C274.5625,530.5781 274.7656,530.5 274.9844,530.5 C275.4531,530.5 275.8438,530.8906 275.8438,531.3438 C275.8438,531.7344 275.5156,532.1875 274.9375,532.5938 C274.1875,533.1406 273.0313,533.4375 271.8125,533.4375 C268.9219,533.4375 266.8125,531.5469 266.8125,528.9688 L266.8125,527.8438 C266.8125,525.125 268.8125,523.0469 271.4375,523.0469 C272.3125,523.0469 272.9063,523.1875 273.8438,523.625 Z "/><text fill="#000000" font-family="sans-serif" font-size="12" lengthAdjust="spacingAndGlyphs" textLength="78" x="285.5" y="532.1074">Acceleration</text><line style="stroke: #A80036; stroke-width: 1.5;" x1="257.5" x2="365.5" y1="543.9531" y2="543.9531"/><rect fill="none" height="6" style="stroke: #C82930; stroke-width: 1.0;" width="6" x="264.5" y="551.9531"/><text fill="#000000" font-family="sans-serif" font-size="11" lengthAdjust="spacingAndGlyphs" textLength="63" x="276.5" y="558.1636">value: float</text><line style="stroke: #A80036; stroke-width: 1.5;" x1="257.5" x2="365.5" y1="564.7578" y2="564.7578"/><!--MD5=[004b1d6c4ca8aad4ba8b586a335ed4f3]
class Transform--><rect fill="#FEFECE" filter="url(#f107b0jqn325ky)" height="60.8047" id="Transform" style="stroke: #A80036; stroke-width: 1.5;" width="95" x="369" y="371.9531"/><ellipse cx="384" cy="387.9531" fill="#ADD1B2" rx="11" ry="11" style="stroke: #A80036; stroke-width: 1.0;"/><path d="M386.3438,383.625 L386.5156,383.7031 C386.7344,383.3906 386.9375,383.2969 387.2344,383.2969 C387.5313,383.2969 387.8125,383.4375 387.9688,383.7031 C388.0625,383.8594 388.0781,383.9844 388.0781,384.4219 L388.0781,385.8438 C388.0781,386.2656 388.0469,386.4531 387.9375,386.6094 C387.7656,386.8281 387.5,386.9688 387.2344,386.9688 C387.0156,386.9688 386.7813,386.8594 386.6406,386.7188 C386.5,386.5938 386.4688,386.4688 386.4063,386.0625 C386.3125,385.6563 386.1406,385.4375 385.6563,385.1563 C385.1875,384.9063 384.5781,384.75 384,384.75 C382.2656,384.75 381.0156,386.0625 381.0156,387.8438 L381.0156,388.9375 C381.0156,390.6406 382.3125,391.7344 384.3594,391.7344 C385.125,391.7344 385.8125,391.6094 386.2344,391.3438 C386.4219,391.25 386.4219,391.25 386.875,390.7656 C387.0625,390.5781 387.2656,390.5 387.4844,390.5 C387.9531,390.5 388.3438,390.8906 388.3438,391.3438 C388.3438,391.7344 388.0156,392.1875 387.4375,392.5938 C386.6875,393.1406 385.5313,393.4375 384.3125,393.4375 C381.4219,393.4375 379.3125,391.5469 379.3125,388.9688 L379.3125,387.8438 C379.3125,385.125 381.3125,383.0469 383.9375,383.0469 C384.8125,383.0469 385.4063,383.1875 386.3438,383.625 Z "/><text fill="#000000" font-family="sans-serif" font-size="12" lengthAdjust="spacingAndGlyphs" textLength="63" x="398" y="392.1074">Transform</text><line style="stroke: #A80036; stroke-width: 1.5;" x1="370" x2="463" y1="403.9531" y2="403.9531"/><rect fill="none" height="6" style="stroke: #C82930; stroke-width: 1.0;" width="6" x="377" y="411.9531"/><text fill="#000000" font-family="sans-serif" font-size="11" lengthAdjust="spacingAndGlyphs" textLength="63" x="389" y="418.1636">value: float</text><line style="stroke: #A80036; stroke-width: 1.5;" x1="370" x2="463" y1="424.7578" y2="424.7578"/><!--MD5=[61ba0ca66d1a1c02bd08c8b9838d8fcd]
class Rotation--><rect fill="#FEFECE" filter="url(#f107b0jqn325ky)" height="60.8047" id="Rotation" style="stroke: #A80036; stroke-width: 1.5;" width="109" x="499" y="371.9531"/><ellipse cx="524.8" cy="387.9531" fill="#ADD1B2" rx="11" ry="11" style="stroke: #A80036; stroke-width: 1.0;"/><path d="M527.1438,383.625 L527.3156,383.7031 C527.5344,383.3906 527.7375,383.2969 528.0344,383.2969 C528.3313,383.2969 528.6125,383.4375 528.7688,383.7031 C528.8625,383.8594 528.8781,383.9844 528.8781,384.4219 L528.8781,385.8438 C528.8781,386.2656 528.8469,386.4531 528.7375,386.6094 C528.5656,386.8281 528.3,386.9688 528.0344,386.9688 C527.8156,386.9688 527.5813,386.8594 527.4406,386.7188 C527.3,386.5938 527.2688,386.4688 527.2063,386.0625 C527.1125,385.6563 526.9406,385.4375 526.4563,385.1563 C525.9875,384.9063 525.3781,384.75 524.8,384.75 C523.0656,384.75 521.8156,386.0625 521.8156,387.8438 L521.8156,388.9375 C521.8156,390.6406 523.1125,391.7344 525.1594,391.7344 C525.925,391.7344 526.6125,391.6094 527.0344,391.3438 C527.2219,391.25 527.2219,391.25 527.675,390.7656 C527.8625,390.5781 528.0656,390.5 528.2844,390.5 C528.7531,390.5 529.1438,390.8906 529.1438,391.3438 C529.1438,391.7344 528.8156,392.1875 528.2375,392.5938 C527.4875,393.1406 526.3313,393.4375 525.1125,393.4375 C522.2219,393.4375 520.1125,391.5469 520.1125,388.9688 L520.1125,387.8438 C520.1125,385.125 522.1125,383.0469 524.7375,383.0469 C525.6125,383.0469 526.2063,383.1875 527.1438,383.625 Z "/><text fill="#000000" font-family="sans-serif" font-size="12" lengthAdjust="spacingAndGlyphs" textLength="53" x="541.2" y="392.1074">Rotation</text><line style="stroke: #A80036; stroke-width: 1.5;" x1="500" x2="607" y1="403.9531" y2="403.9531"/><rect fill="none" height="6" style="stroke: #C82930; stroke-width: 1.0;" width="6" x="507" y="411.9531"/><text fill="#000000" font-family="sans-serif" font-size="11" lengthAdjust="spacingAndGlyphs" textLength="83" x="519" y="418.1636">radAngle: float</text><line style="stroke: #A80036; stroke-width: 1.5;" x1="500" x2="607" y1="424.7578" y2="424.7578"/><!--MD5=[df76e760f2062188d44f98c21a88999b]
class UI--><rect fill="#FEFECE" filter="url(#f107b0jqn325ky)" height="48" id="UI" style="stroke: #A80036; stroke-width: 1.5;" width="44" x="643.5" y="378.4531"/><ellipse cx="658.5" cy="394.4531" fill="#ADD1B2" rx="11" ry="11" style="stroke: #A80036; stroke-width: 1.0;"/><path d="M660.8438,390.125 L661.0156,390.2031 C661.2344,389.8906 661.4375,389.7969 661.7344,389.7969 C662.0313,389.7969 662.3125,389.9375 662.4688,390.2031 C662.5625,390.3594 662.5781,390.4844 662.5781,390.9219 L662.5781,392.3438 C662.5781,392.7656 662.5469,392.9531 662.4375,393.1094 C662.2656,393.3281 662,393.4688 661.7344,393.4688 C661.5156,393.4688 661.2813,393.3594 661.1406,393.2188 C661,393.0938 660.9688,392.9688 660.9063,392.5625 C660.8125,392.1563 660.6406,391.9375 660.1563,391.6563 C659.6875,391.4063 659.0781,391.25 658.5,391.25 C656.7656,391.25 655.5156,392.5625 655.5156,394.3438 L655.5156,395.4375 C655.5156,397.1406 656.8125,398.2344 658.8594,398.2344 C659.625,398.2344 660.3125,398.1094 660.7344,397.8438 C660.9219,397.75 660.9219,397.75 661.375,397.2656 C661.5625,397.0781 661.7656,397 661.9844,397 C662.4531,397 662.8438,397.3906 662.8438,397.8438 C662.8438,398.2344 662.5156,398.6875 661.9375,399.0938 C661.1875,399.6406 660.0313,399.9375 658.8125,399.9375 C655.9219,399.9375 653.8125,398.0469 653.8125,395.4688 L653.8125,394.3438 C653.8125,391.625 655.8125,389.5469 658.4375,389.5469 C659.3125,389.5469 659.9063,389.6875 660.8438,390.125 Z "/><text fill="#000000" font-family="sans-serif" font-size="12" lengthAdjust="spacingAndGlyphs" textLength="12" x="672.5" y="398.6074">UI</text><line style="stroke: #A80036; stroke-width: 1.5;" x1="644.5" x2="686.5" y1="410.4531" y2="410.4531"/><line style="stroke: #A80036; stroke-width: 1.5;" x1="644.5" x2="686.5" y1="418.4531" y2="418.4531"/><!--MD5=[85c2ed8dbf494cb60783de624603a7dd]
class Sprite--><rect fill="#FEFECE" filter="url(#f107b0jqn325ky)" height="60.8047" id="Sprite" style="stroke: #A80036; stroke-width: 1.5;" width="69" x="723" y="371.9531"/><ellipse cx="738" cy="387.9531" fill="#ADD1B2" rx="11" ry="11" style="stroke: #A80036; stroke-width: 1.0;"/><path d="M740.3438,383.625 L740.5156,383.7031 C740.7344,383.3906 740.9375,383.2969 741.2344,383.2969 C741.5313,383.2969 741.8125,383.4375 741.9688,383.7031 C742.0625,383.8594 742.0781,383.9844 742.0781,384.4219 L742.0781,385.8438 C742.0781,386.2656 742.0469,386.4531 741.9375,386.6094 C741.7656,386.8281 741.5,386.9688 741.2344,386.9688 C741.0156,386.9688 740.7813,386.8594 740.6406,386.7188 C740.5,386.5938 740.4688,386.4688 740.4063,386.0625 C740.3125,385.6563 740.1406,385.4375 739.6563,385.1563 C739.1875,384.9063 738.5781,384.75 738,384.75 C736.2656,384.75 735.0156,386.0625 735.0156,387.8438 L735.0156,388.9375 C735.0156,390.6406 736.3125,391.7344 738.3594,391.7344 C739.125,391.7344 739.8125,391.6094 740.2344,391.3438 C740.4219,391.25 740.4219,391.25 740.875,390.7656 C741.0625,390.5781 741.2656,390.5 741.4844,390.5 C741.9531,390.5 742.3438,390.8906 742.3438,391.3438 C742.3438,391.7344 742.0156,392.1875 741.4375,392.5938 C740.6875,393.1406 739.5313,393.4375 738.3125,393.4375 C735.4219,393.4375 733.3125,391.5469 733.3125,388.9688 L733.3125,387.8438 C733.3125,385.125 735.3125,383.0469 737.9375,383.0469 C738.8125,383.0469 739.4063,383.1875 740.3438,383.625 Z "/><text fill="#000000" font-family="sans-serif" font-size="12" lengthAdjust="spacingAndGlyphs" textLength="37" x="752" y="392.1074">Sprite</text><line style="stroke: #A80036; stroke-width: 1.5;" x1="724" x2="791" y1="403.9531" y2="403.9531"/><rect fill="none" height="6" style="stroke: #C82930; stroke-width: 1.0;" width="6" x="731" y="411.9531"/><text fill="#000000" font-family="sans-serif" font-size="11" lengthAdjust="spacingAndGlyphs" textLength="39" x="743" y="418.1636">id: uint</text><line style="stroke: #A80036; stroke-width: 1.5;" x1="724" x2="791" y1="424.7578" y2="424.7578"/><!--MD5=[8b805049d0499e23d33da8a1efc9f54d]
class Animator--><rect fill="#FEFECE" filter="url(#f107b0jqn325ky)" height="60.8047" id="Animator" style="stroke: #A80036; stroke-width: 1.5;" width="88" x="827.5" y="371.9531"/><ellipse cx="842.5" cy="387.9531" fill="#ADD1B2" rx="11" ry="11" style="stroke: #A80036; stroke-width: 1.0;"/><path d="M844.8438,383.625 L845.0156,383.7031 C845.2344,383.3906 845.4375,383.2969 845.7344,383.2969 C846.0313,383.2969 846.3125,383.4375 846.4688,383.7031 C846.5625,383.8594 846.5781,383.9844 846.5781,384.4219 L846.5781,385.8438 C846.5781,386.2656 846.5469,386.4531 846.4375,386.6094 C846.2656,386.8281 846,386.9688 845.7344,386.9688 C845.5156,386.9688 845.2813,386.8594 845.1406,386.7188 C845,386.5938 844.9688,386.4688 844.9063,386.0625 C844.8125,385.6563 844.6406,385.4375 844.1563,385.1563 C843.6875,384.9063 843.0781,384.75 842.5,384.75 C840.7656,384.75 839.5156,386.0625 839.5156,387.8438 L839.5156,388.9375 C839.5156,390.6406 840.8125,391.7344 842.8594,391.7344 C843.625,391.7344 844.3125,391.6094 844.7344,391.3438 C844.9219,391.25 844.9219,391.25 845.375,390.7656 C845.5625,390.5781 845.7656,390.5 845.9844,390.5 C846.4531,390.5 846.8438,390.8906 846.8438,391.3438 C846.8438,391.7344 846.5156,392.1875 845.9375,392.5938 C845.1875,393.1406 844.0313,393.4375 842.8125,393.4375 C839.9219,393.4375 837.8125,391.5469 837.8125,388.9688 L837.8125,387.8438 C837.8125,385.125 839.8125,383.0469 842.4375,383.0469 C843.3125,383.0469 843.9063,383.1875 844.8438,383.625 Z "/><text fill="#000000" font-family="sans-serif" font-size="12" lengthAdjust="spacingAndGlyphs" textLength="56" x="856.5" y="392.1074">Animator</text><line style="stroke: #A80036; stroke-width: 1.5;" x1="828.5" x2="914.5" y1="403.9531" y2="403.9531"/><rect fill="none" height="6" style="stroke: #C82930; stroke-width: 1.0;" width="6" x="835.5" y="411.9531"/><text fill="#000000" font-family="sans-serif" font-size="11" lengthAdjust="spacingAndGlyphs" textLength="39" x="847.5" y="418.1636">id: uint</text><line style="stroke: #A80036; stroke-width: 1.5;" x1="828.5" x2="914.5" y1="424.7578" y2="424.7578"/><!--MD5=[90ba54f54370e77ef24813dec6818fa3]
class Button--><rect fill="#FEFECE" filter="url(#f107b0jqn325ky)" height="60.8047" id="Button" style="stroke: #A80036; stroke-width: 1.5;" width="74" x="415.5" y="511.9531"/><ellipse cx="430.5" cy="527.9531" fill="#ADD1B2" rx="11" ry="11" style="stroke: #A80036; stroke-width: 1.0;"/><path d="M432.8438,523.625 L433.0156,523.7031 C433.2344,523.3906 433.4375,523.2969 433.7344,523.2969 C434.0313,523.2969 434.3125,523.4375 434.4688,523.7031 C434.5625,523.8594 434.5781,523.9844 434.5781,524.4219 L434.5781,525.8438 C434.5781,526.2656 434.5469,526.4531 434.4375,526.6094 C434.2656,526.8281 434,526.9688 433.7344,526.9688 C433.5156,526.9688 433.2813,526.8594 433.1406,526.7188 C433,526.5938 432.9688,526.4688 432.9063,526.0625 C432.8125,525.6563 432.6406,525.4375 432.1563,525.1563 C431.6875,524.9063 431.0781,524.75 430.5,524.75 C428.7656,524.75 427.5156,526.0625 427.5156,527.8438 L427.5156,528.9375 C427.5156,530.6406 428.8125,531.7344 430.8594,531.7344 C431.625,531.7344 432.3125,531.6094 432.7344,531.3438 C432.9219,531.25 432.9219,531.25 433.375,530.7656 C433.5625,530.5781 433.7656,530.5 433.9844,530.5 C434.4531,530.5 434.8438,530.8906 434.8438,531.3438 C434.8438,531.7344 434.5156,532.1875 433.9375,532.5938 C433.1875,533.1406 432.0313,533.4375 430.8125,533.4375 C427.9219,533.4375 425.8125,531.5469 425.8125,528.9688 L425.8125,527.8438 C425.8125,525.125 427.8125,523.0469 430.4375,523.0469 C431.3125,523.0469 431.9063,523.1875 432.8438,523.625 Z "/><text fill="#000000" font-family="sans-serif" font-size="12" lengthAdjust="spacingAndGlyphs" textLength="42" x="444.5" y="532.1074">Button</text><line style="stroke: #A80036; stroke-width: 1.5;" x1="416.5" x2="488.5" y1="543.9531" y2="543.9531"/><rect fill="none" height="6" style="stroke: #C82930; stroke-width: 1.0;" width="6" x="423.5" y="551.9531"/><text fill="#000000" font-family="sans-serif" font-size="11" lengthAdjust="spacingAndGlyphs" textLength="39" x="435.5" y="558.1636">id: uint</text><line style="stroke: #A80036; stroke-width: 1.5;" x1="416.5" x2="488.5" y1="564.7578" y2="564.7578"/><!--MD5=[528925e99774133c6327b5925d78184b]
class PopUp--><rect fill="#FEFECE" filter="url(#f107b0jqn325ky)" height="60.8047" id="PopUp" style="stroke: #A80036; stroke-width: 1.5;" width="73" x="525" y="511.9531"/><ellipse cx="540" cy="527.9531" fill="#ADD1B2" rx="11" ry="11" style="stroke: #A80036; stroke-width: 1.0;"/><path d="M542.3438,523.625 L542.5156,523.7031 C542.7344,523.3906 542.9375,523.2969 543.2344,523.2969 C543.5313,523.2969 543.8125,523.4375 543.9688,523.7031 C544.0625,523.8594 544.0781,523.9844 544.0781,524.4219 L544.0781,525.8438 C544.0781,526.2656 544.0469,526.4531 543.9375,526.6094 C543.7656,526.8281 543.5,526.9688 543.2344,526.9688 C543.0156,526.9688 542.7813,526.8594 542.6406,526.7188 C542.5,526.5938 542.4688,526.4688 542.4063,526.0625 C542.3125,525.6563 542.1406,525.4375 541.6563,525.1563 C541.1875,524.9063 540.5781,524.75 540,524.75 C538.2656,524.75 537.0156,526.0625 537.0156,527.8438 L537.0156,528.9375 C537.0156,530.6406 538.3125,531.7344 540.3594,531.7344 C541.125,531.7344 541.8125,531.6094 542.2344,531.3438 C542.4219,531.25 542.4219,531.25 542.875,530.7656 C543.0625,530.5781 543.2656,530.5 543.4844,530.5 C543.9531,530.5 544.3438,530.8906 544.3438,531.3438 C544.3438,531.7344 544.0156,532.1875 543.4375,532.5938 C542.6875,533.1406 541.5313,533.4375 540.3125,533.4375 C537.4219,533.4375 535.3125,531.5469 535.3125,528.9688 L535.3125,527.8438 C535.3125,525.125 537.3125,523.0469 539.9375,523.0469 C540.8125,523.0469 541.4063,523.1875 542.3438,523.625 Z "/><text fill="#000000" font-family="sans-serif" font-size="12" lengthAdjust="spacingAndGlyphs" textLength="41" x="554" y="532.1074">PopUp</text><line style="stroke: #A80036; stroke-width: 1.5;" x1="526" x2="597" y1="543.9531" y2="543.9531"/><rect fill="none" height="6" style="stroke: #C82930; stroke-width: 1.0;" width="6" x="533" y="551.9531"/><text fill="#000000" font-family="sans-serif" font-size="11" lengthAdjust="spacingAndGlyphs" textLength="39" x="545" y="558.1636">id: uint</text><line style="stroke: #A80036; stroke-width: 1.5;" x1="526" x2="597" y1="564.7578" y2="564.7578"/><!--MD5=[02a8746eb15ecbb4566dafa16ea4db73]
class Text--><rect fill="#FEFECE" filter="url(#f107b0jqn325ky)" height="60.8047" id="Text" style="stroke: #A80036; stroke-width: 1.5;" width="65" x="633" y="511.9531"/><ellipse cx="651.15" cy="527.9531" fill="#ADD1B2" rx="11" ry="11" style="stroke: #A80036; stroke-width: 1.0;"/><path d="M653.4938,523.625 L653.6656,523.7031 C653.8844,523.3906 654.0875,523.2969 654.3844,523.2969 C654.6813,523.2969 654.9625,523.4375 655.1188,523.7031 C655.2125,523.8594 655.2281,523.9844 655.2281,524.4219 L655.2281,525.8438 C655.2281,526.2656 655.1969,526.4531 655.0875,526.6094 C654.9156,526.8281 654.65,526.9688 654.3844,526.9688 C654.1656,526.9688 653.9313,526.8594 653.7906,526.7188 C653.65,526.5938 653.6188,526.4688 653.5563,526.0625 C653.4625,525.6563 653.2906,525.4375 652.8063,525.1563 C652.3375,524.9063 651.7281,524.75 651.15,524.75 C649.4156,524.75 648.1656,526.0625 648.1656,527.8438 L648.1656,528.9375 C648.1656,530.6406 649.4625,531.7344 651.5094,531.7344 C652.275,531.7344 652.9625,531.6094 653.3844,531.3438 C653.5719,531.25 653.5719,531.25 654.025,530.7656 C654.2125,530.5781 654.4156,530.5 654.6344,530.5 C655.1031,530.5 655.4938,530.8906 655.4938,531.3438 C655.4938,531.7344 655.1656,532.1875 654.5875,532.5938 C653.8375,533.1406 652.6813,533.4375 651.4625,533.4375 C648.5719,533.4375 646.4625,531.5469 646.4625,528.9688 L646.4625,527.8438 C646.4625,525.125 648.4625,523.0469 651.0875,523.0469 C651.9625,523.0469 652.5563,523.1875 653.4938,523.625 Z "/><text fill="#000000" font-family="sans-serif" font-size="12" lengthAdjust="spacingAndGlyphs" textLength="26" x="665.85" y="532.1074">Text</text><line style="stroke: #A80036; stroke-width: 1.5;" x1="634" x2="697" y1="543.9531" y2="543.9531"/><rect fill="none" height="6" style="stroke: #C82930; stroke-width: 1.0;" width="6" x="641" y="551.9531"/><text fill="#000000" font-family="sans-serif" font-size="11" lengthAdjust="spacingAndGlyphs" textLength="39" x="653" y="558.1636">id: uint</text><line style="stroke: #A80036; stroke-width: 1.5;" x1="634" x2="697" y1="564.7578" y2="564.7578"/><!--MD5=[964f074a2dd77d134c21b891bb53e381]
class Image--><rect fill="#FEFECE" filter="url(#f107b0jqn325ky)" height="60.8047" id="Image" style="stroke: #A80036; stroke-width: 1.5;" width="70" x="733.5" y="511.9531"/><ellipse cx="748.5" cy="527.9531" fill="#ADD1B2" rx="11" ry="11" style="stroke: #A80036; stroke-width: 1.0;"/><path d="M750.8438,523.625 L751.0156,523.7031 C751.2344,523.3906 751.4375,523.2969 751.7344,523.2969 C752.0313,523.2969 752.3125,523.4375 752.4688,523.7031 C752.5625,523.8594 752.5781,523.9844 752.5781,524.4219 L752.5781,525.8438 C752.5781,526.2656 752.5469,526.4531 752.4375,526.6094 C752.2656,526.8281 752,526.9688 751.7344,526.9688 C751.5156,526.9688 751.2813,526.8594 751.1406,526.7188 C751,526.5938 750.9688,526.4688 750.9063,526.0625 C750.8125,525.6563 750.6406,525.4375 750.1563,525.1563 C749.6875,524.9063 749.0781,524.75 748.5,524.75 C746.7656,524.75 745.5156,526.0625 745.5156,527.8438 L745.5156,528.9375 C745.5156,530.6406 746.8125,531.7344 748.8594,531.7344 C749.625,531.7344 750.3125,531.6094 750.7344,531.3438 C750.9219,531.25 750.9219,531.25 751.375,530.7656 C751.5625,530.5781 751.7656,530.5 751.9844,530.5 C752.4531,530.5 752.8438,530.8906 752.8438,531.3438 C752.8438,531.7344 752.5156,532.1875 751.9375,532.5938 C751.1875,533.1406 750.0313,533.4375 748.8125,533.4375 C745.9219,533.4375 743.8125,531.5469 743.8125,528.9688 L743.8125,527.8438 C743.8125,525.125 745.8125,523.0469 748.4375,523.0469 C749.3125,523.0469 749.9063,523.1875 750.8438,523.625 Z "/><text fill="#000000" font-family="sans-serif" font-size="12" lengthAdjust="spacingAndGlyphs" textLength="38" x="762.5" y="532.1074">Image</text><line style="stroke: #A80036; stroke-width: 1.5;" x1="734.5" x2="802.5" y1="543.9531" y2="543.9531"/><rect fill="none" height="6" style="stroke: #C82930; stroke-width: 1.0;" width="6" x="741.5" y="551.9531"/><text fill="#000000" font-family="sans-serif" font-size="11" lengthAdjust="spacingAndGlyphs" textLength="39" x="753.5" y="558.1636">id: uint</text><line style="stroke: #A80036; stroke-width: 1.5;" x1="734.5" x2="802.5" y1="564.7578" y2="564.7578"/><!--MD5=[dcda5019d4fbde54abc259d85a3f5caa]
class StaticText--><rect fill="#FEFECE" filter="url(#f107b0jqn325ky)" height="48" id="StaticText" style="stroke: #A80036; stroke-width: 1.5;" width="94" x="618.5" y="645.9531"/><ellipse cx="633.5" cy="661.9531" fill="#ADD1B2" rx="11" ry="11" style="stroke: #A80036; stroke-width: 1.0;"/><path d="M635.8438,657.625 L636.0156,657.7031 C636.2344,657.3906 636.4375,657.2969 636.7344,657.2969 C637.0313,657.2969 637.3125,657.4375 637.4688,657.7031 C637.5625,657.8594 637.5781,657.9844 637.5781,658.4219 L637.5781,659.8438 C637.5781,660.2656 637.5469,660.4531 637.4375,660.6094 C637.2656,660.8281 637,660.9688 636.7344,660.9688 C636.5156,660.9688 636.2813,660.8594 636.1406,660.7188 C636,660.5938 635.9688,660.4688 635.9063,660.0625 C635.8125,659.6563 635.6406,659.4375 635.1563,659.1563 C634.6875,658.9063 634.0781,658.75 633.5,658.75 C631.7656,658.75 630.5156,660.0625 630.5156,661.8438 L630.5156,662.9375 C630.5156,664.6406 631.8125,665.7344 633.8594,665.7344 C634.625,665.7344 635.3125,665.6094 635.7344,665.3438 C635.9219,665.25 635.9219,665.25 636.375,664.7656 C636.5625,664.5781 636.7656,664.5 636.9844,664.5 C637.4531,664.5 637.8438,664.8906 637.8438,665.3438 C637.8438,665.7344 637.5156,666.1875 636.9375,666.5938 C636.1875,667.1406 635.0313,667.4375 633.8125,667.4375 C630.9219,667.4375 628.8125,665.5469 628.8125,662.9688 L628.8125,661.8438 C628.8125,659.125 630.8125,657.0469 633.4375,657.0469 C634.3125,657.0469 634.9063,657.1875 635.8438,657.625 Z "/><text fill="#000000" font-family="sans-serif" font-size="12" lengthAdjust="spacingAndGlyphs" textLength="62" x="647.5" y="666.1074">StaticText</text><line style="stroke: #A80036; stroke-width: 1.5;" x1="619.5" x2="711.5" y1="677.9531" y2="677.9531"/><line style="stroke: #A80036; stroke-width: 1.5;" x1="619.5" x2="711.5" y1="685.9531" y2="685.9531"/><!--MD5=[3cab58e622330109321580dbb0b85605]
class Input--><rect fill="#FEFECE" filter="url(#f107b0jqn325ky)" height="48" id="Input" style="stroke: #A80036; stroke-width: 1.5;" width="64" x="950.5" y="378.4531"/><ellipse cx="965.5" cy="394.4531" fill="#ADD1B2" rx="11" ry="11" style="stroke: #A80036; stroke-width: 1.0;"/><path d="M967.8438,390.125 L968.0156,390.2031 C968.2344,389.8906 968.4375,389.7969 968.7344,389.7969 C969.0313,389.7969 969.3125,389.9375 969.4688,390.2031 C969.5625,390.3594 969.5781,390.4844 969.5781,390.9219 L969.5781,392.3438 C969.5781,392.7656 969.5469,392.9531 969.4375,393.1094 C969.2656,393.3281 969,393.4688 968.7344,393.4688 C968.5156,393.4688 968.2813,393.3594 968.1406,393.2188 C968,393.0938 967.9688,392.9688 967.9063,392.5625 C967.8125,392.1563 967.6406,391.9375 967.1563,391.6563 C966.6875,391.4063 966.0781,391.25 965.5,391.25 C963.7656,391.25 962.5156,392.5625 962.5156,394.3438 L962.5156,395.4375 C962.5156,397.1406 963.8125,398.2344 965.8594,398.2344 C966.625,398.2344 967.3125,398.1094 967.7344,397.8438 C967.9219,397.75 967.9219,397.75 968.375,397.2656 C968.5625,397.0781 968.7656,397 968.9844,397 C969.4531,397 969.8438,397.3906 969.8438,397.8438 C969.8438,398.2344 969.5156,398.6875 968.9375,399.0938 C968.1875,399.6406 967.0313,399.9375 965.8125,399.9375 C962.9219,399.9375 960.8125,398.0469 960.8125,395.4688 L960.8125,394.3438 C960.8125,391.625 962.8125,389.5469 965.4375,389.5469 C966.3125,389.5469 966.9063,389.6875 967.8438,390.125 Z "/><text fill="#000000" font-family="sans-serif" font-size="12" lengthAdjust="spacingAndGlyphs" textLength="32" x="979.5" y="398.6074">Input</text><line style="stroke: #A80036; stroke-width: 1.5;" x1="951.5" x2="1013.5" y1="410.4531" y2="410.4531"/><line style="stroke: #A80036; stroke-width: 1.5;" x1="951.5" x2="1013.5" y1="418.4531" y2="418.4531"/><!--MD5=[847fc839c78cd68cdbea65b88e602834]
class Output--><rect fill="#FEFECE" filter="url(#f107b0jqn325ky)" height="48" id="Output" style="stroke: #A80036; stroke-width: 1.5;" width="75" x="1050" y="378.4531"/><ellipse cx="1065" cy="394.4531" fill="#ADD1B2" rx="11" ry="11" style="stroke: #A80036; stroke-width: 1.0;"/><path d="M1067.3438,390.125 L1067.5156,390.2031 C1067.7344,389.8906 1067.9375,389.7969 1068.2344,389.7969 C1068.5313,389.7969 1068.8125,389.9375 1068.9688,390.2031 C1069.0625,390.3594 1069.0781,390.4844 1069.0781,390.9219 L1069.0781,392.3438 C1069.0781,392.7656 1069.0469,392.9531 1068.9375,393.1094 C1068.7656,393.3281 1068.5,393.4688 1068.2344,393.4688 C1068.0156,393.4688 1067.7813,393.3594 1067.6406,393.2188 C1067.5,393.0938 1067.4688,392.9688 1067.4063,392.5625 C1067.3125,392.1563 1067.1406,391.9375 1066.6563,391.6563 C1066.1875,391.4063 1065.5781,391.25 1065,391.25 C1063.2656,391.25 1062.0156,392.5625 1062.0156,394.3438 L1062.0156,395.4375 C1062.0156,397.1406 1063.3125,398.2344 1065.3594,398.2344 C1066.125,398.2344 1066.8125,398.1094 1067.2344,397.8438 C1067.4219,397.75 1067.4219,397.75 1067.875,397.2656 C1068.0625,397.0781 1068.2656,397 1068.4844,397 C1068.9531,397 1069.3438,397.3906 1069.3438,397.8438 C1069.3438,398.2344 1069.0156,398.6875 1068.4375,399.0938 C1067.6875,399.6406 1066.5313,399.9375 1065.3125,399.9375 C1062.4219,399.9375 1060.3125,398.0469 1060.3125,395.4688 L1060.3125,394.3438 C1060.3125,391.625 1062.3125,389.5469 1064.9375,389.5469 C1065.8125,389.5469 1066.4063,389.6875 1067.3438,390.125 Z "/><text fill="#000000" font-family="sans-serif" font-size="12" lengthAdjust="spacingAndGlyphs" textLength="43" x="1079" y="398.6074">Output</text><line style="stroke: #A80036; stroke-width: 1.5;" x1="1051" x2="1124" y1="410.4531" y2="410.4531"/><line style="stroke: #A80036; stroke-width: 1.5;" x1="1051" x2="1124" y1="418.4531" y2="418.4531"/><!--MD5=[b47f00dd0504bda501cad5ceb6604e40]
class Sound--><rect fill="#FEFECE" filter="url(#f107b0jqn325ky)" height="60.8047" id="Sound" style="stroke: #A80036; stroke-width: 1.5;" width="72" x="1111.5" y="511.9531"/><ellipse cx="1126.5" cy="527.9531" fill="#ADD1B2" rx="11" ry="11" style="stroke: #A80036; stroke-width: 1.0;"/><path d="M1128.8438,523.625 L1129.0156,523.7031 C1129.2344,523.3906 1129.4375,523.2969 1129.7344,523.2969 C1130.0313,523.2969 1130.3125,523.4375 1130.4688,523.7031 C1130.5625,523.8594 1130.5781,523.9844 1130.5781,524.4219 L1130.5781,525.8438 C1130.5781,526.2656 1130.5469,526.4531 1130.4375,526.6094 C1130.2656,526.8281 1130,526.9688 1129.7344,526.9688 C1129.5156,526.9688 1129.2813,526.8594 1129.1406,526.7188 C1129,526.5938 1128.9688,526.4688 1128.9063,526.0625 C1128.8125,525.6563 1128.6406,525.4375 1128.1563,525.1563 C1127.6875,524.9063 1127.0781,524.75 1126.5,524.75 C1124.7656,524.75 1123.5156,526.0625 1123.5156,527.8438 L1123.5156,528.9375 C1123.5156,530.6406 1124.8125,531.7344 1126.8594,531.7344 C1127.625,531.7344 1128.3125,531.6094 1128.7344,531.3438 C1128.9219,531.25 1128.9219,531.25 1129.375,530.7656 C1129.5625,530.5781 1129.7656,530.5 1129.9844,530.5 C1130.4531,530.5 1130.8438,530.8906 1130.8438,531.3438 C1130.8438,531.7344 1130.5156,532.1875 1129.9375,532.5938 C1129.1875,533.1406 1128.0313,533.4375 1126.8125,533.4375 C1123.9219,533.4375 1121.8125,531.5469 1121.8125,528.9688 L1121.8125,527.8438 C1121.8125,525.125 1123.8125,523.0469 1126.4375,523.0469 C1127.3125,523.0469 1127.9063,523.1875 1128.8438,523.625 Z "/><text fill="#000000" font-family="sans-serif" font-size="12" lengthAdjust="spacingAndGlyphs" textLength="40" x="1140.5" y="532.1074">Sound</text><line style="stroke: #A80036; stroke-width: 1.5;" x1="1112.5" x2="1182.5" y1="543.9531" y2="543.9531"/><rect fill="none" height="6" style="stroke: #C82930; stroke-width: 1.0;" width="6" x="1119.5" y="551.9531"/><text fill="#000000" font-family="sans-serif" font-size="11" lengthAdjust="spacingAndGlyphs" textLength="39" x="1131.5" y="558.1636">id: uint</text><line style="stroke: #A80036; stroke-width: 1.5;" x1="1112.5" x2="1182.5" y1="564.7578" y2="564.7578"/><!--MD5=[1d7ba1c7002d54515419844fbd155368]
class Controller--><rect fill="#FEFECE" filter="url(#f107b0jqn325ky)" height="48" id="Controller" style="stroke: #A80036; stroke-width: 1.5;" width="93" x="839" y="518.4531"/><ellipse cx="854" cy="534.4531" fill="#ADD1B2" rx="11" ry="11" style="stroke: #A80036; stroke-width: 1.0;"/><path d="M856.3438,530.125 L856.5156,530.2031 C856.7344,529.8906 856.9375,529.7969 857.2344,529.7969 C857.5313,529.7969 857.8125,529.9375 857.9688,530.2031 C858.0625,530.3594 858.0781,530.4844 858.0781,530.9219 L858.0781,532.3438 C858.0781,532.7656 858.0469,532.9531 857.9375,533.1094 C857.7656,533.3281 857.5,533.4688 857.2344,533.4688 C857.0156,533.4688 856.7813,533.3594 856.6406,533.2188 C856.5,533.0938 856.4688,532.9688 856.4063,532.5625 C856.3125,532.1563 856.1406,531.9375 855.6563,531.6563 C855.1875,531.4063 854.5781,531.25 854,531.25 C852.2656,531.25 851.0156,532.5625 851.0156,534.3438 L851.0156,535.4375 C851.0156,537.1406 852.3125,538.2344 854.3594,538.2344 C855.125,538.2344 855.8125,538.1094 856.2344,537.8438 C856.4219,537.75 856.4219,537.75 856.875,537.2656 C857.0625,537.0781 857.2656,537 857.4844,537 C857.9531,537 858.3438,537.3906 858.3438,537.8438 C858.3438,538.2344 858.0156,538.6875 857.4375,539.0938 C856.6875,539.6406 855.5313,539.9375 854.3125,539.9375 C851.4219,539.9375 849.3125,538.0469 849.3125,535.4688 L849.3125,534.3438 C849.3125,531.625 851.3125,529.5469 853.9375,529.5469 C854.8125,529.5469 855.4063,529.6875 856.3438,530.125 Z "/><text fill="#000000" font-family="sans-serif" font-size="12" lengthAdjust="spacingAndGlyphs" textLength="61" x="868" y="538.6074">Controller</text><line style="stroke: #A80036; stroke-width: 1.5;" x1="840" x2="931" y1="550.4531" y2="550.4531"/><line style="stroke: #A80036; stroke-width: 1.5;" x1="840" x2="931" y1="558.4531" y2="558.4531"/><!--MD5=[05d04629fea6cdfd14b212f0eb9e2f8d]
class DummyInput--><rect fill="#FEFECE" filter="url(#f107b0jqn325ky)" height="48" id="DummyInput" style="stroke: #A80036; stroke-width: 1.5;" width="109" x="967" y="518.4531"/><ellipse cx="982" cy="534.4531" fill="#ADD1B2" rx="11" ry="11" style="stroke: #A80036; stroke-width: 1.0;"/><path d="M984.3438,530.125 L984.5156,530.2031 C984.7344,529.8906 984.9375,529.7969 985.2344,529.7969 C985.5313,529.7969 985.8125,529.9375 985.9688,530.2031 C986.0625,530.3594 986.0781,530.4844 986.0781,530.9219 L986.0781,532.3438 C986.0781,532.7656 986.0469,532.9531 985.9375,533.1094 C985.7656,533.3281 985.5,533.4688 985.2344,533.4688 C985.0156,533.4688 984.7813,533.3594 984.6406,533.2188 C984.5,533.0938 984.4688,532.9688 984.4063,532.5625 C984.3125,532.1563 984.1406,531.9375 983.6563,531.6563 C983.1875,531.4063 982.5781,531.25 982,531.25 C980.2656,531.25 979.0156,532.5625 979.0156,534.3438 L979.0156,535.4375 C979.0156,537.1406 980.3125,538.2344 982.3594,538.2344 C983.125,538.2344 983.8125,538.1094 984.2344,537.8438 C984.4219,537.75 984.4219,537.75 984.875,537.2656 C985.0625,537.0781 985.2656,537 985.4844,537 C985.9531,537 986.3438,537.3906 986.3438,537.8438 C986.3438,538.2344 986.0156,538.6875 985.4375,539.0938 C984.6875,539.6406 983.5313,539.9375 982.3125,539.9375 C979.4219,539.9375 977.3125,538.0469 977.3125,535.4688 L977.3125,534.3438 C977.3125,531.625 979.3125,529.5469 981.9375,529.5469 C982.8125,529.5469 983.4063,529.6875 984.3438,530.125 Z "/><text fill="#000000" font-family="sans-serif" font-size="12" lengthAdjust="spacingAndGlyphs" textLength="77" x="996" y="538.6074">DummyInput</text><line style="stroke: #A80036; stroke-width: 1.5;" x1="968" x2="1075" y1="550.4531" y2="550.4531"/><line style="stroke: #A80036; stroke-width: 1.5;" x1="968" x2="1075" y1="558.4531" y2="558.4531"/><!--MD5=[ffd523f99157131cff7624c09988665e]
class KeyBoard--><rect fill="#FEFECE" filter="url(#f107b0jqn325ky)" height="73.6094" id="KeyBoard" style="stroke: #A80036; stroke-width: 1.5;" width="101" x="791" y="632.9531"/><ellipse cx="810.95" cy="648.9531" fill="#ADD1B2" rx="11" ry="11" style="stroke: #A80036; stroke-width: 1.0;"/><path d="M813.2938,644.625 L813.4656,644.7031 C813.6844,644.3906 813.8875,644.2969 814.1844,644.2969 C814.4813,644.2969 814.7625,644.4375 814.9188,644.7031 C815.0125,644.8594 815.0281,644.9844 815.0281,645.4219 L815.0281,646.8438 C815.0281,647.2656 814.9969,647.4531 814.8875,647.6094 C814.7156,647.8281 814.45,647.9688 814.1844,647.9688 C813.9656,647.9688 813.7313,647.8594 813.5906,647.7188 C813.45,647.5938 813.4188,647.4688 813.3563,647.0625 C813.2625,646.6563 813.0906,646.4375 812.6063,646.1563 C812.1375,645.9063 811.5281,645.75 810.95,645.75 C809.2156,645.75 807.9656,647.0625 807.9656,648.8438 L807.9656,649.9375 C807.9656,651.6406 809.2625,652.7344 811.3094,652.7344 C812.075,652.7344 812.7625,652.6094 813.1844,652.3438 C813.3719,652.25 813.3719,652.25 813.825,651.7656 C814.0125,651.5781 814.2156,651.5 814.4344,651.5 C814.9031,651.5 815.2938,651.8906 815.2938,652.3438 C815.2938,652.7344 814.9656,653.1875 814.3875,653.5938 C813.6375,654.1406 812.4813,654.4375 811.2625,654.4375 C808.3719,654.4375 806.2625,652.5469 806.2625,649.9688 L806.2625,648.8438 C806.2625,646.125 808.2625,644.0469 810.8875,644.0469 C811.7625,644.0469 812.3563,644.1875 813.2938,644.625 Z "/><text fill="#000000" font-family="sans-serif" font-size="12" lengthAdjust="spacingAndGlyphs" textLength="58" x="826.05" y="653.1074">KeyBoard</text><line style="stroke: #A80036; stroke-width: 1.5;" x1="792" x2="891" y1="664.9531" y2="664.9531"/><rect fill="none" height="6" style="stroke: #C82930; stroke-width: 1.0;" width="6" x="799" y="672.9531"/><text fill="#000000" font-family="sans-serif" font-size="11" lengthAdjust="spacingAndGlyphs" textLength="39" x="811" y="679.1636">id: uint</text><rect fill="none" height="6" style="stroke: #C82930; stroke-width: 1.0;" width="6" x="799" y="685.7578"/><text fill="#000000" font-family="sans-serif" font-size="11" lengthAdjust="spacingAndGlyphs" textLength="75" x="811" y="691.9683">keyMap: map</text><line style="stroke: #A80036; stroke-width: 1.5;" x1="792" x2="891" y1="698.5625" y2="698.5625"/><!--MD5=[82d9c97a467af7c0b2c072e754b85475]
class GameController--><rect fill="#FEFECE" filter="url(#f107b0jqn325ky)" height="73.6094" id="GameController" style="stroke: #A80036; stroke-width: 1.5;" width="129" x="927" y="632.9531"/><ellipse cx="942" cy="648.9531" fill="#ADD1B2" rx="11" ry="11" style="stroke: #A80036; stroke-width: 1.0;"/><path d="M944.3438,644.625 L944.5156,644.7031 C944.7344,644.3906 944.9375,644.2969 945.2344,644.2969 C945.5313,644.2969 945.8125,644.4375 945.9688,644.7031 C946.0625,644.8594 946.0781,644.9844 946.0781,645.4219 L946.0781,646.8438 C946.0781,647.2656 946.0469,647.4531 945.9375,647.6094 C945.7656,647.8281 945.5,647.9688 945.2344,647.9688 C945.0156,647.9688 944.7813,647.8594 944.6406,647.7188 C944.5,647.5938 944.4688,647.4688 944.4063,647.0625 C944.3125,646.6563 944.1406,646.4375 943.6563,646.1563 C943.1875,645.9063 942.5781,645.75 942,645.75 C940.2656,645.75 939.0156,647.0625 939.0156,648.8438 L939.0156,649.9375 C939.0156,651.6406 940.3125,652.7344 942.3594,652.7344 C943.125,652.7344 943.8125,652.6094 944.2344,652.3438 C944.4219,652.25 944.4219,652.25 944.875,651.7656 C945.0625,651.5781 945.2656,651.5 945.4844,651.5 C945.9531,651.5 946.3438,651.8906 946.3438,652.3438 C946.3438,652.7344 946.0156,653.1875 945.4375,653.5938 C944.6875,654.1406 943.5313,654.4375 942.3125,654.4375 C939.4219,654.4375 937.3125,652.5469 937.3125,649.9688 L937.3125,648.8438 C937.3125,646.125 939.3125,644.0469 941.9375,644.0469 C942.8125,644.0469 943.4063,644.1875 944.3438,644.625 Z "/><text fill="#000000" font-family="sans-serif" font-size="12" lengthAdjust="spacingAndGlyphs" textLength="97" x="956" y="653.1074">GameController</text><line style="stroke: #A80036; stroke-width: 1.5;" x1="928" x2="1055" y1="664.9531" y2="664.9531"/><rect fill="none" height="6" style="stroke: #C82930; stroke-width: 1.0;" width="6" x="935" y="672.9531"/><text fill="#000000" font-family="sans-serif" font-size="11" lengthAdjust="spacingAndGlyphs" textLength="39" x="947" y="679.1636">id: uint</text><rect fill="none" height="6" style="stroke: #C82930; stroke-width: 1.0;" width="6" x="935" y="685.7578"/><text fill="#000000" font-family="sans-serif" font-size="11" lengthAdjust="spacingAndGlyphs" textLength="75" x="947" y="691.9683">keyMap: map</text><line style="stroke: #A80036; stroke-width: 1.5;" x1="928" x2="1055" y1="698.5625" y2="698.5625"/><!--MD5=[53272eeea06fe80d83fd996defbd63c3]
class Health--><rect fill="#FEFECE" filter="url(#f107b0jqn325ky)" height="48" id="Health" style="stroke: #A80036; stroke-width: 1.5;" width="73" x="1160" y="378.4531"/><ellipse cx="1175" cy="394.4531" fill="#ADD1B2" rx="11" ry="11" style="stroke: #A80036; stroke-width: 1.0;"/><path d="M1177.3438,390.125 L1177.5156,390.2031 C1177.7344,389.8906 1177.9375,389.7969 1178.2344,389.7969 C1178.5313,389.7969 1178.8125,389.9375 1178.9688,390.2031 C1179.0625,390.3594 1179.0781,390.4844 1179.0781,390.9219 L1179.0781,392.3438 C1179.0781,392.7656 1179.0469,392.9531 1178.9375,393.1094 C1178.7656,393.3281 1178.5,393.4688 1178.2344,393.4688 C1178.0156,393.4688 1177.7813,393.3594 1177.6406,393.2188 C1177.5,393.0938 1177.4688,392.9688 1177.4063,392.5625 C1177.3125,392.1563 1177.1406,391.9375 1176.6563,391.6563 C1176.1875,391.4063 1175.5781,391.25 1175,391.25 C1173.2656,391.25 1172.0156,392.5625 1172.0156,394.3438 L1172.0156,395.4375 C1172.0156,397.1406 1173.3125,398.2344 1175.3594,398.2344 C1176.125,398.2344 1176.8125,398.1094 1177.2344,397.8438 C1177.4219,397.75 1177.4219,397.75 1177.875,397.2656 C1178.0625,397.0781 1178.2656,397 1178.4844,397 C1178.9531,397 1179.3438,397.3906 1179.3438,397.8438 C1179.3438,398.2344 1179.0156,398.6875 1178.4375,399.0938 C1177.6875,399.6406 1176.5313,399.9375 1175.3125,399.9375 C1172.4219,399.9375 1170.3125,398.0469 1170.3125,395.4688 L1170.3125,394.3438 C1170.3125,391.625 1172.3125,389.5469 1174.9375,389.5469 C1175.8125,389.5469 1176.4063,389.6875 1177.3438,390.125 Z "/><text fill="#000000" font-family="sans-serif" font-size="12" lengthAdjust="spacingAndGlyphs" textLength="41" x="1189" y="398.6074">Health</text><line style="stroke: #A80036; stroke-width: 1.5;" x1="1161" x2="1232" y1="410.4531" y2="410.4531"/><line style="stroke: #A80036; stroke-width: 1.5;" x1="1161" x2="1232" y1="418.4531" y2="418.4531"/><!--MD5=[e1ae6f2cea02e276685729daa4ac67c0]
class Damage--><rect fill="#FEFECE" filter="url(#f107b0jqn325ky)" height="48" id="Damage" style="stroke: #A80036; stroke-width: 1.5;" width="84" x="1268.5" y="378.4531"/><ellipse cx="1283.5" cy="394.4531" fill="#ADD1B2" rx="11" ry="11" style="stroke: #A80036; stroke-width: 1.0;"/><path d="M1285.8438,390.125 L1286.0156,390.2031 C1286.2344,389.8906 1286.4375,389.7969 1286.7344,389.7969 C1287.0313,389.7969 1287.3125,389.9375 1287.4688,390.2031 C1287.5625,390.3594 1287.5781,390.4844 1287.5781,390.9219 L1287.5781,392.3438 C1287.5781,392.7656 1287.5469,392.9531 1287.4375,393.1094 C1287.2656,393.3281 1287,393.4688 1286.7344,393.4688 C1286.5156,393.4688 1286.2813,393.3594 1286.1406,393.2188 C1286,393.0938 1285.9688,392.9688 1285.9063,392.5625 C1285.8125,392.1563 1285.6406,391.9375 1285.1563,391.6563 C1284.6875,391.4063 1284.0781,391.25 1283.5,391.25 C1281.7656,391.25 1280.5156,392.5625 1280.5156,394.3438 L1280.5156,395.4375 C1280.5156,397.1406 1281.8125,398.2344 1283.8594,398.2344 C1284.625,398.2344 1285.3125,398.1094 1285.7344,397.8438 C1285.9219,397.75 1285.9219,397.75 1286.375,397.2656 C1286.5625,397.0781 1286.7656,397 1286.9844,397 C1287.4531,397 1287.8438,397.3906 1287.8438,397.8438 C1287.8438,398.2344 1287.5156,398.6875 1286.9375,399.0938 C1286.1875,399.6406 1285.0313,399.9375 1283.8125,399.9375 C1280.9219,399.9375 1278.8125,398.0469 1278.8125,395.4688 L1278.8125,394.3438 C1278.8125,391.625 1280.8125,389.5469 1283.4375,389.5469 C1284.3125,389.5469 1284.9063,389.6875 1285.8438,390.125 Z "/><text fill="#000000" font-family="sans-serif" font-size="12" lengthAdjust="spacingAndGlyphs" textLength="52" x="1297.5" y="398.6074">Damage</text><line style="stroke: #A80036; stroke-width: 1.5;" x1="1269.5" x2="1351.5" y1="410.4531" y2="410.4531"/><line style="stroke: #A80036; stroke-width: 1.5;" x1="1269.5" x2="1351.5" y1="418.4531" y2="418.4531"/><!--MD5=[eedde156c9dded963040b22578af45fa]
class Level--><rect fill="#FEFECE" filter="url(#f107b0jqn325ky)" height="48" id="Level" style="stroke: #A80036; stroke-width: 1.5;" width="63" x="1388" y="378.4531"/><ellipse cx="1403" cy="394.4531" fill="#ADD1B2" rx="11" ry="11" style="stroke: #A80036; stroke-width: 1.0;"/><path d="M1405.3438,390.125 L1405.5156,390.2031 C1405.7344,389.8906 1405.9375,389.7969 1406.2344,389.7969 C1406.5313,389.7969 1406.8125,389.9375 1406.9688,390.2031 C1407.0625,390.3594 1407.0781,390.4844 1407.0781,390.9219 L1407.0781,392.3438 C1407.0781,392.7656 1407.0469,392.9531 1406.9375,393.1094 C1406.7656,393.3281 1406.5,393.4688 1406.2344,393.4688 C1406.0156,393.4688 1405.7813,393.3594 1405.6406,393.2188 C1405.5,393.0938 1405.4688,392.9688 1405.4063,392.5625 C1405.3125,392.1563 1405.1406,391.9375 1404.6563,391.6563 C1404.1875,391.4063 1403.5781,391.25 1403,391.25 C1401.2656,391.25 1400.0156,392.5625 1400.0156,394.3438 L1400.0156,395.4375 C1400.0156,397.1406 1401.3125,398.2344 1403.3594,398.2344 C1404.125,398.2344 1404.8125,398.1094 1405.2344,397.8438 C1405.4219,397.75 1405.4219,397.75 1405.875,397.2656 C1406.0625,397.0781 1406.2656,397 1406.4844,397 C1406.9531,397 1407.3438,397.3906 1407.3438,397.8438 C1407.3438,398.2344 1407.0156,398.6875 1406.4375,399.0938 C1405.6875,399.6406 1404.5313,399.9375 1403.3125,399.9375 C1400.4219,399.9375 1398.3125,398.0469 1398.3125,395.4688 L1398.3125,394.3438 C1398.3125,391.625 1400.3125,389.5469 1402.9375,389.5469 C1403.8125,389.5469 1404.4063,389.6875 1405.3438,390.125 Z "/><text fill="#000000" font-family="sans-serif" font-size="12" lengthAdjust="spacingAndGlyphs" textLength="31" x="1417" y="398.6074">Level</text><line style="stroke: #A80036; stroke-width: 1.5;" x1="1389" x2="1450" y1="410.4531" y2="410.4531"/><line style="stroke: #A80036; stroke-width: 1.5;" x1="1389" x2="1450" y1="418.4531" y2="418.4531"/><!--MD5=[c70e1900b8fd17e32d843f9c0f9a3994]
class Scale--><rect fill="#FEFECE" filter="url(#f107b0jqn325ky)" height="48" id="Scale" style="stroke: #A80036; stroke-width: 1.5;" width="66" x="1486.5" y="378.4531"/><ellipse cx="1501.5" cy="394.4531" fill="#ADD1B2" rx="11" ry="11" style="stroke: #A80036; stroke-width: 1.0;"/><path d="M1503.8438,390.125 L1504.0156,390.2031 C1504.2344,389.8906 1504.4375,389.7969 1504.7344,389.7969 C1505.0313,389.7969 1505.3125,389.9375 1505.4688,390.2031 C1505.5625,390.3594 1505.5781,390.4844 1505.5781,390.9219 L1505.5781,392.3438 C1505.5781,392.7656 1505.5469,392.9531 1505.4375,393.1094 C1505.2656,393.3281 1505,393.4688 1504.7344,393.4688 C1504.5156,393.4688 1504.2813,393.3594 1504.1406,393.2188 C1504,393.0938 1503.9688,392.9688 1503.9063,392.5625 C1503.8125,392.1563 1503.6406,391.9375 1503.1563,391.6563 C1502.6875,391.4063 1502.0781,391.25 1501.5,391.25 C1499.7656,391.25 1498.5156,392.5625 1498.5156,394.3438 L1498.5156,395.4375 C1498.5156,397.1406 1499.8125,398.2344 1501.8594,398.2344 C1502.625,398.2344 1503.3125,398.1094 1503.7344,397.8438 C1503.9219,397.75 1503.9219,397.75 1504.375,397.2656 C1504.5625,397.0781 1504.7656,397 1504.9844,397 C1505.4531,397 1505.8438,397.3906 1505.8438,397.8438 C1505.8438,398.2344 1505.5156,398.6875 1504.9375,399.0938 C1504.1875,399.6406 1503.0313,399.9375 1501.8125,399.9375 C1498.9219,399.9375 1496.8125,398.0469 1496.8125,395.4688 L1496.8125,394.3438 C1496.8125,391.625 1498.8125,389.5469 1501.4375,389.5469 C1502.3125,389.5469 1502.9063,389.6875 1503.8438,390.125 Z "/><text fill="#000000" font-family="sans-serif" font-size="12" lengthAdjust="spacingAndGlyphs" textLength="34" x="1515.5" y="398.6074">Scale</text><line style="stroke: #A80036; stroke-width: 1.5;" x1="1487.5" x2="1551.5" y1="410.4531" y2="410.4531"/><line style="stroke: #A80036; stroke-width: 1.5;" x1="1487.5" x2="1551.5" y1="418.4531" y2="418.4531"/><!--MD5=[44a1b4afaef76c16e6c9ec4990ad0c8d]
class Item--><rect fill="#FEFECE" filter="url(#f107b0jqn325ky)" height="48" id="Item" style="stroke: #A80036; stroke-width: 1.5;" width="59" x="1588" y="378.4531"/><ellipse cx="1603" cy="394.4531" fill="#ADD1B2" rx="11" ry="11" style="stroke: #A80036; stroke-width: 1.0;"/><path d="M1605.3438,390.125 L1605.5156,390.2031 C1605.7344,389.8906 1605.9375,389.7969 1606.2344,389.7969 C1606.5313,389.7969 1606.8125,389.9375 1606.9688,390.2031 C1607.0625,390.3594 1607.0781,390.4844 1607.0781,390.9219 L1607.0781,392.3438 C1607.0781,392.7656 1607.0469,392.9531 1606.9375,393.1094 C1606.7656,393.3281 1606.5,393.4688 1606.2344,393.4688 C1606.0156,393.4688 1605.7813,393.3594 1605.6406,393.2188 C1605.5,393.0938 1605.4688,392.9688 1605.4063,392.5625 C1605.3125,392.1563 1605.1406,391.9375 1604.6563,391.6563 C1604.1875,391.4063 1603.5781,391.25 1603,391.25 C1601.2656,391.25 1600.0156,392.5625 1600.0156,394.3438 L1600.0156,395.4375 C1600.0156,397.1406 1601.3125,398.2344 1603.3594,398.2344 C1604.125,398.2344 1604.8125,398.1094 1605.2344,397.8438 C1605.4219,397.75 1605.4219,397.75 1605.875,397.2656 C1606.0625,397.0781 1606.2656,397 1606.4844,397 C1606.9531,397 1607.3438,397.3906 1607.3438,397.8438 C1607.3438,398.2344 1607.0156,398.6875 1606.4375,399.0938 C1605.6875,399.6406 1604.5313,399.9375 1603.3125,399.9375 C1600.4219,399.9375 1598.3125,398.0469 1598.3125,395.4688 L1598.3125,394.3438 C1598.3125,391.625 1600.3125,389.5469 1602.9375,389.5469 C1603.8125,389.5469 1604.4063,389.6875 1605.3438,390.125 Z "/><text fill="#000000" font-family="sans-serif" font-size="12" lengthAdjust="spacingAndGlyphs" textLength="27" x="1617" y="398.6074">Item</text><line style="stroke: #A80036; stroke-width: 1.5;" x1="1589" x2="1646" y1="410.4531" y2="410.4531"/><line style="stroke: #A80036; stroke-width: 1.5;" x1="1589" x2="1646" y1="418.4531" y2="418.4531"/><!--MD5=[e5e90b6a3141b1b16fc7804698196da8]
class Power--><rect fill="#FEFECE" filter="url(#f107b0jqn325ky)" height="48" id="Power" style="stroke: #A80036; stroke-width: 1.5;" width="70" x="1682.5" y="378.4531"/><ellipse cx="1697.5" cy="394.4531" fill="#ADD1B2" rx="11" ry="11" style="stroke: #A80036; stroke-width: 1.0;"/><path d="M1699.8438,390.125 L1700.0156,390.2031 C1700.2344,389.8906 1700.4375,389.7969 1700.7344,389.7969 C1701.0313,389.7969 1701.3125,389.9375 1701.4688,390.2031 C1701.5625,390.3594 1701.5781,390.4844 1701.5781,390.9219 L1701.5781,392.3438 C1701.5781,392.7656 1701.5469,392.9531 1701.4375,393.1094 C1701.2656,393.3281 1701,393.4688 1700.7344,393.4688 C1700.5156,393.4688 1700.2813,393.3594 1700.1406,393.2188 C1700,393.0938 1699.9688,392.9688 1699.9063,392.5625 C1699.8125,392.1563 1699.6406,391.9375 1699.1563,391.6563 C1698.6875,391.4063 1698.0781,391.25 1697.5,391.25 C1695.7656,391.25 1694.5156,392.5625 1694.5156,394.3438 L1694.5156,395.4375 C1694.5156,397.1406 1695.8125,398.2344 1697.8594,398.2344 C1698.625,398.2344 1699.3125,398.1094 1699.7344,397.8438 C1699.9219,397.75 1699.9219,397.75 1700.375,397.2656 C1700.5625,397.0781 1700.7656,397 1700.9844,397 C1701.4531,397 1701.8438,397.3906 1701.8438,397.8438 C1701.8438,398.2344 1701.5156,398.6875 1700.9375,399.0938 C1700.1875,399.6406 1699.0313,399.9375 1697.8125,399.9375 C1694.9219,399.9375 1692.8125,398.0469 1692.8125,395.4688 L1692.8125,394.3438 C1692.8125,391.625 1694.8125,389.5469 1697.4375,389.5469 C1698.3125,389.5469 1698.9063,389.6875 1699.8438,390.125 Z "/><text fill="#000000" font-family="sans-serif" font-size="12" lengthAdjust="spacingAndGlyphs" textLength="38" x="1711.5" y="398.6074">Power</text><line style="stroke: #A80036; stroke-width: 1.5;" x1="1683.5" x2="1751.5" y1="410.4531" y2="410.4531"/><line style="stroke: #A80036; stroke-width: 1.5;" x1="1683.5" x2="1751.5" y1="418.4531" y2="418.4531"/><!--MD5=[7eb8b896edab59b246c5d37f9aec9752]
class ComponentManager--><rect fill="#FEFECE" filter="url(#f107b0jqn325ky)" height="48" id="ComponentManager" style="stroke: #A80036; stroke-width: 1.5;" width="159" x="955" y="28.9531"/><ellipse cx="970" cy="44.9531" fill="#ADD1B2" rx="11" ry="11" style="stroke: #A80036; stroke-width: 1.0;"/><path d="M972.3438,40.625 L972.5156,40.7031 C972.7344,40.3906 972.9375,40.2969 973.2344,40.2969 C973.5313,40.2969 973.8125,40.4375 973.9688,40.7031 C974.0625,40.8594 974.0781,40.9844 974.0781,41.4219 L974.0781,42.8438 C974.0781,43.2656 974.0469,43.4531 973.9375,43.6094 C973.7656,43.8281 973.5,43.9688 973.2344,43.9688 C973.0156,43.9688 972.7813,43.8594 972.6406,43.7188 C972.5,43.5938 972.4688,43.4688 972.4063,43.0625 C972.3125,42.6563 972.1406,42.4375 971.6563,42.1563 C971.1875,41.9063 970.5781,41.75 970,41.75 C968.2656,41.75 967.0156,43.0625 967.0156,44.8438 L967.0156,45.9375 C967.0156,47.6406 968.3125,48.7344 970.3594,48.7344 C971.125,48.7344 971.8125,48.6094 972.2344,48.3438 C972.4219,48.25 972.4219,48.25 972.875,47.7656 C973.0625,47.5781 973.2656,47.5 973.4844,47.5 C973.9531,47.5 974.3438,47.8906 974.3438,48.3438 C974.3438,48.7344 974.0156,49.1875 973.4375,49.5938 C972.6875,50.1406 971.5313,50.4375 970.3125,50.4375 C967.4219,50.4375 965.3125,48.5469 965.3125,45.9688 L965.3125,44.8438 C965.3125,42.125 967.3125,40.0469 969.9375,40.0469 C970.8125,40.0469 971.4063,40.1875 972.3438,40.625 Z "/><text fill="#000000" font-family="sans-serif" font-size="12" lengthAdjust="spacingAndGlyphs" textLength="127" x="984" y="49.1074">ComponentManager</text><line style="stroke: #A80036; stroke-width: 1.5;" x1="956" x2="1113" y1="60.9531" y2="60.9531"/><line style="stroke: #A80036; stroke-width: 1.5;" x1="956" x2="1113" y1="68.9531" y2="68.9531"/><!--MD5=[f64d6c5a7e2e601663a4684c39e028ad]
reverse link Component to Physics--><path d="M962.637,173.1881 C819.727,195.5311 504.211,244.8601 394.774,261.9691 " fill="none" id="Component&lt;-Physics" style="stroke: #A80036; stroke-width: 1.0;"/><polygon fill="none" points="961.583,166.2681,982.424,170.0951,963.746,180.1001,961.583,166.2681" style="stroke: #A80036; stroke-width: 1.0;"/><!--MD5=[7c2871285e4feefe6faaafa33c11b28d]
reverse link Component to Display--><path d="M968.67,193.6711 C930.799,211.9181 884.551,234.2011 852.644,249.5741 " fill="none" id="Component&lt;-Display" style="stroke: #A80036; stroke-width: 1.0;"/><polygon fill="none" points="965.707,187.3291,986.763,184.9531,971.784,199.9411,965.707,187.3291" style="stroke: #A80036; stroke-width: 1.0;"/><!--MD5=[57c62f8c4bd74de27ce54693646f013d]
reverse link Component to IO--><path d="M1034.5,204.9771 C1034.5,218.5321 1034.5,232.9911 1034.5,244.6311 " fill="none" id="Component&lt;-IO" style="stroke: #A80036; stroke-width: 1.0;"/><polygon fill="none" points="1027.5,204.9531,1034.5,184.9531,1041.5,204.9531,1027.5,204.9531" style="stroke: #A80036; stroke-width: 1.0;"/><!--MD5=[830e7153354ddcdb9c67ff3ef652620c]
reverse link Component to GameLogic--><path d="M1106.12,184.9591 C1168.8,205.0921 1258.28,233.8351 1313.81,251.6711 " fill="none" id="Component&lt;-GameLogic" style="stroke: #A80036; stroke-width: 1.0;"/><polygon fill="none" points="1103.69,191.5301,1086.79,178.7491,1107.97,178.2011,1103.69,191.5301" style="stroke: #A80036; stroke-width: 1.0;"/><!--MD5=[8bc990483dd2587522772e54bf6e1c52]
reverse link Component to Network--><path d="M1106.44,173.2491 C1186.84,186.7271 1320.46,211.6831 1432.5,244.9531 C1438.19,246.6431 1444.11,248.6431 1449.9,250.7481 " fill="none" id="Component&lt;-Network" style="stroke: #A80036; stroke-width: 1.0;"/><polygon fill="none" points="1105.3,180.1551,1086.7,169.9931,1107.58,166.3421,1105.3,180.1551" style="stroke: #A80036; stroke-width: 1.0;"/><!--MD5=[f0904fea9ce1ecf6f04dcc81e3b5a874]
reverse link Physics to Gravity--><path d="M298.521,283.7661 C247.607,297.2511 172.514,320.4891 112.5,352.9531 C102.7637,358.2201 92.9817,365.0091 84.1576,371.8301 " fill="none" id="Physics&lt;-Gravity" style="stroke: #A80036; stroke-width: 1.0;"/><polygon fill="none" points="296.973,276.9361,318.085,278.7491,300.451,290.4981,296.973,276.9361" style="stroke: #A80036; stroke-width: 1.0;"/><!--MD5=[31cfe823d41fc29394676f8479336b8f]
reverse link Physics to Collision--><path d="M307.847,304.6871 C287.294,319.4581 263.152,336.9391 241.5,352.9531 C236.008,357.0151 230.273,361.2991 224.591,365.5711 " fill="none" id="Physics&lt;-Collision" style="stroke: #A80036; stroke-width: 1.0;"/><polygon fill="none" points="303.801,298.9741,324.133,293.0081,311.959,310.3521,303.801,298.9741" style="stroke: #A80036; stroke-width: 1.0;"/><!--MD5=[58a7aef5da5d32f49bdc6b5031de662b]
reverse link Physics to Motion--><path d="M337.566,311.4491 C327.542,333.4201 315.6,359.5931 307.185,378.0361 " fill="none" id="Physics&lt;-Motion" style="stroke: #A80036; stroke-width: 1.0;"/><polygon fill="none" points="331.241,308.4501,345.911,293.1601,343.978,314.2611,331.241,308.4501" style="stroke: #A80036; stroke-width: 1.0;"/><!--MD5=[058a4c7fd890db3e405645705a9aaacb]
reverse link Physics to Transform--><path d="M375.492,311.5771 C384.378,331.0521 394.76,353.8061 402.855,371.5471 " fill="none" id="Physics&lt;-Transform" style="stroke: #A80036; stroke-width: 1.0;"/><polygon fill="none" points="369.022,314.2611,367.089,293.1601,381.759,308.4501,369.022,314.2611" style="stroke: #A80036; stroke-width: 1.0;"/><!--MD5=[1c874e2807395554b55f826c709fa9a2]
reverse link Physics to Rotation--><path d="M407.994,304.0351 C430.574,319.0071 457.375,336.8191 481.5,352.9531 C490.645,359.0691 500.43,365.6411 509.745,371.9111 " fill="none" id="Physics&lt;-Rotation" style="stroke: #A80036; stroke-width: 1.0;"/><polygon fill="none" points="404.1,309.8511,391.295,292.9681,411.834,298.1811,404.1,309.8511" style="stroke: #A80036; stroke-width: 1.0;"/><!--MD5=[4b1053889b3fd25a0b49e40e8496d51f]
reverse link Motion to Velocity--><path d="M263.127,441.8321 C243.979,463.8521 220.292,491.0921 202.529,511.5201 " fill="none" id="Motion&lt;-Velocity" style="stroke: #A80036; stroke-width: 1.0;"/><polygon fill="none" points="258.009,437.0501,276.415,426.5511,268.573,446.2361,258.009,437.0501" style="stroke: #A80036; stroke-width: 1.0;"/><!--MD5=[687e779990df80d72387076711486e5c]
reverse link Motion to Acceleration--><path d="M301.206,446.7441 C303.494,467.8021 306.188,492.5871 308.246,511.5201 " fill="none" id="Motion&lt;-Acceleration" style="stroke: #A80036; stroke-width: 1.0;"/><polygon fill="none" points="294.213,447.1901,299.011,426.5511,308.131,445.6781,294.213,447.1901" style="stroke: #A80036; stroke-width: 1.0;"/><!--MD5=[f414a8ebf6dbf2512bf25aa872d92ee9]
reverse link Display to UI--><path d="M763.644,304.8971 C744.613,318.9281 723.309,335.8231 705.5,352.9531 C697.477,360.6711 689.497,369.9381 682.799,378.2941 " fill="none" id="Display&lt;-UI" style="stroke: #A80036; stroke-width: 1.0;"/><polygon fill="none" points="759.657,299.1431,779.976,293.1331,767.839,310.5031,759.657,299.1431" style="stroke: #A80036; stroke-width: 1.0;"/><!--MD5=[5246c376d61dc6bb5efdf63865c9a183]
reverse link Display to Sprite--><path d="M796.458,311.5771 C788.016,331.0521 778.153,353.8061 770.463,371.5471 " fill="none" id="Display&lt;-Sprite" style="stroke: #A80036; stroke-width: 1.0;"/><polygon fill="none" points="790.064,308.7261,804.441,293.1601,802.909,314.2941,790.064,308.7261" style="stroke: #A80036; stroke-width: 1.0;"/><!--MD5=[30007032a59c068da34037f6271834bf]
reverse link Display to Animator--><path d="M832.542,311.5771 C840.984,331.0521 850.847,353.8061 858.537,371.5471 " fill="none" id="Display&lt;-Animator" style="stroke: #A80036; stroke-width: 1.0;"/><polygon fill="none" points="826.091,314.2941,824.559,293.1601,838.936,308.7261,826.091,314.2941" style="stroke: #A80036; stroke-width: 1.0;"/><!--MD5=[551dae403e4cca8629c138b9bbaa3337]
reverse link UI to Button--><path d="M635.934,442.3931 C632.598,445.8151 629.098,449.0691 625.5,451.9531 C579.596,488.7541 559.649,484.7131 507.5,511.9531 C501.738,514.9631 495.655,518.1831 489.719,521.3481 " fill="none" id="UI&lt;-Button" style="stroke: #A80036; stroke-width: 1.0;"/><polygon fill="none" points="630.928,437.4801,649.307,426.9341,641.516,446.6401,630.928,437.4801" style="stroke: #A80036; stroke-width: 1.0;"/><!--MD5=[88da4c2eaafb038b8b48983d9de1cb72]
reverse link UI to PopUp--><path d="M635.846,442.8021 C619.382,464.6481 599.228,491.3911 584.058,511.5201 " fill="none" id="UI&lt;-PopUp" style="stroke: #A80036; stroke-width: 1.0;"/><polygon fill="none" points="630.465,438.3101,648.093,426.5511,641.646,446.7361,630.465,438.3101" style="stroke: #A80036; stroke-width: 1.0;"/><!--MD5=[186d2293ddc961fba8d7370e967a4187]
reverse link UI to Text--><path d="M665.5,446.7441 C665.5,467.8021 665.5,492.5871 665.5,511.5201 " fill="none" id="UI&lt;-Text" style="stroke: #A80036; stroke-width: 1.0;"/><polygon fill="none" points="658.5,446.5511,665.5,426.5511,672.5,446.5511,658.5,446.5511" style="stroke: #A80036; stroke-width: 1.0;"/><!--MD5=[c3f9126ac744ddc43e66a4d5a0d9796f]
reverse link UI to Image--><path d="M694.869,442.8021 C711.174,464.6481 731.135,491.3911 746.158,511.5201 " fill="none" id="UI&lt;-Image" style="stroke: #A80036; stroke-width: 1.0;"/><polygon fill="none" points="689.093,446.7661,682.74,426.5511,700.312,438.3921,689.093,446.7661" style="stroke: #A80036; stroke-width: 1.0;"/><!--MD5=[6ca73ffb0742a031ff1cd015aaadfe9b]
reverse link Text to StaticText--><path d="M665.5,593.3541 C665.5,611.4326 665.5,630.998 665.5,645.6943 " fill="none" id="Text&lt;-StaticText" style="stroke: #A80036; stroke-width: 1.0;"/><polygon fill="none" points="658.5,593.1951,665.5,573.1951,672.5,593.1951,658.5,593.1951" style="stroke: #A80036; stroke-width: 1.0;"/><!--MD5=[86aec54947abe2082ab0f3f5e976e2c0]
reverse link IO to Input--><path d="M1017.96,311.7841 C1009.3,333.6851 999.016,359.6871 991.76,378.0361 " fill="none" id="IO&lt;-Input" style="stroke: #A80036; stroke-width: 1.0;"/><polygon fill="none" points="1011.46,309.1841,1025.32,293.1601,1024.48,314.3331,1011.46,309.1841" style="stroke: #A80036; stroke-width: 1.0;"/><!--MD5=[36824d079dee923af4c5fd373bd18c98]
reverse link IO to Output--><path d="M1051.36,311.7841 C1060.19,333.6851 1070.67,359.6871 1078.06,378.0361 " fill="none" id="IO&lt;-Output" style="stroke: #A80036; stroke-width: 1.0;"/><polygon fill="none" points="1044.84,314.3271,1043.85,293.1601,1057.82,309.0931,1044.84,314.3271" style="stroke: #A80036; stroke-width: 1.0;"/><!--MD5=[18c9ad18f1921645f870166335e1124f]
reverse link Output to Sound--><path d="M1105.6,445.0901 C1114.91,466.4931 1126.04,492.0891 1134.49,511.5201 " fill="none" id="Output&lt;-Sound" style="stroke: #A80036; stroke-width: 1.0;"/><polygon fill="none" points="1099.1,447.6841,1097.54,426.5511,1111.94,442.1011,1099.1,447.6841" style="stroke: #A80036; stroke-width: 1.0;"/><!--MD5=[477dc51b76e5462c047cbdbe96ad3008]
reverse link Input to Controller--><path d="M954.704,442.9981 C937.579,467.3621 916.214,497.7571 901.789,518.2801 " fill="none" id="Input&lt;-Controller" style="stroke: #A80036; stroke-width: 1.0;"/><polygon fill="none" points="949.036,438.8881,966.264,426.5511,960.49,446.9391,949.036,438.8881" style="stroke: #A80036; stroke-width: 1.0;"/><!--MD5=[31d67181abb564d6713cba5f93e88f28]
reverse link Input to DummyInput--><path d="M994.485,445.8631 C1001.224,469.7081 1009.38,498.5541 1014.95,518.2801 " fill="none" id="Input&lt;-DummyInput" style="stroke: #A80036; stroke-width: 1.0;"/><polygon fill="none" points="987.731,447.7011,989.028,426.5511,1001.203,443.8941,987.731,447.7011" style="stroke: #A80036; stroke-width: 1.0;"/><!--MD5=[c68d64213a54838dcd584954ae20eae0]
reverse link Controller to KeyBoard--><path d="M870.758,585.5021 C865.385,600.8261 859.362,618.0047 854.184,632.7743 " fill="none" id="Controller&lt;-KeyBoard" style="stroke: #A80036; stroke-width: 1.0;"/><polygon fill="none" points="864.207,583.0291,877.43,566.4721,877.418,587.6611,864.207,583.0291" style="stroke: #A80036; stroke-width: 1.0;"/><!--MD5=[1f4d4c9fb57d20e6842437295b0abf30]
reverse link Controller to GameController--><path d="M917.976,581.9031 C931.65,598.0931 947.481,616.8364 960.943,632.7743 " fill="none" id="Controller&lt;-GameController" style="stroke: #A80036; stroke-width: 1.0;"/><polygon fill="none" points="912.5,586.2681,904.942,566.4721,923.195,577.2341,912.5,586.2681" style="stroke: #A80036; stroke-width: 1.0;"/><!--MD5=[2c34f49e3f9b59a084acba64658d4d5e]
reverse link GameLogic to Health--><path d="M1314.44,304.7121 C1294.23,319.1781 1270.91,336.4281 1250.5,352.9531 C1240.61,360.9611 1230.12,370.2001 1221.04,378.4511 " fill="none" id="GameLogic&lt;-Health" style="stroke: #A80036; stroke-width: 1.0;"/><polygon fill="none" points="1310.54,298.9021,1330.9,293.0501,1318.63,310.3251,1310.54,298.9021" style="stroke: #A80036; stroke-width: 1.0;"/><!--MD5=[bcfc786a2c78d16248523a19b357cf1b]
reverse link GameLogic to Damage--><path d="M1347.32,311.7841 C1338.33,333.6851 1327.65,359.6871 1320.12,378.0361 " fill="none" id="GameLogic&lt;-Damage" style="stroke: #A80036; stroke-width: 1.0;"/><polygon fill="none" points="1340.9,309.0021,1354.97,293.1601,1353.85,314.3201,1340.9,309.0021" style="stroke: #A80036; stroke-width: 1.0;"/><!--MD5=[8e6115d58d9b58eacb0188e4c6e5c1f5]
reverse link GameLogic to Level--><path d="M1382,311.7841 C1391.16,333.6851 1402.03,359.6871 1409.71,378.0361 " fill="none" id="GameLogic&lt;-Level" style="stroke: #A80036; stroke-width: 1.0;"/><polygon fill="none" points="1375.47,314.3121,1374.21,293.1601,1388.38,308.9101,1375.47,314.3121" style="stroke: #A80036; stroke-width: 1.0;"/><!--MD5=[dd7743c7e03166eb669aac8548088136]
reverse link GameLogic to Scale--><path d="M1410.94,305.6151 C1429.17,319.9781 1450.1,336.9161 1468.5,352.9531 C1477.71,360.9811 1487.51,370.1381 1496.03,378.3171 " fill="none" id="GameLogic&lt;-Scale" style="stroke: #A80036; stroke-width: 1.0;"/><polygon fill="none" points="1406.56,311.0741,1395.1,293.2481,1415.17,300.0401,1406.56,311.0741" style="stroke: #A80036; stroke-width: 1.0;"/><!--MD5=[8dde56cf7ffe845c047057c3279e9fb3]
reverse link GameLogic to Item--><path d="M1434.32,294.7811 C1484.21,313.1651 1546.44,337.5901 1569.5,352.9531 C1579.95,359.9151 1589.98,369.4271 1598.14,378.1831 " fill="none" id="GameLogic&lt;-Item" style="stroke: #A80036; stroke-width: 1.0;"/><polygon fill="none" points="1431.61,301.2451,1415.22,287.8151,1436.41,288.0931,1431.61,301.2451" style="stroke: #A80036; stroke-width: 1.0;"/><!--MD5=[b817df27682f6ef148555e5263de0e6d]
reverse link GameLogic to Power--><path d="M1434.74,293.1251 C1538.87,321.1981 1576.19,305.0421 1664.5,352.9531 C1676.45,359.4361 1687.83,369.1911 1696.96,378.2561 " fill="none" id="GameLogic&lt;-Power" style="stroke: #A80036; stroke-width: 1.0;"/><polygon fill="none" points="1432.56,299.7811,1415.24,287.5671,1436.39,286.3171,1432.56,299.7811" style="stroke: #A80036; stroke-width: 1.0;"/><!--MD5=[c87ad2d4323f12a0fba8ff8eaeebf034]
link ComponentManager to Component--><path d="M1034.5,76.9531 C1034.5,90.4731 1034.5,107.8751 1034.5,123.2511 " fill="none" id="ComponentManager-&gt;Component" style="stroke: #A80036; stroke-width: 1.0;"/><polygon fill="#FFFFFF" points="1034.5,136.6311,1038.5,130.6311,1034.5,124.6311,1030.5,130.6311,1034.5,136.6311" style="stroke: #A80036; stroke-width: 1.0;"/><!--MD5=[58c9afdceb52081c34627016ebaca173]
@startuml
title R-Type Component

Interface Component

Component <|- - Physics
Component <|- - Display
Component <|- - IO
Component <|- - GameLogic
Component <|- - Network

interface Physics

class Gravity {
    - value: float
}

class Collision {
    - x: 
    - y: 
    - height: float
    - width: float
}

class Motion

class Velocity {
    - value: float
}
class Acceleration {
    - value: float
}

class Transform {
    - value: float
}
class Rotation {
    - radAngle: float
}


Physics <|- - Gravity
Physics <|- - Collision
Physics <|- - Motion 
Physics <|- - Transform
Physics <|- - Rotation

Motion <|- - Velocity
Motion <|- - Acceleration


interface Display

Display <|- - UI
Display <|- - Sprite
Display <|- - Animator

UI <|- - Button
UI <|- - PopUp
UI <|- - Text
UI <|- - Image

Text <|- - StaticText

class UI {
}

class Button {
    - id: uint
}
class PopUp {
    - id: uint
}
class Text {
    - id: uint
}
class Image {
    - id: uint
}

class Sprite {
    - id: uint
}

class Animator {
    - id: uint
}

interface IO

IO <|- - Input
IO <|- - Output

Output <|- - Sound

Input <|- - Controller
Input <|- - DummyInput

Controller <|- - KeyBoard
Controller <|- - GameController

class Sound {
    - id: uint
}

class Controller

class KeyBoard {
    - id: uint
    - keyMap: map
}
class GameController {
    - id: uint
    - keyMap: map
}

interface GameLogic

GameLogic <|- - Health
GameLogic <|- - Damage
GameLogic <|- - Level
GameLogic <|- - Scale
GameLogic <|- - Item
GameLogic <|- - Power


ComponentManager - -o Component
@enduml

PlantUML version 1.2019.12(Sun Nov 03 10:24:54 UTC 2019)
(GPL source distribution)
Java Runtime: Java(TM) SE Runtime Environment
JVM: Java HotSpot(TM) 64-Bit Server VM
Java Version: 1.7.0_25-b15
Operating System: Linux
Default Encoding: UTF-8
Language: en
Country: US
--></g></svg>