<?xml version="1.0" encoding="UTF-8" standalone="no"?><svg xmlns="http://www.w3.org/2000/svg" xmlns:xlink="http://www.w3.org/1999/xlink" contentScriptType="application/ecmascript" contentStyleType="text/css" height="519px" preserveAspectRatio="none" style="width:1226px;height:519px;" version="1.1" viewBox="0 0 1226 519" width="1226px" zoomAndPan="magnify"><defs><filter height="300%" id="fpkyo9t44pva5" width="300%" x="-1" y="-1"><feGaussianBlur result="blurOut" stdDeviation="2.0"/><feColorMatrix in="blurOut" result="blurOut2" type="matrix" values="0 0 0 0 0 0 0 0 0 0 0 0 0 0 0 0 0 0 .4 0"/><feOffset dx="4.0" dy="4.0" in="blurOut2" result="blurOut3"/><feBlend in="SourceGraphic" in2="blurOut3" mode="normal"/></filter></defs><g><text fill="#000000" font-family="sans-serif" font-size="18" lengthAdjust="spacingAndGlyphs" textLength="123" x="555" y="16.708">R-Type Entity</text><!--MD5=[50f223dc1404568940f50a1eaf520228]
class EntityManager--><rect fill="#FEFECE" filter="url(#fpkyo9t44pva5)" height="48" id="EntityManager" style="stroke: #A80036; stroke-width: 1.5;" width="122" x="451" y="28.9531"/><ellipse cx="466" cy="44.9531" fill="#ADD1B2" rx="11" ry="11" style="stroke: #A80036; stroke-width: 1.0;"/><path d="M468.3438,40.625 L468.5156,40.7031 C468.7344,40.3906 468.9375,40.2969 469.2344,40.2969 C469.5313,40.2969 469.8125,40.4375 469.9688,40.7031 C470.0625,40.8594 470.0781,40.9844 470.0781,41.4219 L470.0781,42.8438 C470.0781,43.2656 470.0469,43.4531 469.9375,43.6094 C469.7656,43.8281 469.5,43.9688 469.2344,43.9688 C469.0156,43.9688 468.7813,43.8594 468.6406,43.7188 C468.5,43.5938 468.4688,43.4688 468.4063,43.0625 C468.3125,42.6563 468.1406,42.4375 467.6563,42.1563 C467.1875,41.9063 466.5781,41.75 466,41.75 C464.2656,41.75 463.0156,43.0625 463.0156,44.8438 L463.0156,45.9375 C463.0156,47.6406 464.3125,48.7344 466.3594,48.7344 C467.125,48.7344 467.8125,48.6094 468.2344,48.3438 C468.4219,48.25 468.4219,48.25 468.875,47.7656 C469.0625,47.5781 469.2656,47.5 469.4844,47.5 C469.9531,47.5 470.3438,47.8906 470.3438,48.3438 C470.3438,48.7344 470.0156,49.1875 469.4375,49.5938 C468.6875,50.1406 467.5313,50.4375 466.3125,50.4375 C463.4219,50.4375 461.3125,48.5469 461.3125,45.9688 L461.3125,44.8438 C461.3125,42.125 463.3125,40.0469 465.9375,40.0469 C466.8125,40.0469 467.4063,40.1875 468.3438,40.625 Z "/><text fill="#000000" font-family="sans-serif" font-size="12" lengthAdjust="spacingAndGlyphs" textLength="90" x="480" y="49.1074">EntityManager</text><line style="stroke: #A80036; stroke-width: 1.5;" x1="452" x2="572" y1="60.9531" y2="60.9531"/><line style="stroke: #A80036; stroke-width: 1.5;" x1="452" x2="572" y1="68.9531" y2="68.9531"/><!--MD5=[be996cdb8e6bf2fc7cb89c555f2cd144]
class Entity--><rect fill="#FEFECE" filter="url(#fpkyo9t44pva5)" height="48" id="Entity" style="stroke: #A80036; stroke-width: 1.5;" width="68" x="478" y="136.9531"/><ellipse cx="493" cy="152.9531" fill="#B4A7E5" rx="11" ry="11" style="stroke: #A80036; stroke-width: 1.0;"/><path d="M493.9531,149.7344 L493.9531,156.25 L495.6719,156.25 C496.125,156.25 496.2656,156.2813 496.4375,156.4063 C496.6719,156.5781 496.7813,156.8281 496.7813,157.1094 C496.7813,157.6719 496.4219,157.9531 495.6719,157.9531 L490.5313,157.9531 C490.125,157.9531 489.9219,157.9063 489.7656,157.7813 C489.5469,157.625 489.4063,157.3594 489.4063,157.1094 C489.4063,156.8125 489.5625,156.5313 489.8125,156.375 C489.9688,156.2656 490.0938,156.25 490.5313,156.25 L492.25,156.25 L492.25,149.7344 L490.5313,149.7344 C490.1094,149.7344 489.9219,149.7031 489.7656,149.5938 C489.5469,149.4219 489.4063,149.1719 489.4063,148.8906 C489.4063,148.6094 489.5625,148.3125 489.8125,148.1563 C489.9688,148.0625 490.0938,148.0469 490.5313,148.0469 L495.6719,148.0469 C496.125,148.0469 496.2656,148.0781 496.4375,148.1875 C496.6719,148.3594 496.7813,148.625 496.7813,148.8906 C496.7813,149.1875 496.6406,149.4688 496.375,149.625 C496.25,149.7031 496.0625,149.7344 495.6719,149.7344 Z "/><text fill="#000000" font-family="sans-serif" font-size="12" font-style="italic" lengthAdjust="spacingAndGlyphs" textLength="36" x="507" y="157.1074">Entity</text><line style="stroke: #A80036; stroke-width: 1.5;" x1="479" x2="545" y1="168.9531" y2="168.9531"/><line style="stroke: #A80036; stroke-width: 1.5;" x1="479" x2="545" y1="176.9531" y2="176.9531"/><!--MD5=[9e086ae7cb173547c374b8a4e58c7dec]
class Projectile--><rect fill="#FEFECE" filter="url(#fpkyo9t44pva5)" height="48" id="Projectile" style="stroke: #A80036; stroke-width: 1.5;" width="90" x="143" y="244.9531"/><ellipse cx="158" cy="260.9531" fill="#ADD1B2" rx="11" ry="11" style="stroke: #A80036; stroke-width: 1.0;"/><path d="M160.3438,256.625 L160.5156,256.7031 C160.7344,256.3906 160.9375,256.2969 161.2344,256.2969 C161.5313,256.2969 161.8125,256.4375 161.9688,256.7031 C162.0625,256.8594 162.0781,256.9844 162.0781,257.4219 L162.0781,258.8438 C162.0781,259.2656 162.0469,259.4531 161.9375,259.6094 C161.7656,259.8281 161.5,259.9688 161.2344,259.9688 C161.0156,259.9688 160.7813,259.8594 160.6406,259.7188 C160.5,259.5938 160.4688,259.4688 160.4063,259.0625 C160.3125,258.6563 160.1406,258.4375 159.6563,258.1563 C159.1875,257.9063 158.5781,257.75 158,257.75 C156.2656,257.75 155.0156,259.0625 155.0156,260.8438 L155.0156,261.9375 C155.0156,263.6406 156.3125,264.7344 158.3594,264.7344 C159.125,264.7344 159.8125,264.6094 160.2344,264.3438 C160.4219,264.25 160.4219,264.25 160.875,263.7656 C161.0625,263.5781 161.2656,263.5 161.4844,263.5 C161.9531,263.5 162.3438,263.8906 162.3438,264.3438 C162.3438,264.7344 162.0156,265.1875 161.4375,265.5938 C160.6875,266.1406 159.5313,266.4375 158.3125,266.4375 C155.4219,266.4375 153.3125,264.5469 153.3125,261.9688 L153.3125,260.8438 C153.3125,258.125 155.3125,256.0469 157.9375,256.0469 C158.8125,256.0469 159.4063,256.1875 160.3438,256.625 Z "/><text fill="#000000" font-family="sans-serif" font-size="12" lengthAdjust="spacingAndGlyphs" textLength="58" x="172" y="265.1074">Projectile</text><line style="stroke: #A80036; stroke-width: 1.5;" x1="144" x2="232" y1="276.9531" y2="276.9531"/><line style="stroke: #A80036; stroke-width: 1.5;" x1="144" x2="232" y1="284.9531" y2="284.9531"/><!--MD5=[70dca01cb640c6297097211b1af9c9f5]
class Laser--><rect fill="#FEFECE" filter="url(#fpkyo9t44pva5)" height="48" id="Laser" style="stroke: #A80036; stroke-width: 1.5;" width="66" x="6" y="352.9531"/><ellipse cx="21" cy="368.9531" fill="#ADD1B2" rx="11" ry="11" style="stroke: #A80036; stroke-width: 1.0;"/><path d="M23.3438,364.625 L23.5156,364.7031 C23.7344,364.3906 23.9375,364.2969 24.2344,364.2969 C24.5313,364.2969 24.8125,364.4375 24.9688,364.7031 C25.0625,364.8594 25.0781,364.9844 25.0781,365.4219 L25.0781,366.8438 C25.0781,367.2656 25.0469,367.4531 24.9375,367.6094 C24.7656,367.8281 24.5,367.9688 24.2344,367.9688 C24.0156,367.9688 23.7813,367.8594 23.6406,367.7188 C23.5,367.5938 23.4688,367.4688 23.4063,367.0625 C23.3125,366.6563 23.1406,366.4375 22.6563,366.1563 C22.1875,365.9063 21.5781,365.75 21,365.75 C19.2656,365.75 18.0156,367.0625 18.0156,368.8438 L18.0156,369.9375 C18.0156,371.6406 19.3125,372.7344 21.3594,372.7344 C22.125,372.7344 22.8125,372.6094 23.2344,372.3438 C23.4219,372.25 23.4219,372.25 23.875,371.7656 C24.0625,371.5781 24.2656,371.5 24.4844,371.5 C24.9531,371.5 25.3438,371.8906 25.3438,372.3438 C25.3438,372.7344 25.0156,373.1875 24.4375,373.5938 C23.6875,374.1406 22.5313,374.4375 21.3125,374.4375 C18.4219,374.4375 16.3125,372.5469 16.3125,369.9688 L16.3125,368.8438 C16.3125,366.125 18.3125,364.0469 20.9375,364.0469 C21.8125,364.0469 22.4063,364.1875 23.3438,364.625 Z "/><text fill="#000000" font-family="sans-serif" font-size="12" lengthAdjust="spacingAndGlyphs" textLength="34" x="35" y="373.1074">Laser</text><line style="stroke: #A80036; stroke-width: 1.5;" x1="7" x2="71" y1="384.9531" y2="384.9531"/><line style="stroke: #A80036; stroke-width: 1.5;" x1="7" x2="71" y1="392.9531" y2="392.9531"/><!--MD5=[2824395d61b6e4620487641a86c41e67]
class Bullet--><rect fill="#FEFECE" filter="url(#fpkyo9t44pva5)" height="48" id="Bullet" style="stroke: #A80036; stroke-width: 1.5;" width="67" x="107.5" y="352.9531"/><ellipse cx="122.5" cy="368.9531" fill="#ADD1B2" rx="11" ry="11" style="stroke: #A80036; stroke-width: 1.0;"/><path d="M124.8438,364.625 L125.0156,364.7031 C125.2344,364.3906 125.4375,364.2969 125.7344,364.2969 C126.0313,364.2969 126.3125,364.4375 126.4688,364.7031 C126.5625,364.8594 126.5781,364.9844 126.5781,365.4219 L126.5781,366.8438 C126.5781,367.2656 126.5469,367.4531 126.4375,367.6094 C126.2656,367.8281 126,367.9688 125.7344,367.9688 C125.5156,367.9688 125.2813,367.8594 125.1406,367.7188 C125,367.5938 124.9688,367.4688 124.9063,367.0625 C124.8125,366.6563 124.6406,366.4375 124.1563,366.1563 C123.6875,365.9063 123.0781,365.75 122.5,365.75 C120.7656,365.75 119.5156,367.0625 119.5156,368.8438 L119.5156,369.9375 C119.5156,371.6406 120.8125,372.7344 122.8594,372.7344 C123.625,372.7344 124.3125,372.6094 124.7344,372.3438 C124.9219,372.25 124.9219,372.25 125.375,371.7656 C125.5625,371.5781 125.7656,371.5 125.9844,371.5 C126.4531,371.5 126.8438,371.8906 126.8438,372.3438 C126.8438,372.7344 126.5156,373.1875 125.9375,373.5938 C125.1875,374.1406 124.0313,374.4375 122.8125,374.4375 C119.9219,374.4375 117.8125,372.5469 117.8125,369.9688 L117.8125,368.8438 C117.8125,366.125 119.8125,364.0469 122.4375,364.0469 C123.3125,364.0469 123.9063,364.1875 124.8438,364.625 Z "/><text fill="#000000" font-family="sans-serif" font-size="12" lengthAdjust="spacingAndGlyphs" textLength="35" x="136.5" y="373.1074">Bullet</text><line style="stroke: #A80036; stroke-width: 1.5;" x1="108.5" x2="173.5" y1="384.9531" y2="384.9531"/><line style="stroke: #A80036; stroke-width: 1.5;" x1="108.5" x2="173.5" y1="392.9531" y2="392.9531"/><!--MD5=[a5dc8f4c5593da54b0269a88fd736024]
class Rocket--><rect fill="#FEFECE" filter="url(#fpkyo9t44pva5)" height="48" id="Rocket" style="stroke: #A80036; stroke-width: 1.5;" width="75" x="209.5" y="352.9531"/><ellipse cx="224.5" cy="368.9531" fill="#ADD1B2" rx="11" ry="11" style="stroke: #A80036; stroke-width: 1.0;"/><path d="M226.8438,364.625 L227.0156,364.7031 C227.2344,364.3906 227.4375,364.2969 227.7344,364.2969 C228.0313,364.2969 228.3125,364.4375 228.4688,364.7031 C228.5625,364.8594 228.5781,364.9844 228.5781,365.4219 L228.5781,366.8438 C228.5781,367.2656 228.5469,367.4531 228.4375,367.6094 C228.2656,367.8281 228,367.9688 227.7344,367.9688 C227.5156,367.9688 227.2813,367.8594 227.1406,367.7188 C227,367.5938 226.9688,367.4688 226.9063,367.0625 C226.8125,366.6563 226.6406,366.4375 226.1563,366.1563 C225.6875,365.9063 225.0781,365.75 224.5,365.75 C222.7656,365.75 221.5156,367.0625 221.5156,368.8438 L221.5156,369.9375 C221.5156,371.6406 222.8125,372.7344 224.8594,372.7344 C225.625,372.7344 226.3125,372.6094 226.7344,372.3438 C226.9219,372.25 226.9219,372.25 227.375,371.7656 C227.5625,371.5781 227.7656,371.5 227.9844,371.5 C228.4531,371.5 228.8438,371.8906 228.8438,372.3438 C228.8438,372.7344 228.5156,373.1875 227.9375,373.5938 C227.1875,374.1406 226.0313,374.4375 224.8125,374.4375 C221.9219,374.4375 219.8125,372.5469 219.8125,369.9688 L219.8125,368.8438 C219.8125,366.125 221.8125,364.0469 224.4375,364.0469 C225.3125,364.0469 225.9063,364.1875 226.8438,364.625 Z "/><text fill="#000000" font-family="sans-serif" font-size="12" lengthAdjust="spacingAndGlyphs" textLength="43" x="238.5" y="373.1074">Rocket</text><line style="stroke: #A80036; stroke-width: 1.5;" x1="210.5" x2="283.5" y1="384.9531" y2="384.9531"/><line style="stroke: #A80036; stroke-width: 1.5;" x1="210.5" x2="283.5" y1="392.9531" y2="392.9531"/><!--MD5=[d036e37c22ad1eef36887cd65012db8d]
class Plasma--><rect fill="#FEFECE" filter="url(#fpkyo9t44pva5)" height="48" id="Plasma" style="stroke: #A80036; stroke-width: 1.5;" width="77" x="319.5" y="352.9531"/><ellipse cx="334.5" cy="368.9531" fill="#ADD1B2" rx="11" ry="11" style="stroke: #A80036; stroke-width: 1.0;"/><path d="M336.8438,364.625 L337.0156,364.7031 C337.2344,364.3906 337.4375,364.2969 337.7344,364.2969 C338.0313,364.2969 338.3125,364.4375 338.4688,364.7031 C338.5625,364.8594 338.5781,364.9844 338.5781,365.4219 L338.5781,366.8438 C338.5781,367.2656 338.5469,367.4531 338.4375,367.6094 C338.2656,367.8281 338,367.9688 337.7344,367.9688 C337.5156,367.9688 337.2813,367.8594 337.1406,367.7188 C337,367.5938 336.9688,367.4688 336.9063,367.0625 C336.8125,366.6563 336.6406,366.4375 336.1563,366.1563 C335.6875,365.9063 335.0781,365.75 334.5,365.75 C332.7656,365.75 331.5156,367.0625 331.5156,368.8438 L331.5156,369.9375 C331.5156,371.6406 332.8125,372.7344 334.8594,372.7344 C335.625,372.7344 336.3125,372.6094 336.7344,372.3438 C336.9219,372.25 336.9219,372.25 337.375,371.7656 C337.5625,371.5781 337.7656,371.5 337.9844,371.5 C338.4531,371.5 338.8438,371.8906 338.8438,372.3438 C338.8438,372.7344 338.5156,373.1875 337.9375,373.5938 C337.1875,374.1406 336.0313,374.4375 334.8125,374.4375 C331.9219,374.4375 329.8125,372.5469 329.8125,369.9688 L329.8125,368.8438 C329.8125,366.125 331.8125,364.0469 334.4375,364.0469 C335.3125,364.0469 335.9063,364.1875 336.8438,364.625 Z "/><text fill="#000000" font-family="sans-serif" font-size="12" lengthAdjust="spacingAndGlyphs" textLength="45" x="348.5" y="373.1074">Plasma</text><line style="stroke: #A80036; stroke-width: 1.5;" x1="320.5" x2="395.5" y1="384.9531" y2="384.9531"/><line style="stroke: #A80036; stroke-width: 1.5;" x1="320.5" x2="395.5" y1="392.9531" y2="392.9531"/><!--MD5=[5490510916e4f475821a710c3376735a]
class Ennemy--><rect fill="#FEFECE" filter="url(#fpkyo9t44pva5)" height="48" id="Ennemy" style="stroke: #A80036; stroke-width: 1.5;" width="81" x="268.5" y="244.9531"/><ellipse cx="283.5" cy="260.9531" fill="#ADD1B2" rx="11" ry="11" style="stroke: #A80036; stroke-width: 1.0;"/><path d="M285.8438,256.625 L286.0156,256.7031 C286.2344,256.3906 286.4375,256.2969 286.7344,256.2969 C287.0313,256.2969 287.3125,256.4375 287.4688,256.7031 C287.5625,256.8594 287.5781,256.9844 287.5781,257.4219 L287.5781,258.8438 C287.5781,259.2656 287.5469,259.4531 287.4375,259.6094 C287.2656,259.8281 287,259.9688 286.7344,259.9688 C286.5156,259.9688 286.2813,259.8594 286.1406,259.7188 C286,259.5938 285.9688,259.4688 285.9063,259.0625 C285.8125,258.6563 285.6406,258.4375 285.1563,258.1563 C284.6875,257.9063 284.0781,257.75 283.5,257.75 C281.7656,257.75 280.5156,259.0625 280.5156,260.8438 L280.5156,261.9375 C280.5156,263.6406 281.8125,264.7344 283.8594,264.7344 C284.625,264.7344 285.3125,264.6094 285.7344,264.3438 C285.9219,264.25 285.9219,264.25 286.375,263.7656 C286.5625,263.5781 286.7656,263.5 286.9844,263.5 C287.4531,263.5 287.8438,263.8906 287.8438,264.3438 C287.8438,264.7344 287.5156,265.1875 286.9375,265.5938 C286.1875,266.1406 285.0313,266.4375 283.8125,266.4375 C280.9219,266.4375 278.8125,264.5469 278.8125,261.9688 L278.8125,260.8438 C278.8125,258.125 280.8125,256.0469 283.4375,256.0469 C284.3125,256.0469 284.9063,256.1875 285.8438,256.625 Z "/><text fill="#000000" font-family="sans-serif" font-size="12" lengthAdjust="spacingAndGlyphs" textLength="49" x="297.5" y="265.1074">Ennemy</text><line style="stroke: #A80036; stroke-width: 1.5;" x1="269.5" x2="348.5" y1="276.9531" y2="276.9531"/><line style="stroke: #A80036; stroke-width: 1.5;" x1="269.5" x2="348.5" y1="284.9531" y2="284.9531"/><!--MD5=[b67b57fab9e5c55ef1759718ddce6a3a]
class Allie--><rect fill="#FEFECE" filter="url(#fpkyo9t44pva5)" height="48" id="Allie" style="stroke: #A80036; stroke-width: 1.5;" width="57" x="384.5" y="244.9531"/><ellipse cx="399.5" cy="260.9531" fill="#ADD1B2" rx="11" ry="11" style="stroke: #A80036; stroke-width: 1.0;"/><path d="M401.8438,256.625 L402.0156,256.7031 C402.2344,256.3906 402.4375,256.2969 402.7344,256.2969 C403.0313,256.2969 403.3125,256.4375 403.4688,256.7031 C403.5625,256.8594 403.5781,256.9844 403.5781,257.4219 L403.5781,258.8438 C403.5781,259.2656 403.5469,259.4531 403.4375,259.6094 C403.2656,259.8281 403,259.9688 402.7344,259.9688 C402.5156,259.9688 402.2813,259.8594 402.1406,259.7188 C402,259.5938 401.9688,259.4688 401.9063,259.0625 C401.8125,258.6563 401.6406,258.4375 401.1563,258.1563 C400.6875,257.9063 400.0781,257.75 399.5,257.75 C397.7656,257.75 396.5156,259.0625 396.5156,260.8438 L396.5156,261.9375 C396.5156,263.6406 397.8125,264.7344 399.8594,264.7344 C400.625,264.7344 401.3125,264.6094 401.7344,264.3438 C401.9219,264.25 401.9219,264.25 402.375,263.7656 C402.5625,263.5781 402.7656,263.5 402.9844,263.5 C403.4531,263.5 403.8438,263.8906 403.8438,264.3438 C403.8438,264.7344 403.5156,265.1875 402.9375,265.5938 C402.1875,266.1406 401.0313,266.4375 399.8125,266.4375 C396.9219,266.4375 394.8125,264.5469 394.8125,261.9688 L394.8125,260.8438 C394.8125,258.125 396.8125,256.0469 399.4375,256.0469 C400.3125,256.0469 400.9063,256.1875 401.8438,256.625 Z "/><text fill="#000000" font-family="sans-serif" font-size="12" lengthAdjust="spacingAndGlyphs" textLength="25" x="413.5" y="265.1074">Allie</text><line style="stroke: #A80036; stroke-width: 1.5;" x1="385.5" x2="440.5" y1="276.9531" y2="276.9531"/><line style="stroke: #A80036; stroke-width: 1.5;" x1="385.5" x2="440.5" y1="284.9531" y2="284.9531"/><!--MD5=[2cb47ba637a0d19583e6199456f6ad0b]
class Player--><rect fill="#FEFECE" filter="url(#fpkyo9t44pva5)" height="48" id="Player" style="stroke: #A80036; stroke-width: 1.5;" width="70" x="477" y="244.9531"/><ellipse cx="492" cy="260.9531" fill="#ADD1B2" rx="11" ry="11" style="stroke: #A80036; stroke-width: 1.0;"/><path d="M494.3438,256.625 L494.5156,256.7031 C494.7344,256.3906 494.9375,256.2969 495.2344,256.2969 C495.5313,256.2969 495.8125,256.4375 495.9688,256.7031 C496.0625,256.8594 496.0781,256.9844 496.0781,257.4219 L496.0781,258.8438 C496.0781,259.2656 496.0469,259.4531 495.9375,259.6094 C495.7656,259.8281 495.5,259.9688 495.2344,259.9688 C495.0156,259.9688 494.7813,259.8594 494.6406,259.7188 C494.5,259.5938 494.4688,259.4688 494.4063,259.0625 C494.3125,258.6563 494.1406,258.4375 493.6563,258.1563 C493.1875,257.9063 492.5781,257.75 492,257.75 C490.2656,257.75 489.0156,259.0625 489.0156,260.8438 L489.0156,261.9375 C489.0156,263.6406 490.3125,264.7344 492.3594,264.7344 C493.125,264.7344 493.8125,264.6094 494.2344,264.3438 C494.4219,264.25 494.4219,264.25 494.875,263.7656 C495.0625,263.5781 495.2656,263.5 495.4844,263.5 C495.9531,263.5 496.3438,263.8906 496.3438,264.3438 C496.3438,264.7344 496.0156,265.1875 495.4375,265.5938 C494.6875,266.1406 493.5313,266.4375 492.3125,266.4375 C489.4219,266.4375 487.3125,264.5469 487.3125,261.9688 L487.3125,260.8438 C487.3125,258.125 489.3125,256.0469 491.9375,256.0469 C492.8125,256.0469 493.4063,256.1875 494.3438,256.625 Z "/><text fill="#000000" font-family="sans-serif" font-size="12" lengthAdjust="spacingAndGlyphs" textLength="38" x="506" y="265.1074">Player</text><line style="stroke: #A80036; stroke-width: 1.5;" x1="478" x2="546" y1="276.9531" y2="276.9531"/><line style="stroke: #A80036; stroke-width: 1.5;" x1="478" x2="546" y1="284.9531" y2="284.9531"/><!--MD5=[aa7f586532e18719e6cefa70fc650583]
class Object--><rect fill="#FEFECE" filter="url(#fpkyo9t44pva5)" height="48" id="Object" style="stroke: #A80036; stroke-width: 1.5;" width="72" x="582" y="244.9531"/><ellipse cx="597" cy="260.9531" fill="#ADD1B2" rx="11" ry="11" style="stroke: #A80036; stroke-width: 1.0;"/><path d="M599.3438,256.625 L599.5156,256.7031 C599.7344,256.3906 599.9375,256.2969 600.2344,256.2969 C600.5313,256.2969 600.8125,256.4375 600.9688,256.7031 C601.0625,256.8594 601.0781,256.9844 601.0781,257.4219 L601.0781,258.8438 C601.0781,259.2656 601.0469,259.4531 600.9375,259.6094 C600.7656,259.8281 600.5,259.9688 600.2344,259.9688 C600.0156,259.9688 599.7813,259.8594 599.6406,259.7188 C599.5,259.5938 599.4688,259.4688 599.4063,259.0625 C599.3125,258.6563 599.1406,258.4375 598.6563,258.1563 C598.1875,257.9063 597.5781,257.75 597,257.75 C595.2656,257.75 594.0156,259.0625 594.0156,260.8438 L594.0156,261.9375 C594.0156,263.6406 595.3125,264.7344 597.3594,264.7344 C598.125,264.7344 598.8125,264.6094 599.2344,264.3438 C599.4219,264.25 599.4219,264.25 599.875,263.7656 C600.0625,263.5781 600.2656,263.5 600.4844,263.5 C600.9531,263.5 601.3438,263.8906 601.3438,264.3438 C601.3438,264.7344 601.0156,265.1875 600.4375,265.5938 C599.6875,266.1406 598.5313,266.4375 597.3125,266.4375 C594.4219,266.4375 592.3125,264.5469 592.3125,261.9688 L592.3125,260.8438 C592.3125,258.125 594.3125,256.0469 596.9375,256.0469 C597.8125,256.0469 598.4063,256.1875 599.3438,256.625 Z "/><text fill="#000000" font-family="sans-serif" font-size="12" lengthAdjust="spacingAndGlyphs" textLength="40" x="611" y="265.1074">Object</text><line style="stroke: #A80036; stroke-width: 1.5;" x1="583" x2="653" y1="276.9531" y2="276.9531"/><line style="stroke: #A80036; stroke-width: 1.5;" x1="583" x2="653" y1="284.9531" y2="284.9531"/><!--MD5=[9a39ccbd4d35b899d18dc162d69b1d63]
class Particle--><rect fill="#FEFECE" filter="url(#fpkyo9t44pva5)" height="48" id="Particle" style="stroke: #A80036; stroke-width: 1.5;" width="79" x="689.5" y="244.9531"/><ellipse cx="704.5" cy="260.9531" fill="#ADD1B2" rx="11" ry="11" style="stroke: #A80036; stroke-width: 1.0;"/><path d="M706.8438,256.625 L707.0156,256.7031 C707.2344,256.3906 707.4375,256.2969 707.7344,256.2969 C708.0313,256.2969 708.3125,256.4375 708.4688,256.7031 C708.5625,256.8594 708.5781,256.9844 708.5781,257.4219 L708.5781,258.8438 C708.5781,259.2656 708.5469,259.4531 708.4375,259.6094 C708.2656,259.8281 708,259.9688 707.7344,259.9688 C707.5156,259.9688 707.2813,259.8594 707.1406,259.7188 C707,259.5938 706.9688,259.4688 706.9063,259.0625 C706.8125,258.6563 706.6406,258.4375 706.1563,258.1563 C705.6875,257.9063 705.0781,257.75 704.5,257.75 C702.7656,257.75 701.5156,259.0625 701.5156,260.8438 L701.5156,261.9375 C701.5156,263.6406 702.8125,264.7344 704.8594,264.7344 C705.625,264.7344 706.3125,264.6094 706.7344,264.3438 C706.9219,264.25 706.9219,264.25 707.375,263.7656 C707.5625,263.5781 707.7656,263.5 707.9844,263.5 C708.4531,263.5 708.8438,263.8906 708.8438,264.3438 C708.8438,264.7344 708.5156,265.1875 707.9375,265.5938 C707.1875,266.1406 706.0313,266.4375 704.8125,266.4375 C701.9219,266.4375 699.8125,264.5469 699.8125,261.9688 L699.8125,260.8438 C699.8125,258.125 701.8125,256.0469 704.4375,256.0469 C705.3125,256.0469 705.9063,256.1875 706.8438,256.625 Z "/><text fill="#000000" font-family="sans-serif" font-size="12" lengthAdjust="spacingAndGlyphs" textLength="47" x="718.5" y="265.1074">Particle</text><line style="stroke: #A80036; stroke-width: 1.5;" x1="690.5" x2="767.5" y1="276.9531" y2="276.9531"/><line style="stroke: #A80036; stroke-width: 1.5;" x1="690.5" x2="767.5" y1="284.9531" y2="284.9531"/><!--MD5=[b1a61172d4c64499b1cccad4d86718fa]
class Shot--><rect fill="#FEFECE" filter="url(#fpkyo9t44pva5)" height="48" id="Shot" style="stroke: #A80036; stroke-width: 1.5;" width="61" x="485.5" y="352.9531"/><ellipse cx="500.5" cy="368.9531" fill="#ADD1B2" rx="11" ry="11" style="stroke: #A80036; stroke-width: 1.0;"/><path d="M502.8438,364.625 L503.0156,364.7031 C503.2344,364.3906 503.4375,364.2969 503.7344,364.2969 C504.0313,364.2969 504.3125,364.4375 504.4688,364.7031 C504.5625,364.8594 504.5781,364.9844 504.5781,365.4219 L504.5781,366.8438 C504.5781,367.2656 504.5469,367.4531 504.4375,367.6094 C504.2656,367.8281 504,367.9688 503.7344,367.9688 C503.5156,367.9688 503.2813,367.8594 503.1406,367.7188 C503,367.5938 502.9688,367.4688 502.9063,367.0625 C502.8125,366.6563 502.6406,366.4375 502.1563,366.1563 C501.6875,365.9063 501.0781,365.75 500.5,365.75 C498.7656,365.75 497.5156,367.0625 497.5156,368.8438 L497.5156,369.9375 C497.5156,371.6406 498.8125,372.7344 500.8594,372.7344 C501.625,372.7344 502.3125,372.6094 502.7344,372.3438 C502.9219,372.25 502.9219,372.25 503.375,371.7656 C503.5625,371.5781 503.7656,371.5 503.9844,371.5 C504.4531,371.5 504.8438,371.8906 504.8438,372.3438 C504.8438,372.7344 504.5156,373.1875 503.9375,373.5938 C503.1875,374.1406 502.0313,374.4375 500.8125,374.4375 C497.9219,374.4375 495.8125,372.5469 495.8125,369.9688 L495.8125,368.8438 C495.8125,366.125 497.8125,364.0469 500.4375,364.0469 C501.3125,364.0469 501.9063,364.1875 502.8438,364.625 Z "/><text fill="#000000" font-family="sans-serif" font-size="12" lengthAdjust="spacingAndGlyphs" textLength="29" x="514.5" y="373.1074">Shot</text><line style="stroke: #A80036; stroke-width: 1.5;" x1="486.5" x2="545.5" y1="384.9531" y2="384.9531"/><line style="stroke: #A80036; stroke-width: 1.5;" x1="486.5" x2="545.5" y1="392.9531" y2="392.9531"/><!--MD5=[82f289de9e69bab842d62ae1f66fa340]
class Explosion--><rect fill="#FEFECE" filter="url(#fpkyo9t44pva5)" height="48" id="Explosion" style="stroke: #A80036; stroke-width: 1.5;" width="91" x="581.5" y="352.9531"/><ellipse cx="596.5" cy="368.9531" fill="#ADD1B2" rx="11" ry="11" style="stroke: #A80036; stroke-width: 1.0;"/><path d="M598.8438,364.625 L599.0156,364.7031 C599.2344,364.3906 599.4375,364.2969 599.7344,364.2969 C600.0313,364.2969 600.3125,364.4375 600.4688,364.7031 C600.5625,364.8594 600.5781,364.9844 600.5781,365.4219 L600.5781,366.8438 C600.5781,367.2656 600.5469,367.4531 600.4375,367.6094 C600.2656,367.8281 600,367.9688 599.7344,367.9688 C599.5156,367.9688 599.2813,367.8594 599.1406,367.7188 C599,367.5938 598.9688,367.4688 598.9063,367.0625 C598.8125,366.6563 598.6406,366.4375 598.1563,366.1563 C597.6875,365.9063 597.0781,365.75 596.5,365.75 C594.7656,365.75 593.5156,367.0625 593.5156,368.8438 L593.5156,369.9375 C593.5156,371.6406 594.8125,372.7344 596.8594,372.7344 C597.625,372.7344 598.3125,372.6094 598.7344,372.3438 C598.9219,372.25 598.9219,372.25 599.375,371.7656 C599.5625,371.5781 599.7656,371.5 599.9844,371.5 C600.4531,371.5 600.8438,371.8906 600.8438,372.3438 C600.8438,372.7344 600.5156,373.1875 599.9375,373.5938 C599.1875,374.1406 598.0313,374.4375 596.8125,374.4375 C593.9219,374.4375 591.8125,372.5469 591.8125,369.9688 L591.8125,368.8438 C591.8125,366.125 593.8125,364.0469 596.4375,364.0469 C597.3125,364.0469 597.9063,364.1875 598.8438,364.625 Z "/><text fill="#000000" font-family="sans-serif" font-size="12" lengthAdjust="spacingAndGlyphs" textLength="59" x="610.5" y="373.1074">Explosion</text><line style="stroke: #A80036; stroke-width: 1.5;" x1="582.5" x2="671.5" y1="384.9531" y2="384.9531"/><line style="stroke: #A80036; stroke-width: 1.5;" x1="582.5" x2="671.5" y1="392.9531" y2="392.9531"/><!--MD5=[8681ebc619518096a38c143fe7ff76fd]
class Environnemental--><rect fill="#FEFECE" filter="url(#fpkyo9t44pva5)" height="48" id="Environnemental" style="stroke: #A80036; stroke-width: 1.5;" width="137" x="707.5" y="352.9531"/><ellipse cx="722.5" cy="368.9531" fill="#ADD1B2" rx="11" ry="11" style="stroke: #A80036; stroke-width: 1.0;"/><path d="M724.8438,364.625 L725.0156,364.7031 C725.2344,364.3906 725.4375,364.2969 725.7344,364.2969 C726.0313,364.2969 726.3125,364.4375 726.4688,364.7031 C726.5625,364.8594 726.5781,364.9844 726.5781,365.4219 L726.5781,366.8438 C726.5781,367.2656 726.5469,367.4531 726.4375,367.6094 C726.2656,367.8281 726,367.9688 725.7344,367.9688 C725.5156,367.9688 725.2813,367.8594 725.1406,367.7188 C725,367.5938 724.9688,367.4688 724.9063,367.0625 C724.8125,366.6563 724.6406,366.4375 724.1563,366.1563 C723.6875,365.9063 723.0781,365.75 722.5,365.75 C720.7656,365.75 719.5156,367.0625 719.5156,368.8438 L719.5156,369.9375 C719.5156,371.6406 720.8125,372.7344 722.8594,372.7344 C723.625,372.7344 724.3125,372.6094 724.7344,372.3438 C724.9219,372.25 724.9219,372.25 725.375,371.7656 C725.5625,371.5781 725.7656,371.5 725.9844,371.5 C726.4531,371.5 726.8438,371.8906 726.8438,372.3438 C726.8438,372.7344 726.5156,373.1875 725.9375,373.5938 C725.1875,374.1406 724.0313,374.4375 722.8125,374.4375 C719.9219,374.4375 717.8125,372.5469 717.8125,369.9688 L717.8125,368.8438 C717.8125,366.125 719.8125,364.0469 722.4375,364.0469 C723.3125,364.0469 723.9063,364.1875 724.8438,364.625 Z "/><text fill="#000000" font-family="sans-serif" font-size="12" lengthAdjust="spacingAndGlyphs" textLength="105" x="736.5" y="373.1074">Environnemental</text><line style="stroke: #A80036; stroke-width: 1.5;" x1="708.5" x2="843.5" y1="384.9531" y2="384.9531"/><line style="stroke: #A80036; stroke-width: 1.5;" x1="708.5" x2="843.5" y1="392.9531" y2="392.9531"/><!--MD5=[4d73933e8a1b3c74497a0a721e574a86]
class Environnement--><rect fill="#FEFECE" filter="url(#fpkyo9t44pva5)" height="48" id="Environnement" style="stroke: #A80036; stroke-width: 1.5;" width="126" x="859" y="244.9531"/><ellipse cx="874" cy="260.9531" fill="#ADD1B2" rx="11" ry="11" style="stroke: #A80036; stroke-width: 1.0;"/><path d="M876.3438,256.625 L876.5156,256.7031 C876.7344,256.3906 876.9375,256.2969 877.2344,256.2969 C877.5313,256.2969 877.8125,256.4375 877.9688,256.7031 C878.0625,256.8594 878.0781,256.9844 878.0781,257.4219 L878.0781,258.8438 C878.0781,259.2656 878.0469,259.4531 877.9375,259.6094 C877.7656,259.8281 877.5,259.9688 877.2344,259.9688 C877.0156,259.9688 876.7813,259.8594 876.6406,259.7188 C876.5,259.5938 876.4688,259.4688 876.4063,259.0625 C876.3125,258.6563 876.1406,258.4375 875.6563,258.1563 C875.1875,257.9063 874.5781,257.75 874,257.75 C872.2656,257.75 871.0156,259.0625 871.0156,260.8438 L871.0156,261.9375 C871.0156,263.6406 872.3125,264.7344 874.3594,264.7344 C875.125,264.7344 875.8125,264.6094 876.2344,264.3438 C876.4219,264.25 876.4219,264.25 876.875,263.7656 C877.0625,263.5781 877.2656,263.5 877.4844,263.5 C877.9531,263.5 878.3438,263.8906 878.3438,264.3438 C878.3438,264.7344 878.0156,265.1875 877.4375,265.5938 C876.6875,266.1406 875.5313,266.4375 874.3125,266.4375 C871.4219,266.4375 869.3125,264.5469 869.3125,261.9688 L869.3125,260.8438 C869.3125,258.125 871.3125,256.0469 873.9375,256.0469 C874.8125,256.0469 875.4063,256.1875 876.3438,256.625 Z "/><text fill="#000000" font-family="sans-serif" font-size="12" lengthAdjust="spacingAndGlyphs" textLength="94" x="888" y="265.1074">Environnement</text><line style="stroke: #A80036; stroke-width: 1.5;" x1="860" x2="984" y1="276.9531" y2="276.9531"/><line style="stroke: #A80036; stroke-width: 1.5;" x1="860" x2="984" y1="284.9531" y2="284.9531"/><!--MD5=[4244cd3406ac0d8586b91910871fbb1a]
class Asteroid--><rect fill="#FEFECE" filter="url(#fpkyo9t44pva5)" height="48" id="Asteroid" style="stroke: #A80036; stroke-width: 1.5;" width="84" x="880" y="352.9531"/><ellipse cx="895" cy="368.9531" fill="#ADD1B2" rx="11" ry="11" style="stroke: #A80036; stroke-width: 1.0;"/><path d="M897.3438,364.625 L897.5156,364.7031 C897.7344,364.3906 897.9375,364.2969 898.2344,364.2969 C898.5313,364.2969 898.8125,364.4375 898.9688,364.7031 C899.0625,364.8594 899.0781,364.9844 899.0781,365.4219 L899.0781,366.8438 C899.0781,367.2656 899.0469,367.4531 898.9375,367.6094 C898.7656,367.8281 898.5,367.9688 898.2344,367.9688 C898.0156,367.9688 897.7813,367.8594 897.6406,367.7188 C897.5,367.5938 897.4688,367.4688 897.4063,367.0625 C897.3125,366.6563 897.1406,366.4375 896.6563,366.1563 C896.1875,365.9063 895.5781,365.75 895,365.75 C893.2656,365.75 892.0156,367.0625 892.0156,368.8438 L892.0156,369.9375 C892.0156,371.6406 893.3125,372.7344 895.3594,372.7344 C896.125,372.7344 896.8125,372.6094 897.2344,372.3438 C897.4219,372.25 897.4219,372.25 897.875,371.7656 C898.0625,371.5781 898.2656,371.5 898.4844,371.5 C898.9531,371.5 899.3438,371.8906 899.3438,372.3438 C899.3438,372.7344 899.0156,373.1875 898.4375,373.5938 C897.6875,374.1406 896.5313,374.4375 895.3125,374.4375 C892.4219,374.4375 890.3125,372.5469 890.3125,369.9688 L890.3125,368.8438 C890.3125,366.125 892.3125,364.0469 894.9375,364.0469 C895.8125,364.0469 896.4063,364.1875 897.3438,364.625 Z "/><text fill="#000000" font-family="sans-serif" font-size="12" lengthAdjust="spacingAndGlyphs" textLength="52" x="909" y="373.1074">Asteroid</text><line style="stroke: #A80036; stroke-width: 1.5;" x1="881" x2="963" y1="384.9531" y2="384.9531"/><line style="stroke: #A80036; stroke-width: 1.5;" x1="881" x2="963" y1="392.9531" y2="392.9531"/><!--MD5=[1b1562314ef50edf921bad0cd204186a]
class World--><rect fill="#FEFECE" filter="url(#fpkyo9t44pva5)" height="48" id="World" style="stroke: #A80036; stroke-width: 1.5;" width="67" x="999.5" y="352.9531"/><ellipse cx="1014.5" cy="368.9531" fill="#ADD1B2" rx="11" ry="11" style="stroke: #A80036; stroke-width: 1.0;"/><path d="M1016.8438,364.625 L1017.0156,364.7031 C1017.2344,364.3906 1017.4375,364.2969 1017.7344,364.2969 C1018.0313,364.2969 1018.3125,364.4375 1018.4688,364.7031 C1018.5625,364.8594 1018.5781,364.9844 1018.5781,365.4219 L1018.5781,366.8438 C1018.5781,367.2656 1018.5469,367.4531 1018.4375,367.6094 C1018.2656,367.8281 1018,367.9688 1017.7344,367.9688 C1017.5156,367.9688 1017.2813,367.8594 1017.1406,367.7188 C1017,367.5938 1016.9688,367.4688 1016.9063,367.0625 C1016.8125,366.6563 1016.6406,366.4375 1016.1563,366.1563 C1015.6875,365.9063 1015.0781,365.75 1014.5,365.75 C1012.7656,365.75 1011.5156,367.0625 1011.5156,368.8438 L1011.5156,369.9375 C1011.5156,371.6406 1012.8125,372.7344 1014.8594,372.7344 C1015.625,372.7344 1016.3125,372.6094 1016.7344,372.3438 C1016.9219,372.25 1016.9219,372.25 1017.375,371.7656 C1017.5625,371.5781 1017.7656,371.5 1017.9844,371.5 C1018.4531,371.5 1018.8438,371.8906 1018.8438,372.3438 C1018.8438,372.7344 1018.5156,373.1875 1017.9375,373.5938 C1017.1875,374.1406 1016.0313,374.4375 1014.8125,374.4375 C1011.9219,374.4375 1009.8125,372.5469 1009.8125,369.9688 L1009.8125,368.8438 C1009.8125,366.125 1011.8125,364.0469 1014.4375,364.0469 C1015.3125,364.0469 1015.9063,364.1875 1016.8438,364.625 Z "/><text fill="#000000" font-family="sans-serif" font-size="12" lengthAdjust="spacingAndGlyphs" textLength="35" x="1028.5" y="373.1074">World</text><line style="stroke: #A80036; stroke-width: 1.5;" x1="1000.5" x2="1065.5" y1="384.9531" y2="384.9531"/><line style="stroke: #A80036; stroke-width: 1.5;" x1="1000.5" x2="1065.5" y1="392.9531" y2="392.9531"/><!--MD5=[7581e9fb36ca250921a13198413adc31]
class Ceiling--><rect fill="#FEFECE" filter="url(#fpkyo9t44pva5)" height="48" id="Ceiling" style="stroke: #A80036; stroke-width: 1.5;" width="73" x="885.5" y="460.9531"/><ellipse cx="900.5" cy="476.9531" fill="#ADD1B2" rx="11" ry="11" style="stroke: #A80036; stroke-width: 1.0;"/><path d="M902.8438,472.625 L903.0156,472.7031 C903.2344,472.3906 903.4375,472.2969 903.7344,472.2969 C904.0313,472.2969 904.3125,472.4375 904.4688,472.7031 C904.5625,472.8594 904.5781,472.9844 904.5781,473.4219 L904.5781,474.8438 C904.5781,475.2656 904.5469,475.4531 904.4375,475.6094 C904.2656,475.8281 904,475.9688 903.7344,475.9688 C903.5156,475.9688 903.2813,475.8594 903.1406,475.7188 C903,475.5938 902.9688,475.4688 902.9063,475.0625 C902.8125,474.6563 902.6406,474.4375 902.1563,474.1563 C901.6875,473.9063 901.0781,473.75 900.5,473.75 C898.7656,473.75 897.5156,475.0625 897.5156,476.8438 L897.5156,477.9375 C897.5156,479.6406 898.8125,480.7344 900.8594,480.7344 C901.625,480.7344 902.3125,480.6094 902.7344,480.3438 C902.9219,480.25 902.9219,480.25 903.375,479.7656 C903.5625,479.5781 903.7656,479.5 903.9844,479.5 C904.4531,479.5 904.8438,479.8906 904.8438,480.3438 C904.8438,480.7344 904.5156,481.1875 903.9375,481.5938 C903.1875,482.1406 902.0313,482.4375 900.8125,482.4375 C897.9219,482.4375 895.8125,480.5469 895.8125,477.9688 L895.8125,476.8438 C895.8125,474.125 897.8125,472.0469 900.4375,472.0469 C901.3125,472.0469 901.9063,472.1875 902.8438,472.625 Z "/><text fill="#000000" font-family="sans-serif" font-size="12" lengthAdjust="spacingAndGlyphs" textLength="41" x="914.5" y="481.1074">Ceiling</text><line style="stroke: #A80036; stroke-width: 1.5;" x1="886.5" x2="957.5" y1="492.9531" y2="492.9531"/><line style="stroke: #A80036; stroke-width: 1.5;" x1="886.5" x2="957.5" y1="500.9531" y2="500.9531"/><!--MD5=[1588e1699d15b0c1cd52f9948c502ec8]
class Ground--><rect fill="#FEFECE" filter="url(#fpkyo9t44pva5)" height="48" id="Ground" style="stroke: #A80036; stroke-width: 1.5;" width="78" x="994" y="460.9531"/><ellipse cx="1009" cy="476.9531" fill="#ADD1B2" rx="11" ry="11" style="stroke: #A80036; stroke-width: 1.0;"/><path d="M1011.3438,472.625 L1011.5156,472.7031 C1011.7344,472.3906 1011.9375,472.2969 1012.2344,472.2969 C1012.5313,472.2969 1012.8125,472.4375 1012.9688,472.7031 C1013.0625,472.8594 1013.0781,472.9844 1013.0781,473.4219 L1013.0781,474.8438 C1013.0781,475.2656 1013.0469,475.4531 1012.9375,475.6094 C1012.7656,475.8281 1012.5,475.9688 1012.2344,475.9688 C1012.0156,475.9688 1011.7813,475.8594 1011.6406,475.7188 C1011.5,475.5938 1011.4688,475.4688 1011.4063,475.0625 C1011.3125,474.6563 1011.1406,474.4375 1010.6563,474.1563 C1010.1875,473.9063 1009.5781,473.75 1009,473.75 C1007.2656,473.75 1006.0156,475.0625 1006.0156,476.8438 L1006.0156,477.9375 C1006.0156,479.6406 1007.3125,480.7344 1009.3594,480.7344 C1010.125,480.7344 1010.8125,480.6094 1011.2344,480.3438 C1011.4219,480.25 1011.4219,480.25 1011.875,479.7656 C1012.0625,479.5781 1012.2656,479.5 1012.4844,479.5 C1012.9531,479.5 1013.3438,479.8906 1013.3438,480.3438 C1013.3438,480.7344 1013.0156,481.1875 1012.4375,481.5938 C1011.6875,482.1406 1010.5313,482.4375 1009.3125,482.4375 C1006.4219,482.4375 1004.3125,480.5469 1004.3125,477.9688 L1004.3125,476.8438 C1004.3125,474.125 1006.3125,472.0469 1008.9375,472.0469 C1009.8125,472.0469 1010.4063,472.1875 1011.3438,472.625 Z "/><text fill="#000000" font-family="sans-serif" font-size="12" lengthAdjust="spacingAndGlyphs" textLength="46" x="1023" y="481.1074">Ground</text><line style="stroke: #A80036; stroke-width: 1.5;" x1="995" x2="1071" y1="492.9531" y2="492.9531"/><line style="stroke: #A80036; stroke-width: 1.5;" x1="995" x2="1071" y1="500.9531" y2="500.9531"/><!--MD5=[1abe2431fa898062a60cd78ec67dfcfd]
class BackGround--><rect fill="#FEFECE" filter="url(#fpkyo9t44pva5)" height="48" id="BackGround" style="stroke: #A80036; stroke-width: 1.5;" width="108" x="1107" y="460.9531"/><ellipse cx="1122" cy="476.9531" fill="#ADD1B2" rx="11" ry="11" style="stroke: #A80036; stroke-width: 1.0;"/><path d="M1124.3438,472.625 L1124.5156,472.7031 C1124.7344,472.3906 1124.9375,472.2969 1125.2344,472.2969 C1125.5313,472.2969 1125.8125,472.4375 1125.9688,472.7031 C1126.0625,472.8594 1126.0781,472.9844 1126.0781,473.4219 L1126.0781,474.8438 C1126.0781,475.2656 1126.0469,475.4531 1125.9375,475.6094 C1125.7656,475.8281 1125.5,475.9688 1125.2344,475.9688 C1125.0156,475.9688 1124.7813,475.8594 1124.6406,475.7188 C1124.5,475.5938 1124.4688,475.4688 1124.4063,475.0625 C1124.3125,474.6563 1124.1406,474.4375 1123.6563,474.1563 C1123.1875,473.9063 1122.5781,473.75 1122,473.75 C1120.2656,473.75 1119.0156,475.0625 1119.0156,476.8438 L1119.0156,477.9375 C1119.0156,479.6406 1120.3125,480.7344 1122.3594,480.7344 C1123.125,480.7344 1123.8125,480.6094 1124.2344,480.3438 C1124.4219,480.25 1124.4219,480.25 1124.875,479.7656 C1125.0625,479.5781 1125.2656,479.5 1125.4844,479.5 C1125.9531,479.5 1126.3438,479.8906 1126.3438,480.3438 C1126.3438,480.7344 1126.0156,481.1875 1125.4375,481.5938 C1124.6875,482.1406 1123.5313,482.4375 1122.3125,482.4375 C1119.4219,482.4375 1117.3125,480.5469 1117.3125,477.9688 L1117.3125,476.8438 C1117.3125,474.125 1119.3125,472.0469 1121.9375,472.0469 C1122.8125,472.0469 1123.4063,472.1875 1124.3438,472.625 Z "/><text fill="#000000" font-family="sans-serif" font-size="12" lengthAdjust="spacingAndGlyphs" textLength="76" x="1136" y="481.1074">BackGround</text><line style="stroke: #A80036; stroke-width: 1.5;" x1="1108" x2="1214" y1="492.9531" y2="492.9531"/><line style="stroke: #A80036; stroke-width: 1.5;" x1="1108" x2="1214" y1="500.9531" y2="500.9531"/><!--MD5=[7bcbb881b42d79667a92fdb9ed69cf88]
reverse link EntityManager to Entity--><path d="M512,90.2911 C512,105.6341 512,123.0511 512,136.6311 " fill="none" id="EntityManager&lt;-Entity" style="stroke: #A80036; stroke-width: 1.0;"/><polygon fill="#FFFFFF" points="512,76.9531,508,82.9531,512,88.9531,516,82.9531,512,76.9531" style="stroke: #A80036; stroke-width: 1.0;"/><!--MD5=[6fce1f92b9f6ed4415ea0e68228f41e2]
reverse link Entity to Projectile--><path d="M458.263,178.3161 C405.342,194.6021 322.307,220.6111 251,244.9531 C245.16,246.9471 239.038,249.1011 233,251.2631 " fill="none" id="Entity&lt;-Projectile" style="stroke: #A80036; stroke-width: 1.0;"/><polygon fill="none" points="456.474,171.5431,477.648,172.3721,460.579,184.9281,456.474,171.5431" style="stroke: #A80036; stroke-width: 1.0;"/><!--MD5=[e1b1d72c94ac3d3ea0cac983ce99f09d]
reverse link Projectile to Laser--><path d="M139.16,304.6981 C116.967,320.4861 91.3133,338.7371 71.5246,352.8151 " fill="none" id="Projectile&lt;-Laser" style="stroke: #A80036; stroke-width: 1.0;"/><polygon fill="none" points="135.315,298.8431,155.669,292.9531,143.43,310.2511,135.315,298.8431" style="stroke: #A80036; stroke-width: 1.0;"/><!--MD5=[7e03f72d9bab9de78a8a522a3950e51a]
reverse link Projectile to Bullet--><path d="M169.566,311.5281 C163.373,325.4961 156.686,340.5751 151.341,352.6311 " fill="none" id="Projectile&lt;-Bullet" style="stroke: #A80036; stroke-width: 1.0;"/><polygon fill="none" points="163.296,308.3991,177.802,292.9531,176.094,314.0741,163.296,308.3991" style="stroke: #A80036; stroke-width: 1.0;"/><!--MD5=[7294c64ceda4de13a4e1fa115eaecc9e]
reverse link Projectile to Rocket--><path d="M210.606,310.5661 C218.529,324.8011 227.154,340.2981 234.019,352.6311 " fill="none" id="Projectile&lt;-Rocket" style="stroke: #A80036; stroke-width: 1.0;"/><polygon fill="none" points="204.413,313.8331,200.802,292.9531,216.645,307.0241,204.413,313.8331" style="stroke: #A80036; stroke-width: 1.0;"/><!--MD5=[91123de22fb393dabffb72b3d5dc9b25]
reverse link Projectile to Plasma--><path d="M241.86,303.5361 C267.598,319.5851 297.758,338.3901 320.891,352.8151 " fill="none" id="Projectile&lt;-Plasma" style="stroke: #A80036; stroke-width: 1.0;"/><polygon fill="none" points="238.155,309.4751,224.887,292.9531,245.562,297.5961,238.155,309.4751" style="stroke: #A80036; stroke-width: 1.0;"/><!--MD5=[da714eba59cccc66a78938466e534476]
reverse link Entity to Ennemy--><path d="M459.666,189.2801 C425.365,207.1911 381.187,230.2591 349.552,246.7781 " fill="none" id="Entity&lt;-Ennemy" style="stroke: #A80036; stroke-width: 1.0;"/><polygon fill="none" points="456.595,182.9871,477.564,179.9341,463.075,195.3971,456.595,182.9871" style="stroke: #A80036; stroke-width: 1.0;"/><!--MD5=[bebde0fcc4feccf9043bfe603ac81213]
reverse link Entity to Allie--><path d="M476.74,199.7061 C462.739,214.6971 447.077,231.4671 434.781,244.6311 " fill="none" id="Entity&lt;-Allie" style="stroke: #A80036; stroke-width: 1.0;"/><polygon fill="none" points="471.751,194.7921,490.518,184.9531,481.983,204.3481,471.751,194.7921" style="stroke: #A80036; stroke-width: 1.0;"/><!--MD5=[12bb95a47a00263d9ac83c2497efb6a3]
reverse link Entity to Player--><path d="M512,204.9771 C512,218.5321 512,232.9911 512,244.6311 " fill="none" id="Entity&lt;-Player" style="stroke: #A80036; stroke-width: 1.0;"/><polygon fill="none" points="505,204.9531,512,184.9531,519,204.9531,505,204.9531" style="stroke: #A80036; stroke-width: 1.0;"/><!--MD5=[cc0875f8f92117d77ae739f185dfcf69]
reverse link Entity to Object--><path d="M549.28,199.2331 C564.391,214.3441 581.375,231.3281 594.678,244.6311 " fill="none" id="Entity&lt;-Object" style="stroke: #A80036; stroke-width: 1.0;"/><polygon fill="none" points="544.193,204.0451,535,184.9531,554.092,194.1461,544.193,204.0451" style="stroke: #A80036; stroke-width: 1.0;"/><!--MD5=[ea8f068c544a4cf479d6f0ef7092a876]
reverse link Entity to Particle--><path d="M564.606,187.6501 C603.004,206.4071 654.251,231.4401 689.257,248.5391 " fill="none" id="Entity&lt;-Particle" style="stroke: #A80036; stroke-width: 1.0;"/><polygon fill="none" points="561.282,193.8171,546.384,178.7491,567.427,181.2381,561.282,193.8171" style="stroke: #A80036; stroke-width: 1.0;"/><!--MD5=[d0749371dd2b046b0c9e124358b78dea]
reverse link Particle to Shot--><path d="M671.37,298.6331 C631.21,318.6181 579.212,344.4961 546.726,360.6621 " fill="none" id="Particle&lt;-Shot" style="stroke: #A80036; stroke-width: 1.0;"/><polygon fill="none" points="668.411,292.2861,689.436,289.6421,674.649,304.8201,668.411,292.2861" style="stroke: #A80036; stroke-width: 1.0;"/><!--MD5=[ed233fdc99093ccd78bec41b84039336]
reverse link Particle to Explosion--><path d="M692.672,307.7061 C678.246,322.6971 662.109,339.4671 649.442,352.6311 " fill="none" id="Particle&lt;-Explosion" style="stroke: #A80036; stroke-width: 1.0;"/><polygon fill="none" points="687.956,302.5111,706.868,292.9531,698.044,312.2191,687.956,302.5111" style="stroke: #A80036; stroke-width: 1.0;"/><!--MD5=[62daadac5f9e94f03b095da5d9a2c04b]
reverse link Particle to Environnemental--><path d="M747.434,311.5281 C753.627,325.4961 760.314,340.5751 765.659,352.6311 " fill="none" id="Particle&lt;-Environnemental" style="stroke: #A80036; stroke-width: 1.0;"/><polygon fill="none" points="740.906,314.0741,739.198,292.9531,753.704,308.3991,740.906,314.0741" style="stroke: #A80036; stroke-width: 1.0;"/><!--MD5=[60b78e91477e265ce802b1ac8ef9d4e3]
reverse link Entity to Environnement--><path d="M565.821,175.8681 C641.35,195.3951 778.517,230.8571 858.8,251.6141 " fill="none" id="Entity&lt;-Environnement" style="stroke: #A80036; stroke-width: 1.0;"/><polygon fill="none" points="563.862,182.5921,546.251,170.8081,567.367,169.0371,563.862,182.5921" style="stroke: #A80036; stroke-width: 1.0;"/><!--MD5=[cdbed3686267b5cd070f312563387131]
reverse link Environnement to Asteroid--><path d="M922,312.9771 C922,326.5321 922,340.9911 922,352.6311 " fill="none" id="Environnement&lt;-Asteroid" style="stroke: #A80036; stroke-width: 1.0;"/><polygon fill="none" points="915,312.9531,922,292.9531,929,312.9531,915,312.9531" style="stroke: #A80036; stroke-width: 1.0;"/><!--MD5=[58a7f711d33975dce72fc6af0adedf18]
reverse link Environnement to World--><path d="M961.039,307.2331 C976.862,322.3441 994.648,339.3281 1008.58,352.6311 " fill="none" id="Environnement&lt;-World" style="stroke: #A80036; stroke-width: 1.0;"/><polygon fill="none" points="955.715,311.8291,946.085,292.9531,965.384,301.7041,955.715,311.8291" style="stroke: #A80036; stroke-width: 1.0;"/><!--MD5=[e2e0423cfc0e517f17b0a016263e9fdd]
reverse link World to Ceiling--><path d="M993.961,415.2333 C978.138,430.3436 960.352,447.3283 946.422,460.6315 " fill="none" id="World&lt;-Ceiling" style="stroke: #A80036; stroke-width: 1.0;"/><polygon fill="none" points="989.616,409.7037,1008.91,400.9531,999.285,419.8286,989.616,409.7037" style="stroke: #A80036; stroke-width: 1.0;"/><!--MD5=[761318ea18dada5c87768505bddb8db3]
reverse link World to Ground--><path d="M1033,420.9767 C1033,434.5323 1033,448.9912 1033,460.6315 " fill="none" id="World&lt;-Ground" style="stroke: #A80036; stroke-width: 1.0;"/><polygon fill="none" points="1026,420.9536,1033,400.9531,1040,420.9535,1026,420.9536" style="stroke: #A80036; stroke-width: 1.0;"/><!--MD5=[48b445e72d4d5398156830182949d271]
reverse link World to BackGround--><path d="M1076.31,413.8224 C1094.98,429.2785 1116.27,446.9126 1132.84,460.6315 " fill="none" id="World&lt;-BackGround" style="stroke: #A80036; stroke-width: 1.0;"/><polygon fill="none" points="1071.71,419.1012,1060.77,400.9531,1080.64,408.3181,1071.71,419.1012" style="stroke: #A80036; stroke-width: 1.0;"/><!--MD5=[e8358921a3858c93d72ff0db03e71ecf]
@startuml
title R-Type Entity

Class EntityManager
Interface Entity 

EntityManager o- - Entity


Entity <|- - Projectile

Projectile <|- - Laser
Projectile <|- - Bullet
Projectile <|- - Rocket
Projectile <|- - Plasma


Entity <|- - Ennemy

Entity <|- - Allie

Entity <|- - Player

Entity <|- - Object

Entity <|- - Particle

Particle <|- - Shot 
Particle <|- - Explosion
Particle <|- - Environnemental

Entity <|- - Environnement

Environnement <|- - Asteroid
Environnement <|- - World

World <|- - Ceiling
World <|- - Ground
World <|- - BackGround
@enduml

PlantUML version 1.2019.12(Sun Nov 03 10:24:54 UTC 2019)
(GPL source distribution)
Java Runtime: Java(TM) SE Runtime Environment
JVM: Java HotSpot(TM) 64-Bit Server VM
Java Version: 1.7.0_25-b15
Operating System: Linux
Default Encoding: UTF-8
Language: en
Country: US
--></g></svg>